<?xml version="1.0" encoding="utf-8"?>
<!-- Generator: Adobe Illustrator 16.0.0, SVG Export Plug-In . SVG Version: 6.00 Build 0)  -->
<!DOCTYPE svg PUBLIC "-//W3C//DTD SVG 1.1//EN" "http://www.w3.org/Graphics/SVG/1.1/DTD/svg11.dtd">
<svg version="1.1" id="Layer_1" xmlns="http://www.w3.org/2000/svg" xmlns:xlink="http://www.w3.org/1999/xlink" x="0px" y="0px"
	 width="16px" height="16px" viewBox="0 0 16 16" enable-background="new 0 0 16 16" xml:space="preserve">
<path fill-rule="evenodd" clip-rule="evenodd" d="M1.121,13.894c0.33-0.631,0.66-1.224,0.952-1.834
	c0.141-0.293,0.065-0.524-0.238-0.755C-0.153,9.792-0.093,7.428,1.947,5.98c1.999-1.417,5.154-1.352,7.064,0.148
	c1.806,1.417,1.817,3.689,0.015,5.109c-1.23,0.971-2.663,1.261-4.19,1.154c-0.33-0.022-0.533,0.032-0.751,0.313
	C3.321,13.691,2.241,13.924,1.121,13.894z"/>
<path fill-rule="evenodd" clip-rule="evenodd" d="M14.688,11.133c-1.057-0.027-1.999-0.352-2.676-1.284
	c-0.094-0.13-0.326-0.179-0.504-0.221c-0.132-0.03-0.28,0.014-0.422,0.017c-0.068,0.001-0.139-0.013-0.211-0.021
	c0.896-2.686-1.183-4.868-4.347-5.225c0.36-0.575,0.834-0.99,1.41-1.263c2.048-0.973,4.091-0.948,6.027,0.252
	c2.151,1.335,2.206,3.744,0.164,5.245c-0.278,0.203-0.377,0.391-0.241,0.697C14.148,9.921,14.41,10.51,14.688,11.133z"/>
</svg>
