<?xml version="1.0" encoding="utf-8"?>
<!-- Generator: Adobe Illustrator 16.0.0, SVG Export Plug-In . SVG Version: 6.00 Build 0)  -->
<!DOCTYPE svg PUBLIC "-//W3C//DTD SVG 1.1//EN" "http://www.w3.org/Graphics/SVG/1.1/DTD/svg11.dtd">
<svg version="1.1" id="Layer_1" xmlns="http://www.w3.org/2000/svg" xmlns:xlink="http://www.w3.org/1999/xlink" x="0px" y="0px"
	 width="16px" height="16px" viewBox="0 0 16 16" enable-background="new 0 0 16 16" xml:space="preserve">
<g>
	<path fill-rule="evenodd" clip-rule="evenodd" fill="#627D53" d="M2.671,7.744C2.75,7.38,2.807,7.011,2.912,6.655
		c0.604-2.043,2.42-3.532,4.54-3.76c1.129-0.122,2.184,0.101,3.176,0.639c0.309,0.167,0.399,0.413,0.262,0.661
		c-0.14,0.255-0.406,0.308-0.719,0.142C7.356,2.843,4.033,4.563,3.632,7.72c-0.279,2.197,1.276,4.351,3.47,4.805
		c2.395,0.495,4.707-0.979,5.252-3.348c0.081-0.355,0.209-0.506,0.448-0.528c0.232-0.021,0.378,0.094,0.526,0.416
		c0,0.032,0,0.064,0,0.098c-0.016,0.045-0.036,0.088-0.048,0.133c-0.511,2.083-1.784,3.447-3.841,4.063
		c-0.341,0.101-0.699,0.138-1.05,0.205c-0.244,0-0.489,0-0.733,0c-0.053-0.015-0.105-0.037-0.161-0.043
		c-2.163-0.212-3.97-1.697-4.587-3.783c-0.103-0.348-0.16-0.709-0.238-1.063C2.671,8.364,2.671,8.054,2.671,7.744z"/>
	<path fill-rule="evenodd" clip-rule="evenodd" fill="#627D53" d="M2.671,8.673c0.078,0.354,0.135,0.716,0.238,1.063
		c0.618,2.086,2.424,3.571,4.587,3.783c0.056,0.006,0.108,0.028,0.161,0.043c-1.658,0-3.316,0-4.986,0
		C2.671,11.933,2.671,10.303,2.671,8.673z"/>
	<path fill-rule="evenodd" clip-rule="evenodd" fill="#627D53" d="M11.708,4.492c-0.266-0.506-0.515-0.98-0.763-1.455
		c-0.097-0.186-0.138-0.397,0.021-0.545c0.108-0.103,0.295-0.168,0.447-0.167c0.108,0.001,0.259,0.116,0.316,0.22
		c0.365,0.663,0.716,1.334,1.057,2.01c0.141,0.279,0.029,0.548-0.271,0.648c-0.763,0.254-1.53,0.496-2.3,0.733
		C9.962,6.016,9.729,5.879,9.652,5.64c-0.08-0.249,0.037-0.495,0.3-0.583C10.522,4.868,11.096,4.688,11.708,4.492z"/>
</g>
<g>
	<path fill="#627D53" d="M5.248,9.469l-0.142,0.743h-0.38l0.706-3.688h0.596l0.706,3.688H6.323L6.181,9.469H5.248z M5.301,9.116
		h0.822L5.706,6.987L5.301,9.116z"/>
	<path fill="#627D53" d="M8.682,7.415V7.73h-0.39V7.393c0-0.332-0.131-0.532-0.432-0.532c-0.295,0-0.432,0.2-0.432,0.532v1.95
		c0,0.331,0.137,0.532,0.432,0.532c0.301,0,0.432-0.201,0.432-0.532V8.605H7.912V8.236h0.77v1.086c0,0.559-0.263,0.927-0.832,0.927
		c-0.564,0-0.827-0.368-0.827-0.927V7.415c0-0.559,0.263-0.928,0.827-0.928C8.418,6.487,8.682,6.855,8.682,7.415z"/>
	<path fill="#627D53" d="M10.381,8.158v0.369h-0.9v1.313h1.107v0.373H9.07V6.523h1.518v0.375H9.48v1.26H10.381z"/>
</g>
</svg>
