<svg width="51" height="40" viewBox="0 0 51 40" fill="none" xmlns="http://www.w3.org/2000/svg">
<g clip-path="url(#clip0_113_1017)">
<path d="M39.1703 17.631L39.5668 24.5905C39.6255 25.6036 39.0235 26.5433 37.7608 27.4096C36.4981 28.2758 34.7729 28.9622 32.5852 29.4688C30.3975 29.9753 28.0263 30.2286 25.4715 30.2286C22.9168 30.2286 20.5455 29.9753 18.3578 29.4688C16.1701 28.9622 14.4449 28.2758 13.1822 27.4096C11.9195 26.5433 11.3176 25.6036 11.3763 24.5905L11.7727 17.631L24.4144 21.6173C24.7374 21.7201 25.0898 21.7715 25.4715 21.7715C25.8533 21.7715 26.2057 21.7201 26.5287 21.6173L39.1703 17.631ZM50.3584 9.81253C50.6815 9.92999 50.843 10.1576 50.843 10.4953C50.843 10.833 50.6815 11.0605 50.3584 11.178L25.6918 18.9304C25.633 18.9451 25.5596 18.9524 25.4715 18.9524C25.3834 18.9524 25.31 18.9451 25.2513 18.9304L10.8918 14.3935C10.2604 14.8927 9.73919 15.7112 9.32807 16.8491C8.91696 17.987 8.66736 19.2975 8.57927 20.7804C9.50427 21.309 9.96677 22.1092 9.96677 23.181C9.96677 24.1941 9.54097 24.9796 8.68938 25.5375L9.96677 35.0738C9.99613 35.2794 9.9374 35.4629 9.79058 35.6244C9.65843 35.7859 9.48224 35.8667 9.262 35.8667H5.03343C4.81319 35.8667 4.637 35.7859 4.50486 35.6244C4.35803 35.4629 4.2993 35.2794 4.32867 35.0738L5.60605 25.5375C4.75446 24.9796 4.32867 24.1941 4.32867 23.181C4.32867 22.1092 4.80585 21.2943 5.76022 20.7363C5.92173 17.6971 6.64117 15.2744 7.91855 13.4685L0.584622 11.178C0.261606 11.0605 0.100098 10.833 0.100098 10.4953C0.100098 10.1576 0.261606 9.92999 0.584622 9.81253L25.2513 2.06015C25.31 2.04546 25.3834 2.03812 25.4715 2.03812C25.5596 2.03812 25.633 2.04546 25.6918 2.06015L50.3584 9.81253Z" fill="#343A40"/>
</g>
<defs>
<clipPath id="clip0_113_1017">
<rect width="50.764" height="39.4667" fill="white" transform="matrix(1 0 0 -1 0.100098 39.5669)"/>
</clipPath>
</defs>
</svg>
