<svg width="17" height="18" viewBox="0 0 17 18" fill="none" xmlns="http://www.w3.org/2000/svg">
<g clip-path="url(#clip0_238_997)">
<path d="M5.59365 4.13096L5.59365 5.52451C9.05663 5.52451 11.8646 8.33252 11.8646 11.7955L13.2582 11.7955C13.2582 7.56607 9.82657 4.13444 5.59365 4.13096ZM5.59365 9.70517L5.59365 11.7955L7.68398 11.7955C7.68434 11.5209 7.63053 11.2489 7.52561 10.9951C7.42069 10.7414 7.26673 10.5108 7.07255 10.3166C6.87837 10.1224 6.64779 9.96846 6.39402 9.86354C6.14024 9.75862 5.86826 9.70481 5.59365 9.70517ZM5.59365 6.91807L5.59365 8.31162C6.51752 8.312 7.40343 8.67918 8.0567 9.33245C8.70998 9.98572 9.07715 10.8716 9.07753 11.7955L10.4711 11.7955C10.4711 9.10594 8.28669 6.92155 5.59365 6.91807Z" fill="#51B7C7"/>
</g>
<defs>
<clipPath id="clip0_238_997">
<rect width="11.8247" height="11.8247" fill="white" transform="translate(8.38086 0.646973) rotate(45)"/>
</clipPath>
</defs>
</svg>
