<?xml version="1.0" encoding="utf-8"?>
<!-- Generator: Adobe Illustrator 16.0.0, SVG Export Plug-In . SVG Version: 6.00 Build 0)  -->
<!DOCTYPE svg PUBLIC "-//W3C//DTD SVG 1.1//EN" "http://www.w3.org/Graphics/SVG/1.1/DTD/svg11.dtd">
<svg version="1.1" id="Layer_1" xmlns="http://www.w3.org/2000/svg" xmlns:xlink="http://www.w3.org/1999/xlink" x="0px" y="0px"
	 width="157px" height="179px" viewBox="0 0 157 179" enable-background="new 0 0 157 179" xml:space="preserve">
<rect x="1" y="1" fill-rule="evenodd" clip-rule="evenodd" fill="#FFFFFF" stroke="#627D53" stroke-width="2" stroke-miterlimit="10" width="155" height="177"/>
<rect x="1" y="1" fill-rule="evenodd" clip-rule="evenodd" fill="#627D53" width="155" height="56"/>
<g>
	<path fill-rule="evenodd" clip-rule="evenodd" fill="#394730" d="M68.844,118.51c1.116,3.684,0.045,6.232-3.738,7.527
		c-4.713,1.613-6.093,5.16-5.463,9.794c0.593,4.37,3.371,6.28,7.659,6.402c0,7.608,0,14.946,0,23.568
		c-4.517-1.665-9.112-2.34-12.361-4.796c-4.845-3.662-9.638-8.008-12.876-13.07C30.562,129.959,27.281,109.45,24.981,89.09
		c8.369-1.598,16.382-2.735,24.177-4.727c7.975-2.037,14.957-6.095,19.888-13.374C80.374,85.195,96.253,87.225,113.4,88.454
		c-1.406,8.421-2.787,16.69-4.402,26.364c-7.758-8.263-14.531-4.658-21.283-0.439c-4.355,2.725-9.002,4.2-14.245,3.633
		c-1.53-0.166-3.138,0.385-4.705,0.598c0.008-14.635,0.008-29.26,0.008-44.449C57.637,87.128,42.56,88.188,27.083,90.014
		c1.602,9.533,3.142,18.707,4.697,27.961c6.676,0,12.422-0.068,18.164,0.021C56.246,118.09,62.544,118.334,68.844,118.51z"/>
	<path fill-rule="evenodd" clip-rule="evenodd" fill="#627D53" d="M98.808,167.77c-7.672,0.002-15.349-0.1-23.02,0.045
		c-3.631,0.068-5.029-1.398-4.953-4.994c0.146-6.933-0.117-13.877,0.161-20.801c0.059-1.475,1.36-3.506,2.671-4.225
		c7.492-4.113,15.113-8.002,22.811-11.716c1.318-0.637,3.476-0.618,4.801,0.02c7.699,3.712,15.313,7.604,22.823,11.681
		c1.236,0.671,2.532,2.523,2.581,3.873c0.253,7.223,0.063,14.459,0.146,21.69c0.036,3.222-1.395,4.49-4.56,4.454
		C114.452,167.707,106.628,167.768,98.808,167.77z M109.185,155.813c0-2.064-0.137-4.141,0.028-6.191
		c0.305-3.76-1.213-5.484-5.068-5.313c-3.533,0.154-7.082,0.146-10.616,0.014c-3.83-0.145-5.355,1.545-5.066,5.331
		c0.202,2.638,0.037,5.306,0.037,7.962c0.004,9.271,0.004,9.289,9.477,9.27C110.444,166.857,109.131,168.076,109.185,155.813z"/>
	<path fill-rule="evenodd" clip-rule="evenodd" fill="#627D53" d="M134.703,132.537c0,6.004-1.61,6.982-5.769,4.861
		c-9.06-4.627-18.134-9.229-27.114-14.008c-2.198-1.171-3.883-1.107-6.05,0.046c-8.854,4.708-17.803,9.229-26.725,13.806
		c-1.941,0.998-4.282,2.7-5.551-0.406c-1.042-2.555-1.479-5.509,1.917-7.235c7.622-3.876,15.622-7.202,22.699-11.906
		c7.667-5.096,14.108-4.724,21.636,0.144c6.901,4.463,14.646,7.606,21.906,11.547C133.171,130.21,134.181,131.976,134.703,132.537z"
		/>
	<path fill-rule="evenodd" clip-rule="evenodd" fill="#FFFFFF" d="M68.844,118.51c-6.299-0.176-12.598-0.42-18.9-0.515
		c-5.742-0.089-11.488-0.021-18.164-0.021c-1.556-9.254-3.096-18.428-4.697-27.961c15.478-1.826,30.554-2.886,41.691-15.854
		c0,15.189,0,29.814-0.008,44.449C68.759,118.619,68.844,118.51,68.844,118.51z"/>
	<path fill-rule="evenodd" clip-rule="evenodd" fill="#FFFFFF" d="M109.185,155.813c-0.054,12.264,1.259,11.045-11.208,11.072
		c-9.473,0.02-9.473,0.002-9.477-9.27c0-2.656,0.166-5.324-0.037-7.962c-0.289-3.786,1.237-5.476,5.066-5.331
		c3.534,0.133,7.083,0.141,10.616-0.014c3.855-0.172,5.373,1.553,5.068,5.313C109.048,151.672,109.185,153.748,109.185,155.813z"/>
</g>
<g>
	<path fill="#FFFFFF" d="M45.108,36.822c-0.52-0.576-0.779-1.402-0.779-2.479v-0.761h1.976v0.912c0,0.861,0.361,1.292,1.083,1.292
		c0.354,0,0.624-0.104,0.808-0.313c0.183-0.209,0.275-0.548,0.275-1.017c0-0.557-0.127-1.048-0.38-1.473
		c-0.254-0.424-0.722-0.934-1.406-1.529c-0.861-0.76-1.463-1.447-1.805-2.062c-0.342-0.614-0.513-1.308-0.513-2.081
		c0-1.051,0.266-1.864,0.798-2.441c0.532-0.576,1.305-0.864,2.318-0.864c1,0,1.758,0.288,2.271,0.864
		c0.513,0.577,0.77,1.403,0.77,2.48v0.551h-1.976v-0.684c0-0.457-0.089-0.789-0.266-0.998c-0.178-0.209-0.437-0.313-0.779-0.313
		c-0.697,0-1.045,0.425-1.045,1.272c0,0.482,0.13,0.932,0.39,1.35c0.259,0.418,0.731,0.924,1.416,1.52
		c0.874,0.76,1.476,1.451,1.805,2.071c0.33,0.62,0.494,1.349,0.494,2.185c0,1.09-0.269,1.926-0.808,2.508
		c-0.538,0.584-1.32,0.875-2.346,0.875C46.394,37.688,45.628,37.398,45.108,36.822z"/>
	<path fill="#FFFFFF" d="M51.758,24.197h3.078c1.039,0,1.817,0.279,2.337,0.836c0.52,0.558,0.779,1.375,0.779,2.451v1.311
		c0,1.077-0.26,1.895-0.779,2.451c-0.52,0.558-1.298,0.836-2.337,0.836h-0.988v5.415h-2.09V24.197z M54.836,30.182
		c0.342,0,0.599-0.095,0.77-0.285c0.171-0.189,0.256-0.512,0.256-0.969v-1.576c0-0.457-0.085-0.779-0.256-0.97
		s-0.427-0.284-0.77-0.284h-0.988v4.084H54.836z"/>
	<path fill="#FFFFFF" d="M59.757,36.813c-0.544-0.582-0.817-1.405-0.817-2.469v-6.992c0-1.064,0.272-1.888,0.817-2.471
		c0.544-0.582,1.33-0.874,2.356-0.874c1.026,0,1.812,0.292,2.356,0.874c0.545,0.583,0.817,1.406,0.817,2.471v6.992
		c0,1.063-0.272,1.887-0.817,2.469c-0.544,0.584-1.33,0.875-2.356,0.875C61.087,37.688,60.302,37.396,59.757,36.813z M63.196,34.477
		v-7.258c0-0.875-0.361-1.312-1.083-1.312c-0.722,0-1.083,0.437-1.083,1.312v7.258c0,0.873,0.361,1.311,1.083,1.311
		C62.835,35.787,63.196,35.35,63.196,34.477z"/>
	<path fill="#FFFFFF" d="M66.692,24.197h3.097c1.077,0,1.862,0.25,2.356,0.75c0.494,0.501,0.741,1.271,0.741,2.309v0.817
		c0,1.38-0.456,2.255-1.368,2.622v0.037c0.506,0.152,0.865,0.463,1.074,0.932s0.313,1.096,0.313,1.881v2.337
		c0,0.38,0.012,0.688,0.038,0.922s0.089,0.466,0.19,0.693h-2.128c-0.076-0.216-0.126-0.418-0.152-0.608
		c-0.025-0.189-0.038-0.531-0.038-1.025v-2.432c0-0.608-0.098-1.033-0.294-1.273s-0.535-0.361-1.017-0.361h-0.722v5.7h-2.09V24.197z
		 M69.542,29.896c0.418,0,0.731-0.107,0.94-0.322s0.313-0.576,0.313-1.083v-1.026c0-0.48-0.085-0.829-0.256-1.045
		c-0.171-0.215-0.44-0.322-0.808-0.322h-0.95v3.799H69.542z"/>
	<path fill="#FFFFFF" d="M75.946,26.098h-2.185v-1.9h6.46v1.9h-2.185v11.399h-2.09V26.098z"/>
	<path fill="#FFFFFF" d="M84.923,36.832c-0.526-0.57-0.789-1.374-0.789-2.413v-7.144c0-1.039,0.263-1.844,0.789-2.413
		c0.525-0.57,1.289-0.855,2.29-0.855c1,0,1.764,0.285,2.29,0.855c0.525,0.569,0.788,1.374,0.788,2.413v1.406h-1.976v-1.539
		c0-0.824-0.349-1.235-1.045-1.235c-0.696,0-1.045,0.411-1.045,1.235v7.429c0,0.811,0.349,1.216,1.045,1.216
		c0.697,0,1.045-0.405,1.045-1.216v-2.033h1.976v1.881c0,1.039-0.263,1.843-0.788,2.413c-0.526,0.57-1.289,0.855-2.29,0.855
		C86.211,37.688,85.448,37.402,84.923,36.832z"/>
	<path fill="#FFFFFF" d="M91.544,24.197h2.09v11.4h3.439v1.899h-5.529V24.197z"/>
	<path fill="#FFFFFF" d="M98.802,36.822c-0.532-0.576-0.798-1.402-0.798-2.479V24.197h2.09v10.298c0,0.456,0.092,0.786,0.275,0.987
		c0.184,0.203,0.447,0.305,0.789,0.305c0.342,0,0.605-0.102,0.789-0.305c0.184-0.201,0.275-0.531,0.275-0.987V24.197h2.014v10.146
		c0,1.076-0.266,1.902-0.798,2.479c-0.532,0.576-1.305,0.865-2.318,0.865S99.334,37.398,98.802,36.822z"/>
	<path fill="#FFFFFF" d="M105.717,24.197h3.154c1.076,0,1.862,0.25,2.356,0.75c0.494,0.501,0.741,1.271,0.741,2.309v0.532
		c0,0.685-0.111,1.241-0.333,1.672s-0.56,0.741-1.016,0.931v0.039c1.038,0.354,1.558,1.279,1.558,2.773v1.141
		c0,1.025-0.269,1.808-0.807,2.346c-0.539,0.539-1.327,0.808-2.366,0.808h-3.287V24.197z M108.625,29.612
		c0.418,0,0.731-0.108,0.94-0.323s0.313-0.576,0.313-1.083v-0.741c0-0.48-0.085-0.829-0.256-1.045
		c-0.171-0.215-0.44-0.322-0.808-0.322h-1.007v3.515H108.625z M109.004,35.598c0.367,0,0.64-0.099,0.817-0.295
		s0.266-0.535,0.266-1.017v-1.159c0-0.607-0.104-1.029-0.313-1.264s-0.554-0.352-1.036-0.352h-0.931v4.086H109.004z"/>
	<path fill="#FFFFFF" d="M113.811,36.822c-0.52-0.576-0.779-1.402-0.779-2.479v-0.761h1.976v0.912c0,0.861,0.361,1.292,1.083,1.292
		c0.354,0,0.624-0.104,0.808-0.313c0.183-0.209,0.275-0.548,0.275-1.017c0-0.557-0.127-1.048-0.38-1.473
		c-0.254-0.424-0.722-0.934-1.406-1.529c-0.861-0.76-1.463-1.447-1.805-2.062c-0.342-0.614-0.513-1.308-0.513-2.081
		c0-1.051,0.266-1.864,0.798-2.441c0.532-0.576,1.305-0.864,2.318-0.864c1,0,1.758,0.288,2.271,0.864
		c0.513,0.577,0.77,1.403,0.77,2.48v0.551h-1.976v-0.684c0-0.457-0.089-0.789-0.266-0.998c-0.178-0.209-0.437-0.313-0.779-0.313
		c-0.697,0-1.045,0.425-1.045,1.272c0,0.482,0.13,0.932,0.39,1.35c0.259,0.418,0.731,0.924,1.416,1.52
		c0.874,0.76,1.476,1.451,1.805,2.071c0.33,0.62,0.494,1.349,0.494,2.185c0,1.09-0.269,1.926-0.808,2.508
		c-0.538,0.584-1.32,0.875-2.346,0.875C115.097,37.688,114.331,37.398,113.811,36.822z"/>
</g>
</svg>
