<?xml version="1.0" encoding="utf-8"?>
<!-- Generator: Adobe Illustrator 16.0.0, SVG Export Plug-In . SVG Version: 6.00 Build 0)  -->
<!DOCTYPE svg PUBLIC "-//W3C//DTD SVG 1.1//EN" "http://www.w3.org/Graphics/SVG/1.1/DTD/svg11.dtd">
<svg version="1.1" id="Layer_1" xmlns="http://www.w3.org/2000/svg" xmlns:xlink="http://www.w3.org/1999/xlink" x="0px" y="0px"
	 width="157px" height="179px" viewBox="0 0 157 179" enable-background="new 0 0 157 179" xml:space="preserve">
<rect x="1" y="1" fill-rule="evenodd" clip-rule="evenodd" fill="#FFFFFF" stroke="#627D53" stroke-width="2" stroke-miterlimit="10" width="155" height="177"/>
<rect x="2" y="1" fill-rule="evenodd" clip-rule="evenodd" fill="#627D53" width="155" height="57"/>
<g>
	<path fill="#FFFFFF" d="M27.077,20.294h2.09v5.415h2.242v-5.415h2.09v13.3h-2.09v-5.984h-2.242v5.984h-2.09V20.294z"/>
	<path fill="#FFFFFF" d="M35.722,32.91c-0.544-0.583-0.817-1.406-0.817-2.471v-6.992c0-1.063,0.272-1.887,0.817-2.47
		c0.544-0.582,1.33-0.874,2.356-0.874c1.026,0,1.812,0.292,2.356,0.874c0.545,0.583,0.817,1.406,0.817,2.47v6.992
		c0,1.064-0.272,1.888-0.817,2.471c-0.544,0.582-1.33,0.873-2.356,0.873C37.052,33.783,36.267,33.492,35.722,32.91z M39.161,30.572
		v-7.258c0-0.873-0.361-1.311-1.083-1.311c-0.722,0-1.083,0.438-1.083,1.311v7.258c0,0.875,0.361,1.312,1.083,1.312
		C38.8,31.884,39.161,31.447,39.161,30.572z"/>
	<path fill="#FFFFFF" d="M42.657,20.294h3.097c1.077,0,1.862,0.25,2.356,0.751c0.494,0.5,0.741,1.27,0.741,2.308v0.817
		c0,1.381-0.456,2.254-1.368,2.622v0.038c0.506,0.152,0.865,0.463,1.074,0.931c0.209,0.469,0.313,1.096,0.313,1.881v2.337
		c0,0.381,0.012,0.688,0.038,0.922s0.089,0.465,0.19,0.693H46.97c-0.076-0.215-0.126-0.418-0.152-0.607
		c-0.025-0.19-0.038-0.533-0.038-1.026v-2.433c0-0.607-0.098-1.031-0.294-1.272s-0.535-0.361-1.017-0.361h-0.722v5.7h-2.09V20.294z
		 M45.507,25.994c0.418,0,0.731-0.107,0.94-0.323s0.313-0.576,0.313-1.083v-1.026c0-0.481-0.085-0.829-0.256-1.045
		c-0.171-0.215-0.44-0.323-0.808-0.323h-0.95v3.801H45.507z"/>
	<path fill="#FFFFFF" d="M50.732,32.92c-0.52-0.577-0.779-1.403-0.779-2.48v-0.76h1.976v0.912c0,0.861,0.361,1.292,1.083,1.292
		c0.354,0,0.624-0.104,0.808-0.313c0.183-0.209,0.275-0.548,0.275-1.017c0-0.558-0.127-1.048-0.38-1.473
		c-0.254-0.424-0.722-0.934-1.406-1.529c-0.861-0.76-1.463-1.446-1.805-2.062c-0.342-0.614-0.513-1.308-0.513-2.08
		c0-1.052,0.266-1.865,0.798-2.441c0.532-0.576,1.305-0.865,2.318-0.865c1,0,1.758,0.289,2.271,0.865
		c0.513,0.576,0.77,1.402,0.77,2.479v0.551h-1.976v-0.684c0-0.455-0.089-0.788-0.266-0.997c-0.178-0.209-0.437-0.313-0.779-0.313
		c-0.697,0-1.045,0.424-1.045,1.273c0,0.48,0.13,0.93,0.39,1.349c0.259,0.418,0.731,0.925,1.416,1.52
		c0.874,0.761,1.476,1.45,1.805,2.071c0.33,0.621,0.494,1.35,0.494,2.186c0,1.089-0.269,1.925-0.808,2.508
		c-0.538,0.582-1.32,0.873-2.346,0.873C52.018,33.783,51.252,33.496,50.732,32.92z"/>
	<path fill="#FFFFFF" d="M57.382,20.294h5.7v1.899h-3.61v3.516h2.869v1.9h-2.869v4.084h3.61v1.9h-5.7V20.294z"/>
	<path fill="#FFFFFF" d="M64.279,20.294h3.154c1.076,0,1.862,0.25,2.356,0.751c0.494,0.5,0.741,1.27,0.741,2.308v0.532
		c0,0.684-0.111,1.242-0.333,1.672c-0.222,0.431-0.56,0.741-1.016,0.932v0.037c1.038,0.355,1.558,1.279,1.558,2.774v1.14
		c0,1.026-0.269,1.809-0.807,2.347c-0.539,0.538-1.327,0.808-2.366,0.808h-3.287V20.294z M67.187,25.709
		c0.418,0,0.731-0.107,0.94-0.323s0.313-0.576,0.313-1.083v-0.741c0-0.481-0.085-0.829-0.256-1.045
		c-0.171-0.215-0.44-0.323-0.808-0.323H66.37v3.516H67.187z M67.566,31.693c0.367,0,0.64-0.098,0.817-0.294s0.266-0.535,0.266-1.017
		v-1.159c0-0.608-0.104-1.028-0.313-1.263s-0.554-0.352-1.036-0.352H66.37v4.084H67.566z"/>
	<path fill="#FFFFFF" d="M73.57,20.294h2.831l2.166,13.3h-2.09l-0.38-2.641v0.037h-2.375l-0.38,2.604h-1.938L73.57,20.294z
		 M75.85,29.186l-0.931-6.574h-0.038l-0.912,6.574H75.85z"/>
	<path fill="#FFFFFF" d="M80.191,32.929c-0.526-0.569-0.789-1.374-0.789-2.413v-7.145c0-1.037,0.263-1.842,0.789-2.412
		c0.525-0.57,1.289-0.855,2.29-0.855c1,0,1.764,0.285,2.29,0.855c0.525,0.57,0.788,1.375,0.788,2.412v1.406h-1.976v-1.539
		c0-0.822-0.349-1.234-1.045-1.234c-0.696,0-1.045,0.412-1.045,1.234v7.43c0,0.811,0.349,1.216,1.045,1.216
		c0.697,0,1.045-0.405,1.045-1.216v-2.033h1.976v1.881c0,1.039-0.263,1.844-0.788,2.413c-0.526,0.569-1.289,0.854-2.29,0.854
		C81.48,33.783,80.717,33.498,80.191,32.929z"/>
	<path fill="#FFFFFF" d="M86.813,20.294h2.09v5.604l2.66-5.604h2.09l-2.489,4.883l2.527,8.417h-2.185l-1.767-5.928l-0.836,1.691
		v4.236h-2.09V20.294z"/>
	<path fill="#FFFFFF" d="M97.718,20.294h3.097c1.077,0,1.862,0.25,2.356,0.751c0.494,0.5,0.741,1.27,0.741,2.308v0.817
		c0,1.381-0.456,2.254-1.368,2.622v0.038c0.506,0.152,0.865,0.463,1.074,0.931c0.209,0.469,0.313,1.096,0.313,1.881v2.337
		c0,0.381,0.012,0.688,0.038,0.922s0.089,0.465,0.19,0.693h-2.128c-0.076-0.215-0.126-0.418-0.152-0.607
		c-0.025-0.19-0.038-0.533-0.038-1.026v-2.433c0-0.607-0.098-1.031-0.294-1.272s-0.535-0.361-1.017-0.361h-0.722v5.7h-2.09V20.294z
		 M100.568,25.994c0.418,0,0.731-0.107,0.94-0.323s0.313-0.576,0.313-1.083v-1.026c0-0.481-0.085-0.829-0.256-1.045
		c-0.171-0.215-0.44-0.323-0.808-0.323h-0.95v3.801H100.568z"/>
	<path fill="#FFFFFF" d="M105.375,20.294h2.09v13.3h-2.09V20.294z"/>
	<path fill="#FFFFFF" d="M109.023,20.294h3.192c1.038,0,1.817,0.278,2.337,0.836c0.519,0.558,0.779,1.374,0.779,2.45v6.727
		c0,1.076-0.26,1.895-0.779,2.451c-0.52,0.558-1.299,0.836-2.337,0.836h-3.192V20.294z M112.177,31.693
		c0.342,0,0.604-0.102,0.789-0.304c0.183-0.202,0.275-0.532,0.275-0.987v-6.916c0-0.457-0.092-0.785-0.275-0.988
		c-0.184-0.203-0.447-0.305-0.789-0.305h-1.064v9.5H112.177z"/>
	<path fill="#FFFFFF" d="M116.737,20.294h2.09v13.3h-2.09V20.294z"/>
	<path fill="#FFFFFF" d="M120.385,20.294h2.622l2.033,7.961h0.038v-7.961h1.862v13.3h-2.147l-2.508-9.709h-0.038v9.709h-1.862
		V20.294z"/>
	<path fill="#FFFFFF" d="M129.144,32.92c-0.532-0.577-0.798-1.403-0.798-2.48v-6.992c0-1.076,0.266-1.902,0.798-2.479
		c0.532-0.576,1.305-0.865,2.318-0.865c1.013,0,1.786,0.289,2.318,0.865c0.532,0.576,0.798,1.402,0.798,2.479v1.141h-1.976v-1.273
		c0-0.873-0.361-1.311-1.083-1.311c-0.722,0-1.083,0.438-1.083,1.311v7.277c0,0.861,0.361,1.292,1.083,1.292
		c0.722,0,1.083-0.431,1.083-1.292v-2.604h-1.045v-1.899h3.021v4.351c0,1.077-0.266,1.903-0.798,2.48
		c-0.532,0.576-1.305,0.863-2.318,0.863C130.448,33.783,129.676,33.496,129.144,32.92z"/>
</g>
<g>
	<path fill-rule="evenodd" clip-rule="evenodd" fill="#627D53" d="M125.544,101.183c-0.852,0.524-1.663,1.138-2.565,1.556
		c-1.631,0.756-2.944,0.338-3.243-1.531c-0.232-1.449-1.116-1.748-2.277-2.033c-2.885-0.709-5.073-2.427-5.684-5.352
		c-0.495-2.367-2.001-2.238-3.537-1.94c-3.248,0.629-4.387,3.291-4.698,6.071c-0.31,2.771,0.06,5.617,0.131,8.43
		c0.037,1.459,0.755,1.983,2.222,1.907c1.731-0.09,3.474,0.075,5.211,0.089c1.277,0.009,1.843,0.652,1.848,1.88
		c0.014,3.114,0.048,6.229,0.023,9.344c-0.004,0.464-0.145,1.13-0.466,1.355c-2.849,1.995-5.752,3.913-8.64,5.854
		c-0.234-0.188-0.467-0.376-0.701-0.564c0.223-1.382,0.273-2.828,0.747-4.118c0.215-0.587,1.24-1.167,1.946-1.231
		c2.241-0.208,3.722-1.379,4.128-3.621c0.051-0.283,0.122-0.595,0.057-0.862c-0.311-1.278-0.665-2.546-1.003-3.817
		c-0.914,0.621-1.872,1.188-2.735,1.873c-2.917,2.314-5.814,4.572-9.928,4.026c-0.489-0.064-1.167,0.702-1.639,1.196
		c-5.807,6.057-12.562,10.43-21.002,11.74c-1.633,0.254-3.335,0.354-4.976,0.203c-2.148-0.197-3.485,0.721-4.319,2.526
		c-0.725,1.569-1.401,3.173-1.95,4.812c-1.101,3.279-2.748,6.204-5.232,8.629c-4.867,4.751-7.17,10.698-8.262,17.274
		c-0.375,2.261-0.995,4.515-1.81,6.655c-0.483,1.268-1.565,2.309-2.585,3.742c-1.56-1.941-2.475-3.671-1.857-5.653
		c0.292-0.938,1.42-1.616,2.17-2.412c0.217,0.119,0.434,0.239,0.651,0.357c0.555-4.636,1.018-9.285,1.718-13.898
		c0.219-1.445,0.854-2.945,1.682-4.159c2.342-3.432,2.554-7.018,1.037-10.718c-1.323-3.229-2.715-6.37-2.113-10.026
		c0.07-0.423-1.23-1.58-1.758-1.5c-1.893,0.29-3.836,0.737-5.553,1.559c-1.663,0.796-2.101,2.467-0.979,4.045
		c0.864,1.218,2.02,2.245,3.128,3.268c1.539,1.421,3.313,2.619,4.684,4.179c0.949,1.079,1.385,2.609,2.05,3.938
		c-0.192,0.1-0.386,0.198-0.578,0.297c-0.872-0.697-1.744-1.396-2.962-2.371c0.513,2.194,0.922,3.947,1.332,5.701
		c-0.142,0.068-0.282,0.139-0.424,0.208c-0.176-0.144-0.403-0.254-0.519-0.436c-3.703-5.835-8.637-10.466-14.094-14.62
		c-1.096-0.835-1.875-2.086-2.801-3.145c0-0.58,0-1.159,0-1.739c2.092-4.79,5.961-6.804,11.194-5.706
		c1.76,0.37,3.462,1.008,5.194,1.512c2.614,0.761,3.441,0.338,5.104-1.824c1.313-1.707,2.679-3.567,4.446-4.692
		c3.823-2.433,7.835-4.612,11.924-6.574c5.493-2.636,9.911-6.417,13.448-11.323c1.656-2.297,3.389-4.538,4.909-6.566
		c-0.402,0.119-1.32,0.395-2.387,0.713c0.793-2.24,3.324-3.818,1.905-6.538c-0.102-0.194,0.325-0.839,0.652-1.054
		c1.481-0.971,2.969-1.952,4.546-2.747c0.936-0.472,2.042-0.604,3.086-0.893c-1.436-0.752-2.743-1.437-4.05-2.122
		c2.578-0.775,4.981-0.947,7.271-1.553c3.217-0.851,6.327-2.428,9.683-0.086c0.045-0.212,0.09-0.424,0.135-0.636
		c-1.04-0.702-2.079-1.403-3.119-2.104c1.015,0,2.03,0,3.045,0c2.994,1.271,5.988,2.543,9.057,3.846
		c0.051-0.178,0.18-0.625,0.308-1.072c0.176-0.104,0.351-0.207,0.525-0.31c1.518,2.576,3.378,5.017,4.477,7.761
		c1.845,4.609,3.207,9.412,4.771,14.133C125.544,100.602,125.544,100.893,125.544,101.183z"/>
	<path fill-rule="evenodd" clip-rule="evenodd" fill="#394730" d="M78.587,80.031c1.839,0.783,3.434,1.813,3.942,3.93
		c0.597,2.488-0.78,5.125-3.115,5.972c-2.508,0.909-5.259-0.213-6.384-2.604c-1.096-2.331-0.303-5.032,1.901-6.432
		c0.477-0.303,0.987-0.552,1.481-0.825C77.137,80.059,77.862,80.045,78.587,80.031z"/>
	<path fill-rule="evenodd" clip-rule="evenodd" fill="#394730" d="M73.427,99.964c-0.177,0.614-0.235,1.302-0.557,1.829
		c-0.631,1.032-1.409,1.977-2.323,3.227c2.107,0.258,3.882,0.506,5.663,0.688c2.844,0.291,3.671,1.16,3.814,3.943
		c0.198,3.834,0.475,7.662,0.668,11.496c0.122,2.403-0.806,3.65-2.632,3.707c-1.733,0.053-2.861-1.23-3.01-3.521
		c-0.108-1.662-0.098-3.333-0.209-4.995c-0.111-1.657-0.308-3.309-0.482-5.115c-2.261-0.307-4.463-0.611-6.667-0.902
		c-5.077-0.668-7.062-3.966-4.584-8.424c1.731-3.111,4.077-5.93,6.438-8.627c1.552-1.771,3.843-2.551,6.098-1.26
		c0.842,0.482,1.399,1.735,1.705,2.751c0.132,0.442-0.696,1.173-1.089,1.772c-0.141-0.25-0.22-0.621-0.434-0.729
		c-0.985-0.498-2.233-1.523-2.972-1.247c-1.527,0.57-1.112,2.062-0.485,3.304C72.722,98.563,73.075,99.263,73.427,99.964z"/>
	<path fill-rule="evenodd" clip-rule="evenodd" fill="#394730" d="M73.427,99.964c-0.353-0.701-0.705-1.401-1.058-2.103
		c-0.627-1.242-1.042-2.733,0.485-3.304c0.738-0.276,1.986,0.749,2.972,1.247c0.213,0.107,0.293,0.479,0.434,0.729
		c1.6,1.629,3.199,3.258,4.799,4.888c0.39,0.348,0.78,0.696,1.171,1.044c0.699,0.474,1.339,1.119,2.109,1.387
		c1.902,0.661,2.571,1.863,2.056,3.777l0.061-0.059c-2.466,0.889-4.168-1.005-6.198-1.703c-0.267-0.053-0.533-0.104-0.799-0.156
		l0.029,0.041c-0.183-0.27-0.365-0.539-0.548-0.81C77.102,103.283,75.264,101.623,73.427,99.964z"/>
</g>
</svg>
