<?xml version="1.0" encoding="utf-8"?>
<!-- Generator: Adobe Illustrator 16.0.0, SVG Export Plug-In . SVG Version: 6.00 Build 0)  -->
<!DOCTYPE svg PUBLIC "-//W3C//DTD SVG 1.1//EN" "http://www.w3.org/Graphics/SVG/1.1/DTD/svg11.dtd">
<svg version="1.1" id="Layer_1" xmlns="http://www.w3.org/2000/svg" xmlns:xlink="http://www.w3.org/1999/xlink" x="0px" y="0px"
	 width="157px" height="179px" viewBox="0 0 157 179" enable-background="new 0 0 157 179" xml:space="preserve">
<rect x="1" y="1" fill-rule="evenodd" clip-rule="evenodd" fill="#FFFFFF" stroke="#627D53" stroke-width="2" stroke-miterlimit="10" width="155" height="177"/>
<rect x="2" y="1" fill-rule="evenodd" clip-rule="evenodd" fill="#627D53" width="155" height="56"/>
<g>
	<path fill="#FFFFFF" d="M29.621,32.92c-0.52-0.577-0.779-1.403-0.779-2.48v-0.76h1.976v0.912c0,0.861,0.361,1.292,1.083,1.292
		c0.354,0,0.624-0.104,0.808-0.313c0.183-0.209,0.275-0.548,0.275-1.017c0-0.558-0.127-1.048-0.38-1.473
		c-0.254-0.424-0.722-0.934-1.406-1.529c-0.861-0.76-1.463-1.446-1.805-2.062c-0.342-0.614-0.513-1.308-0.513-2.08
		c0-1.052,0.266-1.865,0.798-2.441c0.532-0.576,1.305-0.865,2.318-0.865c1,0,1.758,0.289,2.271,0.865
		c0.513,0.576,0.77,1.402,0.77,2.479v0.551h-1.976v-0.684c0-0.455-0.089-0.788-0.266-0.997c-0.178-0.209-0.437-0.313-0.779-0.313
		c-0.697,0-1.045,0.424-1.045,1.273c0,0.48,0.13,0.93,0.39,1.349c0.259,0.418,0.731,0.925,1.416,1.52
		c0.874,0.761,1.476,1.45,1.805,2.071c0.33,0.621,0.494,1.35,0.494,2.186c0,1.089-0.269,1.925-0.808,2.508
		c-0.538,0.582-1.32,0.873-2.346,0.873C30.907,33.783,30.141,33.496,29.621,32.92z"/>
	<path fill="#FFFFFF" d="M35.777,20.294h2.014l0.931,10.222h0.038l0.988-10.222h2.28l0.988,10.222h0.038l0.931-10.222h1.805
		l-1.349,13.3h-2.603l-0.95-8.968H40.85l-0.95,8.968h-2.774L35.777,20.294z"/>
	<path fill="#FFFFFF" d="M46.854,20.294h2.09v13.3h-2.09V20.294z"/>
	<path fill="#FFFFFF" d="M50.502,20.294h2.983l1.33,9.519h0.038l1.33-9.519h2.983v13.3H57.19v-10.07h-0.038l-1.52,10.07h-1.748
		l-1.52-10.07h-0.038v10.07h-1.824V20.294z"/>
	<path fill="#FFFFFF" d="M60.724,20.294h2.983l1.33,9.519h0.038l1.33-9.519h2.983v13.3h-1.976v-10.07h-0.038l-1.52,10.07h-1.748
		l-1.52-10.07h-0.038v10.07h-1.824V20.294z"/>
	<path fill="#FFFFFF" d="M70.945,20.294h2.09v13.3h-2.09V20.294z"/>
	<path fill="#FFFFFF" d="M74.593,20.294h2.622l2.033,7.961h0.038v-7.961h1.862v13.3h-2.147l-2.508-9.709h-0.038v9.709h-1.862V20.294
		z"/>
	<path fill="#FFFFFF" d="M83.352,32.92c-0.532-0.577-0.798-1.403-0.798-2.48v-6.992c0-1.076,0.266-1.902,0.798-2.479
		c0.532-0.576,1.305-0.865,2.318-0.865c1.013,0,1.786,0.289,2.318,0.865c0.532,0.576,0.798,1.402,0.798,2.479v1.141H86.81v-1.273
		c0-0.873-0.361-1.311-1.083-1.311c-0.722,0-1.083,0.438-1.083,1.311v7.277c0,0.861,0.361,1.292,1.083,1.292
		c0.722,0,1.083-0.431,1.083-1.292v-2.604h-1.045v-1.899h3.021v4.351c0,1.077-0.266,1.903-0.798,2.48
		c-0.532,0.576-1.305,0.863-2.318,0.863C84.657,33.783,83.884,33.496,83.352,32.92z"/>
	<path fill="#FFFFFF" d="M93.174,20.294h3.078c1.039,0,1.817,0.278,2.337,0.836s0.779,1.374,0.779,2.45v1.312
		c0,1.077-0.26,1.894-0.779,2.451s-1.298,0.836-2.337,0.836h-0.988v5.415h-2.09V20.294z M96.252,26.279
		c0.342,0,0.599-0.096,0.77-0.285c0.171-0.19,0.256-0.514,0.256-0.969v-1.578c0-0.455-0.085-0.778-0.256-0.969
		c-0.171-0.189-0.427-0.285-0.77-0.285h-0.988v4.086H96.252z"/>
	<path fill="#FFFFFF" d="M101.173,32.91c-0.544-0.583-0.817-1.406-0.817-2.471v-6.992c0-1.063,0.272-1.887,0.817-2.47
		c0.544-0.582,1.33-0.874,2.356-0.874c1.026,0,1.812,0.292,2.356,0.874c0.545,0.583,0.817,1.406,0.817,2.47v6.992
		c0,1.064-0.272,1.888-0.817,2.471c-0.544,0.582-1.33,0.873-2.356,0.873C102.503,33.783,101.718,33.492,101.173,32.91z
		 M104.612,30.572v-7.258c0-0.873-0.361-1.311-1.083-1.311c-0.722,0-1.083,0.438-1.083,1.311v7.258c0,0.875,0.361,1.312,1.083,1.312
		C104.251,31.884,104.612,31.447,104.612,30.572z"/>
	<path fill="#FFFFFF" d="M108.773,32.91c-0.544-0.583-0.817-1.406-0.817-2.471v-6.992c0-1.063,0.272-1.887,0.817-2.47
		c0.544-0.582,1.33-0.874,2.356-0.874c1.026,0,1.812,0.292,2.356,0.874c0.545,0.583,0.817,1.406,0.817,2.47v6.992
		c0,1.064-0.272,1.888-0.817,2.471c-0.544,0.582-1.33,0.873-2.356,0.873C110.104,33.783,109.318,33.492,108.773,32.91z
		 M112.212,30.572v-7.258c0-0.873-0.361-1.311-1.083-1.311c-0.722,0-1.083,0.438-1.083,1.311v7.258c0,0.875,0.361,1.312,1.083,1.312
		C111.852,31.884,112.212,31.447,112.212,30.572z"/>
	<path fill="#FFFFFF" d="M115.708,20.294h2.09v11.399h3.439v1.9h-5.529V20.294z"/>
	<path fill="#FFFFFF" d="M122.663,32.92c-0.52-0.577-0.779-1.403-0.779-2.48v-0.76h1.976v0.912c0,0.861,0.361,1.292,1.083,1.292
		c0.354,0,0.624-0.104,0.808-0.313c0.183-0.209,0.275-0.548,0.275-1.017c0-0.558-0.127-1.048-0.38-1.473
		c-0.254-0.424-0.722-0.934-1.406-1.529c-0.861-0.76-1.463-1.446-1.805-2.062c-0.342-0.614-0.513-1.308-0.513-2.08
		c0-1.052,0.266-1.865,0.798-2.441c0.532-0.576,1.305-0.865,2.318-0.865c1,0,1.758,0.289,2.271,0.865
		c0.513,0.576,0.77,1.402,0.77,2.479v0.551h-1.976v-0.684c0-0.455-0.089-0.788-0.266-0.997c-0.178-0.209-0.437-0.313-0.779-0.313
		c-0.697,0-1.045,0.424-1.045,1.273c0,0.48,0.13,0.93,0.39,1.349c0.259,0.418,0.731,0.925,1.416,1.52
		c0.874,0.761,1.476,1.45,1.805,2.071c0.33,0.621,0.494,1.35,0.494,2.186c0,1.089-0.269,1.925-0.808,2.508
		c-0.538,0.582-1.32,0.873-2.346,0.873C123.948,33.783,123.182,33.496,122.663,32.92z"/>
</g>
<g>
	<path fill-rule="evenodd" clip-rule="evenodd" fill="#627D53" d="M19.694,125.693c2.573-9.938,10.001-15.213,18.569-19.444
		c1.425-0.702,2.356-0.589,3.425,0.603c1.46,1.625,3.11,3.08,4.792,4.719c-2.336,1.511-4.571,2.803-6.639,4.322
		c-7.131,5.24-7.346,10.254-0.404,15.618c3.161,2.441,6.819,4.238,10.39,6.411c-3.059,3.399-6.311,7.063-9.646,10.648
		c-0.345,0.371-1.325,0.576-1.772,0.362c-6.645-3.185-12.809-7.023-16.503-13.717c-0.995-1.803-1.488-3.883-2.211-5.835
		C19.694,128.151,19.694,126.924,19.694,125.693z"/>
	<path fill-rule="evenodd" clip-rule="evenodd" fill="#627D53" d="M138.206,129.381c-2.579,10.559-10.635,15.707-19.687,20.086
		c-3.602-3.965-7.126-7.846-10.501-11.563c3.492-2.09,6.933-3.968,10.161-6.158c1.556-1.057,2.881-2.578,4.013-4.108
		c1.796-2.431,2.024-5.223-0.084-7.485c-2.134-2.289-2.47-4.814-2.292-7.678c0.117-1.888,0.022-3.79,0.022-6.153
		c8.313,4.463,15.778,9.027,17.928,18.745c0.051,0.23,0.29,0.42,0.441,0.628C138.206,126.924,138.206,128.151,138.206,129.381z"/>
	<path fill-rule="evenodd" clip-rule="evenodd" fill="#627D53" d="M115.588,92.711c-1.092,0.925-2.094,1.775-3.193,2.707
		c-0.379-0.242-0.818-0.537-1.271-0.808c-1.422-0.849-2.773-0.58-3.988,0.392c-1.304,1.043-1.436,2.544-1.289,4.062
		c0.026,0.273,0.449,0.617,0.761,0.736c2.055,0.776,4.13,1.5,6.326,2.287c0.401-2.72,1.429-4.979,3.744-6.431
		c2.896-1.817,5.883-1.818,8.727-0.021c2.872,1.814,3.962,4.647,3.695,7.961c-0.101,1.252-0.847,2.16-2.284,2.113
		c-1.417-0.049-2.023-0.955-2.194-2.229c-0.087-0.651,0.024-1.339-0.131-1.968c-0.434-1.758-2.154-2.933-3.83-2.712
		c-1.841,0.243-3.14,1.653-3.154,3.643c-0.041,5.347-0.011,10.693-0.021,16.039c-0.001,0.603-0.009,1.218-0.129,1.803
		c-0.25,1.213-1.081,1.748-2.282,1.681c-1.229-0.069-1.944-0.771-2.017-1.982c-0.078-1.318,0.007-2.646-0.072-3.965
		c-0.026-0.424-0.25-1.078-0.554-1.199c-2.074-0.827-4.194-1.541-6.526-2.37c-0.06,1.109-0.087,1.967-0.156,2.821
		c-0.104,1.284-0.781,2.066-2.104,2.063c-1.354-0.005-2.214-0.693-2.218-2.113c-0.017-6.118-0.064-12.236,0.028-18.354
		c0.045-2.998,2.427-5.785,5.464-6.791C110.074,89.029,113.258,89.975,115.588,92.711z M112.995,110.927
		c0-1.537,0.023-2.836-0.019-4.132c-0.009-0.271-0.2-0.693-0.411-0.773c-2.167-0.83-4.354-1.604-6.781-2.481
		c0,1.589-0.048,2.843,0.031,4.087c0.021,0.348,0.348,0.859,0.656,0.976C108.553,109.398,110.666,110.109,112.995,110.927z"/>
	<path fill-rule="evenodd" clip-rule="evenodd" fill="#627D53" d="M45.534,151.998c3.646-4.035,6.937-7.778,10.379-11.377
		c0.49-0.512,1.782-0.604,2.59-0.413c13.729,3.25,27.433,3.17,41.156-0.039c0.718-0.169,1.869-0.007,2.326,0.472
		c3.44,3.607,6.756,7.333,10.389,11.327C89.947,158.816,67.957,158.759,45.534,151.998z"/>
	<path fill-rule="evenodd" clip-rule="evenodd" fill="#627D53" d="M85.993,98.418c0,2.413,0,4.575,0,7.065
		c-1.59-0.098-3.113-0.251-4.639-0.274c-9.248-0.14-18.367,0.819-27.193,3.685c-1.866,0.605-3.081,0.405-4.354-1.042
		c-1.262-1.436-2.742-2.678-4.498-4.36C58.744,98.796,72.093,97.75,85.993,98.418z"/>
	<path fill-rule="evenodd" clip-rule="evenodd" fill="#627D53" d="M67.898,126.816c-5.058-0.826-9.563,0.448-14.024,2.083
		c-3.819,1.399-7.425,0.651-10.885-1.239c-0.135-0.073-0.248-0.188-0.546-0.42c5.562-1.924,10.974-3.798,16.542-5.725
		c-1.461-1.533-3.186-2.1-5.063-2.242c-1.876-0.145-3.618,0.348-5.213,1.36c-1.111,0.704-2.265,0.633-3.336-0.045
		c-1.011-0.641-1.521-1.67-1.266-2.825c0.161-0.737,0.564-1.639,1.15-2.03c4.68-3.134,9.676-3.455,14.673-0.958
		C64.755,117.186,67.331,121.271,67.898,126.816z"/>
	<path fill-rule="evenodd" clip-rule="evenodd" fill="#627D53" d="M68.459,135.25c-3.094-0.932-6.653-0.5-10.165,0.837
		c-3.096,1.177-6.261,2.011-9.622,1.712c-5.355-0.477-10.07-2.338-13.878-6.273c-1.914-1.977-3.929-3.854-5.91-5.762
		c-0.807-0.778-0.952-1.898-0.312-2.754c0.615-0.821,1.83-1.092,2.704-0.379c1.596,1.303,3.176,2.65,4.588,4.145
		c2.044,2.161,4.008,4.377,6.864,5.505c3.957,1.564,7.963,2.175,12.117,0.757c1.996-0.682,3.988-1.475,6.05-1.837
		c6.703-1.175,12.709,0.46,17.876,4.946c1.191,1.034,1.305,2.252,0.407,3.175c-0.847,0.873-1.991,0.799-3.114-0.243
		C74.052,137.208,71.666,136.066,68.459,135.25z"/>
	<path fill-rule="evenodd" clip-rule="evenodd" fill="#627D53" d="M73.974,125.4c-3.292-0.873-5.23-4.195-4.348-7.457
		c0.88-3.254,4.228-5.191,7.496-4.332c3.271,0.856,5.172,4.161,4.303,7.479C80.56,124.392,77.293,126.28,73.974,125.4z"/>
</g>
</svg>
