<?xml version="1.0" encoding="utf-8"?>
<!-- Generator: Adobe Illustrator 16.0.0, SVG Export Plug-In . SVG Version: 6.00 Build 0)  -->
<!DOCTYPE svg PUBLIC "-//W3C//DTD SVG 1.1//EN" "http://www.w3.org/Graphics/SVG/1.1/DTD/svg11.dtd">
<svg version="1.1" id="Layer_1" xmlns="http://www.w3.org/2000/svg" xmlns:xlink="http://www.w3.org/1999/xlink" x="0px" y="0px"
	 width="156px" height="179px" viewBox="0 0 156 179" enable-background="new 0 0 156 179" xml:space="preserve">
<path fill-rule="evenodd" clip-rule="evenodd" d="M87.09,158.654"/>
<rect x="1" y="1" fill-rule="evenodd" clip-rule="evenodd" fill="#FFFFFF" stroke="#627D53" stroke-width="2" stroke-miterlimit="10" width="154" height="177"/>
<rect x="2" y="1" fill-rule="evenodd" clip-rule="evenodd" fill="#627D53" width="154" height="56"/>
<g>
	<path fill="#FFFFFF" d="M41.176,22.87h3.154c1.076,0,1.862,0.25,2.356,0.751c0.494,0.5,0.741,1.27,0.741,2.308v0.532
		c0,0.684-0.111,1.242-0.333,1.672c-0.222,0.431-0.56,0.741-1.016,0.932v0.037c1.038,0.355,1.558,1.279,1.558,2.774v1.14
		c0,1.026-0.269,1.809-0.807,2.347c-0.539,0.538-1.327,0.808-2.366,0.808h-3.287V22.87z M44.083,28.285
		c0.418,0,0.731-0.107,0.94-0.323s0.313-0.576,0.313-1.083v-0.741c0-0.481-0.085-0.829-0.256-1.045
		c-0.171-0.215-0.44-0.323-0.808-0.323h-1.007v3.516H44.083z M44.463,34.27c0.367,0,0.64-0.098,0.817-0.294s0.266-0.535,0.266-1.017
		V31.8c0-0.608-0.104-1.028-0.313-1.263s-0.554-0.352-1.036-0.352h-0.931v4.084H44.463z"/>
	<path fill="#FFFFFF" d="M49.517,35.486c-0.544-0.583-0.817-1.406-0.817-2.471v-6.992c0-1.063,0.272-1.887,0.817-2.47
		c0.544-0.582,1.33-0.874,2.356-0.874c1.026,0,1.812,0.292,2.356,0.874c0.545,0.583,0.817,1.406,0.817,2.47v6.992
		c0,1.064-0.272,1.888-0.817,2.471c-0.544,0.582-1.33,0.873-2.356,0.873C50.847,36.359,50.062,36.068,49.517,35.486z M52.956,33.148
		v-7.258c0-0.873-0.361-1.311-1.083-1.311c-0.722,0-1.083,0.438-1.083,1.311v7.258c0,0.875,0.361,1.312,1.083,1.312
		C52.595,34.46,52.956,34.023,52.956,33.148z"/>
	<path fill="#FFFFFF" d="M58.029,22.87h2.831l2.166,13.3h-2.09l-0.38-2.641v0.037h-2.375l-0.38,2.604h-1.938L58.029,22.87z
		 M60.309,31.762l-0.931-6.574H59.34l-0.912,6.574H60.309z"/>
	<path fill="#FFFFFF" d="M64.793,24.77h-2.185V22.87h6.46v1.899h-2.185v11.4h-2.09V24.77z"/>
	<path fill="#FFFFFF" d="M73.115,22.87h3.097c1.077,0,1.862,0.25,2.356,0.751c0.494,0.5,0.741,1.27,0.741,2.308v0.817
		c0,1.381-0.456,2.254-1.368,2.622v0.038c0.506,0.152,0.865,0.463,1.074,0.931c0.209,0.469,0.313,1.096,0.313,1.881v2.337
		c0,0.381,0.012,0.688,0.038,0.922s0.089,0.465,0.19,0.693h-2.128c-0.076-0.215-0.126-0.418-0.152-0.607
		c-0.025-0.19-0.038-0.533-0.038-1.026v-2.433c0-0.607-0.098-1.031-0.294-1.272s-0.535-0.361-1.017-0.361h-0.722v5.7h-2.09V22.87z
		 M75.965,28.57c0.418,0,0.731-0.107,0.94-0.323s0.313-0.576,0.313-1.083v-1.026c0-0.481-0.085-0.829-0.256-1.045
		c-0.171-0.215-0.44-0.323-0.808-0.323h-0.95v3.801H75.965z"/>
	<path fill="#FFFFFF" d="M80.772,22.87h5.7v1.899h-3.61v3.516h2.869v1.9h-2.869v4.084h3.61v1.9h-5.7V22.87z"/>
	<path fill="#FFFFFF" d="M87.669,22.87h2.622l2.033,7.961h0.038V22.87h1.862v13.3h-2.147l-2.508-9.709h-0.038v9.709h-1.862V22.87z"
		/>
	<path fill="#FFFFFF" d="M97.416,24.77h-2.185V22.87h6.46v1.899h-2.185v11.4h-2.09V24.77z"/>
	<path fill="#FFFFFF" d="M103.439,22.87h2.831l2.166,13.3h-2.09l-0.38-2.641v0.037h-2.375l-0.38,2.604h-1.938L103.439,22.87z
		 M105.719,31.762l-0.931-6.574h-0.038l-0.912,6.574H105.719z"/>
	<path fill="#FFFFFF" d="M109.442,22.87h2.09V34.27h3.439v1.9h-5.529V22.87z"/>
	<path fill="#FFFFFF" d="M116.396,35.496c-0.52-0.577-0.779-1.403-0.779-2.48v-0.76h1.976v0.912c0,0.861,0.361,1.292,1.083,1.292
		c0.354,0,0.624-0.104,0.808-0.313c0.183-0.209,0.275-0.548,0.275-1.017c0-0.558-0.127-1.048-0.38-1.473
		c-0.254-0.424-0.722-0.934-1.406-1.529c-0.861-0.76-1.463-1.446-1.805-2.062c-0.342-0.614-0.513-1.308-0.513-2.08
		c0-1.052,0.266-1.865,0.798-2.441c0.532-0.576,1.305-0.865,2.318-0.865c1,0,1.758,0.289,2.271,0.865
		c0.513,0.576,0.77,1.402,0.77,2.479v0.551h-1.976v-0.684c0-0.455-0.089-0.788-0.266-0.997c-0.178-0.209-0.437-0.313-0.779-0.313
		c-0.697,0-1.045,0.424-1.045,1.273c0,0.48,0.13,0.93,0.39,1.349c0.259,0.418,0.731,0.925,1.416,1.52
		c0.874,0.761,1.476,1.45,1.805,2.071c0.33,0.621,0.494,1.35,0.494,2.186c0,1.089-0.269,1.925-0.808,2.508
		c-0.538,0.582-1.32,0.873-2.346,0.873C117.682,36.359,116.916,36.072,116.396,35.496z"/>
</g>
<g>
	<path fill-rule="evenodd" clip-rule="evenodd" fill="#627D53" d="M52.75,105.658c0-7.422-0.029-14.47,0.057-21.516
		c0.007-0.548,0.708-1.308,1.276-1.595c8.709-4.407,17.439-8.771,26.202-13.071c0.617-0.303,1.648-0.276,2.273,0.032
		c8.757,4.309,17.482,8.682,26.191,13.088c0.519,0.262,1.183,0.928,1.188,1.412c0.077,7.102,0.053,14.203,0.053,21.633
		c-6.472-3.045-12.621-5.934-18.766-8.831c-2.739-1.292-5.421-2.719-8.228-3.84c-0.958-0.384-2.376-0.372-3.311,0.056
		C70.821,97.095,62.016,101.291,52.75,105.658z M75.22,79.076c-4.754,2.373-9.2,4.578-13.622,6.829
		c-0.337,0.172-0.716,0.665-0.724,1.017c-0.06,2.75-0.033,5.502-0.033,8.585c4.753-2.369,9.076-4.501,13.364-6.698
		c0.442-0.227,0.955-0.84,0.97-1.29C75.265,84.827,75.22,82.132,75.22,79.076z M87.535,79.074c0,2.787,0.072,5.193-0.03,7.592
		c-0.052,1.236,0.341,1.906,1.473,2.431c2.805,1.297,5.546,2.734,8.319,4.103c1.441,0.712,2.896,1.397,4.622,2.229
		c0-2.979,0.042-5.541-0.036-8.102c-0.015-0.497-0.37-1.222-0.779-1.433C96.7,83.622,92.254,81.43,87.535,79.074z"/>
	<path fill-rule="evenodd" clip-rule="evenodd" fill="#394730" d="M118.224,114.004c-0.629,1.949-1.183,3.663-1.796,5.562
		c-6.448-2.197-12.807-4.359-19.162-6.531c-4.58-1.565-9.125-3.245-13.754-4.652c-1.334-0.406-3.023-0.41-4.344,0.026
		c-10.342,3.419-20.633,6.989-30.941,10.512c-0.57,0.194-1.148,0.364-1.9,0.604c-0.592-1.836-1.161-3.6-1.797-5.573
		c4.099-1.941,8.107-3.844,12.119-5.741c7.595-3.592,15.204-7.152,22.773-10.797c1.335-0.644,2.421-0.72,3.8-0.062
		c11.2,5.349,22.438,10.617,33.662,15.915C117.284,113.455,117.663,113.693,118.224,114.004z"/>
	<path fill-rule="evenodd" clip-rule="evenodd" fill="#627D53" d="M114.443,124.367c-0.08,0.233-0.186,0.867-0.487,1.392
		c-4.215,7.298-8.482,14.563-12.671,21.875c-0.898,1.57-1.874,2-3.642,1.364c-3.242-1.165-6.566-1.005-9.656,0.513
		c-4.53,2.226-8.917,2.07-13.38-0.133c-3.345-1.652-6.835-1.868-10.29-0.367c-1.303,0.566-2.074,0.249-2.727-0.871
		c-2.62-4.485-5.256-8.965-7.863-13.458c-1.543-2.656-3.074-5.318-4.562-8.006c-1.643-2.963-0.929-4.942,2.241-6.105
		c9.382-3.441,18.769-6.868,28.182-10.226c0.877-0.313,2.046-0.363,2.919-0.065c9.379,3.215,18.732,6.501,28.071,9.825
		C112.414,120.759,114.404,121.433,114.443,124.367z"/>
	<path fill-rule="evenodd" clip-rule="evenodd" fill="#627D53" d="M42.545,148.994c2.005,0.173,4.26-0.188,5.97,0.612
		c6.098,2.857,11.941,3.213,18.045,0.002c2.543-1.337,5.424-0.511,7.914,0.675c4.571,2.177,9.011,2.155,13.565,0.011
		c3.406-1.604,6.878-1.585,10.315,0.056c4.672,2.23,9.217,2.146,13.98-0.107c2.067-0.978,4.679-0.824,7.053-1.105
		c0.316-0.037,0.688,0.396,1.034,0.612c-0.184,0.278-0.309,0.634-0.56,0.821c-2.466,1.845-5.146,3.453-7.391,5.531
		c-4.028,3.729-8.296,4.822-13.255,2.155c-3.755-2.02-7.549-2.057-11.337-0.206c-4.325,2.113-8.585,2.056-12.904-0.007
		c-3.791-1.811-7.636-1.918-11.334,0.203c-3.136,1.797-6.009,1.006-8.775-0.675c-1.413-0.858-2.677-1.987-3.922-3.091
		c-2.483-2.2-5.053-4.215-8.626-4.509C42.393,149.646,42.469,149.32,42.545,148.994z"/>
</g>
</svg>
