<?xml version="1.0" encoding="utf-8"?>
<!-- Generator: Adobe Illustrator 16.0.0, SVG Export Plug-In . SVG Version: 6.00 Build 0)  -->
<!DOCTYPE svg PUBLIC "-//W3C//DTD SVG 1.1//EN" "http://www.w3.org/Graphics/SVG/1.1/DTD/svg11.dtd">
<svg version="1.1" id="Layer_1" xmlns="http://www.w3.org/2000/svg" xmlns:xlink="http://www.w3.org/1999/xlink" x="0px" y="0px"
	 width="156px" height="179px" viewBox="0 0 156 179" enable-background="new 0 0 156 179" xml:space="preserve">
<path fill-rule="evenodd" clip-rule="evenodd" d="M87.09,158.654"/>
<rect x="1" y="1" fill-rule="evenodd" clip-rule="evenodd" fill="#FFFFFF" stroke="#627D53" stroke-width="2" stroke-miterlimit="10" width="154" height="177"/>
<rect x="1" y="1" fill-rule="evenodd" clip-rule="evenodd" fill="#627D53" width="154" height="56"/>
<g>
	<path fill="#FFFFFF" d="M40.254,24.92c-0.52-0.577-0.779-1.403-0.779-2.48v-0.76h1.976v0.912c0,0.861,0.361,1.292,1.083,1.292
		c0.354,0,0.624-0.104,0.808-0.313c0.183-0.209,0.275-0.548,0.275-1.017c0-0.558-0.127-1.048-0.38-1.473
		c-0.254-0.424-0.722-0.934-1.406-1.529c-0.861-0.76-1.463-1.446-1.805-2.062c-0.342-0.614-0.513-1.308-0.513-2.08
		c0-1.052,0.266-1.865,0.798-2.441c0.532-0.576,1.305-0.865,2.318-0.865c1,0,1.758,0.289,2.271,0.865
		c0.513,0.576,0.77,1.402,0.77,2.479v0.551h-1.976v-0.684c0-0.455-0.089-0.788-0.266-0.997c-0.178-0.209-0.437-0.313-0.779-0.313
		c-0.697,0-1.045,0.424-1.045,1.273c0,0.48,0.13,0.93,0.39,1.349c0.259,0.418,0.731,0.925,1.416,1.52
		c0.874,0.761,1.476,1.45,1.805,2.071c0.33,0.621,0.494,1.35,0.494,2.186c0,1.089-0.269,1.925-0.808,2.508
		c-0.538,0.582-1.32,0.873-2.346,0.873C41.54,25.783,40.773,25.496,40.254,24.92z"/>
	<path fill="#FFFFFF" d="M46.904,12.294h3.078c1.039,0,1.817,0.278,2.337,0.836s0.779,1.374,0.779,2.45v1.312
		c0,1.077-0.26,1.894-0.779,2.451s-1.298,0.836-2.337,0.836h-0.988v5.415h-2.09V12.294z M49.982,18.279
		c0.342,0,0.599-0.096,0.77-0.285c0.171-0.19,0.256-0.514,0.256-0.969v-1.578c0-0.455-0.085-0.778-0.256-0.969
		c-0.171-0.189-0.427-0.285-0.77-0.285h-0.988v4.086H49.982z"/>
	<path fill="#FFFFFF" d="M54.903,24.91c-0.544-0.583-0.817-1.406-0.817-2.471v-6.992c0-1.063,0.272-1.887,0.817-2.47
		c0.544-0.582,1.33-0.874,2.356-0.874c1.026,0,1.812,0.292,2.356,0.874c0.545,0.583,0.817,1.406,0.817,2.47v6.992
		c0,1.064-0.272,1.888-0.817,2.471c-0.544,0.582-1.33,0.873-2.356,0.873C56.233,25.783,55.447,25.492,54.903,24.91z M58.342,22.572
		v-7.258c0-0.873-0.361-1.311-1.083-1.311c-0.722,0-1.083,0.438-1.083,1.311v7.258c0,0.875,0.361,1.312,1.083,1.312
		C57.981,23.884,58.342,23.447,58.342,22.572z"/>
	<path fill="#FFFFFF" d="M61.838,12.294h3.097c1.077,0,1.862,0.25,2.356,0.751c0.494,0.5,0.741,1.27,0.741,2.308v0.817
		c0,1.381-0.456,2.254-1.368,2.622v0.038c0.506,0.152,0.865,0.463,1.074,0.931c0.209,0.469,0.313,1.096,0.313,1.881v2.337
		c0,0.381,0.012,0.688,0.038,0.922s0.089,0.465,0.19,0.693h-2.128c-0.076-0.215-0.126-0.418-0.152-0.607
		c-0.025-0.19-0.038-0.533-0.038-1.026v-2.433c0-0.607-0.098-1.031-0.294-1.272s-0.535-0.361-1.017-0.361h-0.722v5.7h-2.09V12.294z
		 M64.688,17.994c0.418,0,0.731-0.107,0.94-0.323s0.313-0.576,0.313-1.083v-1.026c0-0.481-0.085-0.829-0.256-1.045
		c-0.171-0.215-0.44-0.323-0.808-0.323h-0.95v3.801H64.688z"/>
	<path fill="#FFFFFF" d="M71.091,14.193h-2.185v-1.899h6.46v1.899h-2.185v11.4h-2.09V14.193z"/>
	<path fill="#FFFFFF" d="M79.413,12.294h3.154c1.076,0,1.862,0.25,2.356,0.751c0.494,0.5,0.741,1.27,0.741,2.308v0.532
		c0,0.684-0.111,1.242-0.333,1.672c-0.222,0.431-0.56,0.741-1.016,0.932v0.037c1.038,0.355,1.558,1.279,1.558,2.774v1.14
		c0,1.026-0.269,1.809-0.807,2.347c-0.539,0.538-1.327,0.808-2.366,0.808h-3.287V12.294z M82.32,17.709
		c0.418,0,0.731-0.107,0.94-0.323s0.313-0.576,0.313-1.083v-0.741c0-0.481-0.085-0.829-0.256-1.045
		c-0.171-0.215-0.44-0.323-0.808-0.323h-1.007v3.516H82.32z M82.7,23.693c0.367,0,0.64-0.098,0.817-0.294s0.266-0.535,0.266-1.017
		v-1.159c0-0.608-0.104-1.028-0.313-1.263s-0.554-0.352-1.036-0.352h-0.931v4.084H82.7z"/>
	<path fill="#FFFFFF" d="M88.704,12.294h2.831l2.166,13.3h-2.09l-0.38-2.641v0.037h-2.375l-0.38,2.604h-1.938L88.704,12.294z
		 M90.983,21.186l-0.931-6.574h-0.038l-0.912,6.574H90.983z"/>
	<path fill="#FFFFFF" d="M94.707,12.294h3.097c1.077,0,1.862,0.25,2.356,0.751c0.494,0.5,0.741,1.27,0.741,2.308v0.817
		c0,1.381-0.456,2.254-1.368,2.622v0.038c0.506,0.152,0.865,0.463,1.074,0.931c0.209,0.469,0.313,1.096,0.313,1.881v2.337
		c0,0.381,0.012,0.688,0.038,0.922s0.089,0.465,0.19,0.693H99.02c-0.076-0.215-0.126-0.418-0.152-0.607
		c-0.025-0.19-0.038-0.533-0.038-1.026v-2.433c0-0.607-0.098-1.031-0.294-1.272S98,19.894,97.519,19.894h-0.722v5.7h-2.09V12.294z
		 M97.557,17.994c0.418,0,0.731-0.107,0.94-0.323s0.313-0.576,0.313-1.083v-1.026c0-0.481-0.085-0.829-0.256-1.045
		c-0.171-0.215-0.44-0.323-0.808-0.323h-0.95v3.801H97.557z"/>
	<path fill="#FFFFFF" d="M102.782,24.92c-0.52-0.577-0.779-1.403-0.779-2.48v-0.76h1.976v0.912c0,0.861,0.361,1.292,1.083,1.292
		c0.354,0,0.624-0.104,0.808-0.313c0.183-0.209,0.275-0.548,0.275-1.017c0-0.558-0.127-1.048-0.38-1.473
		c-0.254-0.424-0.722-0.934-1.406-1.529c-0.861-0.76-1.463-1.446-1.805-2.062c-0.342-0.614-0.513-1.308-0.513-2.08
		c0-1.052,0.266-1.865,0.798-2.441c0.532-0.576,1.305-0.865,2.318-0.865c1,0,1.758,0.289,2.271,0.865
		c0.513,0.576,0.77,1.402,0.77,2.479v0.551h-1.976v-0.684c0-0.455-0.089-0.788-0.266-0.997c-0.178-0.209-0.437-0.313-0.779-0.313
		c-0.697,0-1.045,0.424-1.045,1.273c0,0.48,0.13,0.93,0.39,1.349c0.259,0.418,0.731,0.925,1.416,1.52
		c0.874,0.761,1.476,1.45,1.805,2.071c0.33,0.621,0.494,1.35,0.494,2.186c0,1.089-0.269,1.925-0.808,2.508
		c-0.538,0.582-1.32,0.873-2.346,0.873C104.068,25.783,103.302,25.496,102.782,24.92z"/>
	<path fill="#FFFFFF" d="M112.928,25.005c-0.393-0.52-0.589-1.272-0.589-2.261v-1.387c0-0.697,0.12-1.279,0.361-1.748
		s0.633-0.811,1.178-1.027v-0.037c-0.494-0.203-0.858-0.529-1.093-0.979s-0.351-1.029-0.351-1.738V15.58
		c0-1.076,0.259-1.893,0.779-2.45c0.519-0.558,1.298-0.836,2.337-0.836h2.394v1.899h-2.356c-0.342,0-0.605,0.102-0.789,0.305
		s-0.275,0.531-0.275,0.988v0.816c0,0.507,0.104,0.867,0.313,1.083s0.522,0.323,0.94,0.323h0.817v-1.482h2.052v1.482h0.589v1.9
		h-0.589v4.369c0,0.381,0.012,0.688,0.038,0.922c0.025,0.234,0.088,0.465,0.19,0.693h-2.09c-0.102-0.278-0.165-0.627-0.19-1.045
		h-0.038c-0.228,0.418-0.491,0.729-0.788,0.932c-0.298,0.201-0.668,0.303-1.112,0.303C113.897,25.783,113.32,25.524,112.928,25.005z
		 M116.595,22.687v-3.077h-0.798c-0.481,0-0.83,0.129-1.045,0.389c-0.216,0.26-0.323,0.693-0.323,1.302v1.349
		c0,0.443,0.089,0.76,0.266,0.95s0.424,0.285,0.741,0.285C116.094,23.884,116.481,23.484,116.595,22.687z"/>
	<path fill="#FFFFFF" d="M39.968,31.094h3.097c1.077,0,1.862,0.25,2.356,0.75c0.494,0.501,0.741,1.271,0.741,2.309v0.817
		c0,1.38-0.456,2.255-1.368,2.622v0.037c0.506,0.152,0.865,0.463,1.074,0.932s0.313,1.096,0.313,1.881v2.337
		c0,0.38,0.012,0.688,0.038,0.922s0.089,0.466,0.19,0.693h-2.128c-0.076-0.216-0.126-0.418-0.152-0.608
		c-0.025-0.189-0.038-0.531-0.038-1.025v-2.432c0-0.608-0.098-1.033-0.294-1.273s-0.535-0.361-1.017-0.361h-0.722v5.7h-2.09V31.094z
		 M42.818,36.793c0.418,0,0.731-0.107,0.94-0.322s0.313-0.576,0.313-1.083v-1.026c0-0.48-0.085-0.829-0.256-1.045
		c-0.171-0.215-0.44-0.322-0.808-0.322h-0.95v3.799H42.818z"/>
	<path fill="#FFFFFF" d="M47.625,31.094h5.7v1.9h-3.61v3.515h2.869v1.899h-2.869v4.086h3.61v1.899h-5.7V31.094z"/>
	<path fill="#FFFFFF" d="M54.979,43.719c-0.52-0.576-0.779-1.402-0.779-2.479v-0.761h1.976v0.912c0,0.861,0.361,1.292,1.083,1.292
		c0.354,0,0.624-0.104,0.808-0.313c0.183-0.209,0.275-0.548,0.275-1.017c0-0.557-0.127-1.048-0.38-1.473
		c-0.254-0.424-0.722-0.934-1.406-1.529c-0.861-0.76-1.463-1.447-1.805-2.062c-0.342-0.614-0.513-1.308-0.513-2.081
		c0-1.051,0.266-1.864,0.798-2.441c0.532-0.576,1.305-0.864,2.318-0.864c1,0,1.758,0.288,2.271,0.864
		c0.513,0.577,0.77,1.403,0.77,2.48v0.551h-1.976v-0.684c0-0.457-0.089-0.789-0.266-0.998c-0.178-0.209-0.437-0.313-0.779-0.313
		c-0.697,0-1.045,0.425-1.045,1.272c0,0.482,0.13,0.932,0.39,1.35c0.259,0.418,0.731,0.924,1.416,1.52
		c0.874,0.76,1.476,1.451,1.805,2.071c0.33,0.62,0.494,1.349,0.494,2.185c0,1.09-0.269,1.926-0.808,2.508
		c-0.538,0.584-1.32,0.875-2.346,0.875C56.264,44.584,55.498,44.295,54.979,43.719z"/>
	<path fill="#FFFFFF" d="M63.263,32.994h-2.185v-1.9h6.46v1.9h-2.185v11.399h-2.09V32.994z"/>
	<path fill="#FFFFFF" d="M69.286,31.094h2.831l2.166,13.3h-2.09l-0.38-2.642v0.039h-2.375l-0.38,2.603H67.12L69.286,31.094z
		 M71.565,39.985l-0.931-6.573h-0.038l-0.912,6.573H71.565z"/>
	<path fill="#FFFFFF" d="M75.973,43.719c-0.532-0.576-0.798-1.402-0.798-2.479V31.094h2.09v10.298c0,0.456,0.092,0.786,0.275,0.987
		c0.184,0.203,0.447,0.305,0.789,0.305c0.342,0,0.605-0.102,0.789-0.305c0.184-0.201,0.275-0.531,0.275-0.987V31.094h2.014V41.24
		c0,1.076-0.266,1.902-0.798,2.479c-0.532,0.576-1.305,0.865-2.318,0.865S76.505,44.295,75.973,43.719z"/>
	<path fill="#FFFFFF" d="M82.889,31.094h3.097c1.077,0,1.862,0.25,2.356,0.75c0.494,0.501,0.741,1.271,0.741,2.309v0.817
		c0,1.38-0.456,2.255-1.368,2.622v0.037c0.506,0.152,0.865,0.463,1.074,0.932s0.313,1.096,0.313,1.881v2.337
		c0,0.38,0.012,0.688,0.038,0.922s0.089,0.466,0.19,0.693h-2.128c-0.076-0.216-0.126-0.418-0.152-0.608
		c-0.025-0.189-0.038-0.531-0.038-1.025v-2.432c0-0.608-0.098-1.033-0.294-1.273s-0.535-0.361-1.017-0.361h-0.722v5.7h-2.09V31.094z
		 M85.739,36.793c0.418,0,0.731-0.107,0.94-0.322s0.313-0.576,0.313-1.083v-1.026c0-0.48-0.085-0.829-0.256-1.045
		c-0.171-0.215-0.44-0.322-0.808-0.322h-0.95v3.799H85.739z"/>
	<path fill="#FFFFFF" d="M92.161,31.094h2.831l2.166,13.3h-2.09l-0.38-2.642v0.039h-2.375l-0.38,2.603h-1.938L92.161,31.094z
		 M94.441,39.985l-0.931-6.573h-0.038l-0.912,6.573H94.441z"/>
	<path fill="#FFFFFF" d="M98.165,31.094h2.622l2.033,7.961h0.038v-7.961h1.862v13.3h-2.147l-2.508-9.709h-0.038v9.709h-1.862V31.094
		z"/>
	<path fill="#FFFFFF" d="M107.912,32.994h-2.185v-1.9h6.46v1.9h-2.185v11.399h-2.09V32.994z"/>
	<path fill="#FFFFFF" d="M113.611,43.719c-0.52-0.576-0.779-1.402-0.779-2.479v-0.761h1.976v0.912c0,0.861,0.361,1.292,1.083,1.292
		c0.354,0,0.624-0.104,0.808-0.313c0.183-0.209,0.275-0.548,0.275-1.017c0-0.557-0.127-1.048-0.38-1.473
		c-0.254-0.424-0.722-0.934-1.406-1.529c-0.861-0.76-1.463-1.447-1.805-2.062c-0.342-0.614-0.513-1.308-0.513-2.081
		c0-1.051,0.266-1.864,0.798-2.441c0.532-0.576,1.305-0.864,2.318-0.864c1,0,1.758,0.288,2.271,0.864
		c0.513,0.577,0.77,1.403,0.77,2.48v0.551h-1.976v-0.684c0-0.457-0.089-0.789-0.266-0.998c-0.178-0.209-0.437-0.313-0.779-0.313
		c-0.697,0-1.045,0.425-1.045,1.272c0,0.482,0.13,0.932,0.39,1.35c0.259,0.418,0.731,0.924,1.416,1.52
		c0.874,0.76,1.476,1.451,1.805,2.071c0.33,0.62,0.494,1.349,0.494,2.185c0,1.09-0.269,1.926-0.808,2.508
		c-0.538,0.584-1.32,0.875-2.346,0.875C114.897,44.584,114.131,44.295,113.611,43.719z"/>
</g>
<g>
	<line fill="none" stroke="#666666" stroke-width="2" stroke-miterlimit="10" x1="83" y1="71" x2="83" y2="164"/>
	<g>
		<path fill-rule="evenodd" clip-rule="evenodd" fill="#627D53" d="M113.06,129.902c3.231-3.891,6.713-7.605,9.583-11.747
			c1.312-1.888,2.127-4.676,1.922-6.944c-0.443-4.892,0.869-9.082,3.593-12.908c3.134-4.404,6.452-8.679,9.751-12.967
			c0.513-0.669,1.339-1.098,2.711-1.073c-3.417,5.623-6.836,11.242-10.253,16.861c0.356,0.225,0.713,0.444,1.07,0.669
			c3.561-5.63,7.12-11.259,10.682-16.889c0.384,0.214,0.768,0.432,1.151,0.648c-3.268,5.799-6.534,11.599-9.803,17.401
			c0.347,0.207,0.693,0.41,1.039,0.618c3.418-5.738,6.835-11.479,10.252-17.218c0.386,0.203,0.771,0.41,1.156,0.617
			c-3.135,5.959-6.271,11.922-9.404,17.884c0.384,0.207,0.769,0.414,1.152,0.621c3.173-5.844,6.347-11.687,9.521-17.53
			c0.439,0.266,0.879,0.533,1.32,0.798c-4.434,9.521-5.56,20.848-16.607,26.719c-2.487,1.32-4.307,4.424-5.736,7.079
			c-2.069,3.854-3.222,8.199-5.273,12.06c-3.58,6.736-7.59,13.239-11.333,19.887c-1.471,2.611-3.377,3.745-6.119,2.126
			c-2.66-1.572-3.332-3.569-1.562-6.557c3.947-6.662,7.571-13.514,11.327-20.287L113.06,129.902z"/>
		<path fill-rule="evenodd" clip-rule="evenodd" fill="#627D53" d="M113.199,129.771c-3.365-1.361-8.201-1.752-9.836-4.248
			c-6.785-10.342-12.428-21.403-12.771-34.238c-0.055-2.099,0.688-4.224,2.036-6.451c1.457,2.428,2.948,4.835,4.363,7.287
			c4.859,8.409,9.461,16.979,14.629,25.192c2.641,4.194,4.259,8.007,1.436,12.59C113.06,129.902,113.199,129.771,113.199,129.771z
			 M103.649,106.485c-0.331,0.18-0.663,0.363-0.995,0.543c2.786,5.47,5.574,10.939,8.359,16.41c0.582-0.316,1.166-0.629,1.749-0.941
			C109.726,117.16,106.688,111.822,103.649,106.485z"/>
		<path fill-rule="evenodd" clip-rule="evenodd" fill="#627D53" d="M121.904,135.396c3.195,5.507,6.254,10.604,9.123,15.805
			c1.372,2.486-0.012,4.303-2.172,5.464c-2.033,1.09-4.016,1.12-5.367-1.229c-1.865-3.242-3.883-6.413-5.533-9.765
			c-0.488-0.988-0.295-2.632,0.182-3.711C119.081,139.827,120.443,137.882,121.904,135.396z"/>
		<path fill-rule="evenodd" clip-rule="evenodd" fill="#FFFFFF" d="M103.649,106.485c3.038,5.337,6.076,10.675,9.113,16.012
			c-0.583,0.313-1.167,0.625-1.749,0.941c-2.785-5.471-5.573-10.94-8.359-16.41C102.986,106.849,103.318,106.665,103.649,106.485z"
			/>
	</g>
	<g>
		<path fill-rule="evenodd" clip-rule="evenodd" fill="#394730" d="M56.828,74.83c-0.146-0.069-0.292-0.123-0.423-0.202
			c-0.375-0.23-0.532-0.528-0.383-0.988c0.325-1.014,0.614-2.036,0.928-3.09c-0.237-0.027-0.431-0.052-0.616-0.074
			c-0.307-1.371,0.611-3.093,2.408-3.042c2.009,0.057,4.024,0.076,6.031-0.005c1.869-0.076,2.807,1.587,2.537,3.041
			c-0.184,0.022-0.38,0.045-0.628,0.074c0.291,0.982,0.572,1.94,0.858,2.896c0.237,0.791,0.063,1.119-0.78,1.357
			c0.088,1.188,0.173,2.389,0.268,3.587c0.172,2.223,0.352,4.445,0.525,6.668c0.18,2.301,0.334,4.603,0.542,6.9
			c0.108,1.185,0.253,2.371,0.483,3.538c0.361,1.833,1.17,3.513,2.095,5.116c2.347,4.066,3.486,8.438,3.483,13.122
			c-0.004,6.959-0.007,13.918-0.007,20.878c0,8.609,0.01,17.217,0.006,25.827c-0.001,1.309-0.505,2.358-1.758,2.914
			c-0.305,0.136-0.667,0.194-1.004,0.194c-6.378,0.012-12.757,0.01-19.135,0.007c-1.356-0.001-2.499-0.956-2.673-2.308
			c-0.102-0.789-0.111-1.594-0.112-2.392c-0.007-8.985-0.004-17.972-0.003-26.958c0-5.891-0.001-11.781,0.001-17.671
			c0.001-3.209,0.316-6.383,1.519-9.379c0.739-1.843,1.68-3.608,2.575-5.384c1.108-2.201,1.788-4.504,1.945-6.971
			c0.148-2.319,0.369-4.632,0.547-6.949c0.165-2.144,0.314-4.289,0.475-6.434c0.095-1.269,0.199-2.536,0.294-3.805
			C56.838,75.145,56.828,74.991,56.828,74.83z"/>
	</g>
	<g>
		<path fill-rule="evenodd" clip-rule="evenodd" fill="#627D53" d="M43.979,163.104c0.369-0.177,0.771-0.301,1.1-0.54
			c0.818-0.597,1.164-1.477,1.163-2.526c-0.002-3.473,0-6.945,0-10.418c0-6.16,0-12.32,0-18.479c0-0.178,0-0.354,0-0.556
			c-0.969,0-1.89,0-2.866,0c0,0.187,0.002,0.361,0,0.537c-0.021,1.72,0.056,3.449-0.087,5.158c-0.221,2.642-2.485,4.754-4.976,4.812
			c-2.618,0.061-4.893-1.887-5.31-4.572c-0.076-0.487-0.087-0.99-0.091-1.486c-0.011-1.476-0.004-2.95-0.004-4.45
			c-3.853,0-7.66,0-11.522,0c0,0.218,0,0.425,0,0.632c0,9.436,0,18.872,0,28.309c0,2.117,0.44,2.821,2.239,3.581
			C30.408,163.104,37.193,163.104,43.979,163.104z"/>
		<path fill-rule="evenodd" clip-rule="evenodd" fill="#627D53" d="M33.083,116.705c-0.256,0.067-0.513,0.13-0.768,0.205
			c-1.113,0.326-2.063,0.941-2.841,1.859c-0.807,0.953-1.48,1.086-2.543,0.495c-2.11-1.172-4.706-0.576-6.16,1.415
			c-1.47,2.012-1.408,4.853,0.138,6.759c0.227,0.279,0.459,0.414,0.825,0.412c4.39-0.016,8.781-0.011,13.171-0.011
			c0.165,0,0.33,0,0.535,0c0,0.214,0,0.376,0,0.538c0,2.387-0.015,4.771,0.009,7.157c0.011,1.194,0.559,2.079,1.57,2.575
			c1.012,0.495,1.984,0.342,2.845-0.409c0.689-0.6,0.978-1.414,0.977-2.356c-0.001-2.295,0-4.59,0-6.885c0-0.182,0-0.361,0-0.62
			c0.163,0,0.31,0,0.457,0c1.548,0,3.096-0.007,4.644,0.007c0.292,0.003,0.496-0.088,0.693-0.32c1.592-1.876,1.715-4.706,0.28-6.751
			c-1.427-2.034-4.007-2.692-6.127-1.563c-1.233,0.656-1.767,0.547-2.711-0.522c-0.91-1.029-2.017-1.669-3.326-1.901
			c-0.08-0.015-0.155-0.056-0.233-0.084C34.04,116.705,33.562,116.705,33.083,116.705z"/>
		<path fill-rule="evenodd" clip-rule="evenodd" fill="#627D53" d="M18.828,157.384c0-1.949,0-3.846,0-5.773
			c-0.248-0.015-0.485-0.012-0.717-0.045c-1.391-0.199-2.381-1.345-2.401-2.861c-0.028-2.159-0.032-4.319,0.001-6.479
			c0.025-1.657,1.188-2.836,2.744-2.867c0.112-0.002,0.223,0,0.366,0c0-1.936,0-3.845,0-5.751c-5.101-0.639-8.476,3.285-8.512,7.626
			c-0.023,2.823-0.04,5.648,0.004,8.472c0.067,4.354,3.221,7.651,7.283,7.678C17.989,157.386,18.382,157.384,18.828,157.384z"/>
	</g>
</g>
</svg>
