<?xml version="1.0" encoding="utf-8"?>
<!-- Generator: Adobe Illustrator 16.0.0, SVG Export Plug-In . SVG Version: 6.00 Build 0)  -->
<!DOCTYPE svg PUBLIC "-//W3C//DTD SVG 1.1//EN" "http://www.w3.org/Graphics/SVG/1.1/DTD/svg11.dtd">
<svg version="1.1" id="Layer_1" xmlns="http://www.w3.org/2000/svg" xmlns:xlink="http://www.w3.org/1999/xlink" x="0px" y="0px"
	 width="157px" height="179px" viewBox="0 0 157 179" enable-background="new 0 0 157 179" xml:space="preserve">
<rect x="1" y="1" fill-rule="evenodd" clip-rule="evenodd" fill="#FFFFFF" stroke="#627D53" stroke-width="2" stroke-miterlimit="10" width="155" height="177"/>
<rect x="2" y="1" fill-rule="evenodd" clip-rule="evenodd" fill="#627D53" width="155" height="57"/>
<g>
	<path fill-rule="evenodd" clip-rule="evenodd" fill="#627D53" d="M81.079,118.373c-6.349,0-12.363,0-18.688,0
		c0-4.901,0-9.79,0-15.088c-3.576,1.397-6.741,2.645-9.915,3.871c-3.596,1.39-5.051,0.926-7.181-2.292
		c-2.772-4.188-5.542-8.377-8.291-12.58c-1.822-2.787-1.628-5.182,0.489-6.646c2.18-1.507,4.774-0.746,6.564,1.951
		c1.942,2.928,3.952,5.814,5.755,8.827c0.979,1.636,1.904,2.229,3.752,1.278c1.772-0.913,3.752-1.414,5.564-2.26
		c5.007-2.336,10.169-3.831,15.761-3.156c1.499,0.181,2.23-0.582,2.948-1.748c4.211-6.842,8.438-13.673,12.785-20.428
		c0.708-1.1,1.904-2.157,3.108-2.6c1.691-0.621,3.656,0.017,4.228,1.74c0.487,1.469,0.541,3.597-0.194,4.865
		c-3.69,6.365-7.412,12.752-11.687,18.728c-3.886,5.432-5.856,11.066-5.047,17.733C81.33,113.037,81.079,115.571,81.079,118.373z"/>
	<path fill-rule="evenodd" clip-rule="evenodd" fill="#627D53" d="M68.979,133.474c-3.773,8.687-7.508,17.267-11.227,25.854
		c-1.835,4.237-4.004,5.467-7.182,4.023c-3.262-1.484-4.369-4.796-2.763-8.5c4.521-10.43,9.095-20.836,13.585-31.277
		c0.59-1.373,1.379-1.809,2.844-1.787c5.527,0.084,11.056,0.034,16.946,0.034c-0.782-3.478,1.738-4.155,4.05-5.096
		c1.624-0.661,3.171-1.509,4.769-2.239c3.155-1.44,6.201-0.195,7.101,3.162c1.686,6.294,3.223,12.629,4.718,18.973
		c0.638,2.702-0.958,5.225-3.441,5.842c-2.813,0.699-5.364-0.762-6.167-3.728c-1.044-3.854-1.938-7.749-2.895-11.622
		C82.381,128.864,77.02,134.915,68.979,133.474z"/>
	<path fill-rule="evenodd" clip-rule="evenodd" fill="#627D53" d="M70.38,90.653c-4.147-0.012-7.522-3.392-7.499-7.51
		c0.023-4.084,3.483-7.521,7.551-7.5c4.061,0.021,7.552,3.52,7.547,7.562C77.974,87.267,74.507,90.665,70.38,90.653z"/>
	<path fill-rule="evenodd" clip-rule="evenodd" fill="#394730" d="M84.66,113.253c-0.596-1.85-0.005-2.834,1.499-3.826
		c7.227-4.77,11.652-11.856,15.476-19.369c3.954-7.768,6.856-15.924,8.731-24.594c0.791,0,1.583,0,2.375,0
		C113.278,80.108,96.674,108.45,84.66,113.253z"/>
	<path fill-rule="evenodd" clip-rule="evenodd" fill="#394730" d="M80.95,167.646c-1.02,0-1.837,0-2.967,0c0-0.961,0-1.855,0-2.752
		c0-8.977,0.078-17.954-0.055-26.93c-0.033-2.267,0.618-3.479,3.021-3.7C80.95,145.31,80.95,156.339,80.95,167.646z"/>
</g>
<g>
	<path fill="#FFFFFF" d="M19.263,22.796h3.097c1.077,0,1.862,0.25,2.356,0.751c0.494,0.5,0.741,1.27,0.741,2.308v0.817
		c0,1.381-0.456,2.254-1.368,2.622v0.038c0.506,0.152,0.865,0.463,1.074,0.931c0.209,0.469,0.313,1.096,0.313,1.881v2.337
		c0,0.381,0.012,0.688,0.038,0.922s0.089,0.465,0.19,0.693h-2.128c-0.076-0.215-0.126-0.418-0.152-0.607
		c-0.025-0.19-0.038-0.533-0.038-1.026v-2.433c0-0.607-0.098-1.031-0.294-1.272s-0.535-0.361-1.017-0.361h-0.722v5.7h-2.09V22.796z
		 M22.113,28.496c0.418,0,0.731-0.107,0.94-0.323s0.313-0.576,0.313-1.083v-1.026c0-0.481-0.085-0.829-0.256-1.045
		c-0.171-0.215-0.44-0.323-0.808-0.323h-0.95v3.801H22.113z"/>
	<path fill="#FFFFFF" d="M27.585,35.412c-0.544-0.583-0.817-1.406-0.817-2.471v-6.992c0-1.063,0.272-1.887,0.817-2.47
		c0.544-0.582,1.33-0.874,2.356-0.874c1.026,0,1.812,0.292,2.356,0.874c0.545,0.583,0.817,1.406,0.817,2.47v6.992
		c0,1.064-0.272,1.888-0.817,2.471c-0.544,0.582-1.33,0.873-2.356,0.873C28.915,36.285,28.129,35.994,27.585,35.412z M31.024,33.074
		v-7.258c0-0.873-0.361-1.311-1.083-1.311c-0.722,0-1.083,0.438-1.083,1.311v7.258c0,0.875,0.361,1.312,1.083,1.312
		C30.663,34.386,31.024,33.949,31.024,33.074z"/>
	<path fill="#FFFFFF" d="M35.176,35.431c-0.526-0.569-0.789-1.374-0.789-2.413v-7.145c0-1.037,0.263-1.842,0.789-2.412
		c0.525-0.57,1.289-0.855,2.29-0.855c1,0,1.764,0.285,2.29,0.855c0.525,0.57,0.788,1.375,0.788,2.412v1.406h-1.976V25.74
		c0-0.822-0.349-1.234-1.045-1.234c-0.696,0-1.045,0.412-1.045,1.234v7.43c0,0.811,0.349,1.216,1.045,1.216
		c0.697,0,1.045-0.405,1.045-1.216v-2.033h1.976v1.881c0,1.039-0.263,1.844-0.788,2.413c-0.526,0.569-1.289,0.854-2.29,0.854
		C36.464,36.285,35.701,36,35.176,35.431z"/>
	<path fill="#FFFFFF" d="M41.797,22.796h2.09V28.4l2.66-5.604h2.09l-2.489,4.883l2.527,8.417H46.49l-1.767-5.928l-0.836,1.691v4.236
		h-2.09V22.796z"/>
	<path fill="#FFFFFF" d="M50.015,35.431c-0.526-0.569-0.789-1.374-0.789-2.413v-7.145c0-1.037,0.263-1.842,0.789-2.412
		c0.525-0.57,1.289-0.855,2.29-0.855c1,0,1.764,0.285,2.29,0.855c0.525,0.57,0.788,1.375,0.788,2.412v1.406h-1.976V25.74
		c0-0.822-0.349-1.234-1.045-1.234c-0.696,0-1.045,0.412-1.045,1.234v7.43c0,0.811,0.349,1.216,1.045,1.216
		c0.697,0,1.045-0.405,1.045-1.216v-2.033h1.976v1.881c0,1.039-0.263,1.844-0.788,2.413c-0.526,0.569-1.289,0.854-2.29,0.854
		C51.303,36.285,50.54,36,50.015,35.431z"/>
	<path fill="#FFFFFF" d="M56.636,22.796h2.09v11.399h3.439v1.9h-5.529V22.796z"/>
	<path fill="#FFFFFF" d="M63.171,22.796h2.09v13.3h-2.09V22.796z"/>
	<path fill="#FFFFFF" d="M66.819,22.796h2.983l1.33,9.519h0.038l1.33-9.519h2.983v13.3h-1.976v-10.07H73.47l-1.52,10.07h-1.748
		l-1.52-10.07h-0.038v10.07h-1.824V22.796z"/>
	<path fill="#FFFFFF" d="M77.041,22.796h3.154c1.076,0,1.862,0.25,2.356,0.751c0.494,0.5,0.741,1.27,0.741,2.308v0.532
		c0,0.684-0.111,1.242-0.333,1.672c-0.222,0.431-0.56,0.741-1.016,0.932v0.037c1.038,0.355,1.558,1.279,1.558,2.774v1.14
		c0,1.026-0.269,1.809-0.807,2.347c-0.539,0.538-1.327,0.808-2.366,0.808h-3.287V22.796z M79.948,28.211
		c0.418,0,0.731-0.107,0.94-0.323s0.313-0.576,0.313-1.083v-0.741c0-0.481-0.085-0.829-0.256-1.045
		c-0.171-0.215-0.44-0.323-0.808-0.323h-1.007v3.516H79.948z M80.328,34.195c0.367,0,0.64-0.098,0.817-0.294
		s0.266-0.535,0.266-1.017v-1.159c0-0.608-0.104-1.028-0.313-1.263s-0.554-0.352-1.036-0.352h-0.931v4.084H80.328z"/>
	<path fill="#FFFFFF" d="M84.717,22.796h2.09v13.3h-2.09V22.796z"/>
	<path fill="#FFFFFF" d="M88.365,22.796h2.622l2.033,7.961h0.038v-7.961h1.862v13.3h-2.147l-2.508-9.709h-0.038v9.709h-1.862V22.796
		z"/>
	<path fill="#FFFFFF" d="M97.124,35.422c-0.532-0.577-0.798-1.403-0.798-2.48v-6.992c0-1.076,0.266-1.902,0.798-2.479
		c0.532-0.576,1.305-0.865,2.318-0.865c1.013,0,1.786,0.289,2.318,0.865c0.532,0.576,0.798,1.402,0.798,2.479v1.141h-1.976v-1.273
		c0-0.873-0.361-1.311-1.083-1.311c-0.722,0-1.083,0.438-1.083,1.311v7.277c0,0.861,0.361,1.292,1.083,1.292
		c0.722,0,1.083-0.431,1.083-1.292V30.49h-1.045v-1.899h3.021v4.351c0,1.077-0.266,1.903-0.798,2.48
		c-0.532,0.576-1.305,0.863-2.318,0.863C98.428,36.285,97.656,35.998,97.124,35.422z"/>
	<path fill="#FFFFFF" d="M107.592,35.422c-0.532-0.577-0.798-1.403-0.798-2.48v-6.992c0-1.076,0.266-1.902,0.798-2.479
		c0.532-0.576,1.305-0.865,2.318-0.865c1.013,0,1.786,0.289,2.318,0.865c0.532,0.576,0.798,1.402,0.798,2.479v1.141h-1.976v-1.273
		c0-0.873-0.361-1.311-1.083-1.311c-0.722,0-1.083,0.438-1.083,1.311v7.277c0,0.861,0.361,1.292,1.083,1.292
		c0.722,0,1.083-0.431,1.083-1.292V30.49h-1.045v-1.899h3.021v4.351c0,1.077-0.266,1.903-0.798,2.48
		c-0.532,0.576-1.305,0.863-2.318,0.863C108.896,36.285,108.124,35.998,107.592,35.422z"/>
	<path fill="#FFFFFF" d="M116.009,30.434l-2.527-7.638h2.223l1.425,4.883h0.038l1.425-4.883h2.033l-2.527,7.638v5.662h-2.09V30.434z
		"/>
	<path fill="#FFFFFF" d="M121.575,22.796h2.983l1.33,9.519h0.038l1.33-9.519h2.983v13.3h-1.976v-10.07h-0.038l-1.52,10.07h-1.748
		l-1.52-10.07h-0.038v10.07h-1.824V22.796z"/>
	<path fill="#FFFFFF" d="M132.215,35.422c-0.52-0.577-0.779-1.403-0.779-2.48v-0.76h1.976v0.912c0,0.861,0.361,1.292,1.083,1.292
		c0.354,0,0.624-0.104,0.808-0.313c0.183-0.209,0.275-0.548,0.275-1.017c0-0.558-0.127-1.048-0.38-1.473
		c-0.254-0.424-0.722-0.934-1.406-1.529c-0.861-0.76-1.463-1.446-1.805-2.062c-0.342-0.614-0.513-1.308-0.513-2.08
		c0-1.052,0.266-1.865,0.798-2.441c0.532-0.576,1.305-0.865,2.318-0.865c1,0,1.758,0.289,2.271,0.865
		c0.513,0.576,0.77,1.402,0.77,2.479V26.5h-1.976v-0.684c0-0.455-0.089-0.788-0.266-0.997c-0.178-0.209-0.437-0.313-0.779-0.313
		c-0.697,0-1.045,0.424-1.045,1.273c0,0.48,0.13,0.93,0.39,1.349c0.259,0.418,0.731,0.925,1.416,1.52
		c0.874,0.761,1.476,1.45,1.805,2.071c0.33,0.621,0.494,1.35,0.494,2.186c0,1.089-0.269,1.925-0.808,2.508
		c-0.538,0.582-1.32,0.873-2.346,0.873C133.5,36.285,132.734,35.998,132.215,35.422z"/>
</g>
</svg>
