<?xml version="1.0" encoding="utf-8"?>
<!-- Generator: Adobe Illustrator 16.0.0, SVG Export Plug-In . SVG Version: 6.00 Build 0)  -->
<!DOCTYPE svg PUBLIC "-//W3C//DTD SVG 1.1//EN" "http://www.w3.org/Graphics/SVG/1.1/DTD/svg11.dtd">
<svg version="1.1" id="Layer_1" xmlns="http://www.w3.org/2000/svg" xmlns:xlink="http://www.w3.org/1999/xlink" x="0px" y="0px"
	 width="157px" height="179px" viewBox="0 0 157 179" enable-background="new 0 0 157 179" xml:space="preserve">
<g>
	
		<rect x="1" y="1" fill-rule="evenodd" clip-rule="evenodd" fill="#FFFFFF" stroke="#627D53" stroke-width="2" stroke-miterlimit="10" width="155" height="177"/>
</g>
<rect x="2" y="1" fill-rule="evenodd" clip-rule="evenodd" fill="#627D53" width="155" height="53"/>
<g>
	<path fill="#FFFFFF" d="M39.027,36.822c-0.52-0.576-0.779-1.402-0.779-2.479v-0.761h1.976v0.912c0,0.861,0.361,1.292,1.083,1.292
		c0.354,0,0.624-0.104,0.808-0.313c0.183-0.209,0.275-0.548,0.275-1.017c0-0.557-0.127-1.048-0.38-1.473
		c-0.254-0.424-0.722-0.934-1.406-1.529c-0.861-0.76-1.463-1.447-1.805-2.062c-0.342-0.614-0.513-1.308-0.513-2.081
		c0-1.051,0.266-1.864,0.798-2.441c0.532-0.576,1.305-0.864,2.318-0.864c1,0,1.758,0.288,2.271,0.864
		c0.513,0.577,0.77,1.403,0.77,2.48v0.551h-1.976v-0.684c0-0.457-0.089-0.789-0.266-0.998c-0.178-0.209-0.437-0.313-0.779-0.313
		c-0.697,0-1.045,0.425-1.045,1.272c0,0.482,0.13,0.932,0.39,1.35c0.259,0.418,0.731,0.924,1.416,1.52
		c0.874,0.76,1.476,1.451,1.805,2.071c0.33,0.62,0.494,1.349,0.494,2.185c0,1.09-0.269,1.926-0.808,2.508
		c-0.538,0.584-1.32,0.875-2.346,0.875C40.313,37.688,39.546,37.398,39.027,36.822z"/>
	<path fill="#FFFFFF" d="M45.677,24.197h3.078c1.039,0,1.817,0.279,2.337,0.836c0.52,0.558,0.779,1.375,0.779,2.451v1.311
		c0,1.077-0.26,1.895-0.779,2.451c-0.52,0.558-1.298,0.836-2.337,0.836h-0.988v5.415h-2.09V24.197z M48.755,30.182
		c0.342,0,0.599-0.095,0.77-0.285c0.171-0.189,0.256-0.512,0.256-0.969v-1.576c0-0.457-0.085-0.779-0.256-0.97
		s-0.427-0.284-0.77-0.284h-0.988v4.084H48.755z"/>
	<path fill="#FFFFFF" d="M53.675,36.813c-0.544-0.582-0.817-1.405-0.817-2.469v-6.992c0-1.064,0.272-1.888,0.817-2.471
		c0.544-0.582,1.33-0.874,2.356-0.874c1.026,0,1.812,0.292,2.356,0.874c0.545,0.583,0.817,1.406,0.817,2.471v6.992
		c0,1.063-0.272,1.887-0.817,2.469c-0.544,0.584-1.33,0.875-2.356,0.875C55.005,37.688,54.22,37.396,53.675,36.813z M57.114,34.477
		v-7.258c0-0.875-0.361-1.312-1.083-1.312c-0.722,0-1.083,0.437-1.083,1.312v7.258c0,0.873,0.361,1.311,1.083,1.311
		C56.753,35.787,57.114,35.35,57.114,34.477z"/>
	<path fill="#FFFFFF" d="M60.61,24.197h3.097c1.077,0,1.862,0.25,2.356,0.75c0.494,0.501,0.741,1.271,0.741,2.309v0.817
		c0,1.38-0.456,2.255-1.368,2.622v0.037c0.506,0.152,0.865,0.463,1.074,0.932s0.313,1.096,0.313,1.881v2.337
		c0,0.38,0.012,0.688,0.038,0.922s0.089,0.466,0.19,0.693h-2.128c-0.076-0.216-0.126-0.418-0.152-0.608
		c-0.025-0.189-0.038-0.531-0.038-1.025v-2.432c0-0.608-0.098-1.033-0.294-1.273s-0.535-0.361-1.017-0.361h-0.722v5.7h-2.09V24.197z
		 M63.46,29.896c0.418,0,0.731-0.107,0.94-0.322s0.313-0.576,0.313-1.083v-1.026c0-0.48-0.085-0.829-0.256-1.045
		c-0.171-0.215-0.44-0.322-0.808-0.322h-0.95v3.799H63.46z"/>
	<path fill="#FFFFFF" d="M69.864,26.098h-2.185v-1.9h6.46v1.9h-2.185v11.399h-2.09V26.098z"/>
	<path fill="#FFFFFF" d="M78.185,24.197h3.078c1.039,0,1.817,0.279,2.337,0.836c0.52,0.558,0.779,1.375,0.779,2.451v1.311
		c0,1.077-0.26,1.895-0.779,2.451c-0.52,0.558-1.298,0.836-2.337,0.836h-0.988v5.415h-2.09V24.197z M81.263,30.182
		c0.342,0,0.599-0.095,0.77-0.285c0.171-0.189,0.256-0.512,0.256-0.969v-1.576c0-0.457-0.085-0.779-0.256-0.97
		s-0.427-0.284-0.77-0.284h-0.988v4.084H81.263z"/>
	<path fill="#FFFFFF" d="M85.519,24.197h2.09v11.4h3.439v1.899h-5.529V24.197z"/>
	<path fill="#FFFFFF" d="M93.747,24.197h2.831l2.166,13.3h-2.09l-0.38-2.642v0.039h-2.375l-0.38,2.603h-1.938L93.747,24.197z
		 M96.026,33.089l-0.931-6.573h-0.038l-0.912,6.573H96.026z"/>
	<path fill="#FFFFFF" d="M100.368,36.832c-0.526-0.57-0.789-1.374-0.789-2.413v-7.144c0-1.039,0.263-1.844,0.789-2.413
		c0.525-0.57,1.289-0.855,2.29-0.855c1,0,1.764,0.285,2.29,0.855c0.525,0.569,0.788,1.374,0.788,2.413v1.406h-1.976v-1.539
		c0-0.824-0.349-1.235-1.045-1.235c-0.696,0-1.045,0.411-1.045,1.235v7.429c0,0.811,0.349,1.216,1.045,1.216
		c0.697,0,1.045-0.405,1.045-1.216v-2.033h1.976v1.881c0,1.039-0.263,1.843-0.788,2.413c-0.526,0.57-1.289,0.855-2.29,0.855
		C101.656,37.688,100.893,37.402,100.368,36.832z"/>
	<path fill="#FFFFFF" d="M106.989,24.197h5.7v1.9h-3.61v3.515h2.869v1.899h-2.869v4.086h3.61v1.899h-5.7V24.197z"/>
	<path fill="#FFFFFF" d="M114.342,36.822c-0.52-0.576-0.779-1.402-0.779-2.479v-0.761h1.976v0.912c0,0.861,0.361,1.292,1.083,1.292
		c0.354,0,0.624-0.104,0.808-0.313c0.183-0.209,0.275-0.548,0.275-1.017c0-0.557-0.127-1.048-0.38-1.473
		c-0.254-0.424-0.722-0.934-1.406-1.529c-0.861-0.76-1.463-1.447-1.805-2.062c-0.342-0.614-0.513-1.308-0.513-2.081
		c0-1.051,0.266-1.864,0.798-2.441c0.532-0.576,1.305-0.864,2.318-0.864c1,0,1.758,0.288,2.271,0.864
		c0.513,0.577,0.77,1.403,0.77,2.48v0.551h-1.976v-0.684c0-0.457-0.089-0.789-0.266-0.998c-0.178-0.209-0.437-0.313-0.779-0.313
		c-0.697,0-1.045,0.425-1.045,1.272c0,0.482,0.13,0.932,0.39,1.35c0.259,0.418,0.731,0.924,1.416,1.52
		c0.874,0.76,1.476,1.451,1.805,2.071c0.33,0.62,0.494,1.349,0.494,2.185c0,1.09-0.269,1.926-0.808,2.508
		c-0.538,0.584-1.32,0.875-2.346,0.875C115.627,37.688,114.861,37.398,114.342,36.822z"/>
</g>
<g>
	<path fill-rule="evenodd" clip-rule="evenodd" fill="#627D53" d="M16.909,66.736c2.008-1.027,4.146-1.157,6.362-1.104
		c6.017,0.144,12.035,0.183,18.052,0.267c0.516,0.006,1.033,0.036,1.403,0.05c-0.049,4.073-0.098,8.073-0.146,12.112
		c-6.505,1.957-9.69,5.566-9.612,11.066c0.06,4.213,2.509,9.328,9.45,10.76c-0.044,4.043-0.089,8.067-0.133,12.043
		c-7.39-0.065-14.822-0.006-22.242-0.248c-3.93-0.129-6.653-3.395-6.667-7.36c-0.006-1.559,0.032-3.118,0.052-4.918
		c1.723,0.077,3.285,0.146,4.846,0.218c1.563,0.072,3.127,0.148,4.521,0.216c0.097-7.495,0.19-14.739,0.285-22.15
		c-2.899,0.024-6.029,0.051-9.328,0.078c0.075-3.3-0.415-6.436,1.359-9.274C15.709,67.905,16.309,67.32,16.909,66.736z"/>
	<path fill-rule="evenodd" clip-rule="evenodd" fill="#627D53" d="M45.207,99.876c6.168-0.978,9.389-5.563,9.666-10.267
		c0.328-5.578-2.892-9.494-9.273-11.484c0.06-4.042,0.122-8.045,0.186-12.275c2.411,0.066,5.017,0.16,7.624,0.205
		c4.5,0.078,9,0.109,13.5,0.191c4.655,0.084,7.6,3.125,7.575,7.764c-0.007,1.41,0.019,2.822,0.029,4.295
		c-3.306-0.102-6.472-0.2-9.482-0.292c-0.1,7.593-0.194,14.798-0.287,21.969c2.885,0.016,6.051,0.032,9.395,0.05
		c-0.244,3.627,0.666,7.005-1.861,9.803c-1.409,1.561-3.121,2.539-5.206,2.52c-7.375-0.063-14.75-0.221-22.058-0.342
		C45.077,108.008,45.141,103.99,45.207,99.876z"/>
	<path fill-rule="evenodd" clip-rule="evenodd" fill="#627D53" d="M73.758,97.756c-2.02-0.023-4.312-0.05-6.499-0.074
		c0.117-5.546,0.233-11.108,0.35-16.662c1.932,0.07,4.25,0.156,6.369,0.233C73.908,86.564,73.833,92.131,73.758,97.756z"/>
	<path fill-rule="evenodd" clip-rule="evenodd" fill="#627D53" d="M20.431,96.906c-2.219-0.043-4.553-0.09-6.72-0.133
		c0.083-5.365,0.168-10.939,0.253-16.482c2.188,0.063,4.518,0.129,6.698,0.191C20.585,85.861,20.508,91.434,20.431,96.906z"/>
	<path fill-rule="evenodd" clip-rule="evenodd" fill="#627D53" d="M45.324,97.25c0.086-5.452,0.174-10.924,0.262-16.389
		c3.378,0.129,6.613,3.693,6.807,7.793C52.594,92.957,49.474,96.691,45.324,97.25z"/>
	<path fill-rule="evenodd" clip-rule="evenodd" fill="#627D53" d="M42.51,80.762c-0.075,5.523-0.149,10.996-0.223,16.443
		c-3.948-0.641-6.886-4.149-6.833-8.311C35.506,84.729,38.541,81.289,42.51,80.762z"/>
</g>
<g>
	<path fill-rule="evenodd" clip-rule="evenodd" fill="#627D53" d="M13.957,149.941c0.144-0.528,0.473-0.955,0.769-1.399
		c5.695-8.544,11.391-17.087,17.087-25.63c0.804-1.207,2.327-1.415,3.358-0.453c0.157,0.145,0.287,0.324,0.412,0.5
		c3.225,4.566,6.448,9.133,9.671,13.698c0.037,0.054,0.077,0.107,0.125,0.173c0.41-0.473,0.812-0.938,1.213-1.401
		c1.606-1.856,3.213-3.714,4.82-5.57c0.194-0.224,0.382-0.452,0.581-0.671c0.935-1.029,2.518-0.961,3.364,0.139
		c2.223,2.887,4.448,5.77,6.671,8.655c2.26,2.933,4.519,5.866,6.779,8.8c0.577,0.75,1.159,1.498,1.736,2.248
		c1.026,1.334,0.383,3.164-1.26,3.527c-0.879,0.193-1.633-0.094-2.183-0.805c-2.874-3.717-5.737-7.441-8.604-11.163
		c-1.605-2.084-3.208-4.167-4.813-6.251c-0.043-0.056-0.091-0.107-0.148-0.175c-0.303,0.349-0.595,0.684-0.887,1.021
		c-1.321,1.521-2.643,3.043-3.963,4.564c-0.174,0.201-0.349,0.4-0.524,0.6c-0.093,0.107-0.108,0.202-0.016,0.334
		c0.936,1.339,1.867,2.682,2.794,4.026c0.187,0.271,0.404,0.536,0.523,0.837c0.414,1.047-0.085,2.25-1.1,2.732
		c-1.033,0.492-2.235,0.115-2.846-0.851c-0.424-0.671-0.897-1.313-1.356-1.962c-2.266-3.205-4.535-6.408-6.803-9.611
		c-1.829-2.584-3.659-5.167-5.488-7.75c-0.024-0.034-0.052-0.066-0.089-0.112c-0.045,0.065-0.085,0.123-0.125,0.181
		c-5.191,7.786-10.383,15.571-15.57,23.359c-0.353,0.529-0.81,0.904-1.435,1.051c-1.145,0.268-2.279-0.393-2.628-1.521
		c-0.018-0.061-0.045-0.118-0.067-0.178C13.957,150.569,13.957,150.256,13.957,149.941z"/>
	<path fill-rule="evenodd" clip-rule="evenodd" fill="#627D53" d="M13.957,167.002c0.263-0.453,0.599-0.84,1.097-1.031
		c0.265-0.102,0.558-0.184,0.838-0.184c17.621-0.008,35.241-0.008,52.861-0.008c1.124,0,2.028,0.682,2.252,1.695
		c0.304,1.373-0.652,2.62-2.068,2.695c-0.096,0.006-0.193,0.004-0.29,0.004c-17.421,0.001-34.842,0.002-52.264-0.002
		c-0.318,0-0.644,0.004-0.951-0.063c-0.606-0.127-1.066-0.486-1.387-1.018c-0.027-0.047-0.06-0.089-0.09-0.133
		C13.957,168.307,13.957,167.654,13.957,167.002z"/>
	<path fill-rule="evenodd" clip-rule="evenodd" fill="#627D53" d="M13.957,158.2c0.16-0.2,0.3-0.419,0.482-0.597
		c0.402-0.395,0.892-0.6,1.465-0.6c17.656,0.002,35.313,0.001,52.97,0.002c1.033,0,1.917,0.711,2.136,1.715
		c0.222,1.025-0.279,2.039-1.225,2.47c-0.3,0.136-0.615,0.198-0.946,0.198c-17.512-0.001-35.024-0.001-52.536,0.001
		c-0.362,0-0.722,0.019-1.071-0.11c-0.481-0.177-0.864-0.471-1.142-0.902c-0.041-0.063-0.089-0.123-0.133-0.184
		C13.957,159.529,13.957,158.864,13.957,158.2z"/>
</g>
<g>
	<path fill-rule="evenodd" clip-rule="evenodd" fill="#FFFFFF" d="M131.77,88.778c0.101-7.661-0.726-10.434-3.234-15.36
		c-2.068-4.062-4.963-7.419-9.142-9.42c-6.372-3.053-12.545-2.248-18.471,1.291c-4.527,2.703-7.418,6.82-9.66,11.465
		c-3.333,6.905-2.933,13.518,1.509,19.844c2.278,3.243,5.045,6.027,7.946,8.692c2.421,2.224,4.992,4.296,6.962,6.973
		c0.791,1.076,1.619,2.126,2.45,3.173c1.784,2.245,3.745,4.291,6.425,5.487c3.471,1.549,7.103,1.618,10.775,1.071
		c1.165-0.173,2.333-0.473,3.439-0.881c5.563-2.059,8.029-6.621,6.812-12.44c-0.574-2.745-1.685-5.271-3.086-7.675
		c-1.272-2.18-2.308-4.437-2.464-6.999C131.908,92.026,131.832,90.051,131.77,88.778z"/>
	<path fill-rule="evenodd" clip-rule="evenodd" fill="#627D53" d="M131.77,88.778c0.062,1.272,0.138,3.248,0.259,5.221
		c0.156,2.563,1.192,4.819,2.464,6.999c1.402,2.404,2.512,4.93,3.086,7.675c1.217,5.819-1.249,10.382-6.812,12.44
		c-1.105,0.408-2.274,0.708-3.439,0.881c-3.672,0.547-7.304,0.478-10.775-1.071c-2.68-1.196-4.641-3.242-6.425-5.487
		c-0.831-1.047-1.659-2.097-2.45-3.173c-1.97-2.677-4.541-4.749-6.962-6.973c-2.901-2.665-5.668-5.449-7.946-8.692
		c-4.442-6.326-4.841-12.938-1.509-19.844c2.242-4.645,5.133-8.762,9.66-11.465c5.926-3.539,12.1-4.344,18.471-1.291
		c4.179,2.001,7.074,5.358,9.142,9.42C131.044,78.345,131.87,81.117,131.77,88.778z M129.396,88.791
		c0.015-0.002,0.031-0.003,0.046-0.004c0-0.816-0.011-1.633,0.001-2.449c0.082-5.143-1.461-9.793-4.292-14.035
		c-2.11-3.162-4.796-5.686-8.456-6.932c-5.527-1.879-10.646-0.767-15.364,2.447c-4.498,3.063-7.179,7.497-8.998,12.493
		c-1.749,4.804-1.115,9.399,1.55,13.717c1.724,2.793,3.896,5.23,6.246,7.508c1.03,0.998,2.046,2.021,3.159,2.923
		c3.397,2.754,6.085,6.135,8.717,9.581c1.496,1.958,3.176,3.772,5.507,4.745c4.226,1.765,8.524,1.609,12.737,0.029
		c4.15-1.557,5.898-4.915,5.106-9.29c-0.469-2.592-1.514-4.955-2.817-7.216c-1.42-2.461-2.605-5.006-2.809-7.895
		C129.599,92.541,129.507,90.665,129.396,88.791z"/>
	<path fill-rule="evenodd" clip-rule="evenodd" fill="#FFFFFF" d="M129.396,88.791c0.11,1.874,0.203,3.75,0.334,5.623
		c0.204,2.889,1.389,5.434,2.809,7.895c1.304,2.261,2.349,4.624,2.817,7.216c0.792,4.375-0.956,7.733-5.106,9.29
		c-4.213,1.58-8.511,1.735-12.737-0.029c-2.331-0.973-4.011-2.787-5.507-4.745c-2.632-3.446-5.32-6.827-8.717-9.581
		c-1.112-0.901-2.128-1.925-3.159-2.923c-2.35-2.277-4.521-4.715-6.246-7.508c-2.665-4.317-3.299-8.913-1.55-13.717
		c1.819-4.996,4.5-9.431,8.998-12.493c4.718-3.214,9.837-4.326,15.364-2.447c3.66,1.246,6.346,3.77,8.456,6.932
		c2.831,4.242,4.374,8.893,4.292,14.035c-0.013,0.816-0.001,1.633-0.001,2.449C129.427,88.788,129.412,88.789,129.396,88.791z
		 M128.239,88.412c0.232-4.419-0.318-8.194-1.99-11.779c-1.672-3.583-3.818-6.801-7.268-8.882c-5.071-3.061-10.229-2.7-15.33-0.029
		c-3.968,2.079-6.59,5.444-8.654,9.313c-1.365,2.559-2.33,5.234-2.467,8.165c-0.176,3.73,1.336,6.887,3.4,9.829
		c2.057,2.932,4.592,5.439,7.253,7.817c2.546,2.274,5.129,4.504,7.214,7.243c1.257,1.65,2.546,3.284,3.899,4.859
		c1.572,1.828,3.534,3.088,5.937,3.55c2.736,0.526,5.465,0.46,8.161-0.259c4.976-1.328,6.879-4.595,5.616-9.58
		c-0.583-2.301-1.621-4.401-2.816-6.434c-1.383-2.351-2.369-4.844-2.577-7.588C128.445,92.399,128.342,90.154,128.239,88.412z"/>
	<path fill-rule="evenodd" clip-rule="evenodd" fill="#627D53" d="M128.239,88.412c0.104,1.742,0.207,3.987,0.377,6.227
		c0.208,2.744,1.194,5.237,2.577,7.588c1.196,2.032,2.234,4.133,2.816,6.434c1.263,4.985-0.64,8.252-5.616,9.58
		c-2.695,0.719-5.425,0.785-8.161,0.259c-2.403-0.462-4.365-1.722-5.937-3.55c-1.354-1.575-2.642-3.209-3.899-4.859
		c-2.084-2.739-4.668-4.969-7.214-7.243c-2.661-2.378-5.196-4.886-7.253-7.817c-2.063-2.942-3.576-6.099-3.4-9.829
		c0.138-2.931,1.103-5.606,2.467-8.165c2.063-3.869,4.686-7.234,8.654-9.313c5.1-2.671,10.258-3.031,15.33,0.029
		c3.45,2.081,5.596,5.299,7.268,8.882C127.92,80.218,128.471,83.993,128.239,88.412z M112.785,71.695
		c-1.604,0.136-2.72,0.182-3.819,0.335c-2.416,0.334-4.766,0.914-6.85,2.255c-1.127,0.727-2.031,1.653-2.396,3.004
		c-0.449,1.664-0.098,2.856,1.284,3.675c2.09,1.237,4.267,1.554,6.448,0.187c2.544-1.594,5.066-1.613,7.591,0.033
		c0.663,0.432,1.32,0.875,2.011,1.259c1.062,0.589,1.826,0.412,2.19-0.711c0.506-1.562,0.986-3.178,1.135-4.802
		c0.208-2.275-0.91-3.825-3.114-4.442C115.662,72.038,113.974,71.896,112.785,71.695z M113.481,96.652
		c-0.306-1.443-0.504-2.92-0.944-4.32c-0.604-1.924-1.861-3.289-3.931-3.736c-2.468-0.533-6.039,0.904-7.4,2.982
		c-0.733,1.119-0.698,2.193,0.224,3.168c0.431,0.457,0.966,0.899,1.542,1.116c2.608,0.981,5.211,2.013,7.888,2.771
		C113.108,99.268,113.447,98.367,113.481,96.652z M126.098,112.006c-0.052-0.49-0.095-0.982-0.161-1.471
		c-0.242-1.803-0.252-1.809-2.009-1.553c-1.328,0.193-2.048-0.191-2.616-1.402c-0.104-0.224-0.182-0.459-0.287-0.682
		c-0.384-0.811-1.184-1.175-1.959-0.732c-0.474,0.271-0.943,0.754-1.15,1.252c-1.147,2.748,0.184,5.964,3.064,7.588
		C123.837,116.616,126.089,115.29,126.098,112.006z M120.44,96.754c0-2.134,0.001-4.207-0.001-6.281c0-0.32,0.027-0.652-0.046-0.958
		c-0.051-0.213-0.252-0.39-0.387-0.583c-0.12,0.208-0.292,0.403-0.345,0.627c-0.06,0.258-0.011,0.54-0.011,0.812
		c0,2.123,0,4.245,0,6.346c-1.313,0.724-1.745,1.45-1.483,2.448c0.23,0.877,1.017,1.472,1.913,1.447
		c0.854-0.022,1.634-0.659,1.815-1.481C122.116,98.123,121.667,97.382,120.44,96.754z M126.158,92.048
		c-1.782-0.856-3.379-1.624-5.055-2.429c0,1.699,0,3.26,0,4.934C122.788,93.718,124.38,92.929,126.158,92.048z"/>
	<path fill-rule="evenodd" clip-rule="evenodd" fill="#FFFFFF" d="M112.785,71.695c1.188,0.201,2.876,0.343,4.479,0.792
		c2.205,0.617,3.323,2.167,3.114,4.442c-0.149,1.624-0.628,3.24-1.135,4.802c-0.364,1.123-1.128,1.3-2.19,0.711
		c-0.691-0.384-1.349-0.827-2.011-1.259c-2.525-1.646-5.047-1.627-7.591-0.033c-2.181,1.367-4.357,1.051-6.448-0.187
		c-1.381-0.818-1.733-2.011-1.284-3.675c0.365-1.351,1.269-2.277,2.396-3.004c2.084-1.341,4.434-1.921,6.85-2.255
		C110.065,71.877,111.181,71.831,112.785,71.695z"/>
	<path fill-rule="evenodd" clip-rule="evenodd" fill="#FFFFFF" d="M113.481,96.652c-0.034,1.715-0.374,2.615-2.621,1.98
		c-2.677-0.758-5.28-1.789-7.888-2.771c-0.576-0.217-1.111-0.659-1.542-1.116c-0.922-0.975-0.957-2.049-0.224-3.168
		c1.361-2.078,4.932-3.516,7.4-2.982c2.07,0.447,3.328,1.813,3.931,3.736C112.977,93.732,113.175,95.209,113.481,96.652z"/>
	<path fill-rule="evenodd" clip-rule="evenodd" fill="#FFFFFF" d="M126.098,112.006c-0.009,3.284-2.261,4.61-5.118,3
		c-2.88-1.624-4.211-4.84-3.064-7.588c0.208-0.498,0.677-0.98,1.15-1.252c0.775-0.442,1.575-0.078,1.959,0.732
		c0.105,0.223,0.183,0.458,0.287,0.682c0.567,1.211,1.288,1.596,2.616,1.402c1.757-0.256,1.767-0.25,2.009,1.553
		C126.003,111.023,126.045,111.516,126.098,112.006z"/>
	<path fill-rule="evenodd" clip-rule="evenodd" fill="#FFFFFF" d="M120.44,96.754c1.227,0.628,1.676,1.369,1.455,2.376
		c-0.181,0.822-0.961,1.459-1.815,1.481c-0.896,0.024-1.683-0.57-1.913-1.447c-0.262-0.998,0.169-1.725,1.483-2.448
		c0-2.101,0-4.223,0-6.346c0-0.271-0.049-0.554,0.011-0.812c0.052-0.224,0.225-0.419,0.345-0.627
		c0.135,0.193,0.336,0.37,0.387,0.583c0.073,0.306,0.046,0.638,0.046,0.958C120.441,92.547,120.44,94.62,120.44,96.754z"/>
	<path fill-rule="evenodd" clip-rule="evenodd" fill="#FFFFFF" d="M126.158,92.048c-1.778,0.881-3.37,1.67-5.055,2.505
		c0-1.674,0-3.234,0-4.934C122.779,90.424,124.376,91.191,126.158,92.048z"/>
</g>
<g>
	<path fill-rule="evenodd" clip-rule="evenodd" fill="#627D53" d="M143.232,153.182c-1.999,0.01-3.45-1.082-4.773-2.405
		c-0.489-0.489-0.931-1.024-1.443-1.593c-1.686,1.983-3.374,4.02-6.248,3.994c-2.835-0.023-4.481-2.068-6.153-3.989
		c-4.233,5.358-8.211,5.335-12.393,0.038c-5.456,5.313-7.913,5.316-12.417-0.047c-1.713,1.9-3.347,3.952-6.231,4.002
		c0-1.324,0-2.648,0-3.973c2.717-0.336,4.563-2.012,6.19-4.145c1.707,2.059,3.463,4.076,6.294,4.035
		c2.791-0.04,4.511-2.043,6.137-4.035c4.44,5.422,7.979,5.422,12.398,0.021c4.465,5.596,8.339,5.117,12.433-0.006
		c1.621,2.06,3.459,3.805,6.206,4.129C143.232,150.533,143.232,151.857,143.232,153.182z"/>
	<path fill-rule="evenodd" clip-rule="evenodd" fill="#627D53" d="M143.232,167.748c-2.757-0.261-4.554-2.004-6.196-4.119
		c-1.688,2.053-3.434,4.075-6.265,4.051c-2.794-0.024-4.514-2.025-6.141-4.016c-4.351,5.367-8.089,5.385-12.433,0.032
		c-4.768,5.958-8.696,4.67-12.413-0.054c-1.633,2.039-3.421,3.857-6.211,4.105c0-1.398,0-2.796,0-4.193
		c1.923,0.053,3.325-1,4.625-2.227c0.556-0.523,1.034-1.131,1.583-1.74c1.718,1.947,3.371,4.008,6.266,3.967
		c2.836-0.041,4.486-2.05,6.151-3.977c4.202,5.34,8.205,5.336,12.376,0.039c5.481,5.239,8.191,5.246,12.415-0.041
		c1.729,1.881,3.344,3.962,6.242,3.979C143.232,164.952,143.232,166.35,143.232,167.748z"/>
	<path fill-rule="evenodd" clip-rule="evenodd" fill="#627D53" d="M93.574,134.642c2.812-0.146,4.515-2.032,6.2-4.046
		c1.682,2.004,3.383,3.982,6.183,4.01c2.837,0.026,4.52-1.998,6.232-3.994c1.673,1.963,3.359,3.969,6.158,3.993
		c2.832,0.024,4.544-1.95,6.246-3.987c1.686,1.909,3.341,3.964,6.145,3.988c2.829,0.024,4.554-1.924,6.268-3.998
		c1.693,1.938,3.386,3.904,6.226,4.034c0,1.397,0,2.796,0,4.193c-2.703-0.367-4.561-2.011-6.173-4.176
		c-1.71,1.976-3.381,4.039-6.232,4.034c-2.831-0.006-4.532-1.973-6.205-4.018c-1.678,1.986-3.371,4.018-6.219,4.014
		c-2.834-0.004-4.525-1.985-6.195-4.016c-1.669,1.984-3.363,4.025-6.229,4.018c-2.829-0.006-4.511-1.996-6.208-4.043
		c-1.602,2.111-3.454,3.83-6.198,4.187C93.574,137.438,93.574,136.039,93.574,134.642z"/>
</g>
</svg>
