<?xml version="1.0" encoding="utf-8"?>
<!-- Generator: Adobe Illustrator 16.0.0, SVG Export Plug-In . SVG Version: 6.00 Build 0)  -->
<!DOCTYPE svg PUBLIC "-//W3C//DTD SVG 1.1//EN" "http://www.w3.org/Graphics/SVG/1.1/DTD/svg11.dtd">
<svg version="1.1" id="Layer_1" xmlns="http://www.w3.org/2000/svg" xmlns:xlink="http://www.w3.org/1999/xlink" x="0px" y="0px"
	 width="157px" height="179px" viewBox="0 0 157 179" enable-background="new 0 0 157 179" xml:space="preserve">
<rect x="1" y="1" fill-rule="evenodd" clip-rule="evenodd" fill="#FFFFFF" stroke="#627D53" stroke-width="2" stroke-miterlimit="10" width="155" height="177"/>
<rect x="2" y="1" fill-rule="evenodd" clip-rule="evenodd" fill="#627D53" width="155" height="56"/>
<g>
	<g>
		<path fill-rule="evenodd" clip-rule="evenodd" fill="#627D53" d="M84.771,93.224c2.423,0.929,4.803,1.77,7.123,2.75
			c2.506,1.06,4.809,2.47,6.732,4.437c2.758,2.819,3.91,6.294,4.094,10.142c0.074,1.557,0.043,3.119,0.025,4.679
			c-0.003,0.249-0.137,0.532-0.291,0.739c-5.513,7.349-12.789,11.807-21.957,12.64c-12.07,1.099-21.682-3.516-28.817-13.295
			c-0.202-0.275-0.318-0.68-0.323-1.027c-0.031-2.486-0.044-4.971,0.412-7.438c0.795-4.307,3.066-7.547,6.885-9.7
			c3.337-1.882,6.984-2.886,10.717-3.829c2.03,4.771,4.045,9.502,6.059,14.233c0.038-0.005,0.076-0.006,0.113-0.008
			c0.017-0.137,0.047-0.27,0.048-0.404c0.012-1.955,0.045-3.911,0.01-5.864c-0.009-0.515-0.217-1.032-0.373-1.535
			c-0.178-0.577-0.399-1.143-0.621-1.771c1.888,0,3.678,0,5.564,0c-0.274,0.766-0.548,1.476-0.781,2.201
			c-0.107,0.333-0.183,0.689-0.186,1.035c-0.017,2.129-0.008,4.258,0.134,6.429C81.127,102.894,82.915,98.15,84.771,93.224z"/>
		<path fill-rule="evenodd" clip-rule="evenodd" fill="#627D53" d="M47.876,125.444c-1.782,1.415-3.458,2.73-5.108,4.078
			c-0.136,0.112-0.175,0.458-0.126,0.664c1.01,4.253-6.464-6.632-3.52-4.788c0.459,0.288,0.717,0.242,1.113-0.077
			c2.627-2.12,5.276-4.215,7.918-6.315c0.153-0.121,0.312-0.236,0.499-0.378c7.085,9.612,16.51,14.958,28.492,14.969
			c11.99,0.01,21.42-5.325,28.544-14.963c0.17,0.125,0.344,0.243,0.508,0.375c2.705,2.149,5.413,4.296,8.105,6.461
			c0.372,0.299-2.207,4.519-2.188,4.447c-1.874-1.486-3.715-2.949-5.653-4.487c-1.005,1.035-1.921,2.101-2.96,3.031
			c-6.642,5.938-14.418,9.264-23.296,9.997c-0.438,0.035-0.615,0.132-0.607,0.613c0.029,1.776,0.024,3.555,0.001,5.331
			c-0.004,0.405,0.133,0.574,0.506,0.722c3.541,1.396-9.161,1.508-5.9,0.108c0.404-0.174,0.562-0.37,0.555-0.82
			c-0.027-1.777-0.021-3.554-0.004-5.332c0.004-0.406-0.078-0.578-0.539-0.618c-10.244-0.854-18.884-5.046-25.941-12.511
			C48.142,125.809,48.032,125.643,47.876,125.444z"/>
		<path fill-rule="evenodd" clip-rule="evenodd" fill="#627D53" d="M65.934,79.662c0.069-3.86,1.232-7.36,4.055-10.179
			c4.165-4.158,10.298-4.164,14.466-0.013c2.694,2.684,3.987,6.018,4.023,9.767c0.054,5.281-1.734,9.943-5.212,13.923
			c-0.616,0.705-1.362,1.327-2.137,1.857c-2.567,1.753-5.281,1.727-7.856-0.013c-1.839-1.242-3.188-2.932-4.297-4.822
			C67.084,86.954,66.027,83.479,65.934,79.662z"/>
	</g>
	<g>
		<path fill-rule="evenodd" clip-rule="evenodd" fill="#627D53" d="M76.212,143.211c7.397,0.003,13.358,5.999,13.344,13.423
			c-0.014,7.263-6.023,13.22-13.315,13.22c-7.276,0-13.347-5.911-13.327-13.398C62.934,149.199,68.943,143.208,76.212,143.211z
			 M80.256,145.16c0.021-0.01,0.045-0.021,0.068-0.035c0.002-0.002,0-0.012,0-0.018C80.301,145.124,80.277,145.142,80.256,145.16
			c0.675,0.52,1.071,1.251,1.442,1.983c0.917,1.811,1.431,3.741,1.591,5.765c0.008,0.117-0.044,0.268,0.088,0.336
			c0.146,0.078,0.27-0.033,0.369-0.12c0.25-0.217,0.522-0.399,0.721-0.69c0.711-1.047,0.879-2.261,1.125-3.455
			c0.037-0.175-0.05-0.291-0.154-0.409c-1.35-1.536-2.97-2.688-4.881-3.423C80.449,145.105,80.352,145.084,80.256,145.16z
			 M79.552,168.246c2.168-0.601,3.995-1.767,5.566-3.359c0.205-0.208,0.327-0.439,0.356-0.715c0.098-0.952,0.134-1.903-0.082-2.844
			c-0.256-1.12-0.721-2.119-1.682-2.82c-0.203-0.146-0.33-0.217-0.361,0.138c-0.08,0.927-0.223,1.845-0.387,2.763
			c-0.282,1.598-0.825,3.078-1.646,4.464c-0.503,0.848-1.175,1.566-1.826,2.302c-0.027,0.022-0.056,0.047-0.084,0.07
			C79.454,168.296,79.502,168.272,79.552,168.246z M74.841,156.214c-1.376,0.049-3.033,0.089-4.69,0.167
			c-1.886,0.089-3.768,0.225-5.637,0.509c-0.326,0.049-0.458,0.152-0.431,0.521c0.183,2.392,1,4.539,2.433,6.452
			c0.32,0.426,0.624,0.882,1.078,1.182c0.734,0.487,1.516,0.383,2.301,0.129c1.534-0.495,2.887-1.333,4.227-2.2
			c2.087-1.352,3.925-2.992,5.675-4.748c0.611-0.611,1.331-1.092,2.229-1.203c0.324-0.04,0.256-0.267,0.272-0.477
			c0.022-0.267-0.146-0.245-0.321-0.255c-0.382-0.019-0.764-0.07-1.146-0.071C78.929,156.21,77.025,156.214,74.841,156.214z
			 M64.092,155.498c-0.054,0.229,0.011,0.343,0.385,0.269c1.131-0.223,2.283-0.305,3.43-0.386c4.003-0.287,8.012-0.354,12.024-0.279
			c0.704,0.013,1.407,0.039,2.11,0.067c0.164,0.006,0.282-0.024,0.242-0.218c-0.036-0.17,0.13-0.418-0.178-0.493
			c-0.902-0.219-1.646-0.716-2.316-1.334c-1.072-0.989-2.113-2.01-3.304-2.862c-1.81-1.297-3.755-2.321-5.892-2.964
			c-1.03-0.312-2.075-0.169-2.822,0.531C65.594,149.866,64.413,152.438,64.092,155.498z M69.3,166.475
			c0.042,0.072,0.05,0.105,0.073,0.122c2.25,1.515,4.73,2.229,7.444,2.107c0.153-0.006,0.301-0.021,0.431-0.126
			c1.011-0.812,1.959-1.68,2.717-2.739c1.601-2.237,2.092-4.806,2.264-7.478c0.019-0.269-0.093-0.23-0.268-0.177
			c-0.609,0.182-1.101,0.553-1.525,0.997c-1.922,2.011-4.06,3.75-6.424,5.213C72.549,165.3,71.055,166.147,69.3,166.475z
			 M82.197,153.271c-0.074-1.215-0.269-2.347-0.585-3.456c-0.602-2.114-1.623-3.942-3.587-5.101
			c-0.252-0.148-0.502-0.303-0.803-0.323c-2.32-0.15-4.527,0.262-6.596,1.343c-0.147,0.077-0.334,0.116-0.431,0.305
			c0.722,0.142,1.394,0.357,2.05,0.615c3.036,1.188,5.657,2.999,7.958,5.295C80.76,152.504,81.369,152.987,82.197,153.271z
			 M86.702,162.723c0.936-1.465,1.577-3.596,1.682-5.3c0.024-0.397-0.094-0.525-0.459-0.593c-1.331-0.244-2.675-0.357-4.023-0.438
			c-0.146-0.008-0.419-0.171-0.445,0.13c-0.022,0.254-0.126,0.547,0.286,0.711c0.791,0.313,1.376,0.899,1.844,1.608
			C86.342,159.994,86.617,161.285,86.702,162.723z M86.541,150.044c-0.113,0.465-0.191,0.869-0.31,1.259
			c-0.409,1.354-1.044,2.546-2.479,3.052c-0.38,0.133-0.334,0.362-0.327,0.633c0.008,0.328,0.266,0.242,0.441,0.255
			c1.422,0.111,2.85,0.187,4.251,0.48c0.293,0.06,0.259-0.108,0.246-0.28c-0.063-0.861-0.241-1.702-0.496-2.523
			C87.559,151.927,87.125,150.987,86.541,150.044z"/>
		<path fill-rule="evenodd" clip-rule="evenodd" fill="#FDFDFD" d="M74.841,156.214c2.184,0,4.088-0.004,5.99,0.005
			c0.382,0.001,0.764,0.053,1.146,0.071c0.175,0.01,0.343-0.012,0.321,0.255c-0.017,0.21,0.052,0.437-0.272,0.477
			c-0.898,0.111-1.618,0.592-2.229,1.203c-1.75,1.756-3.588,3.396-5.675,4.748c-1.34,0.867-2.692,1.705-4.227,2.2
			c-0.785,0.254-1.567,0.358-2.301-0.129c-0.454-0.3-0.758-0.756-1.078-1.182c-1.433-1.913-2.25-4.061-2.433-6.452
			c-0.027-0.368,0.105-0.472,0.431-0.521c1.869-0.284,3.75-0.42,5.637-0.509C71.808,156.303,73.465,156.263,74.841,156.214z"/>
		<path fill-rule="evenodd" clip-rule="evenodd" fill="#FDFDFD" d="M64.092,155.498c0.321-3.06,1.502-5.632,3.68-7.669
			c0.747-0.7,1.792-0.843,2.822-0.531c2.136,0.643,4.082,1.667,5.892,2.964c1.19,0.853,2.232,1.873,3.304,2.862
			c0.669,0.618,1.414,1.115,2.316,1.334c0.308,0.075,0.142,0.323,0.178,0.493c0.04,0.193-0.078,0.224-0.242,0.218
			c-0.703-0.028-1.406-0.055-2.11-0.067c-4.012-0.074-8.021-0.008-12.024,0.279c-1.146,0.081-2.299,0.163-3.43,0.386
			C64.103,155.841,64.039,155.727,64.092,155.498z"/>
		<path fill-rule="evenodd" clip-rule="evenodd" fill="#FDFDFD" d="M69.3,166.475c1.755-0.327,3.249-1.175,4.713-2.08
			c2.364-1.463,4.501-3.202,6.424-5.213c0.424-0.444,0.916-0.815,1.525-0.997c0.175-0.054,0.286-0.092,0.268,0.177
			c-0.172,2.672-0.663,5.24-2.264,7.478c-0.758,1.06-1.706,1.928-2.717,2.739c-0.13,0.105-0.277,0.12-0.431,0.126
			c-2.714,0.121-5.194-0.593-7.444-2.107C69.351,166.58,69.342,166.547,69.3,166.475z"/>
		<path fill-rule="evenodd" clip-rule="evenodd" fill="#FDFDFD" d="M82.197,153.271c-0.829-0.283-1.437-0.767-1.993-1.322
			c-2.301-2.296-4.922-4.106-7.958-5.295c-0.657-0.258-1.328-0.474-2.05-0.615c0.097-0.188,0.284-0.228,0.431-0.305
			c2.069-1.081,4.276-1.493,6.596-1.343c0.301,0.021,0.551,0.175,0.803,0.323c1.964,1.158,2.985,2.986,3.587,5.101
			C81.929,150.924,82.123,152.056,82.197,153.271z"/>
		<path fill-rule="evenodd" clip-rule="evenodd" fill="#FDFDFD" d="M79.49,168.174c0.651-0.735,1.323-1.454,1.826-2.302
			c0.821-1.386,1.364-2.866,1.646-4.464c0.164-0.918,0.307-1.836,0.387-2.763c0.031-0.354,0.158-0.284,0.361-0.138
			c0.961,0.701,1.426,1.7,1.682,2.82c0.216,0.94,0.18,1.892,0.082,2.844c-0.029,0.275-0.151,0.507-0.356,0.715
			c-1.571,1.593-3.398,2.759-5.566,3.359C79.53,168.221,79.51,168.196,79.49,168.174z"/>
		<path fill-rule="evenodd" clip-rule="evenodd" fill="#FDFDFD" d="M80.256,145.162c0.096-0.078,0.193-0.057,0.3-0.016
			c1.912,0.735,3.532,1.887,4.881,3.423c0.104,0.118,0.191,0.234,0.154,0.409c-0.246,1.194-0.414,2.408-1.125,3.455
			c-0.198,0.291-0.471,0.474-0.721,0.69c-0.1,0.087-0.223,0.198-0.369,0.12c-0.132-0.068-0.08-0.219-0.088-0.336
			c-0.16-2.023-0.674-3.954-1.591-5.765c-0.371-0.732-0.768-1.464-1.442-1.984V145.162z"/>
		<path fill-rule="evenodd" clip-rule="evenodd" fill="#FDFDFD" d="M86.702,162.723c-0.085-1.438-0.36-2.729-1.116-3.881
			c-0.468-0.709-1.053-1.295-1.844-1.608c-0.412-0.164-0.309-0.457-0.286-0.711c0.026-0.301,0.3-0.138,0.445-0.13
			c1.349,0.08,2.692,0.193,4.023,0.438c0.365,0.067,0.483,0.195,0.459,0.593C88.279,159.127,87.638,161.258,86.702,162.723z"/>
		<path fill-rule="evenodd" clip-rule="evenodd" fill="#FDFDFD" d="M86.541,150.044c0.584,0.943,1.018,1.883,1.327,2.875
			c0.255,0.821,0.434,1.662,0.496,2.523c0.013,0.172,0.047,0.34-0.246,0.28c-1.401-0.294-2.829-0.369-4.251-0.48
			c-0.176-0.013-0.434,0.073-0.441-0.255c-0.007-0.271-0.053-0.5,0.327-0.633c1.435-0.506,2.069-1.698,2.479-3.052
			C86.35,150.913,86.428,150.509,86.541,150.044z"/>
		<path fill-rule="evenodd" clip-rule="evenodd" fill="#FDFDFD" d="M80.256,145.159c0.021-0.018,0.045-0.035,0.068-0.052
			c0,0.006,0.002,0.016,0,0.018C80.301,145.139,80.277,145.15,80.256,145.159C80.256,145.162,80.256,145.159,80.256,145.159z"/>
		<path fill-rule="evenodd" clip-rule="evenodd" fill="#FDFDFD" d="M79.552,168.246c-0.05,0.026-0.098,0.05-0.146-0.002
			c0.028-0.023,0.057-0.048,0.084-0.07C79.51,168.196,79.53,168.221,79.552,168.246z"/>
	</g>
	<g>
		<path fill-rule="evenodd" clip-rule="evenodd" fill="#627D53" d="M44.661,135.166c-0.043-7.469-5.986-13.347-13.511-13.255
			c-7.23,0.088-12.979,5.931-13.023,13.194c-0.045,7.168,5.752,13.726,14.145,13.271C39.157,148.003,44.597,142.308,44.661,135.166z
			"/>
		<path fill-rule="evenodd" clip-rule="evenodd" fill="#333333" d="M19.908,137.525c0.042,0.306,0.057,0.577,0.125,0.828
			c0.109,0.401,0.224,0.808,0.397,1.185c1.465,3.193,3.745,5.521,7.104,6.73c1.664,0.6,3.376,0.787,5.106,0.595
			c1.705-0.188,3.326-0.731,4.807-1.635c0.413-0.251,0.421-0.427,0.007-0.707c-0.471-0.321-1.008-0.322-1.552-0.29
			c-0.435,0.024-0.833,0.211-1.267,0.309c0.254-1.353,2.035-2.448,3.478-2.163c0.694,0.136,1.234,0.467,1.308,1.27
			c2.692-2.226,4.344-6.75,3.504-10.495c-0.171,0.145-0.265,0.369-0.492,0.424c-0.384-2.256-1.535-3.015-3.746-2.445
			c-0.006-0.66,0.156-1.254,0.563-1.77c0.458-0.58,1.084-0.817,1.865-0.794c-0.575-0.854-1.22-1.56-1.934-2.206
			c-0.181-0.162-0.235-0.103-0.302,0.113c-0.143,0.469-0.442,0.818-0.884,1.037c-0.099-0.306-0.162-0.603-0.287-0.87
			c-0.649-1.384-2.182-2.008-3.609-1.558c-0.458,0.146-0.431-0.013-0.368-0.35c0.065-0.364,0.27-0.659,0.447-0.977
			c-3.992-1.049-8.426,0.314-11.231,3.193c1.222,0.397,1.704,1.295,1.589,2.498c-0.09,0.937-0.543,1.696-1.41,2.308
			c0.035-0.391-0.025-0.655-0.098-0.912c-0.208-0.743-0.655-1.282-1.395-1.558c-0.248-0.094-0.395-0.059-0.533,0.193
			c-0.86,1.563-1.322,3.239-1.458,5.011c-0.019,0.253,0.052,0.377,0.307,0.484c1.089,0.457,1.717,1.313,1.931,2.459
			c0.113,0.595,0.032,1.172-0.381,1.687C20.892,138.186,20.599,137.892,19.908,137.525z"/>
		<path fill-rule="evenodd" clip-rule="evenodd" fill="#FDFDFD" d="M19.908,137.525c0.691,0.366,0.984,0.66,1.59,1.595
			c0.413-0.515,0.494-1.092,0.381-1.687c-0.214-1.146-0.842-2.002-1.931-2.459c-0.255-0.107-0.326-0.231-0.307-0.484
			c0.136-1.771,0.598-3.447,1.458-5.011c0.138-0.252,0.286-0.287,0.533-0.193c0.74,0.275,1.187,0.814,1.395,1.558
			c0.073,0.257,0.133,0.521,0.098,0.912c0.867-0.611,1.32-1.371,1.41-2.308c0.115-1.203-0.367-2.101-1.589-2.498
			c2.805-2.879,7.24-4.242,11.231-3.193c-0.178,0.317-0.382,0.612-0.447,0.977c-0.063,0.337-0.09,0.495,0.368,0.35
			c1.427-0.45,2.96,0.174,3.609,1.558c0.125,0.268,0.188,0.564,0.287,0.87c0.441-0.219,0.741-0.568,0.884-1.037
			c0.066-0.216,0.121-0.275,0.302-0.113c0.714,0.646,1.358,1.353,1.934,2.206c-0.781-0.023-1.407,0.214-1.865,0.794
			c-0.407,0.516-0.569,1.109-0.563,1.77c2.211-0.569,3.362,0.189,3.746,2.445c0.228-0.055,0.321-0.279,0.492-0.424
			c0.84,3.745-0.812,8.27-3.504,10.495c-0.073-0.803-0.613-1.134-1.308-1.27c-1.442-0.285-3.223,0.811-3.478,2.163
			c0.434-0.098,0.832-0.284,1.267-0.309c0.543-0.032,1.081-0.031,1.552,0.29c0.414,0.28,0.406,0.456-0.007,0.707
			c-1.48,0.903-3.102,1.447-4.807,1.635c-1.73,0.192-3.442,0.005-5.106-0.595c-3.358-1.21-5.639-3.537-7.104-6.73
			c-0.173-0.377-0.288-0.783-0.397-1.185C19.964,138.103,19.95,137.831,19.908,137.525z M35.43,135.345
			c1.182-0.625,1.7-2.211,1.164-3.576c-0.527-1.35-2.081-2.127-3.495-1.744c-1.508,0.407-2.264,1.87-2.101,2.805
			C33.231,131.858,35.2,133.162,35.43,135.345z M27.577,137.562c1.21-0.656,1.705-2.198,1.172-3.558
			c-0.521-1.325-1.971-2.115-3.287-1.785c-1.32,0.33-2.253,1.577-2.096,2.806C25.401,134.063,27.342,135.501,27.577,137.562z
			 M34.369,141.923c1.204-0.632,1.722-1.92,1.306-3.159c-0.408-1.22-1.813-1.984-3.179-1.73c-1.388,0.26-2.408,1.444-2.384,2.772
			C32.67,139.205,34.12,139.916,34.369,141.923z M26.351,126.761c1.876-0.941,3.982-0.115,4.24,2.187
			c0.839-0.513,1.327-1.223,1.383-2.189c0.054-0.96-0.361-1.709-1.186-2.166c-1.056-0.585-2.131-0.495-3.151,0.128
			C26.899,125.17,26.434,125.811,26.351,126.761z M26.878,143.613c0.738-0.379,1.135-0.946,1.182-1.734
			c0.115-1.972-2.161-3.581-3.985-2.826c-0.917,0.378-1.423,1.269-1.27,2.23C24.771,140.799,26.394,141.709,26.878,143.613z
			 M40.936,139.971c0.506-0.304,0.79-0.713,1.019-1.163c0.604-1.172,0.277-2.75-0.702-3.369c-0.742-0.475-1.523-0.484-2.295-0.084
			c-0.907,0.465-1.411,1.233-1.594,2.225c-0.031,0.177,0.016,0.222,0.204,0.168c0.269-0.075,0.549-0.111,0.824-0.157
			C39.66,137.387,40.986,138.153,40.936,139.971z M30.317,143.858c-0.635,0.012-1.148,0.104-1.62,0.342
			c-0.546,0.272-0.963,0.659-1.051,1.309c-0.029,0.218,0.026,0.291,0.255,0.192c0.638-0.274,1.311-0.212,1.958-0.086
			c0.591,0.115,1.224,0.229,1.57,0.837c0.069,0.122,0.155,0.062,0.244,0.036c0.478-0.144,0.805-0.457,0.917-0.935
			c0.105-0.446-0.142-0.787-0.489-1.048C31.541,144.086,30.889,143.93,30.317,143.858z"/>
		<path fill-rule="evenodd" clip-rule="evenodd" fill="#627D53" d="M35.43,135.345c-0.229-2.183-2.198-3.486-4.433-2.516
			c-0.163-0.935,0.593-2.397,2.101-2.805c1.414-0.383,2.968,0.395,3.495,1.744C37.129,133.134,36.612,134.72,35.43,135.345z"/>
		<path fill-rule="evenodd" clip-rule="evenodd" fill="#627D53" d="M27.577,137.562c-0.234-2.061-2.176-3.499-4.21-2.537
			c-0.157-1.229,0.775-2.476,2.096-2.806c1.315-0.33,2.766,0.46,3.287,1.785C29.282,135.363,28.787,136.905,27.577,137.562z"/>
		<path fill-rule="evenodd" clip-rule="evenodd" fill="#627D53" d="M34.369,141.923c-0.249-2.007-1.698-2.718-4.257-2.117
			c-0.023-1.328,0.997-2.513,2.384-2.772c1.366-0.254,2.771,0.511,3.179,1.73C36.091,140.003,35.572,141.291,34.369,141.923z"/>
		<path fill-rule="evenodd" clip-rule="evenodd" fill="#627D53" d="M26.351,126.761c0.083-0.95,0.549-1.591,1.286-2.041
			c1.021-0.623,2.095-0.713,3.151-0.128c0.825,0.457,1.24,1.206,1.186,2.166c-0.057,0.967-0.544,1.677-1.383,2.189
			C30.333,126.646,28.227,125.819,26.351,126.761z"/>
		<path fill-rule="evenodd" clip-rule="evenodd" fill="#627D53" d="M26.878,143.613c-0.484-1.904-2.107-2.814-4.073-2.33
			c-0.153-0.962,0.353-1.853,1.27-2.23c1.824-0.755,4.1,0.854,3.985,2.826C28.013,142.667,27.616,143.234,26.878,143.613z"/>
		<path fill-rule="evenodd" clip-rule="evenodd" fill="#627D53" d="M40.936,139.971c0.05-1.817-1.276-2.584-2.544-2.381
			c-0.275,0.046-0.556,0.082-0.824,0.157c-0.188,0.054-0.235,0.009-0.204-0.168c0.183-0.991,0.687-1.76,1.594-2.225
			c0.771-0.4,1.553-0.391,2.295,0.084c0.979,0.619,1.307,2.197,0.702,3.369C41.726,139.258,41.442,139.667,40.936,139.971z"/>
		<path fill-rule="evenodd" clip-rule="evenodd" fill="#627D53" d="M30.317,143.858c0.572,0.071,1.224,0.228,1.784,0.647
			c0.347,0.261,0.594,0.602,0.489,1.048c-0.111,0.478-0.438,0.791-0.917,0.935c-0.089,0.025-0.174,0.086-0.244-0.036
			c-0.346-0.608-0.979-0.722-1.57-0.837c-0.647-0.126-1.319-0.188-1.958,0.086c-0.229,0.099-0.284,0.025-0.255-0.192
			c0.087-0.649,0.504-1.036,1.051-1.309C29.169,143.963,29.682,143.87,30.317,143.858z"/>
	</g>
	<g>
		<path fill-rule="evenodd" clip-rule="evenodd" fill="#627D53" d="M139.533,135.8c0.093,8.139-6.568,14.939-14.702,15.014
			c-8.368,0.078-15.134-6.479-15.226-14.752c-0.091-8.33,6.499-15.083,14.805-15.17C132.748,120.805,139.439,127.401,139.533,135.8z
			 M125.535,133.96c-0.278-1.467-0.559-2.934-0.83-4.402c-0.039-0.207-0.211-0.211-0.342-0.25c-1.219-0.359-2.443-0.705-3.665-1.061
			c-0.207-0.061-0.365-0.068-0.551,0.1c-0.985,0.883-1.985,1.752-2.984,2.621c-0.149,0.131-0.233,0.254-0.222,0.473
			c0.065,1.342,0.248,2.67,0.425,4c0.026,0.195,0.119,0.299,0.296,0.369c1.265,0.488,2.529,0.982,3.793,1.477
			c0.188,0.074,0.345,0.074,0.513-0.07c1.119-0.965,2.245-1.918,3.373-2.871C125.466,134.237,125.568,134.14,125.535,133.96z
			 M131.48,140.896c-0.162-1.283-0.32-2.428-0.438-3.578c-0.035-0.352-0.154-0.535-0.494-0.65c-1.283-0.443-2.56-0.904-3.827-1.385
			c-0.233-0.088-0.36-0.055-0.531,0.092c-1.085,0.926-2.171,1.852-3.27,2.76c-0.245,0.203-0.303,0.416-0.239,0.707
			c0.273,1.26,0.544,2.52,0.809,3.783c0.049,0.238,0.154,0.367,0.405,0.447c1.243,0.402,2.503,0.746,3.771,1.059
			c0.203,0.051,0.344,0.014,0.505-0.119c0.979-0.816,1.961-1.627,2.957-2.422C131.414,141.362,131.561,141.122,131.48,140.896z
			 M124.775,121.86c-0.451,0.01-1.083-0.134-1.574,0.164c-0.854,0.517-1.631,1.156-2.442,1.742
			c-0.138,0.101-0.196,0.229-0.183,0.395c0.066,0.875,0.081,1.756,0.233,2.625c0.034,0.199,0.102,0.283,0.298,0.336
			c1.245,0.334,2.487,0.676,3.725,1.033c0.207,0.059,0.346,0.025,0.509-0.102c1.007-0.777,2.019-1.549,3.032-2.316
			c0.166-0.126,0.227-0.236,0.15-0.466c-0.289-0.868-0.559-1.743-0.803-2.626c-0.087-0.314-0.272-0.424-0.558-0.488
			C126.416,121.989,125.661,121.888,124.775,121.86z M138.584,136.31c-0.029-0.285-0.088-0.605-0.092-0.924
			c-0.002-0.205-0.077-0.309-0.246-0.391c-0.852-0.416-1.703-0.832-2.547-1.264c-0.215-0.111-0.355-0.094-0.533,0.076
			c-0.904,0.871-1.818,1.73-2.742,2.582c-0.17,0.156-0.215,0.297-0.186,0.527c0.15,1.244,0.289,2.494,0.404,3.742
			c0.025,0.266,0.104,0.387,0.361,0.449c0.757,0.186,1.508,0.393,2.26,0.594c0.298,0.078,0.538,0.041,0.771-0.205
			c0.606-0.641,1.242-1.254,1.868-1.873c0.111-0.109,0.208-0.219,0.246-0.375C138.381,138.29,138.48,137.313,138.584,136.31z
			 M110.537,136.337c0,0.295-0.049,0.674,0.347,0.902c0.751,0.43,1.503,0.857,2.245,1.301c0.217,0.131,0.344,0.096,0.518-0.08
			c0.773-0.787,1.557-1.564,2.354-2.328c0.188-0.178,0.215-0.34,0.183-0.582c-0.163-1.211-0.327-2.424-0.357-3.646
			c-0.009-0.35-0.104-0.523-0.433-0.621c-0.713-0.213-1.42-0.447-2.127-0.678c-0.161-0.053-0.292-0.045-0.414,0.088
			c-0.612,0.66-1.232,1.311-1.836,1.979c-0.094,0.104-0.129,0.273-0.157,0.42C110.653,134.14,110.572,135.2,110.537,136.337z
			 M124.572,149.835c0.58,0.121,1.182-0.139,1.745-0.564c0.432-0.33,0.886-0.631,1.347-0.914c0.227-0.143,0.284-0.301,0.242-0.549
			c-0.123-0.736-0.239-1.473-0.341-2.213c-0.038-0.268-0.175-0.354-0.425-0.41c-1.223-0.287-2.44-0.588-3.631-0.99
			c-0.229-0.078-0.402-0.051-0.605,0.102c-0.883,0.664-1.775,1.313-2.68,1.941c-0.219,0.152-0.234,0.281-0.148,0.502
			c0.307,0.791,0.605,1.586,0.893,2.385c0.079,0.219,0.207,0.305,0.434,0.355C122.4,149.704,123.408,149.825,124.572,149.835z
			 M128.95,122.601c0.294,0.937,0.569,1.8,0.832,2.666c0.059,0.192,0.218,0.19,0.354,0.24c1.078,0.398,2.163,0.79,3.181,1.322
			c0.511,0.266,0.839,0.177,1.229-0.193c0.255-0.243,0.235-0.349,0.007-0.58c-0.994-1.011-2.122-1.841-3.36-2.52
			C130.506,123.159,129.794,122.825,128.95,122.601z M138.357,133.714c-0.236-2.047-1.324-4.672-2.523-6.145
			c-0.063-0.076-0.129-0.184-0.212-0.205c-0.212-0.057-0.851,0.725-0.784,0.961c0.358,1.254,0.631,2.529,0.879,3.809
			c0.037,0.186,0.111,0.303,0.279,0.387C136.768,132.905,137.535,133.298,138.357,133.714z M110.861,138.524
			c0.021,0.141,0.026,0.205,0.04,0.268c0.405,1.902,1.175,3.643,2.329,5.209c0.104,0.141,0.15,0.531,0.445,0.311
			c0.229-0.17,0.621-0.271,0.443-0.775c-0.399-1.129-0.696-2.295-0.944-3.469c-0.039-0.184-0.13-0.291-0.292-0.381
			C112.232,139.323,111.592,138.946,110.861,138.524z M114.321,145.358c1.495,1.611,3.262,2.803,5.395,3.609
			c-0.284-0.75-0.548-1.416-0.784-2.092c-0.086-0.248-0.229-0.375-0.465-0.479c-0.915-0.396-1.823-0.807-2.725-1.232
			C114.969,144.796,114.977,144.784,114.321,145.358z M118.562,123.239c1.05,0.238,1.832-0.143,2.522-0.924
			C120.19,122.54,119.375,122.823,118.562,123.239z M137.356,141.524c-0.804,0.6-1.407,1.199-1.27,2.25
			C136.582,143.075,136.98,142.364,137.356,141.524z M111.637,130.579c0.771-0.516,1.104-1.193,1.065-2.109
			C112.27,129.147,111.922,129.813,111.637,130.579z M129.836,148.802c-0.854-0.197-1.518,0.043-2.1,0.674
			C128.471,149.313,129.137,149.099,129.836,148.802z"/>
	</g>
</g>
<g>
	<path fill="#FFFFFF" d="M61.407,26.92c-0.52-0.577-0.779-1.403-0.779-2.48v-0.76h1.976v0.912c0,0.861,0.361,1.292,1.083,1.292
		c0.354,0,0.624-0.104,0.808-0.313c0.183-0.209,0.275-0.548,0.275-1.017c0-0.558-0.127-1.048-0.38-1.473
		c-0.254-0.424-0.722-0.934-1.406-1.529c-0.861-0.76-1.463-1.446-1.805-2.062c-0.342-0.614-0.513-1.308-0.513-2.08
		c0-1.052,0.266-1.865,0.798-2.441c0.532-0.576,1.305-0.865,2.318-0.865c1,0,1.758,0.289,2.271,0.865
		c0.513,0.576,0.77,1.402,0.77,2.479v0.551h-1.976v-0.684c0-0.455-0.089-0.788-0.266-0.997c-0.178-0.209-0.437-0.313-0.779-0.313
		c-0.697,0-1.045,0.424-1.045,1.273c0,0.48,0.13,0.93,0.39,1.349c0.259,0.418,0.731,0.925,1.416,1.52
		c0.874,0.761,1.476,1.45,1.805,2.071c0.33,0.621,0.494,1.35,0.494,2.186c0,1.089-0.269,1.925-0.808,2.508
		c-0.538,0.582-1.32,0.873-2.346,0.873C62.693,27.783,61.927,27.496,61.407,26.92z"/>
	<path fill="#FFFFFF" d="M68.057,14.294h3.078c1.039,0,1.817,0.278,2.337,0.836s0.779,1.374,0.779,2.45v1.312
		c0,1.077-0.26,1.894-0.779,2.451s-1.298,0.836-2.337,0.836h-0.988v5.415h-2.09V14.294z M71.135,20.279
		c0.342,0,0.599-0.096,0.77-0.285c0.171-0.19,0.256-0.514,0.256-0.969v-1.578c0-0.455-0.085-0.778-0.256-0.969
		c-0.171-0.189-0.427-0.285-0.77-0.285h-0.988v4.086H71.135z"/>
	<path fill="#FFFFFF" d="M76.056,26.91c-0.544-0.583-0.817-1.406-0.817-2.471v-6.992c0-1.063,0.272-1.887,0.817-2.47
		c0.544-0.582,1.33-0.874,2.356-0.874c1.026,0,1.812,0.292,2.356,0.874c0.545,0.583,0.817,1.406,0.817,2.47v6.992
		c0,1.064-0.272,1.888-0.817,2.471c-0.544,0.582-1.33,0.873-2.356,0.873C77.386,27.783,76.601,27.492,76.056,26.91z M79.495,24.572
		v-7.258c0-0.873-0.361-1.311-1.083-1.311c-0.722,0-1.083,0.438-1.083,1.311v7.258c0,0.875,0.361,1.312,1.083,1.312
		C79.134,25.884,79.495,25.447,79.495,24.572z"/>
	<path fill="#FFFFFF" d="M82.991,14.294h3.097c1.077,0,1.862,0.25,2.356,0.751c0.494,0.5,0.741,1.27,0.741,2.308v0.817
		c0,1.381-0.456,2.254-1.368,2.622v0.038c0.506,0.152,0.865,0.463,1.074,0.931c0.209,0.469,0.313,1.096,0.313,1.881v2.337
		c0,0.381,0.012,0.688,0.038,0.922s0.089,0.465,0.19,0.693h-2.128c-0.076-0.215-0.126-0.418-0.152-0.607
		c-0.025-0.19-0.038-0.533-0.038-1.026v-2.433c0-0.607-0.098-1.031-0.294-1.272s-0.535-0.361-1.017-0.361h-0.722v5.7h-2.09V14.294z
		 M85.841,19.994c0.418,0,0.731-0.107,0.94-0.323s0.313-0.576,0.313-1.083v-1.026c0-0.481-0.085-0.829-0.256-1.045
		c-0.171-0.215-0.44-0.323-0.808-0.323h-0.95v3.801H85.841z"/>
	<path fill="#FFFFFF" d="M92.245,16.193H90.06v-1.899h6.46v1.899h-2.185v11.4h-2.09V16.193z"/>
	<path fill="#FFFFFF" d="M35.406,45.709c-0.544-0.582-0.817-1.405-0.817-2.469v-6.992c0-1.064,0.272-1.888,0.817-2.471
		c0.544-0.582,1.33-0.874,2.356-0.874c1.026,0,1.812,0.292,2.356,0.874c0.545,0.583,0.817,1.406,0.817,2.471v6.992
		c0,1.063-0.272,1.887-0.817,2.469c-0.544,0.584-1.33,0.875-2.356,0.875C36.736,46.584,35.951,46.293,35.406,45.709z M38.845,43.373
		v-7.258c0-0.875-0.361-1.312-1.083-1.312c-0.722,0-1.083,0.437-1.083,1.312v7.258c0,0.873,0.361,1.311,1.083,1.311
		C38.484,44.684,38.845,44.246,38.845,43.373z"/>
	<path fill="#FFFFFF" d="M42.341,33.094h3.097c1.077,0,1.862,0.25,2.356,0.75c0.494,0.501,0.741,1.271,0.741,2.309v0.817
		c0,1.38-0.456,2.255-1.368,2.622v0.037c0.506,0.152,0.865,0.463,1.074,0.932s0.313,1.096,0.313,1.881v2.337
		c0,0.38,0.012,0.688,0.038,0.922s0.089,0.466,0.19,0.693h-2.128c-0.076-0.216-0.126-0.418-0.152-0.608
		c-0.025-0.189-0.038-0.531-0.038-1.025v-2.432c0-0.608-0.098-1.033-0.294-1.273s-0.535-0.361-1.017-0.361h-0.722v5.7h-2.09V33.094z
		 M45.191,38.793c0.418,0,0.731-0.107,0.94-0.322s0.313-0.576,0.313-1.083v-1.026c0-0.48-0.085-0.829-0.256-1.045
		c-0.171-0.215-0.44-0.322-0.808-0.322h-0.95v3.799H45.191z"/>
	<path fill="#FFFFFF" d="M50.645,45.719c-0.532-0.576-0.798-1.402-0.798-2.479v-6.992c0-1.077,0.266-1.903,0.798-2.48
		c0.532-0.576,1.305-0.864,2.318-0.864c1.013,0,1.786,0.288,2.318,0.864c0.532,0.577,0.798,1.403,0.798,2.48v1.14h-1.976v-1.272
		c0-0.875-0.361-1.312-1.083-1.312c-0.722,0-1.083,0.437-1.083,1.312v7.276c0,0.861,0.361,1.292,1.083,1.292
		c0.722,0,1.083-0.431,1.083-1.292v-2.603h-1.045v-1.9h3.021v4.352c0,1.076-0.266,1.902-0.798,2.479
		c-0.532,0.576-1.305,0.865-2.318,0.865C51.949,46.584,51.177,46.295,50.645,45.719z"/>
	<path fill="#FFFFFF" d="M59.042,33.094h2.831l2.166,13.3h-2.09l-0.38-2.642v0.039h-2.375l-0.38,2.603h-1.938L59.042,33.094z
		 M61.322,41.985l-0.931-6.573h-0.038l-0.912,6.573H61.322z"/>
	<path fill="#FFFFFF" d="M65.046,33.094h2.622l2.033,7.961h0.038v-7.961h1.862v13.3h-2.147l-2.508-9.709h-0.038v9.709h-1.862V33.094
		z"/>
	<path fill="#FFFFFF" d="M73.159,33.094h2.09v13.3h-2.09V33.094z"/>
	<path fill="#FFFFFF" d="M76.389,44.531l3.876-9.537h-3.686v-1.9h5.928v1.861l-3.876,9.539h3.876v1.899h-6.118V44.531z"/>
	<path fill="#FFFFFF" d="M85.3,33.094h2.831l2.166,13.3h-2.09l-0.38-2.642v0.039h-2.375l-0.38,2.603h-1.938L85.3,33.094z
		 M87.58,41.985l-0.931-6.573h-0.038l-0.912,6.573H87.58z"/>
	<path fill="#FFFFFF" d="M92.063,34.994h-2.185v-1.9h6.46v1.9h-2.185v11.399h-2.09V34.994z"/>
	<path fill="#FFFFFF" d="M97.345,33.094h2.09v13.3h-2.09V33.094z"/>
	<path fill="#FFFFFF" d="M101.658,45.709c-0.544-0.582-0.817-1.405-0.817-2.469v-6.992c0-1.064,0.272-1.888,0.817-2.471
		c0.544-0.582,1.33-0.874,2.356-0.874c1.026,0,1.812,0.292,2.356,0.874c0.545,0.583,0.817,1.406,0.817,2.471v6.992
		c0,1.063-0.272,1.887-0.817,2.469c-0.544,0.584-1.33,0.875-2.356,0.875C102.988,46.584,102.203,46.293,101.658,45.709z
		 M105.097,43.373v-7.258c0-0.875-0.361-1.312-1.083-1.312c-0.722,0-1.083,0.437-1.083,1.312v7.258c0,0.873,0.361,1.311,1.083,1.311
		C104.736,44.684,105.097,44.246,105.097,43.373z"/>
	<path fill="#FFFFFF" d="M108.593,33.094h2.622l2.033,7.961h0.038v-7.961h1.862v13.3h-2.147l-2.508-9.709h-0.038v9.709h-1.862
		V33.094z"/>
	<path fill="#FFFFFF" d="M117.124,45.719c-0.52-0.576-0.779-1.402-0.779-2.479v-0.761h1.976v0.912c0,0.861,0.361,1.292,1.083,1.292
		c0.354,0,0.624-0.104,0.808-0.313c0.183-0.209,0.275-0.548,0.275-1.017c0-0.557-0.127-1.048-0.38-1.473
		c-0.254-0.424-0.722-0.934-1.406-1.529c-0.861-0.76-1.463-1.447-1.805-2.062c-0.342-0.614-0.513-1.308-0.513-2.081
		c0-1.051,0.266-1.864,0.798-2.441c0.532-0.576,1.305-0.864,2.318-0.864c1,0,1.758,0.288,2.271,0.864
		c0.513,0.577,0.77,1.403,0.77,2.48v0.551h-1.976v-0.684c0-0.457-0.089-0.789-0.266-0.998c-0.178-0.209-0.437-0.313-0.779-0.313
		c-0.697,0-1.045,0.425-1.045,1.272c0,0.482,0.13,0.932,0.39,1.35c0.259,0.418,0.731,0.924,1.416,1.52
		c0.874,0.76,1.476,1.451,1.805,2.071c0.33,0.62,0.494,1.349,0.494,2.185c0,1.09-0.269,1.926-0.808,2.508
		c-0.538,0.584-1.32,0.875-2.346,0.875C118.41,46.584,117.644,46.295,117.124,45.719z"/>
</g>
</svg>
