<?xml version="1.0" encoding="utf-8"?>
<!-- Generator: Adobe Illustrator 16.0.0, SVG Export Plug-In . SVG Version: 6.00 Build 0)  -->
<!DOCTYPE svg PUBLIC "-//W3C//DTD SVG 1.1//EN" "http://www.w3.org/Graphics/SVG/1.1/DTD/svg11.dtd">
<svg version="1.1" id="Layer_1" xmlns="http://www.w3.org/2000/svg" xmlns:xlink="http://www.w3.org/1999/xlink" x="0px" y="0px"
	 width="156px" height="179px" viewBox="0 0 156 179" enable-background="new 0 0 156 179" xml:space="preserve">
<rect x="1" y="1" fill-rule="evenodd" clip-rule="evenodd" fill="#FFFFFF" stroke="#627D53" stroke-width="2" stroke-miterlimit="10" width="154" height="177"/>
<g>
	<path fill-rule="evenodd" clip-rule="evenodd" fill="#627D53" d="M141.637,137.614c-1.44-2.188-4.638-2.962-8.538-3.027
		c-5.833-0.099-11.039-0.992-16.115-2.114c-5.545-1.224-11.537-1.658-18.196-0.812c-6.084,0.774-11.728,2.527-16.919,5.169
		c-3.019,1.539-5.899,3.19-8.875,4.767c-0.472,0.251-1.118,0.469-1.672,0.54c-7.053,0.903-13.272,3.089-18.739,6.585
		c-3.955,2.529-8.434,4.438-13.668,5.199c-8.622,1.255-15.757,4.35-21.827,8.778c-1.135,0.828-2.159,1.707-3.234,2.563
		c0.008,0.05,85.249-18.08,127.86-27.194C141.688,137.917,141.662,137.765,141.637,137.614z"/>
	<path fill-rule="evenodd" clip-rule="evenodd" fill="#627D53" d="M25.463,162.449c24.485-4.71,48.97-9.421,73.455-14.132
		c-0.192,0.09-0.375,0.224-0.578,0.262c-4.516,0.879-9.034,1.746-13.553,2.615c-19.539,3.759-39.076,7.518-58.615,11.269
		C25.945,162.507,25.699,162.456,25.463,162.449z"/>
	<g>
		<path fill-rule="evenodd" clip-rule="evenodd" fill="#627D53" d="M24.689,117.72c0.219,0.008,0.438,0.006,0.656,0.025
			c1.459,0.122,2.584,1.256,2.714,2.729c0.124,1.409-0.806,2.727-2.182,3.093c-1.394,0.371-2.864-0.291-3.45-1.555
			c-0.632-1.364-0.244-2.88,0.952-3.731c0.121-0.086,0.237-0.18,0.355-0.271C24.053,117.914,24.371,117.816,24.689,117.72z"/>
		<path fill-rule="evenodd" clip-rule="evenodd" fill="#627D53" d="M34.629,126.31c0.055-0.003,0.069,0,0.083-0.004
			c0.359-0.083,0.776-0.316,1.061-0.206c0.293,0.112,0.459,0.559,0.676,0.862c1.268,1.782,2.534,3.564,3.802,5.345
			c0.071,0.102,0.146,0.198,0.239,0.321c2.065-1.187,4.224-1.451,6.468-0.615c1.733,0.646,3.039,1.807,3.905,3.438
			c1.708,3.221,0.725,7.261-2.26,9.366c-3.04,2.146-7.149,1.684-9.665-1.079c-2.482-2.726-2.689-7.299,0.542-10.361
			c-0.257-0.362-0.518-0.731-0.8-1.129c-0.079,0.125-0.139,0.213-0.191,0.306c-1.577,2.883-3.156,5.767-4.723,8.654
			c-0.088,0.16-0.13,0.397-0.086,0.57c0.211,0.848-0.036,1.647-0.692,2.109c-0.676,0.477-1.49,0.462-2.213-0.036
			c-0.066-0.046-0.133-0.091-0.193-0.132c0.3,4.848-1.647,8.062-6.638,8.803c-3.124,0.464-6.174-1.523-7.401-4.471
			c-1.218-2.927-0.356-6.357,2.094-8.408c2.401-2.011,6.213-2.457,9.332-0.054c0.185-0.189,0.384-0.377,0.559-0.585
			c0.059-0.069,0.056-0.192,0.076-0.291c0.004-0.023-0.024-0.051-0.028-0.077c-0.159-1.054-0.739-1.521-1.833-1.629
			c-1.387-0.137-2.754-0.48-4.128-0.735c-1.579-0.295-2.456-1.532-2.187-3.12c0.36-2.129,0.784-4.25,1.097-6.386
			c0.267-1.818,1.959-2.831,3.804-2.042c1.019,0.437,2.03,0.896,3.027,1.38c0.412,0.2,0.794,0.23,1.235,0.131
			c1.041-0.233,2.096-0.402,3.133-0.648C33.541,125.394,34.17,125.591,34.629,126.31z M40.602,134.95
			c-2.086,1.875-2.226,5.314-0.354,7.465c1.959,2.251,5.354,2.525,7.629,0.616c2.273-1.909,2.615-5.282,0.767-7.581
			c-2.018-2.511-5.338-2.452-7.042-1.25c0.093,0.136,0.185,0.271,0.28,0.406c0.811,1.139,1.625,2.276,2.431,3.418
			c0.262,0.371,0.224,0.748-0.075,0.958c-0.307,0.213-0.642,0.144-0.903-0.198c-0.185-0.242-0.356-0.494-0.533-0.742
			C42.074,137.02,41.346,135.994,40.602,134.95z M26.63,140.966c-1.88-1.615-4.953-1.516-6.917,0.2
			c-2.018,1.761-2.448,4.801-0.998,7.031c1.5,2.302,4.415,3.163,6.875,2.03c2.256-1.04,3.694-3.819,3.048-5.944
			c-1.099,0.335-2.196,0.675-3.299,1.002c-0.243,0.07-0.388,0.164-0.459,0.44c-0.164,0.631-0.607,1.024-1.244,1.147
			c-0.705,0.133-1.285-0.108-1.694-0.708c-0.37-0.543-0.376-1.262-0.004-1.801c0.409-0.594,0.98-0.826,1.696-0.721
			c0.135,0.02,0.333,0.035,0.41-0.04C24.917,142.735,25.771,141.849,26.63,140.966z M36.818,129.633
			c-0.44-0.619-0.888-1.197-1.276-1.814c-0.207-0.328-0.42-0.4-0.74-0.231c-0.118,0.063-0.216,0.159-0.329,0.229
			c-0.333,0.205-0.647,0.502-1.011,0.586c-1.361,0.322-2.74,0.57-4.11,0.854c-0.491,0.103-0.954,0.086-1.415-0.146
			c-0.525-0.263-1.07-0.487-1.641-0.744c-0.274,1.57-0.54,3.094-0.811,4.646c0.178,0.037,0.326,0.069,0.473,0.097
			c1.375,0.257,2.751,0.506,4.125,0.772c0.305,0.06,0.598,0.18,0.964,0.293C32.914,132.704,34.847,131.184,36.818,129.633z
			 M37.534,130.698c-0.036,0.011-0.068,0.012-0.087,0.028c-1.958,1.535-3.917,3.069-5.864,4.618
			c-0.086,0.069-0.119,0.293-0.08,0.415c0.205,0.631,0.437,1.255,0.664,1.88c0.271,0.744,0.548,1.486,0.85,2.304
			c0.109-0.187,0.174-0.288,0.232-0.396c1.476-2.696,2.943-5.398,4.434-8.086C37.876,131.113,37.805,130.908,37.534,130.698z
			 M27.565,141.786c-0.707,0.729-1.345,1.384-2.049,2.109c0.996-0.304,1.883-0.573,2.819-0.859
			C28.07,142.607,27.833,142.222,27.565,141.786z M29.147,140.204c-0.303,0.286-0.16,0.633,0.352,0.989
			C29.383,140.865,29.273,140.56,29.147,140.204z"/>
		<path fill-rule="evenodd" clip-rule="evenodd" fill="#627D53" d="M27.565,141.786c0.269,0.436,0.505,0.821,0.77,1.25
			c-0.936,0.286-1.823,0.556-2.819,0.859C26.22,143.17,26.858,142.515,27.565,141.786z"/>
		<path fill-rule="evenodd" clip-rule="evenodd" fill="#627D53" d="M29.147,140.204c0.126,0.355,0.236,0.661,0.352,0.989
			C28.987,140.837,28.844,140.49,29.147,140.204z"/>
	</g>
	<g>
		<path fill-rule="evenodd" clip-rule="evenodd" fill="#627D53" d="M68.371,102.373c0.219,0.008,0.438,0.006,0.656,0.025
			c1.459,0.122,2.584,1.256,2.714,2.73c0.124,1.409-0.806,2.727-2.182,3.093c-1.394,0.371-2.864-0.291-3.45-1.555
			c-0.632-1.364-0.244-2.881,0.952-3.732c0.121-0.086,0.237-0.18,0.355-0.271C67.734,102.567,68.052,102.47,68.371,102.373z"/>
		<path fill-rule="evenodd" clip-rule="evenodd" fill="#627D53" d="M78.311,110.964c0.055-0.003,0.069,0,0.083-0.004
			c0.359-0.083,0.776-0.316,1.061-0.206c0.293,0.112,0.459,0.559,0.676,0.862c1.268,1.782,2.534,3.564,3.802,5.345
			c0.071,0.102,0.146,0.198,0.239,0.321c2.065-1.187,4.224-1.451,6.468-0.615c1.733,0.646,3.039,1.807,3.905,3.438
			c1.708,3.221,0.725,7.261-2.26,9.366c-3.04,2.146-7.149,1.684-9.665-1.079c-2.482-2.726-2.689-7.299,0.542-10.36
			c-0.257-0.362-0.518-0.731-0.8-1.129c-0.079,0.125-0.139,0.213-0.191,0.306c-1.577,2.882-3.156,5.766-4.723,8.653
			c-0.088,0.16-0.13,0.397-0.086,0.57c0.211,0.848-0.036,1.647-0.692,2.109c-0.676,0.477-1.49,0.462-2.213-0.036
			c-0.066-0.046-0.133-0.091-0.193-0.132c0.3,4.848-1.647,8.062-6.638,8.803c-3.124,0.464-6.174-1.523-7.401-4.471
			c-1.218-2.927-0.356-6.357,2.094-8.408c2.401-2.011,6.213-2.457,9.332-0.054c0.185-0.189,0.384-0.377,0.559-0.585
			c0.059-0.069,0.056-0.192,0.076-0.291c0.004-0.023-0.024-0.051-0.028-0.077c-0.159-1.054-0.739-1.521-1.833-1.629
			c-1.387-0.137-2.754-0.48-4.128-0.735c-1.579-0.295-2.456-1.531-2.187-3.119c0.36-2.129,0.784-4.25,1.097-6.386
			c0.267-1.818,1.959-2.831,3.804-2.042c1.019,0.437,2.03,0.896,3.027,1.38c0.412,0.2,0.794,0.23,1.235,0.131
			c1.041-0.233,2.096-0.402,3.133-0.648C77.222,110.048,77.852,110.245,78.311,110.964z M84.283,119.604
			c-2.086,1.875-2.226,5.314-0.354,7.465c1.959,2.251,5.354,2.525,7.629,0.616c2.273-1.909,2.615-5.282,0.767-7.581
			c-2.018-2.51-5.338-2.451-7.042-1.249c0.093,0.136,0.185,0.271,0.28,0.406c0.811,1.138,1.625,2.275,2.431,3.417
			c0.262,0.371,0.224,0.748-0.075,0.958c-0.307,0.213-0.642,0.144-0.903-0.198c-0.185-0.242-0.356-0.494-0.533-0.742
			C85.755,121.673,85.027,120.647,84.283,119.604z M70.312,125.619c-1.88-1.615-4.953-1.516-6.917,0.2
			c-2.018,1.761-2.448,4.801-0.998,7.031c1.5,2.302,4.415,3.163,6.875,2.03c2.256-1.04,3.694-3.819,3.048-5.944
			c-1.099,0.335-2.196,0.675-3.299,1.002c-0.243,0.07-0.388,0.164-0.459,0.44c-0.164,0.631-0.607,1.024-1.244,1.147
			c-0.705,0.133-1.285-0.108-1.694-0.708c-0.37-0.543-0.376-1.262-0.004-1.801c0.409-0.594,0.98-0.826,1.696-0.721
			c0.135,0.02,0.333,0.035,0.41-0.04C68.598,127.389,69.452,126.502,70.312,125.619z M80.499,114.287
			c-0.44-0.619-0.888-1.197-1.276-1.814c-0.207-0.328-0.42-0.4-0.74-0.231c-0.118,0.063-0.216,0.159-0.329,0.229
			c-0.333,0.205-0.647,0.502-1.011,0.586c-1.361,0.322-2.74,0.57-4.11,0.854c-0.491,0.103-0.954,0.086-1.415-0.146
			c-0.525-0.263-1.07-0.487-1.641-0.744c-0.274,1.57-0.54,3.094-0.811,4.646c0.178,0.037,0.326,0.069,0.473,0.097
			c1.375,0.257,2.751,0.506,4.125,0.772c0.305,0.06,0.598,0.18,0.964,0.293C76.595,117.358,78.528,115.838,80.499,114.287z
			 M81.215,115.353c-0.036,0.011-0.068,0.012-0.087,0.028c-1.958,1.535-3.917,3.069-5.864,4.617
			c-0.086,0.069-0.119,0.293-0.08,0.415c0.205,0.631,0.437,1.255,0.664,1.88c0.271,0.744,0.548,1.486,0.85,2.304
			c0.109-0.187,0.174-0.288,0.232-0.396c1.476-2.696,2.943-5.397,4.434-8.085C81.557,115.768,81.486,115.563,81.215,115.353z
			 M71.246,126.439c-0.707,0.729-1.345,1.384-2.049,2.109c0.996-0.304,1.883-0.573,2.819-0.859
			C71.751,127.261,71.515,126.875,71.246,126.439z M72.828,124.857c-0.303,0.286-0.16,0.633,0.352,0.989
			C73.064,125.519,72.955,125.213,72.828,124.857z"/>
		<path fill-rule="evenodd" clip-rule="evenodd" fill="#627D53" d="M71.246,126.439c0.269,0.436,0.505,0.821,0.77,1.25
			c-0.936,0.286-1.823,0.556-2.819,0.859C69.901,127.823,70.54,127.168,71.246,126.439z"/>
		<path fill-rule="evenodd" clip-rule="evenodd" fill="#627D53" d="M72.828,124.857c0.126,0.355,0.236,0.661,0.352,0.989
			C72.668,125.49,72.525,125.144,72.828,124.857z"/>
	</g>
	<g>
		<path fill-rule="evenodd" clip-rule="evenodd" fill="#627D53" d="M124.412,94.514c0.189,0.111,0.383,0.215,0.565,0.336
			c1.224,0.803,1.672,2.335,1.083,3.693c-0.563,1.298-2.008,2.013-3.392,1.679c-1.402-0.338-2.379-1.621-2.292-3.012
			c0.095-1.5,1.159-2.648,2.616-2.827c0.147-0.018,0.294-0.045,0.441-0.069C123.76,94.382,124.086,94.447,124.412,94.514z"/>
		<path fill-rule="evenodd" clip-rule="evenodd" fill="#627D53" d="M129.054,106.805c0.049,0.023,0.061,0.033,0.074,0.036
			c0.355,0.098,0.833,0.092,1.031,0.324c0.204,0.238,0.138,0.71,0.183,1.08c0.265,2.171,0.528,4.342,0.794,6.512
			c0.014,0.123,0.034,0.244,0.057,0.396c2.381-0.058,4.405,0.738,5.979,2.543c1.216,1.394,1.81,3.036,1.793,4.884
			c-0.034,3.645-2.824,6.728-6.452,7.155c-3.695,0.438-7.087-1.928-7.981-5.556c-0.882-3.579,1.116-7.697,5.416-8.85
			c-0.053-0.44-0.106-0.89-0.165-1.373c-0.129,0.072-0.224,0.121-0.314,0.178c-2.761,1.782-5.523,3.564-8.277,5.354
			c-0.154,0.1-0.304,0.287-0.348,0.461c-0.218,0.846-0.817,1.431-1.614,1.523c-0.822,0.097-1.53-0.304-1.928-1.087
			c-0.037-0.072-0.074-0.144-0.107-0.208c-2.047,4.404-5.292,6.302-10.032,4.573c-2.967-1.081-4.701-4.282-4.375-7.457
			c0.325-3.153,2.718-5.759,5.849-6.393c3.07-0.623,6.633,0.802,8.229,4.401c0.253-0.079,0.517-0.148,0.77-0.248
			c0.085-0.033,0.141-0.143,0.206-0.22c0.015-0.019,0.003-0.056,0.012-0.081c0.363-1.002,0.076-1.69-0.834-2.306
			c-1.154-0.781-2.192-1.735-3.279-2.615c-1.247-1.012-1.428-2.517-0.435-3.785c1.332-1.699,2.715-3.362,4.009-5.09
			c1.101-1.472,3.072-1.555,4.317,0.019c0.688,0.869,1.357,1.755,2.003,2.656c0.267,0.372,0.588,0.581,1.023,0.704
			c1.026,0.29,2.034,0.646,3.063,0.924C128.534,105.48,128.993,105.954,129.054,106.805z M130.184,117.247
			c-2.728,0.654-4.49,3.609-3.869,6.393c0.649,2.913,3.502,4.772,6.413,4.179c2.908-0.595,4.817-3.396,4.289-6.298
			c-0.577-3.168-3.523-4.7-5.594-4.455c0.017,0.164,0.033,0.327,0.052,0.49c0.17,1.388,0.343,2.774,0.508,4.163
			c0.053,0.451-0.16,0.764-0.523,0.807c-0.371,0.04-0.633-0.181-0.699-0.605c-0.047-0.301-0.078-0.604-0.115-0.906
			C130.492,119.768,130.341,118.52,130.184,117.247z M115.035,115.874c-0.883-2.315-3.631-3.693-6.175-3.121
			c-2.613,0.586-4.441,3.053-4.229,5.705c0.221,2.737,2.373,4.885,5.076,5.062c2.479,0.161,5.068-1.596,5.513-3.771
			c-1.125-0.229-2.252-0.453-3.377-0.691c-0.247-0.054-0.419-0.041-0.613,0.168c-0.445,0.476-1.022,0.61-1.641,0.415
			c-0.684-0.22-1.078-0.707-1.152-1.429c-0.066-0.653,0.271-1.289,0.855-1.585c0.642-0.327,1.255-0.26,1.834,0.175
			c0.11,0.081,0.276,0.189,0.38,0.16C112.685,116.613,113.858,116.24,115.035,115.874z M129.393,110.769
			c-0.091-0.754-0.209-1.475-0.256-2.203c-0.026-0.387-0.179-0.552-0.54-0.556c-0.133-0.001-0.266,0.037-0.398,0.044
			c-0.391,0.021-0.808,0.133-1.168,0.033c-1.35-0.366-2.681-0.806-4.02-1.21c-0.48-0.144-0.879-0.379-1.175-0.802
			c-0.336-0.481-0.708-0.939-1.087-1.437c-0.99,1.249-1.949,2.462-2.927,3.697c0.139,0.117,0.253,0.216,0.37,0.311
			c1.086,0.881,2.177,1.756,3.258,2.646c0.239,0.197,0.439,0.442,0.708,0.717C124.497,111.607,126.921,111.192,129.393,110.769z
			 M129.515,112.047c-0.037-0.007-0.065-0.021-0.09-0.017c-2.453,0.416-4.906,0.831-7.356,1.265c-0.108,0.02-0.244,0.2-0.268,0.326
			c-0.121,0.652-0.215,1.312-0.313,1.97c-0.116,0.783-0.227,1.567-0.352,2.43c0.185-0.111,0.29-0.17,0.393-0.237
			c2.583-1.666,5.161-3.342,7.752-4.994C129.618,112.575,129.653,112.361,129.515,112.047z M115.465,117.041
			c-0.968,0.304-1.842,0.575-2.807,0.877c1.021,0.208,1.929,0.395,2.888,0.589C115.518,118.004,115.494,117.552,115.465,117.041z
			 M117.61,116.404c-0.403,0.107-0.442,0.48-0.162,1.038C117.502,117.099,117.552,116.777,117.61,116.404z"/>
		<path fill-rule="evenodd" clip-rule="evenodd" fill="#627D53" d="M115.465,117.041c0.028,0.511,0.052,0.963,0.081,1.466
			c-0.959-0.194-1.868-0.381-2.888-0.589C113.624,117.616,114.497,117.345,115.465,117.041z"/>
		<path fill-rule="evenodd" clip-rule="evenodd" fill="#627D53" d="M117.61,116.404c-0.058,0.373-0.108,0.694-0.162,1.038
			C117.168,116.885,117.208,116.512,117.61,116.404z"/>
	</g>
	<path fill-rule="evenodd" clip-rule="evenodd" fill="#627D53" d="M14.304,165.191L8.5,168H147v-30.086c0,0-1.897-0.785-4.836-0.157
		S29.101,157.09,14.304,165.191z"/>
</g>
<rect x="2" y="1" fill-rule="evenodd" clip-rule="evenodd" fill="#627D53" width="154" height="56"/>
<g>
	<path fill="#FFFFFF" d="M42.304,36.822c-0.52-0.576-0.779-1.402-0.779-2.479v-0.761h1.976v0.912c0,0.861,0.361,1.292,1.083,1.292
		c0.354,0,0.624-0.104,0.808-0.313c0.183-0.209,0.275-0.548,0.275-1.017c0-0.557-0.127-1.048-0.38-1.473
		c-0.254-0.424-0.722-0.934-1.406-1.529c-0.861-0.76-1.463-1.447-1.805-2.062c-0.342-0.614-0.513-1.308-0.513-2.081
		c0-1.051,0.266-1.864,0.798-2.441c0.532-0.576,1.305-0.864,2.318-0.864c1,0,1.758,0.288,2.271,0.864
		c0.513,0.577,0.77,1.403,0.77,2.48v0.551h-1.976v-0.684c0-0.457-0.089-0.789-0.266-0.998c-0.178-0.209-0.437-0.313-0.779-0.313
		c-0.697,0-1.045,0.425-1.045,1.272c0,0.482,0.13,0.932,0.39,1.35c0.259,0.418,0.731,0.924,1.416,1.52
		c0.874,0.76,1.476,1.451,1.805,2.071c0.33,0.62,0.494,1.349,0.494,2.185c0,1.09-0.269,1.926-0.808,2.508
		c-0.538,0.584-1.32,0.875-2.346,0.875C43.59,37.688,42.824,37.398,42.304,36.822z"/>
	<path fill="#FFFFFF" d="M48.954,24.197h3.078c1.039,0,1.817,0.279,2.337,0.836c0.52,0.558,0.779,1.375,0.779,2.451v1.311
		c0,1.077-0.26,1.895-0.779,2.451c-0.52,0.558-1.298,0.836-2.337,0.836h-0.988v5.415h-2.09V24.197z M52.032,30.182
		c0.342,0,0.599-0.095,0.77-0.285c0.171-0.189,0.256-0.512,0.256-0.969v-1.576c0-0.457-0.085-0.779-0.256-0.97
		s-0.427-0.284-0.77-0.284h-0.988v4.084H52.032z"/>
	<path fill="#FFFFFF" d="M56.953,36.813c-0.544-0.582-0.817-1.405-0.817-2.469v-6.992c0-1.064,0.272-1.888,0.817-2.471
		c0.544-0.582,1.33-0.874,2.356-0.874c1.026,0,1.812,0.292,2.356,0.874c0.545,0.583,0.817,1.406,0.817,2.471v6.992
		c0,1.063-0.272,1.887-0.817,2.469c-0.544,0.584-1.33,0.875-2.356,0.875C58.283,37.688,57.497,37.396,56.953,36.813z M60.392,34.477
		v-7.258c0-0.875-0.361-1.312-1.083-1.312c-0.722,0-1.083,0.437-1.083,1.312v7.258c0,0.873,0.361,1.311,1.083,1.311
		C60.031,35.787,60.392,35.35,60.392,34.477z"/>
	<path fill="#FFFFFF" d="M63.888,24.197h3.097c1.077,0,1.862,0.25,2.356,0.75c0.494,0.501,0.741,1.271,0.741,2.309v0.817
		c0,1.38-0.456,2.255-1.368,2.622v0.037c0.506,0.152,0.865,0.463,1.074,0.932s0.313,1.096,0.313,1.881v2.337
		c0,0.38,0.012,0.688,0.038,0.922s0.089,0.466,0.19,0.693h-2.128c-0.076-0.216-0.126-0.418-0.152-0.608
		c-0.025-0.189-0.038-0.531-0.038-1.025v-2.432c0-0.608-0.098-1.033-0.294-1.273s-0.535-0.361-1.017-0.361h-0.722v5.7h-2.09V24.197z
		 M66.738,29.896c0.418,0,0.731-0.107,0.94-0.322s0.313-0.576,0.313-1.083v-1.026c0-0.48-0.085-0.829-0.256-1.045
		c-0.171-0.215-0.44-0.322-0.808-0.322h-0.95v3.799H66.738z"/>
	<path fill="#FFFFFF" d="M73.141,26.098h-2.185v-1.9h6.46v1.9h-2.185v11.399h-2.09V26.098z"/>
	<path fill="#FFFFFF" d="M83.097,26.098h-2.185v-1.9h6.46v1.9h-2.185v11.399h-2.09V26.098z"/>
	<path fill="#FFFFFF" d="M88.968,36.813c-0.544-0.582-0.817-1.405-0.817-2.469v-6.992c0-1.064,0.272-1.888,0.817-2.471
		c0.544-0.582,1.33-0.874,2.356-0.874c1.026,0,1.812,0.292,2.356,0.874c0.545,0.583,0.817,1.406,0.817,2.471v6.992
		c0,1.063-0.272,1.887-0.817,2.469c-0.544,0.584-1.33,0.875-2.356,0.875C90.298,37.688,89.512,37.396,88.968,36.813z M92.407,34.477
		v-7.258c0-0.875-0.361-1.312-1.083-1.312c-0.722,0-1.083,0.437-1.083,1.312v7.258c0,0.873,0.361,1.311,1.083,1.311
		C92.046,35.787,92.407,35.35,92.407,34.477z"/>
	<path fill="#FFFFFF" d="M96.625,36.822c-0.532-0.576-0.798-1.402-0.798-2.479V24.197h2.09v10.298c0,0.456,0.092,0.786,0.275,0.987
		c0.184,0.203,0.447,0.305,0.789,0.305c0.342,0,0.605-0.102,0.789-0.305c0.184-0.201,0.275-0.531,0.275-0.987V24.197h2.014v10.146
		c0,1.076-0.266,1.902-0.798,2.479c-0.532,0.576-1.305,0.865-2.318,0.865S97.157,37.398,96.625,36.822z"/>
	<path fill="#FFFFFF" d="M103.541,24.197h3.097c1.077,0,1.862,0.25,2.356,0.75c0.494,0.501,0.741,1.271,0.741,2.309v0.817
		c0,1.38-0.456,2.255-1.368,2.622v0.037c0.506,0.152,0.865,0.463,1.074,0.932s0.313,1.096,0.313,1.881v2.337
		c0,0.38,0.012,0.688,0.038,0.922s0.089,0.466,0.19,0.693h-2.128c-0.076-0.216-0.126-0.418-0.152-0.608
		c-0.025-0.189-0.038-0.531-0.038-1.025v-2.432c0-0.608-0.098-1.033-0.294-1.273s-0.535-0.361-1.017-0.361h-0.722v5.7h-2.09V24.197z
		 M106.391,29.896c0.418,0,0.731-0.107,0.94-0.322s0.313-0.576,0.313-1.083v-1.026c0-0.48-0.085-0.829-0.256-1.045
		c-0.171-0.215-0.44-0.322-0.808-0.322h-0.95v3.799H106.391z"/>
	<path fill="#FFFFFF" d="M111.616,36.822c-0.52-0.576-0.779-1.402-0.779-2.479v-0.761h1.976v0.912c0,0.861,0.361,1.292,1.083,1.292
		c0.354,0,0.624-0.104,0.808-0.313c0.183-0.209,0.275-0.548,0.275-1.017c0-0.557-0.127-1.048-0.38-1.473
		c-0.254-0.424-0.722-0.934-1.406-1.529c-0.861-0.76-1.463-1.447-1.805-2.062c-0.342-0.614-0.513-1.308-0.513-2.081
		c0-1.051,0.266-1.864,0.798-2.441c0.532-0.576,1.305-0.864,2.318-0.864c1,0,1.758,0.288,2.271,0.864
		c0.513,0.577,0.77,1.403,0.77,2.48v0.551h-1.976v-0.684c0-0.457-0.089-0.789-0.266-0.998c-0.178-0.209-0.437-0.313-0.779-0.313
		c-0.697,0-1.045,0.425-1.045,1.272c0,0.482,0.13,0.932,0.39,1.35c0.259,0.418,0.731,0.924,1.416,1.52
		c0.874,0.76,1.476,1.451,1.805,2.071c0.33,0.62,0.494,1.349,0.494,2.185c0,1.09-0.269,1.926-0.808,2.508
		c-0.538,0.584-1.32,0.875-2.346,0.875C112.901,37.688,112.135,37.398,111.616,36.822z"/>
</g>
</svg>
