<?xml version="1.0" encoding="utf-8"?>
<!-- Generator: Adobe Illustrator 16.0.0, SVG Export Plug-In . SVG Version: 6.00 Build 0)  -->
<!DOCTYPE svg PUBLIC "-//W3C//DTD SVG 1.1//EN" "http://www.w3.org/Graphics/SVG/1.1/DTD/svg11.dtd">
<svg version="1.1" id="Layer_1" xmlns="http://www.w3.org/2000/svg" xmlns:xlink="http://www.w3.org/1999/xlink" x="0px" y="0px"
	 width="157px" height="179px" viewBox="0 0 157 179" enable-background="new 0 0 157 179" xml:space="preserve">
<rect x="1" y="1" fill-rule="evenodd" clip-rule="evenodd" fill="#FFFFFF" stroke="#627D53" stroke-width="2" stroke-miterlimit="10" width="155" height="177"/>
<rect x="2" y="1" fill-rule="evenodd" clip-rule="evenodd" fill="#627D53" width="155" height="56"/>
<g>
	<path fill="#FFFFFF" d="M34.039,15.35h2.346l1.819,7.123h0.034V15.35h1.666v11.9h-1.921l-2.244-8.688h-0.034v8.688h-1.666V15.35z"
		/>
	<path fill="#FFFFFF" d="M41.893,26.639c-0.487-0.521-0.731-1.259-0.731-2.211v-6.256c0-0.951,0.244-1.688,0.731-2.21
		c0.487-0.521,1.19-0.782,2.108-0.782s1.621,0.262,2.108,0.782c0.487,0.521,0.731,1.259,0.731,2.21v6.256
		c0,0.952-0.244,1.689-0.731,2.211c-0.487,0.521-1.19,0.781-2.108,0.781S42.38,27.159,41.893,26.639z M44.97,24.547v-6.494
		c0-0.781-0.323-1.173-0.969-1.173s-0.969,0.392-0.969,1.173v6.494c0,0.782,0.323,1.174,0.969,1.174S44.97,25.329,44.97,24.547z"/>
	<path fill="#FFFFFF" d="M48.098,15.35h2.346l1.819,7.123h0.034V15.35h1.666v11.9h-1.921l-2.244-8.688h-0.034v8.688h-1.666V15.35z"
		/>
	<path fill="#FFFFFF" d="M55.084,20.45h3.74v1.7h-3.74V20.45z"/>
	<path fill="#FFFFFF" d="M59.946,15.35h2.754c0.929,0,1.626,0.25,2.091,0.748c0.464,0.499,0.697,1.23,0.697,2.193v1.173
		c0,0.964-0.232,1.694-0.697,2.193c-0.465,0.499-1.162,0.747-2.091,0.747h-0.884v4.846h-1.87V15.35z M62.701,20.705
		c0.306,0,0.535-0.085,0.688-0.255c0.153-0.171,0.229-0.459,0.229-0.867v-1.411c0-0.408-0.077-0.697-0.229-0.867
		c-0.153-0.17-0.383-0.255-0.688-0.255h-0.884v3.655H62.701z"/>
	<path fill="#FFFFFF" d="M66.508,15.35h2.771c0.963,0,1.666,0.225,2.108,0.672c0.442,0.447,0.663,1.137,0.663,2.065v0.731
		c0,1.234-0.408,2.018-1.224,2.346v0.034c0.453,0.136,0.773,0.413,0.96,0.833c0.187,0.419,0.28,0.98,0.28,1.683v2.091
		c0,0.34,0.011,0.615,0.034,0.824c0.022,0.211,0.079,0.417,0.17,0.621h-1.904c-0.068-0.192-0.114-0.374-0.136-0.544
		c-0.023-0.17-0.034-0.476-0.034-0.918v-2.177c0-0.543-0.088-0.923-0.264-1.139c-0.176-0.215-0.479-0.322-0.91-0.322h-0.646v5.1
		h-1.87V15.35z M69.059,20.45c0.374,0,0.654-0.097,0.841-0.289s0.281-0.516,0.281-0.97v-0.918c0-0.43-0.077-0.742-0.229-0.935
		c-0.153-0.192-0.394-0.289-0.723-0.289h-0.85v3.4H69.059z"/>
	<path fill="#FFFFFF" d="M73.955,26.639c-0.487-0.521-0.731-1.259-0.731-2.211v-6.256c0-0.951,0.244-1.688,0.731-2.21
		c0.487-0.521,1.19-0.782,2.108-0.782s1.621,0.262,2.108,0.782c0.487,0.521,0.731,1.259,0.731,2.21v6.256
		c0,0.952-0.244,1.689-0.731,2.211c-0.487,0.521-1.19,0.781-2.108,0.781S74.442,27.159,73.955,26.639z M77.032,24.547v-6.494
		c0-0.781-0.323-1.173-0.969-1.173s-0.969,0.392-0.969,1.173v6.494c0,0.782,0.323,1.174,0.969,1.174S77.032,25.329,77.032,24.547z"
		/>
	<path fill="#FFFFFF" d="M80.159,15.35h4.947v1.7h-3.077v3.315h2.414v1.699h-2.414v5.186h-1.87V15.35z"/>
	<path fill="#FFFFFF" d="M86.007,15.35h1.87v11.9h-1.87V15.35z"/>
	<path fill="#FFFFFF" d="M90.733,17.05h-1.955v-1.7h5.78v1.7h-1.955v10.2h-1.87V17.05z"/>
	<path fill="#FFFFFF" d="M98.774,26.639c-0.487-0.521-0.731-1.259-0.731-2.211v-6.256c0-0.951,0.244-1.688,0.731-2.21
		c0.487-0.521,1.19-0.782,2.108-0.782s1.621,0.262,2.108,0.782c0.487,0.521,0.731,1.259,0.731,2.21v6.256
		c0,0.952-0.244,1.689-0.731,2.211c-0.487,0.521-1.19,0.781-2.108,0.781S99.261,27.159,98.774,26.639z M101.851,24.547v-6.494
		c0-0.781-0.323-1.173-0.969-1.173s-0.969,0.392-0.969,1.173v6.494c0,0.782,0.323,1.174,0.969,1.174S101.851,25.329,101.851,24.547z
		"/>
	<path fill="#FFFFFF" d="M104.979,15.35h2.771c0.963,0,1.666,0.225,2.108,0.672c0.442,0.447,0.663,1.137,0.663,2.065v0.731
		c0,1.234-0.408,2.018-1.224,2.346v0.034c0.453,0.136,0.773,0.413,0.96,0.833c0.187,0.419,0.28,0.98,0.28,1.683v2.091
		c0,0.34,0.011,0.615,0.034,0.824c0.022,0.211,0.079,0.417,0.17,0.621h-1.904c-0.068-0.192-0.114-0.374-0.136-0.544
		c-0.023-0.17-0.034-0.476-0.034-0.918v-2.177c0-0.543-0.088-0.923-0.264-1.139c-0.176-0.215-0.479-0.322-0.91-0.322h-0.646v5.1
		h-1.87V15.35z M107.529,20.45c0.374,0,0.654-0.097,0.841-0.289s0.281-0.516,0.281-0.97v-0.918c0-0.43-0.077-0.742-0.229-0.935
		c-0.153-0.192-0.394-0.289-0.723-0.289h-0.85v3.4H107.529z"/>
	<path fill="#FFFFFF" d="M112.408,26.646c-0.476-0.516-0.714-1.255-0.714-2.219v-6.256c0-0.963,0.238-1.703,0.714-2.219
		s1.167-0.773,2.074-0.773c0.906,0,1.598,0.258,2.074,0.773s0.714,1.256,0.714,2.219v1.02h-1.768v-1.139
		c0-0.781-0.323-1.173-0.969-1.173s-0.969,0.392-0.969,1.173v6.512c0,0.771,0.323,1.156,0.969,1.156s0.969-0.386,0.969-1.156v-2.33
		h-0.935v-1.699h2.703v3.893c0,0.964-0.238,1.703-0.714,2.219s-1.167,0.773-2.074,0.773
		C113.575,27.42,112.884,27.162,112.408,26.646z"/>
	<path fill="#FFFFFF" d="M118.851,26.646c-0.465-0.516-0.697-1.255-0.697-2.219v-0.68h1.768v0.816c0,0.771,0.323,1.156,0.969,1.156
		c0.317,0,0.558-0.094,0.723-0.281c0.164-0.188,0.247-0.49,0.247-0.91c0-0.498-0.113-0.938-0.34-1.316
		c-0.227-0.38-0.646-0.836-1.258-1.369c-0.771-0.68-1.309-1.295-1.615-1.844c-0.306-0.551-0.459-1.17-0.459-1.861
		c0-0.941,0.238-1.67,0.714-2.186s1.167-0.773,2.074-0.773c0.896,0,1.573,0.258,2.032,0.773s0.688,1.256,0.688,2.219v0.493h-1.768
		v-0.612c0-0.408-0.08-0.705-0.238-0.893c-0.159-0.187-0.391-0.28-0.697-0.28c-0.624,0-0.935,0.38-0.935,1.14
		c0,0.43,0.116,0.832,0.349,1.207c0.232,0.373,0.654,0.826,1.267,1.359c0.782,0.68,1.32,1.298,1.615,1.854
		c0.295,0.555,0.442,1.207,0.442,1.955c0,0.975-0.241,1.723-0.723,2.244c-0.482,0.521-1.182,0.781-2.1,0.781
		C120.001,27.42,119.315,27.162,118.851,26.646z"/>
	<path fill="#FFFFFF" d="M38.432,31.75h0.791c-0.319,0.654-0.575,1.418-0.767,2.29s-0.288,1.772-0.288,2.7
		c0,0.859,0.072,1.688,0.217,2.485s0.344,1.499,0.598,2.104h-0.752c-0.241-0.58-0.433-1.262-0.576-2.046s-0.215-1.602-0.215-2.451
		c0-0.915,0.084-1.806,0.254-2.673C37.864,33.292,38.11,32.488,38.432,31.75z"/>
	<path fill="#FFFFFF" d="M40.507,33.938h0.693v6.113c0,0.445-0.081,0.771-0.242,0.975c-0.161,0.203-0.382,0.305-0.662,0.305
		c-0.231,0-0.492-0.055-0.781-0.166v-0.615c0.182,0.094,0.347,0.142,0.493,0.142c0.186,0,0.324-0.077,0.415-0.229
		c0.055-0.098,0.083-0.301,0.083-0.61V33.938z M40.844,31.75c0.156,0,0.289,0.055,0.398,0.166s0.164,0.244,0.164,0.4
		c0,0.152-0.055,0.285-0.164,0.396S41,32.878,40.844,32.878s-0.289-0.056-0.398-0.166s-0.164-0.243-0.164-0.396
		c0-0.156,0.055-0.289,0.164-0.4S40.688,31.75,40.844,31.75z"/>
	<path fill="#FFFFFF" d="M42.534,33.938h0.684v2.48c0,0.605,0.033,1.021,0.098,1.25c0.098,0.326,0.285,0.582,0.56,0.771
		s0.604,0.283,0.985,0.283s0.705-0.092,0.971-0.275c0.266-0.185,0.449-0.426,0.55-0.726c0.068-0.205,0.103-0.64,0.103-1.304v-2.48
		h0.698v2.607c0,0.732-0.085,1.284-0.256,1.655s-0.428,0.661-0.771,0.872c-0.343,0.209-0.774,0.314-1.292,0.314
		s-0.95-0.105-1.296-0.314c-0.347-0.211-0.605-0.504-0.776-0.879c-0.171-0.377-0.256-0.941-0.256-1.697V33.938z"/>
	<path fill="#FFFFFF" d="M51.372,34.519l-0.439,0.454c-0.366-0.355-0.723-0.532-1.072-0.532c-0.222,0-0.412,0.073-0.57,0.22
		s-0.237,0.317-0.237,0.513c0,0.173,0.065,0.337,0.196,0.493c0.13,0.16,0.404,0.347,0.822,0.562
		c0.509,0.264,0.855,0.518,1.038,0.762c0.179,0.247,0.269,0.526,0.269,0.835c0,0.436-0.153,0.806-0.46,1.108
		c-0.306,0.303-0.689,0.454-1.149,0.454c-0.307,0-0.599-0.066-0.878-0.2s-0.509-0.317-0.692-0.552l0.43-0.488
		c0.349,0.395,0.719,0.591,1.111,0.591c0.274,0,0.507-0.088,0.7-0.264c0.192-0.176,0.289-0.382,0.289-0.62
		c0-0.195-0.063-0.369-0.191-0.522c-0.127-0.149-0.414-0.339-0.861-0.566c-0.479-0.247-0.806-0.491-0.979-0.732
		s-0.259-0.517-0.259-0.825c0-0.404,0.138-0.738,0.413-1.006c0.276-0.268,0.624-0.4,1.044-0.4
		C50.384,33.801,50.876,34.04,51.372,34.519z"/>
	<path fill="#FFFFFF" d="M53.178,31.965h0.684v1.973h1.084v0.591h-1.084v4.722h-0.684v-4.722h-0.933v-0.591h0.933V31.965z"/>
	<path fill="#FFFFFF" d="M60.927,31.887v0.669c-0.25-0.107-0.465-0.161-0.645-0.161c-0.133,0-0.244,0.027-0.332,0.08
		c-0.088,0.055-0.143,0.116-0.166,0.186c-0.023,0.07-0.034,0.257-0.034,0.56l0,0.718h1.109v0.591H59.75l-0.004,4.722h-0.684v-4.722
		h-0.698v-0.591h0.698v-0.83c0-0.381,0.035-0.652,0.105-0.815s0.189-0.294,0.356-0.394c0.167-0.099,0.37-0.148,0.608-0.148
		C60.353,31.75,60.618,31.795,60.927,31.887z"/>
	<path fill="#FFFFFF" d="M64.394,33.801c0.818,0,1.497,0.297,2.035,0.889c0.489,0.541,0.734,1.18,0.734,1.919
		c0,0.742-0.258,1.391-0.775,1.946c-0.517,0.555-1.181,0.832-1.993,0.832c-0.815,0-1.481-0.277-1.998-0.832
		c-0.517-0.556-0.775-1.204-0.775-1.946c0-0.735,0.245-1.374,0.734-1.914C62.893,34.099,63.572,33.801,64.394,33.801z M64.392,34.47
		c-0.568,0-1.057,0.21-1.465,0.63c-0.408,0.42-0.612,0.928-0.612,1.523c0,0.385,0.093,0.742,0.279,1.074s0.438,0.588,0.755,0.77
		c0.316,0.18,0.665,0.271,1.043,0.271s0.727-0.091,1.043-0.271c0.317-0.182,0.569-0.438,0.755-0.77s0.279-0.689,0.279-1.074
		c0-0.596-0.205-1.104-0.615-1.523C65.444,34.68,64.957,34.47,64.392,34.47z"/>
	<path fill="#FFFFFF" d="M68.168,33.938h0.698v0.776c0.208-0.306,0.428-0.534,0.659-0.687c0.231-0.15,0.472-0.227,0.723-0.227
		c0.189,0,0.391,0.061,0.605,0.181l-0.356,0.576c-0.143-0.062-0.264-0.093-0.361-0.093c-0.228,0-0.448,0.094-0.659,0.281
		c-0.211,0.187-0.373,0.477-0.483,0.871c-0.084,0.303-0.127,0.914-0.127,1.836v1.797h-0.698V33.938z"/>
	<path fill="#FFFFFF" d="M73.632,33.938h0.723l1.826,4.091l1.773-4.091h0.728l-3.169,7.256H74.79l1.023-2.346L73.632,33.938z"/>
	<path fill="#FFFFFF" d="M82.08,33.801c0.818,0,1.497,0.297,2.035,0.889c0.489,0.541,0.734,1.18,0.734,1.919
		c0,0.742-0.258,1.391-0.775,1.946c-0.517,0.555-1.181,0.832-1.993,0.832c-0.815,0-1.481-0.277-1.998-0.832
		c-0.517-0.556-0.775-1.204-0.775-1.946c0-0.735,0.245-1.374,0.734-1.914C80.578,34.099,81.258,33.801,82.08,33.801z M82.077,34.47
		c-0.568,0-1.057,0.21-1.465,0.63C80.204,35.52,80,36.027,80,36.623c0,0.385,0.093,0.742,0.279,1.074s0.438,0.588,0.755,0.77
		c0.316,0.18,0.665,0.271,1.043,0.271s0.727-0.091,1.043-0.271c0.317-0.182,0.569-0.438,0.755-0.77s0.279-0.689,0.279-1.074
		c0-0.596-0.205-1.104-0.615-1.523C83.13,34.68,82.642,34.47,82.077,34.47z"/>
	<path fill="#FFFFFF" d="M86.025,33.938h0.684v2.48c0,0.605,0.033,1.021,0.098,1.25c0.098,0.326,0.285,0.582,0.56,0.771
		s0.604,0.283,0.985,0.283s0.705-0.092,0.971-0.275c0.266-0.185,0.449-0.426,0.55-0.726c0.068-0.205,0.103-0.64,0.103-1.304v-2.48
		h0.698v2.607c0,0.732-0.085,1.284-0.256,1.655s-0.428,0.661-0.771,0.872c-0.343,0.209-0.774,0.314-1.292,0.314
		s-0.95-0.105-1.296-0.314c-0.347-0.211-0.605-0.504-0.776-0.879c-0.171-0.377-0.256-0.941-0.256-1.697V33.938z"/>
	<path fill="#FFFFFF" d="M91.933,33.938h0.698v0.776c0.208-0.306,0.428-0.534,0.659-0.687c0.231-0.15,0.472-0.227,0.723-0.227
		c0.189,0,0.391,0.061,0.605,0.181l-0.356,0.576c-0.143-0.062-0.264-0.093-0.361-0.093c-0.228,0-0.448,0.094-0.659,0.281
		c-0.211,0.187-0.373,0.477-0.483,0.871c-0.084,0.303-0.127,0.914-0.127,1.836v1.797h-0.698V33.938z"/>
	<path fill="#FFFFFF" d="M100.639,34.519l-0.439,0.454c-0.366-0.355-0.723-0.532-1.072-0.532c-0.222,0-0.412,0.073-0.57,0.22
		s-0.237,0.317-0.237,0.513c0,0.173,0.065,0.337,0.196,0.493c0.13,0.16,0.404,0.347,0.822,0.562
		c0.509,0.264,0.855,0.518,1.038,0.762c0.179,0.247,0.269,0.526,0.269,0.835c0,0.436-0.153,0.806-0.46,1.108
		c-0.306,0.303-0.689,0.454-1.149,0.454c-0.307,0-0.599-0.066-0.878-0.2s-0.509-0.317-0.692-0.552l0.43-0.488
		c0.349,0.395,0.719,0.591,1.111,0.591c0.274,0,0.507-0.088,0.7-0.264c0.192-0.176,0.289-0.382,0.289-0.62
		c0-0.195-0.063-0.369-0.191-0.522c-0.127-0.149-0.414-0.339-0.861-0.566c-0.479-0.247-0.806-0.491-0.979-0.732
		s-0.259-0.517-0.259-0.825c0-0.404,0.138-0.738,0.413-1.006c0.276-0.268,0.624-0.4,1.044-0.4
		C99.651,33.801,100.144,34.04,100.639,34.519z"/>
	<path fill="#FFFFFF" d="M102.446,31.965h0.684v1.973h1.084v0.591h-1.084v4.722h-0.684v-4.722h-0.933v-0.591h0.933V31.965z"/>
	<path fill="#FFFFFF" d="M110.532,33.938v5.313h-0.674v-0.913c-0.287,0.349-0.608,0.61-0.964,0.786s-0.746,0.264-1.169,0.264
		c-0.752,0-1.394-0.272-1.926-0.818C105.266,38.023,105,37.36,105,36.579c0-0.765,0.269-1.419,0.806-1.963s1.183-0.815,1.938-0.815
		c0.436,0,0.831,0.093,1.184,0.278s0.663,0.464,0.93,0.835v-0.977H110.532z M107.8,34.46c-0.38,0-0.731,0.094-1.053,0.28
		c-0.322,0.188-0.578,0.449-0.769,0.788c-0.19,0.338-0.285,0.696-0.285,1.073c0,0.373,0.096,0.73,0.288,1.072
		s0.45,0.607,0.773,0.798c0.324,0.19,0.671,0.285,1.042,0.285c0.374,0,0.729-0.095,1.063-0.282c0.335-0.189,0.593-0.444,0.773-0.767
		c0.18-0.321,0.271-0.685,0.271-1.087c0-0.615-0.203-1.129-0.607-1.541C108.89,34.666,108.392,34.46,107.8,34.46z"/>
	<path fill="#FFFFFF" d="M114.257,31.887v0.669c-0.25-0.107-0.465-0.161-0.645-0.161c-0.133,0-0.244,0.027-0.332,0.08
		c-0.088,0.055-0.143,0.116-0.166,0.186c-0.023,0.07-0.034,0.257-0.034,0.56l0,0.718h1.109v0.591h-1.109l-0.004,4.722h-0.684v-4.722
		h-0.698v-0.591h0.698v-0.83c0-0.381,0.035-0.652,0.105-0.815s0.189-0.294,0.356-0.394c0.167-0.099,0.37-0.148,0.608-0.148
		C113.683,31.75,113.948,31.795,114.257,31.887z"/>
	<path fill="#FFFFFF" d="M117.426,31.887v0.669c-0.25-0.107-0.465-0.161-0.645-0.161c-0.133,0-0.244,0.027-0.332,0.08
		c-0.088,0.055-0.143,0.116-0.166,0.186c-0.023,0.07-0.034,0.257-0.034,0.56l0,0.718h1.109v0.591h-1.109l-0.004,4.722h-0.684v-4.722
		h-0.698v-0.591h0.698v-0.83c0-0.381,0.035-0.652,0.105-0.815s0.189-0.294,0.356-0.394c0.167-0.099,0.37-0.148,0.608-0.148
		C116.852,31.75,117.117,31.795,117.426,31.887z"/>
	<path fill="#FFFFFF" d="M119.013,41.33h-0.791c0.322-0.654,0.579-1.418,0.769-2.29s0.286-1.772,0.286-2.7
		c0-0.859-0.072-1.688-0.217-2.485s-0.344-1.499-0.598-2.104h0.752c0.244,0.58,0.437,1.262,0.579,2.049
		c0.142,0.785,0.212,1.604,0.212,2.453c0,0.912-0.084,1.801-0.254,2.668C119.581,39.788,119.335,40.592,119.013,41.33z"/>
</g>
<g>
	<g>
		<g>
			<path fill-rule="evenodd" clip-rule="evenodd" fill="#394730" d="M51.934,136.201c2.766-1.498,5.52-2.715,8.51-3.344
				c4.815-1.011,9.569-0.558,14.332,0.424c1.545,0.317,3.168,0.448,4.745,0.382c6.408-0.272,12.81-0.657,19.215-0.989
				c2.665-0.138,4.758,1.609,5.008,4.146c0.271,2.736-1.351,4.761-4.108,5.207c-6.805,1.104-13.607,2.228-20.41,3.349
				c-1.013,0.167-1.541,0.741-1.437,1.508c0.109,0.812,0.767,1.169,1.858,1.068c7.099-0.658,14.146-1.631,21.121-3.147
				c3.791-0.826,7.086-2.423,10.212-4.786c4.219-3.191,8.786-5.926,13.229-8.815c0.755-0.492,1.621-0.828,2.464-1.167
				c1.536-0.616,2.982-0.392,4.139,0.799c1.18,1.215,1.611,2.739,0.9,4.311c-0.41,0.908-1.061,1.85-1.859,2.418
				c-8.62,6.132-17.281,12.205-25.953,18.264c-3.231,2.259-6.84,3.384-10.802,3.449c-8.042,0.135-16.082,0.328-24.123,0.493
				c-4.2,0.087-8.399,0.178-12.6,0.23c-0.688,0.01-1.112,0.163-1.439,0.837c-0.624,1.284-1.742,2.018-3.144,2.217
				c-2.737,0.389-5.479,0.763-8.226,1.067c-2.947,0.329-5.25-1.58-5.654-4.534c-0.812-5.929-1.644-11.856-2.483-17.782
				c-0.487-3.435,1.217-5.829,4.594-6.361c2.346-0.369,4.71-0.626,7.043-1.058C49.065,134.015,50.667,134.503,51.934,136.201z
				 M48.862,156.7c0.02-1.48-1.272-2.791-2.784-2.822c-1.559-0.033-2.869,1.234-2.897,2.801c-0.025,1.477,1.259,2.787,2.778,2.831
				C47.486,159.556,48.842,158.243,48.862,156.7z"/>
			<path fill-rule="evenodd" clip-rule="evenodd" fill="#627D53" d="M108.476,137.124c-0.205-1.043-0.416-2.118-0.648-3.305
				c0.319-0.207,0.711-0.489,1.126-0.728c3.236-1.866,6.462-3.747,9.72-5.575c1.434-0.804,2.939-0.957,4.425-0.125
				c-2.49,1.556-4.997,3.044-7.42,4.658C113.248,133.667,110.9,135.409,108.476,137.124z"/>
			<path fill-rule="evenodd" clip-rule="evenodd" fill="#627D53" d="M105.491,131.047c-0.542-0.44-1.218-0.99-1.984-1.614
				c0.501-0.273,0.932-0.538,1.388-0.752c2.176-1.023,4.352-2.05,6.542-3.043c1.304-0.592,2.628-0.689,4.087,0.099
				C112.162,127.516,108.894,129.246,105.491,131.047z"/>
		</g>
	</g>
	<g>
		<path fill-rule="evenodd" clip-rule="evenodd" fill="#627D53" d="M82.412,129.126c-18.377,0.015-33.315-14.881-33.337-33.245
			C49.052,77.473,63.969,62.52,82.37,62.506c18.403-0.015,33.326,14.913,33.323,33.334
			C115.69,114.225,100.807,129.11,82.412,129.126z M113.22,95.922c-0.245,0.139-0.405,0.181-0.49,0.284
			c-0.955,1.16-2.144,2.134-2.66,3.636c-0.368,1.074-0.847,1.139-1.664,0.302c-0.22-0.226-0.39-0.548-0.466-0.855
			c-0.127-0.52-0.166-1.063-0.235-1.597c-0.346-2.677-2.818-4.85-5.528-4.802c-0.669,0.013-1.203-0.172-1.668-0.623
			c-0.313-0.304-0.615-0.621-0.944-0.906c-0.114-0.099-0.296-0.117-0.447-0.172c0.17,0.617,0.485,1.06,0.689,1.549
			c0.311,0.744,0.805,1.06,1.602,0.921c0.761-0.133,1.338,0.236,1.858,0.729c0.849,0.807,0.708,1.405-0.342,1.906
			c-1.059,0.504-2.066,1.116-3.105,1.666c-0.678,0.358-1.362,0.708-2.06,1.028c-0.522,0.24-0.89,0.126-1.122-0.48
			c-0.456-1.198-0.941-2.388-1.487-3.547c-0.459-0.974-1.022-1.898-1.539-2.845c-0.094,0.033-0.188,0.066-0.282,0.1
			c0.027,0.367-0.025,0.764,0.096,1.097c0.323,0.889,0.683,1.769,1.097,2.618c0.733,1.505,1.603,2.969,0.788,4.769
			c1.842,0.544,3.053-0.928,4.643-1.16c-0.429,1.364-0.938,2.64-1.479,3.902c-0.097,0.225-0.305,0.414-0.494,0.585
			c-0.721,0.651-1.391,1.389-2.201,1.904c-0.931,0.594-1.053,1.361-0.898,2.308c0.045,0.278,0.067,0.561,0.113,0.84
			c0.172,1.044-0.136,1.933-0.887,2.662c-0.829,0.805-1.7,1.567-2.502,2.396c-0.584,0.603-1.239,1.21-1.598,1.945
			c-0.783,1.603-2.221,1.76-3.681,1.879c-0.369,0.03-0.869-0.196-1.127-0.474c-0.423-0.456-0.666-1.073-1.041-1.581
			c-1.361-1.846-2.135-3.76-0.832-5.97c0.326-0.553,0.192-1.058-0.084-1.6c-0.451-0.882-0.828-1.801-1.248-2.699
			c-0.303-0.647-0.576-1.318-0.96-1.916c-0.187-0.291-0.57-0.538-0.912-0.632c-0.958-0.265-1.917-0.224-2.866,0.16
			c-1.579,0.639-2.991,0.313-4.241-0.827c-0.53-0.484-1.041-1.017-1.647-1.385c-0.743-0.45-1.051-1.086-1.167-1.881
			c-0.304-2.086-0.162-4.154,0.317-6.195c0.093-0.396,0.379-0.777,0.658-1.092c0.775-0.876,1.579-1.727,2.402-2.557
			c0.273-0.275,0.614-0.525,0.971-0.667c0.554-0.218,1.153-0.319,1.724-0.496c0.672-0.209,1.322-0.523,2.007-0.65
			c0.854-0.157,1.737-0.156,2.605-0.248c1.13-0.12,1.271-0.024,1.477,1.095c0.028,0.151,0.063,0.301,0.104,0.449
			c0.35,1.291,0.762,1.545,2.067,1.268c0.2-0.043,0.392-0.137,0.593-0.163c0.519-0.07,1.047-0.201,1.56-0.156
			c1.732,0.152,3.439,0.525,5.204,0.171c1.573-0.316,1.587-0.249,1.275-1.841c-0.008-0.043-0.055-0.078-0.076-0.107
			c-0.748-0.079-1.487-0.23-2.222-0.214c-0.701,0.016-0.958-0.255-1.134-0.906c-0.442-1.638-0.395-1.756,1.296-1.704
			c1.23,0.038,2.458,0.166,3.689,0.18c0.782,0.009,1.033-0.378,0.731-1.104c-0.145-0.35-0.442-0.706-0.766-0.898
			c-0.614-0.363-1.271-0.702-1.955-0.89c-2.025-0.553-2.906-0.207-3.012,1.81c-0.01,0.199-0.279,0.537-0.446,0.548
			c-0.584,0.04-0.746,0.378-0.889,0.862c-0.26,0.876-0.753,1.211-1.434,1.071c-0.594-0.122-0.881-0.655-0.737-1.55
			c0.093-0.577-0.079-1.002-0.498-1.365c-0.271-0.236-0.542-0.473-0.809-0.713c-0.475-0.427-1.014-0.477-1.674-0.329
			c0.667,1.104,1.875,1.774,2.016,2.949c-0.67,0.322-1.231,0.592-1.879,0.904c-0.059-0.434-0.11-0.829-0.166-1.224
			c-0.117-0.845-0.573-1.453-1.273-1.925c-0.625-0.422-1.185-0.337-1.77,0.065c-0.132,0.091-0.352,0.104-0.521,0.082
			c-0.776-0.106-1.28,0.27-1.639,0.897c-0.292,0.51-0.525,1.056-0.846,1.544c-0.2,0.305-0.5,0.733-0.783,0.757
			c-0.904,0.074-1.823,0.01-2.731-0.063c-0.18-0.014-0.474-0.295-0.483-0.465c-0.047-0.935-0.022-1.872-0.022-2.8
			c1.25,0,2.288,0,3.322,0c0.194-1.434,0.188-1.414-1.116-1.822c-0.272-0.085-0.482-0.369-0.877-0.687
			c0.485-0.125,0.701-0.202,0.923-0.234c0.778-0.112,1.521-0.175,2.168-0.798c0.519-0.499,1.251-0.819,1.94-1.088
			c1.18-0.459,1.246-0.476,1.174-1.735c-0.036-0.621,0.214-1.014,0.946-1.253c0.365,1.738,1.671,1.572,2.955,1.466
			c0.307-0.025,0.626,0.029,0.921-0.038c0.215-0.049,0.526-0.199,0.575-0.369c0.271-0.93,0.896-1.432,1.771-1.755
			c0.203-0.075,0.425-0.491,0.388-0.707c-0.034-0.198-0.391-0.364-0.632-0.497c-0.21-0.116-0.464-0.151-0.687-0.25
			c-0.278-0.122-0.558-0.399-0.811-0.371c-0.194,0.022-0.407,0.39-0.505,0.645c-0.145,0.379-0.151,0.811-0.296,1.189
			c-0.265,0.693-1.12,1.08-1.851,0.9c-0.768-0.189-0.674-0.792-0.665-1.358c0.003-0.194,0-0.389,0-0.715
			c-0.576,0.897-1.363,1.161-2.242,1.023c-0.34-0.054-0.766-0.336-0.909-0.633c-0.127-0.261-0.027-0.775,0.169-1.021
			c0.407-0.511,0.918-0.951,1.435-1.359c0.589-0.466,1.178-1.082,1.861-1.251c1.937-0.479,3.91-0.953,5.891-1.075
			c2.277-0.14,4.163-1.398,6.451-1.68c-0.163-0.156-0.193-0.201-0.236-0.225c-0.113-0.061-0.229-0.116-0.346-0.168
			c-5.479-2.393-11.18-3.195-17.094-2.301c-4.909,0.743-9.377,2.6-13.405,5.507c-0.303,0.218-0.643,0.355-0.408,0.897
			c0.614,1.416,0.411,2.689-0.611,3.932c-1.069,1.301-1.955,2.75-2.928,4.129c-0.176,0.251-0.36,0.507-0.587,0.708
			c-0.654,0.577-1.336,0.396-1.482-0.456c-0.127-0.747-0.076-1.527-0.082-2.293c-0.003-0.33,0.047-0.66,0.074-0.99
			c-0.079-0.023-0.157-0.047-0.235-0.07c-0.842,1.313-1.628,2.667-2.544,3.927c-0.837,1.152-0.697,2.152,0.004,3.302
			c0.54,0.886,0.896,1.892,1.27,2.868c0.21,0.549-0.019,0.936-0.584,1.23c-1.25,0.652-2.472,1.362-3.663,2.117
			c-0.295,0.187-0.551,0.609-0.615,0.962c-0.62,3.424-0.488,6.842,0.077,10.269c0.195,1.18,0.577,2.074,1.764,2.501
			c0.282,0.102,0.509,0.346,0.776,0.497c0.908,0.515,1.507,1.248,1.839,2.256c0.313,0.948,0.777,1.845,1.118,2.785
			c0.201,0.556,0.501,0.894,1.095,1.037c1.536,0.373,2.924,1.075,4.242,1.949c0.456,0.304,0.634,0.557,0.457,1.107
			c-0.543,1.688-0.566,3.554-1.813,4.956c9.061,8.536,23.121,10.912,34.953,4.827c6.016-3.094,10.537-7.701,13.562-13.751
			C112.148,105.286,113.204,100.79,113.22,95.922z M100.387,83.311c0-0.278,0.037-0.401-0.007-0.479
			c-0.152-0.28-0.277-0.651-0.521-0.775c-0.155-0.079-0.534,0.18-0.756,0.357c-1.026,0.821-1.08,1.866-0.705,3.039
			c0.161,0.506,0.184,1.058,0.251,1.591c0.107,0.855,0.443,1.151,1.301,0.976c0.483-0.099,1.2-0.05,1.225-0.786
			c0.025-0.745,0.081-1.522-0.604-2.124c-0.217-0.19-0.249-0.644-0.274-0.982C100.272,83.801,100.367,83.467,100.387,83.311z"/>
		<path fill-rule="evenodd" clip-rule="evenodd" fill="#627D53" d="M100.387,83.311c-0.02,0.156-0.115,0.49-0.09,0.815
			c0.025,0.339,0.058,0.792,0.274,0.982c0.685,0.602,0.629,1.379,0.604,2.124c-0.025,0.736-0.742,0.688-1.225,0.786
			c-0.858,0.176-1.194-0.12-1.301-0.976c-0.067-0.533-0.09-1.085-0.251-1.591c-0.375-1.173-0.321-2.218,0.705-3.039
			c0.222-0.178,0.601-0.437,0.756-0.357c0.244,0.124,0.369,0.495,0.521,0.775C100.424,82.909,100.387,83.032,100.387,83.311z"/>
		<path fill-rule="evenodd" clip-rule="evenodd" fill="#627D53" d="M76.288,76.861c-1.12-0.027-1.601-0.471-1.788-1.526
			c-0.136-0.765-0.309-1.465,0.237-2.193c0.215-0.287,0.073-0.843,0.088-1.276c0.026-0.778,0.741-1.49,1.454-1.295
			c0.289,0.078,0.608,0.559,0.661,0.896c0.162,1.024,0.437,1.946,1.348,2.561c0.079,0.053,0.158,0.146,0.181,0.236
			C78.722,75.265,77.355,76.887,76.288,76.861z"/>
		<path fill-rule="evenodd" clip-rule="evenodd" fill="#627D53" d="M98.905,110.752c-0.23,0.57-0.455,1.144-0.691,1.712
			c-0.246,0.59-0.476,1.188-0.764,1.757c-0.212,0.418-0.415,0.989-1.037,0.826c-0.615-0.16-0.748-0.722-0.745-1.289
			c0.005-0.999,0.368-1.804,1.144-2.492c0.385-0.341,0.519-0.956,0.8-1.428c0.131-0.222,0.34-0.397,0.514-0.593
			c0.199,0.222,0.46,0.416,0.577,0.675c0.096,0.213,0.02,0.504,0.02,0.76C98.783,110.704,98.844,110.728,98.905,110.752z"/>
		<path fill-rule="evenodd" clip-rule="evenodd" fill="#627D53" d="M72.48,75.881c0.426-0.841,0.252-1.828,1.233-2.399
			c0.168,0.673,0.396,1.296,0.439,1.931c0.013,0.188-0.473,0.481-0.778,0.593C73.154,76.085,72.853,75.942,72.48,75.881z"/>
	</g>
</g>
</svg>
