<?xml version="1.0" encoding="utf-8"?>
<!-- Generator: Adobe Illustrator 16.0.0, SVG Export Plug-In . SVG Version: 6.00 Build 0)  -->
<!DOCTYPE svg PUBLIC "-//W3C//DTD SVG 1.1//EN" "http://www.w3.org/Graphics/SVG/1.1/DTD/svg11.dtd">
<svg version="1.1" id="Layer_1" xmlns="http://www.w3.org/2000/svg" xmlns:xlink="http://www.w3.org/1999/xlink" x="0px" y="0px"
	 width="157px" height="179px" viewBox="0 0 157 179" enable-background="new 0 0 157 179" xml:space="preserve">
<rect x="1" y="1" fill-rule="evenodd" clip-rule="evenodd" fill="#FFFFFF" stroke="#627D53" stroke-width="2" stroke-miterlimit="10" width="155" height="177"/>
<rect x="2" y="1" fill-rule="evenodd" clip-rule="evenodd" fill="#627D53" width="155" height="56"/>
<g>
	<path fill="#FFFFFF" d="M37.37,23.987h3.097c1.077,0,1.862,0.25,2.356,0.751c0.494,0.5,0.741,1.27,0.741,2.308v0.817
		c0,1.381-0.456,2.254-1.368,2.622v0.038c0.506,0.152,0.865,0.463,1.074,0.931c0.209,0.469,0.313,1.096,0.313,1.881v2.337
		c0,0.381,0.012,0.688,0.038,0.922s0.089,0.465,0.19,0.693h-2.128c-0.076-0.215-0.126-0.418-0.152-0.607
		c-0.025-0.19-0.038-0.533-0.038-1.026v-2.433c0-0.607-0.098-1.031-0.294-1.272s-0.535-0.361-1.017-0.361H39.46v5.7h-2.09V23.987z
		 M40.22,29.688c0.418,0,0.731-0.107,0.94-0.323s0.313-0.576,0.313-1.083v-1.026c0-0.481-0.085-0.829-0.256-1.045
		c-0.171-0.215-0.44-0.323-0.808-0.323h-0.95v3.801H40.22z"/>
	<path fill="#FFFFFF" d="M45.692,36.604c-0.544-0.583-0.817-1.406-0.817-2.471v-6.992c0-1.063,0.272-1.887,0.817-2.47
		c0.544-0.582,1.33-0.874,2.356-0.874c1.026,0,1.812,0.292,2.356,0.874c0.545,0.583,0.817,1.406,0.817,2.47v6.992
		c0,1.064-0.272,1.888-0.817,2.471c-0.544,0.582-1.33,0.873-2.356,0.873C47.022,37.477,46.236,37.186,45.692,36.604z M49.131,34.266
		v-7.258c0-0.873-0.361-1.311-1.083-1.311c-0.722,0-1.083,0.438-1.083,1.311v7.258c0,0.875,0.361,1.312,1.083,1.312
		C48.77,35.577,49.131,35.141,49.131,34.266z"/>
	<path fill="#FFFFFF" d="M52.133,23.987h2.014l0.931,10.222h0.038l0.988-10.222h2.28l0.988,10.222h0.038l0.931-10.222h1.805
		l-1.349,13.3h-2.603l-0.95-8.968h-0.038l-0.95,8.968h-2.774L52.133,23.987z"/>
	<path fill="#FFFFFF" d="M63.21,23.987h2.09v13.3h-2.09V23.987z"/>
	<path fill="#FFFFFF" d="M66.858,23.987h2.622l2.033,7.961h0.038v-7.961h1.862v13.3h-2.147l-2.508-9.709H68.72v9.709h-1.862V23.987z
		"/>
	<path fill="#FFFFFF" d="M75.617,36.613c-0.532-0.577-0.798-1.403-0.798-2.48v-6.992c0-1.076,0.266-1.902,0.798-2.479
		c0.532-0.576,1.305-0.865,2.318-0.865c1.013,0,1.786,0.289,2.318,0.865c0.532,0.576,0.798,1.402,0.798,2.479v1.141h-1.976v-1.273
		c0-0.873-0.361-1.311-1.083-1.311c-0.722,0-1.083,0.438-1.083,1.311v7.277c0,0.861,0.361,1.292,1.083,1.292
		c0.722,0,1.083-0.431,1.083-1.292v-2.604H78.03v-1.899h3.021v4.351c0,1.077-0.266,1.903-0.798,2.48
		c-0.532,0.576-1.305,0.863-2.318,0.863C76.921,37.477,76.149,37.189,75.617,36.613z"/>
	<path fill="#FFFFFF" d="M86.095,36.622c-0.526-0.569-0.789-1.374-0.789-2.413v-7.145c0-1.037,0.263-1.842,0.789-2.412
		c0.525-0.57,1.289-0.855,2.29-0.855c1,0,1.764,0.285,2.29,0.855c0.525,0.57,0.788,1.375,0.788,2.412v1.406h-1.976v-1.539
		c0-0.822-0.349-1.234-1.045-1.234c-0.696,0-1.045,0.412-1.045,1.234v7.43c0,0.811,0.349,1.216,1.045,1.216
		c0.697,0,1.045-0.405,1.045-1.216v-2.033h1.976v1.881c0,1.039-0.263,1.844-0.788,2.413c-0.526,0.569-1.289,0.854-2.29,0.854
		C87.383,37.477,86.62,37.191,86.095,36.622z"/>
	<path fill="#FFFFFF" d="M92.716,23.987h2.09v11.399h3.439v1.9h-5.529V23.987z"/>
	<path fill="#FFFFFF" d="M99.974,36.613c-0.532-0.577-0.798-1.403-0.798-2.48V23.987h2.09v10.298c0,0.456,0.092,0.785,0.275,0.988
		s0.447,0.304,0.789,0.304c0.342,0,0.605-0.101,0.789-0.304s0.275-0.532,0.275-0.988V23.987h2.014v10.146
		c0,1.077-0.266,1.903-0.798,2.48c-0.532,0.576-1.305,0.863-2.318,0.863S100.506,37.189,99.974,36.613z"/>
	<path fill="#FFFFFF" d="M106.889,23.987h3.154c1.076,0,1.862,0.25,2.356,0.751c0.494,0.5,0.741,1.27,0.741,2.308v0.532
		c0,0.684-0.111,1.242-0.333,1.672c-0.222,0.431-0.56,0.741-1.016,0.932v0.037c1.038,0.355,1.558,1.279,1.558,2.774v1.14
		c0,1.026-0.269,1.809-0.807,2.347c-0.539,0.538-1.327,0.808-2.366,0.808h-3.287V23.987z M109.796,29.402
		c0.418,0,0.731-0.107,0.94-0.323s0.313-0.576,0.313-1.083v-0.741c0-0.481-0.085-0.829-0.256-1.045
		c-0.171-0.215-0.44-0.323-0.808-0.323h-1.007v3.516H109.796z M110.176,35.387c0.367,0,0.64-0.098,0.817-0.294
		s0.266-0.535,0.266-1.017v-1.159c0-0.608-0.104-1.028-0.313-1.263s-0.554-0.352-1.036-0.352h-0.931v4.084H110.176z"/>
	<path fill="#FFFFFF" d="M114.983,36.613c-0.52-0.577-0.779-1.403-0.779-2.48v-0.76h1.976v0.912c0,0.861,0.361,1.292,1.083,1.292
		c0.354,0,0.624-0.104,0.808-0.313c0.183-0.209,0.275-0.548,0.275-1.017c0-0.558-0.127-1.048-0.38-1.473
		c-0.254-0.424-0.722-0.934-1.406-1.529c-0.861-0.76-1.463-1.446-1.805-2.062c-0.342-0.614-0.513-1.308-0.513-2.08
		c0-1.052,0.266-1.865,0.798-2.441c0.532-0.576,1.305-0.865,2.318-0.865c1,0,1.758,0.289,2.271,0.865
		c0.513,0.576,0.77,1.402,0.77,2.479v0.551h-1.976v-0.684c0-0.455-0.089-0.788-0.266-0.997c-0.178-0.209-0.437-0.313-0.779-0.313
		c-0.697,0-1.045,0.424-1.045,1.273c0,0.48,0.13,0.93,0.39,1.349c0.259,0.418,0.731,0.925,1.416,1.52
		c0.874,0.761,1.476,1.45,1.805,2.071c0.33,0.621,0.494,1.35,0.494,2.186c0,1.089-0.269,1.925-0.808,2.508
		c-0.538,0.582-1.32,0.873-2.346,0.873C116.269,37.477,115.502,37.189,114.983,36.613z"/>
</g>
<g>
	<path fill-rule="evenodd" clip-rule="evenodd" fill="#627D53" d="M78.46,126.748c0.589,4.331-0.346,8.51,0.557,12.49
		c0.41-0.01,0.82-0.02,1.229-0.03c0-4.057,0-8.114,0-12.6c6.973,2.121,14.077,2.905,19.503,6.34
		c4.906,3.105,9.327,0.785,13.726,2.319c0.165-0.298,0.329-0.596,0.493-0.895c-0.958-0.82-1.802-1.868-2.896-2.421
		c-3.485-1.757-7.01-4.483-10.623-4.654c-3.667-0.174-5.67-1.368-7.817-3.849c-0.927-1.07-2.771-1.347-4.368-2.06
		c-0.338,1.791-0.628,3.326-0.996,5.276c-5.063-2.102-10.107-2.766-15.391,0.354c-0.496-3.082-0.9-5.592-1.417-8.802
		c-2.305,2.441-4.257,4.481-6.173,6.552c-1.226,1.324-2.377,2.766-4.491,1.692c-2.19-1.112-2.19-2.988-1.799-5.042
		c0.832-4.366,1.625-8.74,2.475-13.334c-4.617-2.201-9.209-4.406-13.822-6.568c-0.574-0.269-1.291-0.519-1.882-0.42
		c-6.493,1.078-11.689-2.215-17.022-5.004c-4.782-2.5-5.03-3.823-2.028-8.485c1.129-1.753,2.193-2.395,4.27-1.236
		c2.834,1.582,5.9,2.741,8.823,4.173c2.783,1.361,5.297,3.017,6.807,5.94c0.516,0.997,1.581,1.9,2.611,2.408
		c7.082,3.486,14.221,6.856,21.368,10.276c0.672-0.603,1.248-1.063,1.758-1.585c1.396-1.426,2.646-1.728,4.83-1.041
		c2.286,0.72,5.025-0.057,7.566-0.079c1.051-0.008,2.478-0.15,3.098,0.438c4.648,4.412,9.196,8.936,13.62,13.573
		c0.75,0.785,0.752,2.282,1.227,3.877c3.113,1.435,6.632,3.114,10.209,4.666c0.994,0.43,2.25,0.87,3.222,0.632
		c4.533-1.108,8.537,0.506,12.248,2.555c4.264,2.352,8.645,3.164,13.384,2.775c0.923-0.075,1.878-0.095,2.782,0.066
		c0.432,0.075,0.78,0.633,1.165,0.973c-0.394,0.435-0.725,1.13-1.198,1.247c-0.882,0.217-1.848,0.115-2.778,0.117
		c-13.409,0.043-26.821-0.066-40.225,0.221c-3.44,0.072-6.969,1.059-10.255,2.206c-7.158,2.499-14.133,2.488-21.29,0
		c-3.291-1.146-6.82-2.139-10.263-2.214c-13.217-0.286-26.444-0.174-39.667-0.211c-0.745-0.002-1.537,0.142-2.223-0.063
		c-0.855-0.255-1.624-0.803-2.43-1.224c0.833-0.387,1.664-1.107,2.499-1.109c12.664-0.051,25.329-0.004,37.993,0.01
		c1.334,0.002,2.882,0.409,3.248-1.63c0.047-0.264,0.523-0.547,0.854-0.648C65.42,130.729,71.88,128.758,78.46,126.748z
		 M64.13,115.299c1.324-1.471,2.315-2.572,3.45-3.832c-1.23-0.545-2.191-0.969-3.45-1.525
		C64.13,111.822,64.13,113.294,64.13,115.299z"/>
	<path fill-rule="evenodd" clip-rule="evenodd" fill="#627D53" d="M86.312,97.171c-0.567,1.835-0.855,3.821-1.758,5.474
		c-2.166,3.963-7.981,3.931-9.972-0.101c-0.91-1.842-1.417-4.089-1.395-6.145c0.044-4.187,2.961-6.986,6.531-6.818
		C83.431,89.754,85.951,92.769,86.312,97.171z"/>
</g>
</svg>
