<?xml version="1.0" encoding="utf-8"?>
<!-- Generator: Adobe Illustrator 16.0.0, SVG Export Plug-In . SVG Version: 6.00 Build 0)  -->
<!DOCTYPE svg PUBLIC "-//W3C//DTD SVG 1.1//EN" "http://www.w3.org/Graphics/SVG/1.1/DTD/svg11.dtd">
<svg version="1.1" id="Layer_1" xmlns="http://www.w3.org/2000/svg" xmlns:xlink="http://www.w3.org/1999/xlink" x="0px" y="0px"
	 width="156px" height="179px" viewBox="0 0 156 179" enable-background="new 0 0 156 179" xml:space="preserve">
<rect x="1" y="1" fill-rule="evenodd" clip-rule="evenodd" fill="#FFFFFF" stroke="#627D53" stroke-width="2" stroke-miterlimit="10" width="154" height="177"/>
<rect x="1" y="1" fill-rule="evenodd" clip-rule="evenodd" fill="#627D53" width="155" height="56"/>
<g>
	<g>
		<path fill-rule="evenodd" clip-rule="evenodd" fill="#627D53" d="M138.798,151.76c-0.211,0.873-0.345,1.772-0.645,2.611
			c-2.766,7.741-12.38,9.976-18.295,4.272c-5.06-4.879-4.174-13.513,1.772-17.264c6.234-3.934,14.222-1.121,16.601,5.863
			c0.259,0.76,0.381,1.566,0.567,2.351C138.798,150.314,138.798,151.038,138.798,151.76z M119.885,150.643
			c-0.096,4.135,3.352,7.734,7.508,7.838c4.337,0.105,7.939-3.257,8.044-7.51c0.108-4.401-3.256-7.919-7.688-8.038
			C123.527,142.82,119.986,146.292,119.885,150.643z"/>
		<path fill-rule="evenodd" clip-rule="evenodd" fill="#627D53" d="M83.314,149.594c0.244-0.937,0.391-1.911,0.746-2.804
			c1.584-3.971,4.499-6.391,8.731-7.055c4.521-0.711,8.827,1.393,11.177,5.321c0.027,0.044,0.038,0.099,0.079,0.211
			c-0.823,0.742-1.663,1.501-2.5,2.258c-1.136-2.409-3.108-4.026-5.905-4.492c-1.957-0.326-3.806,0.087-5.478,1.186
			c-3.386,2.226-4.454,6.757-2.524,10.285c1.725,3.156,6.847,5.811,11.541,2.401c0.389,0.39,0.746,0.828,1.184,1.164
			c0.436,0.336,0.951,0.567,1.48,0.871c-0.739,0.738-1.604,1.303-2.54,1.754c-6.545,3.156-14.201-0.572-15.748-7.666
			c-0.092-0.42-0.163-0.846-0.243-1.269C83.314,151.038,83.314,150.314,83.314,149.594z"/>
		<path fill-rule="evenodd" clip-rule="evenodd" fill="#627D53" d="M108.628,143.687c-1.311-0.825-2.573-1.597-3.809-2.406
			c-1.751-1.145-3.484-2.319-5.224-3.481c-2.138-1.429-2.616-3.993-1.711-6.136c0.58-1.377,1.536-2.431,2.793-3.219
			c3.883-2.435,7.761-4.877,11.654-7.294c2.511-1.558,5.311-0.894,6.911,1.597c0.185,0.29,0.34,0.603,0.551,0.87
			c1.012,1.286,1.171,2.722,0.903,4.298c-0.244,1.438-0.351,2.899-0.526,4.414c1.131,0.194,2.226,0.385,3.321,0.567
			c1.37,0.227,2.742,0.442,4.111,0.676c1.456,0.246,2.427,1.273,2.514,2.637c0.08,1.268-0.758,2.535-2.015,2.794
			c-0.662,0.136-1.395,0.042-2.078-0.064c-3.047-0.474-6.087-0.992-9.13-1.492c-1.614-0.266-2.592-1.488-2.501-3.132
			c0.012-0.206,0.02-0.414,0.035-0.734c-1.448,0.904-2.802,1.751-4.218,2.638c0.195,0.128,0.343,0.238,0.503,0.331
			c1.73,1.007,3.47,1.999,5.192,3.02c1.708,1.012,2.285,2.81,1.443,4.5c-0.182,0.365-0.45,0.701-0.733,0.996
			c-3.427,3.57-6.882,7.11-10.289,10.698c-2.066,2.178-5.179,1.16-5.826-1.242c-0.358-1.326,0.049-2.442,0.984-3.408
			c2.223-2.298,4.439-4.602,6.657-6.902C108.289,144.056,108.432,143.897,108.628,143.687z"/>
		<path fill-rule="evenodd" clip-rule="evenodd" fill="#627D53" d="M131.166,119.48c0.239,2.726-2.079,5.451-4.773,5.764
			c-3.366,0.389-6.065-2.073-6.31-4.973c-0.263-3.101,1.954-5.802,5.006-6.081C128.209,113.904,131.073,116.271,131.166,119.48z"/>
	</g>
	<g>
		<path fill-rule="evenodd" clip-rule="evenodd" fill="#627D53" d="M63.999,166.739c-2.031-0.471-4.063-0.94-6.095-1.408
			c-1.029-0.237-2.059-0.471-3.182-0.727c1.833-3.069,3.626-6.072,5.505-9.217c-0.816,0.29-1.483,0.568-2.176,0.759
			c-0.74,0.205-1.207,0.633-1.592,1.302c-1.413,2.447-2.885,4.859-4.339,7.283c-1.272,2.12-3.4,2.492-5.289,0.92
			c-2.271-1.891-4.542-3.78-6.8-5.687c-2.061-1.739-1.58-4.788,0.896-5.649c1.23-0.428,2.334-0.107,3.316,0.722
			c1.335,1.127,2.68,2.241,4.061,3.396c0.1-0.146,0.194-0.268,0.273-0.4c0.713-1.189,1.413-2.385,2.143-3.563
			c0.188-0.304,0.224-0.558,0.097-0.899c-1.346-3.625-2.67-7.258-4.016-10.884c-0.088-0.237-0.262-0.474-0.455-0.641
			c-2.203-1.888-4.405-3.775-6.636-5.63c-0.768-0.637-1.25-1.378-1.499-2.354c-0.863-3.4-1.789-6.783-2.677-10.177
			c-0.325-1.236,0.067-2.355,1.015-3.018c1.493-1.045,3.525-0.408,4.087,1.354c0.5,1.575,0.877,3.188,1.304,4.788
			c0.445,1.667,0.871,3.341,1.334,5.005c0.071,0.255,0.249,0.52,0.45,0.693c1.552,1.345,3.128,2.662,4.684,4.004
			c0.257,0.221,0.481,0.281,0.821,0.201c2.699-0.623,5.406-1.216,8.104-1.845c0.26-0.061,0.552-0.265,0.699-0.487
			c1.291-1.953,2.542-3.932,3.824-5.89c0.863-1.319,2.313-1.73,3.612-1.059c1.271,0.657,1.802,2.226,1.181,3.519
			c-0.116,0.242-0.259,0.473-0.406,0.699c-1.435,2.225-2.902,4.428-4.296,6.678c-0.659,1.06-1.547,1.597-2.761,1.722
			c-0.852,0.089-1.696,0.248-2.595,0.382c0.074,0.229,0.12,0.396,0.185,0.559c1.529,3.844,3.058,7.688,4.596,11.527
			c0.126,0.316,0.29,0.62,0.476,0.903c1.741,2.648,3.5,5.284,5.237,7.935c1.15,1.755,0.67,3.866-1.071,4.787
			c-0.297,0.158-0.621,0.265-0.932,0.396C64.72,166.739,64.359,166.739,63.999,166.739z"/>
		<path fill-rule="evenodd" clip-rule="evenodd" fill="#627D53" d="M51.564,111.377c0.975,0.212,1.904,0.519,2.651,1.229
			c1.326,1.258,1.841,2.801,1.421,4.563c-0.413,1.735-1.517,2.927-3.261,3.422c-2.113,0.601-4.278-0.252-5.337-2.053
			c-1.12-1.899-0.858-4.268,0.76-5.793c0.541-0.512,1.306-0.786,1.977-1.155c0.184-0.1,0.399-0.144,0.599-0.213
			C50.771,111.377,51.168,111.377,51.564,111.377z"/>
		<path fill-rule="evenodd" clip-rule="evenodd" fill="#627D53" d="M47.661,125.333c3.013-0.065,5.128,1.889,5.283,4.371
			c0.155,2.457-1.655,4.69-4.019,4.931c-0.204,0.021-0.472-0.041-0.626-0.168c-1.099-0.902-2.182-1.827-3.257-2.759
			c-0.137-0.119-0.245-0.31-0.296-0.487c-0.257-0.899-0.507-1.8-0.724-2.71c-0.048-0.202-0.01-0.472,0.088-0.656
			C44.974,126.212,46.37,125.409,47.661,125.333z"/>
	</g>
	<g>
		<path fill-rule="evenodd" clip-rule="evenodd" fill="#627D53" d="M134.728,104.641c-0.754,1.587-2.165,2.21-3.768,2.444
			c-1.904,0.279-3.583-0.249-5.024-1.572c-0.94-0.862-2.173-0.857-3.092,0.042c-2.18,2.132-6.028,2.106-8.171,0.03
			c-0.992-0.963-2.231-0.899-3.267,0.031c-2.386,2.146-5.61,2.152-8.006,0.02c-1.124-1.001-2.218-1.009-3.339-0.022
			c-2.429,2.133-5.593,2.144-8.008,0.03c-1.022-0.896-2.133-0.859-3.207,0.105c-2.413,2.17-5.936,2.188-8.265,0.018
			c-0.301-0.278-0.494-0.676-0.737-1.02c0-0.285,0-0.572,0-0.857c0.259-0.51,0.536-1.007,1.113-1.229
			c0.676-0.262,1.291-0.153,1.858,0.293c1.405,1.107,2.512,1.073,3.869-0.109c2.164-1.885,5.492-1.879,7.66,0.014
			c1.203,1.051,2.225,1.048,3.41-0.012c2.317-2.072,5.576-2.085,7.893-0.033c1.233,1.092,2.259,1.087,3.504-0.014
			c2.223-1.965,5.626-1.963,7.837,0.007c1.209,1.077,2.285,1.073,3.513-0.007c2.229-1.965,5.617-1.961,7.838,0.007
			c1.165,1.033,2.168,1.063,3.395,0.099c1.021-0.802,2.289-0.506,2.858,0.667c0.037,0.075,0.09,0.142,0.135,0.21
			C134.728,104.069,134.728,104.354,134.728,104.641z"/>
		<path fill-rule="evenodd" clip-rule="evenodd" fill="#627D53" d="M115.167,95.635c-1.006,0.962-1.959,1.876-2.922,2.78
			c-0.149,0.141-0.334,0.301-0.523,0.333c-1.594,0.288-3.043,0.883-4.31,1.978c-1.445-1.213-3.072-1.965-4.949-2.1
			c-1.843-0.129-3.574,0.254-5.228,1.115c3.49-3.332,6.98-6.664,10.542-10.064c-1.078-0.423-2.089-0.834-3.115-1.203
			c-0.146-0.053-0.375,0.059-0.543,0.141c-1.971,0.966-3.934,1.945-5.907,2.906c-1.057,0.516-2.129,0.202-2.633-0.739
			c-0.508-0.948-0.161-2.063,0.849-2.597c0.93-0.49,1.884-0.938,2.828-1.404c1.328-0.654,2.666-1.289,3.98-1.971
			c0.753-0.391,1.47-0.424,2.258-0.107c2.4,0.959,4.813,1.89,7.223,2.828c1.235,0.479,2.082,1.443,2.876,2.422
			c1.191,1.472,2.305,3.003,3.437,4.521c0.212,0.284,0.401,0.4,0.788,0.353c2.409-0.299,4.823-0.563,7.237-0.821
			c1.176-0.129,2.089,0.551,2.208,1.601c0.125,1.11-0.583,2.009-1.759,2.147c-2.908,0.345-5.818,0.658-8.728,0.988
			c-0.804,0.092-1.427-0.207-1.904-0.845C116.316,97.153,115.755,96.414,115.167,95.635z"/>
		<path fill-rule="evenodd" clip-rule="evenodd" fill="#627D53" d="M123.597,85.401c0.022,2.455-1.98,4.444-4.499,4.469
			c-2.44,0.025-4.437-1.978-4.483-4.498c-0.044-2.407,1.992-4.428,4.513-4.479C121.541,80.845,123.574,82.897,123.597,85.401z"/>
	</g>
	<g>
		<path fill-rule="evenodd" clip-rule="evenodd" fill="#627D53" d="M22.593,118.874c-0.766-0.322-1.434-0.751-1.721-1.59
			c-0.229-0.671-0.132-1.311,0.141-1.949c1.373-3.202,2.74-6.408,4.101-9.617c0.096-0.225,0.172-0.48,0.173-0.724
			c0.012-5.589,0.013-11.177,0.015-16.765c0-0.071-0.008-0.143-0.012-0.215c-0.047-0.026-0.094-0.055-0.141-0.08
			c-0.104,0.197-0.267,0.385-0.301,0.592c-0.361,2.193-0.694,4.39-1.049,6.583c-0.193,1.191-1.098,1.889-2.209,1.73
			c-1.032-0.147-1.75-1.078-1.588-2.216c0.377-2.646,0.806-5.285,1.226-7.926c0.093-0.584,0.443-1.012,0.93-1.342
			c0.974-0.657,1.949-1.313,2.904-1.996c0.202-0.145,0.381-0.383,0.467-0.615c0.569-1.54,1.927-2.573,3.582-2.616
			c2.277-0.06,4.556-0.087,6.835-0.103c0.397-0.004,0.668-0.131,0.942-0.408c2.019-2.047,4.04-4.094,6.094-6.105
			c0.342-0.336,0.817-0.621,1.28-0.733c0.799-0.195,1.575,0.239,1.962,0.937c0.401,0.723,0.329,1.583-0.264,2.211
			c-0.868,0.922-1.775,1.807-2.668,2.703c-1.454,1.463-2.918,2.914-4.359,4.389c-0.525,0.539-1.124,0.809-1.877,0.813
			c-0.718,0.007-1.435,0.073-2.201,0.116c0,0.214,0,0.39,0,0.566c0.001,4.015-0.003,8.029,0.015,12.044
			c0.002,0.321,0.107,0.678,0.266,0.959c0.842,1.496,1.699,2.983,2.586,4.452c0.682,1.128,0.605,2.165-0.175,3.215
			c-1.987,2.668-3.945,5.357-5.922,8.032c-0.914,1.237-2.423,1.525-3.494,0.644c-0.336-0.277-0.568-0.681-0.855-1.037
			c-0.567,1.325-1.178,2.655-1.707,4.016c-0.383,0.987-0.959,1.722-1.998,2.036C23.244,118.874,22.918,118.874,22.593,118.874z
			 M29.185,108.271c0.042,0.015,0.084,0.03,0.127,0.046c1.175-1.598,2.354-3.193,3.517-4.8c0.07-0.098,0.073-0.314,0.013-0.425
			c-0.41-0.742-0.839-1.473-1.276-2.199c-0.064-0.105-0.204-0.225-0.315-0.232c-0.387-0.03-0.776-0.013-1.148-0.013
			C29.868,103.254,30.568,105.878,29.185,108.271z"/>
		<path fill-rule="evenodd" clip-rule="evenodd" fill="#627D53" d="M52,63.315c1.188,0.271,2.224,0.777,3.001,1.769
			c1.467,1.874,1.126,4.63-0.797,6.195c-1.804,1.468-4.625,1.208-6.099-0.561c-2.274-2.729-0.875-6.648,2.613-7.323
			c0.068-0.014,0.131-0.054,0.196-0.08C51.277,63.315,51.639,63.315,52,63.315z"/>
		<path fill-rule="evenodd" clip-rule="evenodd" fill="#627D53" d="M65.188,70.827c1.952,0,3.903-0.002,5.855,0.002
			c1.271,0.002,1.831,0.627,1.664,1.876c-0.577,4.331-1.158,8.66-1.745,12.989c-0.157,1.152-0.628,1.553-1.809,1.554
			c-2.692,0.003-5.385,0.005-8.077,0c-1.187-0.003-1.648-0.445-1.803-1.625c-0.561-4.241-1.129-8.481-1.708-12.72
			c-0.2-1.467,0.299-2.074,1.768-2.076C61.285,70.825,63.236,70.827,65.188,70.827z M60.444,73.619
			c0.491,3.649,0.974,7.24,1.457,10.829c2.179,0,4.302,0,6.447,0c0.486-3.623,0.967-7.211,1.453-10.829
			C66.664,73.619,63.596,73.619,60.444,73.619z"/>
		<path fill-rule="evenodd" clip-rule="evenodd" fill="#627D53" d="M34.646,74.629c0.012,2.513-2.071,4.601-4.574,4.587
			c-2.5-0.013-4.544-2.057-4.555-4.553c-0.01-2.509,2.082-4.609,4.574-4.594C32.584,70.085,34.633,72.136,34.646,74.629z"/>
	</g>
</g>
<g>
	<path fill="#FFFFFF" d="M37.239,33.365c-0.52-0.577-0.779-1.403-0.779-2.48v-0.76h1.976v0.912c0,0.861,0.361,1.292,1.083,1.292
		c0.354,0,0.624-0.104,0.808-0.313c0.183-0.209,0.275-0.548,0.275-1.017c0-0.558-0.127-1.048-0.38-1.473
		c-0.254-0.424-0.722-0.934-1.406-1.529c-0.861-0.76-1.463-1.446-1.805-2.062c-0.342-0.614-0.513-1.308-0.513-2.08
		c0-1.052,0.266-1.865,0.798-2.441c0.532-0.576,1.305-0.865,2.318-0.865c1,0,1.758,0.289,2.271,0.865
		c0.513,0.576,0.77,1.402,0.77,2.479v0.551h-1.976V23.76c0-0.455-0.089-0.788-0.266-0.997c-0.178-0.209-0.437-0.313-0.779-0.313
		c-0.697,0-1.045,0.424-1.045,1.273c0,0.48,0.13,0.93,0.39,1.349c0.259,0.418,0.731,0.925,1.416,1.52
		c0.874,0.761,1.476,1.45,1.805,2.071c0.33,0.621,0.494,1.35,0.494,2.186c0,1.089-0.269,1.925-0.808,2.508
		c-0.538,0.582-1.32,0.873-2.346,0.873C38.524,34.229,37.758,33.941,37.239,33.365z"/>
	<path fill="#FFFFFF" d="M43.889,20.739h3.078c1.039,0,1.817,0.278,2.337,0.836s0.779,1.374,0.779,2.45v1.312
		c0,1.077-0.26,1.894-0.779,2.451s-1.298,0.836-2.337,0.836h-0.988v5.415h-2.09V20.739z M46.967,26.725
		c0.342,0,0.599-0.096,0.77-0.285c0.171-0.19,0.256-0.514,0.256-0.969v-1.578c0-0.455-0.085-0.778-0.256-0.969
		c-0.171-0.189-0.427-0.285-0.77-0.285h-0.988v4.086H46.967z"/>
	<path fill="#FFFFFF" d="M51.887,33.355c-0.544-0.583-0.817-1.406-0.817-2.471v-6.992c0-1.063,0.272-1.887,0.817-2.47
		c0.544-0.582,1.33-0.874,2.356-0.874c1.026,0,1.812,0.292,2.356,0.874c0.545,0.583,0.817,1.406,0.817,2.47v6.992
		c0,1.064-0.272,1.888-0.817,2.471c-0.544,0.582-1.33,0.873-2.356,0.873C53.217,34.229,52.432,33.938,51.887,33.355z M55.326,31.018
		V23.76c0-0.873-0.361-1.311-1.083-1.311c-0.722,0-1.083,0.438-1.083,1.311v7.258c0,0.875,0.361,1.312,1.083,1.312
		C54.965,32.329,55.326,31.893,55.326,31.018z"/>
	<path fill="#FFFFFF" d="M58.822,20.739h3.097c1.077,0,1.862,0.25,2.356,0.751c0.494,0.5,0.741,1.27,0.741,2.308v0.817
		c0,1.381-0.456,2.254-1.368,2.622v0.038c0.506,0.152,0.865,0.463,1.074,0.931c0.209,0.469,0.313,1.096,0.313,1.881v2.337
		c0,0.381,0.012,0.688,0.038,0.922s0.089,0.465,0.19,0.693h-2.128c-0.076-0.215-0.126-0.418-0.152-0.607
		c-0.025-0.19-0.038-0.533-0.038-1.026v-2.433c0-0.607-0.098-1.031-0.294-1.272s-0.535-0.361-1.017-0.361h-0.722v5.7h-2.09V20.739z
		 M61.672,26.439c0.418,0,0.731-0.107,0.94-0.323s0.313-0.576,0.313-1.083v-1.026c0-0.481-0.085-0.829-0.256-1.045
		c-0.171-0.215-0.44-0.323-0.808-0.323h-0.95v3.801H61.672z"/>
	<path fill="#FFFFFF" d="M68.076,22.639h-2.185v-1.899h6.46v1.899h-2.185v11.4h-2.09V22.639z"/>
	<path fill="#FFFFFF" d="M76.397,20.739h5.7v1.899h-3.61v3.516h2.869v1.9h-2.869v4.084h3.61v1.9h-5.7V20.739z"/>
	<path fill="#FFFFFF" d="M82.743,20.739h2.109l1.368,10.317h0.038l1.368-10.317h1.919l-2.014,13.3h-2.774L82.743,20.739z"/>
	<path fill="#FFFFFF" d="M90.552,20.739h5.7v1.899h-3.61v3.516h2.869v1.9h-2.869v4.084h3.61v1.9h-5.7V20.739z"/>
	<path fill="#FFFFFF" d="M97.449,20.739h2.622l2.033,7.961h0.038v-7.961h1.862v13.3h-2.147l-2.508-9.709h-0.038v9.709h-1.862V20.739
		z"/>
	<path fill="#FFFFFF" d="M107.196,22.639h-2.185v-1.899h6.46v1.899h-2.185v11.4h-2.09V22.639z"/>
	<path fill="#FFFFFF" d="M112.896,33.365c-0.52-0.577-0.779-1.403-0.779-2.48v-0.76h1.976v0.912c0,0.861,0.361,1.292,1.083,1.292
		c0.354,0,0.624-0.104,0.808-0.313c0.183-0.209,0.275-0.548,0.275-1.017c0-0.558-0.127-1.048-0.38-1.473
		c-0.254-0.424-0.722-0.934-1.406-1.529c-0.861-0.76-1.463-1.446-1.805-2.062c-0.342-0.614-0.513-1.308-0.513-2.08
		c0-1.052,0.266-1.865,0.798-2.441c0.532-0.576,1.305-0.865,2.318-0.865c1,0,1.758,0.289,2.271,0.865
		c0.513,0.576,0.77,1.402,0.77,2.479v0.551h-1.976V23.76c0-0.455-0.089-0.788-0.266-0.997c-0.178-0.209-0.437-0.313-0.779-0.313
		c-0.697,0-1.045,0.424-1.045,1.273c0,0.48,0.13,0.93,0.39,1.349c0.259,0.418,0.731,0.925,1.416,1.52
		c0.874,0.761,1.476,1.45,1.805,2.071c0.33,0.621,0.494,1.35,0.494,2.186c0,1.089-0.269,1.925-0.808,2.508
		c-0.538,0.582-1.32,0.873-2.346,0.873C114.181,34.229,113.415,33.941,112.896,33.365z"/>
</g>
</svg>
