<?xml version="1.0" encoding="utf-8"?>
<!-- Generator: Adobe Illustrator 16.0.0, SVG Export Plug-In . SVG Version: 6.00 Build 0)  -->
<!DOCTYPE svg PUBLIC "-//W3C//DTD SVG 1.1//EN" "http://www.w3.org/Graphics/SVG/1.1/DTD/svg11.dtd">
<svg version="1.1" id="Layer_1" xmlns="http://www.w3.org/2000/svg" xmlns:xlink="http://www.w3.org/1999/xlink" x="0px" y="0px"
	 width="157px" height="179px" viewBox="0 0 157 179" enable-background="new 0 0 157 179" xml:space="preserve">
<rect x="1" y="1" fill-rule="evenodd" clip-rule="evenodd" fill="#FFFFFF" stroke="#627D53" stroke-width="2" stroke-miterlimit="10" width="155" height="177"/>
<rect x="2" y="1" fill-rule="evenodd" clip-rule="evenodd" fill="#627D53" width="155" height="56"/>
<g>
	<path fill="#FFFFFF" d="M33.883,32.496c-0.52-0.577-0.779-1.403-0.779-2.48v-0.76h1.976v0.912c0,0.861,0.361,1.292,1.083,1.292
		c0.354,0,0.624-0.104,0.808-0.313c0.183-0.209,0.275-0.548,0.275-1.017c0-0.558-0.127-1.048-0.38-1.473
		c-0.254-0.424-0.722-0.934-1.406-1.529c-0.861-0.76-1.463-1.446-1.805-2.062c-0.342-0.614-0.513-1.308-0.513-2.08
		c0-1.052,0.266-1.865,0.798-2.441c0.532-0.576,1.305-0.865,2.318-0.865c1,0,1.758,0.289,2.271,0.865
		c0.513,0.576,0.77,1.402,0.77,2.479v0.551h-1.976v-0.684c0-0.455-0.089-0.788-0.266-0.997c-0.178-0.209-0.437-0.313-0.779-0.313
		c-0.697,0-1.045,0.424-1.045,1.273c0,0.48,0.13,0.93,0.39,1.349c0.259,0.418,0.731,0.925,1.416,1.52
		c0.874,0.761,1.476,1.45,1.805,2.071c0.33,0.621,0.494,1.35,0.494,2.186c0,1.089-0.269,1.925-0.808,2.508
		c-0.538,0.582-1.32,0.873-2.346,0.873C35.169,33.359,34.403,33.072,33.883,32.496z"/>
	<path fill="#FFFFFF" d="M44.941,33.132c-0.393,0.151-0.855,0.228-1.387,0.228c-1.026,0-1.812-0.291-2.356-0.873
		c-0.544-0.583-0.817-1.406-0.817-2.471v-6.992c0-1.063,0.272-1.887,0.817-2.47c0.544-0.582,1.33-0.874,2.356-0.874
		c1.026,0,1.812,0.292,2.356,0.874c0.545,0.583,0.817,1.406,0.817,2.47v6.992c0,0.887-0.197,1.615-0.589,2.186
		c0.076,0.127,0.171,0.209,0.285,0.246c0.114,0.039,0.278,0.058,0.494,0.058h0.323v1.899h-0.551
		C45.739,34.404,45.157,33.98,44.941,33.132z M44.637,30.148v-7.258c0-0.873-0.361-1.311-1.083-1.311
		c-0.722,0-1.083,0.438-1.083,1.311v7.258c0,0.875,0.361,1.312,1.083,1.312C44.276,31.46,44.637,31.023,44.637,30.148z"/>
	<path fill="#FFFFFF" d="M48.855,32.496c-0.532-0.577-0.798-1.403-0.798-2.48V19.87h2.09v10.298c0,0.456,0.092,0.785,0.275,0.988
		s0.447,0.304,0.789,0.304c0.342,0,0.605-0.101,0.789-0.304s0.275-0.532,0.275-0.988V19.87h2.014v10.146
		c0,1.077-0.266,1.903-0.798,2.48c-0.532,0.576-1.305,0.863-2.318,0.863S49.388,33.072,48.855,32.496z"/>
	<path fill="#FFFFFF" d="M57.348,19.87h2.831l2.166,13.3h-2.09l-0.38-2.641v0.037H57.5l-0.38,2.604h-1.938L57.348,19.87z
		 M59.628,28.762l-0.931-6.574h-0.038l-0.912,6.574H59.628z"/>
	<path fill="#FFFFFF" d="M63.713,32.496c-0.52-0.577-0.779-1.403-0.779-2.48v-0.76h1.976v0.912c0,0.861,0.361,1.292,1.083,1.292
		c0.354,0,0.624-0.104,0.808-0.313c0.183-0.209,0.275-0.548,0.275-1.017c0-0.558-0.127-1.048-0.38-1.473
		c-0.254-0.424-0.722-0.934-1.406-1.529c-0.861-0.76-1.463-1.446-1.805-2.062c-0.342-0.614-0.513-1.308-0.513-2.08
		c0-1.052,0.266-1.865,0.798-2.441c0.532-0.576,1.305-0.865,2.318-0.865c1,0,1.758,0.289,2.271,0.865
		c0.513,0.576,0.77,1.402,0.77,2.479v0.551h-1.976v-0.684c0-0.455-0.089-0.788-0.266-0.997c-0.178-0.209-0.437-0.313-0.779-0.313
		c-0.697,0-1.045,0.424-1.045,1.273c0,0.48,0.13,0.93,0.39,1.349c0.259,0.418,0.731,0.925,1.416,1.52
		c0.874,0.761,1.476,1.45,1.805,2.071c0.33,0.621,0.494,1.35,0.494,2.186c0,1.089-0.269,1.925-0.808,2.508
		c-0.538,0.582-1.32,0.873-2.346,0.873C64.999,33.359,64.232,33.072,63.713,32.496z"/>
	<path fill="#FFFFFF" d="M70.363,19.87h2.09v5.415h2.242V19.87h2.09v13.3h-2.09v-5.984h-2.242v5.984h-2.09V19.87z"/>
	<path fill="#FFFFFF" d="M82.038,32.505c-0.526-0.569-0.789-1.374-0.789-2.413v-7.145c0-1.037,0.263-1.842,0.789-2.412
		c0.525-0.57,1.289-0.855,2.29-0.855c1,0,1.764,0.285,2.29,0.855c0.525,0.57,0.788,1.375,0.788,2.412v1.406H85.43v-1.539
		c0-0.822-0.349-1.234-1.045-1.234c-0.696,0-1.045,0.412-1.045,1.234v7.43c0,0.811,0.349,1.216,1.045,1.216
		c0.697,0,1.045-0.405,1.045-1.216v-2.033h1.976v1.881c0,1.039-0.263,1.844-0.788,2.413c-0.526,0.569-1.289,0.854-2.29,0.854
		C83.327,33.359,82.563,33.074,82.038,32.505z"/>
	<path fill="#FFFFFF" d="M89.362,32.486c-0.544-0.583-0.817-1.406-0.817-2.471v-6.992c0-1.063,0.272-1.887,0.817-2.47
		c0.544-0.582,1.33-0.874,2.356-0.874c1.026,0,1.812,0.292,2.356,0.874c0.545,0.583,0.817,1.406,0.817,2.47v6.992
		c0,1.064-0.272,1.888-0.817,2.471c-0.544,0.582-1.33,0.873-2.356,0.873C90.692,33.359,89.907,33.068,89.362,32.486z M92.801,30.148
		v-7.258c0-0.873-0.361-1.311-1.083-1.311c-0.722,0-1.083,0.438-1.083,1.311v7.258c0,0.875,0.361,1.312,1.083,1.312
		C92.44,31.46,92.801,31.023,92.801,30.148z"/>
	<path fill="#FFFFFF" d="M97.02,32.496c-0.532-0.577-0.798-1.403-0.798-2.48V19.87h2.09v10.298c0,0.456,0.092,0.785,0.275,0.988
		s0.447,0.304,0.789,0.304c0.342,0,0.605-0.101,0.789-0.304s0.275-0.532,0.275-0.988V19.87h2.014v10.146
		c0,1.077-0.266,1.903-0.798,2.48c-0.532,0.576-1.305,0.863-2.318,0.863S97.552,33.072,97.02,32.496z"/>
	<path fill="#FFFFFF" d="M103.935,19.87h3.097c1.077,0,1.862,0.25,2.356,0.751c0.494,0.5,0.741,1.27,0.741,2.308v0.817
		c0,1.381-0.456,2.254-1.368,2.622v0.038c0.506,0.152,0.865,0.463,1.074,0.931c0.209,0.469,0.313,1.096,0.313,1.881v2.337
		c0,0.381,0.012,0.688,0.038,0.922s0.089,0.465,0.19,0.693h-2.128c-0.076-0.215-0.126-0.418-0.152-0.607
		c-0.025-0.19-0.038-0.533-0.038-1.026v-2.433c0-0.607-0.098-1.031-0.294-1.272s-0.535-0.361-1.017-0.361h-0.722v5.7h-2.09V19.87z
		 M106.785,25.57c0.418,0,0.731-0.107,0.94-0.323s0.313-0.576,0.313-1.083v-1.026c0-0.481-0.085-0.829-0.256-1.045
		c-0.171-0.215-0.44-0.323-0.808-0.323h-0.95v3.801H106.785z"/>
	<path fill="#FFFFFF" d="M113.188,21.77h-2.185V19.87h6.46v1.899h-2.185v11.4h-2.09V21.77z"/>
	<path fill="#FFFFFF" d="M118.888,32.496c-0.52-0.577-0.779-1.403-0.779-2.48v-0.76h1.976v0.912c0,0.861,0.361,1.292,1.083,1.292
		c0.354,0,0.624-0.104,0.808-0.313c0.183-0.209,0.275-0.548,0.275-1.017c0-0.558-0.127-1.048-0.38-1.473
		c-0.254-0.424-0.722-0.934-1.406-1.529c-0.861-0.76-1.463-1.446-1.805-2.062c-0.342-0.614-0.513-1.308-0.513-2.08
		c0-1.052,0.266-1.865,0.798-2.441c0.532-0.576,1.305-0.865,2.318-0.865c1,0,1.758,0.289,2.271,0.865
		c0.513,0.576,0.77,1.402,0.77,2.479v0.551h-1.976v-0.684c0-0.455-0.089-0.788-0.266-0.997c-0.178-0.209-0.437-0.313-0.779-0.313
		c-0.697,0-1.045,0.424-1.045,1.273c0,0.48,0.13,0.93,0.39,1.349c0.259,0.418,0.731,0.925,1.416,1.52
		c0.874,0.761,1.476,1.45,1.805,2.071c0.33,0.621,0.494,1.35,0.494,2.186c0,1.089-0.269,1.925-0.808,2.508
		c-0.538,0.582-1.32,0.873-2.346,0.873C120.174,33.359,119.408,33.072,118.888,32.496z"/>
</g>
<g>
	<g>
		<path fill-rule="evenodd" clip-rule="evenodd" fill="#394730" d="M42.928,92.231c2.892,0.084,5.269,1.063,7.023,3.237
			c2.366,2.931,3.767,6.265,4.406,9.931c0.549,3.149,1.354,6.232,3.085,9.009c0.237,0.38,0.448,0.675,1.022,0.655
			c0.33-0.013,0.734,0.266,1,0.518c1.659,1.568,3.295,3.161,4.927,4.757c0.792,0.773,0.785,1.413,0.016,2.184
			c-0.202,0.201-0.403,0.403-0.617,0.594c-0.633,0.56-1.366,0.59-1.97,0.014c-1.747-1.664-3.477-3.345-5.197-5.036
			c-0.19-0.188-0.403-0.496-0.377-0.723c0.084-0.717-0.403-0.98-0.9-1.268c-2.708-1.566-5.692-2.374-8.757-2.895
			c-3.499-0.597-6.722-1.793-9.674-3.716c-4.978-3.241-5.174-9.174-2.151-13.115C36.804,93.715,39.576,92.335,42.928,92.231z
			 M42.102,95.454c-0.53,0.486-1.005,0.923-1.428,1.313c0.474,0.515,0.923,1,1.343,1.457c0.504-0.508,0.967-0.977,1.445-1.457
			C43.031,96.35,42.566,95.901,42.102,95.454z M46.444,95.474c-0.433,0.426-0.908,0.893-1.35,1.328
			c0.472,0.492,0.929,0.971,1.413,1.475c0.494-0.5,0.948-0.958,1.447-1.463C47.473,96.387,46.973,95.942,46.444,95.474z
			 M38.5,98.871c0.478,0.53,0.921,1.021,1.334,1.479c0.509-0.463,0.986-0.898,1.441-1.313c-0.478-0.484-0.946-0.962-1.413-1.436
			C39.371,98.06,38.881,98.516,38.5,98.871z M44.305,97.672c-0.491,0.431-0.992,0.869-1.345,1.178
			c0.488,0.526,0.935,1.01,1.312,1.417c0.473-0.419,0.953-0.844,1.469-1.3C45.25,98.524,44.772,98.093,44.305,97.672z
			 M37.472,102.397c0.552-0.464,1.067-0.898,1.461-1.229c-0.46-0.477-0.902-0.935-1.221-1.264c-0.493,0.404-1.006,0.825-1.457,1.195
			C36.73,101.605,37.171,102.075,37.472,102.397z M40.685,101.046c0.484,0.525,0.932,1.01,1.337,1.449
			c0.502-0.498,0.966-0.957,1.352-1.34c-0.43-0.443-0.886-0.913-1.357-1.398C41.568,100.19,41.109,100.637,40.685,101.046z
			 M46.465,102.551c0.497-0.516,0.955-0.992,1.375-1.429c-0.449-0.422-0.932-0.873-1.291-1.21c-0.475,0.397-0.982,0.825-1.464,1.229
			C45.544,101.608,45.978,102.053,46.465,102.551z M41.234,103.247c-0.44-0.431-0.914-0.895-1.321-1.293
			c-0.517,0.446-1.021,0.883-1.464,1.266c0.488,0.517,0.931,0.986,1.402,1.485C40.319,104.211,40.761,103.745,41.234,103.247z
			 M45.711,103.257c-0.474-0.46-0.947-0.921-1.403-1.364c-0.507,0.466-0.998,0.913-1.461,1.338c0.494,0.511,0.954,0.984,1.443,1.491
			C44.773,104.222,45.22,103.763,45.711,103.257z M47.356,103.162c0.472,0.526,0.913,1.019,1.323,1.478
			c0.513-0.469,0.99-0.902,1.505-1.371c-0.497-0.459-0.988-0.914-1.444-1.334C48.251,102.368,47.75,102.813,47.356,103.162z
			 M37.637,104c-0.486,0.473-0.963,0.936-1.413,1.373c0.483,0.503,0.941,0.979,1.347,1.401c0.509-0.495,0.98-0.953,1.467-1.426
			C38.593,104.921,38.13,104.474,37.637,104z M42.074,103.993c-0.496,0.48-0.974,0.943-1.415,1.371
			c0.482,0.506,0.938,0.984,1.348,1.416c0.504-0.507,0.967-0.973,1.438-1.446C43.024,104.923,42.564,104.472,42.074,103.993z
			 M46.553,104.103c-0.516,0.445-1.019,0.88-1.482,1.28c0.493,0.513,0.94,0.977,1.419,1.474c0.494-0.507,0.955-0.979,1.444-1.482
			C47.471,104.948,46.997,104.511,46.553,104.103z M44.279,106.146c-0.485,0.474-0.962,0.938-1.413,1.378
			c0.479,0.498,0.936,0.975,1.347,1.403c0.509-0.499,0.979-0.959,1.463-1.435C45.235,107.067,44.771,106.621,44.279,106.146z
			 M48.657,108.938c0.503-0.504,0.968-0.971,1.353-1.356c-0.439-0.43-0.909-0.89-1.347-1.319c-0.447,0.407-0.925,0.841-1.375,1.253
			C47.775,108.021,48.234,108.498,48.657,108.938z M46.515,108.321c-0.504,0.469-0.992,0.922-1.479,1.374
			c1.473,1.623,1.473,1.623,2.864,0.085c0.014-0.016,0.014-0.043,0.007-0.02C47.429,109.268,46.969,108.79,46.515,108.321z
			 M49.527,105.345c0.489,0.518,0.943,0.997,1.395,1.473c1.575-1.291,1.573-1.498,0.008-2.785
			C50.441,104.49,49.953,104.946,49.527,105.345z M41.266,107.606c-0.5-0.458-0.998-0.913-1.541-1.409
			c-0.195,0.202-0.403,0.47-0.663,0.675c-0.258,0.205-0.568,0.348-0.843,0.51C39.814,109.059,39.968,109.058,41.266,107.606z
			 M47.349,98.88c0.479,0.527,0.922,1.017,1.32,1.454c0.409-0.365,0.79-0.706,1.212-1.083c-0.366-0.564-0.733-1.129-1.082-1.665
			C48.233,98.091,47.737,98.534,47.349,98.88z M49.47,109.715c1.045,1.115,1.672,0.952,2.274-0.474
			c-0.289-0.328-0.555-0.629-0.806-0.913C50.448,108.792,49.982,109.231,49.47,109.715z M36.873,103.245
			c-0.469-0.426-0.962-0.873-1.456-1.322c-0.538,0.484-0.484,1.525,0.172,2.641C36.01,104.131,36.424,103.706,36.873,103.245z
			 M37.603,98.286c0.517-0.535,0.973-1.009,1.435-1.487c-0.229-0.246-0.485-0.521-0.796-0.854c-0.529,0.525-0.992,0.987-1.472,1.466
			C37.072,97.728,37.332,98.002,37.603,98.286z M42.833,94.595c0.521,0.535,0.982,1.008,1.336,1.372
			c0.445-0.343,0.887-0.683,1.414-1.089C44.592,94.637,43.768,94.212,42.833,94.595z M40.853,109.394
			c1.063-0.008,1.688,1.032,2.661,0.427c-0.518-0.542-0.977-1.022-1.427-1.493C41.735,108.632,41.39,108.931,40.853,109.394z
			 M52.117,112.327c0.681,0.244,1.325,0.477,2.101,0.756c-0.298-0.771-0.544-1.409-0.788-2.04
			C52.971,111.492,52.569,111.884,52.117,112.327z M50.912,102.507c0.071-0.025,0.143-0.051,0.215-0.075
			c0.057-0.796-0.45-1.423-0.752-2.202c-0.361,0.334-0.639,0.593-0.903,0.838C49.986,101.583,50.449,102.045,50.912,102.507z
			 M36.677,98.981c-0.104-0.145-0.296-0.413-0.573-0.798c-0.334,0.824-0.59,1.457-0.846,2.089c0.036,0.01,0.073,0.02,0.109,0.027
			C35.828,99.837,36.288,99.374,36.677,98.981z M39.714,96.041c0.579-0.489,1.06-0.896,1.541-1.302
			c-0.03-0.049-0.061-0.098-0.09-0.146c-0.66,0.259-1.32,0.519-2.001,0.787C39.417,95.685,39.598,95.901,39.714,96.041z"/>
		<path fill-rule="evenodd" clip-rule="evenodd" fill="#FFFFFF" d="M42.102,95.454c0.464,0.447,0.929,0.896,1.361,1.313
			c-0.478,0.48-0.941,0.949-1.445,1.457c-0.42-0.457-0.87-0.942-1.343-1.457C41.097,96.377,41.572,95.94,42.102,95.454z"/>
		<path fill-rule="evenodd" clip-rule="evenodd" fill="#FFFFFF" d="M46.444,95.474c0.529,0.469,1.029,0.913,1.509,1.34
			c-0.499,0.505-0.953,0.963-1.447,1.463c-0.483-0.504-0.941-0.982-1.413-1.475C45.536,96.366,46.011,95.899,46.444,95.474z"/>
		<path fill-rule="evenodd" clip-rule="evenodd" fill="#FFFFFF" d="M38.5,98.871c0.381-0.355,0.872-0.812,1.363-1.269
			c0.467,0.474,0.936,0.951,1.413,1.436c-0.455,0.414-0.933,0.85-1.441,1.313C39.42,99.893,38.977,99.401,38.5,98.871z"/>
		<path fill-rule="evenodd" clip-rule="evenodd" fill="#FFFFFF" d="M44.305,97.672c0.467,0.421,0.945,0.853,1.436,1.295
			c-0.516,0.456-0.996,0.881-1.469,1.3c-0.377-0.407-0.824-0.891-1.312-1.417C43.313,98.541,43.814,98.103,44.305,97.672z"/>
		<path fill-rule="evenodd" clip-rule="evenodd" fill="#FFFFFF" d="M37.472,102.397c-0.301-0.322-0.742-0.792-1.216-1.298
			c0.451-0.37,0.964-0.791,1.457-1.195c0.318,0.329,0.76,0.787,1.221,1.264C38.539,101.499,38.024,101.934,37.472,102.397z"/>
		<path fill-rule="evenodd" clip-rule="evenodd" fill="#FFFFFF" d="M40.685,101.046c0.424-0.409,0.883-0.855,1.332-1.289
			c0.471,0.485,0.927,0.955,1.357,1.398c-0.386,0.383-0.85,0.842-1.352,1.34C41.616,102.056,41.169,101.571,40.685,101.046z"/>
		<path fill-rule="evenodd" clip-rule="evenodd" fill="#FFFFFF" d="M46.465,102.551c-0.487-0.498-0.921-0.942-1.379-1.409
			c0.481-0.404,0.989-0.832,1.464-1.229c0.359,0.337,0.842,0.788,1.291,1.21C47.42,101.559,46.962,102.035,46.465,102.551z"/>
		<path fill-rule="evenodd" clip-rule="evenodd" fill="#FFFFFF" d="M41.234,103.247c-0.473,0.498-0.915,0.964-1.383,1.458
			c-0.471-0.499-0.914-0.969-1.402-1.485c0.443-0.383,0.947-0.819,1.464-1.266C40.32,102.353,40.794,102.816,41.234,103.247z"/>
		<path fill-rule="evenodd" clip-rule="evenodd" fill="#FFFFFF" d="M45.711,103.257c-0.491,0.506-0.938,0.965-1.421,1.465
			c-0.489-0.507-0.949-0.98-1.443-1.491c0.463-0.425,0.954-0.872,1.461-1.338C44.764,102.336,45.237,102.797,45.711,103.257z"/>
		<path fill-rule="evenodd" clip-rule="evenodd" fill="#FFFFFF" d="M47.356,103.162c0.394-0.35,0.895-0.794,1.384-1.228
			c0.456,0.42,0.947,0.875,1.444,1.334c-0.516,0.469-0.993,0.902-1.505,1.371C48.27,104.181,47.828,103.688,47.356,103.162z"/>
		<path fill-rule="evenodd" clip-rule="evenodd" fill="#FFFFFF" d="M37.637,104c0.493,0.474,0.957,0.921,1.401,1.349
			c-0.487,0.473-0.958,0.931-1.467,1.426c-0.405-0.422-0.863-0.898-1.347-1.401C36.673,104.936,37.15,104.473,37.637,104z"/>
		<path fill-rule="evenodd" clip-rule="evenodd" fill="#FFFFFF" d="M42.074,103.993c0.49,0.479,0.95,0.93,1.372,1.341
			c-0.471,0.474-0.934,0.939-1.438,1.446c-0.411-0.432-0.866-0.91-1.348-1.416C41.101,104.937,41.578,104.474,42.074,103.993z"/>
		<path fill-rule="evenodd" clip-rule="evenodd" fill="#FFFFFF" d="M46.553,104.103c0.444,0.408,0.918,0.846,1.381,1.271
			c-0.49,0.503-0.95,0.976-1.444,1.482c-0.479-0.497-0.926-0.961-1.419-1.474C45.534,104.982,46.037,104.548,46.553,104.103z"/>
		<path fill-rule="evenodd" clip-rule="evenodd" fill="#FFFFFF" d="M44.279,106.146c0.492,0.475,0.956,0.921,1.397,1.347
			c-0.484,0.476-0.954,0.936-1.463,1.435c-0.411-0.429-0.869-0.905-1.347-1.403C43.317,107.084,43.794,106.62,44.279,106.146z"/>
		<path fill-rule="evenodd" clip-rule="evenodd" fill="#FFFFFF" d="M48.657,108.938c-0.423-0.439-0.882-0.917-1.37-1.423
			c0.451-0.412,0.928-0.846,1.375-1.253c0.438,0.43,0.908,0.89,1.347,1.319C49.625,107.967,49.16,108.434,48.657,108.938z"/>
		<path fill-rule="evenodd" clip-rule="evenodd" fill="#FFFFFF" d="M46.515,108.321c0.454,0.469,0.915,0.946,1.392,1.439
			c0.007-0.023,0.007,0.004-0.007,0.02c-1.391,1.538-1.391,1.538-2.864-0.085C45.522,109.243,46.011,108.79,46.515,108.321z"/>
		<path fill-rule="evenodd" clip-rule="evenodd" fill="#FFFFFF" d="M49.527,105.345c0.425-0.398,0.914-0.854,1.404-1.313
			c1.564,1.287,1.566,1.494-0.009,2.785C50.471,106.342,50.017,105.862,49.527,105.345z"/>
		<path fill-rule="evenodd" clip-rule="evenodd" fill="#FFFFFF" d="M41.266,107.606c-1.298,1.451-1.451,1.452-3.047-0.225
			c0.274-0.162,0.584-0.305,0.843-0.51c0.26-0.205,0.468-0.473,0.663-0.675C40.268,106.693,40.766,107.148,41.266,107.606z"/>
		<path fill-rule="evenodd" clip-rule="evenodd" fill="#FFFFFF" d="M47.349,98.88c0.388-0.346,0.884-0.789,1.451-1.294
			c0.349,0.536,0.716,1.101,1.082,1.665c-0.423,0.377-0.803,0.718-1.212,1.083C48.271,99.896,47.829,99.407,47.349,98.88z"/>
		<path fill-rule="evenodd" clip-rule="evenodd" fill="#FFFFFF" d="M49.47,109.715c0.512-0.483,0.979-0.923,1.469-1.387
			c0.251,0.284,0.517,0.585,0.806,0.913C51.142,110.667,50.515,110.83,49.47,109.715z"/>
		<path fill-rule="evenodd" clip-rule="evenodd" fill="#FFFFFF" d="M36.873,103.245c-0.449,0.461-0.863,0.886-1.284,1.318
			c-0.656-1.115-0.709-2.156-0.172-2.641C35.911,102.372,36.404,102.819,36.873,103.245z"/>
		<path fill-rule="evenodd" clip-rule="evenodd" fill="#FFFFFF" d="M37.603,98.286c-0.271-0.284-0.531-0.559-0.833-0.876
			c0.48-0.479,0.943-0.94,1.472-1.466c0.311,0.334,0.568,0.608,0.796,0.854C38.576,97.277,38.12,97.751,37.603,98.286z"/>
		<path fill-rule="evenodd" clip-rule="evenodd" fill="#FFFFFF" d="M42.833,94.595c0.935-0.383,1.759,0.042,2.75,0.283
			c-0.527,0.406-0.969,0.746-1.414,1.089C43.815,95.603,43.354,95.13,42.833,94.595z"/>
		<path fill-rule="evenodd" clip-rule="evenodd" fill="#FFFFFF" d="M40.853,109.394c0.537-0.463,0.882-0.762,1.234-1.066
			c0.451,0.471,0.909,0.951,1.427,1.493C42.541,110.426,41.916,109.386,40.853,109.394z"/>
		<path fill-rule="evenodd" clip-rule="evenodd" fill="#FFFFFF" d="M52.117,112.327c0.452-0.443,0.854-0.835,1.313-1.284
			c0.244,0.631,0.49,1.269,0.788,2.04C53.442,112.804,52.798,112.571,52.117,112.327z"/>
		<path fill-rule="evenodd" clip-rule="evenodd" fill="#FFFFFF" d="M50.912,102.507c-0.462-0.462-0.925-0.924-1.441-1.439
			c0.265-0.245,0.542-0.504,0.903-0.838c0.303,0.779,0.81,1.406,0.752,2.202C51.055,102.456,50.983,102.481,50.912,102.507z"/>
		<path fill-rule="evenodd" clip-rule="evenodd" fill="#FFFFFF" d="M36.677,98.981c-0.389,0.393-0.849,0.855-1.31,1.318
			c-0.036-0.008-0.073-0.018-0.109-0.027c0.256-0.632,0.512-1.265,0.846-2.089C36.381,98.568,36.573,98.837,36.677,98.981z"/>
		<path fill-rule="evenodd" clip-rule="evenodd" fill="#FFFFFF" d="M39.714,96.041c-0.117-0.14-0.297-0.356-0.551-0.66
			c0.682-0.269,1.342-0.528,2.001-0.787c0.03,0.048,0.061,0.097,0.09,0.146C40.774,95.146,40.293,95.552,39.714,96.041z"/>
	</g>
	<path fill-rule="evenodd" clip-rule="evenodd" fill="#627D53" d="M121.745,154.176c-1.064-2.487-2.154-5.015-3.517-7.379
		c-6.741-11.692-13.617-23.313-20.329-35.021c-2.741-4.783-5.187-9.727-7.775-14.609c4.138-1.747,7.966-1.471,11.513,0.71
		c1.42,0.872,2.743,1.907,4.213,2.685c1.857,0.982,4.24,2.572,5.858,0.693c1.699-1.973-0.13-4.094-1.705-5.701
		c-6.571-6.714-14.799-7.945-23.718-6.422c-2.695,0.461-5.089,1.622-6.286,4.439c-0.327,0.77-1.688,1.512-2.625,1.576
		c-2.236,0.152-3.453,1.338-4.084,3.149c-0.591,1.695-0.87,3.489-1.313,5.233c-0.463,1.82-0.445,4.026-1.541,5.373
		c-2.669,3.281-5.861,6.161-9.064,9.43c-0.043-0.058-0.085-0.113-0.128-0.17c0,1.119-0.616,2.236-1.843,2.597
		c0.059,0.075,0.117,0.151,0.175,0.227c2.558,3.278,3.56,3.67,6.833,1.071c4.491-3.564,8.589-7.596,13.025-11.58
		c1.028,1.313,2.469,3.152,3.206,4.093c-3.21,3.646-5.949,6.987-8.944,10.096c-2.933,3.044-4.083,6.358-2.928,10.44
		c0.987,3.49,1.631,7.078,2.717,10.536c1.275,4.059,2.796,8.05,4.347,12.019c0.702,1.8,2.512,2.538,4.127,1.763
		c1.154-0.554,2.119-2.074,2.512-3.352c0.373-1.216-0.03-2.688-0.223-4.028c-0.825-5.742-1.744-11.471-2.508-17.219
		c-0.11-0.829,0.14-2.082,0.725-2.553c2.717-2.19,5.611-4.173,8.521-6.287c0.421,0.456,0.757,0.76,1.021,1.115
		c5.563,7.498,11.05,15.053,16.708,22.483c2.265,2.974,5.167,5.481,7.493,8.379C117.812,159.961,123.987,159.417,121.745,154.176z"
		/>
	<path fill-rule="evenodd" clip-rule="evenodd" fill="#627D53" d="M81.388,83.256c0.042,5.349-3.149,9.813-7.012,9.806
		c-3.768-0.007-6.939-4.281-7.026-9.473c-0.091-5.367,3.055-9.703,7.04-9.703C78.256,73.888,81.346,78.024,81.388,83.256z"/>
	<path fill-rule="evenodd" clip-rule="evenodd" fill="#394730" d="M37.604,122.75c1.389-0.012,2.494,1.131,2.488,2.573
		c-0.006,1.383-1.051,2.51-2.373,2.561c-1.384,0.053-2.524-1.073-2.549-2.516C35.146,123.92,36.221,122.762,37.604,122.75z"/>
</g>
</svg>
