<?xml version="1.0" encoding="utf-8"?>
<!-- Generator: Adobe Illustrator 16.0.0, SVG Export Plug-In . SVG Version: 6.00 Build 0)  -->
<!DOCTYPE svg PUBLIC "-//W3C//DTD SVG 1.1//EN" "http://www.w3.org/Graphics/SVG/1.1/DTD/svg11.dtd">
<svg version="1.1" id="Layer_1" xmlns="http://www.w3.org/2000/svg" xmlns:xlink="http://www.w3.org/1999/xlink" x="0px" y="0px"
	 width="156px" height="179px" viewBox="0 0 156 179" enable-background="new 0 0 156 179" xml:space="preserve">
<path fill-rule="evenodd" clip-rule="evenodd" d="M87.09,158.654"/>
<rect x="1" y="1" fill-rule="evenodd" clip-rule="evenodd" fill="#FFFFFF" stroke="#627D53" stroke-width="2" stroke-miterlimit="10" width="154" height="177"/>
<rect x="2" y="2" fill-rule="evenodd" clip-rule="evenodd" fill="#627D53" width="154" height="56"/>
<g>
	<path fill-rule="evenodd" clip-rule="evenodd" fill="#627D53" d="M120.603,128.601c-3.108,0.015-5.363-1.683-7.421-3.74
		c-0.76-0.76-1.447-1.592-2.243-2.476c-2.621,3.083-5.245,6.249-9.714,6.21c-4.408-0.037-6.968-3.216-9.567-6.203
		c-6.581,8.331-12.767,8.295-19.267,0.06c-8.482,8.26-12.303,8.266-19.305-0.073c-2.664,2.955-5.204,6.145-9.688,6.223
		c0-2.059,0-4.117,0-6.177c4.224-0.522,7.093-3.128,9.625-6.443c2.654,3.2,5.384,6.337,9.785,6.273
		c4.339-0.063,7.014-3.177,9.541-6.273c6.903,8.43,12.404,8.43,19.276,0.033c6.942,8.7,12.964,7.956,19.329-0.009
		c2.52,3.202,5.378,5.915,9.649,6.419C120.603,124.483,120.603,126.542,120.603,128.601z"/>
	<path fill-rule="evenodd" clip-rule="evenodd" fill="#627D53" d="M120.603,151.247c-4.287-0.405-7.08-3.115-9.633-6.404
		c-2.625,3.191-5.339,6.336-9.74,6.298c-4.344-0.038-7.018-3.148-9.547-6.243c-6.765,8.345-12.576,8.372-19.329,0.051
		c-7.413,9.263-13.52,7.26-19.299-0.084c-2.54,3.17-5.319,5.997-9.657,6.383c0-2.174,0-4.347,0-6.52
		c2.99,0.082,5.17-1.555,7.19-3.462c0.865-0.813,1.607-1.758,2.462-2.705c2.671,3.027,5.241,6.231,9.742,6.167
		c4.41-0.063,6.975-3.187,9.564-6.183c6.533,8.302,12.756,8.296,19.241,0.062c8.522,8.145,12.734,8.156,19.301-0.064
		c2.688,2.924,5.199,6.16,9.704,6.186C120.603,146.9,120.603,149.073,120.603,151.247z"/>
	<path fill-rule="evenodd" clip-rule="evenodd" fill="#627D53" d="M43.397,99.775c4.372-0.226,7.02-3.159,9.64-6.29
		c2.614,3.115,5.26,6.191,9.613,6.234c4.41,0.041,7.027-3.106,9.689-6.21c2.602,3.052,5.222,6.17,9.574,6.208
		c4.402,0.038,7.065-3.031,9.711-6.199c2.621,2.969,5.194,6.163,9.553,6.201c4.399,0.038,7.08-2.991,9.746-6.216
		c2.632,3.014,5.264,6.069,9.68,6.271c0,2.173,0,4.347,0,6.52c-4.202-0.57-7.09-3.126-9.598-6.492
		c-2.658,3.071-5.257,6.28-9.689,6.272c-4.402-0.01-7.046-3.067-9.646-6.246c-2.609,3.088-5.241,6.246-9.668,6.24
		c-4.407-0.006-7.036-3.087-9.631-6.244c-2.595,3.086-5.229,6.259-9.684,6.247c-4.398-0.009-7.014-3.104-9.651-6.286
		c-2.49,3.283-5.37,5.955-9.637,6.509C43.397,104.122,43.397,101.948,43.397,99.775z"/>
</g>
<g>
	<path fill="#FFFFFF" d="M50.067,26.92c-0.52-0.577-0.779-1.403-0.779-2.48v-0.76h1.976v0.912c0,0.861,0.361,1.292,1.083,1.292
		c0.354,0,0.624-0.104,0.808-0.313c0.183-0.209,0.275-0.548,0.275-1.017c0-0.558-0.127-1.048-0.38-1.473
		c-0.254-0.424-0.722-0.934-1.406-1.529c-0.861-0.76-1.463-1.446-1.805-2.062c-0.342-0.614-0.513-1.308-0.513-2.08
		c0-1.052,0.266-1.865,0.798-2.441c0.532-0.576,1.305-0.865,2.318-0.865c1,0,1.758,0.289,2.271,0.865
		c0.513,0.576,0.77,1.402,0.77,2.479v0.551h-1.976v-0.684c0-0.455-0.089-0.788-0.266-0.997c-0.178-0.209-0.437-0.313-0.779-0.313
		c-0.697,0-1.045,0.424-1.045,1.273c0,0.48,0.13,0.93,0.39,1.349c0.259,0.418,0.731,0.925,1.416,1.52
		c0.874,0.761,1.476,1.45,1.805,2.071c0.33,0.621,0.494,1.35,0.494,2.186c0,1.089-0.269,1.925-0.808,2.508
		c-0.538,0.582-1.32,0.873-2.346,0.873C51.353,27.783,50.586,27.496,50.067,26.92z"/>
	<path fill="#FFFFFF" d="M56.224,14.294h2.014l0.931,10.222h0.038l0.988-10.222h2.28l0.988,10.222H63.5l0.931-10.222h1.805
		l-1.349,13.3h-2.603l-0.95-8.968h-0.038l-0.95,8.968h-2.774L56.224,14.294z"/>
	<path fill="#FFFFFF" d="M67.3,14.294h2.09v13.3H67.3V14.294z"/>
	<path fill="#FFFFFF" d="M70.948,14.294h2.983l1.33,9.519h0.038l1.33-9.519h2.983v13.3h-1.976v-10.07h-0.038l-1.52,10.07H74.33
		l-1.52-10.07h-0.038v10.07h-1.824V14.294z"/>
	<path fill="#FFFFFF" d="M81.169,14.294h2.983l1.33,9.519h0.038l1.33-9.519h2.983v13.3h-1.976v-10.07H87.82l-1.52,10.07h-1.748
		l-1.52-10.07h-0.038v10.07h-1.824V14.294z"/>
	<path fill="#FFFFFF" d="M91.392,14.294h2.09v13.3h-2.09V14.294z"/>
	<path fill="#FFFFFF" d="M95.039,14.294h2.622l2.033,7.961h0.038v-7.961h1.862v13.3h-2.147l-2.508-9.709h-0.038v9.709h-1.862V14.294
		z"/>
	<path fill="#FFFFFF" d="M103.798,26.92c-0.532-0.577-0.798-1.403-0.798-2.48v-6.992c0-1.076,0.266-1.902,0.798-2.479
		c0.532-0.576,1.305-0.865,2.318-0.865c1.013,0,1.786,0.289,2.318,0.865c0.532,0.576,0.798,1.402,0.798,2.479v1.141h-1.976v-1.273
		c0-0.873-0.361-1.311-1.083-1.311c-0.722,0-1.083,0.438-1.083,1.311v7.277c0,0.861,0.361,1.292,1.083,1.292
		c0.722,0,1.083-0.431,1.083-1.292v-2.604h-1.045v-1.899h3.021v4.351c0,1.077-0.266,1.903-0.798,2.48
		c-0.532,0.576-1.305,0.863-2.318,0.863C105.103,27.783,104.33,27.496,103.798,26.92z"/>
	<path fill="#FFFFFF" d="M62.046,33.094h3.078c1.039,0,1.817,0.279,2.337,0.836c0.52,0.558,0.779,1.375,0.779,2.451v1.311
		c0,1.077-0.26,1.895-0.779,2.451c-0.52,0.558-1.298,0.836-2.337,0.836h-0.988v5.415h-2.09V33.094z M65.125,39.078
		c0.342,0,0.599-0.095,0.77-0.285c0.171-0.189,0.256-0.512,0.256-0.969v-1.576c0-0.457-0.085-0.779-0.256-0.97
		s-0.427-0.284-0.77-0.284h-0.988v4.084H65.125z"/>
	<path fill="#FFFFFF" d="M70.045,45.709c-0.544-0.582-0.817-1.405-0.817-2.469v-6.992c0-1.064,0.272-1.888,0.817-2.471
		c0.544-0.582,1.33-0.874,2.356-0.874c1.026,0,1.812,0.292,2.356,0.874c0.545,0.583,0.817,1.406,0.817,2.471v6.992
		c0,1.063-0.272,1.887-0.817,2.469c-0.544,0.584-1.33,0.875-2.356,0.875C71.375,46.584,70.59,46.293,70.045,45.709z M73.484,43.373
		v-7.258c0-0.875-0.361-1.312-1.083-1.312c-0.722,0-1.083,0.437-1.083,1.312v7.258c0,0.873,0.361,1.311,1.083,1.311
		C73.124,44.684,73.484,44.246,73.484,43.373z"/>
	<path fill="#FFFFFF" d="M77.646,45.709c-0.544-0.582-0.817-1.405-0.817-2.469v-6.992c0-1.064,0.272-1.888,0.817-2.471
		c0.544-0.582,1.33-0.874,2.356-0.874c1.026,0,1.812,0.292,2.356,0.874c0.545,0.583,0.817,1.406,0.817,2.471v6.992
		c0,1.063-0.272,1.887-0.817,2.469c-0.544,0.584-1.33,0.875-2.356,0.875C78.976,46.584,78.19,46.293,77.646,45.709z M81.084,43.373
		v-7.258c0-0.875-0.361-1.312-1.083-1.312c-0.722,0-1.083,0.437-1.083,1.312v7.258c0,0.873,0.361,1.311,1.083,1.311
		C80.724,44.684,81.084,44.246,81.084,43.373z"/>
	<path fill="#FFFFFF" d="M84.58,33.094h2.09v11.4h3.439v1.899H84.58V33.094z"/>
	<path fill="#FFFFFF" d="M91.534,45.719c-0.52-0.576-0.779-1.402-0.779-2.479v-0.761h1.976v0.912c0,0.861,0.361,1.292,1.083,1.292
		c0.354,0,0.624-0.104,0.808-0.313c0.183-0.209,0.275-0.548,0.275-1.017c0-0.557-0.127-1.048-0.38-1.473
		c-0.254-0.424-0.722-0.934-1.406-1.529c-0.861-0.76-1.463-1.447-1.805-2.062c-0.342-0.614-0.513-1.308-0.513-2.081
		c0-1.051,0.266-1.864,0.798-2.441c0.532-0.576,1.305-0.864,2.318-0.864c1,0,1.758,0.288,2.271,0.864
		c0.513,0.577,0.77,1.403,0.77,2.48v0.551h-1.976v-0.684c0-0.457-0.089-0.789-0.266-0.998c-0.178-0.209-0.437-0.313-0.779-0.313
		c-0.697,0-1.045,0.425-1.045,1.272c0,0.482,0.13,0.932,0.39,1.35c0.259,0.418,0.731,0.924,1.416,1.52
		c0.874,0.76,1.476,1.451,1.805,2.071c0.33,0.62,0.494,1.349,0.494,2.185c0,1.09-0.269,1.926-0.808,2.508
		c-0.538,0.584-1.32,0.875-2.346,0.875C92.82,46.584,92.054,46.295,91.534,45.719z"/>
</g>
</svg>
