<svg width="19" height="17" viewBox="0 0 19 17" fill="none" xmlns="http://www.w3.org/2000/svg">
<path fill-rule="evenodd" clip-rule="evenodd" d="M4.8323 4.21362C4.75989 4.27889 4.70697 4.35937 4.67903 4.44671C4.65109 4.53406 4.64914 4.62508 4.6734 4.71033L5.14575 6.37352C6.07987 9.66126 7.39088 12.8327 9.05837 15.8385L9.28337 16.2444C9.32136 16.3129 9.37732 16.3714 9.44671 16.4151C9.5161 16.4588 9.59697 16.4865 9.6828 16.4959C9.76863 16.5053 9.85699 16.4962 9.94075 16.4692C10.0245 16.4423 10.1013 16.3984 10.1649 16.341L13.2749 13.5359C13.4864 13.3452 13.5099 13.0493 13.3293 12.8552L13.2233 12.742C12.225 11.6739 11.3195 10.5363 10.514 9.33826C11.8611 10.0749 13.1394 10.9043 14.3382 11.8197L14.4121 11.8766C14.5156 11.9557 14.6509 11.9947 14.7911 11.9858C14.9312 11.9769 15.0657 11.9207 15.1679 11.8285L18.2778 9.02346C18.3415 8.96606 18.3902 8.89679 18.4201 8.82124C18.4499 8.74569 18.46 8.66599 18.4496 8.58858C18.4392 8.51117 18.4085 8.43822 18.3601 8.37563C18.3116 8.31305 18.2468 8.26258 18.1708 8.22831L17.7208 8.02537C14.3883 6.52137 10.8721 5.33888 7.22697 4.49634L5.38301 4.0703C5.28849 4.04842 5.18757 4.05017 5.09073 4.07537C4.9939 4.10057 4.90467 4.14831 4.8323 4.21362ZM5.99655 5.26372L6.88735 5.47008C10.3841 6.27793 13.7601 7.40498 16.9649 8.83441L14.7798 10.8053C13.15 9.5928 11.3839 8.53256 9.5056 7.63944L9.30267 7.54324C9.19899 7.49416 9.07828 7.47781 8.95866 7.49665C8.83904 7.51548 8.72696 7.56848 8.63925 7.6477C8.55153 7.72692 8.49292 7.82807 8.4722 7.93598C8.45149 8.04389 8.46978 8.15274 8.52435 8.24618L8.66116 8.47983C9.6448 10.1546 10.8098 11.7304 12.1404 13.1859L9.95535 15.1567C8.37057 12.2661 7.12101 9.22113 6.22534 6.06719L5.99655 5.26372Z" fill="white"/>
</svg>
