<svg width="19" height="18" viewBox="0 0 19 18" fill="none" xmlns="http://www.w3.org/2000/svg">
<path fill-rule="evenodd" clip-rule="evenodd" d="M14.2185 4.77942C14.2909 4.84469 14.3438 4.92517 14.3718 5.01251C14.3997 5.09985 14.4016 5.19087 14.3774 5.27613L13.905 6.93931C12.9709 10.2271 11.6599 13.3985 9.99241 16.4043L9.76741 16.8102C9.72942 16.8787 9.67346 16.9372 9.60407 16.9809C9.53469 17.0246 9.45381 17.0523 9.36798 17.0617C9.28215 17.0711 9.19379 17.062 9.11003 17.035C9.02627 17.0081 8.94947 16.9642 8.88583 16.9067L5.7759 14.1017C5.56442 13.911 5.5409 13.6151 5.72152 13.421L5.8275 13.3078C6.82577 12.2397 7.73129 11.1021 8.53681 9.90405C7.18965 10.6407 5.9114 11.4701 4.71258 12.3855L4.63866 12.4424C4.53516 12.5215 4.39984 12.5605 4.25973 12.5516C4.11961 12.5426 3.98504 12.4865 3.88289 12.3943L0.772957 9.58925C0.709285 9.53186 0.660559 9.46259 0.630718 9.38704C0.600878 9.31149 0.59076 9.23179 0.601184 9.15438C0.611607 9.07696 0.64228 9.00401 0.690721 8.94143C0.739161 8.87884 0.804011 8.82837 0.880025 8.79411L1.33002 8.59116C4.66251 7.08716 8.1787 5.90468 11.8238 5.06213L13.6678 4.63609C13.7623 4.61421 13.8632 4.61597 13.96 4.64117C14.0569 4.66637 14.1461 4.7141 14.2185 4.77942ZM13.0542 5.82952L12.1634 6.03588C8.66666 6.84373 5.29069 7.97078 2.08591 9.4002L4.27098 11.371C5.90079 10.1586 7.66689 9.09836 9.54518 8.20524L9.74811 8.10904C9.85179 8.05996 9.9725 8.04361 10.0921 8.06244C10.2117 8.08128 10.3238 8.13428 10.4115 8.2135C10.4992 8.29271 10.5579 8.39387 10.5786 8.50178C10.5993 8.60969 10.581 8.71853 10.5264 8.81197L10.3896 9.04562C9.40598 10.7204 8.24094 12.2962 6.91037 13.7517L9.09543 15.7225C10.6802 12.8319 11.9298 9.78693 12.8254 6.63298L13.0542 5.82952Z" fill="white"/>
</svg>
