<?xml version="1.0" encoding="utf-8"?>
<!-- Generator: Adobe Illustrator 16.0.0, SVG Export Plug-In . SVG Version: 6.00 Build 0)  -->
<!DOCTYPE svg PUBLIC "-//W3C//DTD SVG 1.1//EN" "http://www.w3.org/Graphics/SVG/1.1/DTD/svg11.dtd">
<svg version="1.1" id="Layer_1" xmlns="http://www.w3.org/2000/svg" xmlns:xlink="http://www.w3.org/1999/xlink" x="0px" y="0px"
	 width="16px" height="16px" viewBox="0 0 16 16" enable-background="new 0 0 16 16" xml:space="preserve">
<path fill-rule="evenodd" clip-rule="evenodd" d="M8.001,2.467c2.105,0,4.208,0,6.313,0.001c1.049,0,1.349,0.294,1.352,1.334
	c0.002,2.649,0.003,5.297,0,7.95c-0.001,1.084-0.282,1.362-1.38,1.362c-4.19,0.002-8.38,0.002-12.571,0.002
	c-1.092-0.002-1.374-0.285-1.378-1.369c-0.002-0.602,0.006-1.202-0.002-1.803C0.328,9.522,0.498,9.289,0.94,9.219
	c0.805-0.128,1.281-0.658,1.3-1.384c0.021-0.761-0.429-1.313-1.268-1.471C0.517,6.28,0.324,6.062,0.333,5.606
	c0.014-0.657-0.005-1.315,0.005-1.972c0.012-0.812,0.355-1.161,1.18-1.165C3.679,2.46,5.84,2.467,8.001,2.467z M8.034,12.137
	c1.992,0,3.985-0.022,5.976,0.013c0.59,0.012,0.728-0.186,0.72-0.741c-0.026-2.407-0.01-4.813-0.011-7.22
	c0-0.752,0-0.753-0.735-0.753c-3.816,0-7.633,0-11.449,0c-1.242,0-1.223-0.001-1.247,1.258c-0.01,0.464,0.09,0.732,0.565,0.94
	C2.759,6.033,3.21,6.819,3.21,7.797c0.002,0.959-0.448,1.732-1.322,2.13c-0.482,0.22-0.666,0.48-0.594,0.974
	c0.018,0.13,0.002,0.264,0.002,0.396c0,0.839,0,0.839,0.814,0.841C4.084,12.139,6.06,12.139,8.034,12.137z"/>
<path fill-rule="evenodd" clip-rule="evenodd" d="M12.822,4.842c-0.114,0.209-0.179,0.389-0.291,0.527
	c-1.503,1.832-3.014,3.658-4.519,5.489c-0.218,0.267-0.485,0.411-0.775,0.187c-0.309-0.24-0.185-0.537,0.025-0.792
	c1.529-1.86,3.057-3.721,4.602-5.565c0.12-0.143,0.386-0.231,0.578-0.223C12.568,4.47,12.684,4.696,12.822,4.842z"/>
<path fill-rule="evenodd" clip-rule="evenodd" d="M11.333,8.29c0.806-0.009,1.43,0.603,1.438,1.415
	c0.008,0.817-0.594,1.444-1.398,1.456c-0.803,0.014-1.428-0.601-1.438-1.416C9.926,8.928,10.531,8.296,11.333,8.29z M11.365,9.054
	c-0.224,0.328-0.457,0.52-0.436,0.679c0.022,0.167,0.271,0.384,0.452,0.422c0.107,0.021,0.387-0.257,0.393-0.405
	C11.78,9.571,11.575,9.388,11.365,9.054z"/>
<path fill-rule="evenodd" clip-rule="evenodd" d="M9.899,5.942C9.887,6.668,9.244,7.291,8.506,7.286
	C7.671,7.283,7.031,6.635,7.05,5.818C7.069,5.032,7.736,4.385,8.51,4.4C9.305,4.416,9.915,5.092,9.899,5.942z M8.509,5.177
	C8.287,5.489,8.057,5.672,8.07,5.837C8.083,6.006,8.331,6.16,8.477,6.319c0.157-0.146,0.426-0.281,0.444-0.443
	C8.938,5.705,8.718,5.508,8.509,5.177z"/>
<path fill-rule="evenodd" clip-rule="evenodd" d="M5.124,8.771c0.07,0.375-0.117,0.477-0.466,0.485
	C4.293,9.264,4.171,9.127,4.175,8.768c0.004-0.346,0.107-0.502,0.48-0.495C5.013,8.282,5.183,8.398,5.124,8.771z"/>
<path fill-rule="evenodd" clip-rule="evenodd" d="M4.721,10.213c0.479-0.021,0.399,0.304,0.413,0.578
	c0.02,0.452-0.308,0.372-0.577,0.387c-0.354,0.016-0.366-0.208-0.368-0.479C4.186,10.3,4.382,10.166,4.721,10.213z"/>
<path fill-rule="evenodd" clip-rule="evenodd" d="M5.119,4.878C5.192,5.32,4.942,5.355,4.618,5.366
	c-0.366,0.01-0.434-0.172-0.439-0.484c-0.007-0.358,0.119-0.506,0.49-0.499C5.046,4.389,5.19,4.542,5.119,4.878z"/>
<path fill-rule="evenodd" clip-rule="evenodd" d="M5.125,6.837c0.053,0.356-0.124,0.458-0.452,0.464
	C4.305,7.314,4.17,7.172,4.176,6.807C4.184,6.475,4.3,6.338,4.644,6.341C5.004,6.343,5.183,6.463,5.125,6.837z"/>
</svg>
