<?xml version="1.0" encoding="utf-8"?>
<!-- Generator: Adobe Illustrator 16.0.0, SVG Export Plug-In . SVG Version: 6.00 Build 0)  -->
<!DOCTYPE svg PUBLIC "-//W3C//DTD SVG 1.1//EN" "http://www.w3.org/Graphics/SVG/1.1/DTD/svg11.dtd">
<svg version="1.1" id="Layer_1" xmlns="http://www.w3.org/2000/svg" xmlns:xlink="http://www.w3.org/1999/xlink" x="0px" y="0px"
	 width="157px" height="179px" viewBox="0 0 157 179" enable-background="new 0 0 157 179" xml:space="preserve">
<rect x="1.483" y="1.01" fill-rule="evenodd" clip-rule="evenodd" fill="#FFFFFF" stroke="#627D53" stroke-width="2" stroke-miterlimit="10" width="155" height="177"/>
<rect x="1.483" y="0.01" fill-rule="evenodd" clip-rule="evenodd" fill="#627D53" width="155" height="56"/>
<g>
	<path fill="#FFFFFF" d="M37.411,23.482h-2.185v-1.9h6.46v1.9h-2.185v11.399h-2.09V23.482z"/>
	<path fill="#FFFFFF" d="M42.693,21.582h5.7v1.9h-3.61v3.515h2.869v1.899h-2.869v4.086h3.61v1.899h-5.7V21.582z"/>
	<path fill="#FFFFFF" d="M49.59,21.582h2.622l2.033,7.961h0.038v-7.961h1.862v13.3h-2.147l-2.508-9.709h-0.038v9.709H49.59V21.582z"
		/>
	<path fill="#FFFFFF" d="M57.703,21.582h2.622l2.033,7.961h0.038v-7.961h1.862v13.3h-2.147l-2.508-9.709h-0.038v9.709h-1.862V21.582
		z"/>
	<path fill="#FFFFFF" d="M65.815,21.582h2.09v13.3h-2.09V21.582z"/>
	<path fill="#FFFFFF" d="M69.881,34.207c-0.52-0.576-0.779-1.402-0.779-2.479v-0.761h1.976v0.912c0,0.861,0.361,1.292,1.083,1.292
		c0.354,0,0.624-0.104,0.808-0.313c0.183-0.209,0.275-0.548,0.275-1.017c0-0.557-0.127-1.048-0.38-1.473
		c-0.254-0.424-0.722-0.934-1.406-1.529c-0.861-0.76-1.463-1.447-1.805-2.062c-0.342-0.614-0.513-1.308-0.513-2.081
		c0-1.051,0.266-1.864,0.798-2.441c0.532-0.576,1.305-0.864,2.318-0.864c1,0,1.758,0.288,2.271,0.864
		c0.513,0.577,0.77,1.403,0.77,2.48v0.551h-1.976v-0.684c0-0.457-0.089-0.789-0.266-0.998c-0.178-0.209-0.437-0.313-0.779-0.313
		c-0.697,0-1.045,0.425-1.045,1.272c0,0.482,0.13,0.932,0.39,1.35c0.259,0.418,0.731,0.924,1.416,1.52
		c0.874,0.76,1.476,1.451,1.805,2.071c0.33,0.62,0.494,1.349,0.494,2.185c0,1.09-0.269,1.926-0.808,2.508
		c-0.538,0.584-1.32,0.875-2.346,0.875C71.167,35.072,70.401,34.783,69.881,34.207z"/>
	<path fill="#FFFFFF" d="M79.989,34.207c-0.52-0.576-0.779-1.402-0.779-2.479v-0.761h1.976v0.912c0,0.861,0.361,1.292,1.083,1.292
		c0.354,0,0.624-0.104,0.808-0.313c0.183-0.209,0.275-0.548,0.275-1.017c0-0.557-0.127-1.048-0.38-1.473
		c-0.254-0.424-0.722-0.934-1.406-1.529c-0.861-0.76-1.463-1.447-1.805-2.062c-0.342-0.614-0.513-1.308-0.513-2.081
		c0-1.051,0.266-1.864,0.798-2.441c0.532-0.576,1.305-0.864,2.318-0.864c1,0,1.758,0.288,2.271,0.864
		c0.513,0.577,0.77,1.403,0.77,2.48v0.551h-1.976v-0.684c0-0.457-0.089-0.789-0.266-0.998c-0.178-0.209-0.437-0.313-0.779-0.313
		c-0.697,0-1.045,0.425-1.045,1.272c0,0.482,0.13,0.932,0.39,1.35c0.259,0.418,0.731,0.924,1.416,1.52
		c0.874,0.76,1.476,1.451,1.805,2.071c0.33,0.62,0.494,1.349,0.494,2.185c0,1.09-0.269,1.926-0.808,2.508
		c-0.538,0.584-1.32,0.875-2.346,0.875C81.274,35.072,80.508,34.783,79.989,34.207z"/>
	<path fill="#FFFFFF" d="M88.273,23.482h-2.185v-1.9h6.46v1.9h-2.185v11.399h-2.09V23.482z"/>
	<path fill="#FFFFFF" d="M94.144,34.197c-0.544-0.582-0.817-1.405-0.817-2.469v-6.992c0-1.064,0.272-1.888,0.817-2.471
		c0.544-0.582,1.33-0.874,2.356-0.874c1.026,0,1.812,0.292,2.356,0.874c0.545,0.583,0.817,1.406,0.817,2.471v6.992
		c0,1.063-0.272,1.887-0.817,2.469c-0.544,0.584-1.33,0.875-2.356,0.875C95.474,35.072,94.688,34.781,94.144,34.197z M97.583,31.861
		v-7.258c0-0.875-0.361-1.312-1.083-1.312c-0.722,0-1.083,0.437-1.083,1.312v7.258c0,0.873,0.361,1.311,1.083,1.311
		C97.222,33.172,97.583,32.734,97.583,31.861z"/>
	<path fill="#FFFFFF" d="M101.079,21.582h3.097c1.077,0,1.862,0.25,2.356,0.75c0.494,0.501,0.741,1.271,0.741,2.309v0.817
		c0,1.38-0.456,2.255-1.368,2.622v0.037c0.506,0.152,0.865,0.463,1.074,0.932s0.313,1.096,0.313,1.881v2.337
		c0,0.38,0.012,0.688,0.038,0.922s0.089,0.466,0.19,0.693h-2.128c-0.076-0.216-0.126-0.418-0.152-0.608
		c-0.025-0.189-0.038-0.531-0.038-1.025v-2.432c0-0.608-0.098-1.033-0.294-1.273s-0.535-0.361-1.017-0.361h-0.722v5.7h-2.09V21.582z
		 M103.929,27.281c0.418,0,0.731-0.107,0.94-0.322s0.313-0.576,0.313-1.083V24.85c0-0.48-0.085-0.829-0.256-1.045
		c-0.171-0.215-0.44-0.322-0.808-0.322h-0.95v3.799H103.929z"/>
	<path fill="#FFFFFF" d="M108.736,21.582h5.7v1.9h-3.61v3.515h2.869v1.899h-2.869v4.086h3.61v1.899h-5.7V21.582z"/>
	<path fill="#FFFFFF" d="M116.089,34.207c-0.52-0.576-0.779-1.402-0.779-2.479v-0.761h1.976v0.912c0,0.861,0.361,1.292,1.083,1.292
		c0.354,0,0.624-0.104,0.808-0.313c0.183-0.209,0.275-0.548,0.275-1.017c0-0.557-0.127-1.048-0.38-1.473
		c-0.254-0.424-0.722-0.934-1.406-1.529c-0.861-0.76-1.463-1.447-1.805-2.062c-0.342-0.614-0.513-1.308-0.513-2.081
		c0-1.051,0.266-1.864,0.798-2.441c0.532-0.576,1.305-0.864,2.318-0.864c1,0,1.758,0.288,2.271,0.864
		c0.513,0.577,0.77,1.403,0.77,2.48v0.551h-1.976v-0.684c0-0.457-0.089-0.789-0.266-0.998c-0.178-0.209-0.437-0.313-0.779-0.313
		c-0.697,0-1.045,0.425-1.045,1.272c0,0.482,0.13,0.932,0.39,1.35c0.259,0.418,0.731,0.924,1.416,1.52
		c0.874,0.76,1.476,1.451,1.805,2.071c0.33,0.62,0.494,1.349,0.494,2.185c0,1.09-0.269,1.926-0.808,2.508
		c-0.538,0.584-1.32,0.875-2.346,0.875C117.375,35.072,116.608,34.783,116.089,34.207z"/>
</g>
<g>
	<path fill-rule="evenodd" clip-rule="evenodd" fill="#FFFFFF" d="M72.769,109.229c0.051,0.474,0.089,1.388,0.255,2.278
		c0.851,4.572,3.355,7.848,7.761,9.479c4.08,1.51,8.123,0.987,12.063-0.602c4.066-1.641,7.359-4.319,9.919-7.851
		c3.128-4.316,4.687-9.081,3.91-14.485c-0.639-4.447-4.182-8.509-8.523-9.716c-3.9-1.084-7.669-0.611-11.349,0.885
		c-4.062,1.652-7.332,4.348-9.914,7.861C74.336,100.556,72.873,104.441,72.769,109.229z"/>
	<path fill-rule="evenodd" clip-rule="evenodd" fill="#627D53" d="M46.601,142.446c0.616-0.762,1.2-1.554,1.859-2.276
		c0.392-0.429,0.998-0.374,1.36,0.003c0.362,0.377,0.36,0.921-0.04,1.372c-0.308,0.348-0.646,0.67-0.979,0.994
		c-0.286,0.279-0.279,0.535,0.004,0.814c0.828,0.818,1.653,1.64,2.468,2.47c0.312,0.317,0.565,0.27,0.859-0.025
		c3.692-3.699,7.386-7.396,11.087-11.085c0.342-0.341,0.282-0.595-0.034-0.902c-0.773-0.753-1.55-1.504-2.284-2.294
		c-0.396-0.427-0.667-0.433-1.081-0.011c-2.123,2.156-4.271,4.287-6.412,6.425c-0.164,0.164-0.331,0.329-0.516,0.468
		c-0.44,0.33-0.887,0.288-1.257-0.096c-0.373-0.387-0.361-0.837-0.048-1.268c0.099-0.136,0.225-0.252,0.345-0.372
		c2.184-2.185,4.375-4.362,6.548-6.558c0.618-0.624,1.301-0.98,2.205-0.883c0.188,0.02,0.444-0.111,0.589-0.254
		c1.418-1.395,2.839-2.787,4.22-4.218c1.261-1.306,1.738-3.01,2.016-4.713c0.398-2.436,0.612-4.901,0.854-7.359
		c0.052-0.534-0.111-1.089-0.174-1.634c-0.258-2.226-0.075-4.432,0.356-6.711c-3.223,0.443-5.982-0.396-8.182-2.791
		c-1.288-1.401-2.012-3.074-2.194-4.957c-0.383-3.971,1.93-7.674,5.585-9.029c2.16-0.801,4.312-0.777,6.436,0.088
		c2.104,0.858,3.615,2.374,4.59,4.353c1.319-1.167,2.564-2.379,3.922-3.446c4-3.145,8.518-5.047,13.625-5.449
		c0.124-0.01,0.244-0.057,0.366-0.087c0.847,0,1.693,0,2.54,0c1.509,0.294,3.063,0.447,4.52,0.909
		c4.837,1.533,8.343,4.639,10.354,9.32c2.031,4.729,1.901,9.558,0.379,14.385c-1.818,5.766-5.342,10.31-10.139,13.914
		c-0.597,0.448-1.143,0.438-1.518-0.018c-0.385-0.469-0.277-1.058,0.346-1.523c2.74-2.048,5.07-4.477,6.876-7.39
		c2.589-4.175,3.96-8.688,3.522-13.628c-0.652-7.355-5.793-12.808-12.994-13.809c-5.237-0.729-10.018,0.625-14.463,3.332
		c-2.384,1.452-4.468,3.274-6.254,5.422c-0.19,0.229-0.32,0.599-0.303,0.893c0.216,3.727-1.229,6.567-4.433,8.51
		c-0.197,0.119-0.42,0.331-0.471,0.539c-1.019,4.165-0.956,8.272,0.916,12.207c2.148,4.516,5.784,7.188,10.641,8.188
		c4.02,0.829,7.905,0.21,11.678-1.301c0.372-0.149,0.733-0.329,1.11-0.464c0.564-0.201,1.053,0.001,1.267,0.494
		c0.211,0.488,0.033,1.018-0.516,1.265c-0.846,0.382-1.706,0.743-2.585,1.04c-3.375,1.139-6.813,1.488-10.378,1.075
		c-1.675-0.193-3.428-0.015-5.112,0.229c-1.893,0.273-3.782,0.701-5.605,1.274c-0.923,0.291-1.783,0.956-2.523,1.618
		c-1.322,1.185-2.543,2.483-3.776,3.763c-0.201,0.209-0.345,0.57-0.342,0.86c0.005,0.751-0.247,1.364-0.763,1.882
		c-3.769,3.771-7.535,7.547-11.321,11.303c-0.316,0.313-0.77,0.489-1.16,0.729c-0.339,0-0.678,0-1.016,0
		c-1.869-1.179-3.396-2.699-4.572-4.571C46.601,143.124,46.601,142.785,46.601,142.446z M73.51,96.883
		c-4.439-0.805-7.009-3.422-7.818-7.796c-2.625,0.249-5.204,2.826-5.455,5.469c4.408,0.785,7.002,3.405,7.795,7.799
		C70.741,102.019,73.117,99.646,73.51,96.883z M64.125,131.943c3.216-3.216,6.438-6.438,9.575-9.574
		c-0.454-0.483-0.952-1.016-1.43-1.524c-3.198,3.204-6.406,6.419-9.618,9.638C63.141,130.967,63.664,131.486,64.125,131.943z
		 M66.007,102.395c-0.421-3.563-3.757-5.819-5.798-5.73C60.304,99.41,63.087,102.183,66.007,102.395z M67.725,89.037
		c0.407,3.509,3.661,5.792,5.787,5.734C73.466,92.063,70.712,89.31,67.725,89.037z M69.429,120.632
		c0.52-0.5,1.055-1.013,1.597-1.534c-0.322-0.53-0.65-1.07-1.025-1.688C69.793,118.574,69.607,119.625,69.429,120.632z
		 M77.223,124.632c-0.633-0.38-1.184-0.711-1.611-0.968c-0.562,0.562-1.081,1.078-1.535,1.532
		C75.014,125.028,76.066,124.839,77.223,124.632z"/>
	<path fill-rule="evenodd" clip-rule="evenodd" fill="#FFFFFF" d="M46.601,143.463c1.176,1.872,2.703,3.393,4.572,4.571
		c-1.524,0-3.048,0-4.572,0C46.601,146.511,46.601,144.986,46.601,143.463z"/>
	<path fill-rule="evenodd" clip-rule="evenodd" fill="#627D53" d="M72.769,109.229c0.104-4.787,1.568-8.673,4.122-12.15
		c2.582-3.514,5.852-6.209,9.914-7.861c3.679-1.496,7.448-1.969,11.349-0.885c4.341,1.207,7.884,5.269,8.523,9.716
		c0.776,5.404-0.782,10.169-3.91,14.485c-2.56,3.531-5.853,6.21-9.919,7.851c-3.94,1.589-7.982,2.111-12.063,0.602
		c-4.406-1.631-6.911-4.906-7.761-9.479C72.858,110.616,72.82,109.702,72.769,109.229z M89.857,95.867
		c-1.23,1.239-2.491,2.508-3.649,3.675c1.213,1.215,2.472,2.477,3.676,3.683c1.198-1.194,2.45-2.443,3.671-3.66
		C92.335,98.345,91.083,97.093,89.857,95.867z M84.655,101.107c-1.25,1.249-2.512,2.51-3.662,3.659
		c1.21,1.216,2.468,2.479,3.661,3.678c1.199-1.194,2.454-2.444,3.679-3.665C87.113,103.562,85.859,102.31,84.655,101.107z
		 M95.075,101.067c-1.255,1.255-2.508,2.506-3.729,3.726c1.241,1.223,2.514,2.476,3.728,3.672c1.213-1.213,2.475-2.475,3.701-3.7
		C97.563,103.554,96.31,102.301,95.075,101.067z M86.13,109.988c1.233,1.233,2.499,2.5,3.745,3.746
		c1.197-1.208,2.458-2.479,3.667-3.699c-1.235-1.226-2.502-2.483-3.745-3.716C88.594,107.522,87.341,108.776,86.13,109.988z
		 M98.749,94.393c-1.257-1.258-2.517-2.519-3.712-3.716c-1.201,1.199-2.452,2.448-3.654,3.648c1.224,1.227,2.482,2.488,3.711,3.721
		C96.305,96.836,97.557,95.585,98.749,94.393z M103.971,99.587c-1.222-1.234-2.48-2.504-3.632-3.668
		c-1.232,1.235-2.491,2.497-3.691,3.701c1.188,1.181,2.44,2.427,3.657,3.637C101.51,102.05,102.76,100.799,103.971,99.587z
		 M79.378,106.285c-1.257,1.256-2.509,2.505-3.728,3.722c1.247,1.239,2.517,2.501,3.713,3.69c1.231-1.225,2.497-2.484,3.729-3.709
		C81.88,108.779,80.626,107.529,79.378,106.285z M84.571,118.947c1.241-1.246,2.502-2.512,3.742-3.757
		c-1.2-1.199-2.453-2.45-3.665-3.66c-1.238,1.238-2.5,2.502-3.726,3.729C82.128,116.478,83.387,117.75,84.571,118.947z
		 M81.383,94.815c1.162,1.162,2.214,2.216,3.211,3.213c1.223-1.226,2.481-2.487,3.68-3.688c-0.793-0.797-1.635-1.642-2.576-2.588
		C84.295,92.748,82.828,93.79,81.383,94.815z M102.894,108.92c-0.97-0.97-1.802-1.801-2.59-2.589
		c-1.226,1.222-2.488,2.479-3.7,3.686c1.015,1.019,2.066,2.073,3.221,3.231C100.851,111.801,101.892,110.332,102.894,108.92z
		 M93.952,117.855c1.424-1.01,2.905-2.061,4.305-3.055c-1.168-1.171-2.22-2.225-3.162-3.169c-1.208,1.208-2.466,2.468-3.688,3.69
		C92.176,116.087,93.009,116.917,93.952,117.855z M79.375,103.303c1.256-1.258,2.508-2.513,3.704-3.713
		c-1.019-1.024-2.07-2.083-3.226-3.245c-1.029,1.452-2.072,2.926-3.077,4.345C77.717,101.635,78.548,102.472,79.375,103.303z
		 M89.905,116.812c-0.996,1.007-2.021,2.043-3.012,3.045c1.64-0.114,3.311-0.491,4.941-1.159
		C91.121,118,90.463,117.356,89.905,116.812z M105.037,101.781c-0.06,0.002-0.12,0.004-0.18,0.006
		c-1.025,1.025-2.049,2.052-2.991,2.994c0.604,0.608,1.251,1.262,2.018,2.035C104.274,105.111,104.655,103.446,105.037,101.781z
		 M74.642,107.804c0.066,0.009,0.132,0.018,0.198,0.026c1.024-1.027,2.048-2.056,3.032-3.043c-0.612-0.617-1.264-1.274-2.059-2.076
		C75.41,104.465,75.026,106.134,74.642,107.804z M92.873,89.784c-0.008-0.063-0.017-0.127-0.024-0.19
		c-1.669,0.387-3.339,0.771-5.1,1.179c0.808,0.8,1.466,1.45,2.07,2.048C90.814,91.83,91.844,90.808,92.873,89.784z M97.785,90.145
		c-0.002,0.027-0.004,0.055-0.006,0.081c0.866,0.872,1.733,1.743,2.603,2.618c0.223-0.208,0.497-0.464,0.91-0.852
		C100.055,91.341,98.92,90.742,97.785,90.145z M101.76,94.299c0.885,0.882,1.747,1.741,2.608,2.601
		c0.041-0.017,0.082-0.032,0.123-0.049c-0.597-1.134-1.194-2.269-1.847-3.508C102.259,93.76,102.005,94.034,101.76,94.299z
		 M77.909,115.356c-0.921-0.918-1.773-1.769-2.625-2.619c-0.03,0.008-0.061,0.017-0.091,0.024c0.602,1.129,1.203,2.258,1.824,3.423
		C77.428,115.803,77.703,115.548,77.909,115.356z M78.387,117.598c1.239,0.652,2.375,1.25,3.51,1.848
		c0.001-0.026,0.002-0.053,0.003-0.079c-0.869-0.871-1.737-1.741-2.602-2.609C79.079,116.959,78.803,117.213,78.387,117.598z"/>
	<path fill-rule="evenodd" clip-rule="evenodd" fill="#FFFFFF" d="M69.429,120.632c0.179-1.007,0.365-2.058,0.572-3.223
		c0.375,0.618,0.704,1.158,1.025,1.688C70.483,119.619,69.949,120.132,69.429,120.632z"/>
	<path fill-rule="evenodd" clip-rule="evenodd" fill="#FFFFFF" d="M77.223,124.632c-1.157,0.207-2.209,0.396-3.146,0.564
		c0.455-0.454,0.973-0.971,1.535-1.532C76.039,123.921,76.59,124.252,77.223,124.632z"/>
	<path fill-rule="evenodd" clip-rule="evenodd" fill="#FFFFFF" d="M97.785,90.145c1.135,0.598,2.27,1.196,3.507,1.848
		c-0.414,0.388-0.687,0.644-0.91,0.852c-0.87-0.875-1.737-1.746-2.603-2.618C97.781,90.199,97.783,90.172,97.785,90.145z"/>
	<path fill-rule="evenodd" clip-rule="evenodd" fill="#FFFFFF" d="M101.76,94.299c0.245-0.265,0.499-0.539,0.884-0.956
		c0.653,1.239,1.25,2.374,1.847,3.508c-0.041,0.017-0.082,0.032-0.123,0.049C103.507,96.04,102.645,95.181,101.76,94.299z"/>
</g>
</svg>
