<?xml version="1.0" encoding="utf-8"?>
<!-- Generator: Adobe Illustrator 16.0.0, SVG Export Plug-In . SVG Version: 6.00 Build 0)  -->
<!DOCTYPE svg PUBLIC "-//W3C//DTD SVG 1.1//EN" "http://www.w3.org/Graphics/SVG/1.1/DTD/svg11.dtd">
<svg version="1.1" id="Layer_1" xmlns="http://www.w3.org/2000/svg" xmlns:xlink="http://www.w3.org/1999/xlink" x="0px" y="0px"
	 width="157px" height="179px" viewBox="0 0 157 179" enable-background="new 0 0 157 179" xml:space="preserve">
<rect x="1.5" y="1.52" fill-rule="evenodd" clip-rule="evenodd" fill="#FFFFFF" stroke="#627D53" stroke-width="2" stroke-miterlimit="10" width="155" height="177"/>
<rect x="1.5" y="-0.48" fill-rule="evenodd" clip-rule="evenodd" fill="#627D53" width="155" height="56"/>
<g>
	<path fill="#FFFFFF" d="M40.945,20.22l-2.527-7.638h2.223l1.425,4.883h0.038l1.425-4.883h2.033l-2.527,7.638v5.662h-2.09V20.22z"/>
	<path fill="#FFFFFF" d="M46.835,25.197c-0.544-0.582-0.817-1.405-0.817-2.469v-6.992c0-1.064,0.272-1.888,0.817-2.471
		c0.544-0.582,1.33-0.874,2.356-0.874c1.026,0,1.812,0.292,2.356,0.874c0.545,0.583,0.817,1.406,0.817,2.471v6.992
		c0,1.063-0.272,1.887-0.817,2.469c-0.544,0.584-1.33,0.875-2.356,0.875C48.165,26.072,47.379,25.781,46.835,25.197z M50.274,22.861
		v-7.258c0-0.875-0.361-1.312-1.083-1.312c-0.722,0-1.083,0.437-1.083,1.312v7.258c0,0.873,0.361,1.311,1.083,1.311
		C49.913,24.172,50.274,23.734,50.274,22.861z"/>
	<path fill="#FFFFFF" d="M54.492,25.207c-0.532-0.576-0.798-1.402-0.798-2.479V12.582h2.09V22.88c0,0.456,0.092,0.786,0.275,0.987
		c0.184,0.203,0.447,0.305,0.789,0.305c0.342,0,0.605-0.102,0.789-0.305c0.184-0.201,0.275-0.531,0.275-0.987V12.582h2.014v10.146
		c0,1.076-0.266,1.902-0.798,2.479c-0.532,0.576-1.305,0.865-2.318,0.865S55.024,25.783,54.492,25.207z"/>
	<path fill="#FFFFFF" d="M63.042,14.482h-2.185v-1.9h6.46v1.9h-2.185v11.399h-2.09V14.482z"/>
	<path fill="#FFFFFF" d="M68.324,12.582h2.09v5.415h2.242v-5.415h2.09v13.3h-2.09v-5.985h-2.242v5.985h-2.09V12.582z"/>
	<path fill="#FFFFFF" d="M79.343,12.582h2.09v5.415h2.242v-5.415h2.09v13.3h-2.09v-5.985h-2.242v5.985h-2.09V12.582z"/>
	<path fill="#FFFFFF" d="M87.988,25.197c-0.544-0.582-0.817-1.405-0.817-2.469v-6.992c0-1.064,0.272-1.888,0.817-2.471
		c0.544-0.582,1.33-0.874,2.356-0.874c1.026,0,1.812,0.292,2.356,0.874c0.545,0.583,0.817,1.406,0.817,2.471v6.992
		c0,1.063-0.272,1.887-0.817,2.469c-0.544,0.584-1.33,0.875-2.356,0.875C89.318,26.072,88.533,25.781,87.988,25.197z M91.427,22.861
		v-7.258c0-0.875-0.361-1.312-1.083-1.312c-0.722,0-1.083,0.437-1.083,1.312v7.258c0,0.873,0.361,1.311,1.083,1.311
		C91.066,24.172,91.427,23.734,91.427,22.861z"/>
	<path fill="#FFFFFF" d="M95.579,25.217c-0.526-0.57-0.789-1.374-0.789-2.413V15.66c0-1.039,0.263-1.844,0.789-2.413
		c0.525-0.57,1.289-0.855,2.29-0.855c1,0,1.764,0.285,2.29,0.855c0.525,0.569,0.788,1.374,0.788,2.413v1.406h-1.976v-1.539
		c0-0.824-0.349-1.235-1.045-1.235c-0.696,0-1.045,0.411-1.045,1.235v7.429c0,0.811,0.349,1.216,1.045,1.216
		c0.697,0,1.045-0.405,1.045-1.216v-2.033h1.976v1.881c0,1.039-0.263,1.843-0.788,2.413c-0.526,0.57-1.289,0.855-2.29,0.855
		C96.868,26.072,96.104,25.787,95.579,25.217z"/>
	<path fill="#FFFFFF" d="M102.2,12.582h2.09v5.605l2.66-5.605h2.09l-2.489,4.883l2.527,8.417h-2.185l-1.767-5.929l-0.836,1.691
		v4.237h-2.09V12.582z"/>
	<path fill="#FFFFFF" d="M110.066,12.582h5.7v1.9h-3.61v3.515h2.869v1.899h-2.869v4.086h3.61v1.899h-5.7V12.582z"/>
	<path fill="#FFFFFF" d="M118.882,20.22l-2.527-7.638h2.223l1.425,4.883h0.038l1.425-4.883h2.033l-2.527,7.638v5.662h-2.09V20.22z"
		/>
	<path fill="#FFFFFF" d="M58.216,31.382h2.09v11.399h3.439v1.9h-5.529V31.382z"/>
	<path fill="#FFFFFF" d="M64.751,31.382h5.7v1.899h-3.61v3.516h2.869v1.9h-2.869v4.084h3.61v1.9h-5.7V31.382z"/>
	<path fill="#FFFFFF" d="M73.264,31.382h2.831l2.166,13.3h-2.09l-0.38-2.641v0.037h-2.375l-0.38,2.604h-1.938L73.264,31.382z
		 M75.543,40.273l-0.931-6.574h-0.038l-0.912,6.574H75.543z"/>
	<path fill="#FFFFFF" d="M79.875,44.008c-0.532-0.577-0.798-1.403-0.798-2.48v-6.992c0-1.076,0.266-1.902,0.798-2.479
		c0.532-0.576,1.305-0.865,2.318-0.865c1.013,0,1.786,0.289,2.318,0.865c0.532,0.576,0.798,1.402,0.798,2.479v1.141h-1.976v-1.273
		c0-0.873-0.361-1.311-1.083-1.311c-0.722,0-1.083,0.438-1.083,1.311v7.277c0,0.861,0.361,1.292,1.083,1.292
		c0.722,0,1.083-0.431,1.083-1.292v-2.604h-1.045v-1.899h3.021v4.351c0,1.077-0.266,1.903-0.798,2.48
		c-0.532,0.576-1.305,0.863-2.318,0.863C81.18,44.871,80.407,44.584,79.875,44.008z"/>
	<path fill="#FFFFFF" d="M87.38,44.008c-0.532-0.577-0.798-1.403-0.798-2.48V31.382h2.09V41.68c0,0.456,0.092,0.785,0.275,0.988
		s0.447,0.304,0.789,0.304c0.342,0,0.605-0.101,0.789-0.304S90.8,42.136,90.8,41.68V31.382h2.014v10.146
		c0,1.077-0.266,1.903-0.798,2.48c-0.532,0.576-1.305,0.863-2.318,0.863S87.912,44.584,87.38,44.008z"/>
	<path fill="#FFFFFF" d="M94.295,31.382h5.7v1.899h-3.61v3.516h2.869v1.9h-2.869v4.084h3.61v1.9h-5.7V31.382z"/>
	<path fill="#FFFFFF" d="M101.648,44.008c-0.52-0.577-0.779-1.403-0.779-2.48v-0.76h1.976v0.912c0,0.861,0.361,1.292,1.083,1.292
		c0.354,0,0.624-0.104,0.808-0.313c0.183-0.209,0.275-0.548,0.275-1.017c0-0.558-0.127-1.048-0.38-1.473
		c-0.254-0.424-0.722-0.934-1.406-1.529c-0.861-0.76-1.463-1.446-1.805-2.062c-0.342-0.614-0.513-1.308-0.513-2.08
		c0-1.052,0.266-1.865,0.798-2.441c0.532-0.576,1.305-0.865,2.318-0.865c1,0,1.758,0.289,2.271,0.865
		c0.513,0.576,0.77,1.402,0.77,2.479v0.551h-1.976v-0.684c0-0.455-0.089-0.788-0.266-0.997c-0.178-0.209-0.437-0.313-0.779-0.313
		c-0.697,0-1.045,0.424-1.045,1.273c0,0.48,0.13,0.93,0.39,1.349c0.259,0.418,0.731,0.925,1.416,1.52
		c0.874,0.761,1.476,1.45,1.805,2.071c0.33,0.621,0.494,1.35,0.494,2.186c0,1.089-0.269,1.925-0.808,2.508
		c-0.538,0.582-1.32,0.873-2.346,0.873C102.934,44.871,102.168,44.584,101.648,44.008z"/>
</g>
<g>
	<path fill-rule="evenodd" clip-rule="evenodd" fill="#627D53" d="M42.384,146.537c0.433-1.056,0.707-2.217,1.33-3.145
		c1.315-1.959,3.313-2.756,5.643-2.756c5.356,0.001,10.713-0.007,16.069,0.022c0.609,0.003,0.972-0.169,1.325-0.667
		c2.894-4.089,5.823-8.153,8.722-12.239c0.29-0.408,0.593-0.555,1.086-0.552c3.386,0.021,6.773,0.012,10.273,0.012
		c-0.155,0.256-0.25,0.439-0.37,0.606c-6.107,8.524-12.218,17.046-18.316,25.577c-0.273,0.382-0.552,0.529-1.025,0.527
		c-5.897-0.018-11.794-0.045-17.69,0.001c-3.628,0.028-6.49-2.392-6.953-5.713c-0.01-0.069-0.061-0.134-0.093-0.2
		C42.384,147.521,42.384,147.028,42.384,146.537z"/>
	<path fill-rule="evenodd" clip-rule="evenodd" fill="#627D53" d="M117.912,148.012c-0.287,1.223-0.654,2.4-1.478,3.4
		c-1.354,1.644-3.104,2.478-5.201,2.488c-6.07,0.03-12.14,0.017-18.209-0.005c-0.261-0.001-0.615-0.185-0.769-0.397
		c-3.033-4.172-6.047-8.357-9.045-12.555c-0.131-0.184-0.195-0.588-0.084-0.744c1.71-2.429,3.454-4.834,5.249-7.326
		c0.196,0.254,0.359,0.455,0.511,0.665c1.571,2.168,3.155,4.326,4.696,6.516c0.325,0.462,0.667,0.604,1.211,0.602
		c5.382-0.022,10.763-0.025,16.145-0.016c2.854,0.006,5.017,1.223,6.302,3.81c0.322,0.647,0.453,1.39,0.671,2.088
		C117.912,147.028,117.912,147.521,117.912,148.012z"/>
	<path fill-rule="evenodd" clip-rule="evenodd" fill="#627D53" d="M47.547,78.385c1.651,0.418,2.685,1.564,3.645,2.896
		c7.671,10.64,15.376,21.256,23.069,31.879c0.155,0.215,0.301,0.437,0.508,0.737c-0.289,0.017-0.495,0.038-0.701,0.038
		c-3.195,0.002-6.39-0.008-9.584,0.012c-0.462,0.003-0.748-0.124-1.027-0.513c-6.66-9.249-13.342-18.482-19.995-27.736
		c-0.462-0.643-0.723-1.43-1.077-2.149c0-0.491,0-0.983,0-1.476c0.127-0.341,0.243-0.687,0.384-1.021
		c0.621-1.481,1.842-2.224,3.304-2.666C46.563,78.385,47.055,78.385,47.547,78.385z"/>
	<path fill-rule="evenodd" clip-rule="evenodd" fill="#627D53" d="M117.912,83.548c-0.584,1.038-1.078,2.143-1.769,3.104
		c-6.389,8.899-12.817,17.77-19.213,26.664c-0.346,0.48-0.699,0.635-1.266,0.631c-3.341-0.023-6.682-0.012-10.17-0.012
		c0.208-0.299,0.348-0.51,0.498-0.716c7.852-10.843,15.711-21.679,23.545-32.535c0.831-1.151,1.875-1.904,3.211-2.3
		c0.492,0,0.983,0,1.475,0c0.408,0.157,0.828,0.289,1.222,0.476c1.367,0.647,2.046,1.833,2.466,3.212
		C117.912,82.564,117.912,83.057,117.912,83.548z"/>
	<path fill-rule="evenodd" clip-rule="evenodd" fill="#627D53" d="M81.918,78.385c1.232,0.199,2.474,0.354,3.696,0.607
		c1.594,0.331,3.118,0.858,4.434,1.874c1.546,1.193,1.538,2.708-0.021,3.902c-1.673,1.282-3.648,1.799-5.661,2.122
		c-3.427,0.551-6.854,0.477-10.235-0.385c-1.409-0.359-2.758-0.864-3.924-1.779c-1.469-1.153-1.485-2.675-0.017-3.814
		c1.788-1.388,3.912-1.872,6.079-2.23c0.7-0.115,1.405-0.199,2.108-0.297C79.558,78.385,80.738,78.385,81.918,78.385z"/>
	<path fill-rule="evenodd" clip-rule="evenodd" fill="#627D53" d="M69.084,89.431c7.402,3.027,14.737,3.021,22.093,0.017
		c0,1.64,0.133,3.318-0.033,4.968c-0.21,2.09-1.631,3.409-3.403,4.336c-3.548,1.854-7.319,2.087-11.187,1.393
		c-2.005-0.36-3.886-1.051-5.472-2.385c-1.334-1.122-2.057-2.527-2.005-4.312C69.115,92.104,69.084,90.76,69.084,89.431z"/>
	<path fill-rule="evenodd" clip-rule="evenodd" fill="#627D53" d="M93.27,118.361c-1.062,1.474-2.014,2.809-2.989,4.127
		c-0.11,0.148-0.35,0.285-0.53,0.285c-3.503,0.018-7.007,0.013-10.672,0.013c0.687-0.951,1.388-1.744,1.882-2.649
		c0.779-1.427,1.823-1.927,3.479-1.82c2.639,0.17,5.298,0.045,7.948,0.045C92.628,118.361,92.868,118.361,93.27,118.361z"/>
	<path fill-rule="evenodd" clip-rule="evenodd" fill="#627D53" d="M67.053,118.399c3.28,0,6.434,0,9.728,0
		c-1.632,2.261-3.216,4.452-4.869,6.741C70.278,122.875,68.696,120.68,67.053,118.399z"/>
</g>
</svg>
