<?xml version="1.0" encoding="utf-8"?>
<!-- Generator: Adobe Illustrator 16.0.0, SVG Export Plug-In . SVG Version: 6.00 Build 0)  -->
<!DOCTYPE svg PUBLIC "-//W3C//DTD SVG 1.1//EN" "http://www.w3.org/Graphics/SVG/1.1/DTD/svg11.dtd">
<svg version="1.1" id="Layer_1" xmlns="http://www.w3.org/2000/svg" xmlns:xlink="http://www.w3.org/1999/xlink" x="0px" y="0px"
	 width="134.023px" height="152.98px" viewBox="0 0 134.023 152.98" enable-background="new 0 0 134.023 152.98"
	 xml:space="preserve">
<g>
	<polyline fill="none" stroke="#000000" stroke-width="2" stroke-miterlimit="10" points="0.976,48.099 0.976,151.994 
		132.976,151.994 132.976,48.099 	"/>
</g>
<rect fill="#235F30" width="134.023" height="48.137"/>
<g>
	<path fill="#FFFFFF" d="M51.702,7.096c-0.077-0.153-0.207-0.23-0.391-0.23c-0.138,0-0.253,0.046-0.345,0.138
		c-0.123,0.108-0.2,0.28-0.23,0.518c-0.031,0.238-0.035,0.491-0.012,0.76s0.073,0.532,0.149,0.793s0.161,0.468,0.253,0.621
		c0.199,0.276,0.456,0.545,0.771,0.805c0.314,0.262,0.648,0.529,1,0.806c0.353,0.275,0.698,0.579,1.035,0.908
		c0.337,0.33,0.621,0.709,0.851,1.139c0.322,0.552,0.521,1.2,0.598,1.943c0.076,0.744,0.019,1.465-0.173,2.162
		c-0.192,0.698-0.537,1.308-1.035,1.828c-0.499,0.521-1.162,0.844-1.99,0.966c-0.153,0.016-0.303,0.027-0.448,0.035
		c-0.146,0.008-0.303,0.012-0.472,0.012c-0.905,0-1.633-0.15-2.185-0.449c-0.552-0.299-0.974-0.705-1.265-1.219
		s-0.487-1.119-0.586-1.817c-0.1-0.697-0.157-1.438-0.172-2.219h3.542c0.015,0.245,0.023,0.518,0.023,0.816s0.015,0.579,0.046,0.839
		c0.031,0.262,0.088,0.479,0.173,0.656c0.084,0.176,0.218,0.264,0.402,0.264c0.214,0,0.356-0.084,0.425-0.253
		c0.069-0.168,0.104-0.498,0.104-0.988c0-0.276-0.015-0.521-0.046-0.736s-0.107-0.426-0.23-0.633
		c-0.123-0.207-0.307-0.425-0.552-0.655c-0.245-0.229-0.575-0.498-0.989-0.805c-0.491-0.368-0.905-0.717-1.242-1.047
		c-0.337-0.329-0.613-0.682-0.828-1.058c-0.215-0.376-0.372-0.794-0.472-1.254c-0.1-0.46-0.149-0.989-0.149-1.587
		c0.015-1.426,0.337-2.515,0.966-3.266c0.628-0.751,1.656-1.127,3.082-1.127c1.027,0,1.855,0.245,2.484,0.735
		c0.46,0.354,0.801,0.794,1.024,1.323c0.222,0.528,0.379,1.046,0.471,1.552c0.092,0.506,0.138,0.943,0.138,1.312s0,0.567,0,0.598
		h-3.496c-0.046-0.613-0.069-1.081-0.069-1.403C51.863,7.556,51.809,7.295,51.702,7.096z"/>
	<path fill="#FFFFFF" d="M64.214,17.814c-0.261,0.828-0.682,1.46-1.265,1.897c-0.583,0.437-1.334,0.655-2.254,0.655
		c-0.215,0-0.399-0.02-0.552-0.058c-0.153-0.038-0.269-0.072-0.345-0.104v4.255h-2.783c0-0.215,0-0.375,0-0.482s0-0.296,0-0.563
		c0-0.269,0-0.675,0-1.219c0-0.545,0-1.361,0-2.45c0-1.088-0.004-2.515-0.012-4.277c-0.008-1.764-0.011-3.994-0.011-6.693h2.438
		v0.368c0.168-0.169,0.379-0.284,0.632-0.345c0.253-0.062,0.51-0.093,0.771-0.093c0.307,0,0.602,0.027,0.886,0.081
		c0.283,0.054,0.502,0.111,0.655,0.172c0.46,0.169,0.828,0.445,1.104,0.828c0.276,0.384,0.483,0.828,0.621,1.334
		c0.138,0.506,0.222,1.051,0.253,1.633c0.03,0.583,0.038,1.15,0.023,1.702c-0.031,0.66-0.039,1.296-0.023,1.909
		C64.367,16.978,64.321,17.461,64.214,17.814z M61.661,14.525c0-0.536-0.004-1.001-0.012-1.392s-0.039-0.713-0.092-0.966
		c-0.054-0.253-0.142-0.438-0.265-0.552c-0.123-0.115-0.299-0.173-0.529-0.173c-0.368,0.016-0.602,0.089-0.702,0.219
		c-0.1,0.13-0.165,0.295-0.195,0.494c0,1.166-0.004,2.101-0.012,2.806c-0.008,0.706,0.008,1.25,0.046,1.634
		c0.038,0.383,0.115,0.64,0.23,0.771c0.115,0.13,0.295,0.195,0.541,0.195h0.092c0.26-0.016,0.452-0.111,0.575-0.288
		c0.123-0.176,0.207-0.405,0.253-0.689c0.046-0.283,0.069-0.602,0.069-0.955C61.661,15.276,61.661,14.909,61.661,14.525z"/>
	<path fill="#FFFFFF" d="M73.299,14.433c0,0.644-0.02,1.284-0.058,1.92c-0.039,0.637-0.138,1.22-0.299,1.748
		c-0.161,0.529-0.407,0.985-0.736,1.369c-0.33,0.383-0.786,0.651-1.368,0.805c-0.123,0.03-0.28,0.054-0.472,0.069
		c-0.192,0.015-0.395,0.022-0.609,0.022c-0.215,0-0.426-0.008-0.633-0.022c-0.207-0.016-0.372-0.039-0.494-0.069
		c-0.675-0.169-1.192-0.426-1.553-0.771s-0.617-0.755-0.771-1.23s-0.241-1.001-0.265-1.575c-0.023-0.575-0.042-1.185-0.057-1.829
		c-0.016-0.751-0.008-1.495,0.023-2.23c0.03-0.736,0.157-1.399,0.379-1.99c0.222-0.59,0.59-1.065,1.104-1.426
		c0.514-0.359,1.246-0.54,2.196-0.54c0.767,0,1.388,0.104,1.863,0.311c0.475,0.207,0.843,0.54,1.104,1
		c0.26,0.46,0.433,1.055,0.518,1.783C73.256,12.504,73.299,13.39,73.299,14.433z M68.745,12.086c0,1.013-0.008,1.863-0.023,2.554
		c-0.016,0.689-0.004,1.242,0.035,1.656c0.038,0.413,0.123,0.709,0.253,0.885c0.13,0.177,0.341,0.265,0.632,0.265
		c0.276,0,0.495-0.096,0.656-0.287c0.161-0.191,0.241-0.502,0.241-0.932V12.57c0-0.521-0.081-0.858-0.241-1.012
		c-0.161-0.153-0.388-0.23-0.679-0.23c-0.337,0-0.563,0.073-0.678,0.219C68.825,11.692,68.76,11.873,68.745,12.086z"/>
	<path fill="#FFFFFF" d="M81.854,10.178c0,0.062-0.092,0.188-0.276,0.379c-0.184,0.192-0.399,0.396-0.644,0.609
		c-0.246,0.215-0.476,0.407-0.69,0.575c-0.215,0.169-0.36,0.253-0.437,0.253c-0.153,0-0.307-0.122-0.46-0.368
		c-0.077-0.122-0.177-0.245-0.299-0.367c-0.123-0.123-0.284-0.185-0.483-0.185c-0.429,0-0.659,0.199-0.69,0.599
		c0,0.199-0.004,0.536-0.011,1.012c-0.008,0.476-0.012,1.016-0.012,1.621c0,0.606,0,1.238,0,1.897c0,0.66,0,1.276,0,1.852
		s0,1.066,0,1.473s0,0.655,0,0.747h-2.806c0-0.107,0-0.191,0-0.253s-0.004-0.188-0.011-0.38c-0.008-0.191-0.012-0.494-0.012-0.908
		s0-1.031,0-1.852s0-1.882,0-3.186c0-1.303,0-2.944,0-4.922h2.737v0.621c0.26-0.215,0.563-0.387,0.908-0.518
		c0.345-0.13,0.686-0.195,1.023-0.195c0.184,0,0.36,0.02,0.529,0.058c0.168,0.038,0.322,0.104,0.46,0.195
		c0.123,0.077,0.249,0.173,0.379,0.287c0.13,0.115,0.256,0.23,0.379,0.346c0.123,0.114,0.222,0.226,0.299,0.333
		C81.816,10.009,81.854,10.101,81.854,10.178z"/>
	<path fill="#FFFFFF" d="M86.546,8.798c0.23,0,0.402,0.004,0.517,0.011c0.115,0.008,0.196,0.055,0.242,0.139
		s0.069,0.218,0.069,0.402c0,0.184,0,0.46,0,0.828v1.127c-0.015,0.107-0.057,0.176-0.126,0.207c-0.069,0.03-0.257,0.046-0.563,0.046
		h-0.759c0,1.38,0,2.453,0,3.22s0.003,1.342,0.011,1.725c0.008,0.384,0.023,0.629,0.046,0.736c0.023,0.107,0.057,0.185,0.104,0.23
		c0.046,0.076,0.199,0.114,0.46,0.114h0.115c0.077-0.015,0.146-0.022,0.207-0.022c0.061,0,0.115,0,0.161,0
		c0.184,0,0.288,0.08,0.311,0.241s0.034,0.525,0.034,1.093c0,0.353-0.004,0.625-0.011,0.816c-0.008,0.191-0.027,0.326-0.058,0.402
		c-0.031,0.077-0.088,0.123-0.172,0.138c-0.084,0.016-0.204,0.023-0.356,0.023c-0.292,0-0.598-0.008-0.92-0.023
		c-0.322-0.015-0.632-0.064-0.931-0.149c-0.299-0.084-0.575-0.214-0.828-0.391c-0.253-0.176-0.464-0.433-0.632-0.771
		c-0.23-0.46-0.342-1.334-0.333-2.622c0.007-1.288,0.019-2.875,0.034-4.761h-0.23h-0.138c-0.169,0-0.295-0.012-0.38-0.035
		c-0.084-0.022-0.146-0.08-0.184-0.172c-0.039-0.092-0.062-0.241-0.069-0.448s-0.011-0.495-0.011-0.863
		c0-0.337,0.003-0.59,0.011-0.759c0.008-0.168,0.042-0.287,0.104-0.356c0.061-0.069,0.161-0.107,0.299-0.115
		c0.138-0.007,0.337-0.019,0.598-0.034c0-0.398-0.004-0.729-0.011-0.989c-0.008-0.261-0.008-0.468,0-0.621
		c0.007-0.152,0.03-0.256,0.069-0.311c0.038-0.053,0.096-0.08,0.172-0.08h1.196h0.598c0.215,0,0.372,0.008,0.472,0.023
		c0.1,0.015,0.168,0.061,0.207,0.138c0.038,0.077,0.058,0.188,0.058,0.333c0,0.146,0,0.35,0,0.609v0.897L86.546,8.798z"/>
</g>
<g>
	<path fill="#FFFFFF" d="M20.629,26.371c0.751,0,1.399,0.068,1.943,0.207c0.544,0.138,1,0.372,1.369,0.701
		c0.368,0.33,0.656,0.763,0.862,1.3c0.207,0.536,0.357,1.211,0.449,2.023c0.046,0.354,0.081,0.855,0.104,1.507
		s0.038,1.338,0.046,2.059s0.004,1.434-0.011,2.139c-0.016,0.706-0.039,1.288-0.069,1.748c-0.062,0.905-0.18,1.668-0.356,2.289
		c-0.176,0.62-0.445,1.123-0.805,1.506c-0.361,0.384-0.832,0.659-1.415,0.828c-0.583,0.169-1.319,0.253-2.208,0.253
		c-0.154,0-0.303-0.004-0.449-0.012c-0.146-0.008-0.288-0.02-0.425-0.034c-0.859-0.092-1.53-0.318-2.013-0.679
		s-0.843-0.843-1.081-1.449c-0.238-0.605-0.387-1.33-0.448-2.173c-0.062-0.844-0.1-1.802-0.115-2.875
		c-0.031-1.564-0.015-2.895,0.046-3.99c0.061-1.097,0.207-2.009,0.437-2.737s0.567-1.288,1.012-1.679
		c0.444-0.392,1.035-0.671,1.771-0.84c0.153-0.03,0.353-0.054,0.598-0.069C20.115,26.378,20.368,26.371,20.629,26.371z
		 M21.25,39.687c0.168-0.106,0.291-0.356,0.368-0.747c0.076-0.392,0.13-0.84,0.161-1.346s0.046-1.027,0.046-1.563
		c0-0.537,0-0.997,0-1.381c0-0.582,0-1.153,0-1.713s-0.019-1.065-0.057-1.519c-0.039-0.452-0.096-0.839-0.173-1.161
		s-0.199-0.536-0.368-0.645c-0.107-0.092-0.284-0.138-0.529-0.138c-0.215,0-0.391,0.046-0.529,0.138
		c-0.153,0.108-0.272,0.326-0.356,0.656c-0.084,0.33-0.146,0.721-0.184,1.173c-0.039,0.452-0.058,0.954-0.058,1.507
		c0,0.552,0,1.119,0,1.701c0,0.798,0.004,1.465,0.012,2.001c0.007,0.537,0.026,0.985,0.058,1.346c0.03,0.36,0.069,0.648,0.115,0.862
		c0.046,0.215,0.1,0.392,0.161,0.529c0.077,0.138,0.191,0.245,0.345,0.322s0.314,0.115,0.483,0.115
		C20.928,39.826,21.097,39.779,21.25,39.687z"/>
	<path fill="#FFFFFF" d="M34.061,32.788c0,0.062-0.092,0.188-0.276,0.379c-0.184,0.192-0.399,0.396-0.644,0.609
		c-0.246,0.215-0.476,0.407-0.69,0.575c-0.215,0.169-0.36,0.253-0.437,0.253c-0.153,0-0.307-0.122-0.46-0.368
		c-0.077-0.122-0.177-0.245-0.299-0.367c-0.123-0.123-0.284-0.185-0.483-0.185c-0.429,0-0.659,0.199-0.69,0.599
		c0,0.199-0.004,0.536-0.011,1.012c-0.008,0.476-0.012,1.016-0.012,1.621c0,0.606,0,1.238,0,1.897c0,0.66,0,1.276,0,1.852
		s0,1.066,0,1.473s0,0.655,0,0.747h-2.806c0-0.107,0-0.191,0-0.253s-0.004-0.188-0.011-0.38c-0.008-0.191-0.012-0.494-0.012-0.908
		s0-1.031,0-1.852s0-1.882,0-3.186c0-1.303,0-2.944,0-4.922h2.737v0.621c0.26-0.215,0.563-0.387,0.908-0.518
		c0.345-0.13,0.686-0.195,1.023-0.195c0.184,0,0.36,0.02,0.529,0.058c0.168,0.038,0.322,0.104,0.46,0.195
		c0.123,0.077,0.249,0.173,0.379,0.287c0.13,0.115,0.256,0.23,0.379,0.346c0.123,0.114,0.222,0.226,0.299,0.333
		C34.022,32.619,34.061,32.71,34.061,32.788z"/>
	<path fill="#FFFFFF" d="M38.89,44.218c0.138-0.077,0.245-0.191,0.322-0.345c0.076-0.153,0.126-0.311,0.149-0.472
		s0.038-0.307,0.046-0.438c0.007-0.13,0.012-0.218,0.012-0.264l-0.322,0.114c-0.322,0.107-0.675,0.161-1.058,0.161
		c-0.429,0-0.843-0.072-1.242-0.219c-0.399-0.146-0.755-0.356-1.07-0.632c-0.314-0.276-0.563-0.609-0.747-1.001
		c-0.184-0.391-0.276-0.824-0.276-1.299c0-1.181-0.004-2.128-0.011-2.841c-0.008-0.713-0.008-1.292,0-1.736
		c0.007-0.444,0.03-0.797,0.069-1.059c0.038-0.26,0.104-0.521,0.195-0.781c0.184-0.491,0.418-0.874,0.702-1.15
		s0.575-0.49,0.874-0.644s0.594-0.25,0.886-0.288c0.291-0.038,0.536-0.058,0.736-0.058c0.123,0,0.226,0.004,0.311,0.012
		c0.084,0.008,0.134,0.012,0.149,0.012c0.23,0.03,0.429,0.088,0.598,0.172c0.168,0.085,0.291,0.165,0.368,0.242v-0.322h2.507
		c0,0.798,0.007,1.595,0.023,2.392c0,0.676,0.003,1.389,0.011,2.14s0.012,1.418,0.012,2.001c0.015,1.549-0.008,2.897-0.069,4.048
		c-0.062,1.15-0.223,2.108-0.483,2.875s-0.644,1.338-1.15,1.714c-0.506,0.375-1.196,0.563-2.07,0.563
		c-0.123,0-0.246-0.004-0.368-0.012c-0.123-0.008-0.253-0.02-0.391-0.035c-0.491-0.046-0.931-0.184-1.322-0.413
		c-0.391-0.23-0.717-0.521-0.978-0.874c-0.261-0.354-0.457-0.752-0.586-1.196c-0.13-0.445-0.181-0.913-0.149-1.403
		c0.015-0.077,0.142-0.134,0.379-0.172c0.237-0.039,0.51-0.058,0.816-0.058c0.291,0,0.563,0.011,0.816,0.034s0.395,0.05,0.426,0.08
		c0.046,0.031,0.088,0.1,0.126,0.207c0.038,0.107,0.081,0.227,0.126,0.356c0.046,0.131,0.104,0.257,0.172,0.38
		s0.149,0.215,0.242,0.276c0.184,0.092,0.36,0.138,0.529,0.138c0.168,0,0.311-0.027,0.425-0.08
		C38.741,44.291,38.829,44.249,38.89,44.218z M39.235,39.296c0.015-0.092,0.026-0.341,0.034-0.748
		c0.008-0.405,0.012-0.843,0.012-1.311s-0.004-0.916-0.012-1.346c-0.008-0.429-0.019-0.713-0.034-0.851
		c-0.031-0.353-0.115-0.605-0.253-0.759c-0.138-0.153-0.345-0.23-0.621-0.23c-0.292,0-0.502,0.107-0.633,0.322
		s-0.218,0.479-0.264,0.793c-0.046,0.314-0.062,0.648-0.046,1.001c0.015,0.353,0.023,0.667,0.023,0.942
		c0,0.507,0.003,0.951,0.011,1.334c0.008,0.384,0.042,0.702,0.104,0.955c0.061,0.253,0.157,0.444,0.288,0.575
		c0.13,0.13,0.318,0.195,0.563,0.195c0.261,0,0.452-0.081,0.575-0.241C39.105,39.768,39.189,39.557,39.235,39.296z"/>
	<path fill="#FFFFFF" d="M48.619,42.424c-0.276,0.245-0.594,0.398-0.955,0.46s-0.694,0.092-1,0.092c-0.429,0-0.878-0.1-1.345-0.299
		c-0.468-0.199-0.839-0.468-1.116-0.805c-0.429-0.537-0.686-1.104-0.771-1.702s-0.054-1.169,0.092-1.714
		c0.146-0.544,0.387-1.035,0.725-1.472c0.337-0.438,0.705-0.755,1.104-0.954c0.276-0.139,0.559-0.23,0.851-0.276
		s0.567-0.069,0.828-0.069c0.353,0,0.644,0.023,0.874,0.069c0.123,0.016,0.238,0.038,0.345,0.069
		c-0.016-0.153-0.031-0.322-0.046-0.507c-0.015-0.184-0.05-0.359-0.104-0.528s-0.142-0.311-0.264-0.426
		c-0.123-0.115-0.299-0.173-0.529-0.173c-0.261,0-0.445,0.058-0.552,0.173c-0.107,0.115-0.223,0.364-0.345,0.747
		c-0.031,0.093-0.062,0.161-0.092,0.207c-0.031,0.046-0.092,0.081-0.184,0.104c-0.092,0.023-0.223,0.039-0.391,0.046
		c-0.169,0.009-0.406,0.012-0.713,0.012c-0.537,0-0.882-0.012-1.035-0.034c-0.153-0.023-0.253-0.088-0.299-0.195
		c-0.031-0.062-0.046-0.161-0.046-0.299c0-0.139,0.015-0.288,0.046-0.449s0.069-0.329,0.115-0.506
		c0.046-0.176,0.099-0.341,0.161-0.494c0.276-0.736,0.717-1.288,1.323-1.656c0.605-0.368,1.299-0.552,2.082-0.552
		c0.966,0,1.755,0.241,2.369,0.725c0.613,0.482,1.004,1.207,1.173,2.173c0.015,0.062,0.026,0.139,0.034,0.23
		s0.012,0.241,0.012,0.448s0.003,0.499,0.011,0.874c0.008,0.376,0.012,0.874,0.012,1.495s0,1.392,0,2.312s0,2.032,0,3.335h-2.369
		V42.424z M46.871,40.377c0.077,0.03,0.192,0.046,0.345,0.046c0.261,0,0.491-0.088,0.69-0.265c0.199-0.176,0.307-0.44,0.322-0.793
		c0.015-0.353-0.073-0.633-0.265-0.84c-0.192-0.207-0.457-0.318-0.793-0.334c-0.261-0.015-0.483,0.069-0.667,0.253
		c-0.184,0.185-0.307,0.399-0.368,0.645c-0.062,0.245-0.039,0.491,0.069,0.736S46.534,40.254,46.871,40.377z"/>
	<path fill="#FFFFFF" d="M57.52,42.884c0-0.122,0-0.387,0-0.794c0-0.405-0.004-0.893-0.011-1.46
		c-0.008-0.567-0.016-1.173-0.023-1.817c-0.008-0.644-0.016-1.261-0.023-1.852c-0.008-0.59-0.016-1.115-0.023-1.575
		c-0.008-0.46-0.012-0.782-0.012-0.966c0-0.199-0.069-0.38-0.207-0.541c-0.138-0.16-0.345-0.241-0.621-0.241
		c-0.199,0-0.387,0.054-0.563,0.161s-0.28,0.269-0.311,0.483c-0.015,0.153-0.027,0.475-0.034,0.966
		c-0.008,0.49-0.016,1.111-0.023,1.862c-0.008,0.752-0.008,1.618,0,2.6c0.007,0.981,0.011,2.039,0.011,3.174h-2.806
		c0-0.153-0.004-0.272-0.011-0.356c-0.008-0.084-0.012-0.23-0.012-0.438s-0.004-0.517-0.011-0.931
		c-0.008-0.414-0.012-1.023-0.012-1.829c0-0.805,0-1.848,0-3.128s0-2.887,0-4.818h2.553v0.437c0.168-0.184,0.41-0.321,0.724-0.413
		c0.314-0.093,0.633-0.139,0.955-0.139c0.23,0,0.437,0.023,0.621,0.069c0.537,0.107,0.962,0.272,1.276,0.494
		c0.314,0.223,0.56,0.468,0.736,0.736c0.176,0.269,0.295,0.548,0.356,0.84c0.061,0.291,0.107,0.567,0.138,0.827v8.648H57.52z"/>
	<path fill="#FFFFFF" d="M64.696,30.741H61.89c0-0.169,0-0.434,0-0.794s0.003-0.729,0.012-1.104
		c0.007-0.376,0.011-0.848,0.011-1.415h1.794h0.989V30.741z M61.936,42.884c0-0.107,0-0.456,0-1.047c0-0.59-0.004-1.299-0.011-2.127
		c-0.008-0.828-0.012-1.714-0.012-2.656c0-0.943,0-1.817,0-2.622c0-0.806,0.004-1.476,0.012-2.013
		c0.007-0.537,0.011-0.813,0.011-0.828c0.046-0.076,0.153-0.13,0.322-0.161c0.168-0.03,0.513-0.046,1.035-0.046
		c0.537,0,0.889,0.016,1.058,0.046c0.168,0.031,0.276,0.085,0.322,0.161c0,0.016,0.003,0.184,0.011,0.506s0.012,0.744,0.012,1.265
		c0,0.521,0,1.116,0,1.783s0,1.346,0,2.035c0,0.69,0,1.368,0,2.035s0,1.27,0,1.806c0,0.537,0,0.975,0,1.312s0,0.521,0,0.552H61.936z
		"/>
	<path fill="#FFFFFF" d="M72.883,40.262c0.077,0,0.13,0.012,0.161,0.034c0.03,0.023,0.046,0.097,0.046,0.219
		c0,0.552,0.003,0.985,0.011,1.3s0.008,0.548,0,0.701s-0.027,0.25-0.057,0.288c-0.031,0.038-0.084,0.057-0.161,0.057
		c-0.537,0-1.074,0-1.61,0c-0.476,0.016-0.981,0.023-1.518,0.023c-0.537,0-1.051,0-1.541,0c-0.491,0-0.901,0-1.23,0
		c-0.33,0-0.51-0.008-0.541-0.023c-0.092-0.015-0.154-0.057-0.184-0.126c-0.031-0.069-0.054-0.191-0.069-0.368
		c-0.016-0.176-0.023-0.418-0.023-0.725s0-0.713,0-1.219c0.062-0.123,0.196-0.36,0.403-0.713s0.444-0.767,0.713-1.242
		c0.268-0.475,0.552-0.974,0.851-1.495c0.299-0.521,0.575-1,0.828-1.438c0.253-0.437,0.541-0.946,0.862-1.529
		c-0.66-0.016-1.192-0.023-1.599-0.023s-0.793,0-1.161,0c-0.368,0-0.591,0-0.667,0c-0.062,0-0.108-0.011-0.138-0.034
		c-0.031-0.023-0.054-0.076-0.069-0.161c-0.016-0.084-0.023-0.215-0.023-0.391c0-0.177,0-0.418,0-0.725s0.004-0.544,0.012-0.713
		s0.019-0.295,0.035-0.38c0.015-0.084,0.038-0.138,0.069-0.161c0.031-0.022,0.069-0.034,0.115-0.034h6.486
		c0.077,0,0.134,0.012,0.172,0.034c0.038,0.023,0.058,0.104,0.058,0.242l-0.046,2.162c0,0.015-0.092,0.184-0.276,0.506
		c-0.184,0.321-0.406,0.721-0.667,1.195c-0.261,0.476-0.544,0.989-0.851,1.541c-0.307,0.553-0.595,1.066-0.863,1.541
		c-0.269,0.476-0.579,1.027-0.932,1.656h0.437H72.883z"/>
	<path fill="#FFFFFF" d="M79.3,42.424c-0.276,0.245-0.594,0.398-0.955,0.46s-0.694,0.092-1,0.092c-0.429,0-0.878-0.1-1.345-0.299
		c-0.468-0.199-0.839-0.468-1.116-0.805c-0.429-0.537-0.686-1.104-0.771-1.702s-0.054-1.169,0.092-1.714
		c0.146-0.544,0.387-1.035,0.725-1.472c0.337-0.438,0.705-0.755,1.104-0.954c0.276-0.139,0.559-0.23,0.851-0.276
		s0.567-0.069,0.828-0.069c0.353,0,0.644,0.023,0.874,0.069c0.123,0.016,0.238,0.038,0.345,0.069
		c-0.016-0.153-0.031-0.322-0.046-0.507c-0.015-0.184-0.05-0.359-0.104-0.528s-0.142-0.311-0.264-0.426
		c-0.123-0.115-0.299-0.173-0.529-0.173c-0.261,0-0.445,0.058-0.552,0.173c-0.107,0.115-0.223,0.364-0.345,0.747
		c-0.031,0.093-0.062,0.161-0.092,0.207c-0.031,0.046-0.092,0.081-0.184,0.104c-0.092,0.023-0.223,0.039-0.391,0.046
		c-0.169,0.009-0.406,0.012-0.713,0.012c-0.537,0-0.882-0.012-1.035-0.034c-0.153-0.023-0.253-0.088-0.299-0.195
		c-0.031-0.062-0.046-0.161-0.046-0.299c0-0.139,0.015-0.288,0.046-0.449s0.069-0.329,0.115-0.506
		c0.046-0.176,0.099-0.341,0.161-0.494c0.276-0.736,0.717-1.288,1.323-1.656c0.605-0.368,1.299-0.552,2.082-0.552
		c0.966,0,1.755,0.241,2.369,0.725c0.613,0.482,1.004,1.207,1.173,2.173c0.015,0.062,0.026,0.139,0.034,0.23
		s0.012,0.241,0.012,0.448s0.003,0.499,0.011,0.874c0.008,0.376,0.012,0.874,0.012,1.495s0,1.392,0,2.312s0,2.032,0,3.335H79.3
		V42.424z M77.552,40.377c0.077,0.03,0.192,0.046,0.345,0.046c0.261,0,0.491-0.088,0.69-0.265c0.199-0.176,0.307-0.44,0.322-0.793
		c0.015-0.353-0.073-0.633-0.265-0.84c-0.192-0.207-0.457-0.318-0.793-0.334c-0.261-0.015-0.483,0.069-0.667,0.253
		c-0.184,0.185-0.307,0.399-0.368,0.645c-0.062,0.245-0.039,0.491,0.069,0.736S77.214,40.254,77.552,40.377z"/>
	<path fill="#FFFFFF" d="M87.143,31.408c0.23,0,0.402,0.004,0.517,0.011c0.115,0.008,0.196,0.055,0.242,0.139
		s0.069,0.218,0.069,0.402c0,0.184,0,0.46,0,0.828v1.127c-0.015,0.107-0.057,0.176-0.126,0.207c-0.069,0.03-0.257,0.046-0.563,0.046
		h-0.759c0,1.38,0,2.453,0,3.22s0.003,1.342,0.011,1.725c0.008,0.384,0.023,0.629,0.046,0.736c0.023,0.107,0.057,0.185,0.104,0.23
		c0.046,0.076,0.199,0.114,0.46,0.114h0.115c0.077-0.015,0.146-0.022,0.207-0.022c0.061,0,0.115,0,0.161,0
		c0.184,0,0.288,0.08,0.311,0.241s0.034,0.525,0.034,1.093c0,0.353-0.004,0.625-0.011,0.816c-0.008,0.191-0.027,0.326-0.058,0.402
		c-0.031,0.077-0.088,0.123-0.172,0.138c-0.084,0.016-0.204,0.023-0.356,0.023c-0.292,0-0.598-0.008-0.92-0.023
		c-0.322-0.015-0.632-0.064-0.931-0.149c-0.299-0.084-0.575-0.214-0.828-0.391c-0.253-0.176-0.464-0.433-0.632-0.771
		c-0.23-0.46-0.342-1.334-0.333-2.622c0.007-1.288,0.019-2.875,0.034-4.761h-0.23h-0.138c-0.169,0-0.295-0.012-0.38-0.035
		c-0.084-0.022-0.146-0.08-0.184-0.172c-0.039-0.092-0.062-0.241-0.069-0.448s-0.011-0.495-0.011-0.863
		c0-0.337,0.003-0.59,0.011-0.759c0.008-0.168,0.042-0.287,0.104-0.356c0.061-0.069,0.161-0.107,0.299-0.115
		c0.138-0.007,0.337-0.019,0.598-0.034c0-0.398-0.004-0.729-0.011-0.989c-0.008-0.261-0.008-0.468,0-0.621
		c0.007-0.152,0.03-0.256,0.069-0.311c0.038-0.053,0.096-0.08,0.172-0.08h1.196h0.598c0.215,0,0.372,0.008,0.472,0.023
		c0.1,0.015,0.168,0.061,0.207,0.138c0.038,0.077,0.058,0.188,0.058,0.333c0,0.146,0,0.35,0,0.609v0.897L87.143,31.408z"/>
	<path fill="#FFFFFF" d="M91.949,30.741h-2.806c0-0.169,0-0.434,0-0.794s0.003-0.729,0.012-1.104
		c0.007-0.376,0.011-0.848,0.011-1.415h1.794h0.989V30.741z M89.189,42.884c0-0.107,0-0.456,0-1.047c0-0.59-0.004-1.299-0.011-2.127
		c-0.008-0.828-0.012-1.714-0.012-2.656c0-0.943,0-1.817,0-2.622c0-0.806,0.004-1.476,0.012-2.013
		c0.007-0.537,0.011-0.813,0.011-0.828c0.046-0.076,0.153-0.13,0.322-0.161c0.168-0.03,0.513-0.046,1.035-0.046
		c0.537,0,0.889,0.016,1.058,0.046c0.168,0.031,0.276,0.085,0.322,0.161c0,0.016,0.003,0.184,0.011,0.506s0.012,0.744,0.012,1.265
		c0,0.521,0,1.116,0,1.783s0,1.346,0,2.035c0,0.69,0,1.368,0,2.035s0,1.27,0,1.806c0,0.537,0,0.975,0,1.312s0,0.521,0,0.552H89.189z
		"/>
	<path fill="#FFFFFF" d="M100.988,37.042c0,0.644-0.02,1.284-0.058,1.92c-0.039,0.637-0.138,1.22-0.299,1.748
		c-0.161,0.529-0.407,0.985-0.736,1.369c-0.33,0.383-0.786,0.651-1.368,0.805c-0.123,0.03-0.28,0.054-0.472,0.069
		c-0.192,0.015-0.395,0.022-0.609,0.022c-0.215,0-0.426-0.008-0.633-0.022c-0.207-0.016-0.372-0.039-0.494-0.069
		c-0.675-0.169-1.192-0.426-1.553-0.771s-0.617-0.755-0.771-1.23s-0.241-1.001-0.265-1.575c-0.023-0.575-0.042-1.185-0.057-1.829
		c-0.016-0.751-0.008-1.495,0.023-2.23c0.03-0.736,0.157-1.399,0.379-1.99c0.222-0.59,0.59-1.065,1.104-1.426
		c0.514-0.359,1.246-0.54,2.196-0.54c0.767,0,1.388,0.104,1.863,0.311c0.475,0.207,0.843,0.54,1.104,1
		c0.26,0.46,0.433,1.055,0.518,1.783C100.945,35.114,100.988,36,100.988,37.042z M96.434,34.696c0,1.013-0.008,1.863-0.023,2.554
		c-0.016,0.689-0.004,1.242,0.035,1.656c0.038,0.413,0.123,0.709,0.253,0.885c0.13,0.177,0.341,0.265,0.632,0.265
		c0.276,0,0.495-0.096,0.656-0.287c0.161-0.191,0.241-0.502,0.241-0.932v-3.657c0-0.521-0.081-0.858-0.241-1.012
		c-0.161-0.153-0.388-0.23-0.679-0.23c-0.337,0-0.563,0.073-0.678,0.219C96.514,34.301,96.449,34.482,96.434,34.696z"/>
	<path fill="#FFFFFF" d="M107.404,42.884c0-0.122,0-0.387,0-0.794c0-0.405-0.004-0.893-0.011-1.46
		c-0.008-0.567-0.016-1.173-0.023-1.817c-0.008-0.644-0.016-1.261-0.023-1.852c-0.008-0.59-0.016-1.115-0.023-1.575
		c-0.008-0.46-0.012-0.782-0.012-0.966c0-0.199-0.069-0.38-0.207-0.541c-0.138-0.16-0.345-0.241-0.621-0.241
		c-0.199,0-0.387,0.054-0.563,0.161s-0.28,0.269-0.311,0.483c-0.015,0.153-0.027,0.475-0.034,0.966
		c-0.008,0.49-0.016,1.111-0.023,1.862c-0.008,0.752-0.008,1.618,0,2.6c0.007,0.981,0.011,2.039,0.011,3.174h-2.806
		c0-0.153-0.004-0.272-0.011-0.356c-0.008-0.084-0.012-0.23-0.012-0.438s-0.004-0.517-0.011-0.931
		c-0.008-0.414-0.012-1.023-0.012-1.829c0-0.805,0-1.848,0-3.128s0-2.887,0-4.818h2.553v0.437c0.168-0.184,0.41-0.321,0.724-0.413
		c0.314-0.093,0.633-0.139,0.955-0.139c0.23,0,0.437,0.023,0.621,0.069c0.537,0.107,0.962,0.272,1.276,0.494
		c0.314,0.223,0.56,0.468,0.736,0.736c0.176,0.269,0.295,0.548,0.356,0.84c0.061,0.291,0.107,0.567,0.138,0.827v8.648H107.404z"/>
	<path fill="#FFFFFF" d="M117.133,34.857h-0.322c-0.261,0-0.46-0.003-0.598-0.011c-0.138-0.008-0.241-0.027-0.311-0.058
		c-0.069-0.031-0.123-0.077-0.161-0.139c-0.038-0.061-0.08-0.146-0.126-0.253c-0.077-0.168-0.168-0.287-0.276-0.356
		c-0.107-0.068-0.261-0.104-0.46-0.104c-0.246,0-0.453,0.077-0.621,0.23c-0.169,0.153-0.253,0.376-0.253,0.667
		c0,0.275,0.061,0.472,0.184,0.586c0.123,0.115,0.288,0.192,0.495,0.23s0.44,0.062,0.701,0.069s0.521,0.05,0.782,0.126
		c0.583,0.138,1.054,0.388,1.415,0.748c0.36,0.36,0.625,0.778,0.793,1.253c0.168,0.476,0.241,0.978,0.218,1.507
		c-0.023,0.528-0.134,1.031-0.333,1.506c-0.199,0.476-0.487,0.894-0.862,1.254c-0.376,0.36-0.832,0.609-1.369,0.747
		c-0.307,0.077-0.69,0.115-1.15,0.115c-0.184,0-0.368-0.008-0.552-0.022c-0.184-0.016-0.353-0.046-0.506-0.093
		c-0.506-0.138-0.935-0.379-1.288-0.724c-0.353-0.346-0.629-0.705-0.828-1.081c-0.2-0.376-0.322-0.725-0.368-1.047
		s-0.023-0.529,0.069-0.621l0.115-0.115c0.659,0.016,1.223,0.023,1.69,0.023s0.725,0.016,0.771,0.046
		c0.107,0.107,0.184,0.234,0.23,0.38s0.161,0.272,0.345,0.379c0.107,0.062,0.237,0.092,0.391,0.092s0.303-0.042,0.449-0.126
		c0.146-0.084,0.256-0.211,0.333-0.38c0.077-0.122,0.115-0.275,0.115-0.46c0-0.184-0.038-0.329-0.115-0.437
		c-0.153-0.185-0.349-0.291-0.586-0.322c-0.238-0.03-0.514-0.062-0.828-0.092c-0.314-0.03-0.652-0.104-1.012-0.219
		s-0.732-0.364-1.115-0.747c-0.353-0.353-0.602-0.713-0.748-1.081c-0.146-0.368-0.218-0.828-0.218-1.38
		c0-0.567,0.092-1.085,0.276-1.553s0.44-0.866,0.771-1.196c0.33-0.329,0.72-0.586,1.173-0.771c0.452-0.184,0.955-0.276,1.506-0.276
		c0.874,0,1.622,0.246,2.243,0.736c0.621,0.491,1.039,1.166,1.253,2.024c0.123,0.429,0.134,0.693,0.035,0.793
		c-0.1,0.101-0.303,0.149-0.609,0.149H117.133z"/>
</g>
<path fill-rule="evenodd" clip-rule="evenodd" fill="#010101" d="M74.643,79.323c2.063,0.79,4.089,1.508,6.064,2.342
	c2.134,0.901,4.094,2.102,5.732,3.776c2.348,2.401,3.329,5.359,3.486,8.635c0.063,1.325,0.036,2.655,0.021,3.983
	c-0.002,0.212-0.116,0.453-0.247,0.629c-4.694,6.257-10.889,10.052-18.694,10.761c-10.276,0.937-18.459-2.992-24.534-11.317
	c-0.172-0.235-0.271-0.579-0.274-0.875c-0.027-2.117-0.038-4.232,0.35-6.332c0.677-3.666,2.61-6.425,5.862-8.259
	c2.841-1.603,5.945-2.456,9.124-3.261c1.728,4.063,3.443,8.09,5.158,12.118c0.032-0.004,0.064-0.005,0.096-0.007
	c0.014-0.116,0.041-0.229,0.041-0.343c0.01-1.665,0.039-3.33,0.008-4.994c-0.007-0.438-0.185-0.878-0.317-1.306
	c-0.152-0.491-0.34-0.974-0.528-1.509h4.737c-0.234,0.652-0.466,1.258-0.665,1.874c-0.091,0.284-0.156,0.587-0.158,0.883
	c-0.014,1.812-0.007,3.625,0.114,5.473C71.54,87.555,73.062,83.517,74.643,79.323"/>
<path fill-rule="evenodd" clip-rule="evenodd" fill="#010101" d="M43.232,106.754c-1.518,1.205-2.944,2.324-4.349,3.473
	c-0.115,0.095-0.149,0.39-0.107,0.564c0.86,3.621-5.503-5.645-2.997-4.076c0.391,0.245,0.611,0.206,0.948-0.064
	c2.237-1.807,4.492-3.589,6.742-5.377c0.13-0.104,0.265-0.202,0.425-0.323c6.032,8.184,14.056,12.736,24.257,12.744
	c10.208,0.009,18.237-4.533,24.302-12.738c0.145,0.107,0.293,0.207,0.432,0.319c2.304,1.83,4.609,3.658,6.901,5.5
	c0.317,0.255-1.879,3.847-1.863,3.787c-1.596-1.266-3.163-2.512-4.813-3.821c-0.856,0.882-1.635,1.789-2.52,2.581
	c-5.654,5.055-12.275,7.887-19.834,8.511c-0.373,0.03-0.524,0.112-0.517,0.523c0.024,1.512,0.021,3.025,0.001,4.539
	c-0.004,0.344,0.113,0.487,0.431,0.613c3.015,1.188-7.799,1.283-5.023,0.093c0.344-0.148,0.478-0.315,0.472-0.699
	c-0.023-1.512-0.017-3.025-0.003-4.539c0.003-0.346-0.066-0.492-0.458-0.526c-8.722-0.728-16.078-4.296-22.086-10.65
	C43.458,107.066,43.364,106.923,43.232,106.754"/>
<path fill-rule="evenodd" clip-rule="evenodd" fill="#010101" d="M58.605,67.777c0.059-3.287,1.049-6.267,3.453-8.666
	c3.546-3.54,8.767-3.545,12.316-0.011c2.293,2.285,3.395,5.123,3.425,8.316c0.046,4.496-1.476,8.465-4.437,11.853
	c-0.525,0.601-1.159,1.13-1.819,1.581c-2.186,1.492-4.497,1.47-6.689-0.01c-1.565-1.059-2.714-2.497-3.658-4.106
	C59.585,73.985,58.685,71.027,58.605,67.777"/>
<path fill-rule="evenodd" clip-rule="evenodd" fill="#010101" d="M67.357,121.881c6.297,0.003,11.372,5.106,11.36,11.427
	c-0.011,6.184-5.128,11.255-11.336,11.255c-6.195,0-11.364-5.032-11.346-11.407C56.051,126.979,61.168,121.878,67.357,121.881
	 M70.799,123.541c0.018-0.009,0.038-0.019,0.058-0.029c0.001-0.002,0-0.011,0-0.017C70.837,123.51,70.817,123.524,70.799,123.541
	c0.574,0.441,0.912,1.064,1.228,1.688c0.781,1.541,1.218,3.186,1.354,4.907c0.007,0.1-0.037,0.228,0.075,0.287
	c0.125,0.065,0.23-0.029,0.314-0.104c0.213-0.184,0.445-0.34,0.614-0.588c0.605-0.89,0.748-1.925,0.958-2.94
	c0.031-0.149-0.043-0.248-0.131-0.35c-1.15-1.307-2.529-2.288-4.157-2.914C70.963,123.494,70.881,123.475,70.799,123.541
	 M70.2,143.195c1.846-0.512,3.401-1.504,4.739-2.859c0.174-0.178,0.278-0.374,0.303-0.609c0.083-0.81,0.114-1.62-0.07-2.421
	c-0.218-0.954-0.613-1.804-1.432-2.401c-0.173-0.125-0.28-0.185-0.307,0.117c-0.069,0.789-0.19,1.571-0.329,2.353
	c-0.241,1.359-0.703,2.62-1.402,3.801c-0.429,0.721-1.001,1.334-1.555,1.96c-0.023,0.018-0.047,0.04-0.072,0.059
	C70.116,143.237,70.157,143.218,70.2,143.195 M66.189,132.951c-1.172,0.042-2.583,0.075-3.993,0.144
	c-1.606,0.075-3.208,0.189-4.799,0.432c-0.277,0.042-0.39,0.13-0.367,0.443c0.156,2.037,0.851,3.865,2.071,5.494
	c0.273,0.361,0.531,0.751,0.918,1.006c0.625,0.415,1.291,0.326,1.959,0.109c1.306-0.422,2.458-1.136,3.599-1.873
	c1.777-1.151,3.342-2.548,4.831-4.042c0.52-0.521,1.133-0.931,1.897-1.025c0.276-0.034,0.218-0.227,0.232-0.405
	c0.019-0.227-0.124-0.209-0.273-0.218c-0.325-0.015-0.651-0.059-0.975-0.06C69.669,132.948,68.048,132.951,66.189,132.951
	 M57.038,132.342c-0.046,0.193,0.009,0.292,0.327,0.228c0.963-0.188,1.944-0.26,2.92-0.328c3.408-0.243,6.822-0.301,10.237-0.237
	c0.599,0.01,1.198,0.032,1.796,0.057c0.14,0.005,0.241-0.02,0.207-0.185c-0.031-0.146,0.11-0.356-0.151-0.42
	c-0.768-0.187-1.402-0.61-1.972-1.137c-0.913-0.842-1.799-1.711-2.813-2.436c-1.541-1.105-3.197-1.978-5.016-2.524
	c-0.877-0.266-1.767-0.143-2.402,0.452C58.317,127.547,57.311,129.737,57.038,132.342 M61.472,141.686
	c0.035,0.063,0.042,0.09,0.061,0.105c1.916,1.289,4.028,1.896,6.338,1.794c0.131-0.005,0.257-0.019,0.367-0.108
	c0.861-0.69,1.668-1.429,2.313-2.332c1.364-1.904,1.782-4.091,1.928-6.366c0.016-0.228-0.079-0.195-0.228-0.149
	c-0.518,0.153-0.937,0.47-1.298,0.848c-1.636,1.712-3.456,3.194-5.469,4.439C64.238,140.686,62.965,141.408,61.472,141.686
	 M72.452,130.445c-0.064-1.034-0.229-1.998-0.498-2.941c-0.513-1.801-1.382-3.357-3.054-4.344c-0.215-0.126-0.428-0.258-0.684-0.274
	c-1.975-0.128-3.854,0.223-5.615,1.143c-0.125,0.066-0.284,0.1-0.367,0.261c0.615,0.119,1.187,0.304,1.746,0.522
	c2.585,1.012,4.816,2.554,6.775,4.508C71.228,129.793,71.746,130.204,72.452,130.445 M76.287,138.492
	c0.797-1.247,1.342-3.061,1.432-4.512c0.02-0.339-0.08-0.447-0.391-0.505c-1.134-0.208-2.277-0.303-3.426-0.372
	c-0.124-0.007-0.356-0.145-0.378,0.111c-0.02,0.215-0.108,0.465,0.243,0.604c0.674,0.268,1.172,0.767,1.57,1.369
	C75.98,136.17,76.214,137.268,76.287,138.492 M76.15,127.698c-0.097,0.396-0.163,0.74-0.264,1.071
	c-0.348,1.153-0.888,2.168-2.11,2.599c-0.323,0.113-0.284,0.31-0.278,0.539c0.006,0.279,0.226,0.206,0.376,0.218
	c1.21,0.095,2.425,0.157,3.619,0.408c0.249,0.052,0.22-0.093,0.209-0.238c-0.053-0.733-0.205-1.45-0.422-2.149
	C77.016,129.302,76.647,128.501,76.15,127.698"/>
<path fill-rule="evenodd" clip-rule="evenodd" fill="#FFFFFF" d="M66.188,132.951c1.859,0,3.48-0.003,5.1,0.004
	c0.325,0.001,0.65,0.045,0.976,0.061c0.149,0.009,0.292-0.009,0.273,0.218c-0.015,0.179,0.044,0.371-0.232,0.405
	c-0.765,0.095-1.377,0.504-1.897,1.024c-1.49,1.495-3.055,2.893-4.832,4.042c-1.14,0.738-2.292,1.452-3.598,1.874
	c-0.669,0.217-1.335,0.306-1.959-0.109c-0.387-0.255-0.646-0.645-0.918-1.006c-1.221-1.629-1.916-3.457-2.071-5.493
	c-0.024-0.314,0.089-0.402,0.366-0.444c1.591-0.242,3.193-0.356,4.799-0.432C63.605,133.026,65.018,132.993,66.188,132.951"/>
<path fill-rule="evenodd" clip-rule="evenodd" fill="#FFFFFF" d="M57.038,132.341c0.273-2.604,1.279-4.795,3.133-6.528
	c0.636-0.597,1.526-0.719,2.403-0.452c1.818,0.546,3.474,1.419,5.015,2.522c1.014,0.727,1.901,1.596,2.813,2.438
	c0.57,0.525,1.204,0.95,1.972,1.135c0.262,0.065,0.121,0.276,0.151,0.42c0.034,0.165-0.067,0.191-0.206,0.187
	c-0.599-0.025-1.198-0.048-1.797-0.059c-3.415-0.062-6.829-0.006-10.236,0.238c-0.977,0.069-1.958,0.139-2.92,0.329
	C57.046,132.633,56.992,132.536,57.038,132.341"/>
<path fill-rule="evenodd" clip-rule="evenodd" fill="#FFFFFF" d="M61.472,141.686c1.494-0.277,2.766-1,4.012-1.771
	c2.013-1.245,3.833-2.727,5.469-4.438c0.361-0.378,0.78-0.693,1.298-0.849c0.149-0.046,0.244-0.078,0.228,0.151
	c-0.146,2.274-0.564,4.462-1.927,6.365c-0.646,0.902-1.453,1.643-2.314,2.332c-0.11,0.091-0.236,0.104-0.367,0.107
	c-2.31,0.104-4.422-0.504-6.337-1.794C61.514,141.777,61.507,141.749,61.472,141.686"/>
<path fill-rule="evenodd" clip-rule="evenodd" fill="#FFFFFF" d="M72.452,130.445c-0.706-0.24-1.224-0.651-1.697-1.126
	c-1.959-1.954-4.19-3.496-6.775-4.508c-0.559-0.22-1.131-0.403-1.746-0.522c0.083-0.161,0.242-0.195,0.367-0.261
	c1.762-0.92,3.641-1.271,5.616-1.144c0.256,0.018,0.468,0.15,0.683,0.276c1.672,0.985,2.541,2.543,3.054,4.343
	C72.223,128.447,72.389,129.412,72.452,130.445"/>
<path fill-rule="evenodd" clip-rule="evenodd" fill="#FFFFFF" d="M70.147,143.133c0.554-0.626,1.126-1.237,1.555-1.96
	c0.699-1.18,1.161-2.439,1.402-3.801c0.139-0.781,0.26-1.562,0.329-2.351c0.027-0.303,0.134-0.242,0.307-0.117
	c0.819,0.596,1.214,1.447,1.432,2.4c0.183,0.802,0.153,1.61,0.07,2.422c-0.025,0.233-0.129,0.431-0.303,0.607
	c-1.338,1.357-2.894,2.349-4.739,2.861C70.181,143.173,70.164,143.153,70.147,143.133"/>
<path fill-rule="evenodd" clip-rule="evenodd" fill="#FFFFFF" d="M70.799,123.542c0.082-0.065,0.165-0.048,0.255-0.014
	c1.628,0.626,3.007,1.607,4.157,2.914c0.088,0.101,0.162,0.201,0.131,0.349c-0.21,1.018-0.353,2.051-0.958,2.941
	c-0.169,0.248-0.401,0.404-0.614,0.588c-0.084,0.075-0.189,0.169-0.314,0.103c-0.112-0.059-0.068-0.187-0.074-0.285
	c-0.137-1.724-0.574-3.366-1.355-4.908c-0.316-0.624-0.654-1.247-1.228-1.69V123.542z"/>
<path fill-rule="evenodd" clip-rule="evenodd" fill="#FFFFFF" d="M76.287,138.492c-0.072-1.224-0.307-2.321-0.95-3.304
	c-0.398-0.603-0.896-1.102-1.57-1.369c-0.351-0.139-0.263-0.389-0.243-0.604c0.022-0.257,0.255-0.118,0.379-0.111
	c1.148,0.069,2.292,0.164,3.425,0.372c0.311,0.058,0.412,0.166,0.391,0.505C77.629,135.431,77.083,137.245,76.287,138.492"/>
<path fill-rule="evenodd" clip-rule="evenodd" fill="#FFFFFF" d="M76.15,127.698c0.497,0.804,0.866,1.604,1.13,2.447
	c0.217,0.699,0.369,1.416,0.422,2.149c0.011,0.146,0.04,0.29-0.209,0.238c-1.194-0.251-2.409-0.313-3.619-0.408
	c-0.15-0.012-0.37,0.062-0.376-0.218c-0.006-0.229-0.045-0.426,0.278-0.539c1.222-0.431,1.762-1.445,2.11-2.599
	C75.987,128.438,76.053,128.094,76.15,127.698"/>
<path fill-rule="evenodd" clip-rule="evenodd" fill="#FFFFFF" d="M70.799,123.539c0.018-0.015,0.038-0.028,0.058-0.044
	c0,0.005,0.002,0.015,0,0.017C70.837,123.522,70.817,123.532,70.799,123.539L70.799,123.539z"/>
<path fill-rule="evenodd" clip-rule="evenodd" fill="#FFFFFF" d="M70.2,143.195c-0.042,0.022-0.083,0.042-0.125-0.002
	c0.025-0.019,0.049-0.041,0.072-0.06C70.164,143.152,70.181,143.174,70.2,143.195"/>
<path fill-rule="evenodd" clip-rule="evenodd" fill="#010101" d="M40.494,115.031c-0.037-6.357-5.097-11.361-11.503-11.283
	c-6.155,0.073-11.049,5.049-11.087,11.232c-0.039,6.104,4.897,11.687,12.042,11.299C35.808,125.961,40.44,121.111,40.494,115.031"/>
<path fill-rule="evenodd" clip-rule="evenodd" fill="#343333" d="M19.42,117.04c0.036,0.262,0.048,0.491,0.107,0.705
	c0.093,0.342,0.19,0.688,0.338,1.009c1.247,2.72,3.188,4.7,6.048,5.73c1.417,0.51,2.874,0.67,4.347,0.506
	c1.452-0.159,2.832-0.623,4.093-1.391c0.351-0.214,0.358-0.364,0.005-0.603c-0.4-0.273-0.858-0.273-1.321-0.247
	c-0.37,0.021-0.709,0.181-1.078,0.264c0.216-1.152,1.732-2.085,2.961-1.843c0.59,0.115,1.05,0.397,1.113,1.081
	c2.292-1.896,3.698-5.746,2.983-8.936c-0.146,0.123-0.225,0.315-0.419,0.362c-0.327-1.921-1.307-2.568-3.19-2.082
	c-0.005-0.563,0.134-1.068,0.48-1.507c0.39-0.494,0.923-0.696,1.588-0.677c-0.49-0.727-1.038-1.328-1.646-1.878
	c-0.154-0.139-0.201-0.088-0.257,0.097c-0.121,0.398-0.377,0.696-0.753,0.883c-0.083-0.261-0.137-0.514-0.244-0.741
	c-0.552-1.177-1.858-1.71-3.073-1.326c-0.39,0.124-0.367-0.011-0.313-0.298c0.056-0.309,0.23-0.56,0.38-0.831
	c-3.398-0.893-7.173,0.268-9.562,2.719c1.041,0.338,1.452,1.104,1.353,2.127c-0.076,0.797-0.462,1.443-1.2,1.964
	c0.029-0.332-0.022-0.558-0.084-0.775c-0.177-0.633-0.558-1.092-1.188-1.327c-0.21-0.079-0.336-0.049-0.453,0.165
	c-0.733,1.331-1.126,2.758-1.242,4.266c-0.017,0.217,0.044,0.321,0.261,0.413c0.927,0.39,1.462,1.117,1.644,2.093
	c0.097,0.508,0.028,0.998-0.324,1.437C20.258,117.602,20.009,117.352,19.42,117.04"/>
<path fill-rule="evenodd" clip-rule="evenodd" fill="#FFFFFF" d="M19.42,117.04c0.589,0.313,0.838,0.563,1.354,1.359
	c0.351-0.439,0.421-0.931,0.324-1.438c-0.182-0.975-0.717-1.704-1.644-2.092c-0.217-0.092-0.278-0.198-0.261-0.414
	c0.115-1.507,0.509-2.934,1.241-4.265c0.118-0.216,0.244-0.244,0.454-0.165c0.63,0.233,1.011,0.692,1.188,1.325
	c0.062,0.22,0.113,0.444,0.083,0.776c0.739-0.52,1.124-1.167,1.201-1.964c0.098-1.024-0.312-1.789-1.353-2.127
	c2.388-2.451,6.164-3.612,9.562-2.718c-0.151,0.27-0.325,0.521-0.38,0.831c-0.054,0.286-0.077,0.422,0.313,0.298
	c1.215-0.384,2.52,0.147,3.073,1.326c0.106,0.227,0.161,0.479,0.244,0.739c0.376-0.186,0.631-0.482,0.753-0.883
	c0.056-0.183,0.103-0.233,0.257-0.095c0.607,0.549,1.156,1.15,1.646,1.877c-0.665-0.021-1.198,0.182-1.588,0.676
	c-0.347,0.44-0.485,0.945-0.48,1.507c1.882-0.484,2.863,0.161,3.189,2.082c0.194-0.047,0.274-0.237,0.419-0.36
	c0.716,3.188-0.691,7.04-2.983,8.935c-0.062-0.683-0.522-0.966-1.113-1.081c-1.228-0.243-2.744,0.691-2.961,1.842
	c0.369-0.083,0.708-0.242,1.079-0.263c0.462-0.027,0.92-0.027,1.321,0.247c0.352,0.239,0.346,0.388-0.006,0.602
	c-1.26,0.77-2.64,1.232-4.092,1.393c-1.473,0.164-2.931,0.004-4.348-0.506c-2.859-1.031-4.8-3.013-6.047-5.731
	c-0.148-0.321-0.246-0.667-0.338-1.009C19.468,117.532,19.456,117.3,19.42,117.04 M32.635,115.183
	c1.006-0.531,1.447-1.882,0.99-3.044c-0.448-1.148-1.771-1.812-2.975-1.484c-1.284,0.346-1.928,1.591-1.789,2.387
	C30.763,112.215,32.439,113.326,32.635,115.183 M25.949,117.072c1.03-0.56,1.452-1.872,0.998-3.03
	c-0.444-1.128-1.679-1.8-2.798-1.519c-1.124,0.28-1.919,1.343-1.784,2.388C24.096,114.091,25.749,115.317,25.949,117.072
	 M31.732,120.785c1.024-0.539,1.466-1.635,1.112-2.69c-0.348-1.039-1.544-1.688-2.707-1.474c-1.181,0.222-2.05,1.229-2.03,2.361
	C30.285,118.47,31.519,119.076,31.732,120.785 M24.905,107.875c1.597-0.801,3.391-0.098,3.61,1.862
	c0.714-0.438,1.129-1.041,1.177-1.865c0.047-0.817-0.307-1.455-1.009-1.843c-0.899-0.498-1.814-0.422-2.683,0.107
	C25.372,106.522,24.976,107.067,24.905,107.875 M25.354,122.223c0.628-0.322,0.967-0.806,1.006-1.477
	c0.098-1.678-1.84-3.048-3.392-2.406c-0.782,0.321-1.212,1.08-1.082,1.899C23.56,119.828,24.942,120.602,25.354,122.223
	 M37.323,119.122c0.43-0.258,0.672-0.606,0.867-0.99c0.514-0.998,0.236-2.341-0.598-2.868c-0.632-0.403-1.297-0.412-1.954-0.07
	c-0.772,0.395-1.201,1.05-1.356,1.893c-0.027,0.151,0.013,0.189,0.173,0.144c0.229-0.064,0.468-0.096,0.702-0.135
	C36.236,116.921,37.365,117.576,37.323,119.122 M28.282,122.431c-0.541,0.012-0.978,0.091-1.379,0.291
	c-0.465,0.232-0.82,0.563-0.894,1.114c-0.025,0.187,0.022,0.248,0.217,0.164c0.543-0.233,1.116-0.18,1.666-0.073
	c0.503,0.1,1.042,0.194,1.337,0.713c0.059,0.104,0.132,0.053,0.208,0.03c0.407-0.122,0.685-0.388,0.78-0.796
	c0.089-0.38-0.121-0.67-0.416-0.891C29.324,122.625,28.769,122.494,28.282,122.431"/>
<path fill-rule="evenodd" clip-rule="evenodd" fill="#010101" d="M32.635,115.183c-0.196-1.857-1.872-2.968-3.774-2.142
	c-0.139-0.796,0.505-2.041,1.789-2.387c1.204-0.326,2.527,0.336,2.975,1.484C34.082,113.301,33.641,114.652,32.635,115.183"/>
<path fill-rule="evenodd" clip-rule="evenodd" fill="#010101" d="M25.949,117.071c-0.2-1.755-1.853-2.979-3.584-2.16
	c-0.135-1.046,0.66-2.107,1.784-2.389c1.119-0.281,2.354,0.393,2.798,1.521C27.401,115.199,26.979,116.512,25.949,117.071"/>
<path fill-rule="evenodd" clip-rule="evenodd" fill="#010101" d="M31.732,120.784c-0.212-1.709-1.446-2.313-3.625-1.803
	c-0.02-1.131,0.849-2.138,2.03-2.36c1.163-0.216,2.359,0.435,2.707,1.475C33.198,119.149,32.756,120.246,31.732,120.784"/>
<path fill-rule="evenodd" clip-rule="evenodd" fill="#010101" d="M24.905,107.875c0.071-0.81,0.467-1.354,1.095-1.737
	c0.869-0.531,1.784-0.607,2.683-0.109c0.702,0.389,1.055,1.027,1.009,1.844c-0.048,0.823-0.463,1.429-1.177,1.864
	C28.296,107.777,26.502,107.074,24.905,107.875"/>
<path fill-rule="evenodd" clip-rule="evenodd" fill="#010101" d="M25.354,122.223c-0.412-1.621-1.794-2.396-3.468-1.983
	c-0.131-0.819,0.3-1.578,1.081-1.899c1.553-0.642,3.491,0.729,3.393,2.406C26.32,121.417,25.982,121.901,25.354,122.223"/>
<path fill-rule="evenodd" clip-rule="evenodd" fill="#010101" d="M37.323,119.122c0.042-1.547-1.086-2.199-2.166-2.026
	c-0.234,0.039-0.473,0.069-0.701,0.134c-0.161,0.045-0.201,0.007-0.174-0.144c0.155-0.844,0.584-1.497,1.357-1.894
	c0.657-0.341,1.322-0.333,1.954,0.072c0.834,0.526,1.112,1.87,0.597,2.868C37.996,118.516,37.754,118.863,37.323,119.122"/>
<path fill-rule="evenodd" clip-rule="evenodd" fill="#010101" d="M28.282,122.431c0.487,0.063,1.042,0.194,1.519,0.553
	c0.295,0.221,0.505,0.511,0.416,0.891c-0.095,0.408-0.373,0.674-0.78,0.796c-0.076,0.022-0.149,0.074-0.208-0.03
	c-0.295-0.519-0.834-0.613-1.337-0.713c-0.55-0.106-1.123-0.16-1.666,0.073c-0.195,0.084-0.242,0.022-0.217-0.164
	c0.074-0.552,0.429-0.882,0.894-1.114C27.304,122.522,27.741,122.443,28.282,122.431"/>
<path fill-rule="evenodd" clip-rule="evenodd" fill="#010101" d="M121.266,115.572c0.079,6.928-5.592,12.718-12.517,12.781
	c-7.124,0.066-12.885-5.516-12.963-12.56c-0.077-7.091,5.534-12.84,12.605-12.915C115.489,102.804,121.186,108.42,121.266,115.572
	 M109.348,114.004c-0.236-1.249-0.475-2.498-0.706-3.748c-0.033-0.177-0.18-0.179-0.291-0.213c-1.038-0.305-2.08-0.6-3.121-0.903
	c-0.176-0.051-0.31-0.058-0.469,0.085c-0.838,0.752-1.69,1.492-2.54,2.231c-0.128,0.112-0.199,0.217-0.189,0.403
	c0.056,1.142,0.211,2.272,0.362,3.405c0.022,0.166,0.101,0.254,0.252,0.313c1.076,0.416,2.153,0.837,3.229,1.258
	c0.159,0.063,0.293,0.063,0.436-0.06c0.953-0.822,1.912-1.634,2.872-2.445C109.289,114.242,109.377,114.159,109.348,114.004
	 M114.41,119.91c-0.138-1.092-0.273-2.067-0.372-3.046c-0.03-0.3-0.132-0.456-0.421-0.555c-1.092-0.378-2.179-0.77-3.258-1.179
	c-0.199-0.075-0.307-0.047-0.453,0.078c-0.923,0.788-1.848,1.577-2.783,2.35c-0.209,0.174-0.258,0.354-0.204,0.603
	c0.233,1.072,0.463,2.145,0.689,3.22c0.041,0.203,0.131,0.313,0.344,0.381c1.059,0.343,2.131,0.637,3.211,0.901
	c0.173,0.043,0.293,0.012,0.43-0.102c0.834-0.694,1.67-1.385,2.518-2.062C114.354,120.306,114.478,120.102,114.41,119.91
	 M108.701,103.704c-0.383,0.008-0.921-0.114-1.339,0.139c-0.727,0.441-1.389,0.986-2.08,1.484c-0.117,0.085-0.167,0.195-0.155,0.335
	c0.056,0.746,0.069,1.496,0.198,2.236c0.029,0.17,0.087,0.24,0.254,0.285c1.06,0.284,2.118,0.575,3.171,0.879
	c0.176,0.052,0.294,0.022,0.433-0.086c0.857-0.661,1.719-1.317,2.581-1.973c0.142-0.105,0.193-0.201,0.128-0.396
	c-0.245-0.739-0.475-1.484-0.683-2.236c-0.074-0.268-0.232-0.361-0.474-0.416C110.098,103.814,109.456,103.726,108.701,103.704
	 M120.458,116.004c-0.025-0.242-0.075-0.514-0.078-0.786c-0.002-0.175-0.066-0.263-0.21-0.333c-0.725-0.353-1.45-0.708-2.168-1.075
	c-0.183-0.095-0.303-0.079-0.454,0.064c-0.77,0.743-1.548,1.474-2.335,2.199c-0.144,0.132-0.182,0.253-0.158,0.449
	c0.128,1.059,0.247,2.122,0.345,3.185c0.021,0.227,0.088,0.33,0.307,0.383c0.644,0.158,1.284,0.334,1.924,0.506
	c0.254,0.066,0.458,0.034,0.657-0.175c0.516-0.546,1.057-1.067,1.59-1.594c0.095-0.093,0.177-0.188,0.21-0.32
	C120.285,117.692,120.37,116.861,120.458,116.004 M96.579,116.029c0,0.251-0.041,0.573,0.296,0.768
	c0.639,0.365,1.279,0.73,1.911,1.108c0.184,0.11,0.293,0.081,0.441-0.069c0.658-0.67,1.325-1.332,2.004-1.982
	c0.16-0.15,0.182-0.288,0.155-0.494c-0.139-1.031-0.278-2.064-0.304-3.105c-0.008-0.298-0.089-0.445-0.369-0.529
	c-0.607-0.181-1.208-0.38-1.81-0.575c-0.138-0.046-0.249-0.038-0.353,0.073c-0.521,0.563-1.049,1.116-1.563,1.686
	c-0.08,0.087-0.11,0.231-0.134,0.356C96.678,114.159,96.61,115.06,96.579,116.029 M108.529,127.52
	c0.494,0.103,1.006-0.117,1.485-0.48c0.368-0.281,0.754-0.537,1.147-0.778c0.193-0.121,0.242-0.256,0.206-0.468
	c-0.105-0.627-0.204-1.253-0.29-1.883c-0.032-0.229-0.149-0.301-0.362-0.35c-1.04-0.244-2.078-0.501-3.091-0.844
	c-0.195-0.065-0.343-0.043-0.515,0.087c-0.752,0.565-1.512,1.117-2.282,1.652c-0.186,0.13-0.199,0.241-0.126,0.428
	c0.261,0.674,0.515,1.352,0.76,2.03c0.067,0.187,0.176,0.26,0.369,0.303C106.679,127.41,107.538,127.511,108.529,127.52
	 M112.256,104.333c0.25,0.797,0.484,1.533,0.708,2.27c0.05,0.164,0.186,0.162,0.302,0.204c0.918,0.341,1.842,0.674,2.708,1.126
	c0.435,0.228,0.714,0.15,1.047-0.164c0.217-0.207,0.2-0.297,0.006-0.493c-0.847-0.861-1.807-1.568-2.861-2.146
	C113.58,104.809,112.974,104.526,112.256,104.333 M120.265,113.794c-0.201-1.742-1.128-3.977-2.149-5.229
	c-0.053-0.066-0.109-0.157-0.18-0.176c-0.18-0.049-0.724,0.617-0.668,0.818c0.305,1.068,0.537,2.154,0.749,3.243
	c0.032,0.158,0.095,0.257,0.238,0.329C118.911,113.107,119.565,113.442,120.265,113.794 M96.856,117.89
	c0.018,0.12,0.022,0.176,0.034,0.229c0.345,1.619,1,3.1,1.983,4.434c0.088,0.119,0.128,0.452,0.379,0.265
	c0.194-0.146,0.529-0.231,0.377-0.66c-0.34-0.961-0.593-1.954-0.804-2.954c-0.033-0.156-0.11-0.247-0.249-0.324
	C98.023,118.572,97.477,118.25,96.856,117.89 M99.802,123.708c1.272,1.372,2.776,2.387,4.592,3.074
	c-0.242-0.64-0.467-1.206-0.668-1.782c-0.073-0.211-0.194-0.319-0.395-0.407c-0.779-0.338-1.552-0.686-2.32-1.049
	C100.352,123.231,100.359,123.22,99.802,123.708 M103.411,104.877c0.894,0.202,1.56-0.122,2.148-0.787
	C104.798,104.283,104.104,104.524,103.411,104.877 M119.413,120.446c-0.685,0.509-1.198,1.02-1.081,1.915
	C118.753,121.765,119.093,121.161,119.413,120.446 M97.516,111.126c0.657-0.439,0.94-1.016,0.907-1.796
	C98.054,109.908,97.759,110.474,97.516,111.126 M113.01,126.64c-0.727-0.168-1.292,0.037-1.788,0.574
	C111.848,127.077,112.415,126.893,113.01,126.64"/>
</svg>
