<?xml version="1.0" encoding="utf-8"?>
<!-- Generator: Adobe Illustrator 16.0.0, SVG Export Plug-In . SVG Version: 6.00 Build 0)  -->
<!DOCTYPE svg PUBLIC "-//W3C//DTD SVG 1.1//EN" "http://www.w3.org/Graphics/SVG/1.1/DTD/svg11.dtd">
<svg version="1.1" id="Layer_1" xmlns="http://www.w3.org/2000/svg" xmlns:xlink="http://www.w3.org/1999/xlink" x="0px" y="0px"
	 width="157px" height="179px" viewBox="0 0 157 179" enable-background="new 0 0 157 179" xml:space="preserve">
<rect x="1.5" y="1" fill-rule="evenodd" clip-rule="evenodd" fill="#FFFFFF" stroke="#627D53" stroke-width="2" stroke-miterlimit="10" width="155" height="177"/>
<rect x="1.5" fill-rule="evenodd" clip-rule="evenodd" fill="#627D53" width="155" height="56"/>
<g>
	<path fill="#FFFFFF" d="M36.549,34.217c-0.526-0.57-0.789-1.374-0.789-2.413V24.66c0-1.038,0.263-1.843,0.789-2.413
		c0.525-0.57,1.289-0.855,2.29-0.855c1,0,1.764,0.285,2.29,0.855c0.525,0.57,0.788,1.375,0.788,2.413v1.406H39.94v-1.539
		c0-0.823-0.349-1.235-1.045-1.235c-0.696,0-1.045,0.412-1.045,1.235v7.429c0,0.811,0.349,1.216,1.045,1.216
		c0.697,0,1.045-0.405,1.045-1.216v-2.033h1.976v1.881c0,1.039-0.263,1.843-0.788,2.413c-0.526,0.57-1.289,0.855-2.29,0.855
		C37.837,35.072,37.074,34.787,36.549,34.217z"/>
	<path fill="#FFFFFF" d="M43.17,21.582h3.097c1.077,0,1.862,0.25,2.356,0.75s0.741,1.27,0.741,2.308v0.817
		c0,1.38-0.456,2.254-1.368,2.622v0.038c0.506,0.152,0.865,0.463,1.074,0.931c0.209,0.469,0.313,1.096,0.313,1.881v2.337
		c0,0.38,0.012,0.688,0.038,0.922s0.089,0.465,0.19,0.693h-2.128c-0.076-0.215-0.126-0.418-0.152-0.608s-0.038-0.532-0.038-1.026
		v-2.432c0-0.608-0.098-1.032-0.294-1.273s-0.535-0.361-1.017-0.361H45.26v5.7h-2.09V21.582z M46.02,27.282
		c0.418,0,0.731-0.107,0.94-0.323s0.313-0.576,0.313-1.083V24.85c0-0.481-0.085-0.829-0.256-1.045
		c-0.171-0.215-0.44-0.323-0.808-0.323h-0.95v3.8H46.02z"/>
	<path fill="#FFFFFF" d="M51.492,34.198c-0.544-0.583-0.817-1.406-0.817-2.47v-6.992c0-1.064,0.272-1.887,0.817-2.47
		c0.544-0.582,1.33-0.874,2.356-0.874c1.026,0,1.812,0.292,2.356,0.874c0.545,0.583,0.817,1.406,0.817,2.47v6.992
		c0,1.064-0.272,1.887-0.817,2.47c-0.544,0.583-1.33,0.874-2.356,0.874C52.822,35.072,52.037,34.781,51.492,34.198z M54.931,31.861
		v-7.258c0-0.874-0.361-1.311-1.083-1.311c-0.722,0-1.083,0.437-1.083,1.311v7.258c0,0.874,0.361,1.311,1.083,1.311
		C54.57,33.172,54.931,32.735,54.931,31.861z"/>
	<path fill="#FFFFFF" d="M58.845,34.208c-0.52-0.577-0.779-1.403-0.779-2.479v-0.76h1.976v0.912c0,0.861,0.361,1.292,1.083,1.292
		c0.354,0,0.624-0.104,0.808-0.313c0.183-0.209,0.275-0.548,0.275-1.017c0-0.557-0.127-1.048-0.38-1.473
		c-0.254-0.424-0.722-0.934-1.406-1.529c-0.861-0.76-1.463-1.447-1.805-2.062c-0.342-0.614-0.513-1.308-0.513-2.081
		c0-1.051,0.266-1.865,0.798-2.441c0.532-0.576,1.305-0.865,2.318-0.865c1,0,1.758,0.289,2.271,0.865
		c0.513,0.577,0.77,1.403,0.77,2.479v0.551h-1.976v-0.684c0-0.456-0.089-0.789-0.266-0.998c-0.178-0.209-0.437-0.313-0.779-0.313
		c-0.697,0-1.045,0.424-1.045,1.273c0,0.481,0.13,0.931,0.39,1.349c0.259,0.418,0.731,0.924,1.416,1.52
		c0.874,0.76,1.476,1.451,1.805,2.071c0.33,0.621,0.494,1.349,0.494,2.185c0,1.089-0.269,1.925-0.808,2.508
		c-0.538,0.583-1.32,0.874-2.346,0.874C60.131,35.072,59.365,34.784,58.845,34.208z"/>
	<path fill="#FFFFFF" d="M65.913,34.208c-0.52-0.577-0.779-1.403-0.779-2.479v-0.76h1.976v0.912c0,0.861,0.361,1.292,1.083,1.292
		c0.354,0,0.624-0.104,0.808-0.313c0.183-0.209,0.275-0.548,0.275-1.017c0-0.557-0.127-1.048-0.38-1.473
		c-0.254-0.424-0.722-0.934-1.406-1.529c-0.861-0.76-1.463-1.447-1.805-2.062c-0.342-0.614-0.513-1.308-0.513-2.081
		c0-1.051,0.266-1.865,0.798-2.441c0.532-0.576,1.305-0.865,2.318-0.865c1,0,1.758,0.289,2.271,0.865
		c0.513,0.577,0.77,1.403,0.77,2.479v0.551h-1.976v-0.684c0-0.456-0.089-0.789-0.266-0.998c-0.178-0.209-0.437-0.313-0.779-0.313
		c-0.697,0-1.045,0.424-1.045,1.273c0,0.481,0.13,0.931,0.39,1.349c0.259,0.418,0.731,0.924,1.416,1.52
		c0.874,0.76,1.476,1.451,1.805,2.071c0.33,0.621,0.494,1.349,0.494,2.185c0,1.089-0.269,1.925-0.808,2.508
		c-0.538,0.583-1.32,0.874-2.346,0.874C67.199,35.072,66.433,34.784,65.913,34.208z"/>
	<path fill="#FFFFFF" d="M72.563,21.582h5.529v1.9h-3.439v3.705h2.698v1.9h-2.698v5.795h-2.09V21.582z"/>
	<path fill="#FFFFFF" d="M79.099,21.582h2.09v13.3h-2.09V21.582z"/>
	<path fill="#FFFFFF" d="M84.381,23.482h-2.185v-1.9h6.46v1.9h-2.185v11.4h-2.09V23.482z"/>
	<path fill="#FFFFFF" d="M93.349,34.208c-0.532-0.577-0.798-1.403-0.798-2.479v-6.992c0-1.077,0.266-1.903,0.798-2.479
		c0.532-0.576,1.305-0.865,2.318-0.865c1.013,0,1.786,0.289,2.318,0.865c0.532,0.577,0.798,1.403,0.798,2.479v1.14h-1.976v-1.273
		c0-0.874-0.361-1.311-1.083-1.311c-0.722,0-1.083,0.437-1.083,1.311v7.277c0,0.861,0.361,1.292,1.083,1.292
		c0.722,0,1.083-0.431,1.083-1.292v-2.603h-1.045v-1.9h3.021v4.351c0,1.077-0.266,1.903-0.798,2.479
		c-0.532,0.576-1.305,0.864-2.318,0.864C94.653,35.072,93.881,34.784,93.349,34.208z"/>
	<path fill="#FFFFFF" d="M101.766,29.22l-2.527-7.638h2.223l1.425,4.883h0.038l1.425-4.883h2.033l-2.527,7.638v5.662h-2.09V29.22z"
		/>
	<path fill="#FFFFFF" d="M107.332,21.582h2.983l1.33,9.519h0.038l1.33-9.519h2.983v13.3h-1.976v-10.07h-0.038l-1.52,10.07h-1.748
		l-1.52-10.07h-0.038v10.07h-1.824V21.582z"/>
	<path fill="#FFFFFF" d="M117.972,34.208c-0.52-0.577-0.779-1.403-0.779-2.479v-0.76h1.976v0.912c0,0.861,0.361,1.292,1.083,1.292
		c0.354,0,0.624-0.104,0.808-0.313c0.183-0.209,0.275-0.548,0.275-1.017c0-0.557-0.127-1.048-0.38-1.473
		c-0.254-0.424-0.722-0.934-1.406-1.529c-0.861-0.76-1.463-1.447-1.805-2.062c-0.342-0.614-0.513-1.308-0.513-2.081
		c0-1.051,0.266-1.865,0.798-2.441c0.532-0.576,1.305-0.865,2.318-0.865c1,0,1.758,0.289,2.271,0.865
		c0.513,0.577,0.77,1.403,0.77,2.479v0.551h-1.976v-0.684c0-0.456-0.089-0.789-0.266-0.998c-0.178-0.209-0.437-0.313-0.779-0.313
		c-0.697,0-1.045,0.424-1.045,1.273c0,0.481,0.13,0.931,0.39,1.349c0.259,0.418,0.731,0.924,1.416,1.52
		c0.874,0.76,1.476,1.451,1.805,2.071c0.33,0.621,0.494,1.349,0.494,2.185c0,1.089-0.269,1.925-0.808,2.508
		c-0.538,0.583-1.32,0.874-2.346,0.874C119.257,35.072,118.491,34.784,117.972,34.208z"/>
</g>
<g>
	<path fill-rule="evenodd" clip-rule="evenodd" fill="#627D53" d="M46.021,82.322c-0.19-0.842-0.332-1.471-0.513-2.273
		c0.723-0.194,1.333-0.405,1.961-0.52c2.206-0.4,4.544-0.153,6.113-2.541c0.409-0.622,2.521-0.289,3.814-0.117
		c1.218,0.16,2.424,1.093,3.572,0.989c12.226-1.101,24.437-1.123,36.664-0.006c1.147,0.104,2.355-0.85,3.575-1.003
		c1.288-0.162,3.411-0.441,3.799,0.182c1.488,2.396,3.778,2.158,5.907,2.424c1.841,0.229,2.405,0.918,1.497,2.645
		c-0.229,0.035-0.503,0.168-0.7,0.094c-4.751-1.803-7.256,0.287-9.52,4.496c-3.922,7.294-8.417,14.287-12.835,21.303
		c-1.695,2.69-2.609,5.418-2.911,8.611c-0.5,5.299,0.045,10.072,2.749,14.902c4.943,8.834,9.26,18.019,13.838,27.058
		c0.378,0.746,0.779,1.483,1.126,2.244c1.226,2.686,0.561,5.102-1.7,6.251c-2.298,1.168-4.657,0.322-6.028-2.33
		c-2.921-5.651-5.763-11.345-8.64-17.019c-2.159-4.257-4.272-8.538-6.527-12.743c-0.459-0.856-1.525-2.041-2.195-1.971
		c-0.894,0.093-1.99,1.104-2.455,2.002c-4.888,9.443-9.668,18.942-14.478,28.427c-0.113,0.224-0.232,0.445-0.347,0.668
		c-1.651,3.209-3.91,4.25-6.392,2.946c-2.478-1.301-2.946-3.699-1.315-6.959c1.836-3.668,3.703-7.32,5.559-10.979
		c3.672-7.242,7.404-14.456,10.97-21.75c0.697-1.428,1.043-3.167,1.047-4.764c0.008-3.347-0.245-6.701-0.555-10.037
		c-0.095-1.024-0.588-2.081-1.129-2.985c-5.206-8.696-10.521-17.328-15.653-26.067c-1.038-1.768-2.138-2.295-4.024-1.83
		C49.003,81.988,47.659,82.081,46.021,82.322z M98.55,80.595c-13.048-1.338-25.624-1.376-38.547,0.013
		c2.76,4.587,5.333,8.881,7.922,13.164c5.181,8.569,5.184,8.567,15.216,8.042c0.251-0.013,0.542,0.042,0.745-0.064
		c0.931-0.491,2.199-0.801,2.694-1.587C90.586,93.802,94.446,87.349,98.55,80.595z"/>
	<path fill-rule="evenodd" clip-rule="evenodd" fill="#627D53" d="M46.105,95.498c-1.581,0.225-2.886,0.41-4.533,0.645
		c-1.005-9.482-1.995-18.828-3.017-28.48c1.505-0.146,2.859-0.279,4.555-0.445C44.112,76.676,45.093,85.939,46.105,95.498z"/>
	<path fill-rule="evenodd" clip-rule="evenodd" fill="#627D53" d="M121.414,67.499c1.726,0.224,3.025,0.392,4.542,0.587
		c-0.986,9.426-1.958,18.708-2.959,28.271c-1.484-0.124-2.843-0.238-4.561-0.382C119.429,86.484,120.406,77.141,121.414,67.499z"/>
	<path fill-rule="evenodd" clip-rule="evenodd" fill="#627D53" d="M40.076,96.17c-1.572,0.189-2.885,0.347-4.534,0.545
		c-0.999-9.428-1.983-18.713-3.003-28.33c1.443-0.201,2.794-0.388,4.54-0.629C38.087,77.312,39.073,86.66,40.076,96.17z"/>
	<path fill-rule="evenodd" clip-rule="evenodd" fill="#627D53" d="M115.391,66.84c1.69,0.229,2.992,0.404,4.543,0.614
		c-0.985,9.401-1.957,18.665-2.957,28.206c-1.491-0.086-2.854-0.164-4.57-0.263C113.407,85.828,114.383,76.494,115.391,66.84z"/>
	<path fill-rule="evenodd" clip-rule="evenodd" fill="#627D53" d="M126.558,75.467c1.222,0.22,2.028,0.365,3.023,0.543
		c-0.515,4.818-1.019,9.531-1.544,14.452c-1.094-0.147-1.961-0.265-3.041-0.41C125.517,85.186,126.021,80.475,126.558,75.467z"/>
	<path fill-rule="evenodd" clip-rule="evenodd" fill="#627D53" d="M33.538,90.38c-1.133,0.104-1.94,0.18-3.053,0.282
		c-0.524-4.799-1.035-9.489-1.579-14.473c0.998-0.11,1.857-0.205,3.044-0.335C32.477,80.682,32.99,85.37,33.538,90.38z"/>
	<path fill-rule="evenodd" clip-rule="evenodd" fill="#627D53" d="M85.608,92.257c-0.299-1.298-0.417-2.574-0.889-3.702
		c-0.993-2.375-2.645-4.05-5.442-4.097c-2.46-0.042-4.902,1.444-5.516,4.235c-0.509,2.316-0.442,4.954,0.132,7.261
		c0.59,2.372,2.64,3.882,5.26,3.916c2.628,0.033,4.381-1.521,5.414-3.792C85.106,94.894,85.272,93.539,85.608,92.257z"/>
	<path fill-rule="evenodd" clip-rule="evenodd" fill="#627D53" d="M85.608,92.257c-0.335,1.282-0.502,2.637-1.041,3.821
		c-1.032,2.271-2.785,3.825-5.414,3.792c-2.62-0.034-4.67-1.544-5.26-3.916c-0.574-2.307-0.642-4.944-0.132-7.261
		c0.613-2.791,3.055-4.277,5.516-4.235c2.797,0.047,4.449,1.722,5.442,4.097C85.191,89.683,85.309,90.959,85.608,92.257z"/>
</g>
</svg>
