<?xml version="1.0" encoding="utf-8"?>
<!-- Generator: Adobe Illustrator 16.0.0, SVG Export Plug-In . SVG Version: 6.00 Build 0)  -->
<!DOCTYPE svg PUBLIC "-//W3C//DTD SVG 1.1//EN" "http://www.w3.org/Graphics/SVG/1.1/DTD/svg11.dtd">
<svg version="1.1" id="Layer_1" xmlns="http://www.w3.org/2000/svg" xmlns:xlink="http://www.w3.org/1999/xlink" x="0px" y="0px"
	 width="157px" height="179px" viewBox="0 0 157 179" enable-background="new 0 0 157 179" xml:space="preserve">
<rect x="0.975" y="1" fill-rule="evenodd" clip-rule="evenodd" fill="#FFFFFF" stroke="#627D53" stroke-width="2" stroke-miterlimit="10" width="155" height="177"/>
<rect x="1.975" fill-rule="evenodd" clip-rule="evenodd" fill="#627D53" width="155" height="56"/>
<g>
	<path fill="#FFFFFF" d="M38.076,21.582h2.09v5.415h2.242v-5.415h2.09v13.3h-2.09v-5.985h-2.242v5.985h-2.09V21.582z"/>
	<path fill="#FFFFFF" d="M46.721,34.197c-0.544-0.582-0.817-1.405-0.817-2.469v-6.992c0-1.064,0.272-1.888,0.817-2.471
		c0.544-0.582,1.33-0.874,2.356-0.874c1.026,0,1.812,0.292,2.356,0.874c0.545,0.583,0.817,1.406,0.817,2.471v6.992
		c0,1.063-0.272,1.887-0.817,2.469c-0.544,0.584-1.33,0.875-2.356,0.875C48.051,35.072,47.265,34.781,46.721,34.197z M50.16,31.861
		v-7.258c0-0.875-0.361-1.312-1.083-1.312c-0.722,0-1.083,0.437-1.083,1.312v7.258c0,0.873,0.361,1.311,1.083,1.311
		C49.799,33.172,50.16,32.734,50.16,31.861z"/>
	<path fill="#FFFFFF" d="M54.312,34.217c-0.526-0.57-0.789-1.374-0.789-2.413V24.66c0-1.039,0.263-1.844,0.789-2.413
		c0.525-0.57,1.289-0.855,2.29-0.855c1,0,1.764,0.285,2.29,0.855c0.525,0.569,0.788,1.374,0.788,2.413v1.406h-1.976v-1.539
		c0-0.824-0.349-1.235-1.045-1.235c-0.696,0-1.045,0.411-1.045,1.235v7.429c0,0.811,0.349,1.216,1.045,1.216
		c0.697,0,1.045-0.405,1.045-1.216v-2.033h1.976v1.881c0,1.039-0.263,1.843-0.788,2.413c-0.526,0.57-1.289,0.855-2.29,0.855
		C55.6,35.072,54.837,34.787,54.312,34.217z"/>
	<path fill="#FFFFFF" d="M60.933,21.582h2.09v5.605l2.66-5.605h2.09l-2.489,4.883l2.527,8.417h-2.185l-1.767-5.929l-0.836,1.691
		v4.237h-2.09V21.582z"/>
	<path fill="#FFFFFF" d="M68.798,21.582h5.7v1.9h-3.61v3.515h2.869v1.899h-2.869v4.086h3.61v1.899h-5.7V21.582z"/>
	<path fill="#FFFFFF" d="M77.615,29.22l-2.527-7.638h2.223l1.425,4.883h0.038l1.425-4.883h2.033l-2.527,7.638v5.662h-2.09V29.22z"/>
	<path fill="#FFFFFF" d="M86.221,21.582h3.097c1.077,0,1.862,0.25,2.356,0.75c0.494,0.501,0.741,1.271,0.741,2.309v0.817
		c0,1.38-0.456,2.255-1.368,2.622v0.037c0.506,0.152,0.865,0.463,1.074,0.932s0.313,1.096,0.313,1.881v2.337
		c0,0.38,0.012,0.688,0.038,0.922s0.089,0.466,0.19,0.693h-2.128c-0.076-0.216-0.126-0.418-0.152-0.608
		c-0.025-0.189-0.038-0.531-0.038-1.025v-2.432c0-0.608-0.098-1.033-0.294-1.273s-0.535-0.361-1.017-0.361h-0.722v5.7h-2.09V21.582z
		 M89.071,27.281c0.418,0,0.731-0.107,0.94-0.322s0.313-0.576,0.313-1.083V24.85c0-0.48-0.085-0.829-0.256-1.045
		c-0.171-0.215-0.44-0.322-0.808-0.322h-0.95v3.799H89.071z"/>
	<path fill="#FFFFFF" d="M93.878,21.582h2.09v13.3h-2.09V21.582z"/>
	<path fill="#FFFFFF" d="M97.526,21.582h2.622l2.033,7.961h0.038v-7.961h1.862v13.3h-2.147l-2.508-9.709h-0.038v9.709h-1.862V21.582
		z"/>
	<path fill="#FFFFFF" d="M105.639,21.582h2.09v5.605l2.66-5.605h2.09l-2.489,4.883l2.527,8.417h-2.185l-1.767-5.929l-0.836,1.691
		v4.237h-2.09V21.582z"/>
	<path fill="#FFFFFF" d="M113.79,34.207c-0.52-0.576-0.779-1.402-0.779-2.479v-0.761h1.976v0.912c0,0.861,0.361,1.292,1.083,1.292
		c0.354,0,0.624-0.104,0.808-0.313c0.183-0.209,0.275-0.548,0.275-1.017c0-0.557-0.127-1.048-0.38-1.473
		c-0.254-0.424-0.722-0.934-1.406-1.529c-0.861-0.76-1.463-1.447-1.805-2.062c-0.342-0.614-0.513-1.308-0.513-2.081
		c0-1.051,0.266-1.864,0.798-2.441c0.532-0.576,1.305-0.864,2.318-0.864c1,0,1.758,0.288,2.271,0.864
		c0.513,0.577,0.77,1.403,0.77,2.48v0.551h-1.976v-0.684c0-0.457-0.089-0.789-0.266-0.998c-0.178-0.209-0.437-0.313-0.779-0.313
		c-0.697,0-1.045,0.425-1.045,1.272c0,0.482,0.13,0.932,0.39,1.35c0.259,0.418,0.731,0.924,1.416,1.52
		c0.874,0.76,1.476,1.451,1.805,2.071c0.33,0.62,0.494,1.349,0.494,2.185c0,1.09-0.269,1.926-0.808,2.508
		c-0.538,0.584-1.32,0.875-2.346,0.875C115.075,35.072,114.309,34.783,113.79,34.207z"/>
</g>
<g>
	<path fill-rule="evenodd" clip-rule="evenodd" fill="#627D53" d="M118.187,144.185c-0.972,1.646-1.491,2.854-2.294,3.828
		c-4.371,5.31-9.918,8.293-16.914,8.294c-12.396,0.001-24.793,0.008-37.19,0.017c-7.438,0.006-13.122-3.334-17.493-9.169
		c-0.378-0.504-0.697-1.057-0.993-1.613c-0.111-0.211-0.079-0.498-0.141-0.972h28.045c0.878,6.028,1.979,6.968,7.927,6.937
		c0.814-0.005,1.629-0.003,2.444-0.015c3.707-0.056,5.506-1.526,5.95-5.229c0.171-1.429,0.496-2.107,2.056-2.1
		C98.89,144.207,108.196,144.185,118.187,144.185z M75.416,144.528h8.336c0.013,3.445-0.404,3.677-5.673,3.452
		C75.375,147.865,75.126,147.562,75.416,144.528z M120.185,103.097c0.096,0.688,0.249,1.285,0.25,1.881
		c0.013,9.952,0.008,19.903,0,29.854c-0.001,0.813-0.063,1.627-0.097,2.441c-0.098,2.359-0.778,3.632-3.69,3.561
		c-7.948-0.195-15.907,0.088-23.859,0.011c-0.881-0.009-2.225-0.936-2.551-1.756c-1.974-4.97-5.394-7.804-10.823-7.854
		c-4.986-0.046-8.624,2.745-10.806,7.968c-0.261,0.625-0.994,1.496-1.516,1.502c-8.58,0.094-17.162,0.066-26.396,0.066
		c-0.689-12.636-0.149-25.047-0.356-37.675H120.185z M86.528,140.68H72.313c0.967-3.975,4.116-6.161,8.019-5.746
		C83.802,135.304,86.53,137.837,86.528,140.68z M120.33,99.114H40.539V80.473c0.775-0.062,1.551-0.176,2.326-0.178
		c7.42-0.014,14.841,0.031,22.261-0.038c1.645-0.016,2.561,0.293,3.106,2.097c1.665,5.508,6.566,9.132,12.175,9.072
		c6.257-0.067,11.054-4.406,12.153-9.073c0.188-0.798,1.278-1.965,1.968-1.977c8.487-0.136,16.979-0.088,25.802-0.088V99.114z"/>
	<path fill-rule="evenodd" clip-rule="evenodd" fill="#FFFFFF" d="M59.054,134.042c-7.066,0.035-12.624-5.616-12.811-12.702
		c-0.192-7.278,6.303-12.898,12.553-12.93c7.301-0.036,13.077,5.565,13.137,12.672C71.993,128.207,66.23,134.006,59.054,134.042z
		 M68.22,121.151c-0.006-4.924-4.045-8.999-8.9-9.141c-6.355-0.186-9.333,4.917-9.471,9.083c-0.167,5.112,4.137,9.305,9.319,9.273
		C64.219,130.337,68.226,126.258,68.22,121.151z"/>
	<path fill-rule="evenodd" clip-rule="evenodd" fill="#FFFFFF" d="M114.517,121.438c-0.059,7.109-5.659,12.594-12.843,12.577
		c-6.884-0.017-12.785-5.952-12.705-12.78c0.087-7.33,5.634-12.861,12.882-12.847C109.071,108.403,114.576,114.075,114.517,121.438z
		 M101.846,112.054c-5.031-0.02-9.285,4.077-9.354,9.006c-0.07,5.118,4.046,9.256,9.261,9.312c4.977,0.053,9.204-4.123,9.228-9.112
		C111.005,116.258,106.852,112.073,101.846,112.054z"/>
</g>
</svg>
