<?xml version="1.0" encoding="utf-8"?>
<!-- Generator: Adobe Illustrator 16.0.0, SVG Export Plug-In . SVG Version: 6.00 Build 0)  -->
<!DOCTYPE svg PUBLIC "-//W3C//DTD SVG 1.1//EN" "http://www.w3.org/Graphics/SVG/1.1/DTD/svg11.dtd">
<svg version="1.1" id="Layer_1" xmlns="http://www.w3.org/2000/svg" xmlns:xlink="http://www.w3.org/1999/xlink" x="0px" y="0px"
	 width="157px" height="179px" viewBox="0 0 157 179" enable-background="new 0 0 157 179" xml:space="preserve">
<rect x="0.975" y="2.01" fill-rule="evenodd" clip-rule="evenodd" fill="#FFFFFF" stroke="#627D53" stroke-width="2" stroke-miterlimit="10" width="155" height="177"/>
<rect x="1.975" y="0.01" fill-rule="evenodd" clip-rule="evenodd" fill="#627D53" width="155" height="56"/>
<g>
	<path fill="#FFFFFF" d="M29.547,34.207c-0.52-0.576-0.779-1.402-0.779-2.479v-0.761h1.976v0.912c0,0.861,0.361,1.292,1.083,1.292
		c0.354,0,0.624-0.104,0.808-0.313c0.183-0.209,0.275-0.548,0.275-1.017c0-0.557-0.127-1.048-0.38-1.473
		c-0.254-0.424-0.722-0.934-1.406-1.529c-0.861-0.76-1.463-1.447-1.805-2.062c-0.342-0.614-0.513-1.308-0.513-2.081
		c0-1.051,0.266-1.864,0.798-2.441c0.532-0.576,1.305-0.864,2.318-0.864c1,0,1.758,0.288,2.271,0.864
		c0.513,0.577,0.77,1.403,0.77,2.48v0.551h-1.976v-0.684c0-0.457-0.089-0.789-0.266-0.998c-0.178-0.209-0.437-0.313-0.779-0.313
		c-0.697,0-1.045,0.425-1.045,1.272c0,0.482,0.13,0.932,0.39,1.35c0.259,0.418,0.731,0.924,1.416,1.52
		c0.874,0.76,1.476,1.451,1.805,2.071c0.33,0.62,0.494,1.349,0.494,2.185c0,1.09-0.269,1.926-0.808,2.508
		c-0.538,0.584-1.32,0.875-2.346,0.875C30.833,35.072,30.067,34.783,29.547,34.207z"/>
	<path fill="#FFFFFF" d="M36.919,34.207c-0.532-0.576-0.798-1.402-0.798-2.479V21.582h2.09V31.88c0,0.456,0.092,0.786,0.275,0.987
		c0.184,0.203,0.447,0.305,0.789,0.305c0.342,0,0.605-0.102,0.789-0.305c0.184-0.201,0.275-0.531,0.275-0.987V21.582h2.014v10.146
		c0,1.076-0.266,1.902-0.798,2.479c-0.532,0.576-1.305,0.865-2.318,0.865S37.452,34.783,36.919,34.207z"/>
	<path fill="#FFFFFF" d="M43.835,21.582h3.097c1.077,0,1.862,0.25,2.356,0.75c0.494,0.501,0.741,1.271,0.741,2.309v0.817
		c0,1.38-0.456,2.255-1.368,2.622v0.037c0.506,0.152,0.865,0.463,1.074,0.932s0.313,1.096,0.313,1.881v2.337
		c0,0.38,0.012,0.688,0.038,0.922s0.089,0.466,0.19,0.693h-2.128c-0.076-0.216-0.126-0.418-0.152-0.608
		c-0.025-0.189-0.038-0.531-0.038-1.025v-2.432c0-0.608-0.098-1.033-0.294-1.273s-0.535-0.361-1.017-0.361h-0.722v5.7h-2.09V21.582z
		 M46.685,27.281c0.418,0,0.731-0.107,0.94-0.322s0.313-0.576,0.313-1.083V24.85c0-0.48-0.085-0.829-0.256-1.045
		c-0.171-0.215-0.44-0.322-0.808-0.322h-0.95v3.799H46.685z"/>
	<path fill="#FFFFFF" d="M51.492,21.582h5.529v1.9h-3.439v3.705h2.698v1.899h-2.698v5.795h-2.09V21.582z"/>
	<path fill="#FFFFFF" d="M58.028,21.582h2.09v13.3h-2.09V21.582z"/>
	<path fill="#FFFFFF" d="M61.676,21.582h2.622l2.033,7.961h0.038v-7.961h1.862v13.3h-2.147l-2.508-9.709h-0.038v9.709h-1.862V21.582
		z"/>
	<path fill="#FFFFFF" d="M70.435,34.207c-0.532-0.576-0.798-1.402-0.798-2.479v-6.992c0-1.077,0.266-1.903,0.798-2.48
		c0.532-0.576,1.305-0.864,2.318-0.864c1.013,0,1.786,0.288,2.318,0.864c0.532,0.577,0.798,1.403,0.798,2.48v1.14h-1.976v-1.272
		c0-0.875-0.361-1.312-1.083-1.312c-0.722,0-1.083,0.437-1.083,1.312v7.276c0,0.861,0.361,1.292,1.083,1.292
		c0.722,0,1.083-0.431,1.083-1.292v-2.603h-1.045v-1.9h3.021v4.352c0,1.076-0.266,1.902-0.798,2.479
		c-0.532,0.576-1.305,0.865-2.318,0.865C71.739,35.072,70.967,34.783,70.435,34.207z"/>
	<path fill="#FFFFFF" d="M80.675,34.207c-0.52-0.576-0.779-1.402-0.779-2.479v-0.761h1.976v0.912c0,0.861,0.361,1.292,1.083,1.292
		c0.354,0,0.624-0.104,0.808-0.313c0.183-0.209,0.275-0.548,0.275-1.017c0-0.557-0.127-1.048-0.38-1.473
		c-0.254-0.424-0.722-0.934-1.406-1.529c-0.861-0.76-1.463-1.447-1.805-2.062c-0.342-0.614-0.513-1.308-0.513-2.081
		c0-1.051,0.266-1.864,0.798-2.441c0.532-0.576,1.305-0.864,2.318-0.864c1,0,1.758,0.288,2.271,0.864
		c0.513,0.577,0.77,1.403,0.77,2.48v0.551h-1.976v-0.684c0-0.457-0.089-0.789-0.266-0.998c-0.178-0.209-0.437-0.313-0.779-0.313
		c-0.697,0-1.045,0.425-1.045,1.272c0,0.482,0.13,0.932,0.39,1.35c0.259,0.418,0.731,0.924,1.416,1.52
		c0.874,0.76,1.476,1.451,1.805,2.071c0.33,0.62,0.494,1.349,0.494,2.185c0,1.09-0.269,1.926-0.808,2.508
		c-0.538,0.584-1.32,0.875-2.346,0.875C81.96,35.072,81.194,34.783,80.675,34.207z"/>
	<path fill="#FFFFFF" d="M87.98,34.217c-0.526-0.57-0.789-1.374-0.789-2.413V24.66c0-1.039,0.263-1.844,0.789-2.413
		c0.525-0.57,1.289-0.855,2.29-0.855c1,0,1.764,0.285,2.29,0.855c0.525,0.569,0.788,1.374,0.788,2.413v1.406h-1.976v-1.539
		c0-0.824-0.349-1.235-1.045-1.235c-0.696,0-1.045,0.411-1.045,1.235v7.429c0,0.811,0.349,1.216,1.045,1.216
		c0.697,0,1.045-0.405,1.045-1.216v-2.033h1.976v1.881c0,1.039-0.263,1.843-0.788,2.413c-0.526,0.57-1.289,0.855-2.29,0.855
		C89.269,35.072,88.506,34.787,87.98,34.217z"/>
	<path fill="#FFFFFF" d="M94.602,21.582h2.09v5.415h2.242v-5.415h2.09v13.3h-2.09v-5.985h-2.242v5.985h-2.09V21.582z"/>
	<path fill="#FFFFFF" d="M103.247,34.197c-0.544-0.582-0.817-1.405-0.817-2.469v-6.992c0-1.064,0.272-1.888,0.817-2.471
		c0.544-0.582,1.33-0.874,2.356-0.874c1.026,0,1.812,0.292,2.356,0.874c0.545,0.583,0.817,1.406,0.817,2.471v6.992
		c0,1.063-0.272,1.887-0.817,2.469c-0.544,0.584-1.33,0.875-2.356,0.875C104.577,35.072,103.791,34.781,103.247,34.197z
		 M106.686,31.861v-7.258c0-0.875-0.361-1.312-1.083-1.312c-0.722,0-1.083,0.437-1.083,1.312v7.258c0,0.873,0.361,1.311,1.083,1.311
		C106.325,33.172,106.686,32.734,106.686,31.861z"/>
	<path fill="#FFFFFF" d="M110.847,34.197c-0.544-0.582-0.817-1.405-0.817-2.469v-6.992c0-1.064,0.272-1.888,0.817-2.471
		c0.544-0.582,1.33-0.874,2.356-0.874c1.026,0,1.812,0.292,2.356,0.874c0.545,0.583,0.817,1.406,0.817,2.471v6.992
		c0,1.063-0.272,1.887-0.817,2.469c-0.544,0.584-1.33,0.875-2.356,0.875C112.177,35.072,111.391,34.781,110.847,34.197z
		 M114.286,31.861v-7.258c0-0.875-0.361-1.312-1.083-1.312c-0.722,0-1.083,0.437-1.083,1.312v7.258c0,0.873,0.361,1.311,1.083,1.311
		C113.925,33.172,114.286,32.734,114.286,31.861z"/>
	<path fill="#FFFFFF" d="M117.782,21.582h2.09v11.4h3.439v1.899h-5.529V21.582z"/>
	<path fill="#FFFFFF" d="M124.736,34.207c-0.52-0.576-0.779-1.402-0.779-2.479v-0.761h1.976v0.912c0,0.861,0.361,1.292,1.083,1.292
		c0.354,0,0.624-0.104,0.808-0.313c0.183-0.209,0.275-0.548,0.275-1.017c0-0.557-0.127-1.048-0.38-1.473
		c-0.254-0.424-0.722-0.934-1.406-1.529c-0.861-0.76-1.463-1.447-1.805-2.062c-0.342-0.614-0.513-1.308-0.513-2.081
		c0-1.051,0.266-1.864,0.798-2.441c0.532-0.576,1.305-0.864,2.318-0.864c1,0,1.758,0.288,2.271,0.864
		c0.513,0.577,0.77,1.403,0.77,2.48v0.551h-1.976v-0.684c0-0.457-0.089-0.789-0.266-0.998c-0.178-0.209-0.437-0.313-0.779-0.313
		c-0.697,0-1.045,0.425-1.045,1.272c0,0.482,0.13,0.932,0.39,1.35c0.259,0.418,0.731,0.924,1.416,1.52
		c0.874,0.76,1.476,1.451,1.805,2.071c0.33,0.62,0.494,1.349,0.494,2.185c0,1.09-0.269,1.926-0.808,2.508
		c-0.538,0.584-1.32,0.875-2.346,0.875C126.021,35.072,125.255,34.783,124.736,34.207z"/>
</g>
<g>
	<path fill-rule="evenodd" clip-rule="evenodd" fill="#627D53" d="M46.915,135.129c1.938-1.313,3.961-2.454,6.227-3.116
		c3.859-1.128,7.727-1.32,11.632-0.224c0.329,0.093,0.793,0.04,1.086-0.131c3.155-1.834,6.536-3.026,10.126-3.625
		c0.633-0.105,0.985-0.344,1.223-0.978c1.024-2.726,2.157-5.41,3.168-8.14c1.07-2.888,3.119-4.384,6.139-4.775
		c3.918-0.51,7.824-1.12,11.851-1.704c-0.114-0.792-0.217-1.557-0.336-2.319c-0.739-4.705-1.481-9.41-2.226-14.115
		c-0.049-0.309-0.043-0.619-0.514-0.674c-2.021-0.238-4.033-0.557-6.056-0.77c-2.405-0.253-4.604,0.534-6.769,1.464
		c-1.316,0.565-2.655,1.076-3.988,1.6c-1.091,0.43-1.764,0.139-2.208-0.946c-0.307-0.748-0.608-1.499-0.894-2.256
		c-0.37-0.98-0.072-1.685,0.885-2.07c2.679-1.08,5.361-2.15,8.042-3.225c1.49-0.597,3.036-0.784,4.63-0.628
		c0.456,0.045,0.915,0.063,1.249,0.084c0-1.2-0.17-2.374,0.033-3.479c0.492-2.669,2.666-4.608,5.362-5.022
		c0.133-0.02,0.26-0.078,0.39-0.118c0.371,0,0.741,0,1.112,0c0.129,0.041,0.255,0.1,0.387,0.12c3.051,0.481,5.298,2.948,5.486,6.006
		c0.087,1.43-0.294,2.734-1.037,3.967c3.146,0.955,6.241,1.894,9.438,2.863c-0.392-1.517-0.758-2.897-1.104-4.283
		c-0.232-0.936,0.146-1.597,1.059-1.859c0.843-0.242,1.691-0.47,2.544-0.676c1.019-0.246,1.665,0.14,1.951,1.135
		c0.07,0.244,0.12,0.494,0.185,0.739c0.691,2.61,1.383,5.22,2.074,7.83c0,0.417,0,0.834,0,1.251
		c-0.967,2.843-3.157,3.262-5.327,2.482c-1.425-0.512-2.896-0.897-4.441-1.369c0.049,0.325,0.073,0.548,0.117,0.768
		c0.594,2.945,1.293,5.873,1.762,8.838c0.735,4.642-1.148,8.3-5.218,10.657c-2.447,1.417-5.143,1.905-7.883,2.238
		c-2.985,0.364-5.979,0.665-8.966,1.013c-0.248,0.028-0.623,0.141-0.695,0.315c-0.734,1.765-1.417,3.55-2.067,5.21
		c3.69,0.625,7.343,1.244,11.085,1.879c0.602-1.515,1.287-3.202,1.938-4.903c0.157-0.411,0.395-0.611,0.811-0.734
		c2.524-0.743,4.907-1.797,7.015-3.398c2.3-1.749,3.966-3.933,4.575-6.819c0.053-0.252,0.107-0.502,0.167-0.784
		c0.087,0.066,0.114,0.076,0.116,0.091c0.018,0.09,0.037,0.181,0.042,0.272c0.222,4.105-0.596,7.987-2.766,11.489
		c-1.141,1.842-2.577,3.498-3.828,5.275c-0.333,0.473-0.569,1.063-0.678,1.632c-0.12,0.623,0.069,1.144,0.76,1.516
		c3.704,1.994,6.991,4.519,9.595,7.863c0.454,0.584,0.447,0.806-0.216,1.129c-1.742,0.849-3.462,1.782-5.282,2.424
		c-5.167,1.821-10.519,2.218-15.953,1.74c-0.346-0.03-0.693-0.05-1.038-0.081c-0.343-0.032-0.685-0.074-1.027-0.111
		c3.416,1.968,7.042,3.231,10.964,3.791c-0.413,0.305-0.828,0.499-1.262,0.638c-4.833,1.548-9.588,1.093-14.29-0.585
		c-3.811-1.36-7.304-3.355-10.765-5.414c-3.914-2.329-7.772-4.762-11.999-6.517c-4.418-1.834-8.976-2.884-13.795-2.464
		c-0.869,0.075-1.734,0.181-2.602,0.272C46.915,135.314,46.915,135.222,46.915,135.129z"/>
</g>
</svg>
