<?xml version="1.0" encoding="utf-8"?>
<!-- Generator: Adobe Illustrator 16.0.0, SVG Export Plug-In . SVG Version: 6.00 Build 0)  -->
<!DOCTYPE svg PUBLIC "-//W3C//DTD SVG 1.1//EN" "http://www.w3.org/Graphics/SVG/1.1/DTD/svg11.dtd">
<svg version="1.1" id="Layer_1" xmlns="http://www.w3.org/2000/svg" xmlns:xlink="http://www.w3.org/1999/xlink" x="0px" y="0px"
	 width="157px" height="151px" viewBox="0 28 157 151" enable-background="new 0 28 157 151" xml:space="preserve">
<path d="M67.667,18"/>
<g>
	<path d="M78.426,164.612c-8.498,0-16.998-0.035-25.495,0.032c-1.516,0.015-2.279-0.256-2.046-1.955
		c0.134-0.983,0.078-2,0.015-2.997c-0.159-2.528,0.25-4.588,2.149-6.724c3.646-4.098,3.064-10.258-0.859-14.175
		c-0.958-0.957-1.317-1.867-1.303-3.173c0.074-7.497,0.078-14.996,0.101-22.492c0.003-1.063,0.203-2.256-1.088-2.754
		c-1.164-0.449-1.845,0.462-2.557,1.139c-4.034,3.838-8.021,7.726-12.109,11.503c-1.108,1.024-0.917,1.61,0.059,2.523
		c4.692,4.387,9.323,8.839,13.998,13.248c4.316,4.067,4.782,10.213,1.039,14.118c-3.972,4.146-9.886,4.119-14.321-0.039
		c-5.674-5.323-11.428-10.563-17.033-15.956c-4.979-4.789-7.684-10.414-5.714-17.529c0.68-2.456,2.415-4.199,4.034-5.977
		c6.968-7.654,13.951-15.298,21.041-22.837c4.836-5.141,11.101-7.299,17.973-8.01c1-0.104,1.384,0.393,1.739,1.184
		c5.63,12.486,11.268,24.969,16.938,37.438c0.435,0.956,0.493,1.436-0.688,1.832c-1.498,0.499-3.774,0.154-4.269,1.798
		c-0.39,1.292,0.538,3.004,0.947,4.51c1.065,3.924,2.21,7.825,3.232,11.757c0.408,1.579,1.105,2.11,2.741,1.562
		c2.227-0.749,4.499-1.426,6.797-1.902c1.935-0.398,2.157-1.255,1.617-3.009c-1.323-4.295-2.413-8.66-3.676-12.971
		c-0.345-1.179-0.258-2.176,0.271-3.278c5.916-12.43,11.811-24.87,17.653-37.335c0.55-1.174,1.195-1.527,2.446-1.399
		c6.844,0.704,12.619,3.705,17.267,8.607c7.412,7.824,14.591,15.867,21.853,23.834c3.348,3.678,3.833,7.996,2.579,12.609
		c-0.961,3.531-2.938,6.475-5.602,8.965c-5.836,5.464-11.651,10.948-17.521,16.378c-4.319,3.999-10.271,3.803-14.136-0.383
		c-3.537-3.831-3.196-9.744,0.854-13.643c4.681-4.506,9.385-8.984,14.137-13.412c1.106-1.03,1.359-1.648,0.076-2.825
		c-4.054-3.709-7.959-7.58-11.94-11.37c-0.706-0.672-1.396-1.591-2.566-1.128c-1.271,0.502-1.125,1.672-1.121,2.748
		c0.021,7.499,0.02,14.994,0.084,22.493c0.011,1.3-0.313,2.254-1.258,3.214c-4.385,4.465-4.283,11.101,0.214,15.504
		c0.74,0.722,1.067,1.405,1.037,2.411c-0.058,1.998-0.111,4.003,0.013,5.994c0.096,1.502-0.392,1.921-1.896,1.909
		C95.565,164.576,86.997,164.612,78.426,164.612z"/>
	<path d="M80.279,34.656c12.098,0.013,21.806,9.732,21.727,21.754c-0.076,12.042-9.834,21.686-21.903,21.648
		c-12.039-0.035-21.752-9.795-21.725-21.827C58.407,44.195,68.1,34.646,80.279,34.656z"/>
	<path d="M94.616,82.637c-5.245,11.28-10.489,22.552-15.923,34.233c-0.967-2.145-1.771-3.915-2.562-5.687
		c-3.982-8.906-7.938-17.825-11.963-26.715c-0.685-1.511-0.813-2.111,1.253-2.094c8.982,0.078,17.965-0.012,26.948-0.022
		C93.052,82.354,93.772,82.16,94.616,82.637z"/>
	<path d="M80.201,122.25c-0.08,1.246-0.718,1.878-1.769,1.891c-1.179,0.015-1.868-0.7-1.836-1.886
		c0.028-1.061,0.648-1.738,1.752-1.745C79.556,120.501,80.122,121.224,80.201,122.25z"/>
</g>
</svg>
