<?xml version="1.0" encoding="utf-8"?>
<!-- Generator: Adobe Illustrator 16.0.0, SVG Export Plug-In . SVG Version: 6.00 Build 0)  -->
<!DOCTYPE svg PUBLIC "-//W3C//DTD SVG 1.1//EN" "http://www.w3.org/Graphics/SVG/1.1/DTD/svg11.dtd">
<svg version="1.1" id="Layer_1" xmlns="http://www.w3.org/2000/svg" xmlns:xlink="http://www.w3.org/1999/xlink" x="0px" y="0px"
	 width="157px" height="179px" viewBox="0 0 157 179" enable-background="new 0 0 157 179" xml:space="preserve">
<rect x="0.975" y="1" fill-rule="evenodd" clip-rule="evenodd" fill="#FFFFFF" stroke="#627D53" stroke-width="2" stroke-miterlimit="10" width="155" height="177"/>
<rect x="1.975" fill-rule="evenodd" clip-rule="evenodd" fill="#627D53" width="155" height="56"/>
<g>
	<path fill="#FFFFFF" d="M12.826,21.582h2.09v5.415h2.242v-5.415h2.09v13.3h-2.09v-5.985h-2.242v5.985h-2.09V21.582z"/>
	<path fill="#FFFFFF" d="M22.421,21.582h2.831l2.166,13.3h-2.09l-0.38-2.642v0.039h-2.375l-0.38,2.603h-1.938L22.421,21.582z
		 M24.701,30.474L23.77,23.9h-0.038l-0.912,6.573H24.701z"/>
	<path fill="#FFFFFF" d="M28.424,21.582h2.622l2.033,7.961h0.038v-7.961h1.862v13.3h-2.147l-2.508-9.709h-0.038v9.709h-1.862V21.582
		z"/>
	<path fill="#FFFFFF" d="M37.183,34.207c-0.532-0.576-0.798-1.402-0.798-2.479v-6.992c0-1.077,0.266-1.903,0.798-2.48
		c0.532-0.576,1.305-0.864,2.318-0.864c1.013,0,1.786,0.288,2.318,0.864c0.532,0.577,0.798,1.403,0.798,2.48v1.14h-1.976v-1.272
		c0-0.875-0.361-1.312-1.083-1.312c-0.722,0-1.083,0.437-1.083,1.312v7.276c0,0.861,0.361,1.292,1.083,1.292
		c0.722,0,1.083-0.431,1.083-1.292v-2.603h-1.045v-1.9h3.021v4.352c0,1.076-0.266,1.902-0.798,2.479
		c-0.532,0.576-1.305,0.865-2.318,0.865C38.488,35.072,37.715,34.783,37.183,34.207z"/>
	<path fill="#FFFFFF" d="M47.651,34.207c-0.532-0.576-0.798-1.402-0.798-2.479v-6.992c0-1.077,0.266-1.903,0.798-2.48
		c0.532-0.576,1.305-0.864,2.318-0.864c1.013,0,1.786,0.288,2.318,0.864c0.532,0.577,0.798,1.403,0.798,2.48v1.14h-1.976v-1.272
		c0-0.875-0.361-1.312-1.083-1.312c-0.722,0-1.083,0.437-1.083,1.312v7.276c0,0.861,0.361,1.292,1.083,1.292
		c0.722,0,1.083-0.431,1.083-1.292v-2.603h-1.045v-1.9h3.021v4.352c0,1.076-0.266,1.902-0.798,2.479
		c-0.532,0.576-1.305,0.865-2.318,0.865C48.956,35.072,48.184,34.783,47.651,34.207z"/>
	<path fill="#FFFFFF" d="M54.434,21.582h2.09v11.4h3.439v1.899h-5.529V21.582z"/>
	<path fill="#FFFFFF" d="M60.97,21.582h2.09v13.3h-2.09V21.582z"/>
	<path fill="#FFFFFF" d="M64.618,21.582h3.192c1.038,0,1.817,0.279,2.337,0.836c0.519,0.558,0.779,1.375,0.779,2.451v6.726
		c0,1.077-0.26,1.894-0.779,2.451c-0.52,0.558-1.299,0.836-2.337,0.836h-3.192V21.582z M67.772,32.982
		c0.342,0,0.604-0.102,0.789-0.305c0.183-0.202,0.275-0.531,0.275-0.988v-6.916c0-0.455-0.092-0.785-0.275-0.988
		c-0.184-0.201-0.447-0.303-0.789-0.303h-1.064v9.5H67.772z"/>
	<path fill="#FFFFFF" d="M72.332,21.582h2.09v13.3h-2.09V21.582z"/>
	<path fill="#FFFFFF" d="M75.98,21.582h2.622l2.033,7.961h0.038v-7.961h1.862v13.3h-2.147l-2.508-9.709h-0.038v9.709H75.98V21.582z"
		/>
	<path fill="#FFFFFF" d="M84.739,34.207c-0.532-0.576-0.798-1.402-0.798-2.479v-6.992c0-1.077,0.266-1.903,0.798-2.48
		c0.532-0.576,1.305-0.864,2.318-0.864c1.013,0,1.786,0.288,2.318,0.864c0.532,0.577,0.798,1.403,0.798,2.48v1.14h-1.976v-1.272
		c0-0.875-0.361-1.312-1.083-1.312c-0.722,0-1.083,0.437-1.083,1.312v7.276c0,0.861,0.361,1.292,1.083,1.292
		c0.722,0,1.083-0.431,1.083-1.292v-2.603h-1.045v-1.9h3.021v4.352c0,1.076-0.266,1.902-0.798,2.479
		c-0.532,0.576-1.305,0.865-2.318,0.865C86.043,35.072,85.271,34.783,84.739,34.207z"/>
	<path fill="#FFFFFF" d="M94.979,34.207c-0.52-0.576-0.779-1.402-0.779-2.479v-0.761h1.976v0.912c0,0.861,0.361,1.292,1.083,1.292
		c0.354,0,0.624-0.104,0.808-0.313c0.183-0.209,0.275-0.548,0.275-1.017c0-0.557-0.127-1.048-0.38-1.473
		c-0.254-0.424-0.722-0.934-1.406-1.529c-0.861-0.76-1.463-1.447-1.805-2.062c-0.342-0.614-0.513-1.308-0.513-2.081
		c0-1.051,0.266-1.864,0.798-2.441c0.532-0.576,1.305-0.864,2.318-0.864c1,0,1.758,0.288,2.271,0.864
		c0.513,0.577,0.77,1.403,0.77,2.48v0.551h-1.976v-0.684c0-0.457-0.089-0.789-0.266-0.998c-0.178-0.209-0.437-0.313-0.779-0.313
		c-0.697,0-1.045,0.425-1.045,1.272c0,0.482,0.13,0.932,0.39,1.35c0.259,0.418,0.731,0.924,1.416,1.52
		c0.874,0.76,1.476,1.451,1.805,2.071c0.33,0.62,0.494,1.349,0.494,2.185c0,1.09-0.269,1.926-0.808,2.508
		c-0.538,0.584-1.32,0.875-2.346,0.875C96.265,35.072,95.499,34.783,94.979,34.207z"/>
	<path fill="#FFFFFF" d="M102.285,34.217c-0.526-0.57-0.789-1.374-0.789-2.413V24.66c0-1.039,0.263-1.844,0.789-2.413
		c0.525-0.57,1.289-0.855,2.29-0.855c1,0,1.764,0.285,2.29,0.855c0.525,0.569,0.788,1.374,0.788,2.413v1.406h-1.976v-1.539
		c0-0.824-0.349-1.235-1.045-1.235c-0.696,0-1.045,0.411-1.045,1.235v7.429c0,0.811,0.349,1.216,1.045,1.216
		c0.697,0,1.045-0.405,1.045-1.216v-2.033h1.976v1.881c0,1.039-0.263,1.843-0.788,2.413c-0.526,0.57-1.289,0.855-2.29,0.855
		C103.573,35.072,102.81,34.787,102.285,34.217z"/>
	<path fill="#FFFFFF" d="M108.906,21.582h2.09v5.415h2.242v-5.415h2.09v13.3h-2.09v-5.985h-2.242v5.985h-2.09V21.582z"/>
	<path fill="#FFFFFF" d="M117.551,34.197c-0.544-0.582-0.817-1.405-0.817-2.469v-6.992c0-1.064,0.272-1.888,0.817-2.471
		c0.544-0.582,1.33-0.874,2.356-0.874c1.026,0,1.812,0.292,2.356,0.874c0.545,0.583,0.817,1.406,0.817,2.471v6.992
		c0,1.063-0.272,1.887-0.817,2.469c-0.544,0.584-1.33,0.875-2.356,0.875C118.881,35.072,118.095,34.781,117.551,34.197z
		 M120.99,31.861v-7.258c0-0.875-0.361-1.312-1.083-1.312c-0.722,0-1.083,0.437-1.083,1.312v7.258c0,0.873,0.361,1.311,1.083,1.311
		C120.629,33.172,120.99,32.734,120.99,31.861z"/>
	<path fill="#FFFFFF" d="M125.151,34.197c-0.544-0.582-0.817-1.405-0.817-2.469v-6.992c0-1.064,0.272-1.888,0.817-2.471
		c0.544-0.582,1.33-0.874,2.356-0.874c1.026,0,1.812,0.292,2.356,0.874c0.545,0.583,0.817,1.406,0.817,2.471v6.992
		c0,1.063-0.272,1.887-0.817,2.469c-0.544,0.584-1.33,0.875-2.356,0.875C126.481,35.072,125.695,34.781,125.151,34.197z
		 M128.59,31.861v-7.258c0-0.875-0.361-1.312-1.083-1.312c-0.722,0-1.083,0.437-1.083,1.312v7.258c0,0.873,0.361,1.311,1.083,1.311
		C128.229,33.172,128.59,32.734,128.59,31.861z"/>
	<path fill="#FFFFFF" d="M132.086,21.582h2.09v11.4h3.439v1.899h-5.529V21.582z"/>
	<path fill="#FFFFFF" d="M139.04,34.207c-0.52-0.576-0.779-1.402-0.779-2.479v-0.761h1.976v0.912c0,0.861,0.361,1.292,1.083,1.292
		c0.354,0,0.624-0.104,0.808-0.313c0.183-0.209,0.275-0.548,0.275-1.017c0-0.557-0.127-1.048-0.38-1.473
		c-0.254-0.424-0.722-0.934-1.406-1.529c-0.861-0.76-1.463-1.447-1.805-2.062c-0.342-0.614-0.513-1.308-0.513-2.081
		c0-1.051,0.266-1.864,0.798-2.441c0.532-0.576,1.305-0.864,2.318-0.864c1,0,1.758,0.288,2.271,0.864
		c0.513,0.577,0.77,1.403,0.77,2.48v0.551h-1.976v-0.684c0-0.457-0.089-0.789-0.266-0.998c-0.178-0.209-0.437-0.313-0.779-0.313
		c-0.697,0-1.045,0.425-1.045,1.272c0,0.482,0.13,0.932,0.39,1.35c0.259,0.418,0.731,0.924,1.416,1.52
		c0.874,0.76,1.476,1.451,1.805,2.071c0.33,0.62,0.494,1.349,0.494,2.185c0,1.09-0.269,1.926-0.808,2.508
		c-0.538,0.584-1.32,0.875-2.346,0.875C140.325,35.072,139.559,34.783,139.04,34.207z"/>
</g>
<g>
	<path fill-rule="evenodd" clip-rule="evenodd" fill="#627D53" d="M55.525,149.828c1.103-0.396,3.103-0.757,4.167-1.14
		c-0.312-3.694-2.295-15.175-2.441-17.232c-0.065-0.917-0.406-1.482-1.295-1.934c-6.389-3.243-12.734-6.572-19.11-9.84
		c-1.35-0.691-2.384-1.573-2.314-3.196c0.07-1.607,1.124-2.415,2.547-3.004c27.503-11.382,54.996-22.788,82.486-34.199
		c0.987-0.409,1.938-0.653,2.596,0.438c0.595,0.986,0.074,1.731-0.66,2.455c-13.969,13.777-42.027,35.59-42.027,35.59
		c4.25,9.734,9.071,18.484,13.483,26.625c0.333,0.615,0.796,1.355,0.747,2.007c-0.105,1.408-1.553,1.889-3.049,1.116
		c-6.366-3.288-12.727-6.587-19.09-9.88c-1.281-0.663-2.567-1.316-3.992-2.047c-3.059,6.223-4.657,8.589-6.81,12.941
		c3.771,1.101,23.932,5.06,25.005,5.755c0.61,0.396,0.872,1.33,1.149,2.104c-7.443,0.207-22.854-0.138-24.896,0.109
		c-2.987,0.361-5.641-0.191-7.135-3.195c-2.53,1.066-4.133,0.747-4.99-0.964c-0.697-1.392-0.207-3.135,1.108-3.948
		C52.611,147.398,54.169,147.89,55.525,149.828z"/>
</g>
</svg>
