<?xml version="1.0" encoding="utf-8"?>
<!-- Generator: Adobe Illustrator 16.0.0, SVG Export Plug-In . SVG Version: 6.00 Build 0)  -->
<!DOCTYPE svg PUBLIC "-//W3C//DTD SVG 1.1//EN" "http://www.w3.org/Graphics/SVG/1.1/DTD/svg11.dtd">
<svg version="1.1" id="Layer_1" xmlns="http://www.w3.org/2000/svg" xmlns:xlink="http://www.w3.org/1999/xlink" x="0px" y="0px"
	 width="157px" height="179px" viewBox="0 0 157 179" enable-background="new 0 0 157 179" xml:space="preserve">
<rect x="2.5" y="1.01" fill-rule="evenodd" clip-rule="evenodd" fill="#FFFFFF" stroke="#627D53" stroke-width="2" stroke-miterlimit="10" width="155" height="177"/>
<rect x="1.5" y="0.01" fill-rule="evenodd" clip-rule="evenodd" fill="#627D53" width="155" height="56"/>
<g>
	<path fill="#FFFFFF" d="M12.607,21.582h2.014l0.931,10.222h0.038l0.988-10.222h2.28l0.988,10.222h0.038l0.931-10.222h1.805
		l-1.349,13.3h-2.603l-0.95-8.968H17.68l-0.95,8.968h-2.774L12.607,21.582z"/>
	<path fill="#FFFFFF" d="M23.684,21.582h2.09v13.3h-2.09V21.582z"/>
	<path fill="#FFFFFF" d="M27.332,21.582h2.622l2.033,7.961h0.038v-7.961h1.862v13.3H31.74l-2.508-9.709h-0.038v9.709h-1.862V21.582z
		"/>
	<path fill="#FFFFFF" d="M35.444,21.582h3.192c1.038,0,1.817,0.279,2.337,0.836c0.519,0.558,0.779,1.375,0.779,2.451v6.726
		c0,1.077-0.26,1.894-0.779,2.451c-0.52,0.558-1.299,0.836-2.337,0.836h-3.192V21.582z M38.599,32.982
		c0.342,0,0.604-0.102,0.789-0.305c0.183-0.202,0.275-0.531,0.275-0.988v-6.916c0-0.455-0.092-0.785-0.275-0.988
		c-0.184-0.201-0.447-0.303-0.789-0.303h-1.064v9.5H38.599z"/>
	<path fill="#FFFFFF" d="M43.576,34.207c-0.52-0.576-0.779-1.402-0.779-2.479v-0.761h1.976v0.912c0,0.861,0.361,1.292,1.083,1.292
		c0.354,0,0.624-0.104,0.808-0.313c0.183-0.209,0.275-0.548,0.275-1.017c0-0.557-0.127-1.048-0.38-1.473
		c-0.254-0.424-0.722-0.934-1.406-1.529c-0.861-0.76-1.463-1.447-1.805-2.062c-0.342-0.614-0.513-1.308-0.513-2.081
		c0-1.051,0.266-1.864,0.798-2.441c0.532-0.576,1.305-0.864,2.318-0.864c1,0,1.758,0.288,2.271,0.864
		c0.513,0.577,0.77,1.403,0.77,2.48v0.551h-1.976v-0.684c0-0.457-0.089-0.789-0.266-0.998c-0.178-0.209-0.437-0.313-0.779-0.313
		c-0.697,0-1.045,0.425-1.045,1.272c0,0.482,0.13,0.932,0.39,1.35c0.259,0.418,0.731,0.924,1.416,1.52
		c0.874,0.76,1.476,1.451,1.805,2.071c0.33,0.62,0.494,1.349,0.494,2.185c0,1.09-0.269,1.926-0.808,2.508
		c-0.538,0.584-1.32,0.875-2.346,0.875C44.862,35.072,44.096,34.783,43.576,34.207z"/>
	<path fill="#FFFFFF" d="M50.948,34.207c-0.532-0.576-0.798-1.402-0.798-2.479V21.582h2.09V31.88c0,0.456,0.092,0.786,0.275,0.987
		c0.184,0.203,0.447,0.305,0.789,0.305c0.342,0,0.605-0.102,0.789-0.305c0.184-0.201,0.275-0.531,0.275-0.987V21.582h2.014v10.146
		c0,1.076-0.266,1.902-0.798,2.479c-0.532,0.576-1.305,0.865-2.318,0.865S51.48,34.783,50.948,34.207z"/>
	<path fill="#FFFFFF" d="M57.864,21.582h3.097c1.077,0,1.862,0.25,2.356,0.75c0.494,0.501,0.741,1.271,0.741,2.309v0.817
		c0,1.38-0.456,2.255-1.368,2.622v0.037c0.506,0.152,0.865,0.463,1.074,0.932s0.313,1.096,0.313,1.881v2.337
		c0,0.38,0.012,0.688,0.038,0.922s0.089,0.466,0.19,0.693h-2.128c-0.076-0.216-0.126-0.418-0.152-0.608
		c-0.025-0.189-0.038-0.531-0.038-1.025v-2.432c0-0.608-0.098-1.033-0.294-1.273s-0.535-0.361-1.017-0.361h-0.722v5.7h-2.09V21.582z
		 M60.714,27.281c0.418,0,0.731-0.107,0.94-0.322s0.313-0.576,0.313-1.083V24.85c0-0.48-0.085-0.829-0.256-1.045
		c-0.171-0.215-0.44-0.322-0.808-0.322h-0.95v3.799H60.714z"/>
	<path fill="#FFFFFF" d="M65.521,21.582h5.529v1.9h-3.439v3.705h2.698v1.899h-2.698v5.795h-2.09V21.582z"/>
	<path fill="#FFFFFF" d="M72.057,21.582h2.09v13.3h-2.09V21.582z"/>
	<path fill="#FFFFFF" d="M75.705,21.582h2.622l2.033,7.961h0.038v-7.961h1.862v13.3h-2.147l-2.508-9.709h-0.038v9.709h-1.862V21.582
		z"/>
	<path fill="#FFFFFF" d="M84.464,34.207c-0.532-0.576-0.798-1.402-0.798-2.479v-6.992c0-1.077,0.266-1.903,0.798-2.48
		c0.532-0.576,1.305-0.864,2.318-0.864c1.013,0,1.786,0.288,2.318,0.864c0.532,0.577,0.798,1.403,0.798,2.48v1.14h-1.976v-1.272
		c0-0.875-0.361-1.312-1.083-1.312c-0.722,0-1.083,0.437-1.083,1.312v7.276c0,0.861,0.361,1.292,1.083,1.292
		c0.722,0,1.083-0.431,1.083-1.292v-2.603h-1.045v-1.9h3.021v4.352c0,1.076-0.266,1.902-0.798,2.479
		c-0.532,0.576-1.305,0.865-2.318,0.865C85.769,35.072,84.996,34.783,84.464,34.207z"/>
	<path fill="#FFFFFF" d="M94.704,34.207c-0.52-0.576-0.779-1.402-0.779-2.479v-0.761h1.976v0.912c0,0.861,0.361,1.292,1.083,1.292
		c0.354,0,0.624-0.104,0.808-0.313c0.183-0.209,0.275-0.548,0.275-1.017c0-0.557-0.127-1.048-0.38-1.473
		c-0.254-0.424-0.722-0.934-1.406-1.529c-0.861-0.76-1.463-1.447-1.805-2.062c-0.342-0.614-0.513-1.308-0.513-2.081
		c0-1.051,0.266-1.864,0.798-2.441c0.532-0.576,1.305-0.864,2.318-0.864c1,0,1.758,0.288,2.271,0.864
		c0.513,0.577,0.77,1.403,0.77,2.48v0.551h-1.976v-0.684c0-0.457-0.089-0.789-0.266-0.998c-0.178-0.209-0.437-0.313-0.779-0.313
		c-0.697,0-1.045,0.425-1.045,1.272c0,0.482,0.13,0.932,0.39,1.35c0.259,0.418,0.731,0.924,1.416,1.52
		c0.874,0.76,1.476,1.451,1.805,2.071c0.33,0.62,0.494,1.349,0.494,2.185c0,1.09-0.269,1.926-0.808,2.508
		c-0.538,0.584-1.32,0.875-2.346,0.875C95.99,35.072,95.224,34.783,94.704,34.207z"/>
	<path fill="#FFFFFF" d="M102.01,34.217c-0.526-0.57-0.789-1.374-0.789-2.413V24.66c0-1.039,0.263-1.844,0.789-2.413
		c0.525-0.57,1.289-0.855,2.29-0.855c1,0,1.764,0.285,2.29,0.855c0.525,0.569,0.788,1.374,0.788,2.413v1.406h-1.976v-1.539
		c0-0.824-0.349-1.235-1.045-1.235c-0.696,0-1.045,0.411-1.045,1.235v7.429c0,0.811,0.349,1.216,1.045,1.216
		c0.697,0,1.045-0.405,1.045-1.216v-2.033h1.976v1.881c0,1.039-0.263,1.843-0.788,2.413c-0.526,0.57-1.289,0.855-2.29,0.855
		C103.298,35.072,102.535,34.787,102.01,34.217z"/>
	<path fill="#FFFFFF" d="M108.631,21.582h2.09v5.415h2.242v-5.415h2.09v13.3h-2.09v-5.985h-2.242v5.985h-2.09V21.582z"/>
	<path fill="#FFFFFF" d="M117.276,34.197c-0.544-0.582-0.817-1.405-0.817-2.469v-6.992c0-1.064,0.272-1.888,0.817-2.471
		c0.544-0.582,1.33-0.874,2.356-0.874c1.026,0,1.812,0.292,2.356,0.874c0.545,0.583,0.817,1.406,0.817,2.471v6.992
		c0,1.063-0.272,1.887-0.817,2.469c-0.544,0.584-1.33,0.875-2.356,0.875C118.606,35.072,117.82,34.781,117.276,34.197z
		 M120.715,31.861v-7.258c0-0.875-0.361-1.312-1.083-1.312c-0.722,0-1.083,0.437-1.083,1.312v7.258c0,0.873,0.361,1.311,1.083,1.311
		C120.354,33.172,120.715,32.734,120.715,31.861z"/>
	<path fill="#FFFFFF" d="M124.876,34.197c-0.544-0.582-0.817-1.405-0.817-2.469v-6.992c0-1.064,0.272-1.888,0.817-2.471
		c0.544-0.582,1.33-0.874,2.356-0.874c1.026,0,1.812,0.292,2.356,0.874c0.545,0.583,0.817,1.406,0.817,2.471v6.992
		c0,1.063-0.272,1.887-0.817,2.469c-0.544,0.584-1.33,0.875-2.356,0.875C126.206,35.072,125.42,34.781,124.876,34.197z
		 M128.315,31.861v-7.258c0-0.875-0.361-1.312-1.083-1.312c-0.722,0-1.083,0.437-1.083,1.312v7.258c0,0.873,0.361,1.311,1.083,1.311
		C127.954,33.172,128.315,32.734,128.315,31.861z"/>
	<path fill="#FFFFFF" d="M131.811,21.582h2.09v11.4h3.439v1.899h-5.529V21.582z"/>
	<path fill="#FFFFFF" d="M138.765,34.207c-0.52-0.576-0.779-1.402-0.779-2.479v-0.761h1.976v0.912c0,0.861,0.361,1.292,1.083,1.292
		c0.354,0,0.624-0.104,0.808-0.313c0.183-0.209,0.275-0.548,0.275-1.017c0-0.557-0.127-1.048-0.38-1.473
		c-0.254-0.424-0.722-0.934-1.406-1.529c-0.861-0.76-1.463-1.447-1.805-2.062c-0.342-0.614-0.513-1.308-0.513-2.081
		c0-1.051,0.266-1.864,0.798-2.441c0.532-0.576,1.305-0.864,2.318-0.864c1,0,1.758,0.288,2.271,0.864
		c0.513,0.577,0.77,1.403,0.77,2.48v0.551h-1.976v-0.684c0-0.457-0.089-0.789-0.266-0.998c-0.178-0.209-0.437-0.313-0.779-0.313
		c-0.697,0-1.045,0.425-1.045,1.272c0,0.482,0.13,0.932,0.39,1.35c0.259,0.418,0.731,0.924,1.416,1.52
		c0.874,0.76,1.476,1.451,1.805,2.071c0.33,0.62,0.494,1.349,0.494,2.185c0,1.09-0.269,1.926-0.808,2.508
		c-0.538,0.584-1.32,0.875-2.346,0.875C140.051,35.072,139.285,34.783,138.765,34.207z"/>
</g>
<g>
	<path fill-rule="evenodd" clip-rule="evenodd" fill="#627D53" d="M87.545,76.778c1.028,0.692,1.033,0.955,0.076,2.529
		c0.879,1.541,1.812,3.028,2.6,4.588c2.298,4.547,3.674,9.409,4.763,14.362c0.044,0.201,0.065,0.426,0.022,0.624
		c-0.414,1.923-0.029,3.674,1.161,5.329c-0.578,0.244-1.125,0.478-1.674,0.707c-2.053,0.855-4.1,1.725-6.165,2.551
		c-0.367,0.147-0.813,0.202-1.208,0.158c-2.236-0.246-4.466-0.546-6.701-0.806c-2.04-0.237-3.893,1.256-4.224,3.374
		c-0.299,1.917,1.076,3.979,3.025,4.277c2.94,0.451,5.898,0.796,8.857,1.11c0.597,0.063,1.245-0.158,1.84-0.341
		c0.664-0.203,1.296-0.513,2.098-0.84c-0.323,1.398-0.598,2.667-0.925,3.922c-0.045,0.172-0.335,0.304-0.535,0.408
		c-2.991,1.558-5.977,3.126-8.984,4.65c-1.208,0.612-2.066,1.493-2.598,2.736c-0.516,1.205-1.099,2.382-1.623,3.583
		c-0.185,0.423-0.414,0.661-0.904,0.733c-0.923,0.137-1.833,0.363-2.826,0.568c-0.054,2.436-0.116,4.846-0.156,7.258
		c-0.011,0.676-0.056,1.373,0.081,2.025c0.303,1.444,1.221,2.447,2.543,3.09c-0.728,0.703-2.112,0.792-3.102,0.194
		c-0.722-0.436-1.407-0.937-2.148-1.335c-1.955-1.051-4.056-1.221-6.219-0.925c-0.182,0.024-0.364,0.053-0.546,0.079
		c-0.019-0.058-0.038-0.115-0.057-0.172c1.279-0.458,2.549-0.941,3.839-1.363c0.933-0.306,1.89-0.543,2.842-0.785
		c0.359-0.092,0.534-0.212,0.55-0.643c0.16-4.146,0.221-8.302,0.555-12.436c1.09-13.496,3.487-26.704,9.11-39.152
		c1.44-3.188,3.128-6.239,5.107-9.125c0.233-0.34,0.544-0.626,0.819-0.937C87.076,76.778,87.311,76.778,87.545,76.778z"/>
	<path fill-rule="evenodd" clip-rule="evenodd" fill="#627D53" d="M57.144,148.842c-1.673-0.301-3.067-1.176-4.49-2.051
		c-0.703-0.433-1.612-0.59-2.452-0.723c-0.972-0.152-1.553-0.633-1.509-1.489c0.042-0.831,0.705-1.321,1.673-1.309
		c1.922,0.023,3.492,0.894,5.039,1.925c1.81,1.205,3.699,1.172,5.56,0.049c0.441-0.266,0.853-0.58,1.295-0.845
		c2.22-1.331,4.565-1.476,6.958-0.596c0.757,0.278,1.449,0.761,2.132,1.207c2.187,1.429,4.132,1.486,6.271-0.034
		c2.139-1.521,4.458-2.144,6.974-1.436c1.186,0.334,2.277,1.058,3.36,1.692c1.85,1.084,3.674,1.125,5.518,0.039
		c0.443-0.262,0.855-0.577,1.294-0.847c2.236-1.365,4.605-1.51,7.019-0.614c0.821,0.306,1.562,0.845,2.31,1.323
		c1.963,1.256,3.938,1.288,5.862-0.009c1.484-0.999,3.002-1.812,4.846-1.853c1.024-0.022,1.7,0.451,1.743,1.306
		c0.044,0.875-0.54,1.342-1.58,1.493c-0.795,0.115-1.657,0.273-2.32,0.684c-1.439,0.891-2.85,1.787-4.55,2.086
		c-0.704,0-1.407,0-2.111,0c-1.678-0.284-3.066-1.164-4.48-2.053c-1.68-1.057-3.5-1.075-5.186-0.019
		c-1.436,0.899-2.844,1.795-4.55,2.071c-0.704,0-1.408,0-2.111,0c-1.695-0.313-3.093-1.23-4.534-2.113
		c-1.62-0.992-3.384-0.992-5.006,0.003c-1.44,0.883-2.84,1.799-4.535,2.11c-0.704,0-1.408,0-2.111,0
		c-0.293-0.071-0.61-0.094-0.875-0.223c-1.17-0.569-2.353-1.119-3.478-1.768c-1.776-1.023-3.577-1.167-5.32-0.094
		c-1.44,0.887-2.841,1.794-4.543,2.084C58.551,148.842,57.848,148.842,57.144,148.842z"/>
	<path fill-rule="evenodd" clip-rule="evenodd" fill="#627D53" d="M105.158,116.788c-0.43,1.973-0.887,3.909-1.262,5.861
		c-0.207,1.074-0.706,1.892-1.561,2.568c-1.6,1.266-3.141,2.605-4.742,3.869c-0.472,0.373-0.598,0.68-0.413,1.278
		c0.691,2.236,1.307,4.496,1.956,6.746c0.254,0.881,0.202,1.726-0.338,2.486c-0.62,0.872-1.491,1.294-2.554,1.17
		c-1.084-0.127-1.937-0.703-2.255-1.761c-0.991-3.296-1.944-6.604-2.849-9.924c-0.267-0.979,0.157-1.842,0.896-2.525
		c0.267-0.248,0.553-0.476,0.771-0.807c-0.224,0.102-0.453,0.194-0.671,0.307c-2.059,1.067-4.125,2.12-6.165,3.223
		c-0.356,0.192-0.708,0.544-0.879,0.907c-1.57,3.351-3.099,6.721-4.644,10.083c-0.467,1.017-1.234,1.646-2.375,1.721
		c-1.07,0.069-1.924-0.35-2.508-1.257c-0.52-0.808-0.6-1.691-0.208-2.555c1.781-3.924,3.563-7.847,5.416-11.737
		c0.269-0.563,0.846-1.086,1.408-1.389c3.218-1.73,6.472-3.396,9.723-5.063c0.432-0.222,0.662-0.485,0.768-0.979
		c0.491-2.29,1.034-4.568,1.555-6.852c0.03-0.131,0.039-0.267,0.069-0.483c-1.597,0.67-3.108,1.351-4.659,1.929
		c-0.613,0.229-1.328,0.369-1.971,0.304c-2.657-0.271-5.307-0.623-7.955-0.976c-1.205-0.161-1.999-1.236-1.897-2.472
		c0.095-1.16,1.09-2.115,2.292-2.007c2.169,0.197,4.332,0.485,6.491,0.775c0.875,0.117,1.672,0.082,2.514-0.287
		c2.422-1.063,4.868-2.078,7.344-3.009c0.707-0.266,1.56-0.304,2.322-0.222c1.041,0.112,2.085,0.359,3.078,0.694
		c1.052,0.355,2.114,0.773,3.052,1.355c2.11,1.31,4.155,2.725,6.209,4.122c1.481,1.009,1.574,2.903,0.177,3.822
		c-0.392,0.258-0.905,0.371-1.379,0.458c-0.782,0.143-1.579,0.209-2.369,0.311C106.78,116.573,106.014,116.676,105.158,116.788z"/>
	<path fill-rule="evenodd" clip-rule="evenodd" fill="#627D53" d="M101.142,95.792c2.485,0.037,4.513,2.087,4.502,4.552
		c-0.011,2.519-2.08,4.586-4.566,4.563c-2.544-0.024-4.571-2.111-4.528-4.663C96.591,97.771,98.672,95.755,101.142,95.792z"/>
	<path fill-rule="evenodd" clip-rule="evenodd" fill="#627D53" d="M94.608,142.055c-0.761,0.49-1.396,0.887-2.018,1.303
		c-1.226,0.82-2.454,0.849-3.663-0.006c-2.063-1.459-4.289-2.389-7.03-2.121c0.687-1.491,1.299-2.847,1.947-4.186
		c0.067-0.14,0.34-0.241,0.525-0.254c2.198-0.148,4.397-0.289,6.598-0.391c0.181-0.009,0.462,0.238,0.547,0.432
		c0.187,0.425,0.292,0.888,0.404,1.343C92.312,139.786,92.917,141.254,94.608,142.055z"/>
	<path fill-rule="evenodd" clip-rule="evenodd" fill="#627D53" d="M99.733,141.203c1.113-1.304,1.487-2.699,1.14-4.357
		c1.583,0.141,3.055,0.443,4.459,1.018c0.533,0.219,1.059,0.511,1.507,0.871c0.726,0.584,0.847,1.441,0.186,2.087
		c-0.724,0.707-1.61,1.252-2.449,1.833c-0.114,0.079-0.399,0.01-0.551-0.081C102.741,141.799,101.352,141.355,99.733,141.203z"/>
</g>
</svg>
