<?xml version="1.0" encoding="utf-8"?>
<!-- Generator: Adobe Illustrator 16.0.0, SVG Export Plug-In . SVG Version: 6.00 Build 0)  -->
<!DOCTYPE svg PUBLIC "-//W3C//DTD SVG 1.1//EN" "http://www.w3.org/Graphics/SVG/1.1/DTD/svg11.dtd">
<svg version="1.1" id="Layer_1" xmlns="http://www.w3.org/2000/svg" xmlns:xlink="http://www.w3.org/1999/xlink" x="0px" y="0px"
	 width="157px" height="179px" viewBox="0 0 157 179" enable-background="new 0 0 157 179" xml:space="preserve">
<rect x="0.975" y="1" fill-rule="evenodd" clip-rule="evenodd" fill="#FFFFFF" stroke="#627D53" stroke-width="2" stroke-miterlimit="10" width="155" height="177"/>
<rect x="1.975" fill-rule="evenodd" clip-rule="evenodd" fill="#627D53" width="155" height="56"/>
<g>
	<path fill="#FFFFFF" d="M34.675,34.217c-0.526-0.57-0.789-1.374-0.789-2.413V24.66c0-1.038,0.263-1.843,0.789-2.413
		c0.525-0.57,1.289-0.855,2.29-0.855c1,0,1.764,0.285,2.29,0.855c0.525,0.57,0.788,1.375,0.788,2.413v1.406h-1.976v-1.539
		c0-0.823-0.349-1.235-1.045-1.235c-0.696,0-1.045,0.412-1.045,1.235v7.429c0,0.811,0.349,1.216,1.045,1.216
		c0.697,0,1.045-0.405,1.045-1.216v-2.033h1.976v1.881c0,1.039-0.263,1.843-0.788,2.413c-0.526,0.57-1.289,0.855-2.29,0.855
		C35.963,35.072,35.2,34.787,34.675,34.217z"/>
	<path fill="#FFFFFF" d="M42.911,21.582h2.831l2.166,13.3h-2.09l-0.38-2.641v0.038h-2.375l-0.38,2.603h-1.938L42.911,21.582z
		 M45.191,30.474L44.26,23.9h-0.038l-0.912,6.574H45.191z"/>
	<path fill="#FFFFFF" d="M48.915,21.582h2.622l2.033,7.961h0.038v-7.961h1.862v13.3h-2.147l-2.508-9.709h-0.038v9.709h-1.862V21.582
		z"/>
	<path fill="#FFFFFF" d="M57.692,34.198c-0.544-0.583-0.817-1.406-0.817-2.47v-6.992c0-1.064,0.272-1.887,0.817-2.47
		c0.544-0.582,1.33-0.874,2.356-0.874c1.026,0,1.812,0.292,2.356,0.874c0.545,0.583,0.817,1.406,0.817,2.47v6.992
		c0,1.064-0.272,1.887-0.817,2.47c-0.544,0.583-1.33,0.874-2.356,0.874C59.022,35.072,58.237,34.781,57.692,34.198z M61.131,31.861
		v-7.258c0-0.874-0.361-1.311-1.083-1.311c-0.722,0-1.083,0.437-1.083,1.311v7.258c0,0.874,0.361,1.311,1.083,1.311
		C60.771,33.172,61.131,32.735,61.131,31.861z"/>
	<path fill="#FFFFFF" d="M64.627,21.582h5.7v1.9h-3.61v3.515h2.869v1.9h-2.869v4.085h3.61v1.9h-5.7V21.582z"/>
	<path fill="#FFFFFF" d="M74.564,21.582h3.097c1.077,0,1.862,0.25,2.356,0.75s0.741,1.27,0.741,2.308v0.817
		c0,1.38-0.456,2.254-1.368,2.622v0.038c0.506,0.152,0.865,0.463,1.074,0.931c0.209,0.469,0.313,1.096,0.313,1.881v2.337
		c0,0.38,0.012,0.688,0.038,0.922s0.089,0.465,0.19,0.693h-2.128c-0.076-0.215-0.126-0.418-0.152-0.608s-0.038-0.532-0.038-1.026
		v-2.432c0-0.608-0.098-1.032-0.294-1.273s-0.535-0.361-1.017-0.361h-0.722v5.7h-2.09V21.582z M77.414,27.282
		c0.418,0,0.731-0.107,0.94-0.323s0.313-0.576,0.313-1.083V24.85c0-0.481-0.085-0.829-0.256-1.045
		c-0.171-0.215-0.44-0.323-0.808-0.323h-0.95v3.8H77.414z"/>
	<path fill="#FFFFFF" d="M82.221,21.582h5.7v1.9h-3.61v3.515h2.869v1.9h-2.869v4.085h3.61v1.9h-5.7V21.582z"/>
	<path fill="#FFFFFF" d="M89.118,21.582h2.622l2.033,7.961h0.038v-7.961h1.862v13.3h-2.147l-2.508-9.709H90.98v9.709h-1.862V21.582z
		"/>
	<path fill="#FFFFFF" d="M98.865,23.482H96.68v-1.9h6.46v1.9h-2.185v11.4h-2.09V23.482z"/>
	<path fill="#FFFFFF" d="M104.888,21.582h2.831l2.166,13.3h-2.09l-0.38-2.641v0.038h-2.375l-0.38,2.603h-1.938L104.888,21.582z
		 M107.168,30.474l-0.931-6.574h-0.038l-0.912,6.574H107.168z"/>
	<path fill="#FFFFFF" d="M110.892,21.582h2.09v11.4h3.439v1.9h-5.529V21.582z"/>
	<path fill="#FFFFFF" d="M117.845,34.208c-0.52-0.577-0.779-1.403-0.779-2.479v-0.76h1.976v0.912c0,0.861,0.361,1.292,1.083,1.292
		c0.354,0,0.624-0.104,0.808-0.313c0.183-0.209,0.275-0.548,0.275-1.017c0-0.557-0.127-1.048-0.38-1.473
		c-0.254-0.424-0.722-0.934-1.406-1.529c-0.861-0.76-1.463-1.447-1.805-2.062c-0.342-0.614-0.513-1.308-0.513-2.081
		c0-1.051,0.266-1.865,0.798-2.441c0.532-0.576,1.305-0.865,2.318-0.865c1,0,1.758,0.289,2.271,0.865
		c0.513,0.577,0.77,1.403,0.77,2.479v0.551h-1.976v-0.684c0-0.456-0.089-0.789-0.266-0.998c-0.178-0.209-0.437-0.313-0.779-0.313
		c-0.697,0-1.045,0.424-1.045,1.273c0,0.481,0.13,0.931,0.39,1.349c0.259,0.418,0.731,0.924,1.416,1.52
		c0.874,0.76,1.476,1.451,1.805,2.071c0.33,0.621,0.494,1.349,0.494,2.185c0,1.089-0.269,1.925-0.808,2.508
		c-0.538,0.583-1.32,0.874-2.346,0.874C119.131,35.072,118.365,34.784,117.845,34.208z"/>
</g>
<g>
	<path fill-rule="evenodd" clip-rule="evenodd" fill="#627D53" d="M127.459,143.314c-2.905,4.34-8.758,5.25-12.997,1.832
		c-1.868-1.507-3.26-1.475-5.094,0.039c-3.405,2.811-8.028,2.73-11.507-0.112c-1.667-1.362-3.016-1.463-4.762-0.089
		c-3.854,3.033-8.013,3.01-11.826-0.001c-1.71-1.351-3.094-1.3-4.781,0.069c-3.592,2.917-8.061,2.94-11.67,0.016
		c-1.8-1.459-3.209-1.374-4.943,0.052c-3.544,2.915-7.895,2.949-11.434,0.033c-1.822-1.501-3.219-1.539-5.092-0.014
		c-4.216,3.434-10.086,2.516-12.992-1.825c0-0.575,0-1.15,0-1.727c1.779-2.53,2.978-2.83,5.5-1.169
		c1.357,0.895,2.5,0.756,3.746-0.163c4.687-3.458,7.938-3.486,12.476-0.058c1.418,1.071,2.699,1.188,4.068,0.001
		c2.441-2.115,5.217-2.857,8.423-2.211c0.504,0.102,1.477-0.449,1.712-0.945c3.596-7.576,7.105-15.193,10.486-22.48
		c-1.631-0.128-3.419,0.096-4.891-0.485c-1.535-0.607-2.764-1.989-4.257-3.133c-1.286,3.436-2.507,6.7-3.797,10.147
		c2.053,0.317,3.859,0.598,5.958,0.922c-1.99,4.31-3.9,8.447-5.846,12.663c-3.611-0.258-6.89,0.518-9.783,3.019
		c-3.202-2.756-6.913-3.635-11.041-2.874c-0.375,0.069-0.89-0.031-1.196-0.252c-5.69-4.117-10.099-9.033-9.861-16.64
		c0.042-1.338,0.365-2.705,0.783-3.985c0.871-2.673,2.67-3.239,5.219-1.99c3.985,1.953,8.027,3.793,12.051,5.665
		c0.38,0.177,0.811,0.243,1.467,0.433c1.109-2.898,2.206-5.744,3.286-8.597c0.66-1.744,1.233-3.523,1.949-5.243
		c1.987-4.772,7.7-5.438,11.039-1.529c1.65,1.931,3.839,3.415,5.861,5.004c0.301,0.236,1.092,0.079,1.539-0.138
		c1.808-0.877,3.616-1.773,5.327-2.821c0.671-0.411,1.237-1.166,1.592-1.892c1.482-3.028,2.848-6.114,4.296-9.161
		c0.5-1.052,0.862-2.631,2.51-1.925c1.645,0.704,0.837,1.997,0.319,3.11c-1.181,2.538-2.421,5.051-3.487,7.636
		c-0.249,0.602-0.131,1.586,0.212,2.158c1.177,1.96,0.907,3.937-1.258,4.854c-2.476,1.05-3.677,2.91-4.712,5.2
		c-3.754,8.303-7.622,16.555-11.44,24.829c-0.056,0.122-0.044,0.275-0.072,0.468c1.308,1.402,2.644,1.324,4.147,0.196
		c4.409-3.305,8.008-3.294,12.533,0.063c1.372,1.018,2.562,0.979,3.915,0.003c4.896-3.532,7.68-3.535,12.649,0.034
		c1.391,0.999,2.57,0.949,3.901-0.07c4.354-3.337,8.097-3.325,12.534,0.02c1.244,0.938,2.387,1.056,3.741,0.166
		c2.524-1.658,3.722-1.36,5.501,1.17C127.459,142.164,127.459,142.739,127.459,143.314z"/>
	<path fill-rule="evenodd" clip-rule="evenodd" fill="#627D53" d="M103.614,137.577c-5.741-4.17-10.268-4.139-16.536,0.051
		c-3.867-3.221-8.23-3.683-13.141-2.062c1.962-4.23,3.754-8.26,5.738-12.193c0.298-0.591,1.481-1.005,2.271-1.034
		c9.902-0.361,19.528-2.088,28.713-5.862c3.039-1.249,5.947-2.831,8.865-4.357c2.94-1.537,4.757-0.869,5.676,2.337
		c1.704,5.947-0.174,11.005-4.032,15.517c-0.697,0.816-1.482,1.566-2.284,2.283c-1.87,1.671-3.627,3.082-6.611,2.52
		C109.186,134.191,107.668,135.067,103.614,137.577z"/>
	<path fill-rule="evenodd" clip-rule="evenodd" fill="#627D53" d="M70.931,86.313c3.895,0.017,6.951,3.085,6.936,6.967
		c-0.015,3.875-3.105,6.933-6.99,6.916c-3.906-0.017-6.917-3.057-6.908-6.974C63.978,89.307,67.01,86.298,70.931,86.313z"/>
</g>
</svg>
