<?xml version="1.0" encoding="utf-8"?>
<!-- Generator: Adobe Illustrator 16.0.0, SVG Export Plug-In . SVG Version: 6.00 Build 0)  -->
<!DOCTYPE svg PUBLIC "-//W3C//DTD SVG 1.1//EN" "http://www.w3.org/Graphics/SVG/1.1/DTD/svg11.dtd">
<svg version="1.1" id="Layer_1" xmlns="http://www.w3.org/2000/svg" xmlns:xlink="http://www.w3.org/1999/xlink" x="0px" y="0px"
	 width="157px" height="179px" viewBox="0 0 157 179" enable-background="new 0 0 157 179" xml:space="preserve">
<rect x="1.483" y="1.786" fill-rule="evenodd" clip-rule="evenodd" fill="#FFFFFF" stroke="#627D53" stroke-width="2" stroke-miterlimit="10" width="155" height="177"/>
<rect x="1.483" y="-0.214" fill-rule="evenodd" clip-rule="evenodd" fill="#627D53" width="155" height="56"/>
<g>
	<path fill="#FFFFFF" d="M27.531,14.582h2.983l1.33,9.519h0.038l1.33-9.519h2.983v13.3h-1.976v-10.07h-0.038l-1.52,10.07h-1.748
		l-1.52-10.07h-0.038v10.07h-1.824V14.582z"/>
	<path fill="#FFFFFF" d="M38.418,27.198c-0.544-0.583-0.817-1.406-0.817-2.471v-6.992c0-1.063,0.272-1.887,0.817-2.47
		c0.544-0.582,1.33-0.874,2.356-0.874c1.026,0,1.812,0.292,2.356,0.874c0.545,0.583,0.817,1.406,0.817,2.47v6.992
		c0,1.064-0.272,1.888-0.817,2.471c-0.544,0.582-1.33,0.873-2.356,0.873C39.748,28.071,38.962,27.78,38.418,27.198z M41.857,24.86
		v-7.258c0-0.873-0.361-1.311-1.083-1.311c-0.722,0-1.083,0.438-1.083,1.311v7.258c0,0.875,0.361,1.312,1.083,1.312
		C41.496,26.172,41.857,25.735,41.857,24.86z"/>
	<path fill="#FFFFFF" d="M46.075,27.208c-0.532-0.577-0.798-1.403-0.798-2.48V14.582h2.09V24.88c0,0.456,0.092,0.785,0.275,0.988
		s0.447,0.304,0.789,0.304c0.342,0,0.605-0.101,0.789-0.304s0.275-0.532,0.275-0.988V14.582h2.014v10.146
		c0,1.077-0.266,1.903-0.798,2.48c-0.532,0.576-1.305,0.863-2.318,0.863S46.607,27.784,46.075,27.208z"/>
	<path fill="#FFFFFF" d="M52.991,14.582h2.622l2.033,7.961h0.038v-7.961h1.862v13.3h-2.147l-2.508-9.709h-0.038v9.709h-1.862V14.582
		z"/>
	<path fill="#FFFFFF" d="M62.738,16.481h-2.185v-1.899h6.46v1.899h-2.185v11.4h-2.09V16.481z"/>
	<path fill="#FFFFFF" d="M68.761,14.582h2.831l2.166,13.3h-2.09l-0.38-2.641v0.037h-2.375l-0.38,2.604h-1.938L68.761,14.582z
		 M71.041,23.474l-0.931-6.574h-0.038l-0.912,6.574H71.041z"/>
	<path fill="#FFFFFF" d="M74.764,14.582h2.09v13.3h-2.09V14.582z"/>
	<path fill="#FFFFFF" d="M78.412,14.582h2.622l2.033,7.961h0.038v-7.961h1.862v13.3H82.82l-2.508-9.709h-0.038v9.709h-1.862V14.582z
		"/>
	<path fill="#FFFFFF" d="M89.564,14.582h3.154c1.076,0,1.862,0.25,2.356,0.751c0.494,0.5,0.741,1.27,0.741,2.308v0.532
		c0,0.684-0.111,1.242-0.333,1.672c-0.222,0.431-0.56,0.741-1.016,0.932v0.037c1.038,0.355,1.558,1.279,1.558,2.774v1.14
		c0,1.026-0.269,1.809-0.807,2.347c-0.539,0.538-1.327,0.808-2.366,0.808h-3.287V14.582z M92.472,19.997
		c0.418,0,0.731-0.107,0.94-0.323s0.313-0.576,0.313-1.083V17.85c0-0.481-0.085-0.829-0.256-1.045
		c-0.171-0.215-0.44-0.323-0.808-0.323h-1.007v3.516H92.472z M92.852,25.981c0.367,0,0.64-0.098,0.817-0.294
		s0.266-0.535,0.266-1.017v-1.159c0-0.608-0.104-1.028-0.313-1.263s-0.554-0.352-1.036-0.352h-0.931v4.084H92.852z"/>
	<path fill="#FFFFFF" d="M97.24,14.582h2.09v13.3h-2.09V14.582z"/>
	<path fill="#FFFFFF" d="M100.888,14.582h2.09v5.604l2.66-5.604h2.09l-2.489,4.883l2.527,8.417h-2.185l-1.767-5.928l-0.836,1.691
		v4.236h-2.09V14.582z"/>
	<path fill="#FFFFFF" d="M108.754,14.582h2.09v13.3h-2.09V14.582z"/>
	<path fill="#FFFFFF" d="M112.402,14.582h2.622l2.033,7.961h0.038v-7.961h1.862v13.3h-2.147l-2.508-9.709h-0.038v9.709h-1.862
		V14.582z"/>
	<path fill="#FFFFFF" d="M121.161,27.208c-0.532-0.577-0.798-1.403-0.798-2.48v-6.992c0-1.076,0.266-1.902,0.798-2.479
		c0.532-0.576,1.305-0.865,2.318-0.865c1.013,0,1.786,0.289,2.318,0.865c0.532,0.576,0.798,1.402,0.798,2.479v1.141h-1.976v-1.273
		c0-0.873-0.361-1.311-1.083-1.311c-0.722,0-1.083,0.438-1.083,1.311v7.277c0,0.861,0.361,1.292,1.083,1.292
		c0.722,0,1.083-0.431,1.083-1.292v-2.604h-1.045v-1.899h3.021v4.351c0,1.077-0.266,1.903-0.798,2.48
		c-0.532,0.576-1.305,0.863-2.318,0.863C122.465,28.071,121.693,27.784,121.161,27.208z"/>
	<path fill="#FFFFFF" d="M54.501,46.017c-0.526-0.57-0.789-1.374-0.789-2.413V36.46c0-1.039,0.263-1.844,0.789-2.413
		c0.525-0.57,1.289-0.855,2.29-0.855c1,0,1.764,0.285,2.29,0.855c0.525,0.569,0.788,1.374,0.788,2.413v1.406h-1.976v-1.539
		c0-0.824-0.349-1.235-1.045-1.235c-0.696,0-1.045,0.411-1.045,1.235v7.429c0,0.811,0.349,1.216,1.045,1.216
		c0.697,0,1.045-0.405,1.045-1.216v-2.033h1.976v1.881c0,1.039-0.263,1.843-0.788,2.413c-0.526,0.57-1.289,0.855-2.29,0.855
		C55.79,46.872,55.026,46.587,54.501,46.017z"/>
	<path fill="#FFFFFF" d="M61.122,33.382h5.7v1.9h-3.61v3.515h2.869v1.899h-2.869v4.086h3.61v1.899h-5.7V33.382z"/>
	<path fill="#FFFFFF" d="M68.019,33.382h2.622l2.033,7.961h0.038v-7.961h1.862v13.3h-2.147l-2.508-9.709h-0.038v9.709h-1.862V33.382
		z"/>
	<path fill="#FFFFFF" d="M77.766,35.282h-2.185v-1.9h6.46v1.9h-2.185v11.399h-2.09V35.282z"/>
	<path fill="#FFFFFF" d="M83.048,33.382h5.7v1.9h-3.61v3.515h2.869v1.899h-2.869v4.086h3.61v1.899h-5.7V33.382z"/>
	<path fill="#FFFFFF" d="M89.945,33.382h3.097c1.077,0,1.862,0.25,2.356,0.75c0.494,0.501,0.741,1.271,0.741,2.309v0.817
		c0,1.38-0.456,2.255-1.368,2.622v0.037c0.506,0.152,0.865,0.463,1.074,0.932s0.313,1.096,0.313,1.881v2.337
		c0,0.38,0.012,0.688,0.038,0.922s0.089,0.466,0.19,0.693h-2.128c-0.076-0.216-0.126-0.418-0.152-0.608
		c-0.025-0.189-0.038-0.531-0.038-1.025v-2.432c0-0.608-0.098-1.033-0.294-1.273s-0.535-0.361-1.017-0.361h-0.722v5.7h-2.09V33.382z
		 M92.795,39.081c0.418,0,0.731-0.107,0.94-0.322s0.313-0.576,0.313-1.083v-1.026c0-0.48-0.085-0.829-0.256-1.045
		c-0.171-0.215-0.44-0.322-0.808-0.322h-0.95v3.799H92.795z"/>
	<path fill="#FFFFFF" d="M98.02,46.007c-0.52-0.576-0.779-1.402-0.779-2.479v-0.761h1.976v0.912c0,0.861,0.361,1.292,1.083,1.292
		c0.354,0,0.624-0.104,0.808-0.313c0.183-0.209,0.275-0.548,0.275-1.017c0-0.557-0.127-1.048-0.38-1.473
		c-0.254-0.424-0.722-0.934-1.406-1.529c-0.861-0.76-1.463-1.447-1.805-2.062c-0.342-0.614-0.513-1.308-0.513-2.081
		c0-1.051,0.266-1.864,0.798-2.441c0.532-0.576,1.305-0.864,2.318-0.864c1,0,1.758,0.288,2.271,0.864
		c0.513,0.577,0.77,1.403,0.77,2.48v0.551h-1.976v-0.684c0-0.457-0.089-0.789-0.266-0.998c-0.178-0.209-0.437-0.313-0.779-0.313
		c-0.697,0-1.045,0.425-1.045,1.272c0,0.482,0.13,0.932,0.39,1.35c0.259,0.418,0.731,0.924,1.416,1.52
		c0.874,0.76,1.476,1.451,1.805,2.071c0.33,0.62,0.494,1.349,0.494,2.185c0,1.09-0.269,1.926-0.808,2.508
		c-0.538,0.584-1.32,0.875-2.346,0.875C99.306,46.872,98.54,46.583,98.02,46.007z"/>
</g>
<g>
	<path fill-rule="evenodd" clip-rule="evenodd" fill="#627D53" d="M32.844,126.505c0.176-0.811,0.333-1.625,0.53-2.43
		c2.185-8.904,10.886-14.95,19.897-13.831c7.868,0.978,14.212,6.779,15.855,14.551c0.134,0.634,0.347,0.852,0.98,0.805
		c0.737-0.055,1.481-0.013,2.39-0.013c-0.191-0.357-0.312-0.608-0.456-0.848c-4.887-8.119-9.791-16.229-14.64-24.371
		c-0.45-0.756-1.002-0.684-1.642-0.688c-1.711-0.011-2.839-0.759-3.224-2.137c-0.517-1.854,0.764-3.703,2.747-3.752
		c3.13-0.076,6.265-0.062,9.396-0.006c1.657,0.03,2.886,1.364,2.892,2.94c0.006,1.629-1.23,2.859-2.963,2.952
		c-0.176,0.009-0.352,0.02-0.708,0.04c0.534,0.889,1.009,1.695,1.5,2.491c0.577,0.935,0.97,2.203,1.811,2.691
		c0.808,0.469,2.088,0.138,3.16,0.139c7.01,0.004,14.02-0.006,21.03,0.015c0.683,0.002,1.086-0.245,1.575-0.729
		c1.298-1.284,1.516-2.555,0.773-4.264c-0.863-1.986-1.419-4.106-2.088-6.175c-0.757-2.337,0.538-4.142,2.993-4.16
		c2.535-0.019,5.071-0.016,7.606,0c1.909,0.012,3.243,1.259,3.222,2.97c-0.021,1.683-1.326,2.896-3.185,2.929
		c-1.218,0.021-2.436,0.005-3.787,0.005c0.109,0.408,0.175,0.711,0.271,1.004c1.412,4.269,2.841,8.532,4.228,12.81
		c0.201,0.619,0.454,0.817,1.121,0.744c9.934-1.093,18.92,5.948,20.214,15.808c0.03,0.232,0.111,0.458,0.169,0.688
		c0,1.193,0,2.388,0,3.581c-0.054,0.165-0.137,0.327-0.159,0.497c-1.341,10.302-10.797,17.466-21.1,15.796
		c-7.022-1.139-11.945-5.18-14.378-11.847c-2.435-6.673-1.164-12.854,3.386-18.326c1.483-1.784,3.326-3.146,5.389-4.28
		c-0.318-0.966-0.622-1.889-0.969-2.942c-0.33,0.411-0.588,0.728-0.84,1.05c-5.129,6.555-10.271,13.098-15.372,19.675
		c-0.888,1.146-1.94,1.654-3.373,1.622c-2.296-0.051-4.595-0.015-6.892-0.012c-0.317,0.001-0.634,0.027-0.93,0.04
		c-0.074,0.331-0.125,0.564-0.178,0.796c-1.94,8.603-9.184,14.414-18.042,14.475c-8.313,0.057-15.754-5.891-17.747-14.19
		c-0.173-0.72-0.31-1.449-0.463-2.174C32.844,129.131,32.844,127.817,32.844,126.505z M99.578,117.88
		c-5.284,2.996-7.391,10.054-4.793,15.733c2.705,5.914,9.498,8.759,15.602,6.533c6.071-2.213,9.506-8.731,7.803-14.938
		c-1.945-7.086-8.633-9.75-12.946-9.136c0.358,1.112,0.67,2.226,1.093,3.296c0.115,0.292,0.545,0.609,0.865,0.649
		c4.88,0.613,8.169,5.129,7.294,10.072c-0.826,4.671-5.617,7.799-10.267,6.659c-3.258-0.798-5.417-2.851-6.288-6.076
		c-0.872-3.231,0.006-6.059,2.382-8.426c0.21-0.21,0.45-0.607,0.387-0.839C100.392,120.233,99.976,119.086,99.578,117.88z
		 M63.208,125.586c-1.055-5.901-7.302-10.196-13.594-9.442c-6.408,0.768-11.186,6.53-10.844,13.078
		c0.337,6.449,5.814,11.656,12.31,11.704c5.706,0.042,11.682-4.604,12.047-9.414c-1.015,0-2.029,0.043-3.037-0.015
		c-0.764-0.044-1.183,0.158-1.559,0.912c-1.586,3.18-4.993,4.937-8.518,4.521c-3.517-0.415-6.403-2.945-7.265-6.369
		c-0.861-3.42,0.487-7.018,3.392-9.055c4.321-3.029,10.282-1.428,12.603,3.368c0.14,0.288,0.476,0.663,0.74,0.679
		C60.7,125.627,61.923,125.586,63.208,125.586z M78.105,123.295c3.216-4.118,6.368-8.154,9.595-12.286c-5.743,0-11.294,0-16.995,0
		C73.191,115.137,75.611,119.154,78.105,123.295z"/>
</g>
</svg>
