<?xml version="1.0" encoding="utf-8"?>
<!-- Generator: Adobe Illustrator 16.0.0, SVG Export Plug-In . SVG Version: 6.00 Build 0)  -->
<!DOCTYPE svg PUBLIC "-//W3C//DTD SVG 1.1//EN" "http://www.w3.org/Graphics/SVG/1.1/DTD/svg11.dtd">
<svg version="1.1" id="Layer_1" xmlns="http://www.w3.org/2000/svg" xmlns:xlink="http://www.w3.org/1999/xlink" x="0px" y="0px"
	 width="157px" height="179px" viewBox="0 0 157 179" enable-background="new 0 0 157 179" xml:space="preserve">
<rect x="1.5" y="1" fill-rule="evenodd" clip-rule="evenodd" fill="#FFFFFF" stroke="#627D53" stroke-width="2" stroke-miterlimit="10" width="155" height="177"/>
<rect x="1.5" fill-rule="evenodd" clip-rule="evenodd" fill="#627D53" width="155" height="56"/>
<g>
	<path fill="#FFFFFF" d="M31.59,36.207c-0.52-0.576-0.779-1.402-0.779-2.479v-0.761h1.976v0.912c0,0.861,0.361,1.292,1.083,1.292
		c0.354,0,0.624-0.104,0.808-0.313c0.183-0.209,0.275-0.548,0.275-1.017c0-0.557-0.127-1.048-0.38-1.473
		c-0.254-0.424-0.722-0.934-1.406-1.529c-0.861-0.76-1.463-1.447-1.805-2.062c-0.342-0.614-0.513-1.308-0.513-2.081
		c0-1.051,0.266-1.864,0.798-2.441c0.532-0.576,1.305-0.864,2.318-0.864c1,0,1.758,0.288,2.271,0.864
		c0.513,0.577,0.77,1.403,0.77,2.48v0.551h-1.976v-0.684c0-0.457-0.089-0.789-0.266-0.998c-0.178-0.209-0.437-0.313-0.779-0.313
		c-0.697,0-1.045,0.425-1.045,1.272c0,0.482,0.13,0.932,0.39,1.35c0.259,0.418,0.731,0.924,1.416,1.52
		c0.874,0.76,1.476,1.451,1.805,2.071c0.33,0.62,0.494,1.349,0.494,2.185c0,1.09-0.269,1.926-0.808,2.508
		c-0.538,0.584-1.32,0.875-2.346,0.875C32.875,37.072,32.109,36.783,31.59,36.207z"/>
	<path fill="#FFFFFF" d="M39.798,23.582h2.831l2.166,13.3h-2.09l-0.38-2.642v0.039H39.95l-0.38,2.603h-1.938L39.798,23.582z
		 M42.078,32.474L41.147,25.9h-0.038l-0.912,6.573H42.078z"/>
	<path fill="#FFFFFF" d="M45.802,23.582h2.09v13.3h-2.09V23.582z"/>
	<path fill="#FFFFFF" d="M49.45,23.582h2.09v11.4h3.439v1.899H49.45V23.582z"/>
	<path fill="#FFFFFF" d="M55.986,23.582h2.09v13.3h-2.09V23.582z"/>
	<path fill="#FFFFFF" d="M59.634,23.582h2.622l2.033,7.961h0.038v-7.961h1.862v13.3h-2.147l-2.508-9.709h-0.038v9.709h-1.862V23.582
		z"/>
	<path fill="#FFFFFF" d="M68.393,36.207c-0.532-0.576-0.798-1.402-0.798-2.479v-6.992c0-1.077,0.266-1.903,0.798-2.48
		c0.532-0.576,1.305-0.864,2.318-0.864c1.013,0,1.786,0.288,2.318,0.864c0.532,0.577,0.798,1.403,0.798,2.48v1.14h-1.976v-1.272
		c0-0.875-0.361-1.312-1.083-1.312c-0.722,0-1.083,0.437-1.083,1.312v7.276c0,0.861,0.361,1.292,1.083,1.292
		c0.722,0,1.083-0.431,1.083-1.292v-2.603h-1.045v-1.9h3.021v4.352c0,1.076-0.266,1.902-0.798,2.479
		c-0.532,0.576-1.305,0.865-2.318,0.865C69.697,37.072,68.925,36.783,68.393,36.207z"/>
	<path fill="#FFFFFF" d="M78.633,36.207c-0.52-0.576-0.779-1.402-0.779-2.479v-0.761h1.976v0.912c0,0.861,0.361,1.292,1.083,1.292
		c0.354,0,0.624-0.104,0.808-0.313c0.183-0.209,0.275-0.548,0.275-1.017c0-0.557-0.127-1.048-0.38-1.473
		c-0.254-0.424-0.722-0.934-1.406-1.529c-0.861-0.76-1.463-1.447-1.805-2.062c-0.342-0.614-0.513-1.308-0.513-2.081
		c0-1.051,0.266-1.864,0.798-2.441c0.532-0.576,1.305-0.864,2.318-0.864c1,0,1.758,0.288,2.271,0.864
		c0.513,0.577,0.77,1.403,0.77,2.48v0.551h-1.976v-0.684c0-0.457-0.089-0.789-0.266-0.998c-0.178-0.209-0.437-0.313-0.779-0.313
		c-0.697,0-1.045,0.425-1.045,1.272c0,0.482,0.13,0.932,0.39,1.35c0.259,0.418,0.731,0.924,1.416,1.52
		c0.874,0.76,1.476,1.451,1.805,2.071c0.33,0.62,0.494,1.349,0.494,2.185c0,1.09-0.269,1.926-0.808,2.508
		c-0.538,0.584-1.32,0.875-2.346,0.875C79.918,37.072,79.152,36.783,78.633,36.207z"/>
	<path fill="#FFFFFF" d="M85.938,36.217c-0.526-0.57-0.789-1.374-0.789-2.413V26.66c0-1.039,0.263-1.844,0.789-2.413
		c0.525-0.57,1.289-0.855,2.29-0.855c1,0,1.764,0.285,2.29,0.855c0.525,0.569,0.788,1.374,0.788,2.413v1.406H89.33v-1.539
		c0-0.824-0.349-1.235-1.045-1.235c-0.696,0-1.045,0.411-1.045,1.235v7.429c0,0.811,0.349,1.216,1.045,1.216
		c0.697,0,1.045-0.405,1.045-1.216v-2.033h1.976v1.881c0,1.039-0.263,1.843-0.788,2.413c-0.526,0.57-1.289,0.855-2.29,0.855
		C87.227,37.072,86.464,36.787,85.938,36.217z"/>
	<path fill="#FFFFFF" d="M92.56,23.582h2.09v5.415h2.242v-5.415h2.09v13.3h-2.09v-5.985H94.65v5.985h-2.09V23.582z"/>
	<path fill="#FFFFFF" d="M101.205,36.197c-0.544-0.582-0.817-1.405-0.817-2.469v-6.992c0-1.064,0.272-1.888,0.817-2.471
		c0.544-0.582,1.33-0.874,2.356-0.874c1.026,0,1.812,0.292,2.356,0.874c0.545,0.583,0.817,1.406,0.817,2.471v6.992
		c0,1.063-0.272,1.887-0.817,2.469c-0.544,0.584-1.33,0.875-2.356,0.875C102.535,37.072,101.749,36.781,101.205,36.197z
		 M104.644,33.861v-7.258c0-0.875-0.361-1.312-1.083-1.312c-0.722,0-1.083,0.437-1.083,1.312v7.258c0,0.873,0.361,1.311,1.083,1.311
		C104.283,35.172,104.644,34.734,104.644,33.861z"/>
	<path fill="#FFFFFF" d="M108.805,36.197c-0.544-0.582-0.817-1.405-0.817-2.469v-6.992c0-1.064,0.272-1.888,0.817-2.471
		c0.544-0.582,1.33-0.874,2.356-0.874c1.026,0,1.812,0.292,2.356,0.874c0.545,0.583,0.817,1.406,0.817,2.471v6.992
		c0,1.063-0.272,1.887-0.817,2.469c-0.544,0.584-1.33,0.875-2.356,0.875C110.135,37.072,109.349,36.781,108.805,36.197z
		 M112.244,33.861v-7.258c0-0.875-0.361-1.312-1.083-1.312c-0.722,0-1.083,0.437-1.083,1.312v7.258c0,0.873,0.361,1.311,1.083,1.311
		C111.883,35.172,112.244,34.734,112.244,33.861z"/>
	<path fill="#FFFFFF" d="M115.74,23.582h2.09v11.4h3.439v1.899h-5.529V23.582z"/>
	<path fill="#FFFFFF" d="M122.694,36.207c-0.52-0.576-0.779-1.402-0.779-2.479v-0.761h1.976v0.912c0,0.861,0.361,1.292,1.083,1.292
		c0.354,0,0.624-0.104,0.808-0.313c0.183-0.209,0.275-0.548,0.275-1.017c0-0.557-0.127-1.048-0.38-1.473
		c-0.254-0.424-0.722-0.934-1.406-1.529c-0.861-0.76-1.463-1.447-1.805-2.062c-0.342-0.614-0.513-1.308-0.513-2.081
		c0-1.051,0.266-1.864,0.798-2.441c0.532-0.576,1.305-0.864,2.318-0.864c1,0,1.758,0.288,2.271,0.864
		c0.513,0.577,0.77,1.403,0.77,2.48v0.551h-1.976v-0.684c0-0.457-0.089-0.789-0.266-0.998c-0.178-0.209-0.437-0.313-0.779-0.313
		c-0.697,0-1.045,0.425-1.045,1.272c0,0.482,0.13,0.932,0.39,1.35c0.259,0.418,0.731,0.924,1.416,1.52
		c0.874,0.76,1.476,1.451,1.805,2.071c0.33,0.62,0.494,1.349,0.494,2.185c0,1.09-0.269,1.926-0.808,2.508
		c-0.538,0.584-1.32,0.875-2.346,0.875C123.979,37.072,123.213,36.783,122.694,36.207z"/>
</g>
<g>
	<path fill-rule="evenodd" clip-rule="evenodd" fill="#627D53" d="M46.378,133.625c0.597-1.035,1.324-1.348,2.632-1.195
		c2.928,0.339,5.852,0.716,8.786,0.973c5.384,0.469,10.784,0.529,16.175,0.26c4.55-0.228,9.097-0.588,13.629-1.05
		c6.448-0.659,12.822-1.815,19.157-3.187c0.707-0.152,1.455-0.296,2.161-0.223c1.312,0.139,1.967,1.166,1.602,2.439
		c-0.667,2.319-1.976,4.272-3.656,5.979c-2.865,2.91-6.417,4.618-10.269,5.771c-3.014,0.903-6.106,1.401-9.238,1.649
		c-6.218,0.49-12.411,0.161-18.589-0.596c-4.095-0.501-8.128-1.286-12.028-2.659c-2.835-0.998-5.522-2.278-7.818-4.271
		c-1.033-0.898-1.915-1.916-2.544-3.14C46.378,134.127,46.378,133.876,46.378,133.625z"/>
	<path fill-rule="evenodd" clip-rule="evenodd" fill="#627D53" d="M78.138,120.232c-0.007-10.466-2.419-20.401-6.714-29.909
		c-0.602-1.332-1.273-2.631-1.894-3.955c-0.266-0.567-0.603-1.208-0.106-1.762c0.498-0.556,1.173-0.287,1.764-0.08
		c9.252,3.225,17.274,8.285,23.512,15.939c5.083,6.236,8.384,13.332,10.029,21.209c0.503,2.414-1.136,4.689-3.267,5.225
		c-4.39,1.103-8.841,1.583-13.342,1.706c-2.257,0.061-4.517,0.02-6.776-0.005c-1.936-0.022-3.3-1.406-3.311-3.353
		c-0.005-0.835,0.083-1.67,0.102-2.507C78.153,121.906,78.138,121.069,78.138,120.232z"/>
	<path fill-rule="evenodd" clip-rule="evenodd" fill="#627D53" d="M62.751,130.106c-1.506,0-3.012,0.012-4.518-0.004
		c-0.754-0.009-1.593,0.013-1.97-0.8c-0.364-0.784,0.195-1.391,0.632-1.976c2.745-3.663,5.556-7.277,8.226-10.992
		c2.404-3.345,4.47-6.908,6.256-10.628c0.207-0.432,0.435-0.863,0.723-1.242c0.473-0.62,1.024-0.566,1.249,0.172
		c0.291,0.952,0.474,1.945,0.629,2.932c0.563,3.581,0.808,7.186,0.635,10.812c-0.127,2.664-0.596,5.258-1.498,7.783
		c-0.819,2.296-2.557,3.354-4.791,3.821c-0.426,0.09-0.872,0.112-1.308,0.117C65.595,130.115,64.172,130.106,62.751,130.106z"/>
</g>
</svg>
