<?xml version="1.0" encoding="utf-8"?>
<!-- Generator: Adobe Illustrator 16.0.0, SVG Export Plug-In . SVG Version: 6.00 Build 0)  -->
<!DOCTYPE svg PUBLIC "-//W3C//DTD SVG 1.1//EN" "http://www.w3.org/Graphics/SVG/1.1/DTD/svg11.dtd">
<svg version="1.1" id="Layer_1" xmlns="http://www.w3.org/2000/svg" xmlns:xlink="http://www.w3.org/1999/xlink" x="0px" y="0px"
	 width="134.023px" height="152.98px" viewBox="0 0 134.023 152.98" enable-background="new 0 0 134.023 152.98"
	 xml:space="preserve">
<rect x="1.21" y="1.253" fill-rule="evenodd" clip-rule="evenodd" fill="#FFFFFF" width="131.962" height="150.692"/>
<rect x="1.21" y="1.253" fill="none" stroke="#235F30" stroke-width="2" stroke-miterlimit="10" width="131.962" height="150.692"/>
<rect x="2.061" y="2.042" fill-rule="evenodd" clip-rule="evenodd" fill="#235F30" width="131.962" height="47.677"/>
<g>
	<path fill="#FFFFFF" d="M32.398,20.015c-0.077-0.153-0.207-0.23-0.391-0.23c-0.138,0-0.253,0.046-0.345,0.138
		c-0.123,0.107-0.2,0.28-0.23,0.518c-0.031,0.238-0.035,0.491-0.012,0.759c0.023,0.269,0.073,0.533,0.149,0.793
		c0.077,0.261,0.161,0.468,0.253,0.621c0.199,0.276,0.456,0.544,0.771,0.805s0.648,0.529,1,0.805
		c0.353,0.276,0.698,0.579,1.035,0.909c0.337,0.33,0.621,0.709,0.851,1.139c0.322,0.552,0.521,1.2,0.598,1.943
		c0.076,0.744,0.019,1.464-0.173,2.162s-0.537,1.307-1.035,1.829c-0.499,0.521-1.162,0.843-1.99,0.966
		c-0.153,0.016-0.303,0.026-0.448,0.035c-0.146,0.007-0.303,0.011-0.472,0.011c-0.905,0-1.633-0.149-2.185-0.448
		c-0.552-0.299-0.974-0.705-1.265-1.219c-0.292-0.514-0.487-1.119-0.586-1.817s-0.157-1.438-0.172-2.22h3.542
		c0.015,0.246,0.023,0.518,0.023,0.817c0,0.299,0.015,0.579,0.046,0.839s0.088,0.479,0.173,0.655
		c0.084,0.177,0.218,0.265,0.402,0.265c0.214,0,0.356-0.084,0.425-0.253c0.069-0.168,0.104-0.498,0.104-0.989
		c0-0.276-0.015-0.521-0.046-0.736c-0.031-0.214-0.107-0.425-0.23-0.632c-0.123-0.207-0.307-0.426-0.552-0.656
		s-0.575-0.498-0.989-0.805c-0.491-0.368-0.905-0.717-1.242-1.047c-0.337-0.33-0.613-0.682-0.828-1.058
		c-0.215-0.376-0.372-0.794-0.472-1.254c-0.1-0.46-0.149-0.989-0.149-1.587c0.015-1.426,0.337-2.515,0.966-3.266
		c0.628-0.751,1.656-1.127,3.082-1.127c1.027,0,1.855,0.246,2.484,0.736c0.46,0.353,0.801,0.793,1.024,1.322
		c0.222,0.529,0.379,1.046,0.471,1.553c0.092,0.506,0.138,0.943,0.138,1.311c0,0.368,0,0.567,0,0.598h-3.496
		c-0.046-0.613-0.069-1.081-0.069-1.403C32.559,20.475,32.505,20.215,32.398,20.015z"/>
	<path fill="#FFFFFF" d="M44.91,30.733c-0.261,0.828-0.682,1.46-1.265,1.897c-0.583,0.437-1.334,0.655-2.254,0.655
		c-0.215,0-0.399-0.019-0.552-0.057c-0.153-0.038-0.269-0.073-0.345-0.104v4.255h-2.783c0-0.215,0-0.376,0-0.483
		c0-0.107,0-0.295,0-0.563c0-0.269,0-0.675,0-1.219c0-0.544,0-1.361,0-2.449c0-1.089-0.004-2.515-0.012-4.278
		c-0.008-1.763-0.011-3.994-0.011-6.693h2.438v0.368c0.168-0.169,0.379-0.284,0.632-0.345c0.253-0.061,0.51-0.092,0.771-0.092
		c0.307,0,0.602,0.027,0.886,0.081c0.283,0.054,0.502,0.111,0.655,0.172c0.46,0.169,0.828,0.445,1.104,0.828
		s0.483,0.828,0.621,1.334c0.138,0.506,0.222,1.05,0.253,1.633c0.03,0.583,0.038,1.15,0.023,1.702
		c-0.031,0.659-0.039,1.296-0.023,1.909C45.063,29.898,45.017,30.381,44.91,30.733z M42.357,27.444c0-0.537-0.004-1-0.012-1.392
		s-0.039-0.713-0.092-0.966c-0.054-0.253-0.142-0.437-0.265-0.552c-0.123-0.115-0.299-0.172-0.529-0.172
		c-0.368,0.016-0.602,0.088-0.702,0.219c-0.1,0.13-0.165,0.295-0.195,0.494c0,1.166-0.004,2.101-0.012,2.806
		c-0.008,0.706,0.008,1.25,0.046,1.633c0.038,0.384,0.115,0.641,0.23,0.771c0.115,0.131,0.295,0.196,0.541,0.196h0.092
		c0.26-0.015,0.452-0.111,0.575-0.288s0.207-0.406,0.253-0.69c0.046-0.284,0.069-0.602,0.069-0.955
		C42.357,28.196,42.357,27.828,42.357,27.444z"/>
	<path fill="#FFFFFF" d="M53.995,27.353c0,0.644-0.02,1.284-0.058,1.92c-0.039,0.636-0.138,1.219-0.299,1.748
		c-0.161,0.529-0.407,0.985-0.736,1.368c-0.33,0.384-0.786,0.652-1.368,0.805c-0.123,0.031-0.28,0.054-0.472,0.069
		c-0.192,0.015-0.395,0.023-0.609,0.023c-0.215,0-0.426-0.008-0.633-0.023s-0.372-0.038-0.494-0.069
		c-0.675-0.168-1.192-0.425-1.553-0.771s-0.617-0.755-0.771-1.23c-0.153-0.475-0.241-1-0.265-1.576
		c-0.023-0.575-0.042-1.185-0.057-1.828c-0.016-0.751-0.008-1.495,0.023-2.231c0.03-0.736,0.157-1.399,0.379-1.989
		c0.222-0.59,0.59-1.065,1.104-1.426c0.514-0.36,1.246-0.541,2.196-0.541c0.767,0,1.388,0.104,1.863,0.31
		c0.475,0.207,0.843,0.541,1.104,1.001c0.26,0.46,0.433,1.054,0.518,1.782C53.952,25.424,53.995,26.31,53.995,27.353z M49.44,25.006
		c0,1.012-0.008,1.863-0.023,2.553c-0.016,0.69-0.004,1.242,0.035,1.656c0.038,0.414,0.123,0.709,0.253,0.886
		c0.13,0.176,0.341,0.264,0.632,0.264c0.276,0,0.495-0.096,0.656-0.288c0.161-0.191,0.241-0.502,0.241-0.931v-3.657
		c0-0.521-0.081-0.858-0.241-1.012c-0.161-0.153-0.388-0.23-0.679-0.23c-0.337,0-0.563,0.073-0.678,0.218
		C49.521,24.612,49.456,24.792,49.44,25.006z"/>
	<path fill="#FFFFFF" d="M62.55,23.097c0,0.062-0.092,0.188-0.276,0.38s-0.399,0.395-0.644,0.609
		c-0.246,0.215-0.476,0.406-0.69,0.575c-0.215,0.169-0.36,0.253-0.437,0.253c-0.153,0-0.307-0.123-0.46-0.368
		c-0.077-0.123-0.177-0.245-0.299-0.368c-0.123-0.123-0.284-0.184-0.483-0.184c-0.429,0-0.659,0.2-0.69,0.598
		c0,0.2-0.004,0.537-0.011,1.012c-0.008,0.475-0.012,1.016-0.012,1.622c0,0.605,0,1.238,0,1.897s0,1.276,0,1.851
		c0,0.575,0,1.066,0,1.472c0,0.407,0,0.656,0,0.748h-2.806c0-0.107,0-0.191,0-0.253c0-0.061-0.004-0.188-0.011-0.379
		c-0.008-0.192-0.012-0.495-0.012-0.909s0-1.031,0-1.852c0-0.82,0-1.882,0-3.186c0-1.303,0-2.944,0-4.922h2.737v0.621
		c0.26-0.215,0.563-0.387,0.908-0.518c0.345-0.13,0.686-0.195,1.023-0.195c0.184,0,0.36,0.019,0.529,0.057
		c0.168,0.039,0.322,0.104,0.46,0.196c0.123,0.077,0.249,0.172,0.379,0.288c0.13,0.115,0.256,0.23,0.379,0.345
		c0.123,0.115,0.222,0.227,0.299,0.333C62.512,22.929,62.55,23.021,62.55,23.097z"/>
	<path fill="#FFFFFF" d="M67.242,21.717c0.23,0,0.402,0.004,0.517,0.012c0.115,0.008,0.196,0.054,0.242,0.138
		c0.046,0.084,0.069,0.219,0.069,0.403c0,0.184,0,0.46,0,0.828v1.127c-0.015,0.108-0.057,0.177-0.126,0.207
		c-0.069,0.031-0.257,0.046-0.563,0.046h-0.759c0,1.38,0,2.453,0,3.22c0,0.767,0.003,1.342,0.011,1.725s0.023,0.629,0.046,0.736
		c0.023,0.107,0.057,0.184,0.104,0.23c0.046,0.077,0.199,0.115,0.46,0.115h0.115c0.077-0.015,0.146-0.023,0.207-0.023
		c0.061,0,0.115,0,0.161,0c0.184,0,0.288,0.081,0.311,0.241c0.023,0.161,0.034,0.525,0.034,1.093c0,0.353-0.004,0.625-0.011,0.816
		c-0.008,0.192-0.027,0.326-0.058,0.402c-0.031,0.077-0.088,0.123-0.172,0.138c-0.084,0.016-0.204,0.023-0.356,0.023
		c-0.292,0-0.598-0.007-0.92-0.023c-0.322-0.015-0.632-0.065-0.931-0.149c-0.299-0.084-0.575-0.215-0.828-0.391
		s-0.464-0.433-0.632-0.771c-0.23-0.46-0.342-1.334-0.333-2.622c0.007-1.288,0.019-2.875,0.034-4.761h-0.23h-0.138
		c-0.169,0-0.295-0.012-0.38-0.035s-0.146-0.081-0.184-0.172c-0.039-0.092-0.062-0.242-0.069-0.449s-0.011-0.495-0.011-0.862
		c0-0.337,0.003-0.59,0.011-0.759c0.008-0.168,0.042-0.288,0.104-0.356c0.061-0.069,0.161-0.107,0.299-0.115
		c0.138-0.008,0.337-0.019,0.598-0.035c0-0.398-0.004-0.728-0.011-0.989c-0.008-0.261-0.008-0.468,0-0.621
		c0.007-0.153,0.03-0.257,0.069-0.311c0.038-0.054,0.096-0.081,0.172-0.081h1.196h0.598c0.215,0,0.372,0.008,0.472,0.023
		c0.1,0.016,0.168,0.062,0.207,0.138c0.038,0.077,0.058,0.188,0.058,0.333c0,0.146,0,0.349,0,0.609v0.897L67.242,21.717z"/>
	<path fill="#FFFFFF" d="M83.227,27.674c-0.015,0.813-0.103,1.557-0.264,2.231c-0.161,0.675-0.418,1.257-0.771,1.748
		c-0.353,0.491-0.828,0.874-1.426,1.15c-0.598,0.276-1.342,0.414-2.231,0.414c-1.043,0-1.867-0.153-2.472-0.46
		c-0.606-0.307-1.062-0.744-1.369-1.311c-0.307-0.567-0.51-1.265-0.609-2.093c-0.1-0.828-0.173-1.756-0.219-2.783
		c-0.015-0.291-0.02-0.67-0.011-1.139c0.007-0.467,0.023-0.946,0.046-1.438c0.023-0.49,0.046-0.966,0.069-1.426
		s0.05-0.828,0.081-1.104c0.077-0.797,0.21-1.495,0.402-2.093c0.192-0.598,0.464-1.096,0.817-1.495
		c0.353-0.398,0.805-0.698,1.357-0.897c0.552-0.199,1.227-0.299,2.024-0.299c0.858,0,1.583,0.146,2.173,0.437
		c0.59,0.292,1.069,0.69,1.438,1.196c0.368,0.506,0.628,1.096,0.782,1.771c0.153,0.675,0.214,1.396,0.184,2.162h-3.542l-0.023-0.506
		c-0.046-0.705-0.149-1.204-0.311-1.495c-0.161-0.291-0.425-0.437-0.793-0.437h-0.046c-0.353,0.016-0.598,0.181-0.736,0.495
		c-0.138,0.314-0.238,0.894-0.299,1.737c-0.015,0.138-0.027,0.364-0.034,0.678c-0.008,0.314-0.012,0.671-0.012,1.069
		c0,0.399,0,0.813,0,1.242c0,0.43,0,0.839,0,1.23s0.004,0.744,0.012,1.058c0.007,0.314,0.019,0.541,0.034,0.678
		c0.046,0.828,0.142,1.384,0.288,1.668c0.146,0.284,0.395,0.433,0.748,0.448c0.368,0,0.633-0.134,0.793-0.402
		c0.161-0.268,0.272-0.732,0.333-1.392l0.046-0.644H83.227z"/>
	<path fill="#FFFFFF" d="M87.481,17.301v15.893H86.86h-2.185V17.301H87.481z"/>
	<path fill="#FFFFFF" d="M94.013,32.918c-0.276,0.138-0.567,0.234-0.874,0.288c-0.307,0.053-0.583,0.08-0.828,0.08
		c-0.307,0-0.529-0.023-0.667-0.069c-0.721-0.199-1.254-0.506-1.599-0.92c-0.345-0.414-0.579-0.928-0.702-1.541
		s-0.176-1.314-0.161-2.104c0.015-0.79,0.023-1.652,0.023-2.587c0-0.276,0-0.621,0-1.035s0.003-0.835,0.011-1.265
		c0.008-0.429,0.012-0.832,0.012-1.208c0-0.375,0-0.663,0-0.862h2.714c0,1.35,0,2.458,0,3.324s0,1.575,0,2.127
		c0,0.552,0,0.993,0,1.322c0,0.33,0,0.632,0,0.909c0,0.399,0.084,0.675,0.253,0.828c0.168,0.154,0.445,0.23,0.828,0.23
		c0.322-0.046,0.544-0.176,0.667-0.391c0.015-0.046,0.026-0.1,0.035-0.161c0.007-0.061,0.015-0.184,0.023-0.368
		c0.007-0.184,0.011-0.448,0.011-0.793c0-0.345,0.004-0.824,0.012-1.438c0.007-0.613,0.015-1.372,0.023-2.277
		c0.007-0.905,0.011-2.009,0.011-3.312h2.783c0,1.825,0.003,3.668,0.012,5.532c0.007,1.863,0.011,3.852,0.011,5.968h-2.599V32.918z"
		/>
	<path fill="#FFFFFF" d="M105.766,27.56c0,0.506,0.004,1.012,0.012,1.518c0.007,0.506-0.035,0.989-0.126,1.449
		c-0.092,0.46-0.253,0.894-0.483,1.299c-0.23,0.407-0.591,0.771-1.081,1.093c-0.215,0.123-0.453,0.218-0.713,0.288
		c-0.261,0.069-0.529,0.104-0.805,0.104c-0.307,0-0.606-0.05-0.897-0.15c-0.292-0.1-0.544-0.272-0.759-0.517v0.552h-2.438
		c0-0.107,0-0.245,0-0.414c0-0.168-0.004-0.444-0.011-0.828c-0.008-0.383-0.012-0.912-0.012-1.587c0-0.674-0.004-1.575-0.011-2.703
		c-0.008-1.127-0.012-2.514-0.012-4.163s0-3.63,0-5.946h2.829v4.324c0.537-0.184,1.027-0.276,1.472-0.276
		c0.813,0,1.487,0.245,2.024,0.736c0.537,0.491,0.843,1.158,0.92,2.001c0,0.077,0.007,0.161,0.023,0.253
		c0.015,0.092,0.026,0.246,0.035,0.46c0.007,0.215,0.015,0.518,0.023,0.909C105.762,26.352,105.766,26.885,105.766,27.56z
		 M103.006,29.768c0-1.027,0.007-1.886,0.023-2.576c0.015-0.69,0.003-1.242-0.035-1.656s-0.123-0.705-0.253-0.874
		c-0.13-0.168-0.349-0.253-0.655-0.253c-0.246,0-0.426,0.042-0.541,0.126c-0.115,0.084-0.196,0.23-0.242,0.437
		s-0.069,0.491-0.069,0.851c0,0.36,0,0.816,0,1.369c-0.016,1.089,0.011,1.917,0.081,2.484c0.069,0.567,0.318,0.851,0.748,0.851
		c0.276,0,0.494-0.054,0.655-0.161C102.88,30.258,102.976,30.059,103.006,29.768z"/>
	<path fill="#FFFFFF" d="M112.827,25.167h-0.322c-0.261,0-0.46-0.004-0.598-0.012c-0.138-0.007-0.241-0.026-0.311-0.058
		c-0.069-0.03-0.123-0.076-0.161-0.138c-0.038-0.061-0.08-0.146-0.126-0.253c-0.077-0.169-0.168-0.288-0.276-0.356
		c-0.107-0.069-0.261-0.104-0.46-0.104c-0.246,0-0.453,0.077-0.621,0.23c-0.169,0.153-0.253,0.375-0.253,0.667
		c0,0.276,0.061,0.471,0.184,0.586c0.123,0.115,0.288,0.192,0.495,0.23c0.207,0.039,0.44,0.062,0.701,0.069
		c0.261,0.008,0.521,0.05,0.782,0.126c0.583,0.138,1.054,0.388,1.415,0.748c0.36,0.36,0.625,0.778,0.793,1.253
		c0.168,0.476,0.241,0.978,0.218,1.507c-0.023,0.529-0.134,1.031-0.333,1.506c-0.199,0.476-0.487,0.894-0.862,1.253
		c-0.376,0.36-0.832,0.609-1.369,0.748c-0.307,0.077-0.69,0.115-1.15,0.115c-0.184,0-0.368-0.008-0.552-0.023
		c-0.184-0.015-0.353-0.046-0.506-0.092c-0.506-0.138-0.935-0.379-1.288-0.725c-0.353-0.345-0.629-0.705-0.828-1.081
		c-0.2-0.375-0.322-0.725-0.368-1.046s-0.023-0.529,0.069-0.621l0.115-0.115c0.659,0.015,1.223,0.023,1.69,0.023
		s0.725,0.015,0.771,0.046c0.107,0.107,0.184,0.234,0.23,0.379c0.046,0.146,0.161,0.272,0.345,0.379
		c0.107,0.062,0.237,0.092,0.391,0.092s0.303-0.042,0.449-0.126c0.146-0.084,0.256-0.211,0.333-0.379
		c0.077-0.123,0.115-0.276,0.115-0.46c0-0.184-0.038-0.329-0.115-0.437c-0.153-0.184-0.349-0.291-0.586-0.322
		c-0.238-0.031-0.514-0.061-0.828-0.092c-0.314-0.031-0.652-0.104-1.012-0.219c-0.36-0.115-0.732-0.364-1.115-0.748
		c-0.353-0.353-0.602-0.713-0.748-1.081c-0.146-0.368-0.218-0.828-0.218-1.38c0-0.567,0.092-1.084,0.276-1.552
		s0.44-0.866,0.771-1.196c0.33-0.33,0.72-0.586,1.173-0.771c0.452-0.184,0.955-0.276,1.506-0.276c0.874,0,1.622,0.246,2.243,0.736
		c0.621,0.491,1.039,1.166,1.253,2.024c0.123,0.43,0.134,0.694,0.035,0.794c-0.1,0.1-0.303,0.149-0.609,0.149H112.827z"/>
</g>
<polyline fill-rule="evenodd" clip-rule="evenodd" fill="#FFFFFF" points="1.118,49.593 1.118,152.232 133.118,152.232 
	133.118,49.593 "/>
<polyline fill="none" stroke="#010101" stroke-width="2" stroke-miterlimit="10" points="1.118,49.593 1.118,152.232 
	133.118,152.232 133.118,49.593 "/>
<path fill-rule="evenodd" clip-rule="evenodd" fill="#010101" d="M61.524,99.368c0.95,3.136,0.039,5.306-3.183,6.409
	c-4.012,1.373-5.188,4.393-4.651,8.338c0.505,3.721,2.87,5.347,6.521,5.451v20.065c-3.846-1.417-7.758-1.992-10.524-4.083
	c-4.125-3.117-8.205-6.818-10.963-11.128c-9.793-15.304-12.585-32.765-14.544-50.099c7.125-1.36,13.948-2.329,20.584-4.024
	c6.789-1.735,12.733-5.189,16.931-11.387c9.645,12.095,23.164,13.823,37.763,14.87c-1.197,7.169-2.372,14.21-3.747,22.445
	c-6.606-7.034-12.372-3.965-18.121-0.374c-3.707,2.32-7.664,3.576-12.127,3.093c-1.303-0.141-2.672,0.328-4.005,0.509
	c0.006-12.46,0.006-24.911,0.006-37.843c-9.482,11.041-22.317,11.943-35.495,13.497c1.364,8.117,2.675,15.927,4,23.805
	c5.683,0,10.576-0.058,15.464,0.018C50.798,99.011,56.161,99.219,61.524,99.368"/>
<path fill-rule="evenodd" clip-rule="evenodd" fill="#010101" d="M87.035,141.307c-6.532,0.002-13.068-0.085-19.598,0.038
	c-3.091,0.058-4.282-1.191-4.217-4.252c0.124-5.902-0.1-11.814,0.136-17.709c0.051-1.256,1.159-2.985,2.275-3.597
	c6.379-3.502,12.867-6.812,19.421-9.974c1.122-0.542,2.959-0.527,4.087,0.016c6.554,3.16,13.037,6.475,19.431,9.945
	c1.052,0.571,2.155,2.148,2.197,3.297c0.216,6.149,0.054,12.31,0.124,18.467c0.031,2.743-1.187,3.823-3.881,3.792
	C100.353,141.253,93.692,141.305,87.035,141.307 M95.869,131.127c0-1.758-0.116-3.525,0.024-5.271
	c0.26-3.201-1.032-4.669-4.315-4.523c-3.007,0.131-6.029,0.125-9.037,0.011c-3.261-0.123-4.559,1.316-4.314,4.539
	c0.172,2.246,0.032,4.517,0.032,6.779c0.003,7.893,0.003,7.908,8.068,7.891C96.94,140.53,95.824,141.568,95.869,131.127"/>
<path fill-rule="evenodd" clip-rule="evenodd" fill="#010101" d="M117.594,111.311c0,5.111-1.371,5.944-4.911,4.139
	c-7.714-3.94-15.439-7.858-23.084-11.926c-1.871-0.997-3.306-0.943-5.151,0.039c-7.538,4.008-15.157,7.857-22.753,11.753
	c-1.652,0.85-3.645,2.3-4.726-0.345c-0.886-2.175-1.258-4.69,1.633-6.16c6.489-3.3,13.3-6.132,19.325-10.137
	c6.527-4.338,12.012-4.022,18.42,0.122c5.875,3.8,12.47,6.476,18.65,9.831C116.29,109.33,117.15,110.833,117.594,111.311"/>
<path fill-rule="evenodd" clip-rule="evenodd" fill="#FFFFFF" d="M61.524,99.368c-5.363-0.149-10.726-0.357-16.091-0.438
	c-4.888-0.076-9.781-0.018-15.464-0.018c-1.325-7.878-2.636-15.688-4-23.805c13.178-1.554,26.013-2.456,35.495-13.497
	c0,12.932,0,25.383-0.006,37.843C61.452,99.461,61.524,99.368,61.524,99.368"/>
<path fill-rule="evenodd" clip-rule="evenodd" fill="#FFFFFF" d="M95.869,131.127c-0.045,10.441,1.072,9.403-9.542,9.426
	c-8.065,0.017-8.065,0.002-8.068-7.891c0-2.262,0.14-4.533-0.032-6.779c-0.245-3.223,1.053-4.662,4.314-4.539
	c3.008,0.114,6.03,0.12,9.037-0.011c3.283-0.146,4.575,1.322,4.315,4.523C95.752,127.602,95.869,129.369,95.869,131.127"/>
</svg>
