<?xml version="1.0" encoding="utf-8"?>
<!-- Generator: Adobe Illustrator 16.0.0, SVG Export Plug-In . SVG Version: 6.00 Build 0)  -->
<!DOCTYPE svg PUBLIC "-//W3C//DTD SVG 1.1//EN" "http://www.w3.org/Graphics/SVG/1.1/DTD/svg11.dtd">
<svg version="1.1" id="Layer_1" xmlns="http://www.w3.org/2000/svg" xmlns:xlink="http://www.w3.org/1999/xlink" x="0px" y="0px"
	 width="157px" height="179px" viewBox="0 0 157 179" enable-background="new 0 0 157 179" xml:space="preserve">
<rect x="0.975" y="1.766" fill-rule="evenodd" clip-rule="evenodd" fill="#FFFFFF" stroke="#627D53" stroke-width="2" stroke-miterlimit="10" width="155" height="177"/>
<rect x="1.975" y="-0.234" fill-rule="evenodd" clip-rule="evenodd" fill="#627D53" width="155" height="56"/>
<g>
	<path fill="#FFFFFF" d="M19.235,13.249h2.983l1.33,9.519h0.038l1.33-9.519h2.983v13.3h-1.976v-10.07h-0.038l-1.52,10.07h-1.748
		l-1.52-10.07h-0.038v10.07h-1.824V13.249z"/>
	<path fill="#FFFFFF" d="M29.457,13.249h2.09v13.3h-2.09V13.249z"/>
	<path fill="#FFFFFF" d="M34.948,19.747l-2.299-6.498h2.204l1.406,4.294h0.038l1.444-4.294h1.976l-2.299,6.498l2.413,6.802h-2.204
		l-1.52-4.637h-0.038l-1.558,4.637h-1.976L34.948,19.747z"/>
	<path fill="#FFFFFF" d="M40.818,13.249h5.7v1.899h-3.61v3.516h2.869v1.9h-2.869v4.084h3.61v1.9h-5.7V13.249z"/>
	<path fill="#FFFFFF" d="M47.715,13.249h3.192c1.038,0,1.817,0.278,2.337,0.836c0.519,0.558,0.779,1.374,0.779,2.45v6.727
		c0,1.076-0.26,1.895-0.779,2.451c-0.52,0.558-1.299,0.836-2.337,0.836h-3.192V13.249z M50.87,24.648
		c0.342,0,0.604-0.102,0.789-0.304c0.183-0.202,0.275-0.532,0.275-0.987v-6.916c0-0.457-0.092-0.785-0.275-0.988
		c-0.184-0.203-0.447-0.305-0.789-0.305h-1.064v9.5H50.87z"/>
	<path fill="#FFFFFF" d="M58.469,13.249h2.983l1.33,9.519h0.038l1.33-9.519h2.983v13.3h-1.976v-10.07h-0.038l-1.52,10.07h-1.748
		l-1.52-10.07h-0.038v10.07h-1.824V13.249z"/>
	<path fill="#FFFFFF" d="M70.306,13.249h2.831l2.166,13.3h-2.09l-0.38-2.641v0.037h-2.375l-0.38,2.604H68.14L70.306,13.249z
		 M72.585,22.141l-0.931-6.574h-0.038l-0.912,6.574H72.585z"/>
	<path fill="#FFFFFF" d="M76.309,13.249h3.097c1.077,0,1.862,0.25,2.356,0.751c0.494,0.5,0.741,1.27,0.741,2.308v0.817
		c0,1.381-0.456,2.254-1.368,2.622v0.038c0.506,0.152,0.865,0.463,1.074,0.931c0.209,0.469,0.313,1.096,0.313,1.881v2.337
		c0,0.381,0.012,0.688,0.038,0.922s0.089,0.465,0.19,0.693h-2.128c-0.076-0.215-0.126-0.418-0.152-0.607
		c-0.025-0.19-0.038-0.533-0.038-1.026v-2.433c0-0.607-0.098-1.031-0.294-1.272s-0.535-0.361-1.017-0.361h-0.722v5.7h-2.09V13.249z
		 M79.159,18.949c0.418,0,0.731-0.107,0.94-0.323s0.313-0.576,0.313-1.083v-1.026c0-0.481-0.085-0.829-0.256-1.045
		c-0.171-0.215-0.44-0.323-0.808-0.323h-0.95v3.801H79.159z"/>
	<path fill="#FFFFFF" d="M85.563,15.148h-2.185v-1.899h6.46v1.899h-2.185v11.4h-2.09V15.148z"/>
	<path fill="#FFFFFF" d="M90.844,13.249h2.09v13.3h-2.09V13.249z"/>
	<path fill="#FFFFFF" d="M96.107,13.249h2.831l2.166,13.3h-2.09l-0.38-2.641v0.037h-2.375l-0.38,2.604h-1.938L96.107,13.249z
		 M98.387,22.141l-0.931-6.574h-0.038l-0.912,6.574H98.387z"/>
	<path fill="#FFFFFF" d="M102.111,13.249h2.09v11.399h3.439v1.9h-5.529V13.249z"/>
	<path fill="#FFFFFF" d="M113.302,13.249h2.831l2.166,13.3h-2.09l-0.38-2.641v0.037h-2.375l-0.38,2.604h-1.938L113.302,13.249z
		 M115.582,22.141l-0.931-6.574h-0.038l-0.912,6.574H115.582z"/>
	<path fill="#FFFFFF" d="M119.305,13.249h3.097c1.077,0,1.862,0.25,2.356,0.751c0.494,0.5,0.741,1.27,0.741,2.308v0.817
		c0,1.381-0.456,2.254-1.368,2.622v0.038c0.506,0.152,0.865,0.463,1.074,0.931c0.209,0.469,0.313,1.096,0.313,1.881v2.337
		c0,0.381,0.012,0.688,0.038,0.922s0.089,0.465,0.19,0.693h-2.128c-0.076-0.215-0.126-0.418-0.152-0.607
		c-0.025-0.19-0.038-0.533-0.038-1.026v-2.433c0-0.607-0.098-1.031-0.294-1.272s-0.535-0.361-1.017-0.361h-0.722v5.7h-2.09V13.249z
		 M122.155,18.949c0.418,0,0.731-0.107,0.94-0.323s0.313-0.576,0.313-1.083v-1.026c0-0.481-0.085-0.829-0.256-1.045
		c-0.171-0.215-0.44-0.323-0.808-0.323h-0.95v3.801H122.155z"/>
	<path fill="#FFFFFF" d="M128.559,15.148h-2.185v-1.899h6.46v1.899h-2.185v11.4h-2.09V15.148z"/>
	<path fill="#FFFFFF" d="M134.258,25.875c-0.52-0.577-0.779-1.403-0.779-2.48v-0.76h1.976v0.912c0,0.861,0.361,1.292,1.083,1.292
		c0.354,0,0.624-0.104,0.808-0.313c0.183-0.209,0.275-0.548,0.275-1.017c0-0.558-0.127-1.048-0.38-1.473
		c-0.254-0.424-0.722-0.934-1.406-1.529c-0.861-0.76-1.463-1.446-1.805-2.062c-0.342-0.614-0.513-1.308-0.513-2.08
		c0-1.052,0.266-1.865,0.798-2.441c0.532-0.576,1.305-0.865,2.318-0.865c1,0,1.758,0.289,2.271,0.865
		c0.513,0.576,0.77,1.402,0.77,2.479v0.551h-1.976V16.27c0-0.455-0.089-0.788-0.266-0.997c-0.178-0.209-0.437-0.313-0.779-0.313
		c-0.697,0-1.045,0.424-1.045,1.273c0,0.48,0.13,0.93,0.39,1.349c0.259,0.418,0.731,0.925,1.416,1.52
		c0.874,0.761,1.476,1.45,1.805,2.071c0.33,0.621,0.494,1.35,0.494,2.186c0,1.089-0.269,1.925-0.808,2.508
		c-0.538,0.582-1.32,0.873-2.346,0.873C135.544,26.738,134.778,26.451,134.258,25.875z"/>
	<path fill="#FFFFFF" d="M56.445,44.674c-0.52-0.576-0.779-1.402-0.779-2.479v-0.761h1.976v0.912c0,0.861,0.361,1.292,1.083,1.292
		c0.354,0,0.624-0.104,0.808-0.313c0.183-0.209,0.275-0.548,0.275-1.017c0-0.557-0.127-1.048-0.38-1.473
		c-0.254-0.424-0.722-0.934-1.406-1.529c-0.861-0.76-1.463-1.447-1.805-2.062c-0.342-0.614-0.513-1.308-0.513-2.081
		c0-1.051,0.266-1.864,0.798-2.441c0.532-0.576,1.305-0.864,2.318-0.864c1,0,1.758,0.288,2.271,0.864
		c0.513,0.577,0.77,1.403,0.77,2.48v0.551h-1.976V35.07c0-0.457-0.089-0.789-0.266-0.998c-0.178-0.209-0.437-0.313-0.779-0.313
		c-0.697,0-1.045,0.425-1.045,1.272c0,0.482,0.13,0.932,0.39,1.35c0.259,0.418,0.731,0.924,1.416,1.52
		c0.874,0.76,1.476,1.451,1.805,2.071c0.33,0.62,0.494,1.349,0.494,2.185c0,1.09-0.269,1.926-0.808,2.508
		c-0.538,0.584-1.32,0.875-2.346,0.875C57.731,45.539,56.965,45.25,56.445,44.674z"/>
	<path fill="#FFFFFF" d="M63.751,44.684c-0.526-0.57-0.789-1.374-0.789-2.413v-7.144c0-1.039,0.263-1.844,0.789-2.413
		c0.525-0.57,1.289-0.855,2.29-0.855c1,0,1.764,0.285,2.29,0.855c0.525,0.569,0.788,1.374,0.788,2.413v1.406h-1.976v-1.539
		c0-0.824-0.349-1.235-1.045-1.235c-0.696,0-1.045,0.411-1.045,1.235v7.429c0,0.811,0.349,1.216,1.045,1.216
		c0.697,0,1.045-0.405,1.045-1.216V40.39h1.976v1.881c0,1.039-0.263,1.843-0.788,2.413c-0.526,0.57-1.289,0.855-2.29,0.855
		C65.04,45.539,64.276,45.254,63.751,44.684z"/>
	<path fill="#FFFFFF" d="M70.372,32.049h2.09v5.415h2.242v-5.415h2.09v13.3h-2.09v-5.985h-2.242v5.985h-2.09V32.049z"/>
	<path fill="#FFFFFF" d="M79.017,44.664c-0.544-0.582-0.817-1.405-0.817-2.469v-6.992c0-1.064,0.272-1.888,0.817-2.471
		c0.544-0.582,1.33-0.874,2.356-0.874c1.026,0,1.812,0.292,2.356,0.874c0.545,0.583,0.817,1.406,0.817,2.471v6.992
		c0,1.063-0.272,1.887-0.817,2.469c-0.544,0.584-1.33,0.875-2.356,0.875C80.347,45.539,79.562,45.248,79.017,44.664z M82.456,42.328
		V35.07c0-0.875-0.361-1.312-1.083-1.312c-0.722,0-1.083,0.437-1.083,1.312v7.258c0,0.873,0.361,1.311,1.083,1.311
		C82.095,43.639,82.456,43.201,82.456,42.328z"/>
	<path fill="#FFFFFF" d="M86.617,44.664c-0.544-0.582-0.817-1.405-0.817-2.469v-6.992c0-1.064,0.272-1.888,0.817-2.471
		c0.544-0.582,1.33-0.874,2.356-0.874c1.026,0,1.812,0.292,2.356,0.874c0.545,0.583,0.817,1.406,0.817,2.471v6.992
		c0,1.063-0.272,1.887-0.817,2.469c-0.544,0.584-1.33,0.875-2.356,0.875C87.947,45.539,87.162,45.248,86.617,44.664z M90.056,42.328
		V35.07c0-0.875-0.361-1.312-1.083-1.312c-0.722,0-1.083,0.437-1.083,1.312v7.258c0,0.873,0.361,1.311,1.083,1.311
		C89.695,43.639,90.056,43.201,90.056,42.328z"/>
	<path fill="#FFFFFF" d="M93.552,32.049h2.09v11.4h3.439v1.899h-5.529V32.049z"/>
	<path fill="#FFFFFF" d="M100.506,44.674c-0.52-0.576-0.779-1.402-0.779-2.479v-0.761h1.976v0.912c0,0.861,0.361,1.292,1.083,1.292
		c0.354,0,0.624-0.104,0.808-0.313c0.183-0.209,0.275-0.548,0.275-1.017c0-0.557-0.127-1.048-0.38-1.473
		c-0.254-0.424-0.722-0.934-1.406-1.529c-0.861-0.76-1.463-1.447-1.805-2.062c-0.342-0.614-0.513-1.308-0.513-2.081
		c0-1.051,0.266-1.864,0.798-2.441c0.532-0.576,1.305-0.864,2.318-0.864c1,0,1.758,0.288,2.271,0.864
		c0.513,0.577,0.77,1.403,0.77,2.48v0.551h-1.976V35.07c0-0.457-0.089-0.789-0.266-0.998c-0.178-0.209-0.437-0.313-0.779-0.313
		c-0.697,0-1.045,0.425-1.045,1.272c0,0.482,0.13,0.932,0.39,1.35c0.259,0.418,0.731,0.924,1.416,1.52
		c0.874,0.76,1.476,1.451,1.805,2.071c0.33,0.62,0.494,1.349,0.494,2.185c0,1.09-0.269,1.926-0.808,2.508
		c-0.538,0.584-1.32,0.875-2.346,0.875C101.792,45.539,101.026,45.25,100.506,44.674z"/>
</g>
<g>
	<path fill-rule="evenodd" clip-rule="evenodd" fill="#627D53" d="M124.819,83.992c-0.089,0.308-0.183,0.614-0.266,0.924
		c-0.914,3.377-3.995,5.556-7.588,5.304c-0.603-0.042-0.935,0.165-1.372,0.541c-1.29,1.108-2.669,2.113-3.892,3.063
		c0.387,1.464,0.843,3.043,1.205,4.643c0.121,0.534,0.031,1.125-0.018,1.686c-0.075,0.867-0.619,1.354-1.38,1.292
		c-0.812-0.064-1.219-0.649-1.292-1.523c-0.101-1.196-0.264-2.397-0.535-3.565c-0.134-0.58-0.569-1.089-0.918-1.722
		c-4.682,2.726-9.285,5.404-13.964,8.127c1.091,1.688,2.147,3.32,3.24,5.011c0.233-0.143,0.435-0.247,0.616-0.378
		c1.686-1.218,3.359-2.453,5.056-3.654c0.717-0.508,1.394-0.379,1.869,0.273c0.476,0.654,0.396,1.352-0.304,1.869
		c-2.197,1.625-4.405,3.236-6.631,4.821c-0.91,0.647-1.573,0.472-2.232-0.535c-1.48-2.261-2.942-4.534-4.413-6.802
		c-0.193-0.297-0.396-0.587-0.649-0.963c-1.119,0.7-2.211,1.385-3.341,2.092c0.126,0.225,0.204,0.379,0.295,0.524
		c1.894,3.019,3.771,6.047,5.688,9.052c1.471,2.305,4.173,2.875,6.437,1.353c1.947-1.31,3.865-2.663,5.772-4.028
		c1.622-1.161,2.58-2.753,2.92-4.723c0.179-1.04,0.733-1.471,1.628-1.306c0.818,0.151,1.191,0.766,1.012,1.769
		c-0.45,2.529-1.627,4.659-3.7,6.196c-2.075,1.539-4.193,3.024-6.349,4.446c-2.819,1.859-6.044,1.498-9.021-0.957
		c-1.452,1.078-2.938,2.151-4.379,3.282c-0.234,0.185-0.33,0.613-0.386,0.946c-1.846,11.068-3.678,22.139-5.511,33.21
		c-0.048,0.291-0.068,0.588-0.113,0.986c0.739,0.261,1.478,0.531,2.223,0.784c1.433,0.485,2.856,1.006,4.308,1.429
		c1.788,0.521,2.795,1.608,2.806,3.592c0.376,0,0.728,0,1.08,0c10.075,0,20.151,0.007,30.226-0.013
		c0.814-0.001,1.451,0.187,1.875,0.905c0,0.297,0,0.594,0,0.892c-0.425,0.717-1.06,0.905-1.875,0.904
		c-29.192-0.015-58.384-0.016-87.576,0.001c-0.82,0.001-1.444-0.204-1.879-0.905c0-0.298,0-0.595,0-0.892
		c0.433-0.704,1.058-0.908,1.878-0.906c12.068,0.021,24.136,0.014,36.204,0.014c0.353,0,0.705,0,1.244,0
		c-0.113-2.448-0.143-4.842-0.348-7.221c-0.524-6.067-1.128-12.128-1.698-18.191c-0.479-5.087-0.949-10.175-1.448-15.26
		c-0.028-0.286-0.231-0.609-0.447-0.815c-11.325-10.778-22.634-21.573-34.017-32.29c-2.062-1.94-1.256-5.082,0.971-6.171
		c0.98-0.479,1.977-0.46,2.908,0.076c5.043,2.904,10.076,5.827,15.104,8.757c0.758,0.442,0.929,1.117,0.544,1.818
		c-0.394,0.717-1.081,0.909-1.9,0.469c-1.491-0.8-2.981-1.604-4.438-2.465c-0.545-0.322-0.864-0.251-1.284,0.196
		c-0.771,0.821-1.612,1.575-2.601,2.527c0.404,0.307,0.73,0.508,1.002,0.768c8.544,8.138,17.075,16.29,25.639,24.408
		c0.797,0.755,1.136,1.563,1.23,2.63c0.537,6.096,1.131,12.188,1.705,18.28c0.493,5.235,0.986,10.47,1.479,15.705
		c0.014,0.146,0.033,0.29,0.056,0.49c1.431,0,2.843,0,4.347,0c0.317-1.88,0.64-3.772,0.954-5.666
		c1.576-9.519,3.155-19.038,4.705-28.562c0.068-0.421-0.031-0.939-0.23-1.318c-0.505-0.965-1.111-1.876-1.807-3.021
		c-0.444,1.736-0.833,3.242-1.215,4.751c-0.429,1.697-0.848,3.397-1.279,5.094c-0.269,1.059-0.821,1.476-1.672,1.28
		c-0.863-0.196-1.188-0.886-0.916-1.976c0.531-2.124,1.07-4.246,1.452-6.481c-0.658,0.566-1.313,1.137-1.976,1.697
		c-0.818,0.692-1.528,0.694-2.095,0.016c-0.529-0.633-0.43-1.35,0.324-2.009c1.9-1.66,3.813-3.306,5.776-5.006
		c-1.547-2.54-3.076-5.075-4.642-7.587c-0.172-0.274-0.543-0.443-0.849-0.613c-5.891-3.273-11.789-6.534-17.675-9.816
		c-0.398-0.222-0.938-0.547-1.011-0.905c-0.095-0.469,0.088-1.104,0.374-1.513c0.367-0.525,0.987-0.436,1.533-0.133
		c2.026,1.122,4.052,2.242,6.078,3.364c3.869,2.145,7.744,4.278,11.599,6.448c0.527,0.297,0.868,0.277,1.335-0.103
		c1.174-0.956,2.423-1.822,3.588-2.788c0.428-0.355,0.707-0.892,1.147-1.469c-0.646-0.271-1.041-0.396-1.393-0.598
		c-0.299-0.17-0.734-0.392-0.787-0.654c-0.174-0.877-0.829-0.952-1.488-1.105c-1.832-0.427-3.239-1.304-3.581-3.346
		c-0.561-3.349,2.438-5.912,5.617-4.783c0.642,0.228,1.274,0.479,2.014,0.76c0.6-1.206,1.528-0.996,2.57-0.638
		c2.413,0.83,4.855,1.572,7.273,2.387c0.507,0.171,0.877,0.149,1.298-0.202c0.751-0.628,1.574-1.172,2.315-1.812
		c0.203-0.175,0.385-0.631,0.298-0.846c-3.028-7.563,2.506-14.232,8.791-15.085c0.079-0.011,0.15-0.084,0.225-0.128
		c0.892,0,1.784,0,2.676,0c0.047,0.034,0.091,0.092,0.142,0.1c2.562,0.389,4.672,1.603,6.454,3.459
		c0.188,0.194,0.624,0.271,0.917,0.225c3.466-0.546,6.944,1.59,7.995,4.943c0.131,0.418,0.245,0.841,0.367,1.263
		C124.819,82.922,124.819,83.457,124.819,83.992z M101.563,77.498c0.331,0.218,0.596,0.4,0.868,0.57
		c1.989,1.242,3.979,2.481,5.968,3.722c1.564,0.975,1.547,0.976,1.163,2.79c-0.408,1.924-0.458,3.823,0.488,5.644
		c0.37,0.71,0.741,0.896,1.513,0.445c3.241-1.894,4.912-5.639,3.958-9.313c-0.825-3.181-2.953-5.158-6.101-5.983
		C106.457,74.597,103.862,75.365,101.563,77.498z M79.623,105.104c2.547,4.183,5.057,8.305,7.586,12.459
		c1.366-1.021,2.647-1.977,3.954-2.951c-2.013-3.21-3.987-6.351-5.949-9.5c-0.215-0.346-0.372-0.733-0.521-1.115
		c-0.263-0.676-0.5-1.362-0.79-2.161C82.34,103.028,81,104.052,79.623,105.104z M100.044,79.735
		c-1.511,2.476-1.205,6.012,0.756,8.601c1.708,2.254,3.964,3.437,7.005,3.393c-1.29-2.403-1.372-4.793-0.983-7.248
		c0.034-0.215-0.131-0.576-0.315-0.694C104.384,82.428,102.239,81.104,100.044,79.735z M75.391,157.663
		c0,0.705,0.023,1.472-0.006,2.237c-0.032,0.803,0.358,1.148,1.12,1.149c3.862,0.002,7.725,0.007,11.587-0.012
		c0.29-0.001,0.579-0.184,0.869-0.281c-0.007-0.129-0.014-0.258-0.021-0.388C84.573,158.981,80.414,156.685,75.391,157.663z
		 M117.691,87.513c2.493,0.082,4.458-1.952,4.385-4.442c-0.073-2.53-2.105-4.428-4.566-4.2
		C118.679,81.709,118.759,84.572,117.691,87.513z M44.656,87.834c-0.682-0.415-1.285-0.785-1.892-1.149
		c-1.677-1.005-3.356-2.007-5.033-3.011c-0.479-0.287-0.992-0.263-1.239,0.213c-0.164,0.316-0.194,0.967,0.011,1.168
		c1.88,1.843,3.826,3.62,5.805,5.466C43.087,89.629,43.823,88.787,44.656,87.834z M83.695,95.981
		c0.492-0.125,0.762-0.206,1.038-0.261c0.997-0.195,1.995-0.385,2.994-0.571c0.193-0.036,0.441,0.022,0.579-0.078
		c1.021-0.745,2.02-1.521,3.17-2.396c-2.051-0.667-3.915-1.272-5.829-1.895C85.017,92.459,84.415,94.064,83.695,95.981z
		 M92.823,99.829c1.72-2.915,3.336-5.655,4.953-8.396c-0.049-0.032-0.097-0.064-0.146-0.098c-2.397,1.835-4.795,3.67-7.354,5.628
		C91.132,97.927,91.928,98.822,92.823,99.829z M104.315,94.123c-1.309-0.684-2.531-1.321-3.832-2.001
		c-1.169,1.985-2.367,4.019-3.565,6.053c0.06,0.049,0.12,0.099,0.179,0.148C99.495,96.928,101.892,95.533,104.315,94.123z
		 M82.599,91.259c-0.612-0.236-1.156-0.45-1.702-0.657c-0.193-0.072-0.387-0.15-0.588-0.193c-0.799-0.168-1.554,0.212-1.823,0.905
		c-0.273,0.706,0.021,1.587,0.742,1.877c0.752,0.302,1.557,0.472,2.382,0.713C81.961,92.965,82.268,92.146,82.599,91.259z
		 M86.889,101.693c0.809-0.532,1.565-1.03,2.343-1.543c-0.122-0.241-0.201-0.429-0.307-0.601c-0.247-0.402-0.479-0.816-0.765-1.189
		c-0.531-0.693-1.301-0.778-2.03-0.262c-0.712,0.506-0.897,1.277-0.426,2.001C86.056,100.64,86.472,101.137,86.889,101.693z"/>
	<path fill-rule="evenodd" clip-rule="evenodd" fill="#627D53" d="M33.49,162.835c0.435,0.701,1.059,0.906,1.879,0.905
		c29.192-0.017,58.384-0.016,87.576-0.001c0.814,0.001,1.449-0.188,1.875-0.904c0,0.356,0,0.713,0,1.069c-30.443,0-60.886,0-91.33,0
		C33.49,163.548,33.49,163.191,33.49,162.835z"/>
</g>
</svg>
