<?xml version="1.0" encoding="utf-8"?>
<!-- Generator: Adobe Illustrator 16.0.0, SVG Export Plug-In . SVG Version: 6.00 Build 0)  -->
<!DOCTYPE svg PUBLIC "-//W3C//DTD SVG 1.1//EN" "http://www.w3.org/Graphics/SVG/1.1/DTD/svg11.dtd">
<svg version="1.1" id="Layer_1" xmlns="http://www.w3.org/2000/svg" xmlns:xlink="http://www.w3.org/1999/xlink" x="0px" y="0px"
	 width="157px" height="179px" viewBox="0 0 157 179" enable-background="new 0 0 157 179" xml:space="preserve">
<rect x="0.992" y="1" fill-rule="evenodd" clip-rule="evenodd" fill="#FFFFFF" stroke="#627D53" stroke-width="2" stroke-miterlimit="10" width="155" height="177"/>
<rect x="1.992" fill-rule="evenodd" clip-rule="evenodd" fill="#627D53" width="155" height="56"/>
<g>
	<path fill="#FFFFFF" d="M22.66,21.582h3.078c1.039,0,1.817,0.279,2.337,0.836c0.52,0.558,0.779,1.375,0.779,2.451v1.311
		c0,1.077-0.26,1.895-0.779,2.451c-0.52,0.558-1.298,0.836-2.337,0.836H24.75v5.415h-2.09V21.582z M25.738,27.566
		c0.342,0,0.599-0.095,0.77-0.285c0.171-0.189,0.256-0.512,0.256-0.969v-1.576c0-0.457-0.085-0.779-0.256-0.97
		s-0.427-0.284-0.77-0.284H24.75v4.084H25.738z"/>
	<path fill="#FFFFFF" d="M30.944,21.582h2.831l2.166,13.3h-2.09l-0.38-2.642v0.039h-2.375l-0.38,2.603h-1.938L30.944,21.582z
		 M33.224,30.474L32.293,23.9h-0.038l-0.912,6.573H33.224z"/>
	<path fill="#FFFFFF" d="M36.948,21.582h2.09v13.3h-2.09V21.582z"/>
	<path fill="#FFFFFF" d="M40.596,21.582h2.622l2.033,7.961h0.038v-7.961h1.862v13.3h-2.147l-2.508-9.709h-0.038v9.709h-1.862V21.582
		z"/>
	<path fill="#FFFFFF" d="M50.343,23.482h-2.185v-1.9h6.46v1.9h-2.185v11.399h-2.09V23.482z"/>
	<path fill="#FFFFFF" d="M55.625,21.582h3.154c1.076,0,1.862,0.25,2.356,0.75c0.494,0.501,0.741,1.271,0.741,2.309v0.532
		c0,0.685-0.111,1.241-0.333,1.672s-0.56,0.741-1.016,0.931v0.039c1.038,0.354,1.558,1.279,1.558,2.773v1.141
		c0,1.025-0.269,1.808-0.807,2.346c-0.539,0.539-1.327,0.808-2.366,0.808h-3.287V21.582z M58.532,26.997
		c0.418,0,0.731-0.108,0.94-0.323s0.313-0.576,0.313-1.083V24.85c0-0.48-0.085-0.829-0.256-1.045
		c-0.171-0.215-0.44-0.322-0.808-0.322h-1.007v3.515H58.532z M58.912,32.982c0.367,0,0.64-0.099,0.817-0.295
		s0.266-0.535,0.266-1.017v-1.159c0-0.607-0.104-1.029-0.313-1.264s-0.554-0.352-1.036-0.352h-0.931v4.086H58.912z"/>
	<path fill="#FFFFFF" d="M64.916,21.582h2.831l2.166,13.3h-2.09l-0.38-2.642v0.039h-2.375l-0.38,2.603H62.75L64.916,21.582z
		 M67.195,30.474L66.265,23.9h-0.038l-0.912,6.573H67.195z"/>
	<path fill="#FFFFFF" d="M70.919,21.582h2.09v11.4h3.439v1.899h-5.529V21.582z"/>
	<path fill="#FFFFFF" d="M77.455,21.582h2.09v11.4h3.439v1.899h-5.529V21.582z"/>
	<path fill="#FFFFFF" d="M87.687,34.217c-0.526-0.57-0.789-1.374-0.789-2.413V24.66c0-1.039,0.263-1.844,0.789-2.413
		c0.525-0.57,1.289-0.855,2.29-0.855c1,0,1.764,0.285,2.29,0.855c0.525,0.569,0.788,1.374,0.788,2.413v1.406h-1.976v-1.539
		c0-0.824-0.349-1.235-1.045-1.235c-0.696,0-1.045,0.411-1.045,1.235v7.429c0,0.811,0.349,1.216,1.045,1.216
		c0.697,0,1.045-0.405,1.045-1.216v-2.033h1.976v1.881c0,1.039-0.263,1.843-0.788,2.413c-0.526,0.57-1.289,0.855-2.29,0.855
		C88.975,35.072,88.212,34.787,87.687,34.217z"/>
	<path fill="#FFFFFF" d="M94.308,21.582h5.7v1.9h-3.61v3.515h2.869v1.899h-2.869v4.086h3.61v1.899h-5.7V21.582z"/>
	<path fill="#FFFFFF" d="M101.205,21.582h2.622l2.033,7.961h0.038v-7.961h1.862v13.3h-2.147l-2.508-9.709h-0.038v9.709h-1.862
		V21.582z"/>
	<path fill="#FFFFFF" d="M110.952,23.482h-2.185v-1.9h6.46v1.9h-2.185v11.399h-2.09V23.482z"/>
	<path fill="#FFFFFF" d="M116.233,21.582h5.7v1.9h-3.61v3.515h2.869v1.899h-2.869v4.086h3.61v1.899h-5.7V21.582z"/>
	<path fill="#FFFFFF" d="M123.13,21.582h3.097c1.077,0,1.862,0.25,2.356,0.75c0.494,0.501,0.741,1.271,0.741,2.309v0.817
		c0,1.38-0.456,2.255-1.368,2.622v0.037c0.506,0.152,0.865,0.463,1.074,0.932s0.313,1.096,0.313,1.881v2.337
		c0,0.38,0.012,0.688,0.038,0.922s0.089,0.466,0.19,0.693h-2.128c-0.076-0.216-0.126-0.418-0.152-0.608
		c-0.025-0.189-0.038-0.531-0.038-1.025v-2.432c0-0.608-0.098-1.033-0.294-1.273s-0.535-0.361-1.017-0.361h-0.722v5.7h-2.09V21.582z
		 M125.98,27.281c0.418,0,0.731-0.107,0.94-0.322s0.313-0.576,0.313-1.083V24.85c0-0.48-0.085-0.829-0.256-1.045
		c-0.171-0.215-0.44-0.322-0.808-0.322h-0.95v3.799H125.98z"/>
	<path fill="#FFFFFF" d="M131.206,34.207c-0.52-0.576-0.779-1.402-0.779-2.479v-0.761h1.976v0.912c0,0.861,0.361,1.292,1.083,1.292
		c0.354,0,0.624-0.104,0.808-0.313c0.183-0.209,0.275-0.548,0.275-1.017c0-0.557-0.127-1.048-0.38-1.473
		c-0.254-0.424-0.722-0.934-1.406-1.529c-0.861-0.76-1.463-1.447-1.805-2.062c-0.342-0.614-0.513-1.308-0.513-2.081
		c0-1.051,0.266-1.864,0.798-2.441c0.532-0.576,1.305-0.864,2.318-0.864c1,0,1.758,0.288,2.271,0.864
		c0.513,0.577,0.77,1.403,0.77,2.48v0.551h-1.976v-0.684c0-0.457-0.089-0.789-0.266-0.998c-0.178-0.209-0.437-0.313-0.779-0.313
		c-0.697,0-1.045,0.425-1.045,1.272c0,0.482,0.13,0.932,0.39,1.35c0.259,0.418,0.731,0.924,1.416,1.52
		c0.874,0.76,1.476,1.451,1.805,2.071c0.33,0.62,0.494,1.349,0.494,2.185c0,1.09-0.269,1.926-0.808,2.508
		c-0.538,0.584-1.32,0.875-2.346,0.875C132.491,35.072,131.725,34.783,131.206,34.207z"/>
</g>
<g>
	<path fill="#627D53" d="M66.14,103.649H42.069c-0.734,0-1.334,0.598-1.337,1.331l-0.024,6.689H66.14V103.649z"/>
	<path fill="#627D53" d="M50.767,98.302h-4.679v2.674h6.684L50.767,98.302z"/>
	<path fill="#627D53" d="M63.297,75.961l-6.514,4.342v3.472l8.596-5.73L63.297,75.961z"/>
	<path fill="#627D53" d="M60.793,92.955h10.415l1.616,2.211v3.136h12.031v-3.554l8.536-3.658c0.5-0.215,0.822-0.703,0.822-1.248
		c0-0.291-0.096-0.58-0.272-0.813l-1.75-2.336l-1.649-2.196l-3.681-4.908H67.882l-11.099,7.398v1.96
		C56.783,91.155,58.582,92.955,60.793,92.955z"/>
	<path fill="#627D53" d="M59.456,146.427H40.742v5.347h18.714c0.737,0,1.337-0.6,1.337-1.337v-2.675
		C60.793,147.024,60.193,146.427,59.456,146.427z"/>
	<path fill="#627D53" d="M90.202,104.987h17.378v5.347H90.202V104.987z"/>
	<path fill="#627D53" d="M74.161,103.649h-2.674v-2.674h-2.673v13.368h2.673v-2.674h2.674v2.674h13.367v-13.368H74.161V103.649z"/>
	<path fill="#627D53" d="M110.253,103.649h8.021v8.021h-8.021V103.649z"/>
	<path fill="#627D53" d="M78.171,114.344h6.684v16.04h-6.684V114.344z"/>
	<path fill="#627D53" d="M66.14,123.7c0,1.475-1.2,2.675-2.674,2.675H50.099V123.7h8.792l0.068-0.691
		c0.36-3.419,3.218-5.991,6.647-5.991h0.534v-2.674H41.724l1.002,1.675c1.295,2.161,1.974,4.638,1.966,7.155
		c-0.001,0.915-0.096,1.833-0.28,2.731l-3.393,17.847h15.889l0.66-6.684l0.398-4.01l0.264-2.675l0.133-1.337h5.104
		c2.949,0,5.347-2.396,5.347-5.347v-6.683H66.14V123.7z"/>
</g>
</svg>
