<?xml version="1.0" encoding="utf-8"?>
<!-- Generator: Adobe Illustrator 16.0.0, SVG Export Plug-In . SVG Version: 6.00 Build 0)  -->
<!DOCTYPE svg PUBLIC "-//W3C//DTD SVG 1.1//EN" "http://www.w3.org/Graphics/SVG/1.1/DTD/svg11.dtd">
<svg version="1.1" id="Layer_1" xmlns="http://www.w3.org/2000/svg" xmlns:xlink="http://www.w3.org/1999/xlink" x="0px" y="0px"
	 width="134.023px" height="152.98px" viewBox="0 0 134.023 152.98" enable-background="new 0 0 134.023 152.98"
	 xml:space="preserve">
<g>
	<polyline fill="none" stroke="#010101" stroke-width="2" stroke-miterlimit="10" points="1.236,48.281 1.236,151.922 
		133.236,151.922 133.236,48.281 	"/>
</g>
<rect fill-rule="evenodd" clip-rule="evenodd" fill="#235F30" width="134.023" height="49.395"/>
<g>
	<path fill="#FFFFFF" d="M27.256,8.33c-0.077-0.153-0.207-0.23-0.391-0.23c-0.139,0-0.253,0.046-0.346,0.138
		c-0.123,0.108-0.199,0.28-0.229,0.518c-0.031,0.238-0.035,0.491-0.012,0.76s0.072,0.532,0.149,0.793
		c0.076,0.261,0.161,0.468,0.253,0.621c0.199,0.276,0.456,0.545,0.771,0.805c0.314,0.262,0.647,0.529,1.001,0.806
		c0.353,0.275,0.697,0.579,1.035,0.908c0.337,0.33,0.62,0.709,0.851,1.139c0.322,0.552,0.521,1.2,0.598,1.943
		c0.077,0.744,0.02,1.465-0.172,2.162c-0.192,0.698-0.537,1.308-1.035,1.828c-0.499,0.521-1.162,0.844-1.989,0.966
		c-0.154,0.016-0.304,0.027-0.449,0.035s-0.303,0.012-0.472,0.012c-0.904,0-1.633-0.15-2.185-0.449s-0.974-0.705-1.265-1.219
		c-0.292-0.514-0.487-1.119-0.587-1.817c-0.1-0.697-0.157-1.438-0.173-2.219h3.542c0.016,0.245,0.023,0.518,0.023,0.816
		s0.015,0.579,0.046,0.839c0.03,0.262,0.088,0.479,0.173,0.656c0.084,0.176,0.219,0.264,0.402,0.264
		c0.215,0,0.356-0.084,0.426-0.253c0.068-0.168,0.104-0.498,0.104-0.988c0-0.276-0.016-0.521-0.046-0.736
		c-0.031-0.215-0.108-0.426-0.23-0.633c-0.123-0.207-0.307-0.425-0.552-0.655c-0.246-0.229-0.575-0.498-0.989-0.805
		c-0.491-0.368-0.905-0.717-1.242-1.047c-0.337-0.329-0.613-0.682-0.828-1.058s-0.372-0.794-0.471-1.254
		c-0.101-0.46-0.15-0.989-0.15-1.587c0.016-1.426,0.338-2.515,0.967-3.266c0.628-0.751,1.655-1.127,3.082-1.127
		c1.026,0,1.854,0.245,2.483,0.735c0.46,0.354,0.801,0.794,1.023,1.323c0.223,0.528,0.38,1.046,0.472,1.552s0.138,0.943,0.138,1.312
		s0,0.567,0,0.598h-3.496c-0.046-0.613-0.068-1.081-0.068-1.403C27.417,8.79,27.363,8.529,27.256,8.33z"/>
	<path fill="#FFFFFF" d="M39.768,19.047c-0.262,0.828-0.683,1.46-1.266,1.897c-0.583,0.437-1.334,0.655-2.254,0.655
		c-0.215,0-0.398-0.02-0.552-0.058s-0.269-0.072-0.345-0.104v4.255h-2.783c0-0.215,0-0.375,0-0.482s0-0.296,0-0.563
		c0-0.269,0-0.675,0-1.219c0-0.545,0-1.361,0-2.45c0-1.088-0.004-2.515-0.012-4.277c-0.008-1.764-0.012-3.994-0.012-6.693h2.438
		v0.368c0.168-0.169,0.379-0.284,0.633-0.345c0.253-0.062,0.509-0.093,0.771-0.093c0.306,0,0.602,0.027,0.885,0.081
		c0.284,0.054,0.502,0.111,0.655,0.172c0.461,0.169,0.828,0.445,1.104,0.828c0.276,0.384,0.483,0.828,0.621,1.334
		s0.222,1.051,0.253,1.633c0.03,0.583,0.038,1.15,0.023,1.702c-0.031,0.66-0.039,1.296-0.023,1.909
		C39.92,18.211,39.874,18.695,39.768,19.047z M37.214,15.758c0-0.536-0.004-1.001-0.011-1.392c-0.008-0.391-0.039-0.713-0.093-0.966
		s-0.142-0.438-0.264-0.552c-0.123-0.115-0.3-0.173-0.529-0.173c-0.368,0.016-0.603,0.089-0.701,0.219
		c-0.101,0.13-0.165,0.295-0.196,0.494c0,1.166-0.004,2.101-0.011,2.806c-0.009,0.706,0.007,1.25,0.046,1.634
		c0.038,0.383,0.114,0.64,0.229,0.771c0.115,0.13,0.295,0.195,0.541,0.195h0.092c0.261-0.016,0.452-0.111,0.575-0.288
		c0.122-0.176,0.207-0.405,0.253-0.689c0.046-0.283,0.068-0.602,0.068-0.955C37.214,16.509,37.214,16.142,37.214,15.758z"/>
	<path fill="#FFFFFF" d="M48.853,15.667c0,0.644-0.02,1.284-0.058,1.92c-0.038,0.637-0.138,1.22-0.299,1.748
		c-0.161,0.529-0.406,0.985-0.736,1.369c-0.33,0.383-0.786,0.651-1.368,0.805c-0.123,0.03-0.28,0.054-0.472,0.069
		c-0.192,0.015-0.395,0.022-0.609,0.022s-0.426-0.008-0.633-0.022c-0.207-0.016-0.372-0.039-0.494-0.069
		c-0.675-0.169-1.192-0.426-1.553-0.771s-0.617-0.755-0.771-1.23s-0.241-1.001-0.265-1.575c-0.022-0.575-0.042-1.185-0.058-1.829
		c-0.016-0.751-0.008-1.495,0.023-2.23c0.03-0.736,0.157-1.399,0.379-1.99c0.223-0.59,0.591-1.065,1.104-1.426
		c0.514-0.359,1.245-0.54,2.196-0.54c0.767,0,1.388,0.104,1.863,0.311c0.475,0.207,0.843,0.54,1.104,1s0.434,1.055,0.518,1.783
		C48.81,13.738,48.853,14.624,48.853,15.667z M44.299,13.32c0,1.013-0.009,1.863-0.023,2.554c-0.016,0.689-0.004,1.242,0.034,1.656
		c0.038,0.413,0.123,0.709,0.253,0.885c0.131,0.177,0.342,0.265,0.633,0.265c0.276,0,0.494-0.096,0.655-0.287
		s0.242-0.502,0.242-0.932v-3.657c0-0.521-0.081-0.858-0.242-1.012s-0.387-0.23-0.678-0.23c-0.338,0-0.563,0.073-0.679,0.219
		S44.313,13.106,44.299,13.32z"/>
	<path fill="#FFFFFF" d="M57.408,11.412c0,0.062-0.092,0.188-0.276,0.379c-0.184,0.192-0.398,0.396-0.644,0.609
		c-0.245,0.215-0.476,0.407-0.69,0.575c-0.215,0.169-0.36,0.253-0.437,0.253c-0.153,0-0.307-0.122-0.46-0.368
		c-0.077-0.122-0.177-0.245-0.299-0.367c-0.123-0.123-0.284-0.185-0.483-0.185c-0.43,0-0.659,0.199-0.689,0.599
		c0,0.199-0.005,0.536-0.012,1.012c-0.008,0.476-0.012,1.016-0.012,1.621c0,0.606,0,1.238,0,1.897c0,0.66,0,1.276,0,1.852
		s0,1.066,0,1.473s0,0.655,0,0.747h-2.806c0-0.107,0-0.191,0-0.253s-0.004-0.188-0.012-0.38c-0.008-0.191-0.012-0.494-0.012-0.908
		s0-1.031,0-1.852s0-1.882,0-3.186c0-1.303,0-2.944,0-4.922h2.737v0.621c0.261-0.215,0.563-0.387,0.908-0.518
		c0.345-0.13,0.687-0.195,1.023-0.195c0.185,0,0.36,0.02,0.529,0.058c0.168,0.038,0.322,0.104,0.46,0.195
		c0.122,0.077,0.249,0.173,0.379,0.287c0.131,0.115,0.257,0.23,0.38,0.346c0.123,0.114,0.223,0.226,0.299,0.333
		C57.37,11.243,57.408,11.334,57.408,11.412z"/>
	<path fill="#FFFFFF" d="M62.1,10.032c0.23,0,0.402,0.004,0.518,0.011c0.115,0.008,0.195,0.055,0.242,0.139
		c0.046,0.084,0.068,0.218,0.068,0.402c0,0.184,0,0.46,0,0.828v1.127c-0.016,0.107-0.058,0.176-0.126,0.207
		c-0.069,0.03-0.257,0.046-0.563,0.046h-0.76c0,1.38,0,2.453,0,3.22s0.004,1.342,0.012,1.725c0.008,0.384,0.023,0.629,0.046,0.736
		c0.023,0.107,0.058,0.185,0.104,0.23c0.046,0.076,0.199,0.114,0.46,0.114h0.115c0.076-0.015,0.146-0.022,0.207-0.022
		s0.115,0,0.161,0c0.184,0,0.287,0.08,0.311,0.241c0.022,0.161,0.034,0.525,0.034,1.093c0,0.353-0.004,0.625-0.012,0.816
		s-0.026,0.326-0.057,0.402c-0.031,0.077-0.089,0.123-0.173,0.138c-0.085,0.016-0.203,0.023-0.356,0.023
		c-0.292,0-0.599-0.008-0.92-0.023c-0.322-0.015-0.633-0.064-0.932-0.149c-0.299-0.084-0.575-0.214-0.828-0.391
		c-0.253-0.176-0.464-0.433-0.633-0.771c-0.229-0.46-0.341-1.334-0.333-2.622s0.019-2.875,0.034-4.761h-0.229h-0.139
		c-0.169,0-0.295-0.012-0.379-0.035c-0.085-0.022-0.146-0.08-0.185-0.172s-0.062-0.241-0.068-0.448
		c-0.008-0.207-0.012-0.495-0.012-0.863c0-0.337,0.004-0.59,0.012-0.759c0.007-0.168,0.042-0.287,0.104-0.356
		c0.061-0.069,0.16-0.107,0.299-0.115c0.138-0.007,0.337-0.019,0.598-0.034c0-0.398-0.004-0.729-0.012-0.989s-0.008-0.468,0-0.621
		c0.008-0.152,0.031-0.256,0.069-0.311c0.038-0.053,0.096-0.08,0.173-0.08h1.195h0.599c0.214,0,0.371,0.008,0.472,0.023
		c0.099,0.015,0.168,0.061,0.207,0.138c0.038,0.077,0.057,0.188,0.057,0.333c0,0.146,0,0.35,0,0.609v0.897L62.1,10.032z"/>
	<path fill="#FFFFFF" d="M74.266,21.508v-6.463h-2.208v6.463h-3.22V5.063h3.22c0,0.062,0,0.261,0,0.599c0,0.337,0,0.747,0,1.23
		c0,0.482,0.004,1,0.012,1.552c0.008,0.553,0.012,1.07,0.012,1.553c0,0.483,0,0.897,0,1.242s0,0.549,0,0.609h2.185V5.063h3.22
		v16.445H74.266z"/>
	<path fill="#FFFFFF" d="M86.617,15.667c0,0.644-0.02,1.284-0.058,1.92c-0.038,0.637-0.138,1.22-0.299,1.748
		c-0.161,0.529-0.406,0.985-0.736,1.369c-0.33,0.383-0.786,0.651-1.368,0.805c-0.123,0.03-0.28,0.054-0.472,0.069
		c-0.192,0.015-0.395,0.022-0.609,0.022s-0.426-0.008-0.633-0.022c-0.207-0.016-0.372-0.039-0.494-0.069
		c-0.675-0.169-1.192-0.426-1.553-0.771s-0.617-0.755-0.771-1.23s-0.241-1.001-0.265-1.575c-0.022-0.575-0.042-1.185-0.058-1.829
		c-0.016-0.751-0.008-1.495,0.023-2.23c0.03-0.736,0.157-1.399,0.379-1.99c0.223-0.59,0.591-1.065,1.104-1.426
		c0.514-0.359,1.245-0.54,2.196-0.54c0.767,0,1.388,0.104,1.863,0.311c0.475,0.207,0.843,0.54,1.104,1s0.434,1.055,0.518,1.783
		C86.574,13.738,86.617,14.624,86.617,15.667z M82.063,13.32c0,1.013-0.009,1.863-0.023,2.554c-0.016,0.689-0.004,1.242,0.034,1.656
		c0.038,0.413,0.123,0.709,0.253,0.885c0.131,0.177,0.342,0.265,0.633,0.265c0.276,0,0.494-0.096,0.655-0.287
		s0.242-0.502,0.242-0.932v-3.657c0-0.521-0.081-0.858-0.242-1.012s-0.387-0.23-0.678-0.23c-0.338,0-0.563,0.073-0.679,0.219
		S82.078,13.106,82.063,13.32z"/>
	<path fill="#FFFFFF" d="M91.976,10.032c0.23,0,0.402,0.004,0.518,0.011c0.115,0.008,0.195,0.055,0.242,0.139
		c0.046,0.084,0.068,0.218,0.068,0.402c0,0.184,0,0.46,0,0.828v1.127c-0.016,0.107-0.058,0.176-0.126,0.207
		c-0.069,0.03-0.257,0.046-0.563,0.046h-0.76c0,1.38,0,2.453,0,3.22s0.004,1.342,0.012,1.725c0.008,0.384,0.023,0.629,0.046,0.736
		c0.023,0.107,0.058,0.185,0.104,0.23c0.046,0.076,0.199,0.114,0.46,0.114h0.115c0.076-0.015,0.146-0.022,0.207-0.022
		s0.115,0,0.161,0c0.184,0,0.287,0.08,0.311,0.241c0.022,0.161,0.034,0.525,0.034,1.093c0,0.353-0.004,0.625-0.012,0.816
		s-0.026,0.326-0.057,0.402c-0.031,0.077-0.089,0.123-0.173,0.138c-0.085,0.016-0.203,0.023-0.356,0.023
		c-0.292,0-0.599-0.008-0.92-0.023c-0.322-0.015-0.633-0.064-0.932-0.149c-0.299-0.084-0.575-0.214-0.828-0.391
		c-0.253-0.176-0.464-0.433-0.633-0.771c-0.229-0.46-0.341-1.334-0.333-2.622s0.019-2.875,0.034-4.761h-0.229h-0.139
		c-0.169,0-0.295-0.012-0.379-0.035c-0.085-0.022-0.146-0.08-0.185-0.172s-0.062-0.241-0.068-0.448
		c-0.008-0.207-0.012-0.495-0.012-0.863c0-0.337,0.004-0.59,0.012-0.759c0.007-0.168,0.042-0.287,0.104-0.356
		c0.061-0.069,0.16-0.107,0.299-0.115c0.138-0.007,0.337-0.019,0.598-0.034c0-0.398-0.004-0.729-0.012-0.989s-0.008-0.468,0-0.621
		c0.008-0.152,0.031-0.256,0.069-0.311c0.038-0.053,0.096-0.08,0.173-0.08h1.195h0.599c0.214,0,0.371,0.008,0.472,0.023
		c0.099,0.015,0.168,0.061,0.207,0.138c0.038,0.077,0.057,0.188,0.057,0.333c0,0.146,0,0.35,0,0.609v0.897L91.976,10.032z"/>
	<path fill="#FFFFFF" d="M101.198,18.173c-0.016,0.476-0.123,0.92-0.322,1.334s-0.464,0.778-0.793,1.093
		c-0.33,0.314-0.714,0.56-1.15,0.735c-0.438,0.177-0.908,0.265-1.414,0.265c-0.169,0-0.342-0.008-0.518-0.022
		c-0.177-0.016-0.304-0.039-0.38-0.069c-0.644-0.138-1.15-0.38-1.518-0.725c-0.368-0.345-0.645-0.778-0.828-1.3
		c-0.185-0.521-0.299-1.104-0.346-1.748c-0.046-0.644-0.068-1.334-0.068-2.069c0-0.69,0.026-1.38,0.08-2.07
		c0.054-0.689,0.203-1.307,0.448-1.852c0.245-0.544,0.621-0.985,1.128-1.322c0.506-0.337,1.203-0.506,2.093-0.506
		c0.95,0,1.683,0.245,2.196,0.735c0.514,0.491,0.878,1.093,1.093,1.806c0.214,0.713,0.321,1.469,0.321,2.266
		c0,0.798-0.038,1.511-0.114,2.139h-4.509c0,0.2,0.004,0.414,0.012,0.645c0.008,0.229,0.046,0.445,0.115,0.644
		c0.069,0.2,0.173,0.361,0.311,0.483c0.138,0.123,0.345,0.184,0.621,0.184c0.261,0,0.444-0.092,0.552-0.275
		c0.107-0.185,0.185-0.383,0.23-0.599c0.03-0.138,0.053-0.241,0.068-0.311c0.016-0.068,0.065-0.118,0.149-0.149
		c0.084-0.03,0.207-0.049,0.368-0.057s0.402-0.012,0.725-0.012h0.575c0.229,0,0.406,0.008,0.529,0.022
		c0.122,0.016,0.21,0.05,0.264,0.104s0.085,0.131,0.093,0.23C101.217,17.871,101.213,18.004,101.198,18.173z M98.461,14.494
		c0-0.169-0.004-0.36-0.012-0.575s-0.034-0.426-0.08-0.633s-0.131-0.379-0.253-0.518c-0.123-0.138-0.314-0.207-0.575-0.207
		c-0.307,0-0.525,0.104-0.655,0.311c-0.131,0.207-0.219,0.603-0.265,1.185l-0.023,0.438H98.461z"/>
	<path fill="#FFFFFF" d="M105.752,5.616v15.893h-0.62h-2.186V5.616H105.752z"/>
	<path fill="#FFFFFF" d="M112.928,13.481h-0.322c-0.261,0-0.46-0.003-0.598-0.011s-0.241-0.027-0.311-0.058
		c-0.069-0.031-0.123-0.077-0.161-0.139c-0.038-0.061-0.08-0.146-0.126-0.253c-0.077-0.168-0.169-0.287-0.276-0.356
		c-0.107-0.068-0.261-0.104-0.46-0.104c-0.245,0-0.452,0.077-0.621,0.23s-0.253,0.376-0.253,0.667c0,0.275,0.062,0.472,0.184,0.586
		c0.123,0.115,0.288,0.192,0.495,0.23s0.44,0.062,0.701,0.069s0.521,0.05,0.782,0.126c0.582,0.138,1.054,0.388,1.414,0.748
		s0.625,0.778,0.794,1.253c0.169,0.476,0.241,0.978,0.219,1.507c-0.023,0.528-0.135,1.031-0.334,1.506
		c-0.199,0.476-0.486,0.894-0.862,1.254s-0.832,0.609-1.368,0.747c-0.308,0.077-0.69,0.115-1.15,0.115
		c-0.184,0-0.368-0.008-0.552-0.022c-0.185-0.016-0.354-0.046-0.506-0.093c-0.506-0.138-0.936-0.379-1.288-0.724
		c-0.354-0.346-0.629-0.705-0.828-1.081s-0.322-0.725-0.368-1.047s-0.023-0.529,0.069-0.621l0.114-0.115
		c0.659,0.016,1.223,0.023,1.691,0.023c0.467,0,0.724,0.016,0.771,0.046c0.106,0.107,0.184,0.234,0.229,0.38
		s0.161,0.272,0.345,0.379c0.107,0.062,0.238,0.092,0.392,0.092c0.152,0,0.303-0.042,0.448-0.126s0.257-0.211,0.333-0.38
		c0.077-0.122,0.115-0.275,0.115-0.46c0-0.184-0.038-0.329-0.115-0.437c-0.153-0.185-0.349-0.291-0.586-0.322
		c-0.238-0.03-0.514-0.062-0.828-0.092s-0.652-0.104-1.012-0.219c-0.36-0.115-0.732-0.364-1.116-0.747
		c-0.353-0.353-0.602-0.713-0.747-1.081s-0.219-0.828-0.219-1.38c0-0.567,0.092-1.085,0.276-1.553
		c0.184-0.468,0.44-0.866,0.771-1.196c0.329-0.329,0.721-0.586,1.173-0.771c0.452-0.184,0.954-0.276,1.507-0.276
		c0.874,0,1.621,0.246,2.242,0.736c0.621,0.491,1.039,1.166,1.254,2.024c0.122,0.429,0.134,0.693,0.034,0.793
		c-0.1,0.101-0.303,0.149-0.609,0.149H112.928z"/>
</g>
<g>
	<path fill="#FFFFFF" d="M41.628,44.118c-0.437-0.437-0.851-0.874-1.448-1.518c-1.334,1.241-2.828,1.771-4.53,1.771
		c-3.012,0-4.76-2.023-4.76-4.346c0-2.116,1.265-3.564,3.035-4.53v-0.069c-0.805-1.012-1.287-2.139-1.287-3.242
		c0-1.886,1.356-3.817,3.932-3.817c1.932,0,3.427,1.288,3.427,3.289c0,1.632-0.943,2.92-3.403,4.139v0.069
		c1.311,1.518,2.782,3.219,3.771,4.322c0.713-1.08,1.196-2.575,1.495-4.529h1.84c-0.414,2.438-1.081,4.369-2.23,5.726
		c0.827,0.874,1.632,1.747,2.552,2.736H41.628z M39.19,41.451c-0.919-1.012-2.645-2.897-4.369-4.875c-0.827,0.528-2,1.518-2,3.15
		c0,1.771,1.311,3.127,3.173,3.127C37.328,42.853,38.455,42.255,39.19,41.451z M34.477,32c0,1.104,0.506,1.954,1.173,2.782
		c1.563-0.896,2.575-1.725,2.575-3.035c0-0.943-0.528-2.001-1.793-2.001C35.144,29.746,34.477,30.803,34.477,32z"/>
</g>
<g>
	<path fill="#FFFFFF" d="M55.178,44.118c-0.046-0.506-0.077-1.089-0.093-1.748c-0.015-0.659-0.05-1.3-0.104-1.921
		c-0.054-0.62-0.142-1.169-0.264-1.645c-0.123-0.475-0.308-0.766-0.553-0.873H52.97c0,0.613,0,1.149,0,1.609
		s-0.004,0.955-0.012,1.483c-0.008,0.529-0.012,1.023-0.012,1.483s0,0.997,0,1.61h-3.22V27.672h0.92h1.081
		c0.95,0,1.824,0.039,2.622,0.115c0.797,0.077,1.479,0.292,2.047,0.645s1.004,0.893,1.311,1.621s0.438,1.744,0.392,3.048
		c-0.016,0.705-0.077,1.272-0.185,1.701c-0.107,0.43-0.222,0.764-0.345,1.001c-0.123,0.238-0.245,0.414-0.368,0.529
		c-0.123,0.114-0.215,0.211-0.275,0.287c0.398,0.368,0.682,0.82,0.851,1.357c0.169,0.536,0.283,1.131,0.345,1.782
		s0.1,1.35,0.115,2.093c0.016,0.744,0.069,1.499,0.161,2.266H55.178z M54.694,34.665c0.062-0.184,0.107-0.429,0.138-0.736
		c0.031-0.306,0.042-0.628,0.035-0.966c-0.008-0.337-0.039-0.663-0.092-0.978c-0.055-0.313-0.135-0.556-0.242-0.725
		c-0.107-0.168-0.241-0.295-0.402-0.379s-0.322-0.142-0.483-0.173c-0.16-0.03-0.303-0.046-0.425-0.046c-0.123,0-0.207,0-0.253,0
		c0,0.736,0,1.426,0,2.07c0.015,0.537,0.022,1.069,0.022,1.599c0,0.528-0.008,0.9-0.022,1.115c0.152,0,0.317-0.004,0.494-0.012
		c0.176-0.008,0.345-0.034,0.506-0.08s0.307-0.123,0.438-0.23C54.537,35.018,54.633,34.864,54.694,34.665z"/>
	<path fill="#FFFFFF" d="M67.022,40.783c-0.016,0.476-0.123,0.92-0.322,1.334s-0.464,0.778-0.793,1.093
		c-0.33,0.314-0.714,0.56-1.15,0.735c-0.438,0.177-0.908,0.265-1.414,0.265c-0.169,0-0.342-0.008-0.518-0.022
		c-0.177-0.016-0.304-0.039-0.38-0.069c-0.644-0.138-1.15-0.38-1.518-0.725c-0.368-0.345-0.645-0.778-0.828-1.3
		c-0.185-0.521-0.299-1.104-0.346-1.748c-0.046-0.644-0.068-1.334-0.068-2.069c0-0.69,0.026-1.38,0.08-2.07
		c0.054-0.689,0.203-1.307,0.448-1.852c0.245-0.544,0.621-0.985,1.128-1.322c0.506-0.337,1.203-0.506,2.093-0.506
		c0.95,0,1.683,0.245,2.196,0.735c0.514,0.491,0.878,1.093,1.093,1.806c0.214,0.713,0.321,1.469,0.321,2.266
		c0,0.798-0.038,1.511-0.114,2.139h-4.509c0,0.2,0.004,0.414,0.012,0.645c0.008,0.229,0.046,0.445,0.115,0.644
		c0.069,0.2,0.173,0.361,0.311,0.483c0.138,0.123,0.345,0.184,0.621,0.184c0.261,0,0.444-0.092,0.552-0.275
		c0.107-0.185,0.185-0.383,0.23-0.599c0.03-0.138,0.053-0.241,0.068-0.311c0.016-0.068,0.065-0.118,0.149-0.149
		c0.084-0.03,0.207-0.049,0.368-0.057s0.402-0.012,0.725-0.012h0.575c0.229,0,0.406,0.008,0.529,0.022
		c0.122,0.016,0.21,0.05,0.264,0.104s0.085,0.131,0.093,0.23C67.041,40.48,67.037,40.614,67.022,40.783z M64.285,37.103
		c0-0.169-0.004-0.36-0.012-0.575s-0.034-0.426-0.08-0.633s-0.131-0.379-0.253-0.518c-0.123-0.138-0.314-0.207-0.575-0.207
		c-0.307,0-0.525,0.104-0.655,0.311c-0.131,0.207-0.219,0.603-0.265,1.185l-0.023,0.438H64.285z"/>
	<path fill="#FFFFFF" d="M74.106,36.09h-0.322c-0.261,0-0.46-0.003-0.598-0.011s-0.241-0.027-0.311-0.058
		c-0.069-0.031-0.123-0.077-0.161-0.139c-0.038-0.061-0.08-0.146-0.126-0.253c-0.077-0.168-0.169-0.287-0.276-0.356
		c-0.107-0.068-0.261-0.104-0.46-0.104c-0.245,0-0.452,0.077-0.621,0.23s-0.253,0.376-0.253,0.667c0,0.275,0.062,0.472,0.184,0.586
		c0.123,0.115,0.288,0.192,0.495,0.23s0.44,0.062,0.701,0.069s0.521,0.05,0.782,0.126c0.582,0.138,1.054,0.388,1.414,0.748
		s0.625,0.778,0.794,1.253c0.169,0.476,0.241,0.978,0.219,1.507c-0.023,0.528-0.135,1.031-0.334,1.506
		c-0.199,0.476-0.486,0.894-0.862,1.254s-0.832,0.609-1.368,0.747c-0.308,0.077-0.69,0.115-1.15,0.115
		c-0.184,0-0.368-0.008-0.552-0.022c-0.185-0.016-0.354-0.046-0.506-0.093c-0.506-0.138-0.936-0.379-1.288-0.724
		c-0.354-0.346-0.629-0.705-0.828-1.081s-0.322-0.725-0.368-1.047s-0.023-0.529,0.069-0.621l0.114-0.115
		c0.659,0.016,1.223,0.023,1.691,0.023c0.467,0,0.724,0.016,0.771,0.046c0.106,0.107,0.184,0.234,0.229,0.38
		s0.161,0.272,0.345,0.379c0.107,0.062,0.238,0.092,0.392,0.092c0.152,0,0.303-0.042,0.448-0.126s0.257-0.211,0.333-0.38
		c0.077-0.122,0.115-0.275,0.115-0.46c0-0.184-0.038-0.329-0.115-0.437c-0.153-0.185-0.349-0.291-0.586-0.322
		c-0.238-0.03-0.514-0.062-0.828-0.092s-0.652-0.104-1.012-0.219c-0.36-0.115-0.732-0.364-1.116-0.747
		c-0.353-0.353-0.602-0.713-0.747-1.081s-0.219-0.828-0.219-1.38c0-0.567,0.092-1.085,0.276-1.553
		c0.184-0.468,0.44-0.866,0.771-1.196c0.329-0.329,0.721-0.586,1.173-0.771c0.452-0.184,0.954-0.276,1.507-0.276
		c0.874,0,1.621,0.246,2.242,0.736c0.621,0.491,1.039,1.166,1.254,2.024c0.122,0.429,0.134,0.693,0.034,0.793
		c-0.1,0.101-0.303,0.149-0.609,0.149H74.106z"/>
	<path fill="#FFFFFF" d="M84.089,38.276c0,0.644-0.02,1.284-0.058,1.92c-0.038,0.637-0.138,1.22-0.299,1.748
		c-0.161,0.529-0.406,0.985-0.736,1.369c-0.33,0.383-0.786,0.651-1.368,0.805c-0.123,0.03-0.28,0.054-0.472,0.069
		c-0.192,0.015-0.395,0.022-0.609,0.022s-0.426-0.008-0.633-0.022c-0.207-0.016-0.372-0.039-0.494-0.069
		c-0.675-0.169-1.192-0.426-1.553-0.771s-0.617-0.755-0.771-1.23s-0.241-1.001-0.265-1.575c-0.022-0.575-0.042-1.185-0.058-1.829
		c-0.016-0.751-0.008-1.495,0.023-2.23c0.03-0.736,0.157-1.399,0.379-1.99c0.223-0.59,0.591-1.065,1.104-1.426
		c0.514-0.359,1.245-0.54,2.196-0.54c0.767,0,1.388,0.104,1.863,0.311c0.475,0.207,0.843,0.54,1.104,1s0.434,1.055,0.518,1.783
		C84.046,36.347,84.089,37.233,84.089,38.276z M79.535,35.929c0,1.013-0.009,1.863-0.023,2.554
		c-0.016,0.689-0.004,1.242,0.034,1.656c0.038,0.413,0.123,0.709,0.253,0.885c0.131,0.177,0.342,0.265,0.633,0.265
		c0.276,0,0.494-0.096,0.655-0.287s0.242-0.502,0.242-0.932v-3.657c0-0.521-0.081-0.858-0.242-1.012s-0.387-0.23-0.678-0.23
		c-0.338,0-0.563,0.073-0.679,0.219S79.55,35.715,79.535,35.929z"/>
	<path fill="#FFFFFF" d="M92.645,34.021c0,0.062-0.092,0.188-0.276,0.379c-0.184,0.192-0.398,0.396-0.644,0.609
		c-0.245,0.215-0.476,0.407-0.69,0.575c-0.215,0.169-0.36,0.253-0.437,0.253c-0.153,0-0.307-0.122-0.46-0.368
		c-0.077-0.122-0.177-0.245-0.299-0.367c-0.123-0.123-0.284-0.185-0.483-0.185c-0.43,0-0.659,0.199-0.689,0.599
		c0,0.199-0.005,0.536-0.012,1.012c-0.008,0.476-0.012,1.016-0.012,1.621c0,0.606,0,1.238,0,1.897c0,0.66,0,1.276,0,1.852
		s0,1.066,0,1.473s0,0.655,0,0.747h-2.806c0-0.107,0-0.191,0-0.253s-0.004-0.188-0.012-0.38c-0.008-0.191-0.012-0.494-0.012-0.908
		s0-1.031,0-1.852s0-1.882,0-3.186c0-1.303,0-2.944,0-4.922h2.737v0.621c0.261-0.215,0.563-0.387,0.908-0.518
		c0.345-0.13,0.687-0.195,1.023-0.195c0.185,0,0.36,0.02,0.529,0.058c0.168,0.038,0.322,0.104,0.46,0.195
		c0.122,0.077,0.249,0.173,0.379,0.287c0.131,0.115,0.257,0.23,0.38,0.346c0.123,0.114,0.223,0.226,0.299,0.333
		C92.606,33.852,92.645,33.944,92.645,34.021z"/>
	<path fill="#FFFFFF" d="M97.336,32.641c0.23,0,0.402,0.004,0.518,0.011c0.115,0.008,0.195,0.055,0.242,0.139
		c0.046,0.084,0.068,0.218,0.068,0.402c0,0.184,0,0.46,0,0.828v1.127c-0.016,0.107-0.058,0.176-0.126,0.207
		c-0.069,0.03-0.257,0.046-0.563,0.046h-0.76c0,1.38,0,2.453,0,3.22s0.004,1.342,0.012,1.725c0.008,0.384,0.023,0.629,0.046,0.736
		c0.023,0.107,0.058,0.185,0.104,0.23c0.046,0.076,0.199,0.114,0.46,0.114h0.115c0.076-0.015,0.146-0.022,0.207-0.022
		s0.115,0,0.161,0c0.184,0,0.287,0.08,0.311,0.241c0.022,0.161,0.034,0.525,0.034,1.093c0,0.353-0.004,0.625-0.012,0.816
		s-0.026,0.326-0.057,0.402c-0.031,0.077-0.089,0.123-0.173,0.138c-0.085,0.016-0.203,0.023-0.356,0.023
		c-0.292,0-0.599-0.008-0.92-0.023c-0.322-0.015-0.633-0.064-0.932-0.149c-0.299-0.084-0.575-0.214-0.828-0.391
		c-0.253-0.176-0.464-0.433-0.633-0.771c-0.229-0.46-0.341-1.334-0.333-2.622s0.019-2.875,0.034-4.761h-0.229h-0.139
		c-0.169,0-0.295-0.012-0.379-0.035c-0.085-0.022-0.146-0.08-0.185-0.172s-0.062-0.241-0.068-0.448
		c-0.008-0.207-0.012-0.495-0.012-0.863c0-0.337,0.004-0.59,0.012-0.759c0.007-0.168,0.042-0.287,0.104-0.356
		c0.061-0.069,0.16-0.107,0.299-0.115c0.138-0.007,0.337-0.019,0.598-0.034c0-0.398-0.004-0.729-0.012-0.989s-0.008-0.468,0-0.621
		c0.008-0.152,0.031-0.256,0.069-0.311c0.038-0.053,0.096-0.08,0.173-0.08h1.195h0.599c0.214,0,0.371,0.008,0.472,0.023
		c0.099,0.015,0.168,0.061,0.207,0.138c0.038,0.077,0.057,0.188,0.057,0.333c0,0.146,0,0.35,0,0.609v0.897L97.336,32.641z"/>
	<path fill="#FFFFFF" d="M104.695,36.09h-0.322c-0.261,0-0.46-0.003-0.598-0.011s-0.241-0.027-0.311-0.058
		c-0.069-0.031-0.123-0.077-0.161-0.139c-0.038-0.061-0.08-0.146-0.126-0.253c-0.077-0.168-0.169-0.287-0.276-0.356
		c-0.107-0.068-0.261-0.104-0.46-0.104c-0.245,0-0.452,0.077-0.621,0.23s-0.253,0.376-0.253,0.667c0,0.275,0.062,0.472,0.184,0.586
		c0.123,0.115,0.288,0.192,0.495,0.23s0.44,0.062,0.701,0.069s0.521,0.05,0.782,0.126c0.582,0.138,1.054,0.388,1.414,0.748
		s0.625,0.778,0.794,1.253c0.169,0.476,0.241,0.978,0.219,1.507c-0.023,0.528-0.135,1.031-0.334,1.506
		c-0.199,0.476-0.486,0.894-0.862,1.254s-0.832,0.609-1.368,0.747c-0.308,0.077-0.69,0.115-1.15,0.115
		c-0.184,0-0.368-0.008-0.552-0.022c-0.185-0.016-0.354-0.046-0.506-0.093c-0.506-0.138-0.936-0.379-1.288-0.724
		c-0.354-0.346-0.629-0.705-0.828-1.081s-0.322-0.725-0.368-1.047s-0.023-0.529,0.069-0.621l0.114-0.115
		c0.659,0.016,1.223,0.023,1.691,0.023c0.467,0,0.724,0.016,0.771,0.046c0.106,0.107,0.184,0.234,0.229,0.38
		s0.161,0.272,0.345,0.379c0.107,0.062,0.238,0.092,0.392,0.092c0.152,0,0.303-0.042,0.448-0.126s0.257-0.211,0.333-0.38
		c0.077-0.122,0.115-0.275,0.115-0.46c0-0.184-0.038-0.329-0.115-0.437c-0.153-0.185-0.349-0.291-0.586-0.322
		c-0.238-0.03-0.514-0.062-0.828-0.092s-0.652-0.104-1.012-0.219c-0.36-0.115-0.732-0.364-1.116-0.747
		c-0.353-0.353-0.602-0.713-0.747-1.081s-0.219-0.828-0.219-1.38c0-0.567,0.092-1.085,0.276-1.553
		c0.184-0.468,0.44-0.866,0.771-1.196c0.329-0.329,0.721-0.586,1.173-0.771c0.452-0.184,0.954-0.276,1.507-0.276
		c0.874,0,1.621,0.246,2.242,0.736c0.621,0.491,1.039,1.166,1.254,2.024c0.122,0.429,0.134,0.693,0.034,0.793
		c-0.1,0.101-0.303,0.149-0.609,0.149H104.695z"/>
</g>
<path fill-rule="evenodd" clip-rule="evenodd" fill="#010101" d="M30.987,129.193v8.161h-6.386v-8.16h-3.873v-10.133
	c1.372,0,2.729-0.036,4.082,0.018c0.63,0.023,0.934-0.17,1.19-0.756c2.917-6.665,5.866-13.313,8.808-19.968
	c0.258-0.586,0.453-1.217,0.806-1.739c0.576-0.854,0.395-1.469-0.224-2.25c-2.759-3.48-5.444-7.02-8.152-10.542
	c-0.948-1.231-0.857-2.664,0.21-3.498c1.125-0.88,2.516-0.635,3.496,0.648c2.177,2.852,4.318,5.729,6.512,8.57
	c5.121,6.63,10.267,13.24,15.396,19.863c2.33,3.009,4.657,6.018,6.957,9.046c0.345,0.455,0.691,0.621,1.26,0.621
	c18.254-0.016,36.508-0.013,54.762-0.013h0.99v10.111h-4.694v8.17h-6.357v-8.15H30.987z M38.374,98.282
	c-3.094,7.004-6.116,13.851-9.154,20.729h25.128C49.005,112.077,43.733,105.236,38.374,98.282"/>
<path fill-rule="evenodd" clip-rule="evenodd" fill="#010101" d="M111.716,117.783h-0.697c-3.243-0.001-6.485,0.007-9.729-0.016
	c-0.382-0.002-0.796-0.104-1.138-0.275c-5.135-2.59-10.266-5.188-15.382-7.814c-0.491-0.252-0.858-0.229-1.335-0.009
	c-5.681,2.628-11.37,5.235-17.059,7.847c-2.78,1.276-5.166,0.682-7.021-1.757c-4.637-6.099-9.273-12.197-13.903-18.301
	c-1.544-2.033-1.748-4.536-0.554-6.448c1.933-3.099,6.226-3.405,8.558-0.594c1.504,1.812,2.975,3.652,4.512,5.544
	c1.062-0.639,2.11-1.269,3.158-1.9c2.179-1.311,4.35-2.634,6.54-3.924c0.434-0.256,0.556-0.522,0.5-1.025
	c-0.272-2.473-0.497-4.952-0.745-7.492h8.332c-0.161,1.638-0.276,3.253-0.495,4.856c-0.126,0.93,0.019,1.613,0.711,2.354
	c1.664,1.784,1.316,4.157-0.68,5.644c-2.339,1.743-4.77,3.36-7.158,5.033c-1.704,1.193-3.407,2.392-5.163,3.626
	c0.828,1.09,1.594,2.151,2.432,3.151c0.135,0.16,0.629,0.149,0.893,0.049c5.274-1.993,10.559-3.965,15.796-6.055
	c1.851-0.737,3.355-0.61,5.014,0.565c5.398,3.819,10.873,7.532,16.35,11.242c0.777,0.526,1.703,0.869,2.602,1.177
	c1.693,0.578,3.41,1.087,5.131,1.578c0.427,0.122,0.555,0.301,0.54,0.716C111.697,116.271,111.716,116.988,111.716,117.783"/>
<path fill-rule="evenodd" clip-rule="evenodd" fill="#010101" d="M42.733,88.826c-3.766-0.082-6.961-3.041-6.941-7.028
	c0.019-3.834,3.202-6.981,7.042-6.952c3.836,0.025,6.971,3.21,6.95,7.054C49.764,85.747,46.618,88.837,42.733,88.826"/>
<path fill-rule="evenodd" clip-rule="evenodd" fill="#010101" d="M38.165,84.466h-1.166c0.244-1.234,0.478-2.424,0.71-3.602
	c1.074-0.151,1.166-0.059,0.973,0.912C38.506,82.663,38.341,83.549,38.165,84.466"/>
<polygon fill-rule="evenodd" clip-rule="evenodd" fill="#010101" points="75.153,79.217 73.952,79.217 72.886,80.919 73.952,80.919 
	"/>
</svg>
