<?xml version="1.0" encoding="utf-8"?>
<!-- Generator: Adobe Illustrator 16.0.0, SVG Export Plug-In . SVG Version: 6.00 Build 0)  -->
<!DOCTYPE svg PUBLIC "-//W3C//DTD SVG 1.1//EN" "http://www.w3.org/Graphics/SVG/1.1/DTD/svg11.dtd">
<svg version="1.1" id="Layer_1" xmlns="http://www.w3.org/2000/svg" xmlns:xlink="http://www.w3.org/1999/xlink" x="0px" y="0px"
	 width="157px" height="179px" viewBox="0 0 157 179" enable-background="new 0 0 157 179" xml:space="preserve">
<rect x="2" y="1" fill-rule="evenodd" clip-rule="evenodd" fill="#FFFFFF" stroke="#627D53" stroke-width="2" stroke-miterlimit="10" width="155" height="177"/>
<rect x="2" fill-rule="evenodd" clip-rule="evenodd" fill="#627D53" width="155" height="56"/>
<g>
	<path fill="#FFFFFF" d="M35.744,14.582h3.097c1.077,0,1.862,0.25,2.356,0.75c0.494,0.501,0.741,1.271,0.741,2.309v0.817
		c0,1.38-0.456,2.255-1.368,2.622v0.037c0.506,0.152,0.865,0.463,1.074,0.932s0.313,1.096,0.313,1.881v2.337
		c0,0.38,0.012,0.688,0.038,0.922s0.089,0.466,0.19,0.693h-2.128c-0.076-0.216-0.126-0.418-0.152-0.608
		c-0.025-0.189-0.038-0.531-0.038-1.025v-2.432c0-0.608-0.098-1.033-0.294-1.273s-0.535-0.361-1.017-0.361h-0.722v5.7h-2.09V14.582z
		 M38.594,20.281c0.418,0,0.731-0.107,0.94-0.322s0.313-0.576,0.313-1.083V17.85c0-0.48-0.085-0.829-0.256-1.045
		c-0.171-0.215-0.44-0.322-0.808-0.322h-0.95v3.799H38.594z"/>
	<path fill="#FFFFFF" d="M44.066,27.197c-0.544-0.582-0.817-1.405-0.817-2.469v-6.992c0-1.064,0.272-1.888,0.817-2.471
		c0.544-0.582,1.33-0.874,2.356-0.874c1.026,0,1.812,0.292,2.356,0.874c0.545,0.583,0.817,1.406,0.817,2.471v6.992
		c0,1.063-0.272,1.887-0.817,2.469c-0.544,0.584-1.33,0.875-2.356,0.875C45.396,28.072,44.611,27.781,44.066,27.197z M47.505,24.861
		v-7.258c0-0.875-0.361-1.312-1.083-1.312c-0.722,0-1.083,0.437-1.083,1.312v7.258c0,0.873,0.361,1.311,1.083,1.311
		C47.145,26.172,47.505,25.734,47.505,24.861z"/>
	<path fill="#FFFFFF" d="M51.657,27.217c-0.526-0.57-0.789-1.374-0.789-2.413V17.66c0-1.039,0.263-1.844,0.789-2.413
		c0.525-0.57,1.289-0.855,2.29-0.855c1,0,1.764,0.285,2.29,0.855c0.525,0.569,0.788,1.374,0.788,2.413v1.406h-1.976v-1.539
		c0-0.824-0.349-1.235-1.045-1.235c-0.696,0-1.045,0.411-1.045,1.235v7.429c0,0.811,0.349,1.216,1.045,1.216
		c0.697,0,1.045-0.405,1.045-1.216v-2.033h1.976v1.881c0,1.039-0.263,1.843-0.788,2.413c-0.526,0.57-1.289,0.855-2.29,0.855
		C52.946,28.072,52.183,27.787,51.657,27.217z"/>
	<path fill="#FFFFFF" d="M58.278,14.582h2.09v5.605l2.66-5.605h2.09l-2.489,4.883l2.527,8.417h-2.185l-1.767-5.929l-0.836,1.691
		v4.237h-2.09V14.582z"/>
	<path fill="#FFFFFF" d="M69.839,27.217c-0.526-0.57-0.789-1.374-0.789-2.413V17.66c0-1.039,0.263-1.844,0.789-2.413
		c0.525-0.57,1.289-0.855,2.29-0.855c1,0,1.764,0.285,2.29,0.855c0.525,0.569,0.788,1.374,0.788,2.413v1.406h-1.976v-1.539
		c0-0.824-0.349-1.235-1.045-1.235c-0.696,0-1.045,0.411-1.045,1.235v7.429c0,0.811,0.349,1.216,1.045,1.216
		c0.697,0,1.045-0.405,1.045-1.216v-2.033h1.976v1.881c0,1.039-0.263,1.843-0.788,2.413c-0.526,0.57-1.289,0.855-2.29,0.855
		C71.128,28.072,70.365,27.787,69.839,27.217z"/>
	<path fill="#FFFFFF" d="M76.46,14.582h2.09v11.4h3.439v1.899h-5.53V14.582z"/>
	<path fill="#FFFFFF" d="M82.996,14.582h2.091v13.3h-2.091V14.582z"/>
	<path fill="#FFFFFF" d="M86.645,14.582h2.983l1.329,9.52h0.039l1.33-9.52h2.982v13.3h-1.977V17.813h-0.037l-1.52,10.069h-1.748
		l-1.521-10.069h-0.038v10.069h-1.824V14.582z"/>
	<path fill="#FFFFFF" d="M96.866,14.582h3.154c1.076,0,1.862,0.25,2.356,0.75c0.494,0.501,0.74,1.271,0.74,2.309v0.532
		c0,0.685-0.111,1.241-0.332,1.672c-0.223,0.431-0.561,0.741-1.017,0.931v0.039c1.038,0.354,1.558,1.279,1.558,2.773v1.141
		c0,1.025-0.27,1.808-0.807,2.346c-0.539,0.539-1.328,0.808-2.366,0.808h-3.287V14.582z M99.773,19.997
		c0.418,0,0.731-0.108,0.94-0.323s0.313-0.576,0.313-1.083V17.85c0-0.48-0.086-0.829-0.256-1.045
		c-0.172-0.215-0.441-0.322-0.809-0.322h-1.006v3.515H99.773z M100.153,25.982c0.367,0,0.64-0.099,0.817-0.295
		c0.177-0.196,0.266-0.535,0.266-1.017v-1.159c0-0.607-0.104-1.029-0.313-1.264s-0.554-0.352-1.036-0.352h-0.93v4.086H100.153z"/>
	<path fill="#FFFFFF" d="M104.542,14.582h2.091v13.3h-2.091V14.582z"/>
	<path fill="#FFFFFF" d="M108.189,14.582h2.623l2.033,7.961h0.037v-7.961h1.862v13.3h-2.147l-2.508-9.709h-0.037v9.709h-1.863
		V14.582z"/>
	<path fill="#FFFFFF" d="M116.949,27.207c-0.532-0.576-0.799-1.402-0.799-2.479v-6.992c0-1.077,0.267-1.903,0.799-2.48
		c0.531-0.576,1.305-0.864,2.318-0.864c1.013,0,1.785,0.288,2.317,0.864c0.532,0.577,0.798,1.403,0.798,2.48v1.14h-1.977v-1.272
		c0-0.875-0.36-1.312-1.082-1.312c-0.723,0-1.084,0.437-1.084,1.312v7.276c0,0.861,0.361,1.292,1.084,1.292
		c0.722,0,1.082-0.431,1.082-1.292v-2.603h-1.045v-1.9h3.021v4.352c0,1.076-0.266,1.902-0.798,2.479s-1.305,0.865-2.317,0.865
		C118.254,28.072,117.48,27.783,116.949,27.207z"/>
	<path fill="#FFFFFF" d="M56.501,46.017c-0.526-0.569-0.789-1.374-0.789-2.413v-7.145c0-1.037,0.263-1.842,0.789-2.412
		c0.525-0.57,1.289-0.855,2.29-0.855c1,0,1.764,0.285,2.29,0.855c0.525,0.57,0.788,1.375,0.788,2.412v1.406h-1.976v-1.539
		c0-0.822-0.349-1.234-1.045-1.234c-0.696,0-1.045,0.412-1.045,1.234v7.43c0,0.811,0.349,1.216,1.045,1.216
		c0.697,0,1.045-0.405,1.045-1.216v-2.033h1.976v1.881c0,1.039-0.263,1.844-0.788,2.413c-0.526,0.569-1.289,0.854-2.29,0.854
		C57.79,46.871,57.026,46.586,56.501,46.017z"/>
	<path fill="#FFFFFF" d="M63.122,33.382h5.7v1.899h-3.61v3.516h2.869v1.9h-2.869v4.084h3.61v1.9h-5.7V33.382z"/>
	<path fill="#FFFFFF" d="M70.019,33.382h2.622l2.033,7.961h0.038v-7.961h1.862v13.3h-2.147l-2.508-9.709h-0.038v9.709h-1.862V33.382
		z"/>
	<path fill="#FFFFFF" d="M79.766,35.281h-2.185v-1.899h6.46v1.899h-2.186v11.4h-2.09V35.281z"/>
	<path fill="#FFFFFF" d="M85.048,33.382h5.7v1.899h-3.609v3.516h2.868v1.9h-2.868v4.084h3.609v1.9h-5.7V33.382z"/>
	<path fill="#FFFFFF" d="M91.945,33.382h3.097c1.077,0,1.862,0.25,2.356,0.751c0.494,0.5,0.74,1.27,0.74,2.308v0.817
		c0,1.381-0.455,2.254-1.367,2.622v0.038c0.506,0.152,0.864,0.463,1.073,0.931c0.209,0.469,0.313,1.096,0.313,1.881v2.337
		c0,0.381,0.012,0.688,0.037,0.922s0.09,0.465,0.191,0.693h-2.129c-0.076-0.215-0.127-0.418-0.152-0.607
		c-0.025-0.19-0.037-0.533-0.037-1.026v-2.433c0-0.607-0.099-1.031-0.295-1.272s-0.535-0.361-1.017-0.361h-0.722v5.7h-2.09V33.382z
		 M94.795,39.082c0.418,0,0.731-0.107,0.94-0.323s0.313-0.576,0.313-1.083v-1.026c0-0.481-0.086-0.829-0.256-1.045
		c-0.172-0.215-0.441-0.323-0.809-0.323h-0.949v3.801H94.795z"/>
	<path fill="#FFFFFF" d="M100.02,46.008c-0.52-0.577-0.778-1.403-0.778-2.48v-0.76h1.976v0.912c0,0.861,0.361,1.292,1.084,1.292
		c0.354,0,0.623-0.104,0.807-0.313s0.275-0.548,0.275-1.017c0-0.558-0.127-1.048-0.379-1.473c-0.254-0.424-0.723-0.934-1.406-1.529
		c-0.861-0.76-1.463-1.446-1.805-2.062c-0.343-0.614-0.514-1.308-0.514-2.08c0-1.052,0.266-1.865,0.798-2.441
		s1.305-0.865,2.317-0.865c1.001,0,1.758,0.289,2.271,0.865c0.513,0.576,0.77,1.402,0.77,2.479v0.551h-1.977v-0.684
		c0-0.455-0.088-0.788-0.266-0.997s-0.438-0.313-0.779-0.313c-0.697,0-1.045,0.424-1.045,1.273c0,0.48,0.13,0.93,0.39,1.349
		c0.259,0.418,0.731,0.925,1.415,1.52c0.875,0.761,1.477,1.45,1.805,2.071c0.33,0.621,0.494,1.35,0.494,2.186
		c0,1.089-0.269,1.925-0.807,2.508c-0.539,0.582-1.32,0.873-2.347,0.873C101.306,46.871,100.539,46.584,100.02,46.008z"/>
</g>
<g>
	<path fill-rule="evenodd" clip-rule="evenodd" fill="#627D53" d="M108.089,161.672c-0.304,0-0.606,0-0.91,0
		c-0.408-0.544-0.915-1.038-1.21-1.638c-4.842-9.875-9.656-19.763-14.479-29.647c-0.153-0.313-0.324-0.619-0.435-0.828
		c-0.635,0.778-1.178,1.574-1.858,2.229c-0.383,0.368-0.436,0.608-0.261,1.071c0.694,1.842,1.395,3.685,2.006,5.555
		c0.833,2.55,1.988,4.929,3.386,7.219c2.305,3.777,4.523,7.607,6.759,11.428c0.271,0.462,0.535,0.978,0.605,1.496
		c0.223,1.64-0.979,2.737-2.93,2.737c-16.719,0.002-33.438,0.002-50.158,0.001c-2.149-0.001-3.028-0.88-3.028-3.041
		c-0.002-28.918,0.004-57.835-0.019-86.753c-0.001-1.486,0.495-2.515,1.893-3.063c3.945,0,7.891,0,11.836,0
		c1.163,0.418,1.735,1.277,2.047,2.453c1.112,4.187,2.365,8.336,3.408,12.539c0.934,3.763,2.258,7.33,4.276,10.651
		c1.053,1.733,1.986,3.544,2.893,5.359c0.427,0.856,0.793,1.785,0.965,2.722c0.796,4.352,1.496,8.722,2.271,13.078
		c0.317,1.785,0.529,3.631,1.159,5.311c1.013,2.699,3.814,3.547,5.917,5.26c0.111-0.292,0.182-0.451,0.234-0.616
		c0.771-2.425,1.572-4.841,2.282-7.283c0.141-0.485,0.079-1.146-0.142-1.604c-3.184-6.604-6.425-13.182-9.615-19.783
		c-0.756-1.564-1.521-3.073-2.916-4.206c-0.837-0.681-1.148-1.658-1.057-2.775c0.042-0.507-0.009-1.089-0.225-1.538
		c-2.625-5.461-5.291-10.903-7.942-16.353c-0.159-0.326-0.339-0.652-0.428-1c-0.197-0.771,0.086-1.385,0.771-1.77
		c0.63-0.354,1.483-0.119,1.93,0.512c0.208,0.294,0.366,0.627,0.525,0.953c2.578,5.282,5.147,10.568,7.743,15.842
		c0.148,0.303,0.492,0.693,0.771,0.715c1.011,0.079,1.765,0.552,2.462,1.227c2.53,2.447,5.067,4.887,7.622,7.308
		c0.231,0.22,0.633,0.452,0.908,0.404c4.203-0.729,8.408-1.384,12.401-3.058c3.926-1.646,7.245-0.048,8.734,3.92
		c1.362,3.63,2.73,7.257,4.086,10.89c1.06,2.837,2.184,5.654,3.129,8.529c0.871,2.647,0,4.698-2.353,6.123
		c-2.334,1.413-4.661,2.837-7.01,4.227c-0.49,0.29-0.648,0.55-0.5,1.15c0.814,3.294,1.57,6.602,2.345,9.905
		c0.729,3.117-0.827,5.488-3.968,6.048c-0.167,0.03-0.329,0.083-0.549,0.14c0.152,0.33,0.272,0.604,0.403,0.873
		c2.336,4.794,4.675,9.586,7.007,14.381C109.523,160.302,109.335,160.925,108.089,161.672z M98.375,110.862
		c-1.336-3.564-2.607-6.954-3.893-10.381c-2.924,0.52-5.805,0.925-8.632,1.568c-2.086,0.475-3.831,0.278-5.227-1.461
		c-0.022-0.027-0.091-0.018-0.24-0.041c1.984,4.074,3.94,8.09,5.92,12.154c0.108-0.154,0.191-0.245,0.244-0.351
		c1.167-2.346,2.92-3.253,5.486-2.772C94.081,109.963,96.117,110.403,98.375,110.862z M96.93,120.058
		c-1.175-0.237-2.023-0.408-2.924-0.591c-0.558,1.783-1.091,3.482-1.619,5.182c-0.034,0.112-0.087,0.258-0.045,0.348
		c0.577,1.232,1.169,2.459,1.757,3.687c0.098-0.009,0.196-0.019,0.294-0.027C93.304,125.303,92.688,122.08,96.93,120.058z"/>
	<path fill-rule="evenodd" clip-rule="evenodd" fill="#FFFFFF" d="M47.451,68.438c-1.398,0.548-1.895,1.576-1.893,3.063
		c0.023,28.918,0.017,57.835,0.019,86.753c0,2.161,0.879,3.04,3.028,3.041c16.719,0.001,33.439,0.001,50.158-0.001
		c1.95,0,3.152-1.098,2.93-2.737c-0.07-0.519-0.335-1.034-0.605-1.496c-2.235-3.82-4.454-7.65-6.759-11.428
		c-1.397-2.29-2.553-4.669-3.386-7.219c-0.611-1.87-1.312-3.713-2.006-5.555c-0.175-0.463-0.122-0.703,0.261-1.071
		c0.681-0.654,1.224-1.45,1.858-2.229c0.11,0.209,0.281,0.515,0.435,0.828c4.822,9.885,9.637,19.772,14.479,29.647
		c0.295,0.6,0.802,1.094,1.21,1.638c-24.704,0-49.409,0-74.113,0c0-31.078,0-62.156,0-93.234
		C37.861,68.438,42.656,68.438,47.451,68.438z"/>
	<path fill-rule="evenodd" clip-rule="evenodd" fill="#FFFFFF" d="M98.375,110.862c-2.258-0.459-4.294-0.899-6.341-1.283
		c-2.566-0.48-4.319,0.427-5.486,2.772c-0.053,0.105-0.136,0.196-0.244,0.351c-1.979-4.064-3.936-8.08-5.92-12.154
		c0.149,0.023,0.218,0.014,0.24,0.041c1.396,1.739,3.141,1.936,5.227,1.461c2.827-0.644,5.708-1.049,8.632-1.568
		C95.768,103.908,97.039,107.298,98.375,110.862z"/>
	<path fill-rule="evenodd" clip-rule="evenodd" fill="#FFFFFF" d="M96.93,120.058c-4.241,2.022-3.626,5.245-2.537,8.598
		c-0.098,0.009-0.196,0.019-0.294,0.027c-0.588-1.228-1.18-2.454-1.757-3.687c-0.042-0.09,0.011-0.235,0.045-0.348
		c0.528-1.699,1.062-3.398,1.619-5.182C94.906,119.649,95.755,119.82,96.93,120.058z"/>
	<path fill-rule="evenodd" clip-rule="evenodd" fill="#627D53" d="M101.231,84.508c0.123,3.744-2.91,6.931-6.716,7.057
		c-3.825,0.126-7.027-2.938-7.147-6.838c-0.112-3.662,2.956-6.869,6.701-7.004C97.942,77.584,101.103,80.577,101.231,84.508z"/>
</g>
</svg>
