<?xml version="1.0" encoding="utf-8"?>
<!-- Generator: Adobe Illustrator 16.0.0, SVG Export Plug-In . SVG Version: 6.00 Build 0)  -->
<!DOCTYPE svg PUBLIC "-//W3C//DTD SVG 1.1//EN" "http://www.w3.org/Graphics/SVG/1.1/DTD/svg11.dtd">
<svg version="1.1" id="Layer_1" xmlns="http://www.w3.org/2000/svg" xmlns:xlink="http://www.w3.org/1999/xlink" x="0px" y="0px"
	 width="157px" height="179px" viewBox="0 0 157 179" enable-background="new 0 0 157 179" xml:space="preserve">
<rect x="0.992" y="1" fill-rule="evenodd" clip-rule="evenodd" fill="#FFFFFF" stroke="#627D53" stroke-width="2" stroke-miterlimit="10" width="155" height="177"/>
<rect x="0.992" fill-rule="evenodd" clip-rule="evenodd" fill="#627D53" width="155" height="56"/>
<g>
	<path fill="#FFFFFF" d="M34.086,34.217c-0.526-0.57-0.789-1.374-0.789-2.413V24.66c0-1.038,0.263-1.843,0.789-2.413
		c0.525-0.57,1.289-0.855,2.29-0.855c1,0,1.764,0.285,2.29,0.855c0.525,0.57,0.788,1.375,0.788,2.413v1.406h-1.976v-1.539
		c0-0.823-0.349-1.235-1.045-1.235c-0.696,0-1.045,0.412-1.045,1.235v7.429c0,0.811,0.349,1.216,1.045,1.216
		c0.697,0,1.045-0.405,1.045-1.216v-2.033h1.976v1.881c0,1.039-0.263,1.843-0.788,2.413c-0.526,0.57-1.289,0.855-2.29,0.855
		C35.375,35.072,34.611,34.787,34.086,34.217z"/>
	<path fill="#FFFFFF" d="M41.41,34.198c-0.544-0.583-0.817-1.406-0.817-2.47v-6.992c0-1.064,0.272-1.887,0.817-2.47
		c0.544-0.582,1.33-0.874,2.356-0.874c1.026,0,1.812,0.292,2.356,0.874c0.545,0.583,0.817,1.406,0.817,2.47v6.992
		c0,1.064-0.272,1.887-0.817,2.47c-0.544,0.583-1.33,0.874-2.356,0.874C42.74,35.072,41.955,34.781,41.41,34.198z M44.849,31.861
		v-7.258c0-0.874-0.361-1.311-1.083-1.311c-0.722,0-1.083,0.437-1.083,1.311v7.258c0,0.874,0.361,1.311,1.083,1.311
		C44.488,33.172,44.849,32.735,44.849,31.861z"/>
	<path fill="#FFFFFF" d="M49.067,34.208c-0.532-0.577-0.798-1.403-0.798-2.479V21.582h2.09V31.88c0,0.456,0.092,0.786,0.275,0.988
		c0.184,0.203,0.447,0.304,0.789,0.304c0.342,0,0.605-0.101,0.789-0.304c0.184-0.202,0.275-0.532,0.275-0.988V21.582h2.014v10.146
		c0,1.077-0.266,1.903-0.798,2.479c-0.532,0.576-1.305,0.864-2.318,0.864S49.6,34.784,49.067,34.208z"/>
	<path fill="#FFFFFF" d="M55.983,21.582h2.622l2.033,7.961h0.038v-7.961h1.862v13.3h-2.147l-2.508-9.709h-0.038v9.709h-1.862V21.582
		z"/>
	<path fill="#FFFFFF" d="M65.73,23.482h-2.185v-1.9h6.46v1.9H67.82v11.4h-2.09V23.482z"/>
	<path fill="#FFFFFF" d="M71.012,21.582h3.097c1.077,0,1.862,0.25,2.356,0.75s0.741,1.27,0.741,2.308v0.817
		c0,1.38-0.456,2.254-1.368,2.622v0.038c0.506,0.152,0.865,0.463,1.074,0.931c0.209,0.469,0.313,1.096,0.313,1.881v2.337
		c0,0.38,0.012,0.688,0.038,0.922s0.089,0.465,0.19,0.693h-2.128c-0.076-0.215-0.126-0.418-0.152-0.608s-0.038-0.532-0.038-1.026
		v-2.432c0-0.608-0.098-1.032-0.294-1.273s-0.535-0.361-1.017-0.361h-0.722v5.7h-2.09V21.582z M73.862,27.282
		c0.418,0,0.731-0.107,0.94-0.323s0.313-0.576,0.313-1.083V24.85c0-0.481-0.085-0.829-0.256-1.045
		c-0.171-0.215-0.44-0.323-0.808-0.323h-0.95v3.8H73.862z"/>
	<path fill="#FFFFFF" d="M80.285,29.22l-2.527-7.638h2.223l1.425,4.883h0.038l1.425-4.883h2.033l-2.527,7.638v5.662h-2.09V29.22z"/>
	<path fill="#FFFFFF" d="M89.546,34.217c-0.526-0.57-0.789-1.374-0.789-2.413V24.66c0-1.038,0.263-1.843,0.789-2.413
		c0.525-0.57,1.289-0.855,2.29-0.855c1,0,1.764,0.285,2.29,0.855c0.525,0.57,0.788,1.375,0.788,2.413v1.406h-1.976v-1.539
		c0-0.823-0.349-1.235-1.045-1.235c-0.696,0-1.045,0.412-1.045,1.235v7.429c0,0.811,0.349,1.216,1.045,1.216
		c0.697,0,1.045-0.405,1.045-1.216v-2.033h1.976v1.881c0,1.039-0.263,1.843-0.788,2.413c-0.526,0.57-1.289,0.855-2.29,0.855
		C90.835,35.072,90.072,34.787,89.546,34.217z"/>
	<path fill="#FFFFFF" d="M96.167,21.582h2.09v11.4h3.439v1.9h-5.529V21.582z"/>
	<path fill="#FFFFFF" d="M103.426,34.208c-0.532-0.577-0.798-1.403-0.798-2.479V21.582h2.09V31.88c0,0.456,0.092,0.786,0.275,0.988
		c0.184,0.203,0.447,0.304,0.789,0.304c0.342,0,0.605-0.101,0.789-0.304c0.184-0.202,0.275-0.532,0.275-0.988V21.582h2.014v10.146
		c0,1.077-0.266,1.903-0.798,2.479c-0.532,0.576-1.305,0.864-2.318,0.864S103.958,34.784,103.426,34.208z"/>
	<path fill="#FFFFFF" d="M110.341,21.582h3.154c1.076,0,1.862,0.25,2.356,0.75s0.741,1.27,0.741,2.308v0.532
		c0,0.684-0.111,1.242-0.333,1.672c-0.222,0.431-0.56,0.741-1.016,0.931v0.038c1.038,0.354,1.558,1.279,1.558,2.774v1.14
		c0,1.026-0.269,1.808-0.807,2.346c-0.539,0.539-1.327,0.808-2.366,0.808h-3.287V21.582z M113.249,26.997
		c0.418,0,0.731-0.108,0.94-0.323s0.313-0.576,0.313-1.083V24.85c0-0.481-0.085-0.829-0.256-1.045
		c-0.171-0.215-0.44-0.323-0.808-0.323h-1.007v3.515H113.249z M113.628,32.982c0.367,0,0.64-0.098,0.817-0.294
		s0.266-0.535,0.266-1.017v-1.159c0-0.608-0.104-1.029-0.313-1.263s-0.554-0.352-1.036-0.352h-0.931v4.085H113.628z"/>
	<path fill="#FFFFFF" d="M118.435,34.208c-0.52-0.577-0.779-1.403-0.779-2.479v-0.76h1.976v0.912c0,0.861,0.361,1.292,1.083,1.292
		c0.354,0,0.624-0.104,0.808-0.313c0.183-0.209,0.275-0.548,0.275-1.017c0-0.557-0.127-1.048-0.38-1.473
		c-0.254-0.424-0.722-0.934-1.406-1.529c-0.861-0.76-1.463-1.447-1.805-2.062c-0.342-0.614-0.513-1.308-0.513-2.081
		c0-1.051,0.266-1.865,0.798-2.441c0.532-0.576,1.305-0.865,2.318-0.865c1,0,1.758,0.289,2.271,0.865
		c0.513,0.577,0.77,1.403,0.77,2.479v0.551h-1.976v-0.684c0-0.456-0.089-0.789-0.266-0.998c-0.178-0.209-0.437-0.313-0.779-0.313
		c-0.697,0-1.045,0.424-1.045,1.273c0,0.481,0.13,0.931,0.39,1.349c0.259,0.418,0.731,0.924,1.416,1.52
		c0.874,0.76,1.476,1.451,1.805,2.071c0.33,0.621,0.494,1.349,0.494,2.185c0,1.089-0.269,1.925-0.808,2.508
		c-0.538,0.583-1.32,0.874-2.346,0.874C119.721,35.072,118.955,34.784,118.435,34.208z"/>
</g>
<g>
	<path fill-rule="evenodd" clip-rule="evenodd" fill="#627D53" d="M29.604,148.619c1.725-4.631,5.406-7.219,9.773-8.781
		c4.109-1.469,8.345-2.66,12.609-3.586c1.837-0.398,2.122-1.096,2.118-2.707c-0.042-19.646-0.028-39.293-0.027-58.939
		c0-3.414,0.735-4.668,2.729-4.658c1.982,0.01,2.949,1.299,2.648,4.697c-0.253,2.865,0.958,4.264,3.341,5.455
		c6.427,3.215,13.191,4.488,20.329,4.232c1.283-0.045,2.585,0.447,3.878,0.691c-0.796,1.229-1.312,2.889-2.433,3.615
		c-7.608,4.924-15.304,9.717-23.075,14.381c-1.464,0.879-2.023,1.678-2.007,3.357c0.083,8.705,0.036,17.412,0.043,26.117
		c0,0.752,0.067,1.504,0.107,2.354c4.738-0.332,9.331-1,13.908-0.906c11.077,0.227,22.149,0.773,33.219,1.287
		c1.745,0.08,3.499,0.553,5.188,1.045c1.399,0.41,3.153,1.084,2.764,2.83c-0.235,1.057-1.584,2.029-2.65,2.686
		c-1.014,0.625-2.365,0.678-3.466,1.197c-0.822,0.387-2.157,1.238-2.079,1.668c0.178,0.982,0.895,2.332,1.727,2.645
		c2.563,0.965,5.254,1.652,7.948,2.186c3.841,0.76,7.747,1.195,11.59,1.949c2.358,0.461,4.511,1.48,5.867,3.658
		c0,0.617,0,1.234,0,1.85c-1.74,1.193-3.333,3.029-5.245,3.465c-7.624,1.736-15.3,3.395-23.043,4.422
		c-16.002,2.127-32.072,2.754-48.137,0.451c-6.708-0.961-13.37-2.143-19.566-5.084c-3.725-1.77-6.837-4.145-8.058-8.34
		C29.604,150.775,29.604,149.697,29.604,148.619z M53.767,142.936c-1.989,0.789-4.003,1.326-5.736,2.342
		c-2.057,1.207-2.064,3.197-0.009,4.379c1.625,0.932,3.512,1.602,5.362,1.906c4.303,0.709,8.616,0.605,12.602-1.477
		c2.722-1.42,2.899-3.656,0.297-5.039c-1.961-1.039-4.225-1.51-6.458-2.27c-0.701,2.516,0.649,5.898-3.105,5.863
		C53.119,148.607,54.484,145.318,53.767,142.936z"/>
</g>
</svg>
