<?xml version="1.0" encoding="utf-8"?>
<!-- Generator: Adobe Illustrator 16.0.0, SVG Export Plug-In . SVG Version: 6.00 Build 0)  -->
<!DOCTYPE svg PUBLIC "-//W3C//DTD SVG 1.1//EN" "http://www.w3.org/Graphics/SVG/1.1/DTD/svg11.dtd">
<svg version="1.1" id="Layer_1" xmlns="http://www.w3.org/2000/svg" xmlns:xlink="http://www.w3.org/1999/xlink" x="0px" y="0px"
	 width="157px" height="179px" viewBox="0 0 157 179" enable-background="new 0 0 157 179" xml:space="preserve">
<rect x="1.483" y="1" fill-rule="evenodd" clip-rule="evenodd" fill="#FFFFFF" stroke="#627D53" stroke-width="2" stroke-miterlimit="10" width="155" height="177"/>
<rect x="1.483" fill-rule="evenodd" clip-rule="evenodd" fill="#627D53" width="155" height="56"/>
<g>
	<path fill="#FFFFFF" d="M38.693,34.207c-0.532-0.576-0.798-1.402-0.798-2.479v-6.992c0-1.077,0.266-1.903,0.798-2.48
		c0.532-0.576,1.305-0.864,2.318-0.864c1.013,0,1.786,0.288,2.318,0.864c0.532,0.577,0.798,1.403,0.798,2.48v1.14h-1.976v-1.272
		c0-0.875-0.361-1.312-1.083-1.312c-0.722,0-1.083,0.437-1.083,1.312v7.276c0,0.861,0.361,1.292,1.083,1.292
		c0.722,0,1.083-0.431,1.083-1.292v-2.603h-1.045v-1.9h3.021v4.352c0,1.076-0.266,1.902-0.798,2.479
		c-0.532,0.576-1.305,0.865-2.318,0.865C39.998,35.072,39.225,34.783,38.693,34.207z"/>
	<path fill="#FFFFFF" d="M46.141,34.197c-0.544-0.582-0.817-1.405-0.817-2.469v-6.992c0-1.064,0.272-1.888,0.817-2.471
		c0.544-0.582,1.33-0.874,2.356-0.874c1.026,0,1.812,0.292,2.356,0.874c0.545,0.583,0.817,1.406,0.817,2.471v6.992
		c0,1.063-0.272,1.887-0.817,2.469c-0.544,0.584-1.33,0.875-2.356,0.875C47.471,35.072,46.685,34.781,46.141,34.197z M49.58,31.861
		v-7.258c0-0.875-0.361-1.312-1.083-1.312c-0.722,0-1.083,0.437-1.083,1.312v7.258c0,0.873,0.361,1.311,1.083,1.311
		C49.219,33.172,49.58,32.734,49.58,31.861z"/>
	<path fill="#FFFFFF" d="M53.076,21.582h2.09v11.4h3.439v1.899h-5.529V21.582z"/>
	<path fill="#FFFFFF" d="M59.612,21.582h5.529v1.9h-3.439v3.705H64.4v1.899h-2.698v5.795h-2.09V21.582z"/>
	<path fill="#FFFFFF" d="M69.843,34.217c-0.526-0.57-0.789-1.374-0.789-2.413V24.66c0-1.039,0.263-1.844,0.789-2.413
		c0.525-0.57,1.289-0.855,2.29-0.855c1,0,1.764,0.285,2.29,0.855c0.525,0.569,0.788,1.374,0.788,2.413v1.406h-1.976v-1.539
		c0-0.824-0.349-1.235-1.045-1.235c-0.696,0-1.045,0.411-1.045,1.235v7.429c0,0.811,0.349,1.216,1.045,1.216
		c0.697,0,1.045-0.405,1.045-1.216v-2.033h1.976v1.881c0,1.039-0.263,1.843-0.788,2.413c-0.526,0.57-1.289,0.855-2.29,0.855
		C71.132,35.072,70.369,34.787,69.843,34.217z"/>
	<path fill="#FFFFFF" d="M77.167,34.197c-0.544-0.582-0.817-1.405-0.817-2.469v-6.992c0-1.064,0.272-1.888,0.817-2.471
		c0.544-0.582,1.33-0.874,2.356-0.874c1.026,0,1.812,0.292,2.356,0.874c0.545,0.583,0.817,1.406,0.817,2.471v6.992
		c0,1.063-0.272,1.887-0.817,2.469c-0.544,0.584-1.33,0.875-2.356,0.875C78.498,35.072,77.712,34.781,77.167,34.197z M80.606,31.861
		v-7.258c0-0.875-0.361-1.312-1.083-1.312c-0.722,0-1.083,0.437-1.083,1.312v7.258c0,0.873,0.361,1.311,1.083,1.311
		C80.246,33.172,80.606,32.734,80.606,31.861z"/>
	<path fill="#FFFFFF" d="M84.825,34.207c-0.532-0.576-0.798-1.402-0.798-2.479V21.582h2.09V31.88c0,0.456,0.092,0.786,0.275,0.987
		c0.184,0.203,0.447,0.305,0.789,0.305c0.342,0,0.605-0.102,0.789-0.305c0.184-0.201,0.275-0.531,0.275-0.987V21.582h2.014v10.146
		c0,1.076-0.266,1.902-0.798,2.479c-0.532,0.576-1.305,0.865-2.318,0.865S85.357,34.783,84.825,34.207z"/>
	<path fill="#FFFFFF" d="M91.74,21.582h3.097c1.077,0,1.862,0.25,2.356,0.75c0.494,0.501,0.741,1.271,0.741,2.309v0.817
		c0,1.38-0.456,2.255-1.368,2.622v0.037c0.506,0.152,0.865,0.463,1.074,0.932s0.313,1.096,0.313,1.881v2.337
		c0,0.38,0.012,0.688,0.038,0.922s0.089,0.466,0.19,0.693h-2.128c-0.076-0.216-0.126-0.418-0.152-0.608
		c-0.025-0.189-0.038-0.531-0.038-1.025v-2.432c0-0.608-0.098-1.033-0.294-1.273s-0.535-0.361-1.017-0.361h-0.722v5.7h-2.09V21.582z
		 M94.59,27.281c0.418,0,0.731-0.107,0.94-0.322s0.313-0.576,0.313-1.083V24.85c0-0.48-0.085-0.829-0.256-1.045
		c-0.171-0.215-0.44-0.322-0.808-0.322h-0.95v3.799H94.59z"/>
	<path fill="#FFFFFF" d="M99.815,34.207c-0.52-0.576-0.779-1.402-0.779-2.479v-0.761h1.976v0.912c0,0.861,0.361,1.292,1.083,1.292
		c0.354,0,0.624-0.104,0.808-0.313c0.183-0.209,0.275-0.548,0.275-1.017c0-0.557-0.127-1.048-0.38-1.473
		c-0.254-0.424-0.722-0.934-1.406-1.529c-0.861-0.76-1.463-1.447-1.805-2.062c-0.342-0.614-0.513-1.308-0.513-2.081
		c0-1.051,0.266-1.864,0.798-2.441c0.532-0.576,1.305-0.864,2.318-0.864c1,0,1.758,0.288,2.271,0.864
		c0.513,0.577,0.77,1.403,0.77,2.48v0.551h-1.976v-0.684c0-0.457-0.089-0.789-0.266-0.998c-0.178-0.209-0.437-0.313-0.779-0.313
		c-0.697,0-1.045,0.425-1.045,1.272c0,0.482,0.13,0.932,0.39,1.35c0.259,0.418,0.731,0.924,1.416,1.52
		c0.874,0.76,1.476,1.451,1.805,2.071c0.33,0.62,0.494,1.349,0.494,2.185c0,1.09-0.269,1.926-0.808,2.508
		c-0.538,0.584-1.32,0.875-2.346,0.875C101.101,35.072,100.335,34.783,99.815,34.207z"/>
	<path fill="#FFFFFF" d="M106.465,21.582h5.7v1.9h-3.61v3.515h2.869v1.899h-2.869v4.086h3.61v1.899h-5.7V21.582z"/>
	<path fill="#FFFFFF" d="M113.818,34.207c-0.52-0.576-0.779-1.402-0.779-2.479v-0.761h1.976v0.912c0,0.861,0.361,1.292,1.083,1.292
		c0.354,0,0.624-0.104,0.808-0.313c0.183-0.209,0.275-0.548,0.275-1.017c0-0.557-0.127-1.048-0.38-1.473
		c-0.254-0.424-0.722-0.934-1.406-1.529c-0.861-0.76-1.463-1.447-1.805-2.062c-0.342-0.614-0.513-1.308-0.513-2.081
		c0-1.051,0.266-1.864,0.798-2.441c0.532-0.576,1.305-0.864,2.318-0.864c1,0,1.758,0.288,2.271,0.864
		c0.513,0.577,0.77,1.403,0.77,2.48v0.551h-1.976v-0.684c0-0.457-0.089-0.789-0.266-0.998c-0.178-0.209-0.437-0.313-0.779-0.313
		c-0.697,0-1.045,0.425-1.045,1.272c0,0.482,0.13,0.932,0.39,1.35c0.259,0.418,0.731,0.924,1.416,1.52
		c0.874,0.76,1.476,1.451,1.805,2.071c0.33,0.62,0.494,1.349,0.494,2.185c0,1.09-0.269,1.926-0.808,2.508
		c-0.538,0.584-1.32,0.875-2.346,0.875C115.104,35.072,114.338,34.783,113.818,34.207z"/>
</g>
<g>
	<path fill-rule="evenodd" clip-rule="evenodd" fill="#627D53" d="M83.671,157.582c-0.478-0.154-0.983-0.251-1.428-0.471
		c-2.07-1.021-2.921-3.541-1.88-5.602c1.35-2.672,2.736-5.326,4.109-7.987c1.36-2.637,2.723-5.272,4.078-7.912
		c0.053-0.104,0.063-0.258,0.034-0.373c-1.552-6.008-3.11-12.015-4.668-18.021c-0.651-2.511-1.28-5.027-1.964-7.528
		c-0.291-1.063-0.452-2.113-0.203-3.198c0.465-2.026,1.663-3.434,3.566-4.271c1.507-0.662,2.997-1.365,4.494-2.051
		c1.867-0.856,3.735-1.712,5.602-2.568c0.063-0.029,0.123-0.065,0.228-0.121c-1.007-0.543-1.982-1.068-2.982-1.607
		c0.801-2.119,0.979-4.29,0.566-6.567c0.488,0.287,0.927,0.544,1.365,0.804c2.986,1.774,5.973,3.547,8.958,5.323
		c1.146,0.682,1.762,1.696,1.737,3.028c-0.025,1.32-0.654,2.34-1.839,2.929c-0.797,0.396-1.65,0.683-2.484,1.003
		c-1.752,0.674-3.507,1.338-5.26,2.007c-0.065,0.024-0.128,0.055-0.214,0.092c0.165,0.64,0.326,1.272,0.49,1.903
		c0.709,2.734,1.394,5.475,2.138,8.198c0.588,2.152,0.882,4.328,0.685,6.551c-0.13,1.465-0.334,2.924-0.515,4.384
		c-0.176,1.425-0.364,2.849-0.549,4.272c-0.222,1.715-0.447,3.429-0.669,5.143c-0.098,0.756-0.187,1.513-0.295,2.268
		c-0.031,0.215-0.086,0.438-0.182,0.631c-2.807,5.646-5.627,11.286-8.426,16.937c-0.413,0.835-0.888,1.593-1.684,2.108
		c-0.52,0.337-1.083,0.56-1.698,0.65c-0.051,0.008-0.099,0.031-0.148,0.048C84.311,157.582,83.991,157.582,83.671,157.582z"/>
	<path fill-rule="evenodd" clip-rule="evenodd" fill="#627D53" d="M107.323,157.582c-0.346-0.099-0.704-0.169-1.037-0.301
		c-1.179-0.467-1.977-1.319-2.42-2.501c-1.136-3.023-2.265-6.05-3.397-9.074c-0.553-1.476-1.109-2.95-1.654-4.429
		c-0.037-0.099-0.026-0.244,0.02-0.341c0.29-0.607,0.564-1.226,0.904-1.805c0.355-0.604,0.351-1.273,0.442-1.924
		c0.201-1.439,0.376-2.882,0.563-4.323c0.205-1.582,0.411-3.164,0.616-4.746c0.111-0.861,0.221-1.723,0.333-2.584
		c0.006-0.052,0.026-0.101,0.056-0.212c0.26,0.688,0.5,1.322,0.74,1.956c2.72,7.191,5.44,14.384,8.16,21.576
		c0.388,1.025,0.785,2.049,1.148,3.083c0.889,2.536-0.685,5.148-3.341,5.575c-0.042,0.006-0.08,0.031-0.12,0.049
		C107.998,157.582,107.661,157.582,107.323,157.582z"/>
	<path fill-rule="evenodd" clip-rule="evenodd" fill="#627D53" d="M52.745,111.27c0.701,0.659,1.41,1.277,2.062,1.95
		c1.07,1.104,2.048,2.286,2.821,3.623c0.313,0.54,0.568,1.104,0.586,1.744c0.018,0.62-0.191,1.141-0.644,1.571
		c-1.471,1.402-3.23,2.009-5.243,1.882c-3.036-0.191-5.611-2.541-6.106-5.568c-0.366-2.237,0.204-4.221,1.791-5.842
		c0.614-0.627,1.379-1.108,2.096-1.628c4.209-3.048,8.424-6.087,12.638-9.129c3.249-2.347,6.498-4.693,9.75-7.035
		c0.212-0.153,0.455-0.266,0.691-0.401c-0.417-4.717,2.922-8.398,6.825-9.103c4.183-0.756,8.121,1.498,9.56,5.426
		c1.384,3.78-0.202,8.179-3.658,10.153c-2.045,1.168-4.211,1.485-6.488,0.873s-3.983-1.987-5.189-4.034
		C67.055,100.937,59.892,106.108,52.745,111.27z M50.206,113.615c-0.843,1.235-0.88,3.036,0.377,4.191
		c1.217,1.118,3.05,0.786,3.795,0.205C53.198,116.356,51.861,114.852,50.206,113.615z"/>
	<path fill-rule="evenodd" clip-rule="evenodd" fill="#627D53" d="M50.206,113.615c1.655,1.236,2.992,2.741,4.172,4.396
		c-0.745,0.581-2.578,0.913-3.795-0.205C49.325,116.651,49.362,114.851,50.206,113.615z"/>
</g>
</svg>
