<?xml version="1.0" encoding="utf-8"?>
<!-- Generator: Adobe Illustrator 16.0.0, SVG Export Plug-In . SVG Version: 6.00 Build 0)  -->
<!DOCTYPE svg PUBLIC "-//W3C//DTD SVG 1.1//EN" "http://www.w3.org/Graphics/SVG/1.1/DTD/svg11.dtd">
<svg version="1.1" id="Layer_1" xmlns="http://www.w3.org/2000/svg" xmlns:xlink="http://www.w3.org/1999/xlink" x="0px" y="0px"
	 width="157px" height="179px" viewBox="0 0 157 179" enable-background="new 0 0 157 179" xml:space="preserve">
<rect x="1.975" y="1" fill-rule="evenodd" clip-rule="evenodd" fill="#FFFFFF" stroke="#627D53" stroke-width="2" stroke-miterlimit="10" width="155" height="177"/>
<rect x="1.975" fill-rule="evenodd" clip-rule="evenodd" fill="#627D53" width="155" height="56"/>
<g>
	<path fill="#FFFFFF" d="M38.303,34.207c-0.52-0.576-0.779-1.402-0.779-2.479v-0.761H39.5v0.912c0,0.861,0.361,1.292,1.083,1.292
		c0.354,0,0.624-0.104,0.808-0.313c0.183-0.209,0.275-0.548,0.275-1.017c0-0.557-0.127-1.048-0.38-1.473
		c-0.254-0.424-0.722-0.934-1.406-1.529c-0.861-0.76-1.463-1.447-1.805-2.062c-0.342-0.614-0.513-1.308-0.513-2.081
		c0-1.051,0.266-1.864,0.798-2.441c0.532-0.576,1.305-0.864,2.318-0.864c1,0,1.758,0.288,2.271,0.864
		c0.513,0.577,0.77,1.403,0.77,2.48v0.551h-1.976v-0.684c0-0.457-0.089-0.789-0.266-0.998c-0.178-0.209-0.437-0.313-0.779-0.313
		c-0.697,0-1.045,0.425-1.045,1.272c0,0.482,0.13,0.932,0.39,1.35c0.259,0.418,0.731,0.924,1.416,1.52
		c0.874,0.76,1.476,1.451,1.805,2.071c0.33,0.62,0.494,1.349,0.494,2.185c0,1.09-0.269,1.926-0.808,2.508
		c-0.538,0.584-1.32,0.875-2.346,0.875C39.589,35.072,38.823,34.783,38.303,34.207z"/>
	<path fill="#FFFFFF" d="M44.953,21.582h3.078c1.039,0,1.817,0.279,2.337,0.836c0.52,0.558,0.779,1.375,0.779,2.451v1.311
		c0,1.077-0.26,1.895-0.779,2.451c-0.52,0.558-1.298,0.836-2.337,0.836h-0.988v5.415h-2.09V21.582z M48.031,27.566
		c0.342,0,0.599-0.095,0.77-0.285c0.171-0.189,0.256-0.512,0.256-0.969v-1.576c0-0.457-0.085-0.779-0.256-0.97
		s-0.427-0.284-0.77-0.284h-0.988v4.084H48.031z"/>
	<path fill="#FFFFFF" d="M52.952,34.197c-0.544-0.582-0.817-1.405-0.817-2.469v-6.992c0-1.064,0.272-1.888,0.817-2.471
		c0.544-0.582,1.33-0.874,2.356-0.874c1.026,0,1.812,0.292,2.356,0.874c0.545,0.583,0.817,1.406,0.817,2.471v6.992
		c0,1.063-0.272,1.887-0.817,2.469c-0.544,0.584-1.33,0.875-2.356,0.875C54.282,35.072,53.496,34.781,52.952,34.197z M56.391,31.861
		v-7.258c0-0.875-0.361-1.312-1.083-1.312c-0.722,0-1.083,0.437-1.083,1.312v7.258c0,0.873,0.361,1.311,1.083,1.311
		C56.03,33.172,56.391,32.734,56.391,31.861z"/>
	<path fill="#FFFFFF" d="M59.887,21.582h3.097c1.077,0,1.862,0.25,2.356,0.75c0.494,0.501,0.741,1.271,0.741,2.309v0.817
		c0,1.38-0.456,2.255-1.368,2.622v0.037c0.506,0.152,0.865,0.463,1.074,0.932S66.1,30.145,66.1,30.93v2.337
		c0,0.38,0.012,0.688,0.038,0.922s0.089,0.466,0.19,0.693H64.2c-0.076-0.216-0.126-0.418-0.152-0.608
		c-0.025-0.189-0.038-0.531-0.038-1.025v-2.432c0-0.608-0.098-1.033-0.294-1.273s-0.535-0.361-1.017-0.361h-0.722v5.7h-2.09V21.582z
		 M62.737,27.281c0.418,0,0.731-0.107,0.94-0.322s0.313-0.576,0.313-1.083V24.85c0-0.48-0.085-0.829-0.256-1.045
		c-0.171-0.215-0.44-0.322-0.808-0.322h-0.95v3.799H62.737z"/>
	<path fill="#FFFFFF" d="M69.14,23.482h-2.185v-1.9h6.46v1.9H71.23v11.399h-2.09V23.482z"/>
	<path fill="#FFFFFF" d="M77.879,34.207c-0.52-0.576-0.779-1.402-0.779-2.479v-0.761h1.976v0.912c0,0.861,0.361,1.292,1.083,1.292
		c0.354,0,0.624-0.104,0.808-0.313c0.183-0.209,0.275-0.548,0.275-1.017c0-0.557-0.127-1.048-0.38-1.473
		c-0.254-0.424-0.722-0.934-1.406-1.529c-0.861-0.76-1.463-1.447-1.805-2.062c-0.342-0.614-0.513-1.308-0.513-2.081
		c0-1.051,0.266-1.864,0.798-2.441c0.532-0.576,1.305-0.864,2.318-0.864c1,0,1.758,0.288,2.271,0.864
		c0.513,0.577,0.77,1.403,0.77,2.48v0.551h-1.976v-0.684c0-0.457-0.089-0.789-0.266-0.998c-0.178-0.209-0.437-0.313-0.779-0.313
		c-0.697,0-1.045,0.425-1.045,1.272c0,0.482,0.13,0.932,0.39,1.35c0.259,0.418,0.731,0.924,1.416,1.52
		c0.874,0.76,1.476,1.451,1.805,2.071c0.33,0.62,0.494,1.349,0.494,2.185c0,1.09-0.269,1.926-0.808,2.508
		c-0.538,0.584-1.32,0.875-2.346,0.875C79.165,35.072,78.399,34.783,77.879,34.207z"/>
	<path fill="#FFFFFF" d="M86.164,23.482h-2.185v-1.9h6.46v1.9h-2.185v11.399h-2.09V23.482z"/>
	<path fill="#FFFFFF" d="M92.035,34.197c-0.544-0.582-0.817-1.405-0.817-2.469v-6.992c0-1.064,0.272-1.888,0.817-2.471
		c0.544-0.582,1.33-0.874,2.356-0.874c1.026,0,1.812,0.292,2.356,0.874c0.545,0.583,0.817,1.406,0.817,2.471v6.992
		c0,1.063-0.272,1.887-0.817,2.469c-0.544,0.584-1.33,0.875-2.356,0.875C93.365,35.072,92.579,34.781,92.035,34.197z M95.474,31.861
		v-7.258c0-0.875-0.361-1.312-1.083-1.312c-0.722,0-1.083,0.437-1.083,1.312v7.258c0,0.873,0.361,1.311,1.083,1.311
		C95.113,33.172,95.474,32.734,95.474,31.861z"/>
	<path fill="#FFFFFF" d="M98.97,21.582h3.097c1.077,0,1.862,0.25,2.356,0.75c0.494,0.501,0.741,1.271,0.741,2.309v0.817
		c0,1.38-0.456,2.255-1.368,2.622v0.037c0.506,0.152,0.865,0.463,1.074,0.932s0.313,1.096,0.313,1.881v2.337
		c0,0.38,0.012,0.688,0.038,0.922s0.089,0.466,0.19,0.693h-2.128c-0.076-0.216-0.126-0.418-0.152-0.608
		c-0.025-0.189-0.038-0.531-0.038-1.025v-2.432c0-0.608-0.098-1.033-0.294-1.273s-0.535-0.361-1.017-0.361h-0.722v5.7h-2.09V21.582z
		 M101.82,27.281c0.418,0,0.731-0.107,0.94-0.322s0.313-0.576,0.313-1.083V24.85c0-0.48-0.085-0.829-0.256-1.045
		c-0.171-0.215-0.44-0.322-0.808-0.322h-0.95v3.799H101.82z"/>
	<path fill="#FFFFFF" d="M106.627,21.582h5.7v1.9h-3.61v3.515h2.869v1.899h-2.869v4.086h3.61v1.899h-5.7V21.582z"/>
	<path fill="#FFFFFF" d="M113.979,34.207c-0.52-0.576-0.779-1.402-0.779-2.479v-0.761h1.976v0.912c0,0.861,0.361,1.292,1.083,1.292
		c0.354,0,0.624-0.104,0.808-0.313c0.183-0.209,0.275-0.548,0.275-1.017c0-0.557-0.127-1.048-0.38-1.473
		c-0.254-0.424-0.722-0.934-1.406-1.529c-0.861-0.76-1.463-1.447-1.805-2.062c-0.342-0.614-0.513-1.308-0.513-2.081
		c0-1.051,0.266-1.864,0.798-2.441c0.532-0.576,1.305-0.864,2.318-0.864c1,0,1.758,0.288,2.271,0.864
		c0.513,0.577,0.77,1.403,0.77,2.48v0.551h-1.976v-0.684c0-0.457-0.089-0.789-0.266-0.998c-0.178-0.209-0.437-0.313-0.779-0.313
		c-0.697,0-1.045,0.425-1.045,1.272c0,0.482,0.13,0.932,0.39,1.35c0.259,0.418,0.731,0.924,1.416,1.52
		c0.874,0.76,1.476,1.451,1.805,2.071c0.33,0.62,0.494,1.349,0.494,2.185c0,1.09-0.269,1.926-0.808,2.508
		c-0.538,0.584-1.32,0.875-2.346,0.875C115.265,35.072,114.499,34.783,113.979,34.207z"/>
</g>
<g>
	<path fill-rule="evenodd" clip-rule="evenodd" fill="#9CC184" d="M30.169,101.401c2.552,0.336,5.138,0.324,7.68,0.773
		c5.803,1.023,10.954,3.423,15.477,7.201c0.582,0.485,0.618,0.738,0.062,1.29c-4.801,4.766-9.569,9.564-14.346,14.354
		c-2.79-2.921-4.814-6.329-6.357-10.037c-1.205-2.896-1.897-5.928-2.308-9.029c-0.023-0.18,0.029-0.398-0.207-0.491
		C30.169,104.108,30.169,102.755,30.169,101.401z"/>
	<path fill-rule="evenodd" clip-rule="evenodd" fill="#9CC184" d="M41.495,127.477c4.845-4.857,9.693-9.711,14.528-14.578
		c0.378-0.381,0.582-0.32,0.905,0.059c4.061,4.779,6.599,10.251,7.465,16.468c0.312,2.236,0.256,2.244,2.402,1.977
		c1.32-0.164,1.289-0.16,1.139-1.506c-0.714-6.423-3.087-12.182-6.922-17.354c-0.537-0.724-1.112-1.422-1.72-2.086
		c-0.37-0.405-0.214-0.627,0.104-0.939c1.493-1.468,2.981-2.941,4.438-4.445c0.399-0.412,0.626-0.352,0.993,0.023
		c1.485,1.522,2.998,3.016,4.501,4.52c0.182,0.183,0.334,0.453,0.554,0.529c1.178,0.408,0.869,1.064,0.487,1.922
		c-1.382,3.097-2.196,6.343-2.519,9.732c-0.147,1.545-0.167,3.059,0.02,4.588c-0.039,1.428,0.318,2.805,0.521,4.202
		c0.095,0.653,0.404,0.729,0.98,0.697c4.831-0.278,9.565,0.368,14.189,1.726c6.848,2.011,12.812,5.579,18.029,10.437
		c0.936,0.871,1.781,1.856,2.9,2.521c0.187,0.215,0.359,0.446,0.564,0.642c1.966,1.876,2.166,2.942,0.984,5.317
		c-2.676,2.013-5.313,4.076-8.097,5.941c-5.964,3.996-12.513,6.449-19.661,7.121c-6.56,0.617-13.122,0.631-19.595-0.865
		c-6.074-1.404-11.57-4.064-16.561-7.783c-1.705-1.271-3.415-2.533-5.099-3.83c-1.872-1.443-2.038-3.741-0.321-5.35
		c3.384-3.169,6.711-6.413,10.656-8.915c2.065-1.31,4.194-2.507,6.67-3.512C49.257,133.101,45.058,130.824,41.495,127.477z
		 M88.146,148.357c-0.004-1.038-0.662-1.664-1.766-1.787c-1.486-0.166-1.486-0.166-1.622-1.587
		c-0.003-0.032-0.008-0.063-0.012-0.096c-0.13-1.081-0.795-1.73-1.733-1.694c-0.936,0.035-1.548,0.74-1.591,1.83
		c-0.06,1.534-0.06,1.534-1.641,1.534c-0.097,0-0.193,0-0.29,0c-1.533,0-1.533,0-1.581-1.494c-0.036-1.106-0.619-1.811-1.549-1.868
		c-0.97-0.061-1.662,0.619-1.781,1.748c-0.17,1.614-0.17,1.614-1.781,1.614c-0.032,0-0.064,0-0.097,0c-1.511,0-1.511,0-1.587-1.48
		c-0.059-1.144-0.7-1.868-1.665-1.885c-0.954-0.016-1.625,0.704-1.711,1.837c-0.117,1.528-0.117,1.528-1.642,1.528
		c-0.129,0-0.258,0-0.387,0c-1.338,0-1.335-0.001-1.42-1.379c-0.014-0.224-0.05-0.448-0.1-0.667c-0.2-0.878-0.78-1.312-1.658-1.313
		c-0.831-0.001-1.489,0.646-1.578,1.532c-0.042,0.415-0.017,0.837-0.023,1.255c-0.004,0.265-0.009,0.554-0.37,0.554
		c-0.964,0.001-2.002,0.194-2.868-0.103c-0.634-0.219-0.135-1.221-0.295-1.852c-0.016-0.063-0.009-0.132-0.032-0.19
		c-0.295-0.768-0.828-1.236-1.676-1.193c-0.793,0.04-1.545,0.51-1.465,1.253c0.194,1.808-0.616,2.259-2.229,2.244
		c-0.813-0.008-1.375,0.871-1.283,1.648c0.102,0.862,0.586,1.421,1.473,1.539c0.38,0.052,0.774,0.052,1.157,0.021
		c0.572-0.044,0.853,0.156,0.794,0.76c-0.024,0.255-0.009,0.516-0.001,0.772c0.034,1.166,0.649,1.88,1.625,1.892
		c0.953,0.011,1.627-0.745,1.663-1.864c0.05-1.553,0.05-1.553,1.607-1.553c0.097,0,0.193,0,0.29,0c1.556,0,1.556,0,1.613,1.539
		c0.041,1.098,0.626,1.795,1.568,1.869c0.898,0.071,1.603-0.614,1.776-1.669c0.091-0.557-0.282-1.332,0.229-1.622
		c0.469-0.267,1.187-0.099,1.794-0.116c0.29-0.008,0.581,0.015,0.87-0.003c0.413-0.026,0.589,0.148,0.567,0.562
		c-0.017,0.321-0.016,0.646,0.002,0.967c0.064,1.138,0.727,1.881,1.671,1.89c0.942,0.009,1.633-0.738,1.701-1.857
		c0.021-0.354,0.002-0.709,0.009-1.063c0.003-0.189-0.001-0.453,0.237-0.457c0.995-0.019,2.035-0.166,2.971,0.074
		c0.551,0.141,0.111,1.047,0.267,1.586c0.018,0.062,0.024,0.126,0.034,0.189c0.153,0.945,0.834,1.561,1.688,1.524
		c0.861-0.036,1.504-0.704,1.587-1.649c0.155-1.763,0.155-1.763,1.979-1.763c0.064,0,0.129,0,0.193,0
		c1.329,0,1.347,0.001,1.338,1.328c-0.006,0.833,0.176,1.551,0.997,1.923c1.211,0.547,2.273-0.314,2.355-1.889
		c0.069-1.332,0.069-1.33,1.423-1.364c0.225-0.006,0.459,0.005,0.671-0.056C87.666,149.632,88.094,149.087,88.146,148.357z"/>
	<path fill-rule="evenodd" clip-rule="evenodd" fill="#9CC184" d="M39.039,79.326c7.335,7.335,14.658,14.683,22.024,21.987
		c0.723,0.717,0.665,1.075-0.031,1.714c-1.256,1.154-2.467,2.366-3.606,3.635c-0.676,0.754-1.101,0.821-1.915,0.113
		c-4.381-3.808-9.459-6.289-15.104-7.602c-3.273-0.761-6.614-0.982-9.962-1.098c0.784-6.436,3.225-12.177,7.249-17.25
		C38.11,80.302,38.589,79.825,39.039,79.326z"/>
	<path fill-rule="evenodd" clip-rule="evenodd" fill="#9CC184" d="M65.776,89.113c1.036,1.633,2.154,3.205,3.453,4.637
		c0.38,0.42,0.416,0.675-0.02,1.095c-1.507,1.45-2.981,2.936-4.443,4.432c-0.346,0.354-0.547,0.371-0.909,0.007
		c-7.446-7.48-14.904-14.949-22.361-22.42c2.849-2.714,6.161-4.713,9.771-6.221c2.853-1.192,5.816-2.011,8.908-2.301"/>
	<path fill-rule="evenodd" clip-rule="evenodd" fill="#9CC184" d="M87.108,76.862c-4.014,4.044-8.028,8.088-12.042,12.132
		c-0.771,0.776-1.582,1.519-2.31,2.334c-0.49,0.548-0.758,0.418-1.178-0.081c-3.721-4.431-6.128-9.473-7.191-15.164
		c-0.492-2.634-0.507-5.311-0.829-7.958c2.806-0.17,5.564,0.171,8.297,0.779c5.196,1.156,9.832,3.472,13.978,6.789
		C86.282,76.053,86.684,76.471,87.108,76.862z"/>
	<path fill-rule="evenodd" clip-rule="evenodd" fill="#9CC184" d="M97.267,93.658c-3.447,0.288-6.835,0.847-10.06,2.168
		c-2.2,0.777-4.179,1.982-6.154,3.193c-1.842-1.338-3.841-2.444-5.603-3.909c-0.761-0.632-0.751-0.937-0.056-1.624
		c4.753-4.696,9.457-9.441,14.176-14.172C93.354,83.442,95.984,88.188,97.267,93.658z"/>
	<path fill-rule="evenodd" clip-rule="evenodd" fill="#9CC184" d="M78.156,101.232c-1.191,1.293-2.53,2.448-3.595,3.859
		c-0.21,0.278-0.41,0.565-0.615,0.849c-0.139,0.177-0.283,0.35-0.414,0.532c-1.036,1.44-1.035,1.44-2.261,0.215
		c-1.321-1.32-2.631-2.653-3.97-3.956c-0.388-0.377-0.529-0.622-0.058-1.075c1.51-1.45,2.975-2.946,4.45-4.433
		c0.276-0.278,0.497-0.456,0.875-0.104C74.272,98.702,76.216,99.965,78.156,101.232z"/>
	<path fill-rule="evenodd" clip-rule="evenodd" fill="#627D53" d="M30.169,98.888c0.379-0.173,0.069-0.58,0.275-0.812
		c3.349,0.115,6.689,0.337,9.962,1.098c5.645,1.313,10.723,3.794,15.104,7.602c0.813,0.708,1.239,0.641,1.915-0.113
		c1.139-1.269,2.35-2.48,3.606-3.635c0.696-0.639,0.754-0.997,0.031-1.714c-7.366-7.305-14.688-14.652-22.024-21.987
		c0.724-0.916,1.551-1.729,2.458-2.463c7.457,7.471,14.915,14.939,22.361,22.42c0.362,0.364,0.563,0.348,0.909-0.007
		c1.462-1.496,2.936-2.981,4.443-4.432c0.436-0.42,0.4-0.675,0.02-1.095c-1.299-1.432-2.417-3.004-3.453-4.637
		c-4.024-6.343-5.386-13.402-5.601-20.771c1.112-0.309,2.252-0.182,3.382-0.217c0.322,2.647,0.337,5.324,0.829,7.958
		c1.063,5.691,3.471,10.733,7.191,15.164c0.419,0.499,0.688,0.629,1.178,0.081c0.728-0.815,1.538-1.558,2.31-2.334
		c4.015-4.044,8.028-8.088,12.042-12.132c0.916,0.722,1.735,1.542,2.463,2.452c-4.719,4.73-9.423,9.476-14.176,14.172
		c-0.696,0.688-0.705,0.992,0.056,1.624c1.761,1.465,3.76,2.571,5.603,3.909c-0.966,0.737-1.932,1.475-2.897,2.213
		c-1.939-1.268-3.883-2.53-5.587-4.113c-0.378-0.352-0.599-0.174-0.875,0.104c-1.475,1.486-2.94,2.982-4.45,4.433
		c-0.472,0.453-0.331,0.698,0.058,1.075c1.339,1.303,2.649,2.636,3.97,3.956c1.226,1.226,1.225,1.226,2.261-0.215
		c0.131-0.183,0.275-0.355,0.413-0.532c0.75,0.364,1.484,0.769,2.254,1.085c1.021,0.421,1.622,1.134,2.004,2.176
		c0.783,2.137,1.683,4.23,2.512,6.351c0.175,0.448,0.422,0.735,0.886,0.914c1.945,0.751,3.88,1.524,5.806,2.323
		c0.439,0.182,0.75,0.13,1.137-0.133c2.5-1.693,5.011-3.371,7.538-5.024c0.454-0.297,0.649-0.602,0.637-1.157
		c-0.039-1.705-0.042-3.411,0-5.115c0.016-0.646-0.18-1.038-0.726-1.411c-2.786-1.903-5.541-3.852-8.303-5.79
		c-1.257-0.882-1.405-1.371-0.918-2.86c0.158-0.486,0.292-0.98,0.437-1.471c3.225-1.322,6.613-1.881,10.06-2.169
		c4.025-0.045,7.951,0.495,11.75,1.89c0.558,0.205,0.863,0.472,0.965,1.026c0.041,0.221,0.111,0.437,0.171,0.653
		c0.457,1.646,0.319,2.04-1.064,3.009c-2.741,1.92-5.473,3.854-8.234,5.745c-0.509,0.349-0.718,0.696-0.7,1.322
		c0.049,1.706,0.033,3.415,0.007,5.122c-0.008,0.526,0.113,0.87,0.593,1.182c2.536,1.647,5.049,3.33,7.551,5.029
		c0.399,0.271,0.691,0.306,1.118,0.076c1.3-0.702,2.615-1.38,3.949-2.016c0.514-0.245,0.765-0.584,0.916-1.124
		c0.927-3.31,1.885-6.609,2.838-9.912c0.423-1.465,0.841-1.682,2.305-1.816c1.359-0.126,2.239,0.331,3.075,1.407
		c3.709,4.774,5.903,10.13,6.483,16.146c0.013,0.129,0.019,0.258,0.033,0.386c0.315,2.959,0.276,3.017-2.495,4.11
		c-0.77,0.304-1.427,0.115-2.085-0.328c-2.775-1.868-5.573-3.704-8.338-5.588c-0.52-0.354-0.902-0.408-1.466-0.088
		c-1.229,0.696-2.495,1.33-3.774,1.932c-0.54,0.255-0.842,0.592-1.001,1.169c-0.793,2.88-1.604,5.756-2.451,8.62
		c-0.171,0.576-0.083,0.947,0.352,1.353c1.153,1.073,2.094,2.59,3.445,3.173c1.281,0.552,2.976,0.148,4.489,0.153
		c2.03,0.006,4.06,0.035,6.089-0.012c1.138-0.026,1.779,0.472,2.383,1.427c0.877,1.388,0.724,2.438-0.202,3.771
		c-4.013,5.777-9.291,9.816-15.949,12.067c-0.394,0.133-0.66,0.095-0.91-0.254c-0.336-0.471-0.714-0.911-1.073-1.363
		c1.182-2.376,0.982-3.442-0.984-5.318c-0.206-0.195-0.377-0.427-0.564-0.642c1.167-2.326,2.318-4.661,3.515-6.972
		c0.254-0.489,0.215-0.77-0.188-1.143c-0.898-0.832-1.765-1.7-2.599-2.596c-0.428-0.46-0.876-0.643-1.511-0.638
		c-3.77,0.029-7.541,0.016-11.311,0.014c-1.753,0-2.174-0.32-2.658-2.016c-0.908-3.183-1.834-6.36-2.708-9.552
		c-0.172-0.63-0.48-0.954-1.083-1.178c-1.686-0.626-3.357-1.293-5.011-1.999c-0.603-0.258-0.988-0.239-1.482,0.27
		c-2.2,2.266-4.452,4.48-6.688,6.71c-1.072,1.068-1.57,1.146-2.907,0.487c-0.662-0.325-1.326-0.647-1.989-0.971
		c-0.188-1.529-0.167-3.043-0.02-4.588c0.323-3.39,1.137-6.636,2.519-9.732c0.382-0.857,0.691-1.514-0.487-1.922
		c-0.22-0.076-0.372-0.347-0.554-0.529c-1.503-1.504-3.016-2.997-4.501-4.52c-0.367-0.375-0.593-0.436-0.993-0.023
		c-1.456,1.504-2.944,2.978-4.438,4.445c-0.317,0.313-0.474,0.534-0.104,0.939c0.607,0.664,1.183,1.362,1.72,2.086
		c3.835,5.173,6.208,10.932,6.922,17.354c0.149,1.346,0.181,1.342-1.139,1.506c-2.146,0.268-2.09,0.26-2.402-1.977
		c-0.866-6.217-3.404-11.688-7.465-16.468c-0.323-0.379-0.526-0.439-0.905-0.059c-4.834,4.867-9.683,9.721-14.528,14.578
		c-0.9-0.736-1.725-1.548-2.454-2.457c4.777-4.789,9.545-9.588,14.346-14.354c0.557-0.552,0.52-0.805-0.062-1.29
		c-4.523-3.778-9.673-6.178-15.477-7.201c-2.542-0.449-5.128-0.438-7.68-0.773C30.169,100.563,30.169,99.726,30.169,98.888z"/>
</g>
</svg>
