<?xml version="1.0" encoding="utf-8"?>
<!-- Generator: Adobe Illustrator 16.0.0, SVG Export Plug-In . SVG Version: 6.00 Build 0)  -->
<!DOCTYPE svg PUBLIC "-//W3C//DTD SVG 1.1//EN" "http://www.w3.org/Graphics/SVG/1.1/DTD/svg11.dtd">
<svg version="1.1" id="Layer_1" xmlns="http://www.w3.org/2000/svg" xmlns:xlink="http://www.w3.org/1999/xlink" x="0px" y="0px"
	 width="134.023px" height="152.98px" viewBox="0 0 134.023 152.98" enable-background="new 0 0 134.023 152.98"
	 xml:space="preserve">
<rect x="1.08" y="1.285" fill-rule="evenodd" clip-rule="evenodd" fill="#FFFFFF" width="131.962" height="150.693"/>
<rect x="1.08" y="1.285" fill="none" stroke="#235F30" stroke-width="2" stroke-miterlimit="10" width="131.962" height="150.693"/>
<rect x="1.931" y="0.776" fill-rule="evenodd" clip-rule="evenodd" fill="#235F30" width="131.963" height="47.677"/>
<g>
	<path fill="#FFFFFF" d="M27.337,20.088c-0.077-0.153-0.207-0.23-0.391-0.23c-0.138,0-0.253,0.046-0.345,0.138
		c-0.123,0.107-0.2,0.28-0.23,0.518c-0.031,0.238-0.035,0.491-0.012,0.759c0.023,0.269,0.073,0.533,0.149,0.793
		c0.077,0.261,0.161,0.468,0.253,0.621c0.199,0.276,0.456,0.544,0.771,0.805s0.648,0.529,1,0.805
		c0.353,0.276,0.698,0.579,1.035,0.909c0.337,0.33,0.621,0.709,0.851,1.139c0.322,0.552,0.521,1.2,0.598,1.943
		c0.076,0.744,0.019,1.464-0.173,2.162s-0.537,1.307-1.035,1.829c-0.499,0.521-1.162,0.843-1.99,0.966
		c-0.153,0.016-0.303,0.026-0.448,0.035c-0.146,0.007-0.303,0.011-0.472,0.011c-0.905,0-1.633-0.149-2.185-0.448
		c-0.552-0.299-0.974-0.705-1.265-1.219c-0.292-0.514-0.487-1.119-0.586-1.817s-0.157-1.438-0.172-2.22h3.542
		c0.015,0.246,0.023,0.518,0.023,0.817c0,0.299,0.015,0.579,0.046,0.839s0.088,0.479,0.173,0.655
		c0.084,0.177,0.218,0.265,0.402,0.265c0.214,0,0.356-0.084,0.425-0.253c0.069-0.168,0.104-0.498,0.104-0.989
		c0-0.276-0.015-0.521-0.046-0.736c-0.031-0.214-0.107-0.425-0.23-0.632c-0.123-0.207-0.307-0.426-0.552-0.656
		s-0.575-0.498-0.989-0.805c-0.491-0.368-0.905-0.717-1.242-1.047c-0.337-0.33-0.613-0.682-0.828-1.058
		c-0.215-0.376-0.372-0.794-0.472-1.254c-0.1-0.46-0.149-0.989-0.149-1.587c0.015-1.426,0.337-2.515,0.966-3.266
		c0.628-0.751,1.656-1.127,3.082-1.127c1.027,0,1.855,0.246,2.484,0.736c0.46,0.353,0.801,0.793,1.024,1.322
		c0.222,0.529,0.379,1.046,0.471,1.553c0.092,0.506,0.138,0.943,0.138,1.311c0,0.368,0,0.567,0,0.598h-3.496
		c-0.046-0.613-0.069-1.081-0.069-1.403C27.498,20.548,27.444,20.288,27.337,20.088z"/>
	<path fill="#FFFFFF" d="M39.849,30.806c-0.261,0.828-0.682,1.46-1.265,1.897c-0.583,0.437-1.334,0.655-2.254,0.655
		c-0.215,0-0.399-0.019-0.552-0.057c-0.153-0.038-0.269-0.073-0.345-0.104v4.255H32.65c0-0.215,0-0.376,0-0.483
		c0-0.107,0-0.295,0-0.563c0-0.269,0-0.675,0-1.219c0-0.544,0-1.361,0-2.449c0-1.089-0.004-2.515-0.012-4.278
		c-0.008-1.763-0.011-3.994-0.011-6.693h2.438v0.368c0.168-0.169,0.379-0.284,0.632-0.345c0.253-0.061,0.51-0.092,0.771-0.092
		c0.307,0,0.602,0.027,0.886,0.081c0.283,0.054,0.502,0.111,0.655,0.172c0.46,0.169,0.828,0.445,1.104,0.828
		s0.483,0.828,0.621,1.334c0.138,0.506,0.222,1.05,0.253,1.633c0.03,0.583,0.038,1.15,0.023,1.702
		c-0.031,0.659-0.039,1.296-0.023,1.909C40.002,29.971,39.956,30.454,39.849,30.806z M37.296,27.517c0-0.537-0.004-1-0.012-1.392
		s-0.039-0.713-0.092-0.966c-0.054-0.253-0.142-0.437-0.265-0.552c-0.123-0.115-0.299-0.172-0.529-0.172
		c-0.368,0.016-0.602,0.088-0.702,0.219c-0.1,0.13-0.165,0.295-0.195,0.494c0,1.166-0.004,2.101-0.012,2.806
		c-0.008,0.706,0.008,1.25,0.046,1.633c0.038,0.384,0.115,0.641,0.23,0.771c0.115,0.131,0.295,0.196,0.541,0.196h0.092
		c0.26-0.015,0.452-0.111,0.575-0.288s0.207-0.406,0.253-0.69c0.046-0.284,0.069-0.602,0.069-0.955
		C37.296,28.269,37.296,27.9,37.296,27.517z"/>
	<path fill="#FFFFFF" d="M48.934,27.425c0,0.644-0.02,1.284-0.058,1.92c-0.039,0.636-0.138,1.219-0.299,1.748
		c-0.161,0.529-0.407,0.985-0.736,1.368c-0.33,0.384-0.786,0.652-1.368,0.805c-0.123,0.031-0.28,0.054-0.472,0.069
		c-0.192,0.015-0.395,0.023-0.609,0.023c-0.215,0-0.426-0.008-0.633-0.023s-0.372-0.038-0.494-0.069
		c-0.675-0.168-1.192-0.425-1.553-0.771s-0.617-0.755-0.771-1.23c-0.153-0.475-0.241-1-0.265-1.576
		c-0.023-0.575-0.042-1.185-0.057-1.828c-0.016-0.751-0.008-1.495,0.023-2.231c0.03-0.736,0.157-1.399,0.379-1.989
		c0.222-0.59,0.59-1.065,1.104-1.426c0.514-0.36,1.246-0.541,2.196-0.541c0.767,0,1.388,0.104,1.863,0.31
		c0.475,0.207,0.843,0.541,1.104,1.001c0.26,0.46,0.433,1.054,0.518,1.782C48.891,25.497,48.934,26.382,48.934,27.425z
		 M44.379,25.079c0,1.012-0.008,1.863-0.023,2.553c-0.016,0.69-0.004,1.242,0.035,1.656c0.038,0.414,0.123,0.709,0.253,0.886
		c0.13,0.176,0.341,0.264,0.632,0.264c0.276,0,0.495-0.096,0.656-0.288c0.161-0.191,0.241-0.502,0.241-0.931v-3.657
		c0-0.521-0.081-0.858-0.241-1.012c-0.161-0.153-0.388-0.23-0.679-0.23c-0.337,0-0.563,0.073-0.678,0.218
		C44.46,24.685,44.395,24.865,44.379,25.079z"/>
	<path fill="#FFFFFF" d="M57.489,23.17c0,0.062-0.092,0.188-0.276,0.38s-0.399,0.395-0.644,0.609
		c-0.246,0.215-0.476,0.406-0.69,0.575c-0.215,0.169-0.36,0.253-0.437,0.253c-0.153,0-0.307-0.123-0.46-0.368
		c-0.077-0.123-0.177-0.245-0.299-0.368c-0.123-0.123-0.284-0.184-0.483-0.184c-0.429,0-0.659,0.2-0.69,0.598
		c0,0.2-0.004,0.537-0.011,1.012c-0.008,0.475-0.012,1.016-0.012,1.622c0,0.605,0,1.238,0,1.897s0,1.276,0,1.851
		c0,0.575,0,1.066,0,1.472c0,0.407,0,0.656,0,0.748h-2.806c0-0.107,0-0.191,0-0.253c0-0.061-0.004-0.188-0.011-0.379
		c-0.008-0.192-0.012-0.495-0.012-0.909s0-1.031,0-1.852c0-0.82,0-1.882,0-3.186c0-1.303,0-2.944,0-4.922h2.737v0.621
		c0.26-0.215,0.563-0.387,0.908-0.518c0.345-0.13,0.686-0.195,1.023-0.195c0.184,0,0.36,0.019,0.529,0.057
		c0.168,0.039,0.322,0.104,0.46,0.196c0.123,0.077,0.249,0.172,0.379,0.288c0.13,0.115,0.256,0.23,0.379,0.345
		c0.123,0.115,0.222,0.227,0.299,0.333C57.451,23.001,57.489,23.094,57.489,23.17z"/>
	<path fill="#FFFFFF" d="M62.181,21.79c0.23,0,0.402,0.004,0.517,0.012c0.115,0.008,0.196,0.054,0.242,0.138
		c0.046,0.084,0.069,0.219,0.069,0.403c0,0.184,0,0.46,0,0.828v1.127c-0.015,0.108-0.057,0.177-0.126,0.207
		c-0.069,0.031-0.257,0.046-0.563,0.046H61.56c0,1.38,0,2.453,0,3.22c0,0.767,0.003,1.342,0.011,1.725s0.023,0.629,0.046,0.736
		c0.023,0.107,0.057,0.184,0.104,0.23c0.046,0.077,0.199,0.115,0.46,0.115h0.115c0.077-0.015,0.146-0.023,0.207-0.023
		c0.061,0,0.115,0,0.161,0c0.184,0,0.288,0.081,0.311,0.241c0.023,0.161,0.034,0.525,0.034,1.093c0,0.353-0.004,0.625-0.011,0.816
		c-0.008,0.192-0.027,0.326-0.058,0.402c-0.031,0.077-0.088,0.123-0.172,0.138c-0.084,0.016-0.204,0.023-0.356,0.023
		c-0.292,0-0.598-0.007-0.92-0.023c-0.322-0.015-0.632-0.065-0.931-0.149c-0.299-0.084-0.575-0.215-0.828-0.391
		s-0.464-0.433-0.632-0.771c-0.23-0.46-0.342-1.334-0.333-2.622c0.007-1.288,0.019-2.875,0.034-4.761h-0.23h-0.138
		c-0.169,0-0.295-0.012-0.38-0.035s-0.146-0.081-0.184-0.172c-0.039-0.092-0.062-0.242-0.069-0.449s-0.011-0.495-0.011-0.862
		c0-0.337,0.003-0.59,0.011-0.759c0.008-0.168,0.042-0.288,0.104-0.356c0.061-0.069,0.161-0.107,0.299-0.115
		c0.138-0.008,0.337-0.019,0.598-0.035c0-0.398-0.004-0.728-0.011-0.989c-0.008-0.261-0.008-0.468,0-0.621
		c0.007-0.153,0.03-0.257,0.069-0.311c0.038-0.054,0.096-0.081,0.172-0.081h1.196h0.598c0.215,0,0.372,0.008,0.472,0.023
		c0.1,0.016,0.168,0.062,0.207,0.138c0.038,0.077,0.058,0.188,0.058,0.333c0,0.146,0,0.349,0,0.609v0.897L62.181,21.79z"/>
	<path fill="#FFFFFF" d="M73.175,20.088c-0.077-0.153-0.207-0.23-0.391-0.23c-0.138,0-0.253,0.046-0.345,0.138
		c-0.123,0.107-0.2,0.28-0.23,0.518c-0.031,0.238-0.035,0.491-0.012,0.759c0.023,0.269,0.073,0.533,0.149,0.793
		c0.077,0.261,0.161,0.468,0.253,0.621c0.199,0.276,0.456,0.544,0.771,0.805s0.648,0.529,1,0.805
		c0.353,0.276,0.698,0.579,1.035,0.909c0.337,0.33,0.621,0.709,0.851,1.139c0.322,0.552,0.521,1.2,0.598,1.943
		c0.076,0.744,0.019,1.464-0.173,2.162s-0.537,1.307-1.035,1.829c-0.499,0.521-1.162,0.843-1.99,0.966
		c-0.153,0.016-0.303,0.026-0.448,0.035c-0.146,0.007-0.303,0.011-0.472,0.011c-0.905,0-1.633-0.149-2.185-0.448
		c-0.552-0.299-0.974-0.705-1.265-1.219c-0.292-0.514-0.487-1.119-0.586-1.817s-0.157-1.438-0.172-2.22h3.542
		c0.015,0.246,0.023,0.518,0.023,0.817c0,0.299,0.015,0.579,0.046,0.839s0.088,0.479,0.173,0.655
		c0.084,0.177,0.218,0.265,0.402,0.265c0.214,0,0.356-0.084,0.425-0.253c0.069-0.168,0.104-0.498,0.104-0.989
		c0-0.276-0.015-0.521-0.046-0.736c-0.031-0.214-0.107-0.425-0.23-0.632c-0.123-0.207-0.307-0.426-0.552-0.656
		s-0.575-0.498-0.989-0.805c-0.491-0.368-0.905-0.717-1.242-1.047c-0.337-0.33-0.613-0.682-0.828-1.058
		c-0.215-0.376-0.372-0.794-0.472-1.254c-0.1-0.46-0.149-0.989-0.149-1.587c0.015-1.426,0.337-2.515,0.966-3.266
		c0.628-0.751,1.656-1.127,3.082-1.127c1.027,0,1.855,0.246,2.484,0.736c0.46,0.353,0.801,0.793,1.024,1.322
		c0.222,0.529,0.379,1.046,0.471,1.553c0.092,0.506,0.138,0.943,0.138,1.311c0,0.368,0,0.567,0,0.598h-3.496
		c-0.046-0.613-0.069-1.081-0.069-1.403C73.336,20.548,73.282,20.288,73.175,20.088z"/>
	<path fill="#FFFFFF" d="M82.214,21.79c0.23,0,0.402,0.004,0.517,0.012c0.115,0.008,0.196,0.054,0.242,0.138
		c0.046,0.084,0.069,0.219,0.069,0.403c0,0.184,0,0.46,0,0.828v1.127c-0.015,0.108-0.057,0.177-0.126,0.207
		c-0.069,0.031-0.257,0.046-0.563,0.046h-0.759c0,1.38,0,2.453,0,3.22c0,0.767,0.003,1.342,0.011,1.725s0.023,0.629,0.046,0.736
		c0.023,0.107,0.057,0.184,0.104,0.23c0.046,0.077,0.199,0.115,0.46,0.115h0.115c0.077-0.015,0.146-0.023,0.207-0.023
		c0.061,0,0.115,0,0.161,0c0.184,0,0.288,0.081,0.311,0.241c0.023,0.161,0.034,0.525,0.034,1.093c0,0.353-0.004,0.625-0.011,0.816
		c-0.008,0.192-0.027,0.326-0.058,0.402c-0.031,0.077-0.088,0.123-0.172,0.138c-0.084,0.016-0.204,0.023-0.356,0.023
		c-0.292,0-0.598-0.007-0.92-0.023c-0.322-0.015-0.632-0.065-0.931-0.149c-0.299-0.084-0.575-0.215-0.828-0.391
		s-0.464-0.433-0.632-0.771c-0.23-0.46-0.342-1.334-0.333-2.622c0.007-1.288,0.019-2.875,0.034-4.761h-0.23h-0.138
		c-0.169,0-0.295-0.012-0.38-0.035s-0.146-0.081-0.184-0.172c-0.039-0.092-0.062-0.242-0.069-0.449s-0.011-0.495-0.011-0.862
		c0-0.337,0.003-0.59,0.011-0.759c0.008-0.168,0.042-0.288,0.104-0.356c0.061-0.069,0.161-0.107,0.299-0.115
		c0.138-0.008,0.337-0.019,0.598-0.035c0-0.398-0.004-0.728-0.011-0.989c-0.008-0.261-0.008-0.468,0-0.621
		c0.007-0.153,0.03-0.257,0.069-0.311c0.038-0.054,0.096-0.081,0.172-0.081h1.196h0.598c0.215,0,0.372,0.008,0.472,0.023
		c0.1,0.016,0.168,0.062,0.207,0.138c0.038,0.077,0.058,0.188,0.058,0.333c0,0.146,0,0.349,0,0.609v0.897L82.214,21.79z"/>
	<path fill="#FFFFFF" d="M91.437,27.425c0,0.644-0.02,1.284-0.058,1.92c-0.039,0.636-0.138,1.219-0.299,1.748
		c-0.161,0.529-0.407,0.985-0.736,1.368c-0.33,0.384-0.786,0.652-1.368,0.805c-0.123,0.031-0.28,0.054-0.472,0.069
		c-0.192,0.015-0.395,0.023-0.609,0.023c-0.215,0-0.426-0.008-0.633-0.023s-0.372-0.038-0.494-0.069
		c-0.675-0.168-1.192-0.425-1.553-0.771s-0.617-0.755-0.771-1.23c-0.153-0.475-0.241-1-0.265-1.576
		c-0.023-0.575-0.042-1.185-0.057-1.828c-0.016-0.751-0.008-1.495,0.023-2.231c0.03-0.736,0.157-1.399,0.379-1.989
		c0.222-0.59,0.59-1.065,1.104-1.426c0.514-0.36,1.246-0.541,2.196-0.541c0.767,0,1.388,0.104,1.863,0.31
		c0.475,0.207,0.843,0.541,1.104,1.001c0.26,0.46,0.433,1.054,0.518,1.782C91.394,25.497,91.437,26.382,91.437,27.425z
		 M86.882,25.079c0,1.012-0.008,1.863-0.023,2.553c-0.016,0.69-0.004,1.242,0.035,1.656c0.038,0.414,0.123,0.709,0.253,0.886
		c0.13,0.176,0.341,0.264,0.632,0.264c0.276,0,0.495-0.096,0.656-0.288c0.161-0.191,0.241-0.502,0.241-0.931v-3.657
		c0-0.521-0.081-0.858-0.241-1.012c-0.161-0.153-0.388-0.23-0.679-0.23c-0.337,0-0.563,0.073-0.678,0.218
		C86.963,24.685,86.897,24.865,86.882,25.079z"/>
	<path fill="#FFFFFF" d="M99.992,23.17c0,0.062-0.092,0.188-0.276,0.38s-0.399,0.395-0.644,0.609
		c-0.246,0.215-0.476,0.406-0.69,0.575c-0.215,0.169-0.36,0.253-0.437,0.253c-0.153,0-0.307-0.123-0.46-0.368
		c-0.077-0.123-0.177-0.245-0.299-0.368c-0.123-0.123-0.284-0.184-0.483-0.184c-0.429,0-0.659,0.2-0.69,0.598
		c0,0.2-0.004,0.537-0.011,1.012c-0.008,0.475-0.012,1.016-0.012,1.622c0,0.605,0,1.238,0,1.897s0,1.276,0,1.851
		c0,0.575,0,1.066,0,1.472c0,0.407,0,0.656,0,0.748h-2.806c0-0.107,0-0.191,0-0.253c0-0.061-0.004-0.188-0.011-0.379
		c-0.008-0.192-0.012-0.495-0.012-0.909s0-1.031,0-1.852c0-0.82,0-1.882,0-3.186c0-1.303,0-2.944,0-4.922h2.737v0.621
		c0.26-0.215,0.563-0.387,0.908-0.518c0.345-0.13,0.686-0.195,1.023-0.195c0.184,0,0.36,0.019,0.529,0.057
		c0.168,0.039,0.322,0.104,0.46,0.196c0.123,0.077,0.249,0.172,0.379,0.288c0.13,0.115,0.256,0.23,0.379,0.345
		c0.123,0.115,0.222,0.227,0.299,0.333C99.954,23.001,99.992,23.094,99.992,23.17z"/>
	<path fill="#FFFFFF" d="M107.812,29.932c-0.016,0.476-0.123,0.92-0.322,1.334s-0.464,0.778-0.793,1.092
		c-0.33,0.314-0.713,0.56-1.15,0.736c-0.437,0.176-0.909,0.264-1.415,0.264c-0.169,0-0.341-0.008-0.518-0.023
		s-0.303-0.038-0.379-0.069c-0.644-0.138-1.15-0.379-1.518-0.725c-0.368-0.345-0.644-0.778-0.828-1.299
		c-0.184-0.521-0.299-1.104-0.345-1.748s-0.069-1.334-0.069-2.07c0-0.69,0.026-1.38,0.08-2.07s0.203-1.307,0.449-1.852
		c0.245-0.544,0.621-0.985,1.127-1.322c0.506-0.337,1.204-0.506,2.093-0.506c0.951,0,1.683,0.245,2.197,0.736
		c0.514,0.491,0.877,1.092,1.092,1.806c0.215,0.713,0.322,1.468,0.322,2.265c0,0.798-0.039,1.511-0.115,2.139h-4.508
		c0,0.199,0.003,0.414,0.011,0.644s0.046,0.445,0.115,0.644s0.172,0.36,0.311,0.483c0.138,0.123,0.345,0.184,0.621,0.184
		c0.26,0,0.444-0.092,0.552-0.276c0.107-0.184,0.184-0.383,0.23-0.598c0.031-0.138,0.054-0.242,0.069-0.311
		c0.015-0.069,0.065-0.119,0.149-0.149c0.084-0.031,0.207-0.05,0.368-0.058c0.161-0.007,0.403-0.012,0.725-0.012h0.575
		c0.23,0,0.406,0.008,0.529,0.023c0.123,0.015,0.21,0.05,0.265,0.104c0.054,0.054,0.084,0.13,0.092,0.23
		S107.827,29.764,107.812,29.932z M105.075,26.252c0-0.168-0.004-0.36-0.011-0.575c-0.008-0.215-0.035-0.426-0.081-0.633
		s-0.13-0.379-0.253-0.518c-0.123-0.138-0.314-0.207-0.575-0.207c-0.307,0-0.525,0.104-0.655,0.31
		c-0.13,0.207-0.219,0.602-0.265,1.185l-0.023,0.437H105.075z"/>
	<path fill="#FFFFFF" d="M114.896,25.24h-0.322c-0.261,0-0.46-0.004-0.598-0.012c-0.138-0.007-0.241-0.026-0.311-0.058
		c-0.069-0.03-0.123-0.076-0.161-0.138c-0.038-0.061-0.08-0.146-0.126-0.253c-0.077-0.169-0.168-0.288-0.276-0.356
		c-0.107-0.069-0.261-0.104-0.46-0.104c-0.246,0-0.453,0.077-0.621,0.23c-0.169,0.153-0.253,0.375-0.253,0.667
		c0,0.276,0.061,0.471,0.184,0.586c0.123,0.115,0.288,0.192,0.495,0.23c0.207,0.039,0.44,0.062,0.701,0.069
		c0.261,0.008,0.521,0.05,0.782,0.126c0.583,0.138,1.054,0.388,1.415,0.748c0.36,0.36,0.625,0.778,0.793,1.253
		c0.168,0.476,0.241,0.978,0.218,1.507c-0.023,0.529-0.134,1.031-0.333,1.506c-0.199,0.476-0.487,0.894-0.862,1.253
		c-0.376,0.36-0.832,0.609-1.369,0.748c-0.307,0.077-0.69,0.115-1.15,0.115c-0.184,0-0.368-0.008-0.552-0.023
		c-0.184-0.015-0.353-0.046-0.506-0.092c-0.506-0.138-0.935-0.379-1.288-0.725c-0.353-0.345-0.629-0.705-0.828-1.081
		c-0.2-0.375-0.322-0.725-0.368-1.046s-0.023-0.529,0.069-0.621l0.115-0.115c0.659,0.015,1.223,0.023,1.69,0.023
		s0.725,0.015,0.771,0.046c0.107,0.107,0.184,0.234,0.23,0.379c0.046,0.146,0.161,0.272,0.345,0.379
		c0.107,0.062,0.237,0.092,0.391,0.092s0.303-0.042,0.449-0.126c0.146-0.084,0.256-0.211,0.333-0.379
		c0.077-0.123,0.115-0.276,0.115-0.46c0-0.184-0.038-0.329-0.115-0.437c-0.153-0.184-0.349-0.291-0.586-0.322
		c-0.238-0.031-0.514-0.061-0.828-0.092c-0.314-0.031-0.652-0.104-1.012-0.219c-0.36-0.115-0.732-0.364-1.115-0.748
		c-0.353-0.353-0.602-0.713-0.748-1.081c-0.146-0.368-0.218-0.828-0.218-1.38c0-0.567,0.092-1.084,0.276-1.552
		s0.44-0.866,0.771-1.196c0.33-0.33,0.72-0.586,1.173-0.771c0.452-0.184,0.955-0.276,1.506-0.276c0.874,0,1.622,0.246,2.243,0.736
		c0.621,0.491,1.039,1.166,1.253,2.024c0.123,0.43,0.134,0.694,0.035,0.794c-0.1,0.1-0.303,0.149-0.609,0.149H114.896z"/>
</g>
<polyline fill="none" stroke="#010101" stroke-width="2" stroke-miterlimit="10" points="1.019,48.31 1.019,152.309 
	133.019,152.309 133.019,48.31 "/>
<path fill-rule="evenodd" clip-rule="evenodd" fill="#010101" d="M27.36,142.326v-1.19c0.596-1.518,1.714-2.096,3.324-2.001
	c1.462,0.084,2.936,0.016,4.471,0.016v-0.847V106.32c0-1.164-0.004-1.153-1.068-1.555c-2.542-0.958-4.479-2.627-5.615-5.097
	c-0.506-1.103-0.748-2.324-1.112-3.492v-3.572c27.428-0.001,54.854-0.002,82.28-0.003c0.147,0,0.296,0.015,0.386,0.018
	c0,1.325,0.105,2.606-0.035,3.86c-0.108,0.989-0.414,1.992-0.818,2.903c-1.181,2.666-3.195,4.491-5.959,5.438
	c-0.656,0.226-0.891,0.52-0.89,1.244c0.029,10.749,0.02,21.499,0.02,32.249v0.837h0.784c1.499,0.003,2.997-0.011,4.494,0.009
	c1.048,0.014,1.793,0.549,2.252,1.467c0.43,0.861,0.409,1.755-0.197,2.488c-0.403,0.485-1.007,0.802-1.521,1.195H29.342
	C28.4,143.931,27.742,143.267,27.36,142.326 M68.723,96.344c-0.092,0.411-0.149,0.653-0.201,0.899c-1,4.657-4.838,7.976-9.526,8.186
	c-0.581,0.027-0.616,0.281-0.616,0.732c0.008,10.774,0.007,21.552,0.009,32.326c0,0.208,0.027,0.416,0.042,0.627h38.782v-0.875
	v-31.798c0-1.304-0.014-1.269-1.194-1.742c-3.091-1.235-5.134-3.463-6.12-6.643c-0.164-0.533-0.264-1.084-0.426-1.766
	c-1.3,5.7-4.574,9.136-10.442,9.109C73.266,105.377,70.042,101.961,68.723,96.344 M55.823,139.121v-0.866v-31.856
	c0-1.26-0.016-1.223-1.172-1.69c-3.282-1.322-5.384-3.701-6.266-7.138c-0.108-0.415-0.183-0.84-0.273-1.257
	c-0.148,0.166-0.192,0.329-0.22,0.495c-0.225,1.314-0.661,2.549-1.364,3.687c-1.342,2.161-3.226,3.638-5.635,4.424
	c-0.496,0.162-0.617,0.403-0.617,0.896c0.013,10.838,0.011,21.677,0.011,32.515v0.792H55.823z"/>
<path fill-rule="evenodd" clip-rule="evenodd" fill="#010101" d="M27.36,89.959v-0.133c0.181-0.295,0.385-0.58,0.541-0.89
	c1.064-2.125,2.11-4.256,3.175-6.381c2.077-4.153,4.182-8.289,6.222-12.46c0.306-0.625,0.636-0.787,1.286-0.787
	c15.577,0.018,31.152,0.015,46.729,0.015c4.627,0,9.253,0.001,13.88-0.003c0.364,0,0.633,0.014,0.841,0.432
	c2.577,5.204,5.185,10.395,7.782,15.59c0.755,1.509,1.501,3.022,2.291,4.616H27.36z M85.551,84.627
	c-0.116-0.259-0.286-0.705-0.512-1.126c-1.084-2.008-2.185-4.01-3.283-6.014c-0.666-1.213-1.313-2.435-2.017-3.626
	c-0.408-0.689-1.055-0.852-1.693-0.536c-0.622,0.306-0.843,0.929-0.573,1.686c0.096,0.266,0.24,0.515,0.377,0.765
	c1.095,2.006,2.19,4.011,3.291,6.012c0.688,1.251,1.373,2.505,2.089,3.739c0.297,0.514,0.811,0.689,1.372,0.529
	C85.183,85.891,85.513,85.468,85.551,84.627 M59.675,74.632c0.006-0.751-0.384-1.26-0.965-1.411c-0.618-0.16-1.206,0.147-1.548,0.83
	c-1.427,2.847-2.852,5.696-4.271,8.549c-0.312,0.627-0.64,1.254-0.873,1.914c-0.208,0.584,0.103,1.171,0.637,1.437
	c0.59,0.291,1.188,0.16,1.58-0.371c0.169-0.229,0.314-0.479,0.441-0.731c1.601-3.203,3.197-6.407,4.786-9.614
	C59.576,75.002,59.636,74.743,59.675,74.632 M49.339,74.563c-0.069-0.733-0.349-1.18-0.961-1.336
	c-0.57-0.144-1.071,0.023-1.366,0.541c-0.415,0.723-0.788,1.474-1.162,2.221c-1.349,2.696-2.701,5.393-4.031,8.1
	c-0.403,0.816-0.177,1.546,0.501,1.869c0.716,0.341,1.387,0.095,1.796-0.719c1.657-3.282,3.297-6.571,4.935-9.86
	C49.194,75.088,49.269,74.764,49.339,74.563 M95.889,84.665c-0.04-0.124-0.095-0.385-0.211-0.615c-1.161-2.35-2.326-4.694-3.5-7.033
	c-0.542-1.082-1.076-2.169-1.667-3.223c-0.34-0.608-0.997-0.763-1.602-0.486c-0.589,0.269-0.854,0.876-0.643,1.546
	c0.105,0.333,0.254,0.656,0.411,0.969c0.892,1.794,1.792,3.584,2.689,5.374c0.692,1.376,1.379,2.757,2.079,4.129
	c0.328,0.642,0.853,0.889,1.461,0.729C95.495,85.9,95.889,85.401,95.889,84.665 M70.069,79.579c0-1.124,0-2.248-0.001-3.372
	c-0.001-0.55,0.02-1.102-0.011-1.652c-0.047-0.828-0.591-1.38-1.315-1.377c-0.718,0.003-1.242,0.562-1.306,1.392
	c-0.006,0.088-0.004,0.176-0.004,0.264c-0.002,3.197-0.003,6.391,0.003,9.587c0.001,0.261,0.018,0.536,0.103,0.778
	c0.203,0.576,0.632,0.91,1.251,0.893c0.588-0.019,0.998-0.35,1.175-0.908c0.083-0.266,0.099-0.562,0.1-0.844
	C70.073,82.751,70.068,81.166,70.069,79.579"/>
<path fill-rule="evenodd" clip-rule="evenodd" fill="#010101" d="M97.84,61.529c0.672,0.37,1.333,0.725,1.688,1.484
	c0.752,1.599-0.337,3.533-2.097,3.661c-0.196,0.014-0.397,0.013-0.594,0.013c-18.725,0-37.449-0.004-56.174,0.008
	c-1.015,0.001-1.889-0.235-2.469-1.104c-0.93-1.394-0.437-3.1,1.074-3.841c0.133-0.066,0.26-0.148,0.389-0.221H97.84z"/>
<path fill-rule="evenodd" clip-rule="evenodd" fill="#010101" d="M27.36,142.326c0.382,0.94,1.04,1.604,1.981,1.983H27.36V142.326z"
	/>
<path fill-rule="evenodd" clip-rule="evenodd" fill="#010101" d="M85.521,110.273c0.564,0.568,1.134,1.143,1.65,1.665
	c-4.857,4.85-9.706,9.69-14.588,14.561c-0.468-0.515-1.024-1.124-1.573-1.729C75.793,119.992,80.634,115.157,85.521,110.273"/>
<path fill-rule="evenodd" clip-rule="evenodd" fill="#010101" d="M78.186,110.329c0.567,0.561,1.141,1.128,1.752,1.729
	c-0.121,0.142-0.238,0.296-0.371,0.429c-2.145,2.15-4.297,4.288-6.433,6.446c-0.306,0.307-0.503,0.399-0.84,0.027
	c-0.437-0.485-0.944-0.909-1.41-1.35C73.371,115.133,75.778,112.728,78.186,110.329"/>
<path fill-rule="evenodd" clip-rule="evenodd" fill="#010101" d="M78.147,124.917c2.521-2.528,4.909-4.926,7.306-7.33
	c0.602,0.611,1.178,1.195,1.861,1.89c-0.906,0.868-1.83,1.742-2.735,2.635c-1.381,1.361-2.765,2.715-4.109,4.112
	c-0.387,0.397-0.595,0.35-0.937-0.021C79.119,125.751,78.636,125.366,78.147,124.917"/>
<path fill-rule="evenodd" clip-rule="evenodd" fill="#010101" d="M50.666,128.743c-1.104,0.01-2.008-0.576-2.39-1.545
	c-0.411-1.039-0.131-2.083,0.686-2.889c0.218-0.213,0.383-0.59,0.39-0.896c0.039-1.583,0.042-3.172-0.001-4.754
	c-0.01-0.322-0.194-0.719-0.431-0.942c-1.038-0.983-1.114-2.649-0.113-3.668c1.013-1.032,2.744-1.006,3.729,0.057
	c0.942,1.01,0.833,2.69-0.183,3.619c-0.222,0.205-0.397,0.58-0.404,0.88c-0.039,1.629-0.038,3.26-0.001,4.887
	c0.006,0.281,0.181,0.625,0.388,0.822c0.754,0.716,1.06,1.799,0.711,2.773C52.679,128.114,51.787,128.737,50.666,128.743"/>
</svg>
