<?xml version="1.0" encoding="utf-8"?>
<!-- Generator: Adobe Illustrator 16.0.0, SVG Export Plug-In . SVG Version: 6.00 Build 0)  -->
<!DOCTYPE svg PUBLIC "-//W3C//DTD SVG 1.1//EN" "http://www.w3.org/Graphics/SVG/1.1/DTD/svg11.dtd">
<svg version="1.1" id="Layer_1" xmlns="http://www.w3.org/2000/svg" xmlns:xlink="http://www.w3.org/1999/xlink" x="0px" y="0px"
	 width="157px" height="179px" viewBox="0 0 157 179" enable-background="new 0 0 157 179" xml:space="preserve">
<rect x="1.483" y="1" fill-rule="evenodd" clip-rule="evenodd" fill="#FFFFFF" stroke="#627D53" stroke-width="2" stroke-miterlimit="10" width="155" height="177"/>
<rect x="1.483" fill-rule="evenodd" clip-rule="evenodd" fill="#627D53" width="155" height="56"/>
<g>
	<path fill="#FFFFFF" d="M21.451,36.207c-0.52-0.576-0.779-1.402-0.779-2.479v-0.761h1.976v0.912c0,0.861,0.361,1.292,1.083,1.292
		c0.354,0,0.624-0.104,0.808-0.313c0.183-0.209,0.275-0.548,0.275-1.017c0-0.557-0.127-1.048-0.38-1.473
		c-0.254-0.424-0.722-0.934-1.406-1.529c-0.861-0.76-1.463-1.447-1.805-2.062c-0.342-0.614-0.513-1.308-0.513-2.081
		c0-1.051,0.266-1.864,0.798-2.441c0.532-0.576,1.305-0.864,2.318-0.864c1,0,1.758,0.288,2.271,0.864
		c0.513,0.577,0.77,1.403,0.77,2.48v0.551h-1.976v-0.684c0-0.457-0.089-0.789-0.266-0.998c-0.178-0.209-0.437-0.313-0.779-0.313
		c-0.697,0-1.045,0.425-1.045,1.272c0,0.482,0.13,0.932,0.39,1.35c0.259,0.418,0.731,0.924,1.416,1.52
		c0.874,0.76,1.476,1.451,1.805,2.071c0.33,0.62,0.494,1.349,0.494,2.185c0,1.09-0.269,1.926-0.808,2.508
		c-0.538,0.584-1.32,0.875-2.346,0.875C22.737,37.072,21.971,36.783,21.451,36.207z"/>
	<path fill="#FFFFFF" d="M28.101,23.582h2.09v5.605l2.66-5.605h2.09l-2.489,4.883l2.527,8.417h-2.185l-1.767-5.929l-0.836,1.691
		v4.237h-2.09V23.582z"/>
	<path fill="#FFFFFF" d="M35.967,23.582h2.09v13.3h-2.09V23.582z"/>
	<path fill="#FFFFFF" d="M42.654,23.582h3.097c1.077,0,1.862,0.25,2.356,0.75c0.494,0.501,0.741,1.271,0.741,2.309v0.817
		c0,1.38-0.456,2.255-1.368,2.622v0.037c0.506,0.152,0.865,0.463,1.074,0.932s0.313,1.096,0.313,1.881v2.337
		c0,0.38,0.012,0.688,0.038,0.922s0.089,0.466,0.19,0.693h-2.128c-0.076-0.216-0.126-0.418-0.152-0.608
		c-0.025-0.189-0.038-0.531-0.038-1.025v-2.432c0-0.608-0.098-1.033-0.294-1.273s-0.535-0.361-1.017-0.361h-0.722v5.7h-2.09V23.582z
		 M45.504,29.281c0.418,0,0.731-0.107,0.94-0.322s0.313-0.576,0.313-1.083V26.85c0-0.48-0.085-0.829-0.256-1.045
		c-0.171-0.215-0.44-0.322-0.808-0.322h-0.95v3.799H45.504z"/>
	<path fill="#FFFFFF" d="M51.927,23.582h2.831l2.166,13.3h-2.09l-0.38-2.642v0.039h-2.375l-0.38,2.603h-1.938L51.927,23.582z
		 M54.207,32.474L53.276,25.9h-0.038l-0.912,6.573H54.207z"/>
	<path fill="#FFFFFF" d="M58.548,36.217c-0.526-0.57-0.789-1.374-0.789-2.413V26.66c0-1.039,0.263-1.844,0.789-2.413
		c0.525-0.57,1.289-0.855,2.29-0.855c1,0,1.764,0.285,2.29,0.855c0.525,0.569,0.788,1.374,0.788,2.413v1.406h-1.976v-1.539
		c0-0.824-0.349-1.235-1.045-1.235c-0.696,0-1.045,0.411-1.045,1.235v7.429c0,0.811,0.349,1.216,1.045,1.216
		c0.697,0,1.045-0.405,1.045-1.216v-2.033h1.976v1.881c0,1.039-0.263,1.843-0.788,2.413c-0.526,0.57-1.289,0.855-2.29,0.855
		C59.836,37.072,59.073,36.787,58.548,36.217z"/>
	<path fill="#FFFFFF" d="M65.169,23.582h2.09v13.3h-2.09V23.582z"/>
	<path fill="#FFFFFF" d="M68.817,23.582h2.622l2.033,7.961h0.038v-7.961h1.862v13.3h-2.147l-2.508-9.709h-0.038v9.709h-1.862V23.582
		z"/>
	<path fill="#FFFFFF" d="M77.576,36.207c-0.532-0.576-0.798-1.402-0.798-2.479v-6.992c0-1.077,0.266-1.903,0.798-2.48
		c0.532-0.576,1.305-0.864,2.318-0.864c1.013,0,1.786,0.288,2.318,0.864c0.532,0.577,0.798,1.403,0.798,2.48v1.14h-1.976v-1.272
		c0-0.875-0.361-1.312-1.083-1.312c-0.722,0-1.083,0.437-1.083,1.312v7.276c0,0.861,0.361,1.292,1.083,1.292
		c0.722,0,1.083-0.431,1.083-1.292v-2.603h-1.045v-1.9h3.021v4.352c0,1.076-0.266,1.902-0.798,2.479
		c-0.532,0.576-1.305,0.865-2.318,0.865C78.88,37.072,78.108,36.783,77.576,36.207z"/>
	<path fill="#FFFFFF" d="M87.398,23.582h2.09v11.4h3.439v1.899h-5.529V23.582z"/>
	<path fill="#FFFFFF" d="M93.934,23.582h5.7v1.9h-3.61v3.515h2.869v1.899h-2.869v4.086h3.61v1.899h-5.7V23.582z"/>
	<path fill="#FFFFFF" d="M102.446,23.582h2.831l2.166,13.3h-2.09l-0.38-2.642v0.039h-2.375l-0.38,2.603h-1.938L102.446,23.582z
		 M104.726,32.474l-0.931-6.573h-0.038l-0.912,6.573H104.726z"/>
	<path fill="#FFFFFF" d="M109.058,36.207c-0.532-0.576-0.798-1.402-0.798-2.479v-6.992c0-1.077,0.266-1.903,0.798-2.48
		c0.532-0.576,1.305-0.864,2.318-0.864c1.013,0,1.786,0.288,2.318,0.864c0.532,0.577,0.798,1.403,0.798,2.48v1.14h-1.976v-1.272
		c0-0.875-0.361-1.312-1.083-1.312c-0.722,0-1.083,0.437-1.083,1.312v7.276c0,0.861,0.361,1.292,1.083,1.292
		c0.722,0,1.083-0.431,1.083-1.292v-2.603h-1.045v-1.9h3.021v4.352c0,1.076-0.266,1.902-0.798,2.479
		c-0.532,0.576-1.305,0.865-2.318,0.865C110.362,37.072,109.59,36.783,109.058,36.207z"/>
	<path fill="#FFFFFF" d="M116.563,36.207c-0.532-0.576-0.798-1.402-0.798-2.479V23.582h2.09V33.88c0,0.456,0.092,0.786,0.275,0.987
		c0.184,0.203,0.447,0.305,0.789,0.305c0.342,0,0.605-0.102,0.789-0.305c0.184-0.201,0.275-0.531,0.275-0.987V23.582h2.014v10.146
		c0,1.076-0.266,1.902-0.798,2.479c-0.532,0.576-1.305,0.865-2.318,0.865S117.095,36.783,116.563,36.207z"/>
	<path fill="#FFFFFF" d="M123.478,23.582h5.7v1.9h-3.61v3.515h2.869v1.899h-2.869v4.086h3.61v1.899h-5.7V23.582z"/>
	<path fill="#FFFFFF" d="M130.831,36.207c-0.52-0.576-0.779-1.402-0.779-2.479v-0.761h1.976v0.912c0,0.861,0.361,1.292,1.083,1.292
		c0.354,0,0.624-0.104,0.808-0.313c0.183-0.209,0.275-0.548,0.275-1.017c0-0.557-0.127-1.048-0.38-1.473
		c-0.254-0.424-0.722-0.934-1.406-1.529c-0.861-0.76-1.463-1.447-1.805-2.062c-0.342-0.614-0.513-1.308-0.513-2.081
		c0-1.051,0.266-1.864,0.798-2.441c0.532-0.576,1.305-0.864,2.318-0.864c1,0,1.758,0.288,2.271,0.864
		c0.513,0.577,0.77,1.403,0.77,2.48v0.551h-1.976v-0.684c0-0.457-0.089-0.789-0.266-0.998c-0.178-0.209-0.437-0.313-0.779-0.313
		c-0.697,0-1.045,0.425-1.045,1.272c0,0.482,0.13,0.932,0.39,1.35c0.259,0.418,0.731,0.924,1.416,1.52
		c0.874,0.76,1.476,1.451,1.805,2.071c0.33,0.62,0.494,1.349,0.494,2.185c0,1.09-0.269,1.926-0.808,2.508
		c-0.538,0.584-1.32,0.875-2.346,0.875C132.117,37.072,131.351,36.783,130.831,36.207z"/>
</g>
<g>
	<path fill-rule="evenodd" clip-rule="evenodd" fill="#627D53" d="M75.796,97.261c0.08-0.095,0.157-0.191,0.273-0.335
		c-0.621-0.445-1.215-0.871-1.808-1.295c-2.131,2.37-4.244,4.72-6.372,7.087c1.646,2.002,2.344,4.239,1.963,6.806
		c-0.382,2.572-2.134,4.287-3.822,6.124c5.796,2.286,11.502,4.536,17.208,6.786c-0.522,1.411-1.969,2.175-3.396,1.676
		c-2.011-0.703-3.983-1.518-5.966-2.299c-8.111-3.196-16.217-6.404-24.332-9.59c-0.669-0.263-1.174-0.627-1.409-1.318
		c0-0.127,0-0.254,0-0.381c0.516-1.218,1.145-1.479,2.395-0.987c3.438,1.353,6.874,2.709,10.311,4.062
		c0.186,0.073,0.378,0.132,0.475,0.165c0.378-0.502,0.686-0.954,1.038-1.368c0.685-0.805,1.447-1.549,2.081-2.39
		c1.037-1.374,0.731-3.314-0.634-4.352c-0.419-0.318-0.879-0.584-1.333-0.853c-2.395-1.421-2.803-3.967-0.952-6.041
		c1.211-1.356,2.439-2.697,3.657-4.048c0.119-0.132,0.223-0.278,0.333-0.418c-0.019-0.053-0.037-0.106-0.056-0.159
		c-0.637,0.067-1.282,0.094-1.911,0.211c-1.106,0.207-2.022,0.809-2.91,1.475c-0.864,0.649-1.81,0.678-2.729,0.113
		c-0.899-0.553-1.297-1.403-1.116-2.434c0.09-0.515,0.389-0.992,0.612-1.53c-0.118-0.087-0.302-0.227-0.49-0.36
		c-2.55-1.812-5.109-3.611-7.644-5.443c-0.429-0.311-0.754-0.763-1.127-1.149c0-0.254,0-0.508,0-0.762
		c0.798-1.205,1.463-1.328,2.658-0.48c2.932,2.077,5.868,4.15,8.787,6.246c0.374,0.269,0.655,0.248,1.082,0.124
		c1.428-0.412,2.881-0.734,4.328-1.092c-0.659-0.467-1.422-1-2.175-1.546c-0.729-0.529-1.093-1.23-0.891-2.142
		c0.374-1.679,2.058-2.298,3.499-1.278c4.641,3.284,9.281,6.572,13.905,9.881c0.45,0.322,0.787,0.353,1.302,0.144
		c5.344-2.163,10.527-1.795,15.513,1.103c1.019,0.593,2.114,1.134,2.964,1.925c2.322,2.164,2.339,5.461,0.154,7.891
		c-2.673,2.972-5.354,5.936-8.045,8.892c-0.267,0.292-0.316,0.497-0.119,0.866c2.663,4.973,2.005,10.477-1.753,14.782
		c-0.722,0.828-1.469,1.635-2.292,2.548c8.728,3.437,17.393,6.848,26.059,10.26c0,0.042,0,0.084,0,0.127
		c-0.508,0.999-1.155,1.862-2.226,2.328c-1.183,0.514-2.338,0.391-3.506-0.071c-9.246-3.654-18.495-7.302-27.744-10.948
		c-5.989-2.362-11.98-4.72-17.969-7.083c-1.384-0.547-1.889-1.596-1.397-2.854c0.468-1.198,1.543-1.69,2.777-1.22
		c1.815,0.69,3.618,1.413,5.424,2.126c3.672,1.448,7.343,2.899,11.015,4.348c0.192,0.075,0.39,0.135,0.593,0.204
		c0.921-1.918,2.557-3.213,3.866-4.773c1.589-1.893,1.845-4.271,0.631-6.359c-0.26-0.449-0.58-0.765-1.105-0.958
		c-3.481-1.277-4.752-5.65-2.379-8.521c2.06-2.49,4.306-4.827,6.469-7.232c0.351-0.391,0.701-0.781,1.123-1.25
		c-1.167-0.226-2.228-0.145-3.28,0.057c-1.654,0.316-3.095,1.076-4.404,2.126"/>
	<path fill-rule="evenodd" clip-rule="evenodd" fill="#627D53" d="M105.512,96.576c-3.031-0.101-5.425-2.59-5.335-5.546
		c0.097-3.181,2.588-5.484,5.819-5.38c2.78,0.089,5.215,2.654,5.142,5.418C111.053,94.29,108.613,96.679,105.512,96.576z"/>
	<path fill-rule="evenodd" clip-rule="evenodd" fill="#627D53" d="M76.659,83.347c1.767,0.006,3.185,1.412,3.194,3.169
		c0.009,1.744-1.427,3.195-3.168,3.2c-1.772,0.005-3.207-1.396-3.217-3.141C73.458,84.768,74.867,83.341,76.659,83.347z"/>
</g>
</svg>
