<?xml version="1.0" encoding="utf-8"?>
<!-- Generator: Adobe Illustrator 16.0.0, SVG Export Plug-In . SVG Version: 6.00 Build 0)  -->
<!DOCTYPE svg PUBLIC "-//W3C//DTD SVG 1.1//EN" "http://www.w3.org/Graphics/SVG/1.1/DTD/svg11.dtd">
<svg version="1.1" id="Layer_1" xmlns="http://www.w3.org/2000/svg" xmlns:xlink="http://www.w3.org/1999/xlink" x="0px" y="0px"
	 width="16px" height="16px" viewBox="0 0 16 16" enable-background="new 0 0 16 16" xml:space="preserve">
<g>
	<path fill="#FFFFFF" d="M8.324,14.896v-0.211c-0.453,0-0.904-0.002-1.356-0.002c-0.419,0-0.838,0.002-1.257,0.004H5.71H5.698
		c-0.025,0-0.043-0.002-0.05-0.002H5.645h0L5.626,14.75l0.036-0.057c-0.01-0.008-0.017-0.008-0.018-0.008L5.626,14.75l0.036-0.057
		l-0.059,0.094l0.101-0.047c-0.007-0.016-0.026-0.039-0.042-0.047l-0.059,0.094l0.101-0.047L5.637,14.77l0.072-0.012L5.704,14.74
		L5.637,14.77l0.072-0.012L5.697,14.76l0.013-0.002h0L5.697,14.76l0.013-0.002v-0.002c0-0.006,0-0.014,0.002-0.027v-0.002
		c0.008-0.057,0.011-0.113,0.011-0.164c0-0.066-0.004-0.127-0.007-0.184l0,0c-0.002-0.029-0.003-0.057-0.003-0.082
		c0-0.092,0.011-0.166,0.036-0.236c0.025-0.068,0.064-0.139,0.134-0.217c0.205-0.229,0.303-0.516,0.303-0.801
		c0-0.342-0.141-0.682-0.399-0.941l0,0c-0.034-0.035-0.048-0.057-0.057-0.078c-0.008-0.02-0.014-0.045-0.014-0.09v-0.002l0,0H5.577
		l0.136,0.008l0-0.008H5.577l0.136,0.008l0-0.006v-0.006c0.007-0.77,0.008-1.537,0.01-2.305c0-0.021,0.001-0.047,0.001-0.082
		C5.725,9.49,5.724,9.42,5.688,9.338C5.67,9.297,5.642,9.256,5.605,9.221C5.568,9.188,5.524,9.16,5.478,9.143
		C5.435,9.127,5.387,9.117,5.34,9.117c-0.052,0-0.101,0.012-0.141,0.029C5.139,9.172,5.097,9.207,5.065,9.234
		C5.034,9.264,5.01,9.289,4.994,9.305L4.99,9.309l0.004-0.006C4.58,9.699,4.172,10.096,3.756,10.48h0
		c-0.036,0.033-0.067,0.066-0.095,0.111s-0.051,0.105-0.05,0.168c0,0.074,0.028,0.139,0.057,0.182s0.061,0.074,0.094,0.105
		c0.479,0.449,0.953,0.906,1.433,1.357c0.202,0.191,0.299,0.426,0.299,0.648c0,0.184-0.065,0.355-0.2,0.498
		c-0.167,0.174-0.36,0.252-0.56,0.252c-0.202,0-0.416-0.082-0.61-0.264c-0.583-0.547-1.171-1.082-1.743-1.633
		c-0.186-0.178-0.333-0.363-0.433-0.559c-0.1-0.193-0.154-0.395-0.154-0.617c0-0.129,0.018-0.266,0.059-0.41
		c0.026-0.094,0.072-0.178,0.137-0.264c0.063-0.084,0.144-0.172,0.229-0.264c0.714-0.785,1.428-1.566,2.153-2.338
		c0.227-0.24,0.484-0.409,0.771-0.53c0.286-0.12,0.602-0.19,0.938-0.225h0l0.004,0V6.646l-0.019,0.05C6.077,6.7,6.084,6.7,6.084,6.7
		V6.646l-0.019,0.05l0.027-0.073L6.031,6.672C6.033,6.675,6.049,6.69,6.066,6.696l0.027-0.073L6.031,6.672l0.014-0.011L6.03,6.672
		h0.001l0.014-0.011L6.03,6.672l0.004,0.006l0.01,0.021l0,0c0.577,1.28,1.155,2.559,1.736,3.836l0,0
		c0.007,0.016,0.012,0.025,0.012,0.029l0.001,0.002l0.038-0.012l-0.039,0.006l0.001,0.006l0.038-0.012l-0.039,0.006l0.102-0.018
		H7.79l0.001,0.018l0.102-0.018H7.79h0.142l-0.13-0.057c-0.008,0.021-0.011,0.043-0.011,0.057h0.142l-0.13-0.057l0.117,0.051
		l-0.073-0.105c-0.008,0.004-0.031,0.023-0.044,0.055l0.117,0.051l-0.073-0.105l0.029,0.043L7.85,10.428l-0.004,0.004l0.029,0.043
		L7.85,10.428l0,0l-0.016,0.006c-0.016,0.006-0.048,0.012-0.09,0.02c-0.062,0.01-0.141,0.016-0.234,0.049
		c-0.046,0.018-0.098,0.045-0.144,0.086c-0.047,0.043-0.085,0.104-0.104,0.17c-0.014,0.045-0.02,0.09-0.02,0.131
		c0.001,0.102,0.027,0.186,0.051,0.26c0.025,0.074,0.05,0.139,0.063,0.188c0.11,0.404,0.227,0.803,0.331,1.201h0
		c0.021,0.078,0.046,0.152,0.11,0.225c0.031,0.037,0.074,0.068,0.12,0.088c0.048,0.021,0.099,0.029,0.145,0.029
		c0.064-0.002,0.121-0.016,0.177-0.033H8.24c0.224-0.076,0.448-0.143,0.671-0.189l0,0c0.044-0.01,0.087-0.02,0.128-0.037
		c0.061-0.025,0.125-0.066,0.17-0.133c0.023-0.033,0.039-0.068,0.049-0.105c0.01-0.033,0.014-0.068,0.014-0.102
		c-0.001-0.072-0.016-0.135-0.036-0.199c-0.133-0.434-0.244-0.879-0.375-1.326c-0.011-0.033-0.013-0.057-0.013-0.076
		c0-0.033,0.006-0.061,0.027-0.107l0.002-0.004v0.002c0.605-1.273,1.209-2.547,1.809-3.826l-0.001,0.001
		c0.009-0.018,0.015-0.028,0.019-0.032l0.001-0.002l-0.019-0.017l0.016,0.02l0.003-0.003l-0.019-0.017l0.016,0.02L10.678,6.68
		l0.01,0.039l0.014-0.007L10.678,6.68l0.01,0.039l-0.002-0.007l0.002,0.007l0,0l-0.002-0.007l0.002,0.007l0.012-0.001
		c0.006,0,0.014,0,0.023,0.001c0.652,0.068,1.191,0.348,1.637,0.816c0.757,0.8,1.492,1.622,2.236,2.438
		c0.099,0.109,0.166,0.221,0.209,0.336c0.045,0.113,0.064,0.234,0.065,0.363c0,0.123-0.021,0.256-0.059,0.395
		c-0.087,0.32-0.263,0.586-0.514,0.82l0,0c-0.599,0.561-1.193,1.121-1.794,1.676c-0.179,0.166-0.378,0.24-0.57,0.24
		c-0.207,0-0.41-0.086-0.578-0.266l0,0c-0.131-0.143-0.193-0.314-0.193-0.496c0-0.209,0.087-0.428,0.271-0.607l0,0
		c0.479-0.463,0.959-0.92,1.445-1.371l0,0c0.035-0.033,0.069-0.068,0.102-0.113c0.016-0.023,0.031-0.049,0.042-0.082
		c0.012-0.031,0.019-0.068,0.019-0.107c0.002-0.068-0.022-0.131-0.052-0.176c-0.03-0.049-0.063-0.084-0.104-0.121l0,0
		c-0.411-0.377-0.811-0.771-1.222-1.162h0.002c-0.022-0.021-0.056-0.059-0.107-0.1c-0.025-0.02-0.059-0.041-0.099-0.059
		c-0.04-0.016-0.089-0.027-0.14-0.027c-0.049,0-0.098,0.01-0.143,0.027h0.002c-0.048,0.018-0.094,0.045-0.131,0.082
		c-0.058,0.055-0.09,0.125-0.104,0.182c-0.014,0.059-0.016,0.107-0.016,0.148c0,0.023,0,0.049,0.002,0.068l0.21-0.004h-0.21
		c0.002,0.77,0.001,1.537,0.008,2.307v-0.002v0.008c0,0.047-0.006,0.074-0.014,0.096c-0.01,0.023-0.022,0.045-0.055,0.076l0,0
		c-0.258,0.264-0.392,0.596-0.391,0.93c-0.001,0.346,0.143,0.691,0.416,0.957c0.023,0.025,0.033,0.041,0.036,0.047
		c0.005,0.01,0.006,0.014,0.007,0.039l0,0v0.016l0.211-0.004l-0.211-0.006c-0.004,0.111-0.007,0.229-0.007,0.346
		c0,0.094,0.002,0.189,0.007,0.287l0,0l0.002,0.021l-0.002,0.016l0,0l0.081,0.018l-0.065-0.045
		c-0.011,0.014-0.014,0.025-0.016,0.027l0.081,0.018l-0.065-0.045l0.092,0.063l-0.064-0.094c-0.01,0.008-0.021,0.02-0.027,0.031
		l0.092,0.063l-0.064-0.094l0.049,0.072l-0.03-0.082l-0.019,0.01l0.049,0.072l-0.03-0.082l0.011,0.029l-0.008-0.029h-0.003
		l0.011,0.029l-0.008-0.029c0,0-0.015,0.002-0.041,0.002h-0.006v0.211l0.002-0.211c-0.438-0.002-0.873-0.004-1.31-0.004
		c-0.442,0-0.884,0.002-1.325,0.002V14.896v0.209c0.441,0,0.883,0,1.325,0c0.435,0,0.871,0,1.306,0.006h0.002h0.001h0.005
		c0.045,0,0.087-0.004,0.134-0.014c0.034-0.008,0.073-0.021,0.11-0.043c0.057-0.033,0.105-0.094,0.127-0.152
		c0.023-0.059,0.029-0.113,0.029-0.164c0-0.014,0-0.031-0.002-0.049v0.002c-0.005-0.086-0.006-0.174-0.006-0.262
		c0-0.109,0.002-0.221,0.006-0.334v-0.002v-0.008l0,0v-0.008c0-0.072-0.014-0.148-0.046-0.217c-0.031-0.066-0.076-0.123-0.124-0.17
		c-0.196-0.191-0.289-0.424-0.289-0.656c0-0.223,0.086-0.445,0.271-0.633h-0.001c0.063-0.063,0.115-0.137,0.146-0.221
		c0.032-0.082,0.043-0.168,0.043-0.248v-0.008v-0.002c-0.006-0.766-0.006-1.533-0.008-2.303V9.619c0-0.023-0.001-0.045-0.001-0.063
		c0-0.02,0.001-0.031,0.001-0.041l0.002-0.004V9.51l-0.049-0.014l0.037,0.031l0.012-0.018l-0.049-0.014l0.037,0.031l-0.038-0.033
		l0.028,0.043l0.01-0.01l-0.038-0.033l0.028,0.043L11.322,9.52l0.01,0.018h0.002L11.322,9.52l0.01,0.018h0.002h0.001L11.32,9.496
		v0.041h0.015L11.32,9.496v0.041V9.477l-0.024,0.059c0.003,0.002,0.014,0.002,0.024,0.002V9.477l-0.024,0.059l0.009-0.02
		l-0.012,0.018l0.003,0.002l0.009-0.02l-0.012,0.018c0,0,0.01,0.006,0.024,0.02c0.014,0.014,0.032,0.033,0.058,0.055l0,0
		c0.405,0.389,0.807,0.785,1.226,1.17v-0.002c0.011,0.012,0.019,0.02,0.022,0.025l0.008,0.008l0,0l0.075-0.047H12.62
		c0,0.027,0.01,0.047,0.011,0.047l0.075-0.047H12.62h0.107l-0.101-0.037c-0.004,0.008-0.007,0.023-0.007,0.037h0.107l-0.101-0.037
		l0.057,0.021l-0.052-0.033l-0.005,0.012l0.057,0.021l-0.052-0.033v0.002v-0.002l0,0v0.002v-0.002
		c-0.002,0.004-0.017,0.02-0.041,0.043l0,0c-0.487,0.453-0.97,0.912-1.45,1.377l0,0c-0.263,0.252-0.402,0.584-0.402,0.91
		c0,0.281,0.104,0.563,0.307,0.781l0,0c0.241,0.262,0.563,0.402,0.889,0.402c0.303,0,0.607-0.121,0.857-0.352
		c0.602-0.557,1.197-1.117,1.795-1.678l0,0c0.295-0.275,0.523-0.611,0.634-1.018c0.046-0.168,0.072-0.338,0.072-0.506
		c0-0.174-0.028-0.348-0.092-0.516c-0.063-0.164-0.161-0.322-0.292-0.469c-0.744-0.814-1.48-1.639-2.242-2.443
		C12.16,6.711,11.518,6.375,10.767,6.3c-0.022-0.003-0.046-0.004-0.067-0.004c-0.039,0-0.08,0.004-0.123,0.015
		c-0.063,0.017-0.126,0.054-0.172,0.101s-0.076,0.098-0.102,0.15v0.001C9.704,7.84,9.102,9.113,8.496,10.387l0-0.002
		c-0.044,0.09-0.071,0.191-0.07,0.293c0,0.066,0.012,0.133,0.029,0.195c0.128,0.436,0.24,0.885,0.377,1.332
		c0.014,0.043,0.018,0.072,0.017,0.074H8.85l0,0H8.849H8.85l0,0l0.064,0.006l-0.057-0.027C8.85,12.27,8.85,12.279,8.85,12.279
		l0.064,0.006l-0.057-0.027l0.074,0.035l-0.059-0.059l-0.016,0.023l0.074,0.035l-0.059-0.059l0.033,0.035L8.88,12.229l-0.007,0.006
		l0.033,0.035L8.88,12.229l0.003,0.002l-0.002-0.002H8.88l0.003,0.002l-0.002-0.002c-0.002,0-0.021,0.01-0.055,0.016l0,0
		c-0.248,0.051-0.488,0.123-0.721,0.201l0,0c-0.015,0.006-0.025,0.008-0.034,0.008l-0.01,0.002v0.059l0.022-0.051
		c-0.012-0.008-0.022-0.008-0.022-0.008v0.059l0.022-0.051l-0.032,0.072l0.055-0.061l-0.023-0.012l-0.032,0.072l0.055-0.061
		l-0.033,0.037l0.04-0.029l-0.007-0.008l-0.033,0.037l0.04-0.029l-0.003,0.002l0.003-0.002l0,0l-0.003,0.002l0.003-0.002
		c-0.001,0-0.01-0.018-0.018-0.051l0,0c-0.106-0.408-0.224-0.807-0.332-1.205c-0.022-0.08-0.05-0.15-0.07-0.211
		c-0.021-0.061-0.03-0.109-0.03-0.127l0-0.008l-0.038-0.012l0.031,0.023l0.007-0.012l-0.038-0.012l0.031,0.023l-0.034-0.027
		l0.025,0.037l0.008-0.01l-0.034-0.027l0.025,0.037l-0.005-0.008l0.004,0.008h0l-0.005-0.008l0.004,0.008
		c0.001-0.004,0.041-0.016,0.099-0.023c0.059-0.01,0.133-0.018,0.22-0.045c0.051-0.018,0.102-0.037,0.154-0.086
		c0.026-0.023,0.051-0.057,0.067-0.094c0.016-0.037,0.022-0.078,0.022-0.111c-0.001-0.045-0.009-0.078-0.018-0.107
		s-0.021-0.053-0.03-0.076v0.002C7.583,9.082,7.005,7.805,6.429,6.526l0,0C6.408,6.48,6.381,6.423,6.322,6.368
		C6.292,6.34,6.253,6.316,6.211,6.3S6.125,6.279,6.084,6.279c-0.017,0-0.033,0-0.048,0.002l0,0C5.669,6.319,5.313,6.396,4.979,6.536
		c-0.334,0.14-0.646,0.344-0.915,0.63C3.336,7.941,2.62,8.725,1.906,9.508C1.826,9.598,1.734,9.691,1.65,9.805
		c-0.084,0.111-0.161,0.242-0.205,0.402c-0.05,0.18-0.074,0.354-0.074,0.523c0,0.293,0.074,0.564,0.201,0.811
		c0.127,0.248,0.305,0.467,0.516,0.67c0.577,0.555,1.167,1.092,1.747,1.637c0.262,0.246,0.58,0.379,0.899,0.379
		c0.316,0,0.626-0.133,0.865-0.385c0.212-0.219,0.318-0.504,0.317-0.789c0-0.346-0.151-0.691-0.432-0.957
		c-0.478-0.449-0.952-0.906-1.434-1.355c-0.01-0.01-0.018-0.018-0.023-0.023L4.02,10.709l0,0L3.939,10.76h0.094
		c0-0.029-0.013-0.051-0.013-0.051L3.939,10.76h0.094H3.937l0.084,0.053c0.002-0.002,0.013-0.023,0.013-0.053H3.937l0.084,0.053
		l-0.015-0.01l0.015,0.01h0l-0.015-0.01l0.015,0.01c0,0,0.007-0.008,0.022-0.021h0c0.421-0.391,0.83-0.789,1.242-1.182h0.001
		c0.037-0.035,0.063-0.063,0.075-0.072l0.005-0.004h0L5.34,9.484v0.055c0.013,0,0.026-0.006,0.026-0.006L5.34,9.484v0.055V9.482
		L5.329,9.537L5.34,9.539V9.482L5.329,9.537l0.004-0.021L5.326,9.537h0.003l0.004-0.021L5.326,9.537h0.001l0.02-0.041L5.314,9.527
		l0.013,0.01l0.02-0.041L5.314,9.527l0.048-0.045L5.304,9.512l0.01,0.016l0.048-0.045L5.304,9.512l0.034-0.016l-0.037,0.01
		l0.002,0.006l0.034-0.016l-0.037,0.01h0.001H5.301l0,0h0.001H5.301c0,0,0.002,0.014,0.002,0.035s-0.001,0.047-0.001,0.08
		c-0.002,0.77-0.003,1.537-0.01,2.303l0.211,0.002l-0.21-0.014c-0.001,0.016,0,0.021,0,0.021c0,0.084,0.013,0.172,0.046,0.254
		C5.373,12.27,5.425,12.34,5.487,12.4h0c0.181,0.182,0.276,0.418,0.275,0.643c0,0.189-0.062,0.369-0.196,0.52
		c-0.1,0.113-0.172,0.232-0.216,0.357c-0.045,0.123-0.061,0.25-0.061,0.377c0,0.035,0.001,0.072,0.004,0.109v-0.002
		C5.297,14.461,5.3,14.514,5.3,14.563c0,0.039-0.002,0.074-0.006,0.107l0,0c-0.004,0.027-0.006,0.057-0.006,0.086
		c0,0.051,0.007,0.104,0.032,0.16c0.019,0.041,0.048,0.08,0.084,0.109c0.053,0.045,0.111,0.063,0.159,0.072
		c0.049,0.01,0.092,0.012,0.136,0.012h0.017H5.714c0.417-0.004,0.835-0.004,1.254-0.004c0.452,0,0.904,0,1.356,0V14.896z"/>
	<path fill="#FFFFFF" d="M8.514,1.1L8.513,1.311c1.12,0.001,2.015,0.895,2.015,2.002v0.02l0.211-0.004l-0.211-0.002
		c-0.007,1.116-0.906,2.007-2.024,2.008h-0.01l0.002,0.211l0-0.211C7.38,5.332,6.481,4.429,6.481,3.315V3.313L6.307,3.314L6.48,3.33
		c0.001-0.012,0.001-0.017,0.001-0.017L6.307,3.314L6.48,3.33l0.001-0.01V3.311c0.001-0.56,0.226-1.057,0.591-1.417
		C7.438,1.533,7.943,1.312,8.51,1.311h0.002V1.165L8.508,1.311h0.004V1.165L8.508,1.311H8.51h0.003L8.514,1.1l0.005-0.21H8.512H8.51
		c-0.678,0-1.292,0.267-1.734,0.703C6.333,2.03,6.061,2.637,6.059,3.31L6.27,3.311l-0.21-0.02c0,0.01,0,0.017,0,0.021v0.004l0,0
		c0,1.346,1.088,2.437,2.436,2.441h0.001h0.002h0.005c1.349,0,2.438-1.08,2.447-2.427V3.324v0.001V3.313
		c0-1.341-1.088-2.423-2.437-2.423V1.1l0.005-0.21L8.514,1.1z"/>
	<path fill="#FFFFFF" d="M9.982,6.499L9.839,6.432c-0.538,1.155-1.075,2.31-1.631,3.507l0.143,0.066l0.145-0.064
		C8.396,9.721,8.313,9.539,8.233,9.359V9.357C7.825,8.445,7.42,7.533,7.007,6.621C6.994,6.592,6.984,6.569,6.979,6.554L6.975,6.54
		l0,0L6.926,6.546h0.049V6.54L6.926,6.546h0.049H6.877l0.082,0.051c0.013-0.021,0.016-0.043,0.016-0.051H6.877l0.082,0.051
		L6.875,6.544l0.052,0.084c0.009-0.005,0.021-0.016,0.032-0.031L6.875,6.544l0.052,0.084L6.899,6.583l0.017,0.051l0.011-0.005
		L6.899,6.583l0.017,0.051h0C6.92,6.633,6.944,6.629,6.982,6.629h0.007H6.99c0.269,0.003,0.538,0.003,0.807,0.003
		c0.652,0,1.303-0.005,1.956-0.005h0.002c0.043,0,0.073-0.005,0.095-0.004c0.026,0,0.035,0.001,0.056,0.012L9.982,6.499L9.839,6.432
		L9.982,6.499l0.078-0.138C9.984,6.317,9.904,6.307,9.849,6.308c-0.044,0-0.077,0.004-0.095,0.003H9.752
		c-0.653,0-1.305,0.006-1.956,0.006c-0.268,0-0.536-0.001-0.804-0.004h0.002H6.982C6.911,6.315,6.854,6.317,6.787,6.346
		c-0.033,0.015-0.07,0.042-0.095,0.081C6.667,6.466,6.658,6.512,6.658,6.546c0,0.046,0.011,0.08,0.022,0.111
		C6.691,6.69,6.704,6.72,6.719,6.751c0.412,0.911,0.817,1.823,1.225,2.735l0,0C8.025,9.67,8.108,9.852,8.207,10.07l0.142,0.314
		l0.146-0.313c0.556-1.197,1.093-2.352,1.63-3.506l0.063-0.133l-0.127-0.072L9.982,6.499z"/>
	<path fill="#FFFFFF" d="M8.506,10.557l-0.159-0.01c-0.001,0.02-0.004,0.031-0.007,0.039l-0.003,0.006l0.006,0.006L8.34,10.59
		l-0.003,0.002l0.006,0.006L8.34,10.59c0,0-0.005,0.002-0.018,0.002l0,0H8.32c-0.012,0-0.02-0.002-0.023-0.004H8.295l-0.003,0.006
		l0.005-0.006H8.295l-0.003,0.006l0.005-0.006l-0.005,0.006l0.006-0.004l-0.001-0.002l-0.005,0.006l0.006-0.004l-0.001-0.004
		c-0.001-0.004-0.002-0.01-0.002-0.02v-0.002H8.229l0.065,0.002v-0.002H8.229l0.065,0.002l-0.116-0.004l0.116,0.012l0-0.008
		l-0.116-0.004l0.116,0.012l0-0.006v-0.008c0-0.012,0.002-0.02,0.003-0.021l0.001-0.004H8.293l0.005,0.002l0.001-0.002H8.293
		l0.005,0.002l-0.007-0.006l0.006,0.008l0.001-0.002l-0.007-0.006l0.006,0.008l0,0c0,0,0.006-0.004,0.021-0.004h0h0.002l-0.001-0.08
		v0.08h0.001l-0.001-0.08v0.08c0.014,0,0.021,0.004,0.023,0.004h0.001l0.004-0.006L8.34,10.537l0.002,0.002l0.004-0.006L8.34,10.537
		l0,0l0,0l0,0l0,0l0,0c0.001,0.002,0.005,0.012,0.007,0.031L8.506,10.557l-0.159-0.01L8.506,10.557l0.158-0.012
		c-0.008-0.078-0.031-0.162-0.096-0.227c-0.031-0.033-0.071-0.059-0.115-0.076c-0.043-0.016-0.088-0.021-0.135-0.021H8.313h0.001
		c-0.044,0-0.089,0.008-0.131,0.021c-0.062,0.025-0.119,0.07-0.153,0.127c-0.035,0.057-0.05,0.121-0.051,0.184l0.158,0.004
		l-0.158-0.018c-0.001,0.018,0,0.027-0.001,0.027c0,0.043,0.006,0.088,0.022,0.131c0.023,0.063,0.068,0.123,0.128,0.158
		c0.058,0.037,0.126,0.053,0.192,0.053h0.006l0,0c0.043,0,0.086-0.006,0.128-0.023c0.063-0.023,0.12-0.07,0.154-0.129
		c0.036-0.059,0.051-0.123,0.057-0.189v-0.01v-0.012L8.506,10.557z"/>
</g>
</svg>
