<?xml version="1.0" encoding="utf-8"?>
<!-- Generator: Adobe Illustrator 16.0.0, SVG Export Plug-In . SVG Version: 6.00 Build 0)  -->
<!DOCTYPE svg PUBLIC "-//W3C//DTD SVG 1.1//EN" "http://www.w3.org/Graphics/SVG/1.1/DTD/svg11.dtd">
<svg version="1.1" id="Layer_1" xmlns="http://www.w3.org/2000/svg" xmlns:xlink="http://www.w3.org/1999/xlink" x="0px" y="0px"
	 width="16px" height="16px" viewBox="0 0 16 16" enable-background="new 0 0 16 16" xml:space="preserve">
<g>
	<path fill="#0071BC" d="M5.577,11.207C5.574,9.883,6.645,8.822,7.932,8.789c1.344-0.035,2.467,1.031,2.483,2.387
		c0.018,1.344-1.058,2.438-2.382,2.455C6.68,13.646,5.572,12.549,5.577,11.207z M9.515,10.922c-0.403,0-0.801,0-1.207,0
		c0-0.441,0-0.877,0-1.316c-0.211,0-0.414,0-0.627,0c0,0.439,0,0.875,0,1.318c-0.405,0-0.804,0-1.202,0c0,0.211,0,0.414,0,0.625
		c0.402,0,0.8,0,1.207,0c0,0.441,0,0.877,0,1.314c0.211,0,0.415,0,0.626,0c0-0.439,0-0.877,0-1.32c0.406,0,0.808,0,1.203,0
		C9.515,11.336,9.515,11.133,9.515,10.922z"/>
	<path fill="#0071BC" d="M7.996,2.985c1.063,0,1.921,0.873,1.921,1.961C9.919,6.01,9.048,6.888,7.99,6.879
		C6.909,6.87,6.088,5.996,6.076,4.964C6.063,3.822,6.97,2.996,7.996,2.985z"/>
	<path fill="#0071BC" d="M4.459,9.83c0.007-0.174,0.005-0.352,0.023-0.525C4.53,8.898,4.675,8.531,4.933,8.213
		c0.273-0.335,0.621-0.571,1.011-0.748C6.098,7.391,6.26,7.334,6.419,7.278C6.445,7.264,6.482,7.27,6.508,7.283
		c0.328,0.158,0.674,0.258,1.033,0.315c0.174,0.024,0.353,0.039,0.527,0.035c0.355-0.005,0.698-0.085,1.032-0.197
		C9.233,7.394,9.362,7.33,9.494,7.278C9.515,7.27,9.538,7.264,9.563,7.27c0.528,0.182,1.021,0.426,1.407,0.846
		c0.311,0.334,0.484,0.734,0.537,1.187c0.018,0.172,0.025,0.344,0.031,0.512c-0.1,0-0.179,0.002-0.264-0.004
		c-0.313-0.01-0.62-0.027-0.934-0.037c-0.057-0.002-0.096-0.02-0.13-0.068C9.817,9.133,9.285,8.75,8.608,8.6
		C7.776,8.41,7.014,8.582,6.334,9.107C6.106,9.285,5.916,9.5,5.753,9.738C5.742,9.756,5.716,9.773,5.695,9.773
		C5.296,9.797,4.897,9.816,4.499,9.838C4.489,9.838,4.481,9.834,4.459,9.83z"/>
	<path fill="#0071BC" d="M11.165,6.206c0.014-0.918,0.737-1.62,1.615-1.6c0.899,0.017,1.602,0.773,1.551,1.696
		c-0.044,0.862-0.761,1.554-1.657,1.512C11.819,7.777,11.162,7.045,11.165,6.206z"/>
	<path fill="#0071BC" d="M4.824,6.211C4.819,7.063,4.167,7.827,3.203,7.817c-0.85-0.011-1.539-0.714-1.549-1.578
		c-0.012-0.901,0.69-1.631,1.57-1.636C4.105,4.597,4.819,5.314,4.824,6.211z"/>
	<path fill="#0071BC" d="M4.553,8.159C4.386,8.436,4.277,8.711,4.208,9.002c-0.07,0.289-0.096,0.586-0.092,0.891
		C2.826,9.99,1.54,10.129,0.266,10.33c-0.002-0.004-0.007-0.004-0.007-0.008c-0.03-0.416,0.025-0.816,0.24-1.182
		c0.208-0.352,0.513-0.598,0.873-0.778C1.53,8.284,1.699,8.222,1.866,8.156C1.89,8.147,1.928,8.151,1.955,8.162
		C2.236,8.298,2.536,8.38,2.842,8.427c0.551,0.084,1.068-0.045,1.57-0.269C4.446,8.144,4.496,8.159,4.553,8.159z"/>
	<path fill="#0071BC" d="M15.749,10.303c-1.297-0.199-2.58-0.334-3.878-0.428c0.005-0.295-0.02-0.59-0.088-0.881
		c-0.071-0.289-0.183-0.56-0.334-0.818c0.05-0.034,0.089-0.037,0.146-0.009c0.275,0.134,0.571,0.213,0.876,0.26
		c0.553,0.084,1.07-0.045,1.573-0.271c0.021-0.009,0.048-0.012,0.064-0.003c0.41,0.136,0.79,0.324,1.103,0.632
		c0.271,0.268,0.441,0.596,0.496,0.975C15.733,9.936,15.736,10.109,15.749,10.303z"/>
</g>
</svg>
