<?xml version="1.0" encoding="utf-8"?>
<!-- Generator: Adobe Illustrator 16.0.0, SVG Export Plug-In . SVG Version: 6.00 Build 0)  -->
<!DOCTYPE svg PUBLIC "-//W3C//DTD SVG 1.1//EN" "http://www.w3.org/Graphics/SVG/1.1/DTD/svg11.dtd">
<svg version="1.1" id="Layer_1" xmlns="http://www.w3.org/2000/svg" xmlns:xlink="http://www.w3.org/1999/xlink" x="0px" y="0px"
	 width="16px" height="16px" viewBox="0 0 16 16" enable-background="new 0 0 16 16" xml:space="preserve">
<g>
	<path fill-rule="evenodd" clip-rule="evenodd" d="M9.049,7.246C9.076,7.22,9.104,7.194,9.133,7.168
		C9.288,7.142,9.361,6.99,9.497,6.934c0.076,0.007,0.116-0.027,0.12-0.103c0.04-0.039,0.077-0.079,0.078-0.14
		C9.762,6.673,9.81,6.63,9.845,6.572C9.962,6.55,10.03,6.47,10.083,6.374c0.104-0.037,0.203-0.08,0.233-0.202
		c0.078-0.069,0.155-0.138,0.233-0.206c0.072,0.004,0.109-0.035,0.122-0.102c0.024-0.013,0.05-0.027,0.075-0.04
		c0.07,0.026,0.119-0.011,0.17-0.055c0.265-0.229,0.533-0.456,0.798-0.686c0.225-0.196,0.479-0.215,0.721-0.05
		c0.09,0.061,0.178,0.123,0.268,0.184c0.205,0.273,0.506,0.441,0.745,0.678c-0.058,0.055-0.115,0.111-0.173,0.167
		c-0.034,0-0.07,0-0.105,0c-0.039-0.034-0.077-0.067-0.115-0.101c-0.074-0.132-0.167-0.243-0.323-0.279
		c-0.008-0.011-0.019-0.019-0.032-0.024c-0.015-0.058-0.049-0.095-0.111-0.098L12.58,5.554c-0.012-0.06-0.047-0.095-0.109-0.1
		l-0.003-0.002c-0.215-0.32-0.39-0.348-0.682-0.108c-0.161,0.132-0.329,0.257-0.479,0.399c-0.309,0.289-0.681,0.509-0.939,0.851
		l-0.005,0.004c-0.062,0.006-0.095,0.044-0.113,0.1c-0.029,0.025-0.06,0.05-0.088,0.075c-0.144,0.032-0.23,0.128-0.294,0.252
		C9.837,7.05,9.807,7.074,9.776,7.098c-0.229,0.11-0.423,0.261-0.559,0.481C9.172,7.618,9.127,7.657,9.082,7.696
		c-0.16,0.064-0.163,0.141-0.019,0.229C9.069,7.953,9.076,7.98,9.082,8.008C9.052,8.091,8.994,8.14,8.903,8.143
		C8.688,7.957,8.686,7.747,8.841,7.524C8.908,7.429,8.979,7.339,9.049,7.246z"/>
	<path fill-rule="evenodd" clip-rule="evenodd" d="M1.537,3.821C2.325,3.87,3.114,3.83,3.902,3.842
		C4.201,3.846,4.5,3.839,4.799,3.844c0.133,0.002,0.277-0.007,0.358,0.138c-0.294-0.056-0.593-0.043-0.89-0.043
		c-0.77,0-1.54,0.004-2.311-0.002c-0.274-0.003-0.542,0.01-0.798,0.111c0-0.036,0-0.072,0.002-0.108l0,0
		C1.25,3.937,1.323,3.903,1.378,3.831C1.431,3.827,1.484,3.824,1.537,3.821z"/>
	<path fill-rule="evenodd" clip-rule="evenodd" d="M1.161,3.94C1.159,3.977,1.159,4.012,1.158,4.048
		C1.15,4.058,1.145,4.069,1.144,4.083C1.091,4.126,1.039,4.17,0.985,4.213c-0.044-0.025-0.041-0.068-0.043-0.11
		C0.979,4.049,1.015,3.995,1.052,3.94C1.088,3.94,1.124,3.94,1.161,3.94z"/>
	<path fill-rule="evenodd" clip-rule="evenodd" d="M6.98,6.693c0.006,0.028,0.012,0.056,0.018,0.083
		c-0.072,0.074-0.154,0.05-0.237,0.026c0.012-0.037,0.023-0.075,0.036-0.112C6.858,6.692,6.919,6.693,6.98,6.693z"/>
	<path fill-rule="evenodd" clip-rule="evenodd" d="M15.069,7.113c-0.104-0.017-0.168-0.083-0.215-0.171
		C14.976,6.938,15.07,6.964,15.069,7.113z"/>
	<path fill-rule="evenodd" clip-rule="evenodd" d="M1.378,3.831C1.323,3.903,1.25,3.937,1.161,3.94
		C1.191,3.822,1.244,3.746,1.378,3.831z"/>
	<path fill-rule="evenodd" clip-rule="evenodd" d="M5.355,3.95C5.291,3.939,5.254,3.901,5.242,3.836
		C5.322,3.833,5.36,3.871,5.355,3.95z"/>
	<path fill-rule="evenodd" clip-rule="evenodd" d="M15.162,8.289c-0.012,0.003-0.023,0.007-0.035,0.013
		c-0.055-0.002-0.108-0.002-0.162-0.004c-0.14-0.055-0.279-0.116-0.381,0.063c-0.054-0.001-0.107-0.001-0.162-0.001
		c0.024-0.169-0.05-0.326-0.058-0.491c0.037,0,0.073,0,0.11,0c0.059,0.106,0.105,0.233,0.271,0.168
		c0.091,0.002,0.184,0.004,0.275,0.007c0.016,0.085,0.037,0.166,0.124,0.207C15.146,8.266,15.151,8.278,15.162,8.289z"/>
	<path fill-rule="evenodd" clip-rule="evenodd" d="M14.584,8.36c0.102-0.179,0.241-0.118,0.381-0.063
		c-0.006,0.029-0.011,0.057-0.016,0.085c-0.063,0-0.127,0-0.19,0c-0.036-0.007-0.074-0.015-0.112-0.021
		C14.626,8.361,14.605,8.361,14.584,8.36z"/>
	<path fill-rule="evenodd" clip-rule="evenodd" d="M15.162,8.289c-0.011-0.011-0.017-0.023-0.017-0.038
		c0.054-0.055,0.078-0.141,0.163-0.166c0.052,0.07,0.021,0.139-0.002,0.207C15.258,8.291,15.21,8.29,15.162,8.289z"/>
	<path fill-rule="evenodd" clip-rule="evenodd" d="M14.949,8.382c0.005-0.029,0.01-0.057,0.016-0.085
		c0.054,0.002,0.107,0.002,0.162,0.004C15.111,8.425,15.036,8.417,14.949,8.382z"/>
	<path fill-rule="evenodd" clip-rule="evenodd" d="M14.598,11.147c0,0.366-0.02,0.386-0.396,0.377
		c-0.061-0.183-0.215-0.104-0.325-0.104c-4.314-0.004-8.629-0.004-12.943-0.004C0.9,11.288,0.931,11.16,0.939,11.032
		c0.102-0.071,0.067-0.182,0.067-0.274C1.009,9.205,1.009,7.653,1.008,6.1C1.007,5.995,1.035,5.878,0.927,5.799
		c0.003-0.147,0.006-0.295,0.009-0.442C1.122,5.297,1.094,5.134,1.1,4.999c0.013-0.306-0.015-0.613,0.044-0.916
		C1.145,4.069,1.15,4.058,1.158,4.048c0.257-0.101,0.524-0.114,0.798-0.111c0.771,0.006,1.541,0.001,2.311,0.002
		c0.297,0,0.596-0.013,0.89,0.043C5.332,4.157,5.35,4.378,5.351,4.607c0.001,0.851,0.006,1.702,0.011,2.552
		c-0.069,0.065-0.029,0.115,0.03,0.143C5.468,7.338,5.548,7.346,5.593,7.25c0.319-0.125,0.67-0.165,0.957-0.372
		c0.048,0.027,0.065,0.072,0.071,0.124C6.564,7.035,6.56,7.093,6.553,7.15C6.444,7.203,6.329,7.216,6.21,7.219
		C6.077,7.222,5.926,7.267,5.909,7.405C5.875,7.686,5.7,7.898,5.607,8.147C5.522,8.373,5.716,8.646,5.939,8.619
		c0.755-0.092,1.522,0.049,2.274-0.107C8.186,8.673,8.099,8.772,7.929,8.785c-0.01-0.045-0.026-0.087-0.08-0.086
		C7.777,8.7,7.769,8.752,7.769,8.808C7.75,8.824,7.732,8.839,7.715,8.854C7.639,8.853,7.563,8.853,7.488,8.853
		C7.457,8.85,7.426,8.846,7.395,8.844c-0.121-0.071-0.24-0.059-0.359,0.002C6.96,8.85,6.895,8.865,6.896,8.961
		c0,0.097,0.072,0.106,0.143,0.115h0.01C7.086,9.233,7.18,9.165,7.266,9.131C7.289,9.152,7.31,9.151,7.328,9.124
		C7.404,9.12,7.431,9.182,7.469,9.229c0,0.014,0.002,0.026,0.006,0.038C7.427,9.283,7.378,9.301,7.33,9.317
		C7.248,9.216,7.235,9.318,7.202,9.361C7.143,9.39,7.083,9.417,7.024,9.445C6.85,9.558,6.831,9.868,6.987,10.057
		c0.017,0.076,0.015,0.171,0.139,0.133c0.038-0.009,0.075-0.018,0.112-0.025c0.086,0.035,0.17,0.06,0.248-0.021
		c0.397,0.056,0.794-0.021,1.192,0.011c0.021,0.021,0.044,0.041,0.066,0.063c0.003,0.034,0.005,0.068,0.008,0.103
		c-0.039,0.036-0.077,0.071-0.115,0.107c-0.056,0-0.11,0.001-0.167,0.002c-0.051-0.063-0.105-0.063-0.159-0.004
		c-0.856,0.003-1.711,0.006-2.566,0.01c-0.034-0.054-0.069-0.06-0.109-0.008c-0.179,0.005-0.357,0.009-0.537,0.012
		c-0.09-0.001-0.122,0.046-0.103,0.132c0,0.018,0,0.036,0,0.055c0.001,0.097-0.021,0.216,0.146,0.14
		c0.063-0.002,0.126-0.005,0.189-0.005c1.041,0,2.083,0,3.125,0.001c0.152,0,0.305,0.009,0.279-0.217
		c0.067-0.023,0.135-0.047,0.202-0.071c0.013,0.055,0.025,0.108,0.038,0.164c-0.016,0.087,0.021,0.124,0.109,0.114
		c0.139-0.001,0.215,0.055,0.202,0.207c-0.015,0.169,0.077,0.218,0.23,0.188c0.216-0.006,0.142-0.167,0.149-0.283
		c0-0.049,0-0.1,0-0.149C9.669,10.002,9.67,9.291,9.673,8.58c0-0.112,0.008-0.225-0.154-0.225L9.508,8.361
		C9.41,8.156,9.242,8.282,9.102,8.274C9.017,8.26,8.927,8.253,8.903,8.143C8.994,8.14,9.052,8.091,9.082,8.008
		C9.203,8.03,9.334,8.115,9.429,7.957c0.106-0.038,0.165-0.152,0.285-0.166C9.74,7.86,9.837,7.884,9.835,7.974
		c-0.044,0.038-0.058,0.075,0,0.114C9.828,8.14,9.823,8.192,9.817,8.244C9.743,8.267,9.729,8.325,9.729,8.393
		c0,0.857-0.002,1.712,0.003,2.57c0.001,0.105,0.018,0.225,0.173,0.224c0.318,0.001,0.638,0.001,0.956,0.002
		c0.078-0.001,0.148-0.007,0.058-0.103c0.006-0.525,0.012-1.051,0.018-1.576c0.103-0.019,0.102-0.096,0.096-0.175
		c0.695-0.068,1.391-0.058,2.086-0.004c-0.007,0.068,0.018,0.113,0.09,0.126c0.002,0.525,0.005,1.051,0.008,1.577
		c-0.075,0.081-0.019,0.099,0.053,0.111c0.347,0.083,0.693,0.083,1.04-0.004c0.035,0,0.072-0.001,0.108-0.001
		C14.477,11.143,14.537,11.146,14.598,11.147z M4.866,10.377c0.011-0.036,0.022-0.072,0.034-0.108
		c0.105-0.039,0.078-0.132,0.078-0.208c0.001-1.821,0.001-3.641,0-5.461c0-0.085,0.03-0.189-0.093-0.226
		C4.862,4.353,4.841,4.331,4.818,4.31c-0.022-0.093-0.095-0.097-0.17-0.097c-0.972,0-1.944,0-2.917,0.002
		C1.5,4.216,1.383,4.341,1.381,4.571C1.378,4.744,1.379,4.916,1.379,5.089c0,1.88-0.001,3.761,0.001,5.642
		c0,0.383,0.082,0.462,0.462,0.466c0.282,0.002,0.563,0.002,0.844-0.001c0.087-0.001,0.19,0.027,0.222-0.1
		c0.022-0.038,0.044-0.076,0.066-0.113c0.121-0.038,0.092-0.14,0.093-0.224c0.003-0.225-0.003-0.448,0.003-0.673
		c0.001-0.104-0.049-0.234,0.048-0.304C3.241,9.694,3.284,9.892,3.393,9.89c0,0.108,0,0.216,0,0.324
		c-0.148,0.157-0.148,0.445,0,0.603c0.003,0.054,0.007,0.106,0.011,0.16c-0.043,0.032-0.06,0.072-0.018,0.113
		c0.145,0.143,0.803,0.153,0.997,0.019c0.017-0.007,0.035-0.013,0.052-0.021c0.164-0.039,0.161-0.163,0.151-0.293l0.016-0.01
		l0.019,0.005c0.081,0.027,0.13,0.005,0.141-0.085c0.016-0.071,0.033-0.144,0.05-0.215C4.879,10.476,4.95,10.464,4.866,10.377z
		 M6.729,8.85c-0.02-0.017-0.04-0.033-0.059-0.051C6.533,8.648,6.3,8.65,6.213,8.803c-0.044,0.079-0.032,0.137,0.064,0.16
		c0.023,0.032,0.047,0.064,0.072,0.096c0.006,0.074,0.013,0.146,0.106,0.058c0.094,0.012,0.187,0.012,0.269-0.048
		C6.88,8.999,6.879,8.927,6.729,8.85z M5.362,9.671C5.351,9.79,5.34,9.909,5.329,10.03c-0.026,0.185,0.105,0.181,0.225,0.181
		c0.141,0,0.311,0.044,0.367-0.146C5.96,9.93,6.043,9.771,5.85,9.671C5.733,9.587,5.6,9.616,5.47,9.613
		C5.387,9.541,5.37,9.597,5.362,9.671z M6.356,10.154c0.095,0.016,0.19,0.03,0.286,0.045c0.15,0.023,0.191-0.065,0.192-0.19
		c0.001-0.136-0.003-0.271,0.002-0.406c0.01-0.234-0.107-0.313-0.331-0.321c-0.25-0.007-0.285,0.127-0.273,0.324
		c0.007,0.127,0.001,0.254,0.001,0.381C6.234,10.071,6.239,10.154,6.356,10.154z M8.961,10.98L8.961,10.98
		c-0.02-0.132-0.123-0.108-0.21-0.108c-1.22-0.001-2.439-0.001-3.66-0.001c-0.085,0.001-0.189-0.027-0.224,0.097
		c-0.017,0.006-0.034,0.009-0.053,0.011c-0.017,0.019-0.035,0.038-0.052,0.058c0,0.018-0.001,0.036-0.005,0.052
		c-0.074,0.081-0.015,0.1,0.053,0.111c1.383,0,2.768-0.001,4.153-0.001c0.076-0.007,0.109-0.049,0.104-0.124
		C9.063,11.009,9.021,10.984,8.961,10.98z M12.102,11.25c0.19,0,0.383-0.017,0.571,0.005c0.29,0.032,0.37-0.135,0.377-0.369
		c0.008-0.353,0.005-0.707,0.001-1.061c-0.002-0.252-0.143-0.402-0.393-0.363c-0.406,0.063-0.813,0.036-1.22,0.038
		c-0.234,0.001-0.333,0.122-0.34,0.328c-0.011,0.344-0.01,0.688-0.001,1.033c0.007,0.27,0.136,0.387,0.405,0.389
		C11.703,11.252,11.902,11.251,12.102,11.25z M5.595,9.173c0.158,0.011,0.296-0.03,0.28-0.208c-0.018-0.189-0.183-0.25-0.348-0.273
		C5.37,8.669,5.334,8.769,5.33,8.907C5.327,9.098,5.399,9.198,5.595,9.173z M5.432,7.965c0.062-0.023,0.13-0.048,0.142-0.132
		C5.584,7.761,5.558,7.71,5.478,7.706C5.403,7.702,5.359,7.74,5.355,7.815C5.353,7.874,5.338,7.943,5.432,7.965z"/>
	<path fill-rule="evenodd" clip-rule="evenodd" d="M0.934,11.417c4.314,0,8.629,0,12.943,0.004c0.11,0,0.265-0.079,0.325,0.104
		c-0.108,0.002-0.218,0.008-0.326,0.008c-4.314,0-8.628,0.001-12.942,0.001C0.934,11.494,0.934,11.456,0.934,11.417z"/>
	<path fill-rule="evenodd" clip-rule="evenodd" d="M1.144,4.083C1.084,4.386,1.112,4.693,1.1,4.999
		C1.094,5.134,1.122,5.297,0.936,5.357C0.934,5.314,0.931,5.272,0.929,5.23c0.068-0.039,0.074-0.089,0.028-0.149
		c0.057-0.288,0.011-0.579,0.029-0.868C1.039,4.17,1.091,4.126,1.144,4.083z"/>
	<path fill-rule="evenodd" clip-rule="evenodd" d="M0.957,5.081c0.046,0.06,0.041,0.11-0.028,0.149
		C0.902,5.173,0.862,5.114,0.957,5.081z"/>
	<path fill-rule="evenodd" clip-rule="evenodd" d="M15.309,8.085c-0.085,0.024-0.109,0.111-0.163,0.166
		c-0.087-0.041-0.108-0.122-0.124-0.207c0.087-0.132,0.207-0.264,0-0.396c-0.028-0.027-0.057-0.055-0.085-0.082
		c-0.075-0.149-0.184-0.259-0.351-0.302c-0.049-0.041-0.098-0.082-0.147-0.123c-0.025-0.048-0.05-0.096-0.074-0.144
		c0.001-0.019,0.002-0.039,0.004-0.058c0.106,0.023,0.158-0.063,0.228-0.114c0.179,0.227,0.375,0.432,0.651,0.541
		C15.371,7.598,15.295,7.845,15.309,8.085z"/>
	<path fill-rule="evenodd" clip-rule="evenodd" d="M7.238,10.164c0.013-0.022,0.027-0.044,0.04-0.065
		c0.071,0.006,0.151-0.026,0.208,0.045C7.408,10.224,7.324,10.199,7.238,10.164z"/>
	<path fill-rule="evenodd" clip-rule="evenodd" d="M8.744,10.217c-0.022-0.021-0.045-0.042-0.066-0.063
		C8.79,9.971,8.817,10.14,8.87,10.2c-0.009,0.008-0.018,0.017-0.026,0.025C8.811,10.223,8.777,10.22,8.744,10.217z"/>
	<path fill-rule="evenodd" clip-rule="evenodd" d="M7.582,9.176c0.006,0.02,0.013,0.038,0.019,0.059
		c-0.015,0.007-0.03,0.01-0.045,0.009c0,0-0.009-0.009-0.01-0.009C7.539,9.227,7.531,9.218,7.524,9.21
		C7.544,9.198,7.563,9.188,7.582,9.176z"/>
	<path fill-rule="evenodd" clip-rule="evenodd" d="M7.546,9.29c-0.023-0.009-0.047-0.016-0.07-0.023
		C7.471,9.255,7.469,9.242,7.469,9.229c0.017-0.001,0.033-0.004,0.05-0.006c0.011,0,0.02,0.004,0.027,0.012l0.009,0.009
		C7.556,9.259,7.552,9.274,7.546,9.29z"/>
	<path fill-rule="evenodd" clip-rule="evenodd" d="M13.375,6.182c-0.016,0-0.03-0.002-0.045-0.006
		c-0.019-0.038-0.036-0.077-0.055-0.115c0.058-0.056,0.115-0.111,0.173-0.167c0.012-0.005,0.024-0.007,0.037-0.005
		c0.172-0.008,0.212,0.175,0.34,0.232c0.019,0.034,0.036,0.067,0.056,0.102c0.001,0.039,0.003,0.077,0.005,0.116
		c-0.071,0.005-0.156-0.012-0.174,0.094c-0.058-0.003-0.085-0.046-0.113-0.087C13.59,6.2,13.498,6.17,13.375,6.182z"/>
	<path fill-rule="evenodd" clip-rule="evenodd" d="M9.109,7.87C9.203,7.943,9.32,7.936,9.429,7.957
		C9.334,8.115,9.203,8.03,9.082,8.008C9.076,7.98,9.069,7.953,9.063,7.926C9.078,7.907,9.094,7.889,9.109,7.87z"/>
	<path fill-rule="evenodd" clip-rule="evenodd" d="M9.109,7.87C9.094,7.889,9.078,7.907,9.063,7.926
		C8.919,7.837,8.922,7.761,9.082,7.696C9.091,7.754,9.1,7.812,9.109,7.87z"/>
	<path fill-rule="evenodd" clip-rule="evenodd" d="M13.275,6.061c0.019,0.038,0.036,0.077,0.055,0.115
		c-0.085,0.006-0.159-0.002-0.16-0.115C13.205,6.061,13.241,6.061,13.275,6.061z"/>
	<path fill-rule="evenodd" clip-rule="evenodd" d="M10.362,6.598c0.012,0.089-0.023,0.125-0.113,0.1
		C10.268,6.643,10.301,6.604,10.362,6.598z"/>
	<path fill-rule="evenodd" clip-rule="evenodd" d="M12.699,5.657c-0.089,0.026-0.127-0.005-0.111-0.098
		C12.65,5.562,12.685,5.599,12.699,5.657z"/>
	<path fill-rule="evenodd" clip-rule="evenodd" d="M9.497,6.934c0.017-0.062,0.052-0.102,0.12-0.103
		C9.613,6.907,9.573,6.941,9.497,6.934z"/>
	<path fill-rule="evenodd" clip-rule="evenodd" d="M12.58,5.554c-0.086,0.022-0.12-0.014-0.109-0.1
		C12.533,5.459,12.568,5.494,12.58,5.554z"/>
	<path fill-rule="evenodd" clip-rule="evenodd" d="M6.621,7.001C6.616,6.949,6.599,6.904,6.55,6.877
		c0.05-0.083,0.135-0.066,0.211-0.074c0.083,0.024,0.166,0.048,0.237-0.026c0.276,0.119,0.563,0.22,0.825,0.364
		c0.228,0.124,0.243,0.381,0.283,0.61C8.021,7.753,7.936,7.754,7.85,7.756C7.84,7.684,7.832,7.612,7.822,7.54
		c0.066-0.129-0.021-0.149-0.116-0.161v0C7.612,7.142,7.414,7.231,7.243,7.232c-0.062-0.046-0.124-0.093-0.187-0.14
		c-0.02-0.087-0.073-0.1-0.146-0.065C6.879,7.03,6.85,7.034,6.819,7.036C6.752,7.025,6.687,7.013,6.621,7.001z"/>
	<path fill-rule="evenodd" clip-rule="evenodd" d="M5.593,7.25C5.548,7.346,5.468,7.338,5.392,7.302
		c-0.059-0.028-0.1-0.078-0.03-0.143C5.439,7.189,5.516,7.219,5.593,7.25z"/>
	<path fill-rule="evenodd" clip-rule="evenodd" d="M9.519,8.355c0.162,0,0.154,0.112,0.154,0.225
		c-0.003,0.711-0.004,1.422-0.006,2.133c-0.04-0.006-0.079-0.011-0.119-0.017c-0.007-0.643-0.013-1.288-0.02-1.934
		C9.526,8.628,9.522,8.492,9.519,8.355z"/>
	<path fill-rule="evenodd" clip-rule="evenodd" d="M9.667,10.862c-0.008,0.116,0.066,0.277-0.149,0.283
		c0.009-0.089,0.019-0.178,0.028-0.266C9.586,10.873,9.627,10.868,9.667,10.862z"/>
	<path fill-rule="evenodd" clip-rule="evenodd" d="M8.637,10.427c0.038-0.036,0.076-0.071,0.115-0.107c0.037,0,0.075,0,0.111,0
		c0.054,0.038,0.068,0.094,0.073,0.153c-0.066,0.024-0.134,0.048-0.201,0.071C8.702,10.504,8.669,10.466,8.637,10.427z"/>
	<path fill-rule="evenodd" clip-rule="evenodd" d="M9.102,8.274C9.242,8.282,9.41,8.156,9.508,8.361
		C9.371,8.339,9.213,8.418,9.102,8.274z"/>
	<path fill-rule="evenodd" clip-rule="evenodd" d="M9.667,10.862c-0.04,0.006-0.081,0.011-0.121,0.018
		c-0.03-0.063-0.03-0.122,0.002-0.184c0.04,0.006,0.079,0.011,0.119,0.017C9.667,10.763,9.667,10.813,9.667,10.862z"/>
	<path fill-rule="evenodd" clip-rule="evenodd" d="M8.863,10.319c-0.036,0-0.074,0-0.111,0c-0.003-0.034-0.005-0.068-0.008-0.103
		c0.033,0.003,0.066,0.006,0.1,0.009C8.851,10.256,8.857,10.288,8.863,10.319z"/>
	<path fill-rule="evenodd" clip-rule="evenodd" d="M9.085,10.751c-0.088,0.01-0.125-0.027-0.109-0.114
		C9.032,10.655,9.069,10.692,9.085,10.751z"/>
	<path fill-rule="evenodd" clip-rule="evenodd" d="M8.209,8.497c-0.027-0.025-0.054-0.05-0.082-0.075
		c0.064-0.119,0.125-0.236-0.029-0.335c-0.036-0.135-0.124-0.221-0.25-0.273C7.85,7.794,7.85,7.775,7.85,7.756
		c0.086-0.001,0.171-0.003,0.257-0.004C8.366,8.083,8.392,8.272,8.209,8.497z"/>
	<path fill-rule="evenodd" clip-rule="evenodd" d="M7.582,9.176C7.563,9.188,7.544,9.198,7.524,9.209L7.52,9.223
		c-0.017,0.002-0.033,0.005-0.05,0.006C7.431,9.182,7.404,9.12,7.328,9.124L7.326,9.121c-0.003-0.013-0.003-0.027-0.003-0.04
		c0.024-0.039,0.05-0.079,0.074-0.118c0.062-0.011,0.089-0.051,0.092-0.11c0.075,0,0.151,0,0.227,0.001
		C7.715,8.979,7.67,9.087,7.582,9.176z"/>
	<path fill-rule="evenodd" clip-rule="evenodd" d="M7.769,8.808c0-0.056,0.008-0.107,0.08-0.108c0.054-0.001,0.07,0.041,0.08,0.086
		C7.875,8.793,7.821,8.801,7.769,8.808z"/>
	<path fill-rule="evenodd" clip-rule="evenodd" d="M13.825,6.121c-0.128-0.057-0.168-0.24-0.34-0.232
		c0.036-0.083,0.107-0.161,0.026-0.255c0-0.05,0.001-0.101,0.003-0.151c0.174-0.162,0.76-0.25,0.966-0.153
		c0.102,0.048,0.113,0.131,0.112,0.225c-0.001,0.389-0.004,0.778-0.005,1.167c-0.121,0.006-0.102-0.136-0.183-0.172
		c0.004-0.236,0.01-0.472,0.01-0.708c-0.001-0.084,0.028-0.193-0.11-0.208c-0.357-0.138-0.452-0.083-0.468,0.271
		C13.835,5.977,13.829,6.049,13.825,6.121z"/>
	<path fill-rule="evenodd" clip-rule="evenodd" d="M14.405,6.55c0.081,0.036,0.062,0.178,0.183,0.172
		c0.002,0.035,0.005,0.069,0.008,0.104c-0.069,0.052-0.121,0.137-0.228,0.114c-0.044-0.088-0.121-0.113-0.211-0.115
		c-0.031-0.004-0.063-0.008-0.096-0.013l-0.005-0.005c-0.007-0.05-0.034-0.079-0.086-0.082c-0.002-0.012-0.002-0.024,0-0.036
		c0.005-0.025,0.011-0.05,0.015-0.075c0.06-0.004,0.118-0.008,0.177-0.013C14.248,6.611,14.332,6.607,14.405,6.55z"/>
	<path fill-rule="evenodd" clip-rule="evenodd" d="M14.598,11.147c-0.061-0.002-0.121-0.005-0.181-0.007
		c0.002-0.928,0.003-1.854,0.005-2.782c0.055,0,0.108,0,0.162,0.001c0.021,0.001,0.042,0.001,0.063,0.001
		c-0.048,0.821-0.007,1.644-0.022,2.465C14.623,10.934,14.643,11.043,14.598,11.147z"/>
	<path fill-rule="evenodd" clip-rule="evenodd" d="M14.422,8.359c-0.002,0.927-0.003,1.854-0.005,2.782
		c-0.036,0-0.073,0.001-0.108,0.001c0.003-0.908,0-1.817,0.014-2.727c0.003-0.21-0.027-0.393-0.171-0.549
		c0.071,0.001,0.144,0.002,0.214,0.003l-0.001-0.001C14.372,8.033,14.446,8.19,14.422,8.359z"/>
	<path fill-rule="evenodd" clip-rule="evenodd" d="M14.767,7.959c0.169-0.035,0.295-0.104,0.255-0.311
		c0.207,0.132,0.087,0.264,0,0.396c-0.092-0.003-0.185-0.005-0.275-0.007C14.753,8.011,14.76,7.985,14.767,7.959z"/>
	<path fill-rule="evenodd" clip-rule="evenodd" d="M14.767,7.959c-0.007,0.026-0.014,0.052-0.021,0.077
		c-0.166,0.065-0.213-0.062-0.271-0.168c0.01-0.01,0.02-0.02,0.028-0.03c0.074,0.041,0.141,0.102,0.232,0.097
		C14.746,7.942,14.758,7.951,14.767,7.959z"/>
	<path fill-rule="evenodd" clip-rule="evenodd" d="M14.475,7.869c-0.037,0-0.073,0-0.11,0l0.001,0.001
		c0.007-0.041,0.014-0.083,0.021-0.124c0.058,0.007,0.088,0.051,0.117,0.093C14.494,7.849,14.484,7.859,14.475,7.869z"/>
	<path fill-rule="evenodd" clip-rule="evenodd" d="M11.965,6.233c-0.286,0.238-0.573,0.477-0.859,0.715
		c-0.021,0.02-0.043,0.038-0.064,0.057c-0.127,0.107-0.254,0.214-0.382,0.321c-0.123-0.004-0.225,0.019-0.211,0.178
		c-0.158,0.189-0.366,0.32-0.552,0.476C9.875,7.979,9.854,7.976,9.835,7.974C9.837,7.884,9.74,7.86,9.714,7.791
		C9.72,7.765,9.726,7.738,9.73,7.711c0.233-0.102,0.398-0.287,0.56-0.474l0.005-0.003c0.063-0.006,0.097-0.046,0.117-0.102
		c0.013-0.001,0.022-0.008,0.028-0.021c0.161-0.071,0.31-0.156,0.39-0.325c0.018-0.017,0.034-0.033,0.052-0.049
		c0.096-0.012,0.164-0.055,0.182-0.157c0.066-0.031,0.146-0.049,0.164-0.138c0.121-0.023,0.196-0.102,0.247-0.209
		c0.038-0.034,0.075-0.067,0.113-0.101c0.172-0.035,0.257-0.21,0.419-0.257c0.061,0.101,0.1,0.083,0.121-0.022
		c0.063,0.003,0.113,0.035,0.157,0.079c0.003,0.146,0.088,0.199,0.223,0.193c0.038,0.034,0.076,0.068,0.115,0.102
		c-0.006,0.106,0.068,0.118,0.147,0.121l0.006,0.004c0.01,0.079,0.014,0.162,0.131,0.133l0.006,0.003
		c-0.008,0.071-0.021,0.151,0.089,0.068c0.057,0.013,0.097,0.042,0.116,0.098c-0.004,0.126,0.055,0.181,0.18,0.161
		c0.029,0.022,0.058,0.045,0.087,0.067c0.044,0.182,0.146,0.288,0.346,0.267c0.055,0.035,0.109,0.069,0.164,0.103
		c0.007,0.025,0.014,0.05,0.021,0.075c-0.066,0.129,0.121,0.206,0.067,0.332c0.002,0.016,0.002,0.031,0,0.046
		c-0.348-0.2-0.608-0.506-0.926-0.744c-0.076-0.058-0.128-0.161-0.248-0.142l-0.015-0.014c-0.154-0.272-0.417-0.425-0.66-0.601
		C12.057,6.086,12,6.096,11.965,6.233z"/>
	<path fill-rule="evenodd" clip-rule="evenodd" d="M2.908,11.096c-0.032,0.127-0.135,0.099-0.222,0.1
		c-0.281,0.003-0.562,0.003-0.844,0.001c-0.38-0.004-0.462-0.083-0.462-0.466C1.378,8.85,1.379,6.969,1.379,5.089
		c0-0.173-0.001-0.345,0.002-0.518c0.002-0.23,0.12-0.355,0.351-0.356c0.972-0.002,1.944-0.001,2.917-0.002
		c0.075,0,0.148,0.003,0.17,0.097C4.779,4.319,4.741,4.329,4.702,4.338C4.626,4.324,4.55,4.313,4.479,4.358
		c-0.357-0.035-0.716-0.039-1.074,0C3.291,4.308,3.177,4.308,3.061,4.358c-0.47-0.043-0.941-0.023-1.411,0
		C1.524,4.317,1.482,4.36,1.524,4.485C1.518,5.538,1.507,6.591,1.506,7.644C1.505,8.732,1.515,9.821,1.52,10.91
		c-0.038,0.13,0.014,0.177,0.141,0.156c0.375,0,0.75-0.001,1.125-0.002C2.827,11.075,2.868,11.086,2.908,11.096z"/>
	<path fill-rule="evenodd" clip-rule="evenodd" d="M12.102,11.251c-0.199,0-0.398,0.001-0.599-0.001
		c-0.27-0.002-0.398-0.119-0.405-0.389c-0.009-0.345-0.01-0.689,0.001-1.033c0.007-0.206,0.105-0.327,0.34-0.328
		c0.407-0.002,0.813,0.025,1.22-0.038c0.25-0.039,0.391,0.111,0.393,0.363c0.004,0.354,0.007,0.708-0.001,1.061
		c-0.007,0.234-0.087,0.401-0.377,0.369C12.484,11.233,12.292,11.25,12.102,11.251z M12.066,11.139c0.199,0,0.399,0,0.599,0
		c0.163,0,0.248-0.07,0.245-0.247c-0.007-0.354-0.008-0.707,0.001-1.061c0.004-0.168-0.066-0.225-0.226-0.22
		c-0.244,0.007-0.489,0.001-0.734,0.001c-0.697,0.001-0.697,0.001-0.697,0.707C11.254,11.141,11.254,11.141,12.066,11.139z"/>
	<path fill-rule="evenodd" clip-rule="evenodd" d="M4.885,4.374C5.008,4.41,4.978,4.514,4.978,4.599c0.001,1.82,0.001,3.64,0,5.461
		c0,0.076,0.027,0.169-0.078,0.208c-0.019,0-0.038,0-0.056,0c0.006-0.035,0.017-0.071,0.017-0.106
		C4.86,8.272,4.858,6.383,4.857,4.493C4.866,4.454,4.875,4.414,4.885,4.374z"/>
	<path fill-rule="evenodd" clip-rule="evenodd" d="M8.962,10.98c-1.365-0.004-2.729-0.009-4.094-0.013
		c0.035-0.124,0.138-0.096,0.224-0.097c1.22,0,2.44,0,3.66,0.001C8.838,10.872,8.941,10.849,8.962,10.98z"/>
	<path fill-rule="evenodd" clip-rule="evenodd" d="M9.817,8.244c0.051,0.848,0.011,1.698,0.021,2.546
		c0.001,0.138,0.004,0.271,0.066,0.396c-0.155,0.001-0.172-0.118-0.173-0.224c-0.005-0.857-0.003-1.713-0.003-2.57
		C9.729,8.325,9.743,8.267,9.817,8.244z"/>
	<path fill-rule="evenodd" clip-rule="evenodd" d="M3.393,9.89C3.284,9.892,3.241,9.694,3.119,9.782
		c-0.098,0.069-0.047,0.2-0.048,0.304c-0.006,0.225,0,0.448-0.003,0.673c-0.001,0.084,0.028,0.186-0.093,0.224
		c-0.048-0.292,0.035-0.591-0.046-0.881c0.004-0.127,0.01-0.253,0.015-0.381c0.144-0.09,0.304-0.05,0.46-0.061l0.002,0.004
		C3.401,9.739,3.397,9.814,3.393,9.89z"/>
	<path fill-rule="evenodd" clip-rule="evenodd" d="M3.403,10.977c0.072,0.036,0.114,0.144,0.222,0.092
		c0.212-0.001,0.423-0.002,0.636-0.002c0.041,0.015,0.081,0.028,0.121,0.042c-0.194,0.135-0.853,0.124-0.997-0.019
		C3.344,11.049,3.36,11.009,3.403,10.977z"/>
	<path fill-rule="evenodd" clip-rule="evenodd" d="M2.929,10.102c0.081,0.29-0.002,0.589,0.046,0.881
		c-0.022,0.037-0.044,0.075-0.066,0.113c-0.041-0.01-0.081-0.021-0.122-0.031c0.115-0.212,0.052-0.441,0.07-0.664
		C2.866,10.298,2.813,10.179,2.929,10.102z"/>
	<path fill-rule="evenodd" clip-rule="evenodd" d="M5.329,10.03c0.416,0.189,0.526,0.113,0.522-0.359
		C6.043,9.771,5.96,9.93,5.92,10.064c-0.056,0.19-0.226,0.146-0.367,0.146C5.434,10.211,5.302,10.215,5.329,10.03z"/>
	<path fill-rule="evenodd" clip-rule="evenodd" d="M7.024,9.445c0,0.112,0.001,0.224,0.002,0.336C7.013,9.873,7,9.965,6.987,10.057
		C6.831,9.868,6.85,9.558,7.024,9.445z"/>
	<path fill-rule="evenodd" clip-rule="evenodd" d="M6.67,8.799c-0.142,0.028-0.336-0.07-0.393,0.164
		c-0.096-0.023-0.108-0.081-0.064-0.16C6.3,8.65,6.533,8.648,6.67,8.799z"/>
	<path fill-rule="evenodd" clip-rule="evenodd" d="M3.393,10.214c0.022,0.2,0.022,0.401,0,0.603
		C3.244,10.659,3.244,10.371,3.393,10.214z"/>
	<path fill-rule="evenodd" clip-rule="evenodd" d="M5.432,7.965c-0.093-0.022-0.079-0.092-0.076-0.15
		C5.359,7.74,5.403,7.702,5.478,7.706c0.08,0.004,0.107,0.055,0.096,0.127C5.562,7.917,5.494,7.942,5.432,7.965z"/>
	<path fill-rule="evenodd" clip-rule="evenodd" d="M7.036,8.846c0,0.077,0.001,0.153,0.002,0.23
		C6.967,9.067,6.896,9.058,6.896,8.961C6.895,8.865,6.96,8.85,7.036,8.846z"/>
	<path fill-rule="evenodd" clip-rule="evenodd" d="M6.621,7.001c0.066,0.012,0.131,0.023,0.198,0.035
		C6.744,7.087,6.667,7.138,6.592,7.188C6.579,7.176,6.565,7.163,6.553,7.15C6.56,7.093,6.564,7.035,6.621,7.001z"/>
	<path fill-rule="evenodd" clip-rule="evenodd" d="M4.435,11.088c0.042-0.101,0.008-0.242,0.151-0.292
		C4.595,10.925,4.598,11.049,4.435,11.088z"/>
	<path fill-rule="evenodd" clip-rule="evenodd" d="M6.987,10.057C7,9.965,7.013,9.873,7.026,9.781
		c0.039,0.136,0.002,0.288,0.1,0.408C7.002,10.228,7.004,10.133,6.987,10.057z"/>
	<path fill-rule="evenodd" clip-rule="evenodd" d="M4.885,4.374c-0.01,0.04-0.019,0.08-0.028,0.12
		C4.808,4.487,4.761,4.482,4.712,4.477c-0.002-0.046-0.006-0.092-0.01-0.138c0.039-0.009,0.077-0.019,0.116-0.028
		C4.841,4.331,4.862,4.353,4.885,4.374z"/>
	<path fill-rule="evenodd" clip-rule="evenodd" d="M8.964,11.198c-0.001-0.074-0.002-0.146-0.003-0.218
		c0.06,0.004,0.102,0.028,0.106,0.094C9.073,11.149,9.04,11.191,8.964,11.198z"/>
	<path fill-rule="evenodd" clip-rule="evenodd" d="M6.724,9.068C6.726,8.995,6.727,8.922,6.729,8.85
		C6.879,8.927,6.88,8.999,6.724,9.068z"/>
	<path fill-rule="evenodd" clip-rule="evenodd" d="M7.048,9.076c0.078,0.005,0.156,0.011,0.233,0.015v0.024L7.266,9.131
		C7.18,9.165,7.086,9.233,7.048,9.076z"/>
	<path fill-rule="evenodd" clip-rule="evenodd" d="M4.996,10.625c0.064,0.029,0.115,0.074,0.146,0.14
		C4.976,10.841,4.997,10.722,4.996,10.625z"/>
	<path fill-rule="evenodd" clip-rule="evenodd" d="M10.937,9.51c-0.019-0.086-0.011-0.157,0.096-0.175
		C11.038,9.414,11.039,9.491,10.937,9.51z"/>
	<path fill-rule="evenodd" clip-rule="evenodd" d="M4.812,10.49l-0.027-0.003l-0.027,0.001c0.008-0.032,0.016-0.064,0.023-0.098
		c0.028-0.004,0.056-0.009,0.084-0.014C4.95,10.464,4.879,10.476,4.812,10.49z"/>
	<path fill-rule="evenodd" clip-rule="evenodd" d="M8.47,10.429c-0.054,0.066-0.108,0.068-0.159-0.004
		C8.365,10.366,8.419,10.366,8.47,10.429z"/>
	<path fill-rule="evenodd" clip-rule="evenodd" d="M7.33,9.317C7.307,9.387,7.261,9.394,7.202,9.361
		C7.235,9.318,7.248,9.216,7.33,9.317z"/>
	<path fill-rule="evenodd" clip-rule="evenodd" d="M4.866,10.377c-0.029,0.005-0.057,0.01-0.084,0.014
		c-0.055-0.078-0.057-0.133,0.063-0.122c0.018,0,0.037,0,0.056,0C4.888,10.305,4.876,10.341,4.866,10.377z"/>
	<path fill-rule="evenodd" clip-rule="evenodd" d="M6.349,9.059C6.384,9.077,6.42,9.098,6.455,9.116
		C6.362,9.204,6.355,9.133,6.349,9.059z"/>
	<path fill-rule="evenodd" clip-rule="evenodd" d="M13.118,9.331c0.071,0.013,0.106,0.05,0.09,0.126
		C13.136,9.444,13.111,9.399,13.118,9.331z"/>
	<path fill-rule="evenodd" clip-rule="evenodd" d="M7.396,8.963c-0.001-0.04-0.001-0.079-0.001-0.119
		C7.426,8.846,7.457,8.85,7.488,8.853C7.485,8.912,7.458,8.952,7.396,8.963z"/>
	<path fill-rule="evenodd" clip-rule="evenodd" d="M5.47,9.613C5.446,9.654,5.408,9.669,5.362,9.671
		C5.37,9.597,5.387,9.541,5.47,9.613z"/>
	<path fill-rule="evenodd" clip-rule="evenodd" d="M5.745,10.435c-0.041,0.056-0.076,0.048-0.109-0.008
		C5.675,10.375,5.711,10.381,5.745,10.435z"/>
	<path fill-rule="evenodd" clip-rule="evenodd" d="M5.099,10.438c-0.009,0.064-0.044,0.107-0.103,0.132
		C4.977,10.484,5.009,10.438,5.099,10.438z"/>
	<path fill-rule="evenodd" clip-rule="evenodd" d="M9.835,7.974c0.02,0.002,0.04,0.005,0.062,0.007
		C9.894,8.027,9.878,8.065,9.835,8.087C9.777,8.049,9.791,8.011,9.835,7.974z"/>
	<path fill-rule="evenodd" clip-rule="evenodd" d="M4.621,10.79c0.032-0.052,0.08-0.08,0.141-0.085
		C4.751,10.795,4.701,10.817,4.621,10.79z"/>
	<path fill-rule="evenodd" clip-rule="evenodd" d="M13.216,11.034c0.046,0.023,0.059,0.063,0.053,0.111
		C13.197,11.133,13.141,11.115,13.216,11.034z"/>
	<path fill-rule="evenodd" clip-rule="evenodd" d="M4.758,11.088c0.041,0.027,0.053,0.066,0.053,0.111
		C4.743,11.188,4.684,11.169,4.758,11.088z"/>
	<path fill-rule="evenodd" clip-rule="evenodd" d="M10.861,11.188c0.02-0.034,0.038-0.068,0.058-0.103
		C11.01,11.182,10.939,11.188,10.861,11.188z"/>
	<path fill-rule="evenodd" clip-rule="evenodd" d="M7.328,9.124C7.31,9.151,7.289,9.152,7.266,9.131l0.015-0.016
		c0.014,0.004,0.03,0.006,0.045,0.006L7.328,9.124z"/>
	<path fill-rule="evenodd" clip-rule="evenodd" d="M4.814,10.979c-0.017,0.019-0.035,0.038-0.052,0.058
		C4.779,11.017,4.797,10.997,4.814,10.979z"/>
	<path fill-rule="evenodd" clip-rule="evenodd" d="M14.062,6.812c0.033,0.005,0.064,0.009,0.096,0.013
		c0.027,0.106,0.124,0.132,0.207,0.173c0.024,0.048,0.049,0.096,0.074,0.144C14.249,7.105,14.098,7.023,14.062,6.812z"/>
	<path fill-rule="evenodd" clip-rule="evenodd" d="M14.937,7.567c-0.205,0.001-0.295-0.13-0.351-0.302
		C14.753,7.308,14.861,7.417,14.937,7.567z"/>
	<path fill-rule="evenodd" clip-rule="evenodd" d="M14.364,6.998c-0.083-0.041-0.18-0.066-0.207-0.173
		c0.09,0.002,0.167,0.027,0.211,0.115C14.366,6.959,14.365,6.979,14.364,6.998z"/>
	<path fill-rule="evenodd" clip-rule="evenodd" d="M7.52,9.223l0.005-0.014c0.007,0.009,0.014,0.018,0.021,0.025
		C7.54,9.227,7.53,9.223,7.52,9.223z"/>
	<path fill-rule="evenodd" clip-rule="evenodd" d="M14.162,6.602c-0.059,0.004-0.117,0.008-0.177,0.013
		c-0.041-0.05-0.081-0.065-0.115,0.006c-0.026-0.012-0.053-0.025-0.079-0.037c-0.026-0.05-0.053-0.101-0.079-0.151
		c0.018-0.105,0.103-0.088,0.174-0.094C13.98,6.424,14.104,6.479,14.162,6.602z"/>
	<path fill-rule="evenodd" clip-rule="evenodd" d="M13.385,6.882c0.036,0.002,0.071,0.003,0.107,0.004
		c0.009,0.009,0.02,0.016,0.033,0.02c0.038,0.097,0.099,0.169,0.206,0.193c0.005,0.017,0.005,0.034-0.001,0.05
		C13.531,7.17,13.429,7.064,13.385,6.882z"/>
	<path fill-rule="evenodd" clip-rule="evenodd" d="M13.712,6.433c0.026,0.05,0.053,0.101,0.079,0.151
		c-0.186,0.024-0.252-0.097-0.3-0.242c0.035,0.001,0.071,0.003,0.107,0.004C13.627,6.387,13.654,6.43,13.712,6.433z"/>
	<path fill-rule="evenodd" clip-rule="evenodd" d="M11.475,6.232c-0.051,0.107-0.126,0.186-0.247,0.209
		C11.221,6.267,11.335,6.235,11.475,6.232z"/>
	<path fill-rule="evenodd" clip-rule="evenodd" d="M13.731,7.099c-0.107-0.023-0.168-0.096-0.206-0.193
		C13.659,6.901,13.757,6.935,13.731,7.099z"/>
	<path fill-rule="evenodd" clip-rule="evenodd" d="M13.599,6.346c-0.036-0.001-0.072-0.003-0.107-0.004
		c-0.038-0.053-0.078-0.106-0.116-0.159C13.498,6.17,13.59,6.2,13.599,6.346z"/>
	<path fill-rule="evenodd" clip-rule="evenodd" d="M11.063,6.58c-0.018,0.102-0.086,0.145-0.182,0.157
		C10.881,6.613,10.937,6.556,11.063,6.58z"/>
	<path fill-rule="evenodd" clip-rule="evenodd" d="M12.129,5.784c0,0.022-0.001,0.045-0.001,0.068
		c-0.021,0.105-0.061,0.124-0.121,0.022c0.004-0.028,0.008-0.056,0.011-0.084C12.055,5.789,12.092,5.786,12.129,5.784z"/>
	<path fill-rule="evenodd" clip-rule="evenodd" d="M12.623,6.226c0.034,0.002,0.068,0.005,0.104,0.008
		c0.021,0.017,0.039,0.034,0.059,0.051c-0.004,0.021-0.009,0.042-0.015,0.063C12.691,6.344,12.617,6.332,12.623,6.226z"/>
	<path fill-rule="evenodd" clip-rule="evenodd" d="M13.87,6.621c0.034-0.071,0.074-0.056,0.115-0.006
		c-0.004,0.025-0.01,0.05-0.015,0.075C13.924,6.685,13.89,6.665,13.87,6.621z"/>
	<path fill-rule="evenodd" clip-rule="evenodd" d="M13.971,6.725c0.052,0.002,0.079,0.031,0.086,0.082
		C13.985,6.824,13.921,6.834,13.971,6.725z"/>
	<path fill-rule="evenodd" clip-rule="evenodd" d="M10.412,7.131c-0.021,0.056-0.054,0.096-0.117,0.102
		C10.276,7.134,10.32,7.105,10.412,7.131z"/>
	<path fill-rule="evenodd" clip-rule="evenodd" d="M7.707,7.379c-0.14-0.093-0.341,0.007-0.463-0.147
		C7.414,7.231,7.612,7.142,7.707,7.379z"/>
	<path fill-rule="evenodd" clip-rule="evenodd" d="M7.822,7.54C7.757,7.505,7.707,7.459,7.707,7.379
		C7.802,7.391,7.888,7.411,7.822,7.54z"/>
	<path fill-rule="evenodd" clip-rule="evenodd" d="M7.056,7.092C6.991,7.108,6.946,7.076,6.91,7.027
		C6.983,6.993,7.036,7.005,7.056,7.092z"/>
	<path fill-rule="evenodd" clip-rule="evenodd" d="M8.043,8.362C8.042,8.27,8.042,8.178,8.042,8.086c0.019,0,0.038,0,0.058,0
		c0.154,0.099,0.093,0.217,0.029,0.335C8.1,8.402,8.071,8.382,8.043,8.362z"/>
	<path fill-rule="evenodd" clip-rule="evenodd" d="M8.099,8.086c-0.02,0-0.039,0-0.058,0c-0.092-0.071-0.216-0.12-0.193-0.273
		C7.975,7.865,8.063,7.952,8.099,8.086z"/>
	<path fill-rule="evenodd" clip-rule="evenodd" d="M7.326,9.121c-0.015,0-0.031-0.002-0.045-0.006V9.091
		c0.013-0.01,0.026-0.014,0.042-0.011C7.322,9.094,7.323,9.108,7.326,9.121z"/>
	<path fill-rule="evenodd" clip-rule="evenodd" d="M14.151,7.558c0.033,0.018,0.065,0.036,0.097,0.054
		c0.01,0.078,0.018,0.157,0.131,0.129l0.007,0.005c-0.007,0.041-0.014,0.083-0.021,0.124c-0.07-0.001-0.143-0.002-0.214-0.003
		c-0.056-0.053-0.112-0.106-0.169-0.16c0.002-0.015,0.002-0.031,0-0.046C14.051,7.645,14.13,7.649,14.151,7.558z"/>
	<path fill-rule="evenodd" clip-rule="evenodd" d="M10.448,7.504c-0.014-0.16,0.088-0.183,0.211-0.178
		C10.614,7.415,10.547,7.478,10.448,7.504z"/>
	<path fill-rule="evenodd" clip-rule="evenodd" d="M11.965,6.233C12,6.096,12.057,6.086,12.134,6.205
		C12.077,6.215,12.021,6.224,11.965,6.233z"/>
	<path fill-rule="evenodd" clip-rule="evenodd" d="M11.041,7.005c0.021-0.019,0.043-0.037,0.064-0.057
		C11.084,6.968,11.063,6.987,11.041,7.005z"/>
	<path fill-rule="evenodd" clip-rule="evenodd" d="M14.151,7.558c-0.021,0.092-0.101,0.087-0.169,0.102
		c0.054-0.126-0.134-0.203-0.067-0.332C14.031,7.365,14.092,7.461,14.151,7.558z"/>
	<path fill-rule="evenodd" clip-rule="evenodd" d="M12.285,5.931c0.017-0.005,0.035-0.01,0.053-0.015
		c0.057,0.07,0.113,0.139,0.17,0.208C12.373,6.129,12.288,6.076,12.285,5.931z"/>
	<path fill-rule="evenodd" clip-rule="evenodd" d="M13.118,6.654c0.09,0.021,0.15,0.073,0.18,0.161
		C13.173,6.835,13.114,6.781,13.118,6.654z"/>
	<path fill-rule="evenodd" clip-rule="evenodd" d="M12.776,6.351c0.074,0.014,0.113,0.064,0.131,0.133
		C12.79,6.513,12.786,6.43,12.776,6.351z"/>
	<path fill-rule="evenodd" clip-rule="evenodd" d="M12.913,6.488c0.042,0.006,0.073,0.027,0.089,0.068
		C12.892,6.639,12.905,6.559,12.913,6.488z"/>
	<path fill-rule="evenodd" clip-rule="evenodd" d="M3.406,4.359C3.282,4.535,3.182,4.534,3.061,4.357
		C3.177,4.308,3.291,4.308,3.406,4.359z"/>
	<path fill-rule="evenodd" clip-rule="evenodd" d="M4.712,4.477c-0.1,0.005-0.216,0.042-0.232-0.118
		c0.071-0.046,0.146-0.035,0.223-0.02C4.706,4.384,4.709,4.431,4.712,4.477z"/>
	<path fill-rule="evenodd" clip-rule="evenodd" d="M1.65,4.358C1.637,4.428,1.594,4.47,1.524,4.485
		C1.482,4.36,1.524,4.317,1.65,4.358z"/>
	<path fill-rule="evenodd" clip-rule="evenodd" d="M1.52,10.91c0.074,0.028,0.124,0.077,0.141,0.156
		C1.534,11.087,1.482,11.04,1.52,10.91z"/>
	<path fill-rule="evenodd" clip-rule="evenodd" d="M2.943,9.721C2.888,9.642,2.909,9.568,3,9.571
		C3.137,9.576,3.305,9.476,3.403,9.66C3.248,9.671,3.087,9.631,2.943,9.721z"/>
	<path fill-rule="evenodd" clip-rule="evenodd" d="M14.379,7.741c-0.113,0.028-0.121-0.051-0.131-0.129
		C14.324,7.622,14.358,7.675,14.379,7.741z"/>
	<path fill-rule="evenodd" clip-rule="evenodd" d="M4.428,5.046c0.026,0.218-0.063,0.303-0.276,0.301
		C3.941,5.344,3.858,5.25,3.861,5.05c0.003-0.186,0.083-0.276,0.282-0.277C4.346,4.772,4.459,4.834,4.428,5.046z"/>
	<path fill-rule="evenodd" clip-rule="evenodd" d="M4.17,7.256C3.938,7.286,3.863,7.167,3.862,6.97
		C3.859,6.775,3.958,6.694,4.148,6.69c0.215-0.004,0.286,0.102,0.286,0.303C4.435,7.189,4.365,7.29,4.17,7.256z"/>
	<path fill-rule="evenodd" clip-rule="evenodd" d="M3.48,5.056c0.002,0.2-0.086,0.292-0.296,0.289
		c-0.2-0.004-0.269-0.097-0.269-0.284c0-0.184,0.062-0.285,0.264-0.289C3.386,4.767,3.482,4.854,3.48,5.056z"/>
	<path fill-rule="evenodd" clip-rule="evenodd" d="M2.23,6.283c-0.186,0.016-0.297-0.038-0.292-0.25
		C1.944,5.846,2.011,5.75,2.209,5.747c0.198-0.002,0.297,0.065,0.298,0.281C2.51,6.238,2.411,6.299,2.23,6.283z"/>
	<path fill-rule="evenodd" clip-rule="evenodd" d="M2.501,9.863c0.02,0.219-0.088,0.296-0.29,0.293
		c-0.199-0.002-0.267-0.102-0.271-0.287C1.933,9.66,2.041,9.607,2.225,9.609C2.409,9.609,2.531,9.653,2.501,9.863z"/>
	<path fill-rule="evenodd" clip-rule="evenodd" d="M2.503,5.061c0.011,0.195-0.087,0.281-0.278,0.281
		c-0.194,0-0.287-0.097-0.282-0.286C1.946,4.893,2,4.773,2.196,4.774C2.392,4.774,2.512,4.844,2.503,5.061z"/>
	<path fill-rule="evenodd" clip-rule="evenodd" d="M2.244,9.175C2.036,9.202,1.942,9.119,1.94,8.92
		C1.938,8.724,2.029,8.638,2.222,8.64c0.183,0.003,0.287,0.069,0.287,0.274C2.508,9.112,2.435,9.208,2.244,9.175z"/>
	<path fill-rule="evenodd" clip-rule="evenodd" d="M4.427,7.946c0.027,0.199-0.065,0.28-0.259,0.285
		C3.963,8.237,3.878,8.15,3.881,7.941C3.883,7.76,3.948,7.672,4.133,7.676C4.314,7.68,4.463,7.711,4.427,7.946z"/>
	<path fill-rule="evenodd" clip-rule="evenodd" d="M4.147,9.615c0.198-0.021,0.289,0.056,0.288,0.26
		c-0.001,0.189-0.062,0.28-0.266,0.284c-0.21,0.004-0.297-0.09-0.302-0.288C3.863,9.672,3.956,9.586,4.147,9.615z"/>
	<path fill-rule="evenodd" clip-rule="evenodd" d="M4.426,8.929C4.451,9.146,4.321,9.18,4.144,9.183
		C3.938,9.186,3.882,9.086,3.881,8.899c0-0.21,0.114-0.262,0.292-0.259C4.365,8.644,4.456,8.734,4.426,8.929z"/>
	<path fill-rule="evenodd" clip-rule="evenodd" d="M2.506,6.994C2.54,7.205,2.431,7.27,2.227,7.27c-0.199,0-0.301-0.06-0.295-0.278
		C1.937,6.8,1.99,6.685,2.207,6.682C2.423,6.679,2.529,6.766,2.506,6.994z M2.229,7.155c0.125,0.002,0.136-0.083,0.136-0.18
		C2.364,6.878,2.32,6.83,2.219,6.83c-0.126,0-0.137,0.083-0.136,0.18S2.126,7.16,2.229,7.155z"/>
	<path fill-rule="evenodd" clip-rule="evenodd" d="M4.154,5.746c0.2-0.023,0.286,0.064,0.287,0.277c0,0.197-0.086,0.29-0.27,0.291
		c-0.18,0-0.313-0.064-0.317-0.282C3.85,5.823,3.942,5.731,4.154,5.746z M4.17,6.181c0.126,0.006,0.158-0.067,0.15-0.174
		C4.312,5.895,4.246,5.849,4.139,5.849c-0.129,0-0.143,0.082-0.142,0.183C3.997,6.154,4.065,6.188,4.17,6.181z"/>
	<path fill-rule="evenodd" clip-rule="evenodd" d="M3.047,8.594c0.088,0,0.175,0,0.263,0c0.026,0.06,0.07,0.096,0.136,0.101
		L3.444,8.692C3.448,8.837,3.452,8.98,3.456,9.125C3.447,9.129,3.439,9.133,3.43,9.135C2.993,9.273,2.908,9.21,2.911,8.743
		C2.976,8.711,3.021,8.661,3.047,8.594z M3.177,9.068c0.106-0.003,0.166-0.058,0.165-0.169C3.34,8.801,3.285,8.751,3.188,8.748
		C3.091,8.745,3.027,8.785,3.02,8.886C3.011,8.993,3.06,9.059,3.177,9.068z"/>
	<path fill-rule="evenodd" clip-rule="evenodd" d="M2.522,7.932c0.018,0.224-0.08,0.324-0.298,0.323
		c-0.217-0.001-0.3-0.104-0.307-0.316C1.91,7.699,2.04,7.648,2.238,7.651C2.434,7.653,2.553,7.721,2.522,7.932z M2.224,8.144
		C2.36,8.151,2.42,8.081,2.419,7.95c-0.001-0.129-0.057-0.2-0.194-0.201c-0.138-0.001-0.193,0.07-0.194,0.198
		C2.029,8.077,2.083,8.153,2.224,8.144z"/>
	<path fill-rule="evenodd" clip-rule="evenodd" d="M3.507,6.832c0.001,0.091,0.001,0.182,0.001,0.274
		c-0.042,0.026-0.05,0.066-0.045,0.112c-0.061,0.024-0.121,0.067-0.19,0.028c0.02-0.03,0.038-0.061,0.06-0.088
		c0.079-0.103,0.108-0.219,0.018-0.318c-0.07-0.077-0.184-0.092-0.275-0.032C2.958,6.888,2.994,7.013,3.023,7.126
		c0.012,0.042,0.042,0.079,0.062,0.119c-0.219,0.054-0.18-0.115-0.181-0.227c-0.002-0.133-0.05-0.308,0.157-0.34
		c0.13-0.02,0.267-0.026,0.391,0.045C3.454,6.768,3.466,6.807,3.507,6.832z"/>
	<path fill-rule="evenodd" clip-rule="evenodd" d="M2.939,7.87C2.862,7.744,2.934,7.671,3.045,7.662
		c0.156-0.014,0.356-0.069,0.436,0.114c0.057,0.13,0.082,0.321-0.073,0.42c-0.124,0.08-0.281,0.125-0.403-0.033
		c0.123-0.059,0.307,0.059,0.377-0.123c0.034-0.088,0.043-0.207-0.064-0.263C3.174,7.703,3.045,7.753,2.939,7.87z"/>
	<path fill-rule="evenodd" clip-rule="evenodd" d="M3.085,7.245c-0.021-0.04-0.05-0.076-0.062-0.119
		C2.994,7.013,2.958,6.888,3.076,6.807c0.091-0.06,0.205-0.045,0.275,0.032c0.09,0.099,0.061,0.215-0.018,0.318
		c-0.022,0.028-0.041,0.059-0.06,0.088C3.21,7.245,3.148,7.245,3.085,7.245z"/>
	<path fill-rule="evenodd" clip-rule="evenodd" d="M2.939,7.87c0.106-0.117,0.234-0.167,0.38-0.092
		c0.107,0.056,0.098,0.174,0.064,0.263C3.313,8.222,3.128,8.104,3.006,8.163L2.993,8.156c0.016-0.055,0.004-0.098-0.051-0.122
		C2.94,7.979,2.94,7.924,2.939,7.87z"/>
	<path fill-rule="evenodd" clip-rule="evenodd" d="M3.286,5.797c0.235,0.11,0.235,0.289,0.001,0.502
		c-0.074,0-0.147-0.001-0.221-0.001C3.067,6.274,3.069,6.252,3.07,6.229C3.354,6.191,3.401,6.035,3.286,5.797z"/>
	<path fill-rule="evenodd" clip-rule="evenodd" d="M3.047,8.594C3.021,8.661,2.976,8.711,2.911,8.743
		C2.862,8.612,2.872,8.601,3.047,8.594z"/>
	<path fill-rule="evenodd" clip-rule="evenodd" d="M3.446,8.694c-0.065-0.005-0.11-0.041-0.136-0.101
		C3.393,8.576,3.445,8.602,3.446,8.694z"/>
	<path fill-rule="evenodd" clip-rule="evenodd" d="M3.07,6.229C3.069,6.252,3.067,6.274,3.066,6.297
		C2.986,6.37,2.973,6.293,2.946,6.245c0.01-0.009,0.019-0.018,0.029-0.028C3.006,6.222,3.039,6.226,3.07,6.229z"/>
	<path fill-rule="evenodd" clip-rule="evenodd" d="M3.463,7.218C3.458,7.172,3.467,7.132,3.508,7.105
		C3.583,7.179,3.526,7.199,3.463,7.218z"/>
	<path fill-rule="evenodd" clip-rule="evenodd" d="M2.941,8.034c0.056,0.023,0.067,0.066,0.051,0.122
		C2.922,8.137,2.881,8.107,2.941,8.034z"/>
	<path fill-rule="evenodd" clip-rule="evenodd" d="M2.229,7.155C2.126,7.16,2.084,7.106,2.083,7.01s0.01-0.18,0.136-0.18
		c0.101,0,0.145,0.049,0.146,0.146C2.365,7.073,2.354,7.157,2.229,7.155z"/>
	<path fill-rule="evenodd" clip-rule="evenodd" d="M4.17,6.181C4.065,6.188,3.997,6.154,3.997,6.032
		C3.996,5.931,4.01,5.849,4.139,5.849c0.107,0,0.172,0.045,0.181,0.157C4.329,6.114,4.296,6.187,4.17,6.181z"/>
	<path fill-rule="evenodd" clip-rule="evenodd" d="M3.177,9.068C3.06,9.059,3.011,8.993,3.02,8.886
		c0.008-0.101,0.072-0.141,0.168-0.138C3.285,8.751,3.34,8.801,3.341,8.899C3.343,9.011,3.283,9.065,3.177,9.068z"/>
	<path fill-rule="evenodd" clip-rule="evenodd" d="M2.224,8.144c-0.14,0.009-0.194-0.067-0.192-0.197
		c0.001-0.128,0.056-0.2,0.194-0.198C2.363,7.75,2.418,7.821,2.419,7.95C2.42,8.081,2.36,8.151,2.224,8.144z"/>
	<path fill-rule="evenodd" clip-rule="evenodd" d="M3.07,6.229C3.039,6.226,3.006,6.222,2.975,6.217
		C2.974,6.115,2.973,6.013,2.972,5.911c0.063-0.009,0.096-0.046,0.103-0.109C3.145,5.8,3.215,5.798,3.286,5.797
		C3.401,6.035,3.354,6.191,3.07,6.229z"/>
	<path fill-rule="evenodd" clip-rule="evenodd" d="M3.074,5.801c-0.006,0.063-0.04,0.1-0.103,0.109
		C2.969,5.873,2.966,5.835,2.963,5.797C3,5.799,3.037,5.8,3.074,5.801z"/>
</g>
</svg>
