<?xml version="1.0" encoding="utf-8"?>
<!-- Generator: Adobe Illustrator 16.0.0, SVG Export Plug-In . SVG Version: 6.00 Build 0)  -->
<!DOCTYPE svg PUBLIC "-//W3C//DTD SVG 1.1//EN" "http://www.w3.org/Graphics/SVG/1.1/DTD/svg11.dtd">
<svg version="1.1" id="Layer_1" xmlns="http://www.w3.org/2000/svg" xmlns:xlink="http://www.w3.org/1999/xlink" x="0px" y="0px"
	 width="16px" height="16px" viewBox="0 0 16 16" enable-background="new 0 0 16 16" xml:space="preserve">
<path fill-rule="evenodd" clip-rule="evenodd" d="M9.791,1.303c0.307,0.605,0.611,1.212,0.926,1.813
	c0.033,0.065,0.113,0.115,0.182,0.15c0.549,0.285,1.1,0.567,1.652,0.843c0.119,0.059,0.152,0.113,0.105,0.248
	c-0.209,0.616-0.412,1.235-0.6,1.857c-0.027,0.089,0.023,0.208,0.057,0.307c0.184,0.574,0.371,1.146,0.561,1.718
	c0.039,0.117-0.033,0.151-0.115,0.192c-0.527,0.268-1.053,0.54-1.582,0.804c-0.342,0.172-0.488,0.479-0.494,0.824
	c-0.018,1.464-0.006,2.929-0.006,4.394c0,0.068,0,0.138,0,0.239c-0.076-0.027-0.123-0.039-0.168-0.062
	c-0.834-0.413-1.668-0.826-2.499-1.245c-0.103-0.051-0.183-0.051-0.286,0c-0.827,0.416-1.656,0.827-2.485,1.238
	c-0.046,0.022-0.094,0.041-0.167,0.072c-0.006-0.094-0.013-0.16-0.013-0.228C4.857,13,4.867,11.53,4.85,10.061
	C4.846,9.716,4.698,9.408,4.355,9.236C3.826,8.973,3.302,8.698,2.772,8.435C2.658,8.377,2.632,8.32,2.674,8.195
	c0.208-0.617,0.411-1.236,0.6-1.859c0.027-0.089-0.02-0.208-0.052-0.307C3.038,5.456,2.85,4.883,2.659,4.312
	C2.62,4.196,2.684,4.16,2.767,4.117C3.319,3.838,3.872,3.56,4.418,3.271c0.092-0.049,0.182-0.137,0.23-0.229
	c0.305-0.577,0.597-1.159,0.894-1.74c0.097,0,0.194,0,0.292,0c0.015,0.014,0.029,0.034,0.047,0.04
	c0.517,0.167,1.037,0.325,1.551,0.5c0.163,0.056,0.306,0.058,0.468,0C8.24,1.723,8.588,1.626,8.93,1.513
	c0.191-0.063,0.379-0.139,0.569-0.21C9.596,1.303,9.693,1.303,9.791,1.303z M6.071,2.383C6.044,2.42,6.006,2.46,5.981,2.507
	C5.769,2.919,5.564,3.335,5.344,3.743C5.297,3.83,5.212,3.913,5.125,3.96c-0.398,0.213-0.8,0.421-1.208,0.616
	c-0.139,0.066-0.146,0.14-0.103,0.267c0.153,0.448,0.3,0.897,0.443,1.348c0.017,0.052,0.013,0.12-0.004,0.174
	C4.108,6.82,3.957,7.274,3.806,7.729C3.772,7.834,3.78,7.905,3.898,7.962c0.393,0.189,0.777,0.395,1.169,0.587
	C5.204,8.615,5.3,8.701,5.369,8.843c0.201,0.411,0.419,0.813,0.625,1.222c0.043,0.085,0.083,0.103,0.176,0.07
	c0.375-0.131,0.753-0.255,1.133-0.372c0.181-0.056,0.354-0.134,0.562-0.058c0.414,0.151,0.842,0.265,1.254,0.417
	c0.154,0.057,0.198-0.006,0.254-0.115c0.203-0.404,0.406-0.81,0.619-1.209c0.041-0.079,0.117-0.153,0.197-0.196
	c0.402-0.216,0.809-0.427,1.221-0.626c0.133-0.064,0.154-0.134,0.109-0.266c-0.152-0.447-0.299-0.898-0.441-1.349
	c-0.02-0.062-0.01-0.141,0.01-0.204c0.145-0.451,0.293-0.899,0.443-1.349c0.031-0.1,0.02-0.165-0.092-0.219
	c-0.414-0.204-0.826-0.414-1.234-0.634c-0.088-0.047-0.172-0.13-0.219-0.217C9.766,3.33,9.559,2.915,9.351,2.501
	C9.307,2.413,9.27,2.375,9.154,2.415C8.719,2.568,8.278,2.711,7.835,2.843C7.734,2.874,7.61,2.874,7.507,2.845
	C7.233,2.77,6.965,2.67,6.694,2.582C6.495,2.517,6.295,2.455,6.071,2.383z M9.529,13.183c0.012-0.039,0.022-0.059,0.023-0.078
	c0-0.589,0.004-1.178-0.003-1.767c-0.001-0.047-0.06-0.119-0.106-0.135c-0.551-0.184-1.103-0.363-1.658-0.534
	c-0.082-0.024-0.185-0.016-0.268,0.011c-0.529,0.164-1.054,0.344-1.583,0.505c-0.125,0.038-0.159,0.096-0.158,0.217
	c0.004,0.54,0.002,1.08,0.002,1.621c0,0.05,0.01,0.101,0.017,0.17c0.068-0.028,0.113-0.044,0.155-0.065
	c0.516-0.257,1.033-0.511,1.544-0.773c0.121-0.063,0.215-0.067,0.339-0.003c0.512,0.264,1.03,0.517,1.546,0.772
	C9.426,13.146,9.475,13.161,9.529,13.183z"/>
<path fill-rule="evenodd" clip-rule="evenodd" d="M10.242,6.287c0.014,1.361-1.113,2.565-2.579,2.566
	C6.227,8.854,5.09,7.671,5.085,6.285c-0.004-1.458,1.188-2.593,2.588-2.59C9.087,3.698,10.268,4.864,10.242,6.287z M9.316,6.278
	c0-0.906-0.736-1.645-1.646-1.648C6.762,4.626,6.018,5.363,6.017,6.268c0,0.909,0.732,1.645,1.644,1.647
	C8.566,7.918,9.315,7.178,9.316,6.278z"/>
</svg>
