<?xml version="1.0" encoding="utf-8"?>
<!-- Generator: Adobe Illustrator 16.0.0, SVG Export Plug-In . SVG Version: 6.00 Build 0)  -->
<!DOCTYPE svg PUBLIC "-//W3C//DTD SVG 1.1//EN" "http://www.w3.org/Graphics/SVG/1.1/DTD/svg11.dtd">
<svg version="1.1" id="Layer_1" xmlns="http://www.w3.org/2000/svg" xmlns:xlink="http://www.w3.org/1999/xlink" x="0px" y="0px"
	 width="16px" height="16px" viewBox="0 0 16 16" enable-background="new 0 0 16 16" xml:space="preserve">
<g>
	<path fill-rule="evenodd" clip-rule="evenodd" d="M4.587,3.603C4.584,2.002,5.884,0.68,7.468,0.671
		c1.629-0.009,2.929,1.288,2.93,2.922c0.001,1.695-1.363,3.203-2.896,3.202C5.967,6.794,4.591,5.286,4.587,3.603z"/>
	<path fill-rule="evenodd" clip-rule="evenodd" d="M8.927,13.211c-0.179-0.087-0.322-0.189-0.481-0.229
		c-0.598-0.149-0.938-0.862-0.595-1.374c0.107-0.161,0.39-0.229,0.605-0.287c0.456-0.123,0.503-0.213,0.247-0.614
		C8.393,10.217,8.748,9.363,9.32,9.294c0.17-0.02,0.373,0.118,0.539,0.221c0.437,0.269,0.564,0.241,0.626-0.257
		c0.06-0.484,0.279-0.657,0.764-0.646c0.478,0.011,0.858,0.016,0.918,0.645c0.048,0.494,0.231,0.561,0.626,0.241
		c0.432-0.351,0.703-0.183,1.027,0.151c0.309,0.319,0.537,0.57,0.171,1.02c-0.362,0.446-0.307,0.575,0.29,0.65
		c0.632,0.08,0.546,0.503,0.563,0.926c0.018,0.409-0.063,0.665-0.545,0.727c-0.616,0.079-0.678,0.21-0.291,0.686
		c0.413,0.509,0.023,0.735-0.247,1.048c-0.291,0.336-0.555,0.422-0.943,0.12c-0.464-0.36-0.597-0.312-0.661,0.272
		c-0.069,0.627-0.472,0.568-0.907,0.585c-0.441,0.017-0.691-0.102-0.756-0.586c-0.077-0.59-0.186-0.637-0.647-0.277
		c-0.407,0.316-0.672,0.196-0.988-0.132c-0.322-0.332-0.592-0.622-0.181-1.063C8.767,13.528,8.816,13.397,8.927,13.211z
		 M11.313,13.537c0.796,0.003,1.417-0.612,1.411-1.399c-0.006-0.749-0.635-1.386-1.384-1.4c-0.753-0.014-1.416,0.654-1.41,1.423
		C9.936,12.93,10.543,13.533,11.313,13.537z"/>
	<path fill-rule="evenodd" clip-rule="evenodd" d="M10.484,7.957c-0.334,0.405-0.529,0.77-1.168,0.702
		c-0.781-0.082-1.617,1.217-1.422,2.103c-0.648,0.225-0.775,0.759-0.724,1.378c0.03,0.358-0.135,0.467-0.478,0.464
		c-1.369-0.013-2.737-0.015-4.105,0c-0.449,0.005-0.592-0.175-0.564-0.611c0.126-1.956,1.763-4.061,3.633-4.587
		c0.181-0.051,0.502,0.063,0.629,0.21C6.7,8.099,7.057,8.633,7.499,9.235c0.367-0.5,0.692-0.94,1.016-1.382
		c0.458-0.627,0.51-0.646,1.204-0.323C9.973,7.648,10.211,7.803,10.484,7.957z"/>
</g>
</svg>
