<svg width="18" height="10" viewBox="0 0 18 10" fill="none" xmlns="http://www.w3.org/2000/svg">
<path fill-rule="evenodd" clip-rule="evenodd" d="M7.95737 7.53529C7.33103 8.11034 6.4957 8.46137 5.57839 8.46137C3.63512 8.46137 2.05979 6.88604 2.05979 4.94277C2.05979 2.9995 3.63512 1.42417 5.57839 1.42417C6.4957 1.42417 7.33103 1.77519 7.95737 2.35025C7.49039 3.10328 7.22077 3.99154 7.22077 4.94277C7.22077 5.894 7.49039 6.78225 7.95737 7.53529ZM8.8626 8.61432C7.99107 9.39444 6.84013 9.86881 5.57839 9.86881C2.85781 9.86881 0.652344 7.66335 0.652344 4.94277C0.652344 2.22219 2.85781 0.0167236 5.57839 0.0167236C6.84013 0.0167236 7.99107 0.491093 8.8626 1.27121C9.73414 0.491093 10.8851 0.0167236 12.1468 0.0167236C14.8674 0.0167236 17.0729 2.22219 17.0729 4.94277C17.0729 7.66335 14.8674 9.86881 12.1468 9.86881C10.8851 9.86881 9.73414 9.39444 8.8626 8.61432ZM9.76784 2.35025C10.3942 1.7752 11.2295 1.42417 12.1468 1.42417C14.0901 1.42417 15.6654 2.9995 15.6654 4.94277C15.6654 6.88604 14.0901 8.46137 12.1468 8.46137C11.2295 8.46137 10.3942 8.11034 9.76784 7.53528C10.2348 6.78225 10.5044 5.894 10.5044 4.94277C10.5044 3.99154 10.2348 3.10329 9.76784 2.35025ZM8.86261 3.6774C9.014 4.07007 9.09699 4.49673 9.09699 4.94277C9.09699 5.38881 9.014 5.81547 8.86261 6.20814C8.71122 5.81547 8.62822 5.38881 8.62822 4.94277C8.62822 4.49673 8.71122 4.07007 8.86261 3.6774Z" fill="#343A40"/>
</svg>
