<?xml version="1.0" encoding="utf-8"?>
<!-- Generator: Adobe Illustrator 16.0.0, SVG Export Plug-In . SVG Version: 6.00 Build 0)  -->
<!DOCTYPE svg PUBLIC "-//W3C//DTD SVG 1.1//EN" "http://www.w3.org/Graphics/SVG/1.1/DTD/svg11.dtd">
<svg version="1.1" id="Layer_1" xmlns="http://www.w3.org/2000/svg" xmlns:xlink="http://www.w3.org/1999/xlink" x="0px" y="0px"
	 width="16px" height="16px" viewBox="0 0 16 16" enable-background="new 0 0 16 16" xml:space="preserve">
<path fill-rule="evenodd" clip-rule="evenodd" d="M7.57,0.69c0.306,0,0.611,0,0.917,0c0.037,0.008,0.073,0.018,0.11,0.024
	c0.377,0.059,0.759,0.093,1.129,0.178c2.827,0.646,5.052,3.014,5.529,5.872c0.045,0.268,0.075,0.538,0.111,0.806
	c0,0.306,0,0.611,0,0.917c-0.008,0.041-0.021,0.082-0.024,0.124c-0.059,0.793-0.243,1.556-0.556,2.284
	c-1.395,3.254-4.832,5.036-8.3,4.307C3.58,14.59,1.294,12.217,0.802,9.294C0.757,9.026,0.727,8.756,0.69,8.487
	c0-0.306,0-0.612,0-0.917c0.008-0.042,0.019-0.083,0.025-0.125C0.765,7.11,0.796,6.771,0.865,6.44
	C1.453,3.596,3.88,1.273,6.75,0.803C7.022,0.758,7.297,0.727,7.57,0.69z M12.43,12.762c1.803-1.619,2.646-4.407,1.659-7.022
	c-1.018-2.695-3.803-4.552-6.94-4.129C4.391,1.981,2.056,4.145,1.62,7.085c-0.205,1.377,0.02,2.691,0.662,3.928
	c0.342,0.659,0.784,1.242,1.343,1.757c0.203-0.691,0.53-1.285,0.992-1.802c0.46-0.516,1.013-0.905,1.667-1.184
	C5.458,9.206,4.963,8.438,4.858,7.453C4.753,6.467,5.05,5.6,5.741,4.886c1.218-1.258,3.224-1.3,4.477-0.099
	c0.632,0.605,0.978,1.347,0.997,2.226c0.025,1.175-0.483,2.084-1.437,2.774c0.652,0.277,1.204,0.669,1.665,1.186
	C11.905,11.489,12.229,12.084,12.43,12.762z M7.825,14.507c1.454,0.001,2.673-0.362,3.724-1.038
	c0.113-0.072,0.138-0.142,0.108-0.266c-0.425-1.828-2.067-3.035-3.934-2.888c-1.629,0.129-2.993,1.322-3.33,2.911
	c-0.021,0.103-0.003,0.163,0.089,0.224C5.562,14.147,6.743,14.498,7.825,14.507z M8.026,4.773C6.737,4.776,5.696,5.821,5.698,7.11
	C5.7,8.4,6.742,9.44,8.032,9.438c1.29-0.002,2.331-1.045,2.329-2.334C10.357,5.815,9.312,4.77,8.026,4.773z"/>
</svg>
