<?xml version="1.0" encoding="utf-8"?>
<!-- Generator: Adobe Illustrator 16.0.0, SVG Export Plug-In . SVG Version: 6.00 Build 0)  -->
<!DOCTYPE svg PUBLIC "-//W3C//DTD SVG 1.1//EN" "http://www.w3.org/Graphics/SVG/1.1/DTD/svg11.dtd">
<svg version="1.1" id="Layer_1" xmlns="http://www.w3.org/2000/svg" xmlns:xlink="http://www.w3.org/1999/xlink" x="0px" y="0px"
	 width="16px" height="16px" viewBox="0 0 16 16" enable-background="new 0 0 16 16" xml:space="preserve">
<path fill-rule="evenodd" clip-rule="evenodd" d="M7.987,14.437c-0.966,0-1.931,0.004-2.896-0.001
	c-0.48-0.004-0.621-0.142-0.623-0.623c-0.005-1.388-0.014-2.776,0.002-4.164c0.014-1.224,0.925-2.15,2.145-2.181
	c0.905-0.023,1.811-0.024,2.715,0c1.209,0.034,2.117,0.948,2.131,2.143c0.018,1.388,0.01,2.775,0.005,4.163
	c-0.001,0.551-0.117,0.659-0.673,0.662C9.857,14.439,8.922,14.437,7.987,14.437z"/>
<path fill-rule="evenodd" clip-rule="evenodd" d="M7.958,6.937c-1.437-0.004-2.611-1.175-2.6-2.591
	C5.37,2.909,6.522,1.755,7.958,1.743c1.434-0.012,2.638,1.19,2.626,2.625C10.571,5.791,9.397,6.94,7.958,6.937z"/>
<path fill-rule="evenodd" clip-rule="evenodd" d="M12.28,8.641c1.639-0.258,2.879,0.199,3.192,1.885
	c0.187,1.002,0.267,2.063-0.092,3.067c-0.203,0.569-0.669,0.836-1.271,0.843c-0.587,0.006-1.172,0.001-1.829,0.001
	C12.28,12.484,12.28,10.566,12.28,8.641z"/>
<path fill-rule="evenodd" clip-rule="evenodd" d="M3.689,8.612c0,1.954,0,3.862,0,5.809c-0.735,0-1.412,0.039-2.083-0.012
	C0.951,14.358,0.64,13.95,0.64,13.291c0-0.905,0-1.812,0-2.717c0-1.075,0.633-1.821,1.711-1.953C2.795,8.568,3.25,8.612,3.689,8.612
	z"/>
<path fill-rule="evenodd" clip-rule="evenodd" d="M3.428,4.175c1.07,0.002,1.93,0.865,1.926,1.934
	C5.351,7.171,4.49,8.031,3.418,8.042c-1.063,0.011-1.947-0.859-1.95-1.917C1.467,5.031,2.329,4.172,3.428,4.175z"/>
<path fill-rule="evenodd" clip-rule="evenodd" d="M12.561,4.175c1.091,0.012,1.954,0.896,1.934,1.979
	c-0.019,1.033-0.899,1.89-1.938,1.889c-1.091-0.002-1.958-0.874-1.951-1.964C10.611,5.015,11.486,4.163,12.561,4.175z"/>
</svg>
