<?xml version="1.0" encoding="utf-8"?>
<!-- Generator: Adobe Illustrator 16.0.0, SVG Export Plug-In . SVG Version: 6.00 Build 0)  -->
<!DOCTYPE svg PUBLIC "-//W3C//DTD SVG 1.1//EN" "http://www.w3.org/Graphics/SVG/1.1/DTD/svg11.dtd">
<svg version="1.1" id="Layer_1" xmlns="http://www.w3.org/2000/svg" xmlns:xlink="http://www.w3.org/1999/xlink" x="0px" y="0px"
	 width="16px" height="16px" viewBox="0 0 16 16" enable-background="new 0 0 16 16" xml:space="preserve">
<g>
	<path d="M10.43,11.75h5.237v-1.26h-3.188v-0.039l3.139-4.558v-0.88h-4.888v1.26h2.908v0.04l-3.208,4.617V11.75z M7.28,8.622v1.009
		h2.619V8.622H7.28z M2.949,8.882l0.4-1.43c0.11-0.39,0.209-0.899,0.31-1.299h0.02c0.1,0.399,0.22,0.899,0.34,1.299l0.42,1.43H2.949
		z M4.658,10.021l0.52,1.729h1.639L4.728,5.014H2.729L0.67,11.75h1.579l0.48-1.729H4.658z"/>
</g>
</svg>
