<?xml version="1.0" encoding="utf-8"?>
<!-- Generator: Adobe Illustrator 16.0.0, SVG Export Plug-In . SVG Version: 6.00 Build 0)  -->
<!DOCTYPE svg PUBLIC "-//W3C//DTD SVG 1.1//EN" "http://www.w3.org/Graphics/SVG/1.1/DTD/svg11.dtd">
<svg version="1.1" id="Layer_1" xmlns="http://www.w3.org/2000/svg" xmlns:xlink="http://www.w3.org/1999/xlink" x="0px" y="0px"
	 width="16px" height="16px" viewBox="0 0 16 16" enable-background="new 0 0 16 16" xml:space="preserve">
<g>
	<path d="M7.999,1.363v0.4c1.628,0,3.099,0.659,4.166,1.726c1.066,1.067,1.725,2.537,1.725,4.165s-0.658,3.098-1.725,4.166
		c-1.067,1.066-2.538,1.725-4.166,1.725c-1.627,0-3.098-0.658-4.165-1.725C2.768,10.751,2.11,9.28,2.109,7.653
		c0-1.627,0.659-3.098,1.725-4.165c1.067-1.066,2.537-1.725,4.165-1.725V1.363v-0.4c-3.695,0-6.689,2.995-6.689,6.69
		s2.995,6.69,6.689,6.691c3.695-0.001,6.69-2.996,6.691-6.691c-0.001-3.695-2.996-6.69-6.691-6.69V1.363z"/>
</g>
<g>
	<path d="M7.997,3.917c0.836,0,1.51,0.686,1.51,1.542c0.002,0.837-0.683,1.527-1.515,1.52c-0.85-0.008-1.495-0.695-1.505-1.506
		C6.477,4.575,7.19,3.925,7.997,3.917z"/>
	<path d="M5.215,9.299c0.006-0.137,0.004-0.275,0.019-0.414c0.037-0.318,0.151-0.607,0.354-0.857
		c0.215-0.264,0.488-0.449,0.795-0.589c0.121-0.058,0.248-0.103,0.373-0.147c0.021-0.011,0.05-0.006,0.07,0.004
		C7.085,7.42,7.357,7.499,7.64,7.543c0.137,0.02,0.277,0.031,0.414,0.028c0.279-0.004,0.549-0.067,0.812-0.155
		c0.104-0.033,0.206-0.084,0.31-0.125C9.191,7.286,9.21,7.281,9.229,7.286c0.416,0.143,0.803,0.335,1.106,0.665
		c0.244,0.263,0.381,0.577,0.422,0.932c0.015,0.137,0.021,0.271,0.025,0.404c-0.078,0-0.141,0.002-0.207-0.004
		c-0.244-0.008-4.371-0.029-4.388-0.029c-0.313,0.02-0.627,0.035-0.941,0.051C5.239,9.305,5.233,9.301,5.215,9.299z"/>
	<path d="M10.488,6.449c0.011-0.722,0.58-1.274,1.271-1.258c0.707,0.014,1.259,0.609,1.22,1.334
		c-0.035,0.678-0.599,1.222-1.304,1.188C11.003,7.684,10.486,7.109,10.488,6.449z"/>
	<path d="M5.503,6.454c-0.004,0.669-0.517,1.27-1.274,1.262C3.561,7.708,3.019,7.155,3.01,6.475
		C3.001,5.766,3.554,5.193,4.246,5.189C4.938,5.184,5.499,5.748,5.503,6.454z"/>
	<path d="M5.291,7.985C5.158,8.203,5.073,8.418,5.019,8.646C4.963,8.875,4.943,9.107,4.946,9.348
		C3.932,9.424,2.921,9.533,1.919,9.691C1.917,9.688,1.913,9.688,1.913,9.686c-0.023-0.328,0.02-0.643,0.189-0.93
		C2.266,8.48,2.504,8.287,2.788,8.145c0.125-0.063,0.258-0.11,0.389-0.163c0.02-0.007,0.049-0.004,0.07,0.005
		c0.222,0.107,0.457,0.172,0.698,0.209c0.434,0.066,0.84-0.035,1.234-0.211C5.207,7.973,5.246,7.985,5.291,7.985z"/>
	<path d="M14.093,9.67c-1.02-0.156-2.028-0.262-3.049-0.336c0.004-0.232-0.016-0.465-0.069-0.693
		c-0.056-0.227-0.144-0.44-0.263-0.642c0.039-0.027,0.07-0.029,0.115-0.007c0.217,0.104,0.449,0.167,0.688,0.204
		c0.436,0.066,0.842-0.035,1.237-0.214c0.017-0.007,0.037-0.009,0.051-0.002c0.322,0.106,0.621,0.255,0.867,0.497
		c0.213,0.21,0.347,0.468,0.39,0.765C14.081,9.381,14.083,9.518,14.093,9.67z"/>
</g>
</svg>
