<?xml version="1.0" encoding="utf-8"?>
<!-- Generator: Adobe Illustrator 16.0.0, SVG Export Plug-In . SVG Version: 6.00 Build 0)  -->
<!DOCTYPE svg PUBLIC "-//W3C//DTD SVG 1.1//EN" "http://www.w3.org/Graphics/SVG/1.1/DTD/svg11.dtd">
<svg version="1.1" id="Layer_1" xmlns="http://www.w3.org/2000/svg" xmlns:xlink="http://www.w3.org/1999/xlink" x="0px" y="0px"
	 width="200px" height="200px" viewBox="0 0 200 200" enable-background="new 0 0 200 200" xml:space="preserve">
<g>
	<path fill="#231F20" d="M184.759,154.635c0,16.5-13.5,30-30,30H44.517c-16.5,0-30-13.5-30-30V44.393c0-16.5,13.5-30,30-30h110.242
		c16.5,0,30,13.5,30,30V154.635z"/>
</g>
<g>
	<path fill="#FFFFFF" d="M101.191,89.454c8.58,1.283,15.408,3.379,20.488,6.287c5.078,2.91,8.95,6.065,11.613,9.468
		s4.364,6.756,5.104,10.061c0.74,3.306,1.109,5.99,1.109,8.063c0,4.143-0.863,7.988-2.589,11.538
		c-1.728,3.551-4.093,6.608-7.101,9.172c-3.01,2.565-6.561,4.586-10.651,6.065c-4.093,1.479-8.558,2.219-13.388,2.219
		c-5.03,0-9.542-0.518-13.536-1.553c-3.994-1.037-7.57-2.392-10.725-4.068v4.586h-20.71v-31.066h20.71
		c1.775,1.976,3.525,3.676,5.252,5.104c1.724,1.431,3.5,2.614,5.325,3.55c1.824,0.938,3.847,1.628,6.065,2.071
		c2.219,0.442,4.757,0.666,7.619,0.666c3.746,0,6.854-0.788,9.32-2.367c2.463-1.576,3.697-3.551,3.697-5.917
		c0-2.169-0.643-4.018-1.923-5.548c-1.283-1.528-2.91-2.812-4.882-3.847c-1.975-1.035-4.193-1.873-6.657-2.516
		c-2.466-0.64-4.882-1.158-7.249-1.553c-8.285-1.281-14.941-3.255-19.971-5.918c-5.03-2.662-8.901-5.57-11.613-8.728
		c-2.713-3.155-4.512-6.385-5.399-9.689c-0.888-3.304-1.332-6.236-1.332-8.803c0-4.239,0.865-8.185,2.589-11.834
		c1.725-3.647,4.117-6.828,7.175-9.542c3.056-2.711,6.606-4.831,10.651-6.361c4.042-1.527,8.432-2.293,13.166-2.293
		c5.03,0,9.417,0.47,13.166,1.405c3.748,0.938,7.149,2.245,10.207,3.921v-4.29h20.711v31.065h-20.858
		c-1.679-1.872-3.306-3.524-4.882-4.956c-1.578-1.428-3.254-2.611-5.029-3.55c-1.775-0.937-3.725-1.65-5.844-2.146
		c-2.121-0.492-4.611-0.739-7.47-0.739c-4.045,0-7.2,0.987-9.468,2.959c-2.27,1.974-3.402,4.093-3.402,6.36
		C80.481,82.945,87.383,87.187,101.191,89.454z M123.677,136.939c1.479-1.279,2.933-3.031,4.364-5.252
		c1.43-2.219,2.145-5.004,2.145-8.356c0-1.873-0.347-4.019-1.035-6.437c-0.69-2.414-2.121-4.808-4.289-7.175
		c-2.17-2.366-5.252-4.561-9.246-6.583c-3.994-2.021-9.297-3.524-15.903-4.512C80.677,95.667,71.161,88.37,71.161,76.731
		c0-2.268,0.492-4.512,1.479-6.73c0.985-2.219,2.441-4.216,4.364-5.991c1.923-1.775,4.265-3.204,7.027-4.29
		c2.76-1.084,5.866-1.628,9.32-1.628c6.31,0,11.54,0.987,15.681,2.959c4.142,1.974,7.987,4.785,11.538,8.433h7.545V57.057h-2.071
		v10.355h-4.586c-2.565-2.76-5.399-4.979-8.506-6.657c-3.106-1.676-6.287-2.907-9.542-3.698c-2.762-0.688-6.116-1.035-10.059-1.035
		c-3.454,0-6.634,0.543-9.542,1.627c-2.91,1.086-5.473,2.54-7.692,4.364c-2.219,1.826-3.946,3.994-5.178,6.509
		c-1.234,2.515-1.849,5.252-1.849,8.21c0,4.045,0.936,7.448,2.811,10.208c1.872,2.762,4.264,5.08,7.174,6.952
		c2.908,1.875,6.163,3.329,9.764,4.364c3.599,1.036,7.124,1.801,10.577,2.293c6.213,0.987,11.218,2.393,15.016,4.217
		c3.795,1.825,6.705,3.846,8.728,6.064c2.021,2.22,3.353,4.438,3.995,6.656c0.64,2.22,0.961,4.169,0.961,5.845
		c0,2.565-0.569,4.933-1.701,7.101c-1.135,2.17-2.688,4.021-4.66,5.547c-1.974,1.53-4.314,2.737-7.027,3.625
		c-2.713,0.889-5.694,1.332-8.949,1.332c-6.608,0-12.034-0.984-16.272-2.959c-4.242-1.972-8.236-4.783-11.983-8.433h-7.396v12.427
		h2.071v-10.354h4.734c1.972,2.069,3.969,3.823,5.992,5.251c2.02,1.431,4.19,2.589,6.509,3.477c2.316,0.889,4.808,1.555,7.471,1.997
		c2.663,0.444,5.623,0.666,8.876,0.666c3.55,0,6.854-0.518,9.912-1.554C118.745,140.417,121.407,138.914,123.677,136.939z"/>
</g>
</svg>
