<?xml version="1.0" encoding="utf-8"?>
<!-- Generator: Adobe Illustrator 16.0.0, SVG Export Plug-In . SVG Version: 6.00 Build 0)  -->
<!DOCTYPE svg PUBLIC "-//W3C//DTD SVG 1.1//EN" "http://www.w3.org/Graphics/SVG/1.1/DTD/svg11.dtd">
<svg version="1.1" id="Layer_1" xmlns="http://www.w3.org/2000/svg" xmlns:xlink="http://www.w3.org/1999/xlink" x="0px" y="0px"
	 width="16px" height="16px" viewBox="0 0 16 16" enable-background="new 0 0 16 16" xml:space="preserve">
<g>
	<path d="M4.433,2.937c0-0.144-0.004-0.279,0.001-0.416C4.445,2.203,4.575,1.943,4.84,1.763c0.525-0.357,1.242-0.059,1.367,0.575
		c0.027,0.136,0.019,0.28,0.023,0.421c0.004,0.057,0,0.113,0,0.175c0.311,0,0.611,0,0.922,0c0-0.08-0.002-0.157,0-0.233
		c0.008-0.132,0.002-0.266,0.03-0.394c0.095-0.43,0.5-0.727,0.931-0.696c0.43,0.032,0.791,0.386,0.83,0.82
		c0.01,0.138,0.006,0.277,0.008,0.417c0,0.026,0,0.053,0,0.084c0.309,0,0.609,0,0.922,0c0-0.128,0-0.254-0.002-0.382
		c0-0.138,0.027-0.271,0.084-0.398c0.172-0.387,0.574-0.603,0.98-0.526c0.406,0.077,0.717,0.439,0.73,0.859
		c0.006,0.147,0,0.295,0,0.454c0.123,0,0.238-0.001,0.355,0c0.23,0,0.453,0.044,0.658,0.153c0.506,0.272,0.783,0.7,0.787,1.276
		c0.006,2.191,0.002,4.384,0.002,6.576c0,0.492,0,0.984,0,1.479c0,0.727-0.49,1.313-1.205,1.435
		c-0.152,0.024-0.313,0.021-0.469,0.021c-2.1,0.001-4.2,0-6.299,0c-0.502,0-1.006,0.001-1.51,0.001
		c-0.726-0.001-1.309-0.483-1.435-1.196c-0.027-0.153-0.022-0.313-0.022-0.472c-0.001-2.134,0-4.27,0-6.405
		c0-0.472-0.001-0.943,0-1.415c0.002-0.728,0.492-1.312,1.208-1.432c0.141-0.025,0.284-0.017,0.424-0.022
		C4.248,2.935,4.335,2.937,4.433,2.937z M3.371,5.043c0,0.038,0,0.067,0,0.097c0,0.738,0,1.477,0,2.214c0,1.685,0,3.369,0,5.054
		c0,0.374,0.25,0.63,0.617,0.63c2.674,0,5.351,0,8.028,0c0.361,0,0.611-0.256,0.611-0.618c0-2.427,0-4.854,0-7.281
		c0-0.095,0-0.095-0.096-0.095c-3.021,0-6.043,0-9.067,0C3.439,5.043,3.412,5.043,3.371,5.043z M5.727,3.356
		c0-0.259,0-0.519,0-0.779c0-0.04-0.001-0.081-0.008-0.122c-0.032-0.19-0.186-0.329-0.367-0.339
		C5.175,2.107,5.009,2.225,4.959,2.405c-0.014,0.053-0.02,0.107-0.02,0.162C4.938,2.868,4.938,3.168,4.938,3.47
		c0,0.236-0.002,0.474,0.001,0.711C4.943,4.46,5.18,4.657,5.429,4.59c0.177-0.047,0.296-0.211,0.297-0.419
		C5.728,3.899,5.727,3.628,5.727,3.356z M7.659,3.356C7.659,3.356,7.661,3.356,7.659,3.356c0.002,0.284-0.002,0.57,0.002,0.855
		c0.005,0.201,0.164,0.37,0.356,0.391c0.188,0.02,0.367-0.114,0.416-0.313c0.012-0.044,0.016-0.09,0.016-0.136
		c0-0.53,0-1.062,0-1.593c0-0.033-0.002-0.068-0.008-0.102C8.411,2.269,8.253,2.123,8.069,2.116C7.886,2.108,7.72,2.234,7.675,2.422
		C7.663,2.47,7.661,2.52,7.661,2.57C7.659,2.832,7.659,3.095,7.659,3.356z M10.38,3.356L10.38,3.356c0,0.142,0,0.283,0,0.424
		c0,0.142-0.002,0.283,0.002,0.424c0.006,0.26,0.244,0.448,0.484,0.387c0.182-0.047,0.301-0.214,0.301-0.431
		c0.002-0.536,0-1.071,0-1.606c0-0.034-0.002-0.069-0.008-0.102c-0.037-0.208-0.217-0.351-0.418-0.335
		c-0.197,0.015-0.357,0.192-0.361,0.405C10.378,2.801,10.38,3.079,10.38,3.356z"/>
	<path d="M5.673,8.373c0,0.455,0,0.908,0,1.366c-0.511,0-1.022,0-1.537,0c0-0.454,0-0.906,0-1.366
		C4.646,8.373,5.157,8.373,5.673,8.373z"/>
	<path d="M6.198,9.74c0-0.458,0-0.911,0-1.368c0.514,0,1.021,0,1.539,0c0,0.454,0,0.908,0,1.368C7.227,9.74,6.716,9.74,6.198,9.74z"
		/>
	<path d="M9.802,9.741c-0.512,0-1.021,0-1.535,0C8.265,9.72,8.261,9.7,8.261,9.681c0-0.412,0.002-0.824,0-1.236
		c0-0.061,0.016-0.077,0.076-0.077C8.804,8.37,9.271,8.369,9.739,8.369c0.02,0,0.039,0.002,0.063,0.004
		C9.802,8.829,9.802,9.283,9.802,9.741z"/>
	<path d="M10.329,9.74c0-0.458,0-0.91,0-1.368c0.514,0,1.021,0,1.537,0c0,0.455,0,0.909,0,1.368
		C11.358,9.74,10.847,9.74,10.329,9.74z"/>
	<path d="M4.134,7.901c0-0.456,0-0.907,0-1.364C4.161,6.535,4.185,6.533,4.21,6.533c0.465,0,0.93,0,1.396,0
		c0.041,0,0.073-0.005,0.073,0.057C5.676,7.015,5.676,7.441,5.676,7.868c0,0.009-0.002,0.018-0.003,0.033
		C5.161,7.901,4.651,7.901,4.134,7.901z"/>
	<path d="M7.739,7.904c-0.516,0-1.023,0-1.539,0C6.198,7.879,6.196,7.857,6.196,7.835c0-0.408,0-0.82,0-1.229
		c0-0.056,0.013-0.074,0.07-0.074c0.469,0.003,0.938,0.002,1.407,0c0.044,0,0.071,0.004,0.071,0.062
		C7.741,7.015,7.743,7.438,7.743,7.863C7.743,7.874,7.741,7.886,7.739,7.904z"/>
	<path d="M9.802,7.903c-0.512,0-1.02,0-1.537,0C8.263,7.879,8.261,7.857,8.261,7.836c0-0.409,0-0.82-0.002-1.23
		c0-0.056,0.014-0.074,0.072-0.074c0.471,0.002,0.941,0.001,1.408-0.001c0.041,0,0.068,0.002,0.068,0.057
		C9.806,7.014,9.806,7.441,9.806,7.866C9.806,7.877,9.804,7.888,9.802,7.903z"/>
	<path d="M11.868,6.536c0,0.458,0,0.91,0,1.367c-0.512,0-1.023,0-1.539,0c-0.002-0.024-0.004-0.044-0.004-0.063
		c0-0.412,0.002-0.825,0-1.237c0-0.05,0.008-0.073,0.064-0.073c0.48,0.004,0.957,0.003,1.436,0.003
		C11.837,6.533,11.849,6.535,11.868,6.536z"/>
	<path d="M4.135,10.211c0.514,0,1.023,0,1.538,0c0.001,0.026,0.003,0.048,0.003,0.069c0,0.408,0,0.816,0.002,1.224
		c0,0.058-0.011,0.079-0.075,0.079c-0.469-0.003-0.938-0.002-1.407-0.001c-0.043,0-0.067-0.005-0.066-0.058
		c0.001-0.428,0.001-0.854,0.001-1.279C4.132,10.237,4.133,10.228,4.135,10.211z"/>
	<path d="M6.196,10.211c0.52,0,1.028,0,1.543,0c0.002,0.024,0.004,0.048,0.004,0.069c0,0.408-0.002,0.814,0.002,1.224
		c0,0.066-0.022,0.078-0.082,0.078C7.2,11.58,6.737,11.58,6.274,11.583c-0.062,0-0.082-0.015-0.08-0.079
		c0.002-0.405,0.002-0.811,0.002-1.217C6.196,10.265,6.196,10.242,6.196,10.211z"/>
	<path d="M8.265,10.211c0.516,0,1.023,0,1.539,0c0,0.022,0.004,0.042,0.004,0.062c0,0.414-0.002,0.826,0,1.238
		c0,0.058-0.018,0.071-0.072,0.071c-0.469-0.002-0.934-0.001-1.4,0c-0.041,0-0.074,0.004-0.074-0.058c0.002-0.428,0-0.854,0-1.277
		C8.261,10.238,8.263,10.229,8.265,10.211z"/>
	<path d="M11.868,10.212c0.002,0.027,0.004,0.049,0.004,0.07c0,0.408-0.002,0.816,0.002,1.225c0,0.063-0.018,0.076-0.076,0.076
		c-0.469-0.003-0.936-0.003-1.402-0.001c-0.059,0-0.07-0.021-0.07-0.075c0.002-0.41,0.002-0.818,0-1.229
		c0-0.044,0.002-0.072,0.061-0.072c0.48,0.002,0.961,0.001,1.441,0.001C11.839,10.206,11.849,10.21,11.868,10.212z"/>
</g>
</svg>
