<?xml version="1.0" encoding="utf-8"?>
<!-- Generator: Adobe Illustrator 16.0.0, SVG Export Plug-In . SVG Version: 6.00 Build 0)  -->
<!DOCTYPE svg PUBLIC "-//W3C//DTD SVG 1.1//EN" "http://www.w3.org/Graphics/SVG/1.1/DTD/svg11.dtd">
<svg version="1.1" id="Layer_1" xmlns="http://www.w3.org/2000/svg" xmlns:xlink="http://www.w3.org/1999/xlink" x="0px" y="0px"
	 width="16px" height="16px" viewBox="0 0 16 16" enable-background="new 0 0 16 16" xml:space="preserve">
<g>
	<path fill-rule="evenodd" clip-rule="evenodd" fill="#FFFFFF" d="M7.95,15.14c-1.757,0-3.514,0.001-5.271-0.001
		c-1.028-0.001-1.553-0.511-1.537-1.53c0.011-0.678-0.045-1.389,0.138-2.025c0.438-1.519,1.64-2.215,3.102-2.525
		c0.352-0.075,0.721-0.094,1.082-0.096c1.742-0.01,3.484-0.021,5.227,0.005c0.57,0.009,1.15,0.077,1.708,0.199
		c1.529,0.335,2.411,1.439,2.452,3.014c0.013,0.454,0.007,0.909,0.006,1.363c-0.002,0.947-0.646,1.595-1.589,1.596
		C11.495,15.141,9.723,15.14,7.95,15.14z"/>
	<path fill-rule="evenodd" clip-rule="evenodd" fill="#FFFFFF" d="M7.993,8.266C6.085,8.262,4.564,6.73,4.573,4.823
		c0.009-1.863,1.563-3.403,3.43-3.402c1.886,0.002,3.427,1.56,3.417,3.457C11.411,6.758,9.882,8.27,7.993,8.266z"/>
</g>
</svg>
