<?xml version="1.0" encoding="utf-8"?>
<!-- Generator: Adobe Illustrator 16.0.0, SVG Export Plug-In . SVG Version: 6.00 Build 0)  -->
<!DOCTYPE svg PUBLIC "-//W3C//DTD SVG 1.1//EN" "http://www.w3.org/Graphics/SVG/1.1/DTD/svg11.dtd">
<svg version="1.1" id="Layer_1" xmlns="http://www.w3.org/2000/svg" xmlns:xlink="http://www.w3.org/1999/xlink" x="0px" y="0px"
	 width="17.208px" height="8.25px" viewBox="-0.667 0 17.208 8.25" enable-background="new -0.667 0 17.208 8.25"
	 xml:space="preserve">
<g>
	<path fill="#5D5D5D" d="M16.542,7.25c0,0.55-0.484,1-1.076,1H0.409c-0.591,0-1.075-0.45-1.075-1V1c0-0.55,0.484-1,1.075-1h15.057
		c0.592,0,1.076,0.45,1.076,1V7.25z"/>
</g>
<g>
	<path fill="#FFFFFF" d="M3.997,4.114c0.006,0.993-0.798,1.812-1.787,1.82C1.208,5.943,0.38,5.13,0.378,4.128
		C0.373,3.135,1.177,2.323,2.171,2.315C3.184,2.31,3.992,3.102,3.997,4.114z"/>
	<path fill="#FFFFFF" d="M9.676,4.114c0.007,0.993-0.797,1.812-1.789,1.82C6.885,5.943,6.058,5.13,6.056,4.126
		C6.051,3.133,6.854,2.323,7.849,2.315C8.862,2.31,9.671,3.102,9.676,4.114z"/>
	<path fill="#FFFFFF" d="M15.623,4.116c0.005,0.991-0.8,1.812-1.791,1.818c-1,0.012-1.827-0.805-1.829-1.805
		c-0.006-0.994,0.799-1.805,1.793-1.814C14.809,2.311,15.615,3.104,15.623,4.116z"/>
</g>
</svg>
