<?xml version="1.0" encoding="utf-8"?>
<!-- Generator: Adobe Illustrator 16.0.0, SVG Export Plug-In . SVG Version: 6.00 Build 0)  -->
<!DOCTYPE svg PUBLIC "-//W3C//DTD SVG 1.1//EN" "http://www.w3.org/Graphics/SVG/1.1/DTD/svg11.dtd">
<svg version="1.1" id="Layer_1" xmlns="http://www.w3.org/2000/svg" xmlns:xlink="http://www.w3.org/1999/xlink" x="0px" y="0px"
	 width="66.872px" height="88.687px" viewBox="0 0 66.872 88.687" enable-background="new 0 0 66.872 88.687" xml:space="preserve">
<g>
	<g>
		<path fill-rule="evenodd" clip-rule="evenodd" fill="#FFFFFF" d="M65.872,77.687c0,5.5-4.5,10-10,10H11c-5.5,0-10-4.5-10-10
			V32.815c0-5.5,4.5-10,10-10h44.872c5.5,0,10,4.5,10,10V77.687z"/>
		<path fill="none" stroke="#000000" stroke-width="2" stroke-miterlimit="10" d="M65.872,77.687c0,5.5-4.5,10-10,10H11
			c-5.5,0-10-4.5-10-10V32.815c0-5.5,4.5-10,10-10h44.872c5.5,0,10,4.5,10,10V77.687z"/>
	</g>
	<g>
		<path fill="#1A1A1A" d="M21.116,7.608c-0.032,0.444-0.132,0.853-0.3,1.225c-0.168,0.372-0.4,0.691-0.697,0.958
			s-0.655,0.475-1.078,0.624c-0.422,0.15-0.904,0.226-1.444,0.226c-0.561,0-1.064-0.097-1.51-0.291s-0.824-0.474-1.135-0.838
			c-0.31-0.364-0.548-0.806-0.714-1.324s-0.249-1.1-0.249-1.744V5.867c0-0.645,0.086-1.228,0.258-1.747
			c0.172-0.521,0.416-0.963,0.729-1.327c0.314-0.364,0.696-0.645,1.144-0.841s0.949-0.295,1.501-0.295
			c0.544,0,1.026,0.078,1.444,0.232c0.418,0.153,0.773,0.367,1.066,0.642c0.292,0.274,0.52,0.601,0.685,0.979
			c0.164,0.379,0.268,0.79,0.312,1.234h-1.801c-0.02-0.26-0.065-0.49-0.135-0.69s-0.171-0.368-0.303-0.505
			c-0.132-0.136-0.302-0.238-0.51-0.309c-0.208-0.07-0.46-0.105-0.757-0.105c-0.608,0-1.062,0.222-1.36,0.664
			s-0.447,1.128-0.447,2.057v0.588c0,0.452,0.033,0.849,0.099,1.189c0.066,0.34,0.17,0.624,0.312,0.853
			c0.142,0.228,0.326,0.398,0.553,0.513c0.226,0.114,0.499,0.172,0.819,0.172c0.284,0,0.529-0.032,0.736-0.097
			c0.206-0.063,0.378-0.161,0.516-0.291s0.245-0.293,0.321-0.489s0.124-0.425,0.144-0.685H21.116z"/>
		<path fill="#1A1A1A" d="M25.836,5.65c-0.088-0.012-0.191-0.022-0.31-0.032c-0.118-0.011-0.223-0.016-0.315-0.016
			c-0.34,0-0.616,0.058-0.826,0.172c-0.21,0.113-0.365,0.278-0.465,0.495v4.251h-1.735V4.023h1.639l0.048,0.774
			c0.164-0.28,0.366-0.499,0.606-0.657c0.24-0.158,0.52-0.237,0.84-0.237c0.092,0,0.189,0.008,0.292,0.024
			c0.102,0.016,0.185,0.034,0.249,0.054L25.836,5.65z"/>
		<path fill="#1A1A1A" d="M26.4,7.212c0-0.473,0.068-0.91,0.204-1.314c0.136-0.404,0.334-0.754,0.594-1.048
			c0.26-0.295,0.582-0.525,0.964-0.694c0.382-0.168,0.817-0.252,1.306-0.252c0.492,0,0.931,0.084,1.315,0.252
			c0.384,0.169,0.708,0.399,0.97,0.694c0.262,0.294,0.461,0.644,0.597,1.048s0.204,0.842,0.204,1.314v0.126
			c0,0.477-0.068,0.916-0.204,1.318s-0.335,0.75-0.597,1.045c-0.262,0.294-0.583,0.524-0.964,0.69s-0.817,0.249-1.309,0.249
			s-0.93-0.083-1.312-0.249s-0.705-0.396-0.967-0.69c-0.262-0.295-0.461-0.643-0.597-1.045C26.468,8.254,26.4,7.814,26.4,7.338
			V7.212z M28.136,7.338c0,0.265,0.024,0.513,0.072,0.745c0.048,0.231,0.125,0.433,0.231,0.604c0.106,0.17,0.244,0.305,0.414,0.405
			c0.17,0.1,0.379,0.149,0.627,0.149c0.24,0,0.445-0.05,0.616-0.149c0.17-0.101,0.309-0.235,0.417-0.405
			c0.108-0.171,0.186-0.372,0.234-0.604c0.048-0.232,0.072-0.48,0.072-0.745V7.212c0-0.256-0.024-0.499-0.072-0.729
			c-0.048-0.23-0.126-0.433-0.234-0.606c-0.108-0.174-0.248-0.313-0.42-0.414c-0.172-0.103-0.38-0.153-0.624-0.153
			c-0.24,0-0.446,0.051-0.616,0.153c-0.17,0.102-0.308,0.24-0.414,0.414c-0.106,0.174-0.184,0.376-0.231,0.606
			s-0.072,0.474-0.072,0.729V7.338z"/>
		<path fill="#1A1A1A" d="M37.143,8.726c0-0.093-0.018-0.177-0.054-0.253c-0.036-0.076-0.104-0.146-0.205-0.213
			s-0.236-0.129-0.408-0.189c-0.172-0.06-0.394-0.118-0.667-0.174c-0.332-0.072-0.639-0.162-0.921-0.271
			c-0.282-0.107-0.527-0.242-0.733-0.402c-0.206-0.159-0.367-0.346-0.483-0.558c-0.116-0.213-0.174-0.459-0.174-0.739
			c0-0.271,0.059-0.53,0.177-0.774c0.118-0.244,0.288-0.459,0.51-0.646c0.222-0.186,0.494-0.333,0.816-0.441
			c0.322-0.107,0.686-0.162,1.09-0.162c0.42,0,0.799,0.053,1.135,0.156c0.336,0.104,0.622,0.249,0.856,0.436
			c0.234,0.186,0.414,0.407,0.54,0.663c0.126,0.257,0.189,0.537,0.189,0.841h-1.735c0-0.248-0.08-0.453-0.24-0.615
			s-0.41-0.243-0.75-0.243c-0.292,0-0.519,0.065-0.679,0.198c-0.16,0.132-0.24,0.3-0.24,0.504c0,0.097,0.021,0.182,0.063,0.256
			c0.042,0.073,0.11,0.142,0.204,0.204c0.094,0.062,0.218,0.119,0.372,0.171s0.343,0.1,0.567,0.144
			c0.352,0.068,0.679,0.152,0.979,0.253c0.3,0.1,0.559,0.229,0.777,0.387s0.389,0.351,0.514,0.576c0.124,0.227,0.186,0.5,0.186,0.82
			c0,0.288-0.064,0.554-0.192,0.795c-0.128,0.243-0.311,0.452-0.549,0.628s-0.525,0.314-0.862,0.414
			c-0.336,0.101-0.712,0.15-1.129,0.15c-0.456,0-0.858-0.064-1.207-0.192c-0.349-0.128-0.642-0.296-0.88-0.504
			s-0.417-0.442-0.537-0.703c-0.12-0.26-0.18-0.522-0.18-0.786h1.645c0.008,0.168,0.045,0.313,0.111,0.436
			c0.066,0.122,0.153,0.221,0.261,0.297c0.108,0.076,0.233,0.132,0.375,0.168s0.292,0.055,0.447,0.055
			c0.333,0,0.583-0.063,0.754-0.189C37.058,9.095,37.143,8.93,37.143,8.726z"/>
		<path fill="#1A1A1A" d="M43.465,8.726c0-0.093-0.018-0.177-0.054-0.253c-0.036-0.076-0.104-0.146-0.205-0.213
			s-0.236-0.129-0.408-0.189c-0.172-0.06-0.394-0.118-0.667-0.174c-0.332-0.072-0.639-0.162-0.921-0.271
			c-0.282-0.107-0.527-0.242-0.733-0.402c-0.206-0.159-0.367-0.346-0.483-0.558c-0.116-0.213-0.174-0.459-0.174-0.739
			c0-0.271,0.059-0.53,0.177-0.774c0.118-0.244,0.288-0.459,0.51-0.646c0.222-0.186,0.494-0.333,0.816-0.441
			c0.322-0.107,0.686-0.162,1.09-0.162c0.42,0,0.799,0.053,1.135,0.156c0.336,0.104,0.622,0.249,0.856,0.436
			c0.234,0.186,0.414,0.407,0.54,0.663c0.126,0.257,0.189,0.537,0.189,0.841h-1.735c0-0.248-0.08-0.453-0.24-0.615
			s-0.41-0.243-0.75-0.243c-0.292,0-0.519,0.065-0.679,0.198c-0.16,0.132-0.24,0.3-0.24,0.504c0,0.097,0.021,0.182,0.063,0.256
			c0.042,0.073,0.11,0.142,0.204,0.204c0.094,0.062,0.218,0.119,0.372,0.171s0.343,0.1,0.567,0.144
			c0.352,0.068,0.679,0.152,0.979,0.253c0.3,0.1,0.559,0.229,0.777,0.387s0.389,0.351,0.514,0.576c0.124,0.227,0.186,0.5,0.186,0.82
			c0,0.288-0.064,0.554-0.192,0.795c-0.128,0.243-0.311,0.452-0.549,0.628s-0.525,0.314-0.862,0.414
			c-0.336,0.101-0.712,0.15-1.129,0.15c-0.456,0-0.858-0.064-1.207-0.192c-0.349-0.128-0.642-0.296-0.88-0.504
			s-0.417-0.442-0.537-0.703c-0.12-0.26-0.18-0.522-0.18-0.786h1.645c0.008,0.168,0.045,0.313,0.111,0.436
			c0.066,0.122,0.153,0.221,0.261,0.297c0.108,0.076,0.233,0.132,0.375,0.168s0.292,0.055,0.447,0.055
			c0.333,0,0.583-0.063,0.754-0.189C43.38,9.095,43.465,8.93,43.465,8.726z"/>
		<path fill="#1A1A1A" d="M46.69,10.521V5.297h-0.967V4.023h0.967V3.753c0-0.416,0.064-0.785,0.192-1.107
			c0.128-0.322,0.314-0.592,0.559-0.811s0.542-0.384,0.895-0.495c0.353-0.112,0.752-0.168,1.201-0.168
			c0.34,0,0.668,0.033,0.984,0.099c0.316,0.065,0.645,0.151,0.985,0.255l-0.252,1.436c-0.108-0.032-0.22-0.064-0.336-0.097
			c-0.116-0.031-0.239-0.062-0.369-0.09c-0.13-0.027-0.27-0.05-0.417-0.065c-0.148-0.017-0.31-0.024-0.486-0.024
			c-0.404,0-0.708,0.09-0.91,0.271c-0.202,0.18-0.303,0.446-0.303,0.798v0.271h1.279v1.273h-1.279v5.224H46.69z M52.316,10.521
			h-1.741V4.023h1.741V10.521z"/>
		<path fill="#1A1A1A" d="M55.829,2.427v1.597h1.111v1.273h-1.111v3.242c0,0.136,0.014,0.248,0.042,0.336
			c0.028,0.088,0.07,0.157,0.126,0.207c0.056,0.051,0.125,0.084,0.207,0.103c0.082,0.018,0.179,0.027,0.292,0.027
			c0.104,0,0.199-0.004,0.285-0.013c0.086-0.008,0.161-0.018,0.225-0.029v1.314c-0.144,0.044-0.301,0.081-0.471,0.111
			c-0.17,0.03-0.363,0.045-0.58,0.045c-0.284,0-0.541-0.035-0.769-0.105c-0.228-0.069-0.423-0.181-0.585-0.333
			s-0.287-0.351-0.375-0.595c-0.088-0.244-0.132-0.538-0.132-0.882V5.297h-0.949V4.023h0.949V2.427H55.829z"/>
	</g>
	<g>
		<path fill-rule="evenodd" clip-rule="evenodd" d="M55.711,73.906c-0.126,0.21-0.271,0.411-0.374,0.631
			c-0.52,1.113-1.493,1.51-2.613,1.73c-0.997,0.195-1.976,0.478-2.972,0.681c-1.004,0.207-2.015,0.461-3.032,0.519
			c-1.523,0.086-2.767-1.057-3.075-2.564c-0.315-1.545-0.697-3.078-1.052-4.615c-0.471-2.041-0.939-4.083-1.418-6.121
			c-0.311-1.322-0.645-2.641-0.957-3.964c-0.513-2.174-1.018-4.352-1.522-6.528c-0.053-0.222-0.083-0.449-0.135-0.745
			c-0.591,0.277-1.147,0.487-1.652,0.785c-1.288,0.764-2.019,0.734-3.234-0.163c-0.942-0.696-1.904-1.366-2.99-2.144
			c-0.655,2.11-1.271,4.098-1.887,6.081c1.165,0.854,2.305,1.655,3.406,2.505c0.927,0.716,1.988,1.265,2.726,2.217
			c0.443,0.572,0.663,1.175,0.542,1.918c-0.255,1.574-0.457,3.158-0.7,4.734c-0.164,1.062-0.37,2.118-0.542,3.18
			c-0.143,0.879-0.254,1.763-0.397,2.642c-0.21,1.293-1.656,2.184-2.923,1.808c-1.358-0.4-2.02-1.494-1.804-2.911
			c0.211-1.391,0.391-2.786,0.571-4.182c0.148-1.151,0.261-2.306,0.424-3.454c0.042-0.299-0.029-0.456-0.274-0.608
			c-1.625-1.005-3.235-2.034-4.868-3.028c-0.879-0.534-1.776-1.046-2.694-1.515c-1.852-0.941-3.078-3.382-2.561-5.338
			c0.271-1.024,0.688-2.01,1.049-3.009c0.428-1.188,0.834-2.385,1.311-3.552c0.505-1.237,0.747-2.58,1.586-3.686
			c1.173-1.543,3.647-2.215,5.322-1.218c0.691,0.411,1.314,0.946,1.933,1.467c0.744,0.627,1.448,1.302,2.173,1.952
			c0.77,0.691,1.545,1.377,2.314,2.069c0.203,0.182,0.396,0.195,0.627,0.038c0.18-0.123,0.383-0.219,0.585-0.301
			c0.714-0.288,1.306-0.617,1.577-1.47c0.258-0.814,1.035-1.282,1.841-1.486c2.045-0.517,4.098-1.016,6.17-1.406
			c1.754-0.329,3.143,0.652,3.582,2.393c0.34,1.348,0.623,2.709,0.945,4.061c0.303,1.275,0.636,2.544,0.935,3.819
			c0.389,1.657,0.749,3.321,1.137,4.979c0.348,1.491,0.725,2.975,1.076,4.465c0.468,1.993,0.918,3.988,1.386,5.981
			c0.138,0.588,0.306,1.168,0.46,1.751C55.711,72.837,55.711,73.371,55.711,73.906z"/>
		<path fill-rule="evenodd" clip-rule="evenodd" d="M12.331,72.491c0.549-1.449,1.939-1.961,3.076-2.751
			c0.732-0.511,1.483-0.991,2.229-1.481c0.235-0.154,0.463-0.34,0.723-0.436c0.406-0.151,0.518-0.464,0.575-0.833
			c0.216-1.407,0.433-2.814,0.644-4.223c0.046-0.31,0.066-0.622,0.102-0.933c0.036-0.322,0.194-0.357,0.45-0.197
			c0.796,0.496,1.589,0.996,2.394,1.479c0.711,0.428,1.432,0.839,2.154,1.247c0.348,0.196,0.39,0.437,0.286,0.821
			c-0.342,1.266-0.629,2.548-0.941,3.822c-0.093,0.379-0.154,0.777-0.316,1.126c-0.139,0.301-0.35,0.625-0.619,0.8
			c-1.576,1.024-3.176,2.012-4.773,3.002c-0.704,0.436-1.455,0.805-2.124,1.288c-1.209,0.872-3.164,0.258-3.677-1.238
			c-0.043-0.126-0.12-0.241-0.181-0.361C12.331,73.246,12.331,72.868,12.331,72.491z"/>
		<path fill-rule="evenodd" clip-rule="evenodd" d="M31.946,34.203c0.423,0.19,0.864,0.349,1.268,0.573
			c1.355,0.755,2.102,1.961,2.177,3.47c0.108,2.151-1.253,3.968-3.275,4.475c-2.605,0.652-5.057-1.343-5.222-3.841
			c-0.147-2.245,1.124-3.965,3.3-4.586c0.054-0.016,0.099-0.06,0.149-0.091C30.877,34.203,31.412,34.203,31.946,34.203z"/>
	</g>
</g>
</svg>
