<?xml version="1.0" encoding="utf-8"?>
<!-- Generator: Adobe Illustrator 16.0.0, SVG Export Plug-In . SVG Version: 6.00 Build 0)  -->
<!DOCTYPE svg PUBLIC "-//W3C//DTD SVG 1.1//EN" "http://www.w3.org/Graphics/SVG/1.1/DTD/svg11.dtd">
<svg version="1.1" id="Layer_1" xmlns="http://www.w3.org/2000/svg" xmlns:xlink="http://www.w3.org/1999/xlink" x="0px" y="0px"
	 width="66.871px" height="88.687px" viewBox="0 0 66.871 88.687" enable-background="new 0 0 66.871 88.687" xml:space="preserve">
<g>
	<g>
		<g>
			<path fill-rule="evenodd" clip-rule="evenodd" fill="#FFFFFF" d="M65.871,77.687c0,5.5-4.5,10-10,10H11c-5.5,0-10-4.5-10-10
				V32.815c0-5.5,4.5-10,10-10h44.871c5.5,0,10,4.5,10,10V77.687z"/>
			<path fill="none" stroke="#000000" stroke-width="2" stroke-miterlimit="10" d="M65.871,77.687c0,5.5-4.5,10-10,10H11
				c-5.5,0-10-4.5-10-10V32.815c0-5.5,4.5-10,10-10h44.871c5.5,0,10,4.5,10,10V77.687z"/>
		</g>
		<g>
			<path fill-rule="evenodd" clip-rule="evenodd" d="M28.604,50.129c0.816,0.199,1.527,0.372,2.239,0.545
				c1.456,0.353,2.921,0.672,4.366,1.065c1.37,0.372,2.04,1.874,1.367,3.124c-1.144,2.125-2.353,4.216-3.537,6.319
				c-0.66,1.173-1.326,2.342-1.986,3.515c-0.066,0.116-0.111,0.243-0.166,0.364c0.517,0.196,0.986,0.398,1.474,0.542
				c0.123,0.036,0.332-0.087,0.451-0.193c1.898-1.71,3.788-3.431,5.681-5.147c0.679-0.616,1.349-1.241,2.039-1.845
				c0.232-0.203,0.255-0.366,0.104-0.637c-0.76-1.355-1.498-2.722-2.246-4.085c-0.613-1.116-0.041-2.096,1.235-2.095
				c2.321,0,4.641,0.001,6.961,0.019c0.355,0.003,0.542-0.118,0.705-0.438c0.782-1.547,1.586-3.084,2.396-4.616
				c0.376-0.712,1.117-0.97,1.75-0.642c0.6,0.311,0.876,1.063,0.562,1.681c-1.001,1.967-2.019,3.923-3.04,5.878
				c-0.283,0.541-0.777,0.717-1.359,0.715c-1.765-0.005-3.53-0.004-5.295-0.011c-0.735-0.002-0.743-0.001-0.403,0.62
				c1.106,2.021,2.226,4.034,3.316,6.062c0.188,0.35,0.375,0.435,0.752,0.329c3.096-0.863,6.381,0.529,7.922,3.343
				c1.502,2.745,0.939,6.133-1.382,8.315c-0.547,0.514-0.522,0.344-0.16,1.016c0.665,1.233,1.35,2.455,2.019,3.688
				c0.599,1.1,0.022,2.067-1.229,2.067c-12.936,0.001-25.872,0-38.808,0.005c-0.596,0-1.069-0.183-1.34-0.729
				c-0.211-0.43-0.178-0.866,0.092-1.268c0.271-0.404,0.667-0.552,1.146-0.55c1.737,0.006,3.474-0.008,5.21,0.009
				c0.375,0.003,0.653-0.108,0.927-0.361c1.398-1.29,2.806-2.57,4.225-3.838c0.259-0.23,0.297-0.448,0.214-0.769
				c-0.528-2.026-1.037-4.058-1.556-6.086c-0.507-1.99-1.022-3.977-1.529-5.966c-0.226-0.887-0.434-1.778-0.667-2.665
				c-0.073-0.278,0.037-0.357,0.281-0.357c1.319-0.001,2.64,0.003,3.959-0.005c0.286,0,0.343,0.195,0.395,0.398
				c0.212,0.818,0.418,1.64,0.625,2.46c0.193,0.766,0.38,1.534,0.579,2.299c0.025,0.1,0.097,0.186,0.196,0.366
				c0.201-0.353,0.363-0.635,0.522-0.917c0.937-1.654,1.874-3.308,2.808-4.963c0.296-0.525,0.268-0.572-0.328-0.573
				c-3.752-0.001-7.503,0-11.255-0.001c-0.208,0-0.418,0.002-0.624-0.021c-0.685-0.074-1.193-0.64-1.17-1.288
				c0.024-0.651,0.563-1.207,1.236-1.24c0.471-0.023,0.944-0.014,1.417-0.007c0.284,0.006,0.369-0.095,0.292-0.379
				c-0.142-0.521-0.276-1.047-0.378-1.578c-0.22-1.154,0.05-2.174,0.896-3.017c2.74-2.722,5.518-5.407,8.207-8.18
				c1.771-1.825,4.169-0.992,5.127,0.486c1.372,2.121,2.745,4.241,4.098,6.374c0.22,0.347,0.464,0.482,0.875,0.478
				c1.875-0.02,3.751-0.01,5.626-0.007c0.223,0,0.446,0.004,0.666,0.034c0.939,0.126,1.472,0.73,1.437,1.618
				c-0.031,0.778-0.677,1.386-1.551,1.45c-0.166,0.013-0.333,0.009-0.5,0.009c-2.334,0-4.669-0.018-7.003,0.009
				c-0.919,0.011-1.568-0.37-2.04-1.122c-0.736-1.177-1.473-2.354-2.211-3.527c-0.256-0.408-0.289-0.409-0.636-0.066
				c-1.215,1.2-2.429,2.401-3.642,3.604C28.863,49.84,28.776,49.942,28.604,50.129z M23.877,77.036c9.144,0,18.166,0,27.292,0
				c-0.469-0.854-0.886-1.632-1.328-2.396c-0.044-0.076-0.247-0.119-0.355-0.093c-1.242,0.317-2.464,0.268-3.697-0.089
				c-2.437-0.709-4.569-3.275-4.813-5.803c-0.218-2.258,0.444-4.19,2.056-5.787c0.179-0.177,0.213-0.325,0.087-0.544
				c-0.292-0.503-0.582-1.009-0.844-1.529c-0.153-0.304-0.296-0.259-0.503-0.07c-2.412,2.196-4.826,4.392-7.246,6.579
				c-0.201,0.182-0.228,0.357-0.13,0.589c0.374,0.889,0.41,1.792,0.174,2.729c-0.683,2.719-3.79,4.147-6.267,2.854
				c-0.268-0.142-0.44-0.125-0.66,0.076c-1.124,1.035-2.261,2.054-3.392,3.08C24.144,76.733,24.051,76.85,23.877,77.036z
				 M28.785,69.528c0.005,0.843,0.674,1.521,1.5,1.52c0.829-0.001,1.55-0.727,1.537-1.55c-0.013-0.812-0.716-1.49-1.545-1.488
				C29.438,68.011,28.78,68.682,28.785,69.528z"/>
			<path fill-rule="evenodd" clip-rule="evenodd" d="M36.979,41.232c-2.155,0.001-3.914-1.778-3.922-3.968
				c-0.009-2.199,1.731-3.953,3.919-3.949c2.203,0.005,3.986,1.748,3.992,3.903C40.975,39.414,39.167,41.232,36.979,41.232z"/>
		</g>
	</g>
	<g>
		<path fill="#1A1A1A" d="M28.515,8.227c0-0.152-0.022-0.289-0.066-0.411c-0.044-0.122-0.129-0.235-0.255-0.339
			c-0.126-0.104-0.3-0.206-0.522-0.307c-0.222-0.1-0.509-0.206-0.861-0.318c-0.4-0.128-0.778-0.272-1.132-0.433
			c-0.354-0.159-0.665-0.349-0.931-0.567c-0.267-0.218-0.477-0.469-0.631-0.753c-0.154-0.284-0.231-0.616-0.231-0.997
			c0-0.364,0.079-0.697,0.237-1c0.158-0.302,0.38-0.559,0.667-0.771c0.286-0.213,0.626-0.378,1.021-0.496
			c0.395-0.118,0.828-0.178,1.3-0.178c0.484,0,0.924,0.068,1.321,0.201c0.396,0.135,0.734,0.322,1.015,0.563
			c0.28,0.239,0.497,0.525,0.648,0.855c0.152,0.33,0.229,0.691,0.229,1.084h-1.802c0-0.185-0.029-0.354-0.087-0.511
			s-0.147-0.29-0.267-0.402s-0.271-0.199-0.45-0.262c-0.18-0.062-0.393-0.093-0.637-0.093c-0.236,0-0.441,0.026-0.615,0.078
			c-0.174,0.052-0.318,0.124-0.433,0.216c-0.114,0.093-0.2,0.2-0.258,0.324c-0.058,0.125-0.087,0.257-0.087,0.396
			c0,0.288,0.147,0.529,0.441,0.724c0.294,0.194,0.726,0.375,1.294,0.544c0.476,0.147,0.896,0.312,1.258,0.492
			c0.362,0.18,0.665,0.384,0.907,0.612s0.425,0.484,0.549,0.769s0.187,0.606,0.187,0.967c0,0.384-0.075,0.727-0.226,1.026
			c-0.15,0.301-0.363,0.554-0.639,0.76c-0.276,0.206-0.609,0.364-1,0.475c-0.39,0.11-0.826,0.165-1.306,0.165
			c-0.289,0-0.577-0.025-0.865-0.075s-0.563-0.127-0.826-0.231c-0.262-0.104-0.505-0.233-0.729-0.39s-0.419-0.341-0.585-0.553
			s-0.296-0.453-0.391-0.724c-0.094-0.271-0.141-0.569-0.141-0.897h1.807c0,0.264,0.042,0.488,0.126,0.673
			c0.084,0.184,0.201,0.333,0.352,0.447c0.15,0.113,0.331,0.197,0.543,0.249c0.212,0.052,0.448,0.078,0.708,0.078
			c0.232,0,0.434-0.025,0.606-0.075c0.172-0.05,0.314-0.119,0.426-0.207c0.112-0.088,0.195-0.193,0.249-0.315
			S28.515,8.367,28.515,8.227z"/>
		<path fill="#1A1A1A" d="M37.275,7.332c0,0.473-0.055,0.911-0.166,1.315C37,9.052,36.839,9.4,36.626,9.695
			c-0.212,0.294-0.475,0.525-0.79,0.693c-0.314,0.168-0.675,0.252-1.083,0.252c-0.344,0-0.648-0.061-0.91-0.18
			c-0.262-0.12-0.49-0.289-0.682-0.505v3.063h-1.735V4.023h1.609l0.06,0.637c0.2-0.24,0.433-0.427,0.699-0.559
			s0.582-0.198,0.946-0.198c0.412,0,0.776,0.079,1.093,0.237s0.581,0.383,0.792,0.673C36.839,5.104,37,5.452,37.11,5.858
			c0.11,0.406,0.166,0.855,0.166,1.348V7.332z M35.54,7.206c0-0.269-0.023-0.518-0.069-0.748c-0.046-0.229-0.119-0.43-0.219-0.6
			c-0.1-0.171-0.229-0.304-0.387-0.399c-0.158-0.097-0.351-0.145-0.58-0.145c-0.284,0-0.517,0.054-0.699,0.159
			c-0.182,0.106-0.323,0.262-0.423,0.466v2.659c0.1,0.2,0.241,0.357,0.423,0.472s0.419,0.171,0.711,0.171
			c0.228,0,0.421-0.05,0.58-0.149c0.158-0.101,0.286-0.237,0.384-0.412c0.098-0.174,0.169-0.377,0.213-0.609
			c0.044-0.231,0.066-0.478,0.066-0.738V7.206z"/>
		<path fill="#1A1A1A" d="M38.338,2.343c0-0.261,0.087-0.475,0.261-0.643c0.174-0.169,0.412-0.253,0.712-0.253
			c0.148,0,0.282,0.022,0.402,0.066c0.12,0.044,0.222,0.106,0.307,0.187c0.084,0.08,0.149,0.175,0.195,0.285
			c0.046,0.109,0.069,0.229,0.069,0.357c0,0.132-0.023,0.253-0.069,0.363c-0.046,0.109-0.111,0.205-0.195,0.285
			c-0.084,0.08-0.187,0.142-0.307,0.186c-0.12,0.044-0.254,0.066-0.402,0.066c-0.148,0-0.282-0.022-0.402-0.066
			s-0.222-0.105-0.307-0.186c-0.084-0.08-0.149-0.176-0.195-0.285C38.361,2.596,38.338,2.475,38.338,2.343z M40.182,10.521H38.44
			V4.023h1.742V10.521z"/>
		<path fill="#1A1A1A" d="M43.208,4.023l0.054,0.751c0.224-0.28,0.494-0.496,0.811-0.646c0.316-0.15,0.668-0.226,1.057-0.226
			c0.308,0,0.588,0.043,0.841,0.129c0.252,0.087,0.468,0.228,0.648,0.424s0.319,0.452,0.417,0.769
			c0.098,0.316,0.147,0.704,0.147,1.165v4.131h-1.735V6.377c0-0.208-0.023-0.38-0.069-0.516c-0.046-0.137-0.113-0.244-0.201-0.324
			c-0.088-0.08-0.196-0.138-0.324-0.172c-0.128-0.033-0.276-0.051-0.444-0.051c-0.256,0-0.476,0.057-0.658,0.168
			c-0.182,0.112-0.329,0.265-0.441,0.457v4.581h-1.735V4.023H43.208z"/>
	</g>
</g>
</svg>
