<?xml version="1.0" encoding="utf-8"?>
<!-- Generator: Adobe Illustrator 16.0.0, SVG Export Plug-In . SVG Version: 6.00 Build 0)  -->
<!DOCTYPE svg PUBLIC "-//W3C//DTD SVG 1.1//EN" "http://www.w3.org/Graphics/SVG/1.1/DTD/svg11.dtd">
<svg version="1.1" id="Layer_1" xmlns="http://www.w3.org/2000/svg" xmlns:xlink="http://www.w3.org/1999/xlink" x="0px" y="0px"
	 width="66.871px" height="88.686px" viewBox="0 0 66.871 88.686" enable-background="new 0 0 66.871 88.686" xml:space="preserve">
<g>
	<g>
		<path fill-rule="evenodd" clip-rule="evenodd" fill="#FFFFFF" d="M65.871,77.686c0,5.5-4.5,10-10,10H11c-5.5,0-10-4.5-10-10
			V32.813c0-5.5,4.5-10,10-10h44.871c5.5,0,10,4.5,10,10V77.686z"/>
		<path fill="none" stroke="#000000" stroke-width="2" stroke-miterlimit="10" d="M65.871,77.686c0,5.5-4.5,10-10,10H11
			c-5.5,0-10-4.5-10-10V32.813c0-5.5,4.5-10,10-10h44.871c5.5,0,10,4.5,10,10V77.686z"/>
	</g>
	<g>
		<path fill="#1A1A1A" d="M19.733,3.236h-2.678v7.283h-1.801V3.236h-2.642V1.777h7.121V3.236z"/>
		<path fill="#1A1A1A" d="M24.297,5.649c-0.088-0.012-0.191-0.022-0.31-0.032c-0.118-0.011-0.223-0.016-0.315-0.016
			c-0.34,0-0.616,0.058-0.826,0.172c-0.21,0.113-0.365,0.278-0.465,0.495v4.251h-1.735V4.022h1.639l0.048,0.774
			c0.164-0.28,0.366-0.499,0.606-0.657c0.24-0.158,0.52-0.237,0.84-0.237c0.092,0,0.189,0.008,0.292,0.024
			c0.102,0.016,0.185,0.034,0.249,0.054L24.297,5.649z"/>
		<path fill="#1A1A1A" d="M28.896,10.52c-0.08-0.156-0.138-0.351-0.174-0.582c-0.176,0.195-0.397,0.362-0.664,0.498
			s-0.591,0.204-0.976,0.204c-0.313,0-0.604-0.048-0.874-0.145c-0.27-0.096-0.504-0.229-0.702-0.402
			c-0.198-0.172-0.354-0.377-0.465-0.615c-0.112-0.238-0.168-0.499-0.168-0.783c0-0.341,0.063-0.643,0.189-0.907
			c0.126-0.264,0.315-0.488,0.567-0.672c0.252-0.185,0.565-0.324,0.939-0.421c0.375-0.096,0.81-0.144,1.306-0.144h0.774V6.179
			c0-0.301-0.077-0.541-0.231-0.721c-0.154-0.181-0.397-0.271-0.729-0.271c-0.292,0-0.521,0.07-0.688,0.21
			c-0.167,0.141-0.25,0.333-0.25,0.576h-1.735c0-0.279,0.065-0.546,0.195-0.798c0.13-0.253,0.315-0.473,0.556-0.661
			c0.24-0.188,0.53-0.337,0.871-0.447c0.34-0.109,0.72-0.165,1.141-0.165c0.376,0,0.725,0.048,1.045,0.145
			c0.32,0.096,0.596,0.239,0.829,0.429c0.232,0.19,0.413,0.429,0.543,0.715c0.13,0.286,0.195,0.619,0.195,1v2.75
			c0,0.185,0.006,0.35,0.018,0.495c0.012,0.146,0.028,0.278,0.048,0.396s0.046,0.225,0.078,0.318
			c0.032,0.094,0.07,0.183,0.114,0.267v0.103H28.896z M27.461,9.313c0.148,0,0.285-0.018,0.412-0.054
			c0.126-0.036,0.239-0.083,0.339-0.142c0.1-0.058,0.188-0.125,0.261-0.201c0.074-0.076,0.133-0.153,0.177-0.233V7.565h-0.714
			c-0.228,0-0.426,0.025-0.595,0.075c-0.168,0.05-0.306,0.12-0.414,0.21s-0.188,0.196-0.24,0.318
			c-0.052,0.122-0.078,0.255-0.078,0.399c0,0.216,0.076,0.394,0.228,0.534C26.989,9.242,27.197,9.313,27.461,9.313z"/>
		<path fill="#1A1A1A" d="M31.712,2.342c0-0.261,0.087-0.475,0.261-0.643c0.174-0.168,0.412-0.253,0.712-0.253
			c0.148,0,0.282,0.022,0.402,0.066c0.12,0.044,0.222,0.106,0.307,0.187c0.084,0.08,0.149,0.175,0.195,0.285
			s0.069,0.229,0.069,0.357c0,0.132-0.023,0.253-0.069,0.363c-0.046,0.109-0.111,0.205-0.195,0.285
			c-0.084,0.08-0.187,0.142-0.307,0.186c-0.12,0.044-0.254,0.066-0.402,0.066c-0.148,0-0.282-0.022-0.402-0.066
			S32.061,3.07,31.976,2.99c-0.084-0.08-0.149-0.176-0.195-0.285C31.735,2.595,31.712,2.474,31.712,2.342z M33.556,10.52h-1.742
			V4.022h1.742V10.52z"/>
		<path fill="#1A1A1A" d="M36.582,4.022l0.054,0.751c0.224-0.28,0.494-0.496,0.811-0.646c0.316-0.15,0.668-0.226,1.057-0.226
			c0.308,0,0.588,0.043,0.841,0.129c0.252,0.087,0.468,0.228,0.648,0.424s0.319,0.452,0.417,0.769
			c0.098,0.316,0.147,0.704,0.147,1.165v4.131h-1.735V6.376c0-0.208-0.023-0.38-0.069-0.516c-0.046-0.137-0.113-0.244-0.201-0.324
			c-0.088-0.08-0.196-0.138-0.324-0.172c-0.128-0.033-0.276-0.051-0.444-0.051c-0.256,0-0.476,0.057-0.658,0.168
			c-0.182,0.112-0.329,0.265-0.441,0.457v4.581h-1.735V4.022H36.582z"/>
		<path fill="#1A1A1A" d="M44.862,10.64c-0.504,0-0.956-0.082-1.354-0.246s-0.737-0.389-1.015-0.673
			c-0.278-0.284-0.491-0.617-0.637-1c-0.146-0.382-0.219-0.791-0.219-1.228V7.259c0-0.492,0.071-0.943,0.213-1.354
			s0.344-0.764,0.606-1.06c0.262-0.297,0.581-0.527,0.955-0.694c0.375-0.166,0.793-0.249,1.258-0.249
			c0.468,0,0.88,0.077,1.237,0.231c0.356,0.154,0.655,0.37,0.897,0.648s0.424,0.613,0.546,1.006s0.183,0.828,0.183,1.309v0.739
			h-4.137c0.028,0.212,0.085,0.404,0.171,0.576s0.196,0.319,0.33,0.441c0.134,0.122,0.292,0.217,0.472,0.285
			s0.382,0.102,0.606,0.102c0.316,0,0.608-0.059,0.876-0.177s0.499-0.301,0.69-0.55l0.853,0.955
			c-0.104,0.148-0.234,0.292-0.39,0.433c-0.156,0.14-0.34,0.265-0.552,0.375c-0.212,0.11-0.452,0.198-0.718,0.265
			C45.469,10.606,45.178,10.64,44.862,10.64z M44.664,5.308c-0.188,0-0.353,0.033-0.495,0.099c-0.142,0.066-0.264,0.158-0.366,0.276
			s-0.186,0.26-0.25,0.424s-0.11,0.346-0.138,0.546h2.414V6.515c-0.004-0.172-0.029-0.332-0.075-0.48s-0.116-0.276-0.21-0.385
			c-0.094-0.107-0.214-0.191-0.36-0.252C45.037,5.338,44.864,5.308,44.664,5.308z"/>
		<path fill="#1A1A1A" d="M52.169,5.649c-0.088-0.012-0.191-0.022-0.31-0.032c-0.118-0.011-0.223-0.016-0.315-0.016
			c-0.34,0-0.616,0.058-0.826,0.172c-0.21,0.113-0.365,0.278-0.465,0.495v4.251h-1.735V4.022h1.639l0.048,0.774
			c0.164-0.28,0.366-0.499,0.606-0.657c0.24-0.158,0.52-0.237,0.84-0.237c0.092,0,0.189,0.008,0.292,0.024
			c0.102,0.016,0.185,0.034,0.249,0.054L52.169,5.649z"/>
		<path fill="#1A1A1A" d="M56.522,8.725c0-0.093-0.018-0.177-0.054-0.253c-0.036-0.076-0.104-0.146-0.205-0.213
			s-0.236-0.129-0.408-0.189c-0.172-0.06-0.394-0.118-0.667-0.174c-0.332-0.072-0.639-0.162-0.921-0.271
			c-0.282-0.107-0.527-0.242-0.733-0.402c-0.206-0.159-0.367-0.346-0.483-0.558c-0.116-0.213-0.174-0.459-0.174-0.739
			c0-0.271,0.059-0.53,0.177-0.774c0.118-0.244,0.288-0.459,0.51-0.646c0.222-0.186,0.494-0.333,0.816-0.441
			c0.322-0.107,0.686-0.162,1.09-0.162c0.42,0,0.799,0.053,1.135,0.156c0.336,0.104,0.622,0.249,0.856,0.436
			c0.234,0.186,0.414,0.407,0.54,0.663c0.126,0.257,0.189,0.537,0.189,0.841h-1.735c0-0.248-0.08-0.453-0.24-0.615
			s-0.41-0.243-0.75-0.243c-0.292,0-0.519,0.065-0.679,0.198c-0.16,0.132-0.24,0.3-0.24,0.504c0,0.097,0.021,0.182,0.063,0.256
			c0.042,0.073,0.11,0.142,0.204,0.204c0.094,0.062,0.218,0.119,0.372,0.171s0.343,0.1,0.567,0.144
			c0.352,0.068,0.679,0.152,0.979,0.253c0.3,0.1,0.559,0.229,0.777,0.387s0.389,0.351,0.514,0.576c0.124,0.227,0.186,0.5,0.186,0.82
			c0,0.288-0.064,0.554-0.192,0.795c-0.128,0.243-0.311,0.452-0.549,0.628s-0.525,0.314-0.862,0.414
			c-0.336,0.101-0.712,0.15-1.129,0.15c-0.456,0-0.858-0.064-1.207-0.192c-0.349-0.128-0.642-0.296-0.88-0.504
			s-0.417-0.442-0.537-0.703c-0.12-0.26-0.18-0.522-0.18-0.786h1.645c0.008,0.168,0.045,0.313,0.111,0.436
			c0.066,0.122,0.153,0.221,0.261,0.297c0.108,0.076,0.233,0.132,0.375,0.168s0.292,0.055,0.447,0.055
			c0.333,0,0.583-0.063,0.754-0.189C56.438,9.094,56.522,8.929,56.522,8.725z"/>
	</g>
	<g>
		<path d="M33.763,79.624c-2.973,0-5.961-0.021-8.935,0.006c-0.527,0.008-0.797-0.089-0.714-0.68
			c0.049-0.346,0.028-0.706,0.007-1.053c-0.063-0.888,0.083-1.607,0.749-2.356c1.282-1.442,1.074-3.598-0.305-4.971
			c-0.333-0.333-0.458-0.65-0.451-1.108c0.028-2.628,0.028-5.254,0.035-7.882c0-0.375,0.069-0.79-0.382-0.963
			c-0.408-0.16-0.645,0.159-0.901,0.401c-1.407,1.345-2.807,2.704-4.235,4.027c-0.395,0.361-0.326,0.568,0.021,0.881
			c1.643,1.546,3.266,3.098,4.901,4.644c1.518,1.428,1.677,3.577,0.367,4.95c-1.393,1.455-3.466,1.441-5.019-0.014
			c-1.989-1.865-4.007-3.702-5.968-5.595c-1.747-1.677-2.696-3.646-2.003-6.141c0.235-0.861,0.846-1.47,1.414-2.094
			c2.44-2.683,4.887-5.358,7.369-8c1.699-1.802,3.896-2.558,6.301-2.808c0.347-0.034,0.485,0.139,0.61,0.416
			c1.975,4.374,3.951,8.748,5.933,13.115c0.153,0.34,0.173,0.506-0.243,0.638c-0.52,0.181-1.317,0.062-1.49,0.638
			c-0.139,0.451,0.188,1.055,0.326,1.581c0.381,1.372,0.776,2.738,1.137,4.116c0.146,0.556,0.388,0.742,0.957,0.549
			c0.784-0.264,1.581-0.5,2.385-0.666c0.679-0.139,0.756-0.437,0.562-1.054c-0.458-1.504-0.839-3.036-1.282-4.548
			c-0.118-0.408-0.097-0.763,0.097-1.144c2.073-4.359,4.132-8.72,6.177-13.087c0.201-0.409,0.423-0.533,0.867-0.484
			c2.398,0.242,4.415,1.288,6.044,3.008c2.6,2.745,5.115,5.566,7.66,8.354c1.171,1.288,1.344,2.799,0.901,4.415
			c-0.333,1.241-1.033,2.273-1.962,3.147c-2.044,1.906-4.083,3.833-6.141,5.739c-1.511,1.4-3.598,1.331-4.949-0.14
			c-1.242-1.344-1.124-3.416,0.298-4.775c1.643-1.588,3.292-3.153,4.956-4.699c0.388-0.36,0.479-0.582,0.028-0.991
			c-1.421-1.304-2.786-2.656-4.187-3.986c-0.25-0.235-0.486-0.555-0.901-0.395c-0.444,0.173-0.389,0.588-0.389,0.963
			c0.007,2.628,0,5.254,0.028,7.882c0,0.45-0.111,0.783-0.444,1.122c-1.532,1.567-1.497,3.896,0.076,5.435
			c0.256,0.257,0.375,0.493,0.36,0.847c-0.021,0.699-0.035,1.4,0.007,2.101c0.035,0.526-0.132,0.672-0.666,0.664
			C39.767,79.604,36.765,79.624,33.763,79.624z"/>
		<path d="M34.409,32.431c4.242,0.008,7.646,3.411,7.618,7.626c-0.028,4.214-3.445,7.598-7.681,7.584
			c-4.214-0.015-7.618-3.432-7.611-7.646C26.749,35.772,30.146,32.425,34.409,32.431z"/>
		<path d="M39.434,50.898c-1.837,3.951-3.674,7.896-5.573,11.992c-0.34-0.749-0.624-1.366-0.901-1.989
			c-1.399-3.128-2.786-6.247-4.193-9.366c-0.243-0.526-0.284-0.741,0.437-0.728c3.154,0.028,6.294-0.007,9.441-0.014
			C38.887,50.794,39.136,50.725,39.434,50.898z"/>
		<path d="M34.388,64.776c-0.028,0.436-0.256,0.657-0.625,0.665c-0.415,0-0.65-0.25-0.644-0.659
			c0.013-0.374,0.229-0.609,0.609-0.609C34.152,64.166,34.36,64.416,34.388,64.776z"/>
	</g>
</g>
</svg>
