<?xml version="1.0" encoding="utf-8"?>
<!-- Generator: Adobe Illustrator 16.0.0, SVG Export Plug-In . SVG Version: 6.00 Build 0)  -->
<!DOCTYPE svg PUBLIC "-//W3C//DTD SVG 1.1//EN" "http://www.w3.org/Graphics/SVG/1.1/DTD/svg11.dtd">
<svg version="1.1" id="Layer_1" xmlns="http://www.w3.org/2000/svg" xmlns:xlink="http://www.w3.org/1999/xlink" x="0px" y="0px"
	 width="66.871px" height="88.687px" viewBox="0 0 66.871 88.687" enable-background="new 0 0 66.871 88.687" xml:space="preserve">
<g>
	<g>
		<path fill-rule="evenodd" clip-rule="evenodd" fill="#FFFFFF" d="M65.871,77.687c0,5.5-4.5,10-10,10H11c-5.5,0-10-4.5-10-10
			V32.815c0-5.5,4.5-10,10-10h44.871c5.5,0,10,4.5,10,10V77.687z"/>
		<path fill="none" stroke="#000000" stroke-width="2" stroke-miterlimit="10" d="M65.871,77.687c0,5.5-4.5,10-10,10H11
			c-5.5,0-10-4.5-10-10V32.815c0-5.5,4.5-10,10-10h44.871c5.5,0,10,4.5,10,10V77.687z"/>
	</g>
	<g>
		<path fill="#1A1A1A" d="M30.175,9.416c-0.104,0.124-0.246,0.257-0.426,0.399c-0.18,0.142-0.406,0.273-0.679,0.396
			c-0.272,0.122-0.593,0.225-0.963,0.307c-0.371,0.082-0.796,0.123-1.276,0.123c-0.564,0-1.08-0.093-1.546-0.279
			s-0.866-0.459-1.198-0.819c-0.333-0.36-0.59-0.803-0.772-1.327s-0.273-1.125-0.273-1.802V5.897c0-0.677,0.087-1.278,0.261-1.805
			c0.174-0.526,0.42-0.97,0.738-1.33c0.318-0.36,0.704-0.635,1.156-0.822c0.452-0.188,0.955-0.283,1.507-0.283
			c0.568,0,1.06,0.072,1.474,0.214c0.415,0.142,0.761,0.341,1.039,0.597c0.278,0.257,0.495,0.563,0.651,0.919
			c0.156,0.356,0.258,0.747,0.306,1.171h-1.753c-0.036-0.22-0.092-0.419-0.168-0.597c-0.076-0.179-0.18-0.331-0.312-0.457
			c-0.132-0.126-0.295-0.223-0.49-0.291c-0.194-0.068-0.425-0.102-0.693-0.102c-0.617,0-1.085,0.232-1.405,0.699
			c-0.32,0.466-0.48,1.158-0.48,2.074v0.528c0,0.917,0.174,1.609,0.522,2.078c0.349,0.468,0.859,0.702,1.531,0.702
			c0.216,0,0.404-0.014,0.564-0.042s0.297-0.063,0.412-0.104c0.114-0.043,0.209-0.089,0.285-0.139
			c0.076-0.05,0.138-0.099,0.186-0.147V7.254h-1.639V5.927h3.44V9.416z"/>
		<path fill="#1A1A1A" d="M33.946,8.064l1.201-4.041h1.861l-2.6,7.47c-0.06,0.164-0.137,0.343-0.231,0.534
			c-0.094,0.192-0.222,0.371-0.381,0.538c-0.16,0.166-0.358,0.304-0.595,0.414s-0.526,0.165-0.871,0.165
			c-0.08,0-0.152-0.003-0.216-0.009s-0.126-0.014-0.186-0.021s-0.119-0.019-0.177-0.033c-0.058-0.014-0.121-0.03-0.189-0.051v-1.314
			c0.044,0,0.089,0.001,0.135,0.003c0.046,0.002,0.089,0.003,0.129,0.003c0.172,0,0.319-0.014,0.441-0.039
			c0.122-0.026,0.227-0.068,0.315-0.126c0.088-0.059,0.162-0.132,0.222-0.22s0.112-0.192,0.156-0.313l0.187-0.486l-2.276-6.515
			h1.867L33.946,8.064z"/>
		<path fill="#1A1A1A" d="M39.32,4.023l0.054,0.727c0.216-0.264,0.479-0.472,0.79-0.621c0.311-0.15,0.669-0.226,1.078-0.226
			c0.388,0,0.731,0.078,1.03,0.234c0.298,0.156,0.529,0.408,0.693,0.757c0.212-0.309,0.479-0.551,0.802-0.727
			c0.322-0.177,0.706-0.265,1.15-0.265c0.316,0,0.603,0.044,0.861,0.132c0.258,0.089,0.479,0.23,0.661,0.427s0.322,0.451,0.42,0.766
			s0.147,0.699,0.147,1.156v4.137h-1.741V6.384c0-0.217-0.023-0.395-0.069-0.535C45.149,5.709,45.084,5.6,45,5.521
			s-0.186-0.132-0.306-0.162c-0.12-0.029-0.256-0.045-0.409-0.045c-0.268,0-0.492,0.067-0.672,0.201s-0.316,0.315-0.408,0.544
			c0,0.02,0.001,0.042,0.003,0.065c0.002,0.024,0.003,0.046,0.003,0.066v4.329h-1.735V6.396c0-0.216-0.022-0.395-0.066-0.534
			c-0.044-0.141-0.108-0.25-0.192-0.331c-0.084-0.079-0.187-0.136-0.309-0.168c-0.122-0.031-0.259-0.048-0.411-0.048
			c-0.256,0-0.473,0.054-0.648,0.162c-0.176,0.108-0.316,0.259-0.42,0.45v4.594h-1.735V4.023H39.32z"/>
	</g>
	<g>
		<path fill-rule="evenodd" clip-rule="evenodd" d="M50.531,54.661c-0.175,0-0.305,0-0.436,0c-2.571,0-5.143,0.002-7.715-0.001
			c-0.626,0-1.084-0.378-1.159-0.938c-0.096-0.713,0.402-1.278,1.148-1.28c1.532-0.007,3.063-0.003,4.597-0.003
			c0.995,0,1.991,0.003,2.987-0.001c0.373,0,0.592-0.176,0.594-0.461s-0.223-0.468-0.592-0.469
			c-1.378-0.003-2.757-0.001-4.136-0.001c-0.118,0-0.236,0-0.38,0c0-0.627-0.04-1.229,0.021-1.821
			c0.022-0.216,0.243-0.482,0.445-0.602c2.897-1.695,5.806-3.371,8.716-5.046c0.499-0.287,1.01-0.147,1.299,0.347
			c0.68,1.161,1.353,2.325,2.018,3.495c0.283,0.497,0.14,1.005-0.357,1.296c-0.792,0.466-1.587,0.925-2.388,1.377
			c-0.172,0.097-0.246,0.204-0.246,0.409c0.005,6.729,0.005,13.459,0.005,20.189c0,0.076,0.009,0.151,0.015,0.26
			c0.117,0.017,0.233,0.035,0.349,0.048c1.537,0.172,2.676,1.469,2.661,3.035c-0.015,1.55-1.202,2.83-2.744,2.957
			c-0.142,0.011-0.284,0.016-0.427,0.016c-14.762,0-29.523-0.001-44.285,0.004c-1.314,0-2.323-0.512-2.913-1.697
			c-0.977-1.961,0.397-4.231,2.599-4.334c0.208-0.01,0.417-0.006,0.624-0.006c13.066,0,26.132,0,39.197,0c0.161,0,0.321,0,0.501,0
			C50.531,65.828,50.531,60.266,50.531,54.661z"/>
		<path fill-rule="evenodd" clip-rule="evenodd" d="M32.576,56.449c-1.313-0.367-2.585-0.723-3.858-1.078
			c-0.969-0.271-1.939-0.534-2.905-0.812c-1.731-0.497-2.461-1.846-1.934-3.574c0.076-0.25,0.177-0.495,0.295-0.728
			c1.097-2.165,2.2-4.327,3.302-6.489c0.05-0.098,0.095-0.195,0.168-0.349c-0.464-0.064-0.899-0.129-1.335-0.187
			c-1.127-0.148-2.254-0.304-3.384-0.438c-0.194-0.022-0.418,0.004-0.596,0.082c-1.645,0.715-3.276,1.458-4.924,2.162
			c-0.341,0.146-0.736,0.222-1.106,0.225c-0.52,0.004-0.909-0.291-1.135-0.763c-0.232-0.485-0.194-0.976,0.138-1.392
			c0.191-0.24,0.447-0.457,0.719-0.603c1.887-1.015,3.775-2.028,5.688-2.991c0.398-0.201,0.91-0.282,1.359-0.254
			c2.938,0.182,5.872,0.391,8.805,0.632c1.333,0.108,2.45,0.708,3.294,1.758c0.922,1.146,0.974,2.57,0.103,3.837
			c-0.457,0.665-1.001,1.271-1.514,1.896c-0.915,1.117-1.837,2.229-2.755,3.343c-0.048,0.059-0.091,0.119-0.166,0.215
			c0.16,0.062,0.295,0.115,0.433,0.165c1.695,0.615,3.392,1.227,5.085,1.846c0.911,0.333,1.49,0.948,1.55,1.952
			c0.038,0.634-0.157,1.212-0.537,1.719c-2.146,2.863-4.293,5.722-6.442,8.582c-0.348,0.464-0.793,0.787-1.38,0.863
			c-1.268,0.166-2.211-0.989-1.805-2.223c0.094-0.286,0.252-0.56,0.42-0.812c1.392-2.083,2.792-4.158,4.19-6.237
			C32.418,56.7,32.481,56.599,32.576,56.449z"/>
		<path fill-rule="evenodd" clip-rule="evenodd" d="M22.995,53.677c0.474,0.975,1.244,1.461,2.195,1.718
			c0.717,0.191,1.429,0.399,2.177,0.609c-0.177,0.452-0.347,0.887-0.517,1.32c-0.548,1.405-1.11,2.806-1.64,4.216
			c-0.252,0.671-0.622,1.223-1.164,1.708c-1.623,1.449-3.207,2.943-4.805,4.422c-0.86,0.793-1.72,1.588-2.578,2.382
			c-0.422,0.392-0.902,0.66-1.49,0.674c-1.239,0.028-2.067-1.213-1.555-2.358c0.135-0.302,0.351-0.584,0.582-0.823
			c2.127-2.202,4.269-4.393,6.399-6.593c0.146-0.15,0.268-0.35,0.33-0.547c0.656-2.121,1.297-4.245,1.942-6.366
			C22.902,53.935,22.94,53.833,22.995,53.677z"/>
		<path fill-rule="evenodd" clip-rule="evenodd" d="M36.953,40.363c-2.132-0.007-3.854-1.746-3.848-3.881
			c0.007-2.128,1.751-3.859,3.88-3.851c2.157,0.008,3.866,1.737,3.855,3.9C40.83,38.669,39.103,40.371,36.953,40.363z"/>
		<path fill-rule="evenodd" clip-rule="evenodd" d="M35.286,46.947c0.965-1.083,1.651-2.258,1.475-3.846
			c1.052,1.019,2.044,1.98,3.048,2.952c1.004-0.607,1.994-1.207,2.983-1.806c0.467-0.282,0.92-0.594,1.407-0.837
			c0.313-0.156,0.675-0.289,1.018-0.298c1.045-0.025,1.705,1.063,1.208,1.983c-0.149,0.277-0.392,0.533-0.65,0.718
			c-1.76,1.26-3.536,2.496-5.305,3.74c-0.506,0.355-1.053,0.402-1.622,0.196c-0.193-0.069-0.392-0.159-0.548-0.288
			C37.296,48.638,36.304,47.8,35.286,46.947z"/>
	</g>
</g>
</svg>
