<?xml version="1.0" encoding="utf-8"?>
<!-- Generator: Adobe Illustrator 16.0.0, SVG Export Plug-In . SVG Version: 6.00 Build 0)  -->
<!DOCTYPE svg PUBLIC "-//W3C//DTD SVG 1.1//EN" "http://www.w3.org/Graphics/SVG/1.1/DTD/svg11.dtd">
<svg version="1.1" id="Layer_1" xmlns="http://www.w3.org/2000/svg" xmlns:xlink="http://www.w3.org/1999/xlink" x="0px" y="0px"
	 width="66.871px" height="88.686px" viewBox="0 0 66.871 88.686" enable-background="new 0 0 66.871 88.686" xml:space="preserve">
<g>
	<g>
		<path fill-rule="evenodd" clip-rule="evenodd" fill="#FFFFFF" d="M65.871,77.686c0,5.5-4.5,10-10,10H11c-5.5,0-10-4.5-10-10
			V32.814c0-5.5,4.5-10,10-10h44.871c5.5,0,10,4.5,10,10V77.686z"/>
		<path fill="none" stroke="#000000" stroke-width="2" stroke-miterlimit="10" d="M65.871,77.686c0,5.5-4.5,10-10,10H11
			c-5.5,0-10-4.5-10-10V32.814c0-5.5,4.5-10,10-10h44.871c5.5,0,10,4.5,10,10V77.686z"/>
	</g>
	<g>
		<path fill="#1A1A1A" d="M8.946,1.777h1.801v6.052c0,0.437-0.074,0.829-0.222,1.178C10.377,9.354,10.172,9.65,9.91,9.892
			c-0.262,0.243-0.573,0.428-0.931,0.556c-0.358,0.128-0.746,0.192-1.162,0.192c-0.428,0-0.822-0.054-1.18-0.162
			c-0.358-0.108-0.667-0.273-0.928-0.495C5.449,9.76,5.246,9.479,5.1,9.142C4.954,8.804,4.881,8.402,4.881,7.938h1.813
			c0,0.236,0.026,0.435,0.078,0.595c0.052,0.16,0.127,0.289,0.225,0.387C7.095,9.018,7.213,9.088,7.352,9.13
			s0.293,0.063,0.465,0.063c0.344,0,0.619-0.118,0.823-0.354c0.204-0.235,0.306-0.572,0.306-1.009V1.777z"/>
		<path fill="#1A1A1A" d="M15.941,10.52c-0.08-0.156-0.138-0.351-0.174-0.582c-0.176,0.195-0.397,0.362-0.664,0.498
			s-0.591,0.204-0.976,0.204c-0.313,0-0.604-0.048-0.874-0.145c-0.27-0.096-0.504-0.229-0.702-0.402
			c-0.198-0.172-0.354-0.377-0.465-0.615c-0.112-0.238-0.168-0.499-0.168-0.783c0-0.341,0.063-0.643,0.189-0.907
			c0.126-0.264,0.315-0.488,0.567-0.672c0.252-0.185,0.565-0.324,0.939-0.421c0.375-0.096,0.81-0.144,1.306-0.144h0.774V6.179
			c0-0.301-0.077-0.541-0.231-0.721c-0.154-0.181-0.397-0.271-0.729-0.271c-0.292,0-0.521,0.07-0.688,0.21
			c-0.167,0.141-0.25,0.333-0.25,0.576h-1.735c0-0.279,0.065-0.546,0.195-0.798c0.13-0.253,0.315-0.473,0.556-0.661
			c0.24-0.188,0.53-0.337,0.871-0.447c0.34-0.109,0.72-0.165,1.141-0.165c0.376,0,0.725,0.048,1.045,0.145
			c0.32,0.096,0.596,0.239,0.829,0.429c0.232,0.19,0.413,0.429,0.543,0.715c0.13,0.286,0.195,0.619,0.195,1v2.75
			c0,0.185,0.006,0.35,0.018,0.495c0.012,0.146,0.028,0.278,0.048,0.396s0.046,0.225,0.078,0.318
			c0.032,0.094,0.07,0.183,0.114,0.267v0.103H15.941z M14.506,9.313c0.148,0,0.285-0.018,0.412-0.054
			c0.126-0.036,0.239-0.083,0.339-0.142c0.1-0.058,0.188-0.125,0.261-0.201c0.074-0.076,0.133-0.153,0.177-0.233V7.565H14.98
			c-0.228,0-0.426,0.025-0.595,0.075c-0.168,0.05-0.306,0.12-0.414,0.21s-0.188,0.196-0.24,0.318
			c-0.052,0.122-0.078,0.255-0.078,0.399c0,0.216,0.076,0.394,0.228,0.534C14.034,9.242,14.242,9.313,14.506,9.313z"/>
		<path fill="#1A1A1A" d="M20.763,9.12h3.176v1.399h-5.392V9.463l3.056-4.035h-2.966V4.022h5.206V5.05L20.763,9.12z"/>
		<path fill="#1A1A1A" d="M27.02,9.12h3.176v1.399h-5.392V9.463l3.056-4.035h-2.966V4.022H30.1V5.05L27.02,9.12z"/>
		<path fill="#1A1A1A" d="M34.273,10.64c-0.504,0-0.956-0.082-1.354-0.246s-0.737-0.389-1.015-0.673
			c-0.278-0.284-0.491-0.617-0.637-1c-0.146-0.382-0.219-0.791-0.219-1.228V7.259c0-0.492,0.071-0.943,0.213-1.354
			s0.344-0.764,0.606-1.06c0.262-0.297,0.581-0.527,0.955-0.694c0.375-0.166,0.793-0.249,1.258-0.249
			c0.468,0,0.88,0.077,1.237,0.231c0.356,0.154,0.655,0.37,0.897,0.648s0.424,0.613,0.546,1.006s0.183,0.828,0.183,1.309v0.739
			h-4.137c0.028,0.212,0.085,0.404,0.171,0.576s0.196,0.319,0.33,0.441c0.134,0.122,0.292,0.217,0.472,0.285
			s0.382,0.102,0.606,0.102c0.316,0,0.608-0.059,0.876-0.177s0.499-0.301,0.69-0.55l0.853,0.955
			c-0.104,0.148-0.234,0.292-0.39,0.433c-0.156,0.14-0.34,0.265-0.552,0.375c-0.212,0.11-0.452,0.198-0.718,0.265
			C34.88,10.606,34.589,10.64,34.273,10.64z M34.075,5.308c-0.188,0-0.353,0.033-0.495,0.099c-0.142,0.066-0.264,0.158-0.366,0.276
			s-0.186,0.26-0.25,0.424s-0.11,0.346-0.138,0.546h2.414V6.515c-0.004-0.172-0.029-0.332-0.075-0.48s-0.116-0.276-0.21-0.385
			c-0.094-0.107-0.214-0.191-0.36-0.252C34.448,5.338,34.275,5.308,34.075,5.308z"/>
		<path fill="#1A1A1A" d="M41.581,5.649c-0.088-0.012-0.191-0.022-0.31-0.032c-0.118-0.011-0.223-0.016-0.315-0.016
			c-0.34,0-0.616,0.058-0.826,0.172c-0.21,0.113-0.365,0.278-0.465,0.495v4.251H37.93V4.022h1.639l0.048,0.774
			c0.164-0.28,0.366-0.499,0.606-0.657c0.24-0.158,0.52-0.237,0.84-0.237c0.092,0,0.189,0.008,0.292,0.024
			c0.102,0.016,0.185,0.034,0.249,0.054L41.581,5.649z"/>
		<path fill="#1A1A1A" d="M45.117,9.24c0.16,0,0.306-0.022,0.438-0.068c0.132-0.046,0.247-0.111,0.342-0.195
			c0.096-0.084,0.171-0.186,0.226-0.304c0.054-0.118,0.083-0.251,0.087-0.399h1.627c-0.004,0.345-0.076,0.662-0.216,0.952
			s-0.331,0.54-0.571,0.751c-0.24,0.21-0.523,0.373-0.85,0.489c-0.326,0.116-0.677,0.174-1.054,0.174
			c-0.504,0-0.945-0.085-1.321-0.255c-0.376-0.171-0.688-0.402-0.937-0.697c-0.248-0.294-0.434-0.64-0.558-1.038
			s-0.186-0.828-0.186-1.288V7.193c0-0.461,0.062-0.891,0.186-1.291s0.31-0.749,0.558-1.045c0.249-0.296,0.56-0.529,0.934-0.699
			c0.374-0.171,0.812-0.256,1.312-0.256c0.4,0,0.766,0.06,1.096,0.178s0.613,0.287,0.85,0.507c0.236,0.221,0.42,0.487,0.552,0.802
			c0.132,0.314,0.2,0.666,0.204,1.054H46.21c-0.004-0.156-0.031-0.303-0.081-0.441c-0.05-0.138-0.121-0.258-0.213-0.36
			c-0.092-0.102-0.206-0.183-0.342-0.243c-0.136-0.06-0.292-0.09-0.468-0.09c-0.252,0-0.458,0.052-0.618,0.156
			c-0.16,0.104-0.286,0.243-0.375,0.417s-0.151,0.375-0.183,0.604c-0.032,0.229-0.048,0.465-0.048,0.709v0.168
			c0,0.248,0.016,0.486,0.048,0.715c0.032,0.228,0.093,0.428,0.183,0.6c0.09,0.173,0.215,0.31,0.375,0.412
			C44.646,9.189,44.857,9.24,45.117,9.24z"/>
		<path fill="#1A1A1A" d="M48.815,2.342c0-0.261,0.087-0.475,0.261-0.643c0.174-0.168,0.412-0.253,0.712-0.253
			c0.148,0,0.282,0.022,0.402,0.066c0.12,0.044,0.222,0.106,0.307,0.187c0.084,0.08,0.149,0.175,0.195,0.285
			s0.069,0.229,0.069,0.357c0,0.132-0.023,0.253-0.069,0.363c-0.046,0.109-0.111,0.205-0.195,0.285
			c-0.084,0.08-0.187,0.142-0.307,0.186c-0.12,0.044-0.254,0.066-0.402,0.066c-0.148,0-0.282-0.022-0.402-0.066
			S49.164,3.07,49.08,2.99c-0.084-0.08-0.149-0.176-0.195-0.285C48.838,2.595,48.815,2.474,48.815,2.342z M50.659,10.52h-1.742
			V4.022h1.742V10.52z"/>
		<path fill="#1A1A1A" d="M55.607,8.725c0-0.093-0.018-0.177-0.054-0.253c-0.036-0.076-0.104-0.146-0.205-0.213
			S55.113,8.13,54.94,8.069c-0.172-0.06-0.394-0.118-0.667-0.174c-0.332-0.072-0.639-0.162-0.921-0.271
			c-0.282-0.107-0.527-0.242-0.733-0.402c-0.206-0.159-0.367-0.346-0.483-0.558c-0.116-0.213-0.174-0.459-0.174-0.739
			c0-0.271,0.059-0.53,0.177-0.774c0.118-0.244,0.288-0.459,0.51-0.646c0.222-0.186,0.494-0.333,0.816-0.441
			c0.322-0.107,0.686-0.162,1.09-0.162c0.42,0,0.799,0.053,1.135,0.156c0.336,0.104,0.622,0.249,0.856,0.436
			c0.234,0.186,0.414,0.407,0.54,0.663c0.126,0.257,0.189,0.537,0.189,0.841h-1.735c0-0.248-0.08-0.453-0.24-0.615
			s-0.41-0.243-0.75-0.243c-0.292,0-0.519,0.065-0.679,0.198c-0.16,0.132-0.24,0.3-0.24,0.504c0,0.097,0.021,0.182,0.063,0.256
			c0.042,0.073,0.11,0.142,0.204,0.204c0.094,0.062,0.218,0.119,0.372,0.171s0.343,0.1,0.567,0.144
			c0.352,0.068,0.679,0.152,0.979,0.253c0.3,0.1,0.559,0.229,0.777,0.387s0.389,0.351,0.514,0.576c0.124,0.227,0.186,0.5,0.186,0.82
			c0,0.288-0.064,0.554-0.192,0.795c-0.128,0.243-0.311,0.452-0.549,0.628s-0.525,0.314-0.862,0.414
			c-0.336,0.101-0.712,0.15-1.129,0.15c-0.456,0-0.858-0.064-1.207-0.192c-0.349-0.128-0.642-0.296-0.88-0.504
			s-0.417-0.442-0.537-0.703c-0.12-0.26-0.18-0.522-0.18-0.786h1.645c0.008,0.168,0.045,0.313,0.111,0.436
			c0.066,0.122,0.153,0.221,0.261,0.297c0.108,0.076,0.233,0.132,0.375,0.168s0.292,0.055,0.447,0.055
			c0.333,0,0.583-0.063,0.754-0.189C55.522,9.094,55.607,8.929,55.607,8.725z"/>
		<path fill="#1A1A1A" d="M61.401,10.64c-0.504,0-0.956-0.082-1.354-0.246s-0.737-0.389-1.015-0.673
			c-0.278-0.284-0.491-0.617-0.637-1c-0.146-0.382-0.219-0.791-0.219-1.228V7.259c0-0.492,0.071-0.943,0.213-1.354
			s0.344-0.764,0.606-1.06c0.262-0.297,0.581-0.527,0.955-0.694c0.375-0.166,0.793-0.249,1.258-0.249
			c0.468,0,0.88,0.077,1.237,0.231c0.356,0.154,0.655,0.37,0.897,0.648s0.424,0.613,0.546,1.006s0.183,0.828,0.183,1.309v0.739
			h-4.137c0.028,0.212,0.085,0.404,0.171,0.576s0.196,0.319,0.33,0.441c0.134,0.122,0.292,0.217,0.472,0.285
			s0.382,0.102,0.606,0.102c0.316,0,0.608-0.059,0.876-0.177s0.499-0.301,0.69-0.55l0.853,0.955
			c-0.104,0.148-0.234,0.292-0.39,0.433c-0.156,0.14-0.34,0.265-0.552,0.375c-0.212,0.11-0.452,0.198-0.718,0.265
			C62.009,10.606,61.718,10.64,61.401,10.64z M61.203,5.308c-0.188,0-0.353,0.033-0.495,0.099c-0.142,0.066-0.264,0.158-0.366,0.276
			s-0.186,0.26-0.25,0.424s-0.11,0.346-0.138,0.546h2.414V6.515c-0.004-0.172-0.029-0.332-0.075-0.48s-0.116-0.276-0.21-0.385
			c-0.094-0.107-0.214-0.191-0.36-0.252C61.577,5.338,61.403,5.308,61.203,5.308z"/>
	</g>
	<g>
		<path fill-rule="evenodd" clip-rule="evenodd" d="M20.677,84.869c-0.723-0.521-0.656-1.24-0.468-1.967
			c1.031-3.979,2.07-7.955,3.115-11.93c0.223-0.849,0.451-1.699,0.736-2.527c0.387-1.123,0.979-2.133,1.795-3.014
			c1.896-2.044,3.772-4.106,5.658-6.16c0.845-0.92,0.906-1.328,0.307-2.45c-1.779-3.33-3.564-6.655-5.346-9.983
			c-1.412-2.636-2.811-5.278-4.24-7.905c-0.679-1.247-0.675-2.421,0.066-3.655c1.31-2.179,2.536-4.408,3.841-6.59
			c0.294-0.491,0.769-0.875,1.16-1.309c0.15,0,0.299,0,0.449,0c0.366,0.222,0.736,0.438,1.096,0.669
			c0.829,0.532,0.983,1.14,0.464,1.995c-1.028,1.693-2.049,3.393-3.128,5.055c-0.579,0.892-0.598,1.734-0.082,2.627
			c0.775,1.343,1.551,2.686,2.326,4.028c0.553,0.958,1.424,1.333,2.488,1.336c1.497,0.005,2.994,0.012,4.49-0.002
			c0.861-0.008,1.634-0.308,2.208-0.947c1.362-1.517,2.73-3.031,4.008-4.617c0.517-0.642,0.868-1.44,1.185-2.214
			c0.787-1.917,1.507-3.862,2.26-5.795c0.447-1.149,0.948-1.36,2.084-0.895c0.104,0.042,0.208,0.083,0.311,0.127
			c1.127,0.475,1.473,1.135,1.071,2.314c-0.535,1.572-1.18,3.108-1.715,4.682c-0.718,2.11-1.96,3.891-3.339,5.604
			c-1.125,1.398-2.177,2.857-3.32,4.241c-0.801,0.969-0.86,1.947-0.3,3.011c0.914,1.736,1.828,3.472,2.766,5.194
			c0.768,1.412,1.427,2.89,1.421,4.499c-0.005,1.386-0.185,2.803-0.513,4.15c-1.672,6.859-3.416,13.701-5.135,20.549
			c-0.209,0.833-0.593,1.532-1.438,1.878c-1.086,0-2.171,0-3.257,0c-0.55-0.357-0.643-0.861-0.489-1.461
			c0.344-1.339,0.69-2.676,1.009-4.02c1.246-5.255,2.438-10.52,2.896-15.917c0.02-0.231,0.003-0.466,0.003-0.7
			c-0.071-0.021-0.142-0.042-0.212-0.063c-0.273,0.243-0.557,0.476-0.818,0.731c-1.924,1.883-3.824,3.793-5.772,5.65
			c-1.017,0.97-1.766,2.079-2.125,3.432c-0.896,3.374-1.783,6.75-2.647,10.133c-0.248,0.971-0.685,1.761-1.613,2.215
			C22.848,84.869,21.762,84.869,20.677,84.869z"/>
		<path fill-rule="evenodd" clip-rule="evenodd" d="M28.98,35.708c-0.004-2.775,2.242-5.047,5.011-5.064
			c2.77-0.019,5.09,2.295,5.081,5.064c-0.009,2.764-2.282,5.023-5.054,5.024C31.232,40.733,28.985,38.493,28.98,35.708z"/>
	</g>
</g>
</svg>
