<?xml version="1.0" encoding="utf-8"?>
<!-- Generator: Adobe Illustrator 16.0.0, SVG Export Plug-In . SVG Version: 6.00 Build 0)  -->
<!DOCTYPE svg PUBLIC "-//W3C//DTD SVG 1.1//EN" "http://www.w3.org/Graphics/SVG/1.1/DTD/svg11.dtd">
<svg version="1.1" id="Layer_1" xmlns="http://www.w3.org/2000/svg" xmlns:xlink="http://www.w3.org/1999/xlink" x="0px" y="0px"
	 width="66.871px" height="88.686px" viewBox="0 0 66.871 88.686" enable-background="new 0 0 66.871 88.686" xml:space="preserve">
<g>
	<g>
		<path fill-rule="evenodd" clip-rule="evenodd" fill="#FFFFFF" d="M65.871,77.686c0,5.5-4.5,10-10,10H11c-5.5,0-10-4.5-10-10
			V32.813c0-5.5,4.5-10,10-10h44.871c5.5,0,10,4.5,10,10V77.686z"/>
		<path fill="none" stroke="#000000" stroke-width="2" stroke-miterlimit="10" d="M65.871,77.686c0,5.5-4.5,10-10,10H11
			c-5.5,0-10-4.5-10-10V32.813c0-5.5,4.5-10,10-10h44.871c5.5,0,10,4.5,10,10V77.686z"/>
	</g>
	<g>
		<path fill="#1A1A1A" d="M18.572,7.439v3.08h-1.801V1.777h3.41c0.517,0,0.978,0.071,1.384,0.216s0.75,0.345,1.033,0.604
			c0.282,0.258,0.498,0.564,0.646,0.919c0.148,0.354,0.222,0.739,0.222,1.155c0,0.425-0.074,0.807-0.222,1.147
			c-0.148,0.34-0.363,0.63-0.646,0.87s-0.626,0.426-1.033,0.556s-0.868,0.195-1.384,0.195H18.572z M18.572,5.98h1.609
			c0.256,0,0.478-0.032,0.664-0.097c0.187-0.063,0.338-0.153,0.457-0.267c0.118-0.114,0.205-0.252,0.261-0.412
			c0.056-0.159,0.084-0.334,0.084-0.521c0-0.188-0.028-0.37-0.084-0.544s-0.143-0.328-0.261-0.462
			c-0.118-0.135-0.27-0.241-0.457-0.321c-0.186-0.08-0.407-0.12-0.664-0.12h-1.609V5.98z"/>
		<path fill="#1A1A1A" d="M24.576,2.342c0-0.261,0.087-0.475,0.261-0.643c0.174-0.168,0.412-0.253,0.712-0.253
			c0.148,0,0.282,0.022,0.402,0.066c0.12,0.044,0.222,0.106,0.307,0.187c0.084,0.08,0.149,0.175,0.195,0.285
			s0.069,0.229,0.069,0.357c0,0.132-0.023,0.253-0.069,0.363c-0.046,0.109-0.111,0.205-0.195,0.285
			c-0.084,0.08-0.187,0.142-0.307,0.186c-0.12,0.044-0.254,0.066-0.402,0.066c-0.148,0-0.282-0.022-0.402-0.066
			S24.925,3.07,24.84,2.99c-0.084-0.08-0.149-0.176-0.195-0.285C24.599,2.595,24.576,2.474,24.576,2.342z M26.42,10.52h-1.742V4.022
			h1.742V10.52z"/>
		<path fill="#1A1A1A" d="M29.68,10.52h-1.742V1.297h1.742V10.52z"/>
		<path fill="#1A1A1A" d="M34.874,10.52c-0.08-0.156-0.138-0.351-0.174-0.582c-0.176,0.195-0.397,0.362-0.664,0.498
			s-0.591,0.204-0.976,0.204c-0.313,0-0.604-0.048-0.874-0.145c-0.27-0.096-0.504-0.229-0.702-0.402
			c-0.198-0.172-0.354-0.377-0.465-0.615c-0.112-0.238-0.168-0.499-0.168-0.783c0-0.341,0.063-0.643,0.189-0.907
			c0.126-0.264,0.315-0.488,0.567-0.672c0.252-0.185,0.565-0.324,0.939-0.421c0.375-0.096,0.81-0.144,1.306-0.144h0.774V6.179
			c0-0.301-0.077-0.541-0.231-0.721c-0.154-0.181-0.397-0.271-0.729-0.271c-0.292,0-0.521,0.07-0.688,0.21
			c-0.167,0.141-0.25,0.333-0.25,0.576h-1.735c0-0.279,0.065-0.546,0.195-0.798c0.13-0.253,0.315-0.473,0.556-0.661
			c0.24-0.188,0.53-0.337,0.871-0.447c0.34-0.109,0.72-0.165,1.141-0.165c0.376,0,0.725,0.048,1.045,0.145
			c0.32,0.096,0.596,0.239,0.829,0.429c0.232,0.19,0.413,0.429,0.543,0.715c0.13,0.286,0.195,0.619,0.195,1v2.75
			c0,0.185,0.006,0.35,0.018,0.495c0.012,0.146,0.028,0.278,0.048,0.396s0.046,0.225,0.078,0.318
			c0.032,0.094,0.07,0.183,0.114,0.267v0.103H34.874z M33.438,9.313c0.148,0,0.285-0.018,0.412-0.054
			c0.126-0.036,0.239-0.083,0.339-0.142c0.1-0.058,0.188-0.125,0.261-0.201c0.074-0.076,0.133-0.153,0.177-0.233V7.565h-0.714
			c-0.228,0-0.426,0.025-0.595,0.075c-0.168,0.05-0.306,0.12-0.414,0.21s-0.188,0.196-0.24,0.318
			c-0.052,0.122-0.078,0.255-0.078,0.399c0,0.216,0.076,0.394,0.228,0.534C32.966,9.242,33.174,9.313,33.438,9.313z"/>
		<path fill="#1A1A1A" d="M39.78,2.426v1.597h1.111v1.273H39.78v3.242c0,0.136,0.014,0.248,0.042,0.336
			c0.028,0.088,0.07,0.157,0.126,0.207c0.056,0.051,0.125,0.084,0.207,0.103c0.082,0.018,0.179,0.027,0.292,0.027
			c0.104,0,0.199-0.004,0.285-0.013c0.086-0.008,0.161-0.018,0.225-0.029v1.314c-0.144,0.044-0.301,0.081-0.471,0.111
			c-0.17,0.03-0.363,0.045-0.58,0.045c-0.284,0-0.541-0.035-0.769-0.105c-0.228-0.069-0.423-0.181-0.585-0.333
			s-0.287-0.351-0.375-0.595c-0.088-0.244-0.132-0.538-0.132-0.882V5.296h-0.949V4.022h0.949V2.426H39.78z"/>
		<path fill="#1A1A1A" d="M44.848,10.64c-0.504,0-0.956-0.082-1.354-0.246s-0.737-0.389-1.015-0.673
			c-0.278-0.284-0.491-0.617-0.637-1c-0.146-0.382-0.219-0.791-0.219-1.228V7.259c0-0.492,0.071-0.943,0.213-1.354
			s0.344-0.764,0.606-1.06c0.262-0.297,0.581-0.527,0.955-0.694c0.375-0.166,0.793-0.249,1.258-0.249
			c0.468,0,0.88,0.077,1.237,0.231c0.356,0.154,0.655,0.37,0.897,0.648s0.424,0.613,0.546,1.006s0.183,0.828,0.183,1.309v0.739
			h-4.137c0.028,0.212,0.085,0.404,0.171,0.576s0.196,0.319,0.33,0.441c0.134,0.122,0.292,0.217,0.472,0.285
			s0.382,0.102,0.606,0.102c0.316,0,0.608-0.059,0.876-0.177s0.499-0.301,0.69-0.55l0.853,0.955
			c-0.104,0.148-0.234,0.292-0.39,0.433c-0.156,0.14-0.34,0.265-0.552,0.375c-0.212,0.11-0.452,0.198-0.718,0.265
			C45.455,10.606,45.164,10.64,44.848,10.64z M44.649,5.308c-0.188,0-0.353,0.033-0.495,0.099c-0.142,0.066-0.264,0.158-0.366,0.276
			s-0.186,0.26-0.25,0.424s-0.11,0.346-0.138,0.546h2.414V6.515c-0.004-0.172-0.029-0.332-0.075-0.48s-0.116-0.276-0.21-0.385
			c-0.094-0.107-0.214-0.191-0.36-0.252C45.023,5.338,44.85,5.308,44.649,5.308z"/>
		<path fill="#1A1A1A" d="M52.023,8.725c0-0.093-0.018-0.177-0.054-0.253c-0.036-0.076-0.104-0.146-0.205-0.213
			s-0.236-0.129-0.408-0.189c-0.172-0.06-0.394-0.118-0.667-0.174c-0.332-0.072-0.639-0.162-0.921-0.271
			c-0.282-0.107-0.527-0.242-0.733-0.402c-0.206-0.159-0.367-0.346-0.483-0.558c-0.116-0.213-0.174-0.459-0.174-0.739
			c0-0.271,0.059-0.53,0.177-0.774c0.118-0.244,0.288-0.459,0.51-0.646c0.222-0.186,0.494-0.333,0.816-0.441
			c0.322-0.107,0.686-0.162,1.09-0.162c0.42,0,0.799,0.053,1.135,0.156c0.336,0.104,0.622,0.249,0.856,0.436
			c0.234,0.186,0.414,0.407,0.54,0.663c0.126,0.257,0.189,0.537,0.189,0.841h-1.735c0-0.248-0.08-0.453-0.24-0.615
			s-0.41-0.243-0.75-0.243c-0.292,0-0.519,0.065-0.679,0.198c-0.16,0.132-0.24,0.3-0.24,0.504c0,0.097,0.021,0.182,0.063,0.256
			c0.042,0.073,0.11,0.142,0.204,0.204c0.094,0.062,0.218,0.119,0.372,0.171s0.343,0.1,0.567,0.144
			c0.352,0.068,0.679,0.152,0.979,0.253c0.3,0.1,0.559,0.229,0.777,0.387s0.389,0.351,0.514,0.576c0.124,0.227,0.186,0.5,0.186,0.82
			c0,0.288-0.064,0.554-0.192,0.795c-0.128,0.243-0.311,0.452-0.549,0.628s-0.525,0.314-0.862,0.414
			c-0.336,0.101-0.712,0.15-1.129,0.15c-0.456,0-0.858-0.064-1.207-0.192c-0.349-0.128-0.642-0.296-0.88-0.504
			s-0.417-0.442-0.537-0.703c-0.12-0.26-0.18-0.522-0.18-0.786h1.645c0.008,0.168,0.045,0.313,0.111,0.436
			c0.066,0.122,0.153,0.221,0.261,0.297c0.108,0.076,0.233,0.132,0.375,0.168s0.292,0.055,0.447,0.055
			c0.333,0,0.583-0.063,0.754-0.189C51.938,9.094,52.023,8.929,52.023,8.725z"/>
	</g>
	<g>
		<path fill-rule="evenodd" clip-rule="evenodd" d="M0.98,70.286c-0.454-0.135-0.489-3.014,0-3.013
			c5.988,0.007,9.531,0.002,15.519,0.002c0.08,0,0.16,0,0.282,0c-0.063-0.051-0.094-0.079-0.128-0.102
			c-0.838-0.533-1.274-1.289-1.276-2.29c-0.001-0.41,0.016-0.813,0.165-1.203c0.376-0.997,1.375-1.678,2.42-1.675
			c2.897,0.01,5.794,0.003,8.692,0.003c0.079,0,0.158,0,0.249,0c0-2.761,0-5.5,0-8.266c-0.227-0.024-0.456-0.049-0.686-0.072
			c-1.017-0.105-2.034-0.211-3.052-0.316c-0.972-0.1-1.942-0.197-2.914-0.299c-0.964-0.101-1.928-0.205-2.892-0.305
			c-0.964-0.101-1.929-0.196-2.894-0.296c-0.957-0.101-1.914-0.204-2.872-0.304c-0.706-0.074-1.411-0.142-2.115-0.217
			c-0.711-0.077-1.426-0.132-2.131-0.244c-0.895-0.142-1.711-0.488-2.377-1.122c-0.187-0.177-0.354-0.387-0.483-0.61
			c-0.395-0.682-0.287-1.419,0.26-1.99c0.458-0.478,1.031-0.752,1.659-0.928c0.493-0.139,0.999-0.18,1.509-0.18
			c11.756-0.001,23.513-0.001,35.269-0.001c1.767,0,3.533,0.001,5.3,0c0.556-0.001,1.095,0.086,1.594,0.338
			c1.28,0.65,2.009,1.693,2.015,3.132c0.023,4.878,0.013,9.756,0.006,14.634c-0.001,0.892-0.401,1.591-1.121,2.11
			c-0.081,0.059-0.167,0.109-0.25,0.197c0.067,0.002,0.135,0.005,0.203,0.005c2.034,0,4.068,0,6.103,0c2.95,0,5.902,0,8.852,0
			c0.517,0,0.343,2.988,0.29,3.011 M46.574,54.809c-4.713-0.225-9.409-0.446-14.126-0.67c0,0.111,0,0.197,0,0.282
			c0,3.479,0,6.959,0,10.438c0,1.004-0.428,1.774-1.275,2.313c-0.036,0.022-0.068,0.049-0.124,0.09c5.655,0,11.274,0,16.925,0
			c-0.047-0.036-0.066-0.052-0.086-0.065c-0.891-0.548-1.319-1.341-1.317-2.39c0.008-3.237,0.003-6.477,0.003-9.714
			C46.574,55.006,46.574,54.92,46.574,54.809z"/>
		<path fill-rule="evenodd" clip-rule="evenodd" d="M56.858,47.065c0-0.031,0.004-0.053,0-0.071
			c-0.189-0.76-0.525-1.443-1.058-2.021c-0.471-0.512-1.053-0.782-1.75-0.822c-1.068-0.062-2.135-0.142-3.203-0.208
			c-0.74-0.045-1.482-0.07-2.223-0.116c-0.541-0.035-1.079-0.094-1.596-0.275c-0.931-0.326-1.48-1.058-1.538-2.046
			c-0.018-0.301-0.011-0.599,0.044-0.939c0.046,0.071,0.074,0.11,0.096,0.151c0.199,0.365,0.409,0.721,0.707,1.019
			c0.331,0.331,0.73,0.506,1.188,0.57c0.402,0.056,0.803,0.031,1.2-0.021c0.947-0.128,1.892-0.273,2.838-0.408
			c0.696-0.098,1.394-0.17,2.099-0.139c1.48,0.067,2.68,0.678,3.572,1.865c0.723,0.96,1.216,2.024,1.409,3.22
			c0.021,0.131,0.038,0.263,0.056,0.389c2.492,0.708,4.097,3.205,3.447,5.856c-0.568,2.318-2.694,3.887-5.103,3.716
			c-2.43-0.173-4.385-2.129-4.556-4.513C52.299,49.616,54.285,47.366,56.858,47.065z"/>
		<path fill-rule="evenodd" clip-rule="evenodd" fill="#FFFFFF" d="M46.574,54.809c0,0.111,0,0.197,0,0.283
			c0,3.237,0.005,6.477-0.003,9.714c-0.002,1.049,0.427,1.842,1.317,2.39c0.02,0.014,0.039,0.029,0.086,0.065
			c-5.651,0-11.271,0-16.925,0c0.056-0.041,0.088-0.067,0.124-0.09c0.848-0.538,1.275-1.309,1.275-2.313c0-3.479,0-6.958,0-10.438
			c0-0.085,0-0.171,0-0.282C37.165,54.362,41.861,54.584,46.574,54.809z"/>
	</g>
</g>
</svg>
