<?xml version="1.0" encoding="utf-8"?>
<!-- Generator: Adobe Illustrator 16.0.0, SVG Export Plug-In . SVG Version: 6.00 Build 0)  -->
<!DOCTYPE svg PUBLIC "-//W3C//DTD SVG 1.1//EN" "http://www.w3.org/Graphics/SVG/1.1/DTD/svg11.dtd">
<svg version="1.1" id="Layer_1" xmlns="http://www.w3.org/2000/svg" xmlns:xlink="http://www.w3.org/1999/xlink" x="0px" y="0px"
	 width="66.872px" height="88.686px" viewBox="0 0 66.872 88.686" enable-background="new 0 0 66.872 88.686" xml:space="preserve">
<g>
	<g>
		<path fill-rule="evenodd" clip-rule="evenodd" fill="#FFFFFF" d="M65.872,77.686c0,5.5-4.5,10-10,10H11c-5.5,0-10-4.5-10-10
			V32.813c0-5.5,4.5-10,10-10h44.872c5.5,0,10,4.5,10,10V77.686z"/>
		<path fill="none" stroke="#000000" stroke-width="2" stroke-miterlimit="10" d="M65.872,77.686c0,5.5-4.5,10-10,10H11
			c-5.5,0-10-4.5-10-10V32.813c0-5.5,4.5-10,10-10h44.872c5.5,0,10,4.5,10,10V77.686z"/>
	</g>
	<g>
		<path fill="#1A1A1A" d="M26.067,5.716l1.819-3.938h1.969l-2.87,5.572v3.17h-1.831V7.35l-2.87-5.572h1.975L26.067,5.716z"/>
		<path fill="#1A1A1A" d="M30.271,7.211c0-0.473,0.068-0.91,0.204-1.314c0.136-0.404,0.334-0.754,0.594-1.048
			c0.26-0.295,0.582-0.525,0.964-0.694c0.382-0.168,0.817-0.252,1.306-0.252c0.492,0,0.931,0.084,1.315,0.252
			c0.384,0.169,0.708,0.399,0.97,0.694c0.262,0.294,0.461,0.644,0.597,1.048s0.204,0.842,0.204,1.314v0.126
			c0,0.477-0.068,0.916-0.204,1.318s-0.335,0.75-0.597,1.045c-0.262,0.294-0.583,0.524-0.964,0.69s-0.817,0.249-1.309,0.249
			s-0.93-0.083-1.312-0.249s-0.705-0.396-0.967-0.69c-0.262-0.295-0.461-0.643-0.597-1.045c-0.136-0.402-0.204-0.842-0.204-1.318
			V7.211z M32.006,7.337c0,0.265,0.024,0.513,0.072,0.745c0.048,0.231,0.125,0.433,0.231,0.604c0.106,0.17,0.244,0.305,0.414,0.405
			c0.17,0.1,0.379,0.149,0.627,0.149c0.24,0,0.445-0.05,0.616-0.149c0.17-0.101,0.309-0.235,0.417-0.405
			c0.108-0.171,0.186-0.372,0.234-0.604c0.048-0.232,0.072-0.48,0.072-0.745V7.211c0-0.256-0.024-0.499-0.072-0.729
			c-0.048-0.23-0.126-0.433-0.234-0.606c-0.108-0.174-0.248-0.313-0.42-0.414c-0.172-0.103-0.38-0.153-0.624-0.153
			c-0.24,0-0.446,0.051-0.616,0.153c-0.17,0.102-0.308,0.24-0.414,0.414c-0.106,0.174-0.184,0.376-0.231,0.606
			s-0.072,0.474-0.072,0.729V7.337z"/>
		<path fill="#1A1A1A" d="M37.242,7.223c0-0.492,0.061-0.942,0.183-1.351c0.122-0.408,0.296-0.759,0.522-1.051
			c0.227-0.292,0.501-0.519,0.826-0.679s0.69-0.24,1.099-0.24c0.38,0,0.706,0.064,0.976,0.192s0.5,0.309,0.688,0.54l0.072-0.612
			h1.573v6.275c0,0.443-0.076,0.838-0.229,1.183c-0.152,0.344-0.365,0.635-0.639,0.873c-0.274,0.238-0.603,0.419-0.985,0.541
			s-0.806,0.183-1.27,0.183c-0.2,0-0.413-0.02-0.637-0.06s-0.445-0.103-0.663-0.187c-0.218-0.084-0.426-0.19-0.622-0.318
			c-0.196-0.128-0.362-0.28-0.499-0.456L38.407,11c0.204,0.229,0.438,0.406,0.7,0.534s0.553,0.192,0.874,0.192
			c0.46,0,0.819-0.123,1.075-0.369c0.256-0.246,0.384-0.596,0.384-1.048V9.961c-0.192,0.217-0.418,0.384-0.678,0.502
			C40.5,10.58,40.2,10.64,39.86,10.64c-0.404,0-0.768-0.083-1.09-0.249s-0.596-0.396-0.823-0.688c-0.226-0.292-0.4-0.64-0.522-1.042
			c-0.123-0.402-0.183-0.84-0.183-1.312V7.223z M38.977,7.35c0,0.264,0.026,0.51,0.078,0.738c0.052,0.228,0.133,0.427,0.243,0.598
			c0.11,0.17,0.249,0.304,0.415,0.402c0.166,0.098,0.363,0.146,0.591,0.146c0.276,0,0.507-0.052,0.693-0.156
			c0.187-0.104,0.333-0.25,0.441-0.438V5.908c-0.112-0.192-0.259-0.34-0.441-0.441c-0.182-0.103-0.409-0.153-0.681-0.153
			c-0.229,0-0.425,0.049-0.592,0.147c-0.166,0.098-0.305,0.233-0.417,0.405c-0.112,0.172-0.195,0.374-0.25,0.606
			c-0.054,0.232-0.081,0.482-0.081,0.75V7.35z"/>
		<path fill="#1A1A1A" d="M48.278,10.52c-0.08-0.156-0.138-0.351-0.174-0.582c-0.176,0.195-0.397,0.362-0.664,0.498
			s-0.591,0.204-0.976,0.204c-0.313,0-0.604-0.048-0.874-0.145c-0.27-0.096-0.504-0.229-0.702-0.402
			c-0.198-0.172-0.354-0.377-0.465-0.615c-0.112-0.238-0.168-0.499-0.168-0.783c0-0.341,0.063-0.643,0.189-0.907
			c0.126-0.264,0.315-0.488,0.567-0.672c0.252-0.185,0.565-0.324,0.939-0.421c0.375-0.096,0.81-0.144,1.306-0.144h0.774V6.179
			c0-0.301-0.077-0.541-0.231-0.721c-0.154-0.181-0.397-0.271-0.729-0.271c-0.292,0-0.521,0.07-0.688,0.21
			c-0.167,0.141-0.25,0.333-0.25,0.576h-1.735c0-0.279,0.065-0.546,0.195-0.798c0.13-0.253,0.315-0.473,0.556-0.661
			c0.24-0.188,0.53-0.337,0.871-0.447c0.34-0.109,0.72-0.165,1.141-0.165c0.376,0,0.725,0.048,1.045,0.145
			c0.32,0.096,0.596,0.239,0.829,0.429c0.232,0.19,0.413,0.429,0.543,0.715c0.13,0.286,0.195,0.619,0.195,1v2.75
			c0,0.185,0.006,0.35,0.018,0.495c0.012,0.146,0.028,0.278,0.048,0.396s0.046,0.225,0.078,0.318
			c0.032,0.094,0.07,0.183,0.114,0.267v0.103H48.278z M46.843,9.313c0.148,0,0.285-0.018,0.412-0.054
			c0.126-0.036,0.239-0.083,0.339-0.142c0.1-0.058,0.188-0.125,0.261-0.201c0.074-0.076,0.133-0.153,0.177-0.233V7.565h-0.714
			c-0.228,0-0.426,0.025-0.595,0.075c-0.168,0.05-0.306,0.12-0.414,0.21s-0.188,0.196-0.24,0.318
			c-0.052,0.122-0.078,0.255-0.078,0.399c0,0.216,0.076,0.394,0.228,0.534C46.371,9.242,46.579,9.313,46.843,9.313z"/>
	</g>
	<g>
		<g>
			<g>
				<path fill-rule="evenodd" clip-rule="evenodd" d="M29.655,65.625c0-2.981,0-5.904,0-8.938c-0.114,0.18-0.179,0.274-0.238,0.373
					c-1.168,1.919-2.353,3.827-3.795,5.557c-1.03,1.235-2.164,2.355-3.584,3.147c-0.945,0.528-1.952,0.852-3.041,0.879
					c-1.401,0.036-2.53-0.976-2.642-2.353c-0.109-1.356,0.875-2.579,2.265-2.711c0.737-0.069,1.357-0.344,1.834-0.857
					c0.776-0.837,1.574-1.677,2.206-2.619c1.333-1.986,2.544-4.052,3.843-6.061c0.725-1.122,1.462-2.247,2.303-3.281
					c1.455-1.789,3.351-2.729,5.702-2.654c0.873,0.028,1.75-0.033,2.62,0.025c1.951,0.134,3.563,1.018,4.762,2.521
					c1,1.255,1.875,2.614,2.754,3.96c1.252,1.917,2.425,3.886,3.701,5.786c0.545,0.813,1.237,1.533,1.913,2.249
					c0.514,0.543,1.154,0.857,1.942,0.935c1.375,0.135,2.341,1.352,2.242,2.697c-0.101,1.362-1.202,2.375-2.599,2.36
					c-1.359-0.015-2.57-0.499-3.687-1.242c-1.505-1-2.716-2.309-3.749-3.767c-1.061-1.497-2.032-3.059-3.042-4.592
					c-0.058-0.088-0.119-0.176-0.22-0.325c0,3.009,0,5.938,0,8.911c0.187,0,0.354,0,0.52,0c1.542-0.001,3.085-0.005,4.628-0.001
					c1.027,0.004,2.005,0.214,2.896,0.748c2.145,1.287,2.359,3.817,0.461,5.442c-0.891,0.764-1.964,1.163-3.065,1.493
					c-2.076,0.623-4.214,0.881-6.368,1.018c-3.196,0.203-6.394,0.208-9.59,0.001c-2.529-0.164-5.038-0.465-7.433-1.363
					c-0.833-0.313-1.619-0.714-2.264-1.347c-1.592-1.565-1.398-3.821,0.443-5.091c0.938-0.646,1.999-0.895,3.122-0.9
					c1.531-0.007,3.063-0.001,4.594-0.001C29.266,65.625,29.445,65.625,29.655,65.625z"/>
				<path fill-rule="evenodd" clip-rule="evenodd" d="M41.204,39.463c-0.004,3.218-2.606,5.804-5.835,5.798
					c-3.195-0.006-5.782-2.615-5.772-5.823c0.009-3.228,2.607-5.812,5.831-5.8C38.627,33.65,41.208,36.253,41.204,39.463z"/>
			</g>
		</g>
	</g>
</g>
</svg>
