<?xml version="1.0" encoding="utf-8"?>
<!-- Generator: Adobe Illustrator 16.0.0, SVG Export Plug-In . SVG Version: 6.00 Build 0)  -->
<!DOCTYPE svg PUBLIC "-//W3C//DTD SVG 1.1//EN" "http://www.w3.org/Graphics/SVG/1.1/DTD/svg11.dtd">
<svg version="1.1" id="Layer_1" xmlns="http://www.w3.org/2000/svg" xmlns:xlink="http://www.w3.org/1999/xlink" x="0px" y="0px"
	 width="66.871px" height="88.686px" viewBox="0 0 66.871 88.686" enable-background="new 0 0 66.871 88.686" xml:space="preserve">
<g>
	<g>
		<path fill-rule="evenodd" clip-rule="evenodd" fill="#FFFFFF" d="M65.871,77.686c0,5.5-4.5,10-10,10H11c-5.5,0-10-4.5-10-10
			V32.814c0-5.5,4.5-10,10-10h44.871c5.5,0,10,4.5,10,10V77.686z"/>
		<path fill="none" stroke="#000000" stroke-width="2" stroke-miterlimit="10" d="M65.871,77.686c0,5.5-4.5,10-10,10H11
			c-5.5,0-10-4.5-10-10V32.814c0-5.5,4.5-10,10-10h44.871c5.5,0,10,4.5,10,10V77.686z"/>
	</g>
	<g>
		<path fill="#1A1A1A" d="M15.403,8.718h-3.158l-0.601,1.802H9.729l3.254-8.742h1.669l3.272,8.742H16.01L15.403,8.718z
			 M12.731,7.259h2.186l-1.099-3.272L12.731,7.259z"/>
		<path fill="#1A1A1A" d="M21.618,10.64c-0.504,0-0.956-0.082-1.354-0.246s-0.737-0.389-1.015-0.673
			c-0.278-0.284-0.491-0.617-0.637-1c-0.146-0.382-0.219-0.791-0.219-1.228V7.259c0-0.492,0.071-0.943,0.213-1.354
			s0.344-0.764,0.606-1.06c0.262-0.297,0.581-0.527,0.955-0.694c0.375-0.166,0.793-0.249,1.258-0.249
			c0.468,0,0.88,0.077,1.237,0.231c0.356,0.154,0.655,0.37,0.897,0.648s0.424,0.613,0.546,1.006s0.183,0.828,0.183,1.309v0.739
			h-4.137c0.028,0.212,0.085,0.404,0.171,0.576s0.196,0.319,0.33,0.441c0.134,0.122,0.292,0.217,0.472,0.285
			s0.382,0.102,0.606,0.102c0.316,0,0.608-0.059,0.876-0.177s0.499-0.301,0.69-0.55l0.853,0.955
			c-0.104,0.148-0.234,0.292-0.39,0.433c-0.156,0.14-0.34,0.265-0.552,0.375c-0.212,0.11-0.452,0.198-0.718,0.265
			C22.226,10.606,21.935,10.64,21.618,10.64z M21.42,5.308c-0.188,0-0.353,0.033-0.495,0.099c-0.142,0.066-0.264,0.158-0.366,0.276
			s-0.186,0.26-0.25,0.424s-0.11,0.346-0.138,0.546h2.414V6.515c-0.004-0.172-0.029-0.332-0.075-0.48s-0.116-0.276-0.21-0.385
			c-0.094-0.107-0.214-0.191-0.36-0.252C21.793,5.338,21.62,5.308,21.42,5.308z"/>
		<path fill="#1A1A1A" d="M28.926,5.649c-0.088-0.012-0.191-0.022-0.31-0.032c-0.118-0.011-0.223-0.016-0.315-0.016
			c-0.34,0-0.616,0.058-0.826,0.172c-0.21,0.113-0.365,0.278-0.465,0.495v4.251h-1.735V4.022h1.639l0.048,0.774
			c0.164-0.28,0.366-0.499,0.606-0.657c0.24-0.158,0.52-0.237,0.84-0.237c0.092,0,0.189,0.008,0.292,0.024
			c0.102,0.016,0.185,0.034,0.249,0.054L28.926,5.649z"/>
		<path fill="#1A1A1A" d="M29.49,7.211c0-0.473,0.068-0.91,0.204-1.314c0.136-0.404,0.334-0.754,0.594-1.048
			c0.26-0.295,0.582-0.525,0.964-0.694c0.382-0.168,0.817-0.252,1.306-0.252c0.492,0,0.931,0.084,1.315,0.252
			c0.384,0.169,0.708,0.399,0.97,0.694c0.262,0.294,0.461,0.644,0.597,1.048s0.204,0.842,0.204,1.314v0.126
			c0,0.477-0.068,0.916-0.204,1.318s-0.335,0.75-0.597,1.045c-0.262,0.294-0.583,0.524-0.964,0.69s-0.817,0.249-1.309,0.249
			s-0.93-0.083-1.312-0.249s-0.705-0.396-0.967-0.69c-0.262-0.295-0.461-0.643-0.597-1.045c-0.136-0.402-0.204-0.842-0.204-1.318
			V7.211z M31.226,7.337c0,0.265,0.024,0.513,0.072,0.745c0.048,0.231,0.125,0.433,0.231,0.604c0.106,0.17,0.244,0.305,0.414,0.405
			c0.17,0.1,0.379,0.149,0.627,0.149c0.24,0,0.445-0.05,0.616-0.149c0.17-0.101,0.309-0.235,0.417-0.405
			c0.108-0.171,0.186-0.372,0.234-0.604c0.048-0.232,0.072-0.48,0.072-0.745V7.211c0-0.256-0.024-0.499-0.072-0.729
			c-0.048-0.23-0.126-0.433-0.234-0.606c-0.108-0.174-0.248-0.313-0.42-0.414c-0.172-0.103-0.38-0.153-0.624-0.153
			c-0.24,0-0.446,0.051-0.616,0.153c-0.17,0.102-0.308,0.24-0.414,0.414c-0.106,0.174-0.184,0.376-0.231,0.606
			s-0.072,0.474-0.072,0.729V7.337z"/>
		<path fill="#1A1A1A" d="M42.568,7.331c0,0.488-0.052,0.935-0.156,1.339S42.15,9.423,41.94,9.715
			c-0.21,0.292-0.474,0.52-0.79,0.682c-0.316,0.162-0.687,0.243-1.111,0.243c-0.376,0-0.702-0.071-0.976-0.213
			c-0.274-0.143-0.511-0.342-0.711-0.598l-0.078,0.69h-1.561V1.297h1.735v3.309c0.192-0.225,0.417-0.397,0.675-0.52
			c0.258-0.122,0.56-0.184,0.904-0.184c0.424,0,0.795,0.082,1.114,0.246s0.583,0.393,0.796,0.685
			c0.212,0.293,0.37,0.641,0.474,1.045s0.156,0.847,0.156,1.327V7.331z M40.833,7.205c0-0.256-0.018-0.499-0.054-0.729
			s-0.101-0.432-0.195-0.604c-0.094-0.172-0.221-0.309-0.381-0.408c-0.16-0.101-0.364-0.15-0.613-0.15
			c-0.292,0-0.53,0.06-0.714,0.178c-0.184,0.117-0.326,0.285-0.426,0.501v2.563c0.1,0.217,0.242,0.385,0.426,0.505
			s0.426,0.18,0.727,0.18c0.244,0,0.445-0.048,0.604-0.144C40.363,9,40.489,8.868,40.583,8.7c0.094-0.168,0.159-0.369,0.195-0.604
			s0.054-0.489,0.054-0.766V7.205z"/>
		<path fill="#1A1A1A" d="M43.625,2.342c0-0.261,0.087-0.475,0.261-0.643c0.174-0.168,0.412-0.253,0.712-0.253
			c0.148,0,0.282,0.022,0.402,0.066c0.12,0.044,0.222,0.106,0.307,0.187c0.084,0.08,0.149,0.175,0.195,0.285
			s0.069,0.229,0.069,0.357c0,0.132-0.023,0.253-0.069,0.363C45.455,2.814,45.39,2.91,45.306,2.99C45.222,3.07,45.12,3.132,45,3.176
			c-0.12,0.044-0.254,0.066-0.402,0.066c-0.148,0-0.282-0.022-0.402-0.066S43.973,3.07,43.889,2.99
			c-0.084-0.08-0.149-0.176-0.195-0.285C43.647,2.595,43.625,2.474,43.625,2.342z M45.468,10.52h-1.742V4.022h1.742V10.52z"/>
		<path fill="#1A1A1A" d="M49.599,9.24c0.16,0,0.306-0.022,0.438-0.068c0.132-0.046,0.247-0.111,0.342-0.195
			c0.096-0.084,0.171-0.186,0.226-0.304c0.054-0.118,0.083-0.251,0.087-0.399h1.627c-0.004,0.345-0.076,0.662-0.216,0.952
			s-0.331,0.54-0.571,0.751c-0.24,0.21-0.523,0.373-0.85,0.489c-0.326,0.116-0.677,0.174-1.054,0.174
			c-0.504,0-0.945-0.085-1.321-0.255c-0.376-0.171-0.688-0.402-0.937-0.697c-0.248-0.294-0.434-0.64-0.558-1.038
			s-0.186-0.828-0.186-1.288V7.193c0-0.461,0.062-0.891,0.186-1.291s0.31-0.749,0.558-1.045c0.249-0.296,0.56-0.529,0.934-0.699
			c0.374-0.171,0.812-0.256,1.312-0.256c0.4,0,0.766,0.06,1.096,0.178s0.613,0.287,0.85,0.507c0.236,0.221,0.42,0.487,0.552,0.802
			c0.132,0.314,0.2,0.666,0.204,1.054h-1.627c-0.004-0.156-0.031-0.303-0.081-0.441c-0.05-0.138-0.121-0.258-0.213-0.36
			c-0.092-0.102-0.206-0.183-0.342-0.243c-0.136-0.06-0.292-0.09-0.468-0.09c-0.252,0-0.458,0.052-0.618,0.156
			c-0.16,0.104-0.286,0.243-0.375,0.417s-0.151,0.375-0.183,0.604c-0.032,0.229-0.048,0.465-0.048,0.709v0.168
			c0,0.248,0.016,0.486,0.048,0.715c0.032,0.228,0.093,0.428,0.183,0.6c0.09,0.173,0.215,0.31,0.375,0.412
			C49.128,9.189,49.339,9.24,49.599,9.24z"/>
		<path fill="#1A1A1A" d="M56.829,8.725c0-0.093-0.018-0.177-0.054-0.253c-0.036-0.076-0.104-0.146-0.205-0.213
			s-0.236-0.129-0.408-0.189c-0.172-0.06-0.394-0.118-0.667-0.174c-0.332-0.072-0.639-0.162-0.921-0.271
			c-0.282-0.107-0.527-0.242-0.733-0.402c-0.206-0.159-0.367-0.346-0.483-0.558c-0.116-0.213-0.174-0.459-0.174-0.739
			c0-0.271,0.059-0.53,0.177-0.774c0.118-0.244,0.288-0.459,0.51-0.646c0.222-0.186,0.494-0.333,0.816-0.441
			c0.322-0.107,0.686-0.162,1.09-0.162c0.42,0,0.799,0.053,1.135,0.156c0.336,0.104,0.622,0.249,0.856,0.436
			c0.234,0.186,0.414,0.407,0.54,0.663c0.126,0.257,0.189,0.537,0.189,0.841h-1.735c0-0.248-0.08-0.453-0.24-0.615
			s-0.41-0.243-0.75-0.243c-0.292,0-0.519,0.065-0.679,0.198c-0.16,0.132-0.24,0.3-0.24,0.504c0,0.097,0.021,0.182,0.063,0.256
			c0.042,0.073,0.11,0.142,0.204,0.204c0.094,0.062,0.218,0.119,0.372,0.171s0.343,0.1,0.567,0.144
			c0.352,0.068,0.679,0.152,0.979,0.253c0.3,0.1,0.559,0.229,0.777,0.387s0.389,0.351,0.514,0.576c0.124,0.227,0.186,0.5,0.186,0.82
			c0,0.288-0.064,0.554-0.192,0.795c-0.128,0.243-0.311,0.452-0.549,0.628s-0.525,0.314-0.862,0.414
			c-0.336,0.101-0.712,0.15-1.129,0.15c-0.456,0-0.858-0.064-1.207-0.192c-0.349-0.128-0.642-0.296-0.88-0.504
			S53.28,9.501,53.16,9.24c-0.12-0.26-0.18-0.522-0.18-0.786h1.645c0.008,0.168,0.045,0.313,0.111,0.436
			c0.066,0.122,0.153,0.221,0.261,0.297c0.108,0.076,0.233,0.132,0.375,0.168s0.292,0.055,0.447,0.055
			c0.333,0,0.583-0.063,0.754-0.189C56.744,9.094,56.829,8.929,56.829,8.725z"/>
	</g>
	<g>
		<path fill-rule="evenodd" clip-rule="evenodd" d="M43.696,68.953c-1.329,0.323-2.49,0.015-3.635-0.407
			c-2.7-0.994-5.446-1.133-8.231-0.438c-1.076,0.268-2.135,0.604-3.208,0.89c-0.201,0.053-0.429,0.007-0.733,0.007
			c-0.197-1.494-0.381-2.978-0.6-4.456c-0.032-0.221-0.174-0.522-0.352-0.608c-4.876-2.363-8.611-6.021-11.754-10.343
			c-0.813-1.117-1.585-2.273-2.274-3.471c-0.972-1.692-0.189-3.337,1.666-3.575c1.042-0.134,1.806,0.429,2.437,1.195
			c2.416,2.936,5.184,5.464,8.534,7.3c3.336,1.83,6.849,2.613,10.588,1.488c3.14-0.943,5.529-2.981,7.542-5.494
			c1.943-2.428,3.423-5.12,4.513-8.031c0.682-1.818,2.682-2.368,4.057-1.153c0.712,0.629,0.717,1.438,0.55,2.219
			c-1.244,5.816-3.561,11.124-7.583,15.591c-0.552,0.613-1.142,1.2-1.772,1.729c-0.338,0.283-0.37,0.544-0.332,0.938
			C43.32,64.506,43.499,66.683,43.696,68.953z"/>
		<path fill-rule="evenodd" clip-rule="evenodd" d="M33.285,54.807c-3.587,0.017-6.508-2.868-6.524-6.443
			c-0.017-3.579,2.885-6.534,6.434-6.551c3.665-0.018,6.604,2.89,6.604,6.533C39.798,51.898,36.882,54.792,33.285,54.807z"/>
		<path fill-rule="evenodd" clip-rule="evenodd" d="M57.07,71.233c0,0.686,0,1.501,0,2.377c-1.26,0.057-2.451-0.124-3.573-0.591
			c-2.402-0.998-4.744-1.065-7.192-0.037c-2.471,1.04-5.05,0.919-7.528-0.052c-2.311-0.904-4.561-0.966-6.858-0.018
			c-2.493,1.03-5.043,0.989-7.532,0.069c-2.462-0.909-4.831-0.97-7.289,0.023c-1.076,0.435-2.291,0.528-3.54,0.799
			c0-1.025,0-1.858,0-2.564c1.733-0.479,3.427-1.028,5.159-1.402c2.032-0.438,4.053-0.213,6.005,0.514
			c2.249,0.838,4.459,0.87,6.731-0.024c2.481-0.977,5.058-0.956,7.547-0.042c2.467,0.904,4.814,0.941,7.282-0.06
			c2.326-0.942,4.751-0.74,7.136-0.005C54.589,70.581,55.778,70.878,57.07,71.233z"/>
		<path fill-rule="evenodd" clip-rule="evenodd" d="M53.412,46.248c0.297-0.69,0.668-1.854,1.274-2.878
			c0.519-0.878,1.852-1.037,2.823-0.558c0.936,0.462,1.471,1.534,1.182,2.559c-0.236,0.836-0.539,1.66-0.893,2.453
			c-0.425,0.954-1.575,1.466-2.556,1.223C54.118,48.77,53.407,47.87,53.412,46.248z"/>
		<path fill-rule="evenodd" clip-rule="evenodd" d="M22.412,46.668c-0.09,0.878-0.562,1.594-1.33,1.913
			c-0.785,0.328-1.708,0.172-2.271-0.465c-0.479-0.543-0.926-1.124-1.318-1.732c-0.573-0.891-0.342-2.039,0.476-2.667
			c0.874-0.671,2.015-0.596,2.75,0.229c0.45,0.504,0.874,1.04,1.245,1.605C22.18,45.879,22.267,46.292,22.412,46.668z"/>
		<path fill-rule="evenodd" clip-rule="evenodd" d="M45.561,44.153c-1.784-0.01-2.72-1.293-2.304-2.68
			c0.188-0.624,0.425-1.237,0.694-1.829c0.456-1.002,1.557-1.443,2.552-1.068c1.052,0.398,1.576,1.43,1.239,2.519
			c-0.192,0.621-0.418,1.236-0.68,1.831C46.708,43.731,46.067,44.146,45.561,44.153z"/>
		<path fill-rule="evenodd" clip-rule="evenodd" d="M11.169,55.264c-0.024,0.001-0.048,0.001-0.072,0.001
			c-1.486-0.04-3.351-2.558-2.938-3.966c0.444-1.512,2.358-2.004,3.426-0.852c0.492,0.53,0.921,1.126,1.327,1.727
			c0.445,0.658,0.436,1.386,0.049,2.063C12.578,54.912,11.98,55.294,11.169,55.264z"/>
	</g>
</g>
</svg>
