<?xml version="1.0" encoding="utf-8"?>
<!-- Generator: Adobe Illustrator 16.0.0, SVG Export Plug-In . SVG Version: 6.00 Build 0)  -->
<!DOCTYPE svg PUBLIC "-//W3C//DTD SVG 1.1//EN" "http://www.w3.org/Graphics/SVG/1.1/DTD/svg11.dtd">
<svg version="1.1" id="Layer_1" xmlns="http://www.w3.org/2000/svg" xmlns:xlink="http://www.w3.org/1999/xlink" x="0px" y="0px"
	 width="16px" height="16px" viewBox="0 0 16 16" enable-background="new 0 0 16 16" xml:space="preserve">
<g>
	<path fill="#FFFFFF" d="M8.233,8.673C8.119,8.643,8.05,8.684,7.979,8.755c-0.607,0.611-1.22,1.22-1.83,1.828
		c-0.106,0.104-0.107,0.229-0.003,0.332c0.464,0.462,0.931,0.922,1.392,1.388c0.23,0.233,0.306,0.518,0.215,0.834
		c-0.091,0.316-0.307,0.518-0.628,0.586c-0.292,0.064-0.555-0.008-0.769-0.219c-0.663-0.652-1.322-1.309-1.984-1.962
		c-0.063-0.063-0.129-0.121-0.19-0.187c-0.341-0.356-0.335-0.863,0.015-1.213c0.6-0.6,1.202-1.199,1.804-1.796
		C6.05,8.297,6.072,8.248,6.072,8.177c-0.003-0.902-0.002-1.806,0-2.708c0-0.07-0.02-0.12-0.069-0.169
		c-0.68-0.675-1.357-1.35-2.035-2.027c-0.402-0.401-0.8-0.804-1.198-1.208C2.495,1.787,2.485,1.347,2.746,1.061
		c0.252-0.276,0.7-0.305,0.997-0.063c0.044,0.037,0.085,0.077,0.126,0.118C4.761,2.01,5.653,2.903,6.544,3.799
		c0.052,0.052,0.104,0.073,0.178,0.073c0.849-0.002,1.697-0.002,2.545,0c0.075,0,0.125-0.023,0.178-0.075
		c0.904-0.906,1.811-1.81,2.718-2.713c0.286-0.286,0.674-0.332,0.979-0.119c0.352,0.246,0.408,0.774,0.104,1.083
		c-0.88,0.887-1.768,1.767-2.65,2.649c-0.209,0.208-0.421,0.416-0.625,0.628C9.938,5.358,9.924,5.42,9.923,5.469
		C9.921,6.586,9.921,7.703,9.921,8.82c0,2.02,0,4.039,0,6.06c0,0.437-0.306,0.778-0.746,0.841c-0.396,0.059-0.793-0.199-0.906-0.596
		c-0.024-0.086-0.034-0.18-0.034-0.271c-0.002-2.021-0.001-4.039-0.001-6.061L8.233,8.673L8.233,8.673z"/>
	<path fill="#FFFFFF" d="M6.314,1.952c0-0.929,0.758-1.686,1.685-1.681c0.933,0.005,1.683,0.758,1.683,1.686
		C9.68,2.887,8.925,3.638,7.993,3.634C7.056,3.631,6.314,2.887,6.314,1.952"/>
</g>
</svg>
