<?xml version="1.0" encoding="utf-8"?>
<!-- Generator: Adobe Illustrator 16.0.0, SVG Export Plug-In . SVG Version: 6.00 Build 0)  -->
<!DOCTYPE svg PUBLIC "-//W3C//DTD SVG 1.1//EN" "http://www.w3.org/Graphics/SVG/1.1/DTD/svg11.dtd">
<svg version="1.1" id="Layer_1" xmlns="http://www.w3.org/2000/svg" xmlns:xlink="http://www.w3.org/1999/xlink" x="0px" y="0px"
	 width="141.73px" height="141.73px" viewBox="0 0 141.73 141.73" enable-background="new 0 0 141.73 141.73" xml:space="preserve">
<path fill-rule="evenodd" clip-rule="evenodd" fill="#245F30" d="M78.358,70.803C63.997,56.478,49.999,42.532,36.02,28.565
	c-7.182-7.177-6.904-11.952,0.017-19.455C46.58-2.315,51.252-1.517,61.499,9.067C78.713,26.844,96.421,44.14,113.907,61.65
	c6.641,6.648,6.656,11.621,0.04,18.247c-18.658,18.687-37.331,37.361-56.014,56.024c-6.63,6.626-11.672,6.622-18.274,0.063
	c-12.222-12.133-12.242-14.38-0.146-26.455C52.321,96.743,65.147,83.971,78.358,70.803z"/>
</svg>
