<?xml version="1.0" encoding="utf-8"?>
<!-- Generator: Adobe Illustrator 16.0.0, SVG Export Plug-In . SVG Version: 6.00 Build 0)  -->
<!DOCTYPE svg PUBLIC "-//W3C//DTD SVG 1.1//EN" "http://www.w3.org/Graphics/SVG/1.1/DTD/svg11.dtd">
<svg version="1.1" id="Layer_1" xmlns="http://www.w3.org/2000/svg" xmlns:xlink="http://www.w3.org/1999/xlink" x="0px" y="0px"
	 width="141.73px" height="141.73px" viewBox="0 0 141.73 141.73" enable-background="new 0 0 141.73 141.73" xml:space="preserve">
<path fill-rule="evenodd" clip-rule="evenodd" fill="#245F30" d="M71.007,70.803c14.361-14.325,28.36-28.271,42.339-42.238
	c7.182-7.177,6.904-11.952-0.018-19.455C102.785-2.315,98.113-1.517,87.866,9.067C70.652,26.844,52.944,44.14,35.458,61.65
	c-6.641,6.648-6.656,11.621-0.04,18.247c18.658,18.687,37.331,37.361,56.014,56.024c6.631,6.626,11.672,6.622,18.274,0.063
	c12.222-12.133,12.241-14.38,0.146-26.455C97.044,96.743,84.219,83.971,71.007,70.803z"/>
</svg>
