<?xml version="1.0" encoding="utf-8"?>
<!-- Generator: Adobe Illustrator 16.0.0, SVG Export Plug-In . SVG Version: 6.00 Build 0)  -->
<!DOCTYPE svg PUBLIC "-//W3C//DTD SVG 1.1//EN" "http://www.w3.org/Graphics/SVG/1.1/DTD/svg11.dtd">
<svg version="1.1" id="Layer_1" xmlns="http://www.w3.org/2000/svg" xmlns:xlink="http://www.w3.org/1999/xlink" x="0px" y="0px"
	 width="156px" height="179px" viewBox="0 0 156 179" enable-background="new 0 0 156 179" xml:space="preserve">
<path fill-rule="evenodd" clip-rule="evenodd" d="M87.09,158.654"/>
<rect x="1" y="1" fill-rule="evenodd" clip-rule="evenodd" fill="#FFFFFF" stroke="#627D53" stroke-width="2" stroke-miterlimit="10" width="154" height="177"/>
<rect x="2" y="1" fill-rule="evenodd" clip-rule="evenodd" fill="#627D53" width="154" height="56"/>
<g>
	<path fill="#FFFFFF" d="M36.285,13.294h2.09v5.604l2.66-5.604h2.09l-2.489,4.883l2.527,8.417h-2.185l-1.767-5.928l-0.836,1.691
		v4.236h-2.09V13.294z"/>
	<path fill="#FFFFFF" d="M44.151,13.294h2.09v13.3h-2.09V13.294z"/>
	<path fill="#FFFFFF" d="M49.433,15.193h-2.185v-1.899h6.46v1.899h-2.185v11.4h-2.09V15.193z"/>
	<path fill="#FFFFFF" d="M54.715,13.294h5.7v1.899h-3.61v3.516h2.869v1.9h-2.869v4.084h3.61v1.9h-5.7V13.294z"/>
	<path fill="#FFFFFF" d="M61.612,13.294h3.154c1.076,0,1.862,0.25,2.356,0.751c0.494,0.5,0.741,1.27,0.741,2.308v0.532
		c0,0.684-0.111,1.242-0.333,1.672c-0.222,0.431-0.56,0.741-1.016,0.932v0.037c1.038,0.355,1.558,1.279,1.558,2.774v1.14
		c0,1.026-0.269,1.809-0.807,2.347c-0.539,0.538-1.327,0.808-2.366,0.808h-3.287V13.294z M64.519,18.709
		c0.418,0,0.731-0.107,0.94-0.323s0.313-0.576,0.313-1.083v-0.741c0-0.481-0.085-0.829-0.256-1.045
		c-0.171-0.215-0.44-0.323-0.808-0.323h-1.007v3.516H64.519z M64.899,24.693c0.367,0,0.64-0.098,0.817-0.294
		s0.266-0.535,0.266-1.017v-1.159c0-0.608-0.104-1.028-0.313-1.263s-0.554-0.352-1.036-0.352h-0.931v4.084H64.899z"/>
	<path fill="#FFFFFF" d="M69.953,25.91c-0.544-0.583-0.817-1.406-0.817-2.471v-6.992c0-1.063,0.272-1.887,0.817-2.47
		c0.544-0.582,1.33-0.874,2.356-0.874c1.026,0,1.812,0.292,2.356,0.874c0.545,0.583,0.817,1.406,0.817,2.47v6.992
		c0,1.064-0.272,1.888-0.817,2.471c-0.544,0.582-1.33,0.873-2.356,0.873C71.283,26.783,70.497,26.492,69.953,25.91z M73.392,23.572
		v-7.258c0-0.873-0.361-1.311-1.083-1.311c-0.722,0-1.083,0.438-1.083,1.311v7.258c0,0.875,0.361,1.312,1.083,1.312
		C73.031,24.884,73.392,24.447,73.392,23.572z"/>
	<path fill="#FFFFFF" d="M78.465,13.294h2.831l2.166,13.3h-2.09l-0.38-2.641v0.037h-2.375l-0.38,2.604h-1.938L78.465,13.294z
		 M80.745,22.186l-0.931-6.574h-0.038l-0.912,6.574H80.745z"/>
	<path fill="#FFFFFF" d="M84.468,13.294h3.097c1.077,0,1.862,0.25,2.356,0.751c0.494,0.5,0.741,1.27,0.741,2.308v0.817
		c0,1.381-0.456,2.254-1.368,2.622v0.038c0.506,0.152,0.865,0.463,1.074,0.931c0.209,0.469,0.313,1.096,0.313,1.881v2.337
		c0,0.381,0.012,0.688,0.038,0.922s0.089,0.465,0.19,0.693h-2.128c-0.076-0.215-0.126-0.418-0.152-0.607
		c-0.025-0.19-0.038-0.533-0.038-1.026v-2.433c0-0.607-0.098-1.031-0.294-1.272s-0.535-0.361-1.017-0.361h-0.722v5.7h-2.09V13.294z
		 M87.318,18.994c0.418,0,0.731-0.107,0.94-0.323s0.313-0.576,0.313-1.083v-1.026c0-0.481-0.085-0.829-0.256-1.045
		c-0.171-0.215-0.44-0.323-0.808-0.323h-0.95v3.801H87.318z"/>
	<path fill="#FFFFFF" d="M92.125,13.294h3.192c1.038,0,1.817,0.278,2.337,0.836c0.519,0.558,0.779,1.374,0.779,2.45v6.727
		c0,1.076-0.26,1.895-0.779,2.451c-0.52,0.558-1.299,0.836-2.337,0.836h-3.192V13.294z M95.28,24.693
		c0.342,0,0.604-0.102,0.789-0.304c0.183-0.202,0.275-0.532,0.275-0.987v-6.916c0-0.457-0.092-0.785-0.275-0.988
		c-0.184-0.203-0.447-0.305-0.789-0.305h-1.064v9.5H95.28z"/>
	<path fill="#FFFFFF" d="M99.839,13.294h2.09v13.3h-2.09V13.294z"/>
	<path fill="#FFFFFF" d="M103.487,13.294h2.622l2.033,7.961h0.038v-7.961h1.862v13.3h-2.147l-2.508-9.709h-0.038v9.709h-1.862
		V13.294z"/>
	<path fill="#FFFFFF" d="M112.246,25.92c-0.532-0.577-0.798-1.403-0.798-2.48v-6.992c0-1.076,0.266-1.902,0.798-2.479
		c0.532-0.576,1.305-0.865,2.318-0.865c1.013,0,1.786,0.289,2.318,0.865c0.532,0.576,0.798,1.402,0.798,2.479v1.141h-1.976v-1.273
		c0-0.873-0.361-1.311-1.083-1.311c-0.722,0-1.083,0.438-1.083,1.311v7.277c0,0.861,0.361,1.292,1.083,1.292
		c0.722,0,1.083-0.431,1.083-1.292v-2.604h-1.045v-1.899h3.021v4.351c0,1.077-0.266,1.903-0.798,2.48
		c-0.532,0.576-1.305,0.863-2.318,0.863C113.551,26.783,112.778,26.496,112.246,25.92z"/>
	<path fill="#FFFFFF" d="M54.03,44.719c-0.52-0.576-0.779-1.402-0.779-2.479v-0.761h1.976v0.912c0,0.861,0.361,1.292,1.083,1.292
		c0.354,0,0.624-0.104,0.808-0.313c0.183-0.209,0.275-0.548,0.275-1.017c0-0.557-0.127-1.048-0.38-1.473
		c-0.254-0.424-0.722-0.934-1.406-1.529c-0.861-0.76-1.463-1.447-1.805-2.062c-0.342-0.614-0.513-1.308-0.513-2.081
		c0-1.051,0.266-1.864,0.798-2.441c0.532-0.576,1.305-0.864,2.318-0.864c1,0,1.758,0.288,2.271,0.864
		c0.513,0.577,0.77,1.403,0.77,2.48v0.551H57.47v-0.684c0-0.457-0.089-0.789-0.266-0.998c-0.178-0.209-0.437-0.313-0.779-0.313
		c-0.697,0-1.045,0.425-1.045,1.272c0,0.482,0.13,0.932,0.39,1.35c0.259,0.418,0.731,0.924,1.416,1.52
		c0.874,0.76,1.476,1.451,1.805,2.071c0.33,0.62,0.494,1.349,0.494,2.185c0,1.09-0.269,1.926-0.808,2.508
		c-0.538,0.584-1.32,0.875-2.346,0.875C55.316,45.584,54.55,45.295,54.03,44.719z"/>
	<path fill="#FFFFFF" d="M61.336,44.729c-0.526-0.57-0.789-1.374-0.789-2.413v-7.144c0-1.039,0.263-1.844,0.789-2.413
		c0.525-0.57,1.289-0.855,2.29-0.855c1,0,1.764,0.285,2.29,0.855c0.525,0.569,0.788,1.374,0.788,2.413v1.406h-1.976v-1.539
		c0-0.824-0.349-1.235-1.045-1.235c-0.696,0-1.045,0.411-1.045,1.235v7.429c0,0.811,0.349,1.216,1.045,1.216
		c0.697,0,1.045-0.405,1.045-1.216v-2.033h1.976v1.881c0,1.039-0.263,1.843-0.788,2.413c-0.526,0.57-1.289,0.855-2.29,0.855
		C62.625,45.584,61.861,45.299,61.336,44.729z"/>
	<path fill="#FFFFFF" d="M67.957,32.094h2.09v5.415h2.242v-5.415h2.09v13.3h-2.09v-5.985h-2.242v5.985h-2.09V32.094z"/>
	<path fill="#FFFFFF" d="M76.602,44.709c-0.544-0.582-0.817-1.405-0.817-2.469v-6.992c0-1.064,0.272-1.888,0.817-2.471
		c0.544-0.582,1.33-0.874,2.356-0.874c1.026,0,1.812,0.292,2.356,0.874c0.545,0.583,0.817,1.406,0.817,2.471v6.992
		c0,1.063-0.272,1.887-0.817,2.469c-0.544,0.584-1.33,0.875-2.356,0.875C77.932,45.584,77.146,45.293,76.602,44.709z M80.041,42.373
		v-7.258c0-0.875-0.361-1.312-1.083-1.312c-0.722,0-1.083,0.437-1.083,1.312v7.258c0,0.873,0.361,1.311,1.083,1.311
		C79.68,43.684,80.041,43.246,80.041,42.373z"/>
	<path fill="#FFFFFF" d="M84.202,44.709c-0.544-0.582-0.817-1.405-0.817-2.469v-6.992c0-1.064,0.272-1.888,0.817-2.471
		c0.544-0.582,1.33-0.874,2.356-0.874c1.026,0,1.812,0.292,2.356,0.874c0.545,0.583,0.817,1.406,0.817,2.471v6.992
		c0,1.063-0.272,1.887-0.817,2.469c-0.544,0.584-1.33,0.875-2.356,0.875C85.532,45.584,84.747,45.293,84.202,44.709z M87.641,42.373
		v-7.258c0-0.875-0.361-1.312-1.083-1.312c-0.722,0-1.083,0.437-1.083,1.312v7.258c0,0.873,0.361,1.311,1.083,1.311
		C87.28,43.684,87.641,43.246,87.641,42.373z"/>
	<path fill="#FFFFFF" d="M91.137,32.094h2.09v11.4h3.439v1.899h-5.529V32.094z"/>
	<path fill="#FFFFFF" d="M98.091,44.719c-0.52-0.576-0.779-1.402-0.779-2.479v-0.761h1.976v0.912c0,0.861,0.361,1.292,1.083,1.292
		c0.354,0,0.624-0.104,0.808-0.313c0.183-0.209,0.275-0.548,0.275-1.017c0-0.557-0.127-1.048-0.38-1.473
		c-0.254-0.424-0.722-0.934-1.406-1.529c-0.861-0.76-1.463-1.447-1.805-2.062c-0.342-0.614-0.513-1.308-0.513-2.081
		c0-1.051,0.266-1.864,0.798-2.441c0.532-0.576,1.305-0.864,2.318-0.864c1,0,1.758,0.288,2.271,0.864
		c0.513,0.577,0.77,1.403,0.77,2.48v0.551h-1.976v-0.684c0-0.457-0.089-0.789-0.266-0.998c-0.178-0.209-0.437-0.313-0.779-0.313
		c-0.697,0-1.045,0.425-1.045,1.272c0,0.482,0.13,0.932,0.39,1.35c0.259,0.418,0.731,0.924,1.416,1.52
		c0.874,0.76,1.476,1.451,1.805,2.071c0.33,0.62,0.494,1.349,0.494,2.185c0,1.09-0.269,1.926-0.808,2.508
		c-0.538,0.584-1.32,0.875-2.346,0.875C99.377,45.584,98.611,45.295,98.091,44.719z"/>
</g>
<g>
	<path fill-rule="evenodd" clip-rule="evenodd" fill="#627D53" d="M61.771,172.079c-2.593-0.31-5.213-0.479-7.771-0.972
		c-2.187-0.421-4.323-1.15-6.441-1.862c-1.571-0.528-2.123-1.799-2.127-3.415c-0.005-1.623,0.564-2.955,2.13-3.407
		c3.014-0.87,6.084-1.55,9.142-2.266c0.77-0.181,1.578-0.197,2.642-0.685c-1.033-0.936-1.959-2.042-3.119-2.777
		c-3.843-2.432-7.778-4.719-11.665-7.082c-2.752-1.674-3.23-3.392-1.706-6.165c1.882-3.423,3.791-6.832,5.702-10.239
		c0.907-1.615,1.652-1.982,3.063-0.938c2.978,2.205,5.442,0.098,8.048-0.73c0.417-0.131,0.705-0.896,0.913-1.423
		c1.042-2.636,2.016-5.298,3.068-7.929c0.229-0.573,0.583-1.174,1.047-1.561c1.101-0.919,2.429-0.377,2.585,1.046
		c0.066,0.61-0.054,1.287-0.261,1.873c-1.073,3.023-2.118,6.063-3.36,9.017c-0.377,0.898-1.317,1.585-2.074,2.287
		c-0.336,0.313-0.857,0.424-1.293,0.628c-2.836,1.329-2.836,1.329-4.208,3.531c-1.27-1.342-1.11-3.661-3.179-4.448
		c0.701,1.577,1.501,3.118,2.072,4.741c0.472,1.343,1.348,1.839,2.646,1.842c3.044,0.008,6.088,0.003,9.452,0.003
		c-1.063-1.389-2.075-2.534-2.859-3.818c-0.338-0.555-0.536-1.713-0.218-2.049c0.792-0.84,1.506-0.107,2.071,0.617
		c3.364,4.306,6.733,8.607,10.103,12.908c0.559,0.713,1.113,1.493,0.115,2.191c-0.857,0.6-1.472-0.017-1.999-0.702
		c-1.078-1.4-2.25-2.734-3.248-4.188c-0.711-1.035-1.518-1.405-2.778-1.379c-4.018,0.085-8.039,0.055-12.058,0.015
		c-0.927-0.009-1.851-0.235-2.976-0.39c-0.663,0.527-0.751,1.1,0.21,1.852c2.445,1.916,4.765,3.996,7.25,5.855
		c2.039,1.527,3.624,3.359,4.485,5.728c0.549,1.509,1.532,1.814,3.005,1.985c3.653,0.422,7.326,0.9,10.891,1.768
		c2.022,0.492,3.921,1.671,5.739,2.767c1.573,0.948,1.504,2.048-0.006,3.135c-3.253,2.339-7.009,3.352-10.886,4.006
		c-1.469,0.248-2.951,0.423-4.427,0.631C66.918,172.079,64.345,172.079,61.771,172.079z"/>
	<path fill-rule="evenodd" clip-rule="evenodd" fill="#394730" d="M96.294,71.116c4.274,1.701,6.016,3.356,6.874,6.644
		c-6.644,2.574-12.16,6.875-17.37,11.656c-0.578,0.53-1.731,0.849-2.496,0.688c-2.696-0.567-5.003-4.472-4.288-7.174
		c1.557-5.891,5.678-9.231,11.262-11.049c0.804-0.262,1.613-0.51,2.42-0.765C93.895,71.116,95.094,71.116,96.294,71.116z"/>
	<path fill-rule="evenodd" clip-rule="evenodd" fill="#627D53" d="M102.708,71.552c4.109,1.183,7.303,3.653,10.447,6.194
		c0.981,0.793,1.848,1.725,2.799,2.557c2.462,2.156,3.906,4.816,4.199,8.105c0.743,8.349,0.169,16.489-3.897,24.041
		c-0.909,1.689-1.997,3.304-3.17,4.824c-1.947,2.521-5.101,3.358-8.055,2.314c-2.393-0.846-3.145-2.372-2.433-4.83
		c1.42-4.904,3.063-9.761,4.169-14.735c1.846-8.295,1.633-16.517-2.175-24.35c-0.577-1.188-1.338-2.286-1.998-3.435
		C102.545,72.153,102.629,71.992,102.708,71.552z"/>
	<path fill-rule="evenodd" clip-rule="evenodd" fill="#394730" d="M54.497,121.767c2.684,0.012,4.751,2.106,4.748,4.812
		c-0.003,2.683-2.098,4.815-4.753,4.84c-2.692,0.025-4.932-2.234-4.88-4.924C49.663,123.834,51.811,121.755,54.497,121.767z"/>
	
		<line fill-rule="evenodd" clip-rule="evenodd" fill="none" stroke="#394730" stroke-width="0.75" stroke-miterlimit="10" x1="82.343" y1="89.757" x2="64" y2="135.281"/>
	
		<line fill-rule="evenodd" clip-rule="evenodd" fill="none" stroke="#394730" stroke-width="0.75" stroke-miterlimit="10" x1="103.168" y1="118.495" x2="76.823" y2="149.959"/>
</g>
</svg>
