<?xml version="1.0" encoding="utf-8"?>
<!-- Generator: Adobe Illustrator 16.0.0, SVG Export Plug-In . SVG Version: 6.00 Build 0)  -->
<!DOCTYPE svg PUBLIC "-//W3C//DTD SVG 1.1//EN" "http://www.w3.org/Graphics/SVG/1.1/DTD/svg11.dtd">
<svg version="1.1" id="Layer_1" xmlns="http://www.w3.org/2000/svg" xmlns:xlink="http://www.w3.org/1999/xlink" x="0px" y="0px"
	 width="157px" height="179px" viewBox="0 0 157 179" enable-background="new 0 0 157 179" xml:space="preserve">
<rect x="1" y="1" fill-rule="evenodd" clip-rule="evenodd" fill="#FFFFFF" stroke="#627D53" stroke-width="2" stroke-miterlimit="10" width="155" height="177"/>
<rect x="2" y="1" fill-rule="evenodd" clip-rule="evenodd" fill="#627D53" width="155" height="56"/>
<g>
	<path fill="#FFFFFF" d="M41.572,13.987h2.983l1.33,9.519h0.038l1.33-9.519h2.983v13.3H48.26v-10.07h-0.038l-1.52,10.07h-1.748
		l-1.52-10.07h-0.038v10.07h-1.824V13.987z"/>
	<path fill="#FFFFFF" d="M53.409,13.987h2.831l2.166,13.3h-2.09l-0.38-2.641v0.037h-2.375l-0.38,2.604h-1.938L53.409,13.987z
		 M55.688,22.879l-0.931-6.574H54.72l-0.912,6.574H55.688z"/>
	<path fill="#FFFFFF" d="M59.412,13.987h3.097c1.077,0,1.862,0.25,2.356,0.751c0.494,0.5,0.741,1.27,0.741,2.308v0.817
		c0,1.381-0.456,2.254-1.368,2.622v0.038c0.506,0.152,0.865,0.463,1.074,0.931c0.209,0.469,0.313,1.096,0.313,1.881v2.337
		c0,0.381,0.012,0.688,0.038,0.922s0.089,0.465,0.19,0.693h-2.128c-0.076-0.215-0.126-0.418-0.152-0.607
		c-0.025-0.19-0.038-0.533-0.038-1.026v-2.433c0-0.607-0.098-1.031-0.294-1.272s-0.535-0.361-1.017-0.361h-0.722v5.7h-2.09V13.987z
		 M62.262,19.688c0.418,0,0.731-0.107,0.94-0.323s0.313-0.576,0.313-1.083v-1.026c0-0.481-0.085-0.829-0.256-1.045
		c-0.171-0.215-0.44-0.323-0.808-0.323h-0.95v3.801H62.262z"/>
	<path fill="#FFFFFF" d="M68.666,15.887H66.48v-1.899h6.46v1.899h-2.185v11.4h-2.09V15.887z"/>
	<path fill="#FFFFFF" d="M73.947,13.987h2.09v13.3h-2.09V13.987z"/>
	<path fill="#FFFFFF" d="M79.21,13.987h2.831l2.166,13.3h-2.09l-0.38-2.641v0.037h-2.375l-0.38,2.604h-1.938L79.21,13.987z
		 M81.49,22.879l-0.931-6.574h-0.038l-0.912,6.574H81.49z"/>
	<path fill="#FFFFFF" d="M85.214,13.987h2.09v11.399h3.439v1.9h-5.529V13.987z"/>
	<path fill="#FFFFFF" d="M96.404,13.987h2.831l2.166,13.3h-2.09l-0.38-2.641v0.037h-2.375l-0.38,2.604h-1.938L96.404,13.987z
		 M98.684,22.879l-0.931-6.574h-0.038l-0.912,6.574H98.684z"/>
	<path fill="#FFFFFF" d="M102.408,13.987h3.097c1.077,0,1.862,0.25,2.356,0.751c0.494,0.5,0.741,1.27,0.741,2.308v0.817
		c0,1.381-0.456,2.254-1.368,2.622v0.038c0.506,0.152,0.865,0.463,1.074,0.931c0.209,0.469,0.313,1.096,0.313,1.881v2.337
		c0,0.381,0.012,0.688,0.038,0.922s0.089,0.465,0.19,0.693h-2.128c-0.076-0.215-0.126-0.418-0.152-0.607
		c-0.025-0.19-0.038-0.533-0.038-1.026v-2.433c0-0.607-0.098-1.031-0.294-1.272s-0.535-0.361-1.017-0.361h-0.722v5.7h-2.09V13.987z
		 M105.258,19.688c0.418,0,0.731-0.107,0.94-0.323s0.313-0.576,0.313-1.083v-1.026c0-0.481-0.085-0.829-0.256-1.045
		c-0.171-0.215-0.44-0.323-0.808-0.323h-0.95v3.801H105.258z"/>
	<path fill="#FFFFFF" d="M111.661,15.887h-2.185v-1.899h6.46v1.899h-2.185v11.4h-2.09V15.887z"/>
	<path fill="#FFFFFF" d="M54.501,45.422c-0.526-0.57-0.789-1.374-0.789-2.413v-7.144c0-1.039,0.263-1.844,0.789-2.413
		c0.525-0.57,1.289-0.855,2.29-0.855c1,0,1.764,0.285,2.29,0.855c0.525,0.569,0.788,1.374,0.788,2.413v1.406h-1.976v-1.539
		c0-0.824-0.349-1.235-1.045-1.235c-0.696,0-1.045,0.411-1.045,1.235v7.429c0,0.811,0.349,1.216,1.045,1.216
		c0.697,0,1.045-0.405,1.045-1.216v-2.033h1.976v1.881c0,1.039-0.263,1.843-0.788,2.413c-0.526,0.57-1.289,0.855-2.29,0.855
		C55.79,46.277,55.026,45.992,54.501,45.422z"/>
	<path fill="#FFFFFF" d="M61.122,32.787h5.7v1.9h-3.61v3.515h2.869v1.899h-2.869v4.086h3.61v1.899h-5.7V32.787z"/>
	<path fill="#FFFFFF" d="M68.019,32.787h2.622l2.033,7.961h0.038v-7.961h1.862v13.3h-2.147l-2.508-9.709h-0.038v9.709h-1.862V32.787
		z"/>
	<path fill="#FFFFFF" d="M77.766,34.688h-2.185v-1.9h6.46v1.9h-2.185v11.399h-2.09V34.688z"/>
	<path fill="#FFFFFF" d="M83.048,32.787h5.7v1.9h-3.61v3.515h2.869v1.899h-2.869v4.086h3.61v1.899h-5.7V32.787z"/>
	<path fill="#FFFFFF" d="M89.945,32.787h3.097c1.077,0,1.862,0.25,2.356,0.75c0.494,0.501,0.741,1.271,0.741,2.309v0.817
		c0,1.38-0.456,2.255-1.368,2.622v0.037c0.506,0.152,0.865,0.463,1.074,0.932s0.313,1.096,0.313,1.881v2.337
		c0,0.38,0.012,0.688,0.038,0.922s0.089,0.466,0.19,0.693h-2.128c-0.076-0.216-0.126-0.418-0.152-0.608
		c-0.025-0.189-0.038-0.531-0.038-1.025v-2.432c0-0.608-0.098-1.033-0.294-1.273s-0.535-0.361-1.017-0.361h-0.722v5.7h-2.09V32.787z
		 M92.795,38.486c0.418,0,0.731-0.107,0.94-0.322s0.313-0.576,0.313-1.083v-1.026c0-0.48-0.085-0.829-0.256-1.045
		c-0.171-0.215-0.44-0.322-0.808-0.322h-0.95v3.799H92.795z"/>
	<path fill="#FFFFFF" d="M98.02,45.412c-0.52-0.576-0.779-1.402-0.779-2.479v-0.761h1.976v0.912c0,0.861,0.361,1.292,1.083,1.292
		c0.354,0,0.624-0.104,0.808-0.313c0.183-0.209,0.275-0.548,0.275-1.017c0-0.557-0.127-1.048-0.38-1.473
		c-0.254-0.424-0.722-0.934-1.406-1.529c-0.861-0.76-1.463-1.447-1.805-2.062c-0.342-0.614-0.513-1.308-0.513-2.081
		c0-1.051,0.266-1.864,0.798-2.441c0.532-0.576,1.305-0.864,2.318-0.864c1,0,1.758,0.288,2.271,0.864
		c0.513,0.577,0.77,1.403,0.77,2.48v0.551h-1.976v-0.684c0-0.457-0.089-0.789-0.266-0.998c-0.178-0.209-0.437-0.313-0.779-0.313
		c-0.697,0-1.045,0.425-1.045,1.272c0,0.482,0.13,0.932,0.39,1.35c0.259,0.418,0.731,0.924,1.416,1.52
		c0.874,0.76,1.476,1.451,1.805,2.071c0.33,0.62,0.494,1.349,0.494,2.185c0,1.09-0.269,1.926-0.808,2.508
		c-0.538,0.584-1.32,0.875-2.346,0.875C99.306,46.277,98.54,45.988,98.02,45.412z"/>
</g>
<g>
	<path fill-rule="evenodd" clip-rule="evenodd" fill="#627D53" d="M59.642,102.092c-0.045-0.197-0.091-0.397-0.136-0.596
		c0.389-0.167,0.764-0.396,1.17-0.489c4.053-0.93,8.184-0.811,12.297-0.805c2.11,0.003,3.872,1.805,4.104,3.909
		c0.218,1.975-1.062,4.051-3.064,4.601c-3.128,0.859-6.298,1.565-9.449,2.341c-0.579,0.143-1.153,0.306-1.81,0.481
		c0.177,1.884,0.339,3.603,0.511,5.423c7.657,0.695,14.843-0.805,21.842-3.432c0.373-0.139,0.718-0.939,0.703-1.42
		c-0.06-1.865-0.3-3.724-0.419-5.588c-0.256-4.017,0.657-5.262,4.574-6.25c0.842-0.212,1.707-0.43,2.566-0.457
		c4.977-0.165,9.955-0.27,14.932-0.411c0.694-0.021,1.385-0.142,1.663-0.172c-0.39-3.957-0.752-7.642-1.121-11.392
		c-0.686,0-1.423-0.064-2.147,0.011c-13.5,1.388-27,2.784-40.498,4.198c-7.637,0.8-13.334,6.937-13.628,14.633
		c-0.107,2.809,2.169,4.958,4.881,4.564c3.512-0.512,7.021-1.043,10.525-1.601c3.157-0.505,3.556-1.039,3.256-4.271
		c-0.057-0.615-0.201-1.229-0.366-1.827c-0.639-2.316-1.15-2.644-3.558-2.316c-0.74,0.102-1.476,0.239-2.216,0.331
		C62.717,101.747,61.179,101.915,59.642,102.092z M79.42,118.156c0.917,4.653,1.755,9.105,2.717,13.53
		c0.117,0.541,0.826,1.156,1.396,1.362c2.976,1.078,6.011,1.994,8.99,3.064c0.643,0.23,1.438,0.75,1.662,1.33
		c2.439,6.292,4.78,12.623,7.282,19.303c4.935-0.588,9.722-3.031,14.76-5.081c-2.836-7.651-5.957-14.88-11.112-21.037
		c-2.11-2.522-4.537-4.507-7.825-5.436c-3.105-0.876-6.086-2.181-9.164-3.166c-1.167-0.372-1.569-0.987-1.593-2.137
		c-0.025-1.223-0.208-2.439-0.337-3.825C83.732,116.825,81.497,117.516,79.42,118.156z M80.244,138.602
		c1.16-7.145-0.719-13.532-2.617-20.018c-1.493,0.271-2.764,0.504-4.161,0.758c-0.163,3.537-0.323,7.028-0.498,10.843
		c1.092-0.666,1.852-1.13,2.696-1.646c0.364,0.744,0.511,1.648,1.033,2.012c2.232,1.552,1.415,3.732,1.384,5.758
		c-0.007,0.472-0.137,0.942-0.216,1.455C78.629,138.033,79.264,138.256,80.244,138.602z M70.7,101.466
		c0.366,2.313,0.698,4.42,1.037,6.561c1.687-0.03,3.42-0.298,3.923-2.133c0.286-1.044,0.104-2.517-0.46-3.43
		C74.153,100.766,72.327,101.117,70.7,101.466z"/>
	<path fill-rule="evenodd" clip-rule="evenodd" fill="#627D53" d="M41.96,148.793c2.229-4.77,4.458-9.536,6.684-14.307
		c0.42-0.902,0.938-1.779,1.208-2.727c1-3.485,3.267-5.555,6.726-6.531c1.546-0.437,3.003-1.184,4.498-1.795
		c2.456-1.007,2.454-1.01,2.643-3.701c2.632,0,5.28,0,7.873,0c0,5.966,0,11.969,0,18.081c-0.916,0.21-1.676,0.385-2.64,0.606
		c0-2.064,0-3.963,0-6.44c-2.832,2.128-5.336,3.903-7.685,5.865c-0.484,0.404-0.404,1.498-0.555,2.281
		c-0.75,3.897-1.397,7.819-2.281,11.688c-0.321,1.406-1.193,2.688-1.866,4.14c-5.408-1.471-10.198-3.709-14.605-6.787
		C41.96,149.041,41.96,148.917,41.96,148.793z"/>
	<path fill-rule="evenodd" clip-rule="evenodd" fill="#627D53" d="M73.013,69.475c0.455,0.166,0.907,0.342,1.366,0.494
		c4.583,1.52,7.35,6.189,6.462,10.91c-0.869,4.623-5.032,7.879-9.857,7.713c-4.679-0.162-8.523-3.807-9.077-8.604
		c-0.523-4.524,2.54-8.922,7.068-10.157c0.354-0.097,0.697-0.235,1.045-0.355C71.018,69.475,72.015,69.475,73.013,69.475z"/>
	<path fill-rule="evenodd" clip-rule="evenodd" fill="#627D53" d="M120.153,91.549c-0.862,1.957-2.477,2.578-4.489,2.66
		c-1.917,0.076-3.829,0.307-5.784,0.473c-0.093-0.327-0.219-0.561-0.213-0.789c0.046-1.954,0.117-3.905,0.18-5.857
		c2.585-0.202,5.179-0.61,7.75-0.494c0.882,0.039,1.705,1.387,2.555,2.138C120.153,90.301,120.153,90.926,120.153,91.549z"/>
	<path fill-rule="evenodd" clip-rule="evenodd" fill="#627D53" d="M47.946,159.643c-3.997-1.509-5.375-3.945-4.104-7.321
		c3.133,1.404,6.264,2.808,9.436,4.229c-0.581,1.848-2.259,2.408-3.835,3.092C48.943,159.643,48.444,159.643,47.946,159.643z"/>
	<path fill-rule="evenodd" clip-rule="evenodd" fill="#627D53" d="M107.808,159.643c-0.989-0.58-1.978-1.158-3.308-1.938
		c3.451-1.246,6.479-2.34,9.536-3.443c0.158,2.585-0.892,3.973-3.984,5.381C109.304,159.643,108.556,159.643,107.808,159.643z"/>
	<path fill-rule="evenodd" clip-rule="evenodd" fill="#627D53" d="M59.642,102.092c1.537-0.177,3.076-0.345,4.612-0.533
		c0.741-0.092,1.476-0.229,2.216-0.331c2.408-0.327,2.919,0,3.558,2.316c0.165,0.598,0.309,1.212,0.366,1.827
		c0.3,3.231-0.099,3.766-3.256,4.271c-3.504,0.558-7.013,1.089-10.525,1.601c-2.712,0.394-4.989-1.756-4.881-4.564
		c0.294-7.696,5.991-13.833,13.628-14.633c13.498-1.414,26.998-2.811,40.498-4.198c0.724-0.075,1.462-0.011,2.147-0.011
		c0.369,3.75,0.731,7.435,1.121,11.392c-0.278,0.03-0.969,0.151-1.663,0.172c-4.977,0.142-9.955,0.246-14.932,0.411
		c-0.859,0.027-1.724,0.245-2.566,0.457c-3.917,0.988-4.83,2.233-4.574,6.25c0.119,1.864,0.359,3.723,0.419,5.588
		c0.015,0.48-0.331,1.281-0.703,1.42c-6.999,2.627-14.185,4.127-21.842,3.432c-0.172-1.82-0.333-3.539-0.511-5.423
		c0.657-0.176,1.231-0.339,1.81-0.481c3.151-0.775,6.321-1.481,9.449-2.341c2.002-0.55,3.282-2.626,3.064-4.601
		c-0.232-2.104-1.994-3.906-4.104-3.909c-4.113-0.006-8.244-0.125-12.297,0.805c-0.406,0.094-0.781,0.322-1.17,0.489
		C59.551,101.694,59.597,101.895,59.642,102.092z"/>
	<path fill-rule="evenodd" clip-rule="evenodd" fill="#627D53" d="M79.42,118.156c2.077-0.641,4.312-1.331,6.777-2.092
		c0.129,1.386,0.313,2.603,0.337,3.825c0.024,1.149,0.427,1.765,1.593,2.137c3.078,0.985,6.059,2.29,9.164,3.166
		c3.288,0.929,5.715,2.913,7.825,5.436c5.155,6.157,8.275,13.386,11.112,21.037c-5.039,2.05-9.826,4.493-14.76,5.081
		c-2.502-6.68-4.843-13.011-7.282-19.303c-0.225-0.58-1.019-1.1-1.662-1.33c-2.979-1.07-6.014-1.986-8.99-3.064
		c-0.57-0.206-1.279-0.821-1.396-1.362C81.175,127.262,80.337,122.81,79.42,118.156z"/>
	<path fill-rule="evenodd" clip-rule="evenodd" fill="#627D53" d="M80.244,138.602c-0.98-0.346-1.615-0.568-2.378-0.838
		c0.079-0.513,0.209-0.983,0.216-1.455c0.031-2.025,0.848-4.206-1.384-5.758c-0.522-0.363-0.669-1.268-1.033-2.012
		c-0.845,0.516-1.604,0.979-2.696,1.646c0.175-3.814,0.335-7.306,0.498-10.843c1.397-0.254,2.667-0.486,4.161-0.758
		C79.525,125.069,81.404,131.457,80.244,138.602z"/>
	<path fill-rule="evenodd" clip-rule="evenodd" fill="#627D53" d="M70.7,101.466c1.627-0.349,3.453-0.7,4.5,0.998
		c0.563,0.913,0.746,2.386,0.46,3.43c-0.503,1.835-2.236,2.103-3.923,2.133C71.398,105.886,71.066,103.779,70.7,101.466z"/>
</g>
</svg>
