<?xml version="1.0" encoding="utf-8"?>
<!-- Generator: Adobe Illustrator 16.0.0, SVG Export Plug-In . SVG Version: 6.00 Build 0)  -->
<!DOCTYPE svg PUBLIC "-//W3C//DTD SVG 1.1//EN" "http://www.w3.org/Graphics/SVG/1.1/DTD/svg11.dtd">
<svg version="1.1" id="Layer_1" xmlns="http://www.w3.org/2000/svg" xmlns:xlink="http://www.w3.org/1999/xlink" x="0px" y="0px"
	 width="157px" height="179px" viewBox="0 0 157 179" enable-background="new 0 0 157 179" xml:space="preserve">
<rect x="1" y="1" fill-rule="evenodd" clip-rule="evenodd" fill="#FFFFFF" stroke="#627D53" stroke-width="2" stroke-miterlimit="10" width="155" height="177"/>
<rect x="2" y="1" fill-rule="evenodd" clip-rule="evenodd" fill="#627D53" width="155" height="56"/>
<g>
	<path fill="#FFFFFF" d="M34.529,32.92c-0.52-0.577-0.779-1.403-0.779-2.48v-0.76h1.976v0.912c0,0.861,0.361,1.292,1.083,1.292
		c0.354,0,0.624-0.104,0.808-0.313c0.183-0.209,0.275-0.548,0.275-1.017c0-0.558-0.127-1.048-0.38-1.473
		c-0.254-0.424-0.722-0.934-1.406-1.529c-0.861-0.76-1.463-1.446-1.805-2.062c-0.342-0.614-0.513-1.308-0.513-2.08
		c0-1.052,0.266-1.865,0.798-2.441c0.532-0.576,1.305-0.865,2.318-0.865c1,0,1.758,0.289,2.271,0.865
		c0.513,0.576,0.77,1.402,0.77,2.479v0.551h-1.976v-0.684c0-0.455-0.089-0.788-0.266-0.997c-0.178-0.209-0.437-0.313-0.779-0.313
		c-0.697,0-1.045,0.424-1.045,1.273c0,0.48,0.13,0.93,0.39,1.349c0.259,0.418,0.731,0.925,1.416,1.52
		c0.874,0.761,1.476,1.45,1.805,2.071c0.33,0.621,0.494,1.35,0.494,2.186c0,1.089-0.269,1.925-0.808,2.508
		c-0.538,0.582-1.32,0.873-2.346,0.873C35.815,33.783,35.049,33.496,34.529,32.92z"/>
	<path fill="#FFFFFF" d="M41.179,20.294h2.622l2.033,7.961h0.038v-7.961h1.862v13.3h-2.147l-2.508-9.709h-0.038v9.709h-1.862V20.294
		z"/>
	<path fill="#FFFFFF" d="M49.957,32.91c-0.544-0.583-0.817-1.406-0.817-2.471v-6.992c0-1.063,0.272-1.887,0.817-2.47
		c0.544-0.582,1.33-0.874,2.356-0.874c1.026,0,1.812,0.292,2.356,0.874c0.545,0.583,0.817,1.406,0.817,2.47v6.992
		c0,1.064-0.272,1.888-0.817,2.471c-0.544,0.582-1.33,0.873-2.356,0.873C51.287,33.783,50.501,33.492,49.957,32.91z M53.396,30.572
		v-7.258c0-0.873-0.361-1.311-1.083-1.311c-0.722,0-1.083,0.438-1.083,1.311v7.258c0,0.875,0.361,1.312,1.083,1.312
		C53.035,31.884,53.396,31.447,53.396,30.572z"/>
	<path fill="#FFFFFF" d="M56.398,20.294h2.014l0.931,10.222h0.038l0.988-10.222h2.28l0.988,10.222h0.038l0.931-10.222h1.805
		l-1.349,13.3h-2.603l-0.95-8.968h-0.038l-0.95,8.968h-2.774L56.398,20.294z"/>
	<path fill="#FFFFFF" d="M67.475,20.294h3.154c1.076,0,1.862,0.25,2.356,0.751c0.494,0.5,0.741,1.27,0.741,2.308v0.532
		c0,0.684-0.111,1.242-0.333,1.672c-0.222,0.431-0.56,0.741-1.016,0.932v0.037c1.038,0.355,1.558,1.279,1.558,2.774v1.14
		c0,1.026-0.269,1.809-0.807,2.347c-0.539,0.538-1.327,0.808-2.366,0.808h-3.287V20.294z M70.382,25.709
		c0.418,0,0.731-0.107,0.94-0.323s0.313-0.576,0.313-1.083v-0.741c0-0.481-0.085-0.829-0.256-1.045
		c-0.171-0.215-0.44-0.323-0.808-0.323h-1.007v3.516H70.382z M70.762,31.693c0.367,0,0.64-0.098,0.817-0.294
		s0.266-0.535,0.266-1.017v-1.159c0-0.608-0.104-1.028-0.313-1.263s-0.554-0.352-1.036-0.352h-0.931v4.084H70.762z"/>
	<path fill="#FFFFFF" d="M75.816,32.91c-0.544-0.583-0.817-1.406-0.817-2.471v-6.992c0-1.063,0.272-1.887,0.817-2.47
		c0.544-0.582,1.33-0.874,2.356-0.874c1.026,0,1.812,0.292,2.356,0.874c0.545,0.583,0.817,1.406,0.817,2.47v6.992
		c0,1.064-0.272,1.888-0.817,2.471c-0.544,0.582-1.33,0.873-2.356,0.873C77.146,33.783,76.36,33.492,75.816,32.91z M79.255,30.572
		v-7.258c0-0.873-0.361-1.311-1.083-1.311c-0.722,0-1.083,0.438-1.083,1.311v7.258c0,0.875,0.361,1.312,1.083,1.312
		C78.894,31.884,79.255,31.447,79.255,30.572z"/>
	<path fill="#FFFFFF" d="M84.328,20.294h2.831l2.166,13.3h-2.09l-0.38-2.641v0.037H84.48l-0.38,2.604h-1.938L84.328,20.294z
		 M86.608,29.186l-0.931-6.574h-0.038l-0.912,6.574H86.608z"/>
	<path fill="#FFFFFF" d="M90.332,20.294h3.097c1.077,0,1.862,0.25,2.356,0.751c0.494,0.5,0.741,1.27,0.741,2.308v0.817
		c0,1.381-0.456,2.254-1.368,2.622v0.038c0.506,0.152,0.865,0.463,1.074,0.931c0.209,0.469,0.313,1.096,0.313,1.881v2.337
		c0,0.381,0.012,0.688,0.038,0.922s0.089,0.465,0.19,0.693h-2.128c-0.076-0.215-0.126-0.418-0.152-0.607
		c-0.025-0.19-0.038-0.533-0.038-1.026v-2.433c0-0.607-0.098-1.031-0.294-1.272s-0.535-0.361-1.017-0.361h-0.722v5.7h-2.09V20.294z
		 M93.182,25.994c0.418,0,0.731-0.107,0.94-0.323s0.313-0.576,0.313-1.083v-1.026c0-0.481-0.085-0.829-0.256-1.045
		c-0.171-0.215-0.44-0.323-0.808-0.323h-0.95v3.801H93.182z"/>
	<path fill="#FFFFFF" d="M97.989,20.294h3.192c1.038,0,1.817,0.278,2.337,0.836c0.519,0.558,0.779,1.374,0.779,2.45v6.727
		c0,1.076-0.26,1.895-0.779,2.451c-0.52,0.558-1.299,0.836-2.337,0.836h-3.192V20.294z M101.143,31.693
		c0.342,0,0.604-0.102,0.789-0.304c0.183-0.202,0.275-0.532,0.275-0.987v-6.916c0-0.457-0.092-0.785-0.275-0.988
		c-0.184-0.203-0.447-0.305-0.789-0.305h-1.064v9.5H101.143z"/>
	<path fill="#FFFFFF" d="M105.703,20.294h2.09v13.3h-2.09V20.294z"/>
	<path fill="#FFFFFF" d="M109.351,20.294h2.622l2.033,7.961h0.038v-7.961h1.862v13.3h-2.147l-2.508-9.709h-0.038v9.709h-1.862
		V20.294z"/>
	<path fill="#FFFFFF" d="M118.109,32.92c-0.532-0.577-0.798-1.403-0.798-2.48v-6.992c0-1.076,0.266-1.902,0.798-2.479
		c0.532-0.576,1.305-0.865,2.318-0.865c1.013,0,1.786,0.289,2.318,0.865c0.532,0.576,0.798,1.402,0.798,2.479v1.141h-1.976v-1.273
		c0-0.873-0.361-1.311-1.083-1.311c-0.722,0-1.083,0.438-1.083,1.311v7.277c0,0.861,0.361,1.292,1.083,1.292
		c0.722,0,1.083-0.431,1.083-1.292v-2.604h-1.045v-1.899h3.021v4.351c0,1.077-0.266,1.903-0.798,2.48
		c-0.532,0.576-1.305,0.863-2.318,0.863C119.414,33.783,118.642,33.496,118.109,32.92z"/>
</g>
<g>
	<path fill-rule="evenodd" clip-rule="evenodd" fill="#394730" d="M111.051,126.59c-16.978,12.116-33.863,24.381-50.872,36.448
		c-4.064,2.885-6.12,1.375-6.215,1.353c0,0,0,0-0.001,0c-4.72-3.204-4.685-7.949-0.125-11.211
		c6.778-4.849,13.543-9.716,20.314-14.574c10.464-7.509,20.925-15.024,31.396-22.522c3.949-2.828,7.36-1.733,9.246,2.916
		c0.043,0.107,0.17,0.176,0.258,0.263v2.378C114.339,123.86,112.857,125.301,111.051,126.59z"/>
	<path fill-rule="evenodd" clip-rule="evenodd" fill="#627D53" d="M41.799,101.425c0.779,2.517,2.573,3.482,4.895,3.855
		c7.346,1.18,14.646,1.023,21.598-1.857c3.202-1.326,5.045,0.441,7.146,1.688c-1.121,1.048-2.377,1.832-3.099,2.992
		c-0.964,1.553-0.56,3.275,0.413,4.823c2.546,4.046,5.067,8.108,7.34,11.75c-1.104,1.514-2.267,2.677-2.88,4.108
		c-0.38,0.887,0.075,2.18,0.187,3.734c4.335-3.117,8.209-5.902,12.193-8.765c-1.75-2.824-3.405-5.497-5.21-8.41
		c0.664-0.042,1.061-0.093,1.456-0.086c3.407,0.058,4.997-1.427,5.385-5.044c0.382-3.564-0.619-6.707-2.844-9.306
		c-1.651-1.929-3.56-3.607-5.283-5.329c2.917-2.953,6.023-5.87,8.869-9.052c2.083-2.329,3.93-4.928,5.694-7.549
		c2.434-3.613,1.775-6.066-1.942-8.074c-0.62,0-1.24,0-1.859,0c-1.082,1.112-2.361,2.075-3.21,3.36
		c-3.955,5.99-15.743,16.934-16.098,17.888c-8.675,9.285-9.737,10.035-17.593,7.273c-3.031-1.065-5.498-2.55-8.57-2.987
		c-3.67-0.523-4.712-0.229-6.587,3.005C41.799,100.104,41.799,100.765,41.799,101.425z"/>
	<path fill-rule="evenodd" clip-rule="evenodd" fill="#394730" d="M68.744,111.985c-3.012,0.584-6.199,1.059-9.316,1.85
		c-2.547,0.646-3.525,3.454-2.422,6.405c2.012,5.388,4.062,10.758,6.095,16.136c0.112,0.298,0.208,0.604,0.305,0.888
		c-3.506,2.542-4.151,4.244-2.54,7.137c2.809-2.017,5.612-4.024,8.41-6.041c2.886-2.08,2.879-2.082,1.537-5.598
		c-1.394-3.653-2.777-7.312-4.267-11.235c2.346-0.492,4.546-0.953,7.001-1.469C71.947,117.37,70.45,114.854,68.744,111.985z"/>
	<path fill-rule="evenodd" clip-rule="evenodd" fill="#627D53" d="M62.736,82.809c-4.261,0.061-7.642,3.766-7.548,8.271
		c0.092,4.398,3.61,7.998,7.757,7.936c4.258-0.064,7.571-3.732,7.502-8.31C70.381,86.215,66.996,82.748,62.736,82.809z"/>
</g>
</svg>
