<?xml version="1.0" encoding="utf-8"?>
<!-- Generator: Adobe Illustrator 16.0.0, SVG Export Plug-In . SVG Version: 6.00 Build 0)  -->
<!DOCTYPE svg PUBLIC "-//W3C//DTD SVG 1.1//EN" "http://www.w3.org/Graphics/SVG/1.1/DTD/svg11.dtd">
<svg version="1.1" id="Layer_1" xmlns="http://www.w3.org/2000/svg" xmlns:xlink="http://www.w3.org/1999/xlink" x="0px" y="0px"
	 width="156px" height="179px" viewBox="0 0 156 179" enable-background="new 0 0 156 179" xml:space="preserve">
<path fill-rule="evenodd" clip-rule="evenodd" d="M87.09,158.654"/>
<rect x="1" y="1" fill-rule="evenodd" clip-rule="evenodd" fill="#FFFFFF" stroke="#627D53" stroke-width="2" stroke-miterlimit="10" width="154" height="177"/>
<rect x="2" y="1" fill-rule="evenodd" clip-rule="evenodd" fill="#627D53" width="154" height="56"/>
<g>
	<path fill-rule="evenodd" clip-rule="evenodd" fill="#627D53" d="M119.117,153.246c-25.278,0-50.555,0-75.833,0
		c-1.922-0.117-3.844-0.28-5.768-0.344c-5.846-0.193-9.437-3.862-9.55-9.747c-0.074-3.859-0.218-7.717-0.33-11.575
		c0-10.832,0-21.667,0-32.5c0.073-0.856,0.197-1.713,0.214-2.57c0.069-3.468,0.036-6.938,0.171-10.403
		c0.189-4.849,4.076-8.604,8.892-8.771c1.591-0.055,3.178-0.212,4.767-0.323c25.545,0,51.09,0,76.635,0
		c2.256,0.105,4.515,0.324,6.769,0.29c3.671-0.055,6.155,1.779,8.032,4.698c0.461,0.717,0.835,1.487,1.249,2.233
		c0,20.597,0,41.193,0,61.79c-0.241,0.385-0.52,0.751-0.717,1.157c-1.819,3.747-4.61,5.891-8.966,5.748
		C122.832,152.869,120.972,153.132,119.117,153.246z M109.379,149.219c4.83,0,9.505,0.015,14.181-0.004
		c4.878-0.02,6.934-1.835,6.952-6.688c0.072-18.787,0.033-37.575,0.001-56.361c-0.004-2.374-2.065-4.852-4.431-4.923
		c-5.527-0.166-11.062-0.053-16.703-0.053C109.379,103.786,109.379,126.361,109.379,149.219z M52.833,149.187
		c0-22.816,0-45.419,0-68.075c-5.537,0-10.938-0.086-16.333,0.038c-2.608,0.06-4.763,2.724-4.763,5.497
		c-0.006,18.971-0.006,37.94,0,56.911c0.001,2.903,2.262,5.525,5.142,5.595C42.144,149.275,47.413,149.187,52.833,149.187z
		 M105.283,149.179c0-22.811,0-45.425,0-68.045c-7.536,0-14.928,0-22.338,0c0,5.84-0.03,11.572,0.066,17.304
		c0.006,0.404,0.893,0.982,1.468,1.158c7.426,2.268,11.886,8.06,11.838,15.469c-0.049,7.435-4.573,13.253-12.036,15.279
		c-1.239,0.336-1.563,0.851-1.549,2.045c0.057,4.678,0.023,9.357,0.023,14.037c0,0.901,0,1.804,0,2.753
		C90.429,149.179,97.773,149.179,105.283,149.179z M56.982,149.117c7.375,0,14.558,0,21.844,0c0-6.102,0-12.094,0-18.201
		c-0.632-0.178-1.26-0.365-1.894-0.53c-7.153-1.849-11.893-7.683-12.074-14.87c-0.186-7.395,4.097-13.58,11.284-15.62
		c2.346-0.665,3.027-1.62,2.832-3.901c-0.205-2.389-0.046-4.81-0.046-7.217c0-2.521,0-5.04,0-7.589c-7.462,0-14.695,0-21.947,0
		C56.982,103.875,56.982,126.397,56.982,149.117z M78.658,103.09c-6.737,1.695-10.718,7.155-9.997,13.209
		c0.648,5.436,5.408,10.357,9.997,10.295C78.658,118.823,78.658,111.052,78.658,103.09z M82.937,126.7
		c5.375-0.951,9.547-5.893,9.678-11.309c0.144-5.94-3.668-10.807-9.678-12.162C82.937,111.038,82.937,118.809,82.937,126.7z"/>
	<path fill-rule="evenodd" clip-rule="evenodd" fill="#627D53" d="M120.481,123.565c1.863,0,3.451,0,5.171,0
		c0,1.239,0,2.334,0,3.553c-2.97,0-5.865,0-8.866,0c0-8.001,0-15.913,0-23.973c2.93,0,5.827,0,8.863,0c0,1.112,0,2.215,0,3.583
		c-1.687,0-3.377,0-5.168,0C120.481,112.423,120.481,117.854,120.481,123.565z"/>
	<path fill-rule="evenodd" clip-rule="evenodd" fill="#627D53" d="M45.574,127.157c-3.033,0-5.945,0-8.972,0c0-1.173,0-2.267,0-3.57
		c1.746,0,3.45,0,5.272,0c0-5.642,0-11.078,0-16.737c-1.77,0-3.472,0-5.277,0c0-1.324,0-2.431,0-3.695c2.943,0,5.899,0,8.977,0
		C45.574,111.087,45.574,119.005,45.574,127.157z"/>
</g>
<g>
	<path fill="#FFFFFF" d="M41.176,22.609h2.09v5.415h2.242v-5.415h2.09v13.3h-2.09v-5.985h-2.242v5.985h-2.09V22.609z"/>
	<path fill="#FFFFFF" d="M49.821,35.225c-0.544-0.582-0.817-1.405-0.817-2.469v-6.992c0-1.064,0.272-1.888,0.817-2.471
		c0.544-0.582,1.33-0.874,2.356-0.874c1.026,0,1.812,0.292,2.356,0.874c0.545,0.583,0.817,1.406,0.817,2.471v6.992
		c0,1.063-0.272,1.887-0.817,2.469c-0.544,0.584-1.33,0.875-2.356,0.875C51.151,36.1,50.366,35.809,49.821,35.225z M53.26,32.889
		v-7.258c0-0.875-0.361-1.312-1.083-1.312c-0.722,0-1.083,0.437-1.083,1.312v7.258c0,0.873,0.361,1.311,1.083,1.311
		C52.899,34.199,53.26,33.762,53.26,32.889z"/>
	<path fill="#FFFFFF" d="M57.412,35.244c-0.526-0.57-0.789-1.374-0.789-2.413v-7.144c0-1.039,0.263-1.844,0.789-2.413
		c0.525-0.57,1.289-0.855,2.29-0.855c1,0,1.764,0.285,2.29,0.855c0.525,0.569,0.788,1.374,0.788,2.413v1.406h-1.976v-1.539
		c0-0.824-0.349-1.235-1.045-1.235c-0.696,0-1.045,0.411-1.045,1.235v7.429c0,0.811,0.349,1.216,1.045,1.216
		c0.697,0,1.045-0.405,1.045-1.216V30.95h1.976v1.881c0,1.039-0.263,1.843-0.788,2.413c-0.526,0.57-1.289,0.855-2.29,0.855
		C58.701,36.1,57.938,35.814,57.412,35.244z"/>
	<path fill="#FFFFFF" d="M64.033,22.609h2.09v5.605l2.66-5.605h2.09l-2.489,4.883l2.527,8.417h-2.185l-1.767-5.929l-0.836,1.691
		v4.237h-2.09V22.609z"/>
	<path fill="#FFFFFF" d="M71.899,22.609h5.7v1.9h-3.61v3.515h2.869v1.899h-2.869v4.086h3.61v1.899h-5.7V22.609z"/>
	<path fill="#FFFFFF" d="M80.715,30.247l-2.527-7.638h2.223l1.425,4.883h0.038l1.425-4.883h2.033l-2.527,7.638v5.662h-2.09V30.247z"
		/>
	<path fill="#FFFFFF" d="M89.321,22.609h3.097c1.077,0,1.862,0.25,2.356,0.75c0.494,0.501,0.741,1.271,0.741,2.309v0.817
		c0,1.38-0.456,2.255-1.368,2.622v0.037c0.506,0.152,0.865,0.463,1.074,0.932s0.313,1.096,0.313,1.881v2.337
		c0,0.38,0.012,0.688,0.038,0.922s0.089,0.466,0.19,0.693h-2.128c-0.076-0.216-0.126-0.418-0.152-0.608
		c-0.025-0.189-0.038-0.531-0.038-1.025v-2.432c0-0.608-0.098-1.033-0.294-1.273s-0.535-0.361-1.017-0.361h-0.722v5.7h-2.09V22.609z
		 M92.171,28.309c0.418,0,0.731-0.107,0.94-0.322s0.313-0.576,0.313-1.083v-1.026c0-0.48-0.085-0.829-0.256-1.045
		c-0.171-0.215-0.44-0.322-0.808-0.322h-0.95v3.799H92.171z"/>
	<path fill="#FFFFFF" d="M96.979,22.609h2.09v13.3h-2.09V22.609z"/>
	<path fill="#FFFFFF" d="M100.626,22.609h2.622l2.033,7.961h0.038v-7.961h1.862v13.3h-2.147l-2.508-9.709h-0.038v9.709h-1.862
		V22.609z"/>
	<path fill="#FFFFFF" d="M108.739,22.609h2.09v5.605l2.66-5.605h2.09l-2.489,4.883l2.527,8.417h-2.185l-1.767-5.929l-0.836,1.691
		v4.237h-2.09V22.609z"/>
	<path fill="#FFFFFF" d="M116.89,35.234c-0.52-0.576-0.779-1.402-0.779-2.479v-0.761h1.976v0.912c0,0.861,0.361,1.292,1.083,1.292
		c0.354,0,0.624-0.104,0.808-0.313c0.183-0.209,0.275-0.548,0.275-1.017c0-0.557-0.127-1.048-0.38-1.473
		c-0.254-0.424-0.722-0.934-1.406-1.529c-0.861-0.76-1.463-1.447-1.805-2.062c-0.342-0.614-0.513-1.308-0.513-2.081
		c0-1.051,0.266-1.864,0.798-2.441c0.532-0.576,1.305-0.864,2.318-0.864c1,0,1.758,0.288,2.271,0.864
		c0.513,0.577,0.77,1.403,0.77,2.48v0.551h-1.976v-0.684c0-0.457-0.089-0.789-0.266-0.998c-0.178-0.209-0.437-0.313-0.779-0.313
		c-0.697,0-1.045,0.425-1.045,1.272c0,0.482,0.13,0.932,0.39,1.35c0.259,0.418,0.731,0.924,1.416,1.52
		c0.874,0.76,1.476,1.451,1.805,2.071c0.33,0.62,0.494,1.349,0.494,2.185c0,1.09-0.269,1.926-0.808,2.508
		c-0.538,0.584-1.32,0.875-2.346,0.875C118.176,36.1,117.41,35.811,116.89,35.234z"/>
</g>
</svg>
