<?xml version="1.0" encoding="utf-8"?>
<!-- Generator: Adobe Illustrator 16.0.0, SVG Export Plug-In . SVG Version: 6.00 Build 0)  -->
<!DOCTYPE svg PUBLIC "-//W3C//DTD SVG 1.1//EN" "http://www.w3.org/Graphics/SVG/1.1/DTD/svg11.dtd">
<svg version="1.1" id="Layer_1" xmlns="http://www.w3.org/2000/svg" xmlns:xlink="http://www.w3.org/1999/xlink" x="0px" y="0px"
	 width="157px" height="179px" viewBox="0 0 157 179" enable-background="new 0 0 157 179" xml:space="preserve">
<rect x="1" y="1" fill-rule="evenodd" clip-rule="evenodd" fill="#FFFFFF" stroke="#627D53" stroke-width="2" stroke-miterlimit="10" width="155" height="177"/>
<rect x="2" y="1" fill-rule="evenodd" clip-rule="evenodd" fill="#627D53" width="155" height="56"/>
<g>
	<path fill-rule="evenodd" clip-rule="evenodd" fill="#FFFFFF" d="M106.862,109.969c0.157-11.911-1.128-16.222-5.028-23.881
		c-3.216-6.314-7.717-11.535-14.213-14.646c-9.906-4.746-19.505-3.495-28.718,2.007c-7.038,4.203-11.533,10.604-15.019,17.824
		c-5.181,10.736-4.56,21.017,2.346,30.852c3.542,5.043,7.844,9.371,12.354,13.515c3.765,3.457,7.761,6.679,10.824,10.841
		c1.229,1.673,2.517,3.306,3.809,4.933c2.774,3.491,5.822,6.672,9.989,8.531c5.397,2.408,11.042,2.517,16.752,1.666
		c1.812-0.269,3.628-0.735,5.347-1.37c8.65-3.2,12.483-10.293,10.591-19.341c-0.893-4.269-2.619-8.194-4.798-11.933
		c-1.978-3.389-3.588-6.897-3.832-10.881C107.077,115.019,106.959,111.947,106.862,109.969z"/>
	<path fill-rule="evenodd" clip-rule="evenodd" fill="#627D53" d="M106.862,109.969c0.097,1.979,0.215,5.05,0.402,8.117
		c0.243,3.983,1.854,7.492,3.832,10.881c2.18,3.738,3.906,7.664,4.798,11.933c1.892,9.048-1.941,16.141-10.591,19.341
		c-1.718,0.635-3.535,1.102-5.347,1.37c-5.709,0.851-11.355,0.742-16.752-1.666c-4.167-1.859-7.215-5.04-9.989-8.531
		c-1.292-1.627-2.579-3.26-3.809-4.933c-3.063-4.162-7.06-7.384-10.824-10.841c-4.51-4.144-8.812-8.472-12.354-13.515
		c-6.906-9.835-7.527-20.115-2.346-30.852c3.486-7.221,7.981-13.621,15.019-17.824c9.213-5.502,18.812-6.753,28.718-2.007
		c6.497,3.11,10.998,8.331,14.213,14.646C105.734,93.747,107.019,98.058,106.862,109.969z M103.173,109.988
		c0.023-0.003,0.048-0.004,0.071-0.006c0-1.27-0.017-2.539,0.002-3.808c0.127-7.995-2.271-15.226-6.673-21.821
		c-3.28-4.916-7.457-8.84-13.147-10.776c-8.593-2.922-16.551-1.192-23.886,3.805c-6.993,4.761-11.161,11.655-13.989,19.423
		c-2.719,7.469-1.733,14.614,2.41,21.326c2.681,4.343,6.057,8.132,9.71,11.673c1.602,1.552,3.181,3.143,4.911,4.544
		c5.282,4.281,9.46,9.538,13.553,14.896c2.326,3.044,4.938,5.865,8.562,7.377c6.57,2.744,13.252,2.502,19.802,0.046
		c6.453-2.421,9.17-7.642,7.939-14.444c-0.729-4.029-2.353-7.703-4.38-11.218c-2.208-3.826-4.05-7.783-4.367-12.274
		C103.488,115.818,103.345,112.902,103.173,109.988z"/>
	<path fill-rule="evenodd" clip-rule="evenodd" fill="#FFFFFF" d="M103.173,109.988c0.172,2.914,0.315,5.83,0.52,8.742
		c0.316,4.491,2.159,8.448,4.367,12.274c2.027,3.515,3.651,7.188,4.38,11.218c1.231,6.803-1.486,12.023-7.939,14.444
		c-6.55,2.456-13.232,2.698-19.802-0.046c-3.624-1.512-6.236-4.333-8.562-7.377c-4.093-5.358-8.271-10.615-13.553-14.896
		c-1.729-1.401-3.309-2.992-4.911-4.544c-3.654-3.541-7.03-7.33-9.71-11.673c-4.144-6.712-5.129-13.857-2.41-21.326
		c2.828-7.768,6.996-14.662,13.989-19.423c7.335-4.997,15.293-6.727,23.886-3.805c5.69,1.937,9.867,5.86,13.147,10.776
		c4.401,6.596,6.8,13.826,6.673,21.821c-0.02,1.269-0.002,2.538-0.002,3.808C103.221,109.984,103.196,109.985,103.173,109.988z
		 M101.373,109.399c0.361-6.87-0.495-12.74-3.094-18.313c-2.6-5.57-5.936-10.573-11.3-13.809
		c-7.884-4.759-15.904-4.198-23.833-0.046c-6.169,3.232-10.245,8.464-13.454,14.479c-2.122,3.979-3.622,8.139-3.836,12.695
		c-0.273,5.799,2.078,10.706,5.286,15.281c3.198,4.558,7.14,8.457,11.276,12.153c3.958,3.536,7.975,7.003,11.216,11.262
		c1.955,2.565,3.958,5.105,6.063,7.555c2.444,2.843,5.495,4.801,9.23,5.519c4.253,0.818,8.497,0.716,12.688-0.402
		c7.736-2.064,10.694-7.143,8.73-14.895c-0.906-3.576-2.52-6.842-4.379-10.002c-2.15-3.654-3.683-7.531-4.007-11.797
		C101.694,115.599,101.534,112.107,101.373,109.399z"/>
	<path fill-rule="evenodd" clip-rule="evenodd" fill="#627D53" d="M101.373,109.399c0.161,2.708,0.321,6.199,0.586,9.681
		c0.324,4.266,1.856,8.143,4.007,11.797c1.859,3.16,3.473,6.426,4.379,10.002c1.964,7.752-0.995,12.83-8.73,14.895
		c-4.191,1.118-8.435,1.221-12.688,0.402c-3.736-0.718-6.786-2.676-9.23-5.519c-2.104-2.449-4.108-4.989-6.063-7.555
		c-3.241-4.259-7.257-7.726-11.216-11.262c-4.136-3.696-8.079-7.596-11.276-12.153c-3.208-4.575-5.559-9.482-5.286-15.281
		c0.214-4.557,1.714-8.717,3.836-12.695c3.209-6.016,7.285-11.247,13.454-14.479c7.929-4.152,15.949-4.713,23.833,0.046
		c5.364,3.235,8.7,8.238,11.3,13.809C100.878,96.659,101.734,102.529,101.373,109.399z M77.347,83.409
		c-2.494,0.211-4.228,0.282-5.938,0.521c-3.756,0.52-7.41,1.422-10.65,3.506c-1.752,1.13-3.157,2.57-3.725,4.67
		c-0.698,2.588-0.152,4.441,1.996,5.714c3.25,1.924,6.634,2.415,10.025,0.29c3.956-2.478,7.876-2.508,11.802,0.052
		c1.03,0.671,2.053,1.36,3.127,1.957c1.65,0.915,2.839,0.641,3.405-1.105c0.787-2.428,1.533-4.94,1.764-7.466
		c0.324-3.537-1.414-5.947-4.842-6.906C81.819,83.942,79.195,83.722,77.347,83.409z M78.43,122.211
		c-0.476-2.244-0.784-4.54-1.468-6.717c-0.938-2.991-2.894-5.114-6.112-5.81c-3.836-0.829-9.388,1.406-11.505,4.637
		c-1.139,1.74-1.084,3.41,0.349,4.926c0.669,0.71,1.502,1.398,2.397,1.735c4.055,1.525,8.102,3.129,12.264,4.308
		C77.849,126.276,78.376,124.877,78.43,122.211z M98.044,146.081c-0.082-0.762-0.147-1.527-0.25-2.286
		c-0.376-2.803-0.392-2.813-3.123-2.414c-2.065,0.301-3.185-0.298-4.067-2.181c-0.162-0.348-0.282-0.714-0.446-1.06
		c-0.598-1.26-1.841-1.826-3.046-1.139c-0.736,0.422-1.466,1.172-1.789,1.946c-1.782,4.272,0.286,9.272,4.765,11.797
		C94.529,153.249,98.031,151.188,98.044,146.081z M89.248,122.369c0-3.318,0.001-6.541-0.002-9.767c0-0.497,0.042-1.014-0.072-1.489
		c-0.08-0.331-0.393-0.605-0.602-0.906c-0.186,0.323-0.455,0.627-0.536,0.975c-0.093,0.4-0.017,0.84-0.017,1.262
		c0,3.301,0,6.6,0,9.866c-2.042,1.125-2.713,2.255-2.306,3.806c0.358,1.363,1.582,2.289,2.975,2.25
		c1.328-0.034,2.54-1.024,2.822-2.303C91.854,124.497,91.155,123.345,89.248,122.369z M98.138,115.052
		c-2.77-1.331-5.254-2.524-7.858-3.776c0,2.643,0,5.068,0,7.671C92.899,117.648,95.374,116.422,98.138,115.052z"/>
	<path fill-rule="evenodd" clip-rule="evenodd" fill="#FFFFFF" d="M77.347,83.409c1.848,0.313,4.472,0.533,6.964,1.231
		c3.428,0.959,5.166,3.369,4.842,6.906c-0.231,2.525-0.977,5.038-1.764,7.466c-0.565,1.746-1.754,2.021-3.405,1.105
		c-1.074-0.597-2.097-1.286-3.127-1.957c-3.926-2.56-7.847-2.529-11.802-0.052c-3.391,2.125-6.775,1.634-10.025-0.29
		c-2.147-1.272-2.694-3.126-1.996-5.714c0.568-2.1,1.973-3.54,3.725-4.67c3.241-2.084,6.894-2.986,10.65-3.506
		C73.119,83.691,74.853,83.62,77.347,83.409z"/>
	<path fill-rule="evenodd" clip-rule="evenodd" fill="#FFFFFF" d="M78.43,122.211c-0.053,2.666-0.581,4.065-4.075,3.079
		c-4.162-1.179-8.208-2.782-12.264-4.308c-0.895-0.337-1.728-1.025-2.397-1.735c-1.433-1.516-1.488-3.186-0.349-4.926
		c2.117-3.23,7.668-5.466,11.505-4.637c3.218,0.695,5.174,2.818,6.112,5.81C77.646,117.671,77.954,119.967,78.43,122.211z"/>
	<path fill-rule="evenodd" clip-rule="evenodd" fill="#FFFFFF" d="M98.044,146.081c-0.014,5.106-3.515,7.168-7.957,4.664
		c-4.479-2.524-6.547-7.524-4.765-11.797c0.323-0.774,1.052-1.524,1.789-1.946c1.206-0.688,2.449-0.121,3.046,1.139
		c0.164,0.346,0.285,0.712,0.446,1.06c0.882,1.883,2.002,2.481,4.067,2.181c2.731-0.398,2.747-0.389,3.123,2.414
		C97.897,144.554,97.963,145.319,98.044,146.081z"/>
	<path fill-rule="evenodd" clip-rule="evenodd" fill="#FFFFFF" d="M89.248,122.369c1.907,0.976,2.606,2.128,2.262,3.693
		c-0.282,1.278-1.494,2.269-2.822,2.303c-1.393,0.039-2.616-0.887-2.975-2.25c-0.408-1.551,0.264-2.681,2.306-3.806
		c0-3.267,0-6.565,0-9.866c0-0.422-0.076-0.861,0.017-1.262c0.082-0.348,0.35-0.651,0.536-0.975
		c0.209,0.301,0.522,0.575,0.602,0.906c0.114,0.476,0.071,0.992,0.072,1.489C89.25,115.828,89.248,119.051,89.248,122.369z"/>
	<path fill-rule="evenodd" clip-rule="evenodd" fill="#FFFFFF" d="M98.138,115.052c-2.765,1.37-5.239,2.597-7.858,3.895
		c0-2.603,0-5.028,0-7.671C92.884,112.527,95.368,113.721,98.138,115.052z"/>
</g>
<g>
	<path fill="#FFFFFF" d="M38.937,35.234c-0.532-0.576-0.798-1.402-0.798-2.479v-6.992c0-1.077,0.266-1.903,0.798-2.48
		c0.532-0.576,1.305-0.864,2.318-0.864c1.013,0,1.786,0.288,2.318,0.864c0.532,0.577,0.798,1.403,0.798,2.48v1.14h-1.976v-1.272
		c0-0.875-0.361-1.312-1.083-1.312c-0.722,0-1.083,0.437-1.083,1.312v7.276c0,0.861,0.361,1.292,1.083,1.292
		c0.722,0,1.083-0.431,1.083-1.292v-2.603H41.35v-1.9h3.021v4.352c0,1.076-0.266,1.902-0.798,2.479
		c-0.532,0.576-1.305,0.865-2.318,0.865C40.242,36.1,39.469,35.811,38.937,35.234z"/>
	<path fill="#FFFFFF" d="M46.385,35.225c-0.544-0.582-0.817-1.405-0.817-2.469v-6.992c0-1.064,0.272-1.888,0.817-2.471
		c0.544-0.582,1.33-0.874,2.356-0.874c1.026,0,1.812,0.292,2.356,0.874c0.545,0.583,0.817,1.406,0.817,2.471v6.992
		c0,1.063-0.272,1.887-0.817,2.469c-0.544,0.584-1.33,0.875-2.356,0.875C47.715,36.1,46.929,35.809,46.385,35.225z M49.824,32.889
		v-7.258c0-0.875-0.361-1.312-1.083-1.312c-0.722,0-1.083,0.437-1.083,1.312v7.258c0,0.873,0.361,1.311,1.083,1.311
		C49.463,34.199,49.824,33.762,49.824,32.889z"/>
	<path fill="#FFFFFF" d="M53.32,22.609h2.09v11.4h3.439v1.899H53.32V22.609z"/>
	<path fill="#FFFFFF" d="M59.856,22.609h5.529v1.9h-3.439v3.705h2.698v1.899h-2.698v5.795h-2.09V22.609z"/>
	<path fill="#FFFFFF" d="M70.087,35.244c-0.526-0.57-0.789-1.374-0.789-2.413v-7.144c0-1.039,0.263-1.844,0.789-2.413
		c0.525-0.57,1.289-0.855,2.29-0.855c1,0,1.764,0.285,2.29,0.855c0.525,0.569,0.788,1.374,0.788,2.413v1.406h-1.976v-1.539
		c0-0.824-0.349-1.235-1.045-1.235c-0.696,0-1.045,0.411-1.045,1.235v7.429c0,0.811,0.349,1.216,1.045,1.216
		c0.697,0,1.045-0.405,1.045-1.216V30.95h1.976v1.881c0,1.039-0.263,1.843-0.788,2.413c-0.526,0.57-1.289,0.855-2.29,0.855
		C71.376,36.1,70.613,35.814,70.087,35.244z"/>
	<path fill="#FFFFFF" d="M77.412,35.225c-0.544-0.582-0.817-1.405-0.817-2.469v-6.992c0-1.064,0.272-1.888,0.817-2.471
		c0.544-0.582,1.33-0.874,2.356-0.874c1.026,0,1.812,0.292,2.356,0.874c0.545,0.583,0.817,1.406,0.817,2.471v6.992
		c0,1.063-0.272,1.887-0.817,2.469c-0.544,0.584-1.33,0.875-2.356,0.875C78.742,36.1,77.956,35.809,77.412,35.225z M80.851,32.889
		v-7.258c0-0.875-0.361-1.312-1.083-1.312c-0.722,0-1.083,0.437-1.083,1.312v7.258c0,0.873,0.361,1.311,1.083,1.311
		C80.49,34.199,80.851,33.762,80.851,32.889z"/>
	<path fill="#FFFFFF" d="M85.069,35.234c-0.532-0.576-0.798-1.402-0.798-2.479V22.609h2.09v10.298c0,0.456,0.092,0.786,0.275,0.987
		c0.184,0.203,0.447,0.305,0.789,0.305c0.342,0,0.605-0.102,0.789-0.305c0.184-0.201,0.275-0.531,0.275-0.987V22.609h2.014v10.146
		c0,1.076-0.266,1.902-0.798,2.479C89.173,35.811,88.4,36.1,87.387,36.1S85.601,35.811,85.069,35.234z"/>
	<path fill="#FFFFFF" d="M91.984,22.609h3.097c1.077,0,1.862,0.25,2.356,0.75c0.494,0.501,0.741,1.271,0.741,2.309v0.817
		c0,1.38-0.456,2.255-1.368,2.622v0.037c0.506,0.152,0.865,0.463,1.074,0.932s0.313,1.096,0.313,1.881v2.337
		c0,0.38,0.012,0.688,0.038,0.922s0.089,0.466,0.19,0.693h-2.128c-0.076-0.216-0.126-0.418-0.152-0.608
		c-0.025-0.189-0.038-0.531-0.038-1.025v-2.432c0-0.608-0.098-1.033-0.294-1.273s-0.535-0.361-1.017-0.361h-0.722v5.7h-2.09V22.609z
		 M94.834,28.309c0.418,0,0.731-0.107,0.94-0.322s0.313-0.576,0.313-1.083v-1.026c0-0.48-0.085-0.829-0.256-1.045
		c-0.171-0.215-0.44-0.322-0.808-0.322h-0.95v3.799H94.834z"/>
	<path fill="#FFFFFF" d="M100.06,35.234c-0.52-0.576-0.779-1.402-0.779-2.479v-0.761h1.976v0.912c0,0.861,0.361,1.292,1.083,1.292
		c0.354,0,0.624-0.104,0.808-0.313c0.183-0.209,0.275-0.548,0.275-1.017c0-0.557-0.127-1.048-0.38-1.473
		c-0.254-0.424-0.722-0.934-1.406-1.529c-0.861-0.76-1.463-1.447-1.805-2.062c-0.342-0.614-0.513-1.308-0.513-2.081
		c0-1.051,0.266-1.864,0.798-2.441c0.532-0.576,1.305-0.864,2.318-0.864c1,0,1.758,0.288,2.271,0.864
		c0.513,0.577,0.77,1.403,0.77,2.48v0.551h-1.976v-0.684c0-0.457-0.089-0.789-0.266-0.998c-0.178-0.209-0.437-0.313-0.779-0.313
		c-0.697,0-1.045,0.425-1.045,1.272c0,0.482,0.13,0.932,0.39,1.35c0.259,0.418,0.731,0.924,1.416,1.52
		c0.874,0.76,1.476,1.451,1.805,2.071c0.33,0.62,0.494,1.349,0.494,2.185c0,1.09-0.269,1.926-0.808,2.508
		c-0.538,0.584-1.32,0.875-2.346,0.875C101.345,36.1,100.579,35.811,100.06,35.234z"/>
	<path fill="#FFFFFF" d="M106.709,22.609h5.7v1.9h-3.61v3.515h2.869v1.899H108.8v4.086h3.61v1.899h-5.7V22.609z"/>
	<path fill="#FFFFFF" d="M114.063,35.234c-0.52-0.576-0.779-1.402-0.779-2.479v-0.761h1.976v0.912c0,0.861,0.361,1.292,1.083,1.292
		c0.354,0,0.624-0.104,0.808-0.313c0.183-0.209,0.275-0.548,0.275-1.017c0-0.557-0.127-1.048-0.38-1.473
		c-0.254-0.424-0.722-0.934-1.406-1.529c-0.861-0.76-1.463-1.447-1.805-2.062c-0.342-0.614-0.513-1.308-0.513-2.081
		c0-1.051,0.266-1.864,0.798-2.441c0.532-0.576,1.305-0.864,2.318-0.864c1,0,1.758,0.288,2.271,0.864
		c0.513,0.577,0.77,1.403,0.77,2.48v0.551h-1.976v-0.684c0-0.457-0.089-0.789-0.266-0.998c-0.178-0.209-0.437-0.313-0.779-0.313
		c-0.697,0-1.045,0.425-1.045,1.272c0,0.482,0.13,0.932,0.39,1.35c0.259,0.418,0.731,0.924,1.416,1.52
		c0.874,0.76,1.476,1.451,1.805,2.071c0.33,0.62,0.494,1.349,0.494,2.185c0,1.09-0.269,1.926-0.808,2.508
		c-0.538,0.584-1.32,0.875-2.346,0.875C115.348,36.1,114.582,35.811,114.063,35.234z"/>
</g>
</svg>
