<?xml version="1.0" encoding="utf-8"?>
<!-- Generator: Adobe Illustrator 16.0.0, SVG Export Plug-In . SVG Version: 6.00 Build 0)  -->
<!DOCTYPE svg PUBLIC "-//W3C//DTD SVG 1.1//EN" "http://www.w3.org/Graphics/SVG/1.1/DTD/svg11.dtd">
<svg version="1.1" id="Layer_1" xmlns="http://www.w3.org/2000/svg" xmlns:xlink="http://www.w3.org/1999/xlink" x="0px" y="0px"
	 width="157px" height="179px" viewBox="0 0 157 179" enable-background="new 0 0 157 179" xml:space="preserve">
<rect x="1" y="1" fill-rule="evenodd" clip-rule="evenodd" fill="#FFFFFF" stroke="#627D53" stroke-width="2" stroke-miterlimit="10" width="155" height="177"/>
<rect x="2" y="1" fill-rule="evenodd" clip-rule="evenodd" fill="#627D53" width="155" height="56"/>
<g>
	<path fill-rule="evenodd" clip-rule="evenodd" fill="#627D53" d="M38.175,81.354c3.122-1.598,6.445-1.8,9.891-1.718
		c9.354,0.224,18.711,0.284,28.066,0.415c0.802,0.009,1.605,0.056,2.181,0.077c-0.076,6.333-0.151,12.552-0.227,18.831
		c-10.113,3.043-15.065,8.654-14.944,17.205c0.092,6.551,3.901,14.503,14.691,16.729c-0.068,6.286-0.138,12.543-0.207,18.724
		c-11.489-0.102-23.043-0.009-34.581-0.386c-6.11-0.2-10.344-5.277-10.365-11.443c-0.01-2.423,0.049-4.848,0.08-7.646
		c2.679,0.12,5.107,0.226,7.535,0.339c2.431,0.111,4.861,0.23,7.028,0.335c0.151-11.653,0.296-22.915,0.443-34.438
		c-4.507,0.038-9.373,0.079-14.502,0.121c0.116-5.13-0.645-10.005,2.112-14.419C36.31,83.17,37.243,82.261,38.175,81.354z"/>
	<path fill-rule="evenodd" clip-rule="evenodd" fill="#627D53" d="M82.17,132.876c9.59-1.52,14.597-8.647,15.027-15.962
		c0.51-8.672-4.496-14.761-14.417-17.854c0.094-6.284,0.189-12.508,0.289-19.085c3.749,0.104,7.8,0.249,11.853,0.318
		c6.996,0.122,13.993,0.17,20.989,0.298c7.238,0.131,11.815,4.858,11.777,12.07c-0.011,2.192,0.03,4.388,0.045,6.678
		c-5.139-0.158-10.063-0.312-14.742-0.454c-0.155,11.805-0.302,23.007-0.447,34.155c4.485,0.024,9.408,0.05,14.607,0.077
		c-0.379,5.64,1.035,10.891-2.893,15.241c-2.191,2.426-4.853,3.947-8.093,3.917c-11.467-0.098-22.933-0.343-34.293-0.531
		C81.968,145.52,82.068,139.272,82.17,132.876z"/>
	<path fill-rule="evenodd" clip-rule="evenodd" fill="#627D53" d="M126.56,129.58c-3.141-0.036-6.704-0.077-10.104-0.115
		c0.182-8.623,0.362-17.271,0.543-25.905c3.003,0.109,6.608,0.243,9.903,0.362C126.793,112.181,126.677,120.835,126.56,129.58z"/>
	<path fill-rule="evenodd" clip-rule="evenodd" fill="#627D53" d="M43.652,128.259c-3.45-0.066-7.079-0.14-10.448-0.206
		c0.128-8.342,0.261-17.008,0.393-25.626c3.402,0.098,7.024,0.2,10.413,0.298C43.891,111.087,43.771,119.751,43.652,128.259z"/>
	<path fill-rule="evenodd" clip-rule="evenodd" fill="#627D53" d="M82.354,128.793c0.134-8.477,0.27-16.982,0.407-25.479
		c5.252,0.2,10.282,5.742,10.583,12.116C93.656,122.119,88.805,127.925,82.354,128.793z"/>
	<path fill-rule="evenodd" clip-rule="evenodd" fill="#627D53" d="M77.978,103.158c-0.117,8.588-0.232,17.097-0.347,25.565
		c-6.138-0.996-10.707-6.451-10.625-12.921C67.088,109.326,71.807,103.979,77.978,103.158z"/>
</g>
<g>
	<path fill="#FFFFFF" d="M33.392,35.234c-0.52-0.576-0.779-1.402-0.779-2.479v-0.761h1.976v0.912c0,0.861,0.361,1.292,1.083,1.292
		c0.354,0,0.624-0.104,0.808-0.313c0.183-0.209,0.275-0.548,0.275-1.017c0-0.557-0.127-1.048-0.38-1.473
		c-0.254-0.424-0.722-0.934-1.406-1.529c-0.861-0.76-1.463-1.447-1.805-2.062c-0.342-0.614-0.513-1.308-0.513-2.081
		c0-1.051,0.266-1.864,0.798-2.441c0.532-0.576,1.305-0.864,2.318-0.864c1,0,1.758,0.288,2.271,0.864
		c0.513,0.577,0.77,1.403,0.77,2.48v0.551h-1.976v-0.684c0-0.457-0.089-0.789-0.266-0.998c-0.178-0.209-0.437-0.313-0.779-0.313
		c-0.697,0-1.045,0.425-1.045,1.272c0,0.482,0.13,0.932,0.39,1.35c0.259,0.418,0.731,0.924,1.416,1.52
		c0.874,0.76,1.476,1.451,1.805,2.071c0.33,0.62,0.494,1.349,0.494,2.185c0,1.09-0.269,1.926-0.808,2.508
		c-0.538,0.584-1.32,0.875-2.346,0.875C34.678,36.1,33.912,35.811,33.392,35.234z"/>
	<path fill="#FFFFFF" d="M40.698,35.244c-0.526-0.57-0.789-1.374-0.789-2.413v-7.144c0-1.039,0.263-1.844,0.789-2.413
		c0.525-0.57,1.289-0.855,2.29-0.855c1,0,1.764,0.285,2.29,0.855c0.525,0.569,0.788,1.374,0.788,2.413v1.406h-1.976v-1.539
		c0-0.824-0.349-1.235-1.045-1.235c-0.696,0-1.045,0.411-1.045,1.235v7.429c0,0.811,0.349,1.216,1.045,1.216
		c0.697,0,1.045-0.405,1.045-1.216V30.95h1.976v1.881c0,1.039-0.263,1.843-0.788,2.413c-0.526,0.57-1.289,0.855-2.29,0.855
		C41.986,36.1,41.223,35.814,40.698,35.244z"/>
	<path fill="#FFFFFF" d="M48.022,35.225c-0.544-0.582-0.817-1.405-0.817-2.469v-6.992c0-1.064,0.272-1.888,0.817-2.471
		c0.544-0.582,1.33-0.874,2.356-0.874c1.026,0,1.812,0.292,2.356,0.874c0.545,0.583,0.817,1.406,0.817,2.471v6.992
		c0,1.063-0.272,1.887-0.817,2.469c-0.544,0.584-1.33,0.875-2.356,0.875C49.352,36.1,48.566,35.809,48.022,35.225z M51.461,32.889
		v-7.258c0-0.875-0.361-1.312-1.083-1.312c-0.722,0-1.083,0.437-1.083,1.312v7.258c0,0.873,0.361,1.311,1.083,1.311
		C51.1,34.199,51.461,33.762,51.461,32.889z"/>
	<path fill="#FFFFFF" d="M55.613,35.244c-0.526-0.57-0.789-1.374-0.789-2.413v-7.144c0-1.039,0.263-1.844,0.789-2.413
		c0.525-0.57,1.289-0.855,2.29-0.855c1,0,1.764,0.285,2.29,0.855c0.525,0.569,0.788,1.374,0.788,2.413v1.406h-1.976v-1.539
		c0-0.824-0.349-1.235-1.045-1.235c-0.696,0-1.045,0.411-1.045,1.235v7.429c0,0.811,0.349,1.216,1.045,1.216
		c0.697,0,1.045-0.405,1.045-1.216V30.95h1.976v1.881c0,1.039-0.263,1.843-0.788,2.413c-0.526,0.57-1.289,0.855-2.29,0.855
		C56.901,36.1,56.138,35.814,55.613,35.244z"/>
	<path fill="#FFFFFF" d="M62.928,35.244c-0.526-0.57-0.789-1.374-0.789-2.413v-7.144c0-1.039,0.263-1.844,0.789-2.413
		c0.525-0.57,1.289-0.855,2.29-0.855c1,0,1.764,0.285,2.29,0.855c0.525,0.569,0.788,1.374,0.788,2.413v1.406h-1.976v-1.539
		c0-0.824-0.349-1.235-1.045-1.235c-0.696,0-1.045,0.411-1.045,1.235v7.429c0,0.811,0.349,1.216,1.045,1.216
		c0.697,0,1.045-0.405,1.045-1.216V30.95h1.976v1.881c0,1.039-0.263,1.843-0.788,2.413c-0.526,0.57-1.289,0.855-2.29,0.855
		C64.216,36.1,63.453,35.814,62.928,35.244z"/>
	<path fill="#FFFFFF" d="M69.549,22.609h5.7v1.9h-3.61v3.515h2.869v1.899h-2.869v4.086h3.61v1.899h-5.7V22.609z"/>
	<path fill="#FFFFFF" d="M76.446,22.609h3.097c1.077,0,1.862,0.25,2.356,0.75c0.494,0.501,0.741,1.271,0.741,2.309v0.817
		c0,1.38-0.456,2.255-1.368,2.622v0.037c0.506,0.152,0.865,0.463,1.074,0.932s0.313,1.096,0.313,1.881v2.337
		c0,0.38,0.012,0.688,0.038,0.922s0.089,0.466,0.19,0.693h-2.128c-0.076-0.216-0.126-0.418-0.152-0.608
		c-0.025-0.189-0.038-0.531-0.038-1.025v-2.432c0-0.608-0.098-1.033-0.294-1.273s-0.535-0.361-1.017-0.361h-0.722v5.7h-2.09V22.609z
		 M79.296,28.309c0.418,0,0.731-0.107,0.94-0.322s0.313-0.576,0.313-1.083v-1.026c0-0.48-0.085-0.829-0.256-1.045
		c-0.171-0.215-0.44-0.322-0.808-0.322h-0.95v3.799H79.296z"/>
	<path fill="#FFFFFF" d="M87.143,22.609h5.529v1.9h-3.439v3.705h2.698v1.899h-2.698v5.795h-2.09V22.609z"/>
	<path fill="#FFFFFF" d="M93.678,22.609h2.09v13.3h-2.09V22.609z"/>
	<path fill="#FFFFFF" d="M97.326,22.609h5.7v1.9h-3.61v3.515h2.869v1.899h-2.869v4.086h3.61v1.899h-5.7V22.609z"/>
	<path fill="#FFFFFF" d="M104.223,22.609h2.09v11.4h3.439v1.899h-5.529V22.609z"/>
	<path fill="#FFFFFF" d="M110.759,22.609h3.192c1.038,0,1.817,0.279,2.337,0.836c0.519,0.558,0.779,1.375,0.779,2.451v6.726
		c0,1.077-0.26,1.894-0.779,2.451c-0.52,0.558-1.299,0.836-2.337,0.836h-3.192V22.609z M113.914,34.01
		c0.342,0,0.604-0.102,0.789-0.305c0.183-0.202,0.275-0.531,0.275-0.988v-6.916c0-0.455-0.092-0.785-0.275-0.988
		c-0.184-0.201-0.447-0.303-0.789-0.303h-1.064v9.5H113.914z"/>
	<path fill="#FFFFFF" d="M118.891,35.234c-0.52-0.576-0.779-1.402-0.779-2.479v-0.761h1.976v0.912c0,0.861,0.361,1.292,1.083,1.292
		c0.354,0,0.624-0.104,0.808-0.313c0.183-0.209,0.275-0.548,0.275-1.017c0-0.557-0.127-1.048-0.38-1.473
		c-0.254-0.424-0.722-0.934-1.406-1.529c-0.861-0.76-1.463-1.447-1.805-2.062c-0.342-0.614-0.513-1.308-0.513-2.081
		c0-1.051,0.266-1.864,0.798-2.441c0.532-0.576,1.305-0.864,2.318-0.864c1,0,1.758,0.288,2.271,0.864
		c0.513,0.577,0.77,1.403,0.77,2.48v0.551h-1.976v-0.684c0-0.457-0.089-0.789-0.266-0.998c-0.178-0.209-0.437-0.313-0.779-0.313
		c-0.697,0-1.045,0.425-1.045,1.272c0,0.482,0.13,0.932,0.39,1.35c0.259,0.418,0.731,0.924,1.416,1.52
		c0.874,0.76,1.476,1.451,1.805,2.071c0.33,0.62,0.494,1.349,0.494,2.185c0,1.09-0.269,1.926-0.808,2.508
		c-0.538,0.584-1.32,0.875-2.346,0.875C120.177,36.1,119.411,35.811,118.891,35.234z"/>
</g>
</svg>
