<?xml version="1.0" encoding="utf-8"?>
<!-- Generator: Adobe Illustrator 16.0.0, SVG Export Plug-In . SVG Version: 6.00 Build 0)  -->
<!DOCTYPE svg PUBLIC "-//W3C//DTD SVG 1.1//EN" "http://www.w3.org/Graphics/SVG/1.1/DTD/svg11.dtd">
<svg version="1.1" id="Layer_1" xmlns="http://www.w3.org/2000/svg" xmlns:xlink="http://www.w3.org/1999/xlink" x="0px" y="0px"
	 width="157px" height="179px" viewBox="0 0 157 179" enable-background="new 0 0 157 179" xml:space="preserve">
<rect x="1" y="1" fill-rule="evenodd" clip-rule="evenodd" fill="#FFFFFF" stroke="#627D53" stroke-width="2" stroke-miterlimit="10" width="155" height="177"/>
<rect x="2" y="1" fill-rule="evenodd" clip-rule="evenodd" fill="#627D53" width="155" height="56"/>
<g>
	<path fill-rule="evenodd" clip-rule="evenodd" fill="#627D53" d="M57.631,103.64c3.247,2.27,6.356,4.363,9.357,6.601
		c0.771,0.573,1.802,1.694,1.692,2.41c-1.25,8.079,2.322,15.215,4.377,22.621c2.02,7.277,4.393,14.459,6.525,21.709
		c1.018,3.458,0.266,5.39-2.345,6.796c-3.372,1.813-6.595,0.594-8.47-3.252c-4.82-9.89-9.236-19.995-14.533-29.627
		c-5.563-10.115-6.588-21.053-7.524-32.095c-0.377-4.443,1.267-8.197,5.343-10.384c4.25-2.281,8.434-1.722,12.214,1.227
		c3.5,2.729,6.959,5.512,10.35,8.371c1.332,1.123,2.407,1.238,3.939,0.319c3.298-1.98,6.721-3.761,10.101-5.609
		c2.722-1.487,5.045-1.098,6.54,1.069c1.539,2.23,1.018,4.094-1.752,6.132c-4.768,3.511-9.574,6.971-14.305,10.526
		c-2.2,1.651-4.256,1.747-6.499,0.122c-3.517-2.549-7.148-4.938-10.618-7.545C60.368,101.786,59.106,101.762,57.631,103.64z"/>
	<path fill-rule="evenodd" clip-rule="evenodd" fill="#627D53" d="M74.197,76.168c-0.038,5.436-4.308,9.601-9.824,9.586
		c-5.386-0.016-9.863-4.454-9.796-9.712c0.067-5.31,4.569-9.671,9.928-9.616C69.978,66.479,74.235,70.761,74.197,76.168z"/>
	<path fill-rule="evenodd" clip-rule="evenodd" fill="#627D53" d="M50.74,131.924c2.79,5.741,5.226,10.65,7.53,15.619
		c0.316,0.682,0.209,1.749-0.089,2.484c-1.51,3.73-3.073,7.444-4.766,11.095c-1.437,3.098-4.384,4.246-7.336,3.073
		c-2.993-1.188-4.184-3.612-3.174-6.949C45.376,149.085,47.94,140.951,50.74,131.924z"/>
	<path fill-rule="evenodd" clip-rule="evenodd" fill="#394730" d="M92.042,87.71c0.321-0.573,0.652-1.876,1.492-2.457
		c0.873-0.604,3.164-0.877,3.249-0.666c1.357,3.365,4.212,1.816,6.336,1.857c8.02,0.153,16.047,0.076,24.067-0.061
		c1.06-0.018,2.084-0.93,3.164-1.322c0.771-0.281,2-0.803,2.341-0.49c0.98,0.904,1.694,2.135,2.336,3.33
		c0.224,0.42-0.068,1.107-0.151,1.933c-6.47,0-12.785-0.017-19.099,0.014c-1.47,0.007-3.318-0.58-3.633,1.807
		c-0.019,0.141-0.25,0.357-0.395,0.368c-4.236,0.314-8.471,0.632-12.71,0.86c-0.344,0.017-0.697-0.631-1.087-0.916
		C96.029,90.568,94.094,89.186,92.042,87.71z"/>
	<path fill-rule="evenodd" clip-rule="evenodd" fill="#394730" d="M67.47,87.784c7.566-0.117,14.366-0.661,21.143,0.012
		c0.065,0.358,0.131,0.717,0.197,1.073c-3.736,2.034-7.454,4.101-11.232,6.051c-0.434,0.224-1.361-0.021-1.806-0.368
		C73.172,92.521,70.647,90.394,67.47,87.784z"/>
	<path fill-rule="evenodd" clip-rule="evenodd" fill="#627D53" d="M106.904,95.584c-2.019,5.928-7.688,5.051-10.76,7.328
		c1.064-1.886,2.166-4.046,3.496-6.06c0.375-0.569,1.39-0.895,2.158-1.003C103.246,95.646,104.728,95.68,106.904,95.584z"/>
</g>
<g>
	<path fill="#FFFFFF" d="M43.498,22.796h3.097c1.077,0,1.862,0.25,2.356,0.751c0.494,0.5,0.741,1.27,0.741,2.308v0.817
		c0,1.381-0.456,2.254-1.368,2.622v0.038c0.506,0.152,0.865,0.463,1.074,0.931c0.209,0.469,0.313,1.096,0.313,1.881v2.337
		c0,0.381,0.012,0.688,0.038,0.922s0.089,0.465,0.19,0.693h-2.128c-0.076-0.215-0.126-0.418-0.152-0.607
		c-0.025-0.19-0.038-0.533-0.038-1.026v-2.433c0-0.607-0.098-1.031-0.294-1.272s-0.535-0.361-1.017-0.361h-0.722v5.7h-2.09V22.796z
		 M46.348,28.496c0.418,0,0.731-0.107,0.94-0.323s0.313-0.576,0.313-1.083v-1.026c0-0.481-0.085-0.829-0.256-1.045
		c-0.171-0.215-0.44-0.323-0.808-0.323h-0.95v3.801H46.348z"/>
	<path fill="#FFFFFF" d="M51.155,22.796h2.09v13.3h-2.09V22.796z"/>
	<path fill="#FFFFFF" d="M54.803,22.796h5.529v1.899h-3.439V28.4h2.698v1.9h-2.698v5.795h-2.09V22.796z"/>
	<path fill="#FFFFFF" d="M61.338,22.796h2.09v11.399h3.439v1.9h-5.529V22.796z"/>
	<path fill="#FFFFFF" d="M67.875,22.796h5.7v1.899h-3.61v3.516h2.869v1.9h-2.869v4.084h3.61v1.9h-5.7V22.796z"/>
	<path fill="#FFFFFF" d="M77.811,22.796h3.097c1.077,0,1.862,0.25,2.356,0.751c0.494,0.5,0.741,1.27,0.741,2.308v0.817
		c0,1.381-0.456,2.254-1.368,2.622v0.038c0.506,0.152,0.865,0.463,1.074,0.931c0.209,0.469,0.313,1.096,0.313,1.881v2.337
		c0,0.381,0.012,0.688,0.038,0.922s0.089,0.465,0.19,0.693h-2.128c-0.076-0.215-0.126-0.418-0.152-0.607
		c-0.025-0.19-0.038-0.533-0.038-1.026v-2.433c0-0.607-0.098-1.031-0.294-1.272s-0.535-0.361-1.017-0.361h-0.722v5.7h-2.09V22.796z
		 M80.661,28.496c0.418,0,0.731-0.107,0.94-0.323s0.313-0.576,0.313-1.083v-1.026c0-0.481-0.085-0.829-0.256-1.045
		c-0.171-0.215-0.44-0.323-0.808-0.323h-0.95v3.801H80.661z"/>
	<path fill="#FFFFFF" d="M87.083,22.796h2.831l2.166,13.3h-2.09l-0.38-2.641v0.037h-2.375l-0.38,2.604h-1.938L87.083,22.796z
		 M89.363,31.688l-0.931-6.574h-0.038l-0.912,6.574H89.363z"/>
	<path fill="#FFFFFF" d="M93.087,22.796h2.622l2.033,7.961h0.038v-7.961h1.862v13.3h-2.147l-2.508-9.709h-0.038v9.709h-1.862V22.796
		z"/>
	<path fill="#FFFFFF" d="M101.846,35.422c-0.532-0.577-0.798-1.403-0.798-2.48v-6.992c0-1.076,0.266-1.902,0.798-2.479
		c0.532-0.576,1.305-0.865,2.318-0.865c1.013,0,1.786,0.289,2.318,0.865c0.532,0.576,0.798,1.402,0.798,2.479v1.141h-1.976v-1.273
		c0-0.873-0.361-1.311-1.083-1.311c-0.722,0-1.083,0.438-1.083,1.311v7.277c0,0.861,0.361,1.292,1.083,1.292
		c0.722,0,1.083-0.431,1.083-1.292V30.49h-1.045v-1.899h3.021v4.351c0,1.077-0.266,1.903-0.798,2.48
		c-0.532,0.576-1.305,0.863-2.318,0.863C103.15,36.285,102.378,35.998,101.846,35.422z"/>
	<path fill="#FFFFFF" d="M108.628,22.796h5.7v1.899h-3.61v3.516h2.869v1.9h-2.869v4.084h3.61v1.9h-5.7V22.796z"/>
	<path fill="#FFFFFF" d="M115.981,35.422c-0.52-0.577-0.779-1.403-0.779-2.48v-0.76h1.976v0.912c0,0.861,0.361,1.292,1.083,1.292
		c0.354,0,0.624-0.104,0.808-0.313c0.183-0.209,0.275-0.548,0.275-1.017c0-0.558-0.127-1.048-0.38-1.473
		c-0.254-0.424-0.722-0.934-1.406-1.529c-0.861-0.76-1.463-1.446-1.805-2.062c-0.342-0.614-0.513-1.308-0.513-2.08
		c0-1.052,0.266-1.865,0.798-2.441c0.532-0.576,1.305-0.865,2.318-0.865c1,0,1.758,0.289,2.271,0.865
		c0.513,0.576,0.77,1.402,0.77,2.479V26.5h-1.976v-0.684c0-0.455-0.089-0.788-0.266-0.997c-0.178-0.209-0.437-0.313-0.779-0.313
		c-0.697,0-1.045,0.424-1.045,1.273c0,0.48,0.13,0.93,0.39,1.349c0.259,0.418,0.731,0.925,1.416,1.52
		c0.874,0.761,1.476,1.45,1.805,2.071c0.33,0.621,0.494,1.35,0.494,2.186c0,1.089-0.269,1.925-0.808,2.508
		c-0.538,0.582-1.32,0.873-2.346,0.873C117.267,36.285,116.501,35.998,115.981,35.422z"/>
</g>
</svg>
