<?xml version="1.0" encoding="utf-8"?>
<!-- Generator: Adobe Illustrator 16.0.0, SVG Export Plug-In . SVG Version: 6.00 Build 0)  -->
<!DOCTYPE svg PUBLIC "-//W3C//DTD SVG 1.1//EN" "http://www.w3.org/Graphics/SVG/1.1/DTD/svg11.dtd">
<svg version="1.1" id="Layer_1" xmlns="http://www.w3.org/2000/svg" xmlns:xlink="http://www.w3.org/1999/xlink" x="0px" y="0px"
	 width="16px" height="16px" viewBox="0 0 16 16" enable-background="new 0 0 16 16" xml:space="preserve">
<path fill="#235F30" d="M8.03,14.607c-0.531-0.83-0.999-1.545-1.451-2.271c-0.824-1.321-1.655-2.642-2.454-3.98
	C3.144,6.712,3.223,4.736,4.331,3.305c1.203-1.553,2.798-2.158,4.716-1.742c1.84,0.398,3.169,1.884,3.467,3.792
	c0.141,0.899,0.059,1.806-0.408,2.589C10.796,10.146,9.436,12.318,8.03,14.607z M8.006,7.996c1.098-0.001,2.006-0.908,2.003-1.995
	c-0.002-1.103-0.899-2.013-1.987-2.019c-1.116-0.005-2.031,0.91-2.024,2.024C6.004,7.101,6.908,7.998,8.006,7.996z"/>
</svg>
