<?xml version="1.0" encoding="utf-8"?>
<!-- Generator: Adobe Illustrator 16.0.0, SVG Export Plug-In . SVG Version: 6.00 Build 0)  -->
<!DOCTYPE svg PUBLIC "-//W3C//DTD SVG 1.1//EN" "http://www.w3.org/Graphics/SVG/1.1/DTD/svg11.dtd">
<svg version="1.1" id="Layer_1" xmlns="http://www.w3.org/2000/svg" xmlns:xlink="http://www.w3.org/1999/xlink" x="0px" y="0px"
	 width="16px" height="16px" viewBox="0 0 16 16" enable-background="new 0 0 16 16" xml:space="preserve">
<g>
	<path d="M14.5,13.721c0,0.551-0.45,1-1,1H2.625c-0.55,0-1-0.449-1-1V2.063c0-0.55,0.45-1,1-1H13.5c0.55,0,1,0.45,1,1V13.721z"/>
</g>
<polyline fill="#FFFFFF" points="3.25,4.04 12.75,4.04 12.75,3.54 3.25,3.54 "/>
<polyline fill="#FFFFFF" points="3.25,6.091 12.75,6.091 12.75,5.591 3.25,5.591 "/>
<polyline fill="#FFFFFF" points="3.25,8.142 12.75,8.142 12.75,7.642 3.25,7.642 "/>
<polyline fill="#FFFFFF" points="3.25,10.191 12.75,10.191 12.75,9.691 3.25,9.691 "/>
<polyline fill="#FFFFFF" points="3.25,12.243 12.75,12.243 12.75,11.743 3.25,11.743 "/>
</svg>
