<?xml version="1.0" encoding="utf-8"?>
<!-- Generator: Adobe Illustrator 16.0.0, SVG Export Plug-In . SVG Version: 6.00 Build 0)  -->
<!DOCTYPE svg PUBLIC "-//W3C//DTD SVG 1.1//EN" "http://www.w3.org/Graphics/SVG/1.1/DTD/svg11.dtd">
<svg version="1.1" id="Layer_1" xmlns="http://www.w3.org/2000/svg" xmlns:xlink="http://www.w3.org/1999/xlink" x="0px" y="0px"
	 width="16px" height="16px" viewBox="0 0 16 16" enable-background="new 0 0 16 16" xml:space="preserve">
<g>
	<ellipse cx="7.723" cy="5.729" rx="3.197" ry="3.383"/>
	<path d="M1.588,14.234c-0.467,0-0.653-0.223-0.569-0.68c0.073-0.396,0.159-0.791,0.221-1.189c0.067-0.438,0.27-0.801,0.58-1.105
		c0.991-0.965,2.208-1.5,3.538-1.799c0.205-0.047,0.46,0.016,0.662,0.096c1.183,0.486,2.363,0.51,3.542,0.018
		c0.336-0.141,0.654-0.164,0.986-0.072c0.973,0.264,1.885,0.67,2.713,1.254c0.695,0.49,1.156,1.115,1.232,1.99
		c0.023,0.273,0.096,0.547,0.145,0.816c0.076,0.441-0.107,0.67-0.551,0.67C12.246,13.602,3.802,13.699,1.588,14.234z"/>
</g>
</svg>
