<?xml version="1.0" encoding="utf-8"?>
<!-- Generator: Adobe Illustrator 16.0.0, SVG Export Plug-In . SVG Version: 6.00 Build 0)  -->
<!DOCTYPE svg PUBLIC "-//W3C//DTD SVG 1.1//EN" "http://www.w3.org/Graphics/SVG/1.1/DTD/svg11.dtd">
<svg version="1.1" id="Layer_1" xmlns="http://www.w3.org/2000/svg" xmlns:xlink="http://www.w3.org/1999/xlink" x="0px" y="0px"
	 width="16px" height="16px" viewBox="0 0 16 16" enable-background="new 0 0 16 16" xml:space="preserve">
<g>
	<path fill="#231F20" d="M8.118,1.958c0.184,0.048,0.359,0.106,0.505,0.238c0.162,0.148,0.28,0.327,0.299,0.545
		c0.021,0.238,0.031,0.481,0.013,0.719C8.896,3.898,8.632,4.177,8.17,4.319c0.177,0,0.354-0.001,0.532,0
		c0.677,0.007,1.229,0.445,1.385,1.1c0.023,0.103,0.036,0.21,0.037,0.315c0.003,0.996,0.001,1.991,0.001,2.987
		c0,0.022-0.002,0.047-0.003,0.082c-0.232,0-0.464,0-0.704,0c-0.157,1.752-0.315,3.493-0.474,5.239c-0.633,0-1.256,0-1.891,0
		c-0.156-1.742-0.313-3.481-0.472-5.231c-0.233,0-0.463,0-0.709,0c0-0.054,0-0.096,0-0.137c0-0.961-0.001-1.921,0.001-2.881
		c0-0.861,0.609-1.473,1.469-1.475c0.161,0,0.323,0,0.455,0C7.672,4.248,7.517,4.179,7.384,4.08C7.207,3.949,7.097,3.758,7.077,3.54
		c-0.021-0.25-0.03-0.504-0.008-0.753C7.11,2.368,7.411,2.061,7.826,1.976c0.021-0.004,0.037-0.013,0.055-0.019
		C7.96,1.958,8.039,1.958,8.118,1.958z"/>
</g>
</svg>
