<?xml version="1.0" encoding="utf-8"?>
<!-- Generator: Adobe Illustrator 16.0.0, SVG Export Plug-In . SVG Version: 6.00 Build 0)  -->
<!DOCTYPE svg PUBLIC "-//W3C//DTD SVG 1.1//EN" "http://www.w3.org/Graphics/SVG/1.1/DTD/svg11.dtd">
<svg version="1.1" id="Layer_1" xmlns="http://www.w3.org/2000/svg" xmlns:xlink="http://www.w3.org/1999/xlink" x="0px" y="0px"
	 width="16px" height="16px" viewBox="0 0 16 16" enable-background="new 0 0 16 16" xml:space="preserve">
<path fill-rule="evenodd" clip-rule="evenodd" fill="#231F20" d="M14.083,15.415c-1.293-1.28-2.579-2.554-3.866-3.827
	c-1.537,1.091-3.219,1.444-5.045,0.984c-1.404-0.354-2.526-1.145-3.359-2.327C0.131,7.859,0.447,4.618,2.549,2.591
	c2.087-2.013,5.362-2.22,7.658-0.474c1.29,0.981,2.074,2.276,2.307,3.884c0.234,1.606-0.155,3.067-1.104,4.389
	c1.293,1.28,2.584,2.56,3.886,3.849C14.892,14.63,14.492,15.018,14.083,15.415z M6.655,11.773c2.723,0.002,4.929-2.199,4.931-4.921
	c0.001-2.717-2.199-4.922-4.917-4.924c-2.733-0.002-4.939,2.195-4.94,4.919C1.729,9.568,3.932,11.771,6.655,11.773z"/>
</svg>
