<?xml version="1.0" encoding="utf-8"?>
<!-- Generator: Adobe Illustrator 16.0.0, SVG Export Plug-In . SVG Version: 6.00 Build 0)  -->
<!DOCTYPE svg PUBLIC "-//W3C//DTD SVG 1.1//EN" "http://www.w3.org/Graphics/SVG/1.1/DTD/svg11.dtd">
<svg version="1.1" id="Layer_1" xmlns="http://www.w3.org/2000/svg" xmlns:xlink="http://www.w3.org/1999/xlink" x="0px" y="0px"
	 width="16px" height="16px" viewBox="0 0 16 16" enable-background="new 0 0 16 16" xml:space="preserve">
<g>
	<path fill="#627D53" d="M8.416,4.708v-1.75c0-0.223-0.182-0.403-0.403-0.403S7.609,2.736,7.609,2.958v1.75
		C7.707,4.59,7.85,4.511,8.013,4.511S8.317,4.59,8.416,4.708z"/>
	<path fill="#627D53" d="M6.557,3.546C6.48,3.337,6.248,3.229,6.039,3.305C5.83,3.381,5.723,3.613,5.799,3.822L6.293,5.18
		c0.061,0.165,0.213,0.265,0.379,0.265c0.045,0,0.093-0.007,0.138-0.024c0.211-0.076,0.317-0.308,0.241-0.517L6.557,3.546z"/>
	<path fill="#627D53" d="M4.875,4.356c-0.144-0.171-0.397-0.193-0.569-0.05c-0.17,0.144-0.192,0.398-0.05,0.569l0.93,1.107
		c0.08,0.096,0.193,0.145,0.311,0.145c0.09,0,0.184-0.031,0.258-0.095c0.17-0.143,0.192-0.398,0.051-0.569L4.875,4.356z"/>
	<path fill="#627D53" d="M4.82,6.416L3.568,5.693C3.377,5.581,3.129,5.647,3.018,5.84C2.905,6.033,2.972,6.281,3.164,6.392
		l1.252,0.723C4.48,7.152,4.549,7.169,4.617,7.169c0.141,0,0.275-0.072,0.352-0.202C5.08,6.774,5.014,6.527,4.82,6.416z"/>
	<path fill="#627D53" d="M2.66,8.191l1.424,0.25c0.023,0.006,0.047,0.008,0.069,0.008c0.193,0,0.363-0.139,0.397-0.334
		C4.59,7.894,4.443,7.686,4.225,7.647L2.801,7.395c-0.221-0.04-0.43,0.108-0.469,0.327C2.293,7.943,2.44,8.152,2.66,8.191z"/>
	<path fill="#627D53" d="M13.699,9.002h-1.826c-0.225,0-0.403,0.18-0.403,0.404c0,0.223,0.18,0.402,0.403,0.402h1.826
		c0.225,0,0.404-0.181,0.404-0.402C14.104,9.182,13.922,9.002,13.699,9.002z"/>
	<path fill="#627D53" d="M4.153,9.002H2.328c-0.225,0-0.404,0.18-0.404,0.404c0,0.223,0.181,0.402,0.404,0.402h1.825
		c0.226,0,0.404-0.181,0.404-0.402C4.558,9.182,4.377,9.002,4.153,9.002z"/>
	<path fill="#627D53" d="M11.475,8.113c0.033,0.197,0.205,0.334,0.396,0.334c0.023,0,0.047-0.002,0.07-0.006l1.424-0.25
		c0.221-0.039,0.366-0.248,0.327-0.469c-0.038-0.219-0.245-0.367-0.468-0.327l-1.424,0.251C11.582,7.686,11.436,7.895,11.475,8.113z
		"/>
	<path fill="#627D53" d="M12.86,6.392c0.194-0.111,0.261-0.358,0.147-0.551c-0.111-0.192-0.358-0.259-0.551-0.147l-1.252,0.722
		c-0.193,0.112-0.261,0.358-0.148,0.551c0.074,0.13,0.211,0.202,0.352,0.202c0.067,0,0.137-0.018,0.2-0.054L12.86,6.392z"/>
	<path fill="#627D53" d="M11.721,4.306c-0.172-0.144-0.426-0.121-0.569,0.05l-0.929,1.106c-0.145,0.172-0.121,0.426,0.05,0.569
		c0.075,0.063,0.168,0.095,0.259,0.095c0.115,0,0.229-0.049,0.311-0.145l0.929-1.107C11.914,4.703,11.891,4.449,11.721,4.306z"/>
	<path fill="#627D53" d="M9.985,3.304c-0.209-0.076-0.44,0.032-0.517,0.242L8.974,4.904c-0.077,0.209,0.03,0.441,0.241,0.517
		C9.26,5.438,9.308,5.445,9.353,5.445c0.165,0,0.319-0.102,0.379-0.266l0.495-1.359C10.303,3.611,10.194,3.38,9.985,3.304z"/>
	<path fill="#627D53" d="M8.808,8.508l-0.67-3.49C8.125,4.957,8.074,4.914,8.012,4.914c-0.061,0-0.114,0.043-0.124,0.104L7.217,8.51
		C7.43,8.321,7.705,8.201,8.012,8.201S8.595,8.32,8.808,8.508z"/>
	<path fill="#627D53" d="M8.012,8.557c-0.469,0-0.85,0.381-0.85,0.851c0,0.469,0.381,0.85,0.85,0.85c0.47,0,0.849-0.381,0.849-0.85
		C8.86,8.938,8.481,8.557,8.012,8.557z"/>
</g>
<text transform="matrix(1 0 0 1 5.0293 13.666)" fill="#627D53" font-family="'Impact'" font-size="3">Skill</text>
</svg>
