<?xml version="1.0" encoding="utf-8"?>
<!-- Generator: Adobe Illustrator 16.0.0, SVG Export Plug-In . SVG Version: 6.00 Build 0)  -->
<!DOCTYPE svg PUBLIC "-//W3C//DTD SVG 1.1//EN" "http://www.w3.org/Graphics/SVG/1.1/DTD/svg11.dtd">
<svg version="1.1" id="Layer_1" xmlns="http://www.w3.org/2000/svg" xmlns:xlink="http://www.w3.org/1999/xlink" x="0px" y="0px"
	 width="142px" height="177.242px" viewBox="0 0 142 177.242" enable-background="new 0 0 142 177.242" xml:space="preserve">
<g>
	<g>
		<path fill-rule="evenodd" clip-rule="evenodd" fill="#FFFFFF" d="M141,166.242c0,5.523-4.477,10-10,10H11c-5.523,0-10-4.477-10-10
			v-90c0-5.523,4.477-10,10-10h120c5.523,0,10,4.477,10,10V166.242z"/>
		<path fill="none" stroke="#000000" stroke-width="2" stroke-miterlimit="10" d="M141,166.242c0,5.523-4.477,10-10,10H11
			c-5.523,0-10-4.477-10-10v-90c0-5.523,4.477-10,10-10h120c5.523,0,10,4.477,10,10V166.242z"/>
	</g>
	<g>
		<path fill="#1A1A1A" d="M52.781,16.478c0-0.309-0.044-0.588-0.134-0.836c-0.09-0.249-0.263-0.478-0.519-0.69
			c-0.257-0.211-0.61-0.419-1.063-0.623c-0.451-0.203-1.035-0.419-1.752-0.647c-0.813-0.26-1.58-0.553-2.301-0.879
			c-0.72-0.325-1.351-0.71-1.892-1.154c-0.542-0.443-0.969-0.954-1.282-1.532c-0.313-0.578-0.47-1.253-0.47-2.026
			c0-0.74,0.16-1.418,0.482-2.033c0.321-0.614,0.772-1.137,1.354-1.568c0.582-0.431,1.273-0.767,2.075-1.007
			c0.802-0.24,1.683-0.36,2.644-0.36c0.984,0,1.879,0.136,2.686,0.409c0.805,0.272,1.493,0.653,2.063,1.141s1.009,1.068,1.318,1.74
			c0.31,0.671,0.464,1.406,0.464,2.203h-3.662c0-0.374-0.06-0.72-0.177-1.038c-0.118-0.317-0.299-0.59-0.543-0.818
			c-0.244-0.228-0.55-0.405-0.916-0.531c-0.366-0.126-0.798-0.189-1.294-0.189c-0.48,0-0.897,0.053-1.251,0.159
			c-0.354,0.106-0.647,0.252-0.879,0.439c-0.232,0.188-0.407,0.407-0.525,0.659c-0.118,0.252-0.177,0.521-0.177,0.806
			c0,0.586,0.299,1.076,0.897,1.471c0.598,0.395,1.475,0.763,2.631,1.105c0.968,0.301,1.82,0.635,2.557,1.001
			s1.351,0.781,1.844,1.245c0.492,0.464,0.864,0.985,1.117,1.563c0.252,0.578,0.378,1.233,0.378,1.965
			c0,0.781-0.152,1.477-0.458,2.087c-0.305,0.61-0.738,1.125-1.3,1.544c-0.562,0.419-1.239,0.74-2.032,0.964
			c-0.794,0.224-1.679,0.336-2.655,0.336c-0.586,0-1.172-0.051-1.758-0.152c-0.586-0.102-1.146-0.258-1.679-0.47
			c-0.533-0.211-1.027-0.476-1.482-0.793c-0.456-0.317-0.854-0.691-1.19-1.123c-0.338-0.431-0.603-0.922-0.794-1.471
			c-0.191-0.55-0.287-1.158-0.287-1.825h3.675c0,0.537,0.085,0.993,0.257,1.367c0.17,0.375,0.408,0.678,0.714,0.909
			c0.305,0.232,0.673,0.401,1.104,0.507c0.432,0.106,0.911,0.159,1.44,0.159c0.472,0,0.883-0.051,1.233-0.153
			c0.35-0.102,0.639-0.242,0.866-0.421c0.228-0.179,0.396-0.393,0.507-0.641C52.727,17.029,52.781,16.763,52.781,16.478z"/>
		<path fill="#1A1A1A" d="M70.591,14.659c0,0.96-0.111,1.852-0.335,2.673c-0.225,0.822-0.552,1.532-0.983,2.13
			c-0.431,0.599-0.966,1.068-1.604,1.41c-0.64,0.342-1.374,0.513-2.204,0.513c-0.699,0-1.316-0.122-1.849-0.366
			c-0.533-0.244-0.995-0.586-1.386-1.025v6.226h-3.527V7.933h3.271l0.121,1.294c0.407-0.488,0.881-0.867,1.423-1.135
			c0.541-0.269,1.182-0.403,1.923-0.403c0.838,0,1.578,0.161,2.221,0.482c0.644,0.321,1.181,0.777,1.611,1.367
			c0.432,0.59,0.759,1.298,0.983,2.124c0.224,0.826,0.335,1.739,0.335,2.74V14.659z M67.063,14.402c0-0.545-0.047-1.052-0.141-1.52
			c-0.094-0.468-0.242-0.875-0.445-1.221c-0.203-0.346-0.466-0.617-0.787-0.812c-0.322-0.195-0.715-0.293-1.178-0.293
			c-0.578,0-1.053,0.108-1.423,0.324c-0.37,0.215-0.657,0.531-0.86,0.946v5.408c0.203,0.407,0.49,0.727,0.86,0.958
			c0.37,0.232,0.853,0.348,1.446,0.348c0.465,0,0.856-0.102,1.179-0.305c0.321-0.203,0.581-0.482,0.781-0.836
			c0.199-0.354,0.344-0.767,0.433-1.239c0.09-0.472,0.135-0.972,0.135-1.501V14.402z"/>
		<path fill="#1A1A1A" d="M72.227,14.415c0-0.96,0.139-1.851,0.415-2.673c0.276-0.822,0.68-1.532,1.209-2.13
			c0.528-0.599,1.182-1.068,1.959-1.41c0.776-0.342,1.662-0.513,2.654-0.513c1.002,0,1.893,0.171,2.674,0.513
			s1.438,0.812,1.972,1.41c0.532,0.598,0.938,1.308,1.214,2.13c0.277,0.822,0.416,1.713,0.416,2.673v0.256
			c0,0.969-0.139,1.861-0.416,2.68c-0.276,0.817-0.682,1.525-1.214,2.124c-0.533,0.598-1.187,1.066-1.96,1.403
			c-0.772,0.338-1.66,0.507-2.66,0.507c-1.002,0-1.891-0.169-2.668-0.507c-0.777-0.337-1.433-0.806-1.965-1.403
			c-0.533-0.599-0.938-1.307-1.215-2.124c-0.276-0.818-0.415-1.711-0.415-2.68V14.415z M75.755,14.671
			c0,0.537,0.049,1.042,0.146,1.514c0.098,0.472,0.254,0.881,0.47,1.227c0.215,0.346,0.496,0.621,0.842,0.824
			c0.346,0.204,0.771,0.305,1.276,0.305c0.488,0,0.904-0.102,1.251-0.305c0.346-0.203,0.628-0.478,0.849-0.824
			c0.219-0.346,0.378-0.754,0.476-1.227c0.098-0.472,0.146-0.977,0.146-1.514v-0.256c0-0.521-0.049-1.015-0.146-1.483
			c-0.098-0.468-0.257-0.879-0.476-1.233c-0.221-0.354-0.505-0.635-0.855-0.842c-0.35-0.208-0.772-0.312-1.27-0.312
			c-0.488,0-0.905,0.104-1.251,0.312c-0.346,0.207-0.627,0.488-0.842,0.842c-0.216,0.354-0.372,0.765-0.47,1.233
			c-0.098,0.468-0.146,0.962-0.146,1.483V14.671z"/>
		<path fill="#1A1A1A" d="M94.334,11.241c-0.18-0.024-0.39-0.047-0.629-0.067c-0.24-0.021-0.454-0.031-0.641-0.031
			c-0.692,0-1.252,0.116-1.679,0.348c-0.428,0.231-0.743,0.567-0.946,1.007v8.643h-3.527V7.933h3.332l0.098,1.575
			c0.334-0.569,0.744-1.015,1.232-1.336c0.488-0.322,1.059-0.482,1.709-0.482c0.188,0,0.385,0.017,0.593,0.049
			c0.207,0.033,0.376,0.069,0.507,0.11L94.334,11.241z"/>
		<path fill="#1A1A1A" d="M100.253,4.686v3.247h2.259v2.588h-2.259v6.592c0,0.277,0.029,0.505,0.086,0.684
			c0.057,0.179,0.143,0.319,0.256,0.421c0.114,0.102,0.255,0.171,0.422,0.208c0.166,0.036,0.364,0.055,0.592,0.055
			c0.212,0,0.404-0.008,0.58-0.024c0.175-0.016,0.327-0.037,0.457-0.061v2.673c-0.293,0.089-0.612,0.165-0.958,0.226
			c-0.346,0.062-0.738,0.092-1.178,0.092c-0.578,0-1.099-0.071-1.563-0.214c-0.464-0.142-0.86-0.368-1.19-0.677
			c-0.329-0.309-0.584-0.712-0.763-1.208c-0.179-0.496-0.269-1.094-0.269-1.794v-6.97h-1.929V7.933h1.929V4.686H100.253z"/>
		<path fill="#1A1A1A" d="M56.138,43.22c-0.064,0.903-0.268,1.733-0.609,2.49s-0.814,1.406-1.416,1.947
			c-0.603,0.542-1.333,0.965-2.191,1.27c-0.859,0.306-1.838,0.458-2.936,0.458c-1.14,0-2.163-0.197-3.07-0.592
			c-0.908-0.395-1.677-0.962-2.308-1.703c-0.631-0.74-1.115-1.638-1.452-2.691c-0.338-1.054-0.507-2.236-0.507-3.546V39.68
			c0-1.31,0.175-2.494,0.524-3.552c0.351-1.058,0.845-1.957,1.483-2.698c0.639-0.74,1.414-1.31,2.325-1.709
			c0.912-0.398,1.93-0.598,3.053-0.598c1.106,0,2.085,0.157,2.936,0.47c0.85,0.313,1.572,0.749,2.166,1.307
			c0.595,0.557,1.059,1.221,1.393,1.989c0.333,0.77,0.545,1.605,0.635,2.509h-3.662c-0.041-0.529-0.133-0.997-0.275-1.404
			c-0.143-0.407-0.348-0.749-0.616-1.025c-0.269-0.276-0.614-0.486-1.038-0.628c-0.423-0.143-0.936-0.214-1.537-0.214
			c-1.237,0-2.159,0.45-2.766,1.349c-0.606,0.899-0.909,2.293-0.909,4.181v1.196c0,0.92,0.067,1.726,0.201,2.417
			c0.135,0.692,0.346,1.27,0.635,1.733s0.663,0.812,1.123,1.043c0.46,0.232,1.016,0.348,1.667,0.348
			c0.577,0,1.075-0.065,1.495-0.195c0.419-0.13,0.769-0.328,1.05-0.592c0.28-0.264,0.498-0.596,0.652-0.995
			c0.155-0.398,0.253-0.862,0.293-1.392H56.138z"/>
		<path fill="#1A1A1A" d="M62.034,49.141h-3.54v-18.75h3.54V49.141z"/>
		<path fill="#1A1A1A" d="M72.851,47.798c-0.416,0.505-0.92,0.896-1.514,1.172c-0.595,0.276-1.295,0.415-2.1,0.415
			c-0.651,0-1.246-0.092-1.783-0.274c-0.537-0.184-0.999-0.472-1.385-0.867c-0.387-0.395-0.686-0.903-0.897-1.525
			c-0.212-0.623-0.317-1.369-0.317-2.24v-8.545h3.527v8.569c0,0.366,0.047,0.68,0.141,0.94c0.094,0.261,0.224,0.47,0.391,0.628
			c0.167,0.159,0.364,0.275,0.592,0.348c0.229,0.073,0.48,0.11,0.758,0.11c0.635,0,1.151-0.11,1.55-0.33s0.704-0.525,0.915-0.916
			v-9.351h3.541v13.208h-3.32L72.851,47.798z"/>
		<path fill="#1A1A1A" d="M90.831,42.659c0,0.993-0.105,1.9-0.317,2.722c-0.212,0.822-0.531,1.53-0.958,2.124
			c-0.428,0.594-0.963,1.056-1.605,1.386c-0.643,0.329-1.396,0.494-2.259,0.494c-0.765,0-1.426-0.145-1.983-0.434
			c-0.558-0.289-1.039-0.693-1.446-1.214l-0.158,1.404H78.93v-18.75h3.527v6.726c0.391-0.456,0.849-0.808,1.373-1.056
			c0.525-0.248,1.138-0.372,1.838-0.372c0.862,0,1.617,0.167,2.264,0.5c0.647,0.334,1.187,0.798,1.617,1.392
			c0.432,0.594,0.753,1.302,0.965,2.124c0.212,0.822,0.317,1.721,0.317,2.698V42.659z M87.303,42.402
			c0-0.521-0.036-1.015-0.109-1.483c-0.073-0.468-0.206-0.876-0.396-1.227c-0.191-0.35-0.45-0.626-0.775-0.83
			c-0.325-0.203-0.74-0.305-1.245-0.305c-0.594,0-1.078,0.12-1.452,0.36c-0.375,0.24-0.664,0.58-0.867,1.02v5.212
			c0.203,0.439,0.492,0.781,0.867,1.025c0.374,0.244,0.866,0.366,1.477,0.366c0.496,0,0.905-0.098,1.227-0.293
			s0.578-0.464,0.77-0.806c0.19-0.342,0.323-0.75,0.396-1.227c0.073-0.476,0.109-0.995,0.109-1.556V42.402z"/>
		<path fill="#1A1A1A" d="M100.157,45.491c0-0.187-0.036-0.358-0.109-0.513c-0.073-0.154-0.212-0.299-0.415-0.433
			c-0.203-0.135-0.48-0.263-0.83-0.385s-0.802-0.24-1.354-0.354c-0.676-0.146-1.301-0.33-1.874-0.549
			c-0.574-0.22-1.07-0.492-1.489-0.818c-0.42-0.325-0.747-0.704-0.982-1.135c-0.236-0.431-0.354-0.932-0.354-1.501
			c0-0.553,0.12-1.078,0.36-1.575c0.239-0.496,0.586-0.934,1.037-1.313c0.452-0.378,1.005-0.677,1.66-0.897s1.394-0.33,2.216-0.33
			c0.854,0,1.624,0.106,2.308,0.317c0.684,0.212,1.263,0.507,1.739,0.885c0.476,0.379,0.842,0.829,1.099,1.349
			c0.256,0.521,0.385,1.091,0.385,1.709h-3.528c0-0.504-0.163-0.921-0.488-1.251c-0.325-0.329-0.834-0.494-1.526-0.494
			c-0.594,0-1.054,0.134-1.379,0.403s-0.488,0.61-0.488,1.025c0,0.195,0.043,0.368,0.128,0.519c0.086,0.15,0.224,0.289,0.415,0.415
			c0.191,0.126,0.443,0.242,0.757,0.348c0.313,0.106,0.698,0.204,1.153,0.293c0.717,0.139,1.38,0.31,1.99,0.513
			c0.61,0.204,1.137,0.466,1.581,0.787c0.443,0.322,0.791,0.712,1.044,1.172c0.252,0.46,0.378,1.016,0.378,1.667
			c0,0.586-0.13,1.125-0.391,1.618c-0.261,0.492-0.633,0.917-1.117,1.275c-0.484,0.358-1.067,0.639-1.751,0.842
			s-1.449,0.305-2.295,0.305c-0.928,0-1.746-0.13-2.454-0.391s-1.305-0.602-1.788-1.025c-0.484-0.423-0.849-0.899-1.093-1.428
			c-0.244-0.529-0.366-1.062-0.366-1.599h3.345c0.017,0.342,0.092,0.637,0.226,0.885c0.135,0.249,0.312,0.45,0.531,0.604
			c0.22,0.155,0.474,0.269,0.763,0.342s0.593,0.11,0.909,0.11c0.676,0,1.187-0.128,1.532-0.384
			C99.984,46.241,100.157,45.906,100.157,45.491z"/>
	</g>
	<g>
		<path fill-rule="evenodd" clip-rule="evenodd" fill="#010101" d="M65.167,119.838c0.85,2.809,0.035,4.751-2.851,5.737
			c-3.592,1.229-4.645,3.935-4.164,7.468c0.452,3.331,2.569,4.786,5.839,4.879v17.967c-3.445-1.271-6.946-1.784-9.424-3.657
			c-3.693-2.791-7.347-6.104-9.816-9.963c-8.768-13.703-11.267-29.337-13.021-44.856c6.379-1.218,12.488-2.085,18.43-3.603
			c6.079-1.555,11.4-4.646,15.158-10.195c8.637,10.828,20.74,12.376,33.812,13.313c-1.072,6.419-2.123,12.724-3.354,20.097
			c-5.916-6.3-11.078-3.551-16.225-0.336c-3.319,2.077-6.862,3.202-10.858,2.77c-1.166-0.126-2.392,0.294-3.586,0.457
			c0.005-11.157,0.005-22.306,0.005-33.884c-8.49,9.886-19.981,10.693-31.78,12.084c1.221,7.268,2.394,14.261,3.582,21.315
			c5.087,0,9.469-0.053,13.845,0.016C55.563,119.518,60.365,119.705,65.167,119.838"/>
		<path fill-rule="evenodd" clip-rule="evenodd" fill="#010101" d="M88.008,157.389c-5.848,0.002-11.699-0.077-17.547,0.033
			c-2.767,0.053-3.833-1.066-3.776-3.807c0.112-5.285-0.089-10.578,0.123-15.856c0.045-1.124,1.037-2.672,2.037-3.221
			c5.711-3.136,11.519-6.099,17.388-8.93c1.005-0.486,2.649-0.472,3.66,0.015c5.867,2.829,11.673,5.797,17.396,8.904
			c0.942,0.511,1.931,1.924,1.967,2.952c0.194,5.505,0.049,11.022,0.112,16.534c0.028,2.455-1.063,3.422-3.475,3.396
			C99.933,157.34,93.969,157.387,88.008,157.389 M95.917,148.274c0-1.576-0.104-3.157,0.022-4.72
			c0.232-2.866-0.925-4.182-3.865-4.051c-2.691,0.117-5.396,0.112-8.091,0.011c-2.919-0.11-4.082,1.177-3.861,4.064
			c0.154,2.011,0.028,4.043,0.028,6.067c0.004,7.069,0.004,7.081,7.224,7.067C96.877,156.692,95.877,157.621,95.917,148.274"/>
		<path fill-rule="evenodd" clip-rule="evenodd" fill="#010101" d="M115.37,130.531c0,4.576-1.228,5.321-4.398,3.706
			c-6.906-3.527-13.822-7.035-20.668-10.678c-1.675-0.895-2.959-0.845-4.611,0.034c-6.749,3.589-13.57,7.035-20.371,10.522
			c-1.479,0.763-3.265,2.061-4.232-0.308c-0.794-1.948-1.126-4.2,1.462-5.516c5.809-2.955,11.909-5.491,17.302-9.076
			c5.844-3.884,10.756-3.603,16.492,0.108c5.26,3.403,11.166,5.799,16.699,8.804C114.202,128.758,114.973,130.103,115.37,130.531"/>
		<path fill-rule="evenodd" clip-rule="evenodd" fill="#FFFFFF" d="M65.167,119.838c-4.802-0.133-9.604-0.32-14.408-0.392
			c-4.375-0.068-8.758-0.016-13.845-0.016c-1.188-7.055-2.361-14.048-3.582-21.315c11.799-1.391,23.29-2.198,31.78-12.084
			c0,11.578,0,22.727-0.005,33.884C65.103,119.922,65.167,119.838,65.167,119.838"/>
		<path fill-rule="evenodd" clip-rule="evenodd" fill="#FFFFFF" d="M95.917,148.274c-0.041,9.347,0.96,8.418-8.543,8.439
			c-7.22,0.014-7.22,0.002-7.224-7.067c0-2.024,0.126-4.057-0.028-6.067c-0.22-2.888,0.942-4.175,3.861-4.064
			c2.695,0.102,5.4,0.106,8.091-0.011c2.94-0.131,4.097,1.185,3.865,4.051C95.814,145.117,95.917,146.698,95.917,148.274"/>
	</g>
</g>
</svg>
