<?xml version="1.0" encoding="utf-8"?>
<!-- Generator: Adobe Illustrator 16.0.0, SVG Export Plug-In . SVG Version: 6.00 Build 0)  -->
<!DOCTYPE svg PUBLIC "-//W3C//DTD SVG 1.1//EN" "http://www.w3.org/Graphics/SVG/1.1/DTD/svg11.dtd">
<svg version="1.1" id="Layer_1" xmlns="http://www.w3.org/2000/svg" xmlns:xlink="http://www.w3.org/1999/xlink" x="0px" y="0px"
	 width="157px" height="179px" viewBox="0 0 157 179" enable-background="new 0 0 157 179" xml:space="preserve">
<rect x="2.008" y="1.01" fill-rule="evenodd" clip-rule="evenodd" fill="#FFFFFF" stroke="#627D53" stroke-width="2" stroke-miterlimit="10" width="155" height="177"/>
<rect x="2.008" y="0.01" fill-rule="evenodd" clip-rule="evenodd" fill="#627D53" width="155" height="56"/>
<g>
	<path fill="#FFFFFF" d="M43.377,29.22l-2.527-7.638h2.223l1.425,4.883h0.038l1.425-4.883h2.033l-2.527,7.638v5.662h-2.09V29.22z"/>
	<path fill="#FFFFFF" d="M49.685,21.582h2.831l2.166,13.3h-2.09l-0.38-2.642v0.039h-2.375l-0.38,2.603h-1.938L49.685,21.582z
		 M51.964,30.474L51.034,23.9h-0.038l-0.912,6.573H51.964z"/>
	<path fill="#FFFFFF" d="M56.306,34.217c-0.526-0.57-0.789-1.374-0.789-2.413V24.66c0-1.039,0.263-1.844,0.789-2.413
		c0.525-0.57,1.289-0.855,2.29-0.855c1,0,1.764,0.285,2.29,0.855c0.525,0.569,0.788,1.374,0.788,2.413v1.406h-1.976v-1.539
		c0-0.824-0.349-1.235-1.045-1.235c-0.696,0-1.045,0.411-1.045,1.235v7.429c0,0.811,0.349,1.216,1.045,1.216
		c0.697,0,1.045-0.405,1.045-1.216v-2.033h1.976v1.881c0,1.039-0.263,1.843-0.788,2.413c-0.526,0.57-1.289,0.855-2.29,0.855
		C57.595,35.072,56.832,34.787,56.306,34.217z"/>
	<path fill="#FFFFFF" d="M62.927,21.582h2.09v5.415h2.242v-5.415h2.09v13.3h-2.09v-5.985h-2.242v5.985h-2.09V21.582z"/>
	<path fill="#FFFFFF" d="M72.542,23.482h-2.185v-1.9h6.46v1.9h-2.186v11.399h-2.09V23.482z"/>
	<path fill="#FFFFFF" d="M81.518,34.217c-0.525-0.57-0.788-1.374-0.788-2.413V24.66c0-1.039,0.263-1.844,0.788-2.413
		c0.525-0.57,1.289-0.855,2.29-0.855s1.764,0.285,2.29,0.855c0.525,0.569,0.787,1.374,0.787,2.413v1.406h-1.975v-1.539
		c0-0.824-0.35-1.235-1.046-1.235s-1.045,0.411-1.045,1.235v7.429c0,0.811,0.349,1.216,1.045,1.216s1.046-0.405,1.046-1.216v-2.033
		h1.975v1.881c0,1.039-0.262,1.843-0.787,2.413c-0.526,0.57-1.289,0.855-2.29,0.855S82.043,34.787,81.518,34.217z"/>
	<path fill="#FFFFFF" d="M88.139,21.582h2.091v11.4h3.438v1.899h-5.529V21.582z"/>
	<path fill="#FFFFFF" d="M95.398,34.207c-0.532-0.576-0.798-1.402-0.798-2.479V21.582h2.09V31.88c0,0.456,0.092,0.786,0.275,0.987
		c0.184,0.203,0.447,0.305,0.789,0.305s0.604-0.102,0.788-0.305c0.184-0.201,0.275-0.531,0.275-0.987V21.582h2.015v10.146
		c0,1.076-0.267,1.902-0.799,2.479c-0.531,0.576-1.305,0.865-2.318,0.865C96.703,35.072,95.93,34.783,95.398,34.207z"/>
	<path fill="#FFFFFF" d="M102.313,21.582h3.154c1.076,0,1.862,0.25,2.356,0.75c0.494,0.501,0.741,1.271,0.741,2.309v0.532
		c0,0.685-0.111,1.241-0.333,1.672s-0.56,0.741-1.017,0.931v0.039c1.039,0.354,1.559,1.279,1.559,2.773v1.141
		c0,1.025-0.27,1.808-0.808,2.346c-0.538,0.539-1.327,0.808-2.366,0.808h-3.287V21.582z M105.221,26.997
		c0.418,0,0.73-0.108,0.939-0.323s0.314-0.576,0.314-1.083V24.85c0-0.48-0.086-0.829-0.257-1.045
		c-0.171-0.215-0.44-0.322-0.808-0.322h-1.007v3.515H105.221z M105.6,32.982c0.367,0,0.641-0.099,0.817-0.295
		s0.267-0.535,0.267-1.017v-1.159c0-0.607-0.105-1.029-0.314-1.264s-0.554-0.352-1.035-0.352h-0.931v4.086H105.6z"/>
	<path fill="#FFFFFF" d="M110.407,34.207c-0.52-0.576-0.778-1.402-0.778-2.479v-0.761h1.976v0.912c0,0.861,0.361,1.292,1.084,1.292
		c0.354,0,0.623-0.104,0.807-0.313s0.275-0.548,0.275-1.017c0-0.557-0.127-1.048-0.379-1.473c-0.254-0.424-0.723-0.934-1.406-1.529
		c-0.861-0.76-1.463-1.447-1.805-2.062c-0.343-0.614-0.514-1.308-0.514-2.081c0-1.051,0.266-1.864,0.798-2.441
		c0.532-0.576,1.305-0.864,2.317-0.864c1.001,0,1.758,0.288,2.271,0.864c0.513,0.577,0.77,1.403,0.77,2.48v0.551h-1.977v-0.684
		c0-0.457-0.088-0.789-0.266-0.998s-0.438-0.313-0.779-0.313c-0.697,0-1.045,0.425-1.045,1.272c0,0.482,0.13,0.932,0.39,1.35
		c0.259,0.418,0.731,0.924,1.415,1.52c0.875,0.76,1.477,1.451,1.805,2.071c0.33,0.62,0.494,1.349,0.494,2.185
		c0,1.09-0.269,1.926-0.807,2.508c-0.539,0.584-1.32,0.875-2.347,0.875C111.693,35.072,110.926,34.783,110.407,34.207z"/>
</g>
<g>
	<path fill-rule="evenodd" clip-rule="evenodd" fill="#627D53" d="M78.564,77.117c2.036,0,4.071,0,6.106,0
		c0.854,0.33,1.129,0.974,1.12,1.858c-0.026,2.821-0.01,5.643-0.01,8.464c0,0.245,0,0.49,0,0.782c2.119,0,4.15-0.001,6.182,0
		c1.488,0.001,1.933,0.448,1.938,1.95c0.003,1.175,0,2.35,0,3.601c0.987,0,1.906,0,2.825,0c2.868,0,2.934,0.064,2.934,2.897
		c0,0.87,0,1.74,0,2.654c0.825,0,1.562-0.002,2.298,0c1.404,0.004,1.864,0.467,1.865,1.885c0.002,3.537,0.012,7.076-0.012,10.613
		c-0.003,0.521,0.133,0.825,0.601,1.099c1.896,1.104,3.764,2.26,5.641,3.397c1.162,0.704,1.3,1.076,0.905,2.403
		c-2.186,7.346-4.37,14.69-6.554,22.037c-0.169,0.567-0.322,1.141-0.486,1.722c2.431,1.218,4.869,1.648,7.306,0.38
		c1.151-0.601,2.17-1.48,3.187-2.309c1.19-0.969,1.845-0.94,2.736,0.266c0,0.231,0,0.462,0,0.693
		c-0.278,0.358-0.511,0.768-0.844,1.065c-0.67,0.601-1.375,1.167-2.1,1.701c-1.918,1.417-4.064,2.137-6.467,2.097
		c-1.923-0.032-3.65-0.686-5.357-1.491c-2.499-1.179-5.056-1.617-7.67-0.322c-0.889,0.441-1.773,0.893-2.659,1.34
		c-2.636,1.33-5.389,1.668-8.191,0.708c-1.521-0.521-2.972-1.263-4.421-1.976c-2.167-1.065-4.354-1.144-6.565-0.232
		c-1.386,0.572-2.725,1.255-4.101,1.851c-1.633,0.707-3.346,0.831-5.097,0.603c-1.883-0.245-3.589-1.004-5.294-1.78
		c-1.453-0.661-2.952-0.829-4.527-0.429c-1.963,0.499-3.555,1.618-5.08,2.872c-1.152,0.948-1.81,0.872-2.682-0.315
		c0-0.231,0-0.463,0-0.694c0.506-1.086,1.534-1.64,2.424-2.313c1.913-1.446,4.019-2.519,6.471-2.521
		c1.409-0.001,2.818,0.268,4.224,0.414c-0.034-0.118-0.093-0.335-0.157-0.552c-2.268-7.631-4.537-15.263-6.804-22.894
		c-0.358-1.203-0.19-1.638,0.893-2.295c1.915-1.163,3.826-2.333,5.754-3.474c0.385-0.228,0.533-0.471,0.53-0.927
		c-0.021-3.606-0.014-7.213-0.01-10.819c0.001-1.316,0.486-1.797,1.806-1.803c0.776-0.003,1.551,0,2.356,0c0-1.257,0-2.411,0-3.565
		c0.001-1.558,0.424-1.985,1.971-1.986c1.242,0,2.484,0,3.788,0c0-1.303-0.008-2.524,0.002-3.745
		c0.011-1.316,0.499-1.802,1.802-1.805c1.85-0.004,3.699-0.001,5.549-0.001c0.243,0,0.487,0,0.767,0
		c0-3.148,0.016-6.198-0.011-9.247C77.437,78.091,77.711,77.447,78.564,77.117z M83.005,103.178c0,0.33,0,0.529,0,0.729
		c0,12.898,0,25.798,0,38.696c0,0.115-0.035,0.248,0.009,0.343c0.077,0.165,0.169,0.384,0.314,0.449
		c2.457,1.111,4.929,1.321,7.408,0.057c0.699-0.356,1.412-0.687,2.103-1.06c2.677-1.445,5.504-1.747,8.517-1.101
		c2.271-7.642,4.533-15.257,6.798-22.88C99.772,113.335,91.458,108.299,83.005,103.178z M80.196,141.646c0-12.692,0-25.516,0-38.427
		c-0.233,0.133-0.41,0.229-0.582,0.332c-8.003,4.847-16.005,9.698-24.017,14.532c-0.419,0.253-0.49,0.474-0.352,0.93
		c1.13,3.733,2.234,7.476,3.345,11.215c1.302,4.382,2.608,8.762,3.893,13.147c0.127,0.436,0.33,0.706,0.783,0.711
		c1.031,0.01,2.124,0.215,3.08-0.053c1.449-0.406,2.831-1.092,4.19-1.762c1.668-0.822,3.396-1.412,5.255-1.289
		C77.271,141.081,78.735,141.417,80.196,141.646z M96.85,96.596c-10.188,0-20.322,0-30.443,0c0,0.935,0,1.82,0,2.693
		c10.173,0,20.292,0,30.443,0C96.85,98.387,96.85,97.518,96.85,96.596z M76.572,102.146c-4.916,0-9.628,0-14.342,0
		c0,2.895,0,5.742,0,8.689C67.006,107.942,71.707,105.094,76.572,102.146z M101.027,102.137c-4.765,0-9.461,0-14.157,0
		c-0.015,0.036-0.029,0.072-0.044,0.109c4.711,2.854,9.423,5.707,14.201,8.603C101.027,107.874,101.027,105.036,101.027,102.137z
		 M72.134,93.716c6.364,0,12.655,0,18.94,0c0-0.924,0-1.791,0-2.661c-6.338,0-12.629,0-18.94,0
		C72.134,91.965,72.134,92.816,72.134,93.716z M82.981,79.951c-0.959,0-1.845,0-2.715,0c0,2.773,0,5.49,0,8.227
		c0.922,0,1.807,0,2.715,0C82.981,85.417,82.981,82.701,82.981,79.951z"/>
	<path fill-rule="evenodd" clip-rule="evenodd" fill="#627D53" d="M102.476,119.228c-0.016,0.997-0.854,1.616-1.729,1.349
		c-0.239-0.073-0.471-0.191-0.685-0.322c-2.776-1.707-5.55-3.416-8.32-5.131c-0.848-0.524-1.12-1.113-0.87-1.818
		c0.26-0.733,0.986-1.094,1.721-0.837c0.216,0.075,0.423,0.185,0.618,0.305c2.775,1.707,5.546,3.421,8.321,5.127
		C102.071,118.23,102.501,118.618,102.476,119.228z"/>
	<path fill-rule="evenodd" clip-rule="evenodd" fill="#627D53" d="M87.438,112.213c-0.717-0.004-1.383-0.666-1.383-1.375
		c0-0.725,0.649-1.385,1.362-1.385c0.746-0.001,1.401,0.686,1.381,1.447C88.78,111.604,88.144,112.216,87.438,112.213z"/>
	<path fill-rule="evenodd" clip-rule="evenodd" fill="#627D53" d="M71.633,112.343c0.797-0.001,1.247,0.239,1.491,0.777
		c0.257,0.564,0.146,1.088-0.285,1.526c-0.16,0.163-0.354,0.297-0.549,0.419c-2.752,1.741-5.504,3.481-8.266,5.208
		c-0.286,0.179-0.623,0.35-0.948,0.377c-0.557,0.049-1.055-0.162-1.313-0.71c-0.272-0.577-0.211-1.128,0.246-1.594
		c0.159-0.163,0.354-0.297,0.548-0.42c2.733-1.728,5.467-3.454,8.208-5.169C71.089,112.556,71.458,112.426,71.633,112.343z"/>
	<path fill-rule="evenodd" clip-rule="evenodd" fill="#627D53" d="M77.969,110.75c-0.012,0.722-0.676,1.353-1.413,1.346
		c-0.72-0.007-1.35-0.667-1.34-1.405c0.009-0.739,0.645-1.357,1.392-1.353C77.293,109.342,77.98,110.055,77.969,110.75z"/>
</g>
</svg>
