<?xml version="1.0" encoding="utf-8"?>
<!-- Generator: Adobe Illustrator 16.0.0, SVG Export Plug-In . SVG Version: 6.00 Build 0)  -->
<!DOCTYPE svg PUBLIC "-//W3C//DTD SVG 1.1//EN" "http://www.w3.org/Graphics/SVG/1.1/DTD/svg11.dtd">
<svg version="1.1" id="Layer_1" xmlns="http://www.w3.org/2000/svg" xmlns:xlink="http://www.w3.org/1999/xlink" x="0px" y="0px"
	 width="157px" height="179px" viewBox="0 0 157 179" enable-background="new 0 0 157 179" xml:space="preserve">
<rect x="1.975" y="0.52" fill-rule="evenodd" clip-rule="evenodd" fill="#FFFFFF" stroke="#627D53" stroke-width="2" stroke-miterlimit="10" width="155" height="177"/>
<rect x="0.975" y="1.52" fill-rule="evenodd" clip-rule="evenodd" fill="#FFFFFF" stroke="#627D53" stroke-width="2" stroke-miterlimit="10" width="155" height="177"/>
<rect x="1.975" y="-0.48" fill-rule="evenodd" clip-rule="evenodd" fill="#627D53" width="155" height="56"/>
<g>
	<path fill="#FFFFFF" d="M41.591,20.22l-2.527-7.638h2.223l1.425,4.883h0.038l1.425-4.883h2.033l-2.527,7.638v5.662h-2.09V20.22z"/>
	<path fill="#FFFFFF" d="M47.481,25.197c-0.544-0.582-0.817-1.405-0.817-2.469v-6.992c0-1.064,0.272-1.888,0.817-2.471
		c0.544-0.582,1.33-0.874,2.356-0.874c1.026,0,1.812,0.292,2.356,0.874c0.545,0.583,0.817,1.406,0.817,2.471v6.992
		c0,1.063-0.272,1.887-0.817,2.469c-0.544,0.584-1.33,0.875-2.356,0.875C48.811,26.072,48.025,25.781,47.481,25.197z M50.92,22.861
		v-7.258c0-0.875-0.361-1.312-1.083-1.312c-0.722,0-1.083,0.437-1.083,1.312v7.258c0,0.873,0.361,1.311,1.083,1.311
		C50.559,24.172,50.92,23.734,50.92,22.861z"/>
	<path fill="#FFFFFF" d="M55.138,25.207c-0.532-0.576-0.798-1.402-0.798-2.479V12.582h2.09V22.88c0,0.456,0.092,0.786,0.275,0.987
		c0.184,0.203,0.447,0.305,0.789,0.305c0.342,0,0.605-0.102,0.789-0.305c0.184-0.201,0.275-0.531,0.275-0.987V12.582h2.014v10.146
		c0,1.076-0.266,1.902-0.798,2.479c-0.532,0.576-1.305,0.865-2.318,0.865S55.67,25.783,55.138,25.207z"/>
	<path fill="#FFFFFF" d="M63.688,14.482h-2.185v-1.9h6.46v1.9h-2.185v11.399h-2.09V14.482z"/>
	<path fill="#FFFFFF" d="M68.97,12.582h2.09v5.415h2.242v-5.415h2.09v13.3h-2.09v-5.985H71.06v5.985h-2.09V12.582z"/>
	<path fill="#FFFFFF" d="M80.407,25.207c-0.52-0.576-0.779-1.402-0.779-2.479v-0.761h1.976v0.912c0,0.861,0.361,1.292,1.083,1.292
		c0.354,0,0.624-0.104,0.808-0.313c0.183-0.209,0.275-0.548,0.275-1.017c0-0.557-0.127-1.048-0.38-1.473
		c-0.254-0.424-0.722-0.934-1.406-1.529c-0.861-0.76-1.463-1.447-1.805-2.062c-0.342-0.614-0.513-1.308-0.513-2.081
		c0-1.051,0.266-1.864,0.798-2.441c0.532-0.576,1.305-0.864,2.318-0.864c1,0,1.758,0.288,2.271,0.864
		c0.513,0.577,0.77,1.403,0.77,2.48v0.551h-1.976v-0.684c0-0.457-0.089-0.789-0.266-0.998c-0.178-0.209-0.437-0.313-0.779-0.313
		c-0.697,0-1.045,0.425-1.045,1.272c0,0.482,0.13,0.932,0.39,1.35c0.259,0.418,0.731,0.924,1.416,1.52
		c0.874,0.76,1.476,1.451,1.805,2.071c0.33,0.62,0.494,1.349,0.494,2.185c0,1.09-0.269,1.926-0.808,2.508
		c-0.538,0.584-1.32,0.875-2.346,0.875C81.693,26.072,80.927,25.783,80.407,25.207z"/>
	<path fill="#FFFFFF" d="M87.722,25.197c-0.544-0.582-0.817-1.405-0.817-2.469v-6.992c0-1.064,0.272-1.888,0.817-2.471
		c0.544-0.582,1.33-0.874,2.356-0.874c1.026,0,1.812,0.292,2.356,0.874c0.545,0.583,0.817,1.406,0.817,2.471v6.992
		c0,1.063-0.272,1.887-0.817,2.469c-0.544,0.584-1.33,0.875-2.356,0.875C89.052,26.072,88.267,25.781,87.722,25.197z M91.161,22.861
		v-7.258c0-0.875-0.361-1.312-1.083-1.312c-0.722,0-1.083,0.437-1.083,1.312v7.258c0,0.873,0.361,1.311,1.083,1.311
		C90.8,24.172,91.161,23.734,91.161,22.861z"/>
	<path fill="#FFFFFF" d="M95.313,25.217c-0.526-0.57-0.789-1.374-0.789-2.413V15.66c0-1.039,0.263-1.844,0.789-2.413
		c0.525-0.57,1.289-0.855,2.29-0.855c1,0,1.764,0.285,2.29,0.855c0.525,0.569,0.788,1.374,0.788,2.413v1.406h-1.976v-1.539
		c0-0.824-0.349-1.235-1.045-1.235c-0.696,0-1.045,0.411-1.045,1.235v7.429c0,0.811,0.349,1.216,1.045,1.216
		c0.697,0,1.045-0.405,1.045-1.216v-2.033h1.976v1.881c0,1.039-0.263,1.843-0.788,2.413c-0.526,0.57-1.289,0.855-2.29,0.855
		C96.602,26.072,95.838,25.787,95.313,25.217z"/>
	<path fill="#FFFFFF" d="M102.628,25.217c-0.526-0.57-0.789-1.374-0.789-2.413V15.66c0-1.039,0.263-1.844,0.789-2.413
		c0.525-0.57,1.289-0.855,2.29-0.855c1,0,1.764,0.285,2.29,0.855c0.525,0.569,0.788,1.374,0.788,2.413v1.406h-1.976v-1.539
		c0-0.824-0.349-1.235-1.045-1.235c-0.696,0-1.045,0.411-1.045,1.235v7.429c0,0.811,0.349,1.216,1.045,1.216
		c0.697,0,1.045-0.405,1.045-1.216v-2.033h1.976v1.881c0,1.039-0.263,1.843-0.788,2.413c-0.526,0.57-1.289,0.855-2.29,0.855
		C103.917,26.072,103.153,25.787,102.628,25.217z"/>
	<path fill="#FFFFFF" d="M109.249,12.582h5.7v1.9h-3.61v3.515h2.869v1.899h-2.869v4.086h3.61v1.899h-5.7V12.582z"/>
	<path fill="#FFFFFF" d="M116.146,12.582h3.097c1.077,0,1.862,0.25,2.356,0.75c0.494,0.501,0.741,1.271,0.741,2.309v0.817
		c0,1.38-0.456,2.255-1.368,2.622v0.037c0.506,0.152,0.865,0.463,1.074,0.932s0.313,1.096,0.313,1.881v2.337
		c0,0.38,0.012,0.688,0.038,0.922s0.089,0.466,0.19,0.693h-2.128c-0.076-0.216-0.126-0.418-0.152-0.608
		c-0.025-0.189-0.038-0.531-0.038-1.025v-2.432c0-0.608-0.098-1.033-0.294-1.273s-0.535-0.361-1.017-0.361h-0.722v5.7h-2.09V12.582z
		 M118.996,18.281c0.418,0,0.731-0.107,0.94-0.322s0.313-0.576,0.313-1.083V15.85c0-0.48-0.085-0.829-0.256-1.045
		c-0.171-0.215-0.44-0.322-0.808-0.322h-0.95v3.799H118.996z"/>
	<path fill="#FFFFFF" d="M58.216,31.382h2.09v11.399h3.439v1.9h-5.529V31.382z"/>
	<path fill="#FFFFFF" d="M64.751,31.382h5.7v1.899h-3.61v3.516h2.869v1.9h-2.869v4.084h3.61v1.9h-5.7V31.382z"/>
	<path fill="#FFFFFF" d="M73.264,31.382h2.831l2.166,13.3h-2.09l-0.38-2.641v0.037h-2.375l-0.38,2.604h-1.938L73.264,31.382z
		 M75.543,40.273l-0.931-6.574h-0.038l-0.912,6.574H75.543z"/>
	<path fill="#FFFFFF" d="M79.875,44.008c-0.532-0.577-0.798-1.403-0.798-2.48v-6.992c0-1.076,0.266-1.902,0.798-2.479
		c0.532-0.576,1.305-0.865,2.318-0.865c1.013,0,1.786,0.289,2.318,0.865c0.532,0.576,0.798,1.402,0.798,2.479v1.141h-1.976v-1.273
		c0-0.873-0.361-1.311-1.083-1.311c-0.722,0-1.083,0.438-1.083,1.311v7.277c0,0.861,0.361,1.292,1.083,1.292
		c0.722,0,1.083-0.431,1.083-1.292v-2.604h-1.045v-1.899h3.021v4.351c0,1.077-0.266,1.903-0.798,2.48
		c-0.532,0.576-1.305,0.863-2.318,0.863C81.18,44.871,80.407,44.584,79.875,44.008z"/>
	<path fill="#FFFFFF" d="M87.38,44.008c-0.532-0.577-0.798-1.403-0.798-2.48V31.382h2.09V41.68c0,0.456,0.092,0.785,0.275,0.988
		s0.447,0.304,0.789,0.304c0.342,0,0.605-0.101,0.789-0.304S90.8,42.136,90.8,41.68V31.382h2.014v10.146
		c0,1.077-0.266,1.903-0.798,2.48c-0.532,0.576-1.305,0.863-2.318,0.863S87.912,44.584,87.38,44.008z"/>
	<path fill="#FFFFFF" d="M94.295,31.382h5.7v1.899h-3.61v3.516h2.869v1.9h-2.869v4.084h3.61v1.9h-5.7V31.382z"/>
	<path fill="#FFFFFF" d="M101.648,44.008c-0.52-0.577-0.779-1.403-0.779-2.48v-0.76h1.976v0.912c0,0.861,0.361,1.292,1.083,1.292
		c0.354,0,0.624-0.104,0.808-0.313c0.183-0.209,0.275-0.548,0.275-1.017c0-0.558-0.127-1.048-0.38-1.473
		c-0.254-0.424-0.722-0.934-1.406-1.529c-0.861-0.76-1.463-1.446-1.805-2.062c-0.342-0.614-0.513-1.308-0.513-2.08
		c0-1.052,0.266-1.865,0.798-2.441c0.532-0.576,1.305-0.865,2.318-0.865c1,0,1.758,0.289,2.271,0.865
		c0.513,0.576,0.77,1.402,0.77,2.479v0.551h-1.976v-0.684c0-0.455-0.089-0.788-0.266-0.997c-0.178-0.209-0.437-0.313-0.779-0.313
		c-0.697,0-1.045,0.424-1.045,1.273c0,0.48,0.13,0.93,0.39,1.349c0.259,0.418,0.731,0.925,1.416,1.52
		c0.874,0.761,1.476,1.45,1.805,2.071c0.33,0.621,0.494,1.35,0.494,2.186c0,1.089-0.269,1.925-0.808,2.508
		c-0.538,0.582-1.32,0.873-2.346,0.873C102.934,44.871,102.168,44.584,101.648,44.008z"/>
</g>
<g>
	<path fill-rule="evenodd" clip-rule="evenodd" fill="#627D53" d="M41.83,133.923c0.425-1.507,1.474-2.386,2.838-3.075
		c4.145-2.092,8.25-4.26,12.372-6.399c0.255-0.132,0.506-0.272,0.798-0.43c-1.034-2.462-1.985-4.921-3.092-7.308
		c-0.956-2.062-0.405-3.588,0.973-4.946c2.765-2.727,5.55-5.433,8.333-8.141c0.205-0.2,0.458-0.35,0.689-0.523
		c-0.031-0.073-0.063-0.146-0.094-0.219c-1.206-0.314-2.405-0.653-3.622-0.918c-0.193-0.042-0.508,0.201-0.684,0.391
		c-1.816,1.955-3.619,3.921-5.415,5.894c-0.901,0.988-1.996,1.379-3.286,1.025c-1.967-0.54-2.828-2.884-1.712-4.597
		c0.186-0.286,0.417-0.545,0.649-0.797c2.194-2.396,4.408-4.775,6.584-7.188c1.046-1.159,2.254-1.539,3.772-1.14
		c3.749,0.986,7.52,1.889,11.26,2.906c2.392,0.65,3.983,2.381,5.079,4.48c0.794,1.521,0.49,3.123-0.415,4.604
		c-0.175,0.287-0.239,0.736-0.161,1.064c0.224,0.948,0.561,1.868,0.822,2.808c0.125,0.448,0.344,0.685,0.822,0.815
		c2.542,0.7,5.086,1.401,7.601,2.191c2.384,0.749,3.001,3.646,1.159,5.24c-0.735,0.636-1.614,0.953-2.574,0.687
		c-3.404-0.944-6.801-1.915-10.193-2.903c-1.072-0.313-1.706-1.107-2.044-2.145c-0.245-0.75-0.469-1.508-0.75-2.42
		c-1.653,1.826-3.238,3.578-4.823,5.329c-0.11-0.075-0.221-0.151-0.331-0.227c0.435,0.485,0.869,0.973,1.306,1.456
		c2.035,2.256,4.052,4.527,6.112,6.76c1.182,1.28,1.524,2.674,1.043,4.369c-1.063,3.755-2.035,7.535-3.066,11.3
		c-0.484,1.769-1.75,2.805-3.438,2.888c-1.571,0.077-3.061-0.783-3.538-2.268c-0.245-0.763-0.315-1.689-0.13-2.461
		c0.74-3.076,1.6-6.123,2.445-9.172c0.155-0.56,0.16-0.98-0.319-1.399c-0.471-0.412-0.857-0.921-1.2-1.298
		c-1.056,0.61-2.032,1.222-3.05,1.753c-4.864,2.539-9.783,4.977-14.596,7.61c-2.768,1.515-5.467,0.389-6.126-2.33
		C41.83,134.769,41.83,134.346,41.83,133.923z"/>
	<path fill-rule="evenodd" clip-rule="evenodd" fill="#627D53" d="M102.918,118.33c-1.026-2.436-2.027-4.813-3.088-7.332
		c-0.568,0.672-1.069,1.256-1.561,1.849c-0.785,0.943-1.783,1.392-3.006,1.244c-3.381-0.405-6.763-0.804-10.137-1.259
		c-1.526-0.207-2.549-1.461-2.566-2.962c-0.017-1.489,0.977-2.876,2.382-3.013c1.061-0.104,2.155,0.059,3.227,0.174
		c1.916,0.207,3.823,0.488,5.74,0.683c0.295,0.03,0.673-0.176,0.921-0.383c0.339-0.283,0.567-0.696,0.885-1.011
		c0.94-0.931,1.476-1.88,1.308-3.365c-0.205-1.809,0.838-3.188,2.403-4.148c2.5-1.536,5.145-1.574,7.941-1.038
		c3.03,0.581,6.098,0.964,9.152,1.416c1.388,0.206,2.315,0.952,2.785,2.264c1.165,3.252,2.34,6.5,3.472,9.764
		c0.618,1.779-0.192,3.465-1.864,4.047c-1.629,0.567-3.279-0.246-3.923-1.996c-0.921-2.499-1.814-5.008-2.682-7.525
		c-0.179-0.519-0.431-0.766-0.98-0.826c-1.094-0.12-2.182-0.304-3.363-0.475c1.326,3.155,2.615,6.215,3.895,9.278
		c0.396,0.948,0.809,1.894,1.143,2.864c0.552,1.605,0.299,2.993-0.974,4.264c-1.924,1.922-3.722,3.97-5.573,5.965
		c-0.104-0.074-0.208-0.148-0.313-0.223c0.192,0.243,0.38,0.49,0.579,0.729c3.102,3.74,6.215,7.472,9.305,11.223
		c1.798,2.184,1.07,5.126-1.461,6.029c-1.519,0.542-3.07,0.063-4.236-1.334c-1.828-2.189-3.646-4.389-5.467-6.584
		c-1.619-1.951-3.236-3.904-4.856-5.854c-0.148-0.179-0.313-0.344-0.518-0.567c-0.768,1.543-1.509,3.027-2.247,4.513
		c-1.302,2.622-2.595,5.249-3.908,7.866c-0.732,1.46-1.927,2.236-3.572,2.147c-1.534-0.084-2.621-0.888-3.216-2.313
		c-0.422-1.01-0.359-2.025,0.119-2.991c2.642-5.345,5.279-10.69,7.974-16.008c0.33-0.651,0.924-1.225,1.515-1.678
		C99.68,120.592,101.273,119.506,102.918,118.33z"/>
	<path fill-rule="evenodd" clip-rule="evenodd" fill="#627D53" d="M79.352,98.582c-3.069-0.02-5.627-2.608-5.622-5.689
		c0.006-3.097,2.629-5.668,5.751-5.637c3.08,0.031,5.617,2.602,5.617,5.691C85.099,96.051,82.497,98.603,79.352,98.582z"/>
	<path fill-rule="evenodd" clip-rule="evenodd" fill="#627D53" d="M80.401,144.77c-3.121-0.11-5.623-2.722-5.527-5.77
		c0.1-3.191,2.73-5.669,5.898-5.556c3.069,0.11,5.564,2.79,5.445,5.85C86.097,142.404,83.468,144.879,80.401,144.77z"/>
	<path fill-rule="evenodd" clip-rule="evenodd" fill="#627D53" d="M100.372,83.438c3.087,0.003,5.639,2.544,5.664,5.64
		c0.025,3.106-2.566,5.698-5.691,5.692c-3.09-0.005-5.632-2.534-5.67-5.641C94.637,86.049,97.254,83.434,100.372,83.438z"/>
</g>
</svg>
