<?xml version="1.0" encoding="utf-8"?>
<!-- Generator: Adobe Illustrator 16.0.0, SVG Export Plug-In . SVG Version: 6.00 Build 0)  -->
<!DOCTYPE svg PUBLIC "-//W3C//DTD SVG 1.1//EN" "http://www.w3.org/Graphics/SVG/1.1/DTD/svg11.dtd">
<svg version="1.1" id="Layer_1" xmlns="http://www.w3.org/2000/svg" xmlns:xlink="http://www.w3.org/1999/xlink" x="0px" y="0px"
	 width="164px" height="177.242px" viewBox="0 0 164 177.242" enable-background="new 0 0 164 177.242" xml:space="preserve">
<g>
	<g>
		<path fill-rule="evenodd" clip-rule="evenodd" fill="#FFFFFF" d="M154,166.242c0,5.522-4.477,10-10,10H24c-5.523,0-10-4.478-10-10
			v-90c0-5.522,4.477-10,10-10h120c5.523,0,10,4.478,10,10V166.242z"/>
		<path fill="none" stroke="#000000" stroke-width="2" stroke-miterlimit="10" d="M154,166.242c0,5.522-4.477,10-10,10H24
			c-5.523,0-10-4.478-10-10v-90c0-5.522,4.477-10,10-10h120c5.523,0,10,4.478,10,10V166.242z"/>
	</g>
	<g>
		<g>
			<path fill="#1A1A1A" d="M25.688,16.724c0-0.31-0.044-0.588-0.134-0.836c-0.09-0.249-0.263-0.478-0.519-0.69
				c-0.257-0.211-0.61-0.418-1.063-0.622c-0.451-0.203-1.035-0.419-1.752-0.647c-0.813-0.26-1.58-0.553-2.301-0.879
				c-0.72-0.324-1.351-0.709-1.892-1.153c-0.542-0.443-0.969-0.954-1.282-1.532c-0.313-0.577-0.47-1.252-0.47-2.025
				c0-0.74,0.16-1.418,0.482-2.033c0.321-0.614,0.772-1.137,1.354-1.568s1.273-0.768,2.075-1.007c0.802-0.24,1.683-0.36,2.644-0.36
				c0.984,0,1.879,0.137,2.686,0.409c0.805,0.272,1.493,0.653,2.063,1.142s1.009,1.067,1.318,1.739
				c0.31,0.671,0.464,1.405,0.464,2.203h-3.662c0-0.374-0.06-0.72-0.177-1.038c-0.118-0.316-0.299-0.59-0.543-0.817
				s-0.55-0.405-0.916-0.531s-0.798-0.188-1.294-0.188c-0.48,0-0.897,0.053-1.251,0.158c-0.354,0.105-0.647,0.252-0.879,0.439
				c-0.232,0.188-0.407,0.407-0.525,0.659c-0.118,0.253-0.177,0.521-0.177,0.806c0,0.586,0.299,1.076,0.897,1.471
				c0.598,0.395,1.475,0.764,2.631,1.105c0.968,0.301,1.82,0.635,2.557,1c0.736,0.367,1.351,0.781,1.844,1.246
				c0.492,0.463,0.864,0.984,1.117,1.563c0.252,0.578,0.378,1.232,0.378,1.965c0,0.781-0.152,1.477-0.458,2.088
				c-0.305,0.609-0.738,1.125-1.3,1.544s-1.239,0.74-2.032,0.964c-0.794,0.225-1.679,0.336-2.655,0.336
				c-0.586,0-1.172-0.051-1.758-0.152s-1.146-0.258-1.679-0.471c-0.533-0.211-1.027-0.476-1.482-0.793
				c-0.456-0.317-0.854-0.691-1.19-1.123c-0.338-0.432-0.603-0.922-0.794-1.471c-0.191-0.55-0.287-1.158-0.287-1.825h3.675
				c0,0.537,0.085,0.993,0.257,1.367c0.17,0.374,0.408,0.678,0.714,0.909c0.305,0.232,0.673,0.401,1.104,0.507
				c0.432,0.106,0.911,0.159,1.44,0.159c0.472,0,0.883-0.051,1.233-0.153c0.35-0.102,0.639-0.241,0.866-0.421
				c0.228-0.179,0.396-0.393,0.507-0.641C25.634,17.275,25.688,17.009,25.688,16.724z"/>
			<path fill="#1A1A1A" d="M43.498,14.904c0,0.961-0.111,1.852-0.335,2.674c-0.225,0.822-0.552,1.532-0.983,2.13
				c-0.431,0.599-0.966,1.068-1.604,1.41c-0.64,0.342-1.374,0.513-2.204,0.513c-0.699,0-1.316-0.122-1.849-0.366
				c-0.533-0.244-0.995-0.586-1.386-1.025v6.226h-3.527V8.179h3.271l0.121,1.294c0.407-0.488,0.881-0.867,1.423-1.135
				c0.541-0.27,1.182-0.403,1.923-0.403c0.838,0,1.578,0.161,2.221,0.482c0.644,0.321,1.181,0.776,1.611,1.367
				c0.432,0.59,0.759,1.298,0.983,2.124c0.224,0.826,0.335,1.739,0.335,2.74V14.904z M39.971,14.648c0-0.545-0.047-1.052-0.141-1.52
				c-0.094-0.469-0.242-0.875-0.445-1.221s-0.466-0.617-0.787-0.813c-0.322-0.195-0.715-0.293-1.178-0.293
				c-0.578,0-1.053,0.108-1.423,0.324c-0.37,0.215-0.657,0.531-0.86,0.945v5.408c0.203,0.407,0.49,0.727,0.86,0.958
				c0.37,0.232,0.853,0.349,1.446,0.349c0.465,0,0.856-0.102,1.179-0.306c0.321-0.203,0.581-0.482,0.781-0.836
				c0.199-0.354,0.344-0.767,0.433-1.239c0.09-0.472,0.135-0.973,0.135-1.502V14.648z"/>
			<path fill="#1A1A1A" d="M45.134,14.66c0-0.959,0.139-1.851,0.415-2.673c0.276-0.821,0.68-1.532,1.209-2.13
				c0.528-0.599,1.182-1.068,1.959-1.41c0.776-0.342,1.662-0.513,2.654-0.513c1.002,0,1.893,0.171,2.674,0.513
				s1.438,0.812,1.972,1.41c0.532,0.598,0.938,1.309,1.214,2.13c0.277,0.822,0.416,1.714,0.416,2.673v0.257
				c0,0.969-0.139,1.861-0.416,2.68c-0.276,0.817-0.682,1.525-1.214,2.124c-0.533,0.598-1.187,1.066-1.96,1.403
				c-0.772,0.338-1.66,0.507-2.66,0.507c-1.002,0-1.891-0.169-2.668-0.507c-0.777-0.337-1.433-0.806-1.965-1.403
				c-0.533-0.599-0.938-1.307-1.215-2.124c-0.276-0.818-0.415-1.711-0.415-2.68V14.66z M48.662,14.917
				c0,0.537,0.049,1.042,0.146,1.514s0.254,0.881,0.47,1.227c0.215,0.347,0.496,0.621,0.842,0.824
				c0.346,0.204,0.771,0.306,1.276,0.306c0.488,0,0.904-0.102,1.251-0.306c0.346-0.203,0.628-0.478,0.849-0.824
				c0.219-0.346,0.378-0.755,0.476-1.227s0.146-0.977,0.146-1.514V14.66c0-0.52-0.049-1.015-0.146-1.482
				c-0.098-0.469-0.257-0.879-0.476-1.233c-0.221-0.354-0.505-0.635-0.855-0.842c-0.35-0.208-0.772-0.312-1.27-0.312
				c-0.488,0-0.905,0.104-1.251,0.312c-0.346,0.207-0.627,0.488-0.842,0.842c-0.216,0.354-0.372,0.765-0.47,1.233
				c-0.098,0.468-0.146,0.963-0.146,1.482V14.917z"/>
			<path fill="#1A1A1A" d="M67.241,11.486c-0.18-0.023-0.39-0.047-0.629-0.066c-0.24-0.021-0.454-0.031-0.641-0.031
				c-0.692,0-1.252,0.116-1.679,0.349c-0.428,0.231-0.743,0.567-0.946,1.007v8.643h-3.527V8.179h3.332l0.098,1.575
				c0.334-0.57,0.744-1.016,1.232-1.337s1.059-0.482,1.709-0.482c0.188,0,0.385,0.017,0.593,0.049
				c0.207,0.032,0.376,0.069,0.507,0.11L67.241,11.486z"/>
			<path fill="#1A1A1A" d="M73.16,4.932v3.247h2.259v2.588H73.16v6.592c0,0.276,0.029,0.505,0.086,0.684s0.143,0.319,0.256,0.421
				c0.114,0.102,0.255,0.171,0.422,0.208c0.166,0.036,0.364,0.055,0.592,0.055c0.212,0,0.404-0.008,0.58-0.024
				c0.175-0.016,0.327-0.037,0.457-0.061v2.673c-0.293,0.089-0.612,0.165-0.958,0.226c-0.346,0.062-0.738,0.092-1.178,0.092
				c-0.578,0-1.099-0.071-1.563-0.214c-0.464-0.142-0.86-0.368-1.19-0.677c-0.329-0.31-0.584-0.713-0.763-1.209
				s-0.269-1.094-0.269-1.795v-6.97h-1.929V8.179h1.929V4.932H73.16z"/>
			<path fill="#1A1A1A" d="M83.842,21.387V3.613h6.226c1.033,0,1.957,0.098,2.771,0.293c0.813,0.195,1.503,0.494,2.068,0.897
				c0.565,0.402,0.997,0.909,1.294,1.52s0.446,1.331,0.446,2.161c0,0.406-0.052,0.797-0.153,1.172
				c-0.102,0.374-0.256,0.725-0.464,1.049c-0.207,0.326-0.47,0.621-0.787,0.886s-0.695,0.481-1.135,0.653
				c0.521,0.13,0.966,0.327,1.336,0.592c0.37,0.264,0.676,0.572,0.916,0.922c0.239,0.35,0.415,0.73,0.524,1.141
				c0.11,0.411,0.165,0.832,0.165,1.264c0,1.726-0.556,3.027-1.666,3.906c-1.111,0.879-2.691,1.318-4.742,1.318H83.842z
				 M87.504,11.06h2.71c0.936-0.017,1.632-0.214,2.088-0.592c0.455-0.379,0.684-0.917,0.684-1.618c0-0.805-0.234-1.385-0.702-1.739
				c-0.469-0.354-1.207-0.53-2.216-0.53h-2.563V11.06z M87.504,13.647v4.798h3.138c0.472,0,0.879-0.06,1.221-0.178
				c0.342-0.117,0.626-0.28,0.854-0.488c0.229-0.207,0.397-0.451,0.507-0.732c0.11-0.28,0.165-0.588,0.165-0.922
				c0-0.382-0.049-0.726-0.146-1.031c-0.098-0.305-0.25-0.565-0.458-0.781c-0.207-0.215-0.478-0.38-0.812-0.494
				c-0.334-0.113-0.732-0.171-1.196-0.171H87.504z"/>
			<path fill="#1A1A1A" d="M107.218,21.387c-0.163-0.317-0.28-0.712-0.354-1.184c-0.357,0.398-0.808,0.736-1.349,1.013
				s-1.202,0.415-1.983,0.415c-0.635,0-1.227-0.098-1.776-0.293c-0.549-0.195-1.025-0.468-1.428-0.818
				c-0.403-0.35-0.719-0.767-0.946-1.251c-0.228-0.483-0.342-1.015-0.342-1.593c0-0.691,0.128-1.307,0.385-1.844
				c0.256-0.537,0.641-0.992,1.153-1.367c0.513-0.373,1.149-0.658,1.91-0.854s1.646-0.293,2.655-0.293h1.574v-0.758
				c0-0.609-0.156-1.098-0.47-1.465c-0.313-0.365-0.808-0.549-1.483-0.549c-0.594,0-1.06,0.143-1.397,0.428
				s-0.507,0.676-0.507,1.172h-3.527c0-0.57,0.132-1.111,0.396-1.624s0.641-0.96,1.129-1.343s1.079-0.686,1.771-0.909
				s1.465-0.336,2.319-0.336c0.765,0,1.473,0.098,2.124,0.293s1.213,0.486,1.685,0.873c0.472,0.386,0.84,0.87,1.104,1.452
				s0.397,1.26,0.397,2.033v5.59c0,0.375,0.012,0.711,0.036,1.008s0.057,0.565,0.098,0.806c0.041,0.239,0.094,0.456,0.159,0.646
				c0.064,0.191,0.142,0.372,0.231,0.544v0.207H107.218z M104.301,18.934c0.301,0,0.579-0.037,0.836-0.11
				c0.256-0.073,0.486-0.169,0.689-0.287s0.38-0.254,0.531-0.409c0.15-0.154,0.271-0.313,0.359-0.476v-2.271h-1.452
				c-0.464,0-0.866,0.051-1.208,0.152s-0.623,0.244-0.843,0.428c-0.22,0.183-0.383,0.398-0.488,0.646s-0.159,0.52-0.159,0.813
				c0,0.439,0.155,0.801,0.465,1.086C103.34,18.791,103.764,18.934,104.301,18.934z"/>
			<path fill="#1A1A1A" d="M120.39,11.486c-0.18-0.023-0.39-0.047-0.629-0.066c-0.24-0.021-0.454-0.031-0.641-0.031
				c-0.692,0-1.252,0.116-1.679,0.349c-0.428,0.231-0.743,0.567-0.946,1.007v8.643h-3.527V8.179h3.332l0.098,1.575
				c0.334-0.57,0.744-1.016,1.232-1.337s1.059-0.482,1.709-0.482c0.188,0,0.385,0.017,0.593,0.049
				c0.207,0.032,0.376,0.069,0.507,0.11L120.39,11.486z"/>
			<path fill="#1A1A1A" d="M129.238,17.736c0-0.187-0.036-0.357-0.109-0.512s-0.212-0.3-0.415-0.434
				c-0.203-0.135-0.48-0.263-0.83-0.385s-0.802-0.24-1.354-0.354c-0.676-0.146-1.301-0.33-1.874-0.55
				c-0.574-0.22-1.07-0.492-1.489-0.817c-0.42-0.326-0.747-0.704-0.982-1.136c-0.236-0.431-0.354-0.932-0.354-1.501
				c0-0.554,0.12-1.078,0.36-1.575c0.239-0.496,0.586-0.934,1.037-1.313c0.452-0.378,1.005-0.677,1.66-0.897
				c0.655-0.219,1.394-0.329,2.216-0.329c0.854,0,1.624,0.106,2.308,0.317c0.684,0.212,1.263,0.507,1.739,0.885
				c0.476,0.379,0.842,0.828,1.099,1.35c0.256,0.521,0.385,1.09,0.385,1.709h-3.528c0-0.505-0.163-0.922-0.488-1.252
				c-0.325-0.329-0.834-0.494-1.526-0.494c-0.594,0-1.054,0.135-1.379,0.402c-0.325,0.27-0.488,0.611-0.488,1.025
				c0,0.195,0.043,0.369,0.128,0.52c0.086,0.15,0.224,0.289,0.415,0.415s0.443,0.242,0.757,0.348
				c0.313,0.106,0.698,0.204,1.153,0.293c0.717,0.139,1.38,0.31,1.99,0.513s1.137,0.466,1.581,0.787
				c0.443,0.322,0.791,0.713,1.044,1.172c0.252,0.46,0.378,1.016,0.378,1.666c0,0.586-0.13,1.125-0.391,1.618
				c-0.261,0.492-0.633,0.917-1.117,1.275s-1.067,0.64-1.751,0.843s-1.449,0.305-2.295,0.305c-0.928,0-1.746-0.131-2.454-0.391
				s-1.305-0.602-1.788-1.025c-0.484-0.423-0.849-0.898-1.093-1.428s-0.366-1.063-0.366-1.6h3.345
				c0.017,0.342,0.092,0.637,0.226,0.885c0.135,0.248,0.312,0.45,0.531,0.604c0.22,0.155,0.474,0.269,0.763,0.342
				s0.593,0.11,0.909,0.11c0.676,0,1.187-0.129,1.532-0.385C129.065,18.487,129.238,18.152,129.238,17.736z"/>
			<path fill="#1A1A1A" d="M140.677,16.602c0-0.513,0.079-0.979,0.237-1.397c0.159-0.419,0.379-0.812,0.659-1.179
				c0.281-0.365,0.618-0.714,1.014-1.043c0.395-0.33,0.832-0.661,1.313-0.995c-0.529-0.708-0.944-1.373-1.246-1.996
				c-0.301-0.622-0.451-1.271-0.451-1.946c0-0.7,0.116-1.337,0.348-1.911c0.232-0.573,0.558-1.065,0.977-1.477
				s0.928-0.729,1.526-0.952c0.598-0.225,1.263-0.336,1.995-0.336c0.692,0,1.318,0.109,1.881,0.33
				c0.561,0.219,1.039,0.519,1.434,0.896c0.395,0.379,0.698,0.818,0.91,1.318c0.211,0.501,0.316,1.031,0.316,1.594
				c0,0.414-0.059,0.805-0.177,1.172c-0.118,0.365-0.282,0.712-0.494,1.037c-0.212,0.326-0.462,0.631-0.751,0.916
				s-0.608,0.549-0.958,0.793l-1.136,0.818l3.064,3.564c0.228-0.447,0.404-0.932,0.531-1.453c0.126-0.521,0.189-1.078,0.189-1.672
				h3.002c0,1.09-0.124,2.107-0.372,3.051c-0.248,0.945-0.657,1.799-1.227,2.564l2.661,3.088h-4.004l-0.916-1.05
				c-0.667,0.439-1.371,0.765-2.111,0.977s-1.542,0.317-2.404,0.317c-0.896,0-1.703-0.124-2.424-0.372
				c-0.72-0.249-1.33-0.595-1.831-1.038c-0.5-0.443-0.885-0.975-1.153-1.593S140.677,17.334,140.677,16.602z M146.657,18.799
				c0.847,0,1.648-0.236,2.405-0.708l-3.503-4.053l-0.257,0.183c-0.228,0.195-0.413,0.389-0.556,0.58s-0.252,0.379-0.329,0.562
				c-0.078,0.184-0.131,0.362-0.159,0.537s-0.043,0.345-0.043,0.507c0,0.342,0.058,0.659,0.172,0.952
				c0.113,0.293,0.278,0.548,0.494,0.763c0.215,0.216,0.474,0.383,0.775,0.501C145.958,18.74,146.292,18.799,146.657,18.799z
				 M145.364,7.996c0,0.365,0.098,0.736,0.293,1.11s0.455,0.773,0.781,1.196l0.939-0.623c0.252-0.162,0.462-0.32,0.629-0.476
				c0.166-0.154,0.297-0.312,0.391-0.47c0.093-0.159,0.158-0.319,0.195-0.482c0.036-0.162,0.055-0.338,0.055-0.525
				c0-0.187-0.037-0.369-0.109-0.549c-0.074-0.179-0.178-0.34-0.312-0.482c-0.135-0.143-0.304-0.258-0.507-0.348
				s-0.432-0.135-0.684-0.135c-0.276,0-0.519,0.047-0.727,0.141c-0.207,0.094-0.383,0.223-0.524,0.385
				c-0.143,0.163-0.249,0.352-0.317,0.567C145.398,7.521,145.364,7.752,145.364,7.996z"/>
			<path fill="#1A1A1A" d="M25.725,42.881h-2.917v6.506h-3.662V31.613h6.604c1.025,0,1.944,0.116,2.758,0.348
				c0.814,0.232,1.502,0.574,2.063,1.025c0.562,0.452,0.993,1.012,1.294,1.679s0.451,1.44,0.451,2.319
				c0,0.651-0.072,1.234-0.219,1.752c-0.146,0.517-0.358,0.977-0.635,1.379c-0.277,0.403-0.611,0.756-1.002,1.057
				s-0.83,0.561-1.318,0.781l3.846,7.263v0.171h-3.931L25.725,42.881z M22.808,39.914h2.954c0.48,0,0.901-0.063,1.264-0.189
				c0.361-0.126,0.663-0.305,0.903-0.537c0.239-0.231,0.421-0.508,0.543-0.83c0.122-0.321,0.183-0.682,0.183-1.08
				c0-0.838-0.237-1.497-0.714-1.978c-0.476-0.479-1.206-0.72-2.19-0.72h-2.942V39.914z"/>
			<path fill="#1A1A1A" d="M40.947,49.631c-1.025,0-1.942-0.167-2.752-0.5c-0.811-0.334-1.498-0.789-2.063-1.367
				s-0.997-1.256-1.294-2.033s-0.445-1.609-0.445-2.496v-0.477c0-1,0.145-1.918,0.434-2.752c0.288-0.834,0.699-1.553,1.232-2.154
				c0.533-0.603,1.18-1.072,1.941-1.41c0.761-0.338,1.613-0.507,2.557-0.507c0.953,0,1.791,0.157,2.516,0.47
				c0.724,0.313,1.332,0.753,1.824,1.318c0.492,0.566,0.862,1.248,1.111,2.045c0.248,0.798,0.372,1.685,0.372,2.661v1.501h-8.411
				c0.058,0.432,0.173,0.822,0.349,1.172c0.175,0.351,0.398,0.649,0.671,0.897c0.272,0.249,0.592,0.442,0.959,0.58
				c0.365,0.139,0.776,0.208,1.232,0.208c0.643,0,1.237-0.121,1.782-0.36c0.545-0.24,1.013-0.612,1.403-1.117l1.734,1.94
				c-0.212,0.302-0.477,0.595-0.794,0.879c-0.317,0.285-0.691,0.539-1.123,0.764c-0.432,0.224-0.918,0.402-1.459,0.537
				C42.183,49.563,41.591,49.631,40.947,49.631z M40.545,38.791c-0.383,0-0.719,0.067-1.007,0.201
				c-0.289,0.135-0.537,0.322-0.745,0.562c-0.207,0.24-0.376,0.527-0.506,0.86c-0.131,0.334-0.225,0.705-0.281,1.111h4.907v-0.281
				c-0.008-0.35-0.06-0.675-0.152-0.977c-0.094-0.301-0.236-0.561-0.428-0.781c-0.191-0.219-0.436-0.391-0.732-0.512
				C41.304,38.852,40.952,38.791,40.545,38.791z"/>
			<path fill="#1A1A1A" d="M55.535,45.736c0-0.187-0.036-0.357-0.109-0.512s-0.212-0.3-0.415-0.434
				c-0.203-0.135-0.48-0.263-0.83-0.385s-0.802-0.24-1.354-0.354c-0.676-0.146-1.301-0.33-1.874-0.55
				c-0.574-0.22-1.07-0.492-1.489-0.817c-0.42-0.326-0.747-0.704-0.982-1.136c-0.236-0.431-0.354-0.932-0.354-1.501
				c0-0.554,0.12-1.078,0.36-1.575c0.239-0.496,0.586-0.934,1.037-1.313c0.452-0.378,1.005-0.677,1.66-0.897
				c0.655-0.219,1.394-0.329,2.216-0.329c0.854,0,1.624,0.106,2.308,0.317c0.684,0.212,1.263,0.507,1.739,0.885
				c0.476,0.379,0.842,0.828,1.099,1.35c0.256,0.521,0.385,1.09,0.385,1.709h-3.528c0-0.505-0.163-0.922-0.488-1.252
				c-0.325-0.329-0.834-0.494-1.526-0.494c-0.594,0-1.054,0.135-1.379,0.402c-0.325,0.27-0.488,0.611-0.488,1.025
				c0,0.195,0.043,0.369,0.128,0.52c0.086,0.15,0.224,0.289,0.415,0.415s0.443,0.242,0.757,0.348
				c0.313,0.106,0.698,0.204,1.153,0.293c0.717,0.139,1.38,0.31,1.99,0.513s1.137,0.466,1.581,0.787
				c0.443,0.322,0.791,0.713,1.044,1.172c0.252,0.46,0.378,1.016,0.378,1.666c0,0.586-0.13,1.125-0.391,1.618
				c-0.261,0.492-0.633,0.917-1.117,1.275s-1.067,0.64-1.751,0.843s-1.449,0.305-2.295,0.305c-0.928,0-1.746-0.131-2.454-0.391
				s-1.305-0.602-1.788-1.025c-0.484-0.423-0.849-0.898-1.093-1.428s-0.366-1.063-0.366-1.6h3.345
				c0.017,0.342,0.092,0.637,0.226,0.885c0.135,0.248,0.312,0.45,0.531,0.604c0.22,0.155,0.474,0.269,0.763,0.342
				s0.593,0.11,0.909,0.11c0.676,0,1.187-0.129,1.532-0.385C55.362,46.487,55.535,46.152,55.535,45.736z"/>
			<path fill="#1A1A1A" d="M65.459,32.932v3.247h2.259v2.588h-2.259v6.592c0,0.276,0.029,0.505,0.086,0.684s0.143,0.319,0.256,0.421
				c0.114,0.102,0.255,0.171,0.422,0.208c0.166,0.036,0.364,0.055,0.592,0.055c0.212,0,0.404-0.008,0.58-0.024
				c0.175-0.016,0.327-0.037,0.457-0.061v2.673c-0.293,0.089-0.612,0.165-0.958,0.226c-0.346,0.062-0.738,0.092-1.178,0.092
				c-0.578,0-1.099-0.071-1.563-0.214c-0.464-0.142-0.86-0.368-1.19-0.677c-0.329-0.31-0.584-0.713-0.763-1.209
				s-0.269-1.094-0.269-1.795v-6.97h-1.929v-2.588h1.929v-3.247H65.459z"/>
			<path fill="#1A1A1A" d="M77.337,49.387c-0.163-0.317-0.28-0.712-0.354-1.184c-0.357,0.398-0.808,0.736-1.349,1.013
				s-1.202,0.415-1.983,0.415c-0.635,0-1.227-0.098-1.776-0.293c-0.549-0.195-1.025-0.468-1.428-0.818
				c-0.403-0.35-0.719-0.767-0.946-1.251c-0.228-0.483-0.342-1.015-0.342-1.593c0-0.691,0.128-1.307,0.385-1.844
				c0.256-0.537,0.641-0.992,1.153-1.367c0.513-0.373,1.149-0.658,1.91-0.854s1.646-0.293,2.655-0.293h1.574v-0.758
				c0-0.609-0.156-1.098-0.47-1.465c-0.313-0.365-0.808-0.549-1.483-0.549c-0.594,0-1.06,0.143-1.397,0.428
				s-0.507,0.676-0.507,1.172h-3.527c0-0.57,0.132-1.111,0.396-1.624s0.641-0.96,1.129-1.343s1.079-0.686,1.771-0.909
				s1.465-0.336,2.319-0.336c0.765,0,1.473,0.098,2.124,0.293s1.213,0.486,1.685,0.873c0.472,0.386,0.84,0.87,1.104,1.452
				s0.397,1.26,0.397,2.033v5.59c0,0.375,0.012,0.711,0.036,1.008s0.057,0.565,0.098,0.806c0.041,0.239,0.094,0.456,0.159,0.646
				c0.064,0.191,0.142,0.372,0.231,0.544v0.207H77.337z M74.42,46.934c0.301,0,0.579-0.037,0.836-0.11
				c0.256-0.073,0.486-0.169,0.689-0.287s0.38-0.254,0.531-0.409c0.15-0.154,0.271-0.313,0.359-0.476v-2.271h-1.452
				c-0.464,0-0.866,0.051-1.208,0.152s-0.623,0.244-0.843,0.428c-0.22,0.183-0.383,0.398-0.488,0.646s-0.159,0.52-0.159,0.813
				c0,0.439,0.155,0.801,0.465,1.086C73.459,46.791,73.883,46.934,74.42,46.934z"/>
			<path fill="#1A1A1A" d="M90.997,48.044c-0.416,0.505-0.92,0.896-1.514,1.172c-0.595,0.276-1.295,0.415-2.1,0.415
				c-0.651,0-1.246-0.092-1.783-0.274c-0.537-0.184-0.999-0.472-1.385-0.867c-0.387-0.395-0.686-0.903-0.897-1.525
				c-0.212-0.623-0.317-1.369-0.317-2.24v-8.545h3.527v8.569c0,0.366,0.047,0.68,0.141,0.939c0.094,0.262,0.224,0.471,0.391,0.629
				c0.167,0.159,0.364,0.275,0.592,0.348c0.229,0.074,0.48,0.11,0.758,0.11c0.635,0,1.151-0.11,1.55-0.329
				c0.398-0.221,0.704-0.525,0.915-0.916v-9.351h3.541v13.208h-3.32L90.997,48.044z"/>
			<path fill="#1A1A1A" d="M104.498,39.486c-0.18-0.023-0.39-0.047-0.629-0.066c-0.24-0.021-0.454-0.031-0.641-0.031
				c-0.692,0-1.252,0.116-1.679,0.349c-0.428,0.231-0.743,0.567-0.946,1.007v8.643h-3.527V36.179h3.332l0.098,1.575
				c0.334-0.57,0.744-1.016,1.232-1.337s1.059-0.482,1.709-0.482c0.188,0,0.385,0.017,0.593,0.049
				c0.207,0.032,0.376,0.069,0.507,0.11L104.498,39.486z"/>
			<path fill="#1A1A1A" d="M113.849,49.387c-0.163-0.317-0.28-0.712-0.354-1.184c-0.357,0.398-0.808,0.736-1.349,1.013
				s-1.202,0.415-1.983,0.415c-0.635,0-1.227-0.098-1.776-0.293c-0.549-0.195-1.025-0.468-1.428-0.818
				c-0.403-0.35-0.719-0.767-0.946-1.251c-0.228-0.483-0.342-1.015-0.342-1.593c0-0.691,0.128-1.307,0.385-1.844
				c0.256-0.537,0.641-0.992,1.153-1.367c0.513-0.373,1.149-0.658,1.91-0.854s1.646-0.293,2.655-0.293h1.574v-0.758
				c0-0.609-0.156-1.098-0.47-1.465c-0.313-0.365-0.808-0.549-1.483-0.549c-0.594,0-1.06,0.143-1.397,0.428
				s-0.507,0.676-0.507,1.172h-3.527c0-0.57,0.132-1.111,0.396-1.624s0.641-0.96,1.129-1.343s1.079-0.686,1.771-0.909
				s1.465-0.336,2.319-0.336c0.765,0,1.473,0.098,2.124,0.293s1.213,0.486,1.685,0.873c0.472,0.386,0.84,0.87,1.104,1.452
				s0.397,1.26,0.397,2.033v5.59c0,0.375,0.012,0.711,0.036,1.008s0.057,0.565,0.098,0.806c0.041,0.239,0.094,0.456,0.159,0.646
				c0.064,0.191,0.142,0.372,0.231,0.544v0.207H113.849z M110.932,46.934c0.301,0,0.579-0.037,0.836-0.11
				c0.256-0.073,0.486-0.169,0.689-0.287s0.38-0.254,0.531-0.409c0.15-0.154,0.271-0.313,0.359-0.476v-2.271h-1.452
				c-0.464,0-0.866,0.051-1.208,0.152s-0.623,0.244-0.843,0.428c-0.22,0.183-0.383,0.398-0.488,0.646s-0.159,0.52-0.159,0.813
				c0,0.439,0.155,0.801,0.465,1.086C109.971,46.791,110.395,46.934,110.932,46.934z"/>
			<path fill="#1A1A1A" d="M122.845,36.179l0.11,1.526c0.456-0.57,1.005-1.008,1.647-1.313c0.644-0.306,1.359-0.458,2.148-0.458
				c0.627,0,1.197,0.087,1.709,0.263c0.514,0.175,0.953,0.462,1.318,0.86c0.367,0.399,0.649,0.92,0.849,1.563
				c0.199,0.644,0.3,1.433,0.3,2.368v8.398h-3.528v-8.423c0-0.423-0.047-0.772-0.141-1.05c-0.094-0.276-0.229-0.496-0.409-0.659
				c-0.179-0.163-0.398-0.278-0.658-0.348c-0.261-0.069-0.563-0.104-0.904-0.104c-0.521,0-0.966,0.115-1.336,0.342
				c-0.371,0.229-0.67,0.537-0.897,0.928v9.314h-3.528V36.179H122.845z"/>
			<path fill="#1A1A1A" d="M137.822,32.932v3.247h2.259v2.588h-2.259v6.592c0,0.276,0.029,0.505,0.086,0.684
				s0.143,0.319,0.256,0.421c0.114,0.102,0.255,0.171,0.422,0.208c0.166,0.036,0.364,0.055,0.592,0.055
				c0.212,0,0.404-0.008,0.58-0.024c0.175-0.016,0.327-0.037,0.457-0.061v2.673c-0.293,0.089-0.612,0.165-0.958,0.226
				c-0.346,0.062-0.738,0.092-1.178,0.092c-0.578,0-1.099-0.071-1.563-0.214c-0.464-0.142-0.86-0.368-1.19-0.677
				c-0.329-0.31-0.584-0.713-0.763-1.209s-0.269-1.094-0.269-1.795v-6.97h-1.929v-2.588h1.929v-3.247H137.822z"/>
			<path fill="#1A1A1A" d="M149.199,45.736c0-0.187-0.036-0.357-0.109-0.512s-0.212-0.3-0.415-0.434
				c-0.203-0.135-0.48-0.263-0.83-0.385s-0.802-0.24-1.354-0.354c-0.676-0.146-1.301-0.33-1.874-0.55
				c-0.574-0.22-1.07-0.492-1.489-0.817c-0.42-0.326-0.747-0.704-0.982-1.136c-0.236-0.431-0.354-0.932-0.354-1.501
				c0-0.554,0.12-1.078,0.36-1.575c0.239-0.496,0.586-0.934,1.037-1.313c0.452-0.378,1.005-0.677,1.66-0.897
				c0.655-0.219,1.394-0.329,2.216-0.329c0.854,0,1.624,0.106,2.308,0.317c0.684,0.212,1.263,0.507,1.739,0.885
				c0.476,0.379,0.842,0.828,1.099,1.35c0.256,0.521,0.385,1.09,0.385,1.709h-3.528c0-0.505-0.163-0.922-0.488-1.252
				c-0.325-0.329-0.834-0.494-1.526-0.494c-0.594,0-1.054,0.135-1.379,0.402c-0.325,0.27-0.488,0.611-0.488,1.025
				c0,0.195,0.043,0.369,0.128,0.52c0.086,0.15,0.224,0.289,0.415,0.415s0.443,0.242,0.757,0.348
				c0.313,0.106,0.698,0.204,1.153,0.293c0.717,0.139,1.38,0.31,1.99,0.513s1.137,0.466,1.581,0.787
				c0.443,0.322,0.791,0.713,1.044,1.172c0.252,0.46,0.378,1.016,0.378,1.666c0,0.586-0.13,1.125-0.391,1.618
				c-0.261,0.492-0.633,0.917-1.117,1.275s-1.067,0.64-1.751,0.843s-1.449,0.305-2.295,0.305c-0.928,0-1.746-0.131-2.454-0.391
				s-1.305-0.602-1.788-1.025c-0.484-0.423-0.849-0.898-1.093-1.428s-0.366-1.063-0.366-1.6h3.345
				c0.017,0.342,0.092,0.637,0.226,0.885c0.135,0.248,0.312,0.45,0.531,0.604c0.22,0.155,0.474,0.269,0.763,0.342
				s0.593,0.11,0.909,0.11c0.676,0,1.187-0.129,1.532-0.385C149.026,46.487,149.199,46.152,149.199,45.736z"/>
		</g>
	</g>
	<g>
		<line fill="none" stroke="#676767" stroke-width="2" stroke-miterlimit="10" x1="86.699" y1="82.526" x2="86.699" y2="161.704"/>
		<path fill-rule="evenodd" clip-rule="evenodd" fill="#010101" d="M112.291,132.675c2.752-3.313,5.717-6.477,8.16-10.002
			c1.115-1.605,1.811-3.98,1.635-5.912c-0.377-4.164,0.74-7.732,3.059-10.988c2.668-3.75,5.494-7.391,8.303-11.039
			c0.436-0.57,1.141-0.936,2.309-0.914c-2.91,4.787-5.82,9.57-8.73,14.354c0.305,0.191,0.607,0.379,0.912,0.57
			c3.031-4.793,6.063-9.586,9.094-14.379c0.326,0.182,0.654,0.369,0.98,0.553c-2.781,4.938-5.563,9.875-8.346,14.814
			c0.295,0.176,0.59,0.35,0.885,0.525c2.91-4.885,5.818-9.771,8.729-14.658c0.328,0.174,0.656,0.35,0.984,0.525
			c-2.67,5.074-5.34,10.15-8.008,15.227c0.328,0.176,0.654,0.352,0.982,0.527c2.701-4.975,5.402-9.949,8.105-14.924
			c0.373,0.227,0.748,0.453,1.123,0.68c-3.773,8.105-4.732,17.748-14.139,22.748c-2.117,1.123-3.666,3.766-4.885,6.025
			c-1.762,3.283-2.742,6.98-4.488,10.268c-3.049,5.734-6.463,11.271-9.648,16.932c-1.252,2.223-2.875,3.188-5.211,1.811
			c-2.264-1.34-2.836-3.039-1.328-5.584c3.359-5.672,6.445-11.504,9.643-17.27L112.291,132.675z"/>
		<path fill-rule="evenodd" clip-rule="evenodd" fill="#010101" d="M112.41,132.562c-2.865-1.158-6.982-1.49-8.373-3.615
			c-5.777-8.805-10.582-18.223-10.873-29.15c-0.047-1.787,0.586-3.596,1.734-5.492c1.24,2.068,2.51,4.117,3.715,6.205
			c4.137,7.158,8.055,14.455,12.453,21.447c2.248,3.57,3.627,6.816,1.223,10.719C112.291,132.675,112.41,132.562,112.41,132.562
			 M104.279,112.737c-0.281,0.154-0.564,0.311-0.846,0.463c2.371,4.656,4.744,9.313,7.117,13.973
			c0.494-0.271,0.992-0.537,1.488-0.803C109.453,121.825,106.867,117.282,104.279,112.737"/>
		<path fill-rule="evenodd" clip-rule="evenodd" fill="#010101" d="M119.822,137.353c2.721,4.688,5.324,9.027,7.766,13.455
			c1.17,2.117-0.01,3.662-1.848,4.652c-1.73,0.928-3.42,0.953-4.57-1.047c-1.588-2.76-3.305-5.459-4.711-8.314
			c-0.416-0.842-0.25-2.238,0.154-3.158C117.418,141.124,118.578,139.468,119.822,137.353"/>
		<path fill-rule="evenodd" clip-rule="evenodd" fill="#FFFFFF" d="M104.279,112.737c2.588,4.545,5.174,9.088,7.76,13.633
			c-0.496,0.266-0.994,0.531-1.488,0.803c-2.373-4.66-4.746-9.316-7.117-13.973C103.715,113.048,103.998,112.892,104.279,112.737"/>
		<path fill-rule="evenodd" clip-rule="evenodd" fill="#010101" d="M64.418,85.788c-0.125-0.061-0.25-0.105-0.359-0.174
			c-0.32-0.195-0.453-0.449-0.326-0.84c0.275-0.863,0.521-1.734,0.789-2.631c-0.201-0.023-0.367-0.043-0.523-0.064
			c-0.262-1.166,0.52-2.633,2.049-2.59c1.711,0.049,3.426,0.066,5.135-0.004c1.592-0.063,2.391,1.354,2.16,2.59
			c-0.156,0.02-0.324,0.037-0.535,0.064c0.248,0.836,0.486,1.65,0.73,2.463c0.203,0.674,0.055,0.955-0.664,1.158
			c0.076,1.01,0.148,2.031,0.229,3.053c0.146,1.893,0.299,3.785,0.447,5.676c0.152,1.959,0.283,3.92,0.461,5.875
			c0.092,1.008,0.217,2.02,0.412,3.012c0.309,1.561,0.996,2.992,1.783,4.357c1.998,3.461,2.969,7.184,2.965,11.17
			c-0.002,5.926-0.006,11.85-0.006,17.777c0.002,7.33,0.01,14.658,0.006,21.986c-0.002,1.115-0.43,2.01-1.498,2.482
			c-0.258,0.115-0.566,0.164-0.854,0.164c-5.432,0.01-10.861,0.01-16.291,0.006c-1.154,0-2.127-0.813-2.275-1.965
			c-0.088-0.67-0.096-1.355-0.096-2.035c-0.006-7.65-0.004-15.301-0.004-22.951c0-5.016,0-10.029,0.002-15.045
			c0-2.73,0.268-5.434,1.293-7.984c0.629-1.57,1.43-3.072,2.191-4.584c0.943-1.873,1.523-3.834,1.656-5.936
			c0.127-1.973,0.314-3.943,0.467-5.916c0.141-1.824,0.268-3.65,0.404-5.477c0.08-1.08,0.17-2.16,0.25-3.24
			C64.426,86.056,64.418,85.925,64.418,85.788"/>
		<path fill-rule="evenodd" clip-rule="evenodd" fill="#010101" d="M53.479,160.942c0.313-0.15,0.656-0.258,0.936-0.461
			c0.697-0.508,0.992-1.256,0.99-2.15c-0.002-2.955,0-5.912,0-8.869v-15.734v-0.473h-2.439c0,0.16,0.002,0.309,0,0.459
			c-0.018,1.463,0.047,2.936-0.074,4.391c-0.188,2.248-2.117,4.047-4.236,4.098c-2.23,0.051-4.166-1.607-4.521-3.895
			c-0.064-0.414-0.074-0.842-0.078-1.264c-0.008-1.256-0.002-2.514-0.002-3.789h-9.811v0.537v24.102
			c0,1.801,0.375,2.402,1.906,3.049H53.479z"/>
		<path fill-rule="evenodd" clip-rule="evenodd" fill="#010101" d="M44.201,121.438c-0.217,0.059-0.438,0.111-0.652,0.176
			c-0.947,0.277-1.758,0.801-2.42,1.582c-0.686,0.811-1.26,0.926-2.164,0.422c-1.797-0.998-4.006-0.49-5.244,1.205
			c-1.252,1.713-1.199,4.131,0.117,5.754c0.193,0.236,0.391,0.352,0.703,0.35c3.736-0.012,7.475-0.008,11.213-0.008h0.455v0.459
			c0,2.031-0.012,4.061,0.008,6.092c0.01,1.018,0.477,1.771,1.336,2.193c0.861,0.422,1.689,0.291,2.424-0.35
			c0.586-0.51,0.832-1.203,0.83-2.006c-0.002-1.953,0-3.908,0-5.861v-0.527h0.391c1.316,0,2.635-0.006,3.953,0.006
			c0.248,0.002,0.422-0.076,0.59-0.273c1.355-1.598,1.461-4.006,0.238-5.746c-1.215-1.732-3.412-2.293-5.217-1.33
			c-1.049,0.557-1.504,0.465-2.307-0.447c-0.775-0.875-1.719-1.42-2.832-1.617c-0.068-0.012-0.133-0.049-0.199-0.072H44.201z"/>
		<path fill-rule="evenodd" clip-rule="evenodd" fill="#010101" d="M32.066,156.071v-4.916c-0.211-0.012-0.414-0.01-0.611-0.037
			c-1.184-0.17-2.027-1.145-2.045-2.438c-0.023-1.838-0.025-3.676,0.002-5.514c0.021-1.41,1.012-2.414,2.336-2.441
			c0.096-0.002,0.189,0,0.311,0v-4.896c-4.342-0.545-7.217,2.797-7.246,6.492c-0.02,2.404-0.033,4.811,0.004,7.213
			c0.057,3.705,2.742,6.514,6.199,6.535C31.352,156.073,31.686,156.071,32.066,156.071"/>
	</g>
</g>
</svg>
