<?xml version="1.0" encoding="utf-8"?>
<!-- Generator: Adobe Illustrator 16.0.0, SVG Export Plug-In . SVG Version: 6.00 Build 0)  -->
<!DOCTYPE svg PUBLIC "-//W3C//DTD SVG 1.1//EN" "http://www.w3.org/Graphics/SVG/1.1/DTD/svg11.dtd">
<svg version="1.1" id="Layer_1" xmlns="http://www.w3.org/2000/svg" xmlns:xlink="http://www.w3.org/1999/xlink" x="0px" y="0px"
	 width="164px" height="177.242px" viewBox="0 0 164 177.242" enable-background="new 0 0 164 177.242" xml:space="preserve">
<g>
	<g>
		<path fill-rule="evenodd" clip-rule="evenodd" fill="#FFFFFF" d="M152,166c0,5.522-4.477,10-10,10H22c-5.523,0-10-4.478-10-10V76
			c0-5.522,4.477-10,10-10h120c5.523,0,10,4.478,10,10V166z"/>
		<path fill="none" stroke="#000000" stroke-width="2" stroke-miterlimit="10" d="M152,166c0,5.522-4.477,10-10,10H22
			c-5.523,0-10-4.478-10-10V76c0-5.522,4.477-10,10-10h120c5.523,0,10,4.478,10,10V166z"/>
	</g>
	<g>
		<g>
			<path fill="#1A1A1A" d="M22.209,16.481c0-0.31-0.044-0.588-0.134-0.836c-0.09-0.249-0.263-0.478-0.519-0.69
				c-0.257-0.211-0.61-0.418-1.063-0.622c-0.451-0.203-1.035-0.419-1.752-0.647c-0.813-0.26-1.58-0.553-2.301-0.879
				c-0.72-0.324-1.351-0.709-1.892-1.153c-0.542-0.443-0.969-0.954-1.282-1.532c-0.313-0.577-0.47-1.252-0.47-2.025
				c0-0.74,0.16-1.418,0.482-2.033c0.321-0.614,0.772-1.137,1.354-1.568s1.273-0.768,2.075-1.007c0.802-0.24,1.683-0.36,2.644-0.36
				c0.984,0,1.879,0.137,2.686,0.409c0.805,0.272,1.493,0.653,2.063,1.142s1.009,1.067,1.318,1.739
				c0.31,0.671,0.464,1.405,0.464,2.203h-3.662c0-0.374-0.06-0.72-0.177-1.038c-0.118-0.316-0.299-0.59-0.543-0.817
				s-0.55-0.405-0.916-0.531s-0.798-0.188-1.294-0.188c-0.48,0-0.897,0.053-1.251,0.158c-0.354,0.105-0.647,0.252-0.879,0.439
				C16.93,6.83,16.755,7.05,16.637,7.302c-0.118,0.253-0.177,0.521-0.177,0.806c0,0.586,0.299,1.076,0.897,1.471
				c0.598,0.395,1.475,0.764,2.631,1.105c0.968,0.301,1.82,0.635,2.557,1c0.736,0.367,1.351,0.781,1.844,1.246
				c0.492,0.463,0.864,0.984,1.117,1.563c0.252,0.578,0.378,1.232,0.378,1.965c0,0.781-0.152,1.477-0.458,2.088
				c-0.305,0.609-0.738,1.125-1.3,1.544s-1.239,0.74-2.032,0.964c-0.794,0.225-1.679,0.336-2.655,0.336
				c-0.586,0-1.172-0.051-1.758-0.152s-1.146-0.258-1.679-0.471c-0.533-0.211-1.027-0.476-1.482-0.793
				c-0.456-0.317-0.854-0.691-1.19-1.123c-0.338-0.432-0.603-0.922-0.794-1.471c-0.191-0.55-0.287-1.158-0.287-1.825h3.675
				c0,0.537,0.085,0.993,0.257,1.367c0.17,0.374,0.408,0.678,0.714,0.909c0.305,0.232,0.673,0.401,1.104,0.507
				c0.432,0.106,0.911,0.159,1.44,0.159c0.472,0,0.883-0.051,1.233-0.153c0.35-0.102,0.639-0.241,0.866-0.421
				c0.228-0.179,0.396-0.393,0.507-0.641C22.154,17.033,22.209,16.767,22.209,16.481z"/>
			<path fill="#1A1A1A" d="M40.019,14.662c0,0.961-0.111,1.852-0.335,2.674c-0.225,0.822-0.552,1.532-0.983,2.13
				c-0.431,0.599-0.966,1.068-1.604,1.41c-0.64,0.342-1.374,0.513-2.204,0.513c-0.699,0-1.316-0.122-1.849-0.366
				c-0.533-0.244-0.995-0.586-1.386-1.025v6.226H28.13V7.937h3.271l0.121,1.294c0.407-0.488,0.881-0.867,1.423-1.135
				c0.541-0.27,1.182-0.403,1.923-0.403c0.838,0,1.578,0.161,2.221,0.482c0.644,0.321,1.181,0.776,1.611,1.367
				c0.432,0.59,0.759,1.298,0.983,2.124c0.224,0.826,0.335,1.739,0.335,2.74V14.662z M36.491,14.406c0-0.545-0.047-1.052-0.141-1.52
				c-0.094-0.469-0.242-0.875-0.445-1.221s-0.466-0.617-0.787-0.813c-0.322-0.195-0.715-0.293-1.178-0.293
				c-0.578,0-1.053,0.108-1.423,0.324c-0.37,0.215-0.657,0.531-0.86,0.945v5.408c0.203,0.407,0.49,0.727,0.86,0.958
				c0.37,0.232,0.853,0.349,1.446,0.349c0.465,0,0.856-0.102,1.179-0.306c0.321-0.203,0.581-0.482,0.781-0.836
				c0.199-0.354,0.344-0.767,0.433-1.239c0.09-0.472,0.135-0.973,0.135-1.502V14.406z"/>
			<path fill="#1A1A1A" d="M41.654,14.418c0-0.959,0.139-1.851,0.415-2.673c0.276-0.821,0.68-1.532,1.209-2.13
				c0.528-0.599,1.182-1.068,1.959-1.41c0.776-0.342,1.662-0.513,2.654-0.513c1.002,0,1.893,0.171,2.674,0.513
				s1.438,0.812,1.972,1.41c0.532,0.598,0.938,1.309,1.214,2.13c0.277,0.822,0.416,1.714,0.416,2.673v0.257
				c0,0.969-0.139,1.861-0.416,2.68c-0.276,0.817-0.682,1.525-1.214,2.124c-0.533,0.598-1.187,1.066-1.96,1.403
				c-0.772,0.338-1.66,0.507-2.66,0.507c-1.002,0-1.891-0.169-2.668-0.507c-0.777-0.337-1.433-0.806-1.965-1.403
				c-0.533-0.599-0.938-1.307-1.215-2.124c-0.276-0.818-0.415-1.711-0.415-2.68V14.418z M45.183,14.675
				c0,0.537,0.049,1.042,0.146,1.514s0.254,0.881,0.47,1.227c0.215,0.347,0.496,0.621,0.842,0.824
				c0.346,0.204,0.771,0.306,1.276,0.306c0.488,0,0.904-0.102,1.251-0.306c0.346-0.203,0.628-0.478,0.849-0.824
				c0.219-0.346,0.378-0.755,0.476-1.227s0.146-0.977,0.146-1.514v-0.257c0-0.52-0.049-1.015-0.146-1.482
				c-0.098-0.469-0.257-0.879-0.476-1.233c-0.221-0.354-0.505-0.635-0.855-0.842c-0.35-0.208-0.772-0.312-1.27-0.312
				c-0.488,0-0.905,0.104-1.251,0.312c-0.346,0.207-0.627,0.488-0.842,0.842c-0.216,0.354-0.372,0.765-0.47,1.233
				c-0.098,0.468-0.146,0.963-0.146,1.482V14.675z"/>
			<path fill="#1A1A1A" d="M63.762,11.244c-0.18-0.023-0.39-0.047-0.629-0.066c-0.24-0.021-0.454-0.031-0.641-0.031
				c-0.692,0-1.252,0.116-1.679,0.349c-0.428,0.231-0.743,0.567-0.946,1.007v8.643H56.34V7.937h3.332l0.098,1.575
				c0.334-0.57,0.744-1.016,1.232-1.337s1.059-0.482,1.709-0.482c0.188,0,0.385,0.017,0.593,0.049
				c0.207,0.032,0.376,0.069,0.507,0.11L63.762,11.244z"/>
			<path fill="#1A1A1A" d="M69.681,4.689v3.247h2.259v2.588h-2.259v6.592c0,0.276,0.029,0.505,0.086,0.684s0.143,0.319,0.256,0.421
				c0.114,0.102,0.255,0.171,0.422,0.208c0.166,0.036,0.364,0.055,0.592,0.055c0.212,0,0.404-0.008,0.58-0.024
				c0.175-0.016,0.327-0.037,0.457-0.061v2.673c-0.293,0.089-0.612,0.165-0.958,0.226c-0.346,0.062-0.738,0.092-1.178,0.092
				c-0.578,0-1.099-0.071-1.563-0.214c-0.464-0.142-0.86-0.368-1.19-0.677c-0.329-0.31-0.584-0.713-0.763-1.209
				s-0.269-1.094-0.269-1.795v-6.97h-1.929V7.937h1.929V4.689H69.681z"/>
			<path fill="#1A1A1A" d="M94.828,21.145h-3.662v-7.617h-7.142v7.617h-3.662V3.371h3.662v7.202h7.142V3.371h3.662V21.145z"/>
			<path fill="#1A1A1A" d="M97.244,14.418c0-0.959,0.139-1.851,0.415-2.673c0.276-0.821,0.68-1.532,1.209-2.13
				c0.528-0.599,1.182-1.068,1.959-1.41c0.776-0.342,1.662-0.513,2.654-0.513c1.002,0,1.893,0.171,2.674,0.513
				s1.438,0.812,1.972,1.41c0.532,0.598,0.938,1.309,1.214,2.13c0.277,0.822,0.416,1.714,0.416,2.673v0.257
				c0,0.969-0.139,1.861-0.416,2.68c-0.276,0.817-0.682,1.525-1.214,2.124c-0.533,0.598-1.187,1.066-1.96,1.403
				c-0.772,0.338-1.66,0.507-2.66,0.507c-1.002,0-1.891-0.169-2.668-0.507c-0.777-0.337-1.433-0.806-1.965-1.403
				c-0.533-0.599-0.938-1.307-1.215-2.124c-0.276-0.818-0.415-1.711-0.415-2.68V14.418z M100.772,14.675
				c0,0.537,0.049,1.042,0.146,1.514s0.254,0.881,0.47,1.227c0.215,0.347,0.496,0.621,0.842,0.824
				c0.346,0.204,0.771,0.306,1.276,0.306c0.488,0,0.904-0.102,1.251-0.306c0.346-0.203,0.628-0.478,0.849-0.824
				c0.219-0.346,0.378-0.755,0.476-1.227s0.146-0.977,0.146-1.514v-0.257c0-0.52-0.049-1.015-0.146-1.482
				c-0.098-0.469-0.257-0.879-0.476-1.233c-0.221-0.354-0.505-0.635-0.855-0.842c-0.35-0.208-0.772-0.312-1.27-0.312
				c-0.488,0-0.905,0.104-1.251,0.312c-0.346,0.207-0.627,0.488-0.842,0.842c-0.216,0.354-0.372,0.765-0.47,1.233
				c-0.098,0.468-0.146,0.963-0.146,1.482V14.675z"/>
			<path fill="#1A1A1A" d="M116.152,4.689v3.247h2.259v2.588h-2.259v6.592c0,0.276,0.029,0.505,0.086,0.684s0.143,0.319,0.256,0.421
				c0.114,0.102,0.255,0.171,0.422,0.208c0.166,0.036,0.364,0.055,0.592,0.055c0.212,0,0.404-0.008,0.58-0.024
				c0.175-0.016,0.327-0.037,0.457-0.061v2.673c-0.293,0.089-0.612,0.165-0.958,0.226c-0.346,0.062-0.738,0.092-1.178,0.092
				c-0.578,0-1.099-0.071-1.563-0.214c-0.464-0.142-0.86-0.368-1.19-0.677c-0.329-0.31-0.584-0.713-0.763-1.209
				s-0.269-1.094-0.269-1.795v-6.97h-1.929V7.937h1.929V4.689H116.152z"/>
			<path fill="#1A1A1A" d="M126.455,21.389c-1.025,0-1.942-0.167-2.752-0.5c-0.811-0.334-1.498-0.789-2.063-1.367
				s-0.997-1.256-1.294-2.033s-0.445-1.609-0.445-2.496v-0.477c0-1,0.145-1.918,0.434-2.752c0.288-0.834,0.699-1.553,1.232-2.154
				c0.533-0.603,1.18-1.072,1.941-1.41c0.761-0.338,1.613-0.507,2.557-0.507c0.953,0,1.791,0.157,2.516,0.47
				c0.724,0.313,1.332,0.753,1.824,1.318c0.492,0.566,0.862,1.248,1.111,2.045c0.248,0.798,0.372,1.685,0.372,2.661v1.501h-8.411
				c0.058,0.432,0.173,0.822,0.349,1.172c0.175,0.351,0.398,0.649,0.671,0.897c0.272,0.249,0.592,0.442,0.959,0.58
				c0.365,0.139,0.776,0.208,1.232,0.208c0.643,0,1.237-0.121,1.782-0.36c0.545-0.24,1.013-0.612,1.403-1.117l1.734,1.94
				c-0.212,0.302-0.477,0.595-0.794,0.879c-0.317,0.285-0.691,0.539-1.123,0.764c-0.432,0.224-0.918,0.402-1.459,0.537
				C127.69,21.321,127.099,21.389,126.455,21.389z M126.053,10.549c-0.383,0-0.719,0.067-1.007,0.201
				c-0.289,0.135-0.537,0.322-0.745,0.562c-0.207,0.24-0.376,0.527-0.506,0.86c-0.131,0.334-0.225,0.705-0.281,1.111h4.907v-0.281
				c-0.008-0.35-0.06-0.675-0.152-0.977c-0.094-0.301-0.236-0.561-0.428-0.781c-0.191-0.219-0.436-0.391-0.732-0.512
				C126.812,10.609,126.46,10.549,126.053,10.549z"/>
			<path fill="#1A1A1A" d="M137.612,21.145h-3.54V2.395h3.54V21.145z"/>
			<path fill="#1A1A1A" d="M147.671,17.494c0-0.187-0.036-0.357-0.109-0.512s-0.212-0.3-0.415-0.434
				c-0.203-0.135-0.48-0.263-0.83-0.385s-0.802-0.24-1.354-0.354c-0.676-0.146-1.301-0.33-1.874-0.55
				c-0.574-0.22-1.07-0.492-1.489-0.817c-0.42-0.326-0.747-0.704-0.982-1.136c-0.236-0.431-0.354-0.932-0.354-1.501
				c0-0.554,0.12-1.078,0.36-1.575c0.239-0.496,0.586-0.934,1.037-1.313c0.452-0.378,1.005-0.677,1.66-0.897
				c0.655-0.219,1.394-0.329,2.216-0.329c0.854,0,1.624,0.106,2.308,0.317c0.684,0.212,1.263,0.507,1.739,0.885
				c0.476,0.379,0.842,0.828,1.099,1.35c0.256,0.521,0.385,1.09,0.385,1.709h-3.528c0-0.505-0.163-0.922-0.488-1.252
				c-0.325-0.329-0.834-0.494-1.526-0.494c-0.594,0-1.054,0.135-1.379,0.402c-0.325,0.27-0.488,0.611-0.488,1.025
				c0,0.195,0.043,0.369,0.128,0.52c0.086,0.15,0.224,0.289,0.415,0.415s0.443,0.242,0.757,0.348
				c0.313,0.106,0.698,0.204,1.153,0.293c0.717,0.139,1.38,0.31,1.99,0.513s1.137,0.466,1.581,0.787
				c0.443,0.322,0.791,0.713,1.044,1.172c0.252,0.46,0.378,1.016,0.378,1.666c0,0.586-0.13,1.125-0.391,1.618
				c-0.261,0.492-0.633,0.917-1.117,1.275s-1.067,0.64-1.751,0.843s-1.449,0.305-2.295,0.305c-0.928,0-1.746-0.131-2.454-0.391
				s-1.305-0.602-1.788-1.025c-0.484-0.423-0.849-0.898-1.093-1.428s-0.366-1.063-0.366-1.6h3.345
				c0.017,0.342,0.092,0.637,0.226,0.885c0.135,0.248,0.312,0.45,0.531,0.604c0.22,0.155,0.474,0.269,0.763,0.342
				s0.593,0.11,0.909,0.11c0.676,0,1.187-0.129,1.532-0.385C147.498,18.245,147.671,17.91,147.671,17.494z"/>
			<path fill="#1A1A1A" d="M27.825,44.359c0-0.513,0.079-0.979,0.237-1.397c0.159-0.419,0.379-0.812,0.659-1.179
				c0.281-0.365,0.618-0.714,1.014-1.043c0.395-0.33,0.832-0.661,1.313-0.995c-0.529-0.708-0.944-1.373-1.246-1.996
				c-0.301-0.622-0.451-1.271-0.451-1.946c0-0.7,0.116-1.337,0.348-1.911c0.232-0.573,0.558-1.065,0.977-1.477
				s0.928-0.729,1.526-0.952c0.598-0.225,1.263-0.336,1.995-0.336c0.692,0,1.318,0.109,1.881,0.33
				c0.561,0.219,1.039,0.519,1.434,0.896c0.395,0.379,0.698,0.818,0.91,1.318c0.211,0.501,0.316,1.031,0.316,1.594
				c0,0.414-0.059,0.805-0.177,1.172c-0.118,0.365-0.282,0.712-0.494,1.037c-0.212,0.326-0.462,0.631-0.751,0.916
				s-0.608,0.549-0.958,0.793l-1.136,0.818l3.064,3.564c0.228-0.447,0.404-0.932,0.531-1.453c0.126-0.521,0.189-1.078,0.189-1.672
				h3.002c0,1.09-0.124,2.107-0.372,3.051c-0.248,0.945-0.657,1.799-1.227,2.564l2.661,3.088h-4.004l-0.916-1.05
				c-0.667,0.439-1.371,0.765-2.111,0.977s-1.542,0.317-2.404,0.317c-0.896,0-1.703-0.124-2.424-0.372
				c-0.72-0.249-1.33-0.595-1.831-1.038c-0.5-0.443-0.885-0.975-1.153-1.593S27.825,45.092,27.825,44.359z M33.806,46.557
				c0.847,0,1.648-0.236,2.405-0.708l-3.503-4.053l-0.257,0.183c-0.228,0.195-0.413,0.389-0.556,0.58s-0.252,0.379-0.329,0.562
				c-0.078,0.184-0.131,0.362-0.159,0.537s-0.043,0.345-0.043,0.507c0,0.342,0.058,0.659,0.172,0.952
				c0.113,0.293,0.278,0.548,0.494,0.763c0.215,0.216,0.474,0.383,0.775,0.501C33.106,46.498,33.44,46.557,33.806,46.557z
				 M32.513,35.754c0,0.365,0.098,0.736,0.293,1.11s0.455,0.773,0.781,1.196l0.939-0.623c0.252-0.162,0.462-0.32,0.629-0.476
				c0.166-0.154,0.297-0.312,0.391-0.47c0.093-0.159,0.158-0.319,0.195-0.482c0.036-0.162,0.055-0.338,0.055-0.525
				c0-0.187-0.037-0.369-0.109-0.549c-0.074-0.179-0.178-0.34-0.312-0.482c-0.135-0.143-0.304-0.258-0.507-0.348
				s-0.432-0.135-0.684-0.135c-0.276,0-0.519,0.047-0.727,0.141c-0.207,0.094-0.383,0.223-0.524,0.385
				c-0.143,0.163-0.249,0.352-0.317,0.567C32.547,35.279,32.513,35.51,32.513,35.754z"/>
			<path fill="#1A1A1A" d="M57.756,42.639h-2.917v6.506h-3.662V31.371h6.604c1.025,0,1.944,0.116,2.758,0.348
				c0.814,0.232,1.502,0.574,2.063,1.025c0.562,0.452,0.993,1.012,1.294,1.679s0.451,1.44,0.451,2.319
				c0,0.651-0.072,1.234-0.219,1.752c-0.146,0.517-0.358,0.977-0.635,1.379c-0.277,0.403-0.611,0.756-1.002,1.057
				s-0.83,0.561-1.318,0.781l3.846,7.263v0.171h-3.931L57.756,42.639z M54.839,39.672h2.954c0.48,0,0.901-0.063,1.264-0.189
				c0.361-0.126,0.663-0.305,0.903-0.537c0.239-0.231,0.421-0.508,0.543-0.83c0.122-0.321,0.183-0.682,0.183-1.08
				c0-0.838-0.237-1.497-0.714-1.978c-0.476-0.479-1.206-0.72-2.19-0.72h-2.942V39.672z"/>
			<path fill="#1A1A1A" d="M72.978,49.389c-1.025,0-1.942-0.167-2.752-0.5c-0.811-0.334-1.498-0.789-2.063-1.367
				s-0.997-1.256-1.294-2.033s-0.445-1.609-0.445-2.496v-0.477c0-1,0.145-1.918,0.434-2.752c0.288-0.834,0.699-1.553,1.232-2.154
				c0.533-0.603,1.18-1.072,1.941-1.41c0.761-0.338,1.613-0.507,2.557-0.507c0.953,0,1.791,0.157,2.516,0.47
				c0.724,0.313,1.332,0.753,1.824,1.318c0.492,0.566,0.862,1.248,1.111,2.045c0.248,0.798,0.372,1.685,0.372,2.661v1.501h-8.411
				c0.058,0.432,0.173,0.822,0.349,1.172c0.175,0.351,0.398,0.649,0.671,0.897c0.272,0.249,0.592,0.442,0.959,0.58
				c0.365,0.139,0.776,0.208,1.232,0.208c0.643,0,1.237-0.121,1.782-0.36c0.545-0.24,1.013-0.612,1.403-1.117l1.734,1.94
				c-0.212,0.302-0.477,0.595-0.794,0.879c-0.317,0.285-0.691,0.539-1.123,0.764c-0.432,0.224-0.918,0.402-1.459,0.537
				C74.213,49.321,73.621,49.389,72.978,49.389z M72.575,38.549c-0.383,0-0.719,0.067-1.007,0.201
				c-0.289,0.135-0.537,0.322-0.745,0.562c-0.207,0.24-0.376,0.527-0.506,0.86c-0.131,0.334-0.225,0.705-0.281,1.111h4.907v-0.281
				c-0.008-0.35-0.06-0.675-0.152-0.977c-0.094-0.301-0.236-0.561-0.428-0.781c-0.191-0.219-0.436-0.391-0.732-0.512
				C73.334,38.609,72.982,38.549,72.575,38.549z"/>
			<path fill="#1A1A1A" d="M87.565,45.494c0-0.187-0.036-0.357-0.109-0.512s-0.212-0.3-0.415-0.434
				c-0.203-0.135-0.48-0.263-0.83-0.385s-0.802-0.24-1.354-0.354c-0.676-0.146-1.301-0.33-1.874-0.55
				c-0.574-0.22-1.07-0.492-1.489-0.817c-0.42-0.326-0.747-0.704-0.982-1.136c-0.236-0.431-0.354-0.932-0.354-1.501
				c0-0.554,0.12-1.078,0.36-1.575c0.239-0.496,0.586-0.934,1.037-1.313c0.452-0.378,1.005-0.677,1.66-0.897
				c0.655-0.219,1.394-0.329,2.216-0.329c0.854,0,1.624,0.106,2.308,0.317c0.684,0.212,1.263,0.507,1.739,0.885
				c0.476,0.379,0.842,0.828,1.099,1.35c0.256,0.521,0.385,1.09,0.385,1.709h-3.528c0-0.505-0.163-0.922-0.488-1.252
				c-0.325-0.329-0.834-0.494-1.526-0.494c-0.594,0-1.054,0.135-1.379,0.402c-0.325,0.27-0.488,0.611-0.488,1.025
				c0,0.195,0.043,0.369,0.128,0.52c0.086,0.15,0.224,0.289,0.415,0.415s0.443,0.242,0.757,0.348
				c0.313,0.106,0.698,0.204,1.153,0.293c0.717,0.139,1.38,0.31,1.99,0.513s1.137,0.466,1.581,0.787
				c0.443,0.322,0.791,0.713,1.044,1.172c0.252,0.46,0.378,1.016,0.378,1.666c0,0.586-0.13,1.125-0.391,1.618
				c-0.261,0.492-0.633,0.917-1.117,1.275s-1.067,0.64-1.751,0.843s-1.449,0.305-2.295,0.305c-0.928,0-1.746-0.131-2.454-0.391
				s-1.305-0.602-1.788-1.025c-0.484-0.423-0.849-0.898-1.093-1.428s-0.366-1.063-0.366-1.6h3.345
				c0.017,0.342,0.092,0.637,0.226,0.885c0.135,0.248,0.312,0.45,0.531,0.604c0.22,0.155,0.474,0.269,0.763,0.342
				s0.593,0.11,0.909,0.11c0.676,0,1.187-0.129,1.532-0.385C87.393,46.245,87.565,45.91,87.565,45.494z"/>
			<path fill="#1A1A1A" d="M92.717,42.418c0-0.959,0.139-1.851,0.415-2.673c0.276-0.821,0.68-1.532,1.209-2.13
				c0.528-0.599,1.182-1.068,1.959-1.41c0.776-0.342,1.662-0.513,2.654-0.513c1.002,0,1.893,0.171,2.674,0.513
				s1.438,0.812,1.972,1.41c0.532,0.598,0.938,1.309,1.214,2.13c0.277,0.822,0.416,1.714,0.416,2.673v0.257
				c0,0.969-0.139,1.861-0.416,2.68c-0.276,0.817-0.682,1.525-1.214,2.124c-0.533,0.598-1.187,1.066-1.96,1.403
				c-0.772,0.338-1.66,0.507-2.66,0.507c-1.002,0-1.891-0.169-2.668-0.507c-0.777-0.337-1.433-0.806-1.965-1.403
				c-0.533-0.599-0.938-1.307-1.215-2.124c-0.276-0.818-0.415-1.711-0.415-2.68V42.418z M96.245,42.675
				c0,0.537,0.049,1.042,0.146,1.514s0.254,0.881,0.47,1.227c0.215,0.347,0.496,0.621,0.842,0.824
				c0.346,0.204,0.771,0.306,1.276,0.306c0.488,0,0.904-0.102,1.251-0.306c0.346-0.203,0.628-0.478,0.849-0.824
				c0.219-0.346,0.378-0.755,0.476-1.227s0.146-0.977,0.146-1.514v-0.257c0-0.52-0.049-1.015-0.146-1.482
				c-0.098-0.469-0.257-0.879-0.476-1.233c-0.221-0.354-0.505-0.635-0.855-0.842c-0.35-0.208-0.772-0.312-1.27-0.312
				c-0.488,0-0.905,0.104-1.251,0.312c-0.346,0.207-0.627,0.488-0.842,0.842c-0.216,0.354-0.372,0.765-0.47,1.233
				c-0.098,0.468-0.146,0.963-0.146,1.482V42.675z"/>
			<path fill="#1A1A1A" d="M114.824,39.244c-0.18-0.023-0.39-0.047-0.629-0.066c-0.24-0.021-0.454-0.031-0.641-0.031
				c-0.692,0-1.252,0.116-1.679,0.349c-0.428,0.231-0.743,0.567-0.946,1.007v8.643h-3.527V35.937h3.332l0.098,1.575
				c0.334-0.57,0.744-1.016,1.232-1.337s1.059-0.482,1.709-0.482c0.188,0,0.385,0.017,0.593,0.049
				c0.207,0.032,0.376,0.069,0.507,0.11L114.824,39.244z"/>
			<path fill="#1A1A1A" d="M120.743,32.689v3.247h2.259v2.588h-2.259v6.592c0,0.276,0.029,0.505,0.086,0.684
				s0.143,0.319,0.256,0.421c0.114,0.102,0.255,0.171,0.422,0.208c0.166,0.036,0.364,0.055,0.592,0.055
				c0.212,0,0.404-0.008,0.58-0.024c0.175-0.016,0.327-0.037,0.457-0.061v2.673c-0.293,0.089-0.612,0.165-0.958,0.226
				c-0.346,0.062-0.738,0.092-1.178,0.092c-0.578,0-1.099-0.071-1.563-0.214c-0.464-0.142-0.86-0.368-1.19-0.677
				c-0.329-0.31-0.584-0.713-0.763-1.209s-0.269-1.094-0.269-1.795v-6.97h-1.929v-2.588h1.929v-3.247H120.743z"/>
			<path fill="#1A1A1A" d="M132.12,45.494c0-0.187-0.036-0.357-0.109-0.512s-0.212-0.3-0.415-0.434
				c-0.203-0.135-0.48-0.263-0.83-0.385s-0.802-0.24-1.354-0.354c-0.676-0.146-1.301-0.33-1.874-0.55
				c-0.574-0.22-1.07-0.492-1.489-0.817c-0.42-0.326-0.747-0.704-0.982-1.136c-0.236-0.431-0.354-0.932-0.354-1.501
				c0-0.554,0.12-1.078,0.36-1.575c0.239-0.496,0.586-0.934,1.037-1.313c0.452-0.378,1.005-0.677,1.66-0.897
				c0.655-0.219,1.394-0.329,2.216-0.329c0.854,0,1.624,0.106,2.308,0.317c0.684,0.212,1.263,0.507,1.739,0.885
				c0.476,0.379,0.842,0.828,1.099,1.35c0.256,0.521,0.385,1.09,0.385,1.709h-3.528c0-0.505-0.163-0.922-0.488-1.252
				c-0.325-0.329-0.834-0.494-1.526-0.494c-0.594,0-1.054,0.135-1.379,0.402c-0.325,0.27-0.488,0.611-0.488,1.025
				c0,0.195,0.043,0.369,0.128,0.52c0.086,0.15,0.224,0.289,0.415,0.415s0.443,0.242,0.757,0.348
				c0.313,0.106,0.698,0.204,1.153,0.293c0.717,0.139,1.38,0.31,1.99,0.513s1.137,0.466,1.581,0.787
				c0.443,0.322,0.791,0.713,1.044,1.172c0.252,0.46,0.378,1.016,0.378,1.666c0,0.586-0.13,1.125-0.391,1.618
				c-0.261,0.492-0.633,0.917-1.117,1.275s-1.067,0.64-1.751,0.843s-1.449,0.305-2.295,0.305c-0.928,0-1.746-0.131-2.454-0.391
				s-1.305-0.602-1.788-1.025c-0.484-0.423-0.849-0.898-1.093-1.428s-0.366-1.063-0.366-1.6h3.345
				c0.017,0.342,0.092,0.637,0.226,0.885c0.135,0.248,0.312,0.45,0.531,0.604c0.22,0.155,0.474,0.269,0.763,0.342
				s0.593,0.11,0.909,0.11c0.676,0,1.187-0.129,1.532-0.385C131.947,46.245,132.12,45.91,132.12,45.494z"/>
		</g>
	</g>
	<g>
		<path fill-rule="evenodd" clip-rule="evenodd" fill="#010101" d="M44.894,146.191v8.16h-6.386v-8.16h-3.873v-10.133
			c1.372,0,2.729-0.035,4.082,0.018c0.63,0.023,0.934-0.17,1.19-0.756c2.917-6.664,5.866-13.313,8.808-19.967
			c0.258-0.586,0.453-1.217,0.806-1.74c0.576-0.854,0.395-1.469-0.224-2.25c-2.759-3.48-5.444-7.02-8.152-10.541
			c-0.948-1.232-0.857-2.664,0.21-3.498c1.125-0.881,2.516-0.635,3.496,0.648c2.177,2.852,4.318,5.729,6.512,8.57
			c5.121,6.629,10.267,13.24,15.396,19.863c2.33,3.008,4.657,6.018,6.957,9.045c0.345,0.455,0.691,0.621,1.26,0.621
			c18.254-0.016,36.508-0.012,54.762-0.012h0.99v10.111h-4.694v8.17h-6.357v-8.15H44.894z M52.28,115.279
			c-3.094,7.004-6.116,13.852-9.154,20.729h25.128C62.911,129.074,57.64,122.234,52.28,115.279"/>
		<path fill-rule="evenodd" clip-rule="evenodd" fill="#010101" d="M125.622,134.781h-0.697c-3.243-0.002-6.485,0.006-9.729-0.016
			c-0.382-0.002-0.796-0.105-1.138-0.275c-5.135-2.59-10.266-5.188-15.382-7.814c-0.491-0.252-0.858-0.23-1.335-0.01
			c-5.681,2.629-11.37,5.236-17.059,7.848c-2.78,1.275-5.166,0.682-7.021-1.758c-4.637-6.098-9.273-12.197-13.903-18.301
			c-1.544-2.033-1.748-4.535-0.554-6.447c1.933-3.1,6.226-3.406,8.558-0.594c1.504,1.811,2.975,3.652,4.512,5.543
			c1.062-0.639,2.11-1.268,3.158-1.9c2.179-1.311,4.35-2.633,6.54-3.924c0.434-0.256,0.556-0.521,0.5-1.025
			c-0.272-2.473-0.497-4.951-0.745-7.492h8.332c-0.161,1.639-0.276,3.254-0.495,4.857c-0.126,0.93,0.019,1.613,0.711,2.354
			c1.664,1.785,1.316,4.158-0.68,5.645c-2.339,1.742-4.77,3.359-7.158,5.033c-1.704,1.193-3.407,2.391-5.163,3.625
			c0.828,1.09,1.594,2.152,2.432,3.152c0.135,0.16,0.629,0.148,0.893,0.049c5.274-1.994,10.559-3.965,15.796-6.055
			c1.851-0.738,3.355-0.611,5.014,0.564c5.398,3.82,10.873,7.533,16.35,11.242c0.777,0.527,1.703,0.869,2.602,1.178
			c1.693,0.578,3.41,1.086,5.131,1.578c0.427,0.121,0.555,0.301,0.54,0.715C125.604,133.27,125.622,133.986,125.622,134.781"/>
		<path fill-rule="evenodd" clip-rule="evenodd" fill="#010101" d="M56.64,105.824c-3.766-0.082-6.961-3.041-6.941-7.029
			c0.019-3.834,3.202-6.98,7.042-6.951c3.836,0.025,6.971,3.209,6.95,7.053C63.67,102.744,60.524,105.836,56.64,105.824"/>
		<path fill-rule="evenodd" clip-rule="evenodd" fill="#010101" d="M52.071,101.465h-1.166c0.244-1.234,0.478-2.424,0.71-3.602
			c1.074-0.152,1.166-0.059,0.973,0.912C52.412,99.66,52.247,100.547,52.071,101.465"/>
		<polygon fill-rule="evenodd" clip-rule="evenodd" fill="#010101" points="89.06,96.215 87.858,96.215 86.792,97.918 
			87.858,97.918 		"/>
	</g>
</g>
</svg>
