<?xml version="1.0" encoding="utf-8"?>
<!-- Generator: Adobe Illustrator 16.0.0, SVG Export Plug-In . SVG Version: 6.00 Build 0)  -->
<!DOCTYPE svg PUBLIC "-//W3C//DTD SVG 1.1//EN" "http://www.w3.org/Graphics/SVG/1.1/DTD/svg11.dtd">
<svg version="1.1" id="Layer_1" xmlns="http://www.w3.org/2000/svg" xmlns:xlink="http://www.w3.org/1999/xlink" x="0px" y="0px"
	 width="142px" height="177.242px" viewBox="0 0 142 177.242" enable-background="new 0 0 142 177.242" xml:space="preserve">
<g>
	<g>
		<path fill-rule="evenodd" clip-rule="evenodd" fill="#FFFFFF" d="M141,166.242c0,5.523-4.477,10-10,10H11c-5.523,0-10-4.477-10-10
			v-90c0-5.523,4.477-10,10-10h120c5.523,0,10,4.477,10,10V166.242z"/>
		<path fill="none" stroke="#000000" stroke-width="2" stroke-miterlimit="10" d="M141,166.242c0,5.523-4.477,10-10,10H11
			c-5.523,0-10-4.477-10-10v-90c0-5.523,4.477-10,10-10h120c5.523,0,10,4.477,10,10V166.242z"/>
	</g>
	<g>
		<path fill="#1A1A1A" d="M43.834,14.123h-7.031v7.263h-3.662V3.613h11.572v2.966h-7.91v4.59h7.031V14.123z"/>
		<path fill="#1A1A1A" d="M46.58,4.76c0-0.529,0.178-0.964,0.531-1.306c0.354-0.342,0.836-0.513,1.447-0.513
			c0.301,0,0.573,0.045,0.817,0.134c0.244,0.09,0.452,0.216,0.622,0.378c0.172,0.163,0.304,0.356,0.397,0.58
			c0.093,0.224,0.14,0.466,0.14,0.727c0,0.269-0.047,0.515-0.14,0.738c-0.094,0.224-0.226,0.417-0.397,0.58
			c-0.17,0.163-0.378,0.289-0.622,0.378c-0.244,0.09-0.517,0.134-0.817,0.134c-0.302,0-0.574-0.044-0.818-0.134
			c-0.244-0.089-0.451-0.215-0.623-0.378c-0.17-0.163-0.303-0.356-0.396-0.58C46.627,5.275,46.58,5.029,46.58,4.76z M50.328,21.386
			h-3.54V8.178h3.54V21.386z"/>
		<path fill="#1A1A1A" d="M57.456,4.931v3.247h2.259v2.588h-2.259v6.592c0,0.277,0.029,0.505,0.086,0.684
			c0.057,0.179,0.143,0.319,0.256,0.421c0.114,0.102,0.255,0.171,0.422,0.208c0.166,0.036,0.364,0.055,0.592,0.055
			c0.212,0,0.404-0.008,0.58-0.024c0.175-0.016,0.327-0.037,0.457-0.061v2.673c-0.293,0.089-0.612,0.165-0.958,0.226
			c-0.346,0.062-0.738,0.092-1.178,0.092c-0.578,0-1.099-0.071-1.563-0.214c-0.464-0.142-0.86-0.368-1.19-0.677
			c-0.329-0.309-0.584-0.712-0.763-1.208c-0.179-0.496-0.269-1.094-0.269-1.794v-6.97H52V8.178h1.929V4.931H57.456z"/>
		<path fill="#1A1A1A" d="M64.927,8.178l0.11,1.526c0.456-0.569,1.005-1.007,1.647-1.312c0.644-0.306,1.359-0.458,2.148-0.458
			c0.627,0,1.197,0.087,1.709,0.263c0.514,0.175,0.953,0.462,1.318,0.86c0.367,0.399,0.649,0.92,0.849,1.563
			c0.199,0.643,0.3,1.433,0.3,2.368v8.398H69.48v-8.423c0-0.423-0.047-0.773-0.141-1.05c-0.094-0.276-0.229-0.496-0.409-0.659
			c-0.179-0.163-0.398-0.279-0.658-0.348c-0.261-0.069-0.563-0.104-0.904-0.104c-0.521,0-0.966,0.114-1.336,0.342
			c-0.371,0.228-0.67,0.537-0.897,0.928v9.314h-3.528V8.178H64.927z"/>
		<path fill="#1A1A1A" d="M81.761,21.63c-1.025,0-1.942-0.167-2.752-0.5c-0.811-0.333-1.498-0.789-2.063-1.367
			c-0.565-0.578-0.997-1.255-1.294-2.033c-0.297-0.777-0.445-1.609-0.445-2.496v-0.476c0-1.001,0.145-1.918,0.434-2.752
			c0.288-0.834,0.699-1.552,1.232-2.155c0.533-0.602,1.18-1.072,1.941-1.41c0.761-0.338,1.613-0.507,2.557-0.507
			c0.953,0,1.791,0.157,2.516,0.47c0.724,0.313,1.332,0.753,1.824,1.318c0.492,0.566,0.862,1.248,1.111,2.045
			c0.248,0.798,0.372,1.685,0.372,2.661v1.501h-8.411c0.058,0.432,0.173,0.822,0.349,1.172c0.175,0.35,0.398,0.649,0.671,0.897
			c0.272,0.249,0.592,0.442,0.959,0.58c0.365,0.139,0.776,0.208,1.232,0.208c0.643,0,1.237-0.12,1.782-0.36
			c0.545-0.24,1.013-0.612,1.403-1.117l1.734,1.941c-0.212,0.301-0.477,0.594-0.794,0.879c-0.317,0.285-0.691,0.539-1.123,0.763
			c-0.432,0.224-0.918,0.402-1.459,0.537C82.996,21.563,82.404,21.63,81.761,21.63z M81.358,10.791
			c-0.383,0-0.719,0.067-1.007,0.201c-0.289,0.135-0.537,0.322-0.745,0.562c-0.207,0.24-0.376,0.527-0.506,0.861
			c-0.131,0.334-0.225,0.704-0.281,1.111h4.907v-0.281c-0.008-0.35-0.06-0.675-0.152-0.977c-0.094-0.301-0.236-0.562-0.428-0.781
			s-0.436-0.391-0.732-0.513S81.766,10.791,81.358,10.791z"/>
		<path fill="#1A1A1A" d="M96.349,17.736c0-0.187-0.036-0.358-0.109-0.513c-0.073-0.154-0.212-0.299-0.415-0.433
			c-0.203-0.135-0.48-0.263-0.83-0.385s-0.802-0.24-1.354-0.354c-0.676-0.146-1.301-0.33-1.874-0.549
			c-0.574-0.22-1.07-0.492-1.489-0.818c-0.42-0.325-0.747-0.704-0.982-1.135c-0.236-0.431-0.354-0.932-0.354-1.501
			c0-0.553,0.12-1.078,0.36-1.575c0.239-0.496,0.586-0.934,1.037-1.313c0.452-0.378,1.005-0.677,1.66-0.897s1.394-0.33,2.216-0.33
			c0.854,0,1.624,0.106,2.308,0.317c0.684,0.212,1.263,0.507,1.739,0.885c0.476,0.379,0.842,0.829,1.099,1.349
			c0.256,0.521,0.385,1.091,0.385,1.709h-3.528c0-0.504-0.163-0.921-0.488-1.251c-0.325-0.329-0.834-0.494-1.526-0.494
			c-0.594,0-1.054,0.134-1.379,0.403s-0.488,0.61-0.488,1.025c0,0.195,0.043,0.368,0.128,0.519c0.086,0.15,0.224,0.289,0.415,0.415
			c0.191,0.126,0.443,0.242,0.757,0.348c0.313,0.106,0.698,0.204,1.153,0.293c0.717,0.139,1.38,0.31,1.99,0.513
			c0.61,0.204,1.137,0.466,1.581,0.787c0.443,0.322,0.791,0.712,1.044,1.172c0.252,0.46,0.378,1.016,0.378,1.667
			c0,0.586-0.13,1.125-0.391,1.618c-0.261,0.492-0.633,0.917-1.117,1.275c-0.484,0.358-1.067,0.639-1.751,0.842
			s-1.449,0.305-2.295,0.305c-0.928,0-1.746-0.13-2.454-0.391s-1.305-0.602-1.788-1.025c-0.484-0.423-0.849-0.899-1.093-1.428
			c-0.244-0.529-0.366-1.062-0.366-1.599h3.345c0.017,0.342,0.092,0.637,0.226,0.885c0.135,0.249,0.312,0.45,0.531,0.604
			c0.22,0.155,0.474,0.269,0.763,0.342s0.593,0.11,0.909,0.11c0.676,0,1.187-0.128,1.532-0.384
			C96.176,18.487,96.349,18.151,96.349,17.736z"/>
		<path fill="#1A1A1A" d="M109.202,17.736c0-0.187-0.036-0.358-0.109-0.513c-0.073-0.154-0.212-0.299-0.415-0.433
			c-0.203-0.135-0.48-0.263-0.83-0.385s-0.802-0.24-1.354-0.354c-0.676-0.146-1.301-0.33-1.874-0.549
			c-0.574-0.22-1.07-0.492-1.489-0.818c-0.42-0.325-0.747-0.704-0.982-1.135c-0.236-0.431-0.354-0.932-0.354-1.501
			c0-0.553,0.12-1.078,0.36-1.575c0.239-0.496,0.586-0.934,1.037-1.313c0.452-0.378,1.005-0.677,1.66-0.897s1.394-0.33,2.216-0.33
			c0.854,0,1.624,0.106,2.308,0.317c0.684,0.212,1.263,0.507,1.739,0.885c0.476,0.379,0.842,0.829,1.099,1.349
			c0.256,0.521,0.385,1.091,0.385,1.709h-3.528c0-0.504-0.163-0.921-0.488-1.251c-0.325-0.329-0.834-0.494-1.526-0.494
			c-0.594,0-1.054,0.134-1.379,0.403s-0.488,0.61-0.488,1.025c0,0.195,0.043,0.368,0.128,0.519c0.086,0.15,0.224,0.289,0.415,0.415
			c0.191,0.126,0.443,0.242,0.757,0.348c0.313,0.106,0.698,0.204,1.153,0.293c0.717,0.139,1.38,0.31,1.99,0.513
			c0.61,0.204,1.137,0.466,1.581,0.787c0.443,0.322,0.791,0.712,1.044,1.172c0.252,0.46,0.378,1.016,0.378,1.667
			c0,0.586-0.13,1.125-0.391,1.618c-0.261,0.492-0.633,0.917-1.117,1.275c-0.484,0.358-1.067,0.639-1.751,0.842
			s-1.449,0.305-2.295,0.305c-0.928,0-1.746-0.13-2.454-0.391s-1.305-0.602-1.788-1.025c-0.484-0.423-0.849-0.899-1.093-1.428
			c-0.244-0.529-0.366-1.062-0.366-1.599h3.345c0.017,0.342,0.092,0.637,0.226,0.885c0.135,0.249,0.312,0.45,0.531,0.604
			c0.22,0.155,0.474,0.269,0.763,0.342s0.593,0.11,0.909,0.11c0.676,0,1.187-0.128,1.532-0.384
			C109.029,18.487,109.202,18.151,109.202,17.736z"/>
		<path fill="#1A1A1A" d="M56.163,47.14c-0.212,0.252-0.501,0.523-0.866,0.812c-0.367,0.289-0.826,0.558-1.38,0.806
			c-0.554,0.249-1.207,0.456-1.959,0.623c-0.753,0.167-1.618,0.25-2.595,0.25c-1.146,0-2.195-0.189-3.143-0.567
			c-0.948-0.379-1.76-0.934-2.436-1.667s-1.198-1.631-1.568-2.698c-0.371-1.066-0.556-2.287-0.556-3.662v-1.05
			c0-1.375,0.177-2.598,0.531-3.668c0.354-1.07,0.854-1.972,1.501-2.704c0.647-0.732,1.431-1.29,2.35-1.672
			c0.92-0.382,1.941-0.574,3.064-0.574c1.155,0,2.154,0.145,2.997,0.434c0.842,0.289,1.546,0.694,2.111,1.214
			c0.565,0.521,1.007,1.144,1.325,1.868c0.316,0.725,0.524,1.518,0.622,2.38h-3.564c-0.073-0.447-0.188-0.853-0.342-1.214
			c-0.154-0.362-0.366-0.672-0.635-0.928c-0.269-0.257-0.601-0.454-0.995-0.592c-0.395-0.138-0.864-0.208-1.41-0.208
			c-1.253,0-2.205,0.474-2.855,1.422c-0.651,0.948-0.977,2.354-0.977,4.218v1.074c0,1.864,0.354,3.271,1.062,4.224
			s1.745,1.428,3.112,1.428c0.439,0,0.822-0.028,1.148-0.085c0.325-0.057,0.604-0.128,0.836-0.214
			c0.231-0.085,0.425-0.179,0.58-0.28c0.154-0.102,0.28-0.202,0.378-0.299v-3.064h-3.333v-2.698h6.995V47.14z"/>
		<path fill="#1A1A1A" d="M63.829,44.394l2.441-8.215h3.783l-5.285,15.186c-0.122,0.333-0.279,0.696-0.47,1.086
			c-0.191,0.391-0.45,0.755-0.775,1.092c-0.325,0.338-0.729,0.619-1.208,0.843c-0.48,0.224-1.07,0.335-1.771,0.335
			c-0.163,0-0.31-0.006-0.439-0.018c-0.13-0.013-0.257-0.027-0.378-0.043c-0.123-0.017-0.243-0.039-0.36-0.067
			c-0.118-0.028-0.246-0.063-0.385-0.104v-2.673c0.09,0,0.181,0.002,0.274,0.006c0.094,0.004,0.182,0.006,0.263,0.006
			c0.35,0,0.648-0.026,0.897-0.079c0.248-0.053,0.462-0.139,0.641-0.257c0.179-0.118,0.33-0.267,0.451-0.445
			c0.123-0.179,0.229-0.391,0.318-0.635l0.378-0.989l-4.626-13.245h3.796L63.829,44.394z"/>
		<path fill="#1A1A1A" d="M74.754,36.178l0.11,1.477c0.439-0.537,0.974-0.958,1.604-1.263c0.631-0.306,1.361-0.458,2.191-0.458
			c0.789,0,1.487,0.159,2.094,0.476c0.605,0.317,1.076,0.83,1.409,1.538c0.432-0.626,0.975-1.119,1.63-1.477
			c0.655-0.358,1.435-0.537,2.338-0.537c0.643,0,1.227,0.09,1.752,0.269c0.524,0.179,0.972,0.468,1.343,0.867
			c0.37,0.399,0.654,0.917,0.854,1.556c0.199,0.639,0.299,1.422,0.299,2.35v8.411h-3.54v-8.411c0-0.439-0.047-0.801-0.141-1.086
			c-0.094-0.285-0.226-0.507-0.396-0.665c-0.171-0.159-0.379-0.269-0.623-0.33c-0.244-0.061-0.521-0.091-0.83-0.091
			c-0.545,0-1,0.136-1.367,0.409c-0.365,0.273-0.643,0.641-0.83,1.105c0,0.041,0.002,0.085,0.007,0.134
			c0.004,0.049,0.006,0.094,0.006,0.134v8.801h-3.528V41c0-0.439-0.044-0.801-0.134-1.086c-0.09-0.285-0.22-0.508-0.391-0.671
			c-0.171-0.163-0.381-0.276-0.629-0.342c-0.248-0.065-0.526-0.098-0.836-0.098c-0.521,0-0.96,0.11-1.318,0.33
			s-0.643,0.525-0.854,0.916v9.338h-3.527V36.178H74.754z"/>
		<path fill="#1A1A1A" d="M100.241,45.736c0-0.187-0.036-0.358-0.109-0.513c-0.073-0.154-0.212-0.299-0.415-0.433
			c-0.203-0.135-0.48-0.263-0.83-0.385s-0.802-0.24-1.354-0.354c-0.676-0.146-1.301-0.33-1.874-0.549
			c-0.574-0.22-1.07-0.492-1.489-0.818c-0.42-0.325-0.747-0.704-0.982-1.135c-0.236-0.431-0.354-0.932-0.354-1.501
			c0-0.553,0.12-1.078,0.36-1.575c0.239-0.496,0.586-0.934,1.037-1.313c0.452-0.378,1.005-0.677,1.66-0.897s1.394-0.33,2.216-0.33
			c0.854,0,1.624,0.106,2.308,0.317c0.684,0.212,1.263,0.507,1.739,0.885c0.476,0.379,0.842,0.829,1.099,1.349
			c0.256,0.521,0.385,1.091,0.385,1.709h-3.528c0-0.504-0.163-0.921-0.488-1.251c-0.325-0.329-0.834-0.494-1.526-0.494
			c-0.594,0-1.054,0.134-1.379,0.403s-0.488,0.61-0.488,1.025c0,0.195,0.043,0.368,0.128,0.519c0.086,0.15,0.224,0.289,0.415,0.415
			c0.191,0.126,0.443,0.242,0.757,0.348c0.313,0.106,0.698,0.204,1.153,0.293c0.717,0.139,1.38,0.31,1.99,0.513
			c0.61,0.204,1.137,0.466,1.581,0.787c0.443,0.322,0.791,0.712,1.044,1.172c0.252,0.46,0.378,1.016,0.378,1.667
			c0,0.586-0.13,1.125-0.391,1.618c-0.261,0.492-0.633,0.917-1.117,1.275c-0.484,0.358-1.067,0.639-1.751,0.842
			s-1.449,0.305-2.295,0.305c-0.928,0-1.746-0.13-2.454-0.391s-1.305-0.602-1.788-1.025c-0.484-0.423-0.849-0.899-1.093-1.428
			c-0.244-0.529-0.366-1.062-0.366-1.599h3.345c0.017,0.342,0.092,0.637,0.226,0.885c0.135,0.249,0.312,0.45,0.531,0.604
			c0.22,0.155,0.474,0.269,0.763,0.342s0.593,0.11,0.909,0.11c0.676,0,1.187-0.128,1.532-0.384
			C100.068,46.487,100.241,46.151,100.241,45.736z"/>
	</g>
	<g>
		<path fill-rule="evenodd" clip-rule="evenodd" fill="#010101" d="M73.506,160.281c-5.113,0-10.227-0.02-15.34,0.021
			c-0.912,0.008-1.371-0.154-1.23-1.178c0.082-0.592,0.047-1.203,0.008-1.803c-0.096-1.52,0.15-2.76,1.293-4.045
			c2.193-2.467,1.844-6.172-0.516-8.529c-0.576-0.574-0.793-1.123-0.785-1.91c0.045-4.51,0.047-9.021,0.061-13.531
			c0.002-0.639,0.123-1.357-0.654-1.656c-0.699-0.271-1.109,0.277-1.539,0.684c-2.426,2.311-4.824,4.648-7.285,6.922
			c-0.666,0.615-0.551,0.969,0.037,1.518c2.822,2.641,5.607,5.32,8.42,7.971c2.598,2.447,2.879,6.145,0.627,8.496
			c-2.391,2.494-5.949,2.479-8.617-0.023c-3.414-3.203-6.875-6.355-10.248-9.602c-2.994-2.881-4.623-6.266-3.438-10.547
			c0.41-1.477,1.453-2.525,2.428-3.594c4.191-4.607,8.393-9.203,12.658-13.74c2.91-3.094,6.68-4.391,10.814-4.82
			c0.602-0.063,0.832,0.238,1.047,0.713c3.387,7.512,6.779,15.023,10.189,22.523c0.262,0.576,0.297,0.865-0.414,1.104
			c-0.9,0.301-2.27,0.092-2.568,1.082c-0.234,0.777,0.324,1.807,0.57,2.713c0.641,2.359,1.33,4.709,1.945,7.074
			c0.244,0.949,0.664,1.27,1.648,0.939c1.34-0.451,2.705-0.859,4.088-1.145c1.166-0.24,1.299-0.756,0.975-1.811
			c-0.797-2.584-1.451-5.209-2.211-7.805c-0.209-0.709-0.156-1.309,0.162-1.973c3.559-7.479,7.105-14.963,10.621-22.463
			c0.332-0.705,0.719-0.918,1.473-0.842c4.117,0.424,7.592,2.229,10.387,5.18c4.459,4.707,8.779,9.545,13.148,14.338
			c2.014,2.215,2.307,4.813,1.551,7.586c-0.578,2.127-1.768,3.896-3.369,5.395c-3.512,3.287-7.01,6.588-10.541,9.854
			c-2.6,2.406-6.18,2.287-8.504-0.229c-2.129-2.307-1.924-5.865,0.514-8.209c2.816-2.711,5.646-5.406,8.506-8.07
			c0.664-0.619,0.816-0.992,0.045-1.699c-2.439-2.232-4.789-4.561-7.186-6.842c-0.424-0.402-0.838-0.957-1.543-0.678
			c-0.764,0.301-0.676,1.006-0.674,1.652c0.014,4.512,0.012,9.021,0.051,13.533c0.006,0.781-0.189,1.355-0.756,1.934
			c-2.639,2.686-2.578,6.678,0.129,9.328c0.443,0.434,0.641,0.846,0.623,1.451c-0.035,1.201-0.066,2.406,0.008,3.605
			c0.057,0.904-0.236,1.156-1.141,1.148C83.816,160.259,78.662,160.281,73.506,160.281"/>
		<path fill-rule="evenodd" clip-rule="evenodd" fill="#010101" d="M74.621,82.093c7.277,0.006,13.119,5.855,13.072,13.088
			c-0.047,7.244-5.918,13.047-13.18,13.025c-7.242-0.021-13.086-5.893-13.07-13.131C61.461,87.833,67.293,82.087,74.621,82.093"/>
		<path fill-rule="evenodd" clip-rule="evenodd" fill="#010101" d="M83.246,110.96c-3.156,6.787-6.313,13.57-9.58,20.596
			c-0.582-1.289-1.066-2.354-1.543-3.42c-2.396-5.359-4.775-10.725-7.197-16.072c-0.412-0.91-0.488-1.271,0.754-1.262
			c5.404,0.047,10.809-0.008,16.213-0.012C82.305,110.791,82.738,110.673,83.246,110.96"/>
		<path fill-rule="evenodd" clip-rule="evenodd" fill="#010101" d="M74.574,134.794c-0.049,0.75-0.432,1.129-1.064,1.137
			c-0.709,0.01-1.125-0.422-1.105-1.135c0.018-0.637,0.389-1.045,1.055-1.049C74.186,133.742,74.525,134.175,74.574,134.794"/>
	</g>
</g>
</svg>
