<?xml version="1.0" encoding="utf-8"?>
<!-- Generator: Adobe Illustrator 16.0.0, SVG Export Plug-In . SVG Version: 6.00 Build 0)  -->
<!DOCTYPE svg PUBLIC "-//W3C//DTD SVG 1.1//EN" "http://www.w3.org/Graphics/SVG/1.1/DTD/svg11.dtd">
<svg version="1.1" id="Layer_1" xmlns="http://www.w3.org/2000/svg" xmlns:xlink="http://www.w3.org/1999/xlink" x="0px" y="0px"
	 width="16px" height="16px" viewBox="0 0 16 16" enable-background="new 0 0 16 16" xml:space="preserve">
<g>
	<path d="M1.786,6.847c0.272-0.481,0.545-0.962,0.816-1.443c0.162-0.289,0.326-0.577,0.484-0.867
		C3.141,4.436,3.215,4.395,3.33,4.395C5.228,4.397,7.123,4.396,9.02,4.399c0.043,0,0.106,0.024,0.127,0.058
		C9.323,4.76,9.492,5.068,9.67,5.384C9.613,5.412,9.557,5.436,9.502,5.466C9.348,5.551,9.215,5.662,9.216,5.855
		c0.001,0.188,0.123,0.316,0.282,0.376c0.221,0.082,0.451,0.155,0.686,0.187c0.459,0.063,0.92,0.048,1.364-0.105
		c0.127-0.044,0.253-0.114,0.354-0.201c0.184-0.159,0.168-0.407-0.022-0.556c-0.091-0.071-0.198-0.122-0.308-0.188
		c0.009-0.017,0.021-0.044,0.035-0.07c0.154-0.27,0.312-0.538,0.461-0.811c0.035-0.063,0.07-0.096,0.147-0.093
		c0.157,0.007,0.315,0.005,0.474,0.002c0.097-0.002,0.162,0.038,0.207,0.119c0.427,0.761,0.854,1.522,1.277,2.284
		c0.064,0.117,0.042,0.237-0.006,0.352c-0.15,0.354-0.445,0.507-0.811,0.543c-0.323,0.033-0.604-0.07-0.846-0.297
		c-0.217,0.19-0.461,0.302-0.748,0.302c-0.289,0.001-0.535-0.104-0.756-0.3c-0.218,0.187-0.463,0.302-0.757,0.3
		C9.964,7.695,9.719,7.59,9.509,7.4c-0.5,0.42-1.083,0.375-1.514-0.002c-0.209,0.189-0.454,0.297-0.742,0.3
		C6.962,7.7,6.718,7.592,6.499,7.4c-0.5,0.399-1.004,0.404-1.515,0c-0.21,0.195-0.459,0.301-0.753,0.3
		C3.942,7.698,3.698,7.594,3.485,7.398C3.207,7.656,2.884,7.744,2.519,7.677c-0.357-0.065-0.604-0.27-0.732-0.61
		C1.786,6.993,1.786,6.92,1.786,6.847z M5.777,5.95c-0.808,0-1.616,0-2.425,0.001c-0.052,0-0.105-0.001-0.156,0.011
		C3.102,5.983,3.038,6.056,3.058,6.145c0.014,0.066,0.078,0.129,0.135,0.178c0.026,0.023,0.084,0.015,0.129,0.015
		c1.625,0,3.25,0,4.875,0c0.035,0,0.072,0.002,0.109-0.004C8.411,6.317,8.49,6.233,8.48,6.135c-0.01-0.106-0.076-0.168-0.18-0.182
		C8.266,5.947,8.229,5.95,8.191,5.95C7.389,5.95,6.583,5.95,5.777,5.95z M6.152,5.561c0.666,0,1.332,0,2,0
		c0.16,0,0.322,0.004,0.484-0.002c0.116-0.005,0.188-0.088,0.188-0.197C8.823,5.261,8.749,5.185,8.639,5.176
		C8.578,5.171,8.518,5.173,8.457,5.173c-1.204,0-2.408,0-3.612,0c-0.38,0-0.76-0.001-1.139,0.001
		C3.565,5.175,3.485,5.245,3.481,5.36C3.478,5.482,3.56,5.555,3.704,5.561c0.012,0,0.023,0,0.036,0
		C4.544,5.561,5.349,5.561,6.152,5.561z"/>
	<path d="M3.315,13.52c-0.209-0.104-0.273-0.272-0.271-0.504c0.006-1.611,0.003-3.225,0.003-4.838c0-0.039,0.003-0.08,0.005-0.119
		c0.126-0.045,0.246-0.09,0.38-0.139c0,1.734,0,3.465,0,5.204c0.134,0,0.253,0,0.393,0c0-0.104,0-0.211,0-0.317
		c-0.001-1.107-0.001-2.216-0.001-3.322c0-0.631,0.447-1.148,1.04-1.201C5.49,8.225,6.036,8.639,6.141,9.254
		c0.021,0.123,0.014,0.25,0.014,0.375c0.002,1.148,0.002,2.297,0.002,3.445c0,0.012,0.002,0.023,0.004,0.047
		c2.127,0,4.256,0,6.396,0c0-1.73,0-3.463,0-5.204c0.135,0.048,0.254,0.091,0.395,0.142c0,0.146,0,0.303,0,0.459
		c0,1.508-0.004,3.016,0.002,4.522c0.001,0.226-0.076,0.379-0.271,0.479c-2.265,0-4.529,0-6.793,0
		c-0.097-0.064-0.129-0.152-0.125-0.269c0.008-0.233,0.002-0.469,0.002-0.703c0-1.024,0.004-2.053,0-3.077
		C5.764,8.966,5.306,8.587,4.832,8.689C4.46,8.77,4.214,9.088,4.214,9.494C4.213,10.748,4.212,12,4.216,13.252
		c0,0.115-0.028,0.203-0.125,0.268C3.833,13.52,3.573,13.52,3.315,13.52z"/>
	<path d="M10.837,1.097c0.077,0.021,0.154,0.04,0.231,0.063c0.859,0.247,1.447,1.24,1.097,2.185c-0.188,0.51-0.435,0.989-0.71,1.456
		c-0.153,0.261-0.314,0.517-0.475,0.774c-0.013,0.02-0.021,0.041-0.035,0.071c0.242,0.037,0.479,0.064,0.688,0.19
		c-0.246,0.268-1.564,0.336-2.016,0.011c0.203-0.146,0.441-0.158,0.68-0.206c-0.158-0.258-0.314-0.506-0.465-0.758
		c-0.29-0.489-0.555-0.991-0.756-1.527c-0.389-1.033,0.335-2.099,1.281-2.239c0.015-0.002,0.027-0.013,0.043-0.02
		C10.546,1.097,10.691,1.097,10.837,1.097z M10.617,5.41c0.465-0.747,0.933-1.461,1.195-2.279c0.051-0.162,0.063-0.352,0.043-0.522
		c-0.086-0.74-0.785-1.245-1.494-1.092C9.598,1.681,9.205,2.52,9.42,3.14C9.699,3.95,10.158,4.662,10.617,5.41z"/>
	<path d="M8.289,8.764c0-0.098-0.001-0.182,0-0.266c0.003-0.286,0.223-0.508,0.507-0.51c0.372-0.002,0.743-0.002,1.115,0
		c0.294,0.003,0.509,0.22,0.513,0.516c0.002,0.08,0.001,0.16,0.001,0.26c0.054,0,0.099,0,0.146,0c0.445,0,0.89,0,1.334,0
		c0.205,0.002,0.27,0.066,0.27,0.269c0,1.088-0.001,2.176-0.002,3.262c0,0.248-0.105,0.354-0.354,0.354c-1.649,0-3.299,0-4.947,0
		c-0.215,0-0.328-0.111-0.328-0.328c-0.001-1.107,0-2.215,0-3.322c0-0.166,0.068-0.232,0.236-0.232
		C7.275,8.764,7.771,8.764,8.289,8.764z M6.936,12.248c1.621,0,3.23,0,4.842,0c0-0.93,0-1.848,0-2.785
		c-0.041,0.039-0.069,0.064-0.096,0.092c-0.274,0.287-0.549,0.572-0.822,0.859c-0.141,0.148-0.268,0.322-0.504,0.293
		c-0.028,0.412-0.187,0.627-0.469,0.623c-0.117-0.002-0.248-0.045-0.348-0.109c-0.174-0.115-0.198-0.311-0.186-0.482
		c-0.107-0.053-0.201-0.09-0.287-0.141c-0.672-0.404-1.342-0.811-2.012-1.217C7.02,9.359,6.982,9.34,6.936,9.313
		C6.936,10.301,6.936,11.27,6.936,12.248z M10.035,8.76c0-0.068,0-0.123,0-0.18c0.001-0.17-0.033-0.204-0.205-0.204
		c-0.271,0.001-0.542,0.006-0.813,0C8.672,8.37,8.665,8.369,8.684,8.736c0,0.006,0.008,0.014,0.016,0.022
		C9.137,8.76,9.575,8.76,10.035,8.76z M9.73,10.709c0.031,0.086,0.049,0.156,0.08,0.217c0.008,0.014,0.097,0.01,0.104-0.008
		c0.028-0.063,0.04-0.133,0.062-0.209C9.887,10.709,9.831,10.709,9.73,10.709z"/>
	<path d="M9.842,2.647c0.002-0.438,0.348-0.776,0.791-0.773c0.422,0.003,0.766,0.353,0.762,0.778
		c-0.002,0.438-0.348,0.776-0.791,0.774C10.182,3.424,9.841,3.076,9.842,2.647z"/>
</g>
</svg>
