<?xml version="1.0" encoding="utf-8"?>
<!-- Generator: Adobe Illustrator 16.0.0, SVG Export Plug-In . SVG Version: 6.00 Build 0)  -->
<!DOCTYPE svg PUBLIC "-//W3C//DTD SVG 1.1//EN" "http://www.w3.org/Graphics/SVG/1.1/DTD/svg11.dtd">
<svg version="1.1" id="Layer_1" xmlns="http://www.w3.org/2000/svg" xmlns:xlink="http://www.w3.org/1999/xlink" x="0px" y="0px"
	 width="157px" height="179px" viewBox="0 0 157 179" enable-background="new 0 0 157 179" xml:space="preserve">
<rect x="1" y="1" fill-rule="evenodd" clip-rule="evenodd" fill="#FFFFFF" stroke="#627D53" stroke-width="2" stroke-miterlimit="10" width="155" height="177"/>
<rect x="1" fill-rule="evenodd" clip-rule="evenodd" fill="#627D53" width="155" height="56"/>
<g>
	<path fill="#FFFFFF" d="M25.313,14.582h2.09v5.415h2.242v-5.415h2.09v13.3h-2.09v-5.985h-2.242v5.985h-2.09V14.582z"/>
	<path fill="#FFFFFF" d="M33.958,27.197c-0.544-0.582-0.817-1.405-0.817-2.469v-6.992c0-1.064,0.272-1.888,0.817-2.471
		c0.544-0.582,1.33-0.874,2.356-0.874c1.026,0,1.812,0.292,2.356,0.874c0.545,0.583,0.817,1.406,0.817,2.471v6.992
		c0,1.063-0.272,1.887-0.817,2.469c-0.544,0.584-1.33,0.875-2.356,0.875C35.288,28.072,34.502,27.781,33.958,27.197z M37.397,24.861
		v-7.258c0-0.875-0.361-1.312-1.083-1.312c-0.722,0-1.083,0.437-1.083,1.312v7.258c0,0.873,0.361,1.311,1.083,1.311
		C37.036,26.172,37.397,25.734,37.397,24.861z"/>
	<path fill="#FFFFFF" d="M40.893,14.582h3.097c1.077,0,1.862,0.25,2.356,0.75c0.494,0.501,0.741,1.271,0.741,2.309v0.817
		c0,1.38-0.456,2.255-1.368,2.622v0.037c0.506,0.152,0.865,0.463,1.074,0.932s0.313,1.096,0.313,1.881v2.337
		c0,0.38,0.012,0.688,0.038,0.922s0.089,0.466,0.19,0.693h-2.128c-0.076-0.216-0.126-0.418-0.152-0.608
		c-0.025-0.189-0.038-0.531-0.038-1.025v-2.432c0-0.608-0.098-1.033-0.294-1.273s-0.535-0.361-1.017-0.361h-0.722v5.7h-2.09V14.582z
		 M43.743,20.281c0.418,0,0.731-0.107,0.94-0.322s0.313-0.576,0.313-1.083V17.85c0-0.48-0.085-0.829-0.256-1.045
		c-0.171-0.215-0.44-0.322-0.808-0.322h-0.95v3.799H43.743z"/>
	<path fill="#FFFFFF" d="M48.968,27.207c-0.52-0.576-0.779-1.402-0.779-2.479v-0.761h1.976v0.912c0,0.861,0.361,1.292,1.083,1.292
		c0.354,0,0.624-0.104,0.808-0.313c0.183-0.209,0.275-0.548,0.275-1.017c0-0.557-0.127-1.048-0.38-1.473
		c-0.254-0.424-0.722-0.934-1.406-1.529c-0.861-0.76-1.463-1.447-1.805-2.062c-0.342-0.614-0.513-1.308-0.513-2.081
		c0-1.051,0.266-1.864,0.798-2.441c0.532-0.576,1.305-0.864,2.318-0.864c1,0,1.758,0.288,2.271,0.864
		c0.513,0.577,0.77,1.403,0.77,2.48v0.551h-1.976v-0.684c0-0.457-0.089-0.789-0.266-0.998c-0.178-0.209-0.437-0.313-0.779-0.313
		c-0.697,0-1.045,0.425-1.045,1.272c0,0.482,0.13,0.932,0.39,1.35c0.259,0.418,0.731,0.924,1.416,1.52
		c0.874,0.76,1.476,1.451,1.805,2.071c0.33,0.62,0.494,1.349,0.494,2.185c0,1.09-0.269,1.926-0.808,2.508
		c-0.538,0.584-1.32,0.875-2.346,0.875C50.254,28.072,49.488,27.783,48.968,27.207z"/>
	<path fill="#FFFFFF" d="M55.618,14.582h5.7v1.9h-3.61v3.515h2.869v1.899h-2.869v4.086h3.61v1.899h-5.7V14.582z"/>
	<path fill="#FFFFFF" d="M62.515,14.582h3.154c1.076,0,1.862,0.25,2.356,0.75c0.494,0.501,0.741,1.271,0.741,2.309v0.532
		c0,0.685-0.111,1.241-0.333,1.672s-0.56,0.741-1.016,0.931v0.039c1.038,0.354,1.558,1.279,1.558,2.773v1.141
		c0,1.025-0.269,1.808-0.807,2.346c-0.539,0.539-1.327,0.808-2.366,0.808h-3.287V14.582z M65.422,19.997
		c0.418,0,0.731-0.108,0.94-0.323s0.313-0.576,0.313-1.083V17.85c0-0.48-0.085-0.829-0.256-1.045
		c-0.171-0.215-0.44-0.322-0.808-0.322h-1.007v3.515H65.422z M65.802,25.982c0.367,0,0.64-0.099,0.817-0.295
		s0.266-0.535,0.266-1.017v-1.159c0-0.607-0.104-1.029-0.313-1.264s-0.554-0.352-1.036-0.352h-0.931v4.086H65.802z"/>
	<path fill="#FFFFFF" d="M71.806,14.582h2.831l2.166,13.3h-2.09l-0.38-2.642v0.039h-2.375l-0.38,2.603H69.64L71.806,14.582z
		 M74.086,23.474L73.155,16.9h-0.038l-0.912,6.573H74.086z"/>
	<path fill="#FFFFFF" d="M78.427,27.217c-0.526-0.57-0.789-1.374-0.789-2.413V17.66c0-1.039,0.263-1.844,0.789-2.413
		c0.525-0.57,1.289-0.855,2.29-0.855c1,0,1.764,0.285,2.289,0.855c0.525,0.569,0.789,1.374,0.789,2.413v1.406h-1.977v-1.539
		c0-0.824-0.348-1.235-1.045-1.235c-0.696,0-1.045,0.411-1.045,1.235v7.429c0,0.811,0.349,1.216,1.045,1.216
		c0.697,0,1.045-0.405,1.045-1.216v-2.033h1.977v1.881c0,1.039-0.264,1.843-0.789,2.413s-1.289,0.855-2.289,0.855
		C79.716,28.072,78.953,27.787,78.427,27.217z"/>
	<path fill="#FFFFFF" d="M85.049,14.582h2.09v5.605l2.66-5.605h2.09l-2.489,4.883l2.527,8.417h-2.185l-1.768-5.929l-0.836,1.691
		v4.237h-2.09V14.582z"/>
	<path fill="#FFFFFF" d="M95.953,14.582h3.098c1.076,0,1.861,0.25,2.355,0.75c0.494,0.501,0.742,1.271,0.742,2.309v0.817
		c0,1.38-0.457,2.255-1.369,2.622v0.037c0.507,0.152,0.865,0.463,1.074,0.932s0.313,1.096,0.313,1.881v2.337
		c0,0.38,0.013,0.688,0.038,0.922s0.088,0.466,0.189,0.693h-2.128c-0.075-0.216-0.126-0.418-0.151-0.608
		c-0.025-0.189-0.039-0.531-0.039-1.025v-2.432c0-0.608-0.098-1.033-0.294-1.273s-0.535-0.361-1.017-0.361h-0.722v5.7h-2.091V14.582
		z M98.804,20.281c0.418,0,0.731-0.107,0.94-0.322s0.313-0.576,0.313-1.083V17.85c0-0.48-0.085-0.829-0.257-1.045
		c-0.17-0.215-0.439-0.322-0.807-0.322h-0.95v3.799H98.804z"/>
	<path fill="#FFFFFF" d="M103.611,14.582h2.09v13.3h-2.09V14.582z"/>
	<path fill="#FFFFFF" d="M107.259,14.582h3.192c1.038,0,1.817,0.279,2.337,0.836c0.519,0.558,0.778,1.375,0.778,2.451v6.726
		c0,1.077-0.26,1.894-0.778,2.451c-0.52,0.558-1.299,0.836-2.337,0.836h-3.192V14.582z M110.413,25.982
		c0.342,0,0.604-0.102,0.788-0.305c0.184-0.202,0.275-0.531,0.275-0.988v-6.916c0-0.455-0.092-0.785-0.275-0.988
		c-0.184-0.201-0.446-0.303-0.788-0.303h-1.063v9.5H110.413z"/>
	<path fill="#FFFFFF" d="M114.973,14.582h2.09v13.3h-2.09V14.582z"/>
	<path fill="#FFFFFF" d="M118.621,14.582h2.621l2.033,7.961h0.039v-7.961h1.861v13.3h-2.146l-2.508-9.709h-0.039v9.709h-1.861
		V14.582z"/>
	<path fill="#FFFFFF" d="M127.379,27.207c-0.531-0.576-0.797-1.402-0.797-2.479v-6.992c0-1.077,0.266-1.903,0.797-2.48
		c0.533-0.576,1.305-0.864,2.318-0.864s1.786,0.288,2.318,0.864c0.531,0.577,0.798,1.403,0.798,2.48v1.14h-1.976v-1.272
		c0-0.875-0.361-1.312-1.084-1.312c-0.721,0-1.082,0.437-1.082,1.312v7.276c0,0.861,0.361,1.292,1.082,1.292
		c0.723,0,1.084-0.431,1.084-1.292v-2.603h-1.045v-1.9h3.021v4.352c0,1.076-0.267,1.902-0.798,2.479
		c-0.532,0.576-1.305,0.865-2.318,0.865S127.912,27.783,127.379,27.207z"/>
	<path fill="#FFFFFF" d="M56.501,46.017c-0.526-0.569-0.789-1.374-0.789-2.413v-7.145c0-1.037,0.263-1.842,0.789-2.412
		c0.525-0.57,1.289-0.855,2.29-0.855c1,0,1.764,0.285,2.29,0.855c0.525,0.57,0.788,1.375,0.788,2.412v1.406h-1.976v-1.539
		c0-0.822-0.349-1.234-1.045-1.234c-0.696,0-1.045,0.412-1.045,1.234v7.43c0,0.811,0.349,1.216,1.045,1.216
		c0.697,0,1.045-0.405,1.045-1.216v-2.033h1.976v1.881c0,1.039-0.263,1.844-0.788,2.413c-0.526,0.569-1.289,0.854-2.29,0.854
		C57.79,46.871,57.026,46.586,56.501,46.017z"/>
	<path fill="#FFFFFF" d="M63.122,33.382h5.7v1.899h-3.61v3.516h2.869v1.9h-2.869v4.084h3.61v1.9h-5.7V33.382z"/>
	<path fill="#FFFFFF" d="M70.019,33.382h2.622l2.033,7.961h0.038v-7.961h1.862v13.3h-2.147l-2.508-9.709h-0.038v9.709h-1.862V33.382
		z"/>
	<path fill="#FFFFFF" d="M79.766,35.281h-2.185v-1.899h6.46v1.899h-2.186v11.4h-2.09V35.281z"/>
	<path fill="#FFFFFF" d="M85.048,33.382h5.7v1.899h-3.609v3.516h2.868v1.9h-2.868v4.084h3.609v1.9h-5.7V33.382z"/>
	<path fill="#FFFFFF" d="M91.945,33.382h3.097c1.077,0,1.862,0.25,2.356,0.751c0.494,0.5,0.74,1.27,0.74,2.308v0.817
		c0,1.381-0.455,2.254-1.367,2.622v0.038c0.506,0.152,0.864,0.463,1.073,0.931c0.209,0.469,0.313,1.096,0.313,1.881v2.337
		c0,0.381,0.012,0.688,0.037,0.922s0.09,0.465,0.191,0.693h-2.129c-0.076-0.215-0.127-0.418-0.152-0.607
		c-0.025-0.19-0.037-0.533-0.037-1.026v-2.433c0-0.607-0.099-1.031-0.295-1.272s-0.535-0.361-1.017-0.361h-0.722v5.7h-2.09V33.382z
		 M94.795,39.082c0.418,0,0.731-0.107,0.94-0.323s0.313-0.576,0.313-1.083v-1.026c0-0.481-0.086-0.829-0.256-1.045
		c-0.172-0.215-0.441-0.323-0.809-0.323h-0.949v3.801H94.795z"/>
	<path fill="#FFFFFF" d="M100.02,46.008c-0.52-0.577-0.778-1.403-0.778-2.48v-0.76h1.976v0.912c0,0.861,0.361,1.292,1.084,1.292
		c0.354,0,0.623-0.104,0.807-0.313s0.275-0.548,0.275-1.017c0-0.558-0.127-1.048-0.379-1.473c-0.254-0.424-0.723-0.934-1.406-1.529
		c-0.861-0.76-1.463-1.446-1.805-2.062c-0.343-0.614-0.514-1.308-0.514-2.08c0-1.052,0.266-1.865,0.798-2.441
		s1.305-0.865,2.317-0.865c1.001,0,1.758,0.289,2.271,0.865c0.513,0.576,0.77,1.402,0.77,2.479v0.551h-1.977v-0.684
		c0-0.455-0.088-0.788-0.266-0.997s-0.438-0.313-0.779-0.313c-0.697,0-1.045,0.424-1.045,1.273c0,0.48,0.13,0.93,0.39,1.349
		c0.259,0.418,0.731,0.925,1.415,1.52c0.875,0.761,1.477,1.45,1.805,2.071c0.33,0.621,0.494,1.35,0.494,2.186
		c0,1.089-0.269,1.925-0.807,2.508c-0.539,0.582-1.32,0.873-2.347,0.873C101.306,46.871,100.539,46.584,100.02,46.008z"/>
</g>
<g>
	<path fill-rule="evenodd" clip-rule="evenodd" fill="#627D53" d="M87.327,163.619c-0.441-0.147-0.883-0.296-1.343-0.45
		c0.381-0.686,0.777-1.225,1.448-1.594c1.397-0.769,2.132-2.081,2.437-3.584c0.412-2.03,0.743-4.08,1.014-6.134
		c0.095-0.717-0.092-1.471-0.15-2.207c-0.045-0.008-0.09-0.015-0.134-0.022c-0.576,0.668-1.175,1.317-1.723,2.007
		c-0.6,0.756-1.161,1.542-1.721,2.328c-0.163,0.229-0.298,0.492-0.388,0.76c-0.344,1.016-0.653,2.047-1.902,2.352
		c0.166,0.377,0.297,0.643,0.401,0.919c0.196,0.513,0.14,0.885-0.321,1.165c-1.089,0.661-2.214,1.265-3.403,1.937
		c-0.131-1.039-0.015-1.907,0.232-2.764c0.578-2.009,1.641-3.767,2.84-5.449c0.78-1.097,1.582-2.179,2.394-3.253
		c1.107-1.465,1.34-3.103,0.704-4.766c-0.636-1.665-1.415-3.284-2.251-4.859c-0.8-1.508-1.769-2.925-2.631-4.4
		c-0.251-0.429-0.493-0.908-0.558-1.389c-0.138-1.03-0.218-2.077-0.211-3.117c0.012-1.586-0.559-2.885-1.764-3.88
		c-0.755-0.624-1.588-1.153-2.384-1.729c-2.997-2.164-5.976-4.366-8.507-7.071c-3.182-3.4-5.759-7.228-7.562-11.547
		c-0.195-0.467-0.41-0.927-0.638-1.379c-0.209-0.414-0.562-0.657-1.031-0.645c-0.826,0.024-1.278-0.431-1.574-1.134
		c-0.474-1.122-0.953-2.242-1.444-3.357c-0.061-0.139-0.208-0.239-0.315-0.356c-0.125,0.12-0.298,0.219-0.367,0.365
		c-0.635,1.363-1.241,2.739-1.879,4.101c-0.152,0.324-0.094,0.555,0.175,0.737c1.142,0.774,0.933,1.161,0.41,2.24
		c-0.404,0.833-0.95,1.536-1.827,1.919c-0.954,0.416-1.556,0.043-1.507-0.987c0.042-0.884,0.179-1.762,0.262-2.644
		c0.062-0.646,0.053-1.302,0.167-1.938c0.279-1.555,1.149-2.813,2.048-4.077c0.493-0.693,0.809-1.525,1.128-2.325
		c0.231-0.58,0.021-1.155-0.283-1.679c-0.342-0.588-0.693-1.172-1.042-1.757c-0.483-0.807-1.17-1.221-2.133-1.125
		c-0.772,0.077-1.548,0.116-2.318,0.214c-0.782,0.1-1.474,0.422-2.129,0.873c-0.375,0.259-0.851,0.371-1.297,0.555
		c0.056,1.294-0.27,1.702-1.65,2.003c-1.011,0.221-1.979,0.107-3.024-0.435c0.41-0.599,0.782-1.191,1.211-1.74
		c0.127-0.164,0.422-0.304,0.623-0.283c0.439,0.046,0.599-0.226,0.82-0.499c0.596-0.737,1.191-1.479,1.844-2.164
		c0.232-0.243,0.618-0.418,0.957-0.466c1.896-0.27,3.797-0.515,5.702-0.721c1.692-0.184,3.053,0.382,3.93,1.913
		c0.212,0.37,0.398,0.77,0.673,1.089c0.502,0.582,1.023,1.161,1.609,1.655c0.663,0.559,1.405,1.022,2.179,1.575
		c0.284-0.416,0.674-0.804,0.845-1.271c0.45-1.228,1.274-2.138,2.239-2.957c0.217-0.185,0.446-0.356,0.656-0.549
		c0.51-0.467,2.301-4.836,2.356-6.216c-0.609,0.078-1.183,0.145-1.755,0.225c-2.006,0.282-4.015,0.556-6.017,0.869
		c-0.358,0.056-0.694,0.278-1.028,0.447c-0.152,0.077-0.272,0.216-0.411,0.322c-1.305,1.006-3.138,0.39-3.571-1.208
		c-0.215-0.793-0.188-1.599,0.202-2.314c0.221-0.406,0.582-0.829,0.987-1.028c1.715-0.843,3.142-2.012,4.299-3.521
		c0.123-0.161,0.27-0.336,0.308-0.524c0.374-1.861,1.549-3.111,3.153-3.946c1.118-0.581,1.749-1.464,2.144-2.592
		c0.198-0.566,0.402-1.132,0.611-1.721c0.688,0.182,1.068,0.681,1.074,1.298c0.009,0.943,0.551,1.329,1.308,1.595
		c0.029,0.011,0.062,0.01,0.12,0.017c0.403-0.718,0.811-1.446,1.219-2.174c0.036,0.005,0.071,0.009,0.106,0.014
		c0,0.606,0.013,1.212-0.005,1.817c-0.009,0.293,0.085,0.404,0.385,0.461c1.562,0.295,8.152,3.432,8.09,5.629
		c-0.299,10.581,3.702,15.023,4.197,16.361c0.253,0.686,0.229,1.331,0.063,2.041c-0.698,2.987-0.839,5.958,0.517,8.831
		c0.961,2.038,2.456,3.64,4.169,5.057c1.929,1.596,3.853,3.2,5.811,4.76c1.868,1.489,3.341,3.284,4.382,5.426
		c0.597,1.227,1.509,2.134,2.646,2.852c0.257,0.162,0.426,0.15,0.665-0.04c0.694-0.552,1.404-1.085,2.124-1.603
		c2.056-1.479,4.228-1.658,6.487-0.516c1.145,0.578,2.264,1.205,3.396,1.809c2.083,1.11,3.797,2.624,5.067,4.627
		c0.334,0.525,0.696,1.033,1.046,1.55c-0.026,0.031-0.054,0.063-0.081,0.094c-0.237-0.128-0.475-0.256-0.78-0.421
		c0.472,1.734,0.927,3.411,1.383,5.089c-0.071,0.024-0.143,0.049-0.213,0.074c-0.302-0.626-0.604-1.252-0.905-1.877
		c-0.045,0.011-0.09,0.022-0.135,0.034c0.147,0.872,0.354,1.739,0.426,2.617c0.073,0.911,0.016,1.831,0.016,2.831
		c-0.336-0.266-3.403-14.855-17.474-7.244c-0.246-0.997-0.419-2.014-0.6-3.026c-0.093-0.52-0.243-0.979-0.865-1.263
		c-0.145,0.271-0.387,0.536-0.429,0.829c-0.26,1.829-1.095,3.374-2.352,4.678c-0.977,1.014-2.054,1.931-3.08,2.897
		c-0.449,0.423-0.921,0.83-1.317,1.301c-1.163,1.378-1.165,2.91-0.389,4.44c0.701,1.383,1.492,2.722,2.285,4.055
		c0.473,0.796,0.592,1.593,0.403,2.5c-0.744,3.58-1.462,7.165-2.155,10.755c-0.087,0.45-0.01,0.945,0.062,1.408
		c0.107,0.701-0.08,1.04-0.768,1.236c-0.335,0.096-0.712,0.132-0.988,0.317c-0.364,0.245-0.791,0.558-0.934,0.938
		c-0.224,0.6-0.617,0.837-1.163,0.974c-0.165,0.041-0.323,0.104-0.484,0.156C88.088,163.619,87.708,163.619,87.327,163.619z"/>
</g>
</svg>
