<?xml version="1.0" encoding="utf-8"?>
<!-- Generator: Adobe Illustrator 16.0.0, SVG Export Plug-In . SVG Version: 6.00 Build 0)  -->
<!DOCTYPE svg PUBLIC "-//W3C//DTD SVG 1.1//EN" "http://www.w3.org/Graphics/SVG/1.1/DTD/svg11.dtd">
<svg version="1.1" id="Layer_1" xmlns="http://www.w3.org/2000/svg" xmlns:xlink="http://www.w3.org/1999/xlink" x="0px" y="0px"
	 width="16px" height="16px" viewBox="0 0 16 16" enable-background="new 0 0 16 16" xml:space="preserve">
<g>
	<path d="M1.941,4.472c0.014-0.074,0.024-0.15,0.043-0.224c0.129-0.504,0.463-0.822,0.932-1.013c0.198-0.081,0.406-0.12,0.619-0.12
		C6.52,3.114,9.504,3.11,12.486,3.118c0.557,0.002,1.02,0.229,1.346,0.694c0.152,0.22,0.227,0.468,0.227,0.736
		c-0.002,1.466-0.004,2.931,0,4.397c0.002,0.627-0.303,1.051-0.844,1.326c-0.24,0.123-0.5,0.176-0.771,0.176
		c-1.73,0-3.463,0-5.193-0.002c-0.073,0-0.131,0.02-0.188,0.063c-1.186,0.902-2.373,1.803-3.558,2.703
		c-0.079,0.061-0.162,0.105-0.265,0.088c-0.187-0.033-0.294-0.215-0.235-0.402c0.194-0.619,0.384-1.238,0.575-1.859
		c0.051-0.164,0.102-0.328,0.153-0.492c0.008-0.027,0.013-0.057,0.022-0.098c-0.079,0-0.15,0.002-0.22,0
		c-0.398-0.01-0.761-0.127-1.071-0.383c-0.29-0.236-0.471-0.539-0.506-0.918C1.957,9.127,1.947,9.109,1.941,9.09
		C1.941,7.55,1.941,6.011,1.941,4.472z"/>
</g>
</svg>
