<?xml version="1.0" encoding="utf-8"?>
<!-- Generator: Adobe Illustrator 16.0.0, SVG Export Plug-In . SVG Version: 6.00 Build 0)  -->
<!DOCTYPE svg PUBLIC "-//W3C//DTD SVG 1.1//EN" "http://www.w3.org/Graphics/SVG/1.1/DTD/svg11.dtd">
<svg version="1.1" id="Layer_1" xmlns="http://www.w3.org/2000/svg" xmlns:xlink="http://www.w3.org/1999/xlink" x="0px" y="0px"
	 width="157px" height="179px" viewBox="0 0 157 179" enable-background="new 0 0 157 179" xml:space="preserve">
<rect x="2" y="1" fill-rule="evenodd" clip-rule="evenodd" fill="#FFFFFF" stroke="#627D53" stroke-width="2" stroke-miterlimit="10" width="155" height="177"/>
<rect x="1" fill-rule="evenodd" clip-rule="evenodd" fill="#627D53" width="155" height="56"/>
<g>
	<path fill="#FFFFFF" d="M14.816,23.582h3.097c1.077,0,1.862,0.25,2.356,0.75c0.494,0.501,0.741,1.271,0.741,2.309v0.817
		c0,1.38-0.456,2.255-1.368,2.622v0.037c0.506,0.152,0.865,0.463,1.074,0.932s0.313,1.096,0.313,1.881v2.337
		c0,0.38,0.012,0.688,0.038,0.922s0.089,0.466,0.19,0.693h-2.128c-0.076-0.216-0.126-0.418-0.152-0.608
		c-0.025-0.189-0.038-0.531-0.038-1.025v-2.432c0-0.608-0.098-1.033-0.294-1.273s-0.535-0.361-1.017-0.361h-0.722v5.7h-2.09V23.582z
		 M17.666,29.281c0.418,0,0.731-0.107,0.94-0.322s0.313-0.576,0.313-1.083V26.85c0-0.48-0.085-0.829-0.256-1.045
		c-0.171-0.215-0.44-0.322-0.808-0.322h-0.95v3.799H17.666z"/>
	<path fill="#FFFFFF" d="M23.138,36.197c-0.544-0.582-0.817-1.405-0.817-2.469v-6.992c0-1.064,0.272-1.888,0.817-2.471
		c0.544-0.582,1.33-0.874,2.356-0.874c1.026,0,1.812,0.292,2.356,0.874c0.545,0.583,0.817,1.406,0.817,2.471v6.992
		c0,1.063-0.272,1.887-0.817,2.469c-0.544,0.584-1.33,0.875-2.356,0.875C24.468,37.072,23.683,36.781,23.138,36.197z M26.577,33.861
		v-7.258c0-0.875-0.361-1.312-1.083-1.312c-0.722,0-1.083,0.437-1.083,1.312v7.258c0,0.873,0.361,1.311,1.083,1.311
		C26.216,35.172,26.577,34.734,26.577,33.861z"/>
	<path fill="#FFFFFF" d="M30.073,23.582h3.192c1.038,0,1.817,0.279,2.337,0.836c0.519,0.558,0.779,1.375,0.779,2.451v6.726
		c0,1.077-0.26,1.894-0.779,2.451c-0.52,0.558-1.299,0.836-2.337,0.836h-3.192V23.582z M33.228,34.982
		c0.342,0,0.604-0.102,0.789-0.305c0.183-0.202,0.275-0.531,0.275-0.988v-6.916c0-0.455-0.092-0.785-0.275-0.988
		c-0.184-0.201-0.447-0.303-0.789-0.303h-1.064v9.5H33.228z"/>
	<path fill="#FFFFFF" d="M37.787,23.582h5.7v1.9h-3.61v3.515h2.869v1.899h-2.869v4.086h3.61v1.899h-5.7V23.582z"/>
	<path fill="#FFFFFF" d="M45.349,36.197c-0.544-0.582-0.817-1.405-0.817-2.469v-6.992c0-1.064,0.272-1.888,0.817-2.471
		c0.544-0.582,1.33-0.874,2.356-0.874c1.026,0,1.812,0.292,2.356,0.874c0.545,0.583,0.817,1.406,0.817,2.471v6.992
		c0,1.063-0.272,1.887-0.817,2.469c-0.544,0.584-1.33,0.875-2.356,0.875C46.679,37.072,45.894,36.781,45.349,36.197z M48.788,33.861
		v-7.258c0-0.875-0.361-1.312-1.083-1.312c-0.722,0-1.083,0.437-1.083,1.312v7.258c0,0.873,0.361,1.311,1.083,1.311
		C48.427,35.172,48.788,34.734,48.788,33.861z"/>
	<path fill="#FFFFFF" d="M55.324,23.582h3.097c1.077,0,1.862,0.25,2.356,0.75c0.494,0.501,0.741,1.271,0.741,2.309v0.817
		c0,1.38-0.456,2.255-1.368,2.622v0.037c0.506,0.152,0.865,0.463,1.074,0.932s0.313,1.096,0.313,1.881v2.337
		c0,0.38,0.012,0.688,0.038,0.922s0.089,0.466,0.19,0.693h-2.128c-0.076-0.216-0.126-0.418-0.152-0.608
		c-0.025-0.189-0.038-0.531-0.038-1.025v-2.432c0-0.608-0.098-1.033-0.294-1.273s-0.535-0.361-1.017-0.361h-0.722v5.7h-2.09V23.582z
		 M58.174,29.281c0.418,0,0.731-0.107,0.94-0.322s0.313-0.576,0.313-1.083V26.85c0-0.48-0.085-0.829-0.256-1.045
		c-0.171-0.215-0.44-0.322-0.808-0.322h-0.95v3.799H58.174z"/>
	<path fill="#FFFFFF" d="M62.981,23.582h2.09v13.3h-2.09V23.582z"/>
	<path fill="#FFFFFF" d="M66.629,23.582h3.192c1.038,0,1.817,0.279,2.337,0.836c0.519,0.558,0.779,1.375,0.779,2.451v6.726
		c0,1.077-0.26,1.894-0.779,2.451c-0.52,0.558-1.299,0.836-2.337,0.836h-3.192V23.582z M69.783,34.982
		c0.342,0,0.604-0.102,0.789-0.305c0.183-0.202,0.275-0.531,0.275-0.988v-6.916c0-0.455-0.092-0.785-0.275-0.988
		c-0.184-0.201-0.447-0.303-0.789-0.303h-1.064v9.5H69.783z"/>
	<path fill="#FFFFFF" d="M74.343,23.582h2.09v13.3h-2.09V23.582z"/>
	<path fill="#FFFFFF" d="M77.991,23.582h2.623l2.033,7.961h0.037v-7.961h1.862v13.3h-2.147l-2.508-9.709h-0.037v9.709h-1.863V23.582
		z"/>
	<path fill="#FFFFFF" d="M86.75,36.207c-0.532-0.576-0.799-1.402-0.799-2.479v-6.992c0-1.077,0.267-1.903,0.799-2.48
		c0.531-0.576,1.305-0.864,2.318-0.864c1.013,0,1.785,0.288,2.317,0.864c0.532,0.577,0.798,1.403,0.798,2.48v1.14h-1.977v-1.272
		c0-0.875-0.36-1.312-1.082-1.312c-0.723,0-1.084,0.437-1.084,1.312v7.276c0,0.861,0.361,1.292,1.084,1.292
		c0.722,0,1.082-0.431,1.082-1.292v-2.603h-1.045v-1.9h3.021v4.352c0,1.076-0.266,1.902-0.798,2.479s-1.305,0.865-2.317,0.865
		C88.055,37.072,87.281,36.783,86.75,36.207z"/>
	<path fill="#FFFFFF" d="M96.99,36.207c-0.52-0.576-0.779-1.402-0.779-2.479v-0.761h1.977v0.912c0,0.861,0.36,1.292,1.082,1.292
		c0.355,0,0.624-0.104,0.809-0.313c0.183-0.209,0.275-0.548,0.275-1.017c0-0.557-0.127-1.048-0.381-1.473
		c-0.254-0.424-0.722-0.934-1.406-1.529c-0.861-0.76-1.463-1.447-1.805-2.062s-0.513-1.308-0.513-2.081
		c0-1.051,0.267-1.864,0.798-2.441c0.532-0.576,1.305-0.864,2.318-0.864c1,0,1.758,0.288,2.27,0.864
		c0.514,0.577,0.77,1.403,0.77,2.48v0.551h-1.975v-0.684c0-0.457-0.09-0.789-0.267-0.998c-0.178-0.209-0.437-0.313-0.779-0.313
		c-0.696,0-1.045,0.425-1.045,1.272c0,0.482,0.13,0.932,0.39,1.35s0.731,0.924,1.416,1.52c0.873,0.76,1.475,1.451,1.805,2.071
		c0.329,0.62,0.494,1.349,0.494,2.185c0,1.09-0.27,1.926-0.809,2.508c-0.537,0.584-1.32,0.875-2.346,0.875
		C98.275,37.072,97.51,36.783,96.99,36.207z"/>
	<path fill="#FFFFFF" d="M104.295,36.217c-0.525-0.57-0.788-1.374-0.788-2.413V26.66c0-1.039,0.263-1.844,0.788-2.413
		c0.525-0.57,1.289-0.855,2.29-0.855s1.764,0.285,2.29,0.855c0.525,0.569,0.787,1.374,0.787,2.413v1.406h-1.975v-1.539
		c0-0.824-0.35-1.235-1.046-1.235s-1.045,0.411-1.045,1.235v7.429c0,0.811,0.349,1.216,1.045,1.216s1.046-0.405,1.046-1.216v-2.033
		h1.975v1.881c0,1.039-0.262,1.843-0.787,2.413c-0.526,0.57-1.289,0.855-2.29,0.855S104.82,36.787,104.295,36.217z"/>
	<path fill="#FFFFFF" d="M110.916,23.582h2.091v5.415h2.241v-5.415h2.091v13.3h-2.091v-5.985h-2.241v5.985h-2.091V23.582z"/>
	<path fill="#FFFFFF" d="M119.562,36.197c-0.544-0.582-0.817-1.405-0.817-2.469v-6.992c0-1.064,0.273-1.888,0.817-2.471
		c0.544-0.582,1.33-0.874,2.356-0.874c1.025,0,1.811,0.292,2.355,0.874c0.545,0.583,0.817,1.406,0.817,2.471v6.992
		c0,1.063-0.272,1.887-0.817,2.469c-0.545,0.584-1.33,0.875-2.355,0.875C120.892,37.072,120.105,36.781,119.562,36.197z M123,33.861
		v-7.258c0-0.875-0.36-1.312-1.082-1.312c-0.723,0-1.084,0.437-1.084,1.312v7.258c0,0.873,0.361,1.311,1.084,1.311
		C122.64,35.172,123,34.734,123,33.861z"/>
	<path fill="#FFFFFF" d="M127.162,36.197c-0.545-0.582-0.817-1.405-0.817-2.469v-6.992c0-1.064,0.272-1.888,0.817-2.471
		c0.544-0.582,1.33-0.874,2.355-0.874c1.026,0,1.812,0.292,2.355,0.874c0.545,0.583,0.818,1.406,0.818,2.471v6.992
		c0,1.063-0.273,1.887-0.818,2.469c-0.544,0.584-1.329,0.875-2.355,0.875C128.492,37.072,127.706,36.781,127.162,36.197z
		 M130.601,33.861v-7.258c0-0.875-0.36-1.312-1.083-1.312c-0.722,0-1.083,0.437-1.083,1.312v7.258c0,0.873,0.361,1.311,1.083,1.311
		C130.24,35.172,130.601,34.734,130.601,33.861z"/>
	<path fill="#FFFFFF" d="M134.097,23.582h2.091v11.4h3.438v1.899h-5.529V23.582z"/>
	<path fill="#FFFFFF" d="M141.051,36.207c-0.52-0.576-0.779-1.402-0.779-2.479v-0.761h1.977v0.912c0,0.861,0.36,1.292,1.082,1.292
		c0.355,0,0.624-0.104,0.809-0.313c0.183-0.209,0.275-0.548,0.275-1.017c0-0.557-0.127-1.048-0.381-1.473
		c-0.254-0.424-0.722-0.934-1.406-1.529c-0.861-0.76-1.463-1.447-1.805-2.062s-0.513-1.308-0.513-2.081
		c0-1.051,0.267-1.864,0.798-2.441c0.532-0.576,1.305-0.864,2.318-0.864c1,0,1.758,0.288,2.27,0.864
		c0.514,0.577,0.77,1.403,0.77,2.48v0.551h-1.975v-0.684c0-0.457-0.09-0.789-0.267-0.998c-0.178-0.209-0.437-0.313-0.779-0.313
		c-0.696,0-1.045,0.425-1.045,1.272c0,0.482,0.13,0.932,0.39,1.35s0.731,0.924,1.416,1.52c0.873,0.76,1.475,1.451,1.805,2.071
		c0.329,0.62,0.494,1.349,0.494,2.185c0,1.09-0.27,1.926-0.809,2.508c-0.537,0.584-1.32,0.875-2.346,0.875
		C142.336,37.072,141.57,36.783,141.051,36.207z"/>
</g>
<g>
	<path fill-rule="evenodd" clip-rule="evenodd" fill="#627D53" d="M62.774,76.143c0.96,0.657,1.041,1.682,1.115,2.701
		c0.154,2.099,1.123,3.862,2.427,5.411c0.46,0.547,1.311,0.854,2.042,1.064c1.315,0.379,2.426,1.045,3.45,1.921
		c0.168,0.144,0.506,0.235,0.71,0.171c1.496-0.469,2.74-0.026,3.516,1.351c0.896,1.593,1.746,3.212,2.647,4.801
		c0.164,0.289,0.44,0.561,0.73,0.721c1.307,0.726,2.57,1.662,3.979,2.033c1.375,0.363,2.905,0.135,4.367,0.162
		c0.689,0.013,1.378,0.02,2.067,0.026c1.714,0.018,2.407,0.591,2.62,2.307c0.213,1.721,0.367,3.448,0.507,5.177
		c0.037,0.453,0.233,0.648,0.627,0.807c2.683,1.085,5.362,2.18,8.033,3.294c1.601,0.669,2.115,2.268,1.194,3.6
		c-0.646,0.935-1.781,1.23-2.99,0.741c-2.44-0.988-4.874-1.996-7.311-2.994c-0.655-0.269-1.313-0.533-2.088-0.848
		c-0.24,1.875-0.545,3.675-0.654,5.485c-0.03,0.513,0.409,1.159,0.811,1.572c0.96,0.985,2.034,1.858,3.041,2.799
		c0.289,0.271,0.504,0.619,0.756,0.929c0.101,0.123,0.19,0.301,0.322,0.347c2.037,0.716,4.071,1.452,6.258,1.578
		c0.114,0.007,0.231-0.02,0.243-0.021c0.406-1.172,0.729-2.308,1.2-3.378c0.259-0.588,0.728-1.106,1.188-1.571
		c0.178-0.18,0.701-0.27,0.87-0.142c0.207,0.157,0.345,0.621,0.276,0.892c-0.346,1.358,0,2.64,0.331,3.927
		c0.032,0.127,0.194,0.313,0.299,0.314c0.872,0.016,1.73,0.064,2.451-0.649c0.951-0.943,1.524-2.03,1.736-3.348
		c0.046-0.291,0.349-0.54,0.533-0.809c0.245,0.191,0.57,0.333,0.72,0.581c0.819,1.357,0.578,2.74-0.033,4.089
		c-0.264,0.581-0.658,1.101-0.935,1.677c-0.102,0.211-0.137,0.558-0.03,0.748c0.741,1.33,1.539,2.611,2.875,3.469
		c0.822,0.528,1.397,2.317,1.042,3.216c-0.104,0.262-0.496,0.537-0.787,0.576c-2.068,0.278-4.141,0.529-6.219,0.72
		c-0.99,0.091-1.995,0.013-2.992,0.044c-0.569,0.018-1.155,0.143-1.175,0.866c-0.09,3.24-0.529,6.549,1.053,9.573
		c0.673,1.286,1.663,2.41,2.537,3.587c0.425,0.57,1.037,1.092,0.658,1.883c-0.359,0.749-1.138,0.671-1.819,0.698
		c-1.601,0.064-3.142-0.143-4.433-1.197c-0.417-0.34-0.876-0.713-1.11-1.176c-0.877-1.729-1.676-3.497-2.487-5.258
		c-0.158-0.342-0.233-0.722-0.365-1.077c-0.508-1.373-1.639-1.539-2.779-1.092c-0.168,0.066-0.348,0.417-0.32,0.607
		c0.095,0.65,0.203,1.318,0.444,1.924c0.563,1.409,1.158,2.809,1.826,4.17c1.167,2.376-0.277,4.333-3.155,3.97
		c-1.553-0.196-2.805-0.979-3.504-2.48c-0.95-2.044-1.869-4.104-2.903-6.105c-1.295-2.508-3.114-4.653-4.997-6.734
		c-2.614-2.889-5.148-5.859-8.215-8.296c-0.892-0.708-1.827-1.364-2.761-2.017c-1.966-1.373-3.997-2.66-5.905-4.109
		c-2.068-1.569-4.374-2.172-6.887-1.942c-1.694,0.154-3.367,0.543-5.049,0.832c-1.578,0.271-2.933-0.497-3.374-1.918
		c-0.484-1.557,0.192-3.214,1.664-3.805c1.252-0.503,2.559-0.87,3.842-1.294c0.405-0.135,0.824-0.233,1.22-0.391
		c2.037-0.811,4.073-0.803,6.116-0.031c0.177,0.067,0.362,0.115,0.542,0.173c1.676,0.537,1.597,0.434,2.783-0.863
		c1.142-1.249,2.506-2.301,3.819-3.383c0.606-0.5,0.861-0.904,0.428-1.549c-0.398-0.592-0.917-1.207-1.531-1.528
		c-1.077-0.563-2.245-0.983-3.416-1.321c-1.04-0.3-2.014,0.036-2.852,0.734c-0.565,0.471-1.132,0.942-1.718,1.389
		c-0.832,0.632-1.651,0.465-2.264-0.387c-0.595-0.826-1.215-1.636-1.854-2.43c-0.831-1.032-0.66-1.918,0.501-2.56
		c2.715-1.5,5.618-2.241,8.722-2.279c3.069-0.038,5.48,1.258,7.297,3.63c0.857,1.119,1.459,2.431,2.202,3.641
		c0.131,0.214,0.362,0.467,0.584,0.509c1.951,0.37,3.482,1.457,4.873,2.789c0.389,0.373,0.738,0.786,1.242,1.326
		c0.343-2.401,0.653-4.578,0.967-6.771c-1.956-1.031-3.887-2.084-5.851-3.072c-0.978-0.491-1.673-1.187-2.175-2.154
		c-0.886-1.706-1.831-3.382-2.764-5.063c-0.523-0.944-0.715-1.893-0.233-2.923c0.066-0.142-0.036-0.453-0.164-0.578
		c-0.808-0.79-1.729-1.385-2.857-1.649c-1.793-0.42-3.111-1.462-3.907-3.141c-0.158-0.335-0.332-0.662-0.555-1.105
		c-0.318,1.156-0.511,2.213-0.902,3.188c-0.518,1.29-1.174,2.525-1.812,3.763c-0.144,0.278-0.438,0.498-0.702,0.692
		c-0.689,0.508-1.501,0.359-1.85-0.418c-0.247-0.55-0.421-1.182-0.429-1.779c-0.046-3.532,0.74-6.879,2.494-9.957
		c0.349-0.611,0.967-1.07,1.461-1.6C62.204,76.143,62.489,76.143,62.774,76.143z M62.313,77.363
		c-2.007,1.345-4.065,9.63-2.836,11.576C61.398,88.045,63.618,79.336,62.313,77.363z"/>
	<path fill-rule="evenodd" clip-rule="evenodd" fill="#627D53" d="M92.501,85.368c0.984,1.689,1.284,3.426,0.463,5.25
		c-0.548,1.217-1.415,2.132-2.627,2.688c-3.067,1.407-5.548,0.276-7.561-3.317c-1.058,0-2.054,0.129-3-0.034
		c-1.115-0.191-1.835-1.068-1.896-1.958c-0.078-1.14,0.588-1.807,1.514-2.271c0.699-0.351,1.414-0.674,2.138-0.972
		c0.388-0.159,0.591-0.376,0.672-0.811c0.19-1.025,0.437-2.041,0.686-3.054c0.432-1.749,1.756-2.36,3.363-1.544
		c0.867,0.44,1.737,0.885,2.558,1.403c0.532,0.337,0.965,0.31,1.498,0.037c0.802-0.409,1.63-0.772,2.466-1.107
		c1.691-0.679,2.812,0.202,2.532,1.996c-0.226,1.445-1.052,2.514-2.234,3.33C92.899,85.124,92.718,85.23,92.501,85.368z"/>
	<path fill-rule="evenodd" clip-rule="evenodd" fill="#627D53" d="M62.313,77.363c1.304,1.973-0.916,10.682-2.836,11.576
		C58.248,86.993,60.306,78.708,62.313,77.363z"/>
</g>
</svg>
