<?xml version="1.0" encoding="utf-8"?>
<!-- Generator: Adobe Illustrator 16.0.0, SVG Export Plug-In . SVG Version: 6.00 Build 0)  -->
<!DOCTYPE svg PUBLIC "-//W3C//DTD SVG 1.1//EN" "http://www.w3.org/Graphics/SVG/1.1/DTD/svg11.dtd">
<svg version="1.1" id="Layer_1" xmlns="http://www.w3.org/2000/svg" xmlns:xlink="http://www.w3.org/1999/xlink" x="0px" y="0px"
	 width="164px" height="177.242px" viewBox="0 0 164 177.242" enable-background="new 0 0 164 177.242" xml:space="preserve">
<g>
	<g>
		<path fill-rule="evenodd" clip-rule="evenodd" fill="#FFFFFF" d="M152,166.242c0,5.522-4.477,10-10,10H22c-5.523,0-10-4.478-10-10
			v-90c0-5.523,4.477-10,10-10h120c5.523,0,10,4.477,10,10V166.242z"/>
		<path fill="none" stroke="#000000" stroke-width="2" stroke-miterlimit="10" d="M152,166.242c0,5.522-4.477,10-10,10H22
			c-5.523,0-10-4.478-10-10v-90c0-5.523,4.477-10,10-10h120c5.523,0,10,4.477,10,10V166.242z"/>
	</g>
	<g>
		<g>
			<path fill="#1A1A1A" d="M36.125,16.481c0-0.309-0.044-0.588-0.134-0.836c-0.09-0.249-0.263-0.478-0.519-0.69
				c-0.257-0.211-0.61-0.419-1.063-0.623c-0.451-0.203-1.035-0.419-1.752-0.647c-0.813-0.26-1.58-0.553-2.301-0.879
				c-0.72-0.325-1.351-0.71-1.892-1.154c-0.542-0.443-0.969-0.954-1.282-1.532c-0.313-0.578-0.47-1.253-0.47-2.026
				c0-0.74,0.16-1.418,0.482-2.033c0.321-0.614,0.772-1.137,1.354-1.568c0.582-0.431,1.273-0.767,2.075-1.007
				c0.802-0.24,1.683-0.36,2.644-0.36c0.984,0,1.879,0.136,2.686,0.409c0.805,0.272,1.493,0.653,2.063,1.141s1.009,1.068,1.318,1.74
				C39.646,7.088,39.8,7.823,39.8,8.62h-3.662c0-0.374-0.06-0.72-0.177-1.038c-0.118-0.317-0.299-0.59-0.543-0.818
				c-0.244-0.228-0.55-0.405-0.916-0.531c-0.366-0.126-0.798-0.189-1.294-0.189c-0.48,0-0.897,0.053-1.251,0.159
				c-0.354,0.106-0.647,0.252-0.879,0.439c-0.232,0.188-0.407,0.407-0.525,0.659c-0.118,0.252-0.177,0.521-0.177,0.806
				c0,0.586,0.299,1.076,0.897,1.471c0.598,0.395,1.475,0.763,2.631,1.105c0.968,0.301,1.82,0.635,2.557,1.001
				s1.351,0.781,1.844,1.245c0.492,0.464,0.864,0.985,1.117,1.563c0.252,0.578,0.378,1.233,0.378,1.965
				c0,0.781-0.152,1.477-0.458,2.087c-0.305,0.61-0.738,1.125-1.3,1.544c-0.562,0.419-1.239,0.74-2.032,0.964
				c-0.794,0.224-1.679,0.336-2.655,0.336c-0.586,0-1.172-0.051-1.758-0.152c-0.586-0.102-1.146-0.258-1.679-0.47
				c-0.533-0.211-1.027-0.476-1.482-0.793c-0.456-0.317-0.854-0.691-1.19-1.123c-0.338-0.431-0.603-0.922-0.794-1.471
				c-0.191-0.55-0.287-1.158-0.287-1.825h3.675c0,0.537,0.085,0.993,0.257,1.367c0.17,0.375,0.408,0.678,0.714,0.909
				c0.305,0.232,0.673,0.401,1.104,0.507c0.432,0.106,0.911,0.159,1.44,0.159c0.472,0,0.883-0.051,1.233-0.153
				c0.35-0.102,0.639-0.242,0.866-0.421c0.228-0.179,0.396-0.393,0.507-0.641C36.07,17.033,36.125,16.767,36.125,16.481z"/>
			<path fill="#1A1A1A" d="M47.538,18.544c0.326,0,0.623-0.047,0.892-0.14c0.269-0.094,0.501-0.226,0.696-0.397
				s0.348-0.376,0.457-0.617c0.11-0.24,0.169-0.51,0.178-0.812h3.308c-0.008,0.7-0.154,1.345-0.439,1.935
				c-0.285,0.59-0.671,1.099-1.159,1.526c-0.488,0.427-1.064,0.759-1.728,0.995c-0.664,0.236-1.378,0.354-2.143,0.354
				c-1.025,0-1.921-0.173-2.686-0.519c-0.765-0.346-1.399-0.818-1.904-1.416c-0.505-0.599-0.883-1.302-1.136-2.112
				c-0.252-0.81-0.378-1.682-0.378-2.618v-0.342c0-0.936,0.126-1.811,0.378-2.625c0.253-0.813,0.631-1.521,1.136-2.124
				c0.505-0.602,1.137-1.076,1.898-1.422c0.761-0.346,1.649-0.519,2.667-0.519c0.813,0,1.557,0.12,2.228,0.36
				c0.672,0.24,1.247,0.584,1.728,1.031c0.48,0.448,0.854,0.991,1.123,1.63c0.269,0.639,0.407,1.353,0.415,2.142h-3.308
				c-0.009-0.317-0.063-0.617-0.165-0.897c-0.103-0.281-0.246-0.525-0.434-0.732c-0.188-0.208-0.419-0.373-0.696-0.495
				c-0.276-0.122-0.594-0.183-0.951-0.183c-0.514,0-0.933,0.106-1.258,0.317c-0.325,0.212-0.58,0.494-0.763,0.849
				c-0.184,0.354-0.308,0.763-0.372,1.227c-0.065,0.464-0.098,0.944-0.098,1.44v0.342c0,0.505,0.032,0.989,0.098,1.453
				c0.064,0.464,0.188,0.871,0.372,1.221c0.183,0.35,0.438,0.628,0.763,0.836C46.582,18.44,47.01,18.544,47.538,18.544z"/>
			<path fill="#1A1A1A" d="M58.524,9.377c0.439-0.529,0.954-0.942,1.545-1.239c0.59-0.297,1.251-0.445,1.983-0.445
				c0.651,0,1.245,0.092,1.782,0.274c0.537,0.184,0.997,0.48,1.379,0.892c0.383,0.411,0.678,0.942,0.886,1.593
				c0.207,0.651,0.312,1.44,0.312,2.368v8.325h-3.528v-8.35c0-0.423-0.047-0.777-0.141-1.062c-0.094-0.285-0.229-0.515-0.409-0.69
				c-0.179-0.175-0.4-0.299-0.665-0.372s-0.563-0.11-0.897-0.11c-0.553,0-1.013,0.108-1.379,0.324
				c-0.366,0.215-0.655,0.506-0.867,0.873v9.387h-3.527V2.395h3.527V9.377z"/>
			<path fill="#1A1A1A" d="M68.522,14.418c0-0.96,0.139-1.851,0.415-2.673c0.276-0.822,0.68-1.532,1.209-2.13
				c0.528-0.599,1.182-1.068,1.959-1.41c0.776-0.342,1.662-0.513,2.654-0.513c1.002,0,1.893,0.171,2.674,0.513
				s1.438,0.812,1.972,1.41c0.532,0.598,0.938,1.308,1.214,2.13c0.277,0.822,0.416,1.713,0.416,2.673v0.256
				c0,0.969-0.139,1.861-0.416,2.68c-0.276,0.817-0.682,1.525-1.214,2.124c-0.533,0.598-1.187,1.066-1.96,1.403
				c-0.772,0.338-1.66,0.507-2.66,0.507c-1.002,0-1.891-0.169-2.668-0.507c-0.777-0.337-1.433-0.806-1.965-1.403
				c-0.533-0.599-0.938-1.307-1.215-2.124c-0.276-0.818-0.415-1.711-0.415-2.68V14.418z M72.051,14.675
				c0,0.537,0.049,1.042,0.146,1.514c0.098,0.472,0.254,0.881,0.47,1.227c0.215,0.346,0.496,0.621,0.842,0.824
				c0.346,0.204,0.771,0.305,1.276,0.305c0.488,0,0.904-0.102,1.251-0.305c0.346-0.203,0.628-0.478,0.849-0.824
				c0.219-0.346,0.378-0.754,0.476-1.227c0.098-0.472,0.146-0.977,0.146-1.514v-0.256c0-0.521-0.049-1.015-0.146-1.483
				c-0.098-0.468-0.257-0.879-0.476-1.233c-0.221-0.354-0.505-0.635-0.855-0.842c-0.35-0.208-0.772-0.312-1.27-0.312
				c-0.488,0-0.905,0.104-1.251,0.312c-0.346,0.207-0.627,0.488-0.842,0.842c-0.216,0.354-0.372,0.765-0.47,1.233
				c-0.098,0.468-0.146,0.962-0.146,1.483V14.675z"/>
			<path fill="#1A1A1A" d="M82.658,14.418c0-0.96,0.139-1.851,0.415-2.673c0.276-0.822,0.68-1.532,1.209-2.13
				c0.528-0.599,1.182-1.068,1.959-1.41c0.776-0.342,1.662-0.513,2.654-0.513c1.002,0,1.893,0.171,2.674,0.513
				s1.438,0.812,1.972,1.41c0.532,0.598,0.938,1.308,1.214,2.13c0.277,0.822,0.416,1.713,0.416,2.673v0.256
				c0,0.969-0.139,1.861-0.416,2.68c-0.276,0.817-0.682,1.525-1.214,2.124c-0.533,0.598-1.187,1.066-1.96,1.403
				c-0.772,0.338-1.66,0.507-2.66,0.507c-1.002,0-1.891-0.169-2.668-0.507c-0.777-0.337-1.433-0.806-1.965-1.403
				c-0.533-0.599-0.938-1.307-1.215-2.124c-0.276-0.818-0.415-1.711-0.415-2.68V14.418z M86.187,14.675
				c0,0.537,0.049,1.042,0.146,1.514c0.098,0.472,0.254,0.881,0.47,1.227c0.215,0.346,0.496,0.621,0.842,0.824
				c0.346,0.204,0.771,0.305,1.276,0.305c0.488,0,0.904-0.102,1.251-0.305c0.346-0.203,0.628-0.478,0.849-0.824
				c0.219-0.346,0.378-0.754,0.476-1.227c0.098-0.472,0.146-0.977,0.146-1.514v-0.256c0-0.521-0.049-1.015-0.146-1.483
				c-0.098-0.468-0.257-0.879-0.476-1.233c-0.221-0.354-0.505-0.635-0.855-0.842c-0.35-0.208-0.772-0.312-1.27-0.312
				c-0.488,0-0.905,0.104-1.251,0.312c-0.346,0.207-0.627,0.488-0.842,0.842c-0.216,0.354-0.372,0.765-0.47,1.233
				c-0.098,0.468-0.146,0.962-0.146,1.483V14.675z"/>
			<path fill="#1A1A1A" d="M101.066,21.145h-3.54V2.395h3.54V21.145z"/>
			<path fill="#1A1A1A" d="M111.124,17.495c0-0.187-0.036-0.358-0.109-0.513c-0.073-0.154-0.212-0.299-0.415-0.433
				c-0.203-0.135-0.48-0.263-0.83-0.385s-0.802-0.24-1.354-0.354c-0.676-0.146-1.301-0.33-1.874-0.549
				c-0.574-0.22-1.07-0.492-1.489-0.818c-0.42-0.325-0.747-0.704-0.982-1.135c-0.236-0.431-0.354-0.932-0.354-1.501
				c0-0.553,0.12-1.078,0.36-1.575c0.239-0.496,0.586-0.934,1.037-1.313c0.452-0.378,1.005-0.677,1.66-0.897s1.394-0.33,2.216-0.33
				c0.854,0,1.624,0.106,2.308,0.317c0.684,0.212,1.263,0.507,1.739,0.885c0.476,0.379,0.842,0.829,1.099,1.349
				c0.256,0.521,0.385,1.091,0.385,1.709h-3.528c0-0.504-0.163-0.921-0.488-1.251c-0.325-0.329-0.834-0.494-1.526-0.494
				c-0.594,0-1.054,0.134-1.379,0.403s-0.488,0.61-0.488,1.025c0,0.195,0.043,0.368,0.128,0.519c0.086,0.15,0.224,0.289,0.415,0.415
				c0.191,0.126,0.443,0.242,0.757,0.348c0.313,0.106,0.698,0.204,1.153,0.293c0.717,0.139,1.38,0.31,1.99,0.513
				c0.61,0.204,1.137,0.466,1.581,0.787c0.443,0.322,0.791,0.712,1.044,1.172c0.252,0.46,0.378,1.016,0.378,1.667
				c0,0.586-0.13,1.125-0.391,1.618c-0.261,0.492-0.633,0.917-1.117,1.275c-0.484,0.358-1.067,0.639-1.751,0.842
				s-1.449,0.305-2.295,0.305c-0.928,0-1.746-0.13-2.454-0.391s-1.305-0.602-1.788-1.025c-0.484-0.423-0.849-0.899-1.093-1.428
				c-0.244-0.529-0.366-1.062-0.366-1.599h3.345c0.017,0.342,0.092,0.637,0.226,0.885c0.135,0.249,0.312,0.45,0.531,0.604
				c0.22,0.155,0.474,0.269,0.763,0.342s0.593,0.11,0.909,0.11c0.676,0,1.187-0.128,1.532-0.384
				C110.951,18.245,111.124,17.91,111.124,17.495z"/>
			<path fill="#1A1A1A" d="M122.563,16.359c0-0.513,0.079-0.979,0.237-1.397c0.159-0.419,0.379-0.812,0.659-1.178
				c0.281-0.366,0.618-0.714,1.014-1.043c0.395-0.33,0.832-0.661,1.313-0.995c-0.529-0.708-0.944-1.373-1.246-1.996
				c-0.301-0.622-0.451-1.271-0.451-1.947c0-0.7,0.116-1.336,0.348-1.911c0.232-0.573,0.558-1.066,0.977-1.477
				c0.419-0.411,0.928-0.729,1.526-0.952c0.598-0.224,1.263-0.336,1.995-0.336c0.692,0,1.318,0.11,1.881,0.33
				c0.561,0.22,1.039,0.519,1.434,0.897c0.395,0.379,0.698,0.818,0.91,1.318c0.211,0.501,0.316,1.032,0.316,1.593
				c0,0.415-0.059,0.806-0.177,1.172s-0.282,0.712-0.494,1.038c-0.212,0.326-0.462,0.631-0.751,0.916
				c-0.289,0.285-0.608,0.549-0.958,0.793l-1.136,0.818l3.064,3.564c0.228-0.447,0.404-0.932,0.531-1.453
				c0.126-0.521,0.189-1.078,0.189-1.672h3.002c0,1.091-0.124,2.108-0.372,3.052c-0.248,0.944-0.657,1.799-1.227,2.563l2.661,3.088
				h-4.004l-0.916-1.05c-0.667,0.439-1.371,0.765-2.111,0.977s-1.542,0.317-2.404,0.317c-0.896,0-1.703-0.124-2.424-0.372
				c-0.72-0.249-1.33-0.594-1.831-1.038c-0.5-0.443-0.885-0.974-1.153-1.593C122.696,17.768,122.563,17.092,122.563,16.359z
				 M128.543,18.557c0.847,0,1.648-0.236,2.405-0.708l-3.503-4.053l-0.257,0.183c-0.228,0.195-0.413,0.389-0.556,0.58
				c-0.143,0.191-0.252,0.379-0.329,0.562c-0.078,0.184-0.131,0.362-0.159,0.537c-0.028,0.175-0.043,0.344-0.043,0.507
				c0,0.342,0.058,0.659,0.172,0.952c0.113,0.293,0.278,0.547,0.494,0.763c0.215,0.216,0.474,0.383,0.775,0.501
				C127.844,18.498,128.178,18.557,128.543,18.557z M127.25,7.753c0,0.366,0.098,0.737,0.293,1.111
				c0.195,0.375,0.455,0.773,0.781,1.196l0.939-0.623c0.252-0.163,0.462-0.321,0.629-0.476c0.166-0.154,0.297-0.312,0.391-0.47
				c0.093-0.159,0.158-0.319,0.195-0.482c0.036-0.163,0.055-0.337,0.055-0.525c0-0.187-0.037-0.37-0.109-0.549
				c-0.074-0.179-0.178-0.34-0.312-0.482c-0.135-0.142-0.304-0.258-0.507-0.348c-0.203-0.089-0.432-0.134-0.684-0.134
				c-0.276,0-0.519,0.047-0.727,0.14c-0.207,0.094-0.383,0.222-0.524,0.385c-0.143,0.163-0.249,0.352-0.317,0.567
				C127.284,7.279,127.25,7.509,127.25,7.753z"/>
			<path fill="#1A1A1A" d="M30.114,31.371v11.731c0,1.025-0.171,1.931-0.513,2.716c-0.342,0.785-0.813,1.442-1.416,1.971
				c-0.603,0.529-1.32,0.928-2.154,1.196c-0.835,0.269-1.744,0.403-2.729,0.403c-0.993,0-1.906-0.134-2.74-0.403
				c-0.835-0.269-1.553-0.667-2.155-1.196c-0.602-0.529-1.072-1.186-1.409-1.971c-0.338-0.786-0.507-1.691-0.507-2.716V31.371h3.662
				v11.731c0,1.164,0.278,2.012,0.836,2.545c0.558,0.533,1.329,0.799,2.313,0.799c0.993,0,1.764-0.267,2.313-0.799
				c0.549-0.533,0.824-1.381,0.824-2.545V31.371H30.114z"/>
			<path fill="#1A1A1A" d="M36.132,35.937l0.11,1.526c0.456-0.569,1.005-1.007,1.647-1.312c0.644-0.306,1.359-0.458,2.148-0.458
				c0.627,0,1.197,0.087,1.709,0.263c0.514,0.175,0.953,0.462,1.318,0.86c0.367,0.399,0.649,0.92,0.849,1.563
				c0.199,0.643,0.3,1.433,0.3,2.368v8.398h-3.528v-8.423c0-0.423-0.047-0.773-0.141-1.05c-0.094-0.276-0.229-0.496-0.409-0.659
				c-0.179-0.163-0.398-0.279-0.658-0.348c-0.261-0.069-0.563-0.104-0.904-0.104c-0.521,0-0.966,0.114-1.336,0.342
				c-0.371,0.228-0.67,0.537-0.897,0.928v9.314h-3.528V35.937H36.132z"/>
			<path fill="#1A1A1A" d="M46.862,32.519c0-0.529,0.178-0.964,0.531-1.306c0.354-0.342,0.836-0.513,1.447-0.513
				c0.301,0,0.573,0.045,0.817,0.134c0.244,0.09,0.452,0.216,0.622,0.378c0.172,0.163,0.304,0.356,0.397,0.58
				c0.093,0.224,0.14,0.466,0.14,0.727c0,0.269-0.047,0.515-0.14,0.738c-0.094,0.224-0.226,0.417-0.397,0.58
				c-0.17,0.163-0.378,0.289-0.622,0.378c-0.244,0.09-0.517,0.134-0.817,0.134c-0.302,0-0.574-0.044-0.818-0.134
				c-0.244-0.089-0.451-0.215-0.623-0.378c-0.17-0.163-0.303-0.356-0.396-0.58C46.909,33.033,46.862,32.787,46.862,32.519z
				 M50.61,49.145h-3.54V35.937h3.54V49.145z"/>
			<path fill="#1A1A1A" d="M58.46,44.835l2.453-8.899h3.688l-4.456,13.208h-3.369l-4.456-13.208h3.688L58.46,44.835z"/>
			<path fill="#1A1A1A" d="M72.229,49.389c-1.025,0-1.942-0.167-2.752-0.5c-0.811-0.333-1.498-0.789-2.063-1.367
				c-0.565-0.578-0.997-1.255-1.294-2.033c-0.297-0.777-0.445-1.609-0.445-2.496v-0.476c0-1.001,0.145-1.918,0.434-2.752
				c0.288-0.834,0.699-1.552,1.232-2.155c0.533-0.602,1.18-1.072,1.941-1.41c0.761-0.338,1.613-0.507,2.557-0.507
				c0.953,0,1.791,0.157,2.516,0.47c0.724,0.313,1.332,0.753,1.824,1.318c0.492,0.566,0.862,1.248,1.111,2.045
				c0.248,0.798,0.372,1.685,0.372,2.661v1.501h-8.411c0.058,0.432,0.173,0.822,0.349,1.172c0.175,0.35,0.398,0.649,0.671,0.897
				c0.272,0.249,0.592,0.442,0.959,0.58c0.365,0.139,0.776,0.208,1.232,0.208c0.643,0,1.237-0.12,1.782-0.36
				c0.545-0.24,1.013-0.612,1.403-1.117l1.734,1.941c-0.212,0.301-0.477,0.594-0.794,0.879c-0.317,0.285-0.691,0.539-1.123,0.763
				c-0.432,0.224-0.918,0.402-1.459,0.537C73.465,49.321,72.873,49.389,72.229,49.389z M71.827,38.549
				c-0.383,0-0.719,0.067-1.007,0.201c-0.289,0.135-0.537,0.322-0.745,0.562c-0.207,0.24-0.376,0.527-0.506,0.861
				c-0.131,0.334-0.225,0.704-0.281,1.111h4.907v-0.281c-0.008-0.35-0.06-0.675-0.152-0.977c-0.094-0.301-0.236-0.562-0.428-0.781
				s-0.436-0.391-0.732-0.513S72.234,38.549,71.827,38.549z"/>
			<path fill="#1A1A1A" d="M87.087,39.245c-0.18-0.024-0.39-0.047-0.629-0.067c-0.24-0.021-0.454-0.031-0.641-0.031
				c-0.692,0-1.252,0.116-1.679,0.348c-0.428,0.231-0.743,0.567-0.946,1.007v8.643h-3.527V35.937h3.332l0.098,1.575
				c0.334-0.569,0.744-1.015,1.232-1.336c0.488-0.322,1.059-0.482,1.709-0.482c0.188,0,0.385,0.017,0.593,0.049
				c0.207,0.033,0.376,0.069,0.507,0.11L87.087,39.245z"/>
			<path fill="#1A1A1A" d="M95.937,45.495c0-0.187-0.036-0.358-0.109-0.513c-0.073-0.154-0.212-0.299-0.415-0.433
				c-0.203-0.135-0.48-0.263-0.83-0.385s-0.802-0.24-1.354-0.354c-0.676-0.146-1.301-0.33-1.874-0.549
				c-0.574-0.22-1.07-0.492-1.489-0.818c-0.42-0.325-0.747-0.704-0.982-1.135c-0.236-0.431-0.354-0.932-0.354-1.501
				c0-0.553,0.12-1.078,0.36-1.575c0.239-0.496,0.586-0.934,1.037-1.313c0.452-0.378,1.005-0.677,1.66-0.897s1.394-0.33,2.216-0.33
				c0.854,0,1.624,0.106,2.308,0.317c0.684,0.212,1.263,0.507,1.739,0.885c0.476,0.379,0.842,0.829,1.099,1.349
				c0.256,0.521,0.385,1.091,0.385,1.709h-3.528c0-0.504-0.163-0.921-0.488-1.251c-0.325-0.329-0.834-0.494-1.526-0.494
				c-0.594,0-1.054,0.134-1.379,0.403s-0.488,0.61-0.488,1.025c0,0.195,0.043,0.368,0.128,0.519c0.086,0.15,0.224,0.289,0.415,0.415
				c0.191,0.126,0.443,0.242,0.757,0.348c0.313,0.106,0.698,0.204,1.153,0.293c0.717,0.139,1.38,0.31,1.99,0.513
				c0.61,0.204,1.137,0.466,1.581,0.787c0.443,0.322,0.791,0.712,1.044,1.172c0.252,0.46,0.378,1.016,0.378,1.667
				c0,0.586-0.13,1.125-0.391,1.618c-0.261,0.492-0.633,0.917-1.117,1.275c-0.484,0.358-1.067,0.639-1.751,0.842
				s-1.449,0.305-2.295,0.305c-0.928,0-1.746-0.13-2.454-0.391s-1.305-0.602-1.788-1.025c-0.484-0.423-0.849-0.899-1.093-1.428
				c-0.244-0.529-0.366-1.062-0.366-1.599h3.345c0.017,0.342,0.092,0.637,0.226,0.885c0.135,0.249,0.312,0.45,0.531,0.604
				c0.22,0.155,0.474,0.269,0.763,0.342s0.593,0.11,0.909,0.11c0.676,0,1.187-0.128,1.532-0.384
				C95.764,46.245,95.937,45.91,95.937,45.495z"/>
			<path fill="#1A1A1A" d="M101.612,32.519c0-0.529,0.178-0.964,0.531-1.306c0.354-0.342,0.836-0.513,1.447-0.513
				c0.301,0,0.573,0.045,0.817,0.134c0.244,0.09,0.452,0.216,0.622,0.378c0.172,0.163,0.304,0.356,0.397,0.58
				c0.093,0.224,0.14,0.466,0.14,0.727c0,0.269-0.047,0.515-0.14,0.738c-0.094,0.224-0.226,0.417-0.397,0.58
				c-0.17,0.163-0.378,0.289-0.622,0.378c-0.244,0.09-0.517,0.134-0.817,0.134c-0.302,0-0.574-0.044-0.818-0.134
				c-0.244-0.089-0.451-0.215-0.623-0.378c-0.17-0.163-0.303-0.356-0.396-0.58C101.659,33.033,101.612,32.787,101.612,32.519z
				 M105.36,49.145h-3.54V35.937h3.54V49.145z"/>
			<path fill="#1A1A1A" d="M112.489,32.689v3.247h2.259v2.588h-2.259v6.592c0,0.277,0.029,0.505,0.086,0.684
				c0.057,0.179,0.143,0.319,0.256,0.421c0.114,0.102,0.255,0.171,0.422,0.208c0.166,0.036,0.364,0.055,0.592,0.055
				c0.212,0,0.404-0.008,0.58-0.024c0.175-0.016,0.327-0.037,0.457-0.061v2.673c-0.293,0.089-0.612,0.165-0.958,0.226
				c-0.346,0.062-0.738,0.092-1.178,0.092c-0.578,0-1.099-0.071-1.563-0.214c-0.464-0.142-0.86-0.368-1.19-0.677
				c-0.329-0.309-0.584-0.712-0.763-1.208c-0.179-0.496-0.269-1.094-0.269-1.794v-6.97h-1.929v-2.588h1.929v-3.247H112.489z"/>
			<path fill="#1A1A1A" d="M116.688,32.519c0-0.529,0.178-0.964,0.531-1.306c0.354-0.342,0.836-0.513,1.447-0.513
				c0.301,0,0.573,0.045,0.817,0.134c0.244,0.09,0.452,0.216,0.622,0.378c0.172,0.163,0.304,0.356,0.397,0.58
				c0.093,0.224,0.14,0.466,0.14,0.727c0,0.269-0.047,0.515-0.14,0.738c-0.094,0.224-0.226,0.417-0.397,0.58
				c-0.17,0.163-0.378,0.289-0.622,0.378c-0.244,0.09-0.517,0.134-0.817,0.134c-0.302,0-0.574-0.044-0.818-0.134
				c-0.244-0.089-0.451-0.215-0.623-0.378c-0.17-0.163-0.303-0.356-0.396-0.58C116.735,33.033,116.688,32.787,116.688,32.519z
				 M120.437,49.145h-3.54V35.937h3.54V49.145z"/>
			<path fill="#1A1A1A" d="M129.421,49.389c-1.025,0-1.942-0.167-2.752-0.5c-0.811-0.333-1.498-0.789-2.063-1.367
				c-0.565-0.578-0.997-1.255-1.294-2.033c-0.297-0.777-0.445-1.609-0.445-2.496v-0.476c0-1.001,0.145-1.918,0.434-2.752
				c0.288-0.834,0.699-1.552,1.232-2.155c0.533-0.602,1.18-1.072,1.941-1.41c0.761-0.338,1.613-0.507,2.557-0.507
				c0.953,0,1.791,0.157,2.516,0.47c0.724,0.313,1.332,0.753,1.824,1.318c0.492,0.566,0.862,1.248,1.111,2.045
				c0.248,0.798,0.372,1.685,0.372,2.661v1.501h-8.411c0.058,0.432,0.173,0.822,0.349,1.172c0.175,0.35,0.398,0.649,0.671,0.897
				c0.272,0.249,0.592,0.442,0.959,0.58c0.365,0.139,0.776,0.208,1.232,0.208c0.643,0,1.237-0.12,1.782-0.36
				c0.545-0.24,1.013-0.612,1.403-1.117l1.734,1.941c-0.212,0.301-0.477,0.594-0.794,0.879c-0.317,0.285-0.691,0.539-1.123,0.763
				c-0.432,0.224-0.918,0.402-1.459,0.537C130.656,49.321,130.064,49.389,129.421,49.389z M129.019,38.549
				c-0.383,0-0.719,0.067-1.007,0.201c-0.289,0.135-0.537,0.322-0.745,0.562c-0.207,0.24-0.376,0.527-0.506,0.861
				c-0.131,0.334-0.225,0.704-0.281,1.111h4.907v-0.281c-0.008-0.35-0.06-0.675-0.152-0.977c-0.094-0.301-0.236-0.562-0.428-0.781
				s-0.436-0.391-0.732-0.513S129.426,38.549,129.019,38.549z"/>
			<path fill="#1A1A1A" d="M144.009,45.495c0-0.187-0.036-0.358-0.109-0.513c-0.073-0.154-0.212-0.299-0.415-0.433
				c-0.203-0.135-0.48-0.263-0.83-0.385s-0.802-0.24-1.354-0.354c-0.676-0.146-1.301-0.33-1.874-0.549
				c-0.574-0.22-1.07-0.492-1.489-0.818c-0.42-0.325-0.747-0.704-0.982-1.135c-0.236-0.431-0.354-0.932-0.354-1.501
				c0-0.553,0.12-1.078,0.36-1.575c0.239-0.496,0.586-0.934,1.037-1.313c0.452-0.378,1.005-0.677,1.66-0.897s1.394-0.33,2.216-0.33
				c0.854,0,1.624,0.106,2.308,0.317c0.684,0.212,1.263,0.507,1.739,0.885c0.476,0.379,0.842,0.829,1.099,1.349
				c0.256,0.521,0.385,1.091,0.385,1.709h-3.528c0-0.504-0.163-0.921-0.488-1.251c-0.325-0.329-0.834-0.494-1.526-0.494
				c-0.594,0-1.054,0.134-1.379,0.403s-0.488,0.61-0.488,1.025c0,0.195,0.043,0.368,0.128,0.519c0.086,0.15,0.224,0.289,0.415,0.415
				c0.191,0.126,0.443,0.242,0.757,0.348c0.313,0.106,0.698,0.204,1.153,0.293c0.717,0.139,1.38,0.31,1.99,0.513
				c0.61,0.204,1.137,0.466,1.581,0.787c0.443,0.322,0.791,0.712,1.044,1.172c0.252,0.46,0.378,1.016,0.378,1.667
				c0,0.586-0.13,1.125-0.391,1.618c-0.261,0.492-0.633,0.917-1.117,1.275c-0.484,0.358-1.067,0.639-1.751,0.842
				s-1.449,0.305-2.295,0.305c-0.928,0-1.746-0.13-2.454-0.391s-1.305-0.602-1.788-1.025c-0.484-0.423-0.849-0.899-1.093-1.428
				c-0.244-0.529-0.366-1.062-0.366-1.599h3.345c0.017,0.342,0.092,0.637,0.226,0.885c0.135,0.249,0.312,0.45,0.531,0.604
				c0.22,0.155,0.474,0.269,0.763,0.342s0.593,0.11,0.909,0.11c0.676,0,1.187-0.128,1.532-0.384
				C143.836,46.245,144.009,45.91,144.009,45.495z"/>
		</g>
	</g>
	<g>
		<path fill-rule="evenodd" clip-rule="evenodd" fill="#010101" d="M34.992,163.197v-3.527c0.462,0.035,0.661-0.287,0.922-0.582
			c0.184-0.207,0.518-0.316,0.804-0.387c0.271-0.068,0.568-0.021,0.853-0.043c0.363-0.029,0.584-0.234,0.607-0.602
			c0.022-0.354,0.009-0.711,0.009-1.068c0.003-9.992,0.004-19.982,0.004-29.979c0-0.412-0.052-0.826-0.033-1.238
			c0.031-0.709,0.346-0.916,1.043-0.785c0.332,0.063,0.679,0.063,1.02,0.063c6.566,0.006,13.132,0.016,19.698,0.002
			c0.531,0,1.063-0.152,1.593-0.238c0.111-0.018,0.22-0.09,0.329-0.09c0.983,0.004,1.763-0.506,2.525-1.027
			c0.396-0.271,0.759-0.602,1.096-0.947c1.153-1.184,2.271-2.402,3.436-3.574c1.145-1.152,2.336-2.258,3.494-3.398
			c0.609-0.6,1.183-1.234,1.787-1.84c0.957-0.955,1.938-1.889,2.89-2.852c1.024-1.033,2.038-2.076,3.036-3.133
			c0.712-0.756,1.102-0.738,1.773,0.035c0.54,0.623,1.14,1.197,1.722,1.783c1.855,1.873,3.714,3.744,5.573,5.613
			c2.221,2.234,4.459,4.451,6.657,6.705c0.802,0.818,1.637,1.584,2.604,2.197c0.211,0.135,0.456,0.227,0.699,0.291
			c0.274,0.068,0.588,0.023,0.841,0.133c1.068,0.455,2.186,0.34,3.294,0.34c5.882,0.002,11.763,0.004,17.645-0.002
			c0.639,0,1.279-0.045,1.918-0.084c0.52-0.033,0.805,0.166,0.83,0.686c0.027,0.539-0.015,1.082-0.015,1.623
			c-0.001,9.85,0,19.699-0.001,29.549c0,0.344-0.025,0.688-0.011,1.027c0.024,0.527,0.232,0.74,0.756,0.809
			c0.127,0.018,0.26,0.039,0.384,0.02c0.666-0.098,1.143,0.18,1.556,0.684c0.271,0.332,0.404,0.672,0.401,1.092
			c-0.006,0.67,0.006,1.342,0.014,2.012c0.014,1.068-0.664,1.785-1.692,1.785c-4.939-0.002-9.879-0.008-14.818-0.008
			c-10.147-0.002-20.297,0-30.446-0.002c-9.05,0-18.1-0.006-27.149-0.006c-5.267,0-10.534,0.004-15.802,0.016
			c-0.491,0-0.879-0.133-1.182-0.551C35.518,163.51,35.271,163.402,34.992,163.197 M82.043,122.869h0.077
			c0,1.084,0.005,2.168-0.001,3.252c-0.004,0.863-0.446,1.332-1.304,1.357c-0.84,0.025-1.683-0.012-2.521,0.035
			c-1.212,0.072-1.514-0.182-1.54-1.4c-0.015-0.711,0.377-1.125,1.097-1.129c0.298,0,0.596,0.064,0.895,0.07
			c0.633,0.012,0.949-0.273,1.026-0.9c0.019-0.143,0.026-0.283,0.027-0.428c0.008-1.369,0.011-2.738,0.021-4.107
			c0.006-0.764-0.268-0.979-1.016-0.943c-0.898,0.043-1.525,0.629-2.199,1.068c-1.678,1.092-2.669,2.773-3.135,4.637
			c-0.4,1.6-0.482,3.314,0.45,4.863c0.073,0.119,0.117,0.26,0.158,0.395c0.247,0.814,0.778,1.459,1.327,2.066
			c0.89,0.982,1.977,1.682,3.239,2.15c1.15,0.426,2.303,0.559,3.484,0.328c0.594-0.115,1.192-0.324,1.726-0.609
			c0.745-0.4,1.479-0.852,2.133-1.385c0.882-0.717,1.478-1.666,1.979-2.695c0.537-1.104,0.761-2.256,0.702-3.438
			c-0.065-1.32-0.265-2.643-1.057-3.779c-0.512-0.732-0.938-1.537-1.721-2.049c-0.51-0.334-1.038-0.656-1.49-1.061
			c-0.46-0.412-0.968-0.518-1.539-0.475c-0.584,0.043-0.817,0.305-0.819,0.879C82.042,120.672,82.043,121.77,82.043,122.869
			 M76.19,152.777h-0.008c0,1.584,0.014,3.168-0.006,4.752c-0.011,0.865,0.206,1.145,1.083,1.15
			c2.482,0.012,4.965,0.014,7.447,0.004c0.826-0.004,1.083-0.357,1.073-1.184c-0.033-2.969-0.016-5.936-0.056-8.9
			c-0.021-1.443-0.233-2.832-1.2-4.025c-0.944-1.168-2.139-1.738-3.604-1.678c-0.656,0.027-1.374,0.125-1.941,0.424
			c-1.881,0.99-2.771,2.637-2.787,4.75C76.182,149.639,76.19,151.209,76.19,152.777 M100.605,136.994h-0.008v-1.07
			c0-0.371,0.011-0.742-0.002-1.113c-0.034-0.91-0.438-1.291-1.339-1.285c-1.227,0.006-2.452,0.01-3.678,0.006
			c-1.204-0.002-1.642,0.443-1.638,1.66c0.006,1.254,0.005,2.51-0.001,3.764c-0.002,1.057,0.34,1.434,1.391,1.445
			c1.34,0.018,2.681,0.018,4.021,0.006c0.852-0.008,1.246-0.422,1.253-1.275C100.608,138.418,100.605,137.705,100.605,136.994
			 M115.368,136.949h-0.03c0-0.799,0.025-1.6-0.008-2.396c-0.028-0.67-0.333-1.002-0.927-1.01c-1.427-0.023-2.854-0.033-4.279,0.002
			c-0.884,0.02-1.294,0.396-1.312,1.201c-0.033,1.523-0.033,3.051-0.006,4.576c0.014,0.754,0.301,1,1.058,1.061
			c0.198,0.016,0.399,0.014,0.599,0.014c1.155,0.004,2.312-0.021,3.466,0.018c1.01,0.033,1.429-0.316,1.439-1.326
			C115.374,138.375,115.368,137.662,115.368,136.949 M100.599,149.314h0.006c0-0.713,0.007-1.428-0.002-2.141
			c-0.01-0.854-0.377-1.248-1.216-1.256c-1.397-0.016-2.796-0.014-4.194,0.006c-0.857,0.012-1.241,0.418-1.246,1.285
			c-0.009,1.352-0.009,2.707-0.001,4.061c0.006,1.023,0.446,1.459,1.465,1.461c1.282,0.006,2.567,0.006,3.852,0.008
			c0.922,0.002,1.32-0.389,1.335-1.326C100.607,150.713,100.599,150.014,100.599,149.314 M115.368,149.289h-0.004
			c0-0.742,0.021-1.486-0.006-2.227c-0.03-0.865-0.474-1.23-1.329-1.162c-0.185,0.016-0.37,0.016-0.556,0.018
			c-1.127,0.002-2.254-0.016-3.38,0.006c-0.913,0.018-1.304,0.393-1.312,1.273c-0.014,1.412-0.008,2.824,0.019,4.234
			c0.016,0.908,0.349,1.229,1.243,1.287c0.156,0.012,0.313,0.012,0.47,0.014c1.227,0.01,2.452,0.018,3.677,0.029
			c0.543,0.006,0.91-0.227,1.059-0.75c0.081-0.283,0.106-0.588,0.114-0.885C115.38,150.514,115.368,149.9,115.368,149.289
			 M46.602,137.008h0.011v0.557c-0.002,0.613-0.029,1.23-0.002,1.84c0.037,0.814,0.379,1.084,1.189,1.012
			c0.198-0.018,0.399-0.018,0.599-0.018c1.213-0.004,2.427,0.01,3.64-0.012c0.746-0.014,1.034-0.27,1.048-1.004
			c0.027-1.568,0.029-3.139-0.006-4.709c-0.018-0.816-0.283-1.041-1.098-1.125c-0.113-0.01-0.228-0.01-0.342-0.01
			c-1.256-0.002-2.512,0.004-3.768-0.008c-0.989-0.012-1.242,0.207-1.269,1.209C46.586,135.496,46.602,136.252,46.602,137.008
			 M61.418,136.988L61.418,136.988c0.002,0.783-0.014,1.57,0.006,2.354c0.018,0.746,0.385,1.102,1.078,1.096
			c1.354-0.014,2.709-0.025,4.063-0.041c1.119-0.012,1.408-0.314,1.403-1.443c-0.005-1.256-0.007-2.51,0-3.766
			c0.008-1.307-0.327-1.65-1.637-1.65c-1.211-0.002-2.422,0.002-3.633-0.006c-0.946-0.006-1.254,0.271-1.277,1.232
			C61.403,135.506,61.418,136.248,61.418,136.988 M53.103,149.236h0.012c0-0.77,0.011-1.541-0.004-2.313
			c-0.013-0.66-0.315-0.959-0.971-1c-0.171-0.01-0.343-0.006-0.514-0.006c-1.229,0-2.459,0.057-3.684-0.02
			c-1.244-0.078-1.339,0.424-1.343,1.287c-0.003,0.799,0.002,1.6,0.012,2.396c0.01,0.77-0.004,1.543,0.055,2.309
			c0.043,0.553,0.32,0.809,0.868,0.816c1.583,0.021,3.168,0.01,4.752,0.002c0.394-0.002,0.64-0.236,0.72-0.611
			c0.056-0.264,0.087-0.537,0.092-0.805C53.11,150.607,53.103,149.922,53.103,149.236 M67.962,149.277L67.962,149.277
			c0.001-0.541,0.001-1.084,0.002-1.625c0-0.07,0.006-0.143,0.01-0.215c0.08-1.166-0.224-1.5-1.383-1.52
			c-0.114-0.002-0.229,0-0.342,0c-1.254-0.014-2.507-0.025-3.76-0.041c-0.661-0.01-1.05,0.318-1.061,1.012
			c-0.022,1.539-0.027,3.08,0.004,4.619c0.017,0.859,0.362,1.197,1.215,1.211c1.354,0.025,2.708,0.023,4.062-0.004
			c0.916-0.02,1.221-0.34,1.248-1.256C67.979,150.732,67.962,150.006,67.962,149.277"/>
		<path fill-rule="evenodd" clip-rule="evenodd" fill="#010101" d="M34.986,120.719v-1.15c0.474,0.01,0.66-0.313,0.869-0.674
			c0.282-0.49,0.642-0.938,0.979-1.395c0.871-1.182,1.743-2.363,2.624-3.537c1.306-1.742,2.628-3.471,3.925-5.219
			c0.951-1.279,1.854-2.592,2.813-3.865c0.639-0.846,1.419-1.381,2.592-1.371c6.094,0.045,12.191,0.023,18.287,0.039
			c0.666,0.002,1.147-0.244,1.607-0.721c1.156-1.201,2.372-2.348,3.552-3.527c1.188-1.189,2.361-2.398,3.55-3.59
			c0.927-0.928,1.867-1.842,2.8-2.762c0.305-0.303,0.635-0.584,0.891-0.924c0.161-0.211,0.286-0.512,0.287-0.773
			c0.016-4.396,0.01-8.795,0.009-13.191c0-0.382-0.048-0.771,0.005-1.146c0.084-0.602,0.408-0.903,1.01-0.998
			c0.785-0.121,1.471,0.004,2.163,0.511c1.141,0.834,2.434,1.202,3.902,1.021c1.144-0.142,2.175-0.592,3.192-1.017
			c1.701-0.708,3.349-0.667,5.04-0.126c0.419,0.135,0.822,0.32,1.23,0.49c0.392,0.162,0.622,0.453,0.636,0.882
			c0.014,0.426,0.001,0.853,0.001,1.278c0,2.185-0.004,4.369,0.003,6.554c0.001,0.341,0.073,0.681,0.074,1.021
			c0.001,0.6-0.332,0.795-0.871,0.527c-0.416-0.207-0.806-0.502-1.244-0.625c-1.387-0.387-2.796-0.293-4.198-0.064
			c-0.233,0.039-0.452,0.164-0.677,0.252c-0.355,0.143-0.705,0.303-1.066,0.428c-0.59,0.203-1.176,0.447-1.784,0.564
			c-1.389,0.266-2.683-0.047-3.88-0.785c-0.301-0.186-0.612-0.47-0.972-0.266c-0.375,0.215-0.291,0.645-0.287,1.01
			c0.017,1.154,0.083,2.311,0.042,3.463c-0.026,0.779,0.472,1.205,0.921,1.658c1.52,1.525,3.071,3.018,4.606,4.529
			c1.626,1.602,3.248,3.207,4.87,4.813c0.345,0.34,0.693,0.678,1.024,1.031c0.337,0.359,0.741,0.486,1.227,0.484
			c2.912-0.014,5.824-0.014,8.737-0.016c3.282-0.004,6.566,0.008,9.85-0.021c1.01-0.008,1.702,0.479,2.271,1.219
			c1.016,1.32,2.02,2.648,3.021,3.98c0.299,0.398,0.563,0.822,0.858,1.223c1.154,1.572,2.315,3.141,3.473,4.713
			c1.021,1.385,2.038,2.773,3.062,4.156c0.127,0.172,0.282,0.322,0.421,0.484c0.654,0.762,0.299,1.84-0.691,1.988
			c-0.513,0.074-1.044,0.014-1.567,0.014c-7.096,0.002-14.191,0.004-21.286,0.004c-0.329,0-0.669,0.053-0.982-0.016
			c-0.348-0.074-0.753-0.178-0.993-0.412c-1.858-1.813-3.679-3.664-5.519-5.496c-1.041-1.037-2.104-2.051-3.141-3.092
			c-1.479-1.486-2.938-2.994-4.417-4.48c-1.81-1.814-3.629-3.619-5.447-5.428c-0.343-0.34-0.694-0.672-1.045-1.006
			c-0.315-0.301-0.595-0.234-0.886,0.061c-1.021,1.035-2.053,2.059-3.079,3.088c-2.052,2.061-4.107,4.117-6.151,6.186
			c-0.682,0.688-1.323,1.418-2.007,2.104c-0.866,0.867-1.767,1.699-2.633,2.566c-1.229,1.232-2.429,2.494-3.662,3.723
			c-0.635,0.635-1.271,1.279-1.987,1.814c-0.344,0.256-0.871,0.373-1.316,0.375c-5.311,0.023-10.621,0.014-15.932,0.012
			c-2.17,0-4.341-0.02-6.511,0.014c-0.617,0.012-1.186,0.021-1.678-0.424C35.389,120.777,35.187,120.777,34.986,120.719"/>
	</g>
</g>
</svg>
