<?xml version="1.0" encoding="utf-8"?>
<!-- Generator: Adobe Illustrator 16.0.0, SVG Export Plug-In . SVG Version: 6.00 Build 0)  -->
<!DOCTYPE svg PUBLIC "-//W3C//DTD SVG 1.1//EN" "http://www.w3.org/Graphics/SVG/1.1/DTD/svg11.dtd">
<svg version="1.1" id="Layer_1" xmlns="http://www.w3.org/2000/svg" xmlns:xlink="http://www.w3.org/1999/xlink" x="0px" y="0px"
	 width="157px" height="179px" viewBox="0 0 157 179" enable-background="new 0 0 157 179" xml:space="preserve">
<rect x="0.975" y="1" fill-rule="evenodd" clip-rule="evenodd" fill="#FFFFFF" stroke="#627D53" stroke-width="2" stroke-miterlimit="10" width="155" height="177"/>
<rect x="1.975" fill-rule="evenodd" clip-rule="evenodd" fill="#627D53" width="155" height="56"/>
<g>
	<path fill="#FFFFFF" d="M16.587,21.582h2.831l2.166,13.3h-2.09l-0.38-2.641v0.038h-2.375l-0.38,2.603h-1.938L16.587,21.582z
		 M18.867,30.474L17.937,23.9h-0.038l-0.912,6.574H18.867z"/>
	<path fill="#FFFFFF" d="M23.275,34.208c-0.532-0.577-0.798-1.403-0.798-2.479V21.582h2.09V31.88c0,0.456,0.092,0.786,0.275,0.988
		c0.184,0.203,0.447,0.304,0.789,0.304c0.342,0,0.605-0.101,0.789-0.304c0.184-0.202,0.275-0.532,0.275-0.988V21.582h2.014v10.146
		c0,1.077-0.266,1.903-0.798,2.479c-0.532,0.576-1.305,0.864-2.318,0.864S23.807,34.784,23.275,34.208z"/>
	<path fill="#FFFFFF" d="M31.825,23.482H29.64v-1.9h6.46v1.9h-2.185v11.4h-2.09V23.482z"/>
	<path fill="#FFFFFF" d="M37.696,34.198c-0.544-0.583-0.817-1.406-0.817-2.47v-6.992c0-1.064,0.272-1.887,0.817-2.47
		c0.544-0.582,1.33-0.874,2.356-0.874c1.026,0,1.812,0.292,2.356,0.874c0.545,0.583,0.817,1.406,0.817,2.47v6.992
		c0,1.064-0.272,1.887-0.817,2.47c-0.544,0.583-1.33,0.874-2.356,0.874C39.026,35.072,38.24,34.781,37.696,34.198z M41.135,31.861
		v-7.258c0-0.874-0.361-1.311-1.083-1.311c-0.722,0-1.083,0.437-1.083,1.311v7.258c0,0.874,0.361,1.311,1.083,1.311
		C40.774,33.172,41.135,32.735,41.135,31.861z"/>
	<path fill="#FFFFFF" d="M47.67,21.582h3.097c1.077,0,1.862,0.25,2.356,0.75s0.741,1.27,0.741,2.308v0.817
		c0,1.38-0.456,2.254-1.368,2.622v0.038c0.506,0.152,0.865,0.463,1.074,0.931c0.209,0.469,0.313,1.096,0.313,1.881v2.337
		c0,0.38,0.012,0.688,0.038,0.922s0.089,0.465,0.19,0.693h-2.128c-0.076-0.215-0.126-0.418-0.152-0.608s-0.038-0.532-0.038-1.026
		v-2.432c0-0.608-0.098-1.032-0.294-1.273s-0.535-0.361-1.017-0.361h-0.722v5.7h-2.09V21.582z M50.521,27.282
		c0.418,0,0.731-0.107,0.94-0.323s0.313-0.576,0.313-1.083V24.85c0-0.481-0.085-0.829-0.256-1.045
		c-0.171-0.215-0.44-0.323-0.808-0.323h-0.95v3.8H50.521z"/>
	<path fill="#FFFFFF" d="M56.943,21.582h2.831l2.166,13.3h-2.09l-0.38-2.641v0.038h-2.375l-0.38,2.603h-1.938L56.943,21.582z
		 M59.223,30.474L58.292,23.9h-0.038l-0.912,6.574H59.223z"/>
	<path fill="#FFFFFF" d="M63.564,34.217c-0.526-0.57-0.789-1.374-0.789-2.413V24.66c0-1.038,0.263-1.843,0.789-2.413
		c0.525-0.57,1.289-0.855,2.29-0.855c1,0,1.764,0.285,2.29,0.855c0.525,0.57,0.788,1.375,0.788,2.413v1.406h-1.976v-1.539
		c0-0.823-0.349-1.235-1.045-1.235c-0.696,0-1.045,0.412-1.045,1.235v7.429c0,0.811,0.349,1.216,1.045,1.216
		c0.697,0,1.045-0.405,1.045-1.216v-2.033h1.976v1.881c0,1.039-0.263,1.843-0.788,2.413c-0.526,0.57-1.289,0.855-2.29,0.855
		C64.853,35.072,64.089,34.787,63.564,34.217z"/>
	<path fill="#FFFFFF" d="M70.185,21.582h2.09v13.3h-2.09V21.582z"/>
	<path fill="#FFFFFF" d="M73.833,21.582h2.622l2.033,7.961h0.038v-7.961h1.862v13.3h-2.147l-2.508-9.709h-0.038v9.709h-1.862V21.582
		z"/>
	<path fill="#FFFFFF" d="M82.592,34.208c-0.532-0.577-0.798-1.403-0.798-2.479v-6.992c0-1.077,0.266-1.903,0.798-2.479
		c0.532-0.576,1.305-0.865,2.318-0.865c1.013,0,1.786,0.289,2.318,0.865c0.532,0.577,0.798,1.403,0.798,2.479v1.14H86.05v-1.273
		c0-0.874-0.361-1.311-1.083-1.311c-0.722,0-1.083,0.437-1.083,1.311v7.277c0,0.861,0.361,1.292,1.083,1.292
		c0.722,0,1.083-0.431,1.083-1.292v-2.603h-1.045v-1.9h3.021v4.351c0,1.077-0.266,1.903-0.798,2.479
		c-0.532,0.576-1.305,0.864-2.318,0.864C83.896,35.072,83.124,34.784,82.592,34.208z"/>
	<path fill="#FFFFFF" d="M92.832,34.208c-0.52-0.577-0.779-1.403-0.779-2.479v-0.76h1.976v0.912c0,0.861,0.361,1.292,1.083,1.292
		c0.354,0,0.624-0.104,0.808-0.313c0.183-0.209,0.275-0.548,0.275-1.017c0-0.557-0.127-1.048-0.38-1.473
		c-0.254-0.424-0.722-0.934-1.406-1.529c-0.861-0.76-1.463-1.447-1.805-2.062c-0.342-0.614-0.513-1.308-0.513-2.081
		c0-1.051,0.266-1.865,0.798-2.441c0.532-0.576,1.305-0.865,2.318-0.865c1,0,1.758,0.289,2.271,0.865
		c0.513,0.577,0.77,1.403,0.77,2.479v0.551h-1.976v-0.684c0-0.456-0.089-0.789-0.266-0.998c-0.178-0.209-0.437-0.313-0.779-0.313
		c-0.697,0-1.045,0.424-1.045,1.273c0,0.481,0.13,0.931,0.39,1.349c0.259,0.418,0.731,0.924,1.416,1.52
		c0.874,0.76,1.476,1.451,1.805,2.071c0.33,0.621,0.494,1.349,0.494,2.185c0,1.089-0.269,1.925-0.808,2.508
		c-0.538,0.583-1.32,0.874-2.346,0.874C94.118,35.072,93.352,34.784,92.832,34.208z"/>
	<path fill="#FFFFFF" d="M100.138,34.217c-0.526-0.57-0.789-1.374-0.789-2.413V24.66c0-1.038,0.263-1.843,0.789-2.413
		c0.525-0.57,1.289-0.855,2.29-0.855c1,0,1.764,0.285,2.29,0.855c0.525,0.57,0.788,1.375,0.788,2.413v1.406h-1.976v-1.539
		c0-0.823-0.349-1.235-1.045-1.235c-0.696,0-1.045,0.412-1.045,1.235v7.429c0,0.811,0.349,1.216,1.045,1.216
		c0.697,0,1.045-0.405,1.045-1.216v-2.033h1.976v1.881c0,1.039-0.263,1.843-0.788,2.413c-0.526,0.57-1.289,0.855-2.29,0.855
		C101.426,35.072,100.663,34.787,100.138,34.217z"/>
	<path fill="#FFFFFF" d="M106.759,21.582h2.09v5.415h2.242v-5.415h2.09v13.3h-2.09v-5.985h-2.242v5.985h-2.09V21.582z"/>
	<path fill="#FFFFFF" d="M115.404,34.198c-0.544-0.583-0.817-1.406-0.817-2.47v-6.992c0-1.064,0.272-1.887,0.817-2.47
		c0.544-0.582,1.33-0.874,2.356-0.874c1.026,0,1.812,0.292,2.356,0.874c0.545,0.583,0.817,1.406,0.817,2.47v6.992
		c0,1.064-0.272,1.887-0.817,2.47c-0.544,0.583-1.33,0.874-2.356,0.874C116.734,35.072,115.948,34.781,115.404,34.198z
		 M118.843,31.861v-7.258c0-0.874-0.361-1.311-1.083-1.311c-0.722,0-1.083,0.437-1.083,1.311v7.258c0,0.874,0.361,1.311,1.083,1.311
		C118.482,33.172,118.843,32.735,118.843,31.861z"/>
	<path fill="#FFFFFF" d="M123.004,34.198c-0.544-0.583-0.817-1.406-0.817-2.47v-6.992c0-1.064,0.272-1.887,0.817-2.47
		c0.544-0.582,1.33-0.874,2.356-0.874c1.026,0,1.812,0.292,2.356,0.874c0.545,0.583,0.817,1.406,0.817,2.47v6.992
		c0,1.064-0.272,1.887-0.817,2.47c-0.544,0.583-1.33,0.874-2.356,0.874C124.334,35.072,123.548,34.781,123.004,34.198z
		 M126.443,31.861v-7.258c0-0.874-0.361-1.311-1.083-1.311c-0.722,0-1.083,0.437-1.083,1.311v7.258c0,0.874,0.361,1.311,1.083,1.311
		C126.082,33.172,126.443,32.735,126.443,31.861z"/>
	<path fill="#FFFFFF" d="M129.939,21.582h2.09v11.4h3.439v1.9h-5.529V21.582z"/>
	<path fill="#FFFFFF" d="M136.893,34.208c-0.52-0.577-0.779-1.403-0.779-2.479v-0.76h1.976v0.912c0,0.861,0.361,1.292,1.083,1.292
		c0.354,0,0.624-0.104,0.808-0.313c0.183-0.209,0.275-0.548,0.275-1.017c0-0.557-0.127-1.048-0.38-1.473
		c-0.254-0.424-0.722-0.934-1.406-1.529c-0.861-0.76-1.463-1.447-1.805-2.062c-0.342-0.614-0.513-1.308-0.513-2.081
		c0-1.051,0.266-1.865,0.798-2.441c0.532-0.576,1.305-0.865,2.318-0.865c1,0,1.758,0.289,2.271,0.865
		c0.513,0.577,0.77,1.403,0.77,2.479v0.551h-1.976v-0.684c0-0.456-0.089-0.789-0.266-0.998c-0.178-0.209-0.437-0.313-0.779-0.313
		c-0.697,0-1.045,0.424-1.045,1.273c0,0.481,0.13,0.931,0.39,1.349c0.259,0.418,0.731,0.924,1.416,1.52
		c0.874,0.76,1.476,1.451,1.805,2.071c0.33,0.621,0.494,1.349,0.494,2.185c0,1.089-0.269,1.925-0.808,2.508
		c-0.538,0.583-1.32,0.874-2.346,0.874C138.178,35.072,137.412,34.784,136.893,34.208z"/>
</g>
<g>
	<path fill-rule="evenodd" clip-rule="evenodd" fill="#627D53" d="M93.078,138.353c-8.278,0-16.505,0-24.757,0
		c0.916-4.32-0.213-7.888-3.964-10.293c-3.091-1.981-6.41-2.007-9.521-0.048c-3.796,2.392-4.974,5.962-4.055,10.284
		c-2.133,0.334-4.718-1.923-4.664-4.224c0.046-1.975,0.322-3.944,0.5-5.915c0.174-1.924,0.323-3.851,0.546-5.769
		c0.091-0.781,0.26-1.58,0.552-2.307c0.544-1.351,1.614-2.075,3.081-2.146c0.771-0.038,1.545-0.028,2.318-0.029
		c0.854,0,1.603-0.262,2.015-1.039c0.691-1.304,1.604-1.702,3.096-1.306c1.302,0.345,2.706,0.305,4.178,0.445
		c-0.538,0.624-1.045,1.188-1.524,1.775c-0.427,0.523-0.863,1.047-1.225,1.614c-0.912,1.43-0.088,3.026,1.582,3.036
		c3.913,0.022,7.825,0.006,11.738,0.003c0.116-0.001,0.231-0.032,0.402-0.057c0.014-0.255,0.037-0.488,0.038-0.723
		c0.005-2.486,0.019-4.973-0.003-7.459c-0.003-0.413,0.149-0.608,0.494-0.763c2.33-1.039,4.461-2.396,6.442-4
		c0.168-0.136,0.433-0.215,0.653-0.215c3.52,0.006,6.703,1.104,9.546,3.128c2.256,1.607,4.445,3.31,6.635,5.007
		c3.089,2.396,6.585,3.746,10.423,4.412c1.984,0.344,3.942,0.94,5.847,1.608c2.125,0.746,3.686,2.227,4.413,4.401
		c0.587,1.758,1.103,3.547,1.518,5.353c0.255,1.11,0.18,2.27-0.437,3.305c-0.8,1.344-2.121,1.812-3.558,1.896
		c-1.561,0.092-3.131,0.021-4.786,0.021c0.842-3.638,0.078-6.822-2.699-9.371c-1.934-1.775-4.264-2.507-6.872-2.297
		C96.009,127.088,91.493,132.043,93.078,138.353z"/>
	<path fill-rule="evenodd" clip-rule="evenodd" fill="#627D53" d="M84.249,88.674c-1.029,0.835-1.957,1.59-2.888,2.342
		c-4.807,3.881-9.618,7.757-14.416,11.648c-0.371,0.301-0.709,0.384-1.181,0.307c-6.215-1.018-12.433-2.015-18.65-3.015
		c-0.118-0.02-0.237-0.027-0.468-0.053c0,0.284,0,0.54,0,0.795c0,1.811,0.004,3.621-0.004,5.432
		c-0.004,0.993-0.578,1.649-1.426,1.662c-0.854,0.014-1.44-0.637-1.444-1.628c-0.007-2.076-0.02-4.153,0.018-6.229
		c0.005-0.303,0.199-0.695,0.435-0.887c5.655-4.598,11.324-9.18,17.013-13.735c0.265-0.212,0.76-0.27,1.119-0.213
		c5.458,0.86,10.911,1.751,16.365,2.636c1.667,0.27,3.334,0.537,5.001,0.81C83.855,88.567,83.986,88.609,84.249,88.674z"/>
	<path fill-rule="evenodd" clip-rule="evenodd" fill="#627D53" d="M77.931,97.461c0.699,2.656,1.36,5.2,2.042,7.739
		c0.134,0.498-0.052,0.822-0.402,1.14c-3.995,3.629-8.655,5.838-14.011,6.533c-2.946,0.383-5.873,0.213-8.78-0.408
		c-0.617-0.132-0.955-0.402-1.111-1.037c-0.566-2.295-1.184-4.577-1.779-6.865c-0.046-0.18-0.072-0.364-0.128-0.653
		c1.353,0.213,2.63,0.409,3.905,0.615c2.834,0.458,5.67,0.909,8.501,1.39c0.749,0.128,1.34-0.046,1.931-0.53
		c3.044-2.492,6.113-4.954,9.174-7.425C77.458,97.811,77.65,97.673,77.931,97.461z"/>
	<path fill-rule="evenodd" clip-rule="evenodd" fill="#627D53" d="M95.605,135.697c0.008-3.453,2.847-6.246,6.317-6.215
		c3.416,0.03,6.208,2.869,6.182,6.285c-0.027,3.431-2.827,6.214-6.253,6.215C98.388,141.984,95.598,139.176,95.605,135.697z
		 M101.847,133.161c-1.447,0.005-2.575,1.133-2.572,2.571c0.002,1.443,1.132,2.569,2.577,2.567c1.453-0.001,2.571-1.12,2.568-2.569
		C104.416,134.285,103.285,133.155,101.847,133.161z"/>
	<path fill-rule="evenodd" clip-rule="evenodd" fill="#627D53" d="M53.315,135.731c0-3.438,2.774-6.229,6.208-6.247
		c3.46-0.019,6.305,2.809,6.287,6.248c-0.018,3.468-2.831,6.267-6.289,6.257C56.108,141.98,53.315,139.164,53.315,135.731z
		 M59.562,133.162c-1.445,0.002-2.576,1.127-2.583,2.566c-0.006,1.429,1.134,2.567,2.575,2.571c1.439,0.003,2.57-1.116,2.59-2.563
		C62.164,134.329,60.991,133.16,59.562,133.162z"/>
</g>
</svg>
