<?xml version="1.0" encoding="utf-8"?>
<!-- Generator: Adobe Illustrator 16.0.0, SVG Export Plug-In . SVG Version: 6.00 Build 0)  -->
<!DOCTYPE svg PUBLIC "-//W3C//DTD SVG 1.1//EN" "http://www.w3.org/Graphics/SVG/1.1/DTD/svg11.dtd">
<svg version="1.1" id="Layer_1" xmlns="http://www.w3.org/2000/svg" xmlns:xlink="http://www.w3.org/1999/xlink" x="0px" y="0px"
	 width="157px" height="179px" viewBox="0 0 157 179" enable-background="new 0 0 157 179" xml:space="preserve">
<rect x="0.975" y="1" fill-rule="evenodd" clip-rule="evenodd" fill="#FFFFFF" stroke="#627D53" stroke-width="2" stroke-miterlimit="10" width="155" height="177"/>
<rect x="1.975" fill-rule="evenodd" clip-rule="evenodd" fill="#627D53" width="155" height="56"/>
<g>
	<path fill="#FFFFFF" d="M39.729,21.582h3.154c1.076,0,1.862,0.25,2.356,0.75s0.741,1.27,0.741,2.308v0.532
		c0,0.684-0.111,1.242-0.333,1.672c-0.222,0.431-0.56,0.741-1.016,0.931v0.038c1.038,0.354,1.558,1.279,1.558,2.774v1.14
		c0,1.026-0.269,1.808-0.807,2.346c-0.539,0.539-1.327,0.808-2.366,0.808h-3.287V21.582z M42.636,26.997
		c0.418,0,0.731-0.108,0.94-0.323s0.313-0.576,0.313-1.083V24.85c0-0.481-0.085-0.829-0.256-1.045
		c-0.171-0.215-0.44-0.323-0.808-0.323h-1.007v3.515H42.636z M43.016,32.982c0.367,0,0.64-0.098,0.817-0.294
		s0.266-0.535,0.266-1.017v-1.159c0-0.608-0.104-1.029-0.313-1.263s-0.554-0.352-1.036-0.352h-0.931v4.085H43.016z"/>
	<path fill="#FFFFFF" d="M47.404,21.582h2.09v13.3h-2.09V21.582z"/>
	<path fill="#FFFFFF" d="M51.052,21.582h2.09v5.605l2.66-5.605h2.09l-2.489,4.883l2.527,8.417h-2.185l-1.767-5.928l-0.836,1.691
		v4.237h-2.09V21.582z"/>
	<path fill="#FFFFFF" d="M58.918,21.582h5.7v1.9h-3.61v3.515h2.869v1.9h-2.869v4.085h3.61v1.9h-5.7V21.582z"/>
	<path fill="#FFFFFF" d="M68.854,21.582h3.097c1.077,0,1.862,0.25,2.356,0.75s0.741,1.27,0.741,2.308v0.817
		c0,1.38-0.456,2.254-1.368,2.622v0.038c0.506,0.152,0.865,0.463,1.074,0.931c0.209,0.469,0.313,1.096,0.313,1.881v2.337
		c0,0.38,0.012,0.688,0.038,0.922s0.089,0.465,0.19,0.693h-2.128c-0.076-0.215-0.126-0.418-0.152-0.608s-0.038-0.532-0.038-1.026
		v-2.432c0-0.608-0.098-1.032-0.294-1.273s-0.535-0.361-1.017-0.361h-0.722v5.7h-2.09V21.582z M71.705,27.282
		c0.418,0,0.731-0.107,0.94-0.323s0.313-0.576,0.313-1.083V24.85c0-0.481-0.085-0.829-0.256-1.045
		c-0.171-0.215-0.44-0.323-0.808-0.323h-0.95v3.8H71.705z"/>
	<path fill="#FFFFFF" d="M76.512,21.582h5.7v1.9h-3.61v3.515h2.869v1.9h-2.869v4.085h3.61v1.9h-5.7V21.582z"/>
	<path fill="#FFFFFF" d="M83.409,21.582h2.622l2.033,7.961h0.038v-7.961h1.862v13.3h-2.147l-2.508-9.709h-0.038v9.709h-1.862V21.582
		z"/>
	<path fill="#FFFFFF" d="M93.156,23.482h-2.185v-1.9h6.46v1.9h-2.185v11.4h-2.09V23.482z"/>
	<path fill="#FFFFFF" d="M99.179,21.582h2.831l2.166,13.3h-2.09l-0.38-2.641v0.038h-2.375l-0.38,2.603h-1.938L99.179,21.582z
		 M101.458,30.474l-0.931-6.574h-0.038l-0.912,6.574H101.458z"/>
	<path fill="#FFFFFF" d="M105.182,21.582h2.09v11.4h3.439v1.9h-5.529V21.582z"/>
	<path fill="#FFFFFF" d="M112.136,34.208c-0.52-0.577-0.779-1.403-0.779-2.479v-0.76h1.976v0.912c0,0.861,0.361,1.292,1.083,1.292
		c0.354,0,0.624-0.104,0.808-0.313c0.183-0.209,0.275-0.548,0.275-1.017c0-0.557-0.127-1.048-0.38-1.473
		c-0.254-0.424-0.722-0.934-1.406-1.529c-0.861-0.76-1.463-1.447-1.805-2.062c-0.342-0.614-0.513-1.308-0.513-2.081
		c0-1.051,0.266-1.865,0.798-2.441c0.532-0.576,1.305-0.865,2.318-0.865c1,0,1.758,0.289,2.271,0.865
		c0.513,0.577,0.77,1.403,0.77,2.479v0.551h-1.976v-0.684c0-0.456-0.089-0.789-0.266-0.998c-0.178-0.209-0.437-0.313-0.779-0.313
		c-0.697,0-1.045,0.424-1.045,1.273c0,0.481,0.13,0.931,0.39,1.349c0.259,0.418,0.731,0.924,1.416,1.52
		c0.874,0.76,1.476,1.451,1.805,2.071c0.33,0.621,0.494,1.349,0.494,2.185c0,1.089-0.269,1.925-0.808,2.508
		c-0.538,0.583-1.32,0.874-2.346,0.874C113.422,35.072,112.656,34.784,112.136,34.208z"/>
</g>
<g>
	<path fill-rule="evenodd" clip-rule="evenodd" fill="#627D53" d="M100.144,115.004c-0.381,0.399-0.686,0.701-0.971,1.021
		c-4.77,5.337-9.535,10.678-14.309,16.011c-0.651,0.728-1.33,1.43-2.021,2.118c-0.633,0.631-1.409,0.622-2.056,0.021
		c-0.643-0.599-0.723-1.398-0.166-2.083c0.753-0.925,1.518-1.841,2.303-2.738c4.201-4.804,8.409-9.599,12.614-14.398
		c0.117-0.134,0.226-0.276,0.419-0.514c-0.28,0-0.463-0.008-0.645,0.002c-0.649,0.035-1.3,0.062-1.948,0.118
		c-1.104,0.096-1.925-0.379-2.4-1.33c-0.54-1.08-0.985-2.208-1.438-3.329c-0.561-1.391-1.083-2.798-1.632-4.192
		c-0.124-0.313-0.292-0.609-0.49-1.015c-3.7,2.593-7.333,5.137-11.044,7.737c0.264,0.207,0.434,0.357,0.619,0.484
		c2.639,1.809,5.282,3.609,7.917,5.423c1.276,0.878,1.566,2.296,0.665,3.572c-2.942,4.161-5.91,8.305-8.884,12.443
		c-0.377,0.524-0.817,1.019-1.294,1.456c-1.045,0.959-2.943,0.829-3.875-0.221c-0.807-0.908-0.919-2.021-0.247-3.036
		c2.287-3.449,4.593-6.886,6.889-10.329c0.451-0.677,0.464-0.708-0.242-1.155c-1.953-1.24-3.954-2.407-5.872-3.696
		c-1.224-0.822-2.385-1.758-3.478-2.749c-0.629-0.57-1.163-1.299-1.572-2.049c-1.544-2.831-1.066-5.193,1.463-7.196
		c1.898-1.502,3.844-2.947,5.802-4.371c2.703-1.968,5.43-3.903,8.164-5.828c1.1-0.773,2.328-1.226,3.697-1.236
		c1.211-0.009,2.214,0.413,3.013,1.339c1.574,1.823,2.832,3.835,3.673,6.097c0.95,2.558,1.905,5.113,2.833,7.679
		c0.143,0.394,0.328,0.514,0.739,0.498c1.915-0.074,3.831-0.155,5.746-0.146c0.701,0.004,1.44,0.148,2.093,0.405
		c0.916,0.359,0.946,1.246,0.895,2.078c-0.059,0.958-0.347,1.324-1.219,1.562c-0.504,0.137-0.629,0.383-0.47,0.87
		c0.264,0.807,0.504,1.622,0.719,2.443c0.099,0.38,0.269,0.51,0.674,0.495c1.823-0.065,3.657-0.178,5.454,0.247
		c6.074,1.437,10.157,5.14,11.922,11.099c2.686,9.066-3.01,18.267-12.321,19.923c-9.688,1.722-17.286-5.082-18.511-13.136
		c-1.014-6.668,2.199-13.062,8.106-16.301c1.967-1.078,1.617-0.678,1.127-2.661C100.479,115.998,100.322,115.574,100.144,115.004z"
		/>
	<path fill-rule="evenodd" clip-rule="evenodd" fill="#627D53" d="M60.877,119.933c1.43-1.688,2.831-3.341,4.23-4.995
		c0.067-0.079,0.121-0.171,0.25-0.357c-0.386,0-0.685,0.011-0.983-0.002c-0.649-0.028-1.306-0.014-1.944-0.116
		c-1.066-0.171-1.708-0.987-1.709-2.055c-0.001-1.034,0.632-1.825,1.66-2.059c0.21-0.048,0.428-0.072,0.644-0.082
		c0.759-0.032,0.995,0.067,1.251,0.931c0.341,1.148,1.032,2.208,1.667,3.248c0.371,0.609,0.925,1.105,1.396,1.654
		c0.5,0.582,0.5,0.653,0.017,1.23c-1.138,1.357-2.262,2.728-3.42,4.067c-0.319,0.37-0.322,0.659-0.064,1.05
		c0.755,1.145,1.558,2.268,2.206,3.473c0.833,1.55,1.37,3.225,1.577,4.985c0.042,0.356,0.936,4.679-1.205,8.367
		c-2.711,6.472-9.573,10.339-16.601,9.416c-6.969-0.915-12.562-6.395-13.577-13.299c-1.217-8.278,4.107-16.172,12.271-17.84
		c4.206-0.859,8.324-0.333,12,2.174C60.63,119.784,60.724,119.837,60.877,119.933z M58.836,122.175
		c-0.265-0.177-0.477-0.342-0.708-0.469c-2.675-1.471-5.559-1.866-8.513-1.354c-9.24,1.605-13.637,12.493-8.169,20.109
		c4.056,5.648,11.875,7.123,17.541,3.291c2.879-1.946,4.703-4.643,5.577-7.997c0.209-0.805,0.219-0.813-0.625-0.823
		c-4.066-0.053-8.132-0.098-12.198-0.151c-0.211-0.003-0.485,0.023-0.623-0.092c-0.664-0.554-1.144-1.493-0.498-2.446
		c0.202-0.299,0.437-0.575,0.667-0.854c2.382-2.885,4.766-5.768,7.147-8.652C58.566,122.574,58.68,122.395,58.836,122.175z
		 M61.55,124.301c-1.994,2.328-3.942,4.602-5.891,6.876c0.032,0.04,0.063,0.08,0.095,0.121c2.967,0,5.933,0,8.968,0
		C64.33,128.665,63.28,126.417,61.55,124.301z"/>
	<path fill-rule="evenodd" clip-rule="evenodd" fill="#627D53" d="M102.866,91.748c-0.038,2.849-2.262,5.749-5.842,5.808
		c-3.229,0.053-5.893-2.73-5.835-5.904c0.058-3.205,2.706-5.823,5.841-5.776C100.208,85.922,102.907,88.638,102.866,91.748z"/>
	<path fill-rule="evenodd" clip-rule="evenodd" fill="#627D53" d="M101.788,104.691c0.595,0,1.19,0,1.785,0
		c0.695,0,1.515,0.703,1.574,1.351c0.085,0.932-0.484,1.819-1.333,1.871c-1.401,0.085-2.812,0.114-4.214,0.066
		c-0.961-0.033-1.542-1.648-0.942-2.484c0.38-0.53,0.813-0.929,1.564-0.818C100.733,104.752,101.265,104.691,101.788,104.691z"/>
</g>
</svg>
