<?xml version="1.0" encoding="utf-8"?>
<!-- Generator: Adobe Illustrator 16.0.0, SVG Export Plug-In . SVG Version: 6.00 Build 0)  -->
<!DOCTYPE svg PUBLIC "-//W3C//DTD SVG 1.1//EN" "http://www.w3.org/Graphics/SVG/1.1/DTD/svg11.dtd">
<svg version="1.1" id="Layer_1" xmlns="http://www.w3.org/2000/svg" xmlns:xlink="http://www.w3.org/1999/xlink" x="0px" y="0px"
	 width="157px" height="179px" viewBox="0 0 157 179" enable-background="new 0 0 157 179" xml:space="preserve">
<rect x="0.975" y="1" fill-rule="evenodd" clip-rule="evenodd" fill="#FFFFFF" stroke="#627D53" stroke-width="2" stroke-miterlimit="10" width="155" height="177"/>
<rect x="1.975" fill-rule="evenodd" clip-rule="evenodd" fill="#627D53" width="155" height="56"/>
<g>
	<path fill="#FFFFFF" d="M47.281,34.207c-0.52-0.576-0.779-1.402-0.779-2.479v-0.761h1.976v0.912c0,0.861,0.361,1.292,1.083,1.292
		c0.354,0,0.624-0.104,0.808-0.313c0.183-0.209,0.275-0.548,0.275-1.017c0-0.557-0.127-1.048-0.38-1.473
		c-0.254-0.424-0.722-0.934-1.406-1.529c-0.861-0.76-1.463-1.447-1.805-2.062c-0.342-0.614-0.513-1.308-0.513-2.081
		c0-1.051,0.266-1.864,0.798-2.441c0.532-0.576,1.305-0.864,2.318-0.864c1,0,1.758,0.288,2.271,0.864
		c0.513,0.577,0.77,1.403,0.77,2.48v0.551H50.72v-0.684c0-0.457-0.089-0.789-0.266-0.998c-0.178-0.209-0.437-0.313-0.779-0.313
		c-0.697,0-1.045,0.425-1.045,1.272c0,0.482,0.13,0.932,0.39,1.35c0.259,0.418,0.731,0.924,1.416,1.52
		c0.874,0.76,1.476,1.451,1.805,2.071c0.33,0.62,0.494,1.349,0.494,2.185c0,1.09-0.269,1.926-0.808,2.508
		c-0.538,0.584-1.32,0.875-2.346,0.875C48.566,35.072,47.8,34.783,47.281,34.207z"/>
	<path fill="#FFFFFF" d="M53.931,21.582h2.09v5.605l2.66-5.605h2.09l-2.489,4.883l2.527,8.417h-2.185l-1.767-5.929l-0.836,1.691
		v4.237h-2.09V21.582z"/>
	<path fill="#FFFFFF" d="M61.796,21.582h2.09v13.3h-2.09V21.582z"/>
	<path fill="#FFFFFF" d="M68.902,34.207c-0.52-0.576-0.779-1.402-0.779-2.479v-0.761h1.976v0.912c0,0.861,0.361,1.292,1.083,1.292
		c0.354,0,0.624-0.104,0.808-0.313c0.183-0.209,0.275-0.548,0.275-1.017c0-0.557-0.127-1.048-0.38-1.473
		c-0.254-0.424-0.722-0.934-1.406-1.529c-0.861-0.76-1.463-1.447-1.805-2.062c-0.342-0.614-0.513-1.308-0.513-2.081
		c0-1.051,0.266-1.864,0.798-2.441c0.532-0.576,1.305-0.864,2.318-0.864c1,0,1.758,0.288,2.271,0.864
		c0.513,0.577,0.77,1.403,0.77,2.48v0.551h-1.976v-0.684c0-0.457-0.089-0.789-0.266-0.998c-0.178-0.209-0.437-0.313-0.779-0.313
		c-0.697,0-1.045,0.425-1.045,1.272c0,0.482,0.13,0.932,0.39,1.35c0.259,0.418,0.731,0.924,1.416,1.52
		c0.874,0.76,1.476,1.451,1.805,2.071c0.33,0.62,0.494,1.349,0.494,2.185c0,1.09-0.269,1.926-0.808,2.508
		c-0.538,0.584-1.32,0.875-2.346,0.875C70.188,35.072,69.421,34.783,68.902,34.207z"/>
	<path fill="#FFFFFF" d="M77.186,23.482h-2.185v-1.9h6.46v1.9h-2.185v11.399h-2.09V23.482z"/>
	<path fill="#FFFFFF" d="M83.057,34.197c-0.544-0.582-0.817-1.405-0.817-2.469v-6.992c0-1.064,0.272-1.888,0.817-2.471
		c0.544-0.582,1.33-0.874,2.356-0.874c1.026,0,1.812,0.292,2.356,0.874c0.545,0.583,0.817,1.406,0.817,2.471v6.992
		c0,1.063-0.272,1.887-0.817,2.469c-0.544,0.584-1.33,0.875-2.356,0.875C84.387,35.072,83.601,34.781,83.057,34.197z M86.496,31.861
		v-7.258c0-0.875-0.361-1.312-1.083-1.312c-0.722,0-1.083,0.437-1.083,1.312v7.258c0,0.873,0.361,1.311,1.083,1.311
		C86.135,33.172,86.496,32.734,86.496,31.861z"/>
	<path fill="#FFFFFF" d="M89.992,21.582h3.097c1.077,0,1.862,0.25,2.356,0.75c0.494,0.501,0.741,1.271,0.741,2.309v0.817
		c0,1.38-0.456,2.255-1.368,2.622v0.037c0.506,0.152,0.865,0.463,1.074,0.932s0.313,1.096,0.313,1.881v2.337
		c0,0.38,0.012,0.688,0.038,0.922s0.089,0.466,0.19,0.693h-2.128c-0.076-0.216-0.126-0.418-0.152-0.608
		c-0.025-0.189-0.038-0.531-0.038-1.025v-2.432c0-0.608-0.098-1.033-0.294-1.273s-0.535-0.361-1.017-0.361h-0.722v5.7h-2.09V21.582z
		 M92.842,27.281c0.418,0,0.731-0.107,0.94-0.322s0.313-0.576,0.313-1.083V24.85c0-0.48-0.085-0.829-0.256-1.045
		c-0.171-0.215-0.44-0.322-0.808-0.322h-0.95v3.799H92.842z"/>
	<path fill="#FFFFFF" d="M97.649,21.582h5.7v1.9h-3.61v3.515h2.869v1.899h-2.869v4.086h3.61v1.899h-5.7V21.582z"/>
	<path fill="#FFFFFF" d="M105.002,34.207c-0.52-0.576-0.779-1.402-0.779-2.479v-0.761h1.976v0.912c0,0.861,0.361,1.292,1.083,1.292
		c0.354,0,0.624-0.104,0.808-0.313c0.183-0.209,0.275-0.548,0.275-1.017c0-0.557-0.127-1.048-0.38-1.473
		c-0.254-0.424-0.722-0.934-1.406-1.529c-0.861-0.76-1.463-1.447-1.805-2.062c-0.342-0.614-0.513-1.308-0.513-2.081
		c0-1.051,0.266-1.864,0.798-2.441c0.532-0.576,1.305-0.864,2.318-0.864c1,0,1.758,0.288,2.271,0.864
		c0.513,0.577,0.77,1.403,0.77,2.48v0.551h-1.976v-0.684c0-0.457-0.089-0.789-0.266-0.998c-0.178-0.209-0.437-0.313-0.779-0.313
		c-0.697,0-1.045,0.425-1.045,1.272c0,0.482,0.13,0.932,0.39,1.35c0.259,0.418,0.731,0.924,1.416,1.52
		c0.874,0.76,1.476,1.451,1.805,2.071c0.33,0.62,0.494,1.349,0.494,2.185c0,1.09-0.269,1.926-0.808,2.508
		c-0.538,0.584-1.32,0.875-2.346,0.875C106.288,35.072,105.521,34.783,105.002,34.207z"/>
</g>
<g>
	<path fill-rule="evenodd" clip-rule="evenodd" fill="#627D53" d="M89.594,80.347c0.482,0,0.964,0,1.446,0
		c0.134,0.043,0.265,0.097,0.401,0.128c1.379,0.309,2.582,0.934,3.479,2.041c1.805,2.228,1.895,4.642,0.694,7.165
		c-3.463,7.276-6.93,14.552-10.408,21.822c-0.201,0.419-0.266,0.772-0.071,1.22c2.11,4.851,4.093,9.761,6.327,14.553
		c2.805,6.017,5.816,11.938,8.731,17.903c1.455,2.978,0.901,5.982-1.611,7.9c-0.825,0.629-1.936,0.884-2.916,1.31
		c-0.482,0-0.964,0-1.446,0c-3.001-0.563-4.584-2.503-5.569-5.295c-2.494-7.071-5.131-14.092-7.724-21.128
		c-0.445-1.209-0.952-2.396-1.483-3.725c-0.18,0.432-0.307,0.709-0.412,0.994c-3.029,8.181-6.058,16.362-9.08,24.546
		c-0.431,1.167-1.014,2.213-1.959,3.062c-0.948,0.85-2.095,1.22-3.275,1.546c-0.482,0-0.964,0-1.446,0
		c-0.088-0.035-0.173-0.086-0.265-0.104c-3.969-0.763-6.109-4.549-4.645-8.318c0.469-1.206,1.103-2.349,1.672-3.515
		c4.763-9.741,9.773-19.369,13.631-29.529c0.21-0.552,0.224-0.998-0.041-1.55c-3.478-7.24-6.931-14.493-10.384-21.745
		c-1.136-2.386-1.072-4.69,0.524-6.873c1.027-1.403,2.5-2.047,4.135-2.408c0.482,0,0.964,0,1.446,0
		c3.022,0.583,4.647,2.552,5.611,5.361c1.278,3.726,2.726,7.393,4.102,11.085c0.102,0.273,0.221,0.541,0.381,0.929
		c0.139-0.342,0.234-0.558,0.316-0.777c1.496-4.007,2.994-8.013,4.482-12.021c0.469-1.264,1.14-2.374,2.21-3.229
		C87.379,80.954,88.471,80.621,89.594,80.347z M88.76,128.949c-1.431-3.146-2.821-6.2-4.232-9.303
		c-1.044,0.459-2.063,0.906-3.058,1.345c1.27,3.199,2.497,6.294,3.74,9.427C86.412,129.921,87.561,129.445,88.76,128.949z
		 M74.35,119.65c-1.418,3.117-2.813,6.184-4.231,9.301c1.21,0.498,2.373,0.978,3.553,1.464c1.262-3.184,2.495-6.291,3.739-9.43
		C76.368,120.531,75.362,120.093,74.35,119.65z"/>
	<path fill-rule="evenodd" clip-rule="evenodd" fill="#627D53" d="M105.356,154.389c-0.883-0.378-1.235-1.039-1.197-2.001
		c0.049-1.251-0.009-2.506,0.023-3.758c0.012-0.446-0.144-0.639-0.56-0.745c-0.344-0.089-0.68-0.245-0.991-0.422
		c-2.061-1.173-2.074-3.476-0.018-4.646c0.475-0.27,1.006-0.441,1.559-0.678c0-0.242,0-0.505,0-0.769
		c0-14.05-0.002-28.101,0.009-42.15c0-0.541-0.103-0.925-0.567-1.288c-0.72-0.564-0.993-1.405-0.996-2.312
		c-0.007-3.013-0.027-6.025,0.006-9.037c0.024-2.198,2.063-3.59,4.276-2.975c2.106,0.584,3.605,2.005,4.876,3.67
		c2.517,3.295,4.135,6.989,4.646,11.125c0.158,1.273,0.096,2.55-0.36,3.778c-0.706,1.901-2.461,3.008-4.478,2.817
		c-1.901-0.18-2.428-0.388-4.28-1.712c0,12.986,0,25.925,0,38.909c1.432,0.501,2.996,1.038,2.979,2.964
		c-0.017,1.887-1.557,2.412-3.047,2.93c0,1.429-0.028,2.85,0.01,4.27c0.025,0.942-0.295,1.63-1.167,2.028
		C105.838,154.389,105.598,154.389,105.356,154.389z M108.799,88.742c0,0.233,0,0.466,0,0.699c0,1.972-0.001,3.944,0,5.916
		c0.001,0.89-0.175,1.716-0.783,2.41c-0.099,0.113-0.183,0.297-0.172,0.439c0.122,1.509,1.734,3.332,3.206,3.65
		c1.517,0.327,2.102-0.079,2.306-1.622c0.044-0.332,0.082-0.674,0.051-1.004C113.047,95.25,111.398,91.813,108.799,88.742z"/>
	<path fill-rule="evenodd" clip-rule="evenodd" fill="#627D53" d="M51.669,103.478c-1.001,0.447-1.98,1.043-3.042,1.309
		c-0.9,0.225-1.932,0.234-2.843,0.044c-1.826-0.382-2.741-1.741-3.156-3.481c-0.06-0.252-0.12-0.504-0.18-0.756
		c0-0.771,0-1.543,0-2.314c0.393-1.504,0.679-3.045,1.199-4.504c1.135-3.185,2.75-6.104,5.299-8.405
		c1.106-0.999,2.351-1.742,3.891-1.887c1.809-0.17,3.444,1.156,3.472,2.97c0.047,3.084,0.025,6.169,0.009,9.253
		c-0.004,0.903-0.318,1.726-1.053,2.282c-0.429,0.323-0.505,0.686-0.503,1.172c0.013,5.157,0.008,10.313,0.008,15.471
		c0,8.892,0,17.783,0,26.675c0,0.287,0,0.574,0,0.844c0.513,0.21,0.995,0.367,1.44,0.597c0.958,0.493,1.63,1.238,1.64,2.367
		c0.009,1.162-0.691,1.904-1.661,2.432c-0.105,0.057-0.212,0.139-0.326,0.152c-1.025,0.12-1.183,0.755-1.112,1.658
		c0.08,1.005-0.02,2.024,0.029,3.033c0.047,0.962-0.311,1.625-1.196,2.001c-0.241,0-0.482,0-0.723,0
		c-0.876-0.397-1.191-1.089-1.167-2.03c0.038-1.419,0.01-2.84,0.01-4.267c-1.515-0.53-3.073-1.068-3.044-3.005
		c0.028-1.855,1.53-2.385,3.008-2.896 M50.142,88.75c-0.061-0.031-0.122-0.063-0.182-0.093c-0.046,0.081-0.082,0.172-0.14,0.243
		c-1.659,2.041-2.83,4.344-3.607,6.844c-0.479,1.539-0.872,3.105-0.601,4.746c0.186,1.127,0.594,1.47,1.682,1.422
		c1.777-0.078,3.592-1.827,3.798-3.682c0.016-0.143-0.054-0.334-0.151-0.443c-0.65-0.734-0.803-1.611-0.8-2.55
		C50.147,93.075,50.142,90.912,50.142,88.75z"/>
	<path fill-rule="evenodd" clip-rule="evenodd" fill="#627D53" d="M108.799,88.742c2.599,3.071,4.248,6.508,4.608,10.489
		c0.03,0.33-0.007,0.672-0.051,1.004c-0.205,1.543-0.789,1.949-2.306,1.622c-1.472-0.318-3.084-2.142-3.206-3.65
		c-0.011-0.143,0.073-0.326,0.172-0.439c0.608-0.694,0.784-1.521,0.783-2.41c-0.002-1.972,0-3.944,0-5.916
		C108.799,89.208,108.799,88.976,108.799,88.742z"/>
	<path fill-rule="evenodd" clip-rule="evenodd" fill="#627D53" d="M50.142,88.75c0,2.162,0.005,4.325-0.002,6.487
		c-0.003,0.938,0.15,1.815,0.8,2.55c0.097,0.109,0.167,0.301,0.151,0.443c-0.206,1.854-2.021,3.604-3.798,3.682
		c-1.088,0.048-1.496-0.295-1.682-1.422c-0.271-1.641,0.123-3.207,0.601-4.746c0.777-2.5,1.948-4.803,3.607-6.844
		c0.058-0.071,0.094-0.162,0.14-0.243C50.021,88.688,50.082,88.719,50.142,88.75z"/>
</g>
</svg>
