<?xml version="1.0" encoding="utf-8"?>
<!-- Generator: Adobe Illustrator 16.0.0, SVG Export Plug-In . SVG Version: 6.00 Build 0)  -->
<!DOCTYPE svg PUBLIC "-//W3C//DTD SVG 1.1//EN" "http://www.w3.org/Graphics/SVG/1.1/DTD/svg11.dtd">
<svg version="1.1" id="Layer_1" xmlns="http://www.w3.org/2000/svg" xmlns:xlink="http://www.w3.org/1999/xlink" x="0px" y="0px"
	 width="142px" height="177.242px" viewBox="0 0 142 177.242" enable-background="new 0 0 142 177.242" xml:space="preserve">
<g>
	<g>
		<path fill-rule="evenodd" clip-rule="evenodd" fill="#FFFFFF" d="M141,166c0,5.523-4.478,10-10,10H11c-5.522,0-10-4.477-10-10V76
			c0-5.523,4.478-10,10-10h120c5.522,0,10,4.477,10,10V166z"/>
		<path fill="none" stroke="#000000" stroke-width="2" stroke-miterlimit="10" d="M141,166c0,5.523-4.478,10-10,10H11
			c-5.522,0-10-4.477-10-10V76c0-5.523,4.478-10,10-10h120c5.522,0,10,4.477,10,10V166z"/>
	</g>
	<g>
		<g>
			<path fill="#1A1A1A" d="M52.781,16.481c0-0.309-0.043-0.588-0.133-0.836c-0.09-0.249-0.264-0.478-0.52-0.69
				c-0.256-0.211-0.609-0.419-1.063-0.623c-0.451-0.203-1.035-0.419-1.752-0.647c-0.813-0.26-1.58-0.553-2.301-0.879
				c-0.719-0.325-1.35-0.71-1.891-1.154c-0.543-0.443-0.969-0.954-1.283-1.532c-0.313-0.578-0.469-1.253-0.469-2.026
				c0-0.74,0.16-1.418,0.482-2.033c0.32-0.614,0.771-1.137,1.354-1.568c0.582-0.431,1.273-0.767,2.076-1.007
				c0.801-0.24,1.682-0.36,2.643-0.36c0.984,0,1.879,0.136,2.686,0.409c0.805,0.272,1.494,0.653,2.063,1.141
				c0.57,0.488,1.01,1.068,1.318,1.74c0.311,0.671,0.465,1.406,0.465,2.203h-3.662c0-0.374-0.061-0.72-0.178-1.038
				s-0.299-0.59-0.543-0.818c-0.244-0.228-0.549-0.405-0.916-0.531c-0.365-0.126-0.797-0.189-1.293-0.189
				c-0.48,0-0.898,0.053-1.252,0.159c-0.354,0.106-0.646,0.252-0.879,0.439c-0.232,0.188-0.406,0.407-0.525,0.659
				c-0.117,0.252-0.176,0.521-0.176,0.806c0,0.586,0.299,1.076,0.896,1.471c0.598,0.395,1.475,0.763,2.631,1.105
				c0.969,0.301,1.82,0.635,2.557,1.001s1.352,0.781,1.844,1.245s0.865,0.985,1.117,1.563c0.252,0.578,0.379,1.233,0.379,1.965
				c0,0.781-0.152,1.477-0.459,2.087c-0.305,0.61-0.738,1.125-1.299,1.544c-0.563,0.419-1.24,0.74-2.033,0.964
				c-0.793,0.224-1.678,0.336-2.654,0.336c-0.586,0-1.172-0.051-1.758-0.152c-0.586-0.102-1.146-0.258-1.68-0.47
				c-0.533-0.211-1.027-0.476-1.482-0.793s-0.854-0.691-1.189-1.123c-0.338-0.431-0.604-0.922-0.795-1.471
				c-0.191-0.55-0.287-1.158-0.287-1.825h3.676c0,0.537,0.084,0.993,0.256,1.367c0.17,0.375,0.408,0.678,0.715,0.909
				c0.305,0.232,0.672,0.401,1.104,0.507c0.432,0.106,0.912,0.159,1.441,0.159c0.471,0,0.883-0.051,1.232-0.153
				c0.35-0.102,0.639-0.242,0.867-0.421c0.227-0.179,0.396-0.393,0.506-0.641C52.727,17.033,52.781,16.767,52.781,16.481z"/>
			<path fill="#1A1A1A" d="M70.592,14.663c0,0.96-0.111,1.852-0.336,2.673c-0.225,0.822-0.551,1.532-0.982,2.13
				c-0.432,0.599-0.967,1.068-1.605,1.41s-1.373,0.513-2.203,0.513c-0.699,0-1.316-0.122-1.85-0.366s-0.994-0.586-1.385-1.025v6.226
				h-3.527V7.937h3.271l0.121,1.294c0.406-0.488,0.881-0.867,1.422-1.135s1.182-0.403,1.924-0.403c0.838,0,1.578,0.161,2.221,0.482
				c0.643,0.321,1.18,0.777,1.611,1.367c0.432,0.59,0.758,1.298,0.982,2.124c0.225,0.826,0.336,1.739,0.336,2.74V14.663z
				 M67.064,14.406c0-0.545-0.047-1.052-0.141-1.52c-0.094-0.468-0.242-0.875-0.445-1.221c-0.203-0.346-0.467-0.617-0.787-0.812
				c-0.322-0.195-0.715-0.293-1.178-0.293c-0.578,0-1.053,0.108-1.424,0.324c-0.369,0.215-0.656,0.531-0.859,0.946v5.408
				c0.203,0.407,0.49,0.727,0.859,0.958c0.371,0.232,0.854,0.348,1.447,0.348c0.465,0,0.855-0.102,1.178-0.305
				c0.322-0.203,0.582-0.482,0.781-0.836c0.199-0.354,0.344-0.767,0.434-1.239c0.09-0.472,0.135-0.972,0.135-1.501V14.406z"/>
			<path fill="#1A1A1A" d="M72.227,14.418c0-0.96,0.139-1.851,0.416-2.673c0.275-0.822,0.68-1.532,1.209-2.13
				c0.527-0.599,1.182-1.068,1.959-1.41c0.775-0.342,1.662-0.513,2.654-0.513c1.002,0,1.893,0.171,2.674,0.513
				s1.438,0.812,1.971,1.41c0.533,0.598,0.938,1.308,1.215,2.13c0.277,0.822,0.416,1.713,0.416,2.673v0.256
				c0,0.969-0.139,1.861-0.416,2.68c-0.277,0.817-0.682,1.525-1.215,2.124c-0.533,0.598-1.186,1.066-1.959,1.403
				c-0.773,0.338-1.66,0.507-2.66,0.507c-1.002,0-1.891-0.169-2.668-0.507c-0.777-0.337-1.434-0.806-1.965-1.403
				c-0.533-0.599-0.939-1.307-1.215-2.124c-0.277-0.818-0.416-1.711-0.416-2.68V14.418z M75.756,14.675
				c0,0.537,0.049,1.042,0.146,1.514c0.098,0.472,0.254,0.881,0.469,1.227c0.215,0.346,0.496,0.621,0.842,0.824
				c0.346,0.204,0.771,0.305,1.277,0.305c0.488,0,0.904-0.102,1.25-0.305c0.346-0.203,0.629-0.478,0.85-0.824
				c0.219-0.346,0.377-0.754,0.475-1.227c0.098-0.472,0.146-0.977,0.146-1.514v-0.256c0-0.521-0.049-1.015-0.146-1.483
				c-0.098-0.468-0.256-0.879-0.475-1.233c-0.221-0.354-0.506-0.635-0.855-0.842c-0.35-0.208-0.773-0.312-1.27-0.312
				c-0.488,0-0.906,0.104-1.252,0.312c-0.346,0.207-0.627,0.488-0.842,0.842c-0.215,0.354-0.371,0.765-0.469,1.233
				c-0.098,0.468-0.146,0.962-0.146,1.483V14.675z"/>
			<path fill="#1A1A1A" d="M94.334,11.245c-0.18-0.024-0.389-0.047-0.629-0.067c-0.24-0.021-0.453-0.031-0.641-0.031
				c-0.691,0-1.252,0.116-1.678,0.348c-0.428,0.231-0.744,0.567-0.947,1.007v8.643h-3.527V7.937h3.332l0.098,1.575
				c0.334-0.569,0.744-1.015,1.232-1.336c0.488-0.322,1.059-0.482,1.709-0.482c0.188,0,0.385,0.017,0.594,0.049
				c0.207,0.033,0.375,0.069,0.506,0.11L94.334,11.245z"/>
			<path fill="#1A1A1A" d="M100.254,4.689v3.247h2.258v2.588h-2.258v6.592c0,0.277,0.029,0.505,0.086,0.684
				c0.057,0.179,0.143,0.319,0.256,0.421c0.113,0.102,0.254,0.171,0.422,0.208c0.166,0.036,0.363,0.055,0.592,0.055
				c0.211,0,0.404-0.008,0.58-0.024c0.174-0.016,0.326-0.037,0.457-0.061v2.673c-0.293,0.089-0.613,0.165-0.959,0.226
				c-0.346,0.062-0.738,0.092-1.178,0.092c-0.578,0-1.098-0.071-1.563-0.214c-0.463-0.142-0.859-0.368-1.189-0.677
				c-0.33-0.309-0.584-0.712-0.764-1.208c-0.178-0.496-0.268-1.094-0.268-1.794v-6.97h-1.93V7.937h1.93V4.689H100.254z"/>
			<path fill="#1A1A1A" d="M47.074,41.442h-7.031v4.761h8.252v2.942H36.381V31.371h11.891v2.966h-8.229v4.236h7.031V41.442z"/>
			<path fill="#1A1A1A" d="M55.156,44.835l2.453-8.899h3.688L56.84,49.145h-3.369l-4.455-13.208h3.688L55.156,44.835z"/>
			<path fill="#1A1A1A" d="M68.926,49.389c-1.025,0-1.943-0.167-2.752-0.5c-0.811-0.333-1.498-0.789-2.064-1.367
				c-0.564-0.578-0.996-1.255-1.293-2.033c-0.297-0.777-0.445-1.609-0.445-2.496v-0.476c0-1.001,0.145-1.918,0.434-2.752
				c0.287-0.834,0.699-1.552,1.232-2.155c0.533-0.602,1.18-1.072,1.941-1.41c0.76-0.338,1.613-0.507,2.557-0.507
				c0.953,0,1.791,0.157,2.516,0.47c0.723,0.313,1.332,0.753,1.824,1.318c0.492,0.566,0.861,1.248,1.111,2.045
				c0.248,0.798,0.371,1.685,0.371,2.661v1.501h-8.41c0.057,0.432,0.172,0.822,0.348,1.172c0.176,0.35,0.398,0.649,0.672,0.897
				c0.271,0.249,0.592,0.442,0.959,0.58c0.365,0.139,0.775,0.208,1.232,0.208c0.643,0,1.236-0.12,1.781-0.36
				c0.545-0.24,1.014-0.612,1.404-1.117l1.734,1.941c-0.213,0.301-0.477,0.594-0.795,0.879c-0.316,0.285-0.691,0.539-1.123,0.763
				c-0.432,0.224-0.918,0.402-1.459,0.537C70.16,49.321,69.568,49.389,68.926,49.389z M68.523,38.549
				c-0.383,0-0.719,0.067-1.008,0.201c-0.289,0.135-0.537,0.322-0.744,0.562c-0.207,0.24-0.377,0.527-0.506,0.861
				c-0.131,0.334-0.225,0.704-0.281,1.111h4.906v-0.281c-0.008-0.35-0.059-0.675-0.152-0.977c-0.094-0.301-0.236-0.562-0.428-0.781
				s-0.436-0.391-0.732-0.513S68.93,38.549,68.523,38.549z"/>
			<path fill="#1A1A1A" d="M79.607,35.937l0.109,1.526c0.457-0.569,1.006-1.007,1.648-1.312c0.643-0.306,1.359-0.458,2.148-0.458
				c0.627,0,1.197,0.087,1.709,0.263c0.514,0.175,0.953,0.462,1.318,0.86c0.367,0.399,0.648,0.92,0.848,1.563
				c0.199,0.643,0.301,1.433,0.301,2.368v8.398H84.16v-8.423c0-0.423-0.047-0.773-0.141-1.05c-0.094-0.276-0.229-0.496-0.408-0.659
				c-0.18-0.163-0.398-0.279-0.658-0.348c-0.262-0.069-0.563-0.104-0.904-0.104c-0.521,0-0.967,0.114-1.336,0.342
				c-0.371,0.228-0.67,0.537-0.898,0.928v9.314h-3.527V35.937H79.607z"/>
			<path fill="#1A1A1A" d="M94.586,32.689v3.247h2.258v2.588h-2.258v6.592c0,0.277,0.029,0.505,0.086,0.684
				c0.057,0.179,0.143,0.319,0.256,0.421c0.113,0.102,0.254,0.171,0.422,0.208c0.166,0.036,0.363,0.055,0.592,0.055
				c0.211,0,0.404-0.008,0.58-0.024c0.174-0.016,0.326-0.037,0.457-0.061v2.673c-0.293,0.089-0.613,0.165-0.959,0.226
				c-0.346,0.062-0.738,0.092-1.178,0.092c-0.578,0-1.098-0.071-1.563-0.214c-0.463-0.142-0.859-0.368-1.189-0.677
				c-0.33-0.309-0.584-0.712-0.764-1.208c-0.178-0.496-0.268-1.094-0.268-1.794v-6.97h-1.93v-2.588h1.93v-3.247H94.586z"/>
			<path fill="#1A1A1A" d="M105.963,45.495c0-0.187-0.037-0.358-0.109-0.513c-0.074-0.154-0.213-0.299-0.416-0.433
				c-0.203-0.135-0.48-0.263-0.83-0.385s-0.801-0.24-1.354-0.354c-0.676-0.146-1.301-0.33-1.875-0.549s-1.07-0.492-1.488-0.818
				c-0.42-0.325-0.748-0.704-0.982-1.135c-0.236-0.431-0.355-0.932-0.355-1.501c0-0.553,0.121-1.078,0.361-1.575
				c0.238-0.496,0.586-0.934,1.037-1.313c0.451-0.378,1.004-0.677,1.66-0.897c0.654-0.22,1.393-0.33,2.215-0.33
				c0.855,0,1.625,0.106,2.309,0.317c0.684,0.212,1.262,0.507,1.738,0.885c0.477,0.379,0.842,0.829,1.1,1.349
				c0.256,0.521,0.385,1.091,0.385,1.709h-3.529c0-0.504-0.162-0.921-0.488-1.251c-0.324-0.329-0.834-0.494-1.525-0.494
				c-0.594,0-1.055,0.134-1.379,0.403c-0.326,0.269-0.488,0.61-0.488,1.025c0,0.195,0.043,0.368,0.127,0.519
				c0.086,0.15,0.225,0.289,0.416,0.415c0.191,0.126,0.443,0.242,0.756,0.348c0.314,0.106,0.699,0.204,1.154,0.293
				c0.717,0.139,1.379,0.31,1.99,0.513c0.609,0.204,1.137,0.466,1.58,0.787c0.443,0.322,0.791,0.712,1.045,1.172
				c0.252,0.46,0.377,1.016,0.377,1.667c0,0.586-0.129,1.125-0.391,1.618c-0.26,0.492-0.633,0.917-1.117,1.275
				c-0.484,0.358-1.066,0.639-1.75,0.842s-1.449,0.305-2.295,0.305c-0.928,0-1.746-0.13-2.455-0.391
				c-0.707-0.26-1.305-0.602-1.787-1.025c-0.484-0.423-0.85-0.899-1.094-1.428c-0.244-0.529-0.365-1.062-0.365-1.599h3.344
				c0.018,0.342,0.092,0.637,0.227,0.885c0.135,0.249,0.311,0.45,0.531,0.604c0.219,0.155,0.473,0.269,0.762,0.342
				s0.594,0.11,0.91,0.11c0.676,0,1.186-0.128,1.531-0.384C105.789,46.245,105.963,45.91,105.963,45.495z"/>
		</g>
	</g>
	<g>
		<g>
			<path fill-rule="evenodd" clip-rule="evenodd" fill="#010101" d="M132.66,135.621c-0.18,0.744-0.293,1.51-0.549,2.225
				c-2.355,6.59-10.539,8.492-15.576,3.637c-4.309-4.154-3.555-11.504,1.51-14.697c5.307-3.35,12.107-0.955,14.133,4.99
				c0.221,0.648,0.324,1.334,0.482,2.002V135.621z M116.559,134.67c-0.082,3.521,2.854,6.586,6.393,6.674
				c3.691,0.09,6.76-2.773,6.848-6.395c0.092-3.746-2.771-6.742-6.545-6.842C119.66,128.012,116.645,130.967,116.559,134.67"/>
			<path fill-rule="evenodd" clip-rule="evenodd" fill="#010101" d="M85.424,133.777c0.207-0.797,0.332-1.627,0.635-2.387
				c1.348-3.381,3.83-5.441,7.434-6.006c3.85-0.605,7.516,1.186,9.516,4.531c0.023,0.037,0.033,0.084,0.068,0.178
				c-0.701,0.633-1.416,1.279-2.129,1.922c-0.967-2.051-2.648-3.426-5.029-3.824c-1.666-0.275-3.24,0.074-4.662,1.012
				c-2.885,1.893-3.793,5.752-2.15,8.756c1.469,2.686,5.828,4.945,9.826,2.045c0.33,0.33,0.635,0.705,1.008,0.99
				c0.369,0.285,0.809,0.482,1.26,0.74c-0.629,0.629-1.365,1.109-2.162,1.494c-5.572,2.688-12.09-0.488-13.406-6.525
				c-0.078-0.359-0.139-0.721-0.207-1.08V133.777z"/>
			<path fill-rule="evenodd" clip-rule="evenodd" fill="#010101" d="M106.975,128.748c-1.117-0.703-2.189-1.357-3.244-2.049
				c-1.49-0.973-2.965-1.973-4.445-2.963c-1.82-1.217-2.229-3.4-1.457-5.223c0.494-1.174,1.307-2.072,2.377-2.742
				c3.307-2.072,6.607-4.152,9.922-6.209c2.139-1.326,4.521-0.762,5.885,1.359c0.156,0.246,0.289,0.514,0.469,0.74
				c0.861,1.096,0.996,2.316,0.768,3.658c-0.207,1.225-0.297,2.469-0.447,3.758c0.963,0.166,1.896,0.328,2.828,0.484
				c1.166,0.191,2.334,0.377,3.5,0.576c1.24,0.209,2.066,1.084,2.141,2.244c0.068,1.078-0.646,2.158-1.717,2.379
				c-0.563,0.115-1.186,0.035-1.768-0.057c-2.596-0.402-5.184-0.844-7.773-1.27c-1.375-0.227-2.207-1.268-2.129-2.666
				c0.01-0.176,0.016-0.354,0.029-0.625c-1.232,0.77-2.387,1.49-3.592,2.246c0.166,0.107,0.293,0.203,0.428,0.281
				c1.475,0.857,2.955,1.701,4.42,2.57c1.455,0.861,1.947,2.393,1.229,3.832c-0.152,0.311-0.383,0.596-0.623,0.848
				c-2.918,3.039-5.859,6.055-8.76,9.107c-1.76,1.855-4.41,0.988-4.961-1.057c-0.305-1.129,0.043-2.08,0.838-2.902
				c1.895-1.957,3.779-3.918,5.668-5.877C106.686,129.063,106.807,128.93,106.975,128.748"/>
			<path fill-rule="evenodd" clip-rule="evenodd" fill="#010101" d="M126.162,108.141c0.203,2.32-1.77,4.641-4.063,4.906
				c-2.867,0.33-5.164-1.764-5.373-4.234c-0.223-2.639,1.664-4.939,4.262-5.176C123.645,103.393,126.084,105.408,126.162,108.141"/>
		</g>
		<g>
			<path fill="#231F20" d="M11.592,103.531c0.596-1.238,1.52-1.824,2.645-1.668c0.904,0.127,1.49,0.639,1.824,1.484
				c0.406,1.031,0.762,2.094,1.283,3.064c1.598,2.986,4.086,4.559,7.523,4.432c0.607-0.023,1.199-0.365,1.811-0.418
				c0.627-0.055,1.32-0.07,1.898,0.139c4.193,1.506,8.365,3.064,12.539,4.623c1.33,0.494,1.945,1.682,1.6,2.996
				c-0.35,1.33-1.41,1.893-2.76,1.404c-2.635-0.953-5.26-1.938-7.889-2.908c-0.221-0.08-0.445-0.15-0.727-0.246
				c-0.285,2.264,0.104,4.377,0.869,6.598c-1.391-0.416-2.658-0.73-3.881-1.17c-1.688-0.609-3.338-1.314-5.01-1.965
				c-0.352-0.139-0.479-0.354-0.469-0.73c0.033-1.15,0.016-2.301,0.053-3.451c0.01-0.332-0.088-0.469-0.412-0.52
				c-4.684-0.748-7.742-3.559-9.699-7.719c-0.471-0.998-0.803-2.063-1.199-3.098V103.531z"/>
			<path fill="#231F20" d="M28.229,134.654c-1.674,1.352-2.107,2.697-1.33,4.762c0.453,1.201,1.031,2.365,1.641,3.5
				c1.32,2.449-0.721,4.35-2.502,4.398c-0.848,0.025-1.611-0.262-2.045-0.973c-1.756-2.885-3.289-5.855-3.066-9.395
				c0.154-2.439,1.293-4.406,3.051-5.998c0.844-0.766,1.473-1.363,0.814-2.607c-0.352-0.666-0.348-1.52-0.531-2.42
				c2.824,1.742,5.883,2.467,9.104,2.957c-0.125,0.346-0.166,0.666-0.334,0.887c-0.309,0.41-0.25,0.744-0.072,1.205
				c2.068,5.369,5.727,9.506,10.078,13.115c0.482,0.398,0.975,0.791,1.42,1.229c0.799,0.789,0.914,1.797,0.363,2.773
				c-0.951,1.688-3.104,2.188-4.633,0.975c-3.262-2.582-6.252-5.449-8.602-8.906C30.387,138.393,29.355,136.516,28.229,134.654"/>
			<path fill="#231F20" d="M21.658,119.51c1.24,0.637,2.42,1.295,3.645,1.859c5.189,2.393,10.635,3.449,16.326,2.748
				c2.615-0.322,5.195-0.953,7.787-1.463c6.027-1.189,12.084-2.164,18.217-2.584c1.67-0.115,3.352-0.033,5.027-0.035
				c0.172,0,0.346,0.049,0.543,0.191c-1.063,0.51-2.125,1.02-3.256,1.563c1.252,0.938,2.715,1.525,3.867,2.838
				c-0.436,0-0.705,0.025-0.969-0.004c-5.131-0.572-10.207-0.051-15.262,0.787c-4.658,0.775-9.293,1.693-13.959,2.416
				c-4.227,0.658-8.479,0.873-12.715-0.029c-2.959-0.631-5.684-1.805-8.164-3.539c-0.139-0.096-0.307-0.244-0.336-0.393
				C22.146,122.42,21.908,120.971,21.658,119.51"/>
			<path fill="#231F20" d="M22.721,104.623c-0.006-2.676,2.193-4.871,4.857-4.85c2.641,0.02,4.811,2.201,4.816,4.84
				c0.008,2.654-2.225,4.879-4.867,4.855C24.871,109.443,22.725,107.281,22.721,104.623"/>
		</g>
		<line fill="none" stroke="#010101" stroke-miterlimit="10" x1="78.492" y1="101.732" x2="78.492" y2="147.732"/>
	</g>
</g>
</svg>
