<?xml version="1.0" encoding="utf-8"?>
<!-- Generator: Adobe Illustrator 16.0.0, SVG Export Plug-In . SVG Version: 6.00 Build 0)  -->
<!DOCTYPE svg PUBLIC "-//W3C//DTD SVG 1.1//EN" "http://www.w3.org/Graphics/SVG/1.1/DTD/svg11.dtd">
<svg version="1.1" id="Layer_1" xmlns="http://www.w3.org/2000/svg" xmlns:xlink="http://www.w3.org/1999/xlink" x="0px" y="0px"
	 width="142px" height="177.242px" viewBox="0 0 142 177.242" enable-background="new 0 0 142 177.242" xml:space="preserve">
<g>
	<g>
		<path fill-rule="evenodd" clip-rule="evenodd" fill="#FFFFFF" d="M141,166c0,5.522-4.477,10-10,10H11c-5.523,0-10-4.478-10-10V76
			c0-5.523,4.477-10,10-10h120c5.523,0,10,4.477,10,10V166z"/>
		<path fill="none" stroke="#000000" stroke-width="2" stroke-miterlimit="10" d="M141,166c0,5.522-4.477,10-10,10H11
			c-5.523,0-10-4.478-10-10V76c0-5.523,4.477-10,10-10h120c5.523,0,10,4.477,10,10V166z"/>
	</g>
	<g>
		<path fill="#1A1A1A" d="M52.782,16.481c0-0.309-0.044-0.588-0.134-0.836c-0.09-0.249-0.263-0.478-0.519-0.69
			c-0.257-0.211-0.61-0.419-1.063-0.623c-0.451-0.203-1.035-0.419-1.752-0.647c-0.813-0.26-1.58-0.553-2.301-0.879
			c-0.72-0.325-1.351-0.71-1.892-1.154c-0.542-0.443-0.969-0.954-1.282-1.532c-0.313-0.578-0.47-1.253-0.47-2.026
			c0-0.74,0.16-1.418,0.482-2.033c0.321-0.614,0.772-1.137,1.354-1.568c0.582-0.431,1.273-0.767,2.075-1.007
			c0.802-0.24,1.683-0.36,2.644-0.36c0.984,0,1.879,0.136,2.686,0.409c0.805,0.272,1.493,0.653,2.063,1.141s1.009,1.068,1.318,1.74
			c0.31,0.671,0.464,1.406,0.464,2.203h-3.662c0-0.374-0.06-0.72-0.177-1.038c-0.118-0.317-0.299-0.59-0.543-0.818
			c-0.244-0.228-0.55-0.405-0.916-0.531c-0.366-0.126-0.798-0.189-1.294-0.189c-0.48,0-0.897,0.053-1.251,0.159
			c-0.354,0.106-0.647,0.252-0.879,0.439c-0.232,0.188-0.407,0.407-0.525,0.659c-0.118,0.252-0.177,0.521-0.177,0.806
			c0,0.586,0.299,1.076,0.897,1.471c0.598,0.395,1.475,0.763,2.631,1.105c0.968,0.301,1.82,0.635,2.557,1.001
			s1.351,0.781,1.844,1.245c0.492,0.464,0.864,0.985,1.117,1.563c0.252,0.578,0.378,1.233,0.378,1.965
			c0,0.781-0.152,1.477-0.458,2.087c-0.305,0.61-0.738,1.125-1.3,1.544c-0.562,0.419-1.239,0.74-2.032,0.964
			c-0.794,0.224-1.679,0.336-2.655,0.336c-0.586,0-1.172-0.051-1.758-0.152c-0.586-0.102-1.146-0.258-1.679-0.47
			c-0.533-0.211-1.027-0.476-1.482-0.793c-0.456-0.317-0.854-0.691-1.19-1.123c-0.338-0.431-0.603-0.922-0.794-1.471
			c-0.191-0.55-0.287-1.158-0.287-1.825h3.675c0,0.537,0.085,0.993,0.257,1.367c0.17,0.375,0.408,0.678,0.714,0.909
			c0.305,0.232,0.673,0.401,1.104,0.507c0.432,0.106,0.911,0.159,1.44,0.159c0.472,0,0.883-0.051,1.233-0.153
			c0.35-0.102,0.639-0.242,0.866-0.421c0.228-0.179,0.396-0.393,0.507-0.641C52.727,17.033,52.782,16.767,52.782,16.481z"/>
		<path fill="#1A1A1A" d="M70.591,14.663c0,0.96-0.111,1.852-0.335,2.673c-0.225,0.822-0.552,1.532-0.983,2.13
			c-0.431,0.599-0.966,1.068-1.604,1.41c-0.64,0.342-1.374,0.513-2.204,0.513c-0.699,0-1.316-0.122-1.849-0.366
			c-0.533-0.244-0.995-0.586-1.386-1.025v6.226h-3.527V7.937h3.271l0.121,1.294c0.407-0.488,0.881-0.867,1.423-1.135
			c0.541-0.269,1.182-0.403,1.923-0.403c0.838,0,1.578,0.161,2.221,0.482c0.644,0.321,1.181,0.777,1.611,1.367
			c0.432,0.59,0.759,1.298,0.983,2.124c0.224,0.826,0.335,1.739,0.335,2.74V14.663z M67.064,14.406c0-0.545-0.047-1.052-0.141-1.52
			c-0.094-0.468-0.242-0.875-0.445-1.221c-0.203-0.346-0.466-0.617-0.787-0.812c-0.322-0.195-0.715-0.293-1.178-0.293
			c-0.578,0-1.053,0.108-1.423,0.324c-0.37,0.215-0.657,0.531-0.86,0.946v5.408c0.203,0.407,0.49,0.727,0.86,0.958
			c0.37,0.232,0.853,0.348,1.446,0.348c0.465,0,0.856-0.102,1.179-0.305c0.321-0.203,0.581-0.482,0.781-0.836
			c0.199-0.354,0.344-0.767,0.433-1.239c0.09-0.472,0.135-0.972,0.135-1.501V14.406z"/>
		<path fill="#1A1A1A" d="M72.227,14.418c0-0.96,0.139-1.851,0.415-2.673c0.276-0.822,0.68-1.532,1.209-2.13
			c0.528-0.599,1.182-1.068,1.959-1.41c0.776-0.342,1.662-0.513,2.654-0.513c1.002,0,1.893,0.171,2.674,0.513
			s1.438,0.812,1.972,1.41c0.532,0.598,0.938,1.308,1.214,2.13c0.277,0.822,0.416,1.713,0.416,2.673v0.256
			c0,0.969-0.139,1.861-0.416,2.68c-0.276,0.817-0.682,1.525-1.214,2.124c-0.533,0.598-1.187,1.066-1.96,1.403
			c-0.772,0.338-1.66,0.507-2.66,0.507c-1.002,0-1.891-0.169-2.668-0.507c-0.777-0.337-1.433-0.806-1.965-1.403
			c-0.533-0.599-0.938-1.307-1.215-2.124c-0.276-0.818-0.415-1.711-0.415-2.68V14.418z M75.755,14.675
			c0,0.537,0.049,1.042,0.146,1.514c0.098,0.472,0.254,0.881,0.47,1.227c0.215,0.346,0.496,0.621,0.842,0.824
			c0.346,0.204,0.771,0.305,1.276,0.305c0.488,0,0.904-0.102,1.251-0.305c0.346-0.203,0.628-0.478,0.849-0.824
			c0.219-0.346,0.378-0.754,0.476-1.227c0.098-0.472,0.146-0.977,0.146-1.514v-0.256c0-0.521-0.049-1.015-0.146-1.483
			c-0.098-0.468-0.257-0.879-0.476-1.233c-0.221-0.354-0.505-0.635-0.855-0.842c-0.35-0.208-0.772-0.312-1.27-0.312
			c-0.488,0-0.905,0.104-1.251,0.312c-0.346,0.207-0.627,0.488-0.842,0.842c-0.216,0.354-0.372,0.765-0.47,1.233
			c-0.098,0.468-0.146,0.962-0.146,1.483V14.675z"/>
		<path fill="#1A1A1A" d="M94.334,11.245c-0.18-0.024-0.39-0.047-0.629-0.067c-0.24-0.021-0.454-0.031-0.641-0.031
			c-0.692,0-1.252,0.116-1.679,0.348c-0.428,0.231-0.743,0.567-0.946,1.007v8.643h-3.527V7.937h3.332l0.098,1.575
			c0.334-0.569,0.744-1.015,1.232-1.336c0.488-0.322,1.059-0.482,1.709-0.482c0.188,0,0.385,0.017,0.593,0.049
			c0.207,0.033,0.376,0.069,0.507,0.11L94.334,11.245z"/>
		<path fill="#1A1A1A" d="M100.253,4.689v3.247h2.259v2.588h-2.259v6.592c0,0.277,0.029,0.505,0.086,0.684
			c0.057,0.179,0.143,0.319,0.256,0.421c0.114,0.102,0.255,0.171,0.422,0.208c0.166,0.036,0.364,0.055,0.592,0.055
			c0.212,0,0.404-0.008,0.58-0.024c0.175-0.016,0.327-0.037,0.457-0.061v2.673c-0.293,0.089-0.612,0.165-0.958,0.226
			c-0.346,0.062-0.738,0.092-1.178,0.092c-0.578,0-1.099-0.071-1.563-0.214c-0.464-0.142-0.86-0.368-1.19-0.677
			c-0.329-0.309-0.584-0.712-0.763-1.208c-0.179-0.496-0.269-1.094-0.269-1.794v-6.97h-1.929V7.937h1.929V4.689H100.253z"/>
		<path fill="#1A1A1A" d="M34.429,49.145V31.371h6.226c1.033,0,1.957,0.098,2.771,0.293c0.813,0.195,1.503,0.494,2.068,0.897
			c0.565,0.402,0.997,0.909,1.294,1.52s0.446,1.331,0.446,2.161c0,0.407-0.052,0.798-0.153,1.172
			c-0.102,0.375-0.256,0.725-0.464,1.05c-0.207,0.326-0.47,0.621-0.787,0.885c-0.317,0.264-0.695,0.482-1.135,0.653
			c0.521,0.13,0.966,0.328,1.336,0.592c0.37,0.264,0.676,0.572,0.916,0.921c0.239,0.35,0.415,0.73,0.524,1.141
			c0.11,0.411,0.165,0.833,0.165,1.264c0,1.726-0.556,3.027-1.666,3.906c-1.111,0.879-2.691,1.318-4.742,1.318H34.429z
			 M38.091,38.817h2.71c0.936-0.016,1.632-0.214,2.088-0.592c0.455-0.379,0.684-0.917,0.684-1.618c0-0.806-0.234-1.385-0.702-1.74
			c-0.469-0.354-1.207-0.531-2.216-0.531h-2.563V38.817z M38.091,41.405v4.797h3.138c0.472,0,0.879-0.059,1.221-0.177
			c0.342-0.118,0.626-0.28,0.854-0.488c0.229-0.207,0.397-0.451,0.507-0.732c0.11-0.28,0.165-0.587,0.165-0.921
			c0-0.382-0.049-0.726-0.146-1.032c-0.098-0.305-0.25-0.565-0.458-0.781c-0.207-0.215-0.478-0.38-0.812-0.494
			c-0.334-0.114-0.732-0.171-1.196-0.171H38.091z"/>
		<path fill="#1A1A1A" d="M57.574,39.245c-0.18-0.024-0.39-0.047-0.629-0.067c-0.24-0.021-0.454-0.031-0.641-0.031
			c-0.692,0-1.252,0.116-1.679,0.348c-0.428,0.231-0.743,0.567-0.946,1.007v8.643h-3.527V35.937h3.332l0.098,1.575
			c0.334-0.569,0.744-1.015,1.232-1.336c0.488-0.322,1.059-0.482,1.709-0.482c0.188,0,0.385,0.017,0.593,0.049
			c0.207,0.033,0.376,0.069,0.507,0.11L57.574,39.245z"/>
		<path fill="#1A1A1A" d="M66.924,49.145c-0.163-0.317-0.28-0.712-0.354-1.184c-0.357,0.399-0.808,0.737-1.349,1.013
			s-1.202,0.415-1.983,0.415c-0.635,0-1.227-0.098-1.776-0.293c-0.549-0.195-1.025-0.468-1.428-0.818
			c-0.403-0.35-0.719-0.767-0.946-1.251c-0.228-0.484-0.342-1.015-0.342-1.593c0-0.691,0.128-1.306,0.385-1.843
			c0.256-0.537,0.641-0.993,1.153-1.367c0.513-0.374,1.149-0.659,1.91-0.854s1.646-0.293,2.655-0.293h1.574v-0.757
			c0-0.61-0.156-1.099-0.47-1.465s-0.808-0.549-1.483-0.549c-0.594,0-1.06,0.143-1.397,0.427c-0.338,0.285-0.507,0.676-0.507,1.172
			h-3.527c0-0.569,0.132-1.111,0.396-1.624s0.641-0.96,1.129-1.343c0.488-0.382,1.079-0.686,1.771-0.909
			c0.691-0.224,1.465-0.336,2.319-0.336c0.765,0,1.473,0.098,2.124,0.293s1.213,0.486,1.685,0.873
			c0.472,0.386,0.84,0.871,1.104,1.452c0.265,0.582,0.397,1.26,0.397,2.033v5.591c0,0.375,0.012,0.71,0.036,1.007
			c0.024,0.297,0.057,0.565,0.098,0.806c0.041,0.24,0.094,0.456,0.159,0.646c0.064,0.191,0.142,0.373,0.231,0.543v0.208H66.924z
			 M64.007,46.691c0.301,0,0.579-0.037,0.836-0.11c0.256-0.073,0.486-0.169,0.689-0.287c0.203-0.118,0.38-0.254,0.531-0.409
			c0.15-0.154,0.271-0.313,0.359-0.476v-2.271h-1.452c-0.464,0-0.866,0.051-1.208,0.152c-0.342,0.102-0.623,0.244-0.843,0.428
			c-0.22,0.183-0.383,0.398-0.488,0.646c-0.105,0.249-0.159,0.519-0.159,0.812c0,0.439,0.155,0.802,0.465,1.086
			C63.046,46.549,63.47,46.691,64.007,46.691z"/>
		<path fill="#1A1A1A" d="M75.92,35.937l0.11,1.526c0.456-0.569,1.005-1.007,1.647-1.312c0.644-0.306,1.359-0.458,2.148-0.458
			c0.627,0,1.197,0.087,1.709,0.263c0.514,0.175,0.953,0.462,1.318,0.86c0.367,0.399,0.649,0.92,0.849,1.563
			c0.199,0.643,0.3,1.433,0.3,2.368v8.398h-3.528v-8.423c0-0.423-0.047-0.773-0.141-1.05c-0.094-0.276-0.229-0.496-0.409-0.659
			c-0.179-0.163-0.398-0.279-0.658-0.348c-0.261-0.069-0.563-0.104-0.904-0.104c-0.521,0-0.966,0.114-1.336,0.342
			c-0.371,0.228-0.67,0.537-0.897,0.928v9.314H72.6V35.937H75.92z"/>
		<path fill="#1A1A1A" d="M86.125,42.443c0-1.001,0.116-1.917,0.348-2.747c0.232-0.83,0.567-1.542,1.007-2.136
			c0.439-0.594,0.981-1.054,1.624-1.379c0.643-0.325,1.375-0.488,2.197-0.488c0.676,0,1.275,0.126,1.801,0.378
			c0.524,0.252,0.986,0.606,1.386,1.062v-6.738h3.539v18.75h-3.186l-0.171-1.404c-0.415,0.521-0.899,0.926-1.452,1.214
			c-0.554,0.289-1.201,0.434-1.941,0.434c-0.813,0-1.54-0.169-2.179-0.507c-0.64-0.337-1.179-0.803-1.618-1.397
			c-0.439-0.594-0.774-1.3-1.007-2.118c-0.231-0.817-0.348-1.707-0.348-2.667V42.443z M89.654,42.699
			c0,0.537,0.044,1.038,0.134,1.501s0.233,0.869,0.434,1.214c0.199,0.346,0.459,0.619,0.781,0.818
			c0.321,0.199,0.714,0.299,1.178,0.299c0.569,0,1.044-0.122,1.422-0.366c0.379-0.244,0.674-0.582,0.886-1.013V39.94
			c-0.212-0.439-0.507-0.779-0.886-1.02c-0.378-0.24-0.844-0.36-1.397-0.36c-0.464,0-0.858,0.1-1.184,0.299
			c-0.326,0.199-0.589,0.474-0.788,0.824c-0.199,0.35-0.346,0.761-0.439,1.233c-0.094,0.472-0.14,0.981-0.14,1.526V42.699z"/>
		<path fill="#1A1A1A" d="M107.915,45.495c0-0.187-0.036-0.358-0.109-0.513c-0.073-0.154-0.212-0.299-0.415-0.433
			c-0.203-0.135-0.48-0.263-0.83-0.385s-0.802-0.24-1.354-0.354c-0.676-0.146-1.301-0.33-1.874-0.549
			c-0.574-0.22-1.07-0.492-1.489-0.818c-0.42-0.325-0.747-0.704-0.982-1.135c-0.236-0.431-0.354-0.932-0.354-1.501
			c0-0.553,0.12-1.078,0.36-1.575c0.239-0.496,0.586-0.934,1.037-1.313c0.452-0.378,1.005-0.677,1.66-0.897s1.394-0.33,2.216-0.33
			c0.854,0,1.624,0.106,2.308,0.317c0.684,0.212,1.263,0.507,1.739,0.885c0.476,0.379,0.842,0.829,1.099,1.349
			c0.256,0.521,0.385,1.091,0.385,1.709h-3.528c0-0.504-0.163-0.921-0.488-1.251c-0.325-0.329-0.834-0.494-1.526-0.494
			c-0.594,0-1.054,0.134-1.379,0.403s-0.488,0.61-0.488,1.025c0,0.195,0.043,0.368,0.128,0.519c0.086,0.15,0.224,0.289,0.415,0.415
			c0.191,0.126,0.443,0.242,0.757,0.348c0.313,0.106,0.698,0.204,1.153,0.293c0.717,0.139,1.38,0.31,1.99,0.513
			c0.61,0.204,1.137,0.466,1.581,0.787c0.443,0.322,0.791,0.712,1.044,1.172c0.252,0.46,0.378,1.016,0.378,1.667
			c0,0.586-0.13,1.125-0.391,1.618c-0.261,0.492-0.633,0.917-1.117,1.275c-0.484,0.358-1.067,0.639-1.751,0.842
			s-1.449,0.305-2.295,0.305c-0.928,0-1.746-0.13-2.454-0.391s-1.305-0.602-1.788-1.025c-0.484-0.423-0.849-0.899-1.093-1.428
			c-0.244-0.529-0.366-1.062-0.366-1.599h3.345c0.017,0.342,0.092,0.637,0.226,0.885c0.135,0.249,0.312,0.45,0.531,0.604
			c0.22,0.155,0.474,0.269,0.763,0.342s0.593,0.11,0.909,0.11c0.676,0,1.187-0.128,1.532-0.384
			C107.742,46.245,107.915,45.91,107.915,45.495z"/>
	</g>
	<g>
		<path fill-rule="evenodd" clip-rule="evenodd" fill="#010101" d="M130.979,101.902v15.891c-0.002,1.328-0.811,2.186-2.133,2.248
			c-3.139,0.15-6.281,0.039-9.424,0.061c-1.48,0.012-2.963-0.08-4.441-0.049c-5.865,0.125-11.727,0.016-17.59,0.055h-0.34
			c-1.775-0.012-2.619-0.861-2.619-2.625c0-10.514,0.016-21.027-0.023-31.539c-0.006-1.254,1.051-2.434,2.395-2.408
			c3.645,0.072,7.289,0.053,10.934,0.014c1.633-0.02,3.268-0.031,4.896-0.018c3.285,0.031,6.574,0,9.861,0.025
			c2.086,0.018,4.174,0,6.258,0.006c1.385,0.002,2.227,0.859,2.227,2.254c0.004,5.363,0.002,10.725,0.002,16.086H130.979z
			 M102.268,94.908c-1.049,1.283-2.02,3.799-2.188,5.813c-0.348,4.137,0.955,7.672,3.939,10.58c0.252,0.242,0.383,0.262,0.65,0.01
			c1.291-1.213,2.773-2.129,4.475-2.641c4.262-1.281,8.014-0.277,11.291,2.65c0.367,0.326,0.543,0.334,0.9-0.008
			c3.941-3.791,5.09-9.346,2.932-14.359c-0.34-0.795-0.752-1.553-1.299-2.244c-2.492,3.703-5.73,6.137-10.322,6.176
			C108.063,100.924,104.779,98.555,102.268,94.908 M112.633,89.387c-3.15,0.047-5.93,1.092-8.328,3.164
			c-0.262,0.223-0.297,0.385-0.113,0.678c0.871,1.381,1.908,2.582,3.27,3.527c0.986,0.684,2.057,1.221,3.188,1.453
			c1.316,0.27,2.699,0.277,4.035-0.082c2.814-0.758,4.805-2.551,6.291-4.992c0.227-0.375,0.131-0.543-0.156-0.783
			C118.443,90.393,115.719,89.418,112.633,89.387 M118.73,113.201c-3.379-3.438-9.002-3.311-12.256-0.092
			C110.553,115.234,114.615,115.248,118.73,113.201"/>
		<path fill-rule="evenodd" clip-rule="evenodd" fill="#010101" d="M30.988,124.594h15.939c1.475,0,2.377,0.893,2.377,2.35
			c0,8.502-0.002,17.004-0.002,25.506c0,2.021,0.012,4.045-0.002,6.066c-0.002,0.563-0.037,1.129-0.371,1.631
			c-0.426,0.648-1.025,0.979-1.789,0.99c-1.115,0.016-2.234,0.004-3.352,0.004c-9.49,0.004-18.982,0.004-28.475,0.004
			c-1.775,0-2.625-0.836-2.617-2.623c0.012-2.445,0.037-4.893,0.02-7.334c-0.035-5.086,0.004-10.172-0.025-15.256
			c-0.014-2.736-0.002-5.475,0.006-8.213c0-0.449,0.023-0.908,0.08-1.355c0.131-1.025,1.037-1.764,2.18-1.764
			c3.547-0.01,7.092-0.002,10.639-0.002h5.393V124.594z M29.18,148.68c-0.006,0.119-0.084,0.152-0.15,0.197
			c-0.361,0.256-0.908,0.248-1.236-0.09c-0.271-0.275-0.455-0.289-0.666,0.027c-0.26,0.377-0.52,0.416-0.793,0.008
			c-0.178-0.266-0.332-0.252-0.561-0.012c-0.564,0.6-1.154,1.178-1.75,1.744c-0.18,0.172-0.156,0.27,0.008,0.424
			c0.354,0.33,0.709,0.66,1.035,1.02c1.086,1.217,2.162,2.443,3.234,3.674c0.16,0.182,0.289,0.232,0.537,0.158
			c1.275-0.377,2.514-0.846,3.709-1.424c5.82-2.824,9.471-7.459,11.334-13.588c0.076-0.256,0.051-0.398-0.158-0.576
			c-1.623-1.355-3.197-2.764-4.689-4.262c-0.164-0.164-0.242-0.188-0.414-0.01c-0.537,0.561-1.076,1.121-1.656,1.637
			c-0.352,0.313-0.32,0.527,0.021,0.783c0.193,0.146,0.313,0.27,0.059,0.516c-0.51,0.49-0.492,0.508,0.025,1.021
			c0.025,0.023,0.049,0.045,0.068,0.07c0.105,0.154,0.398,0.225,0.322,0.434c-0.08,0.225-0.361,0.252-0.58,0.297
			c-0.25,0.049-0.531-0.008-0.682-0.18c-0.396-0.445-0.656-0.227-0.93,0.115c-0.07,0.086-0.158,0.16-0.238,0.242
			c-0.576,0.588-0.572,0.584,0.027,1.168c0.129,0.129,0.414,0.229,0.328,0.428c-0.105,0.246-0.404,0.307-0.666,0.313
			c-0.229,0.004-0.49-0.033-0.633-0.201c-0.355-0.424-0.602-0.234-0.857,0.088c-0.072,0.088-0.158,0.164-0.238,0.244
			c-0.609,0.613-0.607,0.611-0.008,1.209c0.133,0.129,0.402,0.258,0.334,0.428c-0.086,0.229-0.385,0.275-0.623,0.314
			c-0.248,0.037-0.523-0.035-0.674-0.207c-0.367-0.426-0.607-0.207-0.869,0.092c-0.084,0.096-0.178,0.188-0.27,0.281
			c-0.578,0.584-0.576,0.58,0.016,1.176c0.131,0.133,0.406,0.238,0.33,0.43c-0.09,0.23-0.383,0.264-0.621,0.297
			c-0.197,0.029-0.436,0-0.553-0.135c-0.512-0.596-0.818-0.17-1.152,0.197c-0.141,0.154-0.283,0.314-0.443,0.447
			c-0.195,0.162-0.207,0.289-0.006,0.461c0.207,0.176,0.393,0.385,0.584,0.578C29.092,148.57,29.139,148.631,29.18,148.68
			 M17.939,144.986c-0.053,0.277,0.01,0.367,0.143,0.475c1.617,1.344,3.18,2.754,4.666,4.242c0.236,0.236,0.34,0.209,0.551-0.014
			c0.508-0.545,1.035-1.076,1.588-1.574c0.336-0.301,0.342-0.514-0.025-0.77c-0.197-0.137-0.316-0.27-0.063-0.518
			c0.504-0.488,0.486-0.506-0.02-1.021c-0.021-0.023-0.045-0.047-0.064-0.072c-0.109-0.162-0.42-0.248-0.313-0.473
			c0.096-0.199,0.375-0.223,0.605-0.25c0.236-0.027,0.494,0.012,0.637,0.174c0.428,0.482,0.688,0.178,0.963-0.154
			c0.051-0.061,0.113-0.113,0.172-0.17c0.594-0.6,0.584-0.594,0.012-1.209c-0.127-0.133-0.441-0.227-0.305-0.475
			c0.123-0.215,0.41-0.252,0.652-0.254c0.193,0,0.424,0.006,0.547,0.156c0.416,0.504,0.705,0.242,1-0.121
			c0.059-0.076,0.133-0.139,0.203-0.211c0.566-0.563,0.561-0.559,0.006-1.137c-0.139-0.145-0.43-0.287-0.35-0.465
			c0.113-0.262,0.441-0.299,0.723-0.303c0.18,0,0.383,0.035,0.494,0.168c0.42,0.508,0.709,0.221,1.004-0.133
			c0.053-0.061,0.115-0.113,0.172-0.17c0.615-0.607,0.611-0.605,0.004-1.213c-0.131-0.129-0.396-0.256-0.33-0.43
			c0.09-0.23,0.377-0.27,0.627-0.283c0.232-0.014,0.488,0,0.639,0.17c0.387,0.443,0.652,0.258,0.922-0.113
			c0.066-0.092,0.162-0.16,0.242-0.238c0.57-0.568,0.564-0.563,0.014-1.143c-0.139-0.145-0.455-0.262-0.33-0.506
			c0.123-0.236,0.438-0.24,0.701-0.238c0.252,0,0.494,0.064,0.656,0.264c0.244,0.293,0.439,0.227,0.627-0.049
			c0.281-0.418,0.559-0.375,0.826,0.006c0.184,0.262,0.324,0.205,0.525-0.006c0.545-0.57,1.107-1.133,1.684-1.676
			c0.232-0.217,0.223-0.342-0.002-0.564c-1.24-1.254-2.436-2.549-3.582-3.891c-0.848-0.986-0.854-1.002-2.084-0.586
			c-6.658,2.252-11.209,6.682-13.639,13.277C18.24,144.021,18.08,144.563,17.939,144.986 M25.676,156.533
			c-0.047-0.086-0.066-0.148-0.107-0.193c-1.061-1.197-2.137-2.381-3.252-3.529c-0.201-0.205-0.314-0.238-0.531-0.018
			c-0.982,1.008-1.975,2.004-2.982,2.984c-0.295,0.289-0.148,0.373,0.121,0.488c0.752,0.324,1.553,0.441,2.354,0.496
			C22.732,156.865,24.186,156.799,25.676,156.533 M44.605,137.682c0.309-2.49,0.484-4.859-0.469-7.309
			c-1.193,1.219-2.285,2.338-3.383,3.453c-0.123,0.123-0.107,0.213,0.004,0.324C41.982,135.342,43.223,136.52,44.605,137.682
			 M17.75,155.244c1.084-1.086,2.137-2.154,3.207-3.207c0.238-0.232,0.242-0.379-0.002-0.602c-0.756-0.684-1.486-1.391-2.236-2.076
			c-0.463-0.422-0.943-0.822-1.439-1.252C16.814,150.375,16.82,153.852,17.75,155.244 M36.088,129.176
			c1.197,1.379,2.334,2.617,3.51,3.818c0.137,0.141,0.221,0.186,0.383,0.025c1.1-1.098,2.207-2.184,3.395-3.352
			C40.963,128.611,38.588,128.916,36.088,129.176"/>
		<path fill-rule="evenodd" clip-rule="evenodd" fill="#010101" d="M130.979,142.873c0,5.297-0.025,10.592,0.018,15.891
			c0.012,1.268-0.949,2.396-2.4,2.391c-10.576-0.027-21.154-0.014-31.73-0.014c-1.588,0-2.434-0.84-2.434-2.434
			c-0.002-9.945,0-19.891,0-29.836c0-0.664-0.006-1.328,0-1.992c0.012-1.367,0.924-2.279,2.301-2.281
			c4.664-0.008,9.328-0.004,13.994-0.004c5.977,0,11.953,0,17.93,0c1.088,0,1.795,0.473,2.209,1.434
			c0.119,0.279,0.113,0.566,0.113,0.857V142.873z M126.18,143.607c-0.043-7.646-6.129-13.666-13.834-13.572
			c-7.404,0.09-13.291,6.074-13.336,13.512c-0.047,7.338,5.889,14.053,14.482,13.588C120.543,156.754,126.113,150.92,126.18,143.607
			"/>
		<path fill-rule="evenodd" clip-rule="evenodd" fill="#010101" d="M90.143,101.762c0,5.266-0.027,10.529,0.02,15.793
			c0.012,1.318-0.75,2.582-2.498,2.553c-0.129-0.002-0.258,0-0.389,0c-9.199,0-18.402,0.002-27.602-0.004
			c-1.271,0-2.541-0.043-3.813-0.061c-1.424-0.016-2.27-0.881-2.27-2.326v-8.941c0-7.627,0-15.256,0-22.885
			c0-1.467,0.85-2.326,2.311-2.33c2.674-0.004,5.346-0.002,8.02,0c4.986,0,9.973,0.016,14.959-0.01
			c1.615-0.008,3.234-0.002,4.85-0.016c1.486-0.018,2.979-0.021,4.467,0.035c1.064,0.039,1.938,0.986,1.941,2.105
			c0.01,2.625,0.004,5.248,0.004,7.873V101.762z M71.705,88.264c-7.66-0.004-13.994,6.311-14.016,13.955
			c-0.02,7.893,6.377,14.119,14.045,14.119c7.686,0,14.018-6.277,14.031-13.93C85.779,94.584,79.498,88.268,71.705,88.264"/>
		<path fill-rule="evenodd" clip-rule="evenodd" fill="#010101" d="M71.871,161.141c-5.264,0-10.529,0.002-15.793,0
			c-1.65,0-2.486-0.836-2.486-2.479v-31.631c0-1.578,0.855-2.438,2.428-2.438c7.564-0.004,15.129-0.006,22.693-0.006
			c2.996,0,5.992,0.002,8.988,0.006c1.582,0.004,2.438,0.848,2.438,2.434c0.006,10.611,0.006,21.219,0.004,31.83
			c0,1.383-0.91,2.283-2.285,2.283C82.531,161.143,77.201,161.143,71.871,161.141 M57.924,143.055
			c-0.029,7.766,6.361,14.229,14.352,14.1c7.637-0.125,13.818-6.453,13.826-14.066c0.01-7.748-6.285-14.102-14.008-14.115
			C64.232,128.961,57.928,135.229,57.924,143.055"/>
		<path fill-rule="evenodd" clip-rule="evenodd" fill="#010101" d="M31.783,120.107c-6.201,0-11.32,0.002-16.438-0.002
			c-0.738,0-1.453-0.082-1.992-0.695c-0.367-0.416-0.598-0.865-0.598-1.436c0.008-3.336-0.004-6.674-0.004-10.012
			c-0.002-4.936-0.002-9.873,0-14.811c0-2.461,0.051-4.92-0.016-7.377c-0.029-1.172,1.057-2.283,2.289-2.234
			c1.859,0.074,3.725,0.043,5.586,0.014c1.617-0.027,3.236-0.039,4.848-0.023c2.996,0.033,5.992,0.012,8.986,0.025
			c4.129,0.018,8.256,0.045,12.383-0.018c1.455-0.021,2.494,0.957,2.484,2.463c-0.02,2.654-0.008,5.311-0.006,7.969
			c0.002,1.115,0.016,2.234,0.014,3.352c-0.002,6.783-0.012,13.566-0.01,20.346c0,1.303-0.785,2.344-2.191,2.381
			C41.646,120.191,36.172,120.045,31.783,120.107 M45.266,101.752c-0.088-8.002-6.465-14.289-14.41-14.207
			c-7.914,0.084-14.193,6.52-14.107,14.457c0.088,7.885,6.535,14.131,14.508,14.057C39.006,115.986,45.355,109.508,45.266,101.752"
			/>
		<path fill-rule="evenodd" clip-rule="evenodd" fill="#FFFFFF" d="M102.268,94.908c2.512,3.646,5.795,6.016,10.379,5.977
			c4.594-0.039,7.83-2.473,10.322-6.176c0.547,0.691,0.959,1.449,1.299,2.244c2.158,5.014,1.01,10.568-2.932,14.359
			c-0.357,0.342-0.533,0.334-0.9,0.008c-3.277-2.928-7.027-3.932-11.291-2.65c-1.701,0.512-3.184,1.428-4.475,2.641
			c-0.268,0.252-0.4,0.232-0.652-0.01c-2.982-2.908-4.285-6.443-3.938-10.58C100.248,98.707,101.219,96.191,102.268,94.908"/>
		<path fill-rule="evenodd" clip-rule="evenodd" fill="#FFFFFF" d="M112.633,89.385c3.086,0.033,5.811,1.01,8.186,2.967
			c0.289,0.238,0.383,0.408,0.156,0.781c-1.486,2.443-3.477,4.236-6.291,4.994c-1.336,0.361-2.719,0.354-4.035,0.082
			c-1.131-0.23-2.201-0.77-3.188-1.455c-1.361-0.941-2.398-2.145-3.27-3.525c-0.184-0.291-0.146-0.453,0.113-0.68
			C106.703,90.48,109.482,89.434,112.633,89.385"/>
		<path fill-rule="evenodd" clip-rule="evenodd" fill="#FFFFFF" d="M118.73,113.201c-4.115,2.047-8.178,2.033-12.256-0.092
			C109.729,109.891,115.352,109.764,118.73,113.201"/>
		<path fill-rule="evenodd" clip-rule="evenodd" fill="#FFFFFF" d="M29.18,148.68c-0.041-0.049-0.088-0.109-0.143-0.166
			c-0.193-0.193-0.377-0.402-0.586-0.578c-0.201-0.172-0.189-0.299,0.006-0.461c0.162-0.133,0.303-0.293,0.445-0.447
			c0.332-0.367,0.639-0.793,1.15-0.197c0.117,0.135,0.355,0.164,0.553,0.135c0.238-0.033,0.531-0.066,0.621-0.297
			c0.076-0.191-0.197-0.297-0.33-0.43c-0.592-0.596-0.594-0.594-0.016-1.176c0.092-0.094,0.184-0.186,0.27-0.281
			c0.262-0.299,0.504-0.518,0.867-0.092c0.152,0.172,0.428,0.244,0.678,0.205c0.236-0.037,0.535-0.084,0.623-0.313
			c0.066-0.17-0.203-0.297-0.336-0.428c-0.6-0.598-0.604-0.596,0.008-1.209c0.082-0.08,0.168-0.156,0.238-0.244
			c0.258-0.322,0.502-0.512,0.857-0.088c0.143,0.17,0.404,0.205,0.633,0.201c0.262-0.006,0.561-0.066,0.666-0.313
			c0.086-0.199-0.199-0.299-0.328-0.426c-0.6-0.586-0.604-0.582-0.025-1.17c0.078-0.08,0.166-0.156,0.236-0.242
			c0.271-0.342,0.533-0.563,0.93-0.115c0.15,0.172,0.432,0.229,0.682,0.178c0.219-0.043,0.5-0.07,0.58-0.295
			c0.076-0.209-0.217-0.279-0.322-0.434c-0.02-0.025-0.043-0.047-0.066-0.07c-0.52-0.514-0.537-0.531-0.027-1.021
			c0.254-0.246,0.135-0.369-0.059-0.516c-0.344-0.256-0.373-0.471-0.021-0.783c0.58-0.516,1.119-1.076,1.656-1.637
			c0.172-0.178,0.25-0.154,0.414,0.01c1.492,1.496,3.066,2.906,4.689,4.262c0.209,0.178,0.232,0.318,0.156,0.576
			c-1.861,6.129-5.512,10.764-11.332,13.588c-1.195,0.578-2.434,1.047-3.709,1.424c-0.248,0.074-0.377,0.023-0.537-0.158
			c-1.074-1.23-2.148-2.457-3.236-3.674c-0.322-0.359-0.68-0.689-1.033-1.02c-0.164-0.152-0.188-0.252-0.008-0.424
			c0.596-0.566,1.186-1.145,1.75-1.744c0.227-0.24,0.385-0.254,0.559,0.012c0.273,0.408,0.535,0.369,0.793-0.008
			c0.213-0.316,0.396-0.303,0.668-0.027c0.328,0.338,0.875,0.346,1.236,0.09C29.096,148.832,29.174,148.799,29.18,148.68"/>
		<path fill-rule="evenodd" clip-rule="evenodd" fill="#FFFFFF" d="M17.939,144.984c0.141-0.422,0.301-0.963,0.498-1.494
			c2.432-6.598,6.98-11.025,13.639-13.277c1.23-0.416,1.236-0.4,2.084,0.586c1.146,1.342,2.342,2.637,3.584,3.891
			c0.223,0.223,0.232,0.348,0.002,0.564c-0.578,0.543-1.141,1.104-1.686,1.676c-0.201,0.211-0.342,0.268-0.523,0.006
			c-0.27-0.381-0.547-0.424-0.828-0.006c-0.188,0.275-0.383,0.342-0.627,0.047c-0.164-0.199-0.404-0.262-0.656-0.262
			c-0.264-0.002-0.578,0.002-0.701,0.24c-0.125,0.242,0.191,0.357,0.33,0.506c0.551,0.58,0.557,0.572-0.014,1.139
			c-0.08,0.08-0.176,0.148-0.242,0.24c-0.27,0.371-0.535,0.555-0.922,0.115c-0.15-0.172-0.406-0.186-0.639-0.172
			c-0.25,0.016-0.537,0.053-0.627,0.281c-0.066,0.174,0.199,0.303,0.33,0.434c0.607,0.604,0.611,0.602-0.004,1.211
			c-0.059,0.057-0.119,0.109-0.172,0.172c-0.295,0.352-0.584,0.639-1.004,0.131c-0.111-0.131-0.314-0.168-0.494-0.168
			c-0.281,0.004-0.607,0.041-0.725,0.301c-0.078,0.18,0.213,0.322,0.352,0.467c0.557,0.576,0.561,0.574-0.006,1.139
			c-0.07,0.068-0.143,0.133-0.203,0.209c-0.295,0.363-0.584,0.625-1,0.123c-0.123-0.152-0.354-0.158-0.547-0.158
			c-0.242,0.002-0.529,0.041-0.652,0.254c-0.137,0.248,0.178,0.34,0.305,0.475c0.572,0.615,0.582,0.609-0.012,1.207
			c-0.059,0.061-0.119,0.111-0.172,0.172c-0.275,0.332-0.535,0.639-0.963,0.154c-0.143-0.164-0.4-0.201-0.637-0.174
			c-0.23,0.027-0.51,0.051-0.605,0.25c-0.107,0.225,0.203,0.311,0.313,0.473c0.02,0.025,0.043,0.051,0.064,0.072
			c0.506,0.514,0.523,0.533,0.02,1.021c-0.254,0.248-0.135,0.381,0.063,0.518c0.367,0.254,0.361,0.469,0.025,0.77
			c-0.553,0.498-1.08,1.029-1.588,1.572c-0.211,0.225-0.314,0.252-0.551,0.016c-1.486-1.488-3.047-2.898-4.666-4.24
			C17.949,145.354,17.887,145.264,17.939,144.984"/>
		<path fill-rule="evenodd" clip-rule="evenodd" fill="#FFFFFF" d="M25.676,156.533c-1.49,0.268-2.943,0.332-4.398,0.229
			c-0.801-0.055-1.602-0.172-2.354-0.496c-0.27-0.115-0.416-0.199-0.121-0.488c1.008-0.979,2-1.977,2.982-2.982
			c0.217-0.223,0.33-0.191,0.531,0.016c1.115,1.15,2.191,2.332,3.252,3.529C25.609,156.385,25.629,156.447,25.676,156.533"/>
		<path fill-rule="evenodd" clip-rule="evenodd" fill="#FFFFFF" d="M44.605,137.682c-1.383-1.164-2.623-2.34-3.848-3.531
			c-0.111-0.111-0.127-0.201-0.006-0.324c1.1-1.115,2.191-2.234,3.385-3.453C45.09,132.824,44.914,135.191,44.605,137.682"/>
		<path fill-rule="evenodd" clip-rule="evenodd" fill="#FFFFFF" d="M17.75,155.244c-0.93-1.395-0.936-4.869-0.471-7.139
			c0.496,0.432,0.977,0.83,1.439,1.252c0.75,0.689,1.482,1.395,2.236,2.076c0.246,0.225,0.24,0.371,0.002,0.604
			C19.887,153.09,18.834,154.158,17.75,155.244"/>
		<path fill-rule="evenodd" clip-rule="evenodd" fill="#FFFFFF" d="M36.088,129.176c2.5-0.26,4.875-0.564,7.287,0.492
			c-1.188,1.168-2.295,2.254-3.395,3.352c-0.162,0.16-0.246,0.115-0.383-0.025C38.422,131.793,37.285,130.555,36.088,129.176"/>
		<path fill-rule="evenodd" clip-rule="evenodd" fill="#010101" d="M126.18,143.607c-0.064,7.314-5.637,13.146-12.686,13.527
			c-8.596,0.465-14.531-6.25-14.484-13.588c0.045-7.438,5.932-13.422,13.334-13.512C120.049,129.941,126.135,135.961,126.18,143.607
			 M100.832,146.025c0.045,0.313,0.059,0.588,0.129,0.848c0.113,0.41,0.229,0.826,0.406,1.213c1.502,3.27,3.836,5.652,7.275,6.891
			c1.703,0.613,3.457,0.805,5.229,0.609c1.746-0.193,3.404-0.748,4.922-1.674c0.422-0.258,0.43-0.438,0.008-0.725
			c-0.484-0.328-1.033-0.328-1.59-0.297c-0.447,0.027-0.854,0.215-1.297,0.316c0.26-1.385,2.084-2.506,3.561-2.215
			c0.711,0.139,1.264,0.479,1.338,1.299c2.756-2.279,4.449-6.91,3.588-10.746c-0.174,0.15-0.27,0.377-0.504,0.434
			c-0.393-2.309-1.57-3.086-3.836-2.502c-0.006-0.678,0.16-1.285,0.576-1.813c0.469-0.596,1.113-0.838,1.912-0.814
			c-0.588-0.873-1.25-1.596-1.982-2.258c-0.184-0.168-0.238-0.107-0.307,0.117c-0.145,0.479-0.453,0.836-0.906,1.061
			c-0.1-0.311-0.164-0.617-0.293-0.891c-0.666-1.416-2.234-2.057-3.695-1.594c-0.471,0.146-0.441-0.016-0.377-0.359
			c0.066-0.373,0.275-0.676,0.457-1c-4.088-1.074-8.629,0.322-11.502,3.27c1.252,0.406,1.746,1.326,1.629,2.559
			c-0.094,0.959-0.557,1.736-1.445,2.361c0.037-0.398-0.025-0.67-0.1-0.934c-0.213-0.76-0.672-1.311-1.428-1.594
			c-0.254-0.098-0.406-0.061-0.547,0.197c-0.881,1.6-1.354,3.316-1.494,5.131c-0.02,0.26,0.055,0.385,0.316,0.496
			c1.115,0.469,1.756,1.344,1.977,2.518c0.115,0.611,0.033,1.201-0.391,1.729C101.84,146.703,101.541,146.398,100.832,146.025"/>
		<path fill-rule="evenodd" clip-rule="evenodd" fill="#010101" d="M71.705,88.264c7.793,0.004,14.074,6.32,14.061,14.145
			c-0.014,7.654-6.346,13.93-14.031,13.93c-7.668,0-14.064-6.229-14.043-14.119C57.713,94.572,64.045,88.26,71.705,88.264
			 M75.965,90.318c0.021-0.012,0.047-0.023,0.072-0.037c0.002-0.002,0-0.012,0-0.02c-0.025,0.018-0.051,0.035-0.072,0.055
			c0.711,0.547,1.129,1.318,1.52,2.092c0.967,1.908,1.508,3.941,1.676,6.074c0.01,0.123-0.045,0.281,0.094,0.354
			c0.154,0.082,0.285-0.035,0.391-0.127c0.262-0.229,0.549-0.422,0.758-0.727c0.748-1.105,0.928-2.383,1.186-3.641
			c0.039-0.184-0.053-0.307-0.164-0.432c-1.42-1.619-3.127-2.832-5.143-3.607C76.17,90.26,76.066,90.236,75.965,90.318
			 M75.225,114.645c2.283-0.633,4.209-1.861,5.863-3.539c0.217-0.221,0.346-0.463,0.377-0.752c0.104-1.006,0.141-2.008-0.086-2.998
			c-0.27-1.182-0.762-2.234-1.773-2.973c-0.213-0.154-0.348-0.229-0.381,0.145c-0.084,0.977-0.234,1.943-0.406,2.912
			c-0.297,1.682-0.871,3.242-1.734,4.703c-0.531,0.895-1.24,1.65-1.926,2.426c-0.027,0.023-0.059,0.049-0.088,0.074
			C75.119,114.697,75.172,114.672,75.225,114.645 M70.26,101.965c-1.451,0.053-3.197,0.096-4.943,0.176
			c-1.986,0.094-3.971,0.236-5.939,0.537c-0.344,0.051-0.482,0.16-0.453,0.549c0.191,2.52,1.053,4.781,2.563,6.799
			c0.338,0.449,0.658,0.928,1.137,1.244c0.773,0.514,1.598,0.402,2.426,0.137c1.615-0.523,3.041-1.406,4.453-2.318
			c2.197-1.424,4.137-3.154,5.979-5.004c0.645-0.645,1.402-1.15,2.35-1.268c0.342-0.041,0.27-0.281,0.285-0.502
			c0.025-0.281-0.152-0.258-0.336-0.27c-0.402-0.02-0.805-0.072-1.209-0.076C74.566,101.961,72.561,101.965,70.26,101.965
			 M58.932,101.211c-0.055,0.242,0.012,0.359,0.406,0.283c1.191-0.234,2.406-0.322,3.613-0.408
			c4.221-0.301,8.443-0.371,12.672-0.293c0.74,0.016,1.482,0.043,2.223,0.07c0.174,0.008,0.297-0.025,0.256-0.229
			c-0.037-0.18,0.137-0.439-0.186-0.52c-0.953-0.23-1.736-0.754-2.441-1.404c-1.131-1.043-2.227-2.119-3.482-3.018
			c-1.906-1.367-3.957-2.447-6.209-3.125c-1.084-0.326-2.186-0.176-2.973,0.561C60.516,95.277,59.271,97.988,58.932,101.211
			 M64.422,112.777c0.043,0.078,0.053,0.113,0.076,0.129c2.369,1.596,4.984,2.348,7.844,2.221c0.162-0.006,0.316-0.02,0.455-0.133
			c1.064-0.854,2.063-1.77,2.861-2.885c1.688-2.359,2.205-5.066,2.387-7.881c0.02-0.283-0.098-0.242-0.281-0.188
			c-0.643,0.193-1.162,0.582-1.607,1.051c-2.025,2.119-4.277,3.953-6.77,5.494C67.844,111.541,66.27,112.434,64.422,112.777
			 M78.012,98.865c-0.078-1.283-0.283-2.475-0.617-3.643c-0.635-2.229-1.711-4.154-3.781-5.377c-0.264-0.156-0.527-0.318-0.844-0.34
			c-2.445-0.156-4.77,0.275-6.951,1.416c-0.154,0.08-0.352,0.121-0.455,0.32c0.762,0.15,1.471,0.375,2.162,0.648
			c3.199,1.254,5.961,3.16,8.385,5.578C76.496,98.057,77.137,98.566,78.012,98.865 M82.758,108.824
			c0.984-1.545,1.662-3.789,1.771-5.584c0.027-0.42-0.098-0.553-0.482-0.625c-1.402-0.256-2.818-0.377-4.24-0.461
			c-0.152-0.01-0.441-0.18-0.469,0.137c-0.023,0.268-0.133,0.576,0.301,0.748c0.834,0.33,1.449,0.947,1.943,1.695
			C82.379,105.949,82.67,107.311,82.758,108.824 M82.588,95.463c-0.119,0.49-0.201,0.916-0.326,1.328
			c-0.432,1.426-1.1,2.684-2.611,3.215c-0.4,0.143-0.352,0.383-0.344,0.668c0.008,0.346,0.279,0.254,0.463,0.27
			c1.5,0.115,3.004,0.197,4.48,0.504c0.309,0.063,0.273-0.113,0.26-0.295c-0.066-0.908-0.254-1.793-0.523-2.658
			C83.66,97.447,83.205,96.457,82.588,95.463"/>
		<path fill-rule="evenodd" clip-rule="evenodd" fill="#010101" d="M57.924,143.055c0.006-7.826,6.307-14.094,14.17-14.082
			c7.723,0.012,14.018,6.367,14.008,14.115c-0.008,7.613-6.191,13.939-13.826,14.066C64.283,157.283,57.895,150.82,57.924,143.055
			 M64.02,153.449c-0.068,0.139,0.072,0.121,0.125,0.172c0.527,0.434,1.105,0.783,1.703,1.104c1.293,0.691,2.666,1.15,4.115,1.365
			c0.115,0.018,0.293,0.145,0.375-0.064c0.078-0.203-0.25-0.781-0.477-0.828c-1.928-0.406-3.828-0.904-5.66-1.645
			c-0.035-0.09-0.119-0.082-0.193-0.092c-0.021-0.043-0.045-0.076-0.096-0.047c-0.004,0.004,0,0.033,0.01,0.041
			C63.953,153.488,63.992,153.514,64.02,153.449 M70.467,148.693c0,0.471-0.016,0.941,0.002,1.41
			c0.055,1.943,0.164,3.879,0.789,5.75c0.104,0.311,0.248,0.424,0.574,0.422c1.617-0.008,3.188-0.277,4.715-0.811
			c0.213-0.072,0.346-0.213,0.451-0.406c0.66-1.207,0.908-2.525,0.971-3.875c0.148-3.264-0.494-6.402-1.545-9.473
			c-0.102-0.299-0.234-0.301-0.49-0.23c-1.42,0.371-2.871,0.508-4.332,0.455c-0.518-0.018-0.648,0.131-0.691,0.607
			C70.725,144.592,70.5,146.635,70.467,148.693 M66.889,140.322c0.129,0.045,0.217,0.084,0.309,0.107
			c2.504,0.678,5.041,0.818,7.592,0.367c2.008-0.355,3.918-0.99,5.504-2.355c1.705-1.463,1.896-3.258,0.561-5.057
			c-0.16-0.217-0.352-0.361-0.615-0.432c-1.963-0.514-3.875-0.342-5.75,0.396c-2.191,0.861-3.92,2.35-5.455,4.088
			C68.242,138.33,67.525,139.281,66.889,140.322 M60.932,135.895c-0.576,0.916-1.027,1.783-1.342,2.713
			c-0.369,1.088-0.781,2.197-0.658,3.354c0.17,1.592,0.998,2.906,2.139,3.984c2.291,2.16,5.172,2.896,8.189,3.268
			c0.303,0.037,0.299-0.119,0.305-0.334c0.049-2.17,0.209-4.332,0.492-6.484c0.066-0.498-0.121-0.543-0.516-0.594
			c-1.951-0.244-3.842-0.727-5.594-1.654c-1.441-0.764-2.432-1.904-2.84-3.51C61.057,136.424,61.008,136.213,60.932,135.895
			 M78.217,154.676c1.271-0.611,2.789-1.828,3.781-3.002c0.428-0.504,0.871-0.992,1.016-1.666c0.203-0.947,0.396-1.9,0.396-2.875
			c0.002-2.822-1.088-5.281-2.557-7.611c-0.111-0.178-0.193-0.201-0.373-0.066c-0.922,0.699-1.947,1.209-3.039,1.582
			c-0.219,0.076-0.266,0.172-0.182,0.391c0.289,0.756,0.516,1.531,0.715,2.314C78.889,147.352,79.385,150.973,78.217,154.676
			 M78.701,131.748c-1.227-0.783-2.531-1.365-3.961-1.576c-2.686-0.391-5.035,0.441-7.146,2.084
			c-1.926,1.496-3.434,3.367-4.891,5.289c-0.168,0.223-0.063,0.346,0.061,0.5c0.723,0.896,1.699,1.412,2.744,1.842
			c0.342,0.141,0.508,0.125,0.715-0.205c0.699-1.109,1.498-2.146,2.385-3.115c1.795-1.959,3.846-3.543,6.422-4.355
			C76.223,131.838,77.447,131.711,78.701,131.748 M59.098,145.039c-0.193,0.09-0.094,0.207-0.078,0.309
			c0.242,1.516,0.771,2.934,1.549,4.256c0.309,0.521,0.547,1.121,1.07,1.477c2.418,1.652,5.133,2.559,7.975,3.146
			c0.238,0.049,0.301,0.006,0.254-0.26c-0.156-0.943-0.223-1.896-0.27-2.852c-0.047-0.936-0.061-0.934-1.012-1.082
			c-0.145-0.02-0.289-0.041-0.434-0.063c-2.402-0.387-4.693-1.07-6.701-2.516C60.52,146.785,59.787,145.924,59.098,145.039
			 M82.709,135.408c-0.033,1.117-0.367,2.113-1.09,2.949c-0.215,0.246-0.197,0.398-0.035,0.654c1.242,1.949,2.223,4.01,2.574,6.322
			c0.117,0.766,0.182,1.535,0.191,2.309C85.869,143.289,85.346,139.209,82.709,135.408 M69.055,130.252
			c-0.148-0.01-0.184-0.02-0.209-0.014c-2.762,0.711-5.061,2.164-6.928,4.311c-0.082,0.098-0.166,0.195-0.158,0.34
			c0.029,0.641,0.115,1.264,0.357,1.938C64.09,134.244,66.113,131.822,69.055,130.252"/>
		<path fill-rule="evenodd" clip-rule="evenodd" fill="#010101" d="M45.266,101.752c0.09,7.756-6.26,14.236-14.01,14.307
			c-7.973,0.074-14.42-6.174-14.508-14.057c-0.086-7.938,6.193-14.373,14.107-14.457C38.801,87.463,45.176,93.75,45.266,101.752
			 M31.928,99.998c-0.266-1.398-0.531-2.795-0.791-4.195c-0.039-0.197-0.201-0.201-0.326-0.236c-1.16-0.344-2.328-0.672-3.492-1.012
			c-0.197-0.059-0.348-0.064-0.525,0.094c-0.938,0.844-1.891,1.672-2.844,2.5c-0.143,0.123-0.221,0.24-0.211,0.449
			c0.063,1.279,0.236,2.545,0.406,3.813c0.023,0.186,0.111,0.285,0.281,0.35c1.205,0.467,2.41,0.938,3.613,1.408
			c0.178,0.072,0.328,0.07,0.488-0.068c1.066-0.918,2.141-1.826,3.215-2.734C31.861,100.264,31.959,100.17,31.928,99.998
			 M37.592,106.609c-0.152-1.225-0.305-2.316-0.416-3.41c-0.033-0.336-0.146-0.512-0.471-0.621c-1.223-0.422-2.439-0.861-3.648-1.32
			c-0.221-0.084-0.342-0.051-0.506,0.088c-1.031,0.883-2.066,1.766-3.113,2.629c-0.234,0.195-0.289,0.396-0.229,0.674
			c0.26,1.201,0.518,2.402,0.77,3.605c0.047,0.227,0.146,0.35,0.387,0.428c1.184,0.383,2.385,0.709,3.594,1.008
			c0.193,0.049,0.328,0.016,0.48-0.113c0.934-0.777,1.869-1.549,2.818-2.307C37.529,107.051,37.668,106.824,37.592,106.609
			 M31.203,88.469c-0.43,0.01-1.031-0.127-1.5,0.156c-0.814,0.494-1.553,1.102-2.326,1.662c-0.133,0.094-0.188,0.217-0.174,0.375
			c0.063,0.834,0.076,1.672,0.221,2.5c0.033,0.189,0.098,0.271,0.285,0.322c1.186,0.316,2.369,0.643,3.549,0.982
			c0.197,0.057,0.328,0.025,0.484-0.096c0.959-0.74,1.924-1.477,2.889-2.207c0.158-0.121,0.217-0.225,0.145-0.445
			c-0.275-0.826-0.533-1.66-0.766-2.502c-0.084-0.299-0.26-0.404-0.531-0.465C32.768,88.592,32.047,88.496,31.203,88.469
			 M44.361,102.238c-0.027-0.273-0.084-0.578-0.086-0.881c-0.002-0.195-0.074-0.295-0.236-0.371
			c-0.811-0.398-1.623-0.793-2.426-1.205c-0.205-0.105-0.338-0.088-0.508,0.07c-0.863,0.83-1.734,1.65-2.613,2.463
			c-0.162,0.148-0.205,0.281-0.178,0.502c0.143,1.186,0.275,2.377,0.385,3.566c0.025,0.252,0.1,0.367,0.346,0.428
			c0.721,0.176,1.438,0.373,2.152,0.566c0.285,0.074,0.514,0.039,0.734-0.197c0.578-0.607,1.186-1.191,1.781-1.783
			c0.105-0.105,0.199-0.209,0.234-0.357C44.168,104.125,44.262,103.195,44.361,102.238 M17.635,102.264
			c0,0.279-0.045,0.643,0.332,0.859c0.715,0.41,1.432,0.816,2.139,1.242c0.207,0.123,0.328,0.088,0.492-0.078
			c0.738-0.75,1.484-1.492,2.244-2.219c0.18-0.17,0.205-0.322,0.174-0.555c-0.156-1.152-0.313-2.311-0.342-3.475
			c-0.008-0.334-0.098-0.5-0.412-0.592c-0.678-0.203-1.352-0.426-2.025-0.646c-0.154-0.049-0.279-0.043-0.396,0.084
			c-0.582,0.629-1.174,1.248-1.748,1.885c-0.09,0.1-0.123,0.262-0.15,0.4C17.746,100.168,17.67,101.182,17.635,102.264
			 M31.01,115.125c0.553,0.117,1.125-0.129,1.662-0.539c0.412-0.313,0.846-0.598,1.283-0.869c0.217-0.135,0.271-0.287,0.232-0.521
			c-0.117-0.701-0.229-1.406-0.326-2.111c-0.035-0.254-0.166-0.334-0.404-0.389c-1.164-0.273-2.326-0.561-3.459-0.945
			c-0.219-0.074-0.385-0.045-0.578,0.098c-0.842,0.633-1.691,1.25-2.553,1.852c-0.209,0.145-0.223,0.266-0.141,0.477
			c0.291,0.756,0.576,1.512,0.85,2.271c0.076,0.211,0.197,0.293,0.412,0.34C28.941,115,29.9,115.117,31.01,115.125 M35.182,89.174
			c0.279,0.895,0.543,1.717,0.793,2.541c0.055,0.184,0.207,0.182,0.338,0.23c1.027,0.379,2.061,0.752,3.029,1.258
			c0.488,0.254,0.801,0.17,1.172-0.184c0.244-0.232,0.225-0.332,0.008-0.553c-0.947-0.963-2.021-1.754-3.203-2.4
			C36.664,89.705,35.986,89.389,35.182,89.174 M44.146,99.764c-0.227-1.951-1.264-4.453-2.406-5.854
			c-0.061-0.074-0.121-0.174-0.201-0.197c-0.201-0.053-0.811,0.691-0.748,0.916c0.342,1.195,0.604,2.41,0.838,3.629
			c0.035,0.178,0.107,0.289,0.268,0.369C42.631,98.994,43.361,99.367,44.146,99.764 M17.945,104.348
			c0.02,0.137,0.023,0.195,0.039,0.254c0.385,1.814,1.119,3.473,2.219,4.967c0.098,0.133,0.143,0.506,0.424,0.295
			c0.217-0.162,0.592-0.26,0.422-0.74c-0.381-1.076-0.664-2.186-0.898-3.305c-0.039-0.176-0.125-0.277-0.279-0.363
			C19.252,105.111,18.641,104.75,17.945,104.348 M21.242,110.859c1.424,1.535,3.107,2.672,5.139,3.441
			c-0.27-0.717-0.521-1.352-0.746-1.996c-0.082-0.234-0.217-0.355-0.443-0.455c-0.871-0.377-1.736-0.768-2.596-1.174
			C21.859,110.326,21.865,110.313,21.242,110.859 M25.283,89.783c1,0.227,1.744-0.137,2.404-0.879
			C26.834,89.117,26.057,89.387,25.283,89.783 M43.193,107.205c-0.768,0.574-1.342,1.145-1.211,2.146
			C42.453,108.686,42.834,108.008,43.193,107.205 M18.684,96.777c0.734-0.49,1.053-1.137,1.016-2.012
			C19.287,95.412,18.955,96.047,18.684,96.777 M36.025,114.141c-0.813-0.186-1.445,0.041-2,0.645
			C34.725,114.629,35.359,114.424,36.025,114.141"/>
		<path fill-rule="evenodd" clip-rule="evenodd" fill="#FFFFFF" d="M100.832,146.025c0.709,0.375,1.008,0.676,1.629,1.633
			c0.424-0.527,0.506-1.119,0.389-1.729c-0.219-1.174-0.859-2.049-1.977-2.52c-0.26-0.109-0.334-0.234-0.314-0.496
			c0.141-1.813,0.613-3.529,1.494-5.129c0.143-0.258,0.293-0.295,0.545-0.197c0.758,0.281,1.217,0.834,1.43,1.594
			c0.074,0.266,0.137,0.535,0.1,0.934c0.889-0.625,1.352-1.404,1.445-2.361c0.117-1.232-0.377-2.15-1.627-2.559
			c2.873-2.949,7.414-4.344,11.5-3.27c-0.182,0.324-0.391,0.627-0.457,1c-0.064,0.344-0.094,0.506,0.377,0.357
			c1.461-0.461,3.029,0.178,3.695,1.596c0.129,0.275,0.193,0.578,0.293,0.891c0.451-0.227,0.762-0.582,0.906-1.063
			c0.068-0.221,0.123-0.283,0.309-0.115c0.73,0.662,1.393,1.385,1.98,2.26c-0.801-0.025-1.443,0.217-1.912,0.811
			c-0.416,0.529-0.582,1.137-0.576,1.814c2.266-0.584,3.443,0.193,3.836,2.504c0.234-0.059,0.33-0.285,0.504-0.436
			c0.861,3.836-0.832,8.467-3.588,10.746c-0.074-0.82-0.627-1.16-1.338-1.299c-1.477-0.293-3.301,0.83-3.561,2.215
			c0.443-0.1,0.85-0.291,1.297-0.316c0.555-0.031,1.105-0.029,1.59,0.299c0.422,0.287,0.414,0.467-0.008,0.723
			c-1.516,0.926-3.176,1.482-4.922,1.674c-1.773,0.195-3.525,0.004-5.23-0.607c-3.438-1.24-5.773-3.623-7.273-6.895
			c-0.178-0.385-0.293-0.801-0.406-1.211C100.891,146.613,100.877,146.338,100.832,146.025 M116.727,143.791
			c1.211-0.639,1.74-2.264,1.191-3.662c-0.539-1.381-2.131-2.18-3.578-1.785c-1.545,0.418-2.32,1.914-2.152,2.871
			C114.475,140.221,116.492,141.557,116.727,143.791 M108.686,146.063c1.24-0.674,1.746-2.252,1.199-3.645
			c-0.533-1.355-2.018-2.166-3.365-1.83c-1.352,0.34-2.307,1.617-2.145,2.875C106.457,142.479,108.445,143.951,108.686,146.063
			 M115.641,150.527c1.232-0.648,1.764-1.965,1.336-3.236c-0.418-1.248-1.855-2.031-3.254-1.77c-1.42,0.264-2.465,1.477-2.439,2.838
			C113.902,147.744,115.385,148.473,115.641,150.527 M107.43,135c1.92-0.963,4.078-0.117,4.342,2.24
			c0.859-0.523,1.359-1.252,1.416-2.242c0.057-0.984-0.369-1.75-1.213-2.217c-1.082-0.6-2.184-0.508-3.229,0.131
			C107.992,133.371,107.514,134.029,107.43,135 M107.971,152.258c0.754-0.389,1.162-0.969,1.209-1.773
			c0.119-2.021-2.213-3.668-4.08-2.896c-0.939,0.389-1.459,1.301-1.301,2.283C105.811,149.375,107.475,150.307,107.971,152.258
			 M122.365,148.527c0.518-0.311,0.809-0.729,1.043-1.189c0.619-1.201,0.283-2.816-0.719-3.451
			c-0.762-0.484-1.559-0.494-2.352-0.086c-0.928,0.477-1.445,1.266-1.631,2.279c-0.031,0.18,0.016,0.225,0.209,0.17
			c0.273-0.078,0.563-0.113,0.844-0.16C121.059,145.881,122.416,146.666,122.365,148.527 M111.492,152.51
			c-0.652,0.01-1.176,0.107-1.66,0.352c-0.559,0.275-0.986,0.672-1.074,1.336c-0.031,0.225,0.025,0.299,0.26,0.199
			c0.654-0.283,1.344-0.219,2.006-0.09c0.605,0.119,1.254,0.234,1.607,0.857c0.07,0.125,0.158,0.064,0.25,0.037
			c0.488-0.146,0.824-0.467,0.938-0.955c0.107-0.459-0.145-0.805-0.5-1.074C112.744,152.74,112.078,152.58,111.492,152.51"/>
		<path fill-rule="evenodd" clip-rule="evenodd" fill="#FFFFFF" d="M70.26,101.965c2.301,0,4.307-0.004,6.311,0.004
			c0.404,0.004,0.807,0.059,1.209,0.076c0.184,0.012,0.361-0.012,0.336,0.27c-0.016,0.221,0.057,0.461-0.287,0.502
			c-0.943,0.117-1.703,0.623-2.348,1.268c-1.842,1.85-3.781,3.58-5.979,5.004c-1.412,0.912-2.838,1.795-4.453,2.318
			c-0.828,0.266-1.652,0.377-2.426-0.137c-0.479-0.316-0.799-0.795-1.137-1.244c-1.51-2.018-2.371-4.279-2.563-6.799
			c-0.029-0.389,0.109-0.498,0.453-0.549c1.969-0.301,3.951-0.443,5.939-0.537C67.063,102.061,68.809,102.018,70.26,101.965"/>
		<path fill-rule="evenodd" clip-rule="evenodd" fill="#FFFFFF" d="M58.932,101.211c0.338-3.223,1.584-5.934,3.879-8.082
			c0.787-0.736,1.889-0.887,2.975-0.561c2.25,0.678,4.301,1.758,6.209,3.123c1.252,0.9,2.35,1.977,3.48,3.02
			c0.705,0.65,1.488,1.174,2.439,1.404c0.326,0.08,0.148,0.34,0.186,0.52c0.043,0.203-0.082,0.236-0.254,0.229
			c-0.74-0.027-1.48-0.055-2.223-0.07c-4.229-0.078-8.453-0.008-12.67,0.293c-1.209,0.086-2.424,0.174-3.615,0.408
			C58.943,101.57,58.877,101.453,58.932,101.211"/>
		<path fill-rule="evenodd" clip-rule="evenodd" fill="#FFFFFF" d="M64.42,112.777c1.85-0.344,3.424-1.236,4.967-2.189
			c2.492-1.543,4.742-3.375,6.77-5.496c0.447-0.467,0.965-0.859,1.607-1.049c0.184-0.057,0.301-0.098,0.281,0.186
			c-0.182,2.814-0.699,5.523-2.387,7.879c-0.799,1.115-1.797,2.031-2.863,2.889c-0.137,0.109-0.291,0.125-0.453,0.133
			c-2.859,0.125-5.475-0.625-7.846-2.223C64.473,112.889,64.463,112.854,64.42,112.777"/>
		<path fill-rule="evenodd" clip-rule="evenodd" fill="#FFFFFF" d="M78.012,98.865c-0.875-0.301-1.516-0.811-2.1-1.396
			c-2.426-2.416-5.188-4.326-8.387-5.578c-0.693-0.273-1.4-0.5-2.16-0.648c0.102-0.199,0.299-0.238,0.453-0.32
			c2.18-1.141,4.506-1.574,6.949-1.414c0.318,0.02,0.582,0.182,0.848,0.338c2.068,1.223,3.145,3.148,3.779,5.375
			C77.727,96.391,77.934,97.584,78.012,98.865"/>
		<path fill-rule="evenodd" clip-rule="evenodd" fill="#FFFFFF" d="M75.158,114.566c0.686-0.771,1.395-1.527,1.924-2.424
			c0.867-1.461,1.438-3.02,1.736-4.705c0.172-0.967,0.322-1.934,0.406-2.91c0.033-0.373,0.168-0.301,0.381-0.145
			c1.012,0.738,1.504,1.791,1.773,2.971c0.227,0.992,0.189,1.994,0.086,2.998c-0.031,0.289-0.16,0.533-0.377,0.754
			c-1.656,1.678-3.58,2.906-5.865,3.537C75.201,114.617,75.178,114.592,75.158,114.566"/>
		<path fill-rule="evenodd" clip-rule="evenodd" fill="#FFFFFF" d="M75.965,90.32c0.102-0.084,0.205-0.061,0.316-0.018
			c2.016,0.775,3.723,1.99,5.143,3.607c0.111,0.125,0.203,0.248,0.164,0.432c-0.258,1.258-0.438,2.537-1.186,3.641
			c-0.209,0.307-0.496,0.498-0.758,0.727c-0.105,0.092-0.236,0.209-0.391,0.127c-0.139-0.072-0.084-0.23-0.094-0.354
			c-0.168-2.133-0.709-4.168-1.676-6.074c-0.391-0.773-0.809-1.545-1.52-2.092V90.32z"/>
		<path fill-rule="evenodd" clip-rule="evenodd" fill="#FFFFFF" d="M82.758,108.824c-0.088-1.516-0.379-2.875-1.178-4.09
			c-0.492-0.748-1.109-1.365-1.941-1.693c-0.434-0.174-0.324-0.482-0.301-0.75c0.027-0.316,0.316-0.146,0.469-0.137
			c1.42,0.084,2.836,0.203,4.24,0.461c0.385,0.07,0.51,0.205,0.482,0.625C84.42,105.035,83.744,107.279,82.758,108.824"/>
		<path fill-rule="evenodd" clip-rule="evenodd" fill="#FFFFFF" d="M82.588,95.463c0.617,0.994,1.072,1.984,1.398,3.031
			c0.27,0.865,0.457,1.75,0.523,2.658c0.014,0.182,0.049,0.357-0.26,0.295c-1.477-0.307-2.98-0.389-4.48-0.504
			c-0.184-0.016-0.455,0.076-0.463-0.27c-0.008-0.285-0.057-0.525,0.344-0.668c1.512-0.531,2.18-1.789,2.611-3.215
			C82.387,96.379,82.469,95.953,82.588,95.463"/>
		<path fill-rule="evenodd" clip-rule="evenodd" fill="#FFFFFF" d="M75.965,90.316c0.021-0.02,0.047-0.037,0.072-0.055
			c0,0.006,0.002,0.018,0,0.02c-0.025,0.014-0.051,0.025-0.072,0.037V90.316z"/>
		<path fill-rule="evenodd" clip-rule="evenodd" fill="#FFFFFF" d="M75.225,114.643c-0.053,0.029-0.105,0.055-0.154,0
			c0.029-0.025,0.061-0.051,0.088-0.074C75.18,114.592,75.201,114.617,75.225,114.643"/>
		<path fill-rule="evenodd" clip-rule="evenodd" fill="#FFFFFF" d="M70.467,148.693c0.033-2.059,0.258-4.102,0.443-6.15
			c0.045-0.477,0.176-0.625,0.691-0.607c1.461,0.053,2.912-0.084,4.332-0.455c0.256-0.068,0.389-0.066,0.49,0.23
			c1.051,3.07,1.695,6.211,1.545,9.471c-0.063,1.354-0.311,2.668-0.969,3.877c-0.109,0.193-0.242,0.332-0.453,0.406
			c-1.527,0.535-3.098,0.801-4.715,0.811c-0.326,0.002-0.471-0.109-0.576-0.424c-0.623-1.869-0.73-3.805-0.789-5.748
			C70.453,149.633,70.467,149.164,70.467,148.693"/>
		<path fill-rule="evenodd" clip-rule="evenodd" fill="#FFFFFF" d="M66.889,140.322c0.637-1.041,1.354-1.99,2.145-2.887
			c1.537-1.736,3.264-3.223,5.455-4.088c1.875-0.736,3.787-0.908,5.75-0.393c0.264,0.068,0.455,0.215,0.613,0.43
			c1.338,1.799,1.146,3.592-0.559,5.057c-1.584,1.363-3.496,2-5.504,2.355c-2.551,0.451-5.086,0.311-7.592-0.367
			C67.105,140.406,67.018,140.367,66.889,140.322"/>
		<path fill-rule="evenodd" clip-rule="evenodd" fill="#FFFFFF" d="M60.932,135.895c0.074,0.318,0.125,0.529,0.176,0.742
			c0.408,1.607,1.398,2.746,2.84,3.508c1.752,0.932,3.643,1.412,5.594,1.656c0.395,0.049,0.582,0.096,0.516,0.594
			c-0.283,2.152-0.441,4.314-0.492,6.484c-0.006,0.213-0.002,0.371-0.307,0.334c-3.016-0.371-5.896-1.109-8.186-3.268
			c-1.143-1.078-1.971-2.393-2.141-3.984c-0.123-1.158,0.289-2.264,0.658-3.354C59.904,137.678,60.354,136.811,60.932,135.895"/>
		<path fill-rule="evenodd" clip-rule="evenodd" fill="#FFFFFF" d="M78.217,154.676c1.166-3.703,0.672-7.324-0.242-10.934
			c-0.199-0.783-0.426-1.559-0.715-2.316c-0.084-0.217-0.037-0.313,0.182-0.389c1.092-0.373,2.117-0.883,3.041-1.582
			c0.178-0.135,0.26-0.111,0.371,0.066c1.469,2.33,2.559,4.789,2.559,7.611c0,0.977-0.195,1.928-0.398,2.875
			c-0.143,0.672-0.588,1.162-1.016,1.666C81.006,152.848,79.488,154.064,78.217,154.676"/>
		<path fill-rule="evenodd" clip-rule="evenodd" fill="#FFFFFF" d="M78.701,131.748c-1.254-0.037-2.479,0.09-3.672,0.463
			c-2.576,0.813-4.627,2.395-6.422,4.355c-0.887,0.969-1.686,2.006-2.385,3.115c-0.207,0.33-0.373,0.346-0.715,0.205
			c-1.047-0.43-2.021-0.945-2.744-1.842c-0.123-0.154-0.229-0.277-0.061-0.498c1.457-1.924,2.965-3.795,4.891-5.289
			c2.111-1.645,4.461-2.477,7.146-2.084C76.17,130.383,77.475,130.967,78.701,131.748"/>
		<path fill-rule="evenodd" clip-rule="evenodd" fill="#FFFFFF" d="M59.098,145.039c0.689,0.887,1.422,1.746,2.354,2.416
			c2.008,1.445,4.299,2.129,6.701,2.516c0.145,0.021,0.289,0.043,0.434,0.063c0.951,0.148,0.965,0.146,1.012,1.082
			c0.047,0.955,0.113,1.908,0.27,2.852c0.047,0.266-0.016,0.309-0.254,0.26c-2.842-0.588-5.557-1.496-7.975-3.146
			c-0.523-0.355-0.762-0.955-1.07-1.477c-0.777-1.322-1.307-2.74-1.549-4.256C59.004,145.246,58.904,145.129,59.098,145.039"/>
		<path fill-rule="evenodd" clip-rule="evenodd" fill="#FFFFFF" d="M82.711,135.408c2.635,3.801,3.16,7.881,1.639,12.232
			c-0.012-0.771-0.074-1.543-0.189-2.305c-0.354-2.314-1.332-4.373-2.574-6.324c-0.164-0.256-0.184-0.408,0.033-0.654
			C82.342,137.521,82.674,136.525,82.711,135.408"/>
		<path fill-rule="evenodd" clip-rule="evenodd" fill="#FFFFFF" d="M69.055,130.252c-2.941,1.57-4.965,3.992-6.938,6.574
			c-0.242-0.674-0.328-1.297-0.357-1.938c-0.008-0.145,0.076-0.242,0.158-0.34c1.867-2.146,4.166-3.6,6.928-4.311
			C68.871,130.232,68.906,130.242,69.055,130.252"/>
		<path fill-rule="evenodd" clip-rule="evenodd" fill="#FFFFFF" d="M64.201,153.553c1.832,0.74,3.732,1.238,5.66,1.645
			c0.225,0.047,0.555,0.625,0.475,0.83c-0.08,0.207-0.258,0.08-0.375,0.063c-1.447-0.215-2.82-0.674-4.113-1.367
			c-0.598-0.316-1.176-0.668-1.703-1.102C64.164,153.598,64.184,153.574,64.201,153.553"/>
		<path fill-rule="evenodd" clip-rule="evenodd" fill="#FFFFFF" d="M64.02,153.447c-0.027,0.064-0.064,0.041-0.098,0.01
			c-0.01-0.01-0.014-0.037-0.01-0.041c0.051-0.031,0.074,0.002,0.094,0.045L64.02,153.447z"/>
		<path fill-rule="evenodd" clip-rule="evenodd" fill="#FFFFFF" d="M64.006,153.461c0.076,0.01,0.16,0.002,0.195,0.092
			c-0.018,0.021-0.037,0.047-0.055,0.068c-0.055-0.051-0.193-0.033-0.127-0.172C64.02,153.447,64.006,153.461,64.006,153.461"/>
		<path fill-rule="evenodd" clip-rule="evenodd" fill="#FFFFFF" d="M31.928,99.998c0.031,0.174-0.066,0.266-0.186,0.367
			c-1.074,0.908-2.148,1.818-3.213,2.736c-0.162,0.137-0.311,0.139-0.49,0.066c-1.203-0.471-2.408-0.939-3.613-1.406
			c-0.168-0.066-0.258-0.166-0.283-0.354c-0.168-1.266-0.342-2.531-0.404-3.809c-0.012-0.209,0.068-0.328,0.211-0.451
			c0.953-0.83,1.906-1.658,2.844-2.5c0.178-0.158,0.328-0.152,0.525-0.092c1.164,0.338,2.332,0.668,3.492,1.01
			c0.125,0.037,0.287,0.039,0.326,0.238C31.395,97.203,31.662,98.602,31.928,99.998"/>
		<path fill-rule="evenodd" clip-rule="evenodd" fill="#FFFFFF" d="M37.594,106.607c0.076,0.215-0.064,0.443-0.336,0.662
			c-0.949,0.756-1.885,1.529-2.818,2.307c-0.154,0.129-0.287,0.16-0.48,0.113c-1.209-0.299-2.408-0.625-3.594-1.008
			c-0.238-0.078-0.34-0.201-0.387-0.428c-0.252-1.203-0.51-2.404-0.771-3.605c-0.059-0.275-0.006-0.479,0.229-0.674
			c1.047-0.865,2.082-1.746,3.117-2.629c0.162-0.139,0.283-0.172,0.506-0.088c1.207,0.459,2.424,0.898,3.646,1.32
			c0.324,0.109,0.438,0.283,0.471,0.619C37.287,104.295,37.438,105.385,37.594,106.607"/>
		<path fill-rule="evenodd" clip-rule="evenodd" fill="#FFFFFF" d="M31.203,88.469c0.844,0.025,1.563,0.123,2.275,0.283
			c0.271,0.063,0.449,0.166,0.531,0.465c0.232,0.842,0.49,1.678,0.764,2.502c0.074,0.221,0.016,0.324-0.143,0.445
			c-0.965,0.732-1.93,1.467-2.889,2.207c-0.156,0.121-0.287,0.152-0.484,0.096c-1.18-0.34-2.363-0.666-3.549-0.982
			c-0.188-0.051-0.252-0.131-0.285-0.322c-0.145-0.828-0.158-1.668-0.221-2.502c-0.016-0.156,0.043-0.279,0.174-0.373
			c0.771-0.559,1.514-1.17,2.326-1.662C30.172,88.342,30.773,88.479,31.203,88.469"/>
		<path fill-rule="evenodd" clip-rule="evenodd" fill="#FFFFFF" d="M44.361,102.236c-0.1,0.957-0.193,1.891-0.414,2.803
			c-0.035,0.148-0.127,0.254-0.234,0.357c-0.596,0.59-1.203,1.174-1.781,1.783c-0.221,0.236-0.449,0.271-0.734,0.197
			c-0.715-0.193-1.432-0.391-2.152-0.566c-0.246-0.061-0.32-0.176-0.346-0.428c-0.109-1.191-0.242-2.379-0.385-3.566
			c-0.027-0.221,0.016-0.352,0.178-0.502c0.879-0.811,1.75-1.633,2.613-2.463c0.17-0.16,0.303-0.176,0.508-0.072
			c0.803,0.412,1.615,0.809,2.426,1.205c0.162,0.078,0.234,0.178,0.236,0.373C44.279,101.66,44.334,101.965,44.361,102.236"/>
		<path fill-rule="evenodd" clip-rule="evenodd" fill="#FFFFFF" d="M17.637,102.264c0.033-1.082,0.109-2.096,0.305-3.094
			c0.027-0.139,0.063-0.303,0.15-0.4c0.576-0.637,1.166-1.256,1.75-1.885c0.117-0.127,0.24-0.133,0.395-0.084
			c0.674,0.221,1.348,0.443,2.027,0.646c0.311,0.092,0.402,0.258,0.412,0.592c0.027,1.164,0.184,2.322,0.34,3.475
			c0.031,0.23,0.006,0.387-0.174,0.555c-0.76,0.727-1.506,1.469-2.242,2.217c-0.166,0.168-0.287,0.203-0.494,0.08
			c-0.707-0.424-1.424-0.832-2.139-1.242C17.59,102.906,17.637,102.543,17.637,102.264"/>
		<path fill-rule="evenodd" clip-rule="evenodd" fill="#FFFFFF" d="M31.01,115.125c-1.109-0.008-2.068-0.125-3.021-0.338
			c-0.215-0.049-0.336-0.131-0.412-0.34c-0.273-0.76-0.559-1.516-0.852-2.27c-0.082-0.213-0.066-0.334,0.143-0.48
			c0.861-0.6,1.711-1.217,2.553-1.848c0.193-0.146,0.359-0.172,0.578-0.1c1.135,0.385,2.295,0.672,3.459,0.943
			c0.238,0.057,0.369,0.137,0.406,0.391c0.096,0.705,0.207,1.408,0.322,2.109c0.041,0.236-0.014,0.389-0.23,0.523
			c-0.439,0.271-0.871,0.557-1.281,0.869C32.135,114.994,31.563,115.24,31.01,115.125"/>
		<path fill-rule="evenodd" clip-rule="evenodd" fill="#FFFFFF" d="M35.182,89.174c0.805,0.215,1.482,0.531,2.137,0.893
			c1.18,0.646,2.256,1.438,3.203,2.4c0.217,0.221,0.236,0.32-0.006,0.553c-0.373,0.354-0.686,0.438-1.172,0.184
			c-0.971-0.506-2.004-0.881-3.031-1.258c-0.131-0.049-0.283-0.047-0.338-0.23C35.725,90.891,35.463,90.068,35.182,89.174"/>
		<path fill-rule="evenodd" clip-rule="evenodd" fill="#FFFFFF" d="M44.146,99.764c-0.785-0.396-1.516-0.77-2.25-1.137
			c-0.16-0.08-0.232-0.191-0.268-0.369c-0.234-1.219-0.496-2.434-0.838-3.629c-0.063-0.225,0.545-0.969,0.748-0.916
			c0.08,0.023,0.143,0.123,0.201,0.197C42.883,95.311,43.92,97.813,44.146,99.764"/>
		<path fill-rule="evenodd" clip-rule="evenodd" fill="#FFFFFF" d="M17.945,104.348c0.695,0.402,1.307,0.764,1.926,1.107
			c0.154,0.086,0.24,0.188,0.279,0.363c0.234,1.121,0.518,2.229,0.898,3.305c0.17,0.48-0.205,0.578-0.422,0.74
			c-0.281,0.211-0.326-0.162-0.424-0.295c-1.1-1.494-1.834-3.152-2.219-4.967C17.969,104.543,17.965,104.484,17.945,104.348"/>
		<path fill-rule="evenodd" clip-rule="evenodd" fill="#FFFFFF" d="M21.242,110.859c0.623-0.547,0.617-0.533,1.354-0.184
			c0.859,0.406,1.725,0.797,2.596,1.174c0.225,0.098,0.361,0.221,0.443,0.455c0.225,0.645,0.477,1.281,0.748,1.996
			C24.35,113.529,22.666,112.395,21.242,110.859"/>
		<path fill-rule="evenodd" clip-rule="evenodd" fill="#FFFFFF" d="M25.283,89.783c0.773-0.396,1.551-0.666,2.402-0.881
			C27.029,89.646,26.283,90.012,25.283,89.783"/>
		<path fill-rule="evenodd" clip-rule="evenodd" fill="#FFFFFF" d="M43.191,107.205c-0.357,0.803-0.736,1.48-1.209,2.146
			C41.852,108.35,42.426,107.777,43.191,107.205"/>
		<path fill-rule="evenodd" clip-rule="evenodd" fill="#FFFFFF" d="M18.684,96.775c0.271-0.729,0.604-1.361,1.016-2.01
			C19.736,95.641,19.418,96.287,18.684,96.775"/>
		<path fill-rule="evenodd" clip-rule="evenodd" fill="#FFFFFF" d="M36.025,114.141c-0.666,0.283-1.301,0.488-2,0.645
			C34.58,114.182,35.213,113.955,36.025,114.141"/>
		<path fill-rule="evenodd" clip-rule="evenodd" fill="#010101" d="M116.727,143.791c-0.234-2.234-2.25-3.568-4.539-2.576
			c-0.166-0.957,0.607-2.453,2.152-2.871c1.447-0.395,3.039,0.404,3.578,1.785C118.467,141.527,117.938,143.15,116.727,143.791"/>
		<path fill-rule="evenodd" clip-rule="evenodd" fill="#010101" d="M108.686,146.063c-0.24-2.111-2.229-3.584-4.313-2.6
			c-0.16-1.256,0.795-2.535,2.146-2.875c1.348-0.336,2.834,0.473,3.365,1.83C110.432,143.809,109.926,145.389,108.686,146.063"/>
		<path fill-rule="evenodd" clip-rule="evenodd" fill="#010101" d="M115.641,150.525c-0.256-2.053-1.738-2.781-4.357-2.166
			c-0.025-1.361,1.02-2.574,2.439-2.84c1.398-0.26,2.836,0.525,3.254,1.773C117.404,148.561,116.873,149.881,115.641,150.525"/>
		<path fill-rule="evenodd" clip-rule="evenodd" fill="#010101" d="M107.43,135c0.084-0.971,0.563-1.629,1.316-2.088
			c1.045-0.639,2.146-0.729,3.229-0.131c0.844,0.467,1.27,1.234,1.213,2.217c-0.057,0.99-0.557,1.719-1.416,2.242
			C111.508,134.885,109.35,134.037,107.43,135"/>
		<path fill-rule="evenodd" clip-rule="evenodd" fill="#010101" d="M107.971,152.258c-0.496-1.951-2.158-2.883-4.172-2.387
			c-0.156-0.982,0.361-1.895,1.301-2.283c1.867-0.771,4.199,0.875,4.08,2.896C109.133,151.289,108.725,151.869,107.971,152.258"/>
		<path fill-rule="evenodd" clip-rule="evenodd" fill="#010101" d="M122.365,148.527c0.051-1.859-1.307-2.646-2.605-2.438
			c-0.281,0.047-0.568,0.084-0.844,0.162c-0.193,0.053-0.24,0.008-0.209-0.172c0.188-1.016,0.703-1.803,1.633-2.279
			c0.791-0.41,1.588-0.4,2.35,0.086c1.002,0.635,1.338,2.25,0.719,3.453C123.176,147.799,122.883,148.217,122.365,148.527"/>
		<path fill-rule="evenodd" clip-rule="evenodd" fill="#010101" d="M111.492,152.51c0.586,0.07,1.252,0.23,1.826,0.662
			c0.355,0.27,0.607,0.615,0.5,1.074c-0.113,0.488-0.449,0.809-0.938,0.955c-0.092,0.027-0.18,0.088-0.25-0.037
			c-0.354-0.623-1.002-0.738-1.607-0.857c-0.662-0.129-1.352-0.193-2.006,0.09c-0.234,0.1-0.291,0.025-0.26-0.199
			c0.088-0.664,0.516-1.061,1.074-1.336C110.316,152.617,110.84,152.52,111.492,152.51"/>
	</g>
</g>
</svg>
