<?xml version="1.0" encoding="utf-8"?>
<!-- Generator: Adobe Illustrator 16.0.0, SVG Export Plug-In . SVG Version: 6.00 Build 0)  -->
<!DOCTYPE svg PUBLIC "-//W3C//DTD SVG 1.1//EN" "http://www.w3.org/Graphics/SVG/1.1/DTD/svg11.dtd">
<svg version="1.1" id="Layer_1" xmlns="http://www.w3.org/2000/svg" xmlns:xlink="http://www.w3.org/1999/xlink" x="0px" y="0px"
	 width="142px" height="177.242px" viewBox="0 0 142 177.242" enable-background="new 0 0 142 177.242" xml:space="preserve">
<g>
	<g>
		<path fill-rule="evenodd" clip-rule="evenodd" fill="#FFFFFF" d="M141,166c0,5.523-4.477,10-10,10H11c-5.523,0-10-4.477-10-10V76
			c0-5.523,4.477-10,10-10h120c5.523,0,10,4.477,10,10V166z"/>
		<path fill="none" stroke="#000000" stroke-width="2" stroke-miterlimit="10" d="M141,166c0,5.523-4.477,10-10,10H11
			c-5.523,0-10-4.477-10-10V76c0-5.523,4.477-10,10-10h120c5.523,0,10,4.477,10,10V166z"/>
	</g>
	<g>
		<path fill="#1A1A1A" d="M43.93,14.151h-7.031v7.263h-3.662V3.641h11.572v2.966h-7.91v4.59h7.031V14.151z"/>
		<path fill="#1A1A1A" d="M46.676,4.789c0-0.529,0.178-0.964,0.531-1.306c0.354-0.342,0.836-0.513,1.447-0.513
			c0.301,0,0.573,0.045,0.817,0.134c0.244,0.09,0.452,0.216,0.622,0.378c0.172,0.163,0.304,0.356,0.397,0.58
			c0.093,0.224,0.14,0.466,0.14,0.727c0,0.269-0.047,0.515-0.14,0.738c-0.094,0.224-0.226,0.417-0.397,0.58
			c-0.17,0.163-0.378,0.289-0.622,0.378c-0.244,0.09-0.517,0.134-0.817,0.134c-0.302,0-0.574-0.044-0.818-0.134
			c-0.244-0.089-0.451-0.215-0.623-0.378c-0.17-0.163-0.303-0.356-0.396-0.58C46.723,5.303,46.676,5.057,46.676,4.789z
			 M50.424,21.415h-3.54V8.207h3.54V21.415z"/>
		<path fill="#1A1A1A" d="M57.552,4.959v3.247h2.259v2.588h-2.259v6.592c0,0.277,0.029,0.505,0.086,0.684
			c0.057,0.179,0.143,0.319,0.256,0.421c0.114,0.102,0.255,0.171,0.422,0.208c0.166,0.036,0.364,0.055,0.592,0.055
			c0.212,0,0.404-0.008,0.58-0.024c0.175-0.016,0.327-0.037,0.457-0.061v2.673c-0.293,0.089-0.612,0.165-0.958,0.226
			c-0.346,0.062-0.738,0.092-1.178,0.092c-0.578,0-1.099-0.071-1.563-0.214c-0.464-0.142-0.86-0.368-1.19-0.677
			c-0.329-0.309-0.584-0.712-0.763-1.208c-0.179-0.496-0.269-1.094-0.269-1.794v-6.97h-1.929V8.207h1.929V4.959H57.552z"/>
		<path fill="#1A1A1A" d="M65.022,8.207l0.11,1.526c0.456-0.569,1.005-1.007,1.647-1.312c0.644-0.306,1.359-0.458,2.148-0.458
			c0.627,0,1.197,0.087,1.709,0.263c0.514,0.175,0.953,0.462,1.318,0.86c0.367,0.399,0.649,0.92,0.849,1.563
			c0.199,0.643,0.3,1.433,0.3,2.368v8.398h-3.528v-8.423c0-0.423-0.047-0.773-0.141-1.05c-0.094-0.276-0.229-0.496-0.409-0.659
			c-0.179-0.163-0.398-0.279-0.658-0.348c-0.261-0.069-0.563-0.104-0.904-0.104c-0.521,0-0.966,0.114-1.336,0.342
			c-0.371,0.228-0.67,0.537-0.897,0.928v9.314h-3.528V8.207H65.022z"/>
		<path fill="#1A1A1A" d="M81.856,21.659c-1.025,0-1.942-0.167-2.752-0.5c-0.811-0.333-1.498-0.789-2.063-1.367
			c-0.565-0.578-0.997-1.255-1.294-2.033c-0.297-0.777-0.445-1.609-0.445-2.496v-0.476c0-1.001,0.145-1.918,0.434-2.752
			c0.288-0.834,0.699-1.552,1.232-2.155c0.533-0.602,1.18-1.072,1.941-1.41c0.761-0.338,1.613-0.507,2.557-0.507
			c0.953,0,1.791,0.157,2.516,0.47c0.724,0.313,1.332,0.753,1.824,1.318c0.492,0.566,0.862,1.248,1.111,2.045
			c0.248,0.798,0.372,1.685,0.372,2.661v1.501h-8.411c0.058,0.432,0.173,0.822,0.349,1.172c0.175,0.35,0.398,0.649,0.671,0.897
			c0.272,0.249,0.592,0.442,0.959,0.58c0.365,0.139,0.776,0.208,1.232,0.208c0.643,0,1.237-0.12,1.782-0.36
			c0.545-0.24,1.013-0.612,1.403-1.117l1.734,1.941c-0.212,0.301-0.477,0.594-0.794,0.879c-0.317,0.285-0.691,0.539-1.123,0.763
			c-0.432,0.224-0.918,0.402-1.459,0.537C83.092,21.591,82.5,21.659,81.856,21.659z M81.454,10.819
			c-0.383,0-0.719,0.067-1.007,0.201c-0.289,0.135-0.537,0.322-0.745,0.562c-0.207,0.24-0.376,0.527-0.506,0.861
			c-0.131,0.334-0.225,0.704-0.281,1.111h4.907v-0.281c-0.008-0.35-0.06-0.675-0.152-0.977c-0.094-0.301-0.236-0.562-0.428-0.781
			s-0.436-0.391-0.732-0.513S81.861,10.819,81.454,10.819z"/>
		<path fill="#1A1A1A" d="M96.444,17.765c0-0.187-0.036-0.358-0.109-0.513c-0.073-0.154-0.212-0.299-0.415-0.433
			c-0.203-0.135-0.48-0.263-0.83-0.385s-0.802-0.24-1.354-0.354c-0.676-0.146-1.301-0.33-1.874-0.549
			c-0.574-0.22-1.07-0.492-1.489-0.818c-0.42-0.325-0.747-0.704-0.982-1.135c-0.236-0.431-0.354-0.932-0.354-1.501
			c0-0.553,0.12-1.078,0.36-1.575c0.239-0.496,0.586-0.934,1.037-1.313c0.452-0.378,1.005-0.677,1.66-0.897s1.394-0.33,2.216-0.33
			c0.854,0,1.624,0.106,2.308,0.317c0.684,0.212,1.263,0.507,1.739,0.885c0.476,0.379,0.842,0.829,1.099,1.349
			c0.256,0.521,0.385,1.091,0.385,1.709h-3.528c0-0.504-0.163-0.921-0.488-1.251c-0.325-0.329-0.834-0.494-1.526-0.494
			c-0.594,0-1.054,0.134-1.379,0.403s-0.488,0.61-0.488,1.025c0,0.195,0.043,0.368,0.128,0.519c0.086,0.15,0.224,0.289,0.415,0.415
			c0.191,0.126,0.443,0.242,0.757,0.348c0.313,0.106,0.698,0.204,1.153,0.293c0.717,0.139,1.38,0.31,1.99,0.513
			c0.61,0.204,1.137,0.466,1.581,0.787c0.443,0.322,0.791,0.712,1.044,1.172c0.252,0.46,0.378,1.016,0.378,1.667
			c0,0.586-0.13,1.125-0.391,1.618c-0.261,0.492-0.633,0.917-1.117,1.275c-0.484,0.358-1.067,0.639-1.751,0.842
			s-1.449,0.305-2.295,0.305c-0.928,0-1.746-0.13-2.454-0.391s-1.305-0.602-1.788-1.025c-0.484-0.423-0.849-0.899-1.093-1.428
			c-0.244-0.529-0.366-1.062-0.366-1.599h3.345c0.017,0.342,0.092,0.637,0.226,0.885c0.135,0.249,0.312,0.45,0.531,0.604
			c0.22,0.155,0.474,0.269,0.763,0.342s0.593,0.11,0.909,0.11c0.676,0,1.187-0.128,1.532-0.384
			C96.271,18.515,96.444,18.18,96.444,17.765z"/>
		<path fill="#1A1A1A" d="M109.298,17.765c0-0.187-0.036-0.358-0.109-0.513c-0.073-0.154-0.212-0.299-0.415-0.433
			c-0.203-0.135-0.48-0.263-0.83-0.385s-0.802-0.24-1.354-0.354c-0.676-0.146-1.301-0.33-1.874-0.549
			c-0.574-0.22-1.07-0.492-1.489-0.818c-0.42-0.325-0.747-0.704-0.982-1.135c-0.236-0.431-0.354-0.932-0.354-1.501
			c0-0.553,0.12-1.078,0.36-1.575c0.239-0.496,0.586-0.934,1.037-1.313c0.452-0.378,1.005-0.677,1.66-0.897s1.394-0.33,2.216-0.33
			c0.854,0,1.624,0.106,2.308,0.317c0.684,0.212,1.263,0.507,1.739,0.885c0.476,0.379,0.842,0.829,1.099,1.349
			c0.256,0.521,0.385,1.091,0.385,1.709h-3.528c0-0.504-0.163-0.921-0.488-1.251c-0.325-0.329-0.834-0.494-1.526-0.494
			c-0.594,0-1.054,0.134-1.379,0.403s-0.488,0.61-0.488,1.025c0,0.195,0.043,0.368,0.128,0.519c0.086,0.15,0.224,0.289,0.415,0.415
			c0.191,0.126,0.443,0.242,0.757,0.348c0.313,0.106,0.698,0.204,1.153,0.293c0.717,0.139,1.38,0.31,1.99,0.513
			c0.61,0.204,1.137,0.466,1.581,0.787c0.443,0.322,0.791,0.712,1.044,1.172c0.252,0.46,0.378,1.016,0.378,1.667
			c0,0.586-0.13,1.125-0.391,1.618c-0.261,0.492-0.633,0.917-1.117,1.275c-0.484,0.358-1.067,0.639-1.751,0.842
			s-1.449,0.305-2.295,0.305c-0.928,0-1.746-0.13-2.454-0.391s-1.305-0.602-1.788-1.025c-0.484-0.423-0.849-0.899-1.093-1.428
			c-0.244-0.529-0.366-1.062-0.366-1.599h3.345c0.017,0.342,0.092,0.637,0.226,0.885c0.135,0.249,0.312,0.45,0.531,0.604
			c0.22,0.155,0.474,0.269,0.763,0.342s0.593,0.11,0.909,0.11c0.676,0,1.187-0.128,1.532-0.384
			C109.125,18.515,109.298,18.18,109.298,17.765z"/>
		<path fill="#1A1A1A" d="M40.694,44.751c0-0.309-0.044-0.588-0.134-0.836c-0.09-0.249-0.263-0.478-0.519-0.69
			c-0.257-0.211-0.61-0.419-1.063-0.623c-0.451-0.203-1.035-0.419-1.752-0.647c-0.813-0.26-1.58-0.553-2.301-0.879
			c-0.72-0.325-1.351-0.71-1.892-1.154c-0.542-0.443-0.969-0.954-1.282-1.532c-0.313-0.578-0.47-1.253-0.47-2.026
			c0-0.74,0.16-1.418,0.482-2.033c0.321-0.614,0.772-1.137,1.354-1.568c0.582-0.431,1.273-0.767,2.075-1.007
			c0.802-0.24,1.683-0.36,2.644-0.36c0.984,0,1.879,0.136,2.686,0.409c0.805,0.272,1.493,0.653,2.063,1.141s1.009,1.068,1.318,1.74
			c0.31,0.671,0.464,1.406,0.464,2.203h-3.662c0-0.374-0.06-0.72-0.177-1.038c-0.118-0.317-0.299-0.59-0.543-0.818
			c-0.244-0.228-0.55-0.405-0.916-0.531c-0.366-0.126-0.798-0.189-1.294-0.189c-0.48,0-0.897,0.053-1.251,0.159
			c-0.354,0.106-0.647,0.252-0.879,0.439c-0.232,0.188-0.407,0.407-0.525,0.659c-0.118,0.252-0.177,0.521-0.177,0.806
			c0,0.586,0.299,1.076,0.897,1.471c0.598,0.395,1.475,0.763,2.631,1.105c0.968,0.301,1.82,0.635,2.557,1.001
			s1.351,0.781,1.844,1.245c0.492,0.464,0.864,0.985,1.117,1.563c0.252,0.578,0.378,1.233,0.378,1.965
			c0,0.781-0.152,1.477-0.458,2.087c-0.305,0.61-0.738,1.125-1.3,1.544c-0.562,0.419-1.239,0.74-2.032,0.964
			c-0.794,0.224-1.679,0.336-2.655,0.336c-0.586,0-1.172-0.051-1.758-0.152c-0.586-0.102-1.146-0.258-1.679-0.47
			c-0.533-0.211-1.027-0.476-1.482-0.793c-0.456-0.317-0.854-0.691-1.19-1.123c-0.338-0.431-0.603-0.922-0.794-1.471
			c-0.191-0.55-0.287-1.158-0.287-1.825h3.675c0,0.537,0.085,0.993,0.257,1.367c0.17,0.375,0.408,0.678,0.714,0.909
			c0.305,0.232,0.673,0.401,1.104,0.507c0.432,0.106,0.911,0.159,1.44,0.159c0.472,0,0.883-0.051,1.233-0.153
			c0.35-0.102,0.639-0.242,0.866-0.421c0.228-0.179,0.396-0.393,0.507-0.641C40.64,45.303,40.694,45.037,40.694,44.751z"/>
		<path fill="#1A1A1A" d="M50.839,32.959v3.247h2.259v2.588h-2.259v6.592c0,0.277,0.029,0.505,0.086,0.684
			c0.057,0.179,0.143,0.319,0.256,0.421c0.114,0.102,0.255,0.171,0.422,0.208c0.166,0.036,0.364,0.055,0.592,0.055
			c0.212,0,0.404-0.008,0.58-0.024c0.175-0.016,0.327-0.037,0.457-0.061v2.673c-0.293,0.089-0.612,0.165-0.958,0.226
			c-0.346,0.062-0.738,0.092-1.178,0.092c-0.578,0-1.099-0.071-1.563-0.214c-0.464-0.142-0.86-0.368-1.19-0.677
			c-0.329-0.309-0.584-0.712-0.763-1.208c-0.179-0.496-0.269-1.094-0.269-1.794v-6.97h-1.929v-2.588h1.929v-3.247H50.839z"/>
		<path fill="#1A1A1A" d="M62.974,48.072c-0.416,0.505-0.92,0.896-1.514,1.172c-0.595,0.276-1.295,0.415-2.1,0.415
			c-0.651,0-1.246-0.092-1.783-0.274c-0.537-0.184-0.999-0.472-1.385-0.867c-0.387-0.395-0.686-0.903-0.897-1.525
			c-0.212-0.623-0.317-1.369-0.317-2.24v-8.545h3.527v8.569c0,0.366,0.047,0.68,0.141,0.94c0.094,0.261,0.224,0.47,0.391,0.628
			c0.167,0.159,0.364,0.275,0.592,0.348c0.229,0.073,0.48,0.11,0.758,0.11c0.635,0,1.151-0.11,1.55-0.33s0.704-0.525,0.915-0.916
			v-9.351h3.541v13.208h-3.32L62.974,48.072z"/>
		<path fill="#1A1A1A" d="M68.503,42.713c0-1.001,0.116-1.917,0.348-2.747c0.232-0.83,0.567-1.542,1.007-2.136
			c0.439-0.594,0.981-1.054,1.624-1.379c0.643-0.325,1.375-0.488,2.197-0.488c0.676,0,1.275,0.126,1.801,0.378
			c0.524,0.252,0.986,0.606,1.386,1.062v-6.738h3.539v18.75h-3.186l-0.171-1.404c-0.415,0.521-0.899,0.926-1.452,1.214
			c-0.554,0.289-1.201,0.434-1.941,0.434c-0.813,0-1.54-0.169-2.179-0.507c-0.64-0.337-1.179-0.803-1.618-1.397
			c-0.439-0.594-0.774-1.3-1.007-2.118c-0.231-0.817-0.348-1.707-0.348-2.667V42.713z M72.031,42.969
			c0,0.537,0.044,1.038,0.134,1.501s0.233,0.869,0.434,1.214c0.199,0.346,0.459,0.619,0.781,0.818
			c0.321,0.199,0.714,0.299,1.178,0.299c0.569,0,1.044-0.122,1.422-0.366c0.379-0.244,0.674-0.582,0.886-1.013V40.21
			c-0.212-0.439-0.507-0.779-0.886-1.02c-0.378-0.24-0.844-0.36-1.397-0.36c-0.464,0-0.858,0.1-1.184,0.299
			c-0.326,0.199-0.589,0.474-0.788,0.824c-0.199,0.35-0.346,0.761-0.439,1.233c-0.094,0.472-0.14,0.981-0.14,1.526V42.969z"/>
		<path fill="#1A1A1A" d="M83.114,32.789c0-0.529,0.178-0.964,0.531-1.306c0.354-0.342,0.836-0.513,1.447-0.513
			c0.301,0,0.573,0.045,0.817,0.134c0.244,0.09,0.452,0.216,0.622,0.378c0.172,0.163,0.304,0.356,0.397,0.58
			c0.093,0.224,0.14,0.466,0.14,0.727c0,0.269-0.047,0.515-0.14,0.738c-0.094,0.224-0.226,0.417-0.397,0.58
			c-0.17,0.163-0.378,0.289-0.622,0.378c-0.244,0.09-0.517,0.134-0.817,0.134c-0.302,0-0.574-0.044-0.818-0.134
			c-0.244-0.089-0.451-0.215-0.623-0.378c-0.17-0.163-0.303-0.356-0.396-0.58C83.161,33.303,83.114,33.057,83.114,32.789z
			 M86.862,49.415h-3.54V36.207h3.54V49.415z"/>
		<path fill="#1A1A1A" d="M89.219,42.688c0-0.96,0.139-1.851,0.415-2.673c0.276-0.822,0.68-1.532,1.209-2.13
			c0.528-0.599,1.182-1.068,1.959-1.41c0.776-0.342,1.662-0.513,2.654-0.513c1.002,0,1.893,0.171,2.674,0.513
			s1.438,0.812,1.972,1.41c0.532,0.598,0.938,1.308,1.214,2.13c0.277,0.822,0.416,1.713,0.416,2.673v0.256
			c0,0.969-0.139,1.861-0.416,2.68c-0.276,0.817-0.682,1.525-1.214,2.124c-0.533,0.598-1.187,1.066-1.96,1.403
			c-0.772,0.338-1.66,0.507-2.66,0.507c-1.002,0-1.891-0.169-2.668-0.507c-0.777-0.337-1.433-0.806-1.965-1.403
			c-0.533-0.599-0.938-1.307-1.215-2.124c-0.276-0.818-0.415-1.711-0.415-2.68V42.688z M92.747,42.945
			c0,0.537,0.049,1.042,0.146,1.514c0.098,0.472,0.254,0.881,0.47,1.227c0.215,0.346,0.496,0.621,0.842,0.824
			c0.346,0.204,0.771,0.305,1.276,0.305c0.488,0,0.904-0.102,1.251-0.305c0.346-0.203,0.628-0.478,0.849-0.824
			c0.219-0.346,0.378-0.754,0.476-1.227c0.098-0.472,0.146-0.977,0.146-1.514v-0.256c0-0.521-0.049-1.015-0.146-1.483
			c-0.098-0.468-0.257-0.879-0.476-1.233c-0.221-0.354-0.505-0.635-0.855-0.842c-0.35-0.208-0.772-0.312-1.27-0.312
			c-0.488,0-0.905,0.104-1.251,0.312c-0.346,0.207-0.627,0.488-0.842,0.842c-0.216,0.354-0.372,0.765-0.47,1.233
			c-0.098,0.468-0.146,0.962-0.146,1.483V42.945z"/>
		<path fill="#1A1A1A" d="M111.057,45.765c0-0.187-0.036-0.358-0.109-0.513c-0.073-0.154-0.212-0.299-0.415-0.433
			c-0.203-0.135-0.48-0.263-0.83-0.385s-0.802-0.24-1.354-0.354c-0.676-0.146-1.301-0.33-1.874-0.549
			c-0.574-0.22-1.07-0.492-1.489-0.818c-0.42-0.325-0.747-0.704-0.982-1.135c-0.236-0.431-0.354-0.932-0.354-1.501
			c0-0.553,0.12-1.078,0.36-1.575c0.239-0.496,0.586-0.934,1.037-1.313c0.452-0.378,1.005-0.677,1.66-0.897s1.394-0.33,2.216-0.33
			c0.854,0,1.624,0.106,2.308,0.317c0.684,0.212,1.263,0.507,1.739,0.885c0.476,0.379,0.842,0.829,1.099,1.349
			c0.256,0.521,0.385,1.091,0.385,1.709h-3.528c0-0.504-0.163-0.921-0.488-1.251c-0.325-0.329-0.834-0.494-1.526-0.494
			c-0.594,0-1.054,0.134-1.379,0.403s-0.488,0.61-0.488,1.025c0,0.195,0.043,0.368,0.128,0.519c0.086,0.15,0.224,0.289,0.415,0.415
			c0.191,0.126,0.443,0.242,0.757,0.348c0.313,0.106,0.698,0.204,1.153,0.293c0.717,0.139,1.38,0.31,1.99,0.513
			c0.61,0.204,1.137,0.466,1.581,0.787c0.443,0.322,0.791,0.712,1.044,1.172c0.252,0.46,0.378,1.016,0.378,1.667
			c0,0.586-0.13,1.125-0.391,1.618c-0.261,0.492-0.633,0.917-1.117,1.275c-0.484,0.358-1.067,0.639-1.751,0.842
			s-1.449,0.305-2.295,0.305c-0.928,0-1.746-0.13-2.454-0.391s-1.305-0.602-1.788-1.025c-0.484-0.423-0.849-0.899-1.093-1.428
			c-0.244-0.529-0.366-1.062-0.366-1.599h3.345c0.017,0.342,0.092,0.637,0.226,0.885c0.135,0.249,0.312,0.45,0.531,0.604
			c0.22,0.155,0.474,0.269,0.763,0.342s0.593,0.11,0.909,0.11c0.676,0,1.187-0.128,1.532-0.384
			C110.884,46.515,111.057,46.18,111.057,45.765z"/>
	</g>
	<g>
		<path fill-rule="evenodd" clip-rule="evenodd" fill="#010101" d="M80.13,125.854c-0.607-0.164-0.975,0.061-1.352,0.438
			c-3.232,3.25-6.485,6.48-9.731,9.717c-0.563,0.563-0.569,1.215-0.015,1.768c2.469,2.459,4.949,4.902,7.4,7.379
			c1.225,1.238,1.625,2.748,1.141,4.432c-0.483,1.686-1.631,2.744-3.34,3.119c-1.549,0.34-2.944-0.047-4.082-1.168
			c-3.524-3.469-7.032-6.953-10.549-10.43c-0.334-0.33-0.685-0.643-1.009-0.982c-1.812-1.902-1.78-4.594,0.077-6.449
			c3.191-3.188,6.387-6.375,9.588-9.553c0.264-0.262,0.38-0.52,0.379-0.896c-0.012-4.801-0.011-9.602,0.001-14.402
			c0.001-0.373-0.106-0.635-0.37-0.896c-3.611-3.588-7.217-7.18-10.815-10.779c-2.13-2.131-4.248-4.273-6.367-6.418
			c-1.461-1.479-1.513-3.822-0.127-5.341c1.339-1.469,3.72-1.619,5.299-0.332c0.237,0.193,0.457,0.408,0.675,0.625
			c4.741,4.751,9.485,9.5,14.219,14.261c0.277,0.279,0.553,0.391,0.945,0.389c4.512-0.012,9.024-0.012,13.536,0.002
			c0.397,0,0.665-0.125,0.94-0.398c4.809-4.816,9.623-9.623,14.443-14.425c1.525-1.521,3.588-1.764,5.209-0.633
			c1.869,1.305,2.178,4.115,0.551,5.751c-4.678,4.715-9.393,9.393-14.094,14.086c-1.111,1.109-2.232,2.209-3.318,3.342
			c-0.17,0.176-0.245,0.508-0.248,0.768c-0.012,5.939-0.008,11.877-0.008,17.814c0,10.74,0,21.48-0.004,32.219
			c0,2.316-1.625,4.133-3.968,4.469c-2.108,0.301-4.215-1.068-4.815-3.168c-0.131-0.459-0.184-0.957-0.184-1.439
			c-0.01-10.738-0.008-21.477-0.008-32.217V125.854z"/>
		<path fill-rule="evenodd" clip-rule="evenodd" fill="#010101" d="M69.931,90.127c0-4.937,4.033-8.96,8.955-8.935
			c4.953,0.029,8.941,4.029,8.939,8.964c-0.003,4.941-4.02,8.934-8.971,8.912C73.874,99.051,69.931,95.098,69.931,90.127"/>
	</g>
</g>
</svg>
