<?xml version="1.0" encoding="utf-8"?>
<!-- Generator: Adobe Illustrator 16.0.0, SVG Export Plug-In . SVG Version: 6.00 Build 0)  -->
<!DOCTYPE svg PUBLIC "-//W3C//DTD SVG 1.1//EN" "http://www.w3.org/Graphics/SVG/1.1/DTD/svg11.dtd">
<svg version="1.1" id="Layer_1" xmlns="http://www.w3.org/2000/svg" xmlns:xlink="http://www.w3.org/1999/xlink" x="0px" y="0px"
	 width="157px" height="179px" viewBox="0 0 157 179" enable-background="new 0 0 157 179" xml:space="preserve">
<rect x="1.483" y="1.52" fill-rule="evenodd" clip-rule="evenodd" fill="#FFFFFF" stroke="#627D53" stroke-width="2" stroke-miterlimit="10" width="155" height="177"/>
<rect x="1.483" y="-0.48" fill-rule="evenodd" clip-rule="evenodd" fill="#627D53" width="155" height="56"/>
<g>
	<path fill="#FFFFFF" d="M30.835,20.22l-2.527-7.638h2.223l1.425,4.883h0.038l1.425-4.883h2.033l-2.527,7.638v5.662h-2.09V20.22z"/>
	<path fill="#FFFFFF" d="M36.725,25.197c-0.544-0.582-0.817-1.405-0.817-2.469v-6.992c0-1.064,0.272-1.888,0.817-2.471
		c0.544-0.582,1.33-0.874,2.356-0.874c1.026,0,1.812,0.292,2.356,0.874c0.545,0.583,0.817,1.406,0.817,2.471v6.992
		c0,1.063-0.272,1.887-0.817,2.469c-0.544,0.584-1.33,0.875-2.356,0.875C38.055,26.072,37.27,25.781,36.725,25.197z M40.164,22.861
		v-7.258c0-0.875-0.361-1.312-1.083-1.312c-0.722,0-1.083,0.437-1.083,1.312v7.258c0,0.873,0.361,1.311,1.083,1.311
		C39.803,24.172,40.164,23.734,40.164,22.861z"/>
	<path fill="#FFFFFF" d="M44.382,25.207c-0.532-0.576-0.798-1.402-0.798-2.479V12.582h2.09V22.88c0,0.456,0.092,0.786,0.275,0.987
		c0.184,0.203,0.447,0.305,0.789,0.305c0.342,0,0.605-0.102,0.789-0.305c0.184-0.201,0.275-0.531,0.275-0.987V12.582h2.014v10.146
		c0,1.076-0.266,1.902-0.798,2.479c-0.532,0.576-1.305,0.865-2.318,0.865S44.915,25.783,44.382,25.207z"/>
	<path fill="#FFFFFF" d="M52.932,14.482h-2.185v-1.9h6.46v1.9h-2.185v11.399h-2.09V14.482z"/>
	<path fill="#FFFFFF" d="M58.214,12.582h2.09v5.415h2.242v-5.415h2.09v13.3h-2.09v-5.985h-2.242v5.985h-2.09V12.582z"/>
	<path fill="#FFFFFF" d="M69.651,25.207c-0.52-0.576-0.779-1.402-0.779-2.479v-0.761h1.976v0.912c0,0.861,0.361,1.292,1.083,1.292
		c0.354,0,0.624-0.104,0.808-0.313c0.183-0.209,0.275-0.548,0.275-1.017c0-0.557-0.127-1.048-0.38-1.473
		c-0.254-0.424-0.722-0.934-1.406-1.529c-0.861-0.76-1.463-1.447-1.805-2.062c-0.342-0.614-0.513-1.308-0.513-2.081
		c0-1.051,0.266-1.864,0.798-2.441c0.532-0.576,1.305-0.864,2.318-0.864c1,0,1.758,0.288,2.271,0.864
		c0.513,0.577,0.77,1.403,0.77,2.48v0.551h-1.976v-0.684c0-0.457-0.089-0.789-0.266-0.998c-0.178-0.209-0.437-0.313-0.779-0.313
		c-0.697,0-1.045,0.425-1.045,1.272c0,0.482,0.13,0.932,0.39,1.35c0.259,0.418,0.731,0.924,1.416,1.52
		c0.874,0.76,1.476,1.451,1.805,2.071c0.33,0.62,0.494,1.349,0.494,2.185c0,1.09-0.269,1.926-0.808,2.508
		c-0.538,0.584-1.32,0.875-2.346,0.875C70.937,26.072,70.171,25.783,69.651,25.207z"/>
	<path fill="#FFFFFF" d="M76.301,12.582h2.09v5.605l2.66-5.605h2.09l-2.489,4.883l2.527,8.417h-2.185l-1.767-5.929l-0.836,1.691
		v4.237h-2.09V12.582z"/>
	<path fill="#FFFFFF" d="M84.167,12.582h2.09v13.3h-2.09V12.582z"/>
	<path fill="#FFFFFF" d="M90.854,12.582h3.097c1.077,0,1.862,0.25,2.356,0.75c0.494,0.501,0.741,1.271,0.741,2.309v0.817
		c0,1.38-0.456,2.255-1.368,2.622v0.037c0.506,0.152,0.865,0.463,1.074,0.932s0.313,1.096,0.313,1.881v2.337
		c0,0.38,0.012,0.688,0.038,0.922s0.089,0.466,0.19,0.693h-2.128c-0.076-0.216-0.126-0.418-0.152-0.608
		c-0.025-0.189-0.038-0.531-0.038-1.025v-2.432c0-0.608-0.098-1.033-0.294-1.273s-0.535-0.361-1.017-0.361h-0.722v5.7h-2.09V12.582z
		 M93.705,18.281c0.418,0,0.731-0.107,0.94-0.322s0.313-0.576,0.313-1.083V15.85c0-0.48-0.085-0.829-0.256-1.045
		c-0.171-0.215-0.44-0.322-0.808-0.322h-0.95v3.799H93.705z"/>
	<path fill="#FFFFFF" d="M100.127,12.582h2.831l2.166,13.3h-2.09l-0.38-2.642v0.039h-2.375l-0.38,2.603h-1.938L100.127,12.582z
		 M102.407,21.474l-0.931-6.573h-0.038l-0.912,6.573H102.407z"/>
	<path fill="#FFFFFF" d="M106.748,25.217c-0.526-0.57-0.789-1.374-0.789-2.413V15.66c0-1.039,0.263-1.844,0.789-2.413
		c0.525-0.57,1.289-0.855,2.29-0.855c1,0,1.764,0.285,2.29,0.855c0.525,0.569,0.788,1.374,0.788,2.413v1.406h-1.976v-1.539
		c0-0.824-0.349-1.235-1.045-1.235c-0.696,0-1.045,0.411-1.045,1.235v7.429c0,0.811,0.349,1.216,1.045,1.216
		c0.697,0,1.045-0.405,1.045-1.216v-2.033h1.976v1.881c0,1.039-0.263,1.843-0.788,2.413c-0.526,0.57-1.289,0.855-2.29,0.855
		C108.037,26.072,107.273,25.787,106.748,25.217z"/>
	<path fill="#FFFFFF" d="M113.369,12.582h2.09v13.3h-2.09V12.582z"/>
	<path fill="#FFFFFF" d="M117.017,12.582h2.622l2.033,7.961h0.038v-7.961h1.862v13.3h-2.147l-2.508-9.709h-0.038v9.709h-1.862
		V12.582z"/>
	<path fill="#FFFFFF" d="M125.776,25.207c-0.532-0.576-0.798-1.402-0.798-2.479v-6.992c0-1.077,0.266-1.903,0.798-2.48
		c0.532-0.576,1.305-0.864,2.318-0.864c1.013,0,1.786,0.288,2.318,0.864c0.532,0.577,0.798,1.403,0.798,2.48v1.14h-1.976v-1.272
		c0-0.875-0.361-1.312-1.083-1.312c-0.722,0-1.083,0.437-1.083,1.312v7.276c0,0.861,0.361,1.292,1.083,1.292
		c0.722,0,1.083-0.431,1.083-1.292v-2.603h-1.045v-1.9h3.021v4.352c0,1.076-0.266,1.902-0.798,2.479
		c-0.532,0.576-1.305,0.865-2.318,0.865C127.081,26.072,126.308,25.783,125.776,25.207z"/>
	<path fill="#FFFFFF" d="M57.216,31.382h2.09v11.399h3.439v1.9h-5.529V31.382z"/>
	<path fill="#FFFFFF" d="M63.751,31.382h5.7v1.899h-3.61v3.516h2.869v1.9h-2.869v4.084h3.61v1.9h-5.7V31.382z"/>
	<path fill="#FFFFFF" d="M72.264,31.382h2.831l2.166,13.3h-2.09l-0.38-2.641v0.037h-2.375l-0.38,2.604h-1.938L72.264,31.382z
		 M74.543,40.273l-0.931-6.574h-0.038l-0.912,6.574H74.543z"/>
	<path fill="#FFFFFF" d="M78.875,44.008c-0.532-0.577-0.798-1.403-0.798-2.48v-6.992c0-1.076,0.266-1.902,0.798-2.479
		c0.532-0.576,1.305-0.865,2.318-0.865c1.013,0,1.786,0.289,2.318,0.865c0.532,0.576,0.798,1.402,0.798,2.479v1.141h-1.976v-1.273
		c0-0.873-0.361-1.311-1.083-1.311c-0.722,0-1.083,0.438-1.083,1.311v7.277c0,0.861,0.361,1.292,1.083,1.292
		c0.722,0,1.083-0.431,1.083-1.292v-2.604h-1.045v-1.899h3.021v4.351c0,1.077-0.266,1.903-0.798,2.48
		c-0.532,0.576-1.305,0.863-2.318,0.863C80.18,44.871,79.407,44.584,78.875,44.008z"/>
	<path fill="#FFFFFF" d="M86.38,44.008c-0.532-0.577-0.798-1.403-0.798-2.48V31.382h2.09V41.68c0,0.456,0.092,0.785,0.275,0.988
		s0.447,0.304,0.789,0.304c0.342,0,0.605-0.101,0.789-0.304S89.8,42.136,89.8,41.68V31.382h2.014v10.146
		c0,1.077-0.266,1.903-0.798,2.48c-0.532,0.576-1.305,0.863-2.318,0.863S86.912,44.584,86.38,44.008z"/>
	<path fill="#FFFFFF" d="M93.295,31.382h5.7v1.899h-3.61v3.516h2.869v1.9h-2.869v4.084h3.61v1.9h-5.7V31.382z"/>
	<path fill="#FFFFFF" d="M100.648,44.008c-0.52-0.577-0.779-1.403-0.779-2.48v-0.76h1.976v0.912c0,0.861,0.361,1.292,1.083,1.292
		c0.354,0,0.624-0.104,0.808-0.313c0.183-0.209,0.275-0.548,0.275-1.017c0-0.558-0.127-1.048-0.38-1.473
		c-0.254-0.424-0.722-0.934-1.406-1.529c-0.861-0.76-1.463-1.446-1.805-2.062c-0.342-0.614-0.513-1.308-0.513-2.08
		c0-1.052,0.266-1.865,0.798-2.441c0.532-0.576,1.305-0.865,2.318-0.865c1,0,1.758,0.289,2.271,0.865
		c0.513,0.576,0.77,1.402,0.77,2.479v0.551h-1.976v-0.684c0-0.455-0.089-0.788-0.266-0.997c-0.178-0.209-0.437-0.313-0.779-0.313
		c-0.697,0-1.045,0.424-1.045,1.273c0,0.48,0.13,0.93,0.39,1.349c0.259,0.418,0.731,0.925,1.416,1.52
		c0.874,0.761,1.476,1.45,1.805,2.071c0.33,0.621,0.494,1.35,0.494,2.186c0,1.089-0.269,1.925-0.808,2.508
		c-0.538,0.582-1.32,0.873-2.346,0.873C101.934,44.871,101.168,44.584,100.648,44.008z"/>
</g>
<g>
	<path fill-rule="evenodd" clip-rule="evenodd" fill="#627D53" d="M93.27,155.285c-1.092-0.619-2.252-1.146-3.267-1.873
		c-14.7-10.534-29.38-21.096-44.064-31.651c-1.191-0.856-1.61-1.757-1.307-2.792c0.527-1.803,2.344-2.454,3.89-1.355
		c2.846,2.02,5.671,4.069,8.505,6.106c2.533,1.821,5.066,3.643,7.6,5.463c0.211,0.151,0.43,0.292,0.458,0.312
		c1.55-1.096,2.988-2.146,4.46-3.146c4.091-2.782,4.625-7.775,1.193-11.335c-3.017-3.128-2.567-7.502,1.051-9.956
		c2.734-1.854,5.496-3.67,8.245-5.504c0.24-0.16,0.476-0.327,0.808-0.557c-1.12-0.5-2.227-0.574-3.338-0.594
		c-1.695-0.029-3.287,0.391-4.832,1.077c-1.919,0.853-3.676,0.549-4.966-0.78c-1.697-1.749-1.533-4.58,0.358-6.121
		c0.182-0.147,0.375-0.281,0.625-0.468c-0.63-0.746-1.235-1.47-1.847-2.187c-3.19-3.745-6.329-7.536-9.596-11.212
		c-1.634-1.839-1.486-3.54,0.786-4.698c0.37,0,0.741,0,1.111,0c0.57,0.454,1.229,0.831,1.697,1.374
		c4.122,4.791,8.212,9.608,12.302,14.427c0.331,0.391,0.636,0.609,1.199,0.522c6.646-1.03,12.294,0.99,17.062,5.648
		c1.361,1.331,2.651,2.744,4.093,3.98c3.389,2.907,7.214,3.501,11.398,1.933c0.878-0.329,1.803-0.688,2.719-0.729
		c1.98-0.09,3.595,1.307,4.02,3.25c0.414,1.891-0.56,3.827-2.337,4.65c-0.023,0.012-0.049,0.022-0.074,0.026
		c-1.731,0.28-1.992,1.352-1.975,2.964c0.091,8.251,0.046,16.503,0.039,24.755c-0.002,1.919-1.28,2.936-3.05,2.46
		c-0.951-0.256-1.588-0.999-1.677-1.979c-0.026-0.289-0.015-0.582-0.015-0.872c0-8.12,0-16.239,0-24.358c0-0.313,0-0.628,0-1.011
		c-0.988,0-1.928,0.038-2.865-0.007c-3.653-0.177-6.991-1.314-9.982-3.417c-0.48-0.337-0.785-0.3-1.244,0.011
		c-3.196,2.161-6.407,4.302-9.63,6.423c-0.448,0.294-0.582,0.54-0.392,1.072c2.399,6.716-0.167,14.191-6.222,18.13
		c-0.641,0.417-1.271,0.853-2.017,1.354c8.613,6.193,17.162,12.342,25.719,18.496c-0.709,1.232-1.843,1.756-3.053,2.17
		C94.328,155.285,93.798,155.285,93.27,155.285z"/>
	<path fill-rule="evenodd" clip-rule="evenodd" fill="#627D53" d="M94.177,90.217c0.012-3.945,3.232-7.163,7.159-7.154
		c3.913,0.009,7.169,3.271,7.16,7.175c-0.009,3.924-3.252,7.148-7.182,7.142C97.362,97.371,94.165,94.163,94.177,90.217z"/>
</g>
</svg>
