<?xml version="1.0" encoding="utf-8"?>
<!-- Generator: Adobe Illustrator 16.0.0, SVG Export Plug-In . SVG Version: 6.00 Build 0)  -->
<!DOCTYPE svg PUBLIC "-//W3C//DTD SVG 1.1//EN" "http://www.w3.org/Graphics/SVG/1.1/DTD/svg11.dtd">
<svg version="1.1" id="Layer_1" xmlns="http://www.w3.org/2000/svg" xmlns:xlink="http://www.w3.org/1999/xlink" x="0px" y="0px"
	 width="157px" height="179px" viewBox="0 0 157 179" enable-background="new 0 0 157 179" xml:space="preserve">
<rect x="1.992" y="1" fill-rule="evenodd" clip-rule="evenodd" fill="#FFFFFF" stroke="#627D53" stroke-width="2" stroke-miterlimit="10" width="155" height="177"/>
<rect x="1.992" fill-rule="evenodd" clip-rule="evenodd" fill="#627D53" width="155" height="56"/>
<g>
	<path fill="#FFFFFF" d="M14.528,36.207c-0.52-0.576-0.779-1.402-0.779-2.479v-0.761h1.976v0.912c0,0.861,0.361,1.292,1.083,1.292
		c0.354,0,0.624-0.104,0.808-0.313c0.183-0.209,0.275-0.548,0.275-1.017c0-0.557-0.127-1.048-0.38-1.473
		c-0.254-0.424-0.722-0.934-1.406-1.529c-0.861-0.76-1.463-1.447-1.805-2.062c-0.342-0.614-0.513-1.308-0.513-2.081
		c0-1.051,0.266-1.864,0.798-2.441c0.532-0.576,1.305-0.864,2.318-0.864c1,0,1.758,0.288,2.271,0.864
		c0.513,0.577,0.77,1.403,0.77,2.48v0.551h-1.976v-0.684c0-0.457-0.089-0.789-0.266-0.998c-0.178-0.209-0.437-0.313-0.779-0.313
		c-0.697,0-1.045,0.425-1.045,1.272c0,0.482,0.13,0.932,0.39,1.35c0.259,0.418,0.731,0.924,1.416,1.52
		c0.874,0.76,1.476,1.451,1.805,2.071c0.33,0.62,0.494,1.349,0.494,2.185c0,1.09-0.269,1.926-0.808,2.508
		c-0.538,0.584-1.32,0.875-2.346,0.875C15.814,37.072,15.048,36.783,14.528,36.207z"/>
	<path fill="#FFFFFF" d="M21.834,36.217c-0.526-0.57-0.789-1.374-0.789-2.413V26.66c0-1.039,0.263-1.844,0.789-2.413
		c0.525-0.57,1.289-0.855,2.29-0.855c1,0,1.764,0.285,2.29,0.855c0.525,0.569,0.788,1.374,0.788,2.413v1.406h-1.976v-1.539
		c0-0.824-0.349-1.235-1.045-1.235c-0.696,0-1.045,0.411-1.045,1.235v7.429c0,0.811,0.349,1.216,1.045,1.216
		c0.697,0,1.045-0.405,1.045-1.216v-2.033h1.976v1.881c0,1.039-0.263,1.843-0.788,2.413c-0.526,0.57-1.289,0.855-2.29,0.855
		C23.123,37.072,22.359,36.787,21.834,36.217z"/>
	<path fill="#FFFFFF" d="M29.177,36.207c-0.532-0.576-0.798-1.402-0.798-2.479V23.582h2.09V33.88c0,0.456,0.092,0.786,0.275,0.987
		c0.184,0.203,0.447,0.305,0.789,0.305c0.342,0,0.605-0.102,0.789-0.305c0.184-0.201,0.275-0.531,0.275-0.987V23.582h2.014v10.146
		c0,1.076-0.266,1.902-0.798,2.479c-0.532,0.576-1.305,0.865-2.318,0.865S29.709,36.783,29.177,36.207z"/>
	<path fill="#FFFFFF" d="M36.093,23.582h3.154c1.076,0,1.862,0.25,2.356,0.75c0.494,0.501,0.741,1.271,0.741,2.309v0.532
		c0,0.685-0.111,1.241-0.333,1.672s-0.56,0.741-1.016,0.931v0.039c1.038,0.354,1.558,1.279,1.558,2.773v1.141
		c0,1.025-0.269,1.808-0.807,2.346c-0.539,0.539-1.327,0.808-2.366,0.808h-3.287V23.582z M39,28.997c0.418,0,0.731-0.108,0.94-0.323
		s0.313-0.576,0.313-1.083V26.85c0-0.48-0.085-0.829-0.256-1.045c-0.171-0.215-0.44-0.322-0.808-0.322h-1.007v3.515H39z
		 M39.38,34.982c0.367,0,0.64-0.099,0.817-0.295s0.266-0.535,0.266-1.017v-1.159c0-0.607-0.104-1.029-0.313-1.264
		s-0.554-0.352-1.036-0.352h-0.931v4.086H39.38z"/>
	<path fill="#FFFFFF" d="M45.384,23.582h2.831l2.166,13.3h-2.09l-0.38-2.642v0.039h-2.375l-0.38,2.603h-1.938L45.384,23.582z
		 M47.664,32.474L46.733,25.9h-0.038l-0.912,6.573H47.664z"/>
	<path fill="#FFFFFF" d="M54.427,23.582h3.192c1.038,0,1.817,0.279,2.337,0.836c0.519,0.558,0.779,1.375,0.779,2.451v6.726
		c0,1.077-0.26,1.894-0.779,2.451c-0.52,0.558-1.299,0.836-2.337,0.836h-3.192V23.582z M57.581,34.982
		c0.342,0,0.604-0.102,0.789-0.305c0.183-0.202,0.275-0.531,0.275-0.988v-6.916c0-0.455-0.092-0.785-0.275-0.988
		c-0.184-0.201-0.447-0.303-0.789-0.303h-1.064v9.5H57.581z"/>
	<path fill="#FFFFFF" d="M62.141,23.582h2.09v13.3h-2.09V23.582z"/>
	<path fill="#FFFFFF" d="M65.238,23.582h2.109l1.368,10.316h0.038l1.368-10.316h1.919l-2.014,13.3h-2.774L65.238,23.582z"/>
	<path fill="#FFFFFF" d="M73.046,23.582h2.09v13.3h-2.09V23.582z"/>
	<path fill="#FFFFFF" d="M76.694,23.582h2.622l2.033,7.961h0.038v-7.961h1.862v13.3h-2.147l-2.508-9.709h-0.038v9.709h-1.862V23.582
		z"/>
	<path fill="#FFFFFF" d="M85.453,36.207c-0.532-0.576-0.798-1.402-0.798-2.479v-6.992c0-1.077,0.266-1.903,0.798-2.48
		c0.532-0.576,1.305-0.864,2.318-0.864c1.013,0,1.786,0.288,2.318,0.864c0.532,0.577,0.798,1.403,0.798,2.48v1.14h-1.976v-1.272
		c0-0.875-0.361-1.312-1.083-1.312c-0.722,0-1.083,0.437-1.083,1.312v7.276c0,0.861,0.361,1.292,1.083,1.292
		c0.722,0,1.083-0.431,1.083-1.292v-2.603h-1.045v-1.9h3.021v4.352c0,1.076-0.266,1.902-0.798,2.479
		c-0.532,0.576-1.305,0.865-2.318,0.865C86.758,37.072,85.985,36.783,85.453,36.207z"/>
	<path fill="#FFFFFF" d="M95.693,36.207c-0.52-0.576-0.779-1.402-0.779-2.479v-0.761h1.976v0.912c0,0.861,0.361,1.292,1.083,1.292
		c0.354,0,0.624-0.104,0.808-0.313c0.183-0.209,0.275-0.548,0.275-1.017c0-0.557-0.127-1.048-0.38-1.473
		c-0.254-0.424-0.722-0.934-1.406-1.529c-0.861-0.76-1.463-1.447-1.805-2.062c-0.342-0.614-0.513-1.308-0.513-2.081
		c0-1.051,0.266-1.864,0.798-2.441c0.532-0.576,1.305-0.864,2.318-0.864c1,0,1.758,0.288,2.271,0.864
		c0.513,0.577,0.77,1.403,0.77,2.48v0.551h-1.976v-0.684c0-0.457-0.089-0.789-0.266-0.998c-0.178-0.209-0.437-0.313-0.779-0.313
		c-0.697,0-1.045,0.425-1.045,1.272c0,0.482,0.13,0.932,0.39,1.35c0.259,0.418,0.731,0.924,1.416,1.52
		c0.874,0.76,1.476,1.451,1.805,2.071c0.33,0.62,0.494,1.349,0.494,2.185c0,1.09-0.269,1.926-0.808,2.508
		c-0.538,0.584-1.32,0.875-2.346,0.875C96.979,37.072,96.213,36.783,95.693,36.207z"/>
	<path fill="#FFFFFF" d="M102.999,36.217c-0.526-0.57-0.789-1.374-0.789-2.413V26.66c0-1.039,0.263-1.844,0.789-2.413
		c0.525-0.57,1.289-0.855,2.29-0.855c1,0,1.764,0.285,2.29,0.855c0.525,0.569,0.788,1.374,0.788,2.413v1.406h-1.976v-1.539
		c0-0.824-0.349-1.235-1.045-1.235c-0.696,0-1.045,0.411-1.045,1.235v7.429c0,0.811,0.349,1.216,1.045,1.216
		c0.697,0,1.045-0.405,1.045-1.216v-2.033h1.976v1.881c0,1.039-0.263,1.843-0.788,2.413c-0.526,0.57-1.289,0.855-2.29,0.855
		C104.288,37.072,103.524,36.787,102.999,36.217z"/>
	<path fill="#FFFFFF" d="M109.62,23.582h2.09v5.415h2.242v-5.415h2.09v13.3h-2.09v-5.985h-2.242v5.985h-2.09V23.582z"/>
	<path fill="#FFFFFF" d="M118.265,36.197c-0.544-0.582-0.817-1.405-0.817-2.469v-6.992c0-1.064,0.272-1.888,0.817-2.471
		c0.544-0.582,1.33-0.874,2.356-0.874c1.026,0,1.812,0.292,2.356,0.874c0.545,0.583,0.817,1.406,0.817,2.471v6.992
		c0,1.063-0.272,1.887-0.817,2.469c-0.544,0.584-1.33,0.875-2.356,0.875C119.595,37.072,118.81,36.781,118.265,36.197z
		 M121.704,33.861v-7.258c0-0.875-0.361-1.312-1.083-1.312c-0.722,0-1.083,0.437-1.083,1.312v7.258c0,0.873,0.361,1.311,1.083,1.311
		C121.343,35.172,121.704,34.734,121.704,33.861z"/>
	<path fill="#FFFFFF" d="M125.865,36.197c-0.544-0.582-0.817-1.405-0.817-2.469v-6.992c0-1.064,0.272-1.888,0.817-2.471
		c0.544-0.582,1.33-0.874,2.356-0.874c1.026,0,1.812,0.292,2.356,0.874c0.545,0.583,0.817,1.406,0.817,2.471v6.992
		c0,1.063-0.272,1.887-0.817,2.469c-0.544,0.584-1.33,0.875-2.356,0.875C127.195,37.072,126.41,36.781,125.865,36.197z
		 M129.304,33.861v-7.258c0-0.875-0.361-1.312-1.083-1.312c-0.722,0-1.083,0.437-1.083,1.312v7.258c0,0.873,0.361,1.311,1.083,1.311
		C128.943,35.172,129.304,34.734,129.304,33.861z"/>
	<path fill="#FFFFFF" d="M132.8,23.582h2.09v11.4h3.439v1.899H132.8V23.582z"/>
	<path fill="#FFFFFF" d="M139.754,36.207c-0.52-0.576-0.779-1.402-0.779-2.479v-0.761h1.976v0.912c0,0.861,0.361,1.292,1.083,1.292
		c0.354,0,0.624-0.104,0.808-0.313c0.183-0.209,0.275-0.548,0.275-1.017c0-0.557-0.127-1.048-0.38-1.473
		c-0.254-0.424-0.722-0.934-1.406-1.529c-0.861-0.76-1.463-1.447-1.805-2.062c-0.342-0.614-0.513-1.308-0.513-2.081
		c0-1.051,0.266-1.864,0.798-2.441c0.532-0.576,1.305-0.864,2.318-0.864c1,0,1.758,0.288,2.271,0.864
		c0.513,0.577,0.77,1.403,0.77,2.48v0.551h-1.976v-0.684c0-0.457-0.089-0.789-0.266-0.998c-0.178-0.209-0.437-0.313-0.779-0.313
		c-0.697,0-1.045,0.425-1.045,1.272c0,0.482,0.13,0.932,0.39,1.35c0.259,0.418,0.731,0.924,1.416,1.52
		c0.874,0.76,1.476,1.451,1.805,2.071c0.33,0.62,0.494,1.349,0.494,2.185c0,1.09-0.269,1.926-0.808,2.508
		c-0.538,0.584-1.32,0.875-2.346,0.875C141.04,37.072,140.274,36.783,139.754,36.207z"/>
</g>
<g>
	<path fill-rule="evenodd" clip-rule="evenodd" fill="#627D53" d="M26.736,130.069c0.167-0.576,0.291-1.169,0.506-1.727
		c1.161-3.013,3.31-4.876,6.523-5.371c0.766-0.118,1.194-0.408,1.518-1.096c1.107-2.352,2.544-4.469,4.576-6.14
		c1.972-1.621,4.256-2.438,6.774-2.672c0.35-0.033,0.695-0.108,0.779-0.122c0-1.534-0.27-3.025,0.059-4.37
		c0.592-2.424,2.32-4.002,4.834-4.254c4.02-0.404,8.062-0.601,12.095-0.865c3.284-0.217,6.569-0.405,10.005-0.615
		c0.253,3.961,0.504,7.904,0.766,12.012c-1.745,0.126-3.403,0.258-5.063,0.362c-3.75,0.237-7.531,0.236-11.241,0.754
		c-3.495,0.488-6.979,0.574-10.479,0.628c-4.852,0.074-7.902,2.658-9.822,6.967c0.536,0.385,1.14,0.755,1.671,1.21
		c3.235,2.771,3.863,7.137,1.602,10.753c-0.229,0.365-0.355,0.844-0.381,1.279c-0.142,2.363-2.351,3.771-4.529,2.853
		c-1.647-0.694-1.646-0.694-2.288,0.973c-0.037,0.095-0.112,0.176-0.208,0.324c-2.563-0.834-5.13-1.67-7.698-2.505
		c0-0.144,0-0.287,0-0.43c0.339-1.051,0.929-2.098,0.944-3.152c0.013-0.949-0.604-1.908-0.944-2.862
		C26.736,131.358,26.736,130.714,26.736,130.069z"/>
	<path fill-rule="evenodd" clip-rule="evenodd" fill="#627D53" d="M26.736,132.003c0.339,0.954,0.957,1.913,0.944,2.862
		c-0.015,1.055-0.604,2.102-0.944,3.152C26.736,136.013,26.736,134.008,26.736,132.003z"/>
	<path fill-rule="evenodd" clip-rule="evenodd" fill="#627D53" d="M90.114,118.006c1.095-3.197,2.194-6.364,3.263-9.54
		c0.945-2.81,1.984-5.597,2.748-8.455c0.728-2.723,1.075-5.544,1.733-8.286c0.783-3.263,1.667-6.504,2.619-9.721
		c0.318-1.077,0.942-2.072,1.49-3.069c0.36-0.655,0.881-0.754,1.624-0.424c2.858,1.27,5.182,3.149,6.888,5.776
		c1.556,2.396,3.299,4.596,5.956,5.874c0.508,0.244,1.012,0.496,1.819,0.892c-0.42,0.292-0.729,0.461-0.985,0.69
		c-3.888,3.491-7.785,6.974-11.633,10.509c-0.543,0.498-0.991,1.213-1.23,1.914c-1.542,4.531-3.015,9.086-4.509,13.634
		c-0.108,0.33-0.205,0.663-0.378,1.226c3.607-2.433,7.049-4.681,10.399-7.058c0.961-0.683,1.621-1.775,2.481-2.615
		c3.793-3.701,7.623-7.37,12.14-10.199c1.012-0.635,2.168-1.105,3.321-1.432c1.145-0.324,1.529,0.092,1.564,1.284
		c0.1,3.339,0.395,6.652,1.73,9.762c0.94,2.191,2.241,4.032,5.002,4.289c-0.44,0.148-0.874,0.321-1.321,0.44
		c-5.663,1.508-11.328,3.005-16.989,4.515c-0.374,0.1-0.767,0.216-1.082,0.428c-6.231,4.194-12.453,8.401-18.671,12.616
		c-0.411,0.278-0.793,0.609-1.147,0.958c-2.339,2.304-4.997,3.199-8.214,2.033c-6.302-2.283-12.808-2.851-19.691-2.188
		c0.39,0.272,0.618,0.445,0.859,0.597c1.939,1.214,3.918,2.369,5.814,3.646c2.531,1.707,2.965,4.941,1.067,7.313
		c-1.317,1.646-3.26,2.061-5.07,0.983c-1.536-0.913-2.99-1.963-4.519-2.889c-5.182-3.137-10.714-5.385-16.684-6.519
		c-2.908-0.553-5.531-3.337-6.119-6.54c-0.575-3.129,0.129-5.849,2.86-7.756c0.661-0.461,1.444-0.819,2.223-1.025
		c8.534-2.26,17.182-3.792,26.044-3.733c4.593,0.03,9.131,0.6,13.569,1.845C89.389,117.866,89.7,117.917,90.114,118.006z"/>
	<path fill-rule="evenodd" clip-rule="evenodd" fill="#627D53" d="M75.865,102.721c2.772-0.165,5.299-0.315,7.939-0.473
		c0.255,4.031,0.504,7.973,0.76,12.021c-2.671,0.171-5.23,0.334-7.932,0.507C76.376,110.757,76.124,106.786,75.865,102.721z"/>
</g>
</svg>
