<?xml version="1.0" encoding="utf-8"?>
<!-- Generator: Adobe Illustrator 16.0.0, SVG Export Plug-In . SVG Version: 6.00 Build 0)  -->
<!DOCTYPE svg PUBLIC "-//W3C//DTD SVG 1.1//EN" "http://www.w3.org/Graphics/SVG/1.1/DTD/svg11.dtd">
<svg version="1.1" id="Layer_1" xmlns="http://www.w3.org/2000/svg" xmlns:xlink="http://www.w3.org/1999/xlink" x="0px" y="0px"
	 width="142px" height="177.242px" viewBox="0 0 142 177.242" enable-background="new 0 0 142 177.242" xml:space="preserve">
<g>
	<g>
		<path fill-rule="evenodd" clip-rule="evenodd" fill="#FFFFFF" d="M141,166.242c0,5.523-4.477,10-10,10H11c-5.523,0-10-4.477-10-10
			v-90c0-5.523,4.477-10,10-10h120c5.523,0,10,4.477,10,10V166.242z"/>
		<path fill="none" stroke="#000000" stroke-width="2" stroke-miterlimit="10" d="M141,166.242c0,5.523-4.477,10-10,10H11
			c-5.523,0-10-4.477-10-10v-90c0-5.523,4.477-10,10-10h120c5.523,0,10,4.477,10,10V166.242z"/>
	</g>
	<g>
		<path fill="#1A1A1A" d="M49.668,16.723c0-0.309-0.044-0.588-0.134-0.836c-0.09-0.249-0.263-0.478-0.519-0.69
			c-0.257-0.211-0.61-0.419-1.063-0.623c-0.451-0.203-1.035-0.419-1.752-0.647c-0.813-0.26-1.58-0.553-2.301-0.879
			c-0.72-0.325-1.351-0.71-1.892-1.154c-0.542-0.443-0.969-0.954-1.282-1.532c-0.313-0.578-0.47-1.253-0.47-2.026
			c0-0.74,0.16-1.418,0.482-2.033c0.321-0.614,0.772-1.137,1.354-1.568c0.582-0.431,1.273-0.767,2.075-1.007
			c0.802-0.24,1.683-0.36,2.644-0.36c0.984,0,1.879,0.136,2.686,0.409c0.805,0.272,1.493,0.653,2.063,1.141s1.009,1.068,1.318,1.74
			c0.31,0.671,0.464,1.406,0.464,2.203h-3.662c0-0.374-0.06-0.72-0.177-1.038c-0.118-0.317-0.299-0.59-0.543-0.818
			c-0.244-0.228-0.55-0.405-0.916-0.531c-0.366-0.126-0.798-0.189-1.294-0.189c-0.48,0-0.897,0.053-1.251,0.159
			c-0.354,0.106-0.647,0.252-0.879,0.439c-0.232,0.188-0.407,0.407-0.525,0.659c-0.118,0.252-0.177,0.521-0.177,0.806
			c0,0.586,0.299,1.076,0.897,1.471c0.598,0.395,1.475,0.763,2.631,1.105c0.968,0.301,1.82,0.635,2.557,1.001
			s1.351,0.781,1.844,1.245c0.492,0.464,0.864,0.985,1.117,1.563c0.252,0.578,0.378,1.233,0.378,1.965
			c0,0.781-0.152,1.477-0.458,2.087c-0.305,0.61-0.738,1.125-1.3,1.544c-0.562,0.419-1.239,0.74-2.032,0.964
			c-0.794,0.224-1.679,0.336-2.655,0.336c-0.586,0-1.172-0.051-1.758-0.152c-0.586-0.102-1.146-0.258-1.679-0.47
			c-0.533-0.211-1.027-0.476-1.482-0.793c-0.456-0.317-0.854-0.691-1.19-1.123c-0.338-0.431-0.603-0.922-0.794-1.471
			c-0.191-0.55-0.287-1.158-0.287-1.825h3.675c0,0.537,0.085,0.993,0.257,1.367c0.17,0.375,0.408,0.678,0.714,0.909
			c0.305,0.232,0.673,0.401,1.104,0.507c0.432,0.106,0.911,0.159,1.44,0.159c0.472,0,0.883-0.051,1.233-0.153
			c0.35-0.102,0.639-0.242,0.866-0.421c0.228-0.179,0.396-0.393,0.507-0.641C49.613,17.274,49.668,17.008,49.668,16.723z"/>
		<path fill="#1A1A1A" d="M67.478,14.904c0,0.96-0.111,1.852-0.335,2.673c-0.225,0.822-0.552,1.532-0.983,2.13
			c-0.431,0.599-0.966,1.068-1.604,1.41c-0.64,0.342-1.374,0.513-2.204,0.513c-0.699,0-1.316-0.122-1.849-0.366
			c-0.533-0.244-0.995-0.586-1.386-1.025v6.226h-3.527V8.178h3.271l0.121,1.294c0.407-0.488,0.881-0.867,1.423-1.135
			c0.541-0.269,1.182-0.403,1.923-0.403c0.838,0,1.578,0.161,2.221,0.482c0.644,0.321,1.181,0.777,1.611,1.367
			c0.432,0.59,0.759,1.298,0.983,2.124c0.224,0.826,0.335,1.739,0.335,2.74V14.904z M63.95,14.648c0-0.545-0.047-1.052-0.141-1.52
			c-0.094-0.468-0.242-0.875-0.445-1.221c-0.203-0.346-0.466-0.617-0.787-0.812c-0.322-0.195-0.715-0.293-1.178-0.293
			c-0.578,0-1.053,0.108-1.423,0.324c-0.37,0.215-0.657,0.531-0.86,0.946v5.408c0.203,0.407,0.49,0.727,0.86,0.958
			c0.37,0.232,0.853,0.348,1.446,0.348c0.465,0,0.856-0.102,1.179-0.305c0.321-0.203,0.581-0.482,0.781-0.836
			c0.199-0.354,0.344-0.767,0.433-1.239c0.09-0.472,0.135-0.972,0.135-1.501V14.648z"/>
		<path fill="#1A1A1A" d="M69.113,14.66c0-0.96,0.139-1.851,0.415-2.673c0.276-0.822,0.68-1.532,1.209-2.13
			c0.528-0.599,1.182-1.068,1.959-1.41c0.776-0.342,1.662-0.513,2.654-0.513c1.002,0,1.893,0.171,2.674,0.513
			s1.438,0.812,1.972,1.41c0.532,0.598,0.938,1.308,1.214,2.13c0.277,0.822,0.416,1.713,0.416,2.673v0.256
			c0,0.969-0.139,1.861-0.416,2.68c-0.276,0.817-0.682,1.525-1.214,2.124c-0.533,0.598-1.187,1.066-1.96,1.403
			c-0.772,0.338-1.66,0.507-2.66,0.507c-1.002,0-1.891-0.169-2.668-0.507c-0.777-0.337-1.433-0.806-1.965-1.403
			c-0.533-0.599-0.938-1.307-1.215-2.124c-0.276-0.818-0.415-1.711-0.415-2.68V14.66z M72.642,14.917
			c0,0.537,0.049,1.042,0.146,1.514c0.098,0.472,0.254,0.881,0.47,1.227c0.215,0.346,0.496,0.621,0.842,0.824
			c0.346,0.204,0.771,0.305,1.276,0.305c0.488,0,0.904-0.102,1.251-0.305c0.346-0.203,0.628-0.478,0.849-0.824
			c0.219-0.346,0.378-0.754,0.476-1.227c0.098-0.472,0.146-0.977,0.146-1.514V14.66c0-0.521-0.049-1.015-0.146-1.483
			c-0.098-0.468-0.257-0.879-0.476-1.233c-0.221-0.354-0.505-0.635-0.855-0.842c-0.35-0.208-0.772-0.312-1.27-0.312
			c-0.488,0-0.905,0.104-1.251,0.312c-0.346,0.207-0.627,0.488-0.842,0.842c-0.216,0.354-0.372,0.765-0.47,1.233
			c-0.098,0.468-0.146,0.962-0.146,1.483V14.917z"/>
		<path fill="#1A1A1A" d="M91.221,11.486c-0.18-0.024-0.39-0.047-0.629-0.067c-0.24-0.021-0.454-0.031-0.641-0.031
			c-0.692,0-1.252,0.116-1.679,0.348c-0.428,0.231-0.743,0.567-0.946,1.007v8.643h-3.527V8.178h3.332l0.098,1.575
			c0.334-0.569,0.744-1.015,1.232-1.336c0.488-0.322,1.059-0.482,1.709-0.482c0.188,0,0.385,0.017,0.593,0.049
			c0.207,0.033,0.376,0.069,0.507,0.11L91.221,11.486z"/>
		<path fill="#1A1A1A" d="M97.14,4.931v3.247h2.259v2.588H97.14v6.592c0,0.277,0.029,0.505,0.086,0.684
			c0.057,0.179,0.143,0.319,0.256,0.421c0.114,0.102,0.255,0.171,0.422,0.208c0.166,0.036,0.364,0.055,0.592,0.055
			c0.212,0,0.404-0.008,0.58-0.024c0.175-0.016,0.327-0.037,0.457-0.061v2.673c-0.293,0.089-0.612,0.165-0.958,0.226
			c-0.346,0.062-0.738,0.092-1.178,0.092c-0.578,0-1.099-0.071-1.563-0.214c-0.464-0.142-0.86-0.368-1.19-0.677
			c-0.329-0.309-0.584-0.712-0.763-1.208c-0.179-0.496-0.269-1.094-0.269-1.794v-6.97h-1.929V8.178h1.929V4.931H97.14z"/>
		<path fill="#1A1A1A" d="M40.02,43.124v6.262h-3.662V31.613h6.934c1.05,0,1.987,0.146,2.813,0.439s1.526,0.702,2.1,1.227
			c0.574,0.525,1.012,1.147,1.313,1.868c0.301,0.72,0.451,1.503,0.451,2.35c0,0.863-0.15,1.64-0.451,2.332
			c-0.301,0.692-0.738,1.282-1.313,1.77c-0.573,0.488-1.273,0.865-2.1,1.129c-0.826,0.265-1.764,0.397-2.813,0.397H40.02z
			 M40.02,40.158h3.271c0.521,0,0.971-0.065,1.349-0.195c0.379-0.13,0.688-0.312,0.928-0.543c0.24-0.232,0.417-0.511,0.531-0.836
			c0.114-0.325,0.171-0.679,0.171-1.062c0-0.382-0.057-0.751-0.171-1.104c-0.114-0.354-0.291-0.667-0.531-0.94
			c-0.24-0.272-0.549-0.49-0.928-0.653c-0.378-0.163-0.828-0.244-1.349-0.244H40.02V40.158z"/>
		<path fill="#1A1A1A" d="M55.974,49.386h-3.54v-18.75h3.54V49.386z"/>
		<path fill="#1A1A1A" d="M66.533,49.386c-0.163-0.317-0.28-0.712-0.354-1.184c-0.357,0.399-0.808,0.737-1.349,1.013
			s-1.202,0.415-1.983,0.415c-0.635,0-1.227-0.098-1.776-0.293c-0.549-0.195-1.025-0.468-1.428-0.818
			c-0.403-0.35-0.719-0.767-0.946-1.251c-0.228-0.484-0.342-1.015-0.342-1.593c0-0.691,0.128-1.306,0.385-1.843
			c0.256-0.537,0.641-0.993,1.153-1.367c0.513-0.374,1.149-0.659,1.91-0.854s1.646-0.293,2.655-0.293h1.574v-0.757
			c0-0.61-0.156-1.099-0.47-1.465s-0.808-0.549-1.483-0.549c-0.594,0-1.06,0.143-1.397,0.427c-0.338,0.285-0.507,0.676-0.507,1.172
			h-3.527c0-0.569,0.132-1.111,0.396-1.624s0.641-0.96,1.129-1.343c0.488-0.382,1.079-0.686,1.771-0.909
			c0.691-0.224,1.465-0.336,2.319-0.336c0.765,0,1.473,0.098,2.124,0.293s1.213,0.486,1.685,0.873
			c0.472,0.386,0.84,0.871,1.104,1.452c0.265,0.582,0.397,1.26,0.397,2.033v5.591c0,0.375,0.012,0.71,0.036,1.007
			c0.024,0.297,0.057,0.565,0.098,0.806c0.041,0.24,0.094,0.456,0.159,0.646c0.064,0.191,0.142,0.373,0.231,0.543v0.208H66.533z
			 M63.616,46.933c0.301,0,0.579-0.037,0.836-0.11c0.256-0.073,0.486-0.169,0.689-0.287c0.203-0.118,0.38-0.254,0.531-0.409
			c0.15-0.154,0.271-0.313,0.359-0.476V43.38H64.58c-0.464,0-0.866,0.051-1.208,0.152c-0.342,0.102-0.623,0.244-0.843,0.428
			c-0.22,0.183-0.383,0.398-0.488,0.646c-0.105,0.249-0.159,0.519-0.159,0.812c0,0.439,0.155,0.802,0.465,1.086
			C62.655,46.791,63.079,46.933,63.616,46.933z"/>
		<path fill="#1A1A1A" d="M77.775,46.786c0.326,0,0.623-0.047,0.892-0.14c0.269-0.094,0.501-0.226,0.696-0.397
			s0.348-0.376,0.457-0.617c0.11-0.24,0.169-0.51,0.178-0.812h3.308c-0.008,0.7-0.154,1.345-0.439,1.935
			c-0.285,0.59-0.671,1.099-1.159,1.526c-0.488,0.427-1.064,0.759-1.728,0.995c-0.664,0.236-1.378,0.354-2.143,0.354
			c-1.025,0-1.921-0.173-2.686-0.519c-0.765-0.346-1.399-0.818-1.904-1.416c-0.505-0.599-0.883-1.302-1.136-2.112
			c-0.252-0.81-0.378-1.682-0.378-2.618v-0.342c0-0.936,0.126-1.811,0.378-2.625c0.253-0.813,0.631-1.521,1.136-2.124
			c0.505-0.602,1.137-1.076,1.898-1.422c0.761-0.346,1.649-0.519,2.667-0.519c0.813,0,1.557,0.12,2.228,0.36
			c0.672,0.24,1.247,0.584,1.728,1.031c0.48,0.448,0.854,0.991,1.123,1.63c0.269,0.639,0.407,1.353,0.415,2.142h-3.308
			c-0.009-0.317-0.063-0.617-0.165-0.897c-0.103-0.281-0.246-0.525-0.434-0.732c-0.188-0.208-0.419-0.373-0.696-0.495
			c-0.276-0.122-0.594-0.183-0.951-0.183c-0.514,0-0.933,0.106-1.258,0.317c-0.325,0.212-0.58,0.494-0.763,0.849
			c-0.184,0.354-0.308,0.763-0.372,1.227c-0.065,0.464-0.098,0.944-0.098,1.44v0.342c0,0.505,0.032,0.989,0.098,1.453
			c0.064,0.464,0.188,0.871,0.372,1.221c0.183,0.35,0.438,0.628,0.763,0.836C76.819,46.682,77.247,46.786,77.775,46.786z"/>
		<path fill="#1A1A1A" d="M91.398,49.63c-1.025,0-1.942-0.167-2.752-0.5c-0.811-0.333-1.498-0.789-2.063-1.367
			c-0.565-0.578-0.997-1.255-1.294-2.033c-0.297-0.777-0.445-1.609-0.445-2.496v-0.476c0-1.001,0.145-1.918,0.434-2.752
			c0.288-0.834,0.699-1.552,1.232-2.155c0.533-0.602,1.18-1.072,1.941-1.41c0.761-0.338,1.613-0.507,2.557-0.507
			c0.953,0,1.791,0.157,2.516,0.47c0.724,0.313,1.332,0.753,1.824,1.318c0.492,0.566,0.862,1.248,1.111,2.045
			c0.248,0.798,0.372,1.685,0.372,2.661v1.501H88.42c0.058,0.432,0.173,0.822,0.349,1.172c0.175,0.35,0.398,0.649,0.671,0.897
			c0.272,0.249,0.592,0.442,0.959,0.58c0.365,0.139,0.776,0.208,1.232,0.208c0.643,0,1.237-0.12,1.782-0.36
			c0.545-0.24,1.013-0.612,1.403-1.117l1.734,1.941c-0.212,0.301-0.477,0.594-0.794,0.879c-0.317,0.285-0.691,0.539-1.123,0.763
			c-0.432,0.224-0.918,0.402-1.459,0.537C92.634,49.563,92.042,49.63,91.398,49.63z M90.996,38.791
			c-0.383,0-0.719,0.067-1.007,0.201c-0.289,0.135-0.537,0.322-0.745,0.562c-0.207,0.24-0.376,0.527-0.506,0.861
			c-0.131,0.334-0.225,0.704-0.281,1.111h4.907v-0.281c-0.008-0.35-0.06-0.675-0.152-0.977c-0.094-0.301-0.236-0.562-0.428-0.781
			s-0.436-0.391-0.732-0.513S91.403,38.791,90.996,38.791z"/>
		<path fill="#1A1A1A" d="M105.985,45.736c0-0.187-0.036-0.358-0.109-0.513c-0.073-0.154-0.212-0.299-0.415-0.433
			c-0.203-0.135-0.48-0.263-0.83-0.385s-0.802-0.24-1.354-0.354c-0.676-0.146-1.301-0.33-1.874-0.549
			c-0.574-0.22-1.07-0.492-1.489-0.818c-0.42-0.325-0.747-0.704-0.982-1.135c-0.236-0.431-0.354-0.932-0.354-1.501
			c0-0.553,0.12-1.078,0.36-1.575c0.239-0.496,0.586-0.934,1.037-1.313c0.452-0.378,1.005-0.677,1.66-0.897s1.394-0.33,2.216-0.33
			c0.854,0,1.624,0.106,2.308,0.317c0.684,0.212,1.263,0.507,1.739,0.885c0.476,0.379,0.842,0.829,1.099,1.349
			c0.256,0.521,0.385,1.091,0.385,1.709h-3.528c0-0.504-0.163-0.921-0.488-1.251c-0.325-0.329-0.834-0.494-1.526-0.494
			c-0.594,0-1.054,0.134-1.379,0.403s-0.488,0.61-0.488,1.025c0,0.195,0.043,0.368,0.128,0.519c0.086,0.15,0.224,0.289,0.415,0.415
			c0.191,0.126,0.443,0.242,0.757,0.348c0.313,0.106,0.698,0.204,1.153,0.293c0.717,0.139,1.38,0.31,1.99,0.513
			c0.61,0.204,1.137,0.466,1.581,0.787c0.443,0.322,0.791,0.712,1.044,1.172c0.252,0.46,0.378,1.016,0.378,1.667
			c0,0.586-0.13,1.125-0.391,1.618c-0.261,0.492-0.633,0.917-1.117,1.275c-0.484,0.358-1.067,0.639-1.751,0.842
			s-1.449,0.305-2.295,0.305c-0.928,0-1.746-0.13-2.454-0.391s-1.305-0.602-1.788-1.025c-0.484-0.423-0.849-0.899-1.093-1.428
			c-0.244-0.529-0.366-1.062-0.366-1.599h3.345c0.017,0.342,0.092,0.637,0.226,0.885c0.135,0.249,0.312,0.45,0.531,0.604
			c0.22,0.155,0.474,0.269,0.763,0.342s0.593,0.11,0.909,0.11c0.676,0,1.187-0.128,1.532-0.384
			C105.813,46.487,105.985,46.151,105.985,45.736z"/>
	</g>
	<g>
		<path fill-rule="evenodd" clip-rule="evenodd" fill="#010101" d="M21.536,79.753c1.646-0.843,3.398-0.949,5.216-0.906
			c4.934,0.117,9.868,0.149,14.802,0.219c0.424,0.005,0.847,0.029,1.15,0.041c-0.04,3.34-0.08,6.619-0.12,9.931
			c-5.333,1.604-7.944,4.565-7.881,9.074c0.049,3.454,2.058,7.649,7.748,8.823c-0.036,3.314-0.073,6.613-0.109,9.873
			c-6.059-0.053-12.152-0.004-18.236-0.202c-3.223-0.106-5.456-2.784-5.466-6.036c-0.007-1.277,0.024-2.557,0.041-4.032
			c1.413,0.063,2.693,0.119,3.974,0.179c1.282,0.06,2.564,0.121,3.707,0.178c0.08-6.146,0.156-12.086,0.233-18.162
			c-2.377,0.02-4.943,0.042-7.648,0.063c0.062-2.705-0.34-5.275,1.114-7.604C20.551,80.71,21.043,80.232,21.536,79.753"/>
		<path fill-rule="evenodd" clip-rule="evenodd" fill="#010101" d="M44.738,106.925c5.058-0.802,7.698-4.561,7.925-8.418
			c0.27-4.574-2.371-7.785-7.603-9.416c0.049-3.314,0.1-6.597,0.152-10.066c1.977,0.056,4.113,0.132,6.25,0.17
			c3.689,0.064,7.379,0.089,11.069,0.156c3.817,0.068,6.231,2.563,6.212,6.365c-0.007,1.156,0.015,2.314,0.023,3.522
			c-2.71-0.084-5.307-0.165-7.774-0.24c-0.082,6.226-0.159,12.134-0.236,18.013c2.366,0.014,4.961,0.027,7.704,0.041
			c-0.201,2.975,0.546,5.744-1.526,8.039c-1.155,1.278-2.559,2.082-4.268,2.064c-6.048-0.051-12.095-0.18-18.086-0.28
			C44.631,113.593,44.684,110.298,44.738,106.925"/>
		<path fill-rule="evenodd" clip-rule="evenodd" fill="#010101" d="M68.148,105.187c-1.656-0.02-3.535-0.041-5.328-0.061
			c0.096-4.547,0.19-9.108,0.286-13.662c1.584,0.058,3.485,0.129,5.223,0.191C68.271,96.011,68.209,100.575,68.148,105.187"/>
		<path fill-rule="evenodd" clip-rule="evenodd" fill="#010101" d="M24.423,104.491c-1.819-0.035-3.733-0.074-5.51-0.109
			c0.067-4.399,0.138-8.97,0.207-13.515c1.794,0.052,3.705,0.105,5.492,0.156C24.549,95.435,24.487,100.003,24.423,104.491"/>
		<path fill-rule="evenodd" clip-rule="evenodd" fill="#010101" d="M44.834,104.773c0.07-4.471,0.143-8.957,0.215-13.438
			c2.77,0.106,5.422,3.028,5.581,6.39C50.795,101.252,48.237,104.314,44.834,104.773"/>
		<path fill-rule="evenodd" clip-rule="evenodd" fill="#010101" d="M42.527,91.253c-0.062,4.528-0.123,9.016-0.184,13.482
			c-3.236-0.525-5.646-3.402-5.603-6.814C36.784,94.505,39.273,91.685,42.527,91.253"/>
		<path fill-rule="evenodd" clip-rule="evenodd" fill="#010101" d="M19.115,147.976c0.118-0.434,0.389-0.783,0.631-1.146
			c4.67-7.008,9.34-14.012,14.011-21.016c0.659-0.99,1.908-1.16,2.754-0.373c0.128,0.119,0.234,0.268,0.337,0.41
			c2.645,3.746,5.288,7.49,7.931,11.232c0.03,0.045,0.063,0.088,0.102,0.143c0.336-0.389,0.666-0.77,0.995-1.148
			c1.317-1.523,2.636-3.047,3.952-4.568c0.159-0.184,0.313-0.371,0.475-0.551c0.768-0.844,2.065-0.787,2.76,0.113
			c1.822,2.367,3.646,4.732,5.47,7.098c1.854,2.404,3.705,4.811,5.559,7.215c0.473,0.615,0.95,1.229,1.423,1.844
			c0.842,1.094,0.314,2.594-1.032,2.893c-0.722,0.158-1.339-0.078-1.79-0.66c-2.356-3.047-4.704-6.102-7.054-9.152
			c-1.316-1.709-2.631-3.418-3.947-5.127c-0.035-0.045-0.074-0.088-0.121-0.143c-0.248,0.287-0.487,0.561-0.727,0.836
			c-1.084,1.248-2.167,2.496-3.25,3.744c-0.143,0.164-0.286,0.328-0.43,0.49c-0.076,0.088-0.089,0.166-0.013,0.275
			c0.767,1.096,1.53,2.197,2.291,3.301c0.152,0.223,0.331,0.439,0.429,0.688c0.34,0.855-0.069,1.844-0.901,2.238
			c-0.848,0.404-1.832,0.096-2.332-0.697c-0.35-0.551-0.737-1.076-1.113-1.607c-1.858-2.629-3.719-5.256-5.578-7.881
			c-1.5-2.119-3-4.238-4.5-6.355c-0.02-0.027-0.043-0.055-0.073-0.092c-0.036,0.053-0.069,0.102-0.102,0.148
			c-4.257,6.385-8.514,12.768-12.767,19.152c-0.289,0.436-0.664,0.742-1.177,0.861c-0.938,0.221-1.869-0.322-2.155-1.246
			c-0.015-0.051-0.037-0.098-0.056-0.146V147.976z"/>
		<path fill-rule="evenodd" clip-rule="evenodd" fill="#010101" d="M19.115,154.748c0.132-0.164,0.247-0.344,0.396-0.488
			c0.329-0.324,0.73-0.492,1.2-0.492c14.478,0.002,28.954,0,43.432,0.002c0.848,0,1.572,0.582,1.752,1.406
			c0.182,0.84-0.229,1.672-1.005,2.025c-0.245,0.109-0.504,0.16-0.775,0.16c-14.358,0-28.718,0-43.076,0.002
			c-0.297,0-0.592,0.016-0.878-0.092c-0.395-0.145-0.709-0.385-0.937-0.738c-0.033-0.053-0.072-0.102-0.109-0.15V154.748z"/>
		<path fill-rule="evenodd" clip-rule="evenodd" fill="#010101" d="M19.115,161.759c0.132-0.164,0.247-0.344,0.396-0.488
			c0.329-0.324,0.73-0.492,1.2-0.492c14.478,0.002,28.954,0,43.432,0.002c0.848,0,1.572,0.582,1.752,1.406
			c0.182,0.84-0.229,1.672-1.005,2.025c-0.245,0.109-0.504,0.16-0.775,0.16c-14.358,0-28.718,0-43.076,0.002
			c-0.297,0-0.592,0.016-0.878-0.092c-0.395-0.145-0.709-0.385-0.937-0.738c-0.033-0.053-0.072-0.102-0.109-0.15V161.759z"/>
		<path fill-rule="evenodd" clip-rule="evenodd" fill="#FFFFFF" d="M115.714,97.826c0.082-6.281-0.595-8.555-2.652-12.595
			c-1.695-3.33-4.069-6.083-7.495-7.724c-5.225-2.502-10.287-1.844-15.146,1.059c-3.712,2.217-6.083,5.594-7.921,9.401
			c-2.732,5.661-2.405,11.083,1.237,16.271c1.867,2.659,4.136,4.942,6.515,7.127c1.984,1.823,4.093,3.522,5.708,5.717
			c0.649,0.883,1.328,1.744,2.009,2.602c1.463,1.84,3.071,3.518,5.268,4.498c2.848,1.271,5.825,1.328,8.836,0.879
			c0.955-0.141,1.912-0.387,2.819-0.721c4.563-1.689,6.583-5.43,5.586-10.201c-0.471-2.25-1.383-4.321-2.532-6.292
			c-1.044-1.788-1.893-3.638-2.021-5.739C115.828,100.49,115.765,98.869,115.714,97.826"/>
		<path fill-rule="evenodd" clip-rule="evenodd" fill="#010101" d="M115.714,97.826c0.051,1.043,0.113,2.664,0.212,4.281
			c0.128,2.102,0.978,3.951,2.021,5.738c1.149,1.971,2.061,4.042,2.532,6.293c0.996,4.771-1.023,8.512-5.586,10.199
			c-0.906,0.336-1.864,0.582-2.819,0.723c-3.011,0.449-5.988,0.393-8.835-0.879c-2.198-0.98-3.806-2.656-5.269-4.498
			c-0.681-0.857-1.359-1.719-2.009-2.602c-1.615-2.194-3.723-3.893-5.708-5.717c-2.38-2.186-4.647-4.467-6.515-7.127
			c-3.643-5.188-3.97-10.609-1.237-16.271c1.838-3.809,4.209-7.184,7.921-9.4c4.858-2.902,9.921-3.562,15.146-1.059
			c3.426,1.641,5.8,4.395,7.495,7.725C115.12,89.271,115.796,91.544,115.714,97.826 M113.769,97.836
			c0.012-0.001,0.024-0.002,0.037-0.003c0-0.67-0.009-1.34,0.001-2.008c0.066-4.217-1.197-8.03-3.519-11.508
			c-1.73-2.594-3.933-4.662-6.934-5.685c-4.532-1.54-8.729-0.629-12.598,2.007c-3.688,2.512-5.886,6.146-7.377,10.243
			c-1.435,3.938-0.914,7.707,1.271,11.247c1.414,2.29,3.194,4.289,5.121,6.156c0.845,0.818,1.678,1.658,2.59,2.396
			c2.786,2.258,4.989,5.03,7.147,7.855c1.228,1.605,2.604,3.094,4.516,3.891c3.465,1.447,6.989,1.32,10.443,0.025
			c3.403-1.277,4.836-4.031,4.188-7.618c-0.385-2.125-1.242-4.062-2.311-5.916c-1.164-2.019-2.136-4.104-2.304-6.474
			C113.935,100.912,113.859,99.373,113.769,97.836"/>
		<path fill-rule="evenodd" clip-rule="evenodd" fill="#FFFFFF" d="M113.769,97.837c0.09,1.535,0.166,3.073,0.273,4.609
			c0.167,2.369,1.139,4.455,2.303,6.475c1.069,1.853,1.926,3.791,2.311,5.916c0.648,3.586-0.785,6.34-4.188,7.615
			c-3.454,1.297-6.979,1.424-10.443-0.023c-1.911-0.797-3.288-2.285-4.516-3.891c-2.158-2.826-4.361-5.597-7.147-7.855
			c-0.912-0.739-1.745-1.578-2.59-2.396c-1.927-1.867-3.707-3.865-5.121-6.156c-2.185-3.539-2.705-7.308-1.27-11.246
			c1.49-4.097,3.688-7.733,7.377-10.244c3.868-2.635,8.064-3.547,12.597-2.006c3.001,1.021,5.203,3.09,6.934,5.684
			c2.321,3.479,3.586,7.291,3.519,11.507c-0.01,0.67-0.001,1.339-0.001,2.009C113.793,97.833,113.781,97.835,113.769,97.837
			 M112.82,97.526c0.189-3.623-0.262-6.72-1.633-9.658s-3.13-5.575-5.959-7.282c-4.158-2.51-8.387-2.215-12.569-0.025
			c-3.253,1.705-5.402,4.465-7.096,7.638c-1.119,2.099-1.91,4.291-2.022,6.694c-0.145,3.059,1.096,5.646,2.787,8.06
			c1.687,2.404,3.766,4.46,5.947,6.409c2.087,1.865,4.206,3.693,5.915,5.939c1.03,1.353,2.087,2.692,3.197,3.984
			c1.289,1.498,2.897,2.531,4.869,2.91c2.242,0.432,4.479,0.377,6.69-0.213c4.079-1.088,5.639-3.766,4.604-7.854
			c-0.479-1.887-1.329-3.609-2.31-5.275c-1.135-1.928-1.942-3.973-2.113-6.223C112.989,100.796,112.904,98.955,112.82,97.526"/>
		<path fill-rule="evenodd" clip-rule="evenodd" fill="#010101" d="M112.82,97.526c0.084,1.429,0.169,3.271,0.309,5.106
			c0.171,2.25,0.979,4.293,2.113,6.221c0.98,1.666,1.831,3.389,2.309,5.274c1.036,4.089-0.524,6.767-4.604,7.854
			c-2.211,0.59-4.448,0.645-6.691,0.213c-1.971-0.379-3.58-1.412-4.868-2.91c-1.11-1.292-2.168-2.632-3.197-3.984
			c-1.709-2.246-3.828-4.074-5.915-5.939c-2.183-1.949-4.261-4.006-5.947-6.409c-1.692-2.413-2.932-5.001-2.787-8.06
			c0.112-2.403,0.903-4.596,2.022-6.694c1.692-3.173,3.843-5.933,7.096-7.638c4.182-2.189,8.411-2.484,12.569,0.024
			c2.829,1.707,4.588,4.345,5.959,7.283S113.01,93.903,112.82,97.526 M100.148,83.82c-1.314,0.111-2.229,0.148-3.131,0.273
			c-1.981,0.274-3.908,0.75-5.617,1.85c-0.924,0.596-1.665,1.355-1.965,2.463c-0.368,1.363-0.08,2.342,1.053,3.013
			c1.714,1.015,3.498,1.274,5.287,0.153c2.086-1.307,4.153-1.323,6.225,0.027c0.543,0.354,1.082,0.718,1.648,1.031
			c0.871,0.483,1.498,0.338,1.796-0.582c0.415-1.281,0.809-2.605,0.931-3.938c0.171-1.866-0.746-3.137-2.554-3.643
			C102.506,84.099,101.123,83.984,100.148,83.82 M100.719,104.282c-0.252-1.183-0.413-2.394-0.773-3.542
			c-0.495-1.577-1.526-2.697-3.224-3.064c-2.023-0.437-4.951,0.742-6.067,2.446c-0.602,0.918-0.572,1.8,0.184,2.597
			c0.353,0.375,0.792,0.738,1.265,0.916c2.139,0.805,4.272,1.65,6.468,2.271C100.413,106.427,100.691,105.689,100.719,104.282
			 M111.064,116.872c-0.043-0.403-0.078-0.806-0.132-1.206c-0.198-1.479-0.207-1.482-1.647-1.273
			c-1.089,0.158-1.68-0.156-2.145-1.149c-0.085-0.185-0.148-0.377-0.235-0.56c-0.315-0.664-0.971-0.963-1.606-0.601
			c-0.389,0.224-0.773,0.618-0.943,1.027c-0.94,2.253,0.15,4.89,2.513,6.221C109.21,120.652,111.056,119.564,111.064,116.872
			 M106.424,104.366c0-1.75,0.001-3.45-0.001-5.151c0-0.262,0.022-0.533-0.038-0.785c-0.043-0.174-0.207-0.318-0.317-0.478
			c-0.099,0.171-0.239,0.331-0.282,0.515c-0.049,0.211-0.009,0.442-0.009,0.666v5.202c-1.077,0.593-1.433,1.188-1.216,2.007
			c0.188,0.719,0.834,1.207,1.568,1.187c0.7-0.019,1.34-0.54,1.488-1.214C107.799,105.488,107.43,104.88,106.424,104.366
			 M111.114,100.507c-1.461-0.703-2.771-1.332-4.145-1.992v4.045C108.35,101.876,109.656,101.228,111.114,100.507"/>
		<path fill-rule="evenodd" clip-rule="evenodd" fill="#FFFFFF" d="M100.148,83.82c0.975,0.164,2.358,0.28,3.673,0.648
			c1.807,0.506,2.725,1.777,2.554,3.643c-0.123,1.332-0.516,2.656-0.931,3.938c-0.298,0.921-0.925,1.064-1.796,0.583
			c-0.566-0.315-1.105-0.679-1.648-1.032c-2.071-1.35-4.139-1.334-6.225-0.027c-1.789,1.121-3.573,0.861-5.287-0.152
			c-1.133-0.672-1.421-1.649-1.053-3.014c0.3-1.107,1.041-1.867,1.965-2.463c1.709-1.1,3.636-1.576,5.617-1.85
			C97.918,83.968,98.833,83.93,100.148,83.82"/>
		<path fill-rule="evenodd" clip-rule="evenodd" fill="#FFFFFF" d="M100.719,104.283c-0.028,1.405-0.307,2.145-2.148,1.623
			c-2.195-0.621-4.33-1.467-6.468-2.271c-0.473-0.179-0.912-0.541-1.265-0.916c-0.756-0.8-0.785-1.681-0.184-2.599
			c1.116-1.703,4.043-2.881,6.067-2.444c1.697,0.366,2.728,1.485,3.224,3.063C100.306,101.888,100.468,103.099,100.719,104.283"/>
		<path fill-rule="evenodd" clip-rule="evenodd" fill="#FFFFFF" d="M111.064,116.872c-0.008,2.692-1.854,3.78-4.196,2.459
			c-2.362-1.331-3.453-3.968-2.513-6.222c0.17-0.407,0.555-0.803,0.943-1.026c0.636-0.362,1.291-0.063,1.606,0.601
			c0.087,0.184,0.15,0.375,0.235,0.559c0.465,0.994,1.056,1.309,2.145,1.15c1.44-0.209,1.449-0.205,1.647,1.273
			C110.986,116.066,111.021,116.469,111.064,116.872"/>
		<path fill-rule="evenodd" clip-rule="evenodd" fill="#FFFFFF" d="M106.424,104.366c1.006,0.515,1.375,1.123,1.193,1.948
			c-0.148,0.674-0.788,1.197-1.488,1.215c-0.734,0.02-1.38-0.469-1.568-1.188c-0.216-0.818,0.139-1.414,1.217-2.007v-5.203
			c0-0.223-0.04-0.454,0.008-0.666c0.043-0.183,0.185-0.343,0.283-0.514c0.109,0.159,0.274,0.304,0.316,0.478
			c0.061,0.252,0.038,0.523,0.038,0.786C106.425,100.916,106.424,102.616,106.424,104.366"/>
		<path fill-rule="evenodd" clip-rule="evenodd" fill="#FFFFFF" d="M111.114,100.507c-1.458,0.721-2.764,1.369-4.145,2.053v-4.045
			C108.342,99.175,109.653,99.804,111.114,100.507"/>
		<path fill-rule="evenodd" clip-rule="evenodd" fill="#010101" d="M125.113,150.632c-1.639,0.008-2.828-0.887-3.914-1.973
			c-0.4-0.4-0.762-0.84-1.182-1.305c-1.385,1.625-2.767,3.295-5.124,3.275c-2.325-0.02-3.675-1.697-5.046-3.271
			c-3.471,4.393-6.732,4.375-10.161,0.031c-4.474,4.355-6.488,4.357-10.181-0.039c-1.405,1.559-2.744,3.24-5.11,3.281v-3.258
			c2.229-0.275,3.741-1.648,5.076-3.396c1.399,1.688,2.84,3.342,5.161,3.307c2.288-0.031,3.698-1.674,5.031-3.307
			c3.641,4.445,6.542,4.445,10.166,0.016c3.661,4.588,6.838,4.197,10.195-0.004c1.328,1.689,2.836,3.119,5.088,3.385V150.632z"/>
		<path fill-rule="evenodd" clip-rule="evenodd" fill="#010101" d="M125.113,162.576c-2.262-0.213-3.734-1.643-5.08-3.377
			c-1.385,1.684-2.817,3.342-5.137,3.322c-2.29-0.021-3.7-1.662-5.034-3.293c-3.568,4.4-6.633,4.414-10.194,0.025
			c-3.909,4.887-7.13,3.83-10.178-0.043c-1.34,1.672-2.806,3.162-5.094,3.365v-3.438c1.577,0.043,2.727-0.82,3.793-1.826
			c0.456-0.428,0.848-0.926,1.298-1.426c1.409,1.596,2.765,3.285,5.138,3.252c2.326-0.033,3.679-1.682,5.044-3.262
			c3.445,4.379,6.728,4.375,10.147,0.033c4.495,4.295,6.717,4.301,10.18-0.035c1.416,1.543,2.742,3.25,5.117,3.264V162.576z"/>
		<path fill-rule="evenodd" clip-rule="evenodd" fill="#010101" d="M84.396,135.431c2.306-0.119,3.703-1.666,5.084-3.316
			c1.379,1.643,2.774,3.264,5.07,3.287c2.325,0.021,3.706-1.639,5.11-3.275c1.372,1.609,2.754,3.254,5.048,3.273
			c2.322,0.021,3.727-1.598,5.122-3.27c1.383,1.566,2.739,3.252,5.038,3.271c2.32,0.02,3.735-1.578,5.139-3.279
			c1.389,1.59,2.777,3.203,5.105,3.309v3.438c-2.217-0.301-3.74-1.648-5.063-3.422c-1.402,1.617-2.772,3.311-5.11,3.307
			c-2.321-0.006-3.716-1.617-5.087-3.295c-1.376,1.629-2.765,3.295-5.1,3.291c-2.323-0.002-3.711-1.627-5.079-3.293
			c-1.368,1.629-2.759,3.301-5.106,3.295c-2.319-0.004-3.699-1.637-5.09-3.314c-1.313,1.73-2.832,3.141-5.083,3.432V135.431z"/>
	</g>
</g>
</svg>
