<?xml version="1.0" encoding="utf-8"?>
<!-- Generator: Adobe Illustrator 16.0.0, SVG Export Plug-In . SVG Version: 6.00 Build 0)  -->
<!DOCTYPE svg PUBLIC "-//W3C//DTD SVG 1.1//EN" "http://www.w3.org/Graphics/SVG/1.1/DTD/svg11.dtd">
<svg version="1.1" id="Layer_1" xmlns="http://www.w3.org/2000/svg" xmlns:xlink="http://www.w3.org/1999/xlink" x="0px" y="0px"
	 width="16px" height="16px" viewBox="0 0 16 16" enable-background="new 0 0 16 16" xml:space="preserve">
<path d="M13.414,1.755H3.23c-0.769,0-1.399,0.63-1.399,1.4h0.001v9.908c0,0.771,0.524,1.052,1.165,0.625l0.916-0.611
	c0.64-0.426,1.794-0.775,2.564-0.775h6.937c0.77,0,1.4-0.629,1.4-1.4V3.155C14.814,2.385,14.186,1.755,13.414,1.755z M5.623,6.297
	c0,0.028,0.021,0.07,0.043,0.082C5.898,6.5,6.027,6.687,6.023,6.951C6.02,7.213,5.889,7.396,5.654,7.506
	c-0.009,0.007-0.02,0.011-0.035,0.018c0,0.551,0.001,1.098-0.001,1.643c0,0.049,0.021,0.065,0.06,0.086
	c0.225,0.115,0.346,0.299,0.346,0.556c0.002,0.25-0.119,0.434-0.338,0.549c-0.051,0.024-0.074,0.051-0.067,0.104
	c0.005,0.052,0,0.103,0,0.157c-0.138,0-0.267,0-0.411,0c0-0.059,0.006-0.113-0.002-0.168C5.2,10.42,5.178,10.378,5.15,10.364
	c-0.223-0.117-0.349-0.302-0.35-0.554c0-0.259,0.127-0.446,0.359-0.565c0.022-0.011,0.047-0.047,0.047-0.073
	c0.003-0.531,0.002-1.063,0.003-1.596c0-0.043-0.02-0.062-0.055-0.08C4.927,7.384,4.802,7.199,4.8,6.947
	c-0.002-0.253,0.12-0.44,0.345-0.556C5.191,6.367,5.209,6.342,5.209,6.29c-0.002-0.521-0.002-1.041,0-1.562
	c0-0.05-0.016-0.077-0.063-0.101C4.919,4.514,4.799,4.323,4.8,4.072c0.002-0.246,0.124-0.433,0.347-0.545
	C5.194,3.502,5.213,3.478,5.21,3.425C5.205,3.373,5.208,3.321,5.208,3.263c0.142,0,0.272,0,0.409,0c0,0.08,0,0.155,0,0.23
	C5.818,3.58,5.958,3.718,6.009,3.93c0.069,0.287-0.062,0.568-0.327,0.697c-0.048,0.022-0.063,0.047-0.063,0.1
	C5.621,5.251,5.62,5.773,5.623,6.297z M6.61,3.905c0.234-0.237,0.474-0.472,0.707-0.71c0.098-0.098,0.209-0.143,0.348-0.143
	c0.942,0,1.887,0,2.831,0c0.166,0,0.234,0.073,0.234,0.236c0,0.526,0,1.052,0.002,1.577c0,0.168-0.07,0.238-0.243,0.238
	c-0.476,0-0.948,0-1.423,0V5.1H9.064c-0.467,0-0.934,0-1.398,0.002C7.527,5.104,7.415,5.057,7.318,4.961
	C7.081,4.722,6.841,4.484,6.604,4.245C6.485,4.124,6.487,4.027,6.61,3.905z M10.527,10.592c0,0.168-0.065,0.235-0.233,0.235
	c-0.448,0.003-0.896,0.002-1.341,0.002c-0.426,0-0.85-0.002-1.273,0.001c-0.152,0.002-0.271-0.047-0.377-0.153
	c-0.228-0.231-0.46-0.461-0.689-0.692C6.485,9.855,6.485,9.761,6.612,9.632c0.234-0.233,0.471-0.47,0.703-0.705
	C7.411,8.83,7.521,8.781,7.66,8.783c0.877,0.002,1.755,0,2.63,0.002c0.172,0,0.237,0.064,0.237,0.238
	C10.527,9.546,10.527,10.07,10.527,10.592z M12.166,7.725c0,0.17-0.07,0.242-0.242,0.242c-1.424,0-2.851,0-4.275,0
	c-0.123,0-0.229-0.043-0.317-0.132c-0.246-0.248-0.493-0.493-0.74-0.739c-0.101-0.103-0.101-0.208,0-0.311
	c0.246-0.246,0.493-0.492,0.74-0.74c0.095-0.094,0.21-0.131,0.343-0.131c0.705,0.002,1.41,0.001,2.116,0.002c0.705,0,1.41,0,2.117,0
	c0.191,0,0.258,0.065,0.258,0.257C12.166,6.692,12.166,7.209,12.166,7.725z"/>
</svg>
