<?xml version="1.0" encoding="utf-8"?>
<!-- Generator: Adobe Illustrator 16.0.0, SVG Export Plug-In . SVG Version: 6.00 Build 0)  -->
<!DOCTYPE svg PUBLIC "-//W3C//DTD SVG 1.1//EN" "http://www.w3.org/Graphics/SVG/1.1/DTD/svg11.dtd">
<svg version="1.1" id="Layer_1" xmlns="http://www.w3.org/2000/svg" xmlns:xlink="http://www.w3.org/1999/xlink" x="0px" y="0px"
	 width="164px" height="213.121px" viewBox="0 0 164 213.121" enable-background="new 0 0 164 213.121" xml:space="preserve">
<g>
	<path fill="#FFFFFF" d="M163.263,191.896c0,6.383-5.177,11.561-11.562,11.561H12.964c-6.385,0-11.561-5.178-11.561-11.561V87.844
		c0-6.385,5.176-11.562,11.561-11.562h138.737c6.385,0,11.562,5.177,11.562,11.562V191.896z"/>
	<path fill="none" stroke="#000000" stroke-width="2" stroke-miterlimit="10" d="M163.263,191.896
		c0,6.383-5.177,11.561-11.562,11.561H12.964c-6.385,0-11.561-5.178-11.561-11.561V87.844c0-6.385,5.176-11.562,11.561-11.562
		h138.737c6.385,0,11.562,5.177,11.562,11.562V191.896z"/>
</g>
<path fill="#1A1A1A" d="M62.637,21.239c0-0.309-0.044-0.588-0.134-0.836c-0.09-0.249-0.263-0.478-0.519-0.69
	c-0.257-0.211-0.61-0.419-1.063-0.623c-0.451-0.203-1.035-0.419-1.752-0.647c-0.813-0.26-1.58-0.553-2.301-0.879
	c-0.72-0.325-1.351-0.71-1.892-1.154c-0.542-0.443-0.969-0.954-1.282-1.532s-0.47-1.253-0.47-2.026c0-0.74,0.16-1.418,0.482-2.033
	c0.321-0.614,0.772-1.137,1.354-1.568s1.273-0.767,2.075-1.007c0.802-0.24,1.683-0.36,2.644-0.36c0.984,0,1.879,0.136,2.686,0.409
	c0.805,0.272,1.493,0.653,2.063,1.141c0.57,0.488,1.009,1.068,1.318,1.74c0.31,0.671,0.464,1.406,0.464,2.203h-3.662
	c0-0.374-0.06-0.72-0.177-1.038c-0.118-0.317-0.299-0.59-0.543-0.818c-0.244-0.228-0.55-0.405-0.916-0.531
	c-0.366-0.126-0.798-0.189-1.294-0.189c-0.48,0-0.897,0.053-1.251,0.159c-0.353,0.107-0.646,0.253-0.877,0.44
	c-0.232,0.188-0.407,0.407-0.525,0.659s-0.177,0.521-0.177,0.806c0,0.586,0.299,1.076,0.897,1.471
	c0.598,0.395,1.475,0.763,2.631,1.105c0.968,0.301,1.82,0.635,2.557,1.001c0.737,0.366,1.351,0.781,1.844,1.245
	c0.492,0.464,0.864,0.985,1.117,1.563c0.252,0.578,0.378,1.233,0.378,1.965c0,0.781-0.152,1.477-0.458,2.087
	c-0.305,0.61-0.738,1.125-1.3,1.544c-0.562,0.419-1.239,0.74-2.032,0.964c-0.794,0.224-1.679,0.336-2.655,0.336
	c-0.586,0-1.172-0.051-1.758-0.152c-0.586-0.102-1.146-0.258-1.679-0.47c-0.533-0.211-1.027-0.476-1.482-0.793
	c-0.456-0.317-0.854-0.691-1.19-1.123c-0.338-0.431-0.603-0.922-0.794-1.471c-0.191-0.55-0.287-1.158-0.287-1.825h3.675
	c0,0.537,0.085,0.993,0.257,1.367c0.17,0.375,0.408,0.678,0.714,0.909c0.305,0.232,0.673,0.401,1.104,0.507
	c0.432,0.106,0.911,0.159,1.44,0.159c0.472,0,0.883-0.051,1.233-0.153s0.639-0.242,0.866-0.421c0.228-0.179,0.396-0.393,0.507-0.641
	C62.582,21.791,62.637,21.524,62.637,21.239z"/>
<path fill="#1A1A1A" d="M80.446,19.42c0,0.96-0.111,1.852-0.335,2.673c-0.225,0.822-0.552,1.532-0.983,2.13
	c-0.431,0.599-0.966,1.068-1.604,1.41c-0.64,0.342-1.374,0.513-2.204,0.513c-0.699,0-1.316-0.122-1.849-0.366
	c-0.533-0.244-0.995-0.586-1.386-1.025v6.226h-3.527V12.694h3.271l0.121,1.294c0.407-0.488,0.881-0.867,1.423-1.135
	c0.541-0.269,1.182-0.403,1.923-0.403c0.838,0,1.578,0.161,2.221,0.482c0.644,0.321,1.181,0.777,1.611,1.367
	c0.432,0.59,0.759,1.298,0.983,2.124c0.224,0.826,0.335,1.739,0.335,2.74V19.42z M76.919,19.164c0-0.545-0.047-1.052-0.141-1.52
	c-0.094-0.468-0.242-0.875-0.445-1.221c-0.203-0.346-0.466-0.617-0.787-0.812c-0.322-0.195-0.715-0.293-1.178-0.293
	c-0.578,0-1.053,0.108-1.423,0.324c-0.37,0.215-0.657,0.531-0.86,0.946v5.408c0.203,0.407,0.49,0.727,0.86,0.958
	c0.37,0.232,0.853,0.348,1.446,0.348c0.465,0,0.856-0.102,1.179-0.305c0.321-0.203,0.581-0.482,0.781-0.836
	c0.199-0.354,0.344-0.767,0.433-1.239c0.09-0.472,0.135-0.972,0.135-1.501V19.164z"/>
<path fill="#1A1A1A" d="M82.082,19.176c0-0.96,0.139-1.851,0.415-2.673c0.276-0.822,0.68-1.532,1.209-2.13
	c0.528-0.599,1.183-1.068,1.959-1.41c0.776-0.342,1.662-0.513,2.653-0.513c1.002,0,1.894,0.171,2.675,0.513
	c0.78,0.342,1.438,0.812,1.972,1.41c0.532,0.598,0.938,1.308,1.215,2.13c0.276,0.822,0.416,1.713,0.416,2.673v0.256
	c0,0.969-0.14,1.861-0.416,2.68c-0.277,0.817-0.683,1.525-1.215,2.124c-0.533,0.598-1.188,1.066-1.96,1.403
	c-0.772,0.338-1.659,0.507-2.659,0.507c-1.003,0-1.892-0.169-2.669-0.507c-0.776-0.337-1.433-0.806-1.965-1.403
	c-0.532-0.599-0.938-1.307-1.215-2.124c-0.276-0.818-0.415-1.711-0.415-2.68V19.176z M85.609,19.433c0,0.537,0.05,1.042,0.146,1.514
	c0.098,0.472,0.254,0.881,0.471,1.227c0.215,0.346,0.496,0.621,0.842,0.824c0.346,0.204,0.771,0.305,1.275,0.305
	c0.488,0,0.904-0.102,1.252-0.305c0.346-0.203,0.627-0.478,0.848-0.824c0.22-0.346,0.379-0.754,0.477-1.227
	c0.098-0.472,0.146-0.978,0.146-1.514v-0.256c0-0.521-0.049-1.015-0.146-1.483c-0.098-0.468-0.257-0.879-0.477-1.233
	c-0.221-0.354-0.504-0.635-0.854-0.842c-0.351-0.208-0.772-0.312-1.271-0.312c-0.487,0-0.904,0.104-1.25,0.312
	c-0.346,0.207-0.627,0.488-0.842,0.842c-0.217,0.354-0.373,0.765-0.471,1.233c-0.098,0.468-0.146,0.962-0.146,1.483V19.433z"/>
<path fill="#1A1A1A" d="M104.189,16.002c-0.181-0.024-0.391-0.047-0.629-0.067c-0.24-0.021-0.455-0.031-0.642-0.031
	c-0.692,0-1.252,0.116-1.679,0.348c-0.428,0.231-0.743,0.567-0.946,1.007v8.643h-3.526V12.694h3.332l0.098,1.575
	c0.334-0.569,0.744-1.015,1.232-1.336c0.487-0.322,1.059-0.482,1.709-0.482c0.188,0,0.385,0.017,0.592,0.049
	c0.207,0.033,0.377,0.069,0.508,0.11L104.189,16.002z"/>
<path fill="#1A1A1A" d="M110.107,9.447v3.247h2.26v2.588h-2.26v6.592c0,0.277,0.029,0.505,0.086,0.684
	c0.058,0.179,0.144,0.319,0.257,0.421c0.114,0.102,0.255,0.171,0.422,0.208c0.166,0.036,0.364,0.055,0.592,0.055
	c0.212,0,0.404-0.008,0.58-0.024c0.175-0.016,0.327-0.037,0.457-0.061v2.673c-0.293,0.089-0.612,0.165-0.958,0.226
	c-0.346,0.062-0.738,0.092-1.178,0.092c-0.578,0-1.1-0.071-1.563-0.214c-0.464-0.142-0.86-0.368-1.19-0.677
	c-0.328-0.309-0.584-0.712-0.762-1.208c-0.18-0.496-0.27-1.094-0.27-1.794v-6.97h-1.93v-2.591h1.93V9.447H110.107z"/>
<path fill="#1A1A1A" d="M20.156,50.418c0,1.359-0.183,2.578-0.55,3.656c-0.365,1.079-0.881,1.992-1.544,2.741
	s-1.458,1.325-2.386,1.727c-0.928,0.403-1.949,0.604-3.064,0.604c-1.115,0-2.137-0.201-3.064-0.604
	C8.62,58.14,7.821,57.564,7.15,56.815s-1.194-1.662-1.568-2.741c-0.374-1.078-0.562-2.296-0.562-3.656v-0.781
	c0-1.351,0.185-2.567,0.556-3.65c0.37-1.082,0.889-2.002,1.557-2.759c0.667-0.757,1.465-1.337,2.393-1.739
	c0.928-0.403,1.948-0.604,3.063-0.604c1.115,0,2.136,0.201,3.063,0.604c0.928,0.402,1.726,0.982,2.393,1.739
	c0.668,0.757,1.187,1.677,1.557,2.759c0.37,1.083,0.556,2.299,0.556,3.65v0.781H20.156z M16.445,49.613
	c0-1.863-0.334-3.279-1.001-4.248c-0.667-0.968-1.619-1.453-2.856-1.453c-1.237,0-2.189,0.484-2.856,1.453
	C9.064,46.333,8.73,47.75,8.73,49.613v0.806c0,0.928,0.087,1.748,0.263,2.459c0.175,0.712,0.427,1.311,0.757,1.795
	c0.329,0.484,0.734,0.85,1.214,1.099c0.48,0.248,1.03,0.372,1.648,0.372c1.237,0,2.186-0.488,2.844-1.465
	c0.66-0.977,0.989-2.396,0.989-4.26V49.613z"/>
<path fill="#1A1A1A" d="M30.008,49.002c-0.18-0.024-0.39-0.047-0.629-0.067c-0.24-0.021-0.454-0.031-0.641-0.031
	c-0.692,0-1.252,0.116-1.679,0.348c-0.428,0.231-0.743,0.567-0.946,1.007v8.643h-3.527V45.694h3.332l0.098,1.575
	c0.334-0.569,0.744-1.015,1.232-1.336c0.488-0.322,1.059-0.482,1.709-0.482c0.188,0,0.385,0.017,0.593,0.049
	c0.207,0.033,0.376,0.069,0.507,0.11L30.008,49.002z"/>
<path fill="#1A1A1A" d="M31.19,52.201c0-1.001,0.124-1.917,0.373-2.747c0.248-0.83,0.602-1.542,1.062-2.136
	c0.46-0.594,1.02-1.054,1.679-1.379c0.659-0.325,1.404-0.488,2.234-0.488c0.772,0,1.434,0.13,1.983,0.391
	c0.549,0.261,1.015,0.627,1.397,1.099l0.146-1.245h3.198v12.756c0,0.903-0.154,1.705-0.464,2.405c-0.31,0.7-0.743,1.292-1.3,1.776
	c-0.558,0.484-1.226,0.85-2.002,1.099c-0.777,0.248-1.638,0.372-2.582,0.372c-0.407,0-0.838-0.041-1.294-0.122
	c-0.456-0.082-0.905-0.208-1.349-0.378c-0.444-0.171-0.865-0.387-1.264-0.647c-0.398-0.261-0.736-0.57-1.013-0.928l1.563-2.148
	c0.414,0.464,0.889,0.826,1.422,1.086c0.532,0.26,1.125,0.391,1.775,0.391c0.937,0,1.665-0.25,2.186-0.75
	c0.521-0.501,0.781-1.211,0.781-2.13V57.77c-0.391,0.439-0.851,0.779-1.379,1.019c-0.529,0.24-1.14,0.36-1.832,0.36
	c-0.821,0-1.561-0.169-2.215-0.507c-0.655-0.337-1.213-0.803-1.673-1.397c-0.46-0.594-0.813-1.3-1.062-2.118
	c-0.249-0.817-0.373-1.707-0.373-2.667v-0.259H31.19z M34.719,52.457c0,0.537,0.053,1.038,0.159,1.501
	c0.105,0.464,0.27,0.869,0.494,1.214c0.224,0.346,0.504,0.619,0.842,0.818c0.338,0.199,0.738,0.299,1.203,0.299
	c0.561,0,1.031-0.105,1.409-0.317c0.379-0.211,0.678-0.508,0.897-0.891v-5.554c-0.228-0.391-0.527-0.689-0.897-0.897
	c-0.37-0.207-0.832-0.311-1.386-0.311c-0.463,0-0.864,0.1-1.202,0.299c-0.338,0.199-0.62,0.474-0.849,0.824
	c-0.228,0.35-0.396,0.761-0.506,1.233c-0.11,0.472-0.165,0.981-0.165,1.526v0.256H34.719z"/>
<path fill="#1A1A1A" d="M53.627,58.902c-0.163-0.317-0.28-0.712-0.354-1.184c-0.357,0.399-0.808,0.737-1.349,1.013
	s-1.202,0.415-1.983,0.415c-0.635,0-1.227-0.098-1.776-0.293s-1.025-0.468-1.428-0.818c-0.403-0.35-0.719-0.767-0.946-1.251
	c-0.228-0.484-0.342-1.015-0.342-1.593c0-0.691,0.128-1.306,0.385-1.843c0.256-0.537,0.641-0.993,1.153-1.367
	c0.513-0.374,1.149-0.659,1.91-0.854c0.761-0.195,1.646-0.293,2.655-0.293h1.574v-0.757c0-0.61-0.156-1.099-0.47-1.465
	c-0.314-0.366-0.808-0.549-1.483-0.549c-0.594,0-1.06,0.143-1.397,0.427c-0.338,0.285-0.507,0.676-0.507,1.172h-3.527
	c0-0.569,0.132-1.111,0.396-1.624c0.264-0.513,0.641-0.96,1.129-1.343c0.488-0.382,1.079-0.686,1.771-0.909
	c0.691-0.224,1.465-0.336,2.319-0.336c0.765,0,1.473,0.098,2.124,0.293c0.651,0.195,1.213,0.486,1.685,0.873
	c0.472,0.386,0.84,0.871,1.104,1.452c0.265,0.582,0.397,1.26,0.397,2.033v5.591c0,0.375,0.012,0.71,0.036,1.007
	c0.024,0.297,0.057,0.565,0.098,0.806c0.041,0.24,0.094,0.456,0.159,0.646c0.064,0.191,0.142,0.373,0.231,0.543v0.208H53.627z
	 M50.71,56.449c0.301,0,0.579-0.037,0.836-0.11c0.256-0.073,0.486-0.169,0.689-0.287c0.203-0.118,0.38-0.254,0.531-0.409
	c0.15-0.154,0.271-0.313,0.359-0.476v-2.271h-1.452c-0.464,0-0.866,0.051-1.208,0.152c-0.342,0.102-0.623,0.244-0.843,0.428
	c-0.22,0.183-0.383,0.398-0.488,0.646c-0.105,0.249-0.159,0.519-0.159,0.812c0,0.439,0.155,0.802,0.465,1.086
	C49.749,56.307,50.173,56.449,50.71,56.449z"/>
<path fill="#1A1A1A" d="M62.623,45.694l0.11,1.526c0.456-0.569,1.005-1.007,1.647-1.312c0.644-0.306,1.359-0.458,2.148-0.458
	c0.627,0,1.197,0.087,1.709,0.263c0.514,0.175,0.953,0.462,1.318,0.86c0.367,0.399,0.649,0.92,0.849,1.563
	c0.199,0.643,0.3,1.433,0.3,2.368v8.398h-3.528v-8.423c0-0.423-0.047-0.773-0.141-1.05c-0.094-0.276-0.229-0.496-0.409-0.659
	c-0.179-0.163-0.398-0.279-0.658-0.348c-0.261-0.069-0.563-0.104-0.904-0.104c-0.521,0-0.966,0.114-1.336,0.342
	c-0.371,0.228-0.67,0.537-0.897,0.928v9.314h-3.528V45.694H62.623z"/>
<path fill="#1A1A1A" d="M73.353,42.276c0-0.529,0.178-0.964,0.531-1.306c0.354-0.342,0.836-0.513,1.447-0.513
	c0.301,0,0.573,0.045,0.817,0.134c0.244,0.09,0.452,0.216,0.622,0.378c0.172,0.163,0.304,0.356,0.397,0.58
	c0.093,0.224,0.14,0.466,0.14,0.727c0,0.269-0.047,0.515-0.14,0.738c-0.094,0.224-0.226,0.417-0.397,0.58
	c-0.17,0.163-0.378,0.289-0.622,0.378c-0.244,0.09-0.517,0.134-0.817,0.134c-0.302,0-0.574-0.044-0.818-0.134
	c-0.244-0.089-0.451-0.215-0.623-0.378c-0.17-0.163-0.303-0.356-0.396-0.58C73.399,42.791,73.353,42.545,73.353,42.276z
	 M77.101,58.902h-3.54V45.694h3.54V58.902z"/>
<path fill="#1A1A1A" d="M84.061,56.058h6.457v2.844H79.555v-2.148l6.214-8.203h-6.032v-2.856h10.584v2.087L84.061,56.058z"/>
<path fill="#1A1A1A" d="M100.38,58.902c-0.163-0.317-0.28-0.712-0.354-1.184c-0.356,0.399-0.808,0.737-1.349,1.013
	c-0.54,0.276-1.202,0.415-1.983,0.415c-0.635,0-1.227-0.098-1.775-0.293s-1.025-0.468-1.428-0.818
	c-0.403-0.35-0.719-0.767-0.946-1.251c-0.228-0.484-0.342-1.015-0.342-1.593c0-0.691,0.128-1.306,0.385-1.843
	c0.256-0.537,0.642-0.993,1.153-1.367c0.513-0.374,1.148-0.659,1.91-0.854c0.761-0.195,1.646-0.293,2.654-0.293h1.574v-0.757
	c0-0.61-0.156-1.099-0.47-1.465c-0.313-0.366-0.808-0.549-1.483-0.549c-0.594,0-1.06,0.143-1.396,0.427
	c-0.338,0.285-0.508,0.676-0.508,1.172h-3.526c0-0.569,0.132-1.111,0.396-1.624c0.264-0.513,0.642-0.96,1.129-1.343
	c0.488-0.382,1.08-0.686,1.771-0.909c0.691-0.224,1.465-0.336,2.318-0.336c0.766,0,1.474,0.098,2.125,0.293
	c0.65,0.195,1.213,0.486,1.685,0.873c0.472,0.386,0.84,0.871,1.104,1.452c0.265,0.582,0.396,1.26,0.396,2.033v5.591
	c0,0.375,0.012,0.71,0.036,1.007c0.024,0.297,0.058,0.565,0.099,0.806c0.041,0.24,0.094,0.456,0.158,0.646
	c0.064,0.191,0.143,0.373,0.23,0.543v0.208H100.38z M97.463,56.449c0.301,0,0.579-0.037,0.836-0.11
	c0.256-0.073,0.486-0.169,0.689-0.287c0.203-0.118,0.38-0.254,0.531-0.409c0.149-0.154,0.271-0.313,0.358-0.476v-2.271h-1.452
	c-0.464,0-0.865,0.051-1.208,0.152c-0.342,0.102-0.622,0.244-0.843,0.428c-0.221,0.183-0.383,0.398-0.488,0.646
	c-0.104,0.249-0.158,0.519-0.158,0.812c0,0.439,0.154,0.802,0.465,1.086C96.502,56.307,96.926,56.449,97.463,56.449z"/>
<path fill="#1A1A1A" d="M110.354,42.447v3.247h2.258v2.588h-2.258v6.592c0,0.277,0.028,0.505,0.086,0.684
	c0.057,0.179,0.143,0.319,0.256,0.421s0.255,0.171,0.422,0.208c0.166,0.036,0.363,0.055,0.592,0.055c0.212,0,0.404-0.008,0.58-0.024
	c0.175-0.016,0.327-0.037,0.457-0.061v2.673c-0.293,0.089-0.612,0.165-0.958,0.226c-0.347,0.062-0.738,0.092-1.179,0.092
	c-0.577,0-1.098-0.071-1.563-0.214c-0.464-0.142-0.859-0.368-1.189-0.677c-0.33-0.309-0.584-0.712-0.764-1.208
	c-0.179-0.496-0.269-1.094-0.269-1.794v-6.97h-1.929v-2.588h1.929V42.45h3.528V42.447z"/>
<path fill="#1A1A1A" d="M114.552,42.276c0-0.529,0.179-0.964,0.531-1.306c0.354-0.342,0.836-0.513,1.446-0.513
	c0.302,0,0.574,0.045,0.818,0.134c0.243,0.09,0.451,0.216,0.621,0.378c0.172,0.163,0.305,0.356,0.397,0.58
	c0.093,0.224,0.14,0.466,0.14,0.727c0,0.269-0.047,0.515-0.14,0.738c-0.095,0.224-0.226,0.417-0.397,0.58
	c-0.17,0.163-0.378,0.289-0.621,0.378c-0.244,0.09-0.518,0.134-0.818,0.134s-0.573-0.044-0.817-0.134
	c-0.244-0.089-0.45-0.215-0.623-0.378c-0.17-0.163-0.303-0.356-0.396-0.58C114.6,42.791,114.552,42.545,114.552,42.276z
	 M118.3,58.902h-3.54V45.694h3.54V58.902z"/>
<path fill="#1A1A1A" d="M120.656,52.176c0-0.96,0.139-1.851,0.414-2.673c0.277-0.822,0.681-1.532,1.209-2.13
	c0.529-0.599,1.183-1.068,1.959-1.41c0.777-0.342,1.662-0.513,2.654-0.513c1.002,0,1.894,0.171,2.674,0.513
	c0.781,0.342,1.438,0.812,1.973,1.41c0.531,0.598,0.938,1.308,1.214,2.13c0.276,0.822,0.416,1.713,0.416,2.673v0.256
	c0,0.969-0.14,1.861-0.416,2.68c-0.276,0.817-0.683,1.525-1.214,2.124c-0.533,0.598-1.188,1.066-1.96,1.403
	c-0.772,0.338-1.66,0.507-2.66,0.507c-1.002,0-1.892-0.169-2.668-0.507c-0.776-0.337-1.433-0.806-1.965-1.403
	c-0.533-0.599-0.938-1.307-1.216-2.124c-0.275-0.818-0.414-1.711-0.414-2.68V52.176z M124.186,52.433
	c0,0.537,0.049,1.042,0.146,1.514c0.099,0.472,0.254,0.881,0.47,1.227c0.215,0.346,0.496,0.621,0.842,0.824
	c0.346,0.204,0.771,0.305,1.276,0.305c0.488,0,0.904-0.102,1.251-0.305c0.346-0.203,0.628-0.478,0.85-0.824
	c0.219-0.346,0.377-0.754,0.476-1.227c0.098-0.472,0.146-0.978,0.146-1.514v-0.256c0-0.521-0.049-1.015-0.146-1.483
	c-0.099-0.468-0.257-0.879-0.476-1.233c-0.222-0.354-0.506-0.635-0.855-0.842c-0.35-0.208-0.771-0.312-1.27-0.312
	c-0.488,0-0.905,0.104-1.252,0.312c-0.346,0.207-0.627,0.488-0.842,0.842c-0.216,0.354-0.371,0.765-0.47,1.233
	c-0.099,0.468-0.146,0.962-0.146,1.483V52.433L124.186,52.433z"/>
<path fill="#1A1A1A" d="M138.588,45.694l0.11,1.526c0.456-0.569,1.005-1.007,1.647-1.312c0.643-0.306,1.358-0.458,2.147-0.458
	c0.627,0,1.196,0.087,1.709,0.263c0.514,0.175,0.952,0.462,1.317,0.86c0.367,0.399,0.649,0.92,0.85,1.563
	c0.199,0.643,0.3,1.433,0.3,2.368v8.398h-3.528v-8.423c0-0.423-0.047-0.773-0.141-1.05c-0.094-0.276-0.229-0.496-0.409-0.659
	c-0.179-0.163-0.397-0.279-0.657-0.348c-0.262-0.069-0.563-0.104-0.904-0.104c-0.521,0-0.967,0.114-1.336,0.342
	c-0.371,0.228-0.67,0.537-0.897,0.928v9.314h-3.528V45.694H138.588z"/>
<path fill="#1A1A1A" d="M156.495,55.252c0-0.187-0.036-0.358-0.108-0.513c-0.074-0.154-0.213-0.299-0.416-0.433
	c-0.203-0.135-0.479-0.263-0.83-0.385c-0.35-0.122-0.802-0.24-1.354-0.354c-0.676-0.146-1.301-0.33-1.874-0.549
	c-0.574-0.22-1.07-0.492-1.489-0.818c-0.42-0.325-0.746-0.704-0.982-1.135c-0.235-0.431-0.354-0.932-0.354-1.501
	c0-0.553,0.12-1.078,0.36-1.575c0.239-0.496,0.586-0.934,1.036-1.313c0.453-0.378,1.006-0.677,1.66-0.897
	c0.655-0.22,1.395-0.33,2.217-0.33c0.854,0,1.623,0.106,2.308,0.317c0.685,0.212,1.263,0.507,1.739,0.885
	c0.476,0.379,0.842,0.829,1.099,1.349c0.257,0.521,0.386,1.091,0.386,1.709h-3.528c0-0.504-0.163-0.921-0.488-1.251
	c-0.325-0.329-0.834-0.494-1.526-0.494c-0.594,0-1.054,0.134-1.379,0.403c-0.324,0.269-0.488,0.61-0.488,1.025
	c0,0.195,0.043,0.368,0.129,0.519c0.086,0.15,0.224,0.289,0.414,0.415c0.191,0.126,0.443,0.242,0.758,0.348
	c0.313,0.106,0.697,0.204,1.152,0.293c0.717,0.139,1.381,0.31,1.99,0.513c0.61,0.204,1.137,0.466,1.581,0.787
	c0.443,0.322,0.791,0.712,1.044,1.172c0.252,0.46,0.379,1.016,0.379,1.667c0,0.586-0.131,1.125-0.392,1.618
	c-0.261,0.492-0.634,0.917-1.117,1.275s-1.067,0.639-1.751,0.842c-0.684,0.203-1.449,0.305-2.295,0.305
	c-0.928,0-1.746-0.13-2.454-0.391c-0.708-0.261-1.305-0.602-1.788-1.025c-0.484-0.423-0.849-0.899-1.093-1.428
	c-0.244-0.529-0.366-1.062-0.366-1.599h3.346c0.017,0.342,0.092,0.637,0.226,0.885c0.135,0.249,0.312,0.45,0.53,0.604
	c0.221,0.155,0.475,0.269,0.764,0.342c0.289,0.073,0.593,0.11,0.909,0.11c0.676,0,1.187-0.128,1.532-0.384
	C156.322,56.003,156.495,55.667,156.495,55.252z"/>
<g>
	<path fill="#010101" d="M88.265,114.908c2.386,0.912,4.73,1.743,7.011,2.708c2.468,1.039,4.734,2.431,6.627,4.362
		c2.715,2.778,3.848,6.197,4.029,9.985c0.074,1.531,0.043,3.069,0.024,4.605c-0.003,0.243-0.133,0.522-0.285,0.727
		c-5.425,7.234-12.588,11.621-21.612,12.44c-11.88,1.085-21.341-3.459-28.364-13.083c-0.199-0.272-0.313-0.67-0.316-1.012
		c-0.031-2.446-0.044-4.893,0.405-7.321c0.784-4.237,3.017-7.428,6.777-9.549c3.284-1.853,6.872-2.838,10.548-3.769
		c1.999,4.698,3.98,9.354,5.963,14.008c0.036-0.005,0.073-0.005,0.111-0.007c0.017-0.136,0.047-0.265,0.047-0.397
		c0.012-1.923,0.045-3.85,0.01-5.773c-0.009-0.506-0.215-1.015-0.366-1.509c-0.176-0.568-0.393-1.127-0.61-1.745h5.476
		c-0.27,0.754-0.539,1.454-0.77,2.168c-0.104,0.327-0.179,0.677-0.183,1.02c-0.017,2.094-0.007,4.192,0.134,6.328
		C84.679,124.427,86.438,119.758,88.265,114.908"/>
	<path fill="#010101" d="M51.951,146.623c-1.756,1.393-3.404,2.688-5.029,4.016c-0.133,0.109-0.171,0.45-0.124,0.651
		c0.994,4.187-6.361-6.526-3.464-4.712c0.452,0.282,0.707,0.236,1.095-0.073c2.587-2.089,5.194-4.15,7.795-6.217
		c0.151-0.122,0.308-0.235,0.492-0.375c6.973,9.461,16.25,14.725,28.044,14.734c11.804,0.011,21.084-5.241,28.098-14.728
		c0.167,0.124,0.339,0.239,0.499,0.37c2.665,2.115,5.329,4.229,7.978,6.358c0.367,0.294-2.172,4.446-2.152,4.379
		c-1.847-1.464-3.657-2.903-5.565-4.419c-0.987,1.021-1.891,2.068-2.913,2.985c-6.536,5.844-14.192,9.118-22.931,9.838
		c-0.432,0.036-0.605,0.132-0.598,0.605c0.026,1.747,0.023,3.497,0.002,5.247c-0.005,0.397,0.129,0.564,0.498,0.708
		c3.484,1.376-9.018,1.484-5.807,0.11c0.397-0.172,0.553-0.366,0.545-0.809c-0.026-1.748-0.02-3.497-0.003-5.248
		c0.003-0.399-0.076-0.569-0.531-0.609c-10.083-0.84-18.587-4.966-25.535-12.313C52.211,146.98,52.103,146.817,51.951,146.623"/>
	<path fill="#010101" d="M69.724,101.559c0.068-3.8,1.213-7.244,3.992-10.02c4.099-4.091,10.135-4.099,14.239-0.012
		c2.65,2.643,3.925,5.924,3.959,9.614c0.055,5.198-1.706,9.786-5.132,13.702c-0.604,0.697-1.339,1.308-2.102,1.829
		c-2.526,1.725-5.199,1.699-7.733-0.012c-1.808-1.224-3.137-2.888-4.229-4.748C70.855,108.735,69.816,105.314,69.724,101.559"/>
	<path fill="#010101" d="M79.843,164.112c7.28,0.002,13.146,5.902,13.133,13.211c-0.013,7.148-5.929,13.013-13.106,13.013
		c-7.163,0-13.138-5.818-13.118-13.189C66.771,170.004,72.686,164.107,79.843,164.112 M83.82,166.029
		c0.021-0.01,0.045-0.021,0.069-0.033c0-0.004,0-0.012,0-0.02C83.865,165.996,83.842,166.01,83.82,166.029
		c0.664,0.509,1.056,1.229,1.422,1.952c0.902,1.781,1.406,3.684,1.564,5.672c0.009,0.116-0.042,0.265,0.087,0.332
		c0.144,0.077,0.265-0.034,0.362-0.119c0.247-0.214,0.515-0.394,0.71-0.681c0.697-1.028,0.865-2.224,1.107-3.398
		c0.035-0.174-0.049-0.286-0.151-0.403c-1.33-1.513-2.925-2.646-4.807-3.37C84.011,165.975,83.916,165.955,83.82,166.029
		 M83.129,188.752c2.135-0.593,3.933-1.74,5.48-3.306c0.201-0.206,0.319-0.432,0.35-0.704c0.095-0.936,0.13-1.872-0.081-2.797
		c-0.253-1.104-0.709-2.088-1.655-2.777c-0.201-0.145-0.324-0.213-0.355,0.135c-0.08,0.912-0.221,1.818-0.382,2.721
		c-0.276,1.572-0.812,3.029-1.62,4.395c-0.494,0.833-1.155,1.543-1.799,2.266c-0.025,0.021-0.054,0.047-0.082,0.068
		C83.031,188.801,83.079,188.779,83.129,188.752 M78.493,176.909c-1.355,0.049-2.988,0.086-4.618,0.167
		c-1.856,0.085-3.708,0.218-5.549,0.499c-0.319,0.048-0.45,0.149-0.424,0.513c0.18,2.354,0.985,4.468,2.396,6.352
		c0.315,0.417,0.613,0.867,1.062,1.164c0.722,0.478,1.492,0.376,2.265,0.125c1.509-0.488,2.841-1.315,4.161-2.166
		c2.053-1.331,3.864-2.946,5.586-4.674c0.601-0.603,1.31-1.076,2.19-1.185c0.32-0.038,0.254-0.263,0.269-0.468
		c0.023-0.263-0.143-0.241-0.315-0.253c-0.374-0.016-0.751-0.068-1.128-0.068C82.515,176.905,80.641,176.909,78.493,176.909
		 M67.911,176.207c-0.053,0.223,0.011,0.335,0.378,0.262c1.114-0.218,2.247-0.3,3.376-0.379c3.94-0.28,7.888-0.348,11.834-0.273
		c0.693,0.012,1.386,0.036,2.077,0.066c0.163,0.004,0.278-0.022,0.239-0.215c-0.036-0.168,0.127-0.411-0.174-0.486
		c-0.89-0.215-1.621-0.704-2.28-1.313c-1.056-0.974-2.079-1.979-3.251-2.816c-1.781-1.278-3.695-2.286-5.8-2.917
		c-1.014-0.308-2.042-0.165-2.776,0.521C69.39,170.662,68.227,173.194,67.911,176.207 M73.038,187.008
		c0.041,0.073,0.048,0.104,0.072,0.122c2.215,1.489,4.656,2.192,7.327,2.072c0.152-0.004,0.298-0.02,0.425-0.123
		c0.995-0.799,1.929-1.653,2.674-2.697c1.577-2.2,2.06-4.73,2.229-7.359c0.021-0.264-0.091-0.227-0.264-0.172
		c-0.6,0.176-1.082,0.542-1.501,0.981c-1.892,1.978-3.996,3.689-6.322,5.131C76.237,185.852,74.764,186.686,73.038,187.008
		 M85.732,174.012c-0.074-1.195-0.265-2.311-0.575-3.401c-0.594-2.082-1.6-3.881-3.532-5.021c-0.249-0.146-0.496-0.299-0.792-0.315
		c-2.285-0.15-4.456,0.258-6.491,1.321c-0.145,0.076-0.329,0.114-0.424,0.301c0.711,0.138,1.373,0.352,2.019,0.604
		c2.987,1.17,5.567,2.951,7.833,5.212C84.317,173.26,84.915,173.733,85.732,174.012 M90.165,183.314
		c0.922-1.44,1.553-3.539,1.656-5.217c0.023-0.391-0.092-0.516-0.453-0.583c-1.312-0.241-2.632-0.35-3.96-0.432
		c-0.145-0.007-0.411-0.167-0.438,0.129c-0.022,0.249-0.125,0.537,0.281,0.7c0.779,0.31,1.355,0.885,1.814,1.582
		C89.813,180.632,90.081,181.899,90.165,183.314 M90.01,170.836c-0.114,0.457-0.19,0.855-0.308,1.237
		c-0.401,1.334-1.027,2.506-2.438,3.006c-0.372,0.131-0.327,0.358-0.321,0.624c0.008,0.321,0.263,0.237,0.434,0.25
		c1.4,0.112,2.805,0.184,4.185,0.472c0.289,0.062,0.255-0.106,0.241-0.275c-0.061-0.846-0.237-1.675-0.486-2.483
		C91.009,172.691,90.581,171.765,90.01,170.836"/>
	<path fill="#FFFFFF" d="M78.491,176.909c2.149,0,4.022-0.004,5.898,0.004c0.375,0.002,0.75,0.051,1.128,0.07
		c0.173,0.012,0.338-0.01,0.315,0.253c-0.019,0.206,0.052,0.43-0.268,0.468c-0.884,0.11-1.592,0.582-2.193,1.185
		c-1.722,1.728-3.532,3.346-5.586,4.672c-1.318,0.853-2.649,1.68-4.16,2.168c-0.774,0.251-1.544,0.353-2.265-0.125
		c-0.447-0.297-0.747-0.747-1.061-1.164c-1.412-1.884-2.215-3.998-2.393-6.352c-0.029-0.363,0.102-0.465,0.421-0.513
		c1.84-0.28,3.692-0.413,5.549-0.499C75.504,176.995,77.137,176.958,78.491,176.909"/>
	<path fill="#FFFFFF" d="M67.91,176.204c0.315-3.01,1.479-5.544,3.623-7.546c0.736-0.691,1.765-0.831,2.779-0.523
		c2.101,0.633,4.017,1.642,5.797,2.916c1.173,0.842,2.198,1.847,3.252,2.819c0.658,0.607,1.391,1.097,2.278,1.312
		c0.306,0.075,0.14,0.318,0.176,0.486c0.039,0.188-0.079,0.221-0.239,0.215c-0.691-0.029-1.384-0.055-2.077-0.068
		c-3.948-0.07-7.895-0.007-11.834,0.275c-1.129,0.081-2.262,0.16-3.376,0.381C67.922,176.542,67.858,176.43,67.91,176.204"/>
	<path fill="#FFFFFF" d="M73.038,187.008c1.728-0.319,3.199-1.156,4.64-2.047c2.325-1.439,4.43-3.153,6.322-5.132
		c0.416-0.438,0.901-0.801,1.5-0.981c0.174-0.053,0.282-0.091,0.265,0.176c-0.17,2.628-0.652,5.157-2.228,7.358
		c-0.747,1.043-1.681,1.899-2.675,2.697c-0.127,0.104-0.272,0.119-0.424,0.122c-2.672,0.121-5.112-0.583-7.328-2.075
		C73.086,187.111,73.078,187.081,73.038,187.008"/>
	<path fill="#FFFFFF" d="M85.73,174.012c-0.815-0.278-1.415-0.752-1.961-1.302c-2.265-2.26-4.843-4.041-7.833-5.213
		c-0.647-0.255-1.308-0.465-2.019-0.604c0.096-0.186,0.28-0.225,0.424-0.3c2.038-1.064,4.21-1.471,6.493-1.324
		c0.296,0.021,0.541,0.173,0.79,0.32c1.935,1.138,2.938,2.94,3.532,5.02C85.468,171.701,85.659,172.816,85.73,174.012"/>
	<path fill="#FFFFFF" d="M83.066,188.682c0.644-0.725,1.305-1.431,1.799-2.267c0.809-1.363,1.344-2.819,1.62-4.395
		c0.161-0.902,0.302-1.806,0.382-2.718c0.03-0.35,0.154-0.278,0.355-0.134c0.945,0.688,1.402,1.672,1.655,2.773
		c0.212,0.926,0.176,1.861,0.081,2.8c-0.029,0.27-0.148,0.498-0.35,0.703c-1.548,1.569-3.348,2.714-5.48,3.308
		C83.107,188.728,83.086,188.705,83.066,188.682"/>
	<path fill="#FFFFFF" d="M83.82,166.031c0.096-0.076,0.191-0.057,0.295-0.017c1.882,0.724,3.477,1.857,4.807,3.369
		c0.103,0.116,0.187,0.231,0.151,0.402c-0.242,1.178-0.41,2.371-1.107,3.399c-0.195,0.287-0.463,0.468-0.71,0.682
		c-0.098,0.086-0.219,0.196-0.362,0.119c-0.129-0.068-0.078-0.218-0.085-0.328c-0.16-1.995-0.664-3.894-1.566-5.675
		c-0.364-0.723-0.756-1.443-1.42-1.955v0.003H83.82z"/>
	<path fill="#FFFFFF" d="M90.165,183.314c-0.083-1.415-0.355-2.683-1.099-3.82c-0.459-0.697-1.035-1.272-1.814-1.581
		c-0.406-0.162-0.303-0.45-0.279-0.7c0.023-0.296,0.296-0.134,0.438-0.127c1.326,0.08,2.651,0.189,3.96,0.431
		c0.36,0.066,0.478,0.192,0.452,0.583C91.718,179.777,91.087,181.874,90.165,183.314"/>
	<path fill="#FFFFFF" d="M90.01,170.836c0.571,0.929,0.999,1.855,1.306,2.828c0.249,0.809,0.426,1.638,0.486,2.484
		c0.014,0.17,0.048,0.336-0.241,0.275c-1.38-0.289-2.784-0.361-4.185-0.472c-0.171-0.013-0.426,0.072-0.434-0.25
		c-0.006-0.268-0.051-0.492,0.321-0.624c1.413-0.499,2.037-1.671,2.438-3.005C89.819,171.691,89.896,171.295,90.01,170.836"/>
	<path fill="#FFFFFF" d="M83.82,166.026c0.021-0.017,0.045-0.03,0.069-0.05c0,0.005,0.003,0.016,0,0.02
		c-0.024,0.014-0.048,0.023-0.069,0.033V166.026z"/>
	<path fill="#FFFFFF" d="M83.129,188.752c-0.047,0.025-0.096,0.049-0.145-0.003c0.028-0.021,0.057-0.048,0.082-0.068
		C83.086,188.701,83.106,188.729,83.129,188.752"/>
	<path fill="#010101" d="M48.784,156.19c-0.043-7.351-5.895-13.136-13.299-13.045c-7.116,0.086-12.775,5.837-12.818,12.985
		c-0.045,7.058,5.66,13.514,13.922,13.063C43.368,168.829,48.722,163.219,48.784,156.19"/>
	<path fill="#343333" d="M24.42,158.515c0.041,0.303,0.055,0.565,0.124,0.814c0.107,0.396,0.218,0.796,0.391,1.165
		c1.441,3.146,3.686,5.436,6.993,6.624c1.638,0.591,3.322,0.775,5.025,0.587c1.679-0.185,3.274-0.722,4.733-1.61
		c0.406-0.245,0.413-0.419,0.005-0.695c-0.462-0.315-0.991-0.315-1.526-0.286c-0.428,0.024-0.82,0.21-1.246,0.305
		c0.25-1.332,2.002-2.409,3.423-2.13c0.682,0.134,1.214,0.46,1.287,1.249c2.648-2.189,4.274-6.644,3.447-10.33
		c-0.169,0.142-0.26,0.364-0.484,0.42c-0.378-2.224-1.511-2.97-3.688-2.407c-0.004-0.652,0.156-1.234,0.555-1.744
		c0.452-0.57,1.068-0.804,1.836-0.782c-0.567-0.84-1.2-1.534-1.903-2.172c-0.178-0.161-0.232-0.102-0.297,0.113
		c-0.14,0.46-0.436,0.804-0.872,1.021c-0.095-0.304-0.159-0.595-0.282-0.858c-0.637-1.359-2.147-1.976-3.551-1.532
		c-0.452,0.144-0.425-0.012-0.363-0.344c0.065-0.358,0.265-0.649,0.439-0.962c-3.928-1.033-8.292,0.309-11.056,3.144
		c1.204,0.39,1.679,1.275,1.565,2.458c-0.088,0.922-0.533,1.67-1.386,2.272c0.033-0.384-0.026-0.646-0.097-0.896
		c-0.206-0.731-0.647-1.263-1.374-1.536c-0.243-0.088-0.389-0.057-0.523,0.192c-0.847,1.538-1.303,3.189-1.436,4.933
		c-0.021,0.251,0.05,0.37,0.302,0.478c1.072,0.451,1.69,1.291,1.901,2.42c0.113,0.588,0.033,1.153-0.375,1.66
		C25.389,159.164,25.101,158.874,24.42,158.515"/>
	<path fill="#FFFFFF" d="M24.42,158.515c0.682,0.362,0.969,0.651,1.565,1.569c0.405-0.507,0.487-1.076,0.373-1.661
		c-0.21-1.127-0.829-1.972-1.9-2.418c-0.251-0.107-0.322-0.231-0.302-0.479c0.133-1.743,0.588-3.392,1.433-4.932
		c0.138-0.249,0.283-0.283,0.527-0.189c0.727,0.268,1.169,0.799,1.373,1.531c0.073,0.255,0.13,0.514,0.096,0.897
		c0.854-0.602,1.3-1.351,1.389-2.272c0.113-1.182-0.361-2.068-1.565-2.458c2.76-2.835,7.127-4.176,11.056-3.143
		c-0.175,0.313-0.376,0.602-0.44,0.959c-0.063,0.333-0.088,0.488,0.362,0.348c1.405-0.446,2.913,0.168,3.553,1.531
		c0.123,0.264,0.186,0.555,0.282,0.854c0.435-0.214,0.729-0.557,0.871-1.02c0.066-0.211,0.12-0.27,0.297-0.109
		c0.701,0.635,1.336,1.331,1.903,2.17c-0.768-0.024-1.383,0.211-1.835,0.782c-0.402,0.507-0.56,1.093-0.554,1.74
		c2.176-0.561,3.309,0.188,3.686,2.407c0.224-0.054,0.316-0.273,0.485-0.415c0.828,3.686-0.799,8.139-3.449,10.329
		c-0.071-0.788-0.604-1.115-1.285-1.249c-1.421-0.282-3.173,0.799-3.425,2.131c0.427-0.097,0.819-0.28,1.248-0.306
		c0.534-0.03,1.063-0.03,1.528,0.286c0.408,0.274,0.399,0.448-0.009,0.696c-1.456,0.89-3.051,1.424-4.73,1.611
		c-1.703,0.188-3.389,0.004-5.027-0.586c-3.305-1.191-5.549-3.483-6.991-6.627c-0.171-0.37-0.285-0.77-0.391-1.165
		C24.477,159.083,24.461,158.814,24.42,158.515 M39.698,156.368c1.163-0.614,1.673-2.175,1.145-3.519
		c-0.516-1.327-2.047-2.097-3.439-1.716c-1.484,0.399-2.229,1.838-2.068,2.76C37.535,152.937,39.473,154.219,39.698,156.368
		 M31.969,158.55c1.189-0.646,1.679-2.163,1.154-3.502c-0.512-1.306-1.942-2.082-3.235-1.758c-1.299,0.325-2.219,1.555-2.063,2.763
		C29.826,155.104,31.736,156.521,31.969,158.55 M38.656,162.843c1.182-0.623,1.694-1.892,1.284-3.108
		c-0.403-1.201-1.784-1.953-3.13-1.706c-1.366,0.259-2.369,1.422-2.345,2.729C36.981,160.168,38.409,160.867,38.656,162.843
		 M30.762,147.919c1.847-0.925,3.922-0.112,4.173,2.151c0.825-0.506,1.305-1.203,1.361-2.156c0.055-0.942-0.356-1.682-1.167-2.129
		c-1.039-0.576-2.097-0.488-3.103,0.123C31.301,146.353,30.844,146.983,30.762,147.919 M31.28,164.508
		c0.728-0.372,1.12-0.934,1.165-1.709c0.113-1.939-2.128-3.524-3.921-2.78c-0.906,0.369-1.402,1.248-1.251,2.194
		C29.207,161.736,30.805,162.632,31.28,164.508 M45.119,160.921c0.499-0.298,0.777-0.701,1.003-1.146
		c0.594-1.153,0.271-2.707-0.693-3.314c-0.729-0.466-1.499-0.477-2.258-0.082c-0.892,0.456-1.389,1.215-1.567,2.188
		c-0.03,0.177,0.015,0.22,0.2,0.168c0.265-0.073,0.542-0.111,0.812-0.156C43.863,158.377,45.168,159.133,45.119,160.921
		 M34.667,164.747c-0.625,0.014-1.13,0.106-1.594,0.337c-0.539,0.268-0.948,0.65-1.034,1.288c-0.029,0.216,0.025,0.287,0.25,0.189
		c0.628-0.27,1.29-0.208,1.926-0.084c0.581,0.114,1.204,0.225,1.545,0.823c0.069,0.121,0.154,0.062,0.241,0.035
		c0.47-0.142,0.792-0.449,0.901-0.922c0.104-0.438-0.14-0.773-0.48-1.03C35.871,164.972,35.229,164.819,34.667,164.747"/>
	<path fill="#010101" d="M39.698,156.368c-0.225-2.148-2.163-3.432-4.361-2.477c-0.162-0.921,0.583-2.359,2.068-2.76
		c1.391-0.377,2.922,0.39,3.439,1.716C41.371,154.193,40.861,155.751,39.698,156.368"/>
	<path fill="#010101" d="M31.969,158.55c-0.231-2.03-2.144-3.444-4.144-2.497c-0.156-1.21,0.763-2.436,2.063-2.763
		c1.292-0.324,2.722,0.455,3.235,1.758C33.648,156.385,33.159,157.905,31.969,158.55"/>
	<path fill="#010101" d="M38.656,162.843c-0.247-1.976-1.672-2.675-4.191-2.086c-0.025-1.307,0.981-2.472,2.345-2.729
		c1.345-0.249,2.727,0.505,3.13,1.706C40.349,160.951,39.838,162.22,38.656,162.843"/>
	<path fill="#010101" d="M30.762,147.919c0.082-0.938,0.541-1.566,1.266-2.008c1.005-0.614,2.063-0.703,3.104-0.127
		c0.811,0.449,1.22,1.188,1.167,2.131c-0.056,0.953-0.536,1.653-1.361,2.157C34.683,147.804,32.608,146.99,30.762,147.919"/>
	<path fill="#010101" d="M31.281,164.508c-0.476-1.874-2.074-2.771-4.009-2.294c-0.151-0.946,0.347-1.824,1.249-2.194
		c1.796-0.743,4.037,0.844,3.924,2.782C32.398,163.574,32.008,164.133,31.281,164.508"/>
	<path fill="#010101" d="M45.118,160.921c0.05-1.788-1.255-2.542-2.504-2.343c-0.27,0.044-0.547,0.08-0.811,0.156
		c-0.185,0.052-0.231,0.007-0.201-0.169c0.179-0.975,0.675-1.729,1.569-2.189c0.76-0.395,1.529-0.386,2.26,0.085
		c0.964,0.606,1.285,2.16,0.69,3.313C45.896,160.223,45.616,160.62,45.118,160.921"/>
	<path fill="#010101" d="M34.667,164.747c0.563,0.073,1.205,0.225,1.756,0.639c0.341,0.256,0.585,0.592,0.48,1.031
		c-0.11,0.471-0.431,0.778-0.901,0.92c-0.087,0.025-0.172,0.087-0.241-0.036c-0.341-0.598-0.964-0.707-1.544-0.823
		c-0.637-0.122-1.299-0.186-1.927,0.085c-0.225,0.098-0.279,0.025-0.25-0.189c0.084-0.639,0.495-1.021,1.034-1.289
		C33.536,164.851,34.041,164.759,34.667,164.747"/>
	<path fill="#010101" d="M142.167,156.816c0.091,8.009-6.465,14.704-14.473,14.774c-8.235,0.077-14.896-6.376-14.987-14.519
		c-0.087-8.199,6.399-14.845,14.574-14.933C135.489,142.057,142.075,148.549,142.167,156.816 M128.389,155.005
		c-0.272-1.445-0.55-2.888-0.815-4.333c-0.037-0.206-0.209-0.208-0.337-0.246c-1.2-0.353-2.405-0.693-3.608-1.045
		c-0.203-0.06-0.358-0.066-0.542,0.1c-0.969,0.869-1.953,1.726-2.937,2.578c-0.148,0.131-0.23,0.251-0.218,0.467
		c0.064,1.318,0.243,2.625,0.417,3.936c0.024,0.19,0.118,0.293,0.292,0.363c1.244,0.48,2.489,0.966,3.732,1.454
		c0.183,0.071,0.339,0.071,0.504-0.07c1.103-0.95,2.211-1.888,3.321-2.827C128.319,155.278,128.423,155.184,128.389,155.005
		 M134.24,161.832c-0.16-1.264-0.314-2.389-0.431-3.521c-0.032-0.349-0.151-0.527-0.485-0.642c-1.263-0.438-2.521-0.89-3.767-1.364
		c-0.231-0.087-0.356-0.055-0.523,0.09c-1.068,0.913-2.139,1.825-3.218,2.717c-0.242,0.201-0.299,0.41-0.235,0.698
		c0.269,1.239,0.535,2.481,0.795,3.723c0.048,0.233,0.151,0.363,0.397,0.44c1.226,0.397,2.464,0.736,3.712,1.043
		c0.202,0.049,0.339,0.013,0.499-0.119c0.964-0.803,1.931-1.601,2.913-2.385C134.177,162.291,134.319,162.054,134.24,161.832
		 M127.641,143.096c-0.442,0.01-1.066-0.133-1.549,0.161c-0.841,0.51-1.606,1.14-2.405,1.715c-0.136,0.098-0.192,0.226-0.178,0.387
		c0.064,0.862,0.078,1.729,0.227,2.585c0.034,0.196,0.103,0.277,0.294,0.329c1.228,0.33,2.45,0.666,3.668,1.017
		c0.203,0.062,0.34,0.026,0.501-0.1c0.988-0.764,1.989-1.521,2.983-2.281c0.167-0.122,0.224-0.232,0.148-0.456
		c-0.284-0.855-0.551-1.716-0.79-2.586c-0.085-0.309-0.269-0.417-0.549-0.48C129.256,143.222,128.512,143.122,127.641,143.096
		 M141.231,157.317c-0.027-0.279-0.084-0.594-0.09-0.909c-0.002-0.202-0.075-0.304-0.241-0.384c-0.838-0.41-1.678-0.819-2.507-1.244
		c-0.212-0.109-0.35-0.091-0.525,0.073c-0.891,0.86-1.79,1.706-2.698,2.543c-0.168,0.153-0.212,0.293-0.183,0.518
		c0.147,1.226,0.285,2.454,0.4,3.685c0.023,0.263,0.102,0.382,0.354,0.442c0.743,0.183,1.483,0.387,2.225,0.586
		c0.294,0.076,0.527,0.038,0.759-0.205c0.596-0.629,1.222-1.231,1.838-1.842c0.11-0.105,0.206-0.218,0.243-0.371
		C141.033,159.268,141.13,158.305,141.231,157.317 M113.625,157.344c0,0.292-0.048,0.663,0.343,0.888
		c0.74,0.423,1.479,0.844,2.208,1.282c0.215,0.126,0.339,0.092,0.511-0.081c0.761-0.774,1.531-1.54,2.316-2.291
		c0.186-0.174,0.211-0.332,0.18-0.571c-0.161-1.191-0.321-2.387-0.352-3.589c-0.009-0.345-0.104-0.517-0.426-0.612
		c-0.703-0.208-1.397-0.439-2.094-0.664c-0.16-0.055-0.287-0.044-0.409,0.083c-0.602,0.652-1.214,1.292-1.806,1.95
		c-0.093,0.102-0.127,0.267-0.156,0.412C113.741,155.184,113.663,156.226,113.625,157.344 M127.443,170.63
		c0.571,0.118,1.163-0.135,1.716-0.555c0.425-0.325,0.871-0.621,1.324-0.899c0.223-0.141,0.279-0.297,0.239-0.541
		c-0.121-0.725-0.237-1.45-0.337-2.177c-0.035-0.266-0.171-0.348-0.416-0.405c-1.203-0.282-2.403-0.58-3.576-0.976
		c-0.223-0.077-0.395-0.05-0.594,0.1c-0.869,0.654-1.749,1.291-2.64,1.909c-0.215,0.152-0.228,0.281-0.145,0.496
		c0.303,0.778,0.596,1.563,0.88,2.348c0.075,0.214,0.203,0.301,0.426,0.35C125.304,170.502,126.295,170.62,127.443,170.63
		 M131.751,143.823c0.289,0.921,0.559,1.772,0.819,2.625c0.057,0.188,0.217,0.187,0.348,0.237c1.062,0.393,2.131,0.778,3.132,1.301
		c0.503,0.264,0.824,0.173,1.209-0.19c0.254-0.239,0.232-0.343,0.01-0.569c-0.98-0.995-2.091-1.813-3.308-2.481
		C133.281,144.375,132.581,144.045,131.751,143.823 M141.01,154.762c-0.233-2.014-1.303-4.6-2.483-6.046
		c-0.062-0.076-0.126-0.183-0.208-0.204c-0.208-0.056-0.839,0.713-0.773,0.946c0.354,1.235,0.622,2.49,0.865,3.748
		c0.038,0.183,0.112,0.298,0.275,0.382C139.442,153.965,140.202,154.354,141.01,154.762 M113.946,159.497
		c0.021,0.14,0.025,0.204,0.039,0.266c0.399,1.872,1.157,3.585,2.292,5.127c0.103,0.137,0.146,0.521,0.439,0.305
		c0.222-0.168,0.61-0.267,0.436-0.763c-0.395-1.111-0.688-2.258-0.932-3.415c-0.038-0.181-0.125-0.286-0.286-0.375
		C115.297,160.284,114.664,159.911,113.946,159.497 M117.353,166.224c1.47,1.587,3.209,2.761,5.309,3.554
		c-0.277-0.74-0.539-1.394-0.772-2.06c-0.083-0.244-0.223-0.369-0.458-0.471c-0.899-0.392-1.793-0.794-2.681-1.214
		C117.988,165.671,117.998,165.659,117.353,166.224 M121.522,144.453c1.036,0.232,1.807-0.143,2.484-0.91
		C123.129,143.764,122.326,144.043,121.522,144.453 M140.023,162.452c-0.792,0.587-1.383,1.179-1.248,2.212
		C139.262,163.978,139.654,163.278,140.023,162.452 M114.71,151.677c0.759-0.507,1.085-1.176,1.049-2.075
		C115.331,150.268,114.99,150.923,114.71,151.677 M132.622,169.613c-0.84-0.193-1.493,0.044-2.066,0.663
		C131.279,170.118,131.933,169.904,132.622,169.613"/>
</g>
</svg>
