<?xml version="1.0" encoding="utf-8"?>
<!-- Generator: Adobe Illustrator 16.0.0, SVG Export Plug-In . SVG Version: 6.00 Build 0)  -->
<!DOCTYPE svg PUBLIC "-//W3C//DTD SVG 1.1//EN" "http://www.w3.org/Graphics/SVG/1.1/DTD/svg11.dtd">
<svg version="1.1" id="Layer_1" xmlns="http://www.w3.org/2000/svg" xmlns:xlink="http://www.w3.org/1999/xlink" x="0px" y="0px"
	 width="134.023px" height="152.98px" viewBox="0 0 134.023 152.98" enable-background="new 0 0 134.023 152.98"
	 xml:space="preserve">
<rect x="1.388" y="1.468" fill-rule="evenodd" clip-rule="evenodd" fill="#FFFFFF" width="131.963" height="150.692"/>
<g>
	
		<rect x="1.388" y="1.468" fill="none" stroke="#235F30" stroke-width="2" stroke-miterlimit="10" width="131.963" height="150.692"/>
</g>
<rect x="2.239" y="2.268" fill="#235F30" width="131.964" height="47.666"/>
<g>
	<path fill="#FFFFFF" d="M28.34,20.229C28.263,20.077,28.133,20,27.95,20c-0.139,0-0.253,0.046-0.346,0.138
		c-0.123,0.107-0.199,0.28-0.229,0.518c-0.031,0.238-0.035,0.491-0.012,0.759c0.023,0.269,0.072,0.533,0.149,0.793
		c0.076,0.261,0.161,0.468,0.253,0.621c0.199,0.276,0.456,0.544,0.771,0.805s0.647,0.529,1.001,0.805
		c0.353,0.276,0.697,0.579,1.035,0.909c0.337,0.33,0.62,0.709,0.851,1.139c0.322,0.552,0.521,1.2,0.598,1.943
		c0.077,0.744,0.02,1.464-0.172,2.162c-0.192,0.698-0.537,1.307-1.035,1.829c-0.499,0.521-1.162,0.843-1.989,0.966
		c-0.154,0.016-0.304,0.026-0.449,0.035c-0.146,0.007-0.303,0.011-0.472,0.011c-0.904,0-1.633-0.149-2.185-0.448
		c-0.552-0.299-0.974-0.705-1.265-1.219c-0.292-0.514-0.487-1.119-0.587-1.817s-0.157-1.438-0.173-2.22h3.542
		c0.016,0.246,0.023,0.518,0.023,0.817c0,0.299,0.015,0.579,0.046,0.839c0.03,0.261,0.088,0.479,0.173,0.655
		c0.084,0.177,0.219,0.265,0.402,0.265c0.215,0,0.356-0.084,0.426-0.253c0.068-0.168,0.104-0.498,0.104-0.989
		c0-0.276-0.016-0.521-0.046-0.736c-0.031-0.214-0.108-0.425-0.23-0.632c-0.123-0.207-0.307-0.426-0.552-0.656
		c-0.246-0.23-0.575-0.498-0.989-0.805c-0.491-0.368-0.905-0.717-1.242-1.047c-0.337-0.33-0.613-0.682-0.828-1.058
		c-0.215-0.376-0.372-0.794-0.471-1.254c-0.101-0.46-0.15-0.989-0.15-1.587c0.016-1.426,0.338-2.515,0.967-3.266
		c0.628-0.751,1.655-1.127,3.082-1.127c1.026,0,1.854,0.246,2.483,0.736c0.46,0.353,0.801,0.793,1.023,1.322
		c0.223,0.529,0.38,1.046,0.472,1.553c0.092,0.506,0.138,0.943,0.138,1.311c0,0.368,0,0.567,0,0.598H28.57
		c-0.046-0.613-0.068-1.081-0.068-1.403C28.501,20.689,28.448,20.429,28.34,20.229z"/>
	<path fill="#FFFFFF" d="M40.852,30.948c-0.262,0.828-0.683,1.46-1.266,1.897S38.252,33.5,37.333,33.5
		c-0.215,0-0.398-0.019-0.552-0.057s-0.269-0.073-0.345-0.104v4.255h-2.783c0-0.215,0-0.376,0-0.483c0-0.107,0-0.295,0-0.563
		c0-0.269,0-0.675,0-1.219c0-0.544,0-1.361,0-2.449c0-1.089-0.004-2.515-0.012-4.278c-0.008-1.763-0.012-3.994-0.012-6.693h2.438
		v0.368c0.168-0.169,0.379-0.284,0.633-0.345c0.253-0.061,0.509-0.092,0.771-0.092c0.306,0,0.602,0.027,0.885,0.081
		c0.284,0.054,0.502,0.111,0.655,0.172c0.461,0.169,0.828,0.445,1.104,0.828s0.483,0.828,0.621,1.334
		c0.138,0.506,0.222,1.05,0.253,1.633c0.03,0.583,0.038,1.15,0.023,1.702c-0.031,0.659-0.039,1.296-0.023,1.909
		C41.004,30.112,40.958,30.595,40.852,30.948z M38.298,27.659c0-0.537-0.004-1-0.011-1.392c-0.008-0.391-0.039-0.713-0.093-0.966
		s-0.142-0.437-0.264-0.552c-0.123-0.115-0.3-0.172-0.529-0.172c-0.368,0.016-0.603,0.088-0.701,0.219
		c-0.101,0.13-0.165,0.295-0.196,0.494c0,1.166-0.004,2.101-0.011,2.806c-0.009,0.706,0.007,1.25,0.046,1.633
		c0.038,0.384,0.114,0.641,0.229,0.771c0.115,0.131,0.295,0.196,0.541,0.196h0.092c0.261-0.015,0.452-0.111,0.575-0.288
		c0.122-0.176,0.207-0.406,0.253-0.69s0.068-0.602,0.068-0.955C38.298,28.41,38.298,28.042,38.298,27.659z"/>
	<path fill="#FFFFFF" d="M49.937,27.567c0,0.644-0.02,1.284-0.058,1.92s-0.138,1.219-0.299,1.748
		c-0.161,0.529-0.406,0.985-0.736,1.368c-0.33,0.384-0.786,0.652-1.368,0.805c-0.123,0.031-0.28,0.054-0.472,0.069
		c-0.192,0.015-0.395,0.023-0.609,0.023s-0.426-0.008-0.633-0.023s-0.372-0.038-0.494-0.069c-0.675-0.168-1.192-0.425-1.553-0.771
		s-0.617-0.755-0.771-1.23c-0.153-0.475-0.241-1-0.265-1.576c-0.022-0.575-0.042-1.185-0.058-1.828
		c-0.016-0.751-0.008-1.495,0.023-2.231c0.03-0.736,0.157-1.399,0.379-1.989c0.223-0.59,0.591-1.065,1.104-1.426
		s1.245-0.541,2.196-0.541c0.767,0,1.388,0.104,1.863,0.31c0.475,0.207,0.843,0.541,1.104,1.001c0.261,0.46,0.434,1.054,0.518,1.782
		C49.894,25.639,49.937,26.524,49.937,27.567z M45.383,25.221c0,1.012-0.009,1.863-0.023,2.553c-0.016,0.69-0.004,1.242,0.034,1.656
		s0.123,0.709,0.253,0.886c0.131,0.176,0.342,0.264,0.633,0.264c0.276,0,0.494-0.096,0.655-0.288
		c0.161-0.191,0.242-0.502,0.242-0.931v-3.657c0-0.521-0.081-0.858-0.242-1.012s-0.387-0.23-0.678-0.23
		c-0.338,0-0.563,0.073-0.679,0.218C45.463,24.826,45.398,25.006,45.383,25.221z"/>
	<path fill="#FFFFFF" d="M58.493,23.312c0,0.062-0.092,0.188-0.276,0.38c-0.184,0.192-0.398,0.395-0.644,0.609
		s-0.476,0.406-0.69,0.575c-0.215,0.169-0.36,0.253-0.437,0.253c-0.153,0-0.307-0.123-0.46-0.368
		c-0.077-0.123-0.177-0.245-0.299-0.368c-0.123-0.123-0.284-0.184-0.483-0.184c-0.43,0-0.659,0.2-0.689,0.598
		c0,0.2-0.005,0.537-0.012,1.012c-0.008,0.475-0.012,1.016-0.012,1.622c0,0.605,0,1.238,0,1.897s0,1.276,0,1.851
		c0,0.575,0,1.066,0,1.472c0,0.407,0,0.656,0,0.748h-2.806c0-0.107,0-0.191,0-0.253c0-0.061-0.004-0.188-0.012-0.379
		s-0.012-0.495-0.012-0.909s0-1.031,0-1.852c0-0.82,0-1.882,0-3.186c0-1.303,0-2.944,0-4.922h2.737v0.621
		c0.261-0.215,0.563-0.387,0.908-0.518c0.345-0.13,0.687-0.195,1.023-0.195c0.185,0,0.36,0.019,0.529,0.057
		c0.168,0.039,0.322,0.104,0.46,0.196c0.122,0.077,0.249,0.172,0.379,0.288c0.131,0.115,0.257,0.23,0.38,0.345
		c0.123,0.115,0.223,0.227,0.299,0.333C58.455,23.143,58.493,23.235,58.493,23.312z"/>
	<path fill="#FFFFFF" d="M63.184,21.932c0.23,0,0.402,0.004,0.518,0.012s0.195,0.054,0.242,0.138
		c0.046,0.084,0.068,0.219,0.068,0.403c0,0.184,0,0.46,0,0.828v1.127c-0.016,0.108-0.058,0.177-0.126,0.207
		c-0.069,0.031-0.257,0.046-0.563,0.046h-0.76c0,1.38,0,2.453,0,3.22c0,0.767,0.004,1.342,0.012,1.725s0.023,0.629,0.046,0.736
		c0.023,0.107,0.058,0.184,0.104,0.23c0.046,0.077,0.199,0.115,0.46,0.115h0.115c0.076-0.015,0.146-0.023,0.207-0.023
		s0.115,0,0.161,0c0.184,0,0.287,0.081,0.311,0.241c0.022,0.161,0.034,0.525,0.034,1.093c0,0.353-0.004,0.625-0.012,0.816
		c-0.008,0.192-0.026,0.326-0.057,0.402c-0.031,0.077-0.089,0.123-0.173,0.138c-0.085,0.016-0.203,0.023-0.356,0.023
		c-0.292,0-0.599-0.007-0.92-0.023c-0.322-0.015-0.633-0.065-0.932-0.149s-0.575-0.215-0.828-0.391s-0.464-0.433-0.633-0.771
		c-0.229-0.46-0.341-1.334-0.333-2.622s0.019-2.875,0.034-4.761h-0.229h-0.139c-0.169,0-0.295-0.012-0.379-0.035
		c-0.085-0.023-0.146-0.081-0.185-0.172c-0.038-0.092-0.062-0.242-0.068-0.449c-0.008-0.207-0.012-0.495-0.012-0.862
		c0-0.337,0.004-0.59,0.012-0.759c0.007-0.168,0.042-0.288,0.104-0.356c0.061-0.069,0.16-0.107,0.299-0.115
		c0.138-0.008,0.337-0.019,0.598-0.035c0-0.398-0.004-0.728-0.012-0.989s-0.008-0.468,0-0.621s0.031-0.257,0.069-0.311
		s0.096-0.081,0.173-0.081h1.195h0.599c0.214,0,0.371,0.008,0.472,0.023c0.099,0.016,0.168,0.062,0.207,0.138
		c0.038,0.077,0.057,0.188,0.057,0.333c0,0.146,0,0.349,0,0.609v0.897L63.184,21.932z"/>
	<path fill="#FFFFFF" d="M69.968,33.409V16.964c1.089,0,1.936,0.004,2.541,0.011c0.606,0.008,1.085,0.023,1.438,0.046
		c0.353,0.023,0.629,0.058,0.828,0.104c0.199,0.046,0.438,0.107,0.713,0.184c0.629,0.184,1.154,0.529,1.576,1.035
		c0.421,0.506,0.743,1.108,0.966,1.806c0.222,0.698,0.341,1.457,0.356,2.277c0.015,0.82-0.077,1.629-0.276,2.426
		c-0.153,0.614-0.372,1.116-0.655,1.507c-0.284,0.391-0.598,0.705-0.943,0.943c-0.345,0.238-0.701,0.414-1.069,0.529
		c-0.368,0.115-0.709,0.192-1.023,0.23c-0.314,0.039-0.583,0.058-0.805,0.058c-0.223,0-0.356,0.008-0.402,0.023
		c0,0.046,0,0.2,0,0.46c0,0.261,0,0.579,0,0.955c0,0.376-0.004,0.778-0.012,1.208c-0.008,0.43-0.012,0.832-0.012,1.208
		c0,0.376,0,0.698,0,0.966c0,0.269,0,0.426,0,0.472H69.968z M75.028,23.956c0.046-0.214,0.081-0.49,0.104-0.828
		c0.023-0.337,0.02-0.682-0.011-1.035c-0.031-0.353-0.097-0.69-0.196-1.012c-0.1-0.322-0.249-0.583-0.448-0.782
		c-0.107-0.092-0.227-0.157-0.356-0.196c-0.131-0.038-0.257-0.069-0.38-0.092c-0.122-0.023-0.233-0.038-0.333-0.046
		s-0.165-0.012-0.195-0.012v5.244c0,0.016,0.046,0.023,0.138,0.023c0.46,0,0.828-0.092,1.104-0.276
		C74.729,24.761,74.92,24.431,75.028,23.956z"/>
	<path fill="#FFFFFF" d="M82.457,17.516v15.893h-0.62h-2.186V17.516H82.457z"/>
	<path fill="#FFFFFF" d="M88.965,32.949c-0.275,0.246-0.595,0.399-0.954,0.46c-0.36,0.061-0.694,0.092-1.001,0.092
		c-0.43,0-0.878-0.099-1.346-0.299c-0.468-0.199-0.839-0.467-1.115-0.805c-0.43-0.536-0.687-1.104-0.771-1.702
		c-0.084-0.598-0.054-1.169,0.092-1.714c0.146-0.544,0.388-1.035,0.725-1.472s0.705-0.755,1.104-0.955
		c0.275-0.138,0.56-0.23,0.851-0.276s0.567-0.069,0.828-0.069c0.353,0,0.645,0.023,0.874,0.069c0.123,0.015,0.237,0.039,0.345,0.069
		c-0.016-0.153-0.03-0.322-0.046-0.506s-0.05-0.36-0.104-0.529c-0.054-0.168-0.142-0.311-0.265-0.425
		c-0.122-0.115-0.299-0.172-0.528-0.172c-0.261,0-0.445,0.057-0.553,0.172c-0.107,0.115-0.222,0.364-0.345,0.748
		c-0.031,0.092-0.062,0.161-0.092,0.207c-0.031,0.046-0.092,0.081-0.184,0.104c-0.093,0.023-0.223,0.039-0.392,0.046
		c-0.169,0.008-0.406,0.012-0.713,0.012c-0.537,0-0.882-0.012-1.035-0.035s-0.253-0.088-0.299-0.196
		c-0.031-0.061-0.046-0.161-0.046-0.299s0.015-0.288,0.046-0.448c0.03-0.161,0.069-0.33,0.115-0.506
		c0.046-0.176,0.1-0.341,0.161-0.494c0.275-0.736,0.716-1.288,1.322-1.656c0.605-0.368,1.3-0.552,2.081-0.552
		c0.967,0,1.756,0.241,2.369,0.724c0.613,0.483,1.004,1.208,1.173,2.174c0.016,0.062,0.027,0.138,0.035,0.23
		c0.007,0.092,0.011,0.241,0.011,0.448s0.004,0.499,0.012,0.874c0.008,0.376,0.012,0.874,0.012,1.495s0,1.392,0,2.312
		s0,2.032,0,3.335h-2.369V32.949z M87.217,30.902c0.077,0.031,0.191,0.046,0.345,0.046c0.261,0,0.491-0.088,0.69-0.265
		c0.199-0.176,0.307-0.44,0.322-0.793c0.015-0.353-0.073-0.632-0.265-0.839c-0.192-0.207-0.456-0.318-0.794-0.333
		c-0.261-0.015-0.482,0.069-0.667,0.253c-0.184,0.184-0.307,0.399-0.367,0.644c-0.062,0.246-0.039,0.491,0.068,0.736
		C86.658,30.595,86.88,30.779,87.217,30.902z"/>
	<path fill="#FFFFFF" d="M97.751,28.487c0.03-0.092,0.096-0.153,0.195-0.184s0.326-0.046,0.679-0.046h0.575h0.482
		c0.215,0,0.38,0.008,0.495,0.023c0.114,0.015,0.195,0.058,0.241,0.126s0.069,0.176,0.069,0.322c0,0.146,0,0.342,0,0.586
		c-0.016,1.457-0.356,2.522-1.023,3.197s-1.515,1.012-2.542,1.012c-0.89,0-1.583-0.165-2.081-0.495
		c-0.499-0.33-0.874-0.763-1.127-1.3c-0.254-0.536-0.411-1.15-0.472-1.84c-0.062-0.69-0.092-1.403-0.092-2.139
		c0-0.69,0.03-1.383,0.092-2.081c0.061-0.698,0.21-1.334,0.448-1.909c0.237-0.575,0.602-1.042,1.093-1.403
		c0.49-0.36,1.165-0.541,2.023-0.541c0.445,0,0.87,0.061,1.276,0.184c0.406,0.123,0.771,0.311,1.093,0.563
		c0.322,0.253,0.594,0.575,0.816,0.966s0.364,0.847,0.426,1.369c0.015,0.123,0.03,0.291,0.046,0.506s0.023,0.437,0.023,0.667
		s-0.004,0.437-0.012,0.621c-0.008,0.184-0.02,0.307-0.034,0.368c-0.016,0.046-0.035,0.073-0.058,0.081
		c-0.023,0.008-0.051,0.02-0.081,0.035s-0.157,0.027-0.379,0.034c-0.223,0.008-0.495,0.012-0.817,0.012h-0.506
		c-0.229,0-0.402-0.007-0.518-0.023c-0.114-0.015-0.199-0.05-0.253-0.104s-0.084-0.134-0.092-0.242
		c-0.008-0.107-0.02-0.253-0.034-0.437c-0.016-0.153-0.027-0.33-0.035-0.529s-0.042-0.391-0.103-0.575
		c-0.062-0.184-0.154-0.341-0.276-0.471c-0.123-0.13-0.299-0.196-0.529-0.196c-0.215,0-0.383,0.107-0.506,0.322
		s-0.211,0.479-0.265,0.793c-0.054,0.314-0.084,0.632-0.092,0.955c-0.008,0.322-0.012,0.583-0.012,0.782c0,0.506,0,0.958,0,1.357
		c0,0.399,0.03,0.744,0.092,1.035c0.062,0.292,0.157,0.51,0.288,0.656c0.13,0.146,0.325,0.218,0.586,0.218
		c0.23,0,0.406-0.088,0.529-0.265c0.123-0.176,0.211-0.387,0.265-0.632c0.054-0.245,0.084-0.498,0.092-0.759
		S97.751,28.64,97.751,28.487z"/>
	<path fill="#FFFFFF" d="M109.528,30.074c-0.016,0.476-0.123,0.92-0.322,1.334s-0.464,0.778-0.793,1.092
		c-0.33,0.314-0.714,0.56-1.15,0.736c-0.438,0.176-0.908,0.264-1.414,0.264c-0.169,0-0.342-0.008-0.518-0.023
		c-0.177-0.015-0.304-0.038-0.38-0.069c-0.644-0.138-1.15-0.379-1.518-0.725c-0.368-0.345-0.645-0.778-0.828-1.299
		c-0.185-0.521-0.299-1.104-0.346-1.748c-0.046-0.644-0.068-1.334-0.068-2.07c0-0.69,0.026-1.38,0.08-2.07s0.203-1.307,0.448-1.852
		c0.245-0.544,0.621-0.985,1.128-1.322c0.506-0.337,1.203-0.506,2.093-0.506c0.95,0,1.683,0.245,2.196,0.736
		s0.878,1.092,1.093,1.806c0.214,0.713,0.321,1.468,0.321,2.265c0,0.798-0.038,1.511-0.114,2.139h-4.509
		c0,0.199,0.004,0.414,0.012,0.644s0.046,0.445,0.115,0.644s0.173,0.36,0.311,0.483c0.138,0.123,0.345,0.184,0.621,0.184
		c0.261,0,0.444-0.092,0.552-0.276c0.107-0.184,0.185-0.383,0.23-0.598c0.03-0.138,0.053-0.242,0.068-0.311s0.065-0.119,0.149-0.149
		s0.207-0.05,0.368-0.058c0.161-0.007,0.402-0.012,0.725-0.012h0.575c0.229,0,0.406,0.008,0.529,0.023
		c0.122,0.015,0.21,0.05,0.264,0.104s0.085,0.13,0.093,0.23C109.546,29.771,109.542,29.905,109.528,30.074z M106.791,26.394
		c0-0.168-0.004-0.36-0.012-0.575s-0.034-0.426-0.08-0.633s-0.131-0.379-0.253-0.518c-0.123-0.138-0.314-0.207-0.575-0.207
		c-0.307,0-0.525,0.104-0.655,0.31c-0.131,0.207-0.219,0.602-0.265,1.185l-0.023,0.437H106.791z"/>
	<path fill="#FFFFFF" d="M116.612,25.382h-0.322c-0.261,0-0.46-0.004-0.598-0.012c-0.138-0.007-0.241-0.026-0.311-0.058
		c-0.069-0.03-0.123-0.076-0.161-0.138c-0.038-0.061-0.08-0.146-0.126-0.253c-0.077-0.169-0.169-0.288-0.276-0.356
		c-0.107-0.069-0.261-0.104-0.46-0.104c-0.245,0-0.452,0.077-0.621,0.23s-0.253,0.375-0.253,0.667c0,0.276,0.062,0.471,0.184,0.586
		c0.123,0.115,0.288,0.192,0.495,0.23c0.207,0.039,0.44,0.062,0.701,0.069c0.261,0.008,0.521,0.05,0.782,0.126
		c0.582,0.138,1.054,0.388,1.414,0.748c0.36,0.36,0.625,0.778,0.794,1.253c0.169,0.476,0.241,0.978,0.219,1.507
		c-0.023,0.529-0.135,1.031-0.334,1.506c-0.199,0.476-0.486,0.894-0.862,1.253c-0.376,0.36-0.832,0.609-1.368,0.748
		c-0.308,0.077-0.69,0.115-1.15,0.115c-0.184,0-0.368-0.008-0.552-0.023c-0.185-0.015-0.354-0.046-0.506-0.092
		c-0.506-0.138-0.936-0.379-1.288-0.725c-0.354-0.345-0.629-0.705-0.828-1.081c-0.199-0.375-0.322-0.725-0.368-1.046
		s-0.023-0.529,0.069-0.621L111,29.798c0.659,0.015,1.223,0.023,1.691,0.023c0.467,0,0.724,0.015,0.771,0.046
		c0.106,0.107,0.184,0.234,0.229,0.379c0.046,0.146,0.161,0.272,0.345,0.379c0.107,0.062,0.238,0.092,0.392,0.092
		c0.152,0,0.303-0.042,0.448-0.126c0.146-0.084,0.257-0.211,0.333-0.379c0.077-0.123,0.115-0.276,0.115-0.46
		c0-0.184-0.038-0.329-0.115-0.437c-0.153-0.184-0.349-0.291-0.586-0.322c-0.238-0.031-0.514-0.061-0.828-0.092
		s-0.652-0.104-1.012-0.219c-0.36-0.115-0.732-0.364-1.116-0.748c-0.353-0.353-0.602-0.713-0.747-1.081
		c-0.146-0.368-0.219-0.828-0.219-1.38c0-0.567,0.092-1.084,0.276-1.552c0.184-0.468,0.44-0.866,0.771-1.196
		c0.329-0.33,0.721-0.586,1.173-0.771s0.954-0.276,1.507-0.276c0.874,0,1.621,0.246,2.242,0.736
		c0.621,0.491,1.039,1.166,1.254,2.024c0.122,0.43,0.134,0.694,0.034,0.794s-0.303,0.149-0.609,0.149H116.612z"/>
</g>
<polyline fill-rule="evenodd" clip-rule="evenodd" fill="#FFFFFF" points="1.385,49.807 1.385,152.447 133.385,152.447 
	133.385,49.807 "/>
<g>
	<polyline fill="none" stroke="#010101" stroke-width="2" stroke-miterlimit="10" points="1.385,49.807 1.385,152.447 
		133.385,152.447 133.385,49.807 	"/>
</g>
<path fill-rule="evenodd" clip-rule="evenodd" fill="#010101" d="M17.311,59.347c1.646-0.842,3.398-0.949,5.216-0.905
	c4.934,0.117,9.868,0.149,14.802,0.218c0.424,0.005,0.847,0.03,1.15,0.041c-0.04,3.34-0.08,6.62-0.12,9.931
	c-5.333,1.605-7.944,4.565-7.881,9.074c0.049,3.454,2.058,7.649,7.748,8.823c-0.036,3.315-0.073,6.614-0.109,9.874
	c-6.059-0.054-12.152-0.005-18.236-0.203c-3.223-0.106-5.456-2.784-5.466-6.036c-0.007-1.277,0.024-2.556,0.041-4.032
	c1.413,0.063,2.693,0.119,3.974,0.179c1.282,0.059,2.564,0.121,3.707,0.177c0.08-6.146,0.156-12.086,0.233-18.162
	c-2.377,0.02-4.943,0.042-7.648,0.063c0.062-2.705-0.34-5.276,1.114-7.604C16.327,60.305,16.819,59.826,17.311,59.347"/>
<path fill-rule="evenodd" clip-rule="evenodd" fill="#010101" d="M40.513,86.52c5.058-0.802,7.698-4.561,7.925-8.418
	c0.27-4.574-2.371-7.785-7.603-9.416c0.049-3.315,0.1-6.597,0.152-10.066c1.977,0.055,4.113,0.131,6.25,0.169
	c3.689,0.064,7.379,0.089,11.069,0.156c3.817,0.069,6.231,2.563,6.212,6.366c-0.007,1.156,0.015,2.314,0.023,3.522
	c-2.71-0.084-5.307-0.165-7.774-0.24c-0.082,6.226-0.159,12.134-0.236,18.013c2.366,0.013,4.961,0.027,7.704,0.041
	c-0.201,2.974,0.546,5.744-1.526,8.038c-1.155,1.279-2.559,2.082-4.268,2.065c-6.048-0.051-12.095-0.18-18.086-0.28
	C40.407,93.187,40.459,89.893,40.513,86.52"/>
<path fill-rule="evenodd" clip-rule="evenodd" fill="#010101" d="M63.923,84.781c-1.656-0.019-3.535-0.041-5.328-0.061
	c0.096-4.547,0.19-9.108,0.286-13.662c1.584,0.058,3.485,0.129,5.223,0.192C64.046,75.605,63.985,80.169,63.923,84.781"/>
<path fill-rule="evenodd" clip-rule="evenodd" fill="#010101" d="M20.199,84.085c-1.819-0.035-3.733-0.074-5.51-0.109
	c0.067-4.399,0.138-8.97,0.207-13.515c1.794,0.052,3.705,0.106,5.492,0.157C20.325,75.029,20.262,79.598,20.199,84.085"/>
<path fill-rule="evenodd" clip-rule="evenodd" fill="#010101" d="M40.61,84.367c0.07-4.47,0.143-8.957,0.215-13.438
	c2.77,0.106,5.422,3.029,5.581,6.39C46.571,80.847,44.012,83.909,40.61,84.367"/>
<path fill-rule="evenodd" clip-rule="evenodd" fill="#010101" d="M38.302,70.847c-0.062,4.529-0.123,9.016-0.184,13.483
	c-3.236-0.525-5.646-3.402-5.603-6.815C32.559,74.099,35.048,71.28,38.302,70.847"/>
<path fill-rule="evenodd" clip-rule="evenodd" fill="#010101" d="M14.89,127.57c0.118-0.433,0.389-0.783,0.631-1.147
	c4.67-7.006,9.34-14.011,14.011-21.015c0.659-0.99,1.908-1.16,2.754-0.372c0.128,0.118,0.234,0.266,0.337,0.41
	c2.645,3.745,5.288,7.489,7.931,11.232c0.03,0.044,0.063,0.088,0.102,0.142c0.336-0.388,0.666-0.769,0.995-1.149
	c1.317-1.522,2.636-3.046,3.952-4.568c0.159-0.183,0.313-0.37,0.475-0.55c0.768-0.844,2.065-0.788,2.76,0.114
	c1.822,2.367,3.646,4.731,5.47,7.097c1.854,2.404,3.705,4.81,5.559,7.215c0.473,0.615,0.95,1.228,1.423,1.843
	c0.842,1.094,0.314,2.595-1.032,2.893c-0.722,0.158-1.339-0.078-1.79-0.66c-2.356-3.048-4.704-6.102-7.054-9.153
	c-1.316-1.709-2.631-3.417-3.947-5.126c-0.035-0.045-0.074-0.088-0.121-0.143c-0.248,0.286-0.487,0.561-0.727,0.836
	c-1.084,1.248-2.167,2.496-3.25,3.743c-0.143,0.165-0.286,0.329-0.43,0.492c-0.076,0.088-0.089,0.166-0.013,0.274
	c0.767,1.097,1.53,2.198,2.291,3.301c0.152,0.223,0.331,0.439,0.429,0.687c0.34,0.857-0.069,1.844-0.901,2.24
	c-0.848,0.403-1.832,0.094-2.332-0.698c-0.35-0.55-0.737-1.077-1.113-1.608c-1.858-2.628-3.719-5.255-5.578-7.881
	c-1.5-2.119-3-4.237-4.5-6.355c-0.02-0.028-0.043-0.054-0.073-0.092c-0.036,0.054-0.069,0.101-0.102,0.148
	c-4.257,6.385-8.514,12.768-12.767,19.154c-0.289,0.434-0.664,0.741-1.177,0.861c-0.938,0.22-1.869-0.322-2.155-1.247
	c-0.015-0.05-0.037-0.097-0.056-0.146V127.57z"/>
<path fill-rule="evenodd" clip-rule="evenodd" fill="#010101" d="M14.89,141.559c0.216-0.372,0.492-0.688,0.9-0.846
	c0.217-0.083,0.457-0.15,0.688-0.15c14.447-0.006,28.895-0.006,43.343-0.006c0.922,0,1.662,0.558,1.847,1.39
	c0.249,1.125-0.535,2.148-1.696,2.21c-0.078,0.005-0.157,0.003-0.237,0.003c-14.284,0.001-28.568,0.002-42.853-0.002
	c-0.261,0-0.528,0.004-0.78-0.051c-0.497-0.104-0.874-0.399-1.137-0.835c-0.022-0.038-0.049-0.072-0.074-0.109V141.559z"/>
<path fill-rule="evenodd" clip-rule="evenodd" fill="#010101" d="M14.89,134.342c0.132-0.164,0.247-0.344,0.396-0.489
	c0.329-0.324,0.73-0.492,1.2-0.492c14.478,0.002,28.954,0.001,43.432,0.002c0.848,0,1.572,0.583,1.752,1.406
	c0.182,0.841-0.229,1.672-1.005,2.025c-0.245,0.111-0.504,0.162-0.775,0.162c-14.358-0.001-28.718-0.001-43.076,0.001
	c-0.297,0-0.592,0.015-0.878-0.091c-0.395-0.145-0.709-0.385-0.937-0.739c-0.033-0.053-0.072-0.101-0.109-0.151V134.342z"/>
<path fill-rule="evenodd" clip-rule="evenodd" fill="#FFFFFF" d="M111.49,77.42c0.082-6.282-0.595-8.555-2.652-12.595
	c-1.695-3.33-4.069-6.083-7.495-7.723c-5.225-2.503-10.287-1.844-15.146,1.058c-3.712,2.217-6.083,5.593-7.921,9.401
	c-2.732,5.662-2.405,11.083,1.237,16.271c1.867,2.659,4.136,4.942,6.515,7.127c1.984,1.823,4.093,3.522,5.708,5.717
	c0.649,0.882,1.328,1.743,2.009,2.601c1.463,1.841,3.071,3.518,5.268,4.499c2.848,1.27,5.825,1.328,8.836,0.879
	c0.955-0.142,1.912-0.387,2.819-0.722c4.563-1.688,6.583-5.429,5.586-10.201c-0.471-2.25-1.382-4.321-2.531-6.292
	c-1.044-1.788-1.893-3.638-2.021-5.739C111.603,80.083,111.541,78.463,111.49,77.42"/>
<path fill-rule="evenodd" clip-rule="evenodd" fill="#010101" d="M111.49,77.42c0.051,1.043,0.113,2.663,0.212,4.281
	c0.128,2.101,0.978,3.951,2.021,5.738c1.149,1.971,2.061,4.042,2.531,6.293c0.997,4.772-1.023,8.512-5.586,10.2
	c-0.906,0.335-1.864,0.581-2.819,0.723c-3.011,0.448-5.988,0.391-8.835-0.879c-2.198-0.981-3.806-2.658-5.269-4.499
	c-0.681-0.858-1.359-1.719-2.009-2.601c-1.615-2.195-3.723-3.894-5.708-5.718c-2.38-2.185-4.647-4.467-6.515-7.127
	c-3.643-5.187-3.97-10.609-1.237-16.271c1.838-3.808,4.209-7.184,7.921-9.4c4.858-2.902,9.921-3.562,15.146-1.059
	c3.426,1.641,5.8,4.394,7.495,7.724C110.895,68.866,111.572,71.139,111.49,77.42 M109.544,77.431
	c0.012-0.001,0.024-0.002,0.037-0.003c0-0.669-0.009-1.339,0.001-2.008c0.066-4.217-1.197-8.03-3.519-11.508
	c-1.73-2.593-3.933-4.662-6.934-5.684c-4.532-1.54-8.729-0.629-12.598,2.007c-3.688,2.511-5.886,6.147-7.377,10.243
	c-1.435,3.939-0.914,7.707,1.271,11.247c1.414,2.29,3.194,4.289,5.121,6.156c0.845,0.819,1.678,1.658,2.59,2.397
	c2.786,2.258,4.989,5.03,7.147,7.856c1.228,1.605,2.604,3.093,4.516,3.891c3.465,1.447,6.989,1.319,10.443,0.024
	c3.403-1.277,4.837-4.031,4.188-7.618c-0.385-2.125-1.241-4.062-2.311-5.916c-1.164-2.018-2.136-4.105-2.304-6.473
	C109.71,80.505,109.634,78.967,109.544,77.431"/>
<path fill-rule="evenodd" clip-rule="evenodd" fill="#FFFFFF" d="M109.544,77.431c0.09,1.536,0.166,3.074,0.273,4.61
	c0.167,2.369,1.139,4.455,2.303,6.474c1.069,1.853,1.926,3.791,2.311,5.916c0.649,3.587-0.784,6.341-4.188,7.617
	c-3.454,1.296-6.979,1.423-10.443-0.024c-1.911-0.798-3.288-2.285-4.516-3.891c-2.158-2.826-4.361-5.597-7.147-7.855
	c-0.912-0.74-1.745-1.579-2.59-2.397c-1.927-1.867-3.707-3.866-5.121-6.156c-2.185-3.54-2.705-7.308-1.27-11.247
	c1.49-4.096,3.688-7.733,7.377-10.244c3.868-2.635,8.064-3.547,12.597-2.006c3.001,1.021,5.203,3.091,6.934,5.684
	c2.321,3.478,3.586,7.291,3.519,11.507c-0.01,0.67-0.001,1.339-0.001,2.009C109.569,77.428,109.556,77.429,109.544,77.431
	 M108.595,77.12c0.189-3.623-0.262-6.719-1.633-9.658c-1.371-2.938-3.13-5.576-5.959-7.283c-4.158-2.509-8.387-2.214-12.569-0.024
	c-3.253,1.705-5.402,4.464-7.096,7.637c-1.119,2.098-1.91,4.291-2.022,6.694c-0.145,3.059,1.096,5.647,2.787,8.06
	c1.687,2.404,3.766,4.46,5.947,6.409c2.087,1.865,4.206,3.693,5.915,5.939c1.03,1.353,2.087,2.693,3.197,3.985
	c1.289,1.499,2.897,2.532,4.869,2.91c2.242,0.432,4.479,0.377,6.69-0.212c4.079-1.089,5.64-3.767,4.604-7.855
	c-0.479-1.886-1.329-3.609-2.31-5.275c-1.135-1.927-1.942-3.972-2.113-6.222C108.764,80.39,108.679,78.549,108.595,77.12"/>
<path fill-rule="evenodd" clip-rule="evenodd" fill="#010101" d="M108.595,77.12c0.084,1.429,0.169,3.27,0.309,5.106
	c0.171,2.25,0.979,4.294,2.113,6.221c0.98,1.666,1.831,3.389,2.309,5.275c1.036,4.088-0.524,6.766-4.604,7.855
	c-2.211,0.589-4.448,0.644-6.691,0.212c-1.971-0.378-3.58-1.411-4.868-2.91c-1.11-1.292-2.168-2.632-3.197-3.985
	c-1.709-2.246-3.828-4.074-5.915-5.939c-2.183-1.949-4.261-4.005-5.947-6.409c-1.692-2.413-2.932-5.001-2.787-8.06
	c0.112-2.403,0.903-4.596,2.022-6.694c1.692-3.173,3.843-5.932,7.096-7.637c4.182-2.19,8.411-2.485,12.569,0.024
	c2.829,1.707,4.588,4.345,5.959,7.283C108.333,70.401,108.786,73.497,108.595,77.12 M95.923,63.414
	c-1.314,0.111-2.229,0.148-3.131,0.274c-1.981,0.274-3.908,0.749-5.617,1.849C86.251,66.133,85.51,66.893,85.21,68
	c-0.368,1.364-0.08,2.342,1.053,3.013c1.714,1.014,3.498,1.274,5.287,0.153c2.086-1.307,4.153-1.323,6.225,0.027
	c0.543,0.354,1.082,0.718,1.648,1.032c0.871,0.483,1.498,0.338,1.796-0.582c0.415-1.281,0.809-2.606,0.931-3.938
	c0.171-1.866-0.746-3.136-2.554-3.642C98.282,63.694,96.898,63.578,95.923,63.414 M96.495,83.876
	c-0.252-1.183-0.413-2.394-0.773-3.542c-0.495-1.577-1.526-2.697-3.224-3.064c-2.023-0.437-4.951,0.742-6.067,2.446
	c-0.602,0.918-0.572,1.799,0.184,2.597c0.353,0.375,0.792,0.738,1.265,0.916c2.139,0.805,4.272,1.65,6.468,2.271
	C96.188,86.021,96.466,85.283,96.495,83.876 M106.839,96.466c-0.043-0.403-0.078-0.806-0.132-1.206
	c-0.198-1.478-0.207-1.483-1.647-1.274c-1.089,0.159-1.68-0.156-2.145-1.149c-0.085-0.184-0.148-0.377-0.235-0.559
	c-0.315-0.665-0.971-0.964-1.606-0.601c-0.389,0.223-0.773,0.618-0.943,1.027c-0.94,2.253,0.15,4.89,2.513,6.221
	C104.986,100.246,106.832,99.158,106.839,96.466 M102.2,83.96c0-1.75,0.001-3.45-0.001-5.151c0-0.262,0.022-0.534-0.038-0.785
	c-0.043-0.174-0.207-0.319-0.317-0.478c-0.099,0.171-0.239,0.331-0.282,0.514c-0.049,0.211-0.009,0.443-0.009,0.666v5.203
	c-1.077,0.593-1.433,1.189-1.216,2.007c0.188,0.719,0.834,1.207,1.568,1.186c0.7-0.018,1.34-0.54,1.488-1.214
	C103.575,85.082,103.206,84.475,102.2,83.96 M106.889,80.101c-1.461-0.702-2.771-1.332-4.145-1.991v4.045
	C104.125,81.471,105.431,80.823,106.889,80.101"/>
<path fill-rule="evenodd" clip-rule="evenodd" fill="#FFFFFF" d="M95.923,63.414c0.975,0.165,2.358,0.281,3.673,0.649
	c1.807,0.506,2.725,1.777,2.554,3.643c-0.123,1.331-0.516,2.656-0.931,3.937c-0.298,0.921-0.925,1.065-1.796,0.583
	c-0.566-0.315-1.105-0.679-1.648-1.032c-2.071-1.35-4.139-1.334-6.225-0.028c-1.789,1.122-3.573,0.862-5.287-0.152
	C85.13,70.341,84.842,69.364,85.21,68c0.3-1.107,1.041-1.867,1.965-2.462c1.709-1.1,3.636-1.576,5.617-1.85
	C93.694,63.563,94.609,63.524,95.923,63.414"/>
<path fill-rule="evenodd" clip-rule="evenodd" fill="#FFFFFF" d="M96.495,83.876c-0.028,1.406-0.307,2.145-2.148,1.624
	c-2.195-0.622-4.33-1.467-6.468-2.271c-0.473-0.178-0.912-0.541-1.265-0.916c-0.756-0.799-0.785-1.68-0.184-2.598
	c1.116-1.703,4.043-2.882,6.067-2.445c1.697,0.367,2.728,1.486,3.224,3.064C96.082,81.482,96.244,82.693,96.495,83.876"/>
<path fill-rule="evenodd" clip-rule="evenodd" fill="#FFFFFF" d="M106.839,96.466c-0.008,2.692-1.854,3.78-4.196,2.459
	c-2.362-1.331-3.453-3.968-2.513-6.221c0.17-0.408,0.555-0.804,0.943-1.027c0.636-0.362,1.291-0.064,1.606,0.601
	c0.087,0.183,0.15,0.375,0.235,0.559c0.465,0.993,1.056,1.308,2.145,1.15c1.44-0.21,1.449-0.205,1.647,1.273
	C106.761,95.66,106.796,96.063,106.839,96.466"/>
<path fill-rule="evenodd" clip-rule="evenodd" fill="#FFFFFF" d="M102.2,83.96c1.006,0.515,1.375,1.123,1.193,1.948
	c-0.148,0.674-0.788,1.197-1.488,1.215c-0.734,0.02-1.38-0.468-1.568-1.187c-0.216-0.818,0.139-1.414,1.217-2.007v-5.203
	c0-0.223-0.04-0.454,0.008-0.666c0.043-0.183,0.185-0.343,0.283-0.514c0.109,0.159,0.274,0.304,0.316,0.478
	c0.061,0.251,0.038,0.523,0.038,0.786C102.201,80.51,102.2,82.21,102.2,83.96"/>
<path fill-rule="evenodd" clip-rule="evenodd" fill="#FFFFFF" d="M106.889,80.101c-1.458,0.722-2.764,1.37-4.145,2.054V78.11
	C104.118,78.769,105.428,79.399,106.889,80.101"/>
<path fill-rule="evenodd" clip-rule="evenodd" fill="#010101" d="M120.888,130.227c-1.639,0.008-2.828-0.887-3.913-1.972
	c-0.4-0.401-0.763-0.84-1.183-1.306c-1.384,1.626-2.767,3.296-5.123,3.275c-2.325-0.019-3.675-1.696-5.046-3.271
	c-3.471,4.394-6.732,4.375-10.161,0.031c-4.474,4.356-6.488,4.359-10.181-0.038c-1.405,1.558-2.744,3.24-5.11,3.281v-3.257
	c2.229-0.276,3.741-1.65,5.076-3.398c1.399,1.688,2.84,3.342,5.161,3.308c2.288-0.032,3.698-1.675,5.031-3.308
	c3.641,4.445,6.542,4.445,10.166,0.017c3.661,4.588,6.838,4.196,10.194-0.005c1.328,1.689,2.836,3.12,5.088,3.386V130.227z"/>
<path fill-rule="evenodd" clip-rule="evenodd" fill="#010101" d="M120.888,142.171c-2.261-0.214-3.733-1.643-5.08-3.377
	c-1.384,1.683-2.816,3.341-5.137,3.321c-2.29-0.02-3.7-1.661-5.034-3.293c-3.568,4.401-6.633,4.415-10.194,0.027
	c-3.909,4.885-7.13,3.829-10.178-0.044c-1.34,1.672-2.806,3.162-5.094,3.366v-3.438c1.577,0.043,2.727-0.82,3.793-1.826
	c0.456-0.429,0.848-0.927,1.298-1.427c1.409,1.597,2.765,3.286,5.138,3.253c2.326-0.034,3.679-1.681,5.044-3.261
	c3.445,4.379,6.728,4.375,10.147,0.032c4.495,4.296,6.717,4.302,10.18-0.034c1.417,1.543,2.742,3.249,5.117,3.263V142.171z"/>
<path fill-rule="evenodd" clip-rule="evenodd" fill="#010101" d="M80.171,115.025c2.306-0.119,3.703-1.666,5.084-3.317
	c1.379,1.643,2.774,3.265,5.07,3.288c2.325,0.021,3.706-1.639,5.11-3.276c1.372,1.61,2.754,3.255,5.048,3.275
	c2.322,0.02,3.727-1.599,5.122-3.27c1.383,1.566,2.739,3.251,5.038,3.271c2.32,0.02,3.734-1.578,5.14-3.279
	c1.389,1.59,2.776,3.202,5.104,3.308v3.438c-2.216-0.301-3.739-1.648-5.062-3.423c-1.402,1.619-2.772,3.311-5.11,3.307
	c-2.321-0.005-3.716-1.617-5.087-3.294c-1.376,1.629-2.765,3.294-5.1,3.291c-2.323-0.003-3.711-1.628-5.079-3.293
	c-1.368,1.628-2.759,3.301-5.106,3.295c-2.319-0.005-3.699-1.637-5.09-3.315c-1.313,1.731-2.832,3.14-5.083,3.432V115.025z"/>
</svg>
