<?xml version="1.0" encoding="utf-8"?>
<!-- Generator: Adobe Illustrator 16.0.0, SVG Export Plug-In . SVG Version: 6.00 Build 0)  -->
<!DOCTYPE svg PUBLIC "-//W3C//DTD SVG 1.1//EN" "http://www.w3.org/Graphics/SVG/1.1/DTD/svg11.dtd">
<svg version="1.1" id="Layer_1" xmlns="http://www.w3.org/2000/svg" xmlns:xlink="http://www.w3.org/1999/xlink" x="0px" y="0px"
	 width="142px" height="177.242px" viewBox="0 0 142 177.242" enable-background="new 0 0 142 177.242" xml:space="preserve">
<g>
	<g>
		<path fill-rule="evenodd" clip-rule="evenodd" fill="#FFFFFF" d="M141,166c0,5.523-4.478,10-10,10H11c-5.522,0-10-4.477-10-10V76
			c0-5.523,4.478-10,10-10h120c5.522,0,10,4.477,10,10V166z"/>
		<path fill="none" stroke="#000000" stroke-width="2" stroke-miterlimit="10" d="M141,166c0,5.523-4.478,10-10,10H11
			c-5.522,0-10-4.477-10-10V76c0-5.523,4.478-10,10-10h120c5.522,0,10,4.477,10,10V166z"/>
	</g>
	<g>
		<path fill="#1A1A1A" d="M52.877,16.724c0-0.309-0.044-0.588-0.134-0.836c-0.09-0.249-0.263-0.478-0.519-0.69
			c-0.257-0.211-0.61-0.419-1.063-0.623c-0.451-0.203-1.035-0.419-1.752-0.647c-0.813-0.26-1.58-0.553-2.301-0.879
			c-0.72-0.325-1.351-0.71-1.892-1.154c-0.542-0.443-0.969-0.954-1.282-1.532c-0.313-0.578-0.47-1.253-0.47-2.026
			c0-0.74,0.16-1.418,0.482-2.033c0.321-0.614,0.772-1.137,1.354-1.568c0.582-0.431,1.273-0.767,2.075-1.007
			c0.802-0.24,1.683-0.36,2.644-0.36c0.984,0,1.879,0.136,2.686,0.409C53.512,4.051,54.2,4.432,54.77,4.92s1.009,1.068,1.318,1.74
			c0.31,0.671,0.464,1.406,0.464,2.203H52.89c0-0.374-0.06-0.72-0.177-1.038c-0.118-0.317-0.299-0.59-0.543-0.818
			c-0.244-0.228-0.55-0.405-0.916-0.531c-0.366-0.126-0.798-0.189-1.294-0.189c-0.48,0-0.897,0.053-1.251,0.159
			c-0.354,0.106-0.647,0.252-0.879,0.439c-0.232,0.188-0.407,0.407-0.525,0.659c-0.118,0.252-0.177,0.521-0.177,0.806
			c0,0.586,0.299,1.076,0.897,1.471c0.598,0.395,1.475,0.763,2.631,1.105c0.968,0.301,1.82,0.635,2.557,1.001
			s1.351,0.781,1.844,1.245c0.492,0.464,0.864,0.985,1.117,1.563c0.252,0.578,0.378,1.233,0.378,1.965
			c0,0.781-0.152,1.477-0.458,2.087c-0.305,0.61-0.738,1.125-1.3,1.544c-0.562,0.419-1.239,0.74-2.032,0.964
			c-0.794,0.224-1.679,0.336-2.655,0.336c-0.586,0-1.172-0.051-1.758-0.152c-0.586-0.102-1.146-0.258-1.679-0.47
			c-0.533-0.211-1.027-0.476-1.482-0.793c-0.456-0.317-0.854-0.691-1.19-1.123c-0.338-0.431-0.603-0.922-0.794-1.471
			c-0.191-0.55-0.287-1.158-0.287-1.825h3.675c0,0.537,0.085,0.993,0.257,1.367c0.17,0.375,0.408,0.678,0.714,0.909
			c0.305,0.232,0.673,0.401,1.104,0.507c0.432,0.106,0.911,0.159,1.44,0.159c0.472,0,0.883-0.051,1.233-0.153
			c0.35-0.102,0.639-0.242,0.866-0.421c0.228-0.179,0.396-0.393,0.507-0.641C52.822,17.275,52.877,17.009,52.877,16.724z"/>
		<path fill="#1A1A1A" d="M70.687,14.905c0,0.96-0.111,1.852-0.335,2.673c-0.225,0.822-0.552,1.532-0.983,2.13
			c-0.431,0.599-0.966,1.068-1.604,1.41c-0.64,0.342-1.374,0.513-2.204,0.513c-0.699,0-1.316-0.122-1.849-0.366
			c-0.533-0.244-0.995-0.586-1.386-1.025v6.226h-3.527V8.179h3.271l0.121,1.294c0.407-0.488,0.881-0.867,1.423-1.135
			c0.541-0.269,1.182-0.403,1.923-0.403c0.838,0,1.578,0.161,2.221,0.482c0.644,0.321,1.181,0.777,1.611,1.367
			c0.432,0.59,0.759,1.298,0.983,2.124c0.224,0.826,0.335,1.739,0.335,2.74V14.905z M67.159,14.649c0-0.545-0.047-1.052-0.141-1.52
			c-0.094-0.468-0.242-0.875-0.445-1.221c-0.203-0.346-0.466-0.617-0.787-0.812c-0.322-0.195-0.715-0.293-1.178-0.293
			c-0.578,0-1.053,0.108-1.423,0.324c-0.37,0.215-0.657,0.531-0.86,0.946v5.408c0.203,0.407,0.49,0.727,0.86,0.958
			c0.37,0.232,0.853,0.348,1.446,0.348c0.465,0,0.856-0.102,1.179-0.305c0.321-0.203,0.581-0.482,0.781-0.836
			c0.199-0.354,0.344-0.767,0.433-1.239c0.09-0.472,0.135-0.972,0.135-1.501V14.649z"/>
		<path fill="#1A1A1A" d="M72.322,14.661c0-0.96,0.139-1.851,0.415-2.673c0.276-0.822,0.68-1.532,1.209-2.13
			c0.528-0.599,1.182-1.068,1.959-1.41c0.776-0.342,1.662-0.513,2.654-0.513c1.002,0,1.893,0.171,2.674,0.513
			s1.438,0.812,1.972,1.41c0.532,0.598,0.938,1.308,1.214,2.13c0.277,0.822,0.416,1.713,0.416,2.673v0.256
			c0,0.969-0.139,1.861-0.416,2.68c-0.276,0.817-0.682,1.525-1.214,2.124c-0.533,0.598-1.187,1.066-1.96,1.403
			c-0.772,0.338-1.66,0.507-2.66,0.507c-1.002,0-1.891-0.169-2.668-0.507c-0.777-0.337-1.433-0.806-1.965-1.403
			c-0.533-0.599-0.938-1.307-1.215-2.124c-0.276-0.818-0.415-1.711-0.415-2.68V14.661z M75.851,14.917
			c0,0.537,0.049,1.042,0.146,1.514c0.098,0.472,0.254,0.881,0.47,1.227c0.215,0.346,0.496,0.621,0.842,0.824
			c0.346,0.204,0.771,0.305,1.276,0.305c0.488,0,0.904-0.102,1.251-0.305c0.346-0.203,0.628-0.478,0.849-0.824
			c0.219-0.346,0.378-0.754,0.476-1.227c0.098-0.472,0.146-0.977,0.146-1.514v-0.256c0-0.521-0.049-1.015-0.146-1.483
			c-0.098-0.468-0.257-0.879-0.476-1.233c-0.221-0.354-0.505-0.635-0.855-0.842c-0.35-0.208-0.772-0.312-1.27-0.312
			c-0.488,0-0.905,0.104-1.251,0.312c-0.346,0.207-0.627,0.488-0.842,0.842c-0.216,0.354-0.372,0.765-0.47,1.233
			c-0.098,0.468-0.146,0.962-0.146,1.483V14.917z"/>
		<path fill="#1A1A1A" d="M94.43,11.487c-0.18-0.024-0.39-0.047-0.629-0.067c-0.24-0.021-0.454-0.031-0.641-0.031
			c-0.692,0-1.252,0.116-1.679,0.348c-0.428,0.231-0.743,0.567-0.946,1.007v8.643h-3.527V8.179h3.332l0.098,1.575
			c0.334-0.569,0.744-1.015,1.232-1.336c0.488-0.322,1.059-0.482,1.709-0.482c0.188,0,0.385,0.017,0.593,0.049
			c0.207,0.033,0.376,0.069,0.507,0.11L94.43,11.487z"/>
		<path fill="#1A1A1A" d="M100.349,4.932v3.247h2.259v2.588h-2.259v6.592c0,0.277,0.029,0.505,0.086,0.684
			c0.057,0.179,0.143,0.319,0.256,0.421c0.114,0.102,0.255,0.171,0.422,0.208c0.166,0.036,0.364,0.055,0.592,0.055
			c0.212,0,0.404-0.008,0.58-0.024c0.175-0.016,0.327-0.037,0.457-0.061v2.673c-0.293,0.089-0.612,0.165-0.958,0.226
			c-0.346,0.062-0.738,0.092-1.178,0.092c-0.578,0-1.099-0.071-1.563-0.214c-0.464-0.142-0.86-0.368-1.19-0.677
			c-0.329-0.309-0.584-0.712-0.763-1.208c-0.179-0.496-0.269-1.094-0.269-1.794v-6.97h-1.929V8.179h1.929V4.932H100.349z"/>
		<path fill="#1A1A1A" d="M46.73,44.724c0-0.309-0.044-0.588-0.134-0.836c-0.09-0.249-0.263-0.478-0.519-0.69
			c-0.257-0.211-0.61-0.419-1.063-0.623c-0.451-0.203-1.035-0.419-1.752-0.647c-0.813-0.26-1.58-0.553-2.301-0.879
			c-0.72-0.325-1.351-0.71-1.892-1.154c-0.542-0.443-0.969-0.954-1.282-1.532c-0.313-0.578-0.47-1.253-0.47-2.026
			c0-0.74,0.16-1.418,0.482-2.033c0.321-0.614,0.772-1.137,1.354-1.568c0.582-0.431,1.273-0.767,2.075-1.007
			c0.802-0.24,1.683-0.36,2.644-0.36c0.984,0,1.879,0.136,2.686,0.409c0.805,0.272,1.493,0.653,2.063,1.141s1.009,1.068,1.318,1.74
			c0.31,0.671,0.464,1.406,0.464,2.203h-3.662c0-0.374-0.06-0.72-0.177-1.038c-0.118-0.317-0.299-0.59-0.543-0.818
			c-0.244-0.228-0.55-0.405-0.916-0.531c-0.366-0.126-0.798-0.189-1.294-0.189c-0.48,0-0.897,0.053-1.251,0.159
			c-0.354,0.106-0.647,0.252-0.879,0.439c-0.232,0.188-0.407,0.407-0.525,0.659c-0.118,0.252-0.177,0.521-0.177,0.806
			c0,0.586,0.299,1.076,0.897,1.471c0.598,0.395,1.475,0.763,2.631,1.105c0.968,0.301,1.82,0.635,2.557,1.001
			s1.351,0.781,1.844,1.245c0.492,0.464,0.864,0.985,1.117,1.563c0.252,0.578,0.378,1.233,0.378,1.965
			c0,0.781-0.152,1.477-0.458,2.087c-0.305,0.61-0.738,1.125-1.3,1.544c-0.562,0.419-1.239,0.74-2.032,0.964
			c-0.794,0.224-1.679,0.336-2.655,0.336c-0.586,0-1.172-0.051-1.758-0.152c-0.586-0.102-1.146-0.258-1.679-0.47
			c-0.533-0.211-1.027-0.476-1.482-0.793c-0.456-0.317-0.854-0.691-1.19-1.123c-0.338-0.431-0.603-0.922-0.794-1.471
			c-0.191-0.55-0.287-1.158-0.287-1.825h3.675c0,0.537,0.085,0.993,0.257,1.367c0.17,0.375,0.408,0.678,0.714,0.909
			c0.305,0.232,0.673,0.401,1.104,0.507c0.432,0.106,0.911,0.159,1.44,0.159c0.472,0,0.883-0.051,1.233-0.153
			c0.35-0.102,0.639-0.242,0.866-0.421c0.228-0.179,0.396-0.393,0.507-0.641C46.676,45.275,46.73,45.009,46.73,44.724z"/>
		<path fill="#1A1A1A" d="M56.874,32.932v3.247h2.259v2.588h-2.259v6.592c0,0.277,0.029,0.505,0.086,0.684
			c0.057,0.179,0.143,0.319,0.256,0.421c0.114,0.102,0.255,0.171,0.422,0.208c0.166,0.036,0.364,0.055,0.592,0.055
			c0.212,0,0.404-0.008,0.58-0.024c0.175-0.016,0.327-0.037,0.457-0.061v2.673c-0.293,0.089-0.612,0.165-0.958,0.226
			c-0.346,0.062-0.738,0.092-1.178,0.092c-0.578,0-1.099-0.071-1.563-0.214c-0.464-0.142-0.86-0.368-1.19-0.677
			c-0.329-0.309-0.584-0.712-0.763-1.208c-0.179-0.496-0.269-1.094-0.269-1.794v-6.97h-1.929v-2.588h1.929v-3.247H56.874z"/>
		<path fill="#1A1A1A" d="M60.549,42.661c0-0.96,0.139-1.851,0.415-2.673c0.276-0.822,0.68-1.532,1.209-2.13
			c0.528-0.599,1.182-1.068,1.959-1.41c0.776-0.342,1.662-0.513,2.654-0.513c1.002,0,1.893,0.171,2.674,0.513
			s1.438,0.812,1.972,1.41c0.532,0.598,0.938,1.308,1.214,2.13c0.277,0.822,0.416,1.713,0.416,2.673v0.256
			c0,0.969-0.139,1.861-0.416,2.68c-0.276,0.817-0.682,1.525-1.214,2.124c-0.533,0.598-1.187,1.066-1.96,1.403
			c-0.772,0.338-1.66,0.507-2.66,0.507c-1.002,0-1.891-0.169-2.668-0.507c-0.777-0.337-1.433-0.806-1.965-1.403
			c-0.533-0.599-0.938-1.307-1.215-2.124c-0.276-0.818-0.415-1.711-0.415-2.68V42.661z M64.077,42.917
			c0,0.537,0.049,1.042,0.146,1.514c0.098,0.472,0.254,0.881,0.47,1.227c0.215,0.346,0.496,0.621,0.842,0.824
			c0.346,0.204,0.771,0.305,1.276,0.305c0.488,0,0.904-0.102,1.251-0.305c0.346-0.203,0.628-0.478,0.849-0.824
			c0.219-0.346,0.378-0.754,0.476-1.227c0.098-0.472,0.146-0.977,0.146-1.514v-0.256c0-0.521-0.049-1.015-0.146-1.483
			c-0.098-0.468-0.257-0.879-0.476-1.233c-0.221-0.354-0.505-0.635-0.855-0.842c-0.35-0.208-0.772-0.312-1.27-0.312
			c-0.488,0-0.905,0.104-1.251,0.312c-0.346,0.207-0.627,0.488-0.842,0.842c-0.216,0.354-0.372,0.765-0.47,1.233
			c-0.098,0.468-0.146,0.962-0.146,1.483V42.917z"/>
		<path fill="#1A1A1A" d="M82.656,39.487c-0.18-0.024-0.39-0.047-0.629-0.067c-0.24-0.021-0.454-0.031-0.641-0.031
			c-0.692,0-1.252,0.116-1.679,0.348c-0.428,0.231-0.743,0.567-0.946,1.007v8.643h-3.527V36.179h3.332l0.098,1.575
			c0.334-0.569,0.744-1.015,1.232-1.336c0.488-0.322,1.059-0.482,1.709-0.482c0.188,0,0.385,0.017,0.593,0.049
			c0.207,0.033,0.376,0.069,0.507,0.11L82.656,39.487z"/>
		<path fill="#1A1A1A" d="M90.431,49.631c-1.025,0-1.942-0.167-2.752-0.5c-0.811-0.333-1.498-0.789-2.063-1.367
			c-0.565-0.578-0.997-1.255-1.294-2.033c-0.297-0.777-0.445-1.609-0.445-2.496v-0.476c0-1.001,0.145-1.918,0.434-2.752
			c0.288-0.834,0.699-1.552,1.232-2.155c0.533-0.602,1.18-1.072,1.941-1.41c0.761-0.338,1.613-0.507,2.557-0.507
			c0.953,0,1.791,0.157,2.516,0.47c0.724,0.313,1.332,0.753,1.824,1.318c0.492,0.566,0.862,1.248,1.111,2.045
			c0.248,0.798,0.372,1.685,0.372,2.661v1.501h-8.411c0.058,0.432,0.173,0.822,0.349,1.172c0.175,0.35,0.398,0.649,0.671,0.897
			c0.272,0.249,0.592,0.442,0.959,0.58c0.365,0.139,0.776,0.208,1.232,0.208c0.643,0,1.237-0.12,1.782-0.36
			c0.545-0.24,1.013-0.612,1.403-1.117l1.734,1.941c-0.212,0.301-0.477,0.594-0.794,0.879c-0.317,0.285-0.691,0.539-1.123,0.763
			c-0.432,0.224-0.918,0.402-1.459,0.537C91.666,49.564,91.074,49.631,90.431,49.631z M90.028,38.792
			c-0.383,0-0.719,0.067-1.007,0.201c-0.289,0.135-0.537,0.322-0.745,0.562c-0.207,0.24-0.376,0.527-0.506,0.861
			c-0.131,0.334-0.225,0.704-0.281,1.111h4.907v-0.281c-0.008-0.35-0.06-0.675-0.152-0.977c-0.094-0.301-0.236-0.562-0.428-0.781
			s-0.436-0.391-0.732-0.513S90.436,38.792,90.028,38.792z"/>
		<path fill="#1A1A1A" d="M105.019,45.737c0-0.187-0.036-0.358-0.109-0.513c-0.073-0.154-0.212-0.299-0.415-0.433
			c-0.203-0.135-0.48-0.263-0.83-0.385s-0.802-0.24-1.354-0.354c-0.676-0.146-1.301-0.33-1.874-0.549
			c-0.574-0.22-1.07-0.492-1.489-0.818c-0.42-0.325-0.747-0.704-0.982-1.135c-0.236-0.431-0.354-0.932-0.354-1.501
			c0-0.553,0.12-1.078,0.36-1.575c0.239-0.496,0.586-0.934,1.037-1.313c0.452-0.378,1.005-0.677,1.66-0.897s1.394-0.33,2.216-0.33
			c0.854,0,1.624,0.106,2.308,0.317c0.684,0.212,1.263,0.507,1.739,0.885c0.476,0.379,0.842,0.829,1.099,1.349
			c0.256,0.521,0.385,1.091,0.385,1.709h-3.528c0-0.504-0.163-0.921-0.488-1.251c-0.325-0.329-0.834-0.494-1.526-0.494
			c-0.594,0-1.054,0.134-1.379,0.403s-0.488,0.61-0.488,1.025c0,0.195,0.043,0.368,0.128,0.519c0.086,0.15,0.224,0.289,0.415,0.415
			c0.191,0.126,0.443,0.242,0.757,0.348c0.313,0.106,0.698,0.204,1.153,0.293c0.717,0.139,1.38,0.31,1.99,0.513
			c0.61,0.204,1.137,0.466,1.581,0.787c0.443,0.322,0.791,0.712,1.044,1.172c0.252,0.46,0.378,1.016,0.378,1.667
			c0,0.586-0.13,1.125-0.391,1.618c-0.261,0.492-0.633,0.917-1.117,1.275c-0.484,0.358-1.067,0.639-1.751,0.842
			s-1.449,0.305-2.295,0.305c-0.928,0-1.746-0.13-2.454-0.391s-1.305-0.602-1.788-1.025c-0.484-0.423-0.849-0.899-1.093-1.428
			c-0.244-0.529-0.366-1.062-0.366-1.599h3.345c0.017,0.342,0.092,0.637,0.226,0.885c0.135,0.249,0.312,0.45,0.531,0.604
			c0.22,0.155,0.474,0.269,0.763,0.342s0.593,0.11,0.909,0.11c0.676,0,1.187-0.128,1.532-0.384
			C104.846,46.488,105.019,46.152,105.019,45.737z"/>
	</g>
	<g>
		<path fill-rule="evenodd" clip-rule="evenodd" fill="#010101" d="M37.329,155.43v-1.072c0.537-1.367,1.545-1.889,2.995-1.804
			c1.318,0.075,2.646,0.014,4.031,0.014v-0.763v-28.827c0-1.049-0.004-1.038-0.963-1.401c-2.291-0.862-4.037-2.367-5.061-4.593
			c-0.457-0.994-0.675-2.095-1.003-3.147v-3.22c24.721-0.002,49.44-0.002,74.159-0.003c0.133,0,0.267,0.014,0.348,0.016
			c0,1.195,0.095,2.35-0.031,3.48c-0.098,0.891-0.373,1.795-0.737,2.615c-1.064,2.403-2.88,4.049-5.371,4.901
			c-0.591,0.204-0.803,0.468-0.802,1.121c0.025,9.688,0.018,19.378,0.018,29.067v0.753h0.707c1.352,0.004,2.701-0.009,4.05,0.009
			c0.945,0.013,1.616,0.495,2.03,1.322c0.387,0.776,0.368,1.581-0.178,2.242c-0.363,0.437-0.907,0.722-1.371,1.078H39.115
			C38.267,156.877,37.674,156.279,37.329,155.43 M74.609,113.988c-0.082,0.37-0.135,0.588-0.181,0.81
			c-0.901,4.199-4.36,7.189-8.586,7.378c-0.524,0.024-0.556,0.254-0.556,0.66c0.008,9.712,0.007,19.426,0.008,29.136
			c0,0.188,0.025,0.375,0.039,0.565h34.953v-0.789v-28.658c0-1.176-0.012-1.145-1.076-1.57c-2.785-1.114-4.627-3.121-5.516-5.987
			c-0.147-0.48-0.238-0.977-0.384-1.591c-1.171,5.137-4.122,8.232-9.411,8.21C78.704,122.129,75.799,119.051,74.609,113.988
			 M62.982,152.542v-0.78v-28.713c0-1.135-0.014-1.102-1.056-1.522c-2.958-1.191-4.853-3.336-5.647-6.435
			c-0.098-0.373-0.166-0.757-0.246-1.132c-0.134,0.15-0.174,0.296-0.199,0.445c-0.202,1.186-0.595,2.298-1.229,3.324
			c-1.21,1.946-2.908,3.277-5.079,3.987c-0.446,0.146-0.556,0.362-0.556,0.806c0.012,9.769,0.01,19.538,0.01,29.307v0.713H62.982z"
			/>
		<path fill-rule="evenodd" clip-rule="evenodd" fill="#010101" d="M37.329,108.234v-0.12c0.163-0.266,0.347-0.522,0.487-0.803
			c0.959-1.915,1.902-3.836,2.861-5.751c1.873-3.742,3.77-7.471,5.608-11.231c0.276-0.563,0.573-0.707,1.159-0.707
			c14.039,0.016,28.078,0.012,42.117,0.012c4.17,0,8.34,0.002,12.51-0.002c0.328,0,0.57,0.013,0.758,0.39
			c2.322,4.689,4.674,9.368,7.014,14.051c0.682,1.361,1.354,2.726,2.065,4.162H37.329z M89.777,103.427
			c-0.105-0.233-0.258-0.635-0.462-1.016c-0.978-1.81-1.97-3.613-2.959-5.42c-0.601-1.093-1.184-2.195-1.817-3.268
			c-0.368-0.621-0.951-0.769-1.526-0.483c-0.561,0.276-0.761,0.838-0.517,1.519c0.086,0.241,0.217,0.465,0.34,0.69
			c0.986,1.808,1.975,3.616,2.966,5.418c0.62,1.129,1.237,2.259,1.884,3.371c0.268,0.463,0.73,0.622,1.236,0.478
			C89.445,104.567,89.742,104.185,89.777,103.427 M66.455,94.418c0.005-0.678-0.346-1.136-0.87-1.273
			c-0.558-0.143-1.087,0.134-1.396,0.749c-1.285,2.566-2.57,5.135-3.85,7.706c-0.281,0.565-0.576,1.131-0.786,1.726
			c-0.188,0.526,0.093,1.055,0.573,1.294c0.532,0.262,1.071,0.145,1.425-0.335c0.152-0.206,0.282-0.431,0.397-0.658
			c1.443-2.887,2.881-5.775,4.313-8.666C66.365,94.75,66.42,94.518,66.455,94.418 M57.139,94.357
			c-0.063-0.662-0.314-1.065-0.865-1.204c-0.515-0.131-0.967,0.019-1.232,0.487c-0.373,0.651-0.71,1.327-1.047,2.001
			c-1.216,2.43-2.434,4.861-3.633,7.301c-0.363,0.735-0.16,1.393,0.451,1.685c0.646,0.307,1.25,0.085,1.619-0.647
			c1.493-2.96,2.971-5.924,4.447-8.889C57.008,94.829,57.076,94.538,57.139,94.357 M99.094,103.461
			c-0.035-0.113-0.085-0.347-0.189-0.555c-1.047-2.118-2.096-4.232-3.154-6.339c-0.488-0.976-0.97-1.956-1.503-2.906
			c-0.306-0.548-0.898-0.687-1.444-0.437c-0.53,0.24-0.77,0.788-0.579,1.392c0.095,0.302,0.229,0.592,0.37,0.874
			c0.805,1.617,1.615,3.229,2.424,4.844c0.624,1.239,1.243,2.484,1.874,3.722c0.296,0.577,0.769,0.801,1.317,0.656
			C98.739,104.574,99.094,104.125,99.094,103.461 M75.822,98.877c0-1.015,0-2.026,0-3.04c-0.001-0.495,0.018-0.993-0.01-1.489
			c-0.043-0.745-0.533-1.243-1.186-1.241c-0.646,0.003-1.119,0.507-1.178,1.255c-0.005,0.079-0.004,0.158-0.004,0.237
			c-0.001,2.882-0.002,5.762,0.004,8.642c0,0.236,0.016,0.484,0.092,0.703c0.184,0.519,0.57,0.82,1.129,0.804
			c0.529-0.018,0.898-0.314,1.059-0.818c0.074-0.239,0.089-0.507,0.09-0.761C75.826,101.736,75.822,100.306,75.822,98.877"/>
		<path fill-rule="evenodd" clip-rule="evenodd" fill="#010101" d="M100.854,82.608c0.605,0.335,1.201,0.653,1.521,1.338
			c0.678,1.441-0.304,3.185-1.891,3.301c-0.176,0.013-0.357,0.011-0.535,0.011c-16.877,0-33.753-0.004-50.629,0.007
			c-0.916,0.002-1.703-0.211-2.227-0.995c-0.838-1.257-0.393-2.793,0.969-3.462c0.119-0.059,0.234-0.132,0.351-0.199H100.854z"/>
		<path fill-rule="evenodd" clip-rule="evenodd" fill="#010101" d="M37.329,155.43c0.345,0.849,0.938,1.447,1.786,1.789h-1.786
			V155.43z"/>
		<path fill-rule="evenodd" clip-rule="evenodd" fill="#010101" d="M89.75,126.542c0.508,0.512,1.022,1.029,1.486,1.501
			c-4.377,4.371-8.748,8.733-13.147,13.124c-0.421-0.465-0.923-1.015-1.417-1.559C80.982,135.3,85.346,130.944,89.75,126.542"/>
		<path fill-rule="evenodd" clip-rule="evenodd" fill="#010101" d="M83.139,126.592c0.511,0.505,1.028,1.016,1.578,1.558
			c-0.108,0.129-0.214,0.268-0.334,0.388c-1.934,1.938-3.873,3.863-5.798,5.809c-0.275,0.276-0.454,0.361-0.757,0.025
			c-0.395-0.438-0.852-0.819-1.271-1.217C78.799,130.922,80.969,128.753,83.139,126.592"/>
		<path fill-rule="evenodd" clip-rule="evenodd" fill="#010101" d="M83.104,139.74c2.273-2.279,4.426-4.439,6.586-6.606
			c0.543,0.552,1.061,1.078,1.677,1.702c-0.817,0.784-1.649,1.57-2.465,2.375c-1.245,1.228-2.492,2.447-3.704,3.707
			c-0.348,0.357-0.535,0.315-0.844-0.019C83.979,140.492,83.545,140.145,83.104,139.74"/>
		<path fill-rule="evenodd" clip-rule="evenodd" fill="#010101" d="M58.335,143.189c-0.995,0.009-1.81-0.52-2.154-1.393
			c-0.37-0.937-0.118-1.878,0.618-2.604c0.197-0.192,0.346-0.532,0.352-0.809c0.035-1.426,0.038-2.858,0-4.284
			c-0.01-0.291-0.176-0.647-0.389-0.849c-0.936-0.887-1.004-2.389-0.102-3.306c0.912-0.932,2.473-0.907,3.36,0.051
			c0.849,0.91,0.751,2.424-0.165,3.262c-0.2,0.186-0.357,0.523-0.363,0.792c-0.035,1.469-0.035,2.938-0.002,4.405
			c0.006,0.253,0.164,0.563,0.35,0.74c0.68,0.646,0.955,1.622,0.641,2.5C60.149,142.622,59.346,143.183,58.335,143.189"/>
	</g>
</g>
</svg>
