<?xml version="1.0" encoding="utf-8"?>
<!-- Generator: Adobe Illustrator 16.0.0, SVG Export Plug-In . SVG Version: 6.00 Build 0)  -->
<!DOCTYPE svg PUBLIC "-//W3C//DTD SVG 1.1//EN" "http://www.w3.org/Graphics/SVG/1.1/DTD/svg11.dtd">
<svg version="1.1" id="Layer_1" xmlns="http://www.w3.org/2000/svg" xmlns:xlink="http://www.w3.org/1999/xlink" x="0px" y="0px"
	 width="157px" height="179px" viewBox="0 0 157 179" enable-background="new 0 0 157 179" xml:space="preserve">
<rect x="0.975" y="1" fill-rule="evenodd" clip-rule="evenodd" fill="#FFFFFF" stroke="#627D53" stroke-width="2" stroke-miterlimit="10" width="155" height="177"/>
<rect x="1.975" fill-rule="evenodd" clip-rule="evenodd" fill="#627D53" width="155" height="56"/>
<g>
	<path fill="#FFFFFF" d="M33.601,21.582h2.09v5.415h2.242v-5.415h2.09v13.3h-2.09v-5.985h-2.242v5.985h-2.09V21.582z"/>
	<path fill="#FFFFFF" d="M42.246,34.197c-0.544-0.582-0.817-1.405-0.817-2.469v-6.992c0-1.064,0.272-1.888,0.817-2.471
		c0.544-0.582,1.33-0.874,2.356-0.874c1.026,0,1.812,0.292,2.356,0.874c0.545,0.583,0.817,1.406,0.817,2.471v6.992
		c0,1.063-0.272,1.887-0.817,2.469c-0.544,0.584-1.33,0.875-2.356,0.875C43.576,35.072,42.791,34.781,42.246,34.197z M45.685,31.861
		v-7.258c0-0.875-0.361-1.312-1.083-1.312c-0.722,0-1.083,0.437-1.083,1.312v7.258c0,0.873,0.361,1.311,1.083,1.311
		C45.324,33.172,45.685,32.734,45.685,31.861z"/>
	<path fill="#FFFFFF" d="M49.837,34.217c-0.526-0.57-0.789-1.374-0.789-2.413V24.66c0-1.039,0.263-1.844,0.789-2.413
		c0.525-0.57,1.289-0.855,2.29-0.855c1,0,1.764,0.285,2.29,0.855c0.525,0.569,0.788,1.374,0.788,2.413v1.406h-1.976v-1.539
		c0-0.824-0.349-1.235-1.045-1.235c-0.696,0-1.045,0.411-1.045,1.235v7.429c0,0.811,0.349,1.216,1.045,1.216
		c0.697,0,1.045-0.405,1.045-1.216v-2.033h1.976v1.881c0,1.039-0.263,1.843-0.788,2.413c-0.526,0.57-1.289,0.855-2.29,0.855
		C51.125,35.072,50.362,34.787,49.837,34.217z"/>
	<path fill="#FFFFFF" d="M56.458,21.582h2.09v5.605l2.66-5.605h2.09l-2.489,4.883l2.527,8.417h-2.185l-1.767-5.929l-0.836,1.691
		v4.237h-2.09V21.582z"/>
	<path fill="#FFFFFF" d="M64.324,21.582h5.7v1.9h-3.61v3.515h2.869v1.899h-2.869v4.086h3.61v1.899h-5.7V21.582z"/>
	<path fill="#FFFFFF" d="M73.14,29.22l-2.527-7.638h2.223l1.425,4.883h0.038l1.425-4.883h2.033L75.23,29.22v5.662h-2.09V29.22z"/>
	<path fill="#FFFFFF" d="M82.164,34.207c-0.52-0.576-0.779-1.402-0.779-2.479v-0.761h1.976v0.912c0,0.861,0.361,1.292,1.083,1.292
		c0.354,0,0.624-0.104,0.808-0.313c0.183-0.209,0.275-0.548,0.275-1.017c0-0.557-0.127-1.048-0.38-1.473
		c-0.254-0.424-0.722-0.934-1.406-1.529c-0.861-0.76-1.463-1.447-1.805-2.062c-0.342-0.614-0.513-1.308-0.513-2.081
		c0-1.051,0.266-1.864,0.798-2.441c0.532-0.576,1.305-0.864,2.318-0.864c1,0,1.758,0.288,2.271,0.864
		c0.513,0.577,0.77,1.403,0.77,2.48v0.551h-1.976v-0.684c0-0.457-0.089-0.789-0.266-0.998c-0.178-0.209-0.437-0.313-0.779-0.313
		c-0.697,0-1.045,0.425-1.045,1.272c0,0.482,0.13,0.932,0.39,1.35c0.259,0.418,0.731,0.924,1.416,1.52
		c0.874,0.76,1.476,1.451,1.805,2.071c0.33,0.62,0.494,1.349,0.494,2.185c0,1.09-0.269,1.926-0.808,2.508
		c-0.538,0.584-1.32,0.875-2.346,0.875C83.45,35.072,82.684,34.783,82.164,34.207z"/>
	<path fill="#FFFFFF" d="M90.448,23.482h-2.185v-1.9h6.46v1.9h-2.185v11.399h-2.09V23.482z"/>
	<path fill="#FFFFFF" d="M96.319,34.197c-0.544-0.582-0.817-1.405-0.817-2.469v-6.992c0-1.064,0.272-1.888,0.817-2.471
		c0.544-0.582,1.33-0.874,2.356-0.874c1.026,0,1.812,0.292,2.356,0.874c0.545,0.583,0.817,1.406,0.817,2.471v6.992
		c0,1.063-0.272,1.887-0.817,2.469c-0.544,0.584-1.33,0.875-2.356,0.875C97.649,35.072,96.863,34.781,96.319,34.197z M99.758,31.861
		v-7.258c0-0.875-0.361-1.312-1.083-1.312c-0.722,0-1.083,0.437-1.083,1.312v7.258c0,0.873,0.361,1.311,1.083,1.311
		C99.397,33.172,99.758,32.734,99.758,31.861z"/>
	<path fill="#FFFFFF" d="M103.254,21.582h3.097c1.077,0,1.862,0.25,2.356,0.75c0.494,0.501,0.741,1.271,0.741,2.309v0.817
		c0,1.38-0.456,2.255-1.368,2.622v0.037c0.506,0.152,0.865,0.463,1.074,0.932s0.313,1.096,0.313,1.881v2.337
		c0,0.38,0.012,0.688,0.038,0.922s0.089,0.466,0.19,0.693h-2.128c-0.076-0.216-0.126-0.418-0.152-0.608
		c-0.025-0.189-0.038-0.531-0.038-1.025v-2.432c0-0.608-0.098-1.033-0.294-1.273s-0.535-0.361-1.017-0.361h-0.722v5.7h-2.09V21.582z
		 M106.104,27.281c0.418,0,0.731-0.107,0.94-0.322s0.313-0.576,0.313-1.083V24.85c0-0.48-0.085-0.829-0.256-1.045
		c-0.171-0.215-0.44-0.322-0.808-0.322h-0.95v3.799H106.104z"/>
	<path fill="#FFFFFF" d="M110.911,21.582h5.7v1.9h-3.61v3.515h2.869v1.899h-2.869v4.086h3.61v1.899h-5.7V21.582z"/>
	<path fill="#FFFFFF" d="M118.264,34.207c-0.52-0.576-0.779-1.402-0.779-2.479v-0.761h1.976v0.912c0,0.861,0.361,1.292,1.083,1.292
		c0.354,0,0.624-0.104,0.808-0.313c0.183-0.209,0.275-0.548,0.275-1.017c0-0.557-0.127-1.048-0.38-1.473
		c-0.254-0.424-0.722-0.934-1.406-1.529c-0.861-0.76-1.463-1.447-1.805-2.062c-0.342-0.614-0.513-1.308-0.513-2.081
		c0-1.051,0.266-1.864,0.798-2.441c0.532-0.576,1.305-0.864,2.318-0.864c1,0,1.758,0.288,2.271,0.864
		c0.513,0.577,0.77,1.403,0.77,2.48v0.551h-1.976v-0.684c0-0.457-0.089-0.789-0.266-0.998c-0.178-0.209-0.437-0.313-0.779-0.313
		c-0.697,0-1.045,0.425-1.045,1.272c0,0.482,0.13,0.932,0.39,1.35c0.259,0.418,0.731,0.924,1.416,1.52
		c0.874,0.76,1.476,1.451,1.805,2.071c0.33,0.62,0.494,1.349,0.494,2.185c0,1.09-0.269,1.926-0.808,2.508
		c-0.538,0.584-1.32,0.875-2.346,0.875C119.55,35.072,118.784,34.783,118.264,34.207z"/>
</g>
<g>
	<path fill-rule="evenodd" clip-rule="evenodd" fill="#627D53" d="M60.629,80.565c0.415,0.959,0.703,1.694,1.045,2.404
		c5.544,11.495,11.089,22.989,16.648,34.477c2.422,5.006,4.813,10.03,7.349,14.979c1.095,2.136,2.605,4.148,5.228,4.422
		c7.082,0.739,14.175,1.381,21.273,1.938c2.679,0.211,3.842-0.866,4.385-3.563c0.161-0.8,0.271-1.616,0.318-2.431
		c0.262-4.524-1.367-6.194-5.862-5.976c-4.007,0.193-8.034,0.242-12.012,0.697c-6.264,0.716-10.277-2.056-12.989-7.461
		C79.959,107.989,73.815,95.97,67.714,83.93C65.689,79.934,65.696,79.931,60.629,80.565z M88.726,147.073
		c-0.003-4.602-0.795-5.762-5.325-6.586c-2.376-0.433-4.886-0.563-7.289-0.335c-6.832,0.646-7.667,1.775-7.732,8.441
		c-0.023,2.355,0.964,3.679,3.021,4.433c3.947,1.447,7.991,1.558,12.05,0.669C88.096,152.679,88.729,151.808,88.726,147.073z"/>
	<path fill-rule="evenodd" clip-rule="evenodd" fill="#627D53" d="M60.629,80.565c5.067-0.635,5.06-0.632,7.084,3.364
		c6.102,12.04,12.245,24.06,18.299,36.124c2.712,5.405,6.725,8.177,12.989,7.461c3.979-0.455,8.005-0.504,12.012-0.697
		c4.495-0.219,6.124,1.451,5.862,5.976c-0.047,0.814-0.157,1.631-0.318,2.431c-0.543,2.696-1.706,3.773-4.385,3.563
		c-7.098-0.558-14.191-1.199-21.273-1.938c-2.623-0.273-4.133-2.286-5.228-4.422c-2.535-4.949-4.926-9.974-7.349-14.979
		c-5.559-11.487-11.104-22.981-16.648-34.477C61.333,82.26,61.044,81.524,60.629,80.565z"/>
	<path fill-rule="evenodd" clip-rule="evenodd" fill="#627D53" d="M88.726,147.073c0.003,4.734-0.63,5.605-5.274,6.622
		c-4.059,0.889-8.104,0.778-12.05-0.669c-2.058-0.754-3.045-2.077-3.021-4.433c0.065-6.666,0.901-7.795,7.732-8.441
		c2.403-0.229,4.912-0.098,7.289,0.335C87.931,141.312,88.722,142.472,88.726,147.073z"/>
</g>
</svg>
