<?xml version="1.0" encoding="utf-8"?>
<!-- Generator: Adobe Illustrator 16.0.0, SVG Export Plug-In . SVG Version: 6.00 Build 0)  -->
<!DOCTYPE svg PUBLIC "-//W3C//DTD SVG 1.1//EN" "http://www.w3.org/Graphics/SVG/1.1/DTD/svg11.dtd">
<svg version="1.1" id="Layer_1" xmlns="http://www.w3.org/2000/svg" xmlns:xlink="http://www.w3.org/1999/xlink" x="0px" y="0px"
	 width="157px" height="179px" viewBox="0 0 157 179" enable-background="new 0 0 157 179" xml:space="preserve">
<rect x="1.5" y="1.266" fill-rule="evenodd" clip-rule="evenodd" fill="#FFFFFF" stroke="#627D53" stroke-width="2" stroke-miterlimit="10" width="155" height="177"/>
<rect x="0.5" y="0.266" fill-rule="evenodd" clip-rule="evenodd" fill="#627D53" width="155" height="56"/>
<g>
	<path fill="#FFFFFF" d="M30.272,21.582h3.097c1.077,0,1.862,0.25,2.356,0.75c0.494,0.501,0.741,1.271,0.741,2.309v0.817
		c0,1.38-0.456,2.255-1.368,2.622v0.037c0.506,0.152,0.865,0.463,1.074,0.932s0.313,1.096,0.313,1.881v2.337
		c0,0.38,0.012,0.688,0.038,0.922s0.089,0.466,0.19,0.693h-2.128c-0.076-0.216-0.126-0.418-0.152-0.608
		c-0.025-0.189-0.038-0.531-0.038-1.025v-2.432c0-0.608-0.098-1.033-0.294-1.273s-0.535-0.361-1.017-0.361h-0.722v5.7h-2.09V21.582z
		 M33.122,27.281c0.418,0,0.731-0.107,0.94-0.322s0.313-0.576,0.313-1.083V24.85c0-0.48-0.085-0.829-0.256-1.045
		c-0.171-0.215-0.44-0.322-0.808-0.322h-0.95v3.799H33.122z"/>
	<path fill="#FFFFFF" d="M39.544,21.582h2.831l2.166,13.3h-2.09l-0.38-2.642v0.039h-2.375l-0.38,2.603h-1.938L39.544,21.582z
		 M41.824,30.474L40.894,23.9h-0.038l-0.912,6.573H41.824z"/>
	<path fill="#FFFFFF" d="M45.548,21.582h5.529v1.9h-3.439v3.705h2.698v1.899h-2.698v5.795h-2.09V21.582z"/>
	<path fill="#FFFFFF" d="M53.908,23.482h-2.185v-1.9h6.46v1.9h-2.185v11.399h-2.09V23.482z"/>
	<path fill="#FFFFFF" d="M59.189,21.582h2.09v13.3h-2.09V21.582z"/>
	<path fill="#FFFFFF" d="M62.837,21.582h2.622l2.033,7.961h0.038v-7.961h1.862v13.3h-2.147l-2.508-9.709H64.7v9.709h-1.862V21.582z"
		/>
	<path fill="#FFFFFF" d="M71.596,34.207c-0.532-0.576-0.798-1.402-0.798-2.479v-6.992c0-1.077,0.266-1.903,0.798-2.48
		c0.532-0.576,1.305-0.864,2.318-0.864c1.013,0,1.786,0.288,2.318,0.864c0.532,0.577,0.798,1.403,0.798,2.48v1.14h-1.976v-1.272
		c0-0.875-0.361-1.312-1.083-1.312c-0.722,0-1.083,0.437-1.083,1.312v7.276c0,0.861,0.361,1.292,1.083,1.292
		c0.722,0,1.083-0.431,1.083-1.292v-2.603h-1.045v-1.9h3.021v4.352c0,1.076-0.266,1.902-0.798,2.479
		c-0.532,0.576-1.305,0.865-2.318,0.865C72.901,35.072,72.128,34.783,71.596,34.207z"/>
	<path fill="#FFFFFF" d="M82.074,34.217c-0.526-0.57-0.789-1.374-0.789-2.413V24.66c0-1.039,0.263-1.844,0.789-2.413
		c0.525-0.57,1.289-0.855,2.29-0.855c1,0,1.764,0.285,2.29,0.855c0.525,0.569,0.788,1.374,0.788,2.413v1.406h-1.976v-1.539
		c0-0.824-0.349-1.235-1.045-1.235c-0.696,0-1.045,0.411-1.045,1.235v7.429c0,0.811,0.349,1.216,1.045,1.216
		c0.697,0,1.045-0.405,1.045-1.216v-2.033h1.976v1.881c0,1.039-0.263,1.843-0.788,2.413c-0.526,0.57-1.289,0.855-2.29,0.855
		C83.363,35.072,82.6,34.787,82.074,34.217z"/>
	<path fill="#FFFFFF" d="M88.695,21.582h5.7v1.9h-3.61v3.515h2.869v1.899h-2.869v4.086h3.61v1.899h-5.7V21.582z"/>
	<path fill="#FFFFFF" d="M95.592,21.582h2.622l2.033,7.961h0.038v-7.961h1.862v13.3H100l-2.508-9.709h-0.038v9.709h-1.862V21.582z"
		/>
	<path fill="#FFFFFF" d="M105.339,23.482h-2.185v-1.9h6.46v1.9h-2.185v11.399h-2.09V23.482z"/>
	<path fill="#FFFFFF" d="M110.621,21.582h5.7v1.9h-3.61v3.515h2.869v1.899h-2.869v4.086h3.61v1.899h-5.7V21.582z"/>
	<path fill="#FFFFFF" d="M117.518,21.582h3.097c1.077,0,1.862,0.25,2.356,0.75c0.494,0.501,0.741,1.271,0.741,2.309v0.817
		c0,1.38-0.456,2.255-1.368,2.622v0.037c0.506,0.152,0.865,0.463,1.074,0.932s0.313,1.096,0.313,1.881v2.337
		c0,0.38,0.012,0.688,0.038,0.922s0.089,0.466,0.19,0.693h-2.128c-0.076-0.216-0.126-0.418-0.152-0.608
		c-0.025-0.189-0.038-0.531-0.038-1.025v-2.432c0-0.608-0.098-1.033-0.294-1.273s-0.535-0.361-1.017-0.361h-0.722v5.7h-2.09V21.582z
		 M120.368,27.281c0.418,0,0.731-0.107,0.94-0.322s0.313-0.576,0.313-1.083V24.85c0-0.48-0.085-0.829-0.256-1.045
		c-0.171-0.215-0.44-0.322-0.808-0.322h-0.95v3.799H120.368z"/>
	<path fill="#FFFFFF" d="M125.593,34.207c-0.52-0.576-0.779-1.402-0.779-2.479v-0.761h1.976v0.912c0,0.861,0.361,1.292,1.083,1.292
		c0.354,0,0.624-0.104,0.808-0.313c0.183-0.209,0.275-0.548,0.275-1.017c0-0.557-0.127-1.048-0.38-1.473
		c-0.254-0.424-0.722-0.934-1.406-1.529c-0.861-0.76-1.463-1.447-1.805-2.062c-0.342-0.614-0.513-1.308-0.513-2.081
		c0-1.051,0.266-1.864,0.798-2.441c0.532-0.576,1.305-0.864,2.318-0.864c1,0,1.758,0.288,2.271,0.864
		c0.513,0.577,0.77,1.403,0.77,2.48v0.551h-1.976v-0.684c0-0.457-0.089-0.789-0.266-0.998c-0.178-0.209-0.437-0.313-0.779-0.313
		c-0.697,0-1.045,0.425-1.045,1.272c0,0.482,0.13,0.932,0.39,1.35c0.259,0.418,0.731,0.924,1.416,1.52
		c0.874,0.76,1.476,1.451,1.805,2.071c0.33,0.62,0.494,1.349,0.494,2.185c0,1.09-0.269,1.926-0.808,2.508
		c-0.538,0.584-1.32,0.875-2.346,0.875C126.879,35.072,126.113,34.783,125.593,34.207z"/>
</g>
<g>
	<path fill-rule="evenodd" clip-rule="evenodd" fill="#627D53" d="M94.261,162.777c-10.507,0-21.015,0-31.522,0
		c-0.588-0.479-1.37-0.467-2.022-0.806c-3.343-1.734-4.963-4.489-4.963-8.231c0-20.706,0.008-41.413-0.019-62.12
		c-0.001-1.248,0.365-2.226,1.185-3.146c2.956-3.319,5.87-6.675,8.799-10.019c1.591-1.815,3.11-3.705,5.196-5.008
		c0.185-0.001,0.331-0.072,0.422-0.24l-0.02,0.011c0.135,0.004,0.236-0.048,0.294-0.174l-0.01,0.005
		c0.157,0.008,0.287-0.041,0.367-0.186l-0.01,0.005c0.158,0.008,0.287-0.04,0.367-0.186l-0.01,0.005
		c0.158,0.009,0.287-0.039,0.367-0.186l-0.013,0.006c0.188,0.02,0.359,0.002,0.462-0.187l-0.015,0.006
		c0.117-0.013,0.242-0.001,0.348-0.041c2.214-0.832,4.489-1.104,6.847-0.88c1.227,0.116,2.371,0.547,3.57,0.753l-0.02-0.008
		c0.107,0.18,0.275,0.209,0.464,0.188l-0.015-0.006c0.104,0.183,0.27,0.219,0.46,0.193l-0.019-0.007
		c0.082,0.194,0.253,0.198,0.426,0.199c1.839,0.971,3.442,2.229,4.812,3.807c3.482,4.011,6.981,8.006,10.502,11.983
		c0.774,0.874,1.131,1.804,1.13,2.987c-0.023,20.686-0.017,41.37-0.017,62.055c0,0.328,0.009,0.658-0.016,0.984
		c-0.243,3.208-1.722,5.623-4.549,7.219C96.157,162.252,95.168,162.39,94.261,162.777z M67.204,142.743
		c-1.7-0.009-3.401,0.004-5.101-0.037c-0.535-0.013-0.63,0.189-0.628,0.669c0.018,3.58-0.006,7.161,0.018,10.741
		c0.012,1.722,1.219,2.92,2.953,2.923c9.488,0.013,18.976,0.013,28.464,0c1.734-0.003,2.941-1.201,2.953-2.923
		c0.024-3.58,0-7.161,0.018-10.741c0.002-0.479-0.094-0.682-0.628-0.669c-1.699,0.041-3.4,0.028-5.1,0.037
		C82.503,142.743,74.854,142.743,67.204,142.743z M67.204,108.306c7.649,0,15.299,0,22.949,0c1.7,0.008,3.4-0.004,5.099,0.036
		c0.531,0.013,0.632-0.184,0.63-0.666c-0.015-5.04-0.011-10.081-0.006-15.121c0-0.337-0.048-0.619-0.291-0.896
		c-3.466-3.941-6.861-7.946-10.392-11.827c-3.555-3.908-9.644-3.819-13.158,0.125c-3.432,3.852-6.798,7.761-10.201,11.638
		c-0.229,0.261-0.357,0.513-0.356,0.87c0.01,5.101,0.014,10.2-0.004,15.301c-0.001,0.508,0.202,0.578,0.632,0.572
		C63.805,108.312,65.504,108.313,67.204,108.306z M90.153,136.962c1.697,0.009,3.396-0.004,5.093,0.036
		c0.525,0.013,0.655-0.166,0.637-0.659c-0.036-0.952-0.01-1.906-0.01-2.86c0-6.196-0.005-12.394,0.008-18.59
		c0.001-0.539-0.004-0.874-0.725-0.846c-1.666,0.066-3.335,0.035-5.003,0.043c-7.65,0-15.3,0-22.949,0
		c-1.698-0.008-3.396,0.004-5.093-0.036c-0.525-0.013-0.656,0.166-0.637,0.66c0.036,0.922,0.01,1.847,0.01,2.771
		c0,6.227,0.005,12.453-0.009,18.68c-0.001,0.539,0.004,0.873,0.725,0.845c1.666-0.065,3.335-0.034,5.003-0.043
		C74.854,136.962,82.503,136.962,90.153,136.962z"/>
	<path fill-rule="evenodd" clip-rule="evenodd" fill="#627D53" d="M47.873,71.076c1.601,0.659,2.196,1.842,2.174,3.573
		c-0.068,5.368-0.041,10.738-0.012,16.107c0.006,1.092-0.343,1.95-1.116,2.701c-1.369,1.33-2.688,2.712-4.064,4.035
		c-0.422,0.406-0.576,0.817-0.575,1.397c0.014,20.104-0.002,40.21,0.035,60.314c0.003,1.73-0.572,2.914-2.172,3.572
		c-0.478,0-0.956,0-1.433,0c-1.601-0.658-2.176-1.843-2.172-3.573c0.037-20.08,0.02-40.16,0.039-60.239
		c0.001-0.655-0.185-1.104-0.652-1.548c-1.21-1.151-2.362-2.363-3.56-3.528c-0.62-0.604-1.184-1.236-1.535-2.036
		c0-6.209,0-12.418,0-18.627c0.401-1.031,1.118-1.747,2.149-2.149C39.276,71.076,43.574,71.076,47.873,71.076z M38.56,83.478
		c0,1.939,0.002,3.879-0.002,5.818c0,0.362,0.005,0.692,0.308,0.979c0.735,0.697,1.451,1.418,2.152,2.151
		c0.287,0.3,0.494,0.339,0.799,0.017c0.698-0.735,1.422-1.446,2.149-2.155c0.23-0.225,0.33-0.467,0.329-0.789
		c-0.007-4.028-0.011-8.058,0.003-12.086c0.001-0.473-0.164-0.619-0.624-0.612c-1.462,0.021-2.925,0.035-4.386-0.006
		c-0.61-0.017-0.749,0.209-0.74,0.774C38.577,79.538,38.56,81.508,38.56,83.478z"/>
	<path fill-rule="evenodd" clip-rule="evenodd" fill="#627D53" d="M109.484,162.777c-1.601-0.658-2.196-1.841-2.174-3.572
		c0.067-5.369,0.041-10.738,0.011-16.107c-0.006-1.092,0.343-1.95,1.117-2.701c1.369-1.331,2.688-2.712,4.064-4.035
		c0.423-0.406,0.576-0.818,0.576-1.397c-0.014-20.104,0.001-40.21-0.035-60.314c-0.003-1.73,0.572-2.914,2.172-3.573
		c0.478,0,0.955,0,1.433,0c1.602,0.659,2.176,1.844,2.173,3.574c-0.037,20.08-0.02,40.16-0.039,60.239
		c0,0.655,0.186,1.104,0.652,1.548c1.21,1.151,2.363,2.363,3.56,3.528c0.619,0.604,1.183,1.236,1.535,2.036
		c0,6.209,0,12.418,0,18.627c-0.402,1.03-1.118,1.747-2.149,2.148C118.082,162.777,113.783,162.777,109.484,162.777z
		 M118.798,150.382c0-1.94-0.011-3.88,0.008-5.819c0.004-0.447-0.098-0.792-0.435-1.108c-0.696-0.652-1.368-1.333-2.027-2.022
		c-0.284-0.297-0.49-0.35-0.799-0.024c-0.698,0.736-1.419,1.45-2.15,2.153c-0.264,0.254-0.332,0.534-0.331,0.88
		c0.007,3.969,0.014,7.938-0.006,11.906c-0.003,0.549,0.163,0.724,0.711,0.711c1.432-0.033,2.865-0.038,4.296,0.001
		c0.603,0.018,0.754-0.197,0.745-0.769C118.779,154.321,118.798,152.352,118.798,150.382z"/>
	<path fill-rule="evenodd" clip-rule="evenodd" fill="#2195F1" d="M80.649,71.076c0.685,0.392,1.496,0.344,2.211,0.632
		c0.345,0.14,0.745,0.155,1.021,0.451c-1.199-0.206-2.343-0.637-3.57-0.753c-2.357-0.224-4.633,0.048-6.847,0.88
		c-0.106,0.04-0.231,0.028-0.348,0.041c0.891-0.642,1.966-0.742,2.98-1.023c0.208-0.058,0.495,0.077,0.612-0.228
		C78.022,71.076,79.335,71.076,80.649,71.076z"/>
	<path fill-rule="evenodd" clip-rule="evenodd" fill="#FEFEFE" d="M34.977,71.076c-1.031,0.402-1.748,1.118-2.149,2.149
		c0-0.716-0.28-1.712,0.079-2.07C33.265,70.797,34.261,71.076,34.977,71.076z"/>
	<path fill-rule="evenodd" clip-rule="evenodd" fill="#FEFEFE" d="M122.38,162.777c1.031-0.401,1.748-1.118,2.149-2.148
		c0,0.716,0.279,1.712-0.079,2.07C124.092,163.058,123.096,162.777,122.38,162.777z"/>
	<path fill-rule="evenodd" clip-rule="evenodd" fill="#9CC184" d="M90.153,108.306c-0.004-4.447-0.017-8.895-0.001-13.342
		c0.002-0.575-0.161-0.998-0.545-1.434c-2.764-3.129-5.509-6.275-8.241-9.433c-1.807-2.088-3.581-2.097-5.375,0.001
		c-0.833,0.975-1.688,1.931-2.531,2.897c-1.901,2.181-3.787,4.374-5.711,6.534c-0.388,0.435-0.544,0.859-0.542,1.434
		c0.015,4.447,0.002,8.895-0.002,13.342c-1.7,0.008-3.399,0.006-5.099,0.032c-0.43,0.006-0.633-0.064-0.632-0.572
		c0.018-5.101,0.014-10.2,0.004-15.301c0-0.357,0.128-0.609,0.356-0.87c3.403-3.877,6.77-7.786,10.201-11.638
		c3.514-3.944,9.603-4.033,13.158-0.125c3.531,3.881,6.926,7.886,10.392,11.827c0.243,0.276,0.291,0.559,0.291,0.896
		c-0.005,5.04-0.009,10.081,0.006,15.121c0.001,0.482-0.1,0.679-0.63,0.666C93.553,108.302,91.853,108.313,90.153,108.306z"/>
	<path fill-rule="evenodd" clip-rule="evenodd" fill="#9CC184" d="M90.153,142.743c1.7-0.009,3.401,0.004,5.1-0.037
		c0.535-0.013,0.631,0.189,0.628,0.669c-0.018,3.58,0.006,7.161-0.018,10.741c-0.012,1.722-1.219,2.92-2.953,2.923
		c-9.488,0.013-18.976,0.013-28.464,0c-1.734-0.003-2.941-1.201-2.953-2.923c-0.024-3.58,0-7.161-0.018-10.741
		c-0.002-0.479,0.093-0.682,0.628-0.669c1.7,0.041,3.4,0.028,5.101,0.037c0.004,2.592,0.026,5.185-0.001,7.776
		c-0.006,0.616,0.156,0.811,0.793,0.809c7.122-0.021,14.244-0.021,21.365,0c0.637,0.002,0.8-0.192,0.793-0.809
		C90.127,147.928,90.149,145.335,90.153,142.743z"/>
	<path fill-rule="evenodd" clip-rule="evenodd" fill="#9CC184" d="M67.204,114.086c0,7.626,0,15.251,0,22.876
		c-1.668,0.009-3.337-0.022-5.003,0.043c-0.721,0.028-0.726-0.306-0.725-0.845c0.014-6.227,0.009-12.453,0.009-18.68
		c0-0.924,0.025-1.849-0.01-2.771c-0.019-0.494,0.111-0.673,0.637-0.66C63.808,114.09,65.506,114.078,67.204,114.086z"/>
	<path fill-rule="evenodd" clip-rule="evenodd" fill="#9CC184" d="M90.153,136.962c0-7.625,0-15.251,0-22.876
		c1.668-0.008,3.337,0.023,5.003-0.043c0.721-0.028,0.726,0.307,0.725,0.846c-0.013,6.196-0.008,12.394-0.008,18.59
		c0,0.954-0.025,1.908,0.01,2.86c0.018,0.493-0.111,0.672-0.637,0.659C93.549,136.958,91.851,136.971,90.153,136.962z"/>
	<path fill-rule="evenodd" clip-rule="evenodd" fill="#2195F1" d="M83.86,72.151c0.192-0.03,0.351,0.021,0.464,0.188
		C84.136,72.36,83.968,72.331,83.86,72.151z"/>
	<path fill-rule="evenodd" clip-rule="evenodd" fill="#2195F1" d="M72.669,72.508c0.102-0.19,0.265-0.232,0.462-0.187
		C73.028,72.51,72.856,72.527,72.669,72.508z"/>
	<path fill-rule="evenodd" clip-rule="evenodd" fill="#2195F1" d="M84.31,72.333c0.193-0.03,0.354,0.017,0.46,0.193
		C84.579,72.552,84.414,72.516,84.31,72.333z"/>
	<path fill-rule="evenodd" clip-rule="evenodd" fill="#2195F1" d="M84.751,72.52c0.188-0.033,0.312,0.07,0.425,0.198
		C85.004,72.718,84.833,72.714,84.751,72.52z"/>
	<path fill-rule="evenodd" clip-rule="evenodd" fill="#2195F1" d="M70.914,73.447c0.106-0.141,0.225-0.259,0.422-0.24
		C71.245,73.375,71.099,73.446,70.914,73.447z"/>
	<path fill-rule="evenodd" clip-rule="evenodd" fill="#2195F1" d="M72.314,72.688c0.078-0.149,0.206-0.199,0.367-0.186
		C72.602,72.648,72.473,72.696,72.314,72.688z"/>
	<path fill-rule="evenodd" clip-rule="evenodd" fill="#2195F1" d="M71.958,72.868c0.08-0.146,0.207-0.197,0.366-0.186
		C72.244,72.828,72.115,72.876,71.958,72.868z"/>
	<path fill-rule="evenodd" clip-rule="evenodd" fill="#2195F1" d="M71.601,73.049c0.082-0.142,0.208-0.196,0.367-0.186
		C71.887,73.008,71.758,73.057,71.601,73.049z"/>
	<path fill-rule="evenodd" clip-rule="evenodd" fill="#2195F1" d="M71.316,73.218c0.046-0.146,0.155-0.186,0.294-0.174
		C71.553,73.17,71.451,73.222,71.316,73.218z"/>
</g>
</svg>
