<?xml version="1.0" encoding="utf-8"?>
<!-- Generator: Adobe Illustrator 16.0.0, SVG Export Plug-In . SVG Version: 6.00 Build 0)  -->
<!DOCTYPE svg PUBLIC "-//W3C//DTD SVG 1.1//EN" "http://www.w3.org/Graphics/SVG/1.1/DTD/svg11.dtd">
<svg version="1.1" id="Layer_1" xmlns="http://www.w3.org/2000/svg" xmlns:xlink="http://www.w3.org/1999/xlink" x="0px" y="0px"
	 width="157px" height="179px" viewBox="0 0 157 179" enable-background="new 0 0 157 179" xml:space="preserve">
<rect x="0.975" y="1.01" fill-rule="evenodd" clip-rule="evenodd" fill="#FFFFFF" stroke="#627D53" stroke-width="2" stroke-miterlimit="10" width="155" height="177"/>
<rect x="1.975" y="0.01" fill-rule="evenodd" clip-rule="evenodd" fill="#627D53" width="155" height="56"/>
<g>
	<path fill="#FFFFFF" d="M29.621,34.207c-0.52-0.576-0.779-1.402-0.779-2.479v-0.761h1.976v0.912c0,0.861,0.361,1.292,1.083,1.292
		c0.354,0,0.624-0.104,0.808-0.313c0.183-0.209,0.275-0.548,0.275-1.017c0-0.557-0.127-1.048-0.38-1.473
		c-0.254-0.424-0.722-0.934-1.406-1.529c-0.861-0.76-1.463-1.447-1.805-2.062c-0.342-0.614-0.513-1.308-0.513-2.081
		c0-1.051,0.266-1.864,0.798-2.441c0.532-0.576,1.305-0.864,2.318-0.864c1,0,1.758,0.288,2.271,0.864
		c0.513,0.577,0.77,1.403,0.77,2.48v0.551h-1.976v-0.684c0-0.457-0.089-0.789-0.266-0.998c-0.178-0.209-0.437-0.313-0.779-0.313
		c-0.697,0-1.045,0.425-1.045,1.272c0,0.482,0.13,0.932,0.39,1.35c0.259,0.418,0.731,0.924,1.416,1.52
		c0.874,0.76,1.476,1.451,1.805,2.071c0.33,0.62,0.494,1.349,0.494,2.185c0,1.09-0.269,1.926-0.808,2.508
		c-0.538,0.584-1.32,0.875-2.346,0.875C30.907,35.072,30.141,34.783,29.621,34.207z"/>
	<path fill="#FFFFFF" d="M35.777,21.582h2.014l0.931,10.222h0.038l0.988-10.222h2.28l0.988,10.222h0.038l0.931-10.222h1.805
		l-1.349,13.3h-2.603l-0.95-8.968H40.85l-0.95,8.968h-2.774L35.777,21.582z"/>
	<path fill="#FFFFFF" d="M46.854,21.582h2.09v13.3h-2.09V21.582z"/>
	<path fill="#FFFFFF" d="M50.502,21.582h2.983l1.33,9.52h0.038l1.33-9.52h2.983v13.3H57.19V24.813h-0.038l-1.52,10.069h-1.748
		l-1.52-10.069h-0.038v10.069h-1.824V21.582z"/>
	<path fill="#FFFFFF" d="M60.724,21.582h2.983l1.33,9.52h0.038l1.33-9.52h2.983v13.3h-1.976V24.813h-0.038l-1.52,10.069h-1.748
		l-1.52-10.069h-0.038v10.069h-1.824V21.582z"/>
	<path fill="#FFFFFF" d="M70.945,21.582h2.09v13.3h-2.09V21.582z"/>
	<path fill="#FFFFFF" d="M74.593,21.582h2.622l2.033,7.961h0.038v-7.961h1.862v13.3h-2.147l-2.508-9.709h-0.038v9.709h-1.862V21.582
		z"/>
	<path fill="#FFFFFF" d="M83.352,34.207c-0.532-0.576-0.798-1.402-0.798-2.479v-6.992c0-1.077,0.266-1.903,0.798-2.48
		c0.532-0.576,1.305-0.864,2.318-0.864c1.013,0,1.786,0.288,2.318,0.864c0.532,0.577,0.798,1.403,0.798,2.48v1.14H86.81v-1.272
		c0-0.875-0.361-1.312-1.083-1.312c-0.722,0-1.083,0.437-1.083,1.312v7.276c0,0.861,0.361,1.292,1.083,1.292
		c0.722,0,1.083-0.431,1.083-1.292v-2.603h-1.045v-1.9h3.021v4.352c0,1.076-0.266,1.902-0.798,2.479
		c-0.532,0.576-1.305,0.865-2.318,0.865C84.657,35.072,83.884,34.783,83.352,34.207z"/>
	<path fill="#FFFFFF" d="M93.174,21.582h3.078c1.039,0,1.817,0.279,2.337,0.836c0.52,0.558,0.779,1.375,0.779,2.451v1.311
		c0,1.077-0.26,1.895-0.779,2.451c-0.52,0.558-1.298,0.836-2.337,0.836h-0.988v5.415h-2.09V21.582z M96.252,27.566
		c0.342,0,0.599-0.095,0.77-0.285c0.171-0.189,0.256-0.512,0.256-0.969v-1.576c0-0.457-0.085-0.779-0.256-0.97
		s-0.427-0.284-0.77-0.284h-0.988v4.084H96.252z"/>
	<path fill="#FFFFFF" d="M101.173,34.197c-0.544-0.582-0.817-1.405-0.817-2.469v-6.992c0-1.064,0.272-1.888,0.817-2.471
		c0.544-0.582,1.33-0.874,2.356-0.874c1.026,0,1.812,0.292,2.356,0.874c0.545,0.583,0.817,1.406,0.817,2.471v6.992
		c0,1.063-0.272,1.887-0.817,2.469c-0.544,0.584-1.33,0.875-2.356,0.875C102.503,35.072,101.718,34.781,101.173,34.197z
		 M104.612,31.861v-7.258c0-0.875-0.361-1.312-1.083-1.312c-0.722,0-1.083,0.437-1.083,1.312v7.258c0,0.873,0.361,1.311,1.083,1.311
		C104.251,33.172,104.612,32.734,104.612,31.861z"/>
	<path fill="#FFFFFF" d="M108.773,34.197c-0.544-0.582-0.817-1.405-0.817-2.469v-6.992c0-1.064,0.272-1.888,0.817-2.471
		c0.544-0.582,1.33-0.874,2.356-0.874c1.026,0,1.812,0.292,2.356,0.874c0.545,0.583,0.817,1.406,0.817,2.471v6.992
		c0,1.063-0.272,1.887-0.817,2.469c-0.544,0.584-1.33,0.875-2.356,0.875C110.104,35.072,109.318,34.781,108.773,34.197z
		 M112.212,31.861v-7.258c0-0.875-0.361-1.312-1.083-1.312c-0.722,0-1.083,0.437-1.083,1.312v7.258c0,0.873,0.361,1.311,1.083,1.311
		C111.852,33.172,112.212,32.734,112.212,31.861z"/>
	<path fill="#FFFFFF" d="M115.708,21.582h2.09v11.4h3.439v1.899h-5.529V21.582z"/>
	<path fill="#FFFFFF" d="M122.663,34.207c-0.52-0.576-0.779-1.402-0.779-2.479v-0.761h1.976v0.912c0,0.861,0.361,1.292,1.083,1.292
		c0.354,0,0.624-0.104,0.808-0.313c0.183-0.209,0.275-0.548,0.275-1.017c0-0.557-0.127-1.048-0.38-1.473
		c-0.254-0.424-0.722-0.934-1.406-1.529c-0.861-0.76-1.463-1.447-1.805-2.062c-0.342-0.614-0.513-1.308-0.513-2.081
		c0-1.051,0.266-1.864,0.798-2.441c0.532-0.576,1.305-0.864,2.318-0.864c1,0,1.758,0.288,2.271,0.864
		c0.513,0.577,0.77,1.403,0.77,2.48v0.551h-1.976v-0.684c0-0.457-0.089-0.789-0.266-0.998c-0.178-0.209-0.437-0.313-0.779-0.313
		c-0.697,0-1.045,0.425-1.045,1.272c0,0.482,0.13,0.932,0.39,1.35c0.259,0.418,0.731,0.924,1.416,1.52
		c0.874,0.76,1.476,1.451,1.805,2.071c0.33,0.62,0.494,1.349,0.494,2.185c0,1.09-0.269,1.926-0.808,2.508
		c-0.538,0.584-1.32,0.875-2.346,0.875C123.948,35.072,123.182,34.783,122.663,34.207z"/>
</g>
<g>
	<path fill-rule="evenodd" clip-rule="evenodd" fill="#627D53" d="M106.677,83.019c0.698,0,1.397,0,2.095,0
		c0.121,0.042,0.238,0.099,0.362,0.122c2.555,0.466,4.541,1.797,5.799,4.058c0.539,0.969,0.791,2.098,1.173,3.154
		c0,1.266,0,2.531,0,3.798c-1.845,0-3.69,0-5.605,0c0-0.995,0.022-1.93-0.006-2.863c-0.035-1.182-0.758-2.137-1.856-2.52
		c-1.882-0.657-3.691,0.705-3.693,2.815c-0.008,10.018-0.004,20.036-0.002,30.054c0,0.208,0.028,0.417,0.043,0.625
		c0.042-0.052,0.083-0.103,0.124-0.154c1.442,0.478,2.919,0.87,4.318,1.451c2.149,0.894,4.352,1.396,6.677,1.366
		c0,3.71,0,7.421,0,11.131c-2.36,0.124-4.579-0.434-6.73-1.358c-4.463-1.92-8.928-1.891-13.394,0.011
		c-4.441,1.891-8.898,1.907-13.339,0.017c-4.514-1.922-9.005-1.924-13.518-0.003c-4.465,1.901-8.947,1.885-13.398-0.041
		c-2.137-0.925-4.347-1.4-6.67-1.375c0-3.71,0-7.421,0-11.131c2.127-0.102,4.154,0.318,6.126,1.105
		c1.15,0.459,2.307,0.959,3.508,1.227c3.703,0.823,7.314,0.493,10.793-1.1c1.867-0.855,3.845-1.289,5.903-1.244
		c1.451,0.032,2.899,0.147,4.412,0.229c0-0.167,0-0.403,0-0.639c0-2.923,0-5.847,0-8.771c0-7.155-0.01-14.312,0.004-21.467
		c0.007-3.896,2.401-7.111,6.038-8.166c0.437-0.126,0.882-0.221,1.324-0.331c0.698,0,1.397,0,2.095,0
		c0.783,0.246,1.611,0.398,2.342,0.753c4.616,2.239,5.31,6.217,4.87,10.368c-1.817,0-3.637,0-5.426,0
		c-0.042-0.06-0.065-0.077-0.065-0.095c-0.008-0.895-0.002-1.789-0.023-2.683c-0.028-1.199-0.758-2.201-1.862-2.591
		c-1.876-0.662-3.709,0.695-3.726,2.793c-0.021,2.596-0.005,5.191-0.003,7.787c0,0.125,0.028,0.251,0.046,0.396
		c4.646,0,9.259,0,13.931,0c0-0.268,0-0.502,0-0.736c0-2.574-0.016-5.148,0.005-7.723c0.03-3.706,2.569-6.989,6.136-7.971
		C105.879,83.209,106.279,83.118,106.677,83.019z M85.395,124.495c1.841,0.442,3.677,0.46,5.535,0.374
		c3.015-0.14,5.552-1.811,8.363-2.461c0-1.987,0-3.914,0-5.817c-4.66,0-9.269,0-13.897,0
		C85.395,119.247,85.395,121.855,85.395,124.495z M99.307,105.425c-4.655,0-9.266,0-13.905,0c0,1.844,0,3.642,0,5.48
		c4.648,0,9.258,0,13.905,0C99.307,109.083,99.307,107.282,99.307,105.425z"/>
	<path fill-rule="evenodd" clip-rule="evenodd" fill="#627D53" d="M116.105,138.937c0,3.711,0,7.421,0,11.132
		c-22.35,0-44.699,0-67.049,0c0-4.671,0-9.342,0-14.013c2.443,0.064,4.766,0.59,7.03,1.551c4.282,1.817,8.62,1.782,12.894-0.039
		c4.624-1.972,9.208-1.997,13.813,0.014c1.484,0.648,3.029,1.072,4.651,1.23c3.271,0.32,6.33-0.345,9.354-1.606
		c3.745-1.563,7.639-1.575,11.424-0.146C110.789,138.028,113.329,138.93,116.105,138.937z"/>
	<path fill-rule="evenodd" clip-rule="evenodd" fill="#627D53" d="M49.056,150.068c22.35,0,44.7,0,67.049,0
		c-0.174,0.043-0.349,0.124-0.523,0.125c-2.66,0.008-5.32,0.006-7.98,0.006c-19.319,0-38.638,0-57.957-0.006
		C49.449,150.193,49.252,150.111,49.056,150.068z"/>
</g>
</svg>
