<?xml version="1.0" encoding="utf-8"?>
<!-- Generator: Adobe Illustrator 16.0.0, SVG Export Plug-In . SVG Version: 6.00 Build 0)  -->
<!DOCTYPE svg PUBLIC "-//W3C//DTD SVG 1.1//EN" "http://www.w3.org/Graphics/SVG/1.1/DTD/svg11.dtd">
<svg version="1.1" id="Layer_1" xmlns="http://www.w3.org/2000/svg" xmlns:xlink="http://www.w3.org/1999/xlink" x="0px" y="0px"
	 width="142px" height="177.242px" viewBox="0 0 142 177.242" enable-background="new 0 0 142 177.242" xml:space="preserve">
<g>
	<g>
		<path fill-rule="evenodd" clip-rule="evenodd" fill="#FFFFFF" d="M141,166c0,5.522-4.477,10-10,10H11c-5.523,0-10-4.478-10-10V76
			c0-5.523,4.477-10,10-10h120c5.523,0,10,4.477,10,10V166z"/>
		<path fill="none" stroke="#000000" stroke-width="2" stroke-miterlimit="10" d="M141,166c0,5.522-4.477,10-10,10H11
			c-5.523,0-10-4.478-10-10V76c0-5.523,4.477-10,10-10h120c5.523,0,10,4.477,10,10V166z"/>
	</g>
	<g>
		<g>
			<path fill="#1A1A1A" d="M54.735,34.337h-5.444v14.807h-3.662V34.337h-5.371v-2.966h14.478V34.337z"/>
			<path fill="#1A1A1A" d="M56.042,42.418c0-0.96,0.139-1.851,0.415-2.673c0.276-0.822,0.68-1.532,1.209-2.13
				c0.528-0.599,1.182-1.068,1.959-1.41c0.776-0.342,1.662-0.513,2.654-0.513c1.002,0,1.893,0.171,2.674,0.513
				s1.438,0.812,1.972,1.41c0.532,0.598,0.938,1.308,1.214,2.13c0.277,0.822,0.416,1.713,0.416,2.673v0.256
				c0,0.969-0.139,1.861-0.416,2.68c-0.276,0.817-0.682,1.525-1.214,2.124c-0.533,0.598-1.187,1.066-1.96,1.403
				c-0.772,0.338-1.66,0.507-2.66,0.507c-1.002,0-1.891-0.169-2.668-0.507c-0.777-0.337-1.433-0.806-1.965-1.403
				c-0.533-0.599-0.938-1.307-1.215-2.124c-0.276-0.818-0.415-1.711-0.415-2.68V42.418z M59.57,42.675
				c0,0.537,0.049,1.042,0.146,1.514c0.098,0.472,0.254,0.881,0.47,1.227c0.215,0.346,0.496,0.621,0.842,0.824
				c0.346,0.204,0.771,0.305,1.276,0.305c0.488,0,0.904-0.102,1.251-0.305c0.346-0.203,0.628-0.478,0.849-0.824
				c0.219-0.346,0.378-0.754,0.476-1.227c0.098-0.472,0.146-0.977,0.146-1.514v-0.256c0-0.521-0.049-1.015-0.146-1.483
				c-0.098-0.468-0.257-0.879-0.476-1.233c-0.221-0.354-0.505-0.635-0.855-0.842c-0.35-0.208-0.772-0.312-1.27-0.312
				c-0.488,0-0.905,0.104-1.251,0.312c-0.346,0.207-0.627,0.488-0.842,0.842c-0.216,0.354-0.372,0.765-0.47,1.233
				c-0.098,0.468-0.146,0.962-0.146,1.483V42.675z"/>
			<path fill="#1A1A1A" d="M78.638,47.802c-0.416,0.505-0.92,0.896-1.514,1.172c-0.595,0.276-1.295,0.415-2.1,0.415
				c-0.651,0-1.246-0.092-1.783-0.274c-0.537-0.184-0.999-0.472-1.385-0.867c-0.387-0.395-0.686-0.903-0.897-1.525
				c-0.212-0.623-0.317-1.369-0.317-2.24v-8.545h3.527v8.569c0,0.366,0.047,0.68,0.141,0.94c0.094,0.261,0.224,0.47,0.391,0.628
				c0.167,0.159,0.364,0.275,0.592,0.348c0.229,0.073,0.48,0.11,0.758,0.11c0.635,0,1.151-0.11,1.55-0.33s0.704-0.525,0.915-0.916
				v-9.351h3.541v13.208h-3.32L78.638,47.802z"/>
			<path fill="#1A1A1A" d="M92.139,39.245c-0.18-0.024-0.39-0.047-0.629-0.067c-0.24-0.021-0.454-0.031-0.641-0.031
				c-0.692,0-1.252,0.116-1.679,0.348c-0.428,0.231-0.743,0.567-0.946,1.007v8.643h-3.527V35.937h3.332l0.098,1.575
				c0.334-0.569,0.744-1.015,1.232-1.336c0.488-0.322,1.059-0.482,1.709-0.482c0.188,0,0.385,0.017,0.593,0.049
				c0.207,0.033,0.376,0.069,0.507,0.11L92.139,39.245z"/>
			<path fill="#1A1A1A" d="M100.988,45.495c0-0.187-0.036-0.358-0.109-0.513c-0.073-0.154-0.212-0.299-0.415-0.433
				c-0.203-0.135-0.48-0.263-0.83-0.385s-0.802-0.24-1.354-0.354c-0.676-0.146-1.301-0.33-1.874-0.549
				c-0.574-0.22-1.07-0.492-1.489-0.818c-0.42-0.325-0.747-0.704-0.982-1.135c-0.236-0.431-0.354-0.932-0.354-1.501
				c0-0.553,0.12-1.078,0.36-1.575c0.239-0.496,0.586-0.934,1.037-1.313c0.452-0.378,1.005-0.677,1.66-0.897s1.394-0.33,2.216-0.33
				c0.854,0,1.624,0.106,2.308,0.317c0.684,0.212,1.263,0.507,1.739,0.885c0.476,0.379,0.842,0.829,1.099,1.349
				c0.256,0.521,0.385,1.091,0.385,1.709h-3.528c0-0.504-0.163-0.921-0.488-1.251c-0.325-0.329-0.834-0.494-1.526-0.494
				c-0.594,0-1.054,0.134-1.379,0.403s-0.488,0.61-0.488,1.025c0,0.195,0.043,0.368,0.128,0.519c0.086,0.15,0.224,0.289,0.415,0.415
				c0.191,0.126,0.443,0.242,0.757,0.348c0.313,0.106,0.698,0.204,1.153,0.293c0.717,0.139,1.38,0.31,1.99,0.513
				c0.61,0.204,1.137,0.466,1.581,0.787c0.443,0.322,0.791,0.712,1.044,1.172c0.252,0.46,0.378,1.016,0.378,1.667
				c0,0.586-0.13,1.125-0.391,1.618c-0.261,0.492-0.633,0.917-1.117,1.275c-0.484,0.358-1.067,0.639-1.751,0.842
				s-1.449,0.305-2.295,0.305c-0.928,0-1.746-0.13-2.454-0.391s-1.305-0.602-1.788-1.025c-0.484-0.423-0.849-0.899-1.093-1.428
				c-0.244-0.529-0.366-1.062-0.366-1.599h3.345c0.017,0.342,0.092,0.637,0.226,0.885c0.135,0.249,0.312,0.45,0.531,0.604
				c0.22,0.155,0.474,0.269,0.763,0.342s0.593,0.11,0.909,0.11c0.676,0,1.187-0.128,1.532-0.384
				C100.815,46.245,100.988,45.91,100.988,45.495z"/>
		</g>
	</g>
	<g>
		<path fill-rule="evenodd" clip-rule="evenodd" fill="#010101" d="M130.496,127.635c-1.361-1.861-4.389-2.52-8.082-2.576
			c-5.521-0.084-10.449-0.846-15.254-1.801c-5.25-1.041-10.922-1.412-17.227-0.689c-5.76,0.658-11.102,2.15-16.016,4.4
			c-2.857,1.311-5.586,2.717-8.4,4.059c-0.447,0.213-1.059,0.398-1.584,0.459c-6.676,0.768-12.564,2.629-17.738,5.605
			c-3.744,2.154-7.984,3.779-12.939,4.428c-8.162,1.066-14.918,3.701-20.662,7.473c-1.074,0.705-2.045,1.455-3.063,2.182
			c0.008,0.043,80.701-15.393,121.039-23.15C130.547,127.895,130.521,127.764,130.496,127.635"/>
		<path fill-rule="evenodd" clip-rule="evenodd" fill="#010101" d="M24.439,148.779c20.846-4.01,41.691-8.021,62.537-12.031
			c-0.164,0.076-0.32,0.189-0.492,0.223c-3.846,0.748-7.691,1.488-11.539,2.227c-16.635,3.199-33.268,6.4-49.902,9.594
			C24.85,148.83,24.641,148.785,24.439,148.779"/>
		<path fill-rule="evenodd" clip-rule="evenodd" fill="#010101" d="M23.781,110.697c0.186,0.008,0.373,0.006,0.559,0.021
			c1.242,0.105,2.199,1.07,2.311,2.326c0.105,1.197-0.688,2.32-1.857,2.633c-1.188,0.314-2.439-0.25-2.938-1.324
			c-0.539-1.162-0.209-2.453,0.811-3.176c0.102-0.074,0.201-0.154,0.301-0.232C23.238,110.863,23.51,110.779,23.781,110.697"/>
		<path fill-rule="evenodd" clip-rule="evenodd" fill="#010101" d="M32.242,118.012c0.047-0.004,0.061,0,0.07-0.004
			c0.307-0.07,0.662-0.27,0.904-0.176c0.25,0.096,0.391,0.477,0.576,0.734c1.078,1.518,2.156,3.035,3.236,4.551
			c0.061,0.086,0.125,0.168,0.203,0.273c1.76-1.01,3.596-1.236,5.508-0.523c1.475,0.549,2.586,1.537,3.324,2.926
			c1.453,2.742,0.617,6.184-1.924,7.977c-2.588,1.824-6.086,1.432-8.229-0.92c-2.113-2.32-2.289-6.215,0.461-8.82
			c-0.219-0.311-0.441-0.625-0.682-0.961c-0.066,0.105-0.117,0.18-0.162,0.258c-1.344,2.455-2.688,4.91-4.021,7.369
			c-0.074,0.137-0.109,0.338-0.072,0.486c0.18,0.723-0.031,1.402-0.59,1.795c-0.576,0.406-1.27,0.393-1.885-0.031
			c-0.057-0.039-0.113-0.076-0.164-0.111c0.256,4.127-1.402,6.863-5.652,7.494c-2.658,0.396-5.256-1.297-6.301-3.805
			c-1.037-2.494-0.303-5.414,1.783-7.16c2.045-1.711,5.289-2.092,7.943-0.045c0.158-0.162,0.328-0.322,0.477-0.498
			c0.051-0.061,0.047-0.164,0.064-0.248c0.004-0.021-0.02-0.043-0.023-0.066c-0.135-0.896-0.629-1.295-1.561-1.387
			c-1.18-0.117-2.344-0.408-3.514-0.625c-1.346-0.252-2.092-1.305-1.863-2.658c0.307-1.811,0.668-3.617,0.934-5.436
			c0.227-1.547,1.668-2.41,3.238-1.738c0.869,0.371,1.729,0.764,2.578,1.174c0.352,0.172,0.676,0.197,1.053,0.111
			c0.885-0.197,1.783-0.342,2.666-0.551C31.316,117.232,31.852,117.4,32.242,118.012 M37.328,125.367
			c-1.777,1.596-1.895,4.525-0.301,6.357c1.668,1.916,4.557,2.148,6.494,0.523c1.936-1.627,2.227-4.498,0.654-6.455
			c-1.719-2.137-4.545-2.088-5.996-1.063c0.08,0.113,0.158,0.23,0.238,0.344c0.691,0.971,1.385,1.939,2.07,2.912
			c0.223,0.314,0.191,0.635-0.064,0.814c-0.26,0.182-0.545,0.121-0.768-0.17c-0.158-0.205-0.303-0.42-0.455-0.631
			C38.582,127.129,37.961,126.256,37.328,125.367 M25.434,130.488c-1.602-1.375-4.217-1.289-5.889,0.172
			c-1.719,1.498-2.084,4.086-0.85,5.986c1.277,1.959,3.758,2.691,5.854,1.729c1.92-0.887,3.145-3.252,2.594-5.061
			c-0.934,0.285-1.869,0.574-2.807,0.852c-0.207,0.061-0.33,0.141-0.393,0.375c-0.139,0.537-0.516,0.873-1.059,0.979
			c-0.6,0.111-1.094-0.094-1.441-0.604c-0.314-0.463-0.32-1.074-0.004-1.533c0.348-0.506,0.834-0.703,1.443-0.613
			c0.115,0.016,0.283,0.029,0.35-0.033C23.975,131.996,24.701,131.24,25.434,130.488 M34.105,120.84
			c-0.373-0.525-0.756-1.02-1.086-1.545c-0.176-0.277-0.357-0.34-0.629-0.195c-0.1,0.053-0.184,0.135-0.281,0.193
			c-0.283,0.174-0.551,0.428-0.859,0.498c-1.16,0.275-2.334,0.486-3.5,0.729c-0.418,0.088-0.813,0.072-1.205-0.123
			c-0.447-0.225-0.912-0.416-1.396-0.635c-0.234,1.338-0.459,2.635-0.689,3.955c0.15,0.031,0.277,0.059,0.402,0.082
			c1.17,0.219,2.342,0.432,3.512,0.658c0.26,0.049,0.508,0.152,0.82,0.248C30.783,123.455,32.43,122.16,34.105,120.84
			 M34.717,121.748c-0.031,0.008-0.059,0.01-0.074,0.025c-1.668,1.305-3.334,2.611-4.992,3.93c-0.074,0.059-0.102,0.25-0.068,0.355
			c0.174,0.535,0.371,1.066,0.564,1.598c0.232,0.635,0.467,1.266,0.725,1.963c0.092-0.16,0.146-0.246,0.197-0.338
			c1.256-2.295,2.506-4.594,3.773-6.883C35.008,122.102,34.947,121.926,34.717,121.748 M26.229,131.188
			c-0.602,0.621-1.145,1.178-1.744,1.797c0.848-0.26,1.604-0.488,2.4-0.732C26.658,131.887,26.457,131.559,26.229,131.188
			 M27.576,129.84c-0.26,0.244-0.137,0.539,0.299,0.844C27.775,130.402,27.684,130.145,27.576,129.84"/>
		<path fill-rule="evenodd" clip-rule="evenodd" fill="#010101" d="M26.229,131.188c0.23,0.371,0.43,0.699,0.656,1.064
			c-0.797,0.244-1.553,0.473-2.4,0.73C25.084,132.367,25.627,131.807,26.229,131.188"/>
		<path fill-rule="evenodd" clip-rule="evenodd" fill="#010101" d="M27.576,129.84c0.107,0.305,0.199,0.563,0.299,0.844
			C27.439,130.379,27.316,130.084,27.576,129.84"/>
		<path fill-rule="evenodd" clip-rule="evenodd" fill="#010101" d="M60.969,97.633c0.188,0.008,0.373,0.004,0.559,0.021
			c1.242,0.104,2.201,1.07,2.311,2.324c0.105,1.199-0.686,2.32-1.857,2.633c-1.186,0.316-2.438-0.248-2.938-1.324
			c-0.537-1.16-0.207-2.451,0.811-3.176c0.104-0.074,0.203-0.154,0.303-0.232C60.428,97.797,60.697,97.715,60.969,97.633"/>
		<path fill-rule="evenodd" clip-rule="evenodd" fill="#010101" d="M69.432,104.945c0.047-0.002,0.059,0,0.07-0.002
			c0.307-0.07,0.662-0.27,0.904-0.176c0.248,0.096,0.391,0.477,0.574,0.734c1.08,1.518,2.158,3.035,3.238,4.551
			c0.061,0.086,0.125,0.168,0.203,0.273c1.758-1.012,3.596-1.236,5.506-0.525c1.477,0.551,2.588,1.539,3.326,2.928
			c1.453,2.742,0.617,6.182-1.924,7.975c-2.59,1.826-6.088,1.432-8.23-0.918c-2.111-2.322-2.289-6.215,0.463-8.822
			c-0.219-0.309-0.441-0.623-0.682-0.961c-0.066,0.105-0.119,0.182-0.162,0.26c-1.344,2.453-2.688,4.91-4.021,7.367
			c-0.074,0.137-0.111,0.34-0.074,0.486c0.182,0.723-0.029,1.402-0.588,1.797c-0.576,0.404-1.27,0.393-1.885-0.031
			c-0.057-0.039-0.115-0.078-0.164-0.113c0.254,4.127-1.402,6.863-5.652,7.494c-2.658,0.395-5.258-1.297-6.301-3.805
			c-1.037-2.492-0.305-5.412,1.783-7.16c2.043-1.711,5.289-2.09,7.943-0.045c0.158-0.162,0.326-0.32,0.477-0.498
			c0.049-0.059,0.047-0.164,0.064-0.248c0.004-0.02-0.021-0.043-0.023-0.066c-0.135-0.895-0.631-1.295-1.561-1.387
			c-1.182-0.115-2.346-0.408-3.516-0.625c-1.344-0.252-2.09-1.303-1.861-2.656c0.307-1.811,0.666-3.617,0.934-5.436
			c0.227-1.549,1.668-2.41,3.238-1.738c0.867,0.371,1.729,0.762,2.578,1.174c0.35,0.17,0.676,0.197,1.051,0.111
			c0.887-0.199,1.785-0.342,2.668-0.551C68.506,104.168,69.041,104.336,69.432,104.945 M74.516,112.301
			c-1.775,1.598-1.895,4.527-0.301,6.355c1.668,1.918,4.559,2.15,6.496,0.525c1.936-1.625,2.227-4.498,0.652-6.455
			c-1.717-2.137-4.543-2.086-5.996-1.063c0.082,0.115,0.16,0.23,0.24,0.346c0.689,0.969,1.383,1.938,2.07,2.91
			c0.223,0.314,0.189,0.637-0.064,0.814c-0.262,0.182-0.547,0.123-0.77-0.168c-0.156-0.207-0.303-0.422-0.453-0.633
			C75.77,114.063,75.15,113.191,74.516,112.301 M62.621,117.424c-1.6-1.375-4.215-1.291-5.889,0.17
			c-1.717,1.498-2.084,4.088-0.848,5.986c1.275,1.961,3.758,2.693,5.854,1.729c1.92-0.885,3.145-3.252,2.594-5.061
			c-0.936,0.285-1.869,0.574-2.809,0.852c-0.207,0.063-0.33,0.141-0.391,0.375c-0.141,0.537-0.518,0.873-1.059,0.979
			c-0.6,0.113-1.094-0.094-1.441-0.604c-0.316-0.463-0.32-1.074-0.004-1.533c0.348-0.506,0.834-0.703,1.443-0.613
			c0.115,0.016,0.283,0.029,0.35-0.033C61.162,118.93,61.891,118.174,62.621,117.424 M71.295,107.775
			c-0.375-0.525-0.756-1.02-1.086-1.545c-0.176-0.277-0.357-0.34-0.629-0.195c-0.102,0.053-0.186,0.135-0.281,0.193
			c-0.283,0.174-0.551,0.428-0.861,0.498c-1.158,0.275-2.332,0.486-3.498,0.729c-0.418,0.086-0.813,0.072-1.205-0.125
			c-0.449-0.225-0.912-0.414-1.396-0.635c-0.234,1.338-0.461,2.637-0.691,3.955c0.152,0.033,0.277,0.061,0.402,0.084
			c1.172,0.219,2.344,0.432,3.512,0.656c0.26,0.051,0.51,0.154,0.822,0.25C67.971,110.391,69.617,109.096,71.295,107.775
			 M71.904,108.682c-0.029,0.01-0.057,0.012-0.074,0.025c-1.666,1.307-3.334,2.613-4.992,3.93c-0.072,0.061-0.1,0.25-0.066,0.354
			c0.174,0.537,0.371,1.068,0.564,1.602c0.23,0.633,0.467,1.266,0.723,1.961c0.094-0.158,0.148-0.246,0.197-0.336
			c1.258-2.295,2.506-4.596,3.775-6.883C72.195,109.037,72.135,108.861,71.904,108.682 M63.418,118.123
			c-0.602,0.619-1.145,1.176-1.746,1.795c0.85-0.258,1.604-0.488,2.4-0.732C63.848,118.82,63.646,118.494,63.418,118.123
			 M64.764,116.775c-0.258,0.242-0.135,0.537,0.301,0.842C64.965,117.338,64.871,117.078,64.764,116.775"/>
		<path fill-rule="evenodd" clip-rule="evenodd" fill="#010101" d="M63.418,118.121c0.229,0.371,0.43,0.699,0.654,1.064
			c-0.797,0.244-1.551,0.473-2.4,0.732C62.273,119.301,62.816,118.742,63.418,118.121"/>
		<path fill-rule="evenodd" clip-rule="evenodd" fill="#010101" d="M64.764,116.775c0.107,0.303,0.201,0.563,0.301,0.842
			C64.629,117.313,64.506,117.018,64.764,116.775"/>
		<path fill-rule="evenodd" clip-rule="evenodd" fill="#010101" d="M108.682,90.941c0.16,0.096,0.326,0.184,0.48,0.285
			c1.043,0.686,1.424,1.988,0.922,3.146c-0.479,1.104-1.709,1.713-2.887,1.428c-1.193-0.287-2.025-1.381-1.951-2.564
			c0.082-1.275,0.986-2.254,2.227-2.406c0.125-0.016,0.25-0.037,0.375-0.061C108.127,90.83,108.404,90.885,108.682,90.941"/>
		<path fill-rule="evenodd" clip-rule="evenodd" fill="#010101" d="M112.633,101.404c0.043,0.021,0.053,0.029,0.064,0.031
			c0.303,0.084,0.709,0.08,0.877,0.277c0.174,0.201,0.117,0.604,0.156,0.92c0.225,1.848,0.449,3.695,0.676,5.543
			c0.012,0.104,0.029,0.209,0.049,0.338c2.027-0.049,3.75,0.627,5.09,2.164c1.035,1.186,1.541,2.586,1.527,4.158
			c-0.029,3.102-2.404,5.727-5.492,6.092c-3.146,0.373-6.035-1.643-6.797-4.73c-0.75-3.047,0.951-6.553,4.611-7.535
			c-0.045-0.375-0.09-0.758-0.141-1.168c-0.109,0.063-0.189,0.104-0.266,0.15c-2.352,1.518-4.703,3.035-7.047,4.559
			c-0.131,0.086-0.26,0.244-0.297,0.395c-0.186,0.719-0.695,1.217-1.375,1.295c-0.699,0.082-1.303-0.258-1.641-0.924
			c-0.031-0.063-0.064-0.123-0.092-0.178c-1.742,3.75-4.504,5.365-8.541,3.893c-2.525-0.918-4.002-3.645-3.725-6.348
			c0.277-2.686,2.314-4.904,4.98-5.443c2.613-0.529,5.646,0.684,7.006,3.748c0.215-0.068,0.439-0.125,0.654-0.211
			c0.072-0.029,0.121-0.123,0.176-0.188c0.012-0.016,0.002-0.047,0.01-0.068c0.309-0.854,0.064-1.439-0.711-1.963
			c-0.982-0.666-1.865-1.479-2.791-2.229c-1.061-0.861-1.215-2.141-0.369-3.221c1.133-1.447,2.311-2.863,3.412-4.334
			c0.938-1.252,2.615-1.324,3.676,0.016c0.586,0.74,1.156,1.494,1.705,2.262c0.229,0.316,0.502,0.494,0.871,0.6
			c0.875,0.248,1.732,0.549,2.609,0.787C112.191,100.277,112.582,100.682,112.633,101.404 M113.596,110.297
			c-2.322,0.557-3.822,3.072-3.295,5.441c0.553,2.48,2.982,4.064,5.461,3.559c2.475-0.508,4.1-2.893,3.65-5.363
			c-0.49-2.697-3-4.002-4.762-3.793c0.014,0.141,0.027,0.279,0.043,0.418c0.146,1.182,0.293,2.363,0.434,3.543
			c0.045,0.385-0.137,0.652-0.445,0.688c-0.316,0.035-0.539-0.152-0.596-0.516c-0.039-0.256-0.066-0.512-0.098-0.77
			C113.857,112.441,113.729,111.379,113.596,110.297 M100.699,109.127c-0.752-1.973-3.092-3.145-5.258-2.656
			c-2.225,0.498-3.781,2.598-3.602,4.855c0.188,2.33,2.021,4.158,4.322,4.311c2.109,0.137,4.314-1.359,4.693-3.211
			c-0.959-0.197-1.918-0.387-2.875-0.588c-0.211-0.047-0.357-0.035-0.523,0.141c-0.377,0.406-0.869,0.52-1.396,0.354
			c-0.582-0.188-0.918-0.602-0.98-1.217c-0.057-0.555,0.23-1.096,0.729-1.348c0.547-0.279,1.068-0.221,1.561,0.148
			c0.094,0.068,0.236,0.16,0.324,0.137C98.697,109.758,99.697,109.438,100.699,109.127 M112.922,104.779
			c-0.078-0.641-0.178-1.256-0.217-1.875c-0.023-0.33-0.154-0.471-0.461-0.473c-0.113,0-0.227,0.031-0.34,0.037
			c-0.332,0.018-0.688,0.113-0.994,0.027c-1.148-0.311-2.281-0.686-3.422-1.029c-0.41-0.121-0.748-0.322-1-0.684
			c-0.287-0.408-0.604-0.799-0.926-1.223c-0.844,1.064-1.66,2.096-2.492,3.148c0.117,0.1,0.215,0.184,0.314,0.266
			c0.924,0.75,1.854,1.494,2.773,2.25c0.203,0.168,0.375,0.377,0.604,0.611C108.754,105.494,110.818,105.141,112.922,104.779
			 M113.025,105.869c-0.031-0.006-0.055-0.02-0.076-0.016c-2.088,0.355-4.176,0.709-6.264,1.078
			c-0.092,0.016-0.207,0.17-0.227,0.277c-0.104,0.557-0.184,1.115-0.268,1.678c-0.098,0.666-0.191,1.334-0.299,2.066
			c0.158-0.094,0.248-0.145,0.334-0.201c2.199-1.418,4.393-2.846,6.6-4.25C113.113,106.318,113.143,106.137,113.025,105.869
			 M101.064,110.119c-0.824,0.26-1.568,0.49-2.391,0.748c0.869,0.178,1.643,0.336,2.459,0.5
			C101.109,110.939,101.088,110.557,101.064,110.119 M102.891,109.578c-0.344,0.092-0.377,0.408-0.139,0.885
			C102.799,110.17,102.842,109.896,102.891,109.578"/>
		<path fill-rule="evenodd" clip-rule="evenodd" fill="#010101" d="M101.064,110.119c0.023,0.438,0.045,0.82,0.068,1.248
			c-0.816-0.164-1.59-0.322-2.459-0.5C99.496,110.609,100.24,110.379,101.064,110.119"/>
		<path fill-rule="evenodd" clip-rule="evenodd" fill="#010101" d="M102.891,109.578c-0.049,0.318-0.092,0.592-0.139,0.885
			C102.514,109.986,102.547,109.67,102.891,109.578"/>
		<path fill-rule="evenodd" clip-rule="evenodd" fill="#010101" d="M9.957,151.035l-5.494,2.314h131.111v-25.459
			c0,0-1.797-0.707-4.578-0.172S23.965,144.139,9.957,151.035"/>
	</g>
</g>
</svg>
