<?xml version="1.0" encoding="utf-8"?>
<!-- Generator: Adobe Illustrator 16.0.0, SVG Export Plug-In . SVG Version: 6.00 Build 0)  -->
<!DOCTYPE svg PUBLIC "-//W3C//DTD SVG 1.1//EN" "http://www.w3.org/Graphics/SVG/1.1/DTD/svg11.dtd">
<svg version="1.1" id="Layer_1" xmlns="http://www.w3.org/2000/svg" xmlns:xlink="http://www.w3.org/1999/xlink" x="0px" y="0px"
	 width="16px" height="16px" viewBox="0 0 16 16" enable-background="new 0 0 16 16" xml:space="preserve">
<g>
	<path fill-rule="evenodd" clip-rule="evenodd" d="M3.186,6.45c0.418,0.413,0.816,0.813,1.222,1.206
		C5.011,8.24,4.802,8.261,5.539,7.773c0.558-0.369,1.126-0.724,1.666-1.118c0.292-0.212,0.508-0.187,0.789,0.013
		C8.62,7.112,9.263,7.533,9.911,7.945c0.156,0.1,0.358,0.127,0.552,0.155c0.447,0.346,0.313,0.888,0.412,1.365
		c0.192,0.93,0.375,1.863,0.577,2.871c0.707-0.354,1.361-0.68,2.039-1.018c-0.172-0.352-0.279-0.678-0.474-0.939
		c-0.416-0.563-0.229-1.033,0.167-1.543c0.061,0.08,0.126,0.145,0.166,0.223c0.403,0.795,0.793,1.598,1.205,2.389
		c0.108,0.209,0.067,0.305-0.131,0.402c-1.022,0.502-2.037,1.021-3.066,1.51c-0.136,0.064-0.365,0.037-0.51-0.033
		c-0.982-0.471-1.957-0.959-2.927-1.457c-0.234-0.119-0.426-0.119-0.659,0c-0.97,0.498-1.943,0.988-2.927,1.457
		c-0.153,0.072-0.396,0.088-0.543,0.02c-1.007-0.479-2-0.986-2.998-1.482c-0.161-0.08-0.312-0.135-0.187-0.381
		c0.825-1.623,1.638-3.251,2.457-4.878C3.086,6.563,3.122,6.53,3.186,6.45z M4.703,12.111c0.11-0.031,0.171-0.039,0.223-0.064
		c0.678-0.334,1.357-0.66,2.024-1.014c0.098-0.051,0.179-0.232,0.181-0.354c0.016-0.842,0.01-1.684,0.007-2.524
		c-0.001-0.093-0.026-0.185-0.05-0.348C6.487,8.21,5.932,8.574,5.391,8.957c-0.083,0.061-0.12,0.211-0.145,0.326
		c-0.147,0.703-0.287,1.406-0.424,2.109C4.778,11.619,4.746,11.846,4.703,12.111z M3.42,7.864c-0.581,1.158-1.111,2.205-1.623,3.257
		c-0.034,0.07,0.048,0.256,0.127,0.305c0.262,0.162,0.547,0.287,0.825,0.424c0.313,0.154,0.629,0.303,0.98,0.471
		c0.229-1.117,0.447-2.168,0.655-3.221C4.4,9.016,4.367,8.893,4.312,8.828C4.045,8.523,3.763,8.232,3.42,7.864z M10.509,12.17
		c-0.134-0.684-0.298-1.236-0.339-1.797C10.096,9.342,9.64,8.619,8.689,8.2C8.486,8.111,8.308,7.962,8.044,7.794
		c0,0.909,0.037,1.715-0.013,2.512c-0.031,0.5,0.134,0.758,0.589,0.945C9.233,11.504,9.815,11.828,10.509,12.17z"/>
	<path fill-rule="evenodd" clip-rule="evenodd" d="M12.004,9c-0.28-0.54-0.543-1.04-0.8-1.542c-0.378-0.737-0.752-1.476-1.13-2.213
		c-0.487-0.956-0.279-2.042,0.523-2.726c0.771-0.656,1.947-0.695,2.751-0.09c0.843,0.635,1.149,1.727,0.688,2.685
		c-0.591,1.224-1.23,2.424-1.852,3.634C12.148,8.822,12.088,8.883,12.004,9z M12.031,2.879c-0.73-0.001-1.323,0.582-1.331,1.308
		c-0.008,0.737,0.61,1.357,1.341,1.344c0.732-0.014,1.313-0.606,1.31-1.335C13.347,3.464,12.761,2.88,12.031,2.879z"/>
</g>
</svg>
