<?xml version="1.0" encoding="utf-8"?>
<!-- Generator: Adobe Illustrator 16.0.0, SVG Export Plug-In . SVG Version: 6.00 Build 0)  -->
<!DOCTYPE svg PUBLIC "-//W3C//DTD SVG 1.1//EN" "http://www.w3.org/Graphics/SVG/1.1/DTD/svg11.dtd">
<svg version="1.1" id="Layer_1" xmlns="http://www.w3.org/2000/svg" xmlns:xlink="http://www.w3.org/1999/xlink" x="0px" y="0px"
	 width="16px" height="16px" viewBox="0 0 16 16" enable-background="new 0 0 16 16" xml:space="preserve">
<g>
	<path fill="#0071BC" stroke="#0D71BA" stroke-width="0.5" stroke-miterlimit="10" d="M3.098,8.093
		C1.691,6.907,1.819,5.079,2.783,4.066c1.02-1.073,2.653-1.134,3.758-0.147c1,0.894,1.379,2.875-0.187,4.193
		c0.082,0.043,0.155,0.083,0.23,0.119c1.299,0.625,2.107,1.649,2.479,3.035c0.018,0.063,0.026,0.123,0.033,0.188
		c0.027,0.228-0.1,0.415-0.313,0.466c-0.193,0.05-0.4-0.063-0.471-0.271c-0.049-0.144-0.072-0.293-0.117-0.437
		C7.776,9.811,6.542,8.77,5.039,8.652C3.541,8.538,2.38,9.168,1.611,10.459c-0.2,0.334-0.305,0.729-0.433,1.102
		c-0.086,0.254-0.259,0.399-0.479,0.36c-0.237-0.042-0.374-0.25-0.314-0.524c0.304-1.407,1.102-2.44,2.375-3.109
		C2.863,8.23,2.972,8.183,3.079,8.13C3.084,8.128,3.086,8.117,3.098,8.093z M4.75,4.03C3.763,4.003,2.895,4.847,2.869,5.858
		c-0.027,1.062,0.784,1.935,1.82,1.96c1.016,0.025,1.883-0.806,1.906-1.826C6.618,4.917,5.812,4.058,4.75,4.03z"/>
	<path fill="#0071BC" stroke="#0D71BA" stroke-width="0.5" stroke-miterlimit="10" d="M8.865,7.284
		c0.389,0.319,0.837,0.625,1.209,1.006c0.666,0.683,0.992,1.54,1.127,2.476c0.035,0.256-0.105,0.461-0.33,0.498
		c-0.232,0.037-0.434-0.121-0.477-0.394C10.271,10.109,10,9.416,9.482,8.836C9.07,8.372,8.561,8.061,7.969,7.885
		c-0.21-0.063-0.36-0.17-0.389-0.396C7.552,7.28,7.679,7.159,7.837,7.043c1.089-0.798,1.326-2.787-0.276-3.519
		c-0.204-0.093-0.442-0.119-0.668-0.15C6.591,3.333,6.417,3.18,6.436,2.936c0.02-0.244,0.217-0.39,0.514-0.377
		C8.715,2.632,9.922,4.348,9.4,6.08C9.271,6.506,9.038,6.901,8.865,7.284z"/>
	<g>
		<path fill="#0071BC" stroke="#0D71BA" stroke-width="0.5" stroke-miterlimit="10" d="M13.367,9.451v2.352h2.263v0.603h-2.263
			v2.372h-0.641v-2.372h-2.266v-0.603h2.266V9.451H13.367z"/>
	</g>
</g>
</svg>
