<?xml version="1.0" encoding="utf-8"?>
<!-- Generator: Adobe Illustrator 16.0.0, SVG Export Plug-In . SVG Version: 6.00 Build 0)  -->
<!DOCTYPE svg PUBLIC "-//W3C//DTD SVG 1.1//EN" "http://www.w3.org/Graphics/SVG/1.1/DTD/svg11.dtd">
<svg version="1.1" id="Layer_1" xmlns="http://www.w3.org/2000/svg" xmlns:xlink="http://www.w3.org/1999/xlink" x="0px" y="0px"
	 width="18.813px" height="16px" viewBox="-2.813 0 18.813 16" enable-background="new -2.813 0 18.813 16" xml:space="preserve">
<g>
	<path fill="#0071BC" stroke="#0D71BA" stroke-width="0.5" stroke-miterlimit="10" d="M0.726,8.487
		C-0.596,7.372-0.476,5.658,0.43,4.706C1.388,3.7,2.92,3.642,3.957,4.568c0.939,0.84,1.294,2.701-0.176,3.938
		c0.078,0.037,0.146,0.076,0.217,0.109c1.219,0.588,1.979,1.549,2.325,2.849c0.016,0.057,0.025,0.118,0.032,0.178
		c0.026,0.21-0.094,0.39-0.294,0.438c-0.182,0.046-0.374-0.062-0.441-0.256c-0.046-0.134-0.069-0.273-0.11-0.409
		c-0.392-1.317-1.55-2.292-2.962-2.401c-1.405-0.108-2.496,0.484-3.217,1.694c-0.187,0.313-0.286,0.685-0.407,1.035
		c-0.081,0.234-0.244,0.374-0.451,0.337c-0.222-0.042-0.351-0.236-0.295-0.49c0.286-1.322,1.035-2.292,2.23-2.917
		c0.097-0.057,0.2-0.102,0.3-0.151C0.713,8.519,0.714,8.51,0.726,8.487z M2.275,4.672C1.349,4.647,0.535,5.439,0.51,6.389
		C0.484,7.385,1.246,8.204,2.218,8.229c0.954,0.021,1.768-0.756,1.789-1.717C4.029,5.504,3.273,4.699,2.275,4.672z"/>
	<path fill="#0071BC" stroke="#0D71BA" stroke-width="0.5" stroke-miterlimit="10" d="M9.392,8.487
		C8.072,7.372,8.19,5.658,9.096,4.706c0.957-1.006,2.491-1.063,3.528-0.138c0.938,0.84,1.293,2.701-0.175,3.938
		c0.076,0.037,0.144,0.076,0.214,0.109c1.222,0.588,1.98,1.549,2.326,2.849c0.016,0.057,0.024,0.118,0.031,0.178
		c0.023,0.21-0.095,0.39-0.295,0.438c-0.181,0.046-0.374-0.062-0.443-0.256c-0.046-0.134-0.068-0.273-0.109-0.409
		c-0.396-1.317-1.552-2.292-2.965-2.401c-1.405-0.108-2.496,0.484-3.217,1.694c-0.187,0.313-0.285,0.685-0.405,1.035
		c-0.08,0.234-0.245,0.374-0.451,0.337c-0.222-0.042-0.351-0.236-0.294-0.49c0.285-1.322,1.034-2.292,2.229-2.917
		c0.098-0.054,0.201-0.097,0.302-0.146C9.38,8.519,9.381,8.51,9.392,8.487z M10.941,4.672c-0.925-0.024-1.74,0.768-1.765,1.716
		c-0.023,0.996,0.735,1.815,1.71,1.841c0.952,0.022,1.765-0.756,1.787-1.716C12.698,5.504,11.938,4.699,10.941,4.672z"/>
</g>
</svg>
