<?xml version="1.0" encoding="utf-8"?>
<!-- Generator: Adobe Illustrator 16.0.0, SVG Export Plug-In . SVG Version: 6.00 Build 0)  -->
<!DOCTYPE svg PUBLIC "-//W3C//DTD SVG 1.1//EN" "http://www.w3.org/Graphics/SVG/1.1/DTD/svg11.dtd">
<svg version="1.1" id="Layer_1" xmlns="http://www.w3.org/2000/svg" xmlns:xlink="http://www.w3.org/1999/xlink" x="0px" y="0px"
	 width="16px" height="16px" viewBox="0 0 16 16" enable-background="new 0 0 16 16" xml:space="preserve">
<g>
	<path fill-rule="evenodd" clip-rule="evenodd" d="M9.089,7.185C8.948,6.928,8.864,6.754,8.765,6.591
		C8.143,5.573,8.082,4.519,8.713,3.509c0.656-1.047,1.661-1.511,2.893-1.317c1.23,0.193,2.026,0.94,2.353,2.138
		c0.203,0.752,0.053,1.482-0.338,2.155c-0.185,0.317-0.38,0.627-0.587,0.929c-0.174,0.254-0.179,0.493-0.057,0.773
		c0.677,1.547,1.344,3.098,2.008,4.651c0.252,0.586,0.188,0.678-0.457,0.678c-4.359,0.002-8.72,0.002-13.08,0
		c-0.622,0-0.678-0.094-0.434-0.656c0.739-1.705,1.485-3.406,2.201-5.122c0.163-0.39,0.38-0.524,0.796-0.518
		c1.493,0.023,2.985,0.01,4.478,0.008C8.654,7.225,8.819,7.205,9.089,7.185z M4.84,7.715L4.768,7.844
		C4.89,7.96,4.997,8.102,5.137,8.188c0.199,0.123,0.428,0.196,0.635,0.308c0.571,0.305,0.687,0.76,0.339,1.303
		c-0.09,0.143-0.188,0.281-0.272,0.43c-0.143,0.252-0.084,0.473,0.169,0.594c0.269,0.127,0.553,0.254,0.844,0.301
		c0.812,0.131,1.635,0.201,2.448,0.332c0.843,0.133,1.53,0.525,1.906,1.336c0.102,0.221,0.249,0.305,0.49,0.301
		c0.811-0.008,1.622,0,2.433-0.006c0.123,0,0.244-0.037,0.44-0.072c-0.683-1.582-1.341-3.105-2-4.628l-0.143-0.019l-0.116,0.2
		c-0.271,0.432-0.547,0.861-0.812,1.297c-0.287,0.477-0.482,0.484-0.773,0.004c-0.359-0.59-0.719-1.184-1.058-1.789
		C9.512,7.8,9.327,7.664,8.987,7.669c-1.23,0.019-2.46,0.007-3.69,0.009C5.145,7.678,4.993,7.703,4.84,7.715z M10.807,13.021
		c-0.226-0.48-0.529-0.809-0.967-0.936c-0.499-0.145-1.021-0.209-1.533-0.301c-0.707-0.129-1.43-0.199-2.12-0.389
		c-0.922-0.252-1.111-0.881-0.57-1.67C5.96,9.225,5.916,9.049,5.37,8.801C4.91,8.594,4.479,8.373,4.281,7.851
		C4.194,7.618,3.855,7.613,3.703,7.826c-0.09,0.126-0.149,0.276-0.211,0.419c-0.627,1.452-1.251,2.907-1.877,4.36
		c-0.186,0.432-0.155,0.484,0.335,0.484c2.788,0.002,5.575,0.002,8.362-0.002C10.459,13.088,10.606,13.049,10.807,13.021z
		 M13.665,5.06c-0.076-1.017-0.532-1.757-1.392-2.191c-0.901-0.453-1.813-0.37-2.625,0.255C8.704,3.852,8.449,5.073,9.047,6.155
		c0.568,1.03,1.198,2.027,1.808,3.036c0.218,0.361,0.303,0.359,0.535-0.008c0.623-0.983,1.26-1.961,1.848-2.967
		C13.441,5.867,13.526,5.447,13.665,5.06z"/>
	<path d="M9.089,7.185l0.22-0.12C9.17,6.813,9.087,6.639,8.978,6.461c-0.306-0.502-0.46-0.998-0.46-1.484
		c0.001-0.445,0.128-0.888,0.407-1.335c0.526-0.831,1.24-1.238,2.147-1.243c0.159,0,0.323,0.013,0.494,0.04
		c1.146,0.188,1.835,0.835,2.15,1.957c0.056,0.206,0.082,0.408,0.082,0.608c-0.001,0.462-0.14,0.916-0.395,1.355
		c-0.182,0.312-0.374,0.617-0.577,0.913c-0.119,0.171-0.186,0.364-0.185,0.558c0,0.157,0.04,0.309,0.104,0.457
		c0.677,1.547,1.344,3.097,2.008,4.649c0.086,0.193,0.12,0.328,0.116,0.351h0.02l-0.018-0.006l-0.002,0.006h0.02l-0.018-0.006
		l0.085,0.024l-0.055-0.069l-0.03,0.045l0.085,0.024l-0.055-0.069l0.019,0.023l-0.014-0.027l-0.005,0.004l0.019,0.023l-0.014-0.027
		c-0.005,0.01-0.15,0.037-0.381,0.033c-2.18,0.001-4.359,0.001-6.54,0.001s-4.36,0-6.54-0.001c-0.192,0.002-0.321-0.015-0.352-0.028
		l-0.006-0.002l-0.032,0.065l0.06-0.036l-0.028-0.029l-0.032,0.065l0.06-0.036l-0.078,0.048l0.089-0.022l-0.011-0.025l-0.078,0.048
		l0.089-0.022l-0.021,0.005h0.022L1.128,13.29l-0.021,0.005h0.022c-0.004-0.018,0.029-0.148,0.114-0.336
		c0.738-1.705,1.485-3.407,2.202-5.125c0.07-0.166,0.136-0.246,0.203-0.291c0.067-0.045,0.162-0.074,0.335-0.074l0.021,0h0.002l0,0
		c0.675,0.01,1.349,0.013,2.022,0.013c0.821,0,1.641-0.004,2.46-0.005h0.002l0,0c0.185-0.002,0.351-0.023,0.615-0.042l0.388-0.029
		L9.309,7.065L9.089,7.185L9.07,6.936c-0.274,0.021-0.438,0.04-0.584,0.042l0.003,0.25l0-0.25C7.668,6.978,6.848,6.982,6.029,6.982
		c-0.672,0-1.343-0.003-2.014-0.013l-0.004,0.25l0.006-0.25l-0.034,0c-0.226,0-0.436,0.04-0.613,0.159
		C3.193,7.247,3.074,7.426,2.985,7.641c-0.715,1.714-1.461,3.414-2.2,5.119c-0.087,0.208-0.151,0.356-0.155,0.535l0.082,0.261
		c0.094,0.122,0.22,0.162,0.333,0.184c0.117,0.021,0.245,0.026,0.403,0.026c2.18,0.001,4.36,0.001,6.54,0.001s4.36,0,6.54-0.001
		c0.219-0.002,0.38-0.005,0.537-0.058l0.223-0.155l0.084-0.266c-0.004-0.181-0.068-0.334-0.157-0.548
		c-0.664-1.553-1.331-3.104-2.008-4.652c-0.046-0.104-0.063-0.186-0.063-0.256c0.001-0.087,0.023-0.166,0.097-0.275
		c0.211-0.307,0.409-0.623,0.597-0.944c0.291-0.5,0.463-1.042,0.463-1.607c0-0.244-0.032-0.491-0.1-0.739
		c-0.337-1.275-1.239-2.123-2.555-2.32c-0.195-0.031-0.386-0.046-0.572-0.046c-1.07-0.005-1.98,0.524-2.571,1.478
		C8.177,3.893,8.018,4.435,8.018,4.977c0,0.594,0.189,1.182,0.533,1.745C8.642,6.87,8.727,7.043,8.869,7.305L9.089,7.185L9.07,6.936
		L9.089,7.185z M4.84,7.715L4.622,7.593L4.55,7.722L4.455,7.891l0.14,0.134C4.699,8.12,4.812,8.278,5.006,8.401
		c0.234,0.142,0.468,0.216,0.648,0.315c0.311,0.173,0.4,0.331,0.403,0.511c0,0.112-0.043,0.26-0.157,0.438
		c-0.086,0.137-0.188,0.278-0.279,0.441c-0.066,0.117-0.108,0.244-0.108,0.377c-0.005,0.247,0.166,0.467,0.388,0.565l0.001,0.001
		c0.272,0.128,0.575,0.267,0.911,0.321c0.824,0.133,1.647,0.203,2.447,0.332c0.793,0.13,1.378,0.469,1.72,1.194
		c0.062,0.136,0.153,0.259,0.281,0.338c0.128,0.08,0.274,0.107,0.42,0.107h0.016H11.7h-0.001c0.323-0.003,0.646-0.004,0.971-0.004
		c0.217,0,0.433,0,0.649,0c0.271,0,0.541,0,0.813-0.002H14.13c0.177-0.002,0.302-0.045,0.484-0.076l0.311-0.056L14.8,12.915
		c-0.683-1.583-1.341-3.106-2-4.629l-0.057-0.13l-0.282-0.038l-0.166-0.022l-0.199,0.345l0.216,0.125L12.1,8.434
		c-0.27,0.43-0.547,0.86-0.813,1.3c-0.065,0.11-0.123,0.185-0.16,0.219l-0.032,0.024l0.019,0.038V9.974l-0.019,0.003l0.019,0.038
		V9.974v0.041l0.019-0.038l-0.019-0.003v0.041l0.019-0.038c-0.007,0.003-0.095-0.074-0.19-0.239
		c-0.359-0.59-0.717-1.181-1.054-1.781C9.799,7.799,9.69,7.66,9.538,7.561C9.387,7.462,9.203,7.418,9.007,7.419H8.98l0.007,0.25
		l-0.004-0.25C8.425,7.428,7.866,7.43,7.307,7.43c-0.572,0-1.146-0.002-1.719-0.002c-0.097,0-0.195,0-0.292,0
		c-0.18,0-0.338,0.028-0.475,0.038l-0.134,0.01L4.622,7.593L4.84,7.715l0.019,0.249c0.167-0.013,0.313-0.037,0.438-0.036
		c0.097,0,0.194,0,0.292,0c0.572,0,1.145,0.002,1.719,0.002c0.561,0,1.122-0.002,1.684-0.011h0.003h0.013
		c0.13,0,0.2,0.024,0.26,0.062c0.06,0.038,0.118,0.104,0.185,0.22c0.341,0.609,0.702,1.206,1.062,1.796
		c0.079,0.13,0.154,0.235,0.245,0.32c0.088,0.084,0.208,0.156,0.354,0.156c0.148,0,0.27-0.074,0.357-0.158
		c0.091-0.087,0.165-0.192,0.244-0.323c0.262-0.431,0.538-0.859,0.81-1.293l0.002-0.004l0.118-0.204l-0.216-0.125l-0.033,0.248
		l0.143,0.019l0.033-0.248l-0.229,0.099c0.659,1.523,1.317,3.046,2,4.628l0.229-0.099l-0.044-0.246
		c-0.21,0.039-0.327,0.07-0.396,0.068h-0.004h0.002c-0.27,0.002-0.539,0.002-0.809,0.002c-0.217,0-0.433,0-0.649,0
		c-0.324,0-0.649,0.001-0.975,0.004h0.002h-0.016l-0.154-0.031l-0.093-0.124c-0.411-0.896-1.201-1.343-2.095-1.479
		c-0.824-0.133-1.647-0.203-2.447-0.332c-0.246-0.039-0.512-0.154-0.777-0.28l0.001,0.001c-0.104-0.058-0.099-0.076-0.104-0.114
		l0.043-0.131c0.076-0.134,0.171-0.27,0.266-0.419c0.148-0.23,0.235-0.468,0.235-0.706C6.561,8.821,6.292,8.483,5.89,8.275
		c-0.234-0.124-0.458-0.197-0.622-0.3c-0.086-0.05-0.187-0.174-0.327-0.312L4.768,7.844l0.218,0.122l0.072-0.129L4.84,7.715
		l0.019,0.249L4.84,7.715z M10.807,13.021l0.227-0.106c-0.239-0.516-0.599-0.919-1.124-1.069c-0.524-0.151-1.055-0.216-1.559-0.307
		c-0.72-0.131-1.436-0.201-2.097-0.384c-0.262-0.071-0.439-0.173-0.542-0.277c-0.102-0.106-0.144-0.21-0.146-0.352
		C5.565,10.36,5.64,10.133,5.823,9.868C5.971,9.645,6.08,9.469,6.086,9.239C6.089,9.078,6.002,8.921,5.89,8.824
		C5.778,8.723,5.643,8.65,5.473,8.573C5.012,8.365,4.674,8.182,4.515,7.763c-0.084-0.23-0.313-0.346-0.51-0.342
		c-0.188,0-0.38,0.086-0.505,0.259C3.385,7.841,3.322,8.008,3.262,8.146c-0.627,1.453-1.251,2.908-1.877,4.361
		c-0.067,0.163-0.12,0.272-0.125,0.431l0.081,0.237c0.094,0.108,0.202,0.133,0.292,0.148c0.094,0.015,0.194,0.017,0.317,0.017
		c1.155,0.001,2.31,0.001,3.464,0.001c1.633,0,3.266-0.001,4.898-0.003c0.193-0.002,0.345-0.045,0.529-0.068l0.337-0.047
		l-0.145-0.308L10.807,13.021l-0.034-0.248c-0.216,0.031-0.359,0.066-0.461,0.064c-1.633,0.002-3.266,0.003-4.898,0.003
		c-1.154,0-2.309,0-3.464-0.001c-0.15,0.002-0.251-0.01-0.265-0.017l-0.012,0.038l0.02-0.033l-0.008-0.005l-0.012,0.038l0.02-0.033
		l-0.071,0.119l0.122-0.064l-0.051-0.055l-0.071,0.119l0.122-0.064l-0.104,0.055h0.12l-0.016-0.055l-0.104,0.055h0.12l0.002-0.01
		c0.005-0.031,0.035-0.113,0.083-0.224c0.626-1.453,1.25-2.908,1.877-4.36c0.063-0.149,0.119-0.282,0.185-0.373l0.099-0.05
		l0.042,0.018c0.237,0.625,0.761,0.885,1.22,1.09c0.148,0.066,0.246,0.127,0.287,0.165l0.032,0.046
		C5.592,9.26,5.549,9.39,5.41,9.586c-0.217,0.318-0.343,0.631-0.344,0.94c-0.002,0.262,0.101,0.514,0.289,0.702
		c0.188,0.189,0.446,0.321,0.766,0.409c0.718,0.196,1.447,0.267,2.141,0.394c0.522,0.093,1.035,0.157,1.509,0.295
		c0.35,0.104,0.598,0.356,0.81,0.802L10.807,13.021l-0.034-0.248L10.807,13.021z M13.665,5.06l0.249-0.019
		c-0.073-1.081-0.592-1.931-1.528-2.396c-0.409-0.207-0.831-0.313-1.249-0.313c-0.574,0-1.135,0.204-1.641,0.594
		c-0.66,0.506-1.022,1.248-1.021,2.025c0,0.443,0.117,0.897,0.353,1.325c0.573,1.038,1.205,2.038,1.813,3.044
		c0.059,0.096,0.109,0.174,0.173,0.244c0.062,0.065,0.157,0.145,0.302,0.146c0.146-0.003,0.239-0.081,0.303-0.146
		c0.066-0.069,0.12-0.148,0.183-0.247c0.622-0.981,1.261-1.962,1.853-2.975c0.23-0.4,0.314-0.835,0.447-1.198l0.018-0.05
		l-0.004-0.053L13.665,5.06L13.43,4.976c-0.145,0.411-0.23,0.816-0.408,1.115c-0.584,0.998-1.219,1.974-1.843,2.959l-0.121,0.169
		l-0.011,0.01l0.034,0.042L11.06,9.222l-0.013,0.007l0.034,0.042L11.06,9.222l0.056,0.127V9.211L11.06,9.222l0.056,0.127V9.211
		v0.132l0.066-0.116l-0.066-0.016v0.132l0.066-0.116l-0.027,0.047l0.033-0.043l-0.006-0.004l-0.027,0.047l0.033-0.043
		c-0.002,0.002-0.055-0.059-0.119-0.168C10.457,8.05,9.829,7.056,9.266,6.035c-0.197-0.358-0.29-0.728-0.29-1.083
		c0.001-0.624,0.282-1.209,0.825-1.629c0.435-0.333,0.88-0.49,1.336-0.49c0.332,0,0.675,0.084,1.024,0.26
		c0.782,0.402,1.176,1.033,1.255,1.986L13.665,5.06L13.43,4.976L13.665,5.06z"/>
	<path fill-rule="evenodd" clip-rule="evenodd" d="M11.167,6.04c-0.671,0.005-1.228-0.517-1.24-1.165
		c-0.014-0.62,0.605-1.232,1.24-1.23c0.657,0.003,1.191,0.545,1.193,1.209C12.362,5.538,11.862,6.035,11.167,6.04z M11.173,4.108
		c-0.411-0.009-0.753,0.314-0.767,0.724c-0.014,0.412,0.345,0.783,0.758,0.786c0.382,0.002,0.755-0.368,0.757-0.753
		C11.924,4.474,11.571,4.117,11.173,4.108z"/>
	<path d="M11.167,6.04V5.79h-0.01c-0.536,0-0.973-0.419-0.98-0.919V4.855c-0.002-0.222,0.116-0.469,0.308-0.656
		c0.191-0.188,0.446-0.306,0.679-0.304V3.702L11.15,3.895l0.013,0V3.702L11.15,3.895l0.007,0h0.009
		c0.517,0.001,0.943,0.431,0.944,0.96v0.003c-0.009,0.552-0.373,0.917-0.945,0.931h0.002V6.04l0.002,0.25
		c0.405-0.002,0.771-0.152,1.031-0.41c0.26-0.257,0.411-0.62,0.41-1.021V4.855c-0.003-0.801-0.645-1.455-1.442-1.459l-0.001,0.25
		l0.017-0.25l-0.021,0c-0.395,0.001-0.758,0.183-1.028,0.447c-0.27,0.265-0.457,0.622-0.458,1.013v0.026
		C9.694,5.67,10.36,6.29,11.157,6.29h0.01h0.004h-0.002L11.167,6.04z M11.173,4.108l0.007-0.25h-0.024
		c-0.538,0-0.98,0.426-0.999,0.966v0.031c0.007,0.549,0.454,1.002,1.006,1.013h0.002h0.004c0.272-0.001,0.515-0.127,0.695-0.306
		c0.179-0.18,0.305-0.422,0.308-0.696V4.86c-0.01-0.54-0.452-0.981-0.992-1.002L11.173,4.108l-0.006,0.25
		c0.125,0.002,0.255,0.062,0.352,0.16c0.097,0.097,0.153,0.224,0.152,0.342v0.005c0.001,0.109-0.06,0.243-0.161,0.344
		c-0.102,0.102-0.234,0.161-0.342,0.16h-0.004h0.002c-0.129,0-0.259-0.06-0.355-0.158c-0.098-0.098-0.155-0.229-0.154-0.355V4.841
		c0.009-0.27,0.23-0.483,0.499-0.483h0.011L11.173,4.108z"/>
</g>
</svg>
