<?xml version="1.0" encoding="utf-8"?>
<!-- Generator: Adobe Illustrator 16.0.0, SVG Export Plug-In . SVG Version: 6.00 Build 0)  -->
<!DOCTYPE svg PUBLIC "-//W3C//DTD SVG 1.1//EN" "http://www.w3.org/Graphics/SVG/1.1/DTD/svg11.dtd">
<svg version="1.1" id="Layer_1" xmlns="http://www.w3.org/2000/svg" xmlns:xlink="http://www.w3.org/1999/xlink" x="0px" y="0px"
	 width="16px" height="16px" viewBox="0 0 16 16" enable-background="new 0 0 16 16" xml:space="preserve">
<g>
	<path fill-rule="evenodd" clip-rule="evenodd" fill="#49B6C7" d="M7.981,15.267c-1.91,0-3.82,0-5.729,0
		c-0.708-0.002-1.176-0.46-1.178-1.166c-0.003-2.522,0-5.043-0.003-7.565c0-0.097,0.033-0.159,0.103-0.22
		c0.487-0.425,0.97-0.854,1.458-1.278c0.077-0.066,0.107-0.135,0.106-0.236C2.733,4.258,2.734,3.715,2.735,3.173
		C2.738,2.436,3.197,1.97,3.934,1.967c0.681-0.004,1.362-0.003,2.043,0.001c0.099,0,0.173-0.027,0.247-0.093
		c0.543-0.482,1.093-0.958,1.632-1.446c0.116-0.105,0.182-0.098,0.296,0.004c0.54,0.486,1.09,0.961,1.633,1.444
		c0.075,0.066,0.15,0.09,0.249,0.089c0.663-0.003,1.326,0.011,1.99-0.005c0.764-0.019,1.279,0.529,1.245,1.25
		c-0.025,0.524-0.002,1.05-0.007,1.575c-0.001,0.108,0.03,0.181,0.111,0.251c0.48,0.415,0.954,0.837,1.434,1.254
		c0.084,0.073,0.122,0.148,0.122,0.265c-0.003,2.51-0.002,5.02-0.002,7.529c-0.001,0.72-0.462,1.178-1.182,1.18
		C11.825,15.267,9.903,15.267,7.981,15.267z M8.018,2.52c-1.362,0-2.724-0.001-4.085,0c-0.405,0-0.641,0.222-0.641,0.607
		c-0.002,1.459,0,2.919-0.002,4.378c0,0.083,0.022,0.138,0.086,0.192c0.53,0.462,1.058,0.928,1.584,1.397
		c0.06,0.052,0.119,0.076,0.2,0.076c1.881-0.003,3.762-0.003,5.643,0c0.079,0,0.141-0.018,0.201-0.072
		c0.527-0.475,1.055-0.949,1.587-1.418c0.092-0.081,0.124-0.163,0.123-0.282c-0.005-1.396-0.002-2.792-0.002-4.188
		c0-0.487-0.204-0.69-0.696-0.69C10.682,2.52,9.35,2.52,8.018,2.52z M2.482,14.698c3.694,0,7.351,0,11.053,0
		c-0.056-0.043-0.08-0.059-0.102-0.078c-1.23-1.054-2.461-2.107-3.689-3.165c-0.073-0.063-0.151-0.069-0.239-0.069
		c-0.997,0.002-1.996,0.002-2.993-0.002c-0.126,0-0.216,0.041-0.308,0.119c-0.782,0.674-1.566,1.346-2.351,2.017
		C3.403,13.905,2.955,14.291,2.482,14.698z M1.66,6.987c-0.046,0.04-0.032,0.077-0.032,0.108c-0.001,2.337,0,4.674-0.001,7.011
		c0,0.1,0.016,0.197,0.057,0.286c0.078,0.174,0.113,0.178,0.255,0.055c1.334-1.164,2.668-2.331,4.005-3.491
		c0.097-0.084,0.109-0.123,0.004-0.215c-1.235-1.076-2.465-2.158-3.697-3.24C2.055,7.329,1.856,7.158,1.66,6.987z M14.372,6.973
		c-0.063,0.05-0.101,0.075-0.134,0.104c-1.396,1.225-2.792,2.452-4.191,3.673c-0.089,0.078-0.087,0.117,0.002,0.193
		c0.786,0.679,1.566,1.363,2.35,2.047c0.563,0.494,1.132,0.984,1.693,1.48c0.097,0.085,0.149,0.074,0.208-0.032
		c0.062-0.117,0.073-0.241,0.073-0.369c-0.001-2.302-0.001-4.604-0.001-6.907C14.372,7.111,14.372,7.061,14.372,6.973z
		 M10.284,9.736c-1.546,0-3.058,0-4.594,0c0.404,0.356,0.788,0.695,1.17,1.035c0.052,0.046,0.11,0.057,0.176,0.057
		c0.64,0,1.279,0.002,1.92,0.005c0.051,0,0.102,0.011,0.147-0.03C9.49,10.451,9.879,10.102,10.284,9.736z M9.06,1.961
		C8.703,1.645,8.376,1.357,8.05,1.068c-0.061-0.054-0.093,0-0.13,0.031c-0.207,0.183-0.415,0.366-0.622,0.55
		C7.189,1.746,7.082,1.844,6.951,1.961C7.664,1.961,8.337,1.961,9.06,1.961z M13.269,7.141c0.271-0.24,0.514-0.457,0.757-0.673
		c0.039-0.034,0.068-0.066,0.017-0.111c-0.251-0.223-0.502-0.445-0.773-0.684C13.269,6.172,13.269,6.636,13.269,7.141z M2.73,5.678
		c-0.272,0.24-0.517,0.455-0.76,0.67C1.937,6.377,1.916,6.409,1.959,6.447c0.25,0.224,0.5,0.447,0.771,0.69
		C2.73,6.641,2.73,6.182,2.73,5.678z"/>
	<g>
		<path fill="#E61E25" d="M12.489,6.585V6.24h-1.145V5.683h1.029V5.337h-1.029V4.882h1.105V4.536h-1.519v2.049H12.489z
			 M10.058,6.585V4.882h0.607V4.536H9.036v0.346h0.608v1.703H10.058z M8.788,6.585V4.536H8.375v2.049H8.788z M7.442,6.585
			l0.733-2.049H7.738L7.235,6.053L6.717,4.536H6.268L7,6.585H7.442z M4.799,6.585V5.249l0.826,1.336h0.416V4.536H5.656v1.369
			L4.817,4.536H4.415v2.049H4.799z M4.017,6.585V4.536H3.602v2.049H4.017z"/>
	</g>
</g>
</svg>
