<?xml version="1.0" encoding="utf-8"?>
<!-- Generator: Adobe Illustrator 16.0.0, SVG Export Plug-In . SVG Version: 6.00 Build 0)  -->
<!DOCTYPE svg PUBLIC "-//W3C//DTD SVG 1.1//EN" "http://www.w3.org/Graphics/SVG/1.1/DTD/svg11.dtd">
<svg version="1.1" id="Layer_1" xmlns="http://www.w3.org/2000/svg" xmlns:xlink="http://www.w3.org/1999/xlink" x="0px" y="0px"
	 width="16px" height="16px" viewBox="0 0 16 16" enable-background="new 0 0 16 16" xml:space="preserve">
<path fill-rule="evenodd" clip-rule="evenodd" d="M0.654,2.932c0.355,0,0.678,0,1.026,0c0-0.302,0-0.586,0-0.911
	C4.167,1.973,6.262,2.807,8,4.565c1.732-1.755,3.828-2.59,6.314-2.546c0,0.322,0,0.606,0,0.912c0.352,0,0.682,0,1.031,0
	c0,0.397,0,0.771,0,1.145c0,3.058-0.002,6.115,0.002,9.172c0,0.188-0.043,0.242-0.236,0.242c-2.051-0.008-4.102-0.004-6.152-0.008
	c-0.143,0-0.217,0.031-0.264,0.18c-0.064,0.205-0.236,0.303-0.447,0.314c-0.168,0.008-0.338,0.008-0.507-0.002
	c-0.227-0.016-0.396-0.131-0.454-0.355c-0.033-0.125-0.098-0.135-0.201-0.133c-2.07,0-4.139-0.002-6.209,0.004
	c-0.163,0-0.226-0.027-0.226-0.213C0.658,9.939,0.655,6.6,0.654,3.261C0.654,3.162,0.654,3.063,0.654,2.932z M7.73,12.607
	c0.005-0.092,0.01-0.146,0.01-0.201c0-2.389,0.001-4.776-0.004-7.165c0-0.094-0.046-0.209-0.11-0.278
	C6.241,3.483,4.517,2.719,2.51,2.558C2.214,2.534,2.212,2.537,2.212,2.833c0,2.594,0,5.188,0.001,7.783
	c0,0.055,0.007,0.109,0.011,0.174C4.222,10.895,6.088,11.363,7.73,12.607z M8.26,12.619c0.094-0.068,0.154-0.111,0.211-0.154
	c0.631-0.473,1.33-0.814,2.07-1.076c0.992-0.352,2.018-0.531,3.064-0.584c0.129-0.008,0.186-0.035,0.186-0.182
	c-0.006-2.607-0.004-5.214-0.002-7.82c0-0.079,0-0.158,0-0.277c-0.379,0.044-0.729,0.069-1.07,0.127
	C11.02,2.94,9.561,3.689,8.381,4.957C8.314,5.029,8.266,5.151,8.264,5.251C8.258,7.408,8.26,9.564,8.26,11.721
	C8.26,12.006,8.26,12.291,8.26,12.619z M1.683,11.309c0-2.629,0-5.229,0-7.847c-0.081,0-0.142,0-0.203,0
	C1.136,3.466,1.184,3.428,1.184,3.765c-0.001,2.889,0,5.778,0,8.668c0,0.166,0,0.334,0,0.506c1.397,0,2.769,0,4.14,0
	c-1.115-0.207-2.231-0.387-3.348-0.566c-0.2-0.031-0.31-0.141-0.289-0.295c0.022-0.166,0.169-0.256,0.368-0.225
	c1.129,0.18,2.259,0.361,3.388,0.541c0.416,0.066,0.833,0.131,1.249,0.197C5.163,11.648,3.476,11.33,1.683,11.309z M14.311,11.313
	c-0.904,0.002-1.766,0.088-2.615,0.291c-0.846,0.203-1.654,0.5-2.43,0.977c0.059,0.002,0.078,0.008,0.096,0.004
	c1.518-0.24,3.035-0.482,4.555-0.725c0.221-0.035,0.363,0.033,0.396,0.203c0.031,0.164-0.082,0.277-0.313,0.314
	c-0.797,0.127-1.592,0.256-2.387,0.383c-0.322,0.053-0.645,0.107-0.967,0.16c0.002,0.008,0.004,0.014,0.004,0.02
	c1.385,0,2.768,0,4.152,0c0-3.164,0-6.312,0-9.465c-0.168,0-0.32,0-0.492,0C14.311,6.088,14.311,8.687,14.311,11.313z"/>
</svg>
