<?xml version="1.0" encoding="utf-8"?>
<!-- Generator: Adobe Illustrator 16.0.0, SVG Export Plug-In . SVG Version: 6.00 Build 0)  -->
<!DOCTYPE svg PUBLIC "-//W3C//DTD SVG 1.1//EN" "http://www.w3.org/Graphics/SVG/1.1/DTD/svg11.dtd">
<svg version="1.1" id="Layer_1" xmlns="http://www.w3.org/2000/svg" xmlns:xlink="http://www.w3.org/1999/xlink" x="0px" y="0px"
	 width="16px" height="16px" viewBox="0 0 16 16" enable-background="new 0 0 16 16" xml:space="preserve">
<g>
	<path fill-rule="evenodd" clip-rule="evenodd" fill="#0071BC" d="M12.521,2.112c-0.08,0.538-0.146,0.953-0.206,1.369
		c-0.063,0.451,0.372,0.879,0.817,0.803c0.389-0.065,0.778-0.123,1.168-0.193c0.233-0.044,0.41,0.002,0.506,0.238
		c0.317,0.775,0.633,1.55,0.955,2.322c0.088,0.211,0.005,0.337-0.17,0.456c-0.357,0.245-0.705,0.508-1.053,0.766
		c-0.286,0.213-0.293,0.836-0.008,1.05c0.357,0.27,0.73,0.518,1.075,0.8c0.097,0.081,0.192,0.284,0.155,0.381
		c-0.313,0.816-0.656,1.622-0.992,2.431c-0.076,0.188-0.205,0.227-0.408,0.181c-0.331-0.077-0.677-0.089-1.01-0.167
		c-0.381-0.093-0.694-0.036-0.905,0.313c-0.073,0.118-0.144,0.271-0.131,0.401c0.041,0.442,0.136,0.883,0.173,1.327
		c0.013,0.12-0.057,0.328-0.146,0.367c-0.813,0.36-1.633,0.701-2.463,1.02c-0.093,0.034-0.293-0.07-0.373-0.169
		C9.23,15.474,8.99,15.109,8.73,14.762c-0.234-0.313-0.844-0.313-1.078-0.001c-0.233,0.315-0.485,0.623-0.69,0.96
		c-0.17,0.276-0.363,0.343-0.649,0.221c-0.724-0.306-1.448-0.608-2.171-0.908c-0.278-0.111-0.305-0.314-0.257-0.573
		c0.073-0.388,0.135-0.777,0.197-1.165c0.06-0.369-0.382-0.827-0.745-0.778c-0.442,0.065-0.882,0.146-1.325,0.187
		c-0.122,0.013-0.313-0.054-0.373-0.148c-0.494-0.752-0.847-1.57-1.01-2.458C0.607,9.982,0.687,9.804,0.778,9.726
		c0.337-0.274,0.697-0.518,1.046-0.774c0.333-0.248,0.333-0.846-0.006-1.096c-0.346-0.26-0.71-0.502-1.043-0.778
		C0.682,7,0.593,6.8,0.631,6.705c0.309-0.819,0.638-1.63,0.997-2.43c0.048-0.109,0.3-0.188,0.448-0.176
		C2.48,4.132,2.879,4.221,3.282,4.288c0.424,0.07,0.866-0.376,0.792-0.803c-0.066-0.39-0.123-0.781-0.197-1.167
		C3.831,2.068,3.88,1.881,4.136,1.778c0.76-0.309,1.522-0.623,2.287-0.935c0.213-0.089,0.355-0.026,0.485,0.175
		c0.206,0.319,0.444,0.619,0.671,0.926C7.91,2.399,8.462,2.409,8.791,1.963C9.032,1.635,9.26,1.295,9.522,0.985
		C9.6,0.891,9.781,0.819,9.896,0.839c0.873,0.165,1.681,0.512,2.427,0.993C12.435,1.902,12.488,2.064,12.521,2.112z M8.174,5.044
		c-1.82,0.002-3.343,1.529-3.343,3.349c0.003,1.822,1.531,3.345,3.35,3.344c1.821-0.001,3.346-1.531,3.342-3.351
		C11.522,6.565,9.997,5.041,8.174,5.044z"/>
</g>
</svg>
