<?xml version="1.0" encoding="utf-8"?>
<!-- Generator: Adobe Illustrator 16.0.0, SVG Export Plug-In . SVG Version: 6.00 Build 0)  -->
<!DOCTYPE svg PUBLIC "-//W3C//DTD SVG 1.1//EN" "http://www.w3.org/Graphics/SVG/1.1/DTD/svg11.dtd">
<svg version="1.1" id="Layer_1" xmlns="http://www.w3.org/2000/svg" xmlns:xlink="http://www.w3.org/1999/xlink" x="0px" y="0px"
	 width="16px" height="16px" viewBox="0 0 16 16" enable-background="new 0 0 16 16" xml:space="preserve">
<g>
	<path fill="#0071BC" d="M15.541,7.43c0,0.38,0,0.76,0,1.14c-0.02,0.074-0.047,0.148-0.055,0.224
		c-0.297,2.99-2.397,5.547-5.293,6.41c-0.527,0.157-1.082,0.229-1.625,0.338c-0.378,0-0.758,0-1.138,0
		c-0.063-0.017-0.125-0.043-0.189-0.052c-3.032-0.385-5.132-2.006-6.274-4.823c-0.268-0.66-0.344-1.396-0.508-2.097
		c0-0.379,0-0.759,0-1.14c0.018-0.074,0.043-0.149,0.054-0.224c0.387-2.959,1.961-5.037,4.7-6.19
		C5.907,0.723,6.688,0.638,7.43,0.458c0.38,0,0.76,0,1.138,0c0.063,0.017,0.125,0.043,0.188,0.05
		c3.056,0.313,5.578,2.386,6.452,5.328C15.363,6.354,15.434,6.897,15.541,7.43z M11.332,7.542c-0.131-0.828-0.256-1.606-0.377-2.367
		c-0.881,0-1.668,0-2.497,0c0,0.75-0.004,1.482,0.007,2.215c0.002,0.051,0.11,0.144,0.168,0.145
		C9.502,7.545,10.369,7.542,11.332,7.542z M7.543,10.82c0-0.615,0.004-1.215-0.001-1.813C7.538,8.373,7.626,8.46,6.995,8.457
		c-0.745-0.004-1.489,0-2.329,0c0.133,0.829,0.258,1.607,0.378,2.363C5.926,10.82,6.714,10.82,7.543,10.82z M7.542,5.17
		c-0.841,0-1.63,0-2.438,0C4.873,5.939,4.73,6.713,4.741,7.543c0.896,0,1.753,0.002,2.609-0.008C7.414,7.534,7.533,7.43,7.534,7.372
		C7.546,6.651,7.542,5.929,7.542,5.17z M11.327,8.457c-0.958,0-1.825-0.004-2.69,0.011C8.575,8.47,8.467,8.622,8.463,8.706
		c-0.016,0.479-0.007,0.959-0.007,1.438c0,0.228,0,0.453,0,0.683c0.854,0,1.644,0,2.499,0C11.076,10.051,11.197,9.279,11.327,8.457z
		 M11.909,5.158c0.093,0.578,0.183,1.126,0.267,1.675c0.035,0.226-0.021,0.561,0.107,0.655c0.162,0.12,0.467,0.052,0.711,0.055
		c0.52,0.003,1.038,0.001,1.578,0.001c-0.057-0.803-0.236-1.521-0.555-2.201c-0.039-0.085-0.172-0.174-0.265-0.176
		C13.152,5.151,12.549,5.158,11.909,5.158z M4.086,5.159c-0.641,0-1.263-0.005-1.885,0.007c-0.074,0.002-0.18,0.083-0.213,0.155
		c-0.318,0.69-0.51,1.414-0.556,2.222c0.606,0,1.193,0,1.779,0c0.569,0,0.568,0,0.601-0.548c0.005-0.088,0.016-0.177,0.03-0.264
		C3.921,6.216,4.002,5.703,4.086,5.159z M1.426,8.458c0.059,0.804,0.24,1.521,0.553,2.202c0.035,0.076,0.131,0.17,0.201,0.172
		c0.631,0.014,1.263,0.008,1.878,0.008c-0.09-0.762-0.171-1.486-0.269-2.213C3.781,8.564,3.667,8.467,3.6,8.465
		C2.89,8.455,2.179,8.458,1.426,8.458z M14.564,8.458c-0.74,0-1.461-0.008-2.182,0.009c-0.064,0.002-0.165,0.15-0.179,0.24
		c-0.062,0.408-0.091,0.816-0.144,1.225c-0.041,0.297-0.104,0.592-0.156,0.908c0.66,0,1.262,0.006,1.861-0.008
		c0.084-0.002,0.209-0.082,0.244-0.158C14.33,9.984,14.521,9.26,14.564,8.458z M10.551,11.797c-0.727,0-1.396,0-2.072,0
		c0,0.9,0,1.77,0,2.697C9.426,13.762,10.064,12.861,10.551,11.797z M7.515,4.211c0-0.899,0-1.777,0-2.708
		C6.572,2.25,5.922,3.141,5.448,4.211C6.162,4.211,6.833,4.211,7.515,4.211z M7.528,11.787c-0.701,0-1.365,0-2.08,0
		c0.489,1.074,1.127,1.975,2.08,2.713C7.528,13.553,7.528,12.686,7.528,11.787z M10.549,4.213C10.064,3.135,9.42,2.242,8.482,1.504
		c0,0.951,0,1.825,0,2.708C9.17,4.213,9.835,4.213,10.549,4.213z M10.275,1.814c0.406,0.743,0.816,1.502,1.233,2.259
		c0.033,0.062,0.099,0.147,0.15,0.148c0.562,0.011,1.12,0.007,1.745,0.007C12.555,3.049,11.512,2.264,10.275,1.814z M5.848,1.764
		C4.491,2.27,3.435,3.047,2.598,4.233c0.478,0,0.891-0.03,1.297,0.008c0.39,0.037,0.607-0.072,0.734-0.463
		C4.734,3.455,4.922,3.154,5.103,2.86C5.32,2.505,5.569,2.17,5.848,1.764z M2.591,11.768c0.861,1.178,1.897,1.976,3.13,2.412
		c-0.402-0.736-0.813-1.496-1.233-2.252c-0.04-0.07-0.141-0.152-0.215-0.154C3.739,11.76,3.205,11.768,2.591,11.768z M10.275,14.186
		c1.24-0.461,2.291-1.238,3.123-2.42c-0.599,0-1.121-0.004-1.646,0.008c-0.078,0.002-0.193,0.063-0.23,0.129
		C11.096,12.666,10.682,13.438,10.275,14.186z"/>
</g>
</svg>
