<?xml version="1.0" encoding="utf-8"?>
<!-- Generator: Adobe Illustrator 16.0.0, SVG Export Plug-In . SVG Version: 6.00 Build 0)  -->
<!DOCTYPE svg PUBLIC "-//W3C//DTD SVG 1.1//EN" "http://www.w3.org/Graphics/SVG/1.1/DTD/svg11.dtd">
<svg version="1.1" id="Layer_1" xmlns="http://www.w3.org/2000/svg" xmlns:xlink="http://www.w3.org/1999/xlink" x="0px" y="0px"
	 width="16px" height="18.832px" viewBox="0 0 16 18.832" enable-background="new 0 0 16 18.832" xml:space="preserve">
<g>
	<path fill="#6D6E70" d="M0.19,3.019c0.221-0.703,0.624-1.211,1.419-1.252C2.73,1.711,3.68,2.663,3.684,3.813
		c0.001,0.436,0.024,0.874,0.056,1.312C3.751,5.279,3.806,5.44,3.867,5.59C3.998,5.92,4.108,6.184,4.582,6.268
		C5.321,6.398,6.026,6.725,6.744,6.98C6.801,7,6.851,7.082,6.872,7.146c0.074,0.229,0.132,0.461,0.215,0.769
		c-0.2,0-0.371,0.033-0.52-0.009C6.247,7.82,5.932,7.7,5.619,7.583C5.403,7.503,5.184,7.36,5.077,7.604
		C4.795,7.432,4.521,7.297,4.292,7.109C4.157,7,4.005,6.802,4.013,6.652c0.011-0.237-0.086-0.368-0.233-0.5
		C3.352,5.757,2.837,5.489,2.274,5.418C1.17,5.281,0.494,4.698,0.19,3.645C0.19,3.436,0.19,3.228,0.19,3.019z M2.159,5.1
		C2.772,5.103,3.25,4.725,3.385,4.133c0.229-1.002-0.593-2.073-1.623-2.11C1.146,2,0.639,2.386,0.493,2.987
		C0.251,3.982,1.126,5.094,2.159,5.1z M2.803,5.272c0.261,0.12,0.501,0.23,0.769,0.353c-0.059-0.292-0.11-0.544-0.165-0.814
		C3.207,4.964,3.022,5.108,2.803,5.272z"/>
	<path fill="#6D6E70" d="M15.811,8.646c-0.18,0.301-0.426,0.375-0.764,0.264c-0.719-0.234-1.445-0.452-2.193-0.686
		c0.076-0.316,0.143-0.604,0.205-0.908c0.814,0.252,1.613,0.486,2.4,0.746c0.143,0.045,0.236,0.203,0.352,0.305
		C15.811,8.46,15.811,8.553,15.811,8.646z"/>
	<path fill="#6D6E70" d="M7.874,7.466C7.709,7.548,7.514,7.64,7.292,7.747C7.217,7.485,7.134,7.237,7.087,6.98
		C7.07,6.913,7.149,6.792,7.217,6.755c0.364-0.199,0.732-0.39,1.113-0.553c0.14-0.059,0.324-0.079,0.468-0.041
		c1.295,0.335,2.584,0.688,3.877,1.033c0.039,0.012,0.084,0.04,0.146,0.074c-0.066,0.285-0.135,0.572-0.203,0.886
		c-0.443-0.133-0.867-0.26-1.301-0.387c-0.65,0.92-0.654,1.893-0.271,2.878c0.088,0.231,0.336,0.405,0.529,0.588
		c0.238,0.234,0.492,0.448,0.752,0.68c-0.412,0.39-0.758,0.72-1.066,1.009c-0.541-0.495-1.119-1.025-1.715-1.574
		c-0.117,0.627-0.236,1.266-0.361,1.934c-0.48-0.097-0.941-0.188-1.43-0.283c0.142-0.781,0.287-1.547,0.414-2.314
		c0.034-0.21,0.018-0.433-0.005-0.646C8.075,9.192,7.975,8.348,7.874,7.466z"/>
	<path fill="#6D6E70" d="M11.521,13.127c0.264-0.279,0.592-0.609,0.912-0.937c0.705,0.476,0.814,0.76,0.604,1.536
		c-0.25,0.923-0.502,1.843-0.76,2.767c-0.133,0.484-0.496,0.722-0.92,0.609c-0.416-0.111-0.611-0.512-0.484-0.991
		c0.207-0.8,0.436-1.599,0.641-2.404C11.555,13.541,11.521,13.357,11.521,13.127z"/>
	<path fill="#6D6E70" d="M7.751,13.251c0.354,0.069,0.706,0.135,1.057,0.203c0.098,0.021,0.199,0.049,0.371,0.09
		c-0.107,0.256-0.17,0.513-0.307,0.725c-0.525,0.811-1.073,1.614-1.615,2.412c-0.306,0.458-0.735,0.569-1.118,0.303
		c-0.34-0.237-0.386-0.687-0.106-1.108c0.486-0.728,0.979-1.454,1.466-2.185C7.589,13.561,7.657,13.417,7.751,13.251z"/>
	<path fill="#6D6E70" d="M10.826,6.3C10.094,6.295,9.51,5.7,9.523,4.97c0.012-0.728,0.619-1.321,1.334-1.311
		c0.725,0.011,1.309,0.615,1.301,1.342C12.15,5.741,11.57,6.306,10.826,6.3z"/>
	<path fill="#FFFFFF" d="M2.803,5.272c0.219-0.165,0.404-0.309,0.604-0.461c0.054,0.27,0.105,0.521,0.165,0.814
		C3.304,5.502,3.062,5.393,2.803,5.272z"/>
</g>
</svg>
