<?xml version="1.0" encoding="utf-8"?>
<!-- Generator: Adobe Illustrator 16.0.0, SVG Export Plug-In . SVG Version: 6.00 Build 0)  -->
<!DOCTYPE svg PUBLIC "-//W3C//DTD SVG 1.1//EN" "http://www.w3.org/Graphics/SVG/1.1/DTD/svg11.dtd">
<svg version="1.1" id="Layer_1" xmlns="http://www.w3.org/2000/svg" xmlns:xlink="http://www.w3.org/1999/xlink" x="0px" y="0px"
	 width="16px" height="18.579px" viewBox="0 0 16 18.579" enable-background="new 0 0 16 18.579" xml:space="preserve">
<g>
	<path fill="#6D6E70" d="M6.559-0.035c0.091,0.03,0.185,0.052,0.27,0.091c0.399,0.186,0.614,0.632,0.515,1.052
		C7.238,1.545,6.853,1.846,6.413,1.835C5.96,1.824,5.588,1.506,5.507,1.066c-0.091-0.498,0.24-0.983,0.738-1.085
		C6.262-0.022,6.277-0.03,6.294-0.035C6.383-0.034,6.47-0.034,6.559-0.035z"/>
	<path fill="#6D6E70" d="M3.964,3.994c0.233-0.281,0.467-0.561,0.701-0.84c0.331-0.397,0.662-0.798,0.992-1.196
		c0.027-0.032,0.048-0.045,0.09-0.023C5.817,1.97,5.893,2,5.975,2.037C5.923,2.104,5.877,2.162,5.83,2.222
		c-0.419,0.53-0.837,1.063-1.258,1.591c-0.04,0.051-0.041,0.082-0.01,0.14C4.66,4.13,4.751,4.313,4.84,4.496
		c0.028,0.055,0.039,0.117,0.051,0.178c0.018,0.092-0.02,0.147-0.117,0.152c-0.143,0.01-0.271-0.034-0.379-0.129
		C4.214,4.538,4.108,4.326,4.01,4.11C3.996,4.083,3.979,4.053,3.964,4.024C3.964,4.015,3.964,4.004,3.964,3.994z"/>
	<path fill="#6D6E70" d="M13.553,8.317c-0.01,0.022-0.021,0.046-0.029,0.07c-0.08,0.201-0.287,0.312-0.502,0.271
		c-0.195-0.039-0.35-0.227-0.351-0.433c-0.001-0.203,0.152-0.391,0.354-0.434c0.207-0.042,0.418,0.072,0.498,0.269
		c0.01,0.024,0.021,0.047,0.028,0.071C13.553,8.192,13.553,8.255,13.553,8.317z"/>
	<path fill="#6D6E70" d="M7.972,2.859c0.304,0.417,0.565,0.85,0.783,1.311c0.237,0.502,0.353,1.029,0.386,1.58
		C9.162,6.071,9.198,6.395,9.21,6.717c0.008,0.191-0.008,0.384-0.028,0.572C9.126,7.776,9.064,8.262,9,8.748
		c-0.084,0.63-0.156,1.262-0.327,1.877c-0.034,0.123-0.088,0.244-0.161,0.35c-0.181,0.258-0.552,0.247-0.721-0.02
		c-0.042-0.065-0.063-0.158-0.057-0.236c0.021-0.26,0.059-0.52,0.093-0.776c0.049-0.373,0.101-0.744,0.15-1.115
		C8.012,8.563,8.046,8.3,8.081,8.035c0.002-0.01,0-0.021,0-0.049c-0.018,0.039-0.03,0.065-0.041,0.09
		C7.806,8.631,7.508,9.148,7.094,9.589c-0.378,0.404-0.817,0.734-1.318,0.97c-0.29,0.139-0.476,0.011-0.504-0.324
		c-0.017-0.201,0.041-0.376,0.19-0.513C5.598,9.601,5.74,9.481,5.876,9.358c0.6-0.529,1.093-1.144,1.449-1.863
		c0.121-0.247,0.16-0.513,0.149-0.785c-0.023-0.488-0.1-0.972-0.241-1.442C7.146,4.982,6.998,4.739,6.784,4.535
		C6.641,4.396,6.489,4.264,6.359,4.114C6.141,3.866,6.044,3.56,5.971,3.245c-0.043-0.188-0.07-0.378-0.03-0.569
		C6.01,2.342,6.303,2.089,6.644,2.064C6.729,2.057,6.814,2.052,6.9,2.045c0.339-0.031,0.574-0.238,0.786-0.481
		C7.723,1.522,7.769,1.48,7.82,1.454C8.057,1.324,8.3,1.21,8.57,1.171c0.061-0.008,0.121-0.01,0.179-0.001
		c0.228,0.037,0.354,0.228,0.304,0.456C9.023,1.767,8.941,1.879,8.854,1.989C8.629,2.271,8.362,2.514,8.093,2.751
		C8.053,2.787,8.014,2.819,7.972,2.859z"/>
</g>
<g>
	<path d="M4.361,14.836c-0.027,0.031-0.064,0.064-0.111,0.104s-0.105,0.07-0.176,0.104c-0.071,0.031-0.155,0.059-0.251,0.078
		c-0.096,0.021-0.207,0.033-0.332,0.033c-0.147,0-0.281-0.025-0.402-0.072c-0.122-0.049-0.226-0.121-0.312-0.215
		c-0.087-0.094-0.154-0.209-0.201-0.344c-0.047-0.137-0.071-0.293-0.071-0.469V13.92c0-0.176,0.022-0.334,0.068-0.471
		c0.046-0.139,0.109-0.252,0.192-0.348s0.183-0.164,0.301-0.213c0.118-0.053,0.248-0.074,0.392-0.074
		c0.148,0,0.276,0.02,0.383,0.057c0.108,0.037,0.199,0.09,0.271,0.154c0.072,0.064,0.129,0.146,0.169,0.238
		c0.041,0.094,0.067,0.193,0.08,0.305H3.905c-0.009-0.057-0.024-0.107-0.044-0.152c-0.02-0.047-0.047-0.086-0.081-0.119
		c-0.034-0.033-0.077-0.061-0.127-0.076c-0.05-0.018-0.111-0.025-0.18-0.025c-0.161,0-0.283,0.061-0.366,0.182
		s-0.125,0.303-0.125,0.539v0.141c0,0.236,0.045,0.418,0.136,0.537c0.091,0.123,0.224,0.186,0.398,0.186
		c0.056,0,0.105-0.004,0.147-0.012s0.077-0.018,0.107-0.03c0.029-0.01,0.055-0.021,0.074-0.034c0.02-0.015,0.036-0.024,0.048-0.039
		v-0.392H3.466v-0.347h0.895V14.836z"/>
	<path d="M4.641,14.262c0-0.123,0.018-0.236,0.053-0.342c0.035-0.105,0.087-0.197,0.155-0.273C4.917,13.57,5,13.51,5.1,13.467
		c0.1-0.045,0.213-0.066,0.34-0.066c0.128,0,0.242,0.021,0.342,0.066c0.1,0.043,0.184,0.104,0.252,0.18
		c0.068,0.076,0.12,0.168,0.155,0.273c0.036,0.104,0.053,0.219,0.053,0.342v0.033c0,0.123-0.018,0.238-0.053,0.342
		c-0.035,0.105-0.087,0.195-0.155,0.273c-0.068,0.074-0.152,0.135-0.251,0.18c-0.099,0.043-0.213,0.063-0.34,0.063
		c-0.128,0-0.242-0.021-0.341-0.063c-0.1-0.045-0.184-0.104-0.252-0.18c-0.068-0.078-0.12-0.168-0.155-0.273
		c-0.036-0.104-0.053-0.219-0.053-0.342L4.641,14.262L4.641,14.262z M5.093,14.295c0,0.066,0.006,0.133,0.019,0.191
		c0.013,0.063,0.033,0.113,0.061,0.156c0.027,0.045,0.063,0.08,0.107,0.104c0.044,0.027,0.099,0.039,0.164,0.039
		c0.063,0,0.116-0.012,0.16-0.039c0.044-0.023,0.081-0.061,0.108-0.104C5.74,14.6,5.76,14.545,5.773,14.487s0.019-0.125,0.019-0.191
		v-0.033c0-0.066-0.006-0.131-0.019-0.189c-0.013-0.061-0.033-0.113-0.061-0.158c-0.028-0.045-0.064-0.082-0.109-0.105
		c-0.045-0.025-0.099-0.041-0.163-0.041c-0.063,0-0.116,0.016-0.16,0.041c-0.044,0.023-0.08,0.063-0.107,0.105
		c-0.028,0.045-0.048,0.1-0.061,0.158c-0.012,0.059-0.019,0.123-0.019,0.189V14.295z"/>
	<path d="M6.998,15.124H6.544v-2.399h0.453L6.998,15.124L6.998,15.124z"/>
	<path d="M7.493,15.124v-1.358H7.241v-0.332h0.251v-0.146c0-0.097,0.014-0.183,0.043-0.254c0.029-0.074,0.07-0.138,0.124-0.189
		c0.054-0.051,0.119-0.09,0.195-0.114s0.163-0.039,0.258-0.039c0.042,0,0.081,0.004,0.119,0.011
		c0.038,0.006,0.075,0.014,0.112,0.021l-0.005,0.351c-0.038-0.009-0.083-0.015-0.137-0.015c-0.082,0-0.144,0.021-0.188,0.06
		s-0.067,0.096-0.067,0.17v0.146h0.336v0.332H7.945v1.358H7.493z"/>
	<path d="M9.294,15.154c-0.131,0-0.249-0.021-0.353-0.063c-0.104-0.043-0.191-0.103-0.266-0.176c-0.07-0.074-0.127-0.16-0.164-0.261
		c-0.041-0.1-0.059-0.204-0.059-0.317v-0.063c0-0.127,0.019-0.244,0.056-0.354c0.037-0.106,0.091-0.197,0.158-0.273
		c0.067-0.078,0.149-0.141,0.249-0.184C9.014,13.422,9.124,13.4,9.244,13.4c0.122,0,0.229,0.021,0.322,0.062
		c0.092,0.039,0.17,0.097,0.231,0.168c0.062,0.072,0.111,0.16,0.144,0.263c0.033,0.104,0.047,0.217,0.047,0.342v0.19H8.913
		c0.007,0.056,0.022,0.104,0.044,0.15c0.021,0.045,0.051,0.082,0.086,0.114c0.035,0.03,0.076,0.058,0.123,0.074
		c0.047,0.016,0.1,0.024,0.158,0.024c0.082,0,0.158-0.017,0.228-0.045c0.07-0.031,0.13-0.078,0.181-0.144l0.223,0.248
		c-0.027,0.036-0.063,0.075-0.104,0.11c-0.041,0.037-0.088,0.069-0.144,0.099c-0.056,0.028-0.118,0.053-0.187,0.069
		C9.452,15.145,9.376,15.154,9.294,15.154z M9.243,13.766c-0.05,0-0.093,0.01-0.13,0.027c-0.036,0.016-0.067,0.041-0.094,0.068
		c-0.026,0.031-0.049,0.068-0.065,0.111s-0.029,0.09-0.036,0.145h0.628v-0.037c-0.001-0.045-0.008-0.086-0.021-0.125
		c-0.012-0.039-0.029-0.072-0.055-0.102c-0.027-0.029-0.057-0.051-0.095-0.064C9.339,13.773,9.295,13.766,9.243,13.766z"/>
	<path d="M11.195,13.855c-0.022-0.004-0.049-0.006-0.08-0.008c-0.031-0.005-0.059-0.005-0.082-0.005
		c-0.088,0-0.16,0.015-0.215,0.043c-0.055,0.031-0.096,0.074-0.121,0.13v1.106h-0.452v-1.69h0.427l0.012,0.2
		c0.043-0.071,0.096-0.129,0.158-0.17s0.135-0.063,0.219-0.063c0.024,0,0.049,0.002,0.076,0.006
		c0.026,0.005,0.049,0.011,0.065,0.017L11.195,13.855z"/>
	<path d="M12.329,14.657c0-0.025-0.004-0.048-0.015-0.066c-0.01-0.021-0.026-0.039-0.053-0.055
		c-0.025-0.019-0.063-0.035-0.105-0.052c-0.045-0.017-0.104-0.028-0.174-0.045c-0.086-0.019-0.166-0.041-0.239-0.069
		c-0.074-0.027-0.138-0.063-0.191-0.104c-0.054-0.043-0.095-0.094-0.125-0.146c-0.03-0.055-0.047-0.119-0.047-0.19
		c0-0.072,0.015-0.14,0.046-0.201c0.031-0.063,0.075-0.121,0.133-0.168c0.06-0.05,0.129-0.088,0.213-0.115
		c0.084-0.028,0.18-0.043,0.283-0.043c0.109,0,0.209,0.015,0.295,0.041c0.088,0.026,0.162,0.063,0.225,0.113
		c0.061,0.049,0.107,0.104,0.141,0.172c0.033,0.065,0.051,0.142,0.051,0.22h-0.453c0-0.064-0.021-0.117-0.063-0.16
		c-0.042-0.041-0.106-0.063-0.194-0.063c-0.076,0-0.136,0.019-0.177,0.051c-0.042,0.035-0.063,0.078-0.063,0.134
		c0,0.022,0.004,0.047,0.017,0.065c0.011,0.019,0.028,0.034,0.053,0.053c0.024,0.017,0.058,0.031,0.099,0.046
		c0.039,0.012,0.088,0.024,0.146,0.036c0.092,0.019,0.178,0.039,0.254,0.063c0.078,0.027,0.146,0.062,0.203,0.103
		s0.102,0.093,0.133,0.149c0.032,0.059,0.051,0.13,0.051,0.214c0,0.073-0.019,0.146-0.052,0.206
		c-0.032,0.063-0.079,0.117-0.143,0.164c-0.063,0.046-0.138,0.08-0.226,0.107c-0.086,0.024-0.186,0.038-0.293,0.038
		c-0.119,0-0.224-0.019-0.313-0.051c-0.092-0.033-0.167-0.076-0.229-0.131c-0.063-0.056-0.109-0.115-0.141-0.185
		c-0.031-0.065-0.047-0.136-0.047-0.203h0.428c0.002,0.043,0.014,0.08,0.029,0.113c0.018,0.03,0.04,0.057,0.066,0.075
		c0.028,0.021,0.063,0.035,0.1,0.045c0.035,0.009,0.074,0.015,0.115,0.015c0.086,0,0.152-0.019,0.197-0.049
		C12.307,14.752,12.329,14.709,12.329,14.657z"/>
</g>
</svg>
