<?xml version="1.0" encoding="utf-8"?>
<!-- Generator: Adobe Illustrator 16.0.0, SVG Export Plug-In . SVG Version: 6.00 Build 0)  -->
<!DOCTYPE svg PUBLIC "-//W3C//DTD SVG 1.1//EN" "http://www.w3.org/Graphics/SVG/1.1/DTD/svg11.dtd">
<svg version="1.1" id="Layer_1" xmlns="http://www.w3.org/2000/svg" xmlns:xlink="http://www.w3.org/1999/xlink" x="0px" y="0px"
	 width="16px" height="18.579px" viewBox="0 0 16 18.579" enable-background="new 0 0 16 18.579" xml:space="preserve">
<g>
	<path d="M4.519,14.495c0-0.041-0.006-0.076-0.017-0.106c-0.012-0.031-0.034-0.062-0.066-0.089c-0.033-0.026-0.078-0.055-0.136-0.08
		c-0.058-0.024-0.132-0.055-0.224-0.084c-0.104-0.032-0.202-0.069-0.294-0.11c-0.092-0.041-0.173-0.092-0.242-0.147
		c-0.069-0.057-0.124-0.121-0.164-0.194c-0.04-0.074-0.06-0.16-0.06-0.261c0-0.094,0.021-0.182,0.062-0.26s0.099-0.146,0.173-0.201
		c0.075-0.055,0.163-0.099,0.265-0.129c0.103-0.031,0.216-0.047,0.339-0.047c0.126,0,0.241,0.018,0.344,0.053
		s0.191,0.084,0.264,0.146c0.073,0.063,0.129,0.138,0.169,0.224s0.059,0.18,0.059,0.28H4.52c0-0.047-0.007-0.092-0.022-0.133
		c-0.016-0.039-0.039-0.073-0.07-0.104c-0.031-0.031-0.071-0.053-0.117-0.067c-0.047-0.017-0.102-0.022-0.166-0.022
		c-0.062,0-0.115,0.006-0.16,0.021c-0.045,0.014-0.083,0.032-0.112,0.057c-0.03,0.022-0.053,0.054-0.067,0.085
		c-0.015,0.032-0.022,0.064-0.022,0.104c0,0.074,0.038,0.137,0.114,0.188c0.077,0.051,0.189,0.098,0.337,0.143
		c0.124,0.037,0.233,0.08,0.327,0.127c0.094,0.049,0.173,0.102,0.236,0.16c0.063,0.06,0.111,0.125,0.143,0.199
		c0.033,0.074,0.049,0.158,0.049,0.252c0,0.1-0.02,0.189-0.059,0.269s-0.094,0.146-0.167,0.196c-0.072,0.057-0.159,0.098-0.26,0.123
		c-0.102,0.029-0.215,0.043-0.34,0.043c-0.075,0-0.15-0.006-0.225-0.02c-0.075-0.012-0.147-0.033-0.215-0.061
		c-0.068-0.025-0.132-0.063-0.19-0.104c-0.059-0.039-0.109-0.088-0.152-0.145C3.339,14.743,3.305,14.68,3.28,14.61
		c-0.025-0.068-0.037-0.146-0.037-0.23h0.47c0,0.066,0.011,0.127,0.033,0.174c0.022,0.049,0.052,0.088,0.091,0.117
		s0.086,0.051,0.142,0.063s0.117,0.021,0.185,0.021c0.06,0,0.113-0.008,0.158-0.021c0.044-0.015,0.081-0.03,0.111-0.055
		c0.029-0.022,0.051-0.052,0.065-0.082C4.512,14.566,4.519,14.529,4.519,14.495z"/>
	<path d="M5.891,14.413l-0.163,0.162v0.516H5.276v-2.399h0.452v1.33l0.087-0.11L6.249,13.4h0.542L6.18,14.104l0.664,0.986H6.325
		L5.891,14.413z"/>
	<path d="M6.983,12.963c0-0.068,0.022-0.125,0.068-0.168c0.046-0.043,0.107-0.066,0.185-0.066c0.038,0,0.074,0.006,0.105,0.018
		c0.031,0.012,0.057,0.027,0.08,0.049c0.022,0.021,0.039,0.045,0.051,0.074c0.012,0.029,0.018,0.063,0.018,0.094
		c0,0.033-0.006,0.064-0.018,0.096c-0.012,0.027-0.029,0.053-0.051,0.072c-0.022,0.021-0.048,0.037-0.08,0.051
		C7.309,13.193,7.274,13.2,7.236,13.2c-0.039,0-0.073-0.007-0.104-0.019c-0.031-0.013-0.058-0.027-0.08-0.05
		c-0.022-0.021-0.039-0.045-0.051-0.073C6.989,13.027,6.983,12.997,6.983,12.963z M7.462,15.09H7.009V13.4h0.453V15.09z"/>
	<path d="M8.611,15.122c-0.13,0-0.25-0.021-0.353-0.063c-0.104-0.041-0.192-0.101-0.264-0.175c-0.072-0.073-0.127-0.159-0.166-0.26
		s-0.057-0.207-0.057-0.319v-0.062c0-0.13,0.019-0.246,0.056-0.354c0.037-0.104,0.089-0.197,0.157-0.275
		c0.069-0.074,0.151-0.137,0.249-0.18c0.097-0.043,0.207-0.063,0.329-0.063c0.121,0,0.229,0.02,0.32,0.059
		c0.094,0.041,0.172,0.098,0.233,0.17s0.108,0.16,0.142,0.262s0.049,0.215,0.049,0.34v0.193H8.231
		c0.007,0.055,0.022,0.105,0.044,0.148c0.022,0.045,0.051,0.084,0.085,0.115c0.036,0.031,0.076,0.057,0.123,0.072
		c0.046,0.018,0.1,0.025,0.158,0.025c0.082,0,0.158-0.016,0.229-0.047c0.069-0.027,0.13-0.076,0.18-0.142l0.222,0.248
		C9.245,14.855,9.21,14.893,9.17,14.93s-0.088,0.068-0.145,0.098c-0.055,0.03-0.117,0.051-0.188,0.068
		C8.77,15.113,8.693,15.122,8.611,15.122z M8.561,13.734c-0.049,0-0.09,0.009-0.127,0.024c-0.037,0.018-0.069,0.041-0.095,0.072
		c-0.026,0.03-0.048,0.065-0.065,0.108s-0.029,0.09-0.036,0.144h0.626v-0.035c0-0.045-0.008-0.088-0.02-0.125
		c-0.012-0.039-0.029-0.071-0.055-0.103c-0.023-0.026-0.057-0.049-0.094-0.063C8.657,13.743,8.613,13.734,8.561,13.734z"/>
	<path d="M10.514,13.823c-0.021-0.003-0.05-0.007-0.08-0.009c-0.031-0.002-0.059-0.004-0.082-0.004c-0.088,0-0.16,0.017-0.215,0.045
		c-0.056,0.028-0.096,0.071-0.121,0.129v1.104H9.564V13.4h0.427l0.012,0.201c0.043-0.072,0.097-0.132,0.158-0.172
		c0.062-0.041,0.135-0.062,0.219-0.062c0.024,0,0.05,0.002,0.076,0.006s0.048,0.008,0.065,0.015L10.514,13.823z"/>
	<path d="M11.646,14.624c0-0.022-0.004-0.045-0.016-0.065c-0.01-0.021-0.027-0.037-0.053-0.056
		c-0.026-0.019-0.063-0.033-0.105-0.049c-0.043-0.017-0.104-0.031-0.174-0.045c-0.086-0.021-0.167-0.043-0.238-0.07
		c-0.074-0.028-0.139-0.063-0.191-0.104c-0.055-0.041-0.096-0.09-0.125-0.146c-0.03-0.057-0.045-0.119-0.045-0.192
		c0-0.069,0.015-0.138,0.046-0.201c0.03-0.063,0.075-0.118,0.133-0.168c0.058-0.049,0.129-0.086,0.213-0.114
		c0.083-0.027,0.179-0.041,0.283-0.041c0.108,0,0.208,0.014,0.295,0.039c0.087,0.026,0.162,0.065,0.224,0.112
		c0.062,0.05,0.107,0.106,0.142,0.175c0.03,0.065,0.049,0.139,0.049,0.219H11.63c0-0.063-0.021-0.119-0.063-0.16
		c-0.041-0.043-0.105-0.063-0.193-0.063c-0.076,0-0.137,0.019-0.178,0.054c-0.043,0.032-0.063,0.078-0.063,0.131
		c0,0.024,0.006,0.047,0.016,0.065c0.013,0.021,0.029,0.037,0.055,0.054c0.023,0.019,0.057,0.03,0.097,0.045
		s0.091,0.024,0.148,0.037c0.091,0.019,0.176,0.041,0.254,0.065c0.077,0.024,0.146,0.06,0.202,0.101
		c0.058,0.043,0.102,0.092,0.134,0.149c0.03,0.058,0.049,0.131,0.049,0.213c0,0.076-0.019,0.146-0.05,0.207
		c-0.033,0.063-0.081,0.119-0.145,0.164c-0.062,0.047-0.137,0.082-0.224,0.106c-0.087,0.026-0.187,0.039-0.293,0.039
		c-0.119,0-0.224-0.017-0.313-0.049c-0.088-0.033-0.168-0.078-0.229-0.134c-0.063-0.053-0.107-0.112-0.141-0.183
		c-0.03-0.068-0.047-0.137-0.047-0.204h0.429c0.002,0.043,0.012,0.081,0.028,0.112c0.018,0.031,0.039,0.06,0.067,0.078
		c0.028,0.02,0.062,0.032,0.099,0.043c0.037,0.01,0.076,0.014,0.117,0.014c0.086,0,0.151-0.016,0.195-0.049
		C11.625,14.719,11.646,14.676,11.646,14.624z"/>
</g>
<g>
	<path fill="#6D6E70" d="M8.315,8.344c1.234,0.712,2.385,1.399,3.563,2.04c0.526,0.285,1.003,0.078,1.399-0.379
		c0.162,0.086,0.313,0.166,0.461,0.246c-0.318,0.847-1.381,1.146-2.297,0.646C10.591,10.43,9.758,9.93,8.918,9.445
		C6.985,8.33,5.052,7.214,3.119,6.096C2.966,6.009,2.818,5.912,2.636,5.798C2.739,5.612,2.829,5.446,2.943,5.24
		c1.496,0.857,2.962,1.7,4.451,2.554c0.467-0.525,0.914-1.032,1.399-1.582C8.117,5.751,7.48,5.319,6.842,4.884
		c-0.641-0.436-0.706-0.722-0.32-1.416c0.1-0.182,0.213-0.354,0.363-0.602C5.797,2.404,5.002,1.346,3.6,1.706
		c0.011-0.054,0.023-0.108,0.034-0.159c0.048-0.059,0.09-0.119,0.143-0.166c0.06-0.053,0.131-0.094,0.205-0.145
		C3.876,1.04,3.798,0.891,3.69,0.687C3.918,0.71,4.089,0.729,4.302,0.751c0.057-0.104,0.12-0.225,0.229-0.425
		C4.65,0.533,4.739,0.71,4.847,0.874C4.96,1.049,5.061,1.266,5.225,1.37c0.488,0.32,1.022,0.563,1.502,0.892
		c0.356,0.24,0.581,0.218,0.907-0.079c0.597-0.548,1.248-1.035,2.14-0.989c1.045,0.056,1.412,0.53,1.162,1.543
		c-0.312,1.255-0.31,1.253,0.732,2.055c0.271,0.212,0.703,0.414,0.396,0.837c-0.344,0.474-0.642,0.025-0.933-0.159
		c-0.766-0.485-1.524-0.974-2.294-1.45c-0.104-0.066-0.24-0.08-0.361-0.116C8.451,3.95,8.42,3.996,8.393,4.043
		c0.253,0.23,0.505,0.462,0.759,0.69C9.357,4.918,9.564,5.098,9.77,5.282c0.541,0.479,0.563,0.768,0.094,1.303
		C9.363,7.154,8.863,7.724,8.315,8.344z M8.829,3.45C9.08,3.599,9.264,3.702,9.52,3.854c0.027-0.396,0.049-0.698,0.069-0.998
		C9.536,2.833,9.482,2.81,9.43,2.784C9.25,2.984,9.07,3.183,8.829,3.45z"/>
	<path fill="#6D6E70" d="M12.154,2.178c-0.612,0.009-1.113-0.479-1.119-1.089c-0.006-0.607,0.49-1.118,1.093-1.125
		c0.595-0.007,1.118,0.502,1.126,1.098C13.264,1.66,12.76,2.17,12.154,2.178z"/>
</g>
</svg>
