<?xml version="1.0" encoding="utf-8"?>
<!-- Generator: Adobe Illustrator 16.0.0, SVG Export Plug-In . SVG Version: 6.00 Build 0)  -->
<!DOCTYPE svg PUBLIC "-//W3C//DTD SVG 1.1//EN" "http://www.w3.org/Graphics/SVG/1.1/DTD/svg11.dtd">
<svg version="1.1" id="Layer_1" xmlns="http://www.w3.org/2000/svg" xmlns:xlink="http://www.w3.org/1999/xlink" x="0px" y="0px"
	 width="16px" height="18.58px" viewBox="0 0 16 18.58" enable-background="new 0 0 16 18.58" xml:space="preserve">
<g>
	<path d="M3.852,15.083H3.187v1.809H2.74v-1.809H2.084v-0.361h1.767L3.852,15.083L3.852,15.083z"/>
	<path d="M4.983,15.683c-0.022-0.002-0.047-0.006-0.077-0.009c-0.029-0.002-0.056-0.003-0.079-0.003
		c-0.084,0-0.152,0.014-0.205,0.042c-0.053,0.028-0.091,0.069-0.116,0.123v1.056h-0.43v-1.613h0.407l0.012,0.193
		c0.041-0.07,0.091-0.125,0.15-0.164s0.129-0.059,0.208-0.059c0.023,0,0.047,0.002,0.072,0.006c0.025,0.004,0.046,0.01,0.062,0.014
		L4.983,15.683z"/>
	<path d="M6.125,16.892c-0.02-0.039-0.034-0.088-0.043-0.146c-0.043,0.05-0.099,0.091-0.165,0.125
		c-0.066,0.033-0.146,0.051-0.242,0.051c-0.077,0-0.149-0.014-0.217-0.036c-0.067-0.024-0.125-0.058-0.174-0.101
		c-0.049-0.043-0.087-0.096-0.115-0.152c-0.028-0.059-0.042-0.124-0.042-0.193c0-0.084,0.016-0.16,0.047-0.226
		c0.031-0.065,0.078-0.121,0.141-0.167c0.063-0.047,0.14-0.08,0.233-0.104c0.093-0.021,0.201-0.034,0.324-0.034h0.192v-0.095
		c0-0.073-0.02-0.133-0.058-0.179c-0.038-0.045-0.099-0.067-0.181-0.067c-0.072,0-0.129,0.021-0.17,0.054
		c-0.041,0.035-0.062,0.082-0.062,0.146h-0.43c0-0.066,0.016-0.136,0.048-0.197c0.032-0.063,0.078-0.117,0.138-0.164
		s0.132-0.082,0.216-0.108s0.179-0.041,0.283-0.041c0.093,0,0.18,0.013,0.259,0.034c0.08,0.021,0.148,0.061,0.206,0.105
		c0.058,0.047,0.103,0.104,0.135,0.178c0.032,0.072,0.048,0.152,0.048,0.248v0.685c0,0.046,0.002,0.087,0.005,0.122
		s0.007,0.066,0.012,0.1c0.005,0.028,0.011,0.058,0.02,0.078c0.008,0.021,0.017,0.047,0.028,0.064v0.023L6.125,16.892L6.125,16.892z
		 M5.769,16.591c0.037,0,0.07-0.004,0.102-0.014c0.031-0.012,0.059-0.021,0.084-0.035S6,16.513,6.02,16.493
		c0.018-0.021,0.033-0.039,0.044-0.063v-0.273H5.887c-0.057,0-0.106,0.006-0.148,0.019s-0.076,0.03-0.103,0.054
		c-0.027,0.021-0.047,0.049-0.06,0.078c-0.013,0.03-0.02,0.063-0.02,0.101c0,0.056,0.019,0.1,0.057,0.133
		C5.65,16.575,5.703,16.591,5.769,16.591z"/>
	<path d="M6.824,14.862c0-0.063,0.021-0.117,0.064-0.16c0.043-0.041,0.102-0.063,0.177-0.063c0.037,0,0.07,0.004,0.1,0.018
		c0.03,0.01,0.055,0.025,0.076,0.045c0.021,0.021,0.037,0.043,0.048,0.07c0.011,0.026,0.017,0.059,0.017,0.09
		s-0.006,0.063-0.017,0.09c-0.011,0.025-0.027,0.054-0.048,0.07c-0.021,0.02-0.046,0.035-0.076,0.047
		c-0.03,0.01-0.063,0.019-0.1,0.019s-0.07-0.009-0.1-0.019c-0.03-0.012-0.055-0.027-0.076-0.047
		c-0.021-0.021-0.037-0.045-0.048-0.07C6.829,14.925,6.824,14.896,6.824,14.862z M7.281,16.892H6.849v-1.613h0.432V16.892z"/>
	<path d="M8.032,15.278l0.014,0.188c0.056-0.068,0.123-0.123,0.201-0.16c0.079-0.037,0.167-0.058,0.262-0.058
		c0.076,0,0.146,0.013,0.207,0.033c0.063,0.021,0.117,0.057,0.162,0.104c0.045,0.05,0.08,0.109,0.104,0.188
		c0.022,0.08,0.037,0.176,0.037,0.289v1.025H8.587V15.86c0-0.053-0.004-0.096-0.017-0.129c-0.014-0.033-0.028-0.062-0.053-0.08
		c-0.021-0.021-0.048-0.033-0.078-0.043c-0.033-0.008-0.069-0.014-0.112-0.014c-0.063,0-0.117,0.016-0.165,0.043
		c-0.045,0.026-0.082,0.063-0.109,0.112v1.138h-0.43v-1.611h0.407v0.002H8.032z"/>
	<path d="M10.085,16.921c-0.125,0-0.235-0.021-0.336-0.063c-0.099-0.043-0.183-0.098-0.252-0.168
		c-0.067-0.067-0.121-0.151-0.158-0.246c-0.034-0.096-0.053-0.196-0.053-0.305v-0.059c0-0.123,0.019-0.234,0.053-0.336
		c0.035-0.104,0.084-0.189,0.149-0.268c0.063-0.07,0.144-0.131,0.234-0.172c0.096-0.041,0.197-0.063,0.313-0.063
		s0.219,0.021,0.31,0.06c0.088,0.038,0.161,0.093,0.225,0.16c0.061,0.067,0.104,0.149,0.135,0.25
		c0.031,0.099,0.047,0.204,0.047,0.321v0.188H9.725c0.006,0.055,0.02,0.103,0.041,0.146c0.021,0.043,0.049,0.08,0.082,0.106
		c0.032,0.03,0.071,0.058,0.116,0.07c0.043,0.018,0.097,0.023,0.149,0.023c0.078,0,0.148-0.017,0.218-0.045
		c0.065-0.029,0.125-0.074,0.172-0.138l0.211,0.236c-0.024,0.037-0.057,0.071-0.096,0.104c-0.039,0.034-0.084,0.064-0.138,0.097
		c-0.057,0.024-0.112,0.049-0.182,0.063C10.236,16.911,10.165,16.921,10.085,16.921z M10.036,15.599
		c-0.045,0-0.086,0.008-0.123,0.023c-0.035,0.016-0.063,0.039-0.09,0.064c-0.025,0.029-0.048,0.063-0.063,0.104
		c-0.018,0.039-0.027,0.087-0.035,0.137h0.601v-0.034c0-0.043-0.007-0.082-0.021-0.117c-0.012-0.035-0.027-0.068-0.053-0.098
		c-0.023-0.027-0.053-0.048-0.09-0.063C10.13,15.604,10.087,15.599,10.036,15.599z"/>
	<path d="M11.898,15.683c-0.021-0.002-0.047-0.006-0.075-0.009c-0.029-0.002-0.058-0.003-0.08-0.003
		c-0.084,0-0.15,0.014-0.205,0.042c-0.054,0.028-0.09,0.069-0.115,0.123v1.056h-0.43v-1.613h0.405l0.013,0.193
		c0.041-0.07,0.092-0.125,0.149-0.164c0.059-0.039,0.129-0.059,0.207-0.059c0.023,0,0.049,0.002,0.072,0.006s0.047,0.01,0.063,0.014
		L11.898,15.683z"/>
	<path d="M12.979,16.446c0-0.021-0.006-0.045-0.016-0.063c-0.01-0.021-0.023-0.036-0.051-0.055c-0.023-0.019-0.059-0.03-0.102-0.047
		s-0.101-0.027-0.166-0.044c-0.082-0.02-0.158-0.04-0.229-0.064c-0.069-0.027-0.133-0.063-0.185-0.104
		c-0.051-0.038-0.092-0.084-0.121-0.139c-0.026-0.053-0.043-0.113-0.043-0.186c0-0.064,0.019-0.131,0.045-0.189
		c0.029-0.063,0.07-0.113,0.125-0.16c0.058-0.047,0.123-0.084,0.203-0.108s0.17-0.039,0.271-0.039c0.104,0,0.197,0.015,0.281,0.037
		c0.082,0.024,0.154,0.063,0.211,0.106c0.059,0.045,0.104,0.104,0.135,0.166c0.031,0.061,0.047,0.133,0.047,0.207h-0.43
		c0-0.063-0.02-0.111-0.059-0.149c-0.041-0.041-0.103-0.063-0.187-0.063c-0.071,0-0.129,0.02-0.168,0.05
		c-0.041,0.032-0.063,0.074-0.063,0.125c0,0.023,0.006,0.047,0.019,0.063c0.012,0.021,0.024,0.035,0.053,0.052
		c0.021,0.018,0.056,0.028,0.095,0.043c0.035,0.016,0.084,0.022,0.141,0.035c0.086,0.018,0.168,0.038,0.242,0.063
		c0.076,0.024,0.139,0.061,0.19,0.099c0.058,0.039,0.099,0.088,0.128,0.144c0.03,0.059,0.049,0.125,0.049,0.205
		c0,0.069-0.021,0.137-0.052,0.194c-0.028,0.062-0.073,0.11-0.137,0.156c-0.062,0.043-0.131,0.077-0.215,0.104
		c-0.082,0.023-0.179,0.038-0.279,0.038c-0.108,0-0.213-0.02-0.299-0.05c-0.088-0.03-0.16-0.072-0.222-0.125
		c-0.059-0.051-0.104-0.108-0.133-0.174c-0.029-0.064-0.043-0.132-0.043-0.194h0.408c0.002,0.042,0.01,0.077,0.025,0.105
		c0.018,0.029,0.039,0.056,0.066,0.072c0.022,0.021,0.057,0.033,0.092,0.043s0.069,0.015,0.108,0.015
		c0.084,0,0.146-0.017,0.188-0.048C12.958,16.536,12.979,16.495,12.979,16.446z"/>
</g>
<g>
	<path fill="#6D6E70" stroke="#FFFFFF" stroke-width="0.2" stroke-miterlimit="10" d="M7.913,12.079
		c-0.833,0-1.67-0.005-2.503,0.005c-0.146,0-0.223-0.028-0.201-0.192c0.016-0.095,0.009-0.194,0.002-0.293
		c-0.017-0.25,0.025-0.451,0.21-0.662C5.78,10.53,5.722,9.925,5.337,9.545C5.243,9.45,5.209,9.36,5.209,9.232
		c0.009-0.738,0.009-1.474,0.01-2.21c0-0.106,0.019-0.221-0.107-0.267C4.999,6.71,4.933,6.801,4.859,6.869
		C4.465,7.244,4.074,7.626,3.675,7.997C3.563,8.1,3.583,8.156,3.679,8.243C4.14,8.68,4.593,9.114,5.053,9.547
		c0.425,0.4,0.469,1,0.101,1.386c-0.389,0.409-0.971,0.407-1.404-0.006C3.192,10.406,2.625,9.89,2.078,9.363
		C1.589,8.892,1.322,8.339,1.516,7.641c0.066-0.243,0.237-0.413,0.396-0.588c0.683-0.751,1.37-1.5,2.065-2.24
		c0.477-0.505,1.092-0.714,1.766-0.786c0.099-0.012,0.136,0.037,0.172,0.115C6.467,5.369,7.021,6.593,7.578,7.82
		c0.04,0.093,0.047,0.138-0.068,0.175c-0.148,0.05-0.372,0.016-0.419,0.177c-0.04,0.127,0.053,0.299,0.09,0.446
		C7.289,9.002,7.399,9.386,7.5,9.771c0.041,0.151,0.109,0.205,0.269,0.15c0.22-0.074,0.442-0.137,0.667-0.188
		C8.627,9.694,8.65,9.608,8.593,9.434C8.465,9.021,8.358,8.592,8.234,8.169C8.2,8.054,8.208,7.953,8.261,7.844
		c0.582-1.217,1.158-2.438,1.73-3.662c0.057-0.116,0.118-0.153,0.241-0.138c0.672,0.07,1.238,0.361,1.693,0.841
		c0.731,0.771,1.434,1.56,2.146,2.342c0.328,0.362,0.377,0.783,0.253,1.237c-0.095,0.349-0.288,0.635-0.552,0.883
		c-0.57,0.534-1.143,1.068-1.717,1.606c-0.424,0.396-1.013,0.378-1.393-0.035c-0.346-0.378-0.313-0.957,0.084-1.34
		c0.461-0.442,0.923-0.883,1.389-1.315c0.109-0.102,0.137-0.163,0.012-0.28c-0.4-0.367-0.783-0.744-1.174-1.117
		c-0.076-0.067-0.138-0.156-0.25-0.108c-0.129,0.045-0.113,0.161-0.113,0.267c0.002,0.735,0,1.472,0.015,2.207
		c0,0.131-0.034,0.223-0.13,0.315c-0.424,0.438-0.417,1.093,0.023,1.524c0.071,0.07,0.105,0.136,0.104,0.238
		c-0.012,0.192-0.016,0.396,0.003,0.584c0.008,0.148-0.039,0.192-0.188,0.192C9.596,12.074,8.753,12.079,7.913,12.079z"/>
	<path fill="#6D6E70" d="M7.738,0.014C8.716,0.017,9.495,0.797,9.49,1.767C9.484,2.734,8.698,3.512,7.725,3.511
		c-0.969-0.004-1.751-0.79-1.749-1.76C5.979,0.785,6.759,0.011,7.738,0.014z"/>
	<path fill="#6D6E70" d="M9.502,4.031c-0.516,1.106-1.031,2.212-1.56,3.362C7.843,7.184,7.764,7.01,7.688,6.836
		C7.295,5.959,6.908,5.083,6.513,4.21c-0.068-0.146-0.079-0.207,0.123-0.2C7.52,4.015,8.398,4.007,9.279,4.003
		C9.35,4.003,9.419,3.982,9.502,4.031z"/>
	<path fill="#6D6E70" d="M8.088,7.92c-0.01,0.121-0.074,0.184-0.176,0.187c-0.114,0-0.183-0.07-0.18-0.187
		c0.004-0.102,0.066-0.167,0.171-0.167C8.022,7.753,8.08,7.821,8.088,7.92z"/>
</g>
</svg>
