<?xml version="1.0" encoding="utf-8"?>
<!-- Generator: Adobe Illustrator 16.0.0, SVG Export Plug-In . SVG Version: 6.00 Build 0)  -->
<!DOCTYPE svg PUBLIC "-//W3C//DTD SVG 1.1//EN" "http://www.w3.org/Graphics/SVG/1.1/DTD/svg11.dtd">
<svg version="1.1" id="Layer_1" xmlns="http://www.w3.org/2000/svg" xmlns:xlink="http://www.w3.org/1999/xlink" x="0px" y="0px"
	 width="16.08px" height="18.48px" viewBox="0 0 16.08 18.48" enable-background="new 0 0 16.08 18.48" xml:space="preserve">
<g>
	<g>
		<path d="M1.132,12.681l0.584,1.649l0.582-1.649h0.616v2.274H2.442v-0.622l0.047-1.073l-0.614,1.695H1.554l-0.612-1.693
			l0.047,1.071v0.622H0.52v-2.274H1.132z"/>
		<path d="M3.833,12.85v0.416h0.289v0.331H3.833v0.844c0,0.036,0.003,0.063,0.011,0.087c0.007,0.022,0.018,0.041,0.032,0.054
			c0.015,0.013,0.033,0.021,0.054,0.026s0.046,0.007,0.076,0.007c0.027,0,0.052-0.001,0.074-0.003s0.042-0.005,0.059-0.008v0.342
			c-0.037,0.011-0.078,0.021-0.123,0.029c-0.045,0.008-0.094,0.012-0.151,0.012c-0.074,0-0.141-0.009-0.2-0.027
			c-0.059-0.018-0.11-0.047-0.152-0.087s-0.074-0.091-0.098-0.154c-0.022-0.063-0.034-0.14-0.034-0.229v-0.892H3.135v-0.331h0.247
			V12.85H3.833z"/>
		<path d="M4.79,13.266l0.014,0.194c0.058-0.072,0.128-0.129,0.211-0.168c0.082-0.039,0.174-0.059,0.275-0.059
			c0.08,0,0.153,0.011,0.219,0.033c0.066,0.021,0.122,0.06,0.168,0.109c0.047,0.051,0.083,0.118,0.109,0.2
			c0.025,0.082,0.039,0.183,0.039,0.303v1.075H5.372v-1.078c0-0.054-0.006-0.099-0.018-0.134c-0.012-0.036-0.029-0.063-0.053-0.084
			c-0.022-0.021-0.051-0.036-0.084-0.044c-0.033-0.008-0.072-0.013-0.116-0.013c-0.067,0-0.124,0.015-0.171,0.043
			c-0.047,0.028-0.085,0.068-0.114,0.119v1.191H4.364v-1.689H4.79z"/>
		<path d="M6.993,14.956v-2.274H7.79c0.132,0,0.25,0.012,0.355,0.037c0.104,0.025,0.192,0.063,0.265,0.115
			c0.072,0.051,0.127,0.116,0.166,0.194s0.057,0.17,0.057,0.277c0,0.052-0.007,0.102-0.021,0.149
			c-0.012,0.048-0.032,0.093-0.059,0.134c-0.028,0.041-0.061,0.08-0.102,0.113c-0.041,0.034-0.089,0.063-0.146,0.083
			c0.066,0.017,0.124,0.042,0.171,0.076c0.048,0.034,0.086,0.073,0.118,0.118c0.03,0.045,0.053,0.094,0.066,0.146
			c0.014,0.053,0.021,0.106,0.021,0.162c0,0.221-0.072,0.388-0.215,0.5c-0.142,0.113-0.344,0.169-0.606,0.169H6.993z M7.461,13.634
			h0.347c0.119-0.002,0.208-0.026,0.267-0.075c0.059-0.05,0.088-0.118,0.088-0.207c0-0.104-0.03-0.179-0.09-0.224
			c-0.06-0.045-0.154-0.067-0.284-0.067H7.461V13.634z M7.461,13.965v0.614h0.402c0.06,0,0.112-0.008,0.156-0.022
			c0.043-0.016,0.08-0.036,0.109-0.063c0.029-0.026,0.051-0.058,0.064-0.094c0.014-0.036,0.021-0.075,0.021-0.118
			c0-0.049-0.007-0.093-0.019-0.132c-0.012-0.039-0.032-0.072-0.059-0.101C8.108,14.021,8.074,14,8.031,13.986
			c-0.043-0.014-0.094-0.022-0.153-0.022L7.461,13.965L7.461,13.965z"/>
		<path d="M9.002,12.828c0-0.068,0.022-0.124,0.067-0.167c0.046-0.043,0.106-0.064,0.186-0.064c0.039,0,0.074,0.006,0.105,0.017
			c0.031,0.012,0.058,0.028,0.08,0.048c0.021,0.021,0.039,0.046,0.051,0.074c0.012,0.029,0.018,0.06,0.018,0.093
			c0,0.034-0.006,0.066-0.018,0.094c-0.012,0.029-0.029,0.055-0.051,0.074c-0.021,0.021-0.049,0.037-0.08,0.048
			c-0.031,0.013-0.066,0.019-0.105,0.019c-0.038,0-0.072-0.006-0.104-0.019c-0.031-0.011-0.059-0.026-0.08-0.048
			c-0.022-0.021-0.039-0.045-0.051-0.074C9.008,12.894,9.002,12.862,9.002,12.828z M9.481,14.956H9.028v-1.689h0.453V14.956z"/>
		<path d="M10.468,14.278l-0.162,0.163v0.516H9.854v-2.399h0.451v1.33l0.088-0.112l0.433-0.508h0.542l-0.611,0.705l0.664,0.985
			h-0.52L10.468,14.278z"/>
		<path d="M11.56,12.828c0-0.068,0.022-0.124,0.068-0.167c0.045-0.043,0.107-0.064,0.186-0.064c0.039,0,0.074,0.006,0.104,0.017
			c0.031,0.012,0.058,0.028,0.08,0.048c0.022,0.021,0.039,0.046,0.051,0.074c0.013,0.029,0.019,0.06,0.019,0.093
			c0,0.034-0.006,0.066-0.019,0.094c-0.012,0.029-0.028,0.055-0.051,0.074c-0.022,0.021-0.048,0.037-0.08,0.048
			c-0.03,0.013-0.065,0.019-0.104,0.019s-0.073-0.006-0.104-0.019c-0.03-0.011-0.058-0.026-0.08-0.048
			c-0.022-0.021-0.039-0.045-0.051-0.074C11.565,12.894,11.56,12.862,11.56,12.828z M12.04,14.956h-0.453v-1.689h0.453V14.956z"/>
		<path d="M12.827,13.266l0.014,0.194c0.059-0.072,0.129-0.129,0.211-0.168c0.083-0.039,0.174-0.059,0.275-0.059
			c0.08,0,0.152,0.011,0.219,0.033c0.064,0.021,0.122,0.06,0.169,0.109c0.048,0.051,0.083,0.118,0.108,0.2s0.037,0.183,0.037,0.303
			v1.075h-0.45v-1.078c0-0.054-0.007-0.099-0.019-0.134c-0.013-0.036-0.029-0.063-0.053-0.084c-0.023-0.021-0.051-0.036-0.085-0.044
			c-0.032-0.009-0.071-0.013-0.114-0.013c-0.066,0-0.125,0.015-0.172,0.043c-0.048,0.028-0.086,0.068-0.115,0.119v1.191h-0.451
			v-1.689H12.827z"/>
		<path d="M14.138,14.098c0-0.129,0.016-0.245,0.049-0.353c0.031-0.105,0.076-0.197,0.135-0.272c0.06-0.076,0.132-0.136,0.216-0.177
			c0.084-0.042,0.18-0.063,0.286-0.063c0.099,0,0.184,0.017,0.254,0.05s0.13,0.08,0.179,0.141l0.019-0.158h0.41v1.633
			c0,0.115-0.02,0.218-0.059,0.308c-0.04,0.089-0.096,0.166-0.167,0.229c-0.071,0.062-0.155,0.107-0.256,0.141
			c-0.101,0.032-0.21,0.047-0.331,0.047c-0.053,0-0.107-0.005-0.166-0.016s-0.116-0.026-0.173-0.048
			c-0.058-0.022-0.11-0.05-0.162-0.083s-0.095-0.073-0.129-0.119l0.2-0.275c0.053,0.061,0.113,0.105,0.182,0.14
			c0.068,0.032,0.145,0.05,0.229,0.05c0.119,0,0.213-0.032,0.278-0.097c0.067-0.063,0.101-0.154,0.101-0.271v-0.091
			c-0.051,0.057-0.109,0.1-0.176,0.131c-0.068,0.03-0.146,0.046-0.234,0.046c-0.105,0-0.2-0.021-0.284-0.065
			c-0.083-0.043-0.155-0.103-0.214-0.179s-0.104-0.167-0.137-0.271c-0.031-0.105-0.047-0.22-0.047-0.343v-0.033H14.138z
			 M14.589,14.131c0,0.069,0.008,0.134,0.02,0.192c0.015,0.06,0.035,0.111,0.063,0.155c0.029,0.044,0.063,0.08,0.108,0.104
			c0.044,0.025,0.094,0.038,0.154,0.038c0.071,0,0.131-0.013,0.181-0.041c0.048-0.027,0.087-0.064,0.114-0.114v-0.711
			c-0.028-0.05-0.066-0.088-0.114-0.114s-0.106-0.04-0.179-0.04c-0.059,0-0.109,0.013-0.152,0.038
			c-0.043,0.024-0.08,0.061-0.109,0.104c-0.029,0.045-0.051,0.098-0.064,0.158s-0.021,0.125-0.021,0.195V14.131z"/>
		<path d="M4.456,17.038c-0.008,0.116-0.034,0.222-0.078,0.319c-0.044,0.097-0.104,0.18-0.181,0.249
			c-0.077,0.068-0.17,0.124-0.281,0.163c-0.109,0.039-0.235,0.059-0.375,0.059c-0.146,0-0.277-0.025-0.393-0.076
			c-0.116-0.051-0.215-0.123-0.295-0.218c-0.081-0.095-0.143-0.209-0.187-0.344c-0.043-0.135-0.064-0.286-0.064-0.454v-0.15
			c0-0.167,0.022-0.318,0.067-0.455c0.044-0.135,0.107-0.25,0.189-0.345s0.181-0.168,0.298-0.219
			c0.116-0.051,0.247-0.077,0.391-0.077c0.142,0,0.267,0.02,0.376,0.06c0.108,0.04,0.201,0.097,0.277,0.167
			c0.076,0.072,0.135,0.156,0.178,0.256c0.043,0.099,0.07,0.205,0.081,0.32H3.99c-0.005-0.067-0.017-0.128-0.035-0.18
			s-0.044-0.096-0.079-0.131c-0.035-0.036-0.079-0.063-0.133-0.081c-0.054-0.019-0.12-0.027-0.197-0.027
			c-0.158,0-0.276,0.059-0.354,0.173c-0.078,0.115-0.117,0.293-0.117,0.535v0.153c0,0.118,0.009,0.221,0.026,0.31
			c0.017,0.088,0.044,0.163,0.081,0.223s0.085,0.104,0.144,0.134c0.059,0.03,0.13,0.044,0.213,0.044
			c0.074,0,0.138-0.008,0.191-0.025c0.053-0.017,0.098-0.042,0.134-0.076c0.036-0.033,0.063-0.076,0.084-0.127
			c0.02-0.051,0.032-0.109,0.037-0.178L4.456,17.038L4.456,17.038z"/>
		<path d="M5.513,17.827c-0.132,0-0.249-0.021-0.353-0.063c-0.104-0.044-0.192-0.102-0.264-0.176
			c-0.073-0.073-0.127-0.161-0.166-0.26c-0.038-0.1-0.057-0.206-0.057-0.32v-0.061c0-0.128,0.018-0.245,0.055-0.353
			c0.037-0.106,0.09-0.198,0.158-0.275c0.068-0.077,0.151-0.137,0.248-0.181c0.098-0.043,0.207-0.064,0.328-0.064
			c0.122,0,0.229,0.02,0.322,0.06c0.093,0.04,0.171,0.097,0.233,0.168c0.063,0.073,0.11,0.16,0.143,0.263
			c0.031,0.103,0.048,0.216,0.048,0.341v0.192H5.131c0.008,0.055,0.022,0.104,0.045,0.149c0.023,0.045,0.051,0.083,0.086,0.115
			c0.035,0.032,0.076,0.057,0.123,0.074c0.047,0.017,0.099,0.025,0.158,0.025c0.082,0,0.158-0.015,0.229-0.046
			c0.069-0.031,0.129-0.078,0.18-0.143l0.222,0.249c-0.027,0.039-0.061,0.076-0.102,0.111c-0.041,0.037-0.089,0.069-0.144,0.099
			c-0.056,0.028-0.118,0.052-0.187,0.068C5.67,17.818,5.595,17.827,5.513,17.827z M5.461,16.439c-0.049,0-0.092,0.009-0.129,0.025
			c-0.037,0.018-0.069,0.042-0.096,0.072c-0.026,0.031-0.048,0.068-0.064,0.11c-0.017,0.043-0.029,0.09-0.036,0.142h0.628v-0.036
			c-0.001-0.045-0.007-0.086-0.02-0.125c-0.012-0.039-0.03-0.071-0.055-0.1c-0.024-0.028-0.056-0.05-0.094-0.066
			C5.557,16.446,5.513,16.439,5.461,16.439z"/>
		<path d="M6.88,16.105L6.894,16.3c0.059-0.072,0.129-0.129,0.211-0.168s0.174-0.059,0.275-0.059c0.08,0,0.153,0.011,0.219,0.033
			c0.065,0.021,0.122,0.06,0.168,0.109c0.047,0.052,0.083,0.118,0.109,0.2c0.025,0.082,0.038,0.184,0.038,0.303v1.075H7.462v-1.078
			c0-0.054-0.006-0.099-0.018-0.134c-0.012-0.036-0.029-0.063-0.052-0.084c-0.023-0.021-0.051-0.036-0.084-0.044
			c-0.033-0.008-0.072-0.013-0.115-0.013c-0.067,0-0.124,0.015-0.171,0.043c-0.047,0.029-0.085,0.068-0.115,0.119v1.191H6.455
			v-1.689H6.88z"/>
		<path d="M8.797,15.689v0.416h0.289v0.331H8.797v0.844c0,0.036,0.003,0.063,0.011,0.087s0.019,0.041,0.033,0.054
			c0.016,0.014,0.033,0.021,0.055,0.026c0.021,0.005,0.045,0.007,0.074,0.007c0.027,0,0.053-0.001,0.074-0.003
			s0.042-0.005,0.059-0.008v0.342c-0.037,0.011-0.078,0.021-0.121,0.029c-0.045,0.008-0.096,0.012-0.151,0.012
			c-0.074,0-0.142-0.009-0.2-0.027c-0.059-0.018-0.11-0.047-0.152-0.087s-0.075-0.091-0.098-0.153
			c-0.023-0.063-0.035-0.141-0.035-0.23v-0.892H8.098v-0.331h0.247v-0.416H8.797z"/>
		<path d="M10.115,17.827c-0.132,0-0.249-0.021-0.353-0.063c-0.104-0.044-0.191-0.102-0.265-0.176
			c-0.072-0.073-0.128-0.161-0.166-0.26c-0.038-0.1-0.058-0.206-0.058-0.32v-0.061c0-0.128,0.02-0.245,0.057-0.353
			c0.037-0.106,0.089-0.198,0.156-0.275c0.068-0.077,0.152-0.137,0.25-0.181c0.097-0.043,0.205-0.064,0.326-0.064
			c0.123,0,0.229,0.02,0.322,0.06c0.094,0.04,0.17,0.097,0.234,0.168c0.063,0.073,0.109,0.16,0.143,0.263
			c0.031,0.103,0.047,0.216,0.047,0.341v0.192H9.733c0.008,0.055,0.022,0.104,0.045,0.149c0.021,0.045,0.051,0.083,0.086,0.115
			s0.076,0.057,0.123,0.074c0.047,0.017,0.1,0.025,0.158,0.025c0.082,0,0.158-0.015,0.228-0.046s0.13-0.078,0.181-0.143l0.221,0.249
			c-0.026,0.039-0.061,0.076-0.102,0.111c-0.04,0.037-0.088,0.069-0.145,0.099c-0.055,0.028-0.116,0.052-0.187,0.068
			C10.272,17.818,10.198,17.827,10.115,17.827z M10.063,16.439c-0.049,0-0.092,0.009-0.129,0.025
			c-0.037,0.018-0.068,0.042-0.096,0.072c-0.027,0.031-0.048,0.068-0.064,0.11c-0.018,0.043-0.028,0.09-0.037,0.142h0.629v-0.036
			c-0.001-0.045-0.008-0.086-0.02-0.125c-0.013-0.039-0.031-0.071-0.056-0.1s-0.056-0.05-0.095-0.066
			C10.159,16.446,10.116,16.439,10.063,16.439z"/>
		<path d="M12.017,16.529c-0.022-0.003-0.05-0.006-0.08-0.009c-0.031-0.002-0.059-0.004-0.082-0.004c-0.09,0-0.16,0.015-0.215,0.044
			c-0.056,0.029-0.096,0.072-0.121,0.129v1.105h-0.453v-1.689h0.428l0.012,0.201c0.043-0.073,0.096-0.131,0.158-0.172
			s0.135-0.062,0.219-0.062c0.023,0,0.049,0.002,0.076,0.006c0.025,0.004,0.048,0.009,0.064,0.014L12.017,16.529z"/>
		<path d="M13.149,17.329c0-0.023-0.004-0.046-0.014-0.064c-0.009-0.021-0.027-0.039-0.053-0.057
			c-0.025-0.017-0.063-0.034-0.105-0.049c-0.045-0.015-0.104-0.03-0.174-0.045c-0.087-0.02-0.166-0.042-0.24-0.07
			c-0.073-0.027-0.138-0.063-0.19-0.104c-0.054-0.042-0.097-0.09-0.125-0.146c-0.03-0.055-0.046-0.12-0.046-0.191
			s0.016-0.139,0.046-0.202c0.03-0.064,0.075-0.12,0.133-0.168s0.128-0.086,0.212-0.115s0.18-0.042,0.284-0.042
			c0.108,0,0.208,0.013,0.295,0.041c0.087,0.027,0.162,0.065,0.224,0.113c0.061,0.048,0.106,0.105,0.141,0.172
			c0.033,0.066,0.049,0.14,0.049,0.219h-0.451c0-0.063-0.021-0.118-0.063-0.16c-0.043-0.042-0.107-0.063-0.195-0.063
			c-0.076,0-0.135,0.017-0.177,0.051c-0.042,0.035-0.063,0.078-0.063,0.131c0,0.025,0.006,0.047,0.018,0.066
			c0.011,0.02,0.027,0.037,0.053,0.053s0.057,0.031,0.098,0.044c0.039,0.014,0.088,0.026,0.147,0.038
			c0.091,0.018,0.176,0.04,0.254,0.065s0.146,0.06,0.203,0.101c0.057,0.041,0.101,0.091,0.133,0.15
			c0.032,0.059,0.048,0.13,0.048,0.213c0,0.074-0.018,0.144-0.05,0.207c-0.033,0.063-0.081,0.116-0.144,0.163
			c-0.062,0.046-0.137,0.081-0.224,0.107c-0.088,0.026-0.187,0.039-0.294,0.039c-0.119,0-0.225-0.017-0.314-0.05
			c-0.09-0.034-0.166-0.077-0.229-0.131c-0.063-0.055-0.107-0.115-0.141-0.184c-0.03-0.066-0.047-0.136-0.047-0.205h0.429
			c0.002,0.044,0.012,0.082,0.028,0.113c0.018,0.032,0.041,0.058,0.068,0.078c0.028,0.02,0.061,0.034,0.098,0.043
			s0.076,0.014,0.117,0.014c0.086,0,0.151-0.017,0.196-0.049S13.149,17.382,13.149,17.329z"/>
	</g>
</g>
<g>
	<g>
		<path fill="#6D6E70" d="M15.758,5.152c-0.555-0.001-0.993-0.439-0.995-0.99c0-0.55,0.438-0.989,0.994-0.992
			c0.012,0,0.021,0.007,0.034,0.007c0-0.139,0-0.27,0-0.397c-0.011,0-0.019-0.003-0.028-0.003C15,2.773,14.369,3.389,14.367,4.14
			c0,0.787,0.608,1.403,1.389,1.407c0.013,0,0.022-0.003,0.034-0.003c0-0.128,0-0.259,0-0.397
			C15.78,5.146,15.771,5.152,15.758,5.152z"/>
		<path fill="#6D6E70" d="M13.511,3.962c0.098,0,0.194-0.003,0.293,0c0.129,0.005,0.209,0.085,0.207,0.203
			c-0.003,0.111-0.08,0.191-0.205,0.194c-0.201,0.003-0.404,0.003-0.606,0c-0.136-0.003-0.179-0.06-0.177-0.214
			c0.002-0.128,0.049-0.179,0.186-0.182C13.31,3.961,13.411,3.962,13.511,3.962L13.511,3.962z"/>
		<path fill="#6D6E70" d="M13.519,5.572c-0.056-0.052-0.131-0.094-0.164-0.157c-0.043-0.081-0.016-0.175,0.065-0.226
			c0.187-0.113,0.375-0.221,0.567-0.321c0.103-0.053,0.212-0.012,0.261,0.079c0.046,0.088,0.022,0.203-0.065,0.256
			C14,5.314,13.813,5.417,13.627,5.522c-0.026,0.015-0.058,0.019-0.088,0.025C13.533,5.558,13.524,5.564,13.519,5.572z"/>
		<path fill="#6D6E70" d="M14.079,3.489c-0.072-0.031-0.115-0.043-0.156-0.066c-0.154-0.087-0.311-0.176-0.465-0.266
			C13.336,3.084,13.3,2.978,13.36,2.874c0.056-0.098,0.17-0.128,0.283-0.065c0.17,0.092,0.338,0.188,0.506,0.289
			c0.092,0.053,0.134,0.143,0.086,0.236C14.203,3.399,14.13,3.442,14.079,3.489z"/>
		<path fill="#6D6E70" d="M14.455,1.906c0.024,0.02,0.093,0.051,0.126,0.104c0.104,0.164,0.197,0.334,0.291,0.504
			c0.059,0.105,0.029,0.22-0.063,0.275c-0.102,0.063-0.213,0.035-0.279-0.076c-0.1-0.169-0.2-0.34-0.293-0.515
			C14.16,2.05,14.253,1.901,14.455,1.906z"/>
		<path fill="#6D6E70" d="M14.446,6.416c-0.18,0-0.282-0.14-0.219-0.267c0.097-0.194,0.207-0.38,0.32-0.567
			c0.055-0.087,0.167-0.104,0.258-0.052c0.086,0.049,0.129,0.161,0.079,0.253c-0.1,0.187-0.206,0.372-0.319,0.552
			C14.535,6.381,14.468,6.401,14.446,6.416z"/>
		<path fill="#6D6E70" d="M15.792,2.081c0,0.099,0.001,0.194,0,0.292c-0.004,0.123-0.084,0.206-0.191,0.208
			c-0.11,0-0.195-0.079-0.197-0.202c-0.004-0.197-0.004-0.396,0-0.594c0.002-0.122,0.082-0.195,0.199-0.196
			c0.111-0.001,0.184,0.067,0.189,0.19C15.794,1.88,15.791,1.98,15.792,2.081C15.791,2.081,15.791,2.081,15.792,2.081z"/>
		<path fill="#6D6E70" d="M15.79,6.243c0,0.101,0.004,0.201-0.002,0.303c-0.005,0.114-0.09,0.191-0.195,0.19
			s-0.189-0.082-0.189-0.195c-0.004-0.203-0.004-0.405,0-0.605c0.002-0.117,0.094-0.201,0.203-0.197
			c0.103,0.003,0.18,0.084,0.185,0.202C15.795,6.041,15.791,6.141,15.79,6.243C15.791,6.243,15.791,6.243,15.79,6.243z"/>
	</g>
	<g>
		<path fill="#6D6E70" d="M4.521,7.561c0.211,0.241,0.428,0.351,0.704,0.225C5.54,7.643,5.623,7.25,5.378,6.987
			C5.278,6.878,5.27,6.788,5.3,6.656c0.133-0.562,0.262-1.123,0.37-1.687c0.036-0.179,0.118-0.306,0.28-0.316
			C6.039,4.648,6.138,4.762,6.244,4.83C5.895,5.299,5.759,5.79,5.897,6.337c0.104,0.421,0.344,0.754,0.705,0.99
			c0.701,0.458,1.611,0.326,2.147-0.308c0.531-0.63,0.507-1.545-0.047-2.187C8.246,4.306,7.293,4.01,6.459,4.634
			C6.333,4.521,6.176,4.449,6.196,4.216c0.006-0.082-0.135-0.178-0.208-0.267c-0.014,0.008-0.027,0.015-0.04,0.024
			c0.014-0.078,0.031-0.155,0.048-0.237c0.087,0.018,0.163,0.051,0.233,0.04c0.065-0.013,0.121-0.07,0.183-0.108
			C6.374,3.607,6.35,3.51,6.296,3.491C6.169,3.444,6.03,3.416,5.893,3.414c-0.055,0-0.142,0.069-0.162,0.126
			c-0.05,0.142-0.07,0.291-0.102,0.443C5.403,3.991,5.188,4.007,4.971,4.002C4.914,4,4.848,3.95,4.801,3.906
			C4.42,3.543,4.045,3.174,3.664,2.812C3.468,2.624,3.327,2.627,3.133,2.82C2.754,3.197,2.375,3.573,2.008,3.96
			c-0.22,0.229-0.335,0.512-0.206,0.824C1.869,4.942,1.992,5.098,2.129,5.2C2.386,5.388,2.67,5.54,2.945,5.7
			c0.091,0.051,0.12,0.106,0.102,0.209C3.014,6.1,2.995,6.293,2.967,6.501C2.33,6.54,1.833,6.809,1.526,7.379
			c-0.204,0.38-0.247,0.785-0.132,1.203c0.235,0.866,1.111,1.395,1.96,1.198C4.197,9.587,4.869,8.702,4.521,7.561z M6.747,4.936
			c0.367-0.395,1.168-0.346,1.615,0.091c0.505,0.49,0.52,1.316,0.034,1.81C7.899,7.341,7.077,7.334,6.589,6.822
			c-0.456-0.481-0.491-1.265-0.062-1.67c0.25,0.253,0.499,0.505,0.75,0.757c0.075,0.074,0.164,0.167,0.271,0.068
			c0.115-0.106,0.037-0.199-0.051-0.285C7.247,5.442,6.998,5.187,6.747,4.936z M4.146,7.758c0.201,0.47,0.031,1.08-0.378,1.402
			C3.313,9.52,2.68,9.53,2.225,9.184c-0.48-0.365-0.641-0.967-0.407-1.532C2.002,7.206,2.502,6.87,2.913,6.927
			c-0.05,0.385-0.101,0.768-0.141,1.154C2.764,8.157,2.781,8.275,2.829,8.31C2.88,8.344,2.993,8.318,3.064,8.286
			C3.424,8.118,3.778,7.938,4.146,7.758z M4.959,6.8C4.739,6.48,4.51,6.215,4.366,5.908C4.304,5.774,4.359,5.476,4.467,5.395
			c0.258-0.195,0.58-0.308,0.91-0.471C5.234,5.567,5.102,6.163,4.959,6.8z M3.888,3.851C4.102,4.07,4.305,4.265,4.492,4.474
			c0.103,0.114,0.209,0.154,0.36,0.132c0.153-0.024,0.311-0.024,0.466-0.034c0,0.007,0,0.015,0,0.022
			C5.091,4.707,4.863,4.819,4.631,4.933C4.574,4.6,4.495,4.527,4.165,4.493C3.909,4.466,3.653,4.438,3.363,4.408
			C3.55,4.209,3.71,4.039,3.888,3.851z M3.085,7.929c0.047-0.348,0.09-0.67,0.134-1.003c0.349,0.08,0.609,0.251,0.798,0.543
			C3.705,7.624,3.409,7.77,3.085,7.929z M3.347,5.953c0.344,0.169,0.346,0.169,0.374,0.533c0.012,0.166,0.135,0.173,0.253,0.193
			c0.051,0.007,0.122-0.006,0.15,0.024C4.25,6.832,4.367,6.971,4.477,7.115c0.02,0.027-0.016,0.096-0.025,0.146
			C4.405,7.249,4.35,7.25,4.316,7.222C4.266,7.18,4.232,7.115,4.187,7.063c-0.241-0.279-0.554-0.44-0.914-0.531
			C3.297,6.337,3.321,6.154,3.347,5.953z M3.543,5.145c0.003-0.012,0.006-0.022,0.008-0.032c0.096,0.009,0.193,0.019,0.304,0.031
			c-0.014,0.067-0.025,0.13-0.039,0.21C3.71,5.272,3.627,5.208,3.543,5.145z"/>
		<path fill="#6D6E70" d="M3.711,2.493c0.151,0.313,0.536,0.453,0.84,0.304c0.31-0.149,0.438-0.527,0.289-0.846
			C4.687,1.63,4.301,1.497,3.984,1.655C3.689,1.804,3.563,2.19,3.711,2.493z"/>
	</g>
	<polygon fill="#6D6E70" points="0.52,9.857 3.058,9.219 3.495,9.375 4.276,9.058 4.715,9.058 5.883,8.86 6.09,8.329 6.948,7.86 
		7.401,7.86 7.726,7.638 8.236,7.366 8.761,6.894 9.761,6.471 10.638,6.471 11.421,6.782 12.065,6.811 12.323,6.719 12.657,5.917 
		13.429,5.612 13.862,5.487 14.295,5.612 14.834,5.486 15.466,5.165 15.804,4.964 15.804,7.266 15.804,11.068 0.52,11.235 	"/>
</g>
</svg>
