<?xml version="1.0" encoding="utf-8"?>
<!-- Generator: Adobe Illustrator 16.0.0, SVG Export Plug-In . SVG Version: 6.00 Build 0)  -->
<!DOCTYPE svg PUBLIC "-//W3C//DTD SVG 1.1//EN" "http://www.w3.org/Graphics/SVG/1.1/DTD/svg11.dtd">
<svg version="1.1" id="Layer_1" xmlns="http://www.w3.org/2000/svg" xmlns:xlink="http://www.w3.org/1999/xlink" x="0px" y="0px"
	 width="16.08px" height="18.48px" viewBox="0 0 16.08 18.48" enable-background="new 0 0 16.08 18.48" xml:space="preserve">
<g>
	<g>
		<path d="M1.836,14.359c0-0.04-0.006-0.075-0.017-0.107c-0.012-0.032-0.034-0.061-0.066-0.088c-0.033-0.026-0.078-0.054-0.136-0.08
			c-0.058-0.025-0.133-0.053-0.225-0.083c-0.104-0.033-0.202-0.07-0.294-0.112c-0.092-0.042-0.173-0.092-0.242-0.147
			s-0.124-0.122-0.164-0.196c-0.04-0.073-0.06-0.16-0.06-0.259c0-0.095,0.021-0.181,0.062-0.26s0.099-0.146,0.174-0.201
			c0.074-0.055,0.163-0.098,0.266-0.129s0.215-0.046,0.338-0.046c0.126,0,0.241,0.018,0.344,0.052
			c0.104,0.035,0.191,0.083,0.264,0.146c0.073,0.063,0.129,0.137,0.168,0.223c0.04,0.086,0.06,0.18,0.06,0.282H1.837
			c0-0.048-0.008-0.093-0.022-0.134C1.8,13.18,1.777,13.145,1.746,13.115c-0.031-0.029-0.07-0.052-0.117-0.068
			c-0.047-0.016-0.103-0.023-0.166-0.023c-0.062,0-0.115,0.007-0.16,0.02C1.257,13.057,1.219,13.076,1.19,13.1
			c-0.03,0.023-0.052,0.052-0.067,0.084C1.108,13.216,1.1,13.251,1.1,13.287c0,0.075,0.038,0.138,0.115,0.188
			c0.077,0.051,0.189,0.098,0.336,0.142c0.124,0.039,0.233,0.081,0.328,0.128c0.095,0.047,0.173,0.1,0.236,0.159
			c0.063,0.06,0.111,0.126,0.143,0.2c0.032,0.073,0.048,0.158,0.048,0.251c0,0.1-0.02,0.188-0.059,0.267s-0.095,0.145-0.166,0.198
			c-0.072,0.054-0.159,0.095-0.261,0.124s-0.215,0.043-0.34,0.043c-0.075,0-0.149-0.006-0.225-0.021
			c-0.076-0.014-0.146-0.032-0.215-0.06c-0.068-0.027-0.132-0.061-0.19-0.102s-0.109-0.089-0.152-0.145
			c-0.043-0.055-0.077-0.118-0.102-0.188c-0.025-0.07-0.037-0.148-0.037-0.234h0.47c0,0.069,0.011,0.127,0.033,0.175
			S1.115,14.5,1.154,14.53c0.039,0.03,0.086,0.051,0.141,0.064c0.055,0.015,0.117,0.021,0.184,0.021c0.061,0,0.113-0.007,0.158-0.02
			c0.045-0.014,0.082-0.031,0.111-0.055c0.029-0.022,0.051-0.05,0.065-0.082C1.829,14.43,1.836,14.396,1.836,14.359z"/>
		<path d="M4.064,14.342l0.222-1.075h0.436L4.29,14.956H3.913l-0.32-1.063l-0.32,1.063H2.896l-0.431-1.689H2.9l0.221,1.074
			l0.309-1.074h0.327L4.064,14.342z"/>
		<path d="M4.942,12.828c0-0.068,0.022-0.124,0.068-0.167c0.045-0.043,0.107-0.064,0.185-0.064c0.039,0,0.074,0.006,0.105,0.017
			c0.031,0.012,0.058,0.028,0.08,0.048c0.022,0.021,0.039,0.046,0.051,0.074c0.012,0.029,0.018,0.06,0.018,0.093
			c0,0.034-0.006,0.066-0.018,0.094c-0.012,0.029-0.029,0.055-0.051,0.074c-0.022,0.021-0.048,0.037-0.08,0.048
			c-0.031,0.013-0.066,0.019-0.105,0.019s-0.073-0.006-0.104-0.019c-0.031-0.011-0.058-0.026-0.08-0.048
			c-0.022-0.021-0.039-0.045-0.051-0.074C4.948,12.894,4.942,12.862,4.942,12.828z M5.422,14.956H4.969v-1.689h0.453V14.956z"/>
		<path d="M6.217,13.266l0.014,0.188c0.057-0.069,0.125-0.123,0.206-0.162s0.174-0.059,0.28-0.059c0.101,0,0.19,0.02,0.268,0.061
			c0.078,0.041,0.138,0.106,0.181,0.197c0.056-0.081,0.125-0.144,0.209-0.189c0.083-0.045,0.184-0.067,0.299-0.067
			c0.083,0,0.157,0.011,0.225,0.034c0.067,0.022,0.124,0.06,0.172,0.11c0.047,0.052,0.083,0.118,0.109,0.199
			c0.025,0.082,0.038,0.182,0.038,0.301v1.077H7.764V13.88c0-0.056-0.006-0.103-0.018-0.139c-0.012-0.036-0.029-0.064-0.051-0.085
			c-0.022-0.021-0.048-0.034-0.08-0.042c-0.032-0.008-0.066-0.012-0.106-0.012c-0.069,0-0.128,0.017-0.175,0.052
			s-0.082,0.082-0.106,0.141c0,0.005,0,0.012,0.001,0.019c0,0.006,0.001,0.012,0.001,0.017v1.126H6.778v-1.073
			c0-0.057-0.005-0.103-0.017-0.139c-0.012-0.037-0.028-0.064-0.05-0.086c-0.022-0.021-0.048-0.036-0.081-0.044
			c-0.032-0.008-0.067-0.012-0.107-0.012c-0.067,0-0.123,0.014-0.168,0.042c-0.045,0.027-0.083,0.066-0.109,0.116v1.195H5.793
			v-1.689H6.217z"/>
		<path d="M8.987,13.266l0.015,0.188c0.058-0.069,0.125-0.123,0.206-0.162s0.174-0.059,0.281-0.059c0.101,0,0.189,0.02,0.268,0.061
			s0.139,0.106,0.182,0.197c0.055-0.081,0.125-0.144,0.207-0.189c0.084-0.045,0.185-0.067,0.299-0.067
			c0.082,0,0.158,0.011,0.225,0.034c0.066,0.022,0.125,0.06,0.172,0.11c0.047,0.052,0.083,0.118,0.109,0.199
			c0.025,0.082,0.039,0.182,0.039,0.301v1.077h-0.453V13.88c0-0.056-0.006-0.103-0.02-0.139c-0.012-0.036-0.027-0.064-0.051-0.085
			c-0.021-0.021-0.048-0.034-0.078-0.042c-0.031-0.008-0.068-0.012-0.107-0.012c-0.069,0-0.127,0.017-0.174,0.052
			S10.022,13.736,10,13.795c0,0.005,0,0.012,0.001,0.019c0,0.006,0,0.012,0,0.017v1.126H9.548v-1.073
			c0-0.057-0.006-0.103-0.018-0.139c-0.01-0.036-0.027-0.064-0.049-0.086c-0.021-0.021-0.049-0.036-0.08-0.044
			c-0.032-0.008-0.067-0.012-0.107-0.012c-0.066,0-0.123,0.014-0.168,0.042c-0.045,0.027-0.083,0.066-0.109,0.116v1.195H8.563
			v-1.689H8.987z"/>
		<path d="M11.332,12.828c0-0.068,0.022-0.124,0.067-0.167s0.106-0.064,0.186-0.064c0.038,0,0.073,0.006,0.104,0.017
			c0.031,0.012,0.059,0.028,0.08,0.048c0.021,0.021,0.039,0.046,0.051,0.074c0.013,0.029,0.019,0.06,0.019,0.093
			c0,0.034-0.006,0.066-0.019,0.094c-0.012,0.029-0.028,0.055-0.051,0.074c-0.021,0.021-0.049,0.037-0.08,0.048
			c-0.03,0.013-0.065,0.019-0.104,0.019c-0.039,0-0.072-0.006-0.104-0.019c-0.031-0.011-0.059-0.026-0.08-0.048
			c-0.021-0.021-0.039-0.045-0.051-0.074C11.337,12.894,11.332,12.862,11.332,12.828z M11.812,14.956h-0.453v-1.689h0.453V14.956z"
			/>
		<path d="M12.599,13.266l0.014,0.194c0.058-0.072,0.128-0.129,0.211-0.168c0.082-0.039,0.174-0.059,0.275-0.059
			c0.08,0,0.152,0.011,0.219,0.033c0.065,0.021,0.121,0.06,0.168,0.109c0.048,0.051,0.084,0.118,0.109,0.2
			c0.024,0.082,0.038,0.183,0.038,0.303v1.075h-0.452v-1.078c0-0.054-0.006-0.099-0.018-0.134c-0.012-0.036-0.029-0.063-0.053-0.084
			c-0.022-0.021-0.051-0.036-0.084-0.044c-0.032-0.009-0.071-0.013-0.115-0.013c-0.066,0-0.124,0.015-0.171,0.043
			c-0.048,0.028-0.087,0.068-0.115,0.119v1.191h-0.452v-1.689H12.599z"/>
		<path d="M13.91,14.098c0-0.129,0.016-0.245,0.047-0.353c0.032-0.105,0.077-0.197,0.136-0.272c0.059-0.076,0.131-0.136,0.215-0.177
			c0.084-0.042,0.18-0.063,0.287-0.063c0.098,0,0.184,0.017,0.254,0.05c0.069,0.033,0.129,0.08,0.178,0.141l0.02-0.158h0.409v1.633
			c0,0.115-0.021,0.218-0.06,0.308c-0.039,0.089-0.096,0.166-0.166,0.229c-0.071,0.062-0.158,0.107-0.256,0.141
			c-0.101,0.032-0.209,0.047-0.332,0.047c-0.052,0-0.106-0.005-0.166-0.016c-0.059-0.011-0.115-0.026-0.172-0.048
			c-0.057-0.022-0.111-0.05-0.162-0.083s-0.094-0.073-0.129-0.119l0.199-0.275c0.053,0.061,0.114,0.105,0.182,0.14
			c0.068,0.032,0.145,0.05,0.228,0.05c0.12,0,0.213-0.032,0.28-0.097c0.065-0.063,0.1-0.154,0.1-0.271v-0.091
			c-0.05,0.057-0.109,0.1-0.177,0.131c-0.067,0.03-0.146,0.046-0.234,0.046c-0.104,0-0.198-0.021-0.282-0.065
			c-0.084-0.043-0.156-0.103-0.215-0.179c-0.06-0.076-0.104-0.167-0.136-0.271c-0.032-0.105-0.047-0.22-0.047-0.343V14.098z
			 M14.36,14.131c0,0.069,0.008,0.134,0.021,0.192s0.034,0.111,0.063,0.155c0.029,0.044,0.064,0.08,0.107,0.104
			c0.043,0.025,0.096,0.038,0.154,0.038c0.07,0,0.132-0.013,0.18-0.041c0.049-0.027,0.086-0.064,0.115-0.114v-0.711
			c-0.029-0.05-0.066-0.088-0.115-0.114c-0.047-0.026-0.107-0.04-0.177-0.04c-0.06,0-0.11,0.013-0.153,0.038
			c-0.043,0.024-0.08,0.061-0.109,0.104c-0.028,0.044-0.051,0.098-0.063,0.158c-0.015,0.061-0.021,0.125-0.021,0.195v0.034H14.36z"
			/>
		<path d="M4.624,16.994v0.802H4.155v-2.274h0.887c0.135,0,0.255,0.019,0.36,0.056s0.195,0.09,0.269,0.157
			c0.074,0.066,0.13,0.146,0.168,0.239c0.039,0.092,0.058,0.191,0.058,0.301s-0.019,0.21-0.058,0.298
			c-0.038,0.089-0.094,0.164-0.168,0.227c-0.073,0.063-0.163,0.111-0.269,0.146c-0.105,0.034-0.226,0.051-0.36,0.051L4.624,16.994
			L4.624,16.994z M4.624,16.615h0.418c0.067,0,0.125-0.008,0.173-0.025c0.049-0.017,0.088-0.04,0.119-0.069
			c0.03-0.03,0.053-0.065,0.067-0.107c0.014-0.042,0.022-0.087,0.022-0.136s-0.008-0.096-0.022-0.143
			c-0.014-0.046-0.037-0.085-0.067-0.119c-0.031-0.035-0.07-0.063-0.119-0.084C5.167,15.911,5.109,15.9,5.042,15.9H4.624V16.615z"/>
		<path d="M6.119,16.935c0-0.123,0.018-0.237,0.053-0.343c0.035-0.104,0.087-0.195,0.155-0.271c0.068-0.077,0.151-0.137,0.25-0.181
			c0.099-0.044,0.213-0.065,0.34-0.065c0.128,0,0.242,0.021,0.342,0.065c0.1,0.044,0.184,0.104,0.252,0.181
			c0.068,0.076,0.12,0.167,0.155,0.271c0.036,0.105,0.053,0.22,0.053,0.343v0.032c0,0.124-0.018,0.238-0.053,0.344
			c-0.035,0.104-0.087,0.194-0.155,0.271c-0.068,0.077-0.152,0.137-0.251,0.181c-0.099,0.043-0.212,0.064-0.34,0.064
			s-0.242-0.021-0.341-0.064c-0.1-0.044-0.184-0.104-0.252-0.181c-0.068-0.077-0.12-0.167-0.155-0.271
			c-0.035-0.104-0.053-0.22-0.053-0.344V16.935z M6.571,16.968c0,0.069,0.006,0.134,0.019,0.194
			c0.013,0.062,0.033,0.113,0.061,0.157c0.027,0.044,0.063,0.08,0.107,0.104c0.044,0.026,0.099,0.039,0.164,0.039
			c0.063,0,0.116-0.013,0.16-0.039c0.044-0.025,0.081-0.061,0.108-0.104c0.028-0.044,0.048-0.096,0.061-0.157
			c0.013-0.061,0.019-0.125,0.019-0.194v-0.032c0-0.067-0.006-0.13-0.019-0.19c-0.013-0.06-0.033-0.112-0.061-0.158
			c-0.028-0.045-0.064-0.082-0.109-0.107c-0.044-0.026-0.099-0.04-0.163-0.04c-0.063,0-0.116,0.014-0.16,0.04
			c-0.044,0.025-0.08,0.063-0.107,0.107c-0.028,0.045-0.048,0.099-0.061,0.158c-0.012,0.061-0.019,0.123-0.019,0.19V16.968z"/>
		<path d="M7.929,16.935c0-0.123,0.018-0.237,0.053-0.343c0.035-0.104,0.087-0.195,0.155-0.271c0.068-0.077,0.151-0.137,0.25-0.181
			c0.099-0.044,0.213-0.065,0.34-0.065s0.242,0.021,0.342,0.065s0.184,0.104,0.252,0.181c0.068,0.076,0.119,0.167,0.154,0.271
			c0.037,0.105,0.053,0.22,0.053,0.343v0.032c0,0.124-0.018,0.238-0.053,0.344c-0.035,0.104-0.086,0.194-0.154,0.271
			s-0.152,0.137-0.252,0.181c-0.098,0.043-0.211,0.064-0.34,0.064c-0.127,0-0.242-0.021-0.34-0.064
			c-0.1-0.044-0.184-0.104-0.252-0.181c-0.068-0.077-0.12-0.167-0.155-0.271s-0.053-0.22-0.053-0.344V16.935z M8.38,16.968
			c0,0.069,0.006,0.134,0.019,0.194c0.013,0.062,0.033,0.113,0.061,0.157c0.027,0.044,0.063,0.08,0.107,0.104
			c0.043,0.026,0.099,0.039,0.164,0.039c0.063,0,0.115-0.013,0.16-0.039c0.043-0.025,0.08-0.061,0.107-0.104
			s0.048-0.096,0.061-0.157c0.014-0.061,0.02-0.125,0.02-0.194v-0.032c0-0.067-0.006-0.13-0.02-0.19
			c-0.013-0.06-0.033-0.112-0.061-0.158c-0.027-0.045-0.064-0.082-0.109-0.107c-0.043-0.026-0.099-0.04-0.162-0.04
			s-0.117,0.014-0.16,0.04c-0.044,0.025-0.081,0.063-0.107,0.107c-0.028,0.045-0.048,0.099-0.061,0.158
			c-0.012,0.061-0.019,0.123-0.019,0.19V16.968z"/>
		<path d="M10.285,17.796H9.832v-2.399h0.453V17.796z"/>
		<path d="M11.573,17.329c0-0.023-0.006-0.046-0.016-0.064c-0.009-0.021-0.027-0.039-0.053-0.057
			c-0.025-0.017-0.063-0.034-0.105-0.049c-0.045-0.015-0.104-0.03-0.174-0.045c-0.086-0.02-0.166-0.042-0.24-0.07
			c-0.072-0.027-0.137-0.063-0.189-0.104c-0.054-0.042-0.096-0.09-0.126-0.146c-0.03-0.055-0.045-0.12-0.045-0.191
			s0.015-0.139,0.046-0.202c0.03-0.063,0.075-0.12,0.133-0.168c0.059-0.048,0.129-0.086,0.213-0.115
			c0.084-0.028,0.178-0.042,0.283-0.042c0.109,0,0.208,0.013,0.295,0.041c0.088,0.027,0.162,0.065,0.223,0.113
			c0.062,0.048,0.108,0.105,0.142,0.172s0.049,0.14,0.049,0.219h-0.452c0-0.063-0.021-0.118-0.063-0.16s-0.105-0.063-0.195-0.063
			c-0.076,0-0.135,0.017-0.177,0.051c-0.042,0.035-0.063,0.078-0.063,0.131c0,0.025,0.006,0.047,0.018,0.066
			c0.011,0.02,0.029,0.037,0.053,0.053s0.057,0.031,0.098,0.044c0.039,0.014,0.088,0.026,0.146,0.038
			c0.092,0.018,0.177,0.04,0.255,0.065s0.146,0.06,0.202,0.101c0.056,0.041,0.102,0.091,0.134,0.15
			c0.032,0.059,0.048,0.13,0.048,0.213c0,0.074-0.017,0.144-0.05,0.207c-0.032,0.063-0.081,0.116-0.144,0.163
			c-0.063,0.046-0.137,0.081-0.225,0.107c-0.087,0.026-0.186,0.039-0.294,0.039c-0.118,0-0.223-0.017-0.313-0.05
			c-0.09-0.034-0.166-0.077-0.229-0.131c-0.063-0.055-0.107-0.115-0.14-0.184c-0.031-0.066-0.048-0.136-0.048-0.205h0.429
			c0.002,0.044,0.012,0.082,0.028,0.113c0.019,0.032,0.041,0.058,0.068,0.078c0.028,0.02,0.061,0.034,0.098,0.043
			s0.076,0.014,0.117,0.014c0.086,0,0.15-0.017,0.195-0.049C11.55,17.425,11.573,17.382,11.573,17.329z"/>
	</g>
</g>
<g>
	<path fill="#6D6E70" d="M12.588,9.593c-1.092,0.91-2.396,0.714-3.202-0.006c-0.449,0.406-0.988,0.62-1.597,0.617
		c-0.599-0.002-1.134-0.2-1.593-0.624C5.741,10,5.198,10.208,4.59,10.204c-0.597-0.003-1.134-0.199-1.531-0.573
		c-0.441,0.212-0.85,0.408-1.315,0.632c0-0.505,0-0.911,0-1.276C2.177,8.78,2.597,8.581,3.059,8.362
		c0.396,0.364,0.938,0.577,1.543,0.575c0.597-0.001,1.133-0.208,1.593-0.631c0.452,0.421,0.995,0.631,1.6,0.63
		c0.597,0,1.134-0.206,1.591-0.626c0.461,0.414,0.999,0.628,1.606,0.626c0.6-0.003,1.131-0.214,1.59-0.623
		c0.534,0.48,1.167,0.659,1.888,0.624c0,0.41,0,0.811,0,1.239C13.748,10.273,13.129,10.054,12.588,9.593z"/>
	<path fill="#6D6E70" d="M12.588,6.9c-1.092,0.91-2.396,0.713-3.202-0.006C8.937,7.3,8.398,7.514,7.79,7.51
		C7.191,7.509,6.656,7.311,6.197,6.887C5.741,7.307,5.198,7.515,4.59,7.51C3.993,7.508,3.456,7.312,3.06,6.938
		C2.618,7.15,2.209,7.346,1.744,7.569c0-0.504,0-0.911,0-1.276c0.433-0.206,0.853-0.404,1.315-0.624
		c0.396,0.364,0.938,0.577,1.543,0.575c0.597-0.001,1.133-0.208,1.593-0.631c0.452,0.421,0.995,0.631,1.6,0.63
		c0.597-0.001,1.134-0.207,1.591-0.626c0.461,0.414,0.999,0.628,1.606,0.626c0.6-0.003,1.131-0.214,1.59-0.623
		c0.534,0.481,1.167,0.659,1.888,0.624c0,0.41,0,0.812,0,1.24C13.748,7.581,13.129,7.361,12.588,6.9z"/>
	<path fill="#6D6E70" d="M12.588,4.207c-1.092,0.91-2.396,0.713-3.202-0.006c-0.449,0.406-0.988,0.62-1.597,0.617
		c-0.599-0.002-1.134-0.2-1.593-0.624C5.741,4.614,5.198,4.822,4.59,4.818C3.993,4.815,3.456,4.619,3.06,4.245
		C2.619,4.457,2.21,4.653,1.745,4.876c0-0.504,0-0.911,0-1.275C2.178,3.394,2.598,3.195,3.06,2.976
		C3.455,3.34,3.997,3.552,4.602,3.552C5.199,3.55,5.735,3.344,6.195,2.921c0.452,0.421,0.995,0.631,1.6,0.63
		C8.392,3.55,8.929,3.344,9.386,2.924c0.461,0.414,0.999,0.628,1.606,0.626c0.6-0.003,1.131-0.214,1.59-0.623
		c0.534,0.481,1.167,0.659,1.888,0.624c0,0.41,0,0.812,0,1.24C13.748,4.888,13.129,4.668,12.588,4.207z"/>
</g>
</svg>
