<?xml version="1.0" encoding="utf-8"?>
<!-- Generator: Adobe Illustrator 16.0.0, SVG Export Plug-In . SVG Version: 6.00 Build 0)  -->
<!DOCTYPE svg PUBLIC "-//W3C//DTD SVG 1.1//EN" "http://www.w3.org/Graphics/SVG/1.1/DTD/svg11.dtd">
<svg version="1.1" id="Layer_1" xmlns="http://www.w3.org/2000/svg" xmlns:xlink="http://www.w3.org/1999/xlink" x="0px" y="0px"
	 width="16.08px" height="18.48px" viewBox="0 0 16.08 18.48" enable-background="new 0 0 16.08 18.48" xml:space="preserve">
<path fill-rule="evenodd" clip-rule="evenodd" fill="#6D6E70" d="M13.003,5.651c0,0.334,0,0.667,0,1.001
	c-0.019,0.042-0.049,0.082-0.056,0.125c-0.266,1.712-1.197,2.926-2.771,3.629c-0.416,0.188-0.879,0.265-1.321,0.393
	c-0.333,0-0.667,0-1.001,0c-0.053-0.021-0.105-0.051-0.16-0.06c-1.638-0.265-2.828-1.147-3.535-2.638
	C3.943,7.65,3.854,7.137,3.708,6.652c0-0.333,0-0.667,0-1.001c0.02-0.053,0.051-0.105,0.06-0.16c0.261-1.64,1.147-2.826,2.636-3.536
	c0.452-0.216,0.966-0.304,1.45-0.45c0.334,0,0.667,0,1.001,0c0.054,0.02,0.105,0.05,0.161,0.059c1.623,0.261,2.81,1.131,3.519,2.606
	C12.759,4.631,12.851,5.156,13.003,5.651z M8.147,3.93c-0.525,0-1.012-0.005-1.499,0.006C6.575,3.937,6.452,3.999,6.435,4.058
	C6.25,4.67,6.118,5.291,6.146,5.929c0.694,0,1.343,0,2.002,0C8.147,5.259,8.147,4.62,8.147,3.93z M8.575,3.93
	c0,0.701,0,1.35,0,2.003c0.675,0,1.322,0,2.066,0c-0.122-0.644-0.23-1.246-0.357-1.844c-0.014-0.063-0.123-0.15-0.191-0.152
	C9.596,3.925,9.098,3.93,8.575,3.93z M8.141,6.378c-0.677,0-1.332,0-2.071,0c0.116,0.625,0.219,1.209,0.34,1.787
	c0.017,0.08,0.122,0.198,0.19,0.199c0.508,0.017,1.017,0.01,1.541,0.01C8.141,7.684,8.141,7.036,8.141,6.378z M8.579,6.366
	c0,0.691,0,1.339,0,2.008c0.517,0,1.003,0.005,1.489-0.007c0.073-0.001,0.197-0.071,0.209-0.129
	c0.129-0.609,0.241-1.222,0.364-1.872C9.89,6.366,9.242,6.366,8.579,6.366z M5.696,5.94c0.1-0.673,0.196-1.326,0.297-2.01
	c-0.373,0-0.752-0.003-1.131,0.004c-0.06,0.001-0.146,0.041-0.175,0.089C4.346,4.612,4.128,5.238,4.13,5.94
	C4.684,5.94,5.191,5.94,5.696,5.94z M10.717,3.93c0.101,0.682,0.197,1.335,0.296,2.004c0.515,0,1.031,0,1.578,0
	c-0.022-0.693-0.219-1.307-0.547-1.881c-0.033-0.059-0.127-0.116-0.194-0.118C11.471,3.925,11.092,3.93,10.717,3.93z M4.12,6.362
	C4.139,7.056,4.336,7.66,4.653,8.227c0.038,0.067,0.141,0.137,0.217,0.14c0.378,0.013,0.757,0.007,1.125,0.007
	C5.892,7.686,5.794,7.032,5.693,6.362C5.185,6.362,4.677,6.362,4.12,6.362z M10.715,8.374c0.368,0,0.746,0.002,1.125-0.004
	c0.061-0.001,0.149-0.036,0.178-0.083c0.346-0.589,0.564-1.214,0.563-1.912c-0.554,0-1.068,0-1.565,0
	C10.913,7.051,10.817,7.696,10.715,8.374z M8.139,1.919C7.318,2.177,6.956,2.801,6.625,3.5c0.536,0,1.025,0,1.513,0
	C8.139,2.966,8.139,2.462,8.139,1.919z M10.091,3.512C9.753,2.799,9.388,2.175,8.575,1.917c0,0.557,0,1.07,0,1.596
	C9.081,3.512,9.56,3.512,10.091,3.512z M8.141,8.801c-0.505,0-0.99,0-1.523,0c0.354,0.708,0.708,1.338,1.523,1.585
	C8.141,9.824,8.141,9.32,8.141,8.801z M10.087,8.801c-0.535,0-1.022,0-1.52,0c0,0.532,0,1.037,0,1.588
	C9.387,10.132,9.75,9.505,10.087,8.801z M5.016,3.529c0.395,0,0.701,0.006,1.007-0.006C6.09,3.521,6.185,3.47,6.218,3.413
	c0.238-0.411,0.462-0.83,0.697-1.258C6.181,2.425,5.572,2.855,5.016,3.529z M11.696,3.53c-0.563-0.678-1.17-1.119-1.898-1.367
	c0.221,0.4,0.431,0.797,0.661,1.182c0.05,0.083,0.169,0.169,0.261,0.176C11.013,3.543,11.31,3.53,11.696,3.53z M5.017,8.774
	c0.563,0.678,1.168,1.115,1.898,1.368C6.688,9.733,6.476,9.336,6.248,8.95C6.202,8.873,6.1,8.787,6.018,8.783
	C5.713,8.762,5.408,8.774,5.017,8.774z M9.797,10.142c0.735-0.26,1.348-0.696,1.894-1.368c-0.384,0-0.681-0.012-0.977,0.007
	c-0.084,0.004-0.196,0.077-0.239,0.15C10.24,9.326,10.024,9.732,9.797,10.142z"/>
<g>
	<path d="M12.077,14.836c0.137,0.095,0.322,0.143,0.557,0.143c0.258,0,0.453-0.057,0.586-0.17c0.131-0.114,0.197-0.25,0.197-0.407
		c0-0.146-0.047-0.258-0.143-0.339c-0.096-0.08-0.266-0.147-0.508-0.203c-0.242-0.055-0.385-0.098-0.426-0.128l-0.045-0.083
		l0.051-0.092c0.053-0.034,0.139-0.051,0.258-0.051c0.096,0,0.168,0.018,0.221,0.054l0.104,0.154l0.43-0.08
		c-0.043-0.15-0.121-0.264-0.236-0.34c-0.115-0.077-0.289-0.115-0.525-0.115c-0.248,0-0.43,0.051-0.549,0.152
		c-0.117,0.102-0.176,0.227-0.176,0.376c0,0.165,0.068,0.295,0.205,0.388c0.098,0.067,0.33,0.141,0.697,0.222l0.152,0.061
		l0.033,0.086l-0.061,0.121c-0.059,0.044-0.146,0.065-0.266,0.065c-0.107,0-0.189-0.023-0.25-0.069l-0.117-0.202l-0.457,0.07
		C11.851,14.611,11.94,14.74,12.077,14.836z M10.464,13.93c0-0.124,0.031-0.223,0.096-0.295c0.066-0.072,0.148-0.108,0.248-0.108
		c0.092,0,0.172,0.034,0.236,0.103s0.1,0.169,0.102,0.301H10.464z M11.009,14.579l-0.18,0.059c-0.104,0-0.191-0.037-0.262-0.112
		s-0.107-0.181-0.111-0.315h1.143c0.006-0.35-0.064-0.608-0.213-0.777c-0.148-0.17-0.35-0.254-0.605-0.254
		c-0.229,0-0.418,0.08-0.566,0.242c-0.15,0.161-0.225,0.385-0.225,0.671c0,0.238,0.057,0.437,0.17,0.593
		c0.145,0.196,0.365,0.294,0.666,0.294c0.189,0,0.346-0.044,0.473-0.131c0.125-0.087,0.217-0.214,0.275-0.38l-0.453-0.076
		L11.009,14.579z M9.511,13.313c-0.125-0.09-0.291-0.135-0.5-0.135c-0.258,0-0.46,0.079-0.61,0.237s-0.226,0.38-0.226,0.664
		c0,0.281,0.075,0.501,0.225,0.66c0.15,0.158,0.35,0.238,0.602,0.238c0.223,0,0.398-0.053,0.531-0.157
		c0.131-0.105,0.221-0.26,0.268-0.466l-0.447-0.076c-0.023,0.12-0.063,0.205-0.117,0.254l-0.213,0.074
		c-0.115,0-0.207-0.043-0.275-0.127c-0.069-0.084-0.104-0.229-0.104-0.433c0-0.184,0.033-0.315,0.102-0.394
		c0.066-0.078,0.158-0.117,0.271-0.117l0.207,0.067l0.104,0.203l0.449-0.081C9.722,13.542,9.634,13.404,9.511,13.313z M7.378,14.203
		c0,0.109-0.006,0.184-0.018,0.223l-0.109,0.15l-0.235,0.081l-0.182-0.069l-0.071-0.166l0.089-0.16
		c0.039-0.026,0.122-0.053,0.248-0.079c0.126-0.027,0.219-0.051,0.277-0.07V14.203z M6.879,13.575l0.19-0.048
		c0.12,0,0.202,0.019,0.245,0.056l0.065,0.188v0.045c-0.082,0.035-0.229,0.072-0.442,0.112c-0.158,0.03-0.279,0.065-0.363,0.106
		l-0.195,0.175c-0.046,0.076-0.07,0.163-0.07,0.26c0,0.147,0.051,0.27,0.153,0.365c0.102,0.097,0.242,0.145,0.419,0.145
		c0.101,0,0.195-0.02,0.284-0.057l0.25-0.171l0.017,0.054l0.043,0.135h0.451l-0.082-0.231c-0.015-0.071-0.022-0.184-0.022-0.335
		l0.005-0.531c0-0.198-0.021-0.334-0.061-0.408s-0.11-0.135-0.21-0.183c-0.099-0.049-0.25-0.072-0.454-0.072
		c-0.224,0-0.392,0.04-0.506,0.12c-0.113,0.08-0.193,0.203-0.24,0.369l0.414,0.075L6.879,13.575z M5.961,14.939v-2.377H5.505v2.377
		H5.961z M4.006,12.965c0.173,0,0.288,0.005,0.345,0.016l0.193,0.105L4.62,13.3l-0.054,0.186l-0.15,0.116
		c-0.064,0.025-0.19,0.037-0.379,0.037H3.774v-0.674H4.006z M3.774,14.939v-0.896h0.313c0.217,0,0.383-0.012,0.498-0.034
		l0.249-0.113c0.082-0.057,0.149-0.135,0.202-0.233c0.053-0.1,0.079-0.223,0.079-0.368c0-0.189-0.046-0.344-0.138-0.463
		c-0.092-0.12-0.206-0.197-0.342-0.233c-0.088-0.023-0.279-0.035-0.571-0.035h-0.77v2.377H3.774z"/>
</g>
<g>
	<path d="M5.452,30.275c0-0.04-0.006-0.075-0.018-0.105c-0.011-0.033-0.033-0.063-0.066-0.089c-0.033-0.027-0.078-0.056-0.136-0.08
		c-0.058-0.026-0.133-0.055-0.225-0.083c-0.104-0.033-0.202-0.071-0.294-0.113c-0.093-0.042-0.173-0.091-0.242-0.147
		c-0.069-0.056-0.124-0.122-0.164-0.194c-0.04-0.074-0.061-0.16-0.061-0.261c0-0.095,0.021-0.181,0.062-0.26
		c0.042-0.079,0.1-0.146,0.174-0.201c0.074-0.055,0.163-0.098,0.266-0.129c0.103-0.029,0.215-0.046,0.338-0.046
		c0.126,0,0.241,0.02,0.344,0.052c0.104,0.035,0.191,0.083,0.265,0.146c0.073,0.063,0.129,0.137,0.168,0.223
		c0.039,0.086,0.059,0.182,0.059,0.282H5.453c0-0.048-0.007-0.092-0.022-0.133s-0.038-0.076-0.069-0.105
		c-0.031-0.027-0.07-0.052-0.118-0.066c-0.046-0.018-0.102-0.024-0.166-0.024c-0.061,0-0.114,0.007-0.16,0.021
		c-0.045,0.014-0.083,0.03-0.112,0.056c-0.029,0.024-0.052,0.052-0.067,0.084c-0.015,0.031-0.023,0.066-0.023,0.103
		c0,0.073,0.038,0.138,0.115,0.188c0.076,0.051,0.188,0.098,0.336,0.142c0.124,0.039,0.233,0.081,0.327,0.13
		c0.094,0.047,0.173,0.1,0.236,0.157c0.063,0.062,0.111,0.126,0.144,0.2c0.032,0.074,0.048,0.158,0.048,0.251
		c0,0.102-0.02,0.189-0.059,0.269c-0.039,0.076-0.094,0.144-0.166,0.196c-0.072,0.056-0.159,0.097-0.26,0.124
		c-0.101,0.029-0.215,0.043-0.34,0.043c-0.075,0-0.15-0.006-0.225-0.02s-0.146-0.033-0.215-0.062
		c-0.068-0.025-0.131-0.061-0.189-0.102c-0.059-0.041-0.109-0.088-0.152-0.145c-0.043-0.056-0.077-0.117-0.102-0.188
		c-0.025-0.07-0.037-0.148-0.037-0.234h0.471c0,0.069,0.011,0.127,0.032,0.177c0.022,0.048,0.053,0.086,0.092,0.114
		c0.039,0.03,0.086,0.053,0.142,0.065c0.055,0.014,0.116,0.021,0.184,0.021c0.061,0,0.113-0.007,0.158-0.02
		c0.045-0.013,0.082-0.031,0.111-0.054c0.029-0.023,0.051-0.052,0.064-0.082C5.445,30.345,5.452,30.311,5.452,30.275z"/>
	<path d="M6.75,28.765v0.416h0.289v0.331H6.75v0.844c0,0.036,0.003,0.064,0.011,0.087c0.007,0.023,0.018,0.041,0.032,0.056
		c0.015,0.013,0.033,0.021,0.054,0.024s0.046,0.007,0.076,0.007c0.027,0,0.052-0.001,0.074-0.003s0.042-0.005,0.059-0.008v0.342
		c-0.037,0.013-0.078,0.021-0.123,0.029s-0.094,0.012-0.151,0.012c-0.074,0-0.141-0.009-0.2-0.025
		c-0.059-0.02-0.11-0.047-0.152-0.087s-0.074-0.093-0.098-0.155c-0.022-0.063-0.034-0.14-0.034-0.23v-0.892H6.052v-0.331h0.247
		v-0.416H6.75z"/>
	<path d="M7.221,30.011c0-0.123,0.018-0.237,0.053-0.342c0.036-0.105,0.087-0.196,0.155-0.272c0.067-0.077,0.151-0.137,0.25-0.181
		c0.099-0.044,0.212-0.065,0.34-0.065s0.242,0.021,0.342,0.065c0.1,0.044,0.184,0.104,0.252,0.181
		c0.067,0.076,0.12,0.167,0.155,0.272c0.037,0.104,0.054,0.219,0.054,0.342v0.033c0,0.124-0.019,0.236-0.054,0.343
		c-0.035,0.104-0.086,0.195-0.155,0.271c-0.069,0.077-0.151,0.139-0.25,0.182c-0.099,0.043-0.212,0.063-0.34,0.063
		s-0.242-0.021-0.342-0.063s-0.184-0.104-0.251-0.182c-0.068-0.075-0.12-0.167-0.156-0.271c-0.035-0.104-0.053-0.219-0.053-0.343
		V30.011z M7.672,30.045c0,0.067,0.007,0.133,0.019,0.192c0.012,0.063,0.033,0.113,0.06,0.157s0.063,0.08,0.108,0.105
		c0.044,0.024,0.099,0.039,0.164,0.039c0.063,0,0.115-0.015,0.16-0.039c0.044-0.026,0.08-0.063,0.108-0.105s0.048-0.096,0.061-0.157
		c0.013-0.061,0.019-0.125,0.019-0.192v-0.033c0-0.067-0.006-0.13-0.019-0.19c-0.012-0.06-0.032-0.11-0.061-0.156
		c-0.029-0.048-0.064-0.082-0.109-0.108s-0.099-0.04-0.163-0.04c-0.063,0-0.116,0.014-0.16,0.04s-0.081,0.063-0.108,0.108
		s-0.048,0.098-0.06,0.156c-0.012,0.062-0.019,0.123-0.019,0.19V30.045z"/>
	<path d="M10.051,29.605c-0.023-0.003-0.051-0.006-0.082-0.009c-0.031-0.002-0.058-0.004-0.082-0.004
		c-0.089,0-0.16,0.015-0.215,0.044c-0.055,0.03-0.095,0.073-0.121,0.129v1.106H9.1v-1.69h0.428l0.013,0.201
		c0.043-0.073,0.097-0.13,0.158-0.171s0.135-0.063,0.219-0.063c0.022,0,0.049,0.002,0.076,0.006
		c0.024,0.004,0.048,0.011,0.063,0.016L10.051,29.605z"/>
	<path d="M11.046,30.903c-0.132,0-0.249-0.021-0.353-0.063c-0.104-0.043-0.192-0.103-0.264-0.175
		c-0.074-0.074-0.127-0.161-0.166-0.262c-0.039-0.1-0.058-0.206-0.058-0.319v-0.063c0-0.128,0.019-0.245,0.056-0.352
		c0.036-0.107,0.09-0.199,0.157-0.276s0.151-0.137,0.248-0.181c0.099-0.043,0.207-0.064,0.328-0.064
		c0.122,0,0.229,0.021,0.321,0.062c0.094,0.04,0.172,0.096,0.234,0.168c0.061,0.071,0.108,0.16,0.143,0.262
		c0.031,0.103,0.048,0.216,0.048,0.341v0.192h-1.077c0.008,0.055,0.021,0.104,0.045,0.148s0.051,0.083,0.086,0.115
		s0.076,0.059,0.123,0.074s0.1,0.026,0.158,0.026c0.082,0,0.158-0.017,0.229-0.048c0.069-0.029,0.129-0.076,0.18-0.143l0.224,0.249
		c-0.026,0.039-0.062,0.076-0.103,0.112c-0.041,0.037-0.09,0.067-0.145,0.098c-0.056,0.029-0.117,0.052-0.188,0.069
		C11.204,30.894,11.128,30.903,11.046,30.903z M10.994,29.515c-0.048,0-0.092,0.009-0.128,0.026
		c-0.038,0.017-0.069,0.042-0.097,0.07c-0.025,0.031-0.047,0.068-0.063,0.11c-0.017,0.043-0.028,0.09-0.036,0.142h0.628V29.83
		c-0.001-0.047-0.007-0.088-0.021-0.125c-0.012-0.039-0.029-0.072-0.055-0.102c-0.023-0.028-0.057-0.05-0.095-0.064
		C11.091,29.522,11.046,29.515,10.994,29.515z"/>
	<path d="M12.913,30.404c0-0.022-0.005-0.046-0.015-0.063c-0.01-0.021-0.027-0.039-0.053-0.058
		c-0.027-0.017-0.063-0.032-0.106-0.049c-0.044-0.015-0.103-0.028-0.173-0.045c-0.086-0.019-0.168-0.042-0.24-0.068
		c-0.073-0.028-0.137-0.063-0.189-0.105c-0.055-0.042-0.097-0.09-0.127-0.145c-0.029-0.057-0.045-0.12-0.045-0.192
		c0-0.071,0.016-0.138,0.047-0.202c0.029-0.063,0.074-0.12,0.133-0.168s0.127-0.086,0.211-0.115
		c0.084-0.026,0.181-0.042,0.285-0.042c0.108,0,0.207,0.015,0.295,0.041c0.088,0.027,0.162,0.065,0.224,0.113
		s0.106,0.104,0.142,0.172c0.032,0.067,0.049,0.14,0.049,0.219h-0.453c0-0.063-0.021-0.116-0.063-0.159
		c-0.042-0.042-0.106-0.063-0.194-0.063c-0.076,0-0.136,0.017-0.178,0.051c-0.042,0.035-0.063,0.078-0.063,0.131
		c0,0.025,0.006,0.048,0.017,0.066s0.028,0.037,0.054,0.053c0.023,0.018,0.057,0.031,0.096,0.044
		c0.041,0.016,0.091,0.026,0.147,0.038c0.093,0.02,0.177,0.04,0.255,0.065c0.078,0.024,0.146,0.06,0.202,0.101
		s0.101,0.091,0.134,0.15c0.032,0.059,0.049,0.13,0.049,0.213c0,0.075-0.018,0.144-0.051,0.207c-0.033,0.063-0.08,0.117-0.143,0.163
		s-0.137,0.082-0.225,0.106c-0.088,0.026-0.188,0.039-0.295,0.039c-0.117,0-0.224-0.017-0.313-0.05
		c-0.093-0.034-0.167-0.077-0.229-0.131s-0.107-0.115-0.141-0.183c-0.031-0.067-0.047-0.138-0.047-0.205h0.429
		c0.002,0.044,0.013,0.082,0.029,0.111c0.019,0.032,0.04,0.06,0.067,0.078c0.027,0.021,0.062,0.034,0.099,0.043
		c0.036,0.009,0.075,0.016,0.116,0.016c0.086,0,0.149-0.019,0.195-0.051C12.891,30.502,12.913,30.459,12.913,30.404z"/>
</g>
<g>
	<path d="M5.823,24.621c0-0.04-0.006-0.075-0.017-0.105c-0.012-0.032-0.034-0.063-0.066-0.09c-0.033-0.025-0.078-0.054-0.136-0.08
		c-0.058-0.025-0.132-0.053-0.224-0.084c-0.104-0.031-0.202-0.069-0.295-0.111c-0.092-0.042-0.173-0.091-0.242-0.147
		c-0.069-0.056-0.124-0.122-0.164-0.194c-0.04-0.074-0.06-0.16-0.06-0.261c0-0.095,0.021-0.181,0.062-0.26s0.099-0.146,0.173-0.201
		c0.074-0.055,0.163-0.098,0.266-0.129s0.215-0.046,0.338-0.046c0.126,0,0.24,0.02,0.344,0.052c0.103,0.035,0.191,0.083,0.264,0.146
		c0.073,0.063,0.129,0.137,0.169,0.223s0.06,0.18,0.06,0.282h-0.47c0-0.048-0.008-0.092-0.022-0.133
		c-0.016-0.041-0.039-0.076-0.07-0.105c-0.031-0.027-0.07-0.052-0.117-0.066c-0.047-0.018-0.102-0.025-0.166-0.025
		c-0.062,0-0.115,0.007-0.16,0.021c-0.045,0.014-0.083,0.03-0.112,0.056c-0.03,0.022-0.053,0.052-0.067,0.084
		c-0.016,0.032-0.022,0.065-0.022,0.103c0,0.075,0.038,0.14,0.114,0.188c0.077,0.051,0.189,0.098,0.336,0.142
		c0.124,0.039,0.234,0.081,0.328,0.128c0.095,0.047,0.172,0.102,0.236,0.159c0.063,0.062,0.11,0.126,0.143,0.2
		c0.032,0.074,0.049,0.158,0.049,0.251c0,0.1-0.02,0.189-0.059,0.267c-0.039,0.078-0.095,0.146-0.167,0.2
		c-0.072,0.054-0.159,0.095-0.26,0.124s-0.215,0.043-0.34,0.043c-0.075,0-0.15-0.006-0.225-0.02
		c-0.075-0.015-0.147-0.033-0.215-0.062c-0.068-0.025-0.132-0.061-0.19-0.102c-0.058-0.041-0.109-0.088-0.152-0.146
		c-0.043-0.055-0.077-0.116-0.102-0.188s-0.036-0.148-0.036-0.234h0.47c0,0.069,0.011,0.127,0.033,0.175
		c0.021,0.05,0.052,0.086,0.091,0.116c0.04,0.03,0.087,0.051,0.142,0.065c0.056,0.014,0.117,0.021,0.185,0.021
		c0.061,0,0.113-0.007,0.158-0.02c0.044-0.015,0.081-0.031,0.11-0.055c0.029-0.022,0.05-0.051,0.065-0.081
		C5.816,24.691,5.823,24.657,5.823,24.621z"/>
	<path d="M8.104,24.386c0,0.123-0.015,0.237-0.043,0.344c-0.029,0.104-0.071,0.194-0.126,0.271s-0.124,0.139-0.206,0.183
		c-0.082,0.043-0.176,0.063-0.282,0.063c-0.09,0-0.169-0.016-0.237-0.047s-0.127-0.075-0.177-0.131v0.797H6.581v-2.34H7l0.016,0.167
		c0.052-0.063,0.113-0.111,0.182-0.146c0.069-0.034,0.151-0.051,0.246-0.051c0.107,0,0.202,0.021,0.285,0.063
		c0.082,0.041,0.151,0.1,0.206,0.175c0.055,0.076,0.097,0.167,0.126,0.271c0.028,0.106,0.043,0.225,0.043,0.353V24.386z
		 M7.651,24.356c0-0.07-0.006-0.137-0.018-0.195c-0.012-0.06-0.031-0.112-0.057-0.156c-0.026-0.044-0.06-0.079-0.101-0.104
		c-0.041-0.025-0.091-0.037-0.15-0.037c-0.074,0-0.135,0.014-0.183,0.041c-0.047,0.028-0.084,0.068-0.109,0.121v0.69
		c0.025,0.054,0.063,0.095,0.109,0.123c0.048,0.03,0.109,0.044,0.186,0.044c0.06,0,0.11-0.013,0.151-0.039
		c0.042-0.024,0.075-0.062,0.1-0.105c0.026-0.045,0.044-0.098,0.056-0.159c0.011-0.06,0.017-0.124,0.017-0.192L7.651,24.356
		L7.651,24.356z"/>
	<path d="M8.312,24.357c0-0.123,0.017-0.237,0.053-0.342c0.036-0.105,0.087-0.196,0.155-0.272c0.067-0.077,0.151-0.137,0.25-0.181
		c0.099-0.044,0.213-0.065,0.34-0.065c0.129,0,0.242,0.021,0.343,0.065s0.185,0.104,0.252,0.181c0.067,0.076,0.12,0.167,0.155,0.272
		c0.035,0.104,0.053,0.219,0.053,0.342v0.033c0,0.124-0.018,0.236-0.053,0.343c-0.035,0.104-0.088,0.193-0.155,0.271
		s-0.151,0.139-0.251,0.182s-0.212,0.063-0.34,0.063c-0.129,0-0.243-0.021-0.342-0.063c-0.101-0.043-0.185-0.104-0.251-0.182
		s-0.12-0.167-0.156-0.271c-0.036-0.104-0.053-0.219-0.053-0.343V24.357z M8.765,24.39c0,0.067,0.006,0.133,0.02,0.192
		c0.012,0.063,0.031,0.113,0.061,0.157c0.027,0.044,0.063,0.08,0.107,0.104c0.044,0.026,0.099,0.039,0.163,0.039
		c0.063,0,0.114-0.013,0.159-0.039c0.043-0.024,0.08-0.061,0.107-0.104c0.028-0.044,0.049-0.096,0.061-0.157
		c0.014-0.061,0.021-0.125,0.021-0.192v-0.033c0-0.067-0.007-0.13-0.021-0.19c-0.012-0.06-0.031-0.11-0.061-0.158
		c-0.027-0.046-0.064-0.082-0.109-0.106c-0.045-0.026-0.099-0.04-0.162-0.04c-0.063,0-0.114,0.014-0.158,0.04
		c-0.045,0.024-0.081,0.063-0.107,0.106c-0.027,0.044-0.048,0.1-0.061,0.158c-0.014,0.062-0.02,0.123-0.02,0.19V24.39z"/>
	<path d="M11.144,23.951c-0.022-0.003-0.051-0.006-0.082-0.009c-0.028-0.002-0.058-0.004-0.082-0.004
		c-0.088,0-0.16,0.015-0.215,0.044c-0.055,0.028-0.095,0.073-0.121,0.129v1.104h-0.451v-1.688h0.429l0.012,0.201
		c0.042-0.073,0.097-0.13,0.157-0.171c0.063-0.041,0.136-0.063,0.219-0.063c0.024,0,0.051,0.002,0.076,0.006
		s0.048,0.009,0.063,0.016L11.144,23.951z"/>
	<path d="M11.899,23.111v0.416h0.289v0.331h-0.289v0.844c0,0.036,0.004,0.064,0.012,0.087c0.007,0.023,0.018,0.041,0.033,0.054
		c0.015,0.015,0.033,0.021,0.054,0.026s0.046,0.007,0.075,0.007c0.027,0,0.052-0.001,0.074-0.003
		c0.021-0.002,0.041-0.005,0.059-0.008v0.342c-0.037,0.011-0.078,0.021-0.122,0.029c-0.045,0.008-0.095,0.012-0.151,0.012
		c-0.074,0-0.141-0.009-0.199-0.027c-0.06-0.018-0.109-0.047-0.151-0.087c-0.043-0.04-0.075-0.091-0.099-0.152
		c-0.022-0.063-0.034-0.142-0.034-0.23v-0.892h-0.248v-0.331h0.247v-0.416L11.899,23.111L11.899,23.111z"/>
</g>
</svg>
