<?xml version="1.0" encoding="utf-8"?>
<!-- Generator: Adobe Illustrator 16.0.0, SVG Export Plug-In . SVG Version: 6.00 Build 0)  -->
<!DOCTYPE svg PUBLIC "-//W3C//DTD SVG 1.1//EN" "http://www.w3.org/Graphics/SVG/1.1/DTD/svg11.dtd">
<svg version="1.1" id="Layer_1" xmlns="http://www.w3.org/2000/svg" xmlns:xlink="http://www.w3.org/1999/xlink" x="0px" y="0px"
	 width="16px" height="18.579px" viewBox="0 0 16 18.579" enable-background="new 0 0 16 18.579" xml:space="preserve">
<g>
	<path fill="#6D6E70" d="M6.807,8.89C6.62,8.699,6.499,8.544,6.353,8.435c-0.455-0.344-0.918-0.676-1.383-1
		C4.633,7.2,4.575,6.889,4.759,6.492c0.228-0.488,0.462-0.971,0.68-1.467c0.12-0.271,0.254-0.297,0.481-0.167
		c0.444,0.259,0.948-0.005,1.128-0.561C7.156,3.967,7.196,3.6,7.376,3.308C7.48,3.136,7.84,3.16,7.788,3.492
		c-0.08,0.511-0.281,0.996-0.462,1.473C7.27,5.109,7.099,5.197,6.97,5.298C6.786,5.439,6.593,5.564,6.371,5.719
		C6.31,5.605,6.223,5.442,6.116,5.239c0.201,0.994,0.311,1.056,1.617,0.876c-0.111-0.188-0.255-0.424-0.329-0.59
		c-0.039-0.086,0.134-0.301,0.255-0.14C8.125,6.01,8.525,6.682,8.947,7.343C8.982,7.399,8.949,7.519,8.948,7.61
		C8.873,7.596,8.795,7.593,8.725,7.565C8.689,7.551,8.657,7.497,8.641,7.453C8.348,6.715,7.825,6.631,7.223,6.697
		C6.834,6.74,6.439,6.704,5.974,6.704c0.089,0.131,0.144,0.23,0.216,0.31c0.506,0.558,1.156,0.934,1.444,1.758
		c0.037,0.104,0.265,0.12,0.407,0.163C8.643,9.117,9.258,9.24,9.834,9.493c0.423,0.185,0.536,0.442,0.018,0.724
		c-0.531,0.285-3.271,1.254-4.359,0.24C5.302,10.279,4.83,9.627,5.53,9.257C5.896,9.064,6.32,9.021,6.807,8.89z"/>
	<path fill="#6D6E70" d="M10.798,0.11c0.517,0.059,1.531,1.069,1.616,1.785c0.146,1.238,0.038,2.438-0.607,3.481
		c-0.119,0.191-0.31,0.385-0.492,0.434c-0.18,0.046-0.437-0.033-0.572-0.173c-0.09-0.091-0.057-0.401-0.028-0.602
		c0.142-0.975,0.386-1.942,0.427-2.923C11.167,1.442,10.917,0.755,10.798,0.11z"/>
	<path fill="#6D6E70" d="M10.68,0.644c-0.57,0.505-1.113,0.987-1.656,1.468C8.736,2.367,8.368,2.14,8.281,1.656
		c-0.089-0.495,0.333-1.188,0.915-1.5c0.59-0.32,1.102-0.236,1.387,0.238C10.639,0.486,10.665,0.603,10.68,0.644z"/>
	<path fill="#6D6E70" d="M6.817,3.976c0,0.412-0.274,0.731-0.622,0.722c-0.333-0.009-0.58-0.31-0.584-0.711
		c-0.004-0.42,0.264-0.733,0.617-0.722C6.551,3.273,6.816,3.593,6.817,3.976z"/>
</g>
<g>
	<path d="M4.248,14.139L4.004,14.4v0.649H3.535v-2.274h0.469v1.031l0.206-0.281l0.58-0.75h0.576l-0.808,1.013l0.831,1.264H4.832
		L4.248,14.139z"/>
	<path d="M5.534,12.924c0-0.068,0.022-0.125,0.068-0.168c0.045-0.043,0.107-0.066,0.185-0.066c0.039,0,0.074,0.006,0.105,0.018
		c0.031,0.012,0.058,0.027,0.08,0.049c0.022,0.022,0.039,0.045,0.05,0.074c0.012,0.029,0.019,0.062,0.019,0.094
		c0,0.033-0.006,0.064-0.019,0.095c-0.012,0.028-0.028,0.054-0.05,0.073c-0.022,0.021-0.048,0.037-0.08,0.05
		c-0.032,0.012-0.066,0.019-0.105,0.019s-0.073-0.007-0.104-0.019c-0.031-0.013-0.058-0.026-0.08-0.05
		c-0.022-0.02-0.039-0.045-0.051-0.073C5.54,12.988,5.534,12.958,5.534,12.924z M6.013,15.051H5.56v-1.689h0.453V15.051z"/>
	<path d="M6.926,12.945v0.416h0.289v0.33H6.926v0.845c0,0.034,0.004,0.063,0.011,0.088c0.008,0.022,0.019,0.041,0.033,0.055
		c0.015,0.012,0.033,0.021,0.054,0.025c0.021,0.006,0.047,0.008,0.076,0.008c0.027,0,0.052-0.002,0.074-0.004
		s0.042-0.004,0.059-0.008v0.342c-0.038,0.012-0.079,0.021-0.123,0.028c-0.044,0.009-0.094,0.013-0.15,0.013
		c-0.074,0-0.141-0.008-0.2-0.027c-0.06-0.018-0.11-0.047-0.152-0.086s-0.075-0.092-0.098-0.154
		c-0.023-0.064-0.034-0.141-0.034-0.23v-0.893H6.228v-0.33h0.247v-0.416L6.926,12.945L6.926,12.945z"/>
	<path d="M8.245,15.083c-0.131,0-0.249-0.021-0.353-0.064c-0.104-0.041-0.191-0.1-0.264-0.174c-0.072-0.074-0.127-0.16-0.166-0.26
		c-0.039-0.101-0.057-0.207-0.057-0.32v-0.061c0-0.129,0.019-0.246,0.056-0.354c0.037-0.104,0.089-0.197,0.158-0.274
		c0.068-0.076,0.151-0.138,0.249-0.181c0.097-0.043,0.207-0.063,0.327-0.063c0.122,0,0.229,0.02,0.323,0.059
		c0.092,0.041,0.17,0.098,0.232,0.17s0.109,0.16,0.143,0.262c0.031,0.102,0.047,0.215,0.047,0.34v0.193H7.863
		c0.007,0.055,0.022,0.105,0.044,0.148c0.022,0.045,0.051,0.084,0.086,0.115c0.035,0.032,0.076,0.057,0.123,0.073
		c0.047,0.017,0.1,0.026,0.158,0.026c0.082,0,0.158-0.016,0.228-0.047c0.07-0.028,0.129-0.078,0.18-0.143l0.223,0.248
		c-0.027,0.039-0.062,0.076-0.103,0.113c-0.04,0.037-0.088,0.068-0.144,0.098c-0.057,0.03-0.118,0.051-0.187,0.068
		C8.402,15.073,8.327,15.083,8.245,15.083z M8.193,13.695c-0.049,0-0.092,0.009-0.129,0.024c-0.037,0.018-0.069,0.041-0.095,0.072
		c-0.026,0.031-0.048,0.066-0.065,0.109c-0.017,0.043-0.029,0.09-0.036,0.143h0.628V14.01c-0.001-0.045-0.008-0.088-0.02-0.125
		c-0.012-0.039-0.03-0.072-0.055-0.102c-0.024-0.027-0.056-0.05-0.094-0.064C8.289,13.704,8.245,13.695,8.193,13.695z"/>
	<path d="M10.146,13.784c-0.022-0.002-0.049-0.007-0.08-0.009s-0.059-0.004-0.082-0.004c-0.09,0-0.16,0.017-0.215,0.045
		c-0.056,0.028-0.096,0.072-0.121,0.129v1.104H9.195v-1.688h0.428l0.012,0.201c0.043-0.071,0.096-0.131,0.158-0.172
		s0.135-0.062,0.219-0.062c0.024,0,0.049,0.002,0.076,0.006c0.025,0.004,0.049,0.008,0.064,0.015L10.146,13.784z"/>
	<path d="M11.279,14.584c0-0.023-0.004-0.045-0.014-0.066c-0.011-0.02-0.027-0.037-0.054-0.055
		c-0.026-0.019-0.062-0.033-0.106-0.049c-0.043-0.017-0.103-0.031-0.172-0.045c-0.086-0.021-0.168-0.043-0.24-0.07
		c-0.074-0.029-0.137-0.064-0.191-0.105c-0.054-0.041-0.095-0.09-0.125-0.145c-0.029-0.057-0.045-0.119-0.045-0.193
		c0-0.07,0.016-0.137,0.046-0.201c0.031-0.063,0.075-0.119,0.134-0.168c0.057-0.049,0.129-0.086,0.213-0.115
		c0.082-0.027,0.178-0.041,0.282-0.041c0.109,0,0.208,0.014,0.295,0.039c0.087,0.027,0.162,0.066,0.224,0.113
		c0.061,0.049,0.107,0.107,0.141,0.174c0.033,0.067,0.049,0.139,0.049,0.219h-0.451c0-0.063-0.021-0.119-0.063-0.16
		c-0.042-0.043-0.107-0.063-0.195-0.063c-0.075,0-0.135,0.019-0.176,0.054c-0.042,0.032-0.063,0.078-0.063,0.131
		c0,0.024,0.006,0.047,0.017,0.065c0.011,0.021,0.028,0.037,0.053,0.054c0.024,0.018,0.058,0.03,0.097,0.045
		c0.041,0.014,0.09,0.024,0.148,0.037c0.091,0.018,0.176,0.041,0.254,0.065s0.145,0.06,0.203,0.101
		c0.057,0.043,0.102,0.092,0.133,0.149c0.032,0.058,0.049,0.131,0.049,0.213c0,0.076-0.017,0.146-0.05,0.207
		c-0.032,0.063-0.081,0.119-0.144,0.164c-0.062,0.047-0.137,0.082-0.224,0.106c-0.087,0.027-0.186,0.039-0.293,0.039
		c-0.118,0-0.224-0.016-0.313-0.049s-0.168-0.078-0.229-0.133c-0.062-0.053-0.108-0.113-0.14-0.182
		c-0.031-0.069-0.047-0.137-0.047-0.205h0.428c0.002,0.043,0.012,0.082,0.029,0.113c0.017,0.031,0.039,0.059,0.068,0.078
		c0.027,0.02,0.061,0.032,0.098,0.043c0.037,0.01,0.076,0.014,0.117,0.014c0.086,0,0.151-0.016,0.195-0.049
		C11.257,14.68,11.279,14.637,11.279,14.584z"/>
</g>
</svg>
