<?xml version="1.0" encoding="utf-8"?>
<!-- Generator: Adobe Illustrator 16.0.0, SVG Export Plug-In . SVG Version: 6.00 Build 0)  -->
<!DOCTYPE svg PUBLIC "-//W3C//DTD SVG 1.1//EN" "http://www.w3.org/Graphics/SVG/1.1/DTD/svg11.dtd">
<svg version="1.1" id="Layer_1" xmlns="http://www.w3.org/2000/svg" xmlns:xlink="http://www.w3.org/1999/xlink" x="0px" y="0px"
	 width="16px" height="18.58px" viewBox="0 0 16 18.58" enable-background="new 0 0 16 18.58" xml:space="preserve">
<g>
	<path d="M1.685,14.646h0.447v1.502c0,0.107-0.019,0.205-0.055,0.293c-0.037,0.086-0.087,0.158-0.153,0.221
		c-0.065,0.063-0.142,0.104-0.231,0.14c-0.089,0.03-0.185,0.05-0.288,0.05c-0.106,0-0.204-0.018-0.292-0.041
		c-0.089-0.026-0.166-0.067-0.23-0.123c-0.064-0.059-0.115-0.125-0.151-0.209s-0.054-0.186-0.054-0.3h0.45
		c0,0.06,0.007,0.105,0.02,0.146c0.013,0.04,0.032,0.071,0.056,0.096s0.053,0.043,0.088,0.056c0.034,0.012,0.073,0.017,0.115,0.017
		c0.085,0,0.153-0.027,0.204-0.089c0.051-0.061,0.076-0.145,0.076-0.25v-1.504L1.685,14.646L1.685,14.646z"/>
	<path d="M3.42,16.815c-0.02-0.039-0.034-0.088-0.043-0.146c-0.043,0.051-0.099,0.092-0.165,0.125s-0.146,0.051-0.242,0.051
		c-0.077,0-0.149-0.014-0.217-0.035c-0.067-0.023-0.125-0.059-0.174-0.102c-0.049-0.043-0.087-0.096-0.115-0.152
		c-0.028-0.059-0.042-0.123-0.042-0.193c0-0.084,0.016-0.158,0.047-0.225C2.5,16.071,2.547,16.017,2.61,15.97s0.14-0.08,0.233-0.104
		c0.093-0.021,0.201-0.034,0.324-0.034h0.192v-0.095c0-0.073-0.02-0.133-0.058-0.178c-0.038-0.045-0.099-0.067-0.181-0.067
		c-0.072,0-0.129,0.021-0.17,0.053c-0.041,0.035-0.062,0.082-0.062,0.146h-0.43c0-0.067,0.016-0.137,0.048-0.197
		c0.032-0.063,0.078-0.116,0.138-0.163s0.132-0.082,0.216-0.108c0.084-0.027,0.179-0.041,0.283-0.041
		c0.093,0,0.18,0.012,0.259,0.034c0.08,0.022,0.148,0.062,0.206,0.104c0.058,0.046,0.103,0.104,0.135,0.179
		c0.032,0.071,0.048,0.151,0.048,0.248v0.685c0,0.047,0.002,0.088,0.005,0.122c0.003,0.035,0.007,0.066,0.012,0.099
		c0.005,0.029,0.011,0.058,0.02,0.08c0.008,0.021,0.017,0.045,0.028,0.063v0.024L3.42,16.815L3.42,16.815z M3.064,16.515
		c0.037,0,0.07-0.004,0.102-0.014c0.031-0.011,0.059-0.021,0.084-0.035s0.046-0.029,0.065-0.049
		c0.018-0.021,0.033-0.039,0.044-0.061v-0.275H3.182c-0.057,0-0.106,0.006-0.148,0.02s-0.076,0.029-0.103,0.053
		c-0.027,0.021-0.047,0.051-0.06,0.078c-0.013,0.031-0.02,0.063-0.02,0.102c0,0.057,0.019,0.1,0.057,0.134
		C2.946,16.5,2.998,16.515,3.064,16.515z"/>
	<path d="M4.617,16.47h0.788v0.348H4.067v-0.264l0.758-1.002H4.089v-0.349h1.292v0.256L4.617,16.47z"/>
	<path d="M6.169,16.47h0.788v0.348H5.619v-0.264l0.758-1.002H5.642v-0.349h1.292v0.256L6.169,16.47z"/>
	<path d="M7.969,16.847c-0.125,0-0.237-0.021-0.336-0.063c-0.099-0.041-0.183-0.098-0.252-0.167
		c-0.07-0.069-0.123-0.153-0.159-0.247c-0.036-0.098-0.054-0.197-0.054-0.307v-0.059c0-0.123,0.018-0.234,0.053-0.336
		c0.035-0.104,0.085-0.189,0.15-0.266c0.065-0.072,0.144-0.131,0.237-0.172c0.093-0.041,0.197-0.063,0.313-0.063
		c0.116,0,0.218,0.021,0.307,0.06c0.088,0.037,0.163,0.092,0.223,0.16c0.061,0.067,0.105,0.149,0.136,0.25
		c0.031,0.098,0.045,0.205,0.045,0.321v0.187H7.605c0.007,0.056,0.021,0.103,0.042,0.146s0.048,0.08,0.082,0.106
		c0.034,0.031,0.072,0.058,0.117,0.07c0.044,0.018,0.095,0.024,0.15,0.024c0.079,0,0.151-0.017,0.218-0.045
		c0.066-0.029,0.124-0.074,0.171-0.138l0.211,0.235c-0.025,0.037-0.059,0.072-0.097,0.106c-0.039,0.033-0.084,0.064-0.137,0.095
		c-0.053,0.024-0.112,0.049-0.178,0.063C8.119,16.836,8.047,16.847,7.969,16.847z M7.919,15.522c-0.046,0-0.087,0.008-0.123,0.022
		C7.76,15.562,7.73,15.584,7.705,15.61c-0.025,0.029-0.046,0.064-0.062,0.105c-0.016,0.039-0.027,0.086-0.034,0.135h0.599v-0.033
		c-0.001-0.041-0.007-0.082-0.019-0.117c-0.011-0.035-0.029-0.067-0.052-0.098c-0.023-0.026-0.053-0.047-0.089-0.063
		C8.012,15.528,7.969,15.522,7.919,15.522z"/>
	<path d="M9.783,15.606c-0.021-0.002-0.049-0.006-0.078-0.008c-0.025-0.002-0.057-0.005-0.077-0.005
		c-0.084,0-0.151,0.015-0.205,0.044c-0.054,0.026-0.093,0.067-0.114,0.122v1.056H8.875v-1.612h0.408l0.013,0.192
		c0.041-0.069,0.091-0.125,0.147-0.164c0.062-0.039,0.131-0.06,0.207-0.06c0.021,0,0.049,0.002,0.072,0.006
		c0.023,0.005,0.045,0.011,0.063,0.015L9.783,15.606z"/>
	<path d="M10.66,16.498c0.039,0,0.074-0.006,0.105-0.017c0.033-0.013,0.063-0.028,0.086-0.049c0.023-0.021,0.041-0.048,0.057-0.076
		c0.015-0.028,0.021-0.063,0.021-0.101h0.403c-0.002,0.086-0.021,0.164-0.056,0.236c-0.034,0.069-0.082,0.135-0.143,0.188
		c-0.062,0.051-0.131,0.092-0.211,0.118c-0.082,0.029-0.17,0.045-0.263,0.045c-0.125,0-0.233-0.021-0.327-0.063
		c-0.096-0.044-0.173-0.103-0.232-0.173c-0.063-0.072-0.104-0.158-0.139-0.26c-0.031-0.1-0.045-0.205-0.045-0.317V15.99
		c0-0.113,0.016-0.222,0.047-0.32c0.028-0.099,0.075-0.187,0.139-0.26c0.063-0.072,0.14-0.132,0.23-0.173
		c0.094-0.043,0.202-0.063,0.325-0.063c0.101,0,0.188,0.017,0.271,0.045c0.084,0.028,0.15,0.069,0.211,0.128
		c0.061,0.055,0.104,0.118,0.139,0.195c0.031,0.078,0.051,0.166,0.051,0.264h-0.403c0-0.039-0.008-0.074-0.021-0.108
		c-0.016-0.032-0.028-0.063-0.055-0.091c-0.021-0.021-0.051-0.045-0.084-0.063c-0.033-0.016-0.07-0.021-0.113-0.021
		c-0.063,0-0.115,0.016-0.154,0.037c-0.04,0.025-0.07,0.063-0.094,0.104c-0.021,0.043-0.037,0.093-0.047,0.147
		c-0.008,0.058-0.012,0.114-0.012,0.176v0.043c0,0.063,0.004,0.119,0.012,0.177c0.01,0.06,0.023,0.106,0.047,0.149
		c0.021,0.041,0.054,0.076,0.094,0.103C10.544,16.485,10.596,16.498,10.66,16.498z"/>
	<path d="M11.578,14.787c0-0.063,0.021-0.117,0.063-0.16c0.043-0.041,0.104-0.063,0.178-0.063c0.037,0,0.068,0.006,0.101,0.02
		c0.03,0.011,0.058,0.023,0.075,0.045c0.021,0.021,0.037,0.043,0.05,0.07c0.013,0.025,0.019,0.06,0.019,0.09
		c0,0.031-0.006,0.063-0.019,0.09s-0.026,0.055-0.05,0.07c-0.021,0.021-0.045,0.033-0.075,0.047c-0.028,0.01-0.063,0.02-0.101,0.02
		c-0.039,0-0.07-0.01-0.102-0.02c-0.029-0.014-0.055-0.026-0.076-0.047c-0.021-0.021-0.035-0.045-0.047-0.07
		C11.582,14.849,11.578,14.819,11.578,14.787z M12.035,16.815h-0.434v-1.612h0.434V16.815z"/>
	<path d="M13.264,16.371c0-0.022-0.007-0.045-0.017-0.063c-0.009-0.021-0.024-0.037-0.052-0.055
		c-0.022-0.018-0.061-0.029-0.102-0.047c-0.043-0.016-0.101-0.027-0.166-0.043c-0.084-0.02-0.16-0.041-0.229-0.064
		c-0.069-0.026-0.133-0.063-0.184-0.104c-0.051-0.039-0.092-0.084-0.119-0.139c-0.027-0.054-0.045-0.113-0.045-0.186
		c0-0.064,0.018-0.131,0.045-0.189c0.029-0.063,0.07-0.113,0.127-0.16s0.123-0.084,0.201-0.109c0.08-0.023,0.172-0.039,0.271-0.039
		c0.104,0,0.199,0.014,0.281,0.037c0.084,0.025,0.152,0.063,0.213,0.107c0.059,0.045,0.104,0.104,0.133,0.166
		c0.031,0.063,0.047,0.133,0.047,0.207h-0.43c0-0.063-0.021-0.111-0.063-0.15c-0.038-0.041-0.103-0.063-0.187-0.063
		c-0.073,0-0.129,0.018-0.168,0.049c-0.041,0.033-0.063,0.076-0.063,0.127c0,0.022,0.006,0.045,0.018,0.063
		c0.01,0.021,0.025,0.037,0.051,0.053c0.021,0.02,0.056,0.029,0.095,0.043c0.037,0.016,0.084,0.023,0.142,0.035
		c0.088,0.02,0.168,0.039,0.242,0.063c0.075,0.024,0.141,0.058,0.191,0.097c0.057,0.038,0.098,0.088,0.128,0.145
		c0.03,0.06,0.047,0.125,0.047,0.203c0,0.07-0.019,0.139-0.05,0.197c-0.03,0.061-0.075,0.11-0.137,0.153
		c-0.061,0.045-0.129,0.078-0.213,0.104c-0.084,0.024-0.18,0.037-0.281,0.037c-0.11,0-0.213-0.019-0.299-0.05
		c-0.086-0.03-0.16-0.071-0.221-0.125c-0.059-0.053-0.104-0.108-0.133-0.176c-0.023-0.063-0.039-0.128-0.039-0.19h0.406
		c0.002,0.041,0.012,0.075,0.025,0.105c0.02,0.029,0.039,0.056,0.065,0.072c0.024,0.02,0.058,0.031,0.093,0.041
		c0.034,0.01,0.071,0.016,0.11,0.016c0.084,0,0.146-0.018,0.188-0.047C13.24,16.461,13.264,16.42,13.264,16.371z"/>
	<path d="M14.699,16.847c-0.125,0-0.235-0.021-0.336-0.063c-0.1-0.041-0.184-0.098-0.252-0.167
		c-0.067-0.069-0.121-0.153-0.158-0.247c-0.034-0.098-0.055-0.197-0.055-0.307v-0.059c0-0.123,0.021-0.234,0.055-0.336
		c0.033-0.104,0.084-0.189,0.148-0.266c0.064-0.072,0.145-0.131,0.236-0.172c0.094-0.041,0.197-0.063,0.313-0.063
		c0.117,0,0.22,0.021,0.309,0.06c0.088,0.037,0.163,0.092,0.225,0.16c0.062,0.067,0.104,0.149,0.137,0.25
		c0.029,0.098,0.046,0.205,0.046,0.321v0.187h-1.025c0.009,0.056,0.021,0.103,0.041,0.146s0.05,0.08,0.082,0.106
		c0.035,0.031,0.072,0.058,0.117,0.07c0.045,0.018,0.096,0.024,0.149,0.024c0.078,0,0.148-0.017,0.218-0.045
		c0.065-0.029,0.124-0.074,0.172-0.138l0.213,0.235c-0.024,0.037-0.06,0.072-0.099,0.106c-0.039,0.033-0.084,0.064-0.139,0.095
		c-0.053,0.024-0.111,0.049-0.178,0.063C14.852,16.836,14.777,16.847,14.699,16.847z M14.65,15.522
		c-0.047,0-0.088,0.008-0.123,0.022c-0.035,0.017-0.065,0.039-0.092,0.065c-0.023,0.029-0.047,0.064-0.063,0.105
		c-0.018,0.039-0.027,0.086-0.035,0.135h0.602v-0.033c-0.002-0.041-0.008-0.082-0.021-0.117c-0.01-0.035-0.027-0.067-0.051-0.098
		c-0.023-0.023-0.055-0.047-0.092-0.063C14.744,15.528,14.701,15.522,14.65,15.522z"/>
</g>
<g>
	<path fill="#6D6E70" stroke="#6D6E70" stroke-width="0.3" stroke-miterlimit="10" d="M5.742,11.872
		c-0.148-0.105-0.136-0.25-0.099-0.396c0.213-0.81,0.428-1.615,0.644-2.418C6.334,8.886,6.38,8.713,6.44,8.548
		c0.08-0.229,0.202-0.435,0.371-0.615C7.202,7.52,7.589,7.104,7.977,6.686C8.15,6.503,8.165,6.417,8.041,6.19
		C7.674,5.516,7.306,4.844,6.938,4.169C6.647,3.635,6.358,3.1,6.063,2.566c-0.14-0.252-0.137-0.49,0.014-0.742
		C6.346,1.385,6.6,0.931,6.868,0.493c0.062-0.1,0.16-0.179,0.239-0.267c0.033,0,0.062,0,0.095,0
		c0.074,0.046,0.152,0.087,0.226,0.137c0.171,0.108,0.203,0.23,0.096,0.403C7.312,1.109,7.102,1.455,6.879,1.792
		c-0.12,0.177-0.124,0.35-0.018,0.532c0.16,0.27,0.32,0.541,0.481,0.814C7.455,3.333,7.633,3.41,7.854,3.41
		c0.308,0.001,0.618,0.003,0.925,0c0.178-0.002,0.337-0.063,0.455-0.191C9.516,2.91,9.8,2.603,10.061,2.281
		c0.11-0.127,0.18-0.289,0.244-0.448c0.166-0.391,0.314-0.784,0.469-1.175c0.093-0.232,0.194-0.276,0.429-0.182
		c0.021,0.009,0.044,0.019,0.063,0.026c0.235,0.097,0.305,0.231,0.223,0.465c-0.108,0.322-0.245,0.634-0.354,0.951
		c-0.146,0.428-0.404,0.789-0.689,1.135c-0.231,0.285-0.446,0.579-0.684,0.858C9.598,4.108,9.588,4.308,9.7,4.523
		c0.188,0.35,0.377,0.701,0.571,1.053c0.155,0.283,0.293,0.584,0.293,0.908c0,0.282-0.039,0.567-0.106,0.841
		c-0.345,1.391-0.703,2.777-1.06,4.167C9.355,11.66,9.277,11.8,9.104,11.87c-0.226,0-0.449,0-0.672,0
		c-0.114-0.073-0.133-0.174-0.103-0.296c0.073-0.271,0.146-0.548,0.209-0.815c0.26-1.061,0.505-2.131,0.6-3.222
		c0.004-0.048,0-0.095,0-0.143c-0.018,0-0.033-0.008-0.048-0.013C9.033,7.433,8.977,7.48,8.92,7.53
		C8.525,7.914,8.133,8.299,7.73,8.676C7.522,8.872,7.367,9.098,7.292,9.37c-0.185,0.686-0.366,1.367-0.546,2.052
		c-0.05,0.2-0.14,0.362-0.331,0.453C6.191,11.872,5.966,11.872,5.742,11.872z"/>
	<path fill="#6D6E70" stroke="#6D6E70" stroke-width="0.3" stroke-miterlimit="10" d="M7.523,1.981c0-0.526,0.431-0.954,0.966-0.958
		c0.533-0.005,0.979,0.431,0.978,0.958c0,0.52-0.439,0.948-0.974,0.948C7.957,2.93,7.525,2.509,7.523,1.981z"/>
</g>
</svg>
