<?xml version="1.0" encoding="utf-8"?>
<!-- Generator: Adobe Illustrator 16.0.0, SVG Export Plug-In . SVG Version: 6.00 Build 0)  -->
<!DOCTYPE svg PUBLIC "-//W3C//DTD SVG 1.1//EN" "http://www.w3.org/Graphics/SVG/1.1/DTD/svg11.dtd">
<svg version="1.1" id="Layer_1" xmlns="http://www.w3.org/2000/svg" xmlns:xlink="http://www.w3.org/1999/xlink" x="0px" y="0px"
	 width="16px" height="18.579px" viewBox="0 0 16 18.579" enable-background="new 0 0 16 18.579" xml:space="preserve">
<g>
	<path fill="#6D6E70" d="M3.447,5.695c0.09-0.134,0.162-0.287,0.277-0.394C3.98,5.07,4.292,5.078,4.628,5.304
		c1.18,0.792,2.358,1.589,3.539,2.382c1.004,0.676,2.008,1.357,3.013,2.029c0.603,0.401,0.578,1.009-0.105,1.381
		c0.574,0-2.795,0-0.346,0c-0.168-0.102-0.295-0.174-0.418-0.258c-2.12-1.426-4.234-2.855-6.357-4.274
		C3.725,6.41,3.537,6.241,3.447,5.977C3.447,5.882,3.447,5.787,3.447,5.695z"/>
	<path fill="#6D6E70" d="M12.7,3.582c-0.099,0.297-0.323,0.412-0.617,0.457c-0.921,0.137-1.824,0.093-2.711-0.201
		c-0.407-0.135-0.595-0.087-0.92,0.205C8.572,4.13,8.723,4.195,8.809,4.31C8.964,4.513,8.928,4.736,8.79,4.944
		C8.47,5.425,8.15,5.905,7.863,6.336c0.14,0.179,0.286,0.316,0.363,0.485c0.048,0.104-0.008,0.258-0.021,0.444
		C7.66,6.899,7.176,6.574,6.666,6.23C6.88,5.899,7.09,5.578,7.317,5.229C7.234,5.226,7.184,5.22,7.132,5.22
		C6.708,5.228,6.5,5.046,6.455,4.621C6.401,4.123,6.597,3.719,6.94,3.377C7.116,3.201,7.314,3.05,7.492,2.896
		C7.109,2.534,6.713,2.182,6.348,1.8C6.094,1.536,5.871,1.241,5.657,0.942C5.335,0.494,5.409,0.217,5.889-0.034
		c0.079,0,0.156,0,0.233,0c0.138,0.13,0.299,0.245,0.407,0.398c0.504,0.715,1.102,1.332,1.823,1.834
		C8.44,2.259,8.52,2.36,8.557,2.46c0.346,0.905,1.381,1.345,2.229,0.886c0.353-0.19,0.694-0.303,1.082-0.354
		c0.459-0.063,0.597-0.026,0.833,0.354C12.7,3.426,12.7,3.502,12.7,3.582z"/>
	<path fill="#6D6E70" d="M8.689,5.789c0.205-0.323,0.395-0.624,0.604-0.96c0.389,0.074,0.807,0.132,1.209,0.236
		c0.303,0.08,0.41,0.403,0.279,0.734c-0.241,0.608-0.49,1.215-0.735,1.823c-0.026,0.069-0.052,0.143-0.079,0.21
		C10.4,8.102,10.488,8.31,10.3,8.675C10.009,8.48,9.721,8.29,9.434,8.098c-0.08-0.053-0.154-0.105-0.231-0.16
		C8.863,7.712,8.866,7.712,9.021,7.324c0.184-0.446,0.362-0.891,0.553-1.36C9.27,5.905,8.99,5.848,8.689,5.789z"/>
	<path fill="#6D6E70" d="M8.839,1.899c-0.002-0.69,0.542-1.236,1.234-1.234c0.706,0.003,1.259,0.546,1.259,1.241
		c-0.001,0.676-0.563,1.24-1.243,1.245C9.395,3.155,8.84,2.602,8.839,1.899z"/>
</g>
<g>
	<path d="M2.19,15.09v-2.275h0.797c0.132,0,0.25,0.012,0.354,0.037s0.192,0.064,0.265,0.115c0.072,0.051,0.127,0.117,0.165,0.195
		c0.039,0.078,0.058,0.17,0.058,0.273c0,0.055-0.007,0.104-0.02,0.148c-0.013,0.047-0.033,0.094-0.06,0.137
		c-0.026,0.041-0.061,0.076-0.101,0.111c-0.041,0.033-0.089,0.063-0.146,0.084c0.067,0.018,0.124,0.041,0.171,0.074
		c0.047,0.035,0.086,0.074,0.117,0.119c0.03,0.045,0.053,0.094,0.067,0.146c0.014,0.051,0.021,0.104,0.021,0.16
		c0,0.221-0.071,0.389-0.213,0.5c-0.143,0.112-0.345,0.17-0.607,0.17H2.19V15.09z M2.659,13.768h0.347
		c0.12-0.002,0.209-0.027,0.267-0.076c0.059-0.049,0.088-0.117,0.088-0.207c0-0.104-0.03-0.178-0.09-0.223s-0.155-0.068-0.284-0.068
		H2.659V13.768z M2.659,14.1v0.613H3.06c0.061,0,0.113-0.008,0.156-0.023c0.044-0.014,0.081-0.035,0.109-0.063
		c0.029-0.025,0.051-0.059,0.065-0.094c0.014-0.035,0.021-0.074,0.021-0.117c0-0.049-0.006-0.094-0.019-0.133
		c-0.013-0.039-0.032-0.072-0.059-0.102s-0.061-0.051-0.104-0.063c-0.041-0.016-0.092-0.021-0.151-0.021L2.659,14.1L2.659,14.1z"/>
	<path d="M4.132,14.229c0-0.123,0.018-0.236,0.053-0.342s0.086-0.197,0.155-0.273c0.067-0.076,0.151-0.137,0.25-0.18
		c0.099-0.045,0.213-0.066,0.34-0.066c0.128,0,0.242,0.021,0.342,0.066c0.1,0.043,0.184,0.104,0.252,0.18
		c0.069,0.076,0.121,0.168,0.156,0.273c0.036,0.105,0.053,0.219,0.053,0.342v0.033c0,0.123-0.018,0.238-0.053,0.342
		c-0.035,0.105-0.087,0.195-0.156,0.273c-0.068,0.076-0.151,0.135-0.251,0.18c-0.098,0.043-0.212,0.064-0.34,0.064
		S4.691,15.1,4.592,15.057c-0.1-0.045-0.184-0.104-0.252-0.18c-0.068-0.078-0.12-0.168-0.155-0.273
		C4.15,14.5,4.132,14.385,4.132,14.262V14.229z M4.584,14.262c0,0.068,0.006,0.133,0.019,0.193c0.013,0.06,0.033,0.111,0.061,0.154
		c0.027,0.047,0.063,0.08,0.107,0.104c0.044,0.027,0.099,0.039,0.164,0.039c0.063,0,0.116-0.012,0.16-0.039
		c0.044-0.023,0.081-0.061,0.108-0.104c0.028-0.043,0.048-0.096,0.061-0.154c0.012-0.063,0.019-0.125,0.019-0.193v-0.033
		c0-0.066-0.006-0.131-0.019-0.189c-0.013-0.061-0.033-0.113-0.061-0.158c-0.028-0.045-0.064-0.082-0.109-0.105
		c-0.045-0.025-0.099-0.041-0.163-0.041c-0.063,0-0.116,0.016-0.16,0.041c-0.044,0.023-0.081,0.063-0.107,0.105
		c-0.028,0.045-0.048,0.1-0.061,0.158c-0.012,0.061-0.019,0.123-0.019,0.189V14.262z"/>
	<path d="M6.962,13.823c-0.023-0.005-0.05-0.007-0.081-0.009C6.85,13.81,6.823,13.81,6.799,13.81c-0.088,0-0.16,0.015-0.215,0.043
		c-0.055,0.03-0.095,0.073-0.121,0.129v1.106H6.012v-1.69h0.427L6.451,13.6c0.043-0.072,0.096-0.129,0.158-0.17
		c0.063-0.041,0.136-0.063,0.219-0.063c0.024,0,0.049,0.002,0.076,0.006c0.026,0.004,0.048,0.01,0.065,0.016L6.962,13.823z"/>
	<path d="M7.109,14.232c0-0.129,0.015-0.246,0.044-0.353c0.03-0.106,0.073-0.198,0.129-0.272c0.057-0.075,0.125-0.138,0.208-0.178
		c0.082-0.041,0.176-0.063,0.281-0.063c0.086,0,0.163,0.016,0.23,0.049c0.067,0.031,0.126,0.078,0.177,0.137V12.69h0.453v2.398
		H8.225l-0.022-0.18c-0.053,0.066-0.115,0.117-0.186,0.154C7.946,15.1,7.864,15.12,7.769,15.12c-0.104,0-0.197-0.021-0.279-0.063
		c-0.082-0.047-0.15-0.104-0.207-0.182c-0.056-0.076-0.099-0.166-0.129-0.271C7.125,14.5,7.11,14.385,7.11,14.263L7.109,14.232
		L7.109,14.232z M7.561,14.264c0,0.07,0.006,0.133,0.017,0.193c0.012,0.059,0.029,0.109,0.056,0.152
		c0.025,0.047,0.059,0.08,0.1,0.104c0.041,0.025,0.091,0.039,0.15,0.039c0.073,0,0.134-0.016,0.182-0.047s0.086-0.076,0.113-0.131
		v-0.666c-0.027-0.057-0.065-0.102-0.113-0.131c-0.048-0.031-0.108-0.047-0.179-0.047c-0.06,0-0.11,0.014-0.152,0.039
		c-0.041,0.025-0.075,0.061-0.1,0.105c-0.026,0.045-0.044,0.098-0.056,0.158c-0.012,0.059-0.018,0.125-0.018,0.193V14.264z"/>
	<path d="M9.762,15.122c-0.132,0-0.25-0.021-0.354-0.063s-0.191-0.103-0.264-0.177c-0.074-0.073-0.127-0.159-0.166-0.26
		S8.92,14.417,8.92,14.304v-0.063c0-0.128,0.02-0.244,0.057-0.353c0.037-0.109,0.09-0.199,0.157-0.275
		c0.068-0.077,0.151-0.139,0.249-0.182s0.207-0.063,0.327-0.063c0.122,0,0.229,0.021,0.322,0.062
		c0.092,0.038,0.17,0.096,0.231,0.168c0.063,0.071,0.11,0.159,0.144,0.262c0.03,0.104,0.048,0.218,0.048,0.343v0.19H9.379
		c0.008,0.056,0.021,0.104,0.044,0.149s0.052,0.082,0.086,0.115c0.035,0.03,0.076,0.057,0.123,0.073
		c0.048,0.017,0.101,0.024,0.158,0.024c0.082,0,0.158-0.017,0.228-0.045c0.07-0.03,0.129-0.078,0.182-0.144l0.222,0.248
		c-0.026,0.037-0.062,0.076-0.103,0.11c-0.041,0.037-0.088,0.07-0.144,0.099c-0.055,0.028-0.118,0.054-0.187,0.069
		C9.918,15.111,9.843,15.122,9.762,15.122z M9.709,13.732c-0.049,0-0.092,0.011-0.129,0.026c-0.037,0.017-0.068,0.041-0.096,0.07
		C9.459,13.86,9.438,13.897,9.42,13.94s-0.029,0.09-0.036,0.143h0.628v-0.037c0-0.045-0.008-0.086-0.02-0.125
		c-0.014-0.039-0.03-0.07-0.055-0.1c-0.025-0.027-0.058-0.051-0.096-0.066C9.805,13.741,9.762,13.732,9.709,13.732z"/>
	<path d="M11.663,13.823c-0.022-0.005-0.05-0.007-0.081-0.009c-0.031-0.004-0.059-0.004-0.082-0.004
		c-0.088,0-0.16,0.015-0.215,0.043c-0.055,0.03-0.096,0.073-0.121,0.129v1.106h-0.452v-1.69h0.427l0.012,0.201
		c0.043-0.072,0.098-0.13,0.158-0.17c0.063-0.041,0.135-0.063,0.219-0.063c0.024,0,0.051,0.002,0.076,0.006
		c0.026,0.004,0.049,0.01,0.065,0.018L11.663,13.823z"/>
	<path d="M12.795,14.624c0-0.024-0.004-0.047-0.014-0.065s-0.027-0.039-0.053-0.056c-0.026-0.019-0.063-0.035-0.106-0.051
		c-0.044-0.017-0.103-0.029-0.173-0.045c-0.086-0.019-0.167-0.041-0.24-0.07c-0.074-0.026-0.137-0.063-0.191-0.104
		c-0.054-0.043-0.095-0.092-0.125-0.146c-0.029-0.055-0.045-0.119-0.045-0.19s0.016-0.14,0.047-0.201
		c0.03-0.063,0.074-0.12,0.131-0.168c0.061-0.049,0.129-0.088,0.213-0.114c0.085-0.029,0.18-0.043,0.283-0.043
		c0.109,0,0.209,0.014,0.295,0.041c0.088,0.026,0.162,0.063,0.225,0.112c0.063,0.05,0.105,0.104,0.143,0.172
		c0.031,0.065,0.049,0.142,0.049,0.22h-0.453c0-0.063-0.021-0.117-0.063-0.16c-0.042-0.041-0.106-0.063-0.194-0.063
		c-0.076,0-0.135,0.019-0.176,0.052c-0.043,0.034-0.063,0.077-0.063,0.133c0,0.022,0.005,0.047,0.016,0.065
		c0.013,0.019,0.029,0.035,0.054,0.054c0.023,0.016,0.058,0.03,0.098,0.045c0.039,0.012,0.089,0.024,0.148,0.037
		c0.09,0.018,0.176,0.039,0.254,0.063c0.076,0.026,0.146,0.062,0.201,0.103c0.059,0.041,0.102,0.092,0.135,0.149
		c0.03,0.06,0.047,0.129,0.047,0.213c0,0.074-0.018,0.146-0.049,0.207c-0.033,0.063-0.082,0.117-0.145,0.164
		c-0.063,0.045-0.139,0.08-0.225,0.106c-0.088,0.024-0.187,0.039-0.295,0.039c-0.119,0-0.223-0.019-0.313-0.052
		c-0.09-0.032-0.167-0.075-0.229-0.131c-0.063-0.056-0.107-0.114-0.141-0.185c-0.029-0.065-0.047-0.135-0.047-0.203h0.43
		c0.002,0.043,0.012,0.08,0.027,0.113c0.018,0.03,0.04,0.058,0.066,0.076c0.029,0.02,0.063,0.034,0.099,0.045
		c0.037,0.008,0.076,0.014,0.117,0.014c0.086,0,0.151-0.018,0.194-0.049C12.773,14.719,12.795,14.676,12.795,14.624z"/>
</g>
</svg>
