<?xml version="1.0" encoding="utf-8"?>
<!-- Generator: Adobe Illustrator 16.0.0, SVG Export Plug-In . SVG Version: 6.00 Build 0)  -->
<!DOCTYPE svg PUBLIC "-//W3C//DTD SVG 1.1//EN" "http://www.w3.org/Graphics/SVG/1.1/DTD/svg11.dtd">
<svg version="1.1" id="Layer_1" xmlns="http://www.w3.org/2000/svg" xmlns:xlink="http://www.w3.org/1999/xlink" x="0px" y="0px"
	 width="16.08px" height="18.48px" viewBox="0 0 16.08 18.48" enable-background="new 0 0 16.08 18.48" xml:space="preserve">
<g>
	<path d="M6.191,14.213c-0.009,0.116-0.035,0.224-0.079,0.319c-0.043,0.097-0.104,0.18-0.181,0.249s-0.17,0.124-0.28,0.163
		c-0.11,0.039-0.235,0.059-0.376,0.059c-0.146,0-0.276-0.023-0.393-0.074c-0.116-0.053-0.215-0.123-0.295-0.22
		c-0.081-0.095-0.143-0.209-0.186-0.344s-0.065-0.286-0.065-0.454v-0.148c0-0.167,0.022-0.319,0.067-0.455
		c0.044-0.137,0.108-0.25,0.19-0.347c0.081-0.095,0.181-0.168,0.297-0.219c0.117-0.051,0.247-0.077,0.391-0.077
		c0.142,0,0.267,0.021,0.376,0.062s0.201,0.096,0.277,0.167c0.076,0.07,0.135,0.154,0.178,0.255c0.043,0.099,0.07,0.206,0.082,0.321
		H5.725c-0.005-0.068-0.017-0.13-0.035-0.182c-0.019-0.052-0.044-0.096-0.079-0.131c-0.034-0.036-0.078-0.063-0.133-0.081
		c-0.054-0.018-0.12-0.027-0.197-0.027c-0.158,0-0.276,0.06-0.354,0.175c-0.077,0.113-0.116,0.293-0.116,0.533v0.153
		c0,0.118,0.009,0.221,0.026,0.312c0.017,0.089,0.044,0.161,0.081,0.222c0.037,0.06,0.085,0.104,0.144,0.134
		c0.059,0.03,0.13,0.044,0.213,0.044c0.074,0,0.138-0.008,0.191-0.023c0.053-0.019,0.099-0.042,0.135-0.076
		c0.036-0.034,0.063-0.077,0.083-0.127c0.02-0.053,0.032-0.11,0.038-0.18L6.191,14.213L6.191,14.213z"/>
	<path d="M6.946,14.971H6.492v-2.091h0.453L6.946,14.971L6.946,14.971z"/>
	<path d="M8.33,14.799c-0.053,0.064-0.118,0.115-0.193,0.15c-0.076,0.036-0.166,0.053-0.269,0.053c-0.083,0-0.16-0.012-0.228-0.035
		c-0.069-0.022-0.128-0.061-0.178-0.109c-0.049-0.051-0.087-0.116-0.114-0.195c-0.027-0.08-0.041-0.175-0.041-0.287v-1.094h0.451
		v1.097c0,0.047,0.007,0.087,0.019,0.12c0.012,0.034,0.028,0.063,0.05,0.081c0.021,0.021,0.047,0.035,0.076,0.044
		c0.029,0.01,0.062,0.016,0.097,0.016c0.081,0,0.147-0.016,0.198-0.042c0.052-0.028,0.091-0.067,0.118-0.117v-1.197h0.452v1.69
		H8.343L8.33,14.799z"/>
	<path d="M10.632,14.141c0,0.127-0.014,0.241-0.041,0.348c-0.025,0.105-0.066,0.196-0.123,0.272
		c-0.055,0.074-0.123,0.135-0.205,0.177c-0.084,0.042-0.18,0.063-0.289,0.063c-0.099,0-0.184-0.019-0.254-0.056
		s-0.133-0.088-0.186-0.155l-0.021,0.182H9.108v-2.4H9.56v0.861c0.051-0.06,0.109-0.104,0.177-0.137
		c0.067-0.029,0.146-0.047,0.235-0.047c0.108,0,0.207,0.021,0.289,0.064c0.084,0.042,0.151,0.102,0.207,0.178
		s0.098,0.167,0.125,0.271c0.025,0.104,0.041,0.221,0.041,0.346v0.033H10.632z M10.181,14.108c0-0.067-0.006-0.13-0.017-0.19
		c-0.009-0.06-0.024-0.11-0.051-0.155c-0.022-0.046-0.06-0.08-0.101-0.106s-0.094-0.039-0.16-0.039
		c-0.074,0-0.137,0.015-0.186,0.046c-0.048,0.031-0.085,0.074-0.111,0.13v0.667c0.026,0.058,0.063,0.102,0.111,0.131
		c0.049,0.031,0.111,0.049,0.189,0.049c0.063,0,0.115-0.014,0.156-0.037c0.041-0.025,0.074-0.062,0.099-0.104
		s0.042-0.096,0.051-0.157c0.011-0.061,0.015-0.127,0.015-0.197v-0.032h0.004V14.108z"/>
	<path d="M11.825,14.503c0-0.022-0.005-0.046-0.014-0.063c-0.01-0.021-0.027-0.039-0.053-0.058
		c-0.026-0.017-0.063-0.032-0.106-0.049c-0.045-0.016-0.103-0.028-0.175-0.045c-0.086-0.019-0.166-0.042-0.238-0.068
		c-0.074-0.028-0.139-0.063-0.191-0.105c-0.054-0.042-0.096-0.09-0.125-0.145c-0.029-0.057-0.045-0.12-0.045-0.192
		c0-0.071,0.016-0.138,0.045-0.202c0.03-0.063,0.075-0.12,0.133-0.168c0.06-0.048,0.129-0.086,0.213-0.115
		c0.084-0.027,0.179-0.042,0.283-0.042c0.109,0,0.209,0.015,0.295,0.041c0.088,0.027,0.162,0.065,0.225,0.113
		s0.105,0.104,0.143,0.172c0.031,0.067,0.049,0.14,0.049,0.219H11.81c0-0.063-0.021-0.116-0.063-0.159
		c-0.042-0.042-0.106-0.063-0.194-0.063c-0.076,0-0.136,0.017-0.178,0.051c-0.042,0.035-0.063,0.078-0.063,0.131
		c0,0.025,0.006,0.048,0.017,0.066s0.028,0.037,0.054,0.053c0.023,0.018,0.058,0.031,0.096,0.044
		c0.041,0.016,0.091,0.026,0.148,0.038c0.092,0.02,0.176,0.04,0.254,0.065c0.078,0.024,0.146,0.06,0.203,0.101
		s0.102,0.091,0.133,0.15c0.032,0.059,0.049,0.13,0.049,0.213c0,0.075-0.018,0.144-0.051,0.207c-0.033,0.063-0.08,0.117-0.143,0.163
		s-0.137,0.082-0.225,0.106C11.759,14.987,11.66,15,11.554,15c-0.119,0-0.226-0.017-0.314-0.05c-0.09-0.034-0.167-0.077-0.229-0.131
		c-0.063-0.054-0.108-0.115-0.142-0.183c-0.03-0.067-0.047-0.138-0.047-0.205h0.428c0.003,0.044,0.013,0.082,0.029,0.111
		c0.019,0.032,0.04,0.06,0.067,0.078c0.027,0.021,0.062,0.034,0.099,0.043s0.075,0.016,0.116,0.016c0.087,0,0.15-0.019,0.195-0.051
		C11.804,14.598,11.825,14.557,11.825,14.503z"/>
</g>
<g>
	<path d="M6.686,24.051c0-0.04-0.006-0.075-0.018-0.105c-0.011-0.032-0.033-0.063-0.066-0.09c-0.033-0.025-0.078-0.054-0.136-0.08
		c-0.058-0.025-0.133-0.053-0.225-0.084c-0.104-0.031-0.202-0.069-0.294-0.111c-0.093-0.042-0.173-0.091-0.242-0.147
		c-0.069-0.056-0.124-0.122-0.164-0.194c-0.04-0.074-0.061-0.16-0.061-0.261c0-0.095,0.021-0.181,0.062-0.26
		c0.042-0.079,0.1-0.146,0.174-0.201c0.074-0.055,0.163-0.098,0.266-0.129s0.215-0.046,0.338-0.046c0.126,0,0.241,0.02,0.344,0.052
		c0.104,0.035,0.191,0.083,0.265,0.146c0.073,0.063,0.129,0.137,0.168,0.223s0.059,0.18,0.059,0.282h-0.47
		c0-0.048-0.007-0.092-0.022-0.133s-0.038-0.076-0.069-0.105c-0.031-0.027-0.07-0.052-0.117-0.066
		c-0.047-0.018-0.102-0.025-0.166-0.025c-0.061,0-0.114,0.007-0.16,0.021c-0.045,0.014-0.083,0.03-0.112,0.056
		c-0.029,0.022-0.052,0.051-0.067,0.083s-0.022,0.065-0.022,0.103c0,0.075,0.038,0.14,0.115,0.188
		c0.076,0.051,0.188,0.098,0.336,0.142c0.124,0.039,0.233,0.081,0.328,0.128c0.094,0.047,0.173,0.102,0.235,0.159
		c0.063,0.062,0.111,0.126,0.144,0.2c0.032,0.074,0.048,0.158,0.048,0.251c0,0.1-0.02,0.189-0.059,0.267
		c-0.039,0.078-0.094,0.146-0.166,0.198c-0.072,0.054-0.159,0.095-0.26,0.124c-0.101,0.029-0.215,0.043-0.34,0.043
		c-0.075,0-0.15-0.006-0.225-0.02c-0.075-0.016-0.146-0.033-0.215-0.062c-0.068-0.025-0.131-0.061-0.189-0.102
		c-0.059-0.041-0.109-0.088-0.152-0.146c-0.043-0.055-0.077-0.118-0.102-0.188c-0.025-0.07-0.037-0.148-0.037-0.234h0.471
		c0,0.069,0.011,0.127,0.032,0.175c0.022,0.05,0.053,0.086,0.092,0.116c0.039,0.03,0.086,0.051,0.142,0.065
		c0.055,0.014,0.116,0.021,0.184,0.021c0.06,0,0.113-0.007,0.158-0.02c0.045-0.015,0.082-0.031,0.111-0.056
		c0.029-0.021,0.051-0.05,0.064-0.082C6.678,24.121,6.686,24.087,6.686,24.051z"/>
	<path d="M8.965,23.816c0,0.123-0.014,0.237-0.043,0.344c-0.028,0.104-0.069,0.194-0.125,0.271c-0.055,0.076-0.124,0.14-0.206,0.184
		c-0.082,0.043-0.176,0.063-0.282,0.063c-0.089,0-0.168-0.016-0.236-0.047c-0.068-0.031-0.127-0.075-0.178-0.131v0.681H7.443v-2.224
		h0.419l0.016,0.166c0.052-0.063,0.112-0.111,0.182-0.146c0.069-0.034,0.151-0.051,0.246-0.051c0.107,0,0.202,0.021,0.284,0.063
		c0.083,0.041,0.151,0.1,0.207,0.175c0.056,0.076,0.097,0.167,0.125,0.271c0.029,0.106,0.043,0.225,0.043,0.353V23.816z
		 M8.514,23.786c0-0.07-0.006-0.137-0.018-0.195c-0.012-0.06-0.031-0.112-0.057-0.156c-0.027-0.044-0.06-0.079-0.101-0.104
		c-0.041-0.025-0.092-0.037-0.151-0.037c-0.074,0-0.135,0.014-0.182,0.041c-0.047,0.028-0.084,0.068-0.11,0.121v0.69
		c0.026,0.054,0.063,0.095,0.11,0.123c0.047,0.03,0.109,0.044,0.186,0.044c0.059,0,0.109-0.013,0.15-0.039
		c0.041-0.024,0.074-0.062,0.1-0.105c0.025-0.045,0.044-0.098,0.055-0.159c0.012-0.06,0.018-0.124,0.018-0.192V23.786z"/>
	<path d="M9.174,23.787c0-0.123,0.019-0.237,0.054-0.342c0.035-0.105,0.086-0.196,0.154-0.272c0.068-0.077,0.151-0.137,0.25-0.181
		c0.1-0.044,0.213-0.065,0.34-0.065c0.129,0,0.242,0.021,0.342,0.065c0.102,0.044,0.186,0.104,0.252,0.181
		c0.068,0.076,0.121,0.167,0.156,0.272c0.035,0.104,0.053,0.219,0.053,0.342v0.033c0,0.124-0.019,0.236-0.053,0.343
		c-0.035,0.104-0.088,0.193-0.156,0.271c-0.066,0.077-0.15,0.139-0.25,0.182s-0.213,0.063-0.34,0.063
		c-0.129,0-0.242-0.021-0.342-0.063S9.45,24.51,9.382,24.433s-0.119-0.167-0.154-0.271c-0.035-0.104-0.054-0.219-0.054-0.343V23.787
		z M9.626,23.82c0,0.067,0.006,0.133,0.02,0.192c0.014,0.063,0.033,0.113,0.062,0.157s0.063,0.08,0.106,0.104
		c0.043,0.026,0.099,0.039,0.164,0.039c0.063,0,0.115-0.013,0.16-0.039c0.043-0.024,0.08-0.061,0.107-0.104s0.048-0.096,0.061-0.157
		c0.014-0.061,0.021-0.125,0.021-0.192v-0.033c0-0.067-0.007-0.13-0.021-0.19c-0.013-0.06-0.033-0.11-0.061-0.158
		c-0.027-0.045-0.064-0.082-0.109-0.106c-0.043-0.026-0.1-0.04-0.162-0.04s-0.117,0.014-0.16,0.04
		c-0.045,0.024-0.08,0.063-0.106,0.106s-0.048,0.1-0.062,0.158c-0.013,0.062-0.02,0.123-0.02,0.19V23.82z"/>
	<path d="M12.004,23.381c-0.022-0.003-0.05-0.006-0.08-0.009c-0.03-0.002-0.059-0.004-0.081-0.004c-0.09,0-0.16,0.015-0.216,0.044
		c-0.055,0.028-0.095,0.073-0.121,0.129v1.104h-0.452v-1.688h0.428l0.014,0.201c0.042-0.073,0.095-0.13,0.156-0.171
		c0.063-0.041,0.137-0.063,0.221-0.063c0.023,0,0.049,0.002,0.076,0.006c0.025,0.004,0.048,0.009,0.064,0.016L12.004,23.381z"/>
	<path d="M12.763,22.541v0.416h0.289v0.331h-0.289v0.844c0,0.036,0.004,0.064,0.01,0.087c0.009,0.023,0.02,0.041,0.033,0.054
		c0.017,0.015,0.032,0.021,0.055,0.026c0.021,0.005,0.048,0.007,0.076,0.007c0.026,0,0.053-0.001,0.074-0.003
		s0.041-0.005,0.059-0.008v0.342c-0.037,0.011-0.078,0.021-0.122,0.029c-0.046,0.008-0.095,0.012-0.15,0.012
		c-0.073,0-0.141-0.009-0.198-0.027c-0.061-0.018-0.111-0.047-0.152-0.087c-0.043-0.04-0.075-0.091-0.098-0.152
		c-0.023-0.063-0.035-0.142-0.035-0.23v-0.892h-0.25v-0.331h0.246v-0.416L12.763,22.541L12.763,22.541z"/>
</g>
<g>
	<path fill="#6D6E70" d="M7.387,5.898C7.49,6.24,7.391,6.476,7.04,6.594c-0.436,0.15-0.564,0.479-0.505,0.908
		c0.055,0.404,0.313,0.58,0.709,0.595c0,0.703,0,1.384,0,2.183C6.825,10.124,6.4,10.062,6.099,9.834
		C5.65,9.495,5.207,9.093,4.906,8.624C3.84,6.958,3.538,5.059,3.324,3.173c0.775-0.146,1.518-0.254,2.24-0.438
		C6.302,2.546,6.948,2.17,7.405,1.497C8.454,2.813,9.925,3,11.515,3.114c-0.131,0.78-0.259,1.546-0.408,2.442
		C10.388,4.79,9.76,5.124,9.135,5.516c-0.403,0.252-0.834,0.389-1.32,0.336C7.674,5.836,7.524,5.888,7.379,5.907
		c0-1.355,0-2.71,0-4.116c-1.031,1.2-2.427,1.298-3.861,1.468C3.667,4.143,3.81,4.992,3.954,5.849c0.618,0,1.15-0.008,1.682,0.002
		C6.22,5.859,6.804,5.881,7.387,5.898z"/>
	<path fill="#6D6E70" d="M10.163,10.461c-0.711,0-1.422-0.009-2.133,0.004c-0.335,0.008-0.465-0.129-0.458-0.463
		C7.585,9.36,7.561,8.717,7.586,8.076C7.591,7.939,7.712,7.75,7.833,7.684c0.694-0.38,1.4-0.741,2.113-1.085
		c0.121-0.06,0.32-0.059,0.445,0.002c0.711,0.344,1.416,0.705,2.111,1.083c0.115,0.062,0.232,0.23,0.239,0.356
		c0.022,0.669,0.006,1.339,0.014,2.01c0.003,0.3-0.129,0.415-0.422,0.412C11.61,10.455,10.886,10.46,10.163,10.461z M11.123,9.354
		c0-0.191-0.011-0.383,0.003-0.573c0.029-0.349-0.111-0.508-0.471-0.492c-0.326,0.013-0.654,0.013-0.982,0
		C9.317,8.276,9.179,8.432,9.204,8.783c0.02,0.244,0.004,0.491,0.004,0.737c0,0.856,0,0.858,0.878,0.856
		C11.24,10.376,11.118,10.49,11.123,9.354z"/>
	<path fill="#6D6E70" d="M13.487,7.198c0,0.556-0.15,0.646-0.535,0.45c-0.84-0.431-1.68-0.854-2.512-1.297
		c-0.205-0.109-0.359-0.104-0.562,0.003C9.06,6.791,8.231,7.209,7.404,7.633c-0.18,0.095-0.397,0.25-0.514-0.035
		C6.795,7.359,6.754,7.085,7.069,6.925c0.706-0.357,1.446-0.667,2.102-1.102c0.71-0.473,1.307-0.438,2.004,0.013
		c0.639,0.413,1.355,0.705,2.028,1.07C13.345,6.981,13.438,7.146,13.487,7.198z"/>
</g>
</svg>
