<?xml version="1.0" encoding="utf-8"?>
<!-- Generator: Adobe Illustrator 16.0.0, SVG Export Plug-In . SVG Version: 6.00 Build 0)  -->
<!DOCTYPE svg PUBLIC "-//W3C//DTD SVG 1.1//EN" "http://www.w3.org/Graphics/SVG/1.1/DTD/svg11.dtd">
<svg version="1.1" id="Layer_1" xmlns="http://www.w3.org/2000/svg" xmlns:xlink="http://www.w3.org/1999/xlink" x="0px" y="0px"
	 width="16px" height="18.579px" viewBox="0 0 16 18.579" enable-background="new 0 0 16 18.579" xml:space="preserve">
<g>
	<path fill="#6D6E70" d="M8.927,3.524c-0.447,0.28-0.893,0.56-1.341,0.845C7.66,4.476,7.732,4.583,7.805,4.688
		c0.166,0.241,0.333,0.479,0.5,0.72C8.369,5.5,8.408,5.604,8.392,5.716C8.381,5.818,8.387,5.919,8.387,6.019
		c0,0.188-0.006,0.373-0.013,0.558c-0.011,0.43-0.026,0.861-0.033,1.292C8.338,8.093,8.229,8.24,8.037,8.339
		C7.755,8.478,7.396,8.412,7.206,8.186C7.127,8.093,7.09,7.989,7.092,7.868c0.013-0.494,0.025-0.988,0.037-1.48
		c0.002-0.1,0.008-0.199,0.007-0.296c0-0.028-0.011-0.06-0.026-0.081C6.89,5.69,6.673,5.372,6.453,5.055
		C6.292,4.823,6.135,4.589,5.971,4.36C5.82,4.152,5.845,3.901,5.978,3.703c0.071-0.106,0.163-0.188,0.275-0.249
		c0.015-0.008,0.034-0.016,0.041-0.029c0.087-0.164,0.239-0.259,0.377-0.366C6.897,2.887,7.124,2.714,7.35,2.542
		C7.67,2.296,7.988,2.05,8.31,1.81c0.405-0.302,0.985-0.14,1.193,0.33C9.6,2.358,9.626,2.582,9.594,2.818
		C9.592,2.833,9.592,2.855,9.6,2.871c0.164,0.417,0.33,0.836,0.49,1.255c0.021,0.055,0.049,0.071,0.107,0.071
		c0.441-0.009,0.883-0.011,1.324-0.021c0.135-0.002,0.256,0.033,0.365,0.111c0.245,0.179,0.233,0.496-0.025,0.655
		c-0.1,0.062-0.204,0.095-0.322,0.095c-0.251,0.002-0.501,0.005-0.754,0.009c-0.276,0.002-0.553,0.012-0.829,0.014
		c-0.142,0.002-0.274-0.019-0.39-0.117c-0.09-0.076-0.149-0.172-0.191-0.28C9.236,4.307,9.098,3.955,8.959,3.599
		C8.952,3.577,8.938,3.55,8.927,3.524z"/>
	<path fill="#6D6E70" d="M5.602,5.939C5.736,5.82,5.866,5.705,5.999,5.59C6.058,5.543,6.12,5.504,6.183,5.464
		c0.028-0.021,0.053-0.016,0.074,0.022c0.08,0.137,0.164,0.274,0.247,0.408c0.02,0.033,0.004,0.051-0.018,0.069
		c-0.1,0.093-0.201,0.181-0.304,0.271C6.132,6.279,6.081,6.326,6.029,6.37c0.573,0.759,0.767,1.599,0.55,2.519
		c-0.166,0.703-0.556,1.271-1.142,1.691c-1.171,0.84-2.797,0.713-3.822-0.353c-1-1.033-1.116-2.665-0.199-3.836
		c0.508-0.648,1.181-1.021,2-1.109C4.231,5.196,4.96,5.42,5.602,5.939z M5.267,6.231C4.499,5.605,3.243,5.456,2.251,6.18
		C1.263,6.903,0.886,8.288,1.572,9.466c0.56,0.962,1.761,1.507,2.975,1.09C5.606,10.192,6.156,9.224,6.199,8.5
		c-0.01,0-0.021-0.002-0.034-0.002c-0.616,0-1.233,0-1.85,0c-0.033-0.002-0.05,0.016-0.066,0.037C4.06,8.82,3.696,8.901,3.404,8.728
		C3.186,8.6,3.069,8.334,3.116,8.081c0.048-0.251,0.256-0.462,0.5-0.494c0.101-0.011,0.17-0.046,0.248-0.118
		c0.276-0.259,0.565-0.5,0.849-0.75C4.896,6.559,5.079,6.399,5.267,6.231z M4.305,7.88C4.31,7.885,4.312,7.889,4.314,7.894
		c0.63,0,1.26,0,1.897,0c-0.059-0.462-0.23-0.87-0.512-1.235C5.232,7.068,4.768,7.475,4.305,7.88z"/>
	<path fill="#6D6E70" d="M11.691,5.353c-0.004-0.055-0.012-0.106-0.012-0.154c0-0.016,0.016-0.044,0.029-0.049
		c0.165-0.053,0.331-0.106,0.514-0.164c0.028,0.09,0.055,0.183,0.082,0.277c0.945-0.016,1.743,0.322,2.36,1.051
		c0.485,0.572,0.714,1.245,0.687,1.995c-0.054,1.396-1.084,2.564-2.467,2.781c-1.552,0.246-2.894-0.729-3.281-2.064
		C9.375,8.232,9.462,7.466,9.87,6.749C10.277,6.031,10.896,5.575,11.691,5.353z M11.752,5.792c-1.137,0.296-2.05,1.483-1.792,2.861
		c0.267,1.434,1.67,2.311,3.046,1.971c1.412-0.344,2.238-1.784,1.794-3.187c-0.207-0.66-0.634-1.147-1.249-1.466
		C13.177,5.774,12.775,5.688,12.35,5.7c0.012,0.086,0.021,0.164,0.032,0.243c0.037,0.28,0.072,0.562,0.11,0.845
		c0.035,0.269,0.072,0.539,0.105,0.81c0.006,0.042,0.023,0.066,0.057,0.091c0.213,0.156,0.302,0.365,0.259,0.624
		c-0.043,0.25-0.244,0.447-0.481,0.494c-0.299,0.063-0.592-0.094-0.709-0.375c-0.111-0.267-0.016-0.583,0.234-0.75
		c0.031-0.021,0.04-0.042,0.036-0.079c-0.054-0.367-0.101-0.734-0.147-1.102C11.814,6.265,11.784,6.031,11.752,5.792z"/>
	<path fill="#6D6E70" d="M10.262,2.187c-0.578,0-1.047-0.468-1.047-1.043c0-0.583,0.467-1.055,1.047-1.058
		c0.581,0,1.053,0.475,1.053,1.06C11.313,1.719,10.838,2.187,10.262,2.187z"/>
	<path fill="#6D6E70" d="M8.82,7.049C8.809,6.938,8.8,6.846,8.793,6.753C8.779,6.594,8.768,6.436,8.758,6.277
		c-0.002-0.024,0.006-0.053,0.021-0.07c0.23-0.278,0.462-0.556,0.697-0.832c0.014-0.018,0.039-0.032,0.06-0.032
		c0.252,0.002,0.505,0.011,0.755,0.016c0.007,0,0.016,0.002,0.034,0.007C9.82,5.927,9.327,6.48,8.82,7.049z"/>
</g>
<g>
	<path d="M4.27,14.333c-0.008,0.115-0.034,0.222-0.078,0.317c-0.044,0.099-0.104,0.181-0.182,0.25
		c-0.077,0.067-0.17,0.123-0.28,0.162s-0.235,0.06-0.376,0.06c-0.145,0-0.276-0.024-0.392-0.076
		c-0.116-0.051-0.215-0.123-0.295-0.219c-0.081-0.095-0.143-0.209-0.186-0.345c-0.044-0.135-0.065-0.287-0.065-0.453v-0.149
		c0-0.168,0.021-0.319,0.067-0.455c0.044-0.135,0.108-0.25,0.19-0.346c0.082-0.095,0.181-0.168,0.297-0.22
		c0.116-0.051,0.247-0.075,0.391-0.075c0.142,0,0.267,0.021,0.376,0.061c0.109,0.039,0.2,0.097,0.277,0.166
		c0.076,0.072,0.135,0.156,0.178,0.257c0.042,0.099,0.069,0.205,0.081,0.319H3.805c-0.005-0.067-0.017-0.127-0.036-0.18
		c-0.018-0.054-0.044-0.097-0.079-0.132c-0.034-0.034-0.079-0.063-0.133-0.08c-0.054-0.021-0.121-0.026-0.197-0.026
		c-0.158,0-0.276,0.058-0.354,0.172c-0.078,0.115-0.116,0.293-0.116,0.535v0.153c0,0.117,0.009,0.222,0.026,0.31
		S2.96,14.5,2.998,14.561c0.037,0.059,0.085,0.104,0.144,0.133s0.129,0.045,0.212,0.045c0.075,0,0.138-0.01,0.192-0.025
		c0.054-0.018,0.098-0.043,0.135-0.074c0.036-0.033,0.063-0.076,0.083-0.129c0.02-0.051,0.032-0.109,0.038-0.178H4.27L4.27,14.333z"
		/>
	<path d="M5.18,14.452l0.313-1.054h0.484L5.3,15.342c-0.016,0.043-0.036,0.09-0.06,0.141c-0.024,0.049-0.058,0.096-0.099,0.139
		s-0.093,0.08-0.155,0.107c-0.062,0.029-0.137,0.043-0.227,0.043c-0.021,0-0.04,0-0.056-0.002c-0.017-0.002-0.033-0.004-0.048-0.006
		c-0.015-0.002-0.031-0.004-0.046-0.008c-0.015-0.004-0.031-0.008-0.049-0.014V15.4c0.011,0,0.023,0,0.035,0
		c0.012,0.002,0.023,0.002,0.033,0.002c0.045,0,0.083-0.004,0.115-0.01c0.032-0.009,0.059-0.021,0.082-0.033
		c0.022-0.017,0.042-0.034,0.058-0.058c0.016-0.022,0.029-0.051,0.041-0.082l0.048-0.127L4.38,13.398h0.486L5.18,14.452z"/>
	<path d="M6.858,14.756c0.042,0,0.079-0.006,0.114-0.02c0.034-0.012,0.064-0.027,0.088-0.051c0.025-0.021,0.045-0.049,0.059-0.078
		c0.014-0.029,0.021-0.064,0.023-0.104h0.423c-0.001,0.088-0.02,0.172-0.056,0.246c-0.037,0.076-0.086,0.142-0.148,0.194
		C7.299,15,7.225,15.043,7.14,15.075c-0.085,0.029-0.176,0.045-0.274,0.045c-0.131,0-0.246-0.021-0.344-0.064
		c-0.098-0.047-0.179-0.104-0.244-0.184c-0.065-0.076-0.113-0.166-0.146-0.27c-0.032-0.105-0.048-0.217-0.048-0.336v-0.043
		c0-0.121,0.016-0.232,0.048-0.336c0.032-0.105,0.081-0.195,0.146-0.273c0.064-0.076,0.146-0.137,0.243-0.182
		c0.098-0.045,0.211-0.066,0.342-0.066c0.104,0,0.198,0.016,0.285,0.047c0.086,0.029,0.16,0.074,0.221,0.131
		c0.061,0.061,0.109,0.127,0.144,0.209c0.034,0.082,0.052,0.174,0.053,0.275H7.143c-0.001-0.041-0.008-0.08-0.021-0.115
		c-0.013-0.037-0.031-0.068-0.055-0.094c-0.024-0.027-0.054-0.049-0.089-0.064c-0.035-0.014-0.076-0.021-0.123-0.021
		c-0.065,0-0.119,0.016-0.16,0.041s-0.074,0.063-0.098,0.107S6.558,13.98,6.55,14.038c-0.01,0.063-0.014,0.123-0.014,0.188v0.043
		c0,0.063,0.004,0.127,0.013,0.187c0.008,0.062,0.024,0.11,0.047,0.155c0.023,0.046,0.056,0.08,0.098,0.106
		C6.736,14.745,6.79,14.756,6.858,14.756z"/>
	<path d="M8.3,15.09H7.847v-2.4H8.3V15.09z"/>
	<path d="M8.669,12.961c0-0.068,0.022-0.123,0.067-0.166c0.046-0.045,0.106-0.066,0.186-0.066c0.039,0,0.074,0.006,0.105,0.018
		s0.058,0.027,0.08,0.049c0.021,0.021,0.037,0.045,0.051,0.074c0.012,0.027,0.018,0.061,0.018,0.092
		c0,0.035-0.006,0.066-0.018,0.098c-0.014,0.025-0.029,0.053-0.051,0.072c-0.022,0.021-0.049,0.035-0.08,0.049
		c-0.032,0.012-0.066,0.02-0.105,0.02s-0.072-0.008-0.104-0.02c-0.031-0.014-0.06-0.027-0.08-0.049
		c-0.022-0.021-0.039-0.047-0.053-0.072C8.675,13.027,8.669,12.997,8.669,12.961z M9.148,15.09H8.695v-1.691h0.453V15.09z"/>
	<path d="M10.436,14.624c0-0.024-0.004-0.047-0.014-0.065s-0.027-0.039-0.053-0.056c-0.026-0.019-0.063-0.035-0.105-0.051
		c-0.045-0.017-0.104-0.029-0.174-0.045c-0.086-0.019-0.167-0.041-0.24-0.07c-0.074-0.026-0.137-0.063-0.189-0.104
		c-0.055-0.043-0.098-0.092-0.125-0.146c-0.03-0.055-0.047-0.119-0.047-0.19s0.017-0.14,0.048-0.201
		c0.03-0.063,0.073-0.12,0.133-0.168c0.06-0.049,0.129-0.088,0.213-0.114c0.083-0.029,0.179-0.043,0.283-0.043
		c0.108,0,0.208,0.014,0.295,0.041c0.087,0.026,0.162,0.063,0.224,0.112c0.062,0.05,0.107,0.104,0.142,0.172
		c0.032,0.065,0.049,0.142,0.049,0.22H10.42c0-0.063-0.021-0.117-0.063-0.16c-0.043-0.041-0.107-0.063-0.195-0.063
		c-0.076,0-0.135,0.019-0.176,0.052c-0.043,0.034-0.063,0.077-0.063,0.133c0,0.022,0.005,0.047,0.015,0.065
		c0.014,0.019,0.03,0.035,0.056,0.054c0.022,0.016,0.057,0.03,0.097,0.045c0.04,0.012,0.09,0.024,0.146,0.037
		c0.093,0.018,0.178,0.039,0.256,0.063c0.076,0.026,0.146,0.062,0.201,0.103c0.059,0.041,0.103,0.092,0.135,0.149
		c0.031,0.058,0.049,0.129,0.049,0.213c0,0.074-0.018,0.146-0.05,0.207c-0.033,0.062-0.081,0.117-0.144,0.164
		c-0.063,0.045-0.138,0.08-0.225,0.106c-0.087,0.024-0.186,0.039-0.293,0.039c-0.119,0-0.225-0.019-0.314-0.052
		c-0.09-0.032-0.166-0.075-0.229-0.131s-0.109-0.114-0.141-0.185c-0.03-0.065-0.047-0.135-0.047-0.203h0.428
		c0.003,0.043,0.013,0.08,0.029,0.113c0.018,0.03,0.041,0.058,0.067,0.076c0.026,0.02,0.062,0.034,0.099,0.045
		c0.037,0.008,0.075,0.014,0.116,0.014c0.087,0,0.152-0.018,0.196-0.049C10.414,14.719,10.436,14.676,10.436,14.624z"/>
	<path d="M11.706,12.982v0.416h0.289v0.332h-0.289v0.845c0,0.034,0.004,0.063,0.011,0.088c0.008,0.021,0.018,0.039,0.033,0.053
		c0.016,0.015,0.033,0.021,0.055,0.027c0.021,0.004,0.047,0.006,0.075,0.006c0.027,0,0.052,0,0.074-0.002s0.042-0.006,0.06-0.009
		v0.343c-0.039,0.012-0.08,0.021-0.123,0.028c-0.045,0.009-0.095,0.013-0.149,0.013c-0.074,0-0.142-0.011-0.2-0.027
		c-0.061-0.02-0.109-0.047-0.15-0.088c-0.043-0.039-0.076-0.09-0.1-0.153c-0.021-0.063-0.034-0.142-0.034-0.229V13.73H11.01v-0.332
		h0.247v-0.416H11.706z"/>
	<path d="M13.162,14.624c0-0.024-0.004-0.047-0.014-0.065s-0.027-0.039-0.053-0.056c-0.027-0.019-0.063-0.035-0.107-0.051
		c-0.043-0.017-0.102-0.029-0.172-0.045c-0.088-0.019-0.168-0.041-0.24-0.07c-0.074-0.026-0.137-0.063-0.191-0.104
		c-0.054-0.043-0.095-0.092-0.125-0.146c-0.031-0.055-0.045-0.119-0.045-0.19s0.014-0.14,0.047-0.201
		c0.03-0.063,0.074-0.12,0.133-0.168c0.059-0.049,0.127-0.088,0.213-0.114c0.082-0.029,0.179-0.043,0.283-0.043
		c0.108,0,0.207,0.014,0.295,0.041c0.086,0.026,0.162,0.063,0.224,0.112c0.062,0.05,0.106,0.104,0.141,0.172s0.05,0.142,0.05,0.22
		h-0.453c0-0.063-0.021-0.117-0.063-0.16c-0.042-0.041-0.105-0.063-0.193-0.063c-0.078,0-0.137,0.019-0.178,0.052
		c-0.042,0.034-0.063,0.077-0.063,0.133c0,0.022,0.006,0.047,0.017,0.065s0.028,0.035,0.054,0.054
		c0.023,0.016,0.057,0.03,0.096,0.045c0.041,0.012,0.091,0.024,0.148,0.037c0.092,0.018,0.176,0.039,0.254,0.063
		c0.078,0.026,0.146,0.062,0.203,0.103s0.102,0.092,0.133,0.149c0.032,0.06,0.049,0.129,0.049,0.213
		c0,0.074-0.017,0.146-0.049,0.207c-0.033,0.063-0.082,0.117-0.144,0.164c-0.062,0.045-0.138,0.08-0.224,0.106
		C13.1,15.107,13,15.122,12.895,15.122c-0.121,0-0.226-0.019-0.314-0.052c-0.09-0.032-0.167-0.075-0.229-0.131
		c-0.063-0.056-0.109-0.114-0.142-0.185c-0.03-0.065-0.047-0.135-0.047-0.203h0.428c0.002,0.043,0.013,0.08,0.029,0.113
		c0.019,0.03,0.04,0.058,0.067,0.076c0.027,0.02,0.062,0.034,0.099,0.045c0.037,0.008,0.075,0.014,0.116,0.014
		c0.086,0,0.152-0.018,0.195-0.049S13.162,14.676,13.162,14.624z"/>
</g>
</svg>
