<?xml version="1.0" encoding="utf-8"?>
<!-- Generator: Adobe Illustrator 16.0.0, SVG Export Plug-In . SVG Version: 6.00 Build 0)  -->
<!DOCTYPE svg PUBLIC "-//W3C//DTD SVG 1.1//EN" "http://www.w3.org/Graphics/SVG/1.1/DTD/svg11.dtd">
<svg version="1.1" id="Layer_1" xmlns="http://www.w3.org/2000/svg" xmlns:xlink="http://www.w3.org/1999/xlink" x="0px" y="0px"
	 width="16px" height="19.332px" viewBox="0 0 16 19.332" enable-background="new 0 0 16 19.332" xml:space="preserve">
<g>
	<path fill="#6D6E70" d="M9.299,8.45C8.79,7.968,8.328,7.513,7.849,7.075C7.56,6.811,7.51,6.543,7.702,6.194
		c0.262-0.478,0.49-0.973,0.698-1.52C7.826,5.217,7.13,5.127,6.445,5.097C6.281,5.806,5.926,6.29,5.179,6.347
		C4.579,6.392,4.042,6.044,3.844,5.5C3.648,4.96,3.813,4.367,4.26,4.005c0.454-0.369,1.084-0.392,1.58-0.059
		c0.47,0.316,1.376,0.319,1.857,0.005c0.475-0.308,0.944-0.625,1.424-0.924c0.625-0.394,1.257-0.312,1.757,0.23
		c0.504,0.549,1.004,1.104,1.483,1.674c0.082,0.1,0.117,0.301,0.078,0.429c-0.146,0.502-0.326,0.996-0.504,1.488
		c-0.131,0.369-0.396,0.521-0.69,0.399C10.9,7.106,10.883,6.83,10.982,6.523c0.069-0.223,0.149-0.444,0.228-0.666
		c0.239-0.682,0.231-0.708-0.403-1.205c-0.383,0.752-0.768,1.498-1.131,2.253C9.641,6.975,9.7,7.138,9.77,7.205
		c0.244,0.241,0.52,0.457,0.771,0.692c0.297,0.276,0.318,0.521,0.063,0.829c-0.412,0.486-0.832,0.964-1.261,1.435
		c-0.262,0.289-0.587,0.315-0.839,0.1c-0.271-0.23-0.28-0.554-0.012-0.878C8.748,9.074,9.016,8.775,9.299,8.45z"/>
	<path fill="#6D6E70" d="M10.992,0.193c0.701,0.004,1.246,0.569,1.23,1.275c-0.016,0.688-0.563,1.223-1.248,1.219
		c-0.68-0.004-1.23-0.554-1.238-1.234C9.727,0.761,10.297,0.189,10.992,0.193z"/>
	<path fill="#6D6E70" d="M7.34,7.315C7.722,7.648,7.992,7.879,8.252,8.12c0.049,0.045,0.091,0.155,0.07,0.21
		C8.168,8.719,8.06,9.145,7.819,9.474c-0.413,0.563-0.911,1.065-1.377,1.592c-0.319,0.357-0.65,0.406-0.925,0.146
		c-0.265-0.248-0.25-0.549,0.052-0.908c0.178-0.211,0.363-0.415,0.544-0.622C6.694,9.027,7.361,8.42,7.34,7.315z"/>
</g>
<g>
	<g>
		<path d="M0.686,15.407v-2.275h0.797c0.132,0,0.25,0.015,0.354,0.039c0.104,0.022,0.192,0.063,0.265,0.113
			c0.072,0.053,0.127,0.116,0.166,0.194s0.057,0.17,0.057,0.277c0,0.051-0.007,0.102-0.02,0.146c-0.013,0.05-0.033,0.095-0.06,0.136
			c-0.026,0.043-0.06,0.08-0.101,0.112c-0.041,0.035-0.089,0.063-0.146,0.084c0.067,0.019,0.124,0.043,0.171,0.076
			c0.047,0.032,0.086,0.071,0.117,0.116c0.03,0.046,0.053,0.095,0.067,0.146s0.021,0.106,0.021,0.161c0,0.222-0.071,0.388-0.213,0.5
			c-0.143,0.111-0.345,0.168-0.607,0.168H0.686V15.407z M1.155,14.084h0.347c0.12-0.002,0.209-0.027,0.268-0.074
			c0.058-0.049,0.087-0.117,0.087-0.207c0-0.104-0.03-0.178-0.09-0.223c-0.06-0.047-0.155-0.068-0.284-0.068H1.155V14.084z
			 M1.155,14.417v0.613h0.401c0.061,0,0.113-0.007,0.156-0.021c0.044-0.016,0.081-0.036,0.109-0.063
			c0.029-0.026,0.051-0.059,0.065-0.094c0.014-0.037,0.021-0.076,0.021-0.119c0-0.049-0.006-0.092-0.019-0.131
			c-0.013-0.039-0.032-0.071-0.059-0.101c-0.027-0.028-0.061-0.049-0.104-0.063c-0.042-0.014-0.094-0.021-0.153-0.021H1.155z"/>
		<path d="M3.678,15.407c-0.021-0.041-0.036-0.091-0.045-0.15c-0.046,0.052-0.104,0.095-0.173,0.129
			c-0.069,0.035-0.154,0.054-0.254,0.054c-0.081,0-0.157-0.013-0.227-0.037s-0.131-0.062-0.183-0.104
			c-0.051-0.043-0.092-0.098-0.121-0.159c-0.029-0.062-0.043-0.129-0.043-0.203c0-0.088,0.016-0.168,0.049-0.235
			c0.033-0.068,0.082-0.127,0.148-0.175c0.065-0.049,0.147-0.086,0.245-0.108c0.097-0.024,0.21-0.039,0.34-0.039h0.201V14.28
			c0-0.078-0.02-0.142-0.06-0.188c-0.04-0.048-0.104-0.07-0.19-0.07c-0.076,0-0.136,0.019-0.179,0.056s-0.065,0.086-0.065,0.149
			H2.667c0-0.074,0.017-0.144,0.051-0.209c0.034-0.063,0.082-0.123,0.145-0.172c0.063-0.05,0.138-0.088,0.227-0.115
			c0.089-0.028,0.188-0.043,0.297-0.043c0.098,0,0.188,0.013,0.272,0.037s0.155,0.063,0.216,0.11c0.06,0.05,0.107,0.11,0.141,0.187
			c0.034,0.074,0.051,0.162,0.051,0.261v0.717c0,0.047,0.002,0.09,0.005,0.129c0.003,0.037,0.007,0.072,0.013,0.104
			c0.005,0.028,0.012,0.06,0.02,0.082c0.008,0.024,0.018,0.047,0.03,0.069v0.025H3.678V15.407z M3.305,15.092
			c0.039,0,0.074-0.004,0.107-0.014c0.033-0.01,0.062-0.021,0.088-0.037c0.026-0.014,0.048-0.031,0.068-0.051
			c0.019-0.021,0.035-0.041,0.046-0.063v-0.288H3.428c-0.06,0-0.111,0.006-0.155,0.02c-0.044,0.012-0.08,0.031-0.108,0.055
			s-0.049,0.051-0.063,0.082s-0.021,0.066-0.021,0.104c0,0.059,0.02,0.104,0.06,0.141C3.182,15.075,3.236,15.092,3.305,15.092z"/>
		<path d="M5.33,14.939c0-0.022-0.004-0.045-0.014-0.065c-0.01-0.021-0.027-0.037-0.053-0.056c-0.026-0.018-0.062-0.032-0.106-0.049
			c-0.044-0.017-0.103-0.03-0.173-0.045c-0.086-0.021-0.167-0.043-0.24-0.069c-0.074-0.029-0.137-0.064-0.191-0.105
			c-0.054-0.041-0.095-0.09-0.125-0.145c-0.03-0.058-0.045-0.119-0.045-0.193c0-0.069,0.015-0.137,0.046-0.201
			c0.031-0.063,0.075-0.118,0.133-0.168c0.058-0.049,0.129-0.086,0.213-0.114c0.083-0.026,0.178-0.041,0.283-0.041
			c0.109,0,0.208,0.015,0.295,0.039c0.087,0.026,0.162,0.065,0.223,0.112c0.061,0.05,0.108,0.106,0.141,0.175
			c0.033,0.066,0.049,0.139,0.049,0.219H5.312c0-0.063-0.021-0.118-0.063-0.159c-0.042-0.044-0.107-0.063-0.195-0.063
			c-0.076,0-0.135,0.018-0.176,0.053c-0.042,0.033-0.063,0.078-0.063,0.131c0,0.025,0.005,0.048,0.016,0.066
			c0.011,0.021,0.029,0.036,0.053,0.053c0.024,0.019,0.057,0.031,0.097,0.045c0.04,0.015,0.089,0.025,0.148,0.037
			c0.091,0.019,0.176,0.041,0.254,0.065c0.078,0.024,0.146,0.06,0.203,0.101c0.057,0.043,0.101,0.092,0.133,0.149
			c0.032,0.058,0.049,0.132,0.049,0.213c0,0.076-0.017,0.146-0.05,0.207c-0.033,0.063-0.081,0.119-0.143,0.164
			c-0.062,0.048-0.137,0.082-0.224,0.106c-0.087,0.026-0.186,0.039-0.293,0.039c-0.119,0-0.224-0.017-0.314-0.049
			c-0.09-0.033-0.167-0.078-0.229-0.134c-0.062-0.053-0.109-0.112-0.14-0.182c-0.031-0.068-0.047-0.138-0.047-0.205h0.428
			c0.002,0.043,0.012,0.082,0.029,0.112c0.017,0.031,0.04,0.06,0.068,0.078c0.028,0.02,0.061,0.033,0.098,0.043
			c0.037,0.011,0.076,0.015,0.117,0.015c0.086,0,0.152-0.017,0.196-0.05C5.308,15.036,5.33,14.993,5.33,14.939z"/>
		<path d="M6.674,14.729l-0.163,0.162v0.517H6.059v-2.4h0.452v1.33l0.087-0.11l0.433-0.509h0.542L6.961,14.42l0.664,0.986H7.107
			L6.674,14.729z"/>
		<path d="M8.518,15.438c-0.133,0-0.25-0.021-0.354-0.063c-0.104-0.041-0.191-0.101-0.264-0.174
			c-0.072-0.074-0.127-0.16-0.166-0.261c-0.039-0.1-0.057-0.207-0.057-0.319v-0.062c0-0.129,0.019-0.246,0.056-0.354
			C7.769,14.1,7.821,14.008,7.89,13.93c0.068-0.076,0.151-0.138,0.249-0.181c0.097-0.043,0.207-0.063,0.327-0.063
			c0.122,0,0.229,0.021,0.323,0.06c0.092,0.041,0.17,0.098,0.232,0.17c0.062,0.071,0.11,0.16,0.143,0.262
			c0.033,0.103,0.049,0.216,0.049,0.341v0.192H8.134c0.007,0.056,0.022,0.104,0.044,0.147c0.022,0.045,0.051,0.084,0.086,0.115
			c0.035,0.033,0.076,0.058,0.123,0.073c0.047,0.017,0.101,0.027,0.16,0.027c0.082,0,0.158-0.017,0.229-0.048
			c0.068-0.028,0.129-0.077,0.181-0.144L9.18,15.13c-0.027,0.039-0.063,0.076-0.104,0.113s-0.089,0.067-0.144,0.098
			c-0.057,0.03-0.119,0.052-0.188,0.068C8.674,15.43,8.6,15.438,8.518,15.438z M8.464,14.051c-0.049,0-0.092,0.008-0.129,0.025
			c-0.037,0.017-0.069,0.041-0.095,0.072c-0.026,0.031-0.048,0.065-0.065,0.108C8.158,14.3,8.146,14.348,8.139,14.4h0.628v-0.035
			c0-0.045-0.008-0.088-0.021-0.125c-0.013-0.039-0.026-0.072-0.056-0.102c-0.022-0.027-0.055-0.05-0.094-0.064
			C8.563,14.059,8.518,14.051,8.464,14.051z"/>
		<path d="M10.01,13.301v0.416h0.287v0.33H10.01v0.844c0,0.035,0.004,0.064,0.01,0.088c0.008,0.023,0.021,0.041,0.033,0.057
			c0.016,0.012,0.033,0.021,0.055,0.023c0.021,0.006,0.047,0.008,0.076,0.008c0.025,0,0.051-0.002,0.072-0.004
			c0.023-0.002,0.043-0.004,0.061-0.008v0.342c-0.039,0.014-0.08,0.021-0.123,0.029c-0.045,0.008-0.096,0.012-0.149,0.012
			c-0.073,0-0.142-0.008-0.198-0.025c-0.062-0.02-0.111-0.047-0.152-0.086c-0.043-0.039-0.074-0.094-0.098-0.154
			c-0.023-0.063-0.035-0.141-0.035-0.229V14.05h-0.25v-0.33h0.246v-0.415h0.453V13.301z"/>
		<path d="M12.072,14.577c0,0.129-0.014,0.243-0.041,0.35s-0.066,0.195-0.121,0.271c-0.055,0.075-0.125,0.135-0.207,0.178
			c-0.082,0.041-0.178,0.063-0.289,0.063c-0.098,0-0.182-0.019-0.254-0.056c-0.07-0.036-0.133-0.09-0.184-0.155l-0.021,0.181h-0.406
			V13.01H11v0.86c0.051-0.06,0.109-0.104,0.178-0.136c0.066-0.03,0.146-0.047,0.234-0.047c0.109,0,0.207,0.021,0.289,0.063
			c0.084,0.043,0.152,0.104,0.207,0.182c0.055,0.076,0.096,0.166,0.123,0.271s0.041,0.221,0.041,0.346V14.577z M11.621,14.545
			c0-0.066-0.004-0.131-0.014-0.191c-0.01-0.059-0.027-0.109-0.051-0.154c-0.025-0.047-0.06-0.08-0.103-0.104
			c-0.041-0.026-0.095-0.038-0.158-0.038c-0.075,0-0.139,0.016-0.188,0.045c-0.047,0.03-0.084,0.073-0.108,0.131V14.9
			c0.024,0.055,0.063,0.1,0.108,0.131c0.05,0.031,0.111,0.047,0.189,0.047c0.063,0,0.115-0.014,0.156-0.037
			c0.041-0.025,0.074-0.061,0.1-0.104c0.023-0.045,0.041-0.097,0.051-0.158s0.015-0.127,0.015-0.199v-0.033h0.003V14.545z"/>
		<path d="M13.33,15.407c-0.02-0.041-0.035-0.091-0.045-0.15c-0.045,0.052-0.104,0.095-0.172,0.129
			c-0.07,0.035-0.154,0.054-0.254,0.054c-0.082,0-0.158-0.013-0.229-0.037c-0.069-0.024-0.133-0.062-0.185-0.104
			c-0.051-0.043-0.092-0.098-0.12-0.159c-0.029-0.061-0.043-0.129-0.043-0.203c0-0.088,0.018-0.168,0.049-0.235
			c0.032-0.068,0.082-0.127,0.146-0.175c0.066-0.049,0.146-0.086,0.246-0.108c0.096-0.024,0.209-0.039,0.34-0.039h0.201V14.28
			c0-0.078-0.021-0.142-0.061-0.188c-0.041-0.048-0.104-0.07-0.189-0.07c-0.076,0-0.137,0.019-0.18,0.056s-0.064,0.086-0.064,0.149
			H12.32c0-0.074,0.016-0.144,0.051-0.209c0.033-0.063,0.082-0.123,0.145-0.172c0.063-0.05,0.139-0.088,0.228-0.115
			c0.09-0.028,0.188-0.043,0.297-0.043c0.101,0,0.188,0.013,0.272,0.037c0.082,0.024,0.154,0.063,0.215,0.11
			c0.062,0.047,0.107,0.11,0.142,0.187c0.035,0.074,0.054,0.162,0.054,0.261v0.717c0,0.047,0.002,0.09,0.004,0.129
			c0.004,0.037,0.008,0.072,0.014,0.104c0.004,0.028,0.012,0.06,0.021,0.082c0.008,0.024,0.018,0.047,0.026,0.069v0.025H13.33
			V15.407z M12.957,15.092c0.039,0,0.074-0.004,0.107-0.014s0.063-0.021,0.088-0.037c0.024-0.014,0.049-0.031,0.068-0.051
			c0.018-0.021,0.032-0.041,0.045-0.063v-0.288H13.08c-0.061,0-0.111,0.006-0.154,0.02c-0.045,0.012-0.08,0.031-0.107,0.055
			c-0.028,0.023-0.049,0.051-0.063,0.082c-0.014,0.031-0.021,0.066-0.021,0.104c0,0.059,0.021,0.104,0.06,0.141
			C12.834,15.075,12.889,15.092,12.957,15.092z"/>
		<path d="M14.543,15.407H14.09v-2.4h0.453V15.407z"/>
		<path d="M15.393,15.407h-0.453v-2.4h0.453V15.407z"/>
		<path d="M3.342,17.35v0.803H2.873v-2.273h0.888c0.134,0,0.254,0.021,0.36,0.059s0.195,0.09,0.269,0.155
			c0.073,0.067,0.129,0.146,0.168,0.239c0.038,0.093,0.058,0.189,0.058,0.302c0,0.109-0.02,0.209-0.058,0.298
			c-0.039,0.09-0.095,0.163-0.168,0.227c-0.074,0.063-0.163,0.111-0.269,0.145c-0.105,0.035-0.226,0.051-0.36,0.051H3.342V17.35z
			 M3.342,16.971h0.419c0.066,0,0.124-0.008,0.172-0.023c0.048-0.016,0.088-0.039,0.119-0.068c0.031-0.029,0.054-0.064,0.068-0.105
			c0.014-0.043,0.021-0.088,0.021-0.138s-0.007-0.097-0.021-0.142c-0.015-0.045-0.038-0.086-0.068-0.121
			c-0.03-0.035-0.07-0.063-0.119-0.084c-0.048-0.021-0.106-0.03-0.172-0.03H3.342V16.971z"/>
		<path d="M5.384,18.152H4.931v-2.399h0.453V18.152z"/>
		<path d="M6.736,18.152C6.714,18.111,6.7,18.061,6.69,18c-0.046,0.051-0.104,0.094-0.173,0.131
			c-0.069,0.035-0.154,0.053-0.254,0.053c-0.081,0-0.157-0.014-0.227-0.037c-0.07-0.023-0.131-0.061-0.183-0.104
			c-0.051-0.045-0.092-0.1-0.121-0.159c-0.029-0.063-0.043-0.132-0.043-0.202c0-0.091,0.016-0.168,0.049-0.236
			c0.033-0.068,0.082-0.127,0.148-0.176c0.065-0.047,0.147-0.084,0.245-0.109c0.097-0.025,0.21-0.037,0.34-0.037h0.201v-0.098
			c0-0.078-0.02-0.142-0.06-0.188s-0.104-0.069-0.19-0.069c-0.076,0-0.136,0.021-0.179,0.056c-0.043,0.036-0.065,0.088-0.065,0.149
			H5.726c0-0.072,0.017-0.144,0.051-0.207c0.034-0.065,0.082-0.123,0.145-0.172c0.063-0.05,0.138-0.089,0.227-0.117
			s0.188-0.043,0.297-0.043c0.098,0,0.188,0.015,0.272,0.037c0.083,0.024,0.155,0.063,0.216,0.112c0.06,0.05,0.107,0.11,0.141,0.187
			c0.034,0.074,0.051,0.16,0.051,0.261v0.715c0,0.049,0.002,0.092,0.005,0.129c0.003,0.039,0.007,0.071,0.013,0.104
			c0.005,0.03,0.012,0.06,0.02,0.084c0.008,0.022,0.018,0.047,0.03,0.067v0.027H6.736V18.152z M6.362,17.838
			c0.039,0,0.074-0.004,0.107-0.014c0.033-0.01,0.062-0.021,0.088-0.037c0.026-0.016,0.048-0.033,0.068-0.053
			c0.019-0.021,0.035-0.039,0.046-0.062v-0.291H6.486c-0.06,0-0.111,0.007-0.155,0.021s-0.08,0.031-0.108,0.055
			c-0.028,0.023-0.049,0.051-0.062,0.084c-0.014,0.031-0.021,0.066-0.021,0.104c0,0.059,0.02,0.104,0.06,0.141
			S6.292,17.838,6.362,17.838z"/>
		<path d="M8.079,17.514l0.313-1.053h0.485l-0.678,1.943c-0.016,0.043-0.036,0.09-0.06,0.141c-0.024,0.049-0.058,0.096-0.099,0.139
			s-0.093,0.08-0.155,0.107c-0.062,0.029-0.137,0.043-0.227,0.043c-0.021,0-0.04,0-0.056-0.002s-0.033-0.004-0.048-0.006
			c-0.015-0.002-0.031-0.004-0.046-0.008c-0.015-0.004-0.031-0.008-0.049-0.014v-0.344c0.011,0,0.023,0,0.035,0
			c0.012,0.003,0.023,0.003,0.033,0.003c0.045,0,0.083-0.005,0.115-0.011c0.032-0.008,0.059-0.021,0.082-0.033
			c0.022-0.016,0.042-0.034,0.058-0.057c0.016-0.022,0.029-0.053,0.041-0.082l0.048-0.127L7.279,16.46h0.486L8.079,17.514z"/>
		<path d="M9.813,18.184c-0.131,0-0.248-0.021-0.354-0.063c-0.104-0.043-0.189-0.103-0.264-0.177
			c-0.072-0.073-0.129-0.159-0.166-0.26c-0.039-0.101-0.057-0.205-0.057-0.317v-0.063c0-0.127,0.018-0.244,0.055-0.353
			c0.037-0.109,0.09-0.199,0.158-0.274c0.067-0.078,0.149-0.14,0.248-0.183c0.098-0.043,0.207-0.063,0.328-0.063
			c0.12,0,0.229,0.021,0.319,0.062c0.094,0.039,0.172,0.096,0.233,0.168c0.062,0.071,0.109,0.159,0.144,0.262
			c0.03,0.104,0.047,0.218,0.047,0.343v0.19H9.432c0.008,0.055,0.021,0.104,0.045,0.149c0.021,0.045,0.051,0.082,0.086,0.115
			c0.035,0.03,0.076,0.057,0.123,0.073s0.101,0.024,0.158,0.024c0.082,0,0.156-0.017,0.227-0.045c0.07-0.03,0.132-0.078,0.181-0.144
			l0.226,0.248c-0.027,0.037-0.063,0.076-0.104,0.11c-0.041,0.037-0.088,0.07-0.146,0.099c-0.055,0.029-0.117,0.054-0.188,0.069
			C9.971,18.174,9.895,18.184,9.813,18.184z M9.762,16.795c-0.049,0-0.092,0.01-0.129,0.027c-0.037,0.016-0.068,0.041-0.096,0.07
			c-0.025,0.03-0.049,0.066-0.064,0.109c-0.018,0.043-0.029,0.091-0.035,0.145h0.627v-0.037c0-0.045-0.008-0.086-0.02-0.125
			s-0.029-0.071-0.055-0.1c-0.025-0.029-0.057-0.052-0.094-0.066C9.857,16.803,9.813,16.795,9.762,16.795z"/>
		<path d="M11.715,16.885c-0.023-0.004-0.051-0.006-0.08-0.008c-0.031-0.004-0.059-0.004-0.082-0.004
			c-0.09,0-0.16,0.014-0.215,0.043c-0.055,0.031-0.096,0.074-0.121,0.129v1.107h-0.451v-1.691h0.426l0.013,0.201
			c0.043-0.072,0.098-0.129,0.157-0.17c0.063-0.041,0.138-0.063,0.22-0.063c0.024,0,0.049,0.002,0.076,0.006
			c0.026,0.004,0.049,0.01,0.063,0.016L11.715,16.885z"/>
		<path d="M12.848,17.686c0-0.024-0.004-0.047-0.014-0.065s-0.027-0.039-0.055-0.056c-0.025-0.019-0.062-0.034-0.105-0.051
			c-0.045-0.017-0.104-0.029-0.174-0.045c-0.086-0.019-0.166-0.041-0.238-0.07c-0.074-0.026-0.139-0.063-0.191-0.104
			c-0.055-0.043-0.096-0.092-0.125-0.146c-0.03-0.055-0.047-0.118-0.047-0.19s0.017-0.14,0.047-0.201
			c0.031-0.063,0.074-0.121,0.134-0.168c0.06-0.049,0.129-0.088,0.213-0.114c0.084-0.029,0.181-0.043,0.283-0.043
			c0.108,0,0.207,0.014,0.295,0.041c0.088,0.026,0.162,0.063,0.226,0.112c0.061,0.049,0.104,0.104,0.141,0.172
			c0.033,0.067,0.049,0.142,0.049,0.22h-0.451c0-0.063-0.021-0.117-0.063-0.16c-0.041-0.041-0.107-0.063-0.195-0.063
			c-0.076,0-0.135,0.019-0.176,0.052c-0.043,0.034-0.064,0.077-0.064,0.133c0,0.022,0.006,0.047,0.018,0.065
			c0.013,0.019,0.027,0.035,0.054,0.054c0.024,0.017,0.057,0.03,0.098,0.045c0.039,0.013,0.088,0.024,0.146,0.037
			c0.093,0.019,0.179,0.038,0.257,0.063c0.077,0.026,0.145,0.062,0.2,0.103c0.057,0.04,0.103,0.092,0.136,0.149
			c0.03,0.06,0.049,0.129,0.049,0.213c0,0.074-0.019,0.146-0.051,0.207c-0.033,0.062-0.082,0.117-0.144,0.164
			c-0.063,0.045-0.139,0.08-0.227,0.106c-0.088,0.024-0.186,0.039-0.293,0.039c-0.119,0-0.225-0.019-0.313-0.051
			c-0.093-0.033-0.168-0.076-0.23-0.132s-0.107-0.114-0.141-0.185c-0.031-0.065-0.047-0.135-0.047-0.202h0.428
			c0.002,0.043,0.012,0.079,0.029,0.112c0.018,0.03,0.041,0.058,0.067,0.075c0.026,0.021,0.062,0.035,0.099,0.046
			c0.036,0.008,0.075,0.014,0.114,0.014c0.088,0,0.151-0.019,0.197-0.049C12.824,17.782,12.848,17.739,12.848,17.686z"/>
	</g>
</g>
</svg>
