<?xml version="1.0" encoding="utf-8"?>
<!-- Generator: Adobe Illustrator 16.0.0, SVG Export Plug-In . SVG Version: 6.00 Build 0)  -->
<!DOCTYPE svg PUBLIC "-//W3C//DTD SVG 1.1//EN" "http://www.w3.org/Graphics/SVG/1.1/DTD/svg11.dtd">
<svg version="1.1" id="Layer_1" xmlns="http://www.w3.org/2000/svg" xmlns:xlink="http://www.w3.org/1999/xlink" x="0px" y="0px"
	 width="16px" height="18.58px" viewBox="0 0 16 18.58" enable-background="new 0 0 16 18.58" xml:space="preserve">
<g>
	<path d="M5.702,15.53l0.452-0.979h0.489l-0.712,1.384v0.785H5.477v-0.785l-0.712-1.384h0.49L5.702,15.53z"/>
	<path d="M6.745,15.899c0-0.117,0.017-0.228,0.051-0.326c0.034-0.1,0.083-0.188,0.147-0.26c0.064-0.072,0.145-0.131,0.239-0.172
		c0.094-0.043,0.203-0.063,0.324-0.063c0.122,0,0.23,0.021,0.326,0.063c0.095,0.041,0.175,0.1,0.24,0.172
		c0.065,0.071,0.115,0.16,0.148,0.26c0.034,0.103,0.051,0.209,0.051,0.326v0.031c0,0.116-0.017,0.229-0.051,0.325
		c-0.034,0.103-0.083,0.188-0.148,0.261c-0.065,0.072-0.145,0.131-0.239,0.172c-0.095,0.041-0.203,0.063-0.325,0.063
		c-0.123,0-0.231-0.021-0.326-0.063c-0.095-0.043-0.175-0.1-0.24-0.172s-0.115-0.158-0.148-0.261
		c-0.034-0.101-0.051-0.209-0.051-0.325v-0.031H6.745z M7.175,15.931c0,0.066,0.006,0.129,0.018,0.188
		c0.012,0.06,0.031,0.105,0.057,0.148c0.026,0.041,0.061,0.075,0.103,0.102c0.042,0.023,0.094,0.035,0.156,0.035
		c0.06,0,0.11-0.012,0.152-0.035c0.042-0.021,0.077-0.061,0.104-0.102c0.027-0.043,0.046-0.093,0.058-0.148
		c0.012-0.059,0.018-0.119,0.018-0.188v-0.031c0-0.063-0.006-0.123-0.018-0.181c-0.012-0.058-0.031-0.106-0.058-0.149
		c-0.027-0.043-0.062-0.076-0.104-0.104c-0.043-0.025-0.094-0.038-0.155-0.038c-0.06,0-0.111,0.013-0.153,0.038
		s-0.077,0.061-0.103,0.104s-0.045,0.096-0.057,0.149c-0.012,0.058-0.018,0.117-0.018,0.181V15.931z"/>
	<path d="M8.476,15.903c0-0.123,0.014-0.232,0.043-0.336c0.027-0.104,0.07-0.188,0.129-0.262c0.057-0.072,0.125-0.129,0.205-0.168
		s0.172-0.061,0.271-0.061c0.094,0,0.176,0.016,0.239,0.047c0.068,0.031,0.125,0.076,0.173,0.135l0.021-0.15h0.389v1.559
		c0,0.109-0.019,0.207-0.057,0.294c-0.037,0.086-0.091,0.157-0.158,0.217c-0.065,0.063-0.147,0.104-0.244,0.134
		c-0.096,0.03-0.2,0.047-0.313,0.047c-0.049,0-0.104-0.006-0.157-0.016c-0.056-0.012-0.109-0.025-0.164-0.047
		c-0.056-0.021-0.104-0.049-0.154-0.079c-0.049-0.03-0.09-0.069-0.122-0.112l0.188-0.263c0.051,0.058,0.106,0.101,0.174,0.134
		c0.063,0.03,0.137,0.047,0.217,0.047c0.113,0,0.203-0.028,0.268-0.092c0.063-0.063,0.096-0.146,0.096-0.261v-0.088
		c-0.047,0.056-0.104,0.097-0.168,0.125c-0.063,0.026-0.139,0.043-0.223,0.043c-0.102,0-0.191-0.021-0.271-0.063
		c-0.082-0.041-0.146-0.098-0.201-0.17c-0.057-0.072-0.1-0.158-0.129-0.259c-0.03-0.101-0.043-0.208-0.043-0.325L8.476,15.903
		L8.476,15.903z M8.904,15.935c0,0.064,0.008,0.127,0.021,0.186c0.013,0.058,0.033,0.104,0.062,0.146
		c0.027,0.041,0.063,0.074,0.104,0.102c0.041,0.023,0.091,0.035,0.146,0.035c0.068,0,0.125-0.014,0.173-0.037
		c0.047-0.025,0.082-0.063,0.108-0.108v-0.679c-0.029-0.047-0.063-0.084-0.108-0.107s-0.104-0.039-0.173-0.039
		c-0.057,0-0.104,0.012-0.146,0.035c-0.041,0.023-0.075,0.059-0.104,0.102c-0.027,0.043-0.049,0.094-0.063,0.149
		c-0.016,0.058-0.021,0.119-0.021,0.188v0.031h0.002V15.935L8.904,15.935z"/>
	<path d="M11.213,16.722c-0.02-0.039-0.033-0.088-0.043-0.146c-0.043,0.049-0.1,0.09-0.164,0.125
		c-0.066,0.03-0.146,0.051-0.242,0.051c-0.078,0-0.15-0.015-0.217-0.036c-0.068-0.023-0.125-0.058-0.174-0.101
		c-0.051-0.043-0.088-0.097-0.115-0.152c-0.029-0.06-0.043-0.124-0.043-0.192c0-0.084,0.016-0.16,0.047-0.228
		c0.031-0.063,0.078-0.12,0.141-0.166c0.064-0.047,0.145-0.08,0.234-0.104c0.092-0.021,0.201-0.035,0.324-0.035h0.191v-0.094
		c0-0.074-0.021-0.134-0.061-0.179s-0.102-0.067-0.182-0.067c-0.072,0-0.133,0.02-0.174,0.055c-0.039,0.033-0.061,0.082-0.061,0.146
		h-0.43c0-0.068,0.016-0.139,0.047-0.199c0.033-0.063,0.078-0.115,0.139-0.164c0.063-0.045,0.131-0.082,0.215-0.107
		c0.084-0.027,0.184-0.041,0.283-0.041c0.094,0,0.18,0.012,0.26,0.035c0.08,0.021,0.148,0.061,0.205,0.105
		c0.063,0.047,0.105,0.104,0.137,0.178c0.031,0.07,0.051,0.152,0.051,0.246v0.686c0,0.045,0.002,0.086,0.004,0.123
		c0.004,0.035,0.01,0.066,0.016,0.098c0.004,0.029,0.01,0.058,0.02,0.08c0.008,0.021,0.018,0.045,0.027,0.064v0.023L11.213,16.722
		L11.213,16.722z M10.857,16.421c0.037,0,0.068-0.004,0.104-0.014c0.029-0.012,0.059-0.021,0.084-0.035
		c0.023-0.016,0.045-0.03,0.063-0.049c0.021-0.021,0.033-0.039,0.045-0.061v-0.275h-0.178c-0.057,0-0.104,0.006-0.146,0.019
		c-0.041,0.013-0.074,0.03-0.104,0.054c-0.026,0.022-0.047,0.049-0.061,0.078s-0.02,0.063-0.02,0.1c0,0.055,0.02,0.101,0.057,0.135
		S10.791,16.421,10.857,16.421z"/>
</g>
<g>
	<g>
		<g>
			<path fill="#6D6E70" d="M6.63,9.369c0-0.872,0-1.721,0-2.607C6.599,6.814,6.578,6.844,6.563,6.874
				c-0.34,0.56-0.687,1.114-1.106,1.619C5.155,8.853,4.826,9.18,4.411,9.409C4.136,9.564,3.842,9.662,3.525,9.667
				C3.117,9.676,2.788,9.384,2.756,8.98C2.723,8.588,3.01,8.231,3.416,8.192c0.216-0.02,0.395-0.101,0.534-0.253
				c0.227-0.245,0.46-0.484,0.642-0.763C4.982,6.599,5.334,6,5.714,5.409c0.209-0.323,0.424-0.653,0.671-0.955
				c0.423-0.518,0.977-0.793,1.662-0.773c0.254,0.008,0.51-0.009,0.764,0.008c0.568,0.038,1.037,0.297,1.389,0.736
				C10.488,4.79,10.744,5.188,11,5.577c0.363,0.558,0.706,1.133,1.077,1.686c0.159,0.238,0.36,0.449,0.558,0.655
				c0.149,0.158,0.336,0.254,0.567,0.272c0.399,0.041,0.681,0.396,0.651,0.782c-0.028,0.403-0.349,0.699-0.761,0.696
				c-0.395-0.006-0.747-0.145-1.073-0.366c-0.438-0.292-0.791-0.672-1.095-1.097c-0.31-0.436-0.591-0.891-0.884-1.336
				c-0.018-0.028-0.035-0.054-0.063-0.094c0,0.877,0,1.727,0,2.595c0.053,0,0.101,0,0.149,0c0.448,0,0.897,0,1.347,0
				c0.301,0.004,0.588,0.063,0.846,0.219c0.625,0.372,0.687,1.109,0.136,1.59c-0.261,0.221-0.572,0.336-0.894,0.432
				c-0.604,0.182-1.229,0.254-1.854,0.298c-0.933,0.061-1.864,0.061-2.797,0c-0.736-0.046-1.465-0.14-2.165-0.396
				c-0.244-0.092-0.472-0.21-0.661-0.394c-0.463-0.459-0.407-1.112,0.13-1.487C4.491,9.44,4.8,9.373,5.127,9.369
				c0.447,0,0.892,0,1.338,0C6.517,9.369,6.57,9.369,6.63,9.369z"/>
			<path fill="#6D6E70" d="M9.998,1.747C9.994,2.683,9.236,3.434,8.297,3.434c-0.932,0-1.686-0.76-1.684-1.699
				c0.004-0.938,0.761-1.691,1.699-1.687C9.247,0.051,9.998,0.81,9.998,1.747z"/>
		</g>
	</g>
</g>
</svg>
