<?xml version="1.0" encoding="utf-8"?>
<!-- Generator: Adobe Illustrator 16.0.0, SVG Export Plug-In . SVG Version: 6.00 Build 0)  -->
<!DOCTYPE svg PUBLIC "-//W3C//DTD SVG 1.1//EN" "http://www.w3.org/Graphics/SVG/1.1/DTD/svg11.dtd">
<svg version="1.1" id="Layer_1" xmlns="http://www.w3.org/2000/svg" xmlns:xlink="http://www.w3.org/1999/xlink" x="0px" y="0px"
	 width="16.08px" height="18.48px" viewBox="0 0 16.08 18.48" enable-background="new 0 0 16.08 18.48" xml:space="preserve">
<g>
	<path d="M4.803,13.908h-0.9v0.609h1.056v0.376H3.434v-2.274h1.522v0.379H3.903v0.542h0.9V13.908z"/>
	<path d="M5.837,14.342l0.314-1.139h0.472l-0.57,1.69H5.621l-0.57-1.69h0.472L5.837,14.342z"/>
	<path d="M7.599,14.925c-0.131,0-0.249-0.021-0.353-0.063s-0.191-0.103-0.264-0.175c-0.073-0.074-0.128-0.161-0.166-0.262
		c-0.038-0.1-0.057-0.206-0.057-0.318v-0.063c0-0.128,0.018-0.245,0.055-0.352c0.037-0.107,0.09-0.199,0.158-0.276
		s0.151-0.137,0.249-0.181c0.098-0.043,0.207-0.064,0.328-0.064c0.122,0,0.229,0.021,0.322,0.062s0.17,0.096,0.233,0.168
		c0.063,0.071,0.109,0.16,0.142,0.262c0.032,0.104,0.048,0.216,0.048,0.341v0.192H7.218c0.007,0.055,0.022,0.104,0.044,0.148
		s0.051,0.083,0.086,0.115s0.076,0.059,0.123,0.074S7.57,14.56,7.63,14.56c0.081,0,0.157-0.017,0.228-0.048
		c0.069-0.029,0.13-0.076,0.18-0.143l0.222,0.249c-0.026,0.039-0.061,0.076-0.102,0.112c-0.041,0.037-0.089,0.067-0.145,0.098
		c-0.055,0.03-0.117,0.052-0.187,0.069C7.759,14.916,7.683,14.925,7.599,14.925z M7.547,13.537c-0.048,0-0.091,0.009-0.128,0.026
		c-0.037,0.017-0.068,0.042-0.095,0.07c-0.026,0.031-0.048,0.068-0.065,0.11c-0.017,0.043-0.028,0.09-0.036,0.142h0.627v-0.034
		c0-0.047-0.006-0.088-0.02-0.125c-0.012-0.039-0.029-0.072-0.055-0.102c-0.024-0.028-0.055-0.05-0.094-0.064
		C7.646,13.544,7.6,13.537,7.547,13.537z"/>
	<path d="M8.967,13.203l0.014,0.195c0.061-0.073,0.131-0.129,0.213-0.168c0.083-0.039,0.174-0.061,0.273-0.061
		c0.08,0,0.153,0.011,0.219,0.033c0.066,0.022,0.123,0.06,0.168,0.11c0.048,0.051,0.084,0.116,0.109,0.198s0.038,0.185,0.038,0.305
		v1.075H9.549v-1.078c0-0.056-0.006-0.101-0.018-0.136c-0.012-0.034-0.029-0.063-0.053-0.084c-0.022-0.021-0.051-0.034-0.084-0.044
		c-0.032-0.009-0.071-0.013-0.114-0.013c-0.067,0-0.124,0.015-0.171,0.043c-0.047,0.029-0.085,0.069-0.115,0.119v1.192H8.541v-1.69
		h0.426V13.203z"/>
	<path d="M10.885,12.787v0.416h0.289v0.331h-0.289v0.844c0,0.036,0.004,0.064,0.01,0.087c0.009,0.023,0.02,0.041,0.033,0.056
		c0.017,0.013,0.032,0.021,0.056,0.024c0.021,0.005,0.047,0.007,0.075,0.007c0.026,0,0.053-0.001,0.074-0.003
		s0.041-0.005,0.06-0.008v0.342c-0.037,0.013-0.078,0.021-0.123,0.029s-0.095,0.012-0.151,0.012c-0.072,0-0.141-0.009-0.199-0.025
		c-0.061-0.02-0.109-0.047-0.152-0.087c-0.041-0.04-0.074-0.093-0.098-0.154c-0.022-0.063-0.035-0.14-0.035-0.23v-0.892h-0.246
		v-0.331h0.246v-0.416L10.885,12.787L10.885,12.787z"/>
	<path d="M12.34,14.426c0-0.022-0.005-0.046-0.014-0.063c-0.009-0.021-0.027-0.039-0.053-0.058
		c-0.026-0.017-0.063-0.032-0.106-0.049c-0.043-0.016-0.103-0.028-0.173-0.045c-0.086-0.019-0.167-0.042-0.24-0.068
		c-0.072-0.028-0.137-0.063-0.189-0.105c-0.055-0.042-0.096-0.09-0.127-0.145c-0.028-0.057-0.045-0.12-0.045-0.192
		c0-0.071,0.018-0.138,0.047-0.202c0.029-0.063,0.074-0.12,0.134-0.168s0.128-0.086,0.212-0.115c0.084-0.027,0.18-0.042,0.284-0.042
		c0.108,0,0.208,0.015,0.295,0.041c0.088,0.027,0.162,0.065,0.224,0.113c0.061,0.048,0.107,0.104,0.141,0.172s0.05,0.14,0.05,0.219
		h-0.454c0-0.063-0.021-0.116-0.063-0.159c-0.043-0.042-0.106-0.063-0.195-0.063c-0.076,0-0.135,0.017-0.176,0.051
		c-0.043,0.035-0.063,0.078-0.063,0.131c0,0.025,0.005,0.048,0.017,0.066c0.01,0.02,0.028,0.037,0.053,0.053
		c0.023,0.018,0.058,0.031,0.098,0.044c0.04,0.016,0.089,0.026,0.146,0.038c0.093,0.02,0.178,0.04,0.254,0.065
		c0.078,0.024,0.146,0.06,0.203,0.101s0.102,0.091,0.133,0.15c0.033,0.059,0.05,0.13,0.05,0.213c0,0.075-0.019,0.144-0.052,0.207
		c-0.031,0.063-0.079,0.117-0.143,0.163c-0.062,0.046-0.137,0.082-0.225,0.106c-0.087,0.026-0.186,0.039-0.293,0.039
		c-0.119,0-0.225-0.017-0.314-0.05c-0.091-0.034-0.166-0.077-0.229-0.131s-0.109-0.115-0.141-0.183
		c-0.033-0.068-0.047-0.138-0.047-0.205h0.428c0.002,0.044,0.013,0.082,0.028,0.111c0.019,0.032,0.04,0.06,0.068,0.078
		c0.026,0.021,0.062,0.034,0.098,0.043c0.037,0.009,0.076,0.016,0.116,0.016c0.086,0,0.15-0.019,0.195-0.051
		C12.317,14.523,12.34,14.48,12.34,14.426z"/>
</g>
<g>
	<path d="M5.74,26.445c0-0.04-0.006-0.075-0.017-0.105c-0.012-0.032-0.034-0.063-0.066-0.09c-0.033-0.025-0.078-0.054-0.136-0.08
		c-0.059-0.025-0.133-0.053-0.225-0.084c-0.104-0.031-0.202-0.069-0.294-0.111c-0.092-0.042-0.173-0.091-0.242-0.147
		c-0.069-0.056-0.124-0.122-0.164-0.194c-0.04-0.074-0.06-0.16-0.06-0.261c0-0.095,0.021-0.181,0.062-0.26s0.099-0.146,0.173-0.201
		c0.075-0.055,0.163-0.098,0.266-0.129s0.215-0.046,0.338-0.046c0.126,0,0.241,0.02,0.344,0.052
		c0.103,0.035,0.191,0.083,0.264,0.146c0.073,0.063,0.129,0.137,0.168,0.223c0.04,0.086,0.06,0.18,0.06,0.282h-0.47
		c0-0.048-0.008-0.092-0.022-0.133c-0.015-0.041-0.039-0.076-0.07-0.105c-0.031-0.027-0.07-0.052-0.117-0.066
		c-0.047-0.018-0.102-0.025-0.166-0.025c-0.062,0-0.115,0.007-0.16,0.021c-0.045,0.014-0.083,0.03-0.112,0.056
		c-0.03,0.022-0.052,0.052-0.067,0.084c-0.015,0.032-0.022,0.065-0.022,0.103c0,0.075,0.038,0.14,0.115,0.188
		c0.077,0.051,0.188,0.098,0.336,0.142c0.124,0.039,0.233,0.081,0.328,0.128c0.095,0.047,0.173,0.102,0.236,0.159
		c0.063,0.062,0.11,0.126,0.143,0.2c0.032,0.074,0.048,0.158,0.048,0.251c0,0.1-0.02,0.189-0.059,0.267
		c-0.039,0.078-0.095,0.146-0.167,0.198c-0.072,0.054-0.159,0.095-0.26,0.124s-0.215,0.043-0.34,0.043
		c-0.075,0-0.15-0.006-0.225-0.02c-0.075-0.015-0.147-0.033-0.215-0.062c-0.068-0.025-0.132-0.061-0.19-0.102
		c-0.059-0.041-0.109-0.088-0.152-0.146c-0.043-0.055-0.077-0.118-0.102-0.188c-0.025-0.07-0.037-0.148-0.037-0.234h0.47
		c0,0.069,0.011,0.127,0.033,0.175c0.022,0.05,0.052,0.086,0.091,0.116s0.086,0.051,0.142,0.065C5.256,26.693,5.317,26.7,5.384,26.7
		c0.061,0,0.113-0.007,0.158-0.02c0.044-0.015,0.082-0.031,0.111-0.056c0.029-0.021,0.051-0.05,0.065-0.082
		C5.732,26.515,5.74,26.481,5.74,26.445z"/>
	<path d="M8.02,26.211c0,0.123-0.015,0.237-0.043,0.344c-0.029,0.104-0.071,0.194-0.126,0.271c-0.056,0.077-0.124,0.139-0.206,0.183
		c-0.082,0.043-0.176,0.063-0.282,0.063c-0.09,0-0.168-0.016-0.237-0.047c-0.069-0.031-0.127-0.075-0.177-0.131v0.797H6.498v-2.34
		h0.419l0.015,0.167c0.052-0.063,0.112-0.111,0.182-0.146c0.069-0.034,0.151-0.051,0.246-0.051c0.107,0,0.202,0.021,0.285,0.063
		c0.082,0.041,0.15,0.1,0.206,0.175c0.055,0.076,0.097,0.167,0.126,0.271c0.028,0.106,0.043,0.225,0.043,0.353V26.211z M7.568,26.18
		c0-0.07-0.006-0.137-0.018-0.195c-0.012-0.06-0.031-0.112-0.057-0.156s-0.06-0.079-0.101-0.104
		c-0.041-0.025-0.091-0.038-0.151-0.038c-0.074,0-0.135,0.014-0.182,0.041c-0.047,0.028-0.084,0.068-0.11,0.121v0.69
		c0.026,0.054,0.063,0.095,0.11,0.123c0.047,0.03,0.109,0.044,0.186,0.044c0.059,0,0.109-0.013,0.15-0.039
		c0.042-0.024,0.075-0.062,0.1-0.105s0.044-0.098,0.056-0.159c0.011-0.06,0.017-0.124,0.017-0.192V26.18z"/>
	<path d="M8.229,26.181c0-0.123,0.018-0.237,0.053-0.342c0.036-0.105,0.087-0.196,0.155-0.272c0.067-0.077,0.151-0.137,0.25-0.181
		c0.099-0.044,0.213-0.065,0.341-0.065s0.241,0.021,0.342,0.065s0.185,0.104,0.252,0.181c0.068,0.076,0.12,0.167,0.156,0.272
		c0.034,0.104,0.053,0.219,0.053,0.342v0.033c0,0.124-0.019,0.236-0.053,0.343c-0.036,0.104-0.087,0.193-0.156,0.271
		s-0.151,0.139-0.25,0.182s-0.213,0.063-0.341,0.063S8.789,27.052,8.69,27.01c-0.101-0.043-0.184-0.104-0.251-0.182
		c-0.068-0.077-0.12-0.167-0.156-0.271c-0.035-0.104-0.053-0.219-0.053-0.343L8.229,26.181L8.229,26.181z M8.68,26.215
		c0,0.067,0.006,0.133,0.02,0.192c0.012,0.063,0.032,0.113,0.061,0.157c0.026,0.044,0.063,0.08,0.107,0.104
		c0.044,0.026,0.1,0.039,0.163,0.039s0.116-0.013,0.16-0.039c0.044-0.024,0.081-0.061,0.108-0.104
		c0.026-0.043,0.049-0.096,0.061-0.157c0.013-0.061,0.02-0.125,0.02-0.192v-0.033c0-0.067-0.007-0.13-0.02-0.19
		c-0.012-0.06-0.033-0.11-0.061-0.158c-0.029-0.045-0.064-0.082-0.109-0.106c-0.045-0.026-0.1-0.04-0.162-0.04
		s-0.116,0.014-0.16,0.04c-0.044,0.024-0.081,0.063-0.107,0.106c-0.028,0.044-0.049,0.099-0.061,0.158
		c-0.014,0.062-0.02,0.123-0.02,0.19V26.215z"/>
	<path d="M11.059,25.775c-0.022-0.003-0.049-0.006-0.08-0.009c-0.031-0.002-0.059-0.004-0.082-0.004c-0.09,0-0.16,0.015-0.215,0.044
		c-0.057,0.028-0.096,0.073-0.121,0.129v1.104h-0.452v-1.688h0.427l0.012,0.201c0.043-0.073,0.096-0.13,0.158-0.171
		s0.137-0.063,0.219-0.063c0.024,0,0.049,0.002,0.076,0.006c0.026,0.004,0.049,0.009,0.064,0.016L11.059,25.775z"/>
	<path d="M11.816,24.935v0.416h0.29v0.331h-0.29v0.844c0,0.036,0.004,0.064,0.011,0.087c0.007,0.023,0.019,0.041,0.033,0.054
		c0.015,0.015,0.032,0.021,0.054,0.026S11.961,26.7,11.99,26.7c0.027,0,0.052-0.001,0.074-0.003
		c0.021-0.002,0.042-0.005,0.059-0.008v0.342c-0.037,0.011-0.078,0.021-0.123,0.029c-0.044,0.008-0.095,0.012-0.15,0.012
		c-0.073,0-0.142-0.009-0.199-0.027c-0.061-0.018-0.11-0.047-0.152-0.087s-0.074-0.091-0.098-0.152
		c-0.023-0.063-0.034-0.142-0.034-0.23v-0.892h-0.247v-0.331h0.247v-0.416L11.816,24.935L11.816,24.935z"/>
</g>
<g>
	<path fill="#6D6E70" d="M4.141,2.502c0.113-0.233,0.291-0.348,0.504-0.316c0.172,0.022,0.284,0.123,0.347,0.281
		c0.079,0.197,0.146,0.399,0.246,0.584C5.542,3.62,6.017,3.92,6.673,3.896c0.116-0.003,0.229-0.07,0.345-0.08
		c0.119-0.01,0.251-0.015,0.361,0.024c0.8,0.288,1.597,0.585,2.392,0.884c0.254,0.094,0.371,0.318,0.306,0.568
		C10.01,5.547,9.808,5.654,9.551,5.563C9.049,5.38,8.548,5.193,8.046,5.007C8.002,4.994,7.959,4.98,7.906,4.963
		C7.853,5.395,7.925,5.797,8.072,6.219C7.807,6.141,7.564,6.08,7.332,5.996C7.01,5.881,6.696,5.747,6.377,5.623
		c-0.068-0.024-0.092-0.064-0.089-0.14c0.006-0.219,0.003-0.438,0.01-0.658c0.001-0.063-0.017-0.089-0.079-0.099
		c-0.893-0.144-1.476-0.68-1.85-1.473C4.28,3.065,4.217,2.862,4.141,2.664C4.141,2.61,4.141,2.557,4.141,2.502z"/>
	<path fill="#6D6E70" d="M15.981,6.526c-0.137-0.008-0.271-0.017-0.403-0.025c-0.953-0.07-1.894,0.04-2.829,0.199
		c-0.838,0.143-1.674,0.31-2.514,0.438c-0.869,0.13-1.74,0.17-2.605-0.056c-0.494-0.13-0.947-0.339-1.365-0.631
		c-0.028-0.02-0.057-0.056-0.063-0.087c-0.05-0.269-0.094-0.538-0.143-0.821C6.092,5.56,6.115,5.566,6.134,5.579
		c0.978,0.583,2.035,0.889,3.174,0.89c0.493,0,0.971-0.104,1.449-0.202c1.151-0.239,2.307-0.451,3.477-0.562
		c0.507-0.046,1.017-0.042,1.522-0.058c0.041-0.002,0.082,0.008,0.132,0.038c-0.203,0.098-0.408,0.194-0.609,0.292
		c0.236,0.169,0.471,0.335,0.703,0.502C15.981,6.495,15.981,6.51,15.981,6.526z"/>
	<path fill="#6D6E70" d="M6.554,6.769C7.098,7.107,7.682,7.24,8.293,7.337C8.269,7.402,8.26,7.463,8.228,7.507
		C8.167,7.584,8.182,7.648,8.216,7.736c0.393,1.021,1.088,1.806,1.912,2.492c0.096,0.079,0.191,0.154,0.28,0.243
		c0.151,0.147,0.173,0.342,0.067,0.527c-0.186,0.326-0.604,0.421-0.893,0.175c-0.368-0.313-0.729-0.642-1.066-0.988
		C8.041,9.69,7.665,9.122,7.375,8.499C7.364,8.475,7.35,8.452,7.337,8.427C7.025,8.622,6.912,8.941,7.05,9.313
		c0.089,0.238,0.208,0.471,0.323,0.701c0.182,0.361,0.019,0.729-0.377,0.821c-0.194,0.046-0.38,0.001-0.484-0.165
		c-0.34-0.546-0.631-1.112-0.591-1.789c0.026-0.47,0.245-0.848,0.583-1.151c0.164-0.147,0.289-0.27,0.151-0.497
		C6.616,7.17,6.622,7.083,6.606,7.007C6.591,6.937,6.575,6.866,6.554,6.769z"/>
	<path fill="#6D6E70" d="M6.263,2.712c-0.002-0.51,0.416-0.929,0.925-0.926C7.69,1.789,8.104,2.203,8.107,2.708
		C8.11,3.212,7.685,3.638,7.181,3.634C6.675,3.631,6.265,3.219,6.263,2.712z"/>
</g>
</svg>
