<?xml version="1.0" encoding="utf-8"?>
<!-- Generator: Adobe Illustrator 16.0.0, SVG Export Plug-In . SVG Version: 6.00 Build 0)  -->
<!DOCTYPE svg PUBLIC "-//W3C//DTD SVG 1.1//EN" "http://www.w3.org/Graphics/SVG/1.1/DTD/svg11.dtd">
<svg version="1.1" id="Layer_1" xmlns="http://www.w3.org/2000/svg" xmlns:xlink="http://www.w3.org/1999/xlink" x="0px" y="0px"
	 width="16px" height="18.579px" viewBox="0 0 16 18.579" enable-background="new 0 0 16 18.579" xml:space="preserve">
<g>
	<path fill="#6D6E70" stroke="#FFFFFF" stroke-width="0.1" stroke-miterlimit="10" d="M6.84,4.075
		C6.742,4.221,6.61,4.353,6.55,4.513C6.393,4.94,6.266,5.38,6.128,5.813C6.025,6.139,5.845,6.405,5.464,6.304
		C5.071,6.198,4.992,5.892,5.119,5.521C5.166,5.382,5.22,5.243,5.234,5.099c0.139-1.353,0.997-2.073,2.185-2.517
		c0.39-0.147,0.832-0.318,1.117,0.036C8.745,2.877,8.84,3.307,8.82,3.653c-0.039,0.764-0.217,1.52-0.264,2.281
		c-0.016,0.26,0.116,0.651,0.313,0.78c0.873,0.571,1.106,1.387,1.097,2.351c-0.005,0.42,0.061,0.84,0.085,1.26
		c0.032,0.461-0.219,0.829-0.599,0.828c-0.438-0.002-0.657-0.264-0.688-0.693C8.746,10.168,8.67,9.874,8.7,9.588
		c0.104-0.999-0.284-1.723-1.124-2.24C6.822,6.882,6.627,6.196,6.817,5.356C6.903,4.97,6.93,4.567,6.984,4.171
		C6.936,4.141,6.888,4.105,6.84,4.075z"/>
	<path fill="#6D6E70" stroke="#FFFFFF" stroke-width="0.1" stroke-miterlimit="10" d="M6.733,7.088
		c0.327,0.279,0.616,0.5,0.864,0.758c0.086,0.089,0.128,0.295,0.093,0.42c-0.216,0.753-0.457,1.5-0.697,2.247
		c-0.161,0.506-0.504,0.737-0.874,0.61c-0.399-0.138-0.533-0.479-0.368-1C6.065,9.135,6.388,8.151,6.733,7.088z"/>
	<path fill="#6D6E70" d="M8.491,2.046C7.915,2.057,7.448,1.599,7.445,1.024C7.443,0.455,7.914-0.028,8.474-0.034
		c0.543-0.004,1.051,0.493,1.061,1.04C9.543,1.563,9.068,2.037,8.491,2.046z"/>
	<path fill="#6D6E70" d="M9.1,4.324c1.566,0.224,3.017,0.487,4.2,1.487c0.571,0.479,0.55,0.722-0.079,1.112
		c-0.846,0.523-1.848,0.896-2.752,0.669C9.846,7.437,9.245,6.679,8.92,6.044C8.709,5.633,9.014,4.958,9.1,4.324z"/>
	<path fill="#6D6E70" d="M5.152,4.128c-0.146,0.492-0.22,0.851-0.36,1.184c-0.197,0.469-0.128,0.87,0.256,1.18
		c0.381,0.308,0.78,0.24,1.154-0.057c0.039-0.029,0.094-0.042,0.142-0.063c0.258,0.736,0.001,1.097-0.695,0.924
		C4.714,7.061,3.792,6.771,2.864,6.502C2.223,6.316,2.272,5.826,2.304,5.31c0.03-0.491,0.221-0.789,0.729-0.858
		C3.696,4.358,4.357,4.249,5.152,4.128z"/>
</g>
<g>
	<path d="M4.076,14.525c0-0.039-0.006-0.073-0.017-0.106c-0.012-0.03-0.034-0.062-0.066-0.088c-0.032-0.026-0.078-0.054-0.136-0.08
		c-0.058-0.024-0.132-0.053-0.224-0.082c-0.104-0.033-0.202-0.069-0.294-0.112c-0.092-0.041-0.173-0.091-0.242-0.146
		c-0.069-0.057-0.124-0.123-0.164-0.197c-0.04-0.073-0.06-0.16-0.06-0.258c0-0.097,0.021-0.183,0.062-0.263
		c0.041-0.077,0.099-0.146,0.173-0.198c0.075-0.058,0.163-0.101,0.266-0.129c0.103-0.031,0.215-0.048,0.338-0.048
		c0.126,0,0.241,0.019,0.344,0.054s0.191,0.084,0.264,0.146c0.073,0.063,0.129,0.137,0.169,0.224c0.04,0.086,0.059,0.18,0.059,0.28
		H4.077c0-0.049-0.007-0.092-0.022-0.133c-0.015-0.041-0.039-0.076-0.07-0.104c-0.031-0.029-0.07-0.052-0.117-0.066
		c-0.047-0.018-0.102-0.024-0.166-0.024c-0.062,0-0.115,0.009-0.16,0.021c-0.045,0.014-0.083,0.031-0.112,0.057
		c-0.03,0.023-0.052,0.053-0.067,0.086c-0.015,0.029-0.022,0.064-0.022,0.104c0,0.076,0.038,0.139,0.115,0.188
		s0.189,0.1,0.337,0.143c0.124,0.039,0.233,0.082,0.327,0.129c0.094,0.047,0.173,0.1,0.235,0.158
		c0.063,0.061,0.111,0.127,0.144,0.199c0.033,0.074,0.048,0.158,0.048,0.252c0,0.102-0.02,0.188-0.059,0.268
		c-0.039,0.078-0.094,0.145-0.167,0.199c-0.072,0.053-0.158,0.094-0.26,0.121s-0.215,0.045-0.34,0.045
		c-0.075,0-0.15-0.01-0.225-0.021c-0.075-0.014-0.147-0.032-0.215-0.061c-0.068-0.027-0.132-0.062-0.19-0.103
		c-0.059-0.041-0.109-0.088-0.152-0.146c-0.044-0.056-0.077-0.117-0.102-0.188S2.8,14.493,2.8,14.407h0.47
		c0,0.069,0.011,0.127,0.033,0.176c0.022,0.047,0.052,0.086,0.091,0.117c0.039,0.028,0.086,0.051,0.142,0.063
		c0.056,0.013,0.117,0.021,0.185,0.021c0.06,0,0.113-0.007,0.158-0.021c0.044-0.015,0.082-0.031,0.111-0.054
		c0.029-0.022,0.051-0.051,0.065-0.082C4.069,14.596,4.076,14.563,4.076,14.525z"/>
	<path d="M5.846,14.952c-0.053,0.063-0.118,0.112-0.194,0.149c-0.076,0.034-0.166,0.053-0.269,0.053
		c-0.083,0-0.16-0.012-0.229-0.034c-0.068-0.022-0.128-0.062-0.177-0.111c-0.049-0.051-0.088-0.114-0.115-0.194
		c-0.027-0.08-0.041-0.176-0.041-0.287v-1.094h0.452v1.099c0,0.047,0.006,0.086,0.018,0.118c0.012,0.033,0.029,0.062,0.05,0.082
		s0.046,0.035,0.076,0.043c0.029,0.011,0.061,0.017,0.097,0.017c0.082,0,0.147-0.017,0.199-0.043
		c0.051-0.027,0.09-0.065,0.117-0.117v-1.196h0.453v1.69H5.858L5.846,14.952z"/>
	<path d="M7.574,13.855c-0.023-0.004-0.05-0.006-0.081-0.008c-0.031-0.005-0.058-0.005-0.082-0.005c-0.088,0-0.16,0.015-0.215,0.043
		c-0.055,0.031-0.095,0.074-0.121,0.13v1.106H6.624v-1.69h0.427l0.012,0.2c0.043-0.071,0.096-0.129,0.158-0.17S7.356,13.4,7.44,13.4
		c0.024,0,0.049,0.002,0.076,0.007c0.026,0.004,0.048,0.01,0.065,0.016L7.574,13.855z"/>
	<path d="M7.915,15.124v-1.358H7.663v-0.332h0.251v-0.146c0-0.097,0.014-0.183,0.043-0.254c0.029-0.074,0.07-0.138,0.124-0.189
		c0.054-0.051,0.119-0.09,0.195-0.114c0.076-0.024,0.163-0.039,0.258-0.039c0.041,0,0.079,0.004,0.118,0.011
		c0.037,0.006,0.074,0.014,0.111,0.021L8.76,13.07c-0.037-0.008-0.083-0.014-0.137-0.014c-0.082,0-0.145,0.021-0.188,0.06
		c-0.044,0.038-0.066,0.096-0.066,0.17v0.146h0.336v0.332H8.368v1.357H7.915V15.124z"/>
	<path d="M9.716,15.154c-0.131,0-0.249-0.021-0.353-0.063c-0.104-0.043-0.191-0.103-0.264-0.176
		c-0.072-0.074-0.127-0.16-0.166-0.261c-0.039-0.1-0.058-0.204-0.058-0.317v-0.063c0-0.127,0.019-0.244,0.058-0.354
		c0.037-0.105,0.088-0.197,0.156-0.273c0.068-0.078,0.151-0.141,0.249-0.184C9.436,13.422,9.545,13.4,9.666,13.4
		c0.122,0,0.229,0.021,0.322,0.062c0.092,0.039,0.17,0.097,0.232,0.168c0.063,0.072,0.109,0.16,0.143,0.263
		c0.031,0.104,0.048,0.217,0.048,0.342v0.19H9.335c0.007,0.056,0.022,0.104,0.044,0.15C9.4,14.62,9.43,14.657,9.465,14.689
		c0.035,0.03,0.076,0.058,0.123,0.074c0.047,0.016,0.1,0.024,0.158,0.024c0.082,0,0.158-0.017,0.229-0.045
		c0.069-0.031,0.129-0.078,0.18-0.144l0.223,0.248c-0.025,0.036-0.063,0.075-0.104,0.11c-0.041,0.037-0.088,0.069-0.144,0.099
		c-0.055,0.028-0.118,0.053-0.187,0.069C9.874,15.145,9.798,15.154,9.716,15.154z M9.665,13.766c-0.049,0-0.092,0.01-0.129,0.027
		c-0.037,0.016-0.069,0.041-0.095,0.068c-0.026,0.031-0.049,0.068-0.065,0.111s-0.028,0.09-0.036,0.145h0.628v-0.037
		c-0.001-0.045-0.008-0.086-0.02-0.125c-0.013-0.039-0.03-0.072-0.056-0.102c-0.024-0.027-0.056-0.05-0.094-0.064
		C9.762,13.773,9.717,13.766,9.665,13.766z"/>
	<path d="M11.618,13.855c-0.022-0.004-0.05-0.006-0.081-0.008c-0.031-0.005-0.059-0.005-0.082-0.005
		c-0.088,0-0.16,0.015-0.215,0.043c-0.055,0.031-0.096,0.074-0.121,0.13v1.106h-0.452v-1.69h0.427l0.012,0.2
		c0.043-0.071,0.098-0.129,0.158-0.17C11.326,13.42,11.4,13.4,11.484,13.4c0.022,0,0.049,0.002,0.076,0.007
		c0.024,0.004,0.047,0.01,0.063,0.016L11.618,13.855z"/>
	<path d="M12.75,14.657c0-0.025-0.004-0.048-0.014-0.066c-0.01-0.021-0.027-0.039-0.053-0.055c-0.026-0.019-0.063-0.035-0.106-0.052
		s-0.103-0.028-0.173-0.045c-0.086-0.019-0.168-0.041-0.24-0.069c-0.074-0.027-0.137-0.063-0.191-0.104
		c-0.054-0.043-0.095-0.094-0.125-0.146c-0.029-0.055-0.046-0.119-0.046-0.19c0-0.072,0.015-0.14,0.046-0.201
		c0.031-0.063,0.075-0.121,0.133-0.168c0.06-0.05,0.129-0.088,0.213-0.115c0.084-0.028,0.18-0.043,0.283-0.043
		c0.109,0,0.209,0.015,0.295,0.041c0.088,0.026,0.162,0.063,0.225,0.113c0.063,0.049,0.107,0.104,0.143,0.172
		c0.031,0.065,0.049,0.142,0.049,0.22h-0.453c0-0.064-0.021-0.117-0.063-0.16c-0.042-0.041-0.106-0.063-0.194-0.063
		c-0.076,0-0.136,0.019-0.177,0.051c-0.042,0.035-0.063,0.078-0.063,0.134c0,0.022,0.006,0.047,0.017,0.065
		c0.013,0.019,0.029,0.034,0.054,0.053c0.023,0.017,0.057,0.031,0.098,0.046c0.039,0.012,0.089,0.024,0.146,0.036
		c0.092,0.019,0.178,0.039,0.256,0.063c0.076,0.027,0.146,0.062,0.201,0.103c0.059,0.041,0.102,0.093,0.135,0.149
		c0.03,0.059,0.049,0.13,0.049,0.214c0,0.073-0.019,0.146-0.051,0.206c-0.033,0.063-0.08,0.117-0.144,0.164
		c-0.063,0.046-0.138,0.08-0.226,0.107c-0.086,0.024-0.186,0.038-0.293,0.038c-0.119,0-0.224-0.019-0.313-0.051
		c-0.09-0.033-0.167-0.076-0.229-0.131c-0.063-0.056-0.108-0.115-0.141-0.185c-0.029-0.065-0.047-0.136-0.047-0.203h0.428
		c0.004,0.043,0.014,0.08,0.029,0.113c0.018,0.03,0.04,0.057,0.066,0.075c0.028,0.021,0.063,0.035,0.1,0.045
		c0.037,0.009,0.076,0.015,0.115,0.015c0.088,0,0.152-0.019,0.197-0.049C12.729,14.752,12.75,14.709,12.75,14.657z"/>
</g>
</svg>
