<?xml version="1.0" encoding="utf-8"?>
<!-- Generator: Adobe Illustrator 16.0.0, SVG Export Plug-In . SVG Version: 6.00 Build 0)  -->
<!DOCTYPE svg PUBLIC "-//W3C//DTD SVG 1.1//EN" "http://www.w3.org/Graphics/SVG/1.1/DTD/svg11.dtd">
<svg version="1.1" id="Layer_1" xmlns="http://www.w3.org/2000/svg" xmlns:xlink="http://www.w3.org/1999/xlink" x="0px" y="0px"
	 width="16.08px" height="18.48px" viewBox="0 0 16.08 18.48" enable-background="new 0 0 16.08 18.48" xml:space="preserve">
<g>
	<g>
		<path d="M3.661,14.198c-0.008,0.116-0.034,0.222-0.078,0.319c-0.044,0.097-0.104,0.18-0.181,0.249
			c-0.077,0.068-0.17,0.124-0.281,0.163c-0.109,0.038-0.235,0.059-0.375,0.059c-0.146,0-0.277-0.025-0.393-0.076
			s-0.215-0.123-0.295-0.218c-0.081-0.095-0.143-0.209-0.187-0.344c-0.043-0.136-0.064-0.286-0.064-0.454v-0.15
			c0-0.167,0.022-0.319,0.067-0.455c0.044-0.135,0.107-0.25,0.189-0.345s0.181-0.168,0.298-0.219
			c0.116-0.052,0.247-0.077,0.391-0.077c0.142,0,0.267,0.02,0.376,0.06c0.108,0.04,0.201,0.097,0.277,0.167
			c0.076,0.072,0.135,0.156,0.178,0.255c0.043,0.1,0.07,0.206,0.081,0.321H3.195c-0.005-0.068-0.017-0.128-0.035-0.18
			s-0.044-0.097-0.079-0.131c-0.035-0.036-0.079-0.063-0.133-0.081c-0.054-0.019-0.12-0.027-0.197-0.027
			c-0.158,0-0.276,0.058-0.354,0.173C2.32,13.322,2.281,13.5,2.281,13.742v0.153c0,0.118,0.009,0.221,0.026,0.31
			c0.017,0.088,0.044,0.163,0.081,0.222c0.037,0.061,0.085,0.104,0.144,0.135c0.059,0.029,0.13,0.044,0.213,0.044
			c0.074,0,0.138-0.008,0.191-0.025c0.053-0.017,0.098-0.042,0.134-0.076c0.036-0.034,0.063-0.077,0.084-0.127
			c0.02-0.051,0.032-0.109,0.037-0.178L3.661,14.198L3.661,14.198z"/>
		<path d="M4.416,14.956H3.963v-2.399h0.453V14.956z"/>
		<path d="M4.785,12.828c0-0.068,0.022-0.124,0.068-0.167c0.045-0.043,0.107-0.064,0.185-0.064c0.039,0,0.074,0.006,0.105,0.017
			c0.031,0.012,0.058,0.028,0.08,0.048c0.022,0.021,0.039,0.046,0.051,0.074c0.012,0.029,0.018,0.06,0.018,0.093
			c0,0.034-0.006,0.066-0.018,0.094c-0.012,0.029-0.029,0.055-0.051,0.074c-0.022,0.021-0.048,0.037-0.08,0.048
			c-0.031,0.013-0.066,0.019-0.105,0.019s-0.073-0.006-0.104-0.019c-0.031-0.011-0.058-0.026-0.08-0.048
			c-0.022-0.021-0.039-0.045-0.051-0.074C4.791,12.894,4.785,12.862,4.785,12.828z M5.264,14.956H4.811v-1.689h0.453V14.956z"/>
		<path d="M6.06,13.266l0.014,0.188c0.057-0.069,0.125-0.123,0.206-0.162c0.081-0.039,0.174-0.059,0.28-0.059
			c0.101,0,0.19,0.02,0.268,0.061c0.078,0.041,0.138,0.106,0.181,0.197c0.056-0.081,0.125-0.144,0.209-0.189
			C7.3,13.257,7.4,13.234,7.516,13.234c0.083,0,0.157,0.011,0.225,0.034c0.067,0.022,0.124,0.06,0.172,0.11
			c0.047,0.052,0.083,0.118,0.109,0.199C8.047,13.66,8.06,13.76,8.06,13.879v1.077H7.606v-1.077c0-0.056-0.006-0.103-0.018-0.139
			c-0.012-0.036-0.029-0.064-0.051-0.085c-0.022-0.021-0.048-0.034-0.08-0.042c-0.032-0.008-0.066-0.012-0.106-0.012
			c-0.069,0-0.128,0.017-0.175,0.052c-0.047,0.035-0.082,0.082-0.106,0.141c0,0.005,0,0.012,0.001,0.019
			c0,0.006,0.001,0.012,0.001,0.017v1.126H6.62v-1.073c0-0.057-0.005-0.103-0.017-0.139c-0.012-0.037-0.028-0.065-0.05-0.086
			c-0.022-0.021-0.048-0.036-0.081-0.044c-0.032-0.008-0.067-0.012-0.107-0.012c-0.067,0-0.123,0.014-0.168,0.042
			c-0.045,0.027-0.083,0.066-0.109,0.116v1.195H5.636v-1.689L6.06,13.266L6.06,13.266z"/>
		<path d="M9.931,14.126c0,0.127-0.015,0.243-0.041,0.349c-0.027,0.104-0.068,0.195-0.123,0.271
			c-0.056,0.076-0.123,0.135-0.207,0.177c-0.082,0.042-0.179,0.063-0.289,0.063c-0.098,0-0.183-0.02-0.254-0.056
			c-0.07-0.037-0.133-0.089-0.185-0.155l-0.021,0.18H8.406v-2.399h0.453v0.86c0.05-0.058,0.108-0.104,0.176-0.135
			c0.066-0.031,0.146-0.047,0.234-0.047c0.11,0,0.207,0.021,0.291,0.063c0.082,0.042,0.151,0.103,0.207,0.179
			c0.055,0.075,0.096,0.167,0.123,0.271c0.027,0.105,0.041,0.221,0.041,0.346V14.126L9.931,14.126z M9.479,14.094
			c0-0.066-0.006-0.13-0.016-0.189c-0.009-0.061-0.025-0.112-0.051-0.157c-0.023-0.044-0.059-0.08-0.1-0.105
			c-0.041-0.026-0.094-0.039-0.16-0.039c-0.075,0-0.137,0.015-0.186,0.046c-0.048,0.031-0.085,0.074-0.111,0.13v0.667
			c0.026,0.056,0.063,0.1,0.111,0.131c0.049,0.031,0.111,0.047,0.189,0.047c0.063,0,0.115-0.012,0.156-0.037
			c0.041-0.024,0.074-0.06,0.099-0.104c0.024-0.043,0.042-0.097,0.051-0.157c0.011-0.061,0.015-0.127,0.015-0.199v-0.032H9.479z"/>
		<path d="M10.205,12.828c0-0.068,0.022-0.124,0.067-0.167s0.107-0.064,0.186-0.064c0.039,0,0.072,0.006,0.104,0.017
			c0.031,0.012,0.059,0.028,0.08,0.048c0.021,0.021,0.039,0.046,0.051,0.074c0.013,0.029,0.019,0.06,0.019,0.093
			c0,0.034-0.006,0.066-0.019,0.094c-0.012,0.029-0.028,0.055-0.051,0.074c-0.021,0.021-0.049,0.037-0.08,0.048
			c-0.031,0.013-0.065,0.019-0.104,0.019s-0.073-0.006-0.104-0.019c-0.031-0.011-0.059-0.026-0.08-0.048
			c-0.021-0.021-0.039-0.045-0.051-0.074C10.211,12.894,10.205,12.862,10.205,12.828z M10.685,14.956h-0.453v-1.689h0.453V14.956z"
			/>
		<path d="M11.472,13.266l0.014,0.194c0.059-0.072,0.129-0.129,0.211-0.168s0.175-0.059,0.275-0.059c0.08,0,0.153,0.011,0.219,0.033
			c0.066,0.021,0.123,0.06,0.168,0.109c0.047,0.051,0.084,0.118,0.109,0.2s0.039,0.183,0.039,0.303v1.075h-0.451v-1.078
			c0-0.054-0.007-0.099-0.019-0.134c-0.013-0.036-0.029-0.063-0.054-0.084c-0.021-0.021-0.051-0.036-0.084-0.044
			c-0.032-0.008-0.071-0.013-0.115-0.013c-0.067,0-0.124,0.015-0.172,0.043c-0.047,0.028-0.084,0.068-0.113,0.119v1.191h-0.452
			v-1.689H11.472z"/>
		<path d="M12.783,14.098c0-0.129,0.016-0.245,0.048-0.353c0.031-0.105,0.077-0.197,0.136-0.272c0.06-0.076,0.13-0.136,0.216-0.177
			c0.084-0.042,0.18-0.063,0.285-0.063c0.1,0,0.184,0.017,0.254,0.05s0.131,0.08,0.18,0.141l0.019-0.158h0.409v1.633
			c0,0.115-0.02,0.218-0.059,0.308c-0.041,0.089-0.096,0.166-0.168,0.229c-0.07,0.062-0.156,0.107-0.256,0.141
			c-0.1,0.032-0.209,0.047-0.33,0.047c-0.053,0-0.107-0.005-0.166-0.016c-0.059-0.01-0.115-0.026-0.172-0.048
			c-0.058-0.022-0.111-0.05-0.162-0.083c-0.052-0.033-0.095-0.073-0.129-0.119l0.199-0.275c0.055,0.061,0.114,0.105,0.184,0.14
			c0.067,0.032,0.144,0.05,0.227,0.05c0.12,0,0.213-0.032,0.279-0.097c0.066-0.063,0.101-0.154,0.101-0.271v-0.091
			c-0.05,0.057-0.108,0.1-0.176,0.131c-0.068,0.03-0.146,0.046-0.234,0.046c-0.104,0-0.2-0.021-0.284-0.065
			c-0.084-0.043-0.154-0.103-0.213-0.179c-0.06-0.076-0.104-0.167-0.137-0.271c-0.032-0.105-0.048-0.22-0.048-0.343v-0.033H12.783z
			 M13.233,14.131c0,0.069,0.008,0.134,0.021,0.192s0.035,0.111,0.063,0.155c0.029,0.044,0.064,0.08,0.107,0.104
			c0.043,0.025,0.096,0.038,0.154,0.038c0.072,0,0.132-0.013,0.181-0.041c0.048-0.027,0.087-0.064,0.114-0.114v-0.711
			c-0.029-0.05-0.066-0.088-0.114-0.114s-0.106-0.04-0.178-0.04c-0.06,0-0.11,0.013-0.153,0.038
			c-0.045,0.024-0.08,0.061-0.109,0.104c-0.029,0.045-0.051,0.098-0.064,0.158s-0.021,0.125-0.021,0.195V14.131z"/>
		<path d="M4.457,17.038c-0.008,0.116-0.035,0.222-0.078,0.319c-0.043,0.097-0.104,0.18-0.181,0.249
			c-0.077,0.068-0.171,0.124-0.28,0.163c-0.11,0.039-0.235,0.059-0.376,0.059c-0.146,0-0.277-0.025-0.393-0.076
			c-0.116-0.051-0.214-0.123-0.295-0.218s-0.143-0.209-0.186-0.344s-0.065-0.286-0.065-0.454v-0.15c0-0.167,0.022-0.318,0.067-0.455
			c0.045-0.136,0.108-0.25,0.19-0.345s0.181-0.168,0.297-0.219c0.117-0.051,0.247-0.077,0.391-0.077c0.142,0,0.268,0.02,0.376,0.06
			c0.109,0.04,0.201,0.097,0.277,0.167c0.076,0.072,0.136,0.156,0.178,0.256c0.042,0.099,0.07,0.205,0.082,0.32h-0.47
			c-0.005-0.067-0.017-0.128-0.035-0.18c-0.019-0.052-0.045-0.096-0.079-0.131c-0.034-0.036-0.079-0.063-0.133-0.081
			c-0.054-0.019-0.12-0.027-0.197-0.027c-0.158,0-0.276,0.059-0.354,0.173c-0.078,0.115-0.116,0.293-0.116,0.535v0.153
			c0,0.118,0.008,0.221,0.025,0.31c0.018,0.088,0.044,0.163,0.081,0.223s0.085,0.104,0.144,0.134s0.13,0.044,0.213,0.044
			c0.074,0,0.138-0.008,0.191-0.025c0.053-0.017,0.099-0.042,0.134-0.076c0.036-0.033,0.064-0.076,0.083-0.127
			c0.02-0.051,0.032-0.109,0.038-0.178L4.457,17.038L4.457,17.038z"/>
		<path d="M5.513,17.827c-0.131,0-0.249-0.021-0.353-0.063c-0.104-0.044-0.191-0.102-0.264-0.176
			c-0.072-0.073-0.128-0.161-0.166-0.26c-0.038-0.1-0.057-0.206-0.057-0.32v-0.061c0-0.128,0.019-0.245,0.056-0.353
			c0.037-0.106,0.089-0.198,0.157-0.275c0.068-0.077,0.151-0.137,0.249-0.181c0.097-0.043,0.206-0.064,0.327-0.064
			c0.122,0,0.229,0.02,0.322,0.06c0.093,0.04,0.17,0.097,0.234,0.168c0.063,0.073,0.11,0.16,0.142,0.263
			c0.032,0.103,0.048,0.216,0.048,0.341v0.192H5.132c0.007,0.055,0.022,0.104,0.044,0.149c0.022,0.045,0.051,0.083,0.086,0.115
			c0.035,0.032,0.076,0.057,0.123,0.074c0.047,0.017,0.1,0.025,0.158,0.025c0.083,0,0.159-0.015,0.228-0.046
			c0.07-0.031,0.13-0.078,0.18-0.143l0.222,0.249c-0.027,0.039-0.061,0.076-0.102,0.111c-0.04,0.037-0.088,0.069-0.144,0.099
			C5.872,17.76,5.81,17.784,5.74,17.801C5.67,17.818,5.595,17.827,5.513,17.827z M5.461,16.439c-0.049,0-0.092,0.009-0.129,0.025
			c-0.037,0.018-0.068,0.042-0.095,0.072c-0.027,0.031-0.048,0.068-0.065,0.11c-0.017,0.043-0.028,0.09-0.036,0.142h0.628v-0.036
			c-0.001-0.045-0.008-0.086-0.02-0.125c-0.012-0.039-0.03-0.071-0.055-0.1c-0.024-0.028-0.056-0.05-0.094-0.066
			C5.557,16.446,5.514,16.439,5.461,16.439z"/>
		<path d="M6.88,16.105L6.894,16.3c0.058-0.072,0.128-0.129,0.211-0.168s0.174-0.059,0.275-0.059c0.08,0,0.153,0.011,0.219,0.033
			c0.066,0.021,0.122,0.06,0.169,0.109c0.047,0.052,0.083,0.118,0.108,0.2s0.039,0.184,0.039,0.303v1.075H7.463v-1.078
			c0-0.054-0.006-0.099-0.018-0.134c-0.012-0.036-0.029-0.063-0.052-0.084c-0.023-0.021-0.051-0.036-0.084-0.044
			c-0.033-0.009-0.072-0.013-0.116-0.013c-0.066,0-0.124,0.015-0.171,0.043c-0.047,0.029-0.086,0.068-0.115,0.119v1.191H6.455
			v-1.689H6.88z"/>
		<path d="M8.797,15.689v0.416h0.289v0.331H8.797v0.844c0,0.036,0.004,0.063,0.011,0.087c0.008,0.023,0.019,0.041,0.033,0.054
			c0.016,0.014,0.032,0.021,0.055,0.026c0.021,0.005,0.047,0.007,0.076,0.007c0.026,0,0.051-0.001,0.073-0.003
			s0.042-0.005,0.06-0.008v0.342c-0.039,0.011-0.08,0.021-0.123,0.029c-0.045,0.008-0.094,0.012-0.15,0.012
			c-0.074,0-0.141-0.009-0.2-0.027c-0.06-0.018-0.11-0.047-0.152-0.087s-0.075-0.091-0.098-0.153
			c-0.023-0.063-0.034-0.141-0.034-0.23v-0.892H8.099v-0.331h0.247v-0.416H8.797z"/>
		<path d="M10.116,17.827c-0.133,0-0.249-0.021-0.354-0.063C9.66,17.719,9.571,17.662,9.5,17.588
			c-0.073-0.073-0.127-0.161-0.166-0.26c-0.038-0.1-0.058-0.206-0.058-0.32v-0.061c0-0.128,0.019-0.245,0.056-0.353
			c0.037-0.106,0.09-0.198,0.158-0.275c0.067-0.077,0.151-0.137,0.247-0.181c0.099-0.044,0.207-0.064,0.328-0.064
			c0.123,0,0.229,0.02,0.322,0.06c0.094,0.04,0.172,0.097,0.233,0.168c0.063,0.073,0.11,0.16,0.144,0.263
			c0.03,0.103,0.047,0.216,0.047,0.341v0.192H9.733c0.009,0.055,0.022,0.104,0.045,0.149c0.023,0.045,0.052,0.083,0.087,0.115
			c0.034,0.032,0.075,0.057,0.122,0.074c0.048,0.017,0.1,0.025,0.158,0.025c0.082,0,0.158-0.015,0.229-0.046
			c0.069-0.031,0.129-0.078,0.181-0.143l0.221,0.249c-0.026,0.039-0.061,0.076-0.102,0.111c-0.041,0.037-0.089,0.069-0.145,0.099
			c-0.055,0.028-0.117,0.052-0.186,0.068C10.274,17.818,10.198,17.827,10.116,17.827z M10.063,16.439
			c-0.049,0-0.092,0.009-0.129,0.025c-0.037,0.018-0.068,0.042-0.096,0.072c-0.025,0.031-0.048,0.068-0.064,0.11
			c-0.017,0.043-0.028,0.09-0.035,0.142h0.628v-0.036c-0.001-0.045-0.007-0.086-0.021-0.125c-0.012-0.039-0.029-0.071-0.055-0.1
			c-0.023-0.028-0.057-0.05-0.094-0.066C10.16,16.446,10.116,16.439,10.063,16.439z"/>
		<path d="M12.019,16.529c-0.023-0.003-0.051-0.006-0.082-0.009c-0.031-0.002-0.058-0.004-0.082-0.004
			c-0.088,0-0.16,0.015-0.215,0.044s-0.095,0.072-0.121,0.129v1.105h-0.451v-1.689h0.427l0.013,0.201
			c0.042-0.073,0.096-0.131,0.157-0.172s0.136-0.062,0.219-0.062c0.024,0,0.05,0.002,0.076,0.006s0.048,0.009,0.063,0.014
			L12.019,16.529z"/>
		<path d="M13.149,17.329c0-0.023-0.004-0.046-0.014-0.064c-0.009-0.021-0.027-0.039-0.053-0.057
			c-0.025-0.017-0.063-0.034-0.105-0.049c-0.045-0.016-0.104-0.03-0.174-0.045c-0.087-0.02-0.166-0.042-0.24-0.07
			c-0.072-0.027-0.137-0.063-0.189-0.104c-0.055-0.042-0.096-0.09-0.126-0.146c-0.03-0.055-0.045-0.12-0.045-0.191
			s0.015-0.139,0.046-0.202c0.031-0.064,0.075-0.12,0.133-0.168c0.059-0.048,0.129-0.086,0.213-0.115
			c0.084-0.028,0.178-0.042,0.283-0.042c0.109,0,0.208,0.013,0.295,0.041c0.088,0.027,0.162,0.065,0.223,0.113
			c0.063,0.048,0.108,0.105,0.142,0.172c0.032,0.066,0.05,0.14,0.05,0.219h-0.452c0-0.063-0.021-0.118-0.063-0.16
			c-0.041-0.042-0.105-0.063-0.194-0.063c-0.076,0-0.135,0.017-0.176,0.051c-0.042,0.035-0.063,0.078-0.063,0.131
			c0,0.025,0.006,0.047,0.016,0.066c0.012,0.02,0.029,0.037,0.055,0.053s0.057,0.031,0.098,0.044
			c0.039,0.014,0.088,0.026,0.146,0.038c0.092,0.018,0.177,0.04,0.255,0.065s0.146,0.06,0.202,0.101
			c0.056,0.041,0.102,0.091,0.134,0.15c0.032,0.059,0.048,0.13,0.048,0.213c0,0.074-0.017,0.144-0.05,0.207
			c-0.033,0.063-0.081,0.116-0.144,0.163c-0.062,0.046-0.137,0.081-0.225,0.107c-0.087,0.026-0.186,0.039-0.293,0.039
			c-0.119,0-0.223-0.017-0.314-0.05c-0.09-0.034-0.166-0.077-0.229-0.131c-0.063-0.055-0.109-0.115-0.141-0.184
			c-0.03-0.066-0.047-0.136-0.047-0.205h0.43c0.002,0.044,0.012,0.082,0.027,0.113c0.019,0.032,0.041,0.058,0.068,0.078
			c0.028,0.02,0.061,0.034,0.098,0.043s0.076,0.014,0.117,0.014c0.086,0,0.151-0.017,0.195-0.049
			C13.128,17.425,13.149,17.382,13.149,17.329z"/>
	</g>
</g>
<g>
	<path fill="#6D6E70" d="M2.183,11.235c1.564-0.427,3.126-0.858,4.698-1.275c0.315-0.084,0.573-0.176,0.748-0.357
		C8.207,9,9.153,8.597,9.929,8.101c0.145-0.093,0.266-0.218,0.309-0.338c0.265-0.717,0.488-1.437,0.76-2.151
		c0.066-0.178,0.24-0.344,0.38-0.511c0.082-0.1,0.177-0.197,0.295-0.281c0.741-0.52,0.914-1.135,0.884-1.786
		c-0.014-0.291,0.116-0.53,0.459-0.75c0.439-0.281,0.824-0.593,1.276-0.925c0.019,0.081,0.035,0.123,0.035,0.165
		c0.001,3.206,0,6.411,0,9.616c0,0.03-0.007,0.063-0.011,0.095C10.272,11.235,6.228,11.235,2.183,11.235z"/>
	<g>
		<path fill="#6D6E70" d="M9.669,0.712c0.225,0.161,0.439,0.327,0.527,0.609c0.136,0.435-0.008,0.893-0.371,1.155
			C9.478,2.729,8.983,2.722,8.633,2.461C8.278,2.197,8.14,1.747,8.285,1.321c0.146-0.431,0.528-0.69,0.998-0.68
			c0.038,0,0.075-0.008,0.114-0.011C9.487,0.658,9.579,0.685,9.669,0.712z"/>
		<path fill="#6D6E70" d="M7.417,5.605c0.301,0.187,0.58,0.363,0.864,0.532c0.182,0.106,0.293,0.252,0.333,0.461
			C8.69,6.993,8.78,7.385,8.858,7.779c0.066,0.333-0.086,0.598-0.375,0.658C8.193,8.498,7.95,8.318,7.875,7.986
			c-0.029-0.13-0.077-0.261-0.082-0.394C7.775,7.094,7.53,6.773,7.08,6.567C6.802,6.44,6.554,6.251,6.292,6.091
			C5.749,5.759,5.651,5.32,6.037,4.802c0.305-0.409,0.644-0.795,0.968-1.19C7.1,3.495,7.192,3.377,7.292,3.266
			C7.517,3.014,7.799,2.9,8.136,2.927C8.694,2.974,9.25,3.024,9.808,3.064c0.108,0.009,0.221-0.006,0.326-0.033
			c0.396-0.102,0.792-0.217,1.188-0.319c0.273-0.069,0.477,0.043,0.537,0.283c0.059,0.228-0.061,0.427-0.315,0.5
			c-0.47,0.137-0.937,0.297-1.415,0.379C9.826,3.926,9.502,3.844,9.188,3.841C9.099,3.84,8.981,3.873,8.923,3.934
			C8.439,4.452,7.965,4.979,7.489,5.504C7.469,5.527,7.453,5.554,7.417,5.605z"/>
		<path fill="#6D6E70" d="M6.019,6.31C6.358,6.518,6.654,6.696,6.945,6.88c0.04,0.025,0.084,0.083,0.085,0.126
			c0.009,0.41,0.095,0.821-0.191,1.2C6.604,8.517,6.432,8.877,6.227,9.212C6.052,9.499,5.761,9.578,5.503,9.417
			c-0.242-0.149-0.294-0.44-0.129-0.723c0.168-0.285,0.329-0.574,0.51-0.85C6.012,7.651,6.06,7.454,6.043,7.225
			C6.021,6.937,6.026,6.647,6.019,6.31z"/>
	</g>
	<path fill="#6D6E70" d="M7.676,4.063c0.137,0.445,0.42,0.41,0.722,0.349c0.214-0.042,0.436-0.06,0.656-0.089
		C9.356,4.284,9.575,4.417,9.61,4.66c0.037,0.251-0.123,0.431-0.435,0.474C8.739,5.195,8.301,5.249,7.864,5.307
		C7.682,5.331,7.527,5.305,7.398,5.148c-0.115-0.14-0.142-0.26-0.046-0.423C7.462,4.536,7.546,4.332,7.676,4.063z"/>
</g>
</svg>
