<?xml version="1.0" encoding="utf-8"?>
<!-- Generator: Adobe Illustrator 16.0.0, SVG Export Plug-In . SVG Version: 6.00 Build 0)  -->
<!DOCTYPE svg PUBLIC "-//W3C//DTD SVG 1.1//EN" "http://www.w3.org/Graphics/SVG/1.1/DTD/svg11.dtd">
<svg version="1.1" id="Layer_1" xmlns="http://www.w3.org/2000/svg" xmlns:xlink="http://www.w3.org/1999/xlink" x="0px" y="0px"
	 width="16.08px" height="18.48px" viewBox="0 0 16.08 18.48" enable-background="new 0 0 16.08 18.48" xml:space="preserve">
<g>
	<path fill="#6D6E70" d="M8.035,10.463c-0.586,0-1.171-0.002-1.756,0.002c-0.105,0.001-0.157-0.018-0.142-0.135
		c0.009-0.063,0.005-0.137,0.001-0.207C6.127,9.95,6.156,9.808,6.287,9.661c0.251-0.282,0.211-0.707-0.059-0.977
		c-0.066-0.065-0.091-0.128-0.09-0.222c0.005-0.517,0.005-1.029,0.008-1.55c0-0.073,0.013-0.156-0.075-0.188
		c-0.082-0.03-0.129,0.03-0.178,0.079C5.615,7.069,5.341,7.336,5.059,7.597C4.982,7.666,4.996,7.707,5.063,7.771
		C5.386,8.074,5.705,8.38,6.028,8.684c0.297,0.276,0.329,0.704,0.071,0.973C5.825,9.942,5.418,9.94,5.113,9.654
		c-0.392-0.367-0.788-0.729-1.174-1.1c-0.344-0.33-0.53-0.721-0.394-1.208c0.047-0.173,0.167-0.289,0.278-0.412
		c0.48-0.528,0.961-1.058,1.45-1.574c0.333-0.354,0.765-0.503,1.238-0.552C6.58,4.801,6.606,4.835,6.631,4.89
		C7.019,5.75,7.407,6.61,7.798,7.469c0.03,0.066,0.034,0.103-0.047,0.13c-0.103,0.031-0.26,0.01-0.295,0.12
		C7.43,7.809,7.494,7.927,7.521,8.031c0.073,0.27,0.152,0.539,0.223,0.81C7.772,8.95,7.82,8.986,7.934,8.949
		c0.153-0.052,0.31-0.098,0.468-0.131C8.535,8.79,8.55,8.731,8.513,8.61C8.422,8.315,8.347,8.013,8.259,7.717
		C8.236,7.635,8.242,7.567,8.278,7.491c0.409-0.856,0.814-1.713,1.217-2.572c0.038-0.081,0.082-0.104,0.168-0.097
		c0.472,0.048,0.869,0.256,1.189,0.593c0.51,0.54,1.006,1.094,1.506,1.646c0.229,0.253,0.264,0.551,0.178,0.865
		c-0.066,0.244-0.203,0.446-0.387,0.618c-0.401,0.377-0.803,0.755-1.207,1.129C10.646,9.95,10.235,9.936,9.97,9.648
		c-0.244-0.269-0.221-0.671,0.059-0.94c0.322-0.311,0.646-0.619,0.977-0.923c0.076-0.072,0.098-0.114,0.005-0.195
		c-0.276-0.255-0.548-0.521-0.819-0.779c-0.049-0.05-0.1-0.11-0.181-0.078C9.92,6.76,9.931,6.841,9.931,6.916
		c0.002,0.521,0.002,1.033,0.006,1.549c0,0.094-0.021,0.155-0.088,0.226C9.547,8.994,9.554,9.451,9.864,9.754
		c0.051,0.054,0.072,0.102,0.072,0.167c-0.004,0.142-0.008,0.275,0,0.413c0.006,0.104-0.026,0.133-0.129,0.131
		C9.216,10.46,8.626,10.463,8.035,10.463z"/>
	<path fill="#6D6E70" d="M8.163,1.508C8.996,1.51,9.665,2.179,9.66,3.007c-0.005,0.83-0.679,1.494-1.51,1.492
		C7.321,4.497,6.651,3.824,6.653,2.996C6.656,2.166,7.324,1.508,8.163,1.508z"/>
	<path fill="#6D6E70" d="M9.149,4.814C8.789,5.59,8.428,6.369,8.054,7.171c-0.067-0.146-0.122-0.268-0.177-0.39
		C7.602,6.168,7.33,5.552,7.052,4.94C7.005,4.836,6.997,4.795,7.139,4.796c0.619,0.005,1.238,0,1.857-0.001
		C9.043,4.795,9.092,4.781,9.149,4.814z"/>
	<path fill="#6D6E70" d="M8.157,7.544c-0.005,0.086-0.049,0.13-0.122,0.13c-0.082,0.001-0.129-0.048-0.127-0.13
		c0.002-0.069,0.045-0.119,0.121-0.12C8.113,7.423,8.152,7.473,8.157,7.544z"/>
</g>
<path d="M-2.126,25.587c0.124,0.088,0.292,0.132,0.504,0.132c0.232,0,0.409-0.052,0.527-0.156c0.121-0.104,0.18-0.229,0.18-0.376
	c0-0.134-0.043-0.237-0.129-0.313c-0.086-0.074-0.239-0.14-0.459-0.188c-0.221-0.05-0.348-0.09-0.385-0.118l-0.041-0.076
	l0.047-0.085c0.047-0.028,0.125-0.046,0.232-0.046l0.196,0.052l0.097,0.142l0.389-0.072c-0.039-0.139-0.11-0.243-0.215-0.313
	c-0.104-0.07-0.26-0.106-0.477-0.106c-0.224,0-0.389,0.047-0.492,0.143c-0.106,0.095-0.16,0.211-0.16,0.349
	c0,0.151,0.063,0.271,0.186,0.354c0.089,0.063,0.299,0.133,0.631,0.205l0.139,0.059l0.029,0.079l-0.055,0.109
	c-0.055,0.04-0.135,0.063-0.24,0.063c-0.098,0-0.172-0.021-0.227-0.063l-0.106-0.186l-0.413,0.063
	C-2.331,25.381-2.25,25.5-2.126,25.587z M-3.583,24.753c-0.001-0.114,0.026-0.205,0.086-0.272l0.224-0.101l0.213,0.095
	c0.062,0.063,0.09,0.156,0.096,0.278H-3.583z M-3.09,25.35l-0.163,0.055l-0.237-0.104c-0.063-0.069-0.097-0.166-0.1-0.291h1.032
	c0.004-0.322-0.062-0.563-0.192-0.718c-0.134-0.155-0.315-0.233-0.548-0.233c-0.206,0-0.377,0.074-0.512,0.224
	c-0.135,0.148-0.203,0.355-0.203,0.619c0,0.223,0.052,0.402,0.154,0.547c0.131,0.184,0.33,0.271,0.602,0.271
	c0.171,0,0.313-0.04,0.427-0.12s0.196-0.197,0.25-0.352l-0.411-0.069L-3.09,25.35z M-5.463,25.587
	c0.124,0.088,0.292,0.132,0.504,0.132c0.233,0,0.409-0.052,0.528-0.156c0.119-0.104,0.179-0.229,0.179-0.376
	c0-0.134-0.043-0.237-0.129-0.313c-0.087-0.074-0.239-0.14-0.459-0.188s-0.349-0.09-0.386-0.118l-0.041-0.076l0.047-0.085
	c0.048-0.028,0.125-0.046,0.23-0.046l0.199,0.052l0.096,0.142l0.391-0.072c-0.041-0.139-0.111-0.243-0.215-0.313
	c-0.104-0.07-0.264-0.106-0.478-0.106c-0.226,0-0.39,0.047-0.495,0.143c-0.104,0.095-0.156,0.211-0.156,0.349
	c0,0.151,0.062,0.271,0.185,0.354c0.089,0.063,0.299,0.133,0.631,0.205l0.138,0.059l0.03,0.079l-0.056,0.109
	c-0.053,0.04-0.135,0.063-0.239,0.063c-0.099,0-0.172-0.021-0.226-0.063l-0.107-0.19l-0.413,0.063
	C-5.667,25.381-5.586,25.5-5.463,25.587z M-7.131,25.587c0.124,0.088,0.291,0.132,0.503,0.132c0.234,0,0.41-0.052,0.529-0.156
	c0.119-0.104,0.179-0.229,0.179-0.376c0-0.134-0.043-0.237-0.129-0.313c-0.087-0.074-0.24-0.14-0.459-0.188
	c-0.219-0.05-0.347-0.09-0.385-0.118l-0.041-0.076l0.046-0.084c0.047-0.028,0.125-0.046,0.233-0.046l0.198,0.052l0.095,0.142
	l0.388-0.072c-0.039-0.139-0.11-0.243-0.215-0.313c-0.104-0.07-0.264-0.106-0.477-0.106c-0.224,0-0.389,0.047-0.495,0.144
	c-0.106,0.094-0.159,0.21-0.159,0.348c0,0.152,0.061,0.271,0.184,0.354c0.089,0.063,0.3,0.133,0.631,0.205l0.138,0.059l0.029,0.079
	l-0.051,0.104c-0.054,0.04-0.134,0.063-0.241,0.063c-0.096,0-0.171-0.021-0.226-0.063l-0.107-0.187l-0.413,0.063
	C-7.336,25.381-7.255,25.5-7.131,25.587z M-8.04,25.005c0,0.1-0.005,0.169-0.016,0.204l-0.098,0.14l-0.212,0.074l-0.165-0.063
	l-0.064-0.151l0.081-0.148c0.035-0.021,0.11-0.048,0.224-0.073c0.114-0.021,0.197-0.047,0.25-0.063V25.005z M-8.491,24.425
	l0.171-0.045c0.109,0,0.182,0.018,0.222,0.052l0.058,0.173v0.042c-0.074,0.031-0.207,0.066-0.4,0.104
	c-0.142,0.024-0.251,0.06-0.327,0.097l-0.177,0.162l-0.063,0.239c0,0.136,0.046,0.249,0.139,0.337
	c0.092,0.089,0.219,0.133,0.378,0.133l0.257-0.052l0.226-0.157l0.014,0.05l0.04,0.124h0.407L-7.62,25.47
	c-0.014-0.067-0.02-0.17-0.02-0.31l0.004-0.49c0-0.186-0.018-0.312-0.055-0.376l-0.19-0.169c-0.09-0.045-0.227-0.067-0.41-0.067
	c-0.202,0-0.355,0.037-0.458,0.11c-0.102,0.071-0.175,0.188-0.216,0.342l0.373,0.068L-8.491,24.425z M-9.319,25.683V23.49h-0.412
	v2.193H-9.319z M-10.7,25.229c-0.083,0.075-0.183,0.112-0.297,0.112c-0.156,0-0.283-0.062-0.381-0.176
	c-0.098-0.118-0.146-0.315-0.146-0.596c0-0.261,0.049-0.448,0.148-0.563c0.099-0.117,0.228-0.175,0.388-0.175
	c0.115,0,0.213,0.029,0.293,0.098c0.081,0.066,0.134,0.156,0.159,0.27l0.429-0.104c-0.048-0.176-0.122-0.311-0.219-0.404
	c-0.164-0.158-0.377-0.234-0.64-0.234c-0.301,0-0.544,0.102-0.728,0.303c-0.185,0.202-0.277,0.482-0.277,0.851
	c0,0.348,0.092,0.617,0.276,0.816c0.183,0.198,0.418,0.298,0.703,0.298c0.231,0,0.421-0.059,0.571-0.174
	c0.15-0.117,0.257-0.294,0.322-0.534l-0.42-0.136C-10.558,25.038-10.617,25.155-10.7,25.229z"/>
<g>
	<polygon points="3.89,14.728 3.89,12.906 4.525,12.906 4.525,12.536 2.818,12.536 2.818,12.906 3.457,12.906 3.457,14.728 	"/>
	<path d="M13.073,14.632c0.123,0.088,0.292,0.133,0.503,0.133c0.233,0,0.41-0.053,0.528-0.156c0.119-0.104,0.18-0.229,0.18-0.375
		c0-0.135-0.043-0.236-0.129-0.313c-0.087-0.073-0.238-0.139-0.459-0.188c-0.221-0.05-0.348-0.09-0.385-0.118l-0.041-0.073
		l0.047-0.086c0.047-0.031,0.123-0.048,0.232-0.048l0.197,0.051l0.096,0.143l0.389-0.072c-0.039-0.139-0.109-0.243-0.215-0.313
		c-0.104-0.069-0.264-0.105-0.477-0.105c-0.224,0-0.389,0.047-0.492,0.144c-0.107,0.095-0.16,0.209-0.16,0.348
		c0,0.151,0.062,0.271,0.186,0.354c0.089,0.063,0.299,0.132,0.631,0.204l0.139,0.058l0.029,0.079l-0.055,0.11
		c-0.055,0.04-0.135,0.062-0.241,0.062c-0.097,0-0.171-0.021-0.226-0.063l-0.106-0.188l-0.413,0.063
		C12.869,14.426,12.949,14.545,13.073,14.632z M12.203,14.237c0-0.271,0.013-0.445,0.035-0.53l0.095-0.178l0.146-0.049l0.192,0.067
		l0.129-0.365l-0.271-0.079l-0.179,0.052c-0.053,0.033-0.11,0.104-0.178,0.21v-0.226H11.79v1.589h0.412L12.203,14.237L12.203,14.237
		z M10.449,13.798c-0.001-0.113,0.026-0.205,0.086-0.271l0.222-0.102l0.215,0.096c0.062,0.063,0.091,0.156,0.093,0.277H10.449z
		 M10.94,14.395l-0.163,0.055l-0.235-0.104c-0.063-0.069-0.098-0.166-0.102-0.291h1.031c0.006-0.322-0.06-0.562-0.19-0.718
		c-0.134-0.155-0.315-0.233-0.55-0.233c-0.205,0-0.375,0.073-0.51,0.226c-0.137,0.146-0.203,0.354-0.203,0.616
		c0,0.222,0.052,0.402,0.154,0.549c0.129,0.181,0.328,0.271,0.6,0.271c0.173,0,0.313-0.04,0.428-0.12
		c0.113-0.08,0.197-0.197,0.25-0.353l-0.41-0.068L10.94,14.395z M9.722,13.741c0-0.121-0.006-0.217-0.021-0.281l-0.08-0.178
		l-0.172-0.128l-0.25-0.051c-0.206,0-0.377,0.09-0.513,0.271v-0.232H8.304v1.589h0.412V14.01c0-0.177,0.012-0.299,0.031-0.364
		l0.115-0.158l0.191-0.062l0.145,0.042l0.086,0.118c0.018,0.05,0.026,0.161,0.026,0.332v0.813H9.72v-0.989H9.722z M7.885,14.728
		v-1.589H7.473v1.589H7.885z M7.885,12.925v-0.389H7.473v0.389H7.885z M6.664,14.05c0,0.101-0.005,0.169-0.016,0.204l-0.098,0.141
		l-0.212,0.073l-0.164-0.063l-0.064-0.152l0.08-0.148c0.035-0.021,0.11-0.048,0.224-0.073c0.114-0.022,0.198-0.047,0.25-0.063V14.05
		z M6.212,13.469l0.171-0.045c0.109,0,0.183,0.019,0.222,0.054l0.058,0.172v0.043c-0.074,0.031-0.207,0.064-0.399,0.104
		c-0.143,0.025-0.252,0.062-0.328,0.1L5.76,14.056l-0.063,0.239c0,0.136,0.046,0.248,0.139,0.336
		c0.092,0.09,0.219,0.134,0.378,0.134l0.257-0.053l0.226-0.156l0.015,0.05l0.04,0.124h0.407l-0.074-0.213
		c-0.013-0.065-0.02-0.17-0.02-0.311l0.004-0.49c0-0.185-0.018-0.311-0.054-0.376l-0.19-0.169c-0.09-0.045-0.227-0.066-0.41-0.066
		c-0.202,0-0.355,0.037-0.458,0.11c-0.102,0.073-0.174,0.188-0.216,0.342l0.373,0.067L6.212,13.469z M5.032,14.237
		c0-0.271,0.011-0.445,0.034-0.53l0.094-0.178l0.146-0.049L5.5,13.548l0.128-0.365l-0.271-0.079l-0.177,0.052
		c-0.052,0.033-0.111,0.104-0.177,0.21v-0.226H4.619v1.589h0.412L5.032,14.237L5.032,14.237z"/>
</g>
</svg>
