<?xml version="1.0" encoding="utf-8"?>
<!-- Generator: Adobe Illustrator 16.0.0, SVG Export Plug-In . SVG Version: 6.00 Build 0)  -->
<!DOCTYPE svg PUBLIC "-//W3C//DTD SVG 1.1//EN" "http://www.w3.org/Graphics/SVG/1.1/DTD/svg11.dtd">
<svg version="1.1" id="Layer_1" xmlns="http://www.w3.org/2000/svg" xmlns:xlink="http://www.w3.org/1999/xlink" x="0px" y="0px"
	 width="16px" height="18.58px" viewBox="0 0 16 18.58" enable-background="new 0 0 16 18.58" xml:space="preserve">
<g>
	<path d="M4.208,16.075v0.765H3.762v-2.168h0.846c0.128,0,0.242,0.019,0.343,0.056c0.101,0.032,0.186,0.084,0.256,0.146
		c0.07,0.064,0.123,0.141,0.16,0.229c0.037,0.088,0.055,0.186,0.055,0.285c0,0.105-0.019,0.201-0.055,0.285
		c-0.037,0.084-0.09,0.156-0.16,0.217c-0.07,0.062-0.156,0.104-0.256,0.139c-0.101,0.031-0.215,0.048-0.343,0.048L4.208,16.075
		L4.208,16.075z M4.208,15.715h0.399c0.063,0,0.118-0.009,0.165-0.022c0.046-0.019,0.084-0.039,0.113-0.065
		c0.029-0.028,0.051-0.063,0.064-0.103c0.014-0.041,0.021-0.084,0.021-0.131s-0.007-0.093-0.021-0.136
		c-0.014-0.043-0.035-0.082-0.064-0.112c-0.029-0.033-0.067-0.063-0.113-0.08c-0.046-0.021-0.101-0.031-0.165-0.031H4.208V15.715z"
		/>
	<path d="M5.699,14.812c0-0.063,0.021-0.117,0.064-0.16c0.043-0.041,0.102-0.063,0.177-0.063c0.037,0,0.07,0.006,0.1,0.02
		c0.03,0.01,0.055,0.023,0.076,0.045c0.021,0.021,0.037,0.043,0.048,0.068c0.011,0.027,0.017,0.061,0.017,0.09
		c0,0.033-0.006,0.063-0.017,0.092c-0.011,0.025-0.027,0.053-0.048,0.068c-0.021,0.021-0.046,0.035-0.076,0.047
		c-0.03,0.012-0.063,0.02-0.1,0.02s-0.07-0.008-0.1-0.02c-0.03-0.012-0.055-0.025-0.076-0.047c-0.021-0.02-0.037-0.043-0.048-0.068
		C5.704,14.874,5.699,14.844,5.699,14.812z M6.156,16.84H5.724v-1.61h0.432V16.84z"/>
	<path d="M6.964,16.84H6.532v-2.287h0.432V16.84z"/>
	<path d="M8.253,16.84c-0.02-0.039-0.034-0.086-0.043-0.146c-0.043,0.05-0.099,0.091-0.165,0.125
		c-0.066,0.031-0.146,0.051-0.242,0.051c-0.077,0-0.149-0.014-0.217-0.036c-0.067-0.024-0.125-0.058-0.174-0.101
		c-0.049-0.043-0.087-0.096-0.115-0.152c-0.028-0.059-0.042-0.124-0.042-0.193c0-0.085,0.016-0.158,0.047-0.226
		c0.031-0.065,0.078-0.121,0.141-0.167c0.063-0.047,0.14-0.08,0.233-0.104C7.769,15.87,7.877,15.856,8,15.856h0.192v-0.094
		c0-0.074-0.02-0.135-0.058-0.18c-0.038-0.045-0.099-0.066-0.181-0.066c-0.072,0-0.129,0.021-0.17,0.053
		c-0.041,0.035-0.062,0.082-0.062,0.146h-0.43c0-0.067,0.016-0.136,0.048-0.196c0.032-0.063,0.078-0.117,0.138-0.164
		s0.132-0.082,0.216-0.108s0.179-0.041,0.283-0.041c0.093,0,0.18,0.013,0.259,0.035c0.08,0.022,0.148,0.06,0.206,0.104
		s0.103,0.104,0.135,0.179c0.031,0.071,0.048,0.151,0.048,0.248v0.685c0,0.046,0.002,0.087,0.005,0.123
		c0.003,0.034,0.008,0.065,0.012,0.099c0.006,0.028,0.012,0.057,0.021,0.078c0.008,0.021,0.018,0.047,0.027,0.064v0.024L8.253,16.84
		L8.253,16.84z M7.897,16.54c0.037,0,0.07-0.004,0.102-0.014c0.031-0.012,0.059-0.021,0.084-0.035s0.046-0.03,0.065-0.049
		c0.018-0.021,0.033-0.039,0.044-0.063v-0.273H8.015c-0.057,0-0.106,0.006-0.148,0.019c-0.042,0.015-0.076,0.03-0.103,0.053
		c-0.027,0.022-0.047,0.052-0.06,0.08c-0.013,0.029-0.02,0.063-0.02,0.101c0,0.055,0.019,0.099,0.057,0.133
		C7.779,16.524,7.832,16.54,7.897,16.54z"/>
	<path d="M9.471,14.832v0.396h0.274v0.316H9.471v0.805c0,0.033,0.004,0.063,0.012,0.082c0.006,0.021,0.016,0.039,0.031,0.053
		c0.014,0.014,0.028,0.021,0.051,0.023c0.02,0.004,0.043,0.006,0.072,0.006c0.024,0,0.049,0,0.069-0.002s0.039-0.004,0.058-0.008
		v0.326c-0.037,0.012-0.076,0.02-0.117,0.027c-0.043,0.006-0.09,0.012-0.146,0.012c-0.069,0-0.135-0.01-0.188-0.025
		c-0.058-0.017-0.105-0.045-0.146-0.084c-0.041-0.037-0.07-0.086-0.096-0.146c-0.021-0.062-0.031-0.135-0.031-0.219v-0.853H8.805
		v-0.315H9.04v-0.396L9.471,14.832L9.471,14.832z"/>
	<path d="M10.729,16.87c-0.125,0-0.236-0.021-0.336-0.063c-0.101-0.041-0.185-0.097-0.252-0.166
		c-0.068-0.068-0.121-0.152-0.158-0.246c-0.035-0.097-0.053-0.197-0.053-0.308V16.03c0-0.123,0.018-0.233,0.053-0.336
		c0.035-0.104,0.084-0.188,0.147-0.268c0.063-0.07,0.146-0.131,0.238-0.172c0.092-0.041,0.194-0.063,0.313-0.063
		c0.114,0,0.219,0.02,0.307,0.059c0.088,0.038,0.164,0.092,0.223,0.16c0.063,0.068,0.105,0.15,0.139,0.25
		c0.029,0.098,0.045,0.205,0.045,0.322v0.186H10.37c0.006,0.055,0.021,0.104,0.041,0.146s0.049,0.08,0.082,0.107
		c0.032,0.029,0.069,0.057,0.114,0.069c0.045,0.017,0.099,0.024,0.148,0.024c0.078,0,0.15-0.018,0.221-0.045
		c0.063-0.029,0.123-0.074,0.17-0.138l0.211,0.237c-0.024,0.037-0.059,0.072-0.096,0.105c-0.039,0.033-0.084,0.064-0.139,0.096
		c-0.055,0.023-0.111,0.049-0.18,0.063C10.878,16.86,10.809,16.87,10.729,16.87z M10.68,15.547c-0.048,0-0.089,0.009-0.123,0.024
		c-0.035,0.016-0.066,0.039-0.093,0.064c-0.022,0.029-0.045,0.064-0.063,0.105c-0.016,0.039-0.024,0.086-0.032,0.137h0.6v-0.035
		c-0.002-0.043-0.008-0.082-0.02-0.119c-0.013-0.033-0.029-0.066-0.054-0.096c-0.024-0.027-0.055-0.048-0.09-0.063
		C10.771,15.553,10.729,15.547,10.68,15.547z"/>
	<path d="M12.507,16.396c0-0.021-0.004-0.045-0.014-0.063c-0.011-0.021-0.025-0.037-0.054-0.055
		c-0.021-0.019-0.061-0.03-0.104-0.047s-0.098-0.027-0.166-0.043c-0.082-0.021-0.156-0.041-0.229-0.065
		c-0.07-0.026-0.131-0.062-0.183-0.103c-0.051-0.039-0.092-0.084-0.118-0.14c-0.029-0.053-0.043-0.112-0.043-0.185
		c0-0.065,0.014-0.131,0.043-0.19c0.028-0.062,0.069-0.112,0.127-0.159c0.055-0.048,0.123-0.084,0.203-0.109
		c0.077-0.023,0.17-0.039,0.27-0.039c0.105,0,0.199,0.014,0.281,0.037c0.084,0.024,0.153,0.063,0.213,0.106
		c0.057,0.046,0.102,0.104,0.133,0.166s0.047,0.134,0.047,0.207H12.49c0-0.062-0.02-0.11-0.059-0.149
		c-0.041-0.041-0.104-0.063-0.188-0.063c-0.072,0-0.13,0.019-0.168,0.049c-0.039,0.033-0.062,0.075-0.062,0.127
		c0,0.022,0.004,0.046,0.019,0.063c0.01,0.021,0.024,0.037,0.051,0.053c0.021,0.018,0.056,0.029,0.092,0.043
		c0.037,0.014,0.087,0.023,0.142,0.035c0.088,0.018,0.168,0.038,0.244,0.063c0.073,0.025,0.139,0.059,0.19,0.098
		c0.056,0.039,0.099,0.089,0.127,0.146c0.031,0.06,0.047,0.123,0.047,0.203c0,0.069-0.016,0.138-0.049,0.196
		c-0.03,0.063-0.076,0.109-0.135,0.154c-0.062,0.045-0.134,0.076-0.218,0.104c-0.082,0.023-0.176,0.038-0.276,0.038
		c-0.113,0-0.213-0.019-0.302-0.049c-0.088-0.031-0.157-0.073-0.219-0.125c-0.063-0.054-0.104-0.109-0.133-0.177
		c-0.029-0.063-0.045-0.129-0.045-0.192h0.406c0.002,0.042,0.014,0.076,0.027,0.106c0.016,0.029,0.037,0.056,0.063,0.072
		c0.027,0.02,0.06,0.032,0.095,0.041c0.034,0.01,0.069,0.016,0.108,0.016c0.084,0,0.146-0.018,0.188-0.047
		C12.486,16.485,12.507,16.444,12.507,16.396z"/>
</g>
<g>
	<path fill="#6D6E70" d="M0.146,11.996c-0.11-0.03-0.119-0.729,0-0.729c1.448,0.006,2.304,0,3.752,0c0.019,0,0.039,0,0.068,0
		c-0.017-0.012-0.023-0.02-0.032-0.022c-0.202-0.127-0.308-0.313-0.308-0.556c-0.001-0.1,0.004-0.194,0.039-0.291
		c0.091-0.239,0.333-0.403,0.586-0.403c0.699,0.005,1.4,0.005,2.101,0.005c0.019,0,0.038,0,0.06,0c0-0.671,0-1.332,0-2
		c-0.054-0.006-0.11-0.012-0.166-0.016C6,7.954,5.755,7.931,5.509,7.907c-0.236-0.029-0.47-0.049-0.705-0.076
		C4.571,7.808,4.338,7.784,4.105,7.759c-0.233-0.025-0.466-0.045-0.7-0.072C3.175,7.664,2.943,7.64,2.711,7.615
		C2.541,7.595,2.37,7.58,2.199,7.564c-0.171-0.02-0.343-0.033-0.514-0.061C1.47,7.468,1.271,7.384,1.11,7.232
		C1.064,7.189,1.023,7.136,0.994,7.083c-0.096-0.164-0.069-0.342,0.062-0.48c0.112-0.115,0.249-0.182,0.402-0.225
		c0.118-0.033,0.24-0.043,0.364-0.043c2.842,0,5.684,0,8.528,0c0.426,0,0.854,0,1.278,0c0.136,0,0.267,0.021,0.386,0.082
		c0.313,0.156,0.485,0.404,0.488,0.756c0.006,1.182,0.003,2.358,0.002,3.539c-0.001,0.217-0.1,0.383-0.271,0.51
		c-0.02,0.016-0.041,0.022-0.062,0.047c0.019,0.002,0.034,0.002,0.05,0.002c0.492,0,0.982,0,1.475,0c0.716,0,1.431,0,2.144,0
		c0.124,0,0.082,0.727,0.065,0.729 M11.167,8.255c-1.14-0.053-2.274-0.107-3.415-0.16c0,0.029,0,0.045,0,0.064
		c0,0.846,0,1.686,0,2.525c0,0.246-0.103,0.432-0.308,0.561c-0.008,0.009-0.018,0.018-0.029,0.021c1.368,0,2.726,0,4.092,0
		c-0.012-0.007-0.016-0.009-0.021-0.015c-0.217-0.133-0.32-0.321-0.319-0.578c0.003-0.782,0-1.566,0-2.348
		C11.167,8.302,11.167,8.284,11.167,8.255z"/>
	<path fill="#6D6E70" d="M13.654,6.384c0-0.008,0-0.016,0-0.016c-0.045-0.186-0.129-0.352-0.256-0.49
		c-0.114-0.125-0.254-0.189-0.424-0.199C12.717,5.661,12.46,5.648,12.2,5.63c-0.179-0.014-0.358-0.018-0.537-0.027
		c-0.129-0.01-0.261-0.023-0.386-0.066c-0.228-0.08-0.358-0.258-0.371-0.496c-0.004-0.072-0.002-0.146,0.011-0.229
		c0.013,0.018,0.019,0.027,0.022,0.035c0.051,0.092,0.101,0.178,0.17,0.25c0.08,0.082,0.179,0.123,0.289,0.137
		c0.098,0.016,0.19,0.008,0.291-0.006c0.229-0.031,0.457-0.064,0.686-0.098c0.169-0.021,0.338-0.043,0.508-0.033
		c0.357,0.018,0.648,0.162,0.863,0.449c0.175,0.234,0.296,0.49,0.341,0.779c0.005,0.033,0.011,0.063,0.013,0.094
		c0.604,0.168,0.991,0.777,0.836,1.416c-0.14,0.561-0.65,0.939-1.232,0.9c-0.59-0.045-1.064-0.516-1.104-1.092
		C12.553,6.999,13.033,6.456,13.654,6.384z"/>
</g>
</svg>
