<?xml version="1.0" encoding="utf-8"?>
<!-- Generator: Adobe Illustrator 16.0.0, SVG Export Plug-In . SVG Version: 6.00 Build 0)  -->
<!DOCTYPE svg PUBLIC "-//W3C//DTD SVG 1.1//EN" "http://www.w3.org/Graphics/SVG/1.1/DTD/svg11.dtd">
<svg version="1.1" id="Layer_1" xmlns="http://www.w3.org/2000/svg" xmlns:xlink="http://www.w3.org/1999/xlink" x="0px" y="0px"
	 width="16px" height="18.58px" viewBox="0 0 16 18.58" enable-background="new 0 0 16 18.58" xml:space="preserve">
<g>
	<path fill="#6D6E70" stroke="#FFFFFF" stroke-width="0.2" stroke-miterlimit="10" d="M14.291,10.962
		c-0.035,0.057-0.074,0.113-0.104,0.178c-0.143,0.303-0.41,0.412-0.721,0.478c-0.275,0.053-0.546,0.133-0.818,0.188
		c-0.278,0.053-0.557,0.123-0.836,0.139c-0.422,0.023-0.766-0.291-0.85-0.704c-0.089-0.429-0.193-0.851-0.291-1.275
		c-0.131-0.562-0.258-1.128-0.393-1.687c-0.088-0.37-0.178-0.733-0.266-1.096C9.872,6.581,9.734,5.979,9.596,5.375
		C9.581,5.32,9.573,5.256,9.559,5.173C9.396,5.25,9.242,5.309,9.102,5.392c-0.354,0.21-0.555,0.204-0.891-0.048
		c-0.262-0.19-0.526-0.376-0.826-0.593c-0.182,0.586-0.35,1.134-0.521,1.683c0.323,0.232,0.635,0.456,0.94,0.69
		c0.256,0.199,0.55,0.347,0.75,0.611c0.125,0.158,0.187,0.326,0.15,0.53C8.637,8.7,8.579,9.14,8.512,9.57
		c-0.042,0.294-0.101,0.587-0.149,0.878c-0.039,0.244-0.069,0.486-0.109,0.729c-0.057,0.354-0.457,0.604-0.808,0.496
		c-0.374-0.11-0.556-0.411-0.498-0.805c0.06-0.388,0.109-0.771,0.158-1.154c0.043-0.314,0.073-0.634,0.118-0.951
		C7.235,8.684,7.216,8.641,7.149,8.6C6.7,8.32,6.255,8.036,5.804,7.763c-0.243-0.147-0.489-0.29-0.743-0.416
		c-0.512-0.264-0.85-0.936-0.708-1.474c0.074-0.285,0.189-0.556,0.29-0.834c0.118-0.325,0.231-0.655,0.362-0.977
		C5.146,3.718,5.21,3.35,5.443,3.043C5.766,2.62,6.45,2.431,6.911,2.707C7.102,2.82,7.275,2.968,7.447,3.113
		C7.651,3.286,7.846,3.47,8.045,3.651c0.211,0.19,0.428,0.379,0.639,0.571C8.74,4.273,8.795,4.275,8.857,4.234
		C8.904,4.198,8.963,4.172,9.02,4.15c0.196-0.076,0.359-0.167,0.435-0.405c0.069-0.227,0.286-0.354,0.508-0.41
		c0.565-0.142,1.131-0.282,1.7-0.391c0.484-0.09,0.869,0.179,0.992,0.663c0.093,0.372,0.171,0.749,0.257,1.12
		c0.084,0.352,0.178,0.706,0.26,1.053c0.104,0.458,0.205,0.919,0.312,1.375c0.096,0.411,0.201,0.821,0.297,1.23
		c0.127,0.552,0.255,1.104,0.385,1.653c0.038,0.16,0.082,0.317,0.126,0.479C14.291,10.667,14.291,10.817,14.291,10.962z"/>
	<path fill="#6D6E70" stroke="#FFFFFF" stroke-width="0.2" stroke-miterlimit="10" d="M2.319,10.573
		c0.151-0.396,0.537-0.537,0.85-0.76c0.203-0.143,0.409-0.275,0.616-0.41C3.85,9.361,3.913,9.312,3.983,9.285
		c0.112-0.042,0.144-0.125,0.159-0.23C4.203,8.667,4.261,8.282,4.32,7.894c0.012-0.09,0.016-0.174,0.029-0.26
		C4.358,7.544,4.4,7.536,4.471,7.583C4.692,7.715,4.91,7.85,5.132,7.987c0.197,0.116,0.396,0.229,0.596,0.345
		c0.096,0.054,0.107,0.117,0.079,0.224c-0.094,0.348-0.176,0.706-0.26,1.056c-0.025,0.105-0.042,0.21-0.088,0.313
		c-0.039,0.076-0.097,0.166-0.17,0.213c-0.436,0.285-0.876,0.557-1.317,0.828c-0.193,0.121-0.401,0.223-0.587,0.355
		c-0.332,0.246-0.871,0.072-1.013-0.342c-0.013-0.031-0.034-0.066-0.052-0.099C2.319,10.782,2.319,10.677,2.319,10.573z"/>
	<path fill="#6D6E70" d="M7.734,0.008c0.117,0.049,0.238,0.095,0.349,0.156c0.374,0.209,0.581,0.544,0.603,0.957
		C8.717,1.717,8.341,2.218,7.78,2.358c-0.718,0.18-1.394-0.373-1.44-1.06C6.299,0.676,6.649,0.2,7.25,0.031
		c0.015-0.002,0.024-0.017,0.041-0.023C7.438,0.008,7.587,0.008,7.734,0.008z"/>
</g>
<g>
	<path d="M4.432,16.092c-0.008,0.111-0.033,0.214-0.074,0.306c-0.042,0.094-0.1,0.172-0.173,0.237
		c-0.074,0.063-0.163,0.117-0.268,0.154s-0.224,0.058-0.358,0.058c-0.139,0-0.264-0.023-0.375-0.072s-0.205-0.117-0.282-0.209
		c-0.077-0.09-0.136-0.198-0.177-0.328c-0.041-0.129-0.062-0.272-0.062-0.434V15.66c0-0.16,0.021-0.306,0.064-0.435
		c0.042-0.129,0.103-0.24,0.181-0.33c0.078-0.09,0.173-0.16,0.284-0.209c0.111-0.049,0.235-0.072,0.372-0.072
		c0.135,0,0.255,0.021,0.358,0.06c0.104,0.037,0.192,0.093,0.265,0.158c0.072,0.067,0.129,0.147,0.17,0.244
		c0.041,0.094,0.066,0.194,0.077,0.305H3.988c-0.005-0.063-0.016-0.12-0.034-0.17c-0.017-0.051-0.042-0.092-0.075-0.125
		c-0.033-0.035-0.075-0.062-0.126-0.078c-0.051-0.017-0.115-0.024-0.188-0.024c-0.151,0-0.263,0.058-0.337,0.164
		c-0.074,0.11-0.111,0.28-0.111,0.513v0.146c0,0.11,0.008,0.211,0.024,0.295c0.017,0.084,0.042,0.153,0.078,0.211
		C3.255,16.37,3.3,16.41,3.356,16.438c0.056,0.026,0.124,0.043,0.203,0.043c0.071,0,0.131-0.008,0.183-0.024
		c0.051-0.017,0.094-0.039,0.128-0.069c0.034-0.033,0.061-0.072,0.08-0.121c0.019-0.052,0.031-0.104,0.036-0.17h0.446V16.092z"/>
	<path d="M5.603,15.606c-0.022-0.002-0.047-0.006-0.077-0.008c-0.029-0.002-0.056-0.005-0.079-0.005
		c-0.084,0-0.152,0.015-0.205,0.044c-0.053,0.026-0.091,0.067-0.116,0.121v1.057h-0.43v-1.612h0.407l0.012,0.192
		c0.041-0.069,0.091-0.125,0.15-0.164s0.131-0.06,0.21-0.06c0.023,0,0.047,0.002,0.072,0.006c0.025,0.005,0.046,0.011,0.062,0.015
		L5.603,15.606z"/>
	<path d="M5.743,15.994c0-0.117,0.017-0.226,0.051-0.326s0.083-0.187,0.147-0.26c0.064-0.072,0.145-0.13,0.239-0.173
		c0.094-0.041,0.203-0.063,0.325-0.063s0.23,0.021,0.326,0.063c0.095,0.043,0.175,0.101,0.24,0.173
		c0.065,0.073,0.115,0.159,0.148,0.26c0.034,0.103,0.051,0.209,0.051,0.326v0.03c0,0.119-0.017,0.229-0.051,0.328
		c-0.034,0.101-0.083,0.187-0.148,0.26c-0.065,0.072-0.145,0.13-0.239,0.171c-0.095,0.041-0.203,0.063-0.325,0.063
		c-0.123,0-0.231-0.021-0.326-0.063c-0.095-0.042-0.175-0.099-0.24-0.171c-0.065-0.073-0.115-0.159-0.148-0.26
		c-0.034-0.103-0.051-0.209-0.051-0.328L5.743,15.994L5.743,15.994z M6.173,16.024c0,0.065,0.006,0.129,0.018,0.187
		c0.012,0.06,0.031,0.106,0.057,0.149c0.026,0.041,0.061,0.076,0.103,0.101s0.094,0.037,0.156,0.037c0.06,0,0.11-0.013,0.152-0.037
		c0.042-0.022,0.077-0.06,0.104-0.101c0.027-0.043,0.046-0.092,0.058-0.149c0.012-0.058,0.018-0.119,0.018-0.187v-0.03
		c0-0.063-0.006-0.123-0.018-0.181c-0.012-0.06-0.031-0.106-0.058-0.149c-0.027-0.043-0.062-0.078-0.104-0.104
		c-0.043-0.023-0.094-0.037-0.154-0.037s-0.111,0.014-0.153,0.037c-0.042,0.025-0.077,0.063-0.103,0.104s-0.045,0.094-0.057,0.149
		c-0.012,0.058-0.018,0.117-0.018,0.181L6.173,16.024L6.173,16.024z"/>
	<path d="M8.408,16.371c0-0.022-0.005-0.045-0.014-0.063c-0.009-0.021-0.026-0.037-0.051-0.055
		c-0.024-0.018-0.059-0.029-0.101-0.047c-0.043-0.016-0.098-0.027-0.166-0.043c-0.083-0.02-0.159-0.041-0.229-0.064
		c-0.07-0.026-0.131-0.063-0.182-0.104c-0.051-0.039-0.091-0.084-0.12-0.139c-0.029-0.054-0.043-0.113-0.043-0.186
		c0-0.064,0.015-0.131,0.044-0.189c0.029-0.063,0.071-0.113,0.126-0.16c0.055-0.047,0.123-0.084,0.203-0.109
		c0.08-0.023,0.17-0.039,0.271-0.039c0.104,0,0.198,0.014,0.281,0.037c0.083,0.025,0.154,0.063,0.212,0.107
		c0.061,0.045,0.104,0.104,0.135,0.166c0.031,0.063,0.047,0.133,0.047,0.207H8.392c0-0.063-0.02-0.111-0.06-0.15
		c-0.04-0.041-0.102-0.063-0.186-0.063c-0.073,0-0.129,0.018-0.168,0.049c-0.04,0.033-0.06,0.076-0.06,0.127
		c0,0.021,0.005,0.045,0.016,0.063c0.01,0.021,0.027,0.037,0.051,0.053c0.023,0.02,0.054,0.029,0.092,0.043
		c0.038,0.016,0.085,0.023,0.141,0.035c0.087,0.02,0.168,0.038,0.243,0.063c0.074,0.024,0.139,0.057,0.193,0.096
		c0.054,0.039,0.096,0.089,0.127,0.146c0.031,0.06,0.045,0.123,0.045,0.203c0,0.069-0.016,0.139-0.047,0.196
		c-0.032,0.062-0.078,0.111-0.139,0.154c-0.06,0.045-0.129,0.078-0.215,0.104c-0.083,0.022-0.177,0.037-0.28,0.037
		c-0.113,0-0.213-0.019-0.3-0.05c-0.086-0.03-0.159-0.071-0.218-0.125c-0.059-0.053-0.104-0.108-0.133-0.176
		c-0.029-0.063-0.044-0.129-0.044-0.193H7.86c0.002,0.044,0.011,0.076,0.027,0.107c0.017,0.028,0.038,0.055,0.065,0.071
		c0.027,0.021,0.058,0.033,0.093,0.041c0.035,0.011,0.072,0.017,0.111,0.017c0.083,0,0.145-0.019,0.187-0.047
		C8.387,16.461,8.408,16.42,8.408,16.371z"/>
	<path d="M9.977,16.371c0-0.022-0.004-0.045-0.014-0.063c-0.01-0.021-0.025-0.037-0.051-0.055c-0.023-0.018-0.059-0.029-0.102-0.047
		c-0.045-0.016-0.101-0.027-0.166-0.043c-0.082-0.02-0.158-0.041-0.229-0.064c-0.069-0.026-0.132-0.063-0.183-0.104
		c-0.053-0.039-0.092-0.084-0.121-0.139c-0.027-0.054-0.043-0.113-0.043-0.186c0-0.064,0.017-0.131,0.045-0.189
		c0.029-0.063,0.07-0.113,0.125-0.16c0.057-0.047,0.123-0.084,0.203-0.109c0.08-0.023,0.17-0.039,0.271-0.039
		c0.104,0,0.197,0.014,0.281,0.037c0.082,0.025,0.153,0.063,0.212,0.107c0.059,0.043,0.104,0.104,0.134,0.166
		c0.031,0.062,0.048,0.133,0.048,0.207H9.961c0-0.063-0.02-0.111-0.061-0.15c-0.039-0.041-0.104-0.063-0.188-0.063
		c-0.071,0-0.129,0.018-0.168,0.049c-0.04,0.033-0.063,0.076-0.063,0.127c0,0.021,0.006,0.045,0.02,0.063
		c0.012,0.021,0.023,0.037,0.051,0.053c0.021,0.02,0.057,0.029,0.096,0.043c0.035,0.016,0.084,0.023,0.141,0.035
		c0.087,0.02,0.168,0.038,0.242,0.063c0.076,0.024,0.14,0.057,0.191,0.096c0.057,0.039,0.098,0.089,0.127,0.146
		c0.03,0.06,0.049,0.123,0.049,0.203c0,0.069-0.02,0.139-0.051,0.196c-0.029,0.062-0.074,0.111-0.137,0.154
		c-0.063,0.045-0.13,0.078-0.214,0.104c-0.083,0.022-0.181,0.037-0.28,0.037c-0.109,0-0.213-0.019-0.3-0.05
		c-0.086-0.03-0.159-0.071-0.222-0.125c-0.059-0.053-0.104-0.108-0.133-0.176c-0.027-0.063-0.043-0.129-0.043-0.193h0.407
		c0.003,0.044,0.011,0.076,0.027,0.107c0.017,0.028,0.038,0.055,0.065,0.071c0.023,0.021,0.057,0.033,0.092,0.041
		c0.035,0.011,0.072,0.017,0.108,0.017c0.084,0,0.146-0.019,0.188-0.047C9.956,16.461,9.977,16.42,9.977,16.371z"/>
	<path d="M10.777,16.815v-1.295h-0.239v-0.316h0.239V15.14c0-0.104,0.017-0.195,0.047-0.273c0.033-0.08,0.078-0.146,0.141-0.199
		c0.063-0.057,0.135-0.098,0.223-0.123s0.188-0.041,0.299-0.041c0.084,0,0.166,0.008,0.244,0.021
		c0.078,0.018,0.16,0.037,0.244,0.063L11.91,14.94c-0.026-0.008-0.055-0.019-0.084-0.022c-0.026-0.006-0.059-0.017-0.09-0.021
		c-0.033-0.008-0.066-0.016-0.104-0.02s-0.077-0.006-0.12-0.006c-0.103,0-0.176,0.021-0.228,0.064
		c-0.052,0.045-0.074,0.109-0.074,0.199V15.2h0.315v0.314H11.21v1.297L10.777,16.815L10.777,16.815z M12.173,16.815H11.74v-1.612
		h0.433V16.815z"/>
	<path d="M13.044,14.808v0.396h0.276v0.316h-0.276v0.805c0,0.033,0.003,0.063,0.011,0.083c0.008,0.02,0.02,0.039,0.031,0.052
		c0.014,0.014,0.031,0.021,0.051,0.025c0.021,0.004,0.045,0.006,0.072,0.006c0.025,0,0.049-0.001,0.07-0.004
		c0.021-0.002,0.041-0.004,0.057-0.006v0.326c-0.036,0.01-0.074,0.02-0.117,0.025c-0.042,0.006-0.09,0.014-0.145,0.014
		c-0.069,0-0.133-0.012-0.189-0.027c-0.057-0.017-0.105-0.045-0.146-0.082c-0.037-0.037-0.067-0.088-0.092-0.146
		c-0.021-0.063-0.033-0.135-0.033-0.219v-0.852H12.38v-0.316h0.233v-0.396H13.044z"/>
</g>
</svg>
