<?xml version="1.0" encoding="utf-8"?>
<!-- Generator: Adobe Illustrator 16.0.0, SVG Export Plug-In . SVG Version: 6.00 Build 0)  -->
<!DOCTYPE svg PUBLIC "-//W3C//DTD SVG 1.1//EN" "http://www.w3.org/Graphics/SVG/1.1/DTD/svg11.dtd">
<svg version="1.1" id="Layer_1" xmlns="http://www.w3.org/2000/svg" xmlns:xlink="http://www.w3.org/1999/xlink" x="0px" y="0px"
	 width="16px" height="16px" viewBox="0 0 16 16" enable-background="new 0 0 16 16" xml:space="preserve">
<path fill-rule="evenodd" clip-rule="evenodd" d="M11.254,4.548c0.046,0,0.086,0,0.125,0c0.663,0,1.326-0.003,1.989,0
	c0.76,0.004,1.402,0.517,1.568,1.251c0.026,0.12,0.037,0.246,0.037,0.368c0.002,2.17,0.002,4.339,0.001,6.509
	c-0.001,0.894-0.716,1.608-1.609,1.608c-3.563,0.001-7.125,0.001-10.687,0c-0.894,0-1.611-0.711-1.612-1.605
	c-0.003-2.169-0.003-4.339,0-6.508c0.001-0.917,0.71-1.621,1.626-1.624c0.653-0.001,1.306,0,1.958,0c0.04,0,0.079,0,0.121,0
	c0.015-0.095,0.022-0.181,0.042-0.265c0.132-0.56,0.631-0.964,1.208-0.965c1.333-0.004,2.665-0.004,3.997,0
	c0.624,0.002,1.152,0.492,1.22,1.115C11.242,4.468,11.248,4.504,11.254,4.548z M8.01,13.489c1.547,0,3.094,0,4.641,0
	c0.254,0,0.509,0.004,0.763-0.002c0.331-0.009,0.628-0.226,0.723-0.542c0.039-0.129,0.055-0.27,0.055-0.405
	c0.003-2.119,0.002-4.239,0.002-6.358c-0.001-0.066-0.003-0.135-0.017-0.199c-0.082-0.384-0.4-0.637-0.803-0.638
	c-0.83-0.001-1.661,0-2.491-0.001c-0.26,0-0.428-0.167-0.43-0.426c-0.001-0.107,0-0.214,0-0.321
	c-0.001-0.322-0.177-0.499-0.496-0.499c-0.593,0-1.186,0-1.778,0c-0.703,0-1.406-0.001-2.109,0c-0.279,0-0.459,0.18-0.465,0.457
	c-0.002,0.111,0,0.221-0.001,0.332c-0.001,0.298-0.161,0.458-0.46,0.458c-0.813,0-1.627,0-2.441,0c-0.503,0-0.843,0.341-0.843,0.846
	c0,2.152,0,4.305,0.001,6.458c0,0.077,0.006,0.155,0.023,0.229c0.088,0.372,0.406,0.611,0.813,0.611
	C4.468,13.489,6.239,13.489,8.01,13.489z"/>
<path fill-rule="evenodd" clip-rule="evenodd" d="M8.024,6.137c1.814,0.002,3.278,1.475,3.273,3.293
	C11.294,11.245,9.824,12.701,8,12.697c-1.801-0.004-3.26-1.476-3.259-3.287C4.744,7.6,6.213,6.134,8.024,6.137z M8.016,6.958
	C6.647,6.961,5.547,8.066,5.549,9.436c0.001,1.37,1.103,2.466,2.477,2.465c1.359-0.002,2.468-1.102,2.466-2.443
	C10.489,8.057,9.398,6.956,8.016,6.958z"/>
<path fill-rule="evenodd" clip-rule="evenodd" d="M13.386,6.815c0.002,0.381-0.305,0.694-0.684,0.697
	c-0.383,0.003-0.7-0.308-0.701-0.691c-0.002-0.381,0.306-0.692,0.686-0.695C13.075,6.124,13.385,6.428,13.386,6.815z"/>
</svg>
