<?xml version="1.0" encoding="utf-8"?>
<!-- Generator: Adobe Illustrator 16.0.0, SVG Export Plug-In . SVG Version: 6.00 Build 0)  -->
<!DOCTYPE svg PUBLIC "-//W3C//DTD SVG 1.1//EN" "http://www.w3.org/Graphics/SVG/1.1/DTD/svg11.dtd">
<svg version="1.1" id="Layer_1" xmlns="http://www.w3.org/2000/svg" xmlns:xlink="http://www.w3.org/1999/xlink" x="0px" y="0px"
	 width="16px" height="16px" viewBox="0 0 16 16" enable-background="new 0 0 16 16" xml:space="preserve">
<g>
	<path fill-rule="evenodd" clip-rule="evenodd" d="M11.474,4.145c0.084,0,0.166,0,0.249,0c0.108,0.11,0.219,0.221,0.329,0.331
		c0,0.082,0,0.165,0,0.247c-0.025,0.055-0.057,0.108-0.077,0.164c-0.951,2.633-1.904,5.265-2.849,7.901
		c-0.114,0.32-0.281,0.559-0.623,0.645c-0.083,0-0.166,0-0.248,0c-0.276-0.092-0.446-0.285-0.573-0.545
		c-0.45-0.925-0.91-1.843-1.375-2.758c-0.048-0.096-0.141-0.189-0.235-0.237C5.161,9.429,4.25,8.97,3.332,8.522
		C3.065,8.395,2.86,8.229,2.766,7.942c0-0.097,0-0.193,0-0.288c0.113-0.327,0.359-0.48,0.676-0.593
		c1.995-0.71,3.984-1.434,5.974-2.155C10.104,4.655,10.788,4.398,11.474,4.145z M10.839,5.358c-2.307,0.833-4.56,1.647-6.84,2.471
		c0.093,0.049,0.152,0.083,0.213,0.114C5.033,8.355,5.858,8.76,6.675,9.185c0.135,0.069,0.267,0.2,0.336,0.334
		c0.424,0.816,0.829,1.643,1.241,2.465c0.032,0.063,0.064,0.124,0.115,0.221C9.194,9.913,10.008,7.66,10.839,5.358z"/>
	<path fill-rule="evenodd" clip-rule="evenodd" d="M15.284,7.466c0,0.361,0,0.721,0,1.082c-0.004,0.014-0.009,0.026-0.011,0.039
		c-0.03,0.396-0.093,0.787-0.19,1.173c-0.342,1.351-1.013,2.513-2.02,3.474c-1.188,1.135-2.603,1.797-4.235,1.987
		c-0.092,0.011-0.183,0.022-0.274,0.033c-0.365,0-0.729,0-1.094,0c-0.013-0.004-0.027-0.01-0.04-0.011
		c-0.64-0.05-1.261-0.182-1.865-0.396c-0.798-0.284-1.524-0.693-2.178-1.229c-0.574-0.47-1.068-1.014-1.473-1.636
		c-0.942-1.449-1.321-3.038-1.146-4.754c0.118-1.159,0.505-2.227,1.147-3.196c0.819-1.239,1.916-2.146,3.283-2.725
		c0.8-0.339,1.638-0.519,2.505-0.554C8.27,0.729,8.842,0.77,9.408,0.88c0.893,0.173,1.724,0.502,2.491,0.986
		c0.86,0.542,1.578,1.231,2.148,2.073c0.646,0.954,1.045,2.001,1.19,3.143C15.255,7.21,15.269,7.338,15.284,7.466z M14.486,8.009
		c0-3.564-2.892-6.453-6.476-6.455C4.419,1.552,1.526,4.44,1.526,8.008c0,3.56,2.88,6.429,6.437,6.45
		C11.601,14.481,14.487,11.549,14.486,8.009z"/>
</g>
</svg>
