<svg width="17" height="15" viewBox="0 0 17 15" fill="none" xmlns="http://www.w3.org/2000/svg">
<g clip-path="url(#clip0_230_610)">
<path d="M3.16409 6.65078C4.02448 6.65078 4.724 5.91444 4.724 5.00876C4.724 4.10309 4.02448 3.36675 3.16409 3.36675C2.3037 3.36675 1.60418 4.10309 1.60418 5.00876C1.60418 5.91444 2.3037 6.65078 3.16409 6.65078ZM14.0835 6.65078C14.9439 6.65078 15.6434 5.91444 15.6434 5.00876C15.6434 4.10309 14.9439 3.36675 14.0835 3.36675C13.2231 3.36675 12.5236 4.10309 12.5236 5.00876C12.5236 5.91444 13.2231 6.65078 14.0835 6.65078ZM14.8634 7.47178H13.3035C12.8746 7.47178 12.487 7.65395 12.2043 7.949C13.1865 8.516 13.8836 9.5397 14.0347 10.7558H15.6434C16.0748 10.7558 16.4234 10.3889 16.4234 9.93481V9.1138C16.4234 8.20813 15.7238 7.47178 14.8634 7.47178ZM8.62379 7.47178C10.1325 7.47178 11.3536 6.18639 11.3536 4.59826C11.3536 3.01012 10.1325 1.72473 8.62379 1.72473C7.11506 1.72473 5.89394 3.01012 5.89394 4.59826C5.89394 6.18639 7.11506 7.47178 8.62379 7.47178ZM10.4957 8.29279H10.2934C9.78641 8.54936 9.22338 8.7033 8.62379 8.7033C8.0242 8.7033 7.4636 8.54936 6.95419 8.29279H6.75189C5.20173 8.29279 3.94405 9.61667 3.94405 11.2484V11.9873C3.94405 12.6672 4.46808 13.2188 5.11398 13.2188H12.1336C12.7795 13.2188 13.3035 12.6672 13.3035 11.9873V11.2484C13.3035 9.61667 12.0459 8.29279 10.4957 8.29279ZM5.0433 7.949C4.76057 7.65395 4.37302 7.47178 3.94405 7.47178H2.38413C1.52374 7.47178 0.824219 8.20813 0.824219 9.1138V9.93481C0.824219 10.3889 1.17276 10.7558 1.60418 10.7558H3.2104C3.36395 9.5397 4.06104 8.516 5.0433 7.949Z" fill="#343A40"/>
</g>
<defs>
<clipPath id="clip0_230_610">
<rect width="15.5991" height="13.1361" fill="white" transform="translate(0.824219 0.903687)"/>
</clipPath>
</defs>
</svg>
