<?xml version="1.0" encoding="utf-8"?>
<!-- Generator: Adobe Illustrator 16.0.0, SVG Export Plug-In . SVG Version: 6.00 Build 0)  -->
<!DOCTYPE svg PUBLIC "-//W3C//DTD SVG 1.1//EN" "http://www.w3.org/Graphics/SVG/1.1/DTD/svg11.dtd">
<svg version="1.1" id="Layer_1" xmlns="http://www.w3.org/2000/svg" xmlns:xlink="http://www.w3.org/1999/xlink" x="0px" y="0px"
	 width="157px" height="146.5px" viewBox="0 32.5 157 146.5" enable-background="new 0 32.5 157 146.5" xml:space="preserve">
<g>
	<path d="M83.381,111.978c-1.016-0.274-1.631,0.099-2.261,0.731c-5.411,5.438-10.854,10.845-16.287,16.26
		c-0.943,0.941-0.952,2.036-0.024,2.959c4.13,4.114,8.282,8.203,12.383,12.347c2.054,2.073,2.724,4.602,1.911,7.419
		c-0.809,2.82-2.73,4.592-5.588,5.218c-2.593,0.569-4.93-0.079-6.833-1.954c-5.899-5.805-11.769-11.635-17.653-17.453
		c-0.559-0.554-1.147-1.075-1.688-1.642c-3.032-3.185-2.98-7.69,0.128-10.795c5.343-5.336,10.687-10.669,16.047-15.989
		c0.439-0.436,0.635-0.867,0.634-1.497c-0.02-8.035-0.018-16.07,0.001-24.106c0.001-0.624-0.178-1.059-0.619-1.499
		c-6.044-6.002-12.078-12.016-18.101-18.038c-3.564-3.567-7.11-7.154-10.656-10.741c-2.444-2.472-2.53-6.397-0.212-8.938
		c2.243-2.459,6.226-2.713,8.868-0.559c0.398,0.325,0.765,0.685,1.128,1.047c7.938,7.951,15.875,15.899,23.797,23.867
		c0.466,0.469,0.924,0.652,1.583,0.651c7.552-0.023,15.103-0.023,22.653,0.003c0.666,0.001,1.113-0.21,1.574-0.669
		c8.046-8.057,16.106-16.102,24.171-24.14c2.554-2.545,6.004-2.952,8.72-1.058c3.128,2.182,3.643,6.886,0.921,9.627
		c-7.83,7.887-15.72,15.717-23.585,23.571c-1.858,1.858-3.737,3.697-5.556,5.594c-0.281,0.295-0.409,0.85-0.412,1.286
		c-0.023,9.938-0.017,19.874-0.017,29.812c0,17.973,0.003,35.946-0.006,53.918c-0.001,3.878-2.721,6.916-6.64,7.479
		c-3.528,0.504-7.054-1.787-8.059-5.302c-0.22-0.771-0.306-1.603-0.31-2.406c-0.016-17.973-0.012-35.945-0.012-53.917
		C83.381,112.704,83.381,112.345,83.381,111.978z"/>
	<path d="M66.313,52.187c0-8.265,6.748-14.997,14.986-14.951c8.291,0.047,14.965,6.741,14.961,15.001
		c-0.005,8.27-6.728,14.947-15.012,14.916C72.914,67.119,66.313,60.505,66.313,52.187z"/>
</g>
</svg>
