<?xml version="1.0" encoding="utf-8"?>
<!-- Generator: Adobe Illustrator 16.0.0, SVG Export Plug-In . SVG Version: 6.00 Build 0)  -->
<!DOCTYPE svg PUBLIC "-//W3C//DTD SVG 1.1//EN" "http://www.w3.org/Graphics/SVG/1.1/DTD/svg11.dtd">
<svg version="1.1" id="Layer_1" xmlns="http://www.w3.org/2000/svg" xmlns:xlink="http://www.w3.org/1999/xlink" x="0px" y="0px"
	 width="157px" height="179px" viewBox="0 0 157 179" enable-background="new 0 0 157 179" xml:space="preserve">
<rect x="1" y="1" fill="#FFFFFF" stroke="#000000" stroke-width="2" stroke-miterlimit="10" width="155" height="177"/>
<rect x="1" y="1" width="155" height="56"/>
<g>
	<path d="M85.631,123.6c-0.713-0.192-1.145,0.069-1.587,0.514c-3.798,3.816-7.618,7.611-11.431,11.412
		c-0.662,0.66-0.668,1.429-0.017,2.076c2.899,2.888,5.813,5.758,8.691,8.666c1.441,1.455,1.911,3.229,1.342,5.207
		c-0.568,1.979-1.917,3.223-3.923,3.662c-1.82,0.399-3.46-0.056-4.796-1.371c-4.14-4.074-8.26-8.166-12.39-12.25
		c-0.392-0.389-0.805-0.755-1.185-1.152c-2.128-2.235-2.092-5.397,0.09-7.576c3.75-3.745,7.501-7.488,11.263-11.223
		c0.308-0.306,0.446-0.608,0.445-1.051c-0.014-5.64-0.013-11.279,0.001-16.919c0.001-0.438-0.125-0.743-0.435-1.052
		c-4.242-4.213-8.477-8.434-12.704-12.66c-2.502-2.504-4.99-5.021-7.479-7.539c-1.715-1.735-1.776-4.49-0.149-6.273
		c1.574-1.726,4.37-1.904,6.224-0.392c0.279,0.229,0.537,0.48,0.792,0.735c5.571,5.58,11.142,11.159,16.702,16.751
		c0.327,0.329,0.649,0.458,1.111,0.457c5.3-0.017,10.6-0.017,15.9,0.002c0.467,0.001,0.781-0.147,1.104-0.47
		c5.647-5.655,11.305-11.301,16.965-16.943c1.792-1.786,4.214-2.072,6.12-0.742c2.195,1.531,2.557,4.833,0.646,6.757
		c-5.496,5.536-11.033,11.031-16.554,16.543c-1.305,1.304-2.623,2.595-3.899,3.926c-0.197,0.207-0.287,0.597-0.289,0.902
		c-0.017,6.976-0.012,13.949-0.012,20.924c0,12.614,0.002,25.229-0.004,37.843c-0.001,2.722-1.91,4.854-4.66,5.249
		c-2.477,0.354-4.951-1.254-5.656-3.721c-0.154-0.541-0.215-1.125-0.217-1.689c-0.012-12.614-0.009-25.229-0.009-37.842
		C85.631,124.109,85.631,123.857,85.631,123.6z"/>
	<path d="M73.651,81.635c0-5.801,4.736-10.526,10.518-10.494c5.819,0.033,10.504,4.731,10.501,10.529
		c-0.004,5.804-4.722,10.491-10.536,10.469C78.284,92.115,73.651,87.473,73.651,81.635z"/>
</g>
<g>
	<path fill="#FFFFFF" d="M145.413,21.51c-1.267,0-2.284,0.382-3.054,1.145c-0.77,0.763-1.154,1.742-1.154,2.937
		c0,0.701,0.162,1.327,0.487,1.875c0.324,0.549,0.736,0.971,1.236,1.267s1.26,0.625,2.279,0.989c0.793,0.286,1.299,0.557,1.52,0.813
		c0.221,0.257,0.332,0.547,0.332,0.872c0,0.429-0.158,0.774-0.473,1.037c-0.315,0.263-0.726,0.395-1.232,0.395
		c-1.11,0-1.821-0.668-2.133-2.006l-2.553,0.73c0.669,2.435,2.208,3.653,4.617,3.653c1.436,0,2.58-0.398,3.434-1.193
		c0.854-0.795,1.281-1.813,1.281-3.054c0-0.708-0.151-1.33-0.453-1.865s-0.698-0.959-1.188-1.271
		c-0.49-0.312-1.164-0.626-2.021-0.945c-0.941-0.363-1.56-0.657-1.855-0.881c-0.295-0.224-0.443-0.524-0.443-0.901
		c0-0.325,0.125-0.609,0.375-0.853s0.59-0.365,1.019-0.365c0.915,0,1.545,0.549,1.89,1.646l2.416-0.925
		C149.166,22.543,147.725,21.51,145.413,21.51z M134.824,23.868c0.436,0,0.765,0.05,0.989,0.151c0.224,0.101,0.42,0.292,0.589,0.575
		c0.169,0.283,0.253,0.645,0.253,1.086c0,1.279-0.571,1.919-1.714,1.919h-1.286v-3.731H134.824z M130.733,35.011h2.922v-5.26h1.46
		l1.778,5.26h3.181l-2.444-5.815c1.247-0.675,1.87-1.844,1.87-3.507c0-0.708-0.125-1.346-0.375-1.914
		c-0.25-0.568-0.596-1.016-1.037-1.344c-0.442-0.328-0.879-0.529-1.311-0.604s-1.054-0.112-1.865-0.112h-4.179V35.011z
		 M121.217,35.011h8.085v-2.377h-5.163v-3.273h4.014v-2.279h-4.014v-3.088h5.163v-2.279h-8.085V35.011z M109.897,35.011h2.26v-9.624
		l4.053,9.624h2.61V21.715h-2.26v8.26l-3.419-8.26h-3.244V35.011z M104.569,35.011h2.922V21.715h-2.922V35.011z M96.625,29.985
		l1.289-5.447l1.344,5.447H96.625z M92.725,35.011h2.686l0.651-2.747h3.746l0.663,2.747h2.988L99.66,21.715h-2.941L92.725,35.011z
		 M87.591,23.868c0.436,0,0.765,0.05,0.989,0.151c0.224,0.101,0.42,0.292,0.589,0.575c0.169,0.283,0.253,0.645,0.253,1.086
		c0,1.279-0.571,1.919-1.714,1.919h-1.286v-3.731H87.591z M83.5,35.011h2.922v-5.26h1.46l1.778,5.26h3.181l-2.444-5.815
		c1.247-0.675,1.87-1.844,1.87-3.507c0-0.708-0.125-1.346-0.375-1.914c-0.25-0.568-0.596-1.016-1.037-1.344
		c-0.442-0.328-0.879-0.529-1.311-0.604s-1.054-0.112-1.865-0.112H83.5V35.011z M74.197,24.208h2.649v10.803h2.922V24.208h2.718
		v-2.494h-8.289V24.208z M65.577,21.51c-1.267,0-2.284,0.382-3.054,1.145c-0.77,0.763-1.154,1.742-1.154,2.937
		c0,0.701,0.162,1.327,0.487,1.875c0.325,0.549,0.737,0.971,1.237,1.267c0.5,0.295,1.26,0.625,2.279,0.989
		c0.792,0.286,1.299,0.557,1.52,0.813c0.221,0.257,0.331,0.547,0.331,0.872c0,0.429-0.158,0.774-0.472,1.037
		c-0.315,0.263-0.726,0.395-1.232,0.395c-1.11,0-1.822-0.668-2.133-2.006l-2.552,0.73c0.669,2.435,2.208,3.653,4.617,3.653
		c1.435,0,2.58-0.398,3.434-1.193s1.281-1.813,1.281-3.054c0-0.708-0.151-1.33-0.453-1.865c-0.302-0.536-0.698-0.959-1.188-1.271
		c-0.49-0.312-1.164-0.626-2.021-0.945c-0.942-0.363-1.56-0.657-1.856-0.881c-0.295-0.224-0.443-0.524-0.443-0.901
		c0-0.325,0.125-0.609,0.375-0.853s0.589-0.365,1.018-0.365c0.916,0,1.545,0.549,1.89,1.646l2.416-0.925
		C69.33,22.543,67.888,21.51,65.577,21.51z M55.378,21.51c-1.267,0-2.284,0.382-3.054,1.145c-0.77,0.763-1.154,1.742-1.154,2.937
		c0,0.701,0.162,1.327,0.487,1.875c0.325,0.549,0.737,0.971,1.237,1.267c0.5,0.295,1.26,0.625,2.279,0.989
		c0.792,0.286,1.299,0.557,1.52,0.813c0.221,0.257,0.331,0.547,0.331,0.872c0,0.429-0.158,0.774-0.472,1.037
		c-0.315,0.263-0.726,0.395-1.232,0.395c-1.11,0-1.822-0.668-2.133-2.006l-2.552,0.73c0.669,2.435,2.208,3.653,4.617,3.653
		c1.435,0,2.58-0.398,3.434-1.193s1.281-1.813,1.281-3.054c0-0.708-0.151-1.33-0.453-1.865c-0.302-0.536-0.698-0.959-1.188-1.271
		c-0.49-0.312-1.164-0.626-2.021-0.945c-0.942-0.363-1.56-0.657-1.856-0.881c-0.295-0.224-0.443-0.524-0.443-0.901
		c0-0.325,0.125-0.609,0.375-0.853s0.589-0.365,1.018-0.365c0.916,0,1.545,0.549,1.89,1.646l2.416-0.925
		C59.131,22.543,57.689,21.51,55.378,21.51z M42.052,35.011h8.085v-2.377h-5.163v-3.273h4.013v-2.279h-4.013v-3.088h5.163v-2.279
		h-8.085V35.011z M30.733,35.011h2.26v-9.624l4.052,9.624h2.611V21.715h-2.26v8.26l-3.419-8.26h-3.244V35.011z M21.538,24.208h2.649
		v10.803h2.922V24.208h2.718v-2.494h-8.29V24.208z M17.593,35.011h2.922V21.715h-2.922V35.011z M8.758,35.011h2.922v-5.26h3.828
		v-2.279H11.68v-3.478h4.968v-2.279h-7.89V35.011z"/>
</g>
</svg>
