<?xml version="1.0" encoding="utf-8"?>
<!-- Generator: Adobe Illustrator 16.0.0, SVG Export Plug-In . SVG Version: 6.00 Build 0)  -->
<!DOCTYPE svg PUBLIC "-//W3C//DTD SVG 1.1//EN" "http://www.w3.org/Graphics/SVG/1.1/DTD/svg11.dtd">
<svg version="1.1" id="Layer_1" xmlns="http://www.w3.org/2000/svg" xmlns:xlink="http://www.w3.org/1999/xlink" x="0px" y="0px"
	 width="156px" height="179px" viewBox="0 0 156 179" enable-background="new 0 0 156 179" xml:space="preserve">
<path fill-rule="evenodd" clip-rule="evenodd" d="M87.09,158.654"/>
<rect x="1" y="1" fill-rule="evenodd" clip-rule="evenodd" fill="#FFFFFF" stroke="#627D53" stroke-width="2" stroke-miterlimit="10" width="154" height="177"/>
<rect x="2" y="1" fill-rule="evenodd" clip-rule="evenodd" fill="#627D53" width="154" height="56"/>
<g>
	<path fill="#FFFFFF" d="M36.756,23.987h2.09v5.604l2.66-5.604h2.09l-2.489,4.883l2.527,8.417h-2.185l-1.767-5.928l-0.836,1.691
		v4.236h-2.09V23.987z"/>
	<path fill="#FFFFFF" d="M46.237,23.987h2.831l2.166,13.3h-2.09l-0.38-2.641v0.037h-2.375l-0.38,2.604h-1.938L46.237,23.987z
		 M48.517,32.879l-0.931-6.574h-0.038l-0.912,6.574H48.517z"/>
	<path fill="#FFFFFF" d="M53.286,31.625l-2.527-7.638h2.223l1.425,4.883h0.038l1.425-4.883h2.033l-2.527,7.638v5.662h-2.09V31.625z"
		/>
	<path fill="#FFFFFF" d="M59.594,23.987h2.831l2.166,13.3H62.5l-0.38-2.641v0.037h-2.375l-0.38,2.604h-1.938L59.594,23.987z
		 M61.874,32.879l-0.931-6.574h-0.038l-0.912,6.574H61.874z"/>
	<path fill="#FFFFFF" d="M65.597,23.987h2.09v5.604l2.66-5.604h2.09l-2.489,4.883l2.527,8.417h-2.185l-1.767-5.928l-0.836,1.691
		v4.236h-2.09V23.987z"/>
	<path fill="#FFFFFF" d="M76.502,23.987H79.6c1.077,0,1.862,0.25,2.356,0.751c0.494,0.5,0.741,1.27,0.741,2.308v0.817
		c0,1.381-0.456,2.254-1.368,2.622v0.038c0.506,0.152,0.865,0.463,1.074,0.931c0.209,0.469,0.313,1.096,0.313,1.881v2.337
		c0,0.381,0.012,0.688,0.038,0.922s0.089,0.465,0.19,0.693h-2.128c-0.076-0.215-0.126-0.418-0.152-0.607
		c-0.025-0.19-0.038-0.533-0.038-1.026v-2.433c0-0.607-0.098-1.031-0.294-1.272s-0.535-0.361-1.017-0.361h-0.722v5.7h-2.09V23.987z
		 M79.353,29.688c0.418,0,0.731-0.107,0.94-0.323s0.313-0.576,0.313-1.083v-1.026c0-0.481-0.085-0.829-0.256-1.045
		c-0.171-0.215-0.44-0.323-0.808-0.323h-0.95v3.801H79.353z"/>
	<path fill="#FFFFFF" d="M84.16,23.987h5.7v1.899h-3.61v3.516h2.869v1.9H86.25v4.084h3.61v1.9h-5.7V23.987z"/>
	<path fill="#FFFFFF" d="M91.057,23.987h2.622l2.033,7.961h0.038v-7.961h1.862v13.3h-2.147l-2.508-9.709h-0.038v9.709h-1.862V23.987
		z"/>
	<path fill="#FFFFFF" d="M100.804,25.887h-2.185v-1.899h6.46v1.899h-2.185v11.4h-2.09V25.887z"/>
	<path fill="#FFFFFF" d="M106.827,23.987h2.831l2.166,13.3h-2.09l-0.38-2.641v0.037h-2.375l-0.38,2.604h-1.938L106.827,23.987z
		 M109.106,32.879l-0.931-6.574h-0.038l-0.912,6.574H109.106z"/>
	<path fill="#FFFFFF" d="M112.83,23.987h2.09v11.399h3.439v1.9h-5.529V23.987z"/>
	<path fill="#FFFFFF" d="M119.784,36.613c-0.52-0.577-0.779-1.403-0.779-2.48v-0.76h1.976v0.912c0,0.861,0.361,1.292,1.083,1.292
		c0.354,0,0.624-0.104,0.808-0.313c0.183-0.209,0.275-0.548,0.275-1.017c0-0.558-0.127-1.048-0.38-1.473
		c-0.254-0.424-0.722-0.934-1.406-1.529c-0.861-0.76-1.463-1.446-1.805-2.062c-0.342-0.614-0.513-1.308-0.513-2.08
		c0-1.052,0.266-1.865,0.798-2.441c0.532-0.576,1.305-0.865,2.318-0.865c1,0,1.758,0.289,2.271,0.865
		c0.513,0.576,0.77,1.402,0.77,2.479v0.551h-1.976v-0.684c0-0.455-0.089-0.788-0.266-0.997c-0.178-0.209-0.437-0.313-0.779-0.313
		c-0.697,0-1.045,0.424-1.045,1.273c0,0.48,0.13,0.93,0.39,1.349c0.259,0.418,0.731,0.925,1.416,1.52
		c0.874,0.761,1.476,1.45,1.805,2.071c0.33,0.621,0.494,1.35,0.494,2.186c0,1.089-0.269,1.925-0.808,2.508
		c-0.538,0.582-1.32,0.873-2.346,0.873C121.07,37.477,120.304,37.189,119.784,36.613z"/>
</g>
<g>
	<path fill-rule="evenodd" clip-rule="evenodd" fill="#627D53" d="M117.59,145.604c-1.624,1.657-3.05,3.114-4.701,4.8
		c-3.009-3.149-7.047-5.782-8.678-9.478c-2.151-4.875-6.125-7.598-9.574-11.741c-0.468,1.901-0.84,3.349-1.181,4.805
		c-1.387,5.921-3.36,11.617-6.58,16.814c-2.581,4.165-5.471,4.158-7.975-0.056c-5.423-9.126-7.829-19.16-8.391-29.635
		c-0.256-4.771,0.208-9.578,0.221-14.37c0.002-0.818-0.432-1.826-1.001-2.426c-2.76-2.91-5.631-5.715-8.474-8.548
		c-0.388-0.385-0.784-0.93-1.258-1.036c-5.984-1.343-8.446-6.946-12.898-10.241c1.641-1.624,3.09-3.058,4.801-4.751
		c3.267,4.288,8.732,6.677,10.076,12.581c0.172,0.756,0.943,1.423,1.543,2.025c13.222,13.258,26.458,26.503,39.695,39.745
		c0.498,0.498,0.99,1.263,1.58,1.368c5.058,0.906,7.405,5.298,10.843,8.276C116.288,144.303,116.887,144.929,117.59,145.604z
		 M74.682,109.372c-1.205,7.024-1.229,13.378,3.438,18.671c4.288,4.863,9.375,1.719,11.436-2.669
		c0.179-0.379-0.132-1.223-0.487-1.584C84.446,119.103,79.777,114.462,74.682,109.372z"/>
	<path fill-rule="evenodd" clip-rule="evenodd" fill="#627D53" d="M95.67,121.371c-2.806-1.919-3.825-3.715-3.923-6.485
		c-0.102-2.902-0.786-5.946-1.941-8.614c-2.659-6.142-7.043-7.073-12.393-2.876c-1.466-1.46-3.033-2.873-4.396-4.461
		c-0.471-0.549-0.808-1.676-0.571-2.297c2.085-5.473,3.996-11.049,6.599-16.273c2.165-4.347,5.199-4.202,7.774-0.089
		c4.717,7.532,7,15.911,7.977,24.625C95.387,110.167,95.38,115.501,95.67,121.371z"/>
	<path fill-rule="evenodd" clip-rule="evenodd" fill="#394730" d="M74.682,109.372c5.095,5.09,9.765,9.73,14.386,14.418
		c0.355,0.361,0.666,1.205,0.487,1.584c-2.061,4.388-7.147,7.532-11.436,2.669C73.452,122.75,73.477,116.396,74.682,109.372z"/>
</g>
</svg>
