<?xml version="1.0" encoding="utf-8"?>
<!-- Generator: Adobe Illustrator 16.0.0, SVG Export Plug-In . SVG Version: 6.00 Build 0)  -->
<!DOCTYPE svg PUBLIC "-//W3C//DTD SVG 1.1//EN" "http://www.w3.org/Graphics/SVG/1.1/DTD/svg11.dtd">
<svg version="1.1" id="Layer_1" xmlns="http://www.w3.org/2000/svg" xmlns:xlink="http://www.w3.org/1999/xlink" x="0px" y="0px"
	 width="157px" height="179px" viewBox="0 0 157 179" enable-background="new 0 0 157 179" xml:space="preserve">
<rect x="1" y="1" fill-rule="evenodd" clip-rule="evenodd" fill="#FFFFFF" stroke="#627D53" stroke-width="2" stroke-miterlimit="10" width="155" height="177"/>
<rect x="2" y="1" fill-rule="evenodd" clip-rule="evenodd" fill="#627D53" width="155" height="56"/>
<g>
	<path fill="#FFFFFF" d="M20.254,32.496c-0.532-0.577-0.798-1.403-0.798-2.48v-6.992c0-1.076,0.266-1.902,0.798-2.479
		c0.532-0.576,1.305-0.865,2.318-0.865c1.013,0,1.786,0.289,2.318,0.865c0.532,0.576,0.798,1.402,0.798,2.479v1.141h-1.976v-1.273
		c0-0.873-0.361-1.311-1.083-1.311c-0.722,0-1.083,0.438-1.083,1.311v7.277c0,0.861,0.361,1.292,1.083,1.292
		c0.722,0,1.083-0.431,1.083-1.292v-2.604h-1.045v-1.899h3.021v4.351c0,1.077-0.266,1.903-0.798,2.48
		c-0.532,0.576-1.305,0.863-2.318,0.863C21.559,33.359,20.786,33.072,20.254,32.496z"/>
	<path fill="#FFFFFF" d="M28.671,27.508l-2.527-7.638h2.223l1.425,4.883h0.038l1.425-4.883h2.033l-2.527,7.638v5.662h-2.09V27.508z"
		/>
	<path fill="#FFFFFF" d="M34.237,19.87h2.983l1.33,9.519h0.038l1.33-9.519h2.983v13.3h-1.976V23.1h-0.038l-1.52,10.07H37.62
		L36.1,23.1h-0.038v10.07h-1.824V19.87z"/>
	<path fill="#FFFFFF" d="M44.459,19.87h2.622l2.033,7.961h0.038V19.87h1.862v13.3h-2.147l-2.508-9.709h-0.038v9.709h-1.862V19.87z"
		/>
	<path fill="#FFFFFF" d="M54.187,19.87h2.831l2.166,13.3h-2.09l-0.38-2.641v0.037h-2.375l-0.38,2.604h-1.938L54.187,19.87z
		 M56.467,28.762l-0.931-6.574h-0.038l-0.912,6.574H56.467z"/>
	<path fill="#FFFFFF" d="M60.552,32.496c-0.52-0.577-0.779-1.403-0.779-2.48v-0.76h1.976v0.912c0,0.861,0.361,1.292,1.083,1.292
		c0.354,0,0.624-0.104,0.808-0.313c0.183-0.209,0.275-0.548,0.275-1.017c0-0.558-0.127-1.048-0.38-1.473
		c-0.254-0.424-0.722-0.934-1.406-1.529c-0.861-0.76-1.463-1.446-1.805-2.062c-0.342-0.614-0.513-1.308-0.513-2.08
		c0-1.052,0.266-1.865,0.798-2.441c0.532-0.576,1.305-0.865,2.318-0.865c1,0,1.758,0.289,2.271,0.865
		c0.513,0.576,0.77,1.402,0.77,2.479v0.551h-1.976v-0.684c0-0.455-0.089-0.788-0.266-0.997c-0.178-0.209-0.437-0.313-0.779-0.313
		c-0.697,0-1.045,0.424-1.045,1.273c0,0.48,0.13,0.93,0.39,1.349c0.259,0.418,0.731,0.925,1.416,1.52
		c0.874,0.761,1.476,1.45,1.805,2.071c0.33,0.621,0.494,1.35,0.494,2.186c0,1.089-0.269,1.925-0.808,2.508
		c-0.538,0.582-1.32,0.873-2.346,0.873C61.837,33.359,61.071,33.072,60.552,32.496z"/>
	<path fill="#FFFFFF" d="M68.836,21.77h-2.185V19.87h6.46v1.899h-2.185v11.4h-2.09V21.77z"/>
	<path fill="#FFFFFF" d="M74.118,19.87h2.09v13.3h-2.09V19.87z"/>
	<path fill="#FFFFFF" d="M78.421,32.505c-0.526-0.569-0.789-1.374-0.789-2.413v-7.145c0-1.037,0.263-1.842,0.789-2.412
		c0.525-0.57,1.289-0.855,2.29-0.855c1,0,1.764,0.285,2.29,0.855c0.525,0.57,0.788,1.375,0.788,2.412v1.406h-1.976v-1.539
		c0-0.822-0.349-1.234-1.045-1.234c-0.696,0-1.045,0.412-1.045,1.234v7.43c0,0.811,0.349,1.216,1.045,1.216
		c0.697,0,1.045-0.405,1.045-1.216v-2.033h1.976v1.881c0,1.039-0.263,1.844-0.788,2.413c-0.526,0.569-1.289,0.854-2.29,0.854
		C79.71,33.359,78.947,33.074,78.421,32.505z"/>
	<path fill="#FFFFFF" d="M88.738,32.505c-0.526-0.569-0.789-1.374-0.789-2.413v-7.145c0-1.037,0.263-1.842,0.789-2.412
		c0.525-0.57,1.289-0.855,2.29-0.855c1,0,1.764,0.285,2.29,0.855c0.525,0.57,0.788,1.375,0.788,2.412v1.406h-1.976v-1.539
		c0-0.822-0.349-1.234-1.045-1.234c-0.696,0-1.045,0.412-1.045,1.234v7.43c0,0.811,0.349,1.216,1.045,1.216
		c0.697,0,1.045-0.405,1.045-1.216v-2.033h1.976v1.881c0,1.039-0.263,1.844-0.788,2.413c-0.526,0.569-1.289,0.854-2.29,0.854
		C90.026,33.359,89.263,33.074,88.738,32.505z"/>
	<path fill="#FFFFFF" d="M95.359,19.87h5.7v1.899h-3.61v3.516h2.869v1.9h-2.869v4.084h3.61v1.9h-5.7V19.87z"/>
	<path fill="#FFFFFF" d="M102.256,19.87h2.622l2.033,7.961h0.038V19.87h1.862v13.3h-2.147l-2.508-9.709h-0.038v9.709h-1.862V19.87z"
		/>
	<path fill="#FFFFFF" d="M112.003,21.77h-2.185V19.87h6.46v1.899h-2.185v11.4h-2.09V21.77z"/>
	<path fill="#FFFFFF" d="M117.285,19.87h5.7v1.899h-3.61v3.516h2.869v1.9h-2.869v4.084h3.61v1.9h-5.7V19.87z"/>
	<path fill="#FFFFFF" d="M124.182,19.87h3.097c1.077,0,1.862,0.25,2.356,0.751c0.494,0.5,0.741,1.27,0.741,2.308v0.817
		c0,1.381-0.456,2.254-1.368,2.622v0.038c0.506,0.152,0.865,0.463,1.074,0.931c0.209,0.469,0.313,1.096,0.313,1.881v2.337
		c0,0.381,0.012,0.688,0.038,0.922s0.089,0.465,0.19,0.693h-2.128c-0.076-0.215-0.126-0.418-0.152-0.607
		c-0.025-0.19-0.038-0.533-0.038-1.026v-2.433c0-0.607-0.098-1.031-0.294-1.272s-0.535-0.361-1.017-0.361h-0.722v5.7h-2.09V19.87z
		 M127.032,25.57c0.418,0,0.731-0.107,0.94-0.323s0.313-0.576,0.313-1.083v-1.026c0-0.481-0.085-0.829-0.256-1.045
		c-0.171-0.215-0.44-0.323-0.808-0.323h-0.95v3.801H127.032z"/>
	<path fill="#FFFFFF" d="M132.257,32.496c-0.52-0.577-0.779-1.403-0.779-2.48v-0.76h1.976v0.912c0,0.861,0.361,1.292,1.083,1.292
		c0.354,0,0.624-0.104,0.808-0.313c0.183-0.209,0.275-0.548,0.275-1.017c0-0.558-0.127-1.048-0.38-1.473
		c-0.254-0.424-0.722-0.934-1.406-1.529c-0.861-0.76-1.463-1.446-1.805-2.062c-0.342-0.614-0.513-1.308-0.513-2.08
		c0-1.052,0.266-1.865,0.798-2.441c0.532-0.576,1.305-0.865,2.318-0.865c1,0,1.758,0.289,2.271,0.865
		c0.513,0.576,0.77,1.402,0.77,2.479v0.551h-1.976v-0.684c0-0.455-0.089-0.788-0.266-0.997c-0.178-0.209-0.437-0.313-0.779-0.313
		c-0.697,0-1.045,0.424-1.045,1.273c0,0.48,0.13,0.93,0.39,1.349c0.259,0.418,0.731,0.925,1.416,1.52
		c0.874,0.761,1.476,1.45,1.805,2.071c0.33,0.621,0.494,1.35,0.494,2.186c0,1.089-0.269,1.925-0.808,2.508
		c-0.538,0.582-1.32,0.873-2.346,0.873C133.542,33.359,132.776,33.072,132.257,32.496z"/>
</g>
<g>
	<path fill-rule="evenodd" clip-rule="evenodd" fill="#394730" d="M99.889,159.689c0-1.33,0-2.492,0-3.902c2.215,0,4.326,0,6.853,0
		c-0.495-1.578-0.883-2.811-1.345-4.281c-3.452,1.939-6.985,2.92-10.779,2.277c-4.531-0.77-8.164-3.051-10.533-7.016
		c-0.763-1.277-1.6-1.43-2.89-1.346c-5.456,0.355-10.915,0.723-16.379,0.883c-5.125,0.152-8.339-2.006-9.591-6.09
		c-1.203-3.92,0.291-7.463,4.566-10.484c-1.896-2.031-3.768-4.041-5.645-6.045c-2.223-2.375-4.553-4.66-6.641-7.146
		c-1.681-2.002-3.472-3.365-6.244-3.102c-1.607,0.156-2.102-0.908-1.845-2.307c0.243-1.326-0.346-3.023,2.147-3.172
		c5.059-0.299,9.57,1.912,14.37,2.75c0.395,0.07,0.982,1.115,0.871,1.547c-0.205,0.785-0.719,1.779-1.381,2.084
		c-0.783,0.359-1.859,0.084-3.112,0.084c0.467,0.619,0.775,1.109,1.162,1.527c2.752,2.967,5.807,5.703,8.203,8.932
		c2.37,3.193,5.733,4.346,9.078,5.684c0.869,0.348,2.189,0.43,2.955,0.006c2.343-1.295,4.71-1.088,7.133-0.643
		c2.14,0.395,3.631-0.145,5.377-1.756c2.349-2.166,5.466-3.5,8.673-5.445c-0.621-1.766-1.494-4.254-2.478-7.055
		c-5.155,4.5-10.16,8.869-15.165,13.238c-0.122-0.127-0.245-0.254-0.367-0.379c0.168-0.906,0.624-1.871,0.457-2.711
		c-0.715-3.588,1.203-5.656,3.76-7.693c3.471-2.762,6.68-5.85,10.063-8.729c1.009-0.857,1.155-1.605,0.693-2.855
		c-0.948-2.563-1.662-5.215-2.513-7.959c1.523-1.348,3.007-2.781,4.631-4.027c0.468-0.359,1.348-0.18,2.038-0.248
		c-0.151,0.73-0.062,1.883-0.492,2.129c-3.483,2.004-3.306,4.631-1.6,7.662c0.305,0.543,0.459,1.172,0.756,1.951
		c0.378-0.256,0.712-0.402,0.938-0.646c1.693-1.84,2.852-0.992,4.237,0.549c1.485,1.652,0.888,2.723-0.591,3.639
		c-2.455,1.52-2.93,3.371-1.453,5.873c0.552,0.934,0.801,2.061,1.115,3.123c0.954,3.219,2.447,5.57,5.804,7.295
		c6.957,3.572,9.433,12.324,5.89,19.309c-0.987,1.949-0.871,3.445-0.175,5.287c1.967,5.203,1.922,5.219,7.499,5.219
		c0.872,0,1.745,0,2.618,0c3.749,0.002,3.749,0.002,3.385,3.99C115.998,159.689,108.036,159.689,99.889,159.689z M96.885,128.047
		c-5.893,0.031-10.754,4.916-10.697,10.75c0.058,5.842,5.021,10.76,10.807,10.705c5.845-0.055,10.738-5.006,10.688-10.816
		C107.633,132.793,102.783,128.018,96.885,128.047z M69.124,133.623c1.24,6.336-0.048,9.318-3.97,9.824
		c-3.365,0.436-6.377-1.789-6.399-5.082c-0.01-1.461,0.499-3.197,1.382-4.334c1.927-2.484,4.734-2.191,7.518-1.332
		c-2.448-2.207-5.866-1.881-8.165,0.561c-2.451,2.6-2.396,6.691,0.122,9.221c2.457,2.467,6.431,2.609,9.041,0.328
		C71.318,140.475,71.644,136.771,69.124,133.623z M64.681,135.109c-2.08,0.047-3.344,1.137-3.218,2.895
		c0.119,1.666,1.622,2.828,3.314,2.564c1.739-0.271,2.446-1.572,2.015-3.326c-1.015,0.412-2.062,0.836-3.108,1.262
		C64.004,137.412,64.324,136.322,64.681,135.109z"/>
	<path fill-rule="evenodd" clip-rule="evenodd" fill="#627D53" d="M71.71,91.373c-0.971-1.486-2.033-2.924-2.893-4.473
		c-1.303-2.348-3.023-3.217-4.977-2.313c-1.971,0.91-2.583,3.09-1.357,5.465c0.9,1.752,2.026,3.383,3.172,5.266
		c-1.745,2.051-3.607,4.24-5.593,6.576c1.2,0.531,2.132,0.93,3.051,1.355c9.13,4.221,14.088,12.555,13.43,22.564
		c-0.165,2.506-1.843,4.229-4.181,4.289c-2.298,0.061-4.2-1.631-4.443-4.072c-0.15-1.496,0.034-3.035-0.228-4.504
		c-1.126-6.344-6.22-10.979-12.864-11.906c-1.163-0.162-2.345-0.4-3.44-0.809c-5.344-1.996-6.498-5.084-4.016-10.148
		c2.769-5.65,6.508-10.508,11.588-14.23c1.367-1.002,3.005-1.805,4.639-2.234c3.606-0.945,6.839,1.207,7.661,4.82
		c0.311,1.367,0.617,2.736,0.925,4.104C72.024,91.207,71.867,91.291,71.71,91.373z"/>
	<path fill-rule="evenodd" clip-rule="evenodd" fill="#394730" d="M47.568,155.783c2.269,0,4.536,0,6.948,0c0,1.416,0,2.633,0,3.947
		c-8.012,0-15.898,0-23.875,0c0-1.359,0-2.576,0-3.846c0.628-0.074,1.115-0.248,1.553-0.164c4.694,0.889,8.084-1.197,11.292-4.395
		c3.469-3.457,7.322-6.529,11.068-9.822c1.186,1.438,2.307,2.801,3.508,4.26c-3.517,3.102-7.118,6.277-10.721,9.455
		C47.418,155.406,47.493,155.594,47.568,155.783z"/>
	<path fill-rule="evenodd" clip-rule="evenodd" fill="#627D53" d="M78.213,87.264c-4.375,0.043-7.902-3.365-7.962-7.695
		c-0.058-4.289,3.441-7.906,7.73-7.988c4.224-0.082,7.921,3.506,7.997,7.762C86.053,83.615,82.521,87.221,78.213,87.264z"/>
	<path fill-rule="evenodd" clip-rule="evenodd" fill="#627D53" d="M84.895,103.918c-8.34-1.1-16.094-4.607-21.039-12.852
		c-0.483-0.807-1.179-1.756-1.092-2.568c0.117-1.094,0.685-2.754,1.447-3.01c0.952-0.318,3.005,0.205,3.367,0.955
		c3.814,7.857,10.591,10.973,18.676,12.086c1.914,0.264,3.212,0.924,3.093,3.063C89.248,103.367,88.097,104.08,84.895,103.918z"/>
	<path fill-rule="evenodd" clip-rule="evenodd" fill="#FFFFFF" d="M69.124,133.623c2.52,3.148,2.194,6.852-0.471,9.186
		c-2.61,2.281-6.583,2.139-9.041-0.328c-2.518-2.529-2.573-6.621-0.122-9.221c2.298-2.441,5.717-2.768,8.165-0.561
		c-2.784-0.859-5.59-1.152-7.518,1.332c-0.883,1.137-1.392,2.873-1.382,4.334c0.022,3.293,3.034,5.518,6.399,5.082
		C69.076,142.941,70.364,139.959,69.124,133.623z"/>
	<path fill-rule="evenodd" clip-rule="evenodd" fill="#FFFFFF" d="M64.681,135.109c-0.356,1.213-0.677,2.303-0.997,3.395
		c1.047-0.426,2.094-0.85,3.108-1.262c0.431,1.754-0.276,3.055-2.015,3.326c-1.692,0.264-3.195-0.898-3.314-2.564
		C61.337,136.246,62.601,135.156,64.681,135.109z"/>
</g>
</svg>
