<?xml version="1.0" encoding="utf-8"?>
<!-- Generator: Adobe Illustrator 16.0.0, SVG Export Plug-In . SVG Version: 6.00 Build 0)  -->
<!DOCTYPE svg PUBLIC "-//W3C//DTD SVG 1.1//EN" "http://www.w3.org/Graphics/SVG/1.1/DTD/svg11.dtd">
<svg version="1.1" id="Layer_1" xmlns="http://www.w3.org/2000/svg" xmlns:xlink="http://www.w3.org/1999/xlink" x="0px" y="0px"
	 width="156px" height="179px" viewBox="0 0 156 179" enable-background="new 0 0 156 179" xml:space="preserve">
<path fill-rule="evenodd" clip-rule="evenodd" d="M87.09,158.654"/>
<rect x="1" y="1" fill-rule="evenodd" clip-rule="evenodd" fill="#FFFFFF" stroke="#627D53" stroke-width="2" stroke-miterlimit="10" width="154" height="177"/>
<rect x="2" y="1" fill-rule="evenodd" clip-rule="evenodd" fill="#627D53" width="154" height="56"/>
<g>
	<g>
		<path fill-rule="evenodd" clip-rule="evenodd" fill="#394730" d="M41.567,91.39c7.302,0.191,13.303,2.438,17.731,7.425
			c5.974,6.724,9.51,14.371,11.123,22.78c1.388,7.225,3.417,14.297,7.79,20.665c0.598,0.871,1.132,1.548,2.58,1.502
			c0.834-0.028,1.853,0.61,2.525,1.189c4.189,3.597,8.32,7.25,12.438,10.91c2,1.776,1.983,3.241,0.041,5.009
			c-0.509,0.462-1.017,0.927-1.557,1.364c-1.6,1.282-3.448,1.352-4.973,0.028c-4.41-3.815-8.779-7.671-13.121-11.551
			c-0.481-0.431-1.019-1.139-0.951-1.658c0.212-1.646-1.017-2.249-2.272-2.906c-6.836-3.596-14.37-5.446-22.109-6.642
			c-8.833-1.369-16.972-4.112-24.423-8.523c-12.566-7.434-13.062-21.042-5.431-30.084C26.107,94.792,33.105,91.627,41.567,91.39z
			 M39.483,98.781c-1.337,1.116-2.537,2.117-3.604,3.012c1.196,1.181,2.329,2.293,3.392,3.342c1.271-1.166,2.442-2.24,3.648-3.342
			C41.827,100.836,40.656,99.807,39.483,98.781z M50.444,98.827c-1.093,0.977-2.292,2.046-3.408,3.046
			c1.191,1.13,2.345,2.227,3.565,3.383c1.247-1.146,2.394-2.198,3.653-3.355C53.042,100.921,51.778,99.9,50.444,98.827z
			 M30.388,106.62c1.205,1.217,2.325,2.343,3.369,3.395c1.284-1.062,2.49-2.062,3.639-3.013c-1.206-1.11-2.389-2.205-3.567-3.293
			C32.588,104.759,31.35,105.805,30.388,106.62z M45.044,103.868c-1.24,0.989-2.504,1.994-3.395,2.702
			c1.231,1.207,2.36,2.316,3.313,3.252c1.195-0.962,2.406-1.937,3.708-2.982C47.432,105.825,46.223,104.835,45.044,103.868z
			 M27.794,114.708c1.394-1.063,2.693-2.061,3.689-2.819c-1.163-1.093-2.278-2.145-3.081-2.899
			c-1.245,0.929-2.541,1.894-3.679,2.742C25.921,112.893,27.033,113.97,27.794,114.708z M35.905,111.608
			c1.222,1.206,2.351,2.316,3.375,3.324c1.267-1.143,2.439-2.195,3.413-3.073c-1.085-1.018-2.238-2.095-3.426-3.208
			C38.134,109.647,36.975,110.671,35.905,111.608z M50.498,115.061c1.254-1.183,2.412-2.275,3.473-3.277
			c-1.135-0.967-2.352-2.002-3.259-2.776c-1.199,0.914-2.48,1.894-3.696,2.822C48.172,112.899,49.268,113.92,50.498,115.061z
			 M37.292,116.658c-1.111-0.987-2.307-2.054-3.336-2.967c-1.305,1.023-2.578,2.025-3.696,2.902c1.231,1.186,2.352,2.265,3.54,3.409
			C34.982,118.869,36.098,117.799,37.292,116.658z M48.594,116.68c-1.196-1.054-2.392-2.111-3.542-3.129
			c-1.279,1.068-2.519,2.095-3.688,3.068c1.248,1.172,2.408,2.26,3.642,3.422C46.227,118.894,47.354,117.84,48.594,116.68z
			 M52.748,116.465c1.191,1.206,2.305,2.335,3.34,3.388c1.294-1.076,2.499-2.07,3.801-3.146c-1.255-1.053-2.496-2.097-3.645-3.06
			C55.008,114.643,53.741,115.661,52.748,116.465z M28.209,118.385c-1.228,1.085-2.432,2.146-3.567,3.15
			c1.221,1.153,2.377,2.246,3.399,3.213c1.287-1.136,2.476-2.186,3.705-3.27C30.624,120.497,29.455,119.472,28.209,118.385z
			 M39.413,118.369c-1.253,1.103-2.458,2.164-3.571,3.146c1.216,1.159,2.366,2.257,3.403,3.249c1.272-1.163,2.442-2.232,3.63-3.319
			C41.812,120.502,40.649,119.467,39.413,118.369z M50.719,118.62c-1.303,1.022-2.571,2.019-3.742,2.937
			c1.245,1.177,2.374,2.241,3.583,3.381c1.248-1.163,2.411-2.247,3.646-3.4C53.038,120.56,51.84,119.558,50.719,118.62z
			 M44.979,123.308c-1.225,1.088-2.428,2.151-3.565,3.162c1.207,1.143,2.362,2.234,3.4,3.219c1.286-1.144,2.472-2.2,3.693-3.29
			C47.394,125.421,46.222,124.398,44.979,123.308z M56.033,129.712c1.269-1.157,2.443-2.228,3.415-3.114
			c-1.108-0.984-2.294-2.037-3.4-3.025c-1.129,0.936-2.335,1.93-3.472,2.874C53.806,127.608,54.963,128.703,56.033,129.712z
			 M50.623,128.298c-1.272,1.075-2.505,2.114-3.732,3.151c3.717,3.723,3.717,3.723,7.229,0.195c0.036-0.035,0.036-0.098,0.017-0.045
			C52.932,130.469,51.77,129.373,50.623,128.298z M58.229,121.469c1.235,1.188,2.382,2.288,3.52,3.378
			c3.977-2.96,3.973-3.435,0.022-6.388C60.537,119.51,59.302,120.556,58.229,121.469z M37.372,126.656
			c-1.263-1.05-2.521-2.092-3.891-3.23c-0.493,0.463-1.019,1.077-1.674,1.547c-0.652,0.471-1.435,0.799-2.127,1.171
			C33.708,129.988,34.095,129.987,37.372,126.656z M52.729,106.641c1.211,1.209,2.33,2.332,3.334,3.336
			c1.033-0.84,1.993-1.621,3.061-2.485c-0.925-1.295-1.852-2.591-2.731-3.818C54.961,104.831,53.71,105.848,52.729,106.641z
			 M58.083,131.494c2.639,2.559,4.221,2.184,5.742-1.087c-0.73-0.752-1.401-1.441-2.034-2.094
			C60.554,129.377,59.376,130.385,58.083,131.494z M26.282,116.653c-1.184-0.976-2.429-2.004-3.677-3.033
			c-1.357,1.111-1.221,3.499,0.435,6.058C24.104,118.685,25.147,117.71,26.282,116.653z M28.125,105.277
			c1.306-1.228,2.457-2.313,3.623-3.41c-0.577-0.565-1.226-1.194-2.011-1.96c-1.334,1.205-2.505,2.264-3.717,3.36
			C26.783,103.996,27.44,104.626,28.125,105.277z M41.328,96.811c1.315,1.228,2.48,2.312,3.373,3.146
			c1.124-0.785,2.239-1.565,3.57-2.498C45.769,96.906,43.687,95.933,41.328,96.811z M36.33,130.757
			c2.684-0.018,4.261,2.368,6.718,0.979c-1.308-1.243-2.466-2.346-3.603-3.426C38.557,129.01,37.685,129.695,36.33,130.757z
			 M64.767,137.485c1.718,0.561,3.345,1.094,5.304,1.733c-0.752-1.768-1.375-3.23-1.99-4.679
			C66.922,135.571,65.909,136.469,64.767,137.485z M61.723,114.959c0.181-0.058,0.361-0.115,0.543-0.172
			c0.145-1.825-1.135-3.265-1.9-5.052c-0.911,0.767-1.612,1.36-2.28,1.923C59.388,112.84,60.556,113.9,61.723,114.959z
			 M25.786,106.873c-0.261-0.331-0.747-0.947-1.446-1.831c-0.844,1.892-1.488,3.343-2.136,4.793
			c0.091,0.022,0.185,0.044,0.276,0.063C23.643,108.836,24.803,107.772,25.786,106.873z M33.455,100.128
			c1.461-1.122,2.676-2.056,3.889-2.985c-0.074-0.113-0.152-0.226-0.228-0.332c-1.665,0.592-3.333,1.188-5.052,1.803
			C32.704,99.312,33.16,99.807,33.455,100.128z"/>
		<path fill-rule="evenodd" clip-rule="evenodd" fill="#FFFFFF" d="M39.483,98.781c1.173,1.025,2.344,2.055,3.436,3.012
			c-1.207,1.102-2.377,2.176-3.648,3.342c-1.063-1.049-2.196-2.161-3.392-3.342C36.946,100.898,38.146,99.897,39.483,98.781z"/>
		<path fill-rule="evenodd" clip-rule="evenodd" fill="#FFFFFF" d="M50.444,98.827c1.334,1.073,2.598,2.094,3.811,3.073
			c-1.259,1.157-2.406,2.209-3.653,3.355c-1.22-1.156-2.375-2.253-3.565-3.383C48.152,100.873,49.351,99.804,50.444,98.827z"/>
		<path fill-rule="evenodd" clip-rule="evenodd" fill="#FFFFFF" d="M30.388,106.62c0.962-0.815,2.2-1.861,3.44-2.911
			c1.178,1.088,2.362,2.183,3.567,3.293c-1.149,0.951-2.355,1.951-3.639,3.013C32.713,108.963,31.593,107.837,30.388,106.62z"/>
		<path fill-rule="evenodd" clip-rule="evenodd" fill="#FFFFFF" d="M45.044,103.868c1.179,0.967,2.387,1.957,3.626,2.972
			c-1.302,1.046-2.513,2.021-3.708,2.982c-0.952-0.936-2.081-2.045-3.313-3.252C42.541,105.862,43.805,104.857,45.044,103.868z"/>
		<path fill-rule="evenodd" clip-rule="evenodd" fill="#FFFFFF" d="M27.794,114.708c-0.761-0.738-1.873-1.815-3.071-2.977
			c1.138-0.849,2.434-1.813,3.679-2.742c0.803,0.755,1.918,1.807,3.081,2.899C30.487,112.647,29.188,113.645,27.794,114.708z"/>
		<path fill-rule="evenodd" clip-rule="evenodd" fill="#FFFFFF" d="M35.905,111.608c1.07-0.938,2.229-1.961,3.361-2.957
			c1.188,1.113,2.34,2.19,3.426,3.208c-0.974,0.878-2.146,1.931-3.413,3.073C38.255,113.925,37.126,112.814,35.905,111.608z"/>
		<path fill-rule="evenodd" clip-rule="evenodd" fill="#FFFFFF" d="M50.498,115.061c-1.23-1.141-2.326-2.161-3.482-3.231
			c1.216-0.929,2.497-1.908,3.696-2.822c0.907,0.774,2.125,1.81,3.259,2.776C52.91,112.785,51.752,113.878,50.498,115.061z"/>
		<path fill-rule="evenodd" clip-rule="evenodd" fill="#FFFFFF" d="M37.292,116.658c-1.193,1.141-2.31,2.211-3.493,3.345
			c-1.188-1.145-2.308-2.224-3.54-3.409c1.118-0.877,2.391-1.879,3.696-2.902C34.984,114.604,36.18,115.671,37.292,116.658z"/>
		<path fill-rule="evenodd" clip-rule="evenodd" fill="#FFFFFF" d="M48.594,116.68c-1.24,1.16-2.367,2.214-3.588,3.361
			c-1.234-1.162-2.395-2.25-3.642-3.422c1.17-0.974,2.409-2,3.688-3.068C46.202,114.568,47.398,115.626,48.594,116.68z"/>
		<path fill-rule="evenodd" clip-rule="evenodd" fill="#FFFFFF" d="M52.748,116.465c0.994-0.804,2.26-1.822,3.497-2.817
			c1.149,0.963,2.39,2.007,3.645,3.06c-1.303,1.075-2.507,2.069-3.801,3.146C55.053,118.8,53.939,117.671,52.748,116.465z"/>
		<path fill-rule="evenodd" clip-rule="evenodd" fill="#FFFFFF" d="M28.209,118.385c1.245,1.087,2.415,2.112,3.537,3.094
			c-1.229,1.084-2.418,2.134-3.705,3.27c-1.022-0.967-2.179-2.06-3.399-3.213C25.778,120.531,26.982,119.47,28.209,118.385z"/>
		<path fill-rule="evenodd" clip-rule="evenodd" fill="#FFFFFF" d="M39.413,118.369c1.236,1.098,2.399,2.133,3.462,3.075
			c-1.188,1.087-2.358,2.156-3.63,3.319c-1.037-0.992-2.187-2.09-3.403-3.249C36.954,120.533,38.16,119.472,39.413,118.369z"/>
		<path fill-rule="evenodd" clip-rule="evenodd" fill="#FFFFFF" d="M50.719,118.62c1.121,0.938,2.319,1.939,3.487,2.917
			c-1.236,1.153-2.399,2.237-3.646,3.4c-1.208-1.14-2.337-2.204-3.583-3.381C48.148,120.639,49.417,119.643,50.719,118.62z"/>
		<path fill-rule="evenodd" clip-rule="evenodd" fill="#FFFFFF" d="M44.979,123.308c1.243,1.091,2.414,2.113,3.528,3.091
			c-1.222,1.09-2.408,2.146-3.693,3.29c-1.038-0.984-2.193-2.076-3.4-3.219C42.551,125.459,43.754,124.396,44.979,123.308z"/>
		<path fill-rule="evenodd" clip-rule="evenodd" fill="#FFFFFF" d="M56.033,129.712c-1.069-1.009-2.227-2.104-3.458-3.266
			c1.137-0.944,2.343-1.938,3.472-2.874c1.106,0.988,2.292,2.041,3.4,3.025C58.476,127.484,57.302,128.555,56.033,129.712z"/>
		<path fill-rule="evenodd" clip-rule="evenodd" fill="#FFFFFF" d="M50.623,128.298c1.146,1.075,2.309,2.171,3.515,3.302
			c0.019-0.053,0.019,0.01-0.017,0.045c-3.513,3.527-3.513,3.527-7.229-0.195C48.118,130.412,49.351,129.373,50.623,128.298z"/>
		<path fill-rule="evenodd" clip-rule="evenodd" fill="#FFFFFF" d="M58.229,121.469c1.073-0.913,2.308-1.959,3.544-3.01
			c3.949,2.953,3.953,3.428-0.024,6.388C60.611,123.757,59.464,122.657,58.229,121.469z"/>
		<path fill-rule="evenodd" clip-rule="evenodd" fill="#FFFFFF" d="M37.372,126.656c-3.277,3.331-3.664,3.332-7.693-0.513
			c0.693-0.372,1.476-0.7,2.127-1.171c0.656-0.47,1.182-1.084,1.674-1.547C34.851,124.564,36.109,125.606,37.372,126.656z"/>
		<path fill-rule="evenodd" clip-rule="evenodd" fill="#FFFFFF" d="M52.729,106.641c0.981-0.793,2.232-1.81,3.664-2.968
			c0.879,1.228,1.807,2.523,2.731,3.818c-1.068,0.864-2.028,1.646-3.061,2.485C55.059,108.973,53.94,107.85,52.729,106.641z"/>
		<path fill-rule="evenodd" clip-rule="evenodd" fill="#FFFFFF" d="M58.083,131.494c1.293-1.109,2.471-2.117,3.708-3.181
			c0.633,0.652,1.304,1.342,2.034,2.094C62.304,133.678,60.723,134.053,58.083,131.494z"/>
		<path fill-rule="evenodd" clip-rule="evenodd" fill="#FFFFFF" d="M26.282,116.653c-1.134,1.057-2.178,2.031-3.242,3.024
			c-1.655-2.559-1.792-4.946-0.435-6.058C23.853,114.649,25.098,115.678,26.282,116.653z"/>
		<path fill-rule="evenodd" clip-rule="evenodd" fill="#FFFFFF" d="M28.125,105.277c-0.685-0.651-1.341-1.281-2.104-2.01
			c1.212-1.097,2.382-2.155,3.717-3.36c0.785,0.766,1.434,1.395,2.011,1.96C30.582,102.965,29.43,104.05,28.125,105.277z"/>
		<path fill-rule="evenodd" clip-rule="evenodd" fill="#FFFFFF" d="M41.328,96.811c2.359-0.878,4.441,0.096,6.943,0.648
			c-1.331,0.933-2.446,1.713-3.57,2.498C43.809,99.122,42.644,98.038,41.328,96.811z"/>
		<path fill-rule="evenodd" clip-rule="evenodd" fill="#FFFFFF" d="M36.33,130.757c1.355-1.062,2.228-1.747,3.115-2.446
			c1.137,1.08,2.295,2.183,3.603,3.426C40.59,133.125,39.014,130.739,36.33,130.757z"/>
		<path fill-rule="evenodd" clip-rule="evenodd" fill="#FFFFFF" d="M64.767,137.485c1.142-1.017,2.155-1.914,3.314-2.945
			c0.615,1.448,1.238,2.911,1.99,4.679C68.112,138.579,66.485,138.046,64.767,137.485z"/>
		<path fill-rule="evenodd" clip-rule="evenodd" fill="#FFFFFF" d="M61.723,114.959c-1.167-1.059-2.335-2.119-3.637-3.301
			c0.668-0.563,1.37-1.156,2.28-1.923c0.765,1.787,2.044,3.227,1.9,5.052C62.084,114.844,61.904,114.901,61.723,114.959z"/>
		<path fill-rule="evenodd" clip-rule="evenodd" fill="#FFFFFF" d="M25.786,106.873c-0.983,0.899-2.143,1.963-3.306,3.024
			c-0.092-0.019-0.185-0.04-0.276-0.063c0.647-1.45,1.292-2.901,2.136-4.793C25.039,105.926,25.524,106.542,25.786,106.873z"/>
		<path fill-rule="evenodd" clip-rule="evenodd" fill="#FFFFFF" d="M33.455,100.128c-0.294-0.321-0.751-0.816-1.391-1.515
			c1.72-0.615,3.387-1.211,5.052-1.803c0.075,0.106,0.153,0.219,0.228,0.332C36.13,98.072,34.916,99.006,33.455,100.128z"/>
		<circle fill-rule="evenodd" clip-rule="evenodd" fill="#394730" cx="78.158" cy="80.65" r="10.74"/>
	</g>
	<g>
		<path fill-rule="evenodd" clip-rule="evenodd" fill="#627D53" d="M138.696,113.729c-0.799,7.261-3.539,13.055-8.876,17.051
			c-7.198,5.393-15.114,8.279-23.628,9.186c-7.315,0.781-14.532,2.215-21.242,6.041c-0.918,0.522-1.637,0.999-1.712,2.445
			c-0.041,0.834-0.763,1.796-1.396,2.418c-3.934,3.875-7.918,7.686-11.909,11.486c-1.937,1.844-3.396,1.705-4.995-0.377
			c-0.418-0.547-0.839-1.092-1.23-1.666c-1.145-1.701-1.06-3.549,0.386-4.958c4.17-4.077,8.376-8.108,12.604-12.111
			c0.47-0.444,1.22-0.921,1.732-0.81c1.623,0.348,2.326-0.827,3.085-2.023c4.153-6.513,6.625-13.865,8.461-21.479
			c2.101-8.688,5.513-16.569,10.529-23.627c8.455-11.903,22.058-11.264,30.432-2.905
			C136.595,98.039,139.165,105.276,138.696,113.729z M131.504,111.036c-1.001-1.426-1.898-2.705-2.701-3.843
			c-1.276,1.092-2.479,2.129-3.613,3.101c1.056,1.364,2.029,2.621,3.026,3.915C129.261,113.201,130.385,112.119,131.504,111.036z
			 M130.545,121.955c-0.882-1.171-1.848-2.455-2.751-3.649c-1.226,1.092-2.415,2.151-3.668,3.271c1.039,1.338,1.991,2.568,3.04,3.92
			C128.242,124.369,129.364,123.195,130.545,121.955z M124.451,101.319c-1.313,1.1-2.528,2.121-3.664,3.074
			c0.951,1.368,1.847,2.653,2.699,3.878c1.207-1.108,2.396-2.197,3.579-3.281C126.122,103.667,125.183,102.346,124.451,101.319z
			 M125.972,116.154c-0.883-1.318-1.778-2.662-2.41-3.608c-1.305,1.127-2.505,2.159-3.517,3.03c0.859,1.271,1.729,2.559,2.663,3.943
			C123.822,118.369,124.91,117.248,125.972,116.154z M116.607,98.061c0.943,1.477,1.829,2.855,2.502,3.912
			c1.186-1.068,2.327-2.092,3.146-2.83c-0.822-1.317-1.675-2.689-2.426-3.895C118.572,96.346,117.406,97.363,116.607,98.061z
			 M119.02,106.401c-1.304,1.116-2.504,2.149-3.594,3.085c1.033,1.358,1.984,2.614,2.778,3.657c1.104-0.996,2.274-2.056,3.482-3.146
			C120.788,108.786,119.865,107.546,119.02,106.401z M114.364,120.655c1.074,1.349,2.066,2.593,2.976,3.734
			c1.058-1.05,2.191-2.177,3.039-3.016c-0.811-1.271-1.68-2.63-2.504-3.919C116.711,118.519,115.603,119.525,114.364,120.655z
			 M113.872,107.362c1.077-1.025,2.239-2.129,3.235-3.078c-0.911-1.386-1.804-2.737-2.584-3.925
			c-1.284,1.129-2.453,2.155-3.692,3.243C111.861,104.876,112.835,106.078,113.872,107.362z M112.909,118.624
			c1.15-1.104,2.303-2.208,3.414-3.27c-0.958-1.363-1.878-2.685-2.75-3.931c-1.272,1.145-2.453,2.21-3.713,3.344
			C110.9,116.08,111.856,117.291,112.909,118.624z M112.776,122.78c-1.301,1.087-2.519,2.103-3.654,3.046
			c0.964,1.381,1.854,2.663,2.817,4.051c1.154-1.162,2.297-2.312,3.353-3.378C114.404,125.184,113.495,123.838,112.776,122.78z
			 M112.909,98.168c-0.979-1.314-1.937-2.603-2.842-3.818c-1.251,1.121-2.436,2.182-3.485,3.12c1.025,1.376,1.972,2.649,2.949,3.965
			C110.603,100.398,111.722,99.318,112.909,98.168z M111.99,109.333c-0.994-1.341-1.951-2.63-2.837-3.821
			c-1.256,1.116-2.446,2.17-3.521,3.121c1.053,1.365,2.021,2.62,3.005,3.894C109.665,111.547,110.793,110.474,111.99,109.333z
			 M110.798,120.58c-0.91-1.384-1.797-2.731-2.614-3.975c-1.276,1.143-2.432,2.18-3.668,3.289c1.055,1.34,2.039,2.589,3.085,3.917
			C108.672,122.729,109.771,121.619,110.798,120.58z M106.605,114.47c-0.982-1.312-1.941-2.6-2.854-3.817
			c-1.239,1.107-2.423,2.168-3.491,3.12c1.033,1.376,1.987,2.646,2.971,3.954C104.298,116.699,105.415,115.617,106.605,114.47z
			 M99.302,124.95c1.048,1.361,2.016,2.62,2.819,3.663c1.073-1.023,2.221-2.117,3.298-3.137c-0.838-1.204-1.729-2.488-2.575-3.699
			C101.584,122.906,100.396,123.969,99.302,124.95z M101.162,119.677c-0.966-1.356-1.898-2.672-2.83-3.981
			c-4.02,3.394-4.02,3.394-0.797,7.188c0.032,0.039,0.095,0.044,0.043,0.021C98.806,121.796,99.995,120.729,101.162,119.677z
			 M107.333,127.826c-1.288,1.132-2.479,2.183-3.66,3.227c2.618,4.209,3.091,4.245,6.363,0.554
			C109.093,130.289,108.154,128.971,107.333,127.826z M103.902,106.608c1.151-1.171,2.294-2.337,3.543-3.608
			c-0.42-0.529-0.989-1.104-1.402-1.797c-0.415-0.689-0.677-1.496-0.99-2.218C100.887,102.68,100.856,103.066,103.902,106.608z
			 M122.568,123.581c-1.306,1.105-2.518,2.126-3.603,3.044c0.751,1.1,1.45,2.121,2.222,3.258c1.368-0.814,2.736-1.63,4.033-2.404
			C124.186,125.955,123.276,124.625,122.568,123.581z M97.355,126.846c-2.77,2.416-2.528,4.023,0.604,5.813
			c0.81-0.666,1.553-1.275,2.256-1.853C99.259,129.483,98.353,128.227,97.355,126.846z M114.795,96.391
			c1.071-1.099,2.199-2.253,3.329-3.411c-0.994-1.444-3.385-1.508-6.073-0.071C112.952,94.051,113.836,95.173,114.795,96.391z
			 M125.978,99.176c1.114,1.403,2.1,2.641,3.096,3.895c0.612-0.528,1.292-1.122,2.121-1.84c-1.089-1.432-2.047-2.686-3.039-3.984
			C127.366,97.945,126.684,98.548,125.978,99.176z M133.314,113.038c-1.333,1.21-2.51,2.279-3.417,3.1
			c0.689,1.186,1.374,2.362,2.192,3.766C132.849,117.456,133.993,115.463,133.314,113.038z M99.903,105.229
			c-0.206,2.676-2.715,4.049-1.536,6.613c1.348-1.2,2.543-2.263,3.714-3.305C101.458,107.594,100.848,106.668,99.903,105.229z
			 M90.828,133.006c-0.702,1.666-1.369,3.243-2.169,5.141c1.824-0.602,3.333-1.101,4.828-1.592
			C92.556,135.313,91.745,134.229,90.828,133.006z M113.529,131.851c0.042,0.185,0.084,0.369,0.126,0.556
			c1.807,0.296,3.348-0.859,5.192-1.473c-0.688-0.972-1.221-1.72-1.726-2.434C115.835,129.7,114.682,130.775,113.529,131.851z
			 M124.583,96.712c0.352-0.232,1.006-0.665,1.945-1.288c-1.814-0.999-3.207-1.762-4.598-2.528c-0.03,0.089-0.059,0.18-0.085,0.271
			C122.805,94.412,123.768,95.657,124.583,96.712z M130.665,104.916c0.996,1.55,1.825,2.838,2.65,4.124
			c0.119-0.064,0.238-0.133,0.35-0.199c-0.451-1.708-0.906-3.42-1.375-5.185C131.541,104.236,131.01,104.649,130.665,104.916z"/>
		<path fill-rule="evenodd" clip-rule="evenodd" fill="#FFFFFF" d="M131.504,111.036c-1.12,1.083-2.243,2.165-3.288,3.173
			c-0.997-1.294-1.97-2.551-3.026-3.915c1.134-0.972,2.337-2.009,3.613-3.101C129.606,108.331,130.503,109.61,131.504,111.036z"/>
		<path fill-rule="evenodd" clip-rule="evenodd" fill="#FFFFFF" d="M130.545,121.955c-1.181,1.24-2.303,2.414-3.38,3.541
			c-1.048-1.352-2.001-2.582-3.04-3.92c1.254-1.119,2.443-2.179,3.668-3.271C128.697,119.5,129.663,120.784,130.545,121.955z"/>
		<path fill-rule="evenodd" clip-rule="evenodd" fill="#FFFFFF" d="M124.451,101.319c0.732,1.026,1.671,2.348,2.614,3.671
			c-1.182,1.084-2.372,2.173-3.579,3.281c-0.853-1.225-1.748-2.51-2.699-3.878C121.922,103.44,123.138,102.419,124.451,101.319z"/>
		<path fill-rule="evenodd" clip-rule="evenodd" fill="#FFFFFF" d="M125.972,116.154c-1.062,1.094-2.149,2.215-3.264,3.365
			c-0.934-1.385-1.804-2.672-2.663-3.943c1.012-0.871,2.211-1.903,3.517-3.03C124.193,113.492,125.089,114.836,125.972,116.154z"/>
		<path fill-rule="evenodd" clip-rule="evenodd" fill="#FFFFFF" d="M116.607,98.061c0.799-0.697,1.965-1.715,3.222-2.813
			c0.751,1.205,1.604,2.577,2.426,3.895c-0.819,0.738-1.96,1.762-3.146,2.83C118.436,100.916,117.551,99.537,116.607,98.061z"/>
		<path fill-rule="evenodd" clip-rule="evenodd" fill="#FFFFFF" d="M119.02,106.401c0.845,1.145,1.768,2.385,2.667,3.596
			c-1.208,1.091-2.378,2.15-3.482,3.146c-0.793-1.043-1.745-2.299-2.778-3.657C116.516,108.551,117.716,107.518,119.02,106.401z"/>
		<path fill-rule="evenodd" clip-rule="evenodd" fill="#FFFFFF" d="M114.364,120.655c1.239-1.13,2.347-2.137,3.51-3.2
			c0.824,1.289,1.693,2.647,2.504,3.919c-0.847,0.839-1.98,1.966-3.039,3.016C116.43,123.248,115.438,122.004,114.364,120.655z"/>
		<path fill-rule="evenodd" clip-rule="evenodd" fill="#FFFFFF" d="M113.872,107.362c-1.037-1.284-2.011-2.486-3.042-3.76
			c1.24-1.088,2.408-2.114,3.692-3.243c0.781,1.188,1.673,2.539,2.584,3.925C116.111,105.233,114.949,106.337,113.872,107.362z"/>
		<path fill-rule="evenodd" clip-rule="evenodd" fill="#FFFFFF" d="M112.909,118.624c-1.053-1.333-2.009-2.544-3.05-3.856
			c1.261-1.134,2.441-2.199,3.713-3.344c0.873,1.246,1.792,2.567,2.75,3.931C115.212,116.416,114.059,117.52,112.909,118.624z"/>
		<path fill-rule="evenodd" clip-rule="evenodd" fill="#FFFFFF" d="M112.776,122.78c0.718,1.058,1.628,2.403,2.517,3.719
			c-1.056,1.066-2.199,2.216-3.353,3.378c-0.963-1.388-1.853-2.67-2.817-4.051C110.258,124.883,111.476,123.867,112.776,122.78z"/>
		<path fill-rule="evenodd" clip-rule="evenodd" fill="#FFFFFF" d="M112.909,98.168c-1.187,1.15-2.306,2.23-3.378,3.267
			c-0.978-1.315-1.924-2.589-2.949-3.965c1.049-0.938,2.234-1.999,3.485-3.12C110.972,95.565,111.93,96.854,112.909,98.168z"/>
		<path fill-rule="evenodd" clip-rule="evenodd" fill="#FFFFFF" d="M111.99,109.333c-1.197,1.141-2.325,2.214-3.353,3.193
			c-0.984-1.273-1.953-2.528-3.005-3.894c1.075-0.951,2.265-2.005,3.521-3.121C110.039,106.703,110.996,107.992,111.99,109.333z"/>
		<path fill-rule="evenodd" clip-rule="evenodd" fill="#FFFFFF" d="M110.798,120.58c-1.027,1.039-2.126,2.149-3.197,3.231
			c-1.046-1.328-2.03-2.577-3.085-3.917c1.236-1.109,2.392-2.146,3.668-3.289C109.001,117.849,109.888,119.196,110.798,120.58z"/>
		<path fill-rule="evenodd" clip-rule="evenodd" fill="#FFFFFF" d="M106.605,114.47c-1.19,1.147-2.307,2.229-3.374,3.257
			c-0.984-1.308-1.938-2.578-2.971-3.954c1.067-0.952,2.252-2.013,3.491-3.12C104.664,111.87,105.623,113.158,106.605,114.47z"/>
		<path fill-rule="evenodd" clip-rule="evenodd" fill="#FFFFFF" d="M99.302,124.95c1.095-0.981,2.282-2.044,3.542-3.173
			c0.846,1.211,1.737,2.495,2.575,3.699c-1.077,1.02-2.225,2.113-3.298,3.137C101.318,127.57,100.35,126.312,99.302,124.95z"/>
		<path fill-rule="evenodd" clip-rule="evenodd" fill="#FFFFFF" d="M101.162,119.677c-1.167,1.053-2.356,2.119-3.583,3.228
			c0.051,0.023-0.011,0.019-0.043-0.021c-3.222-3.795-3.222-3.795,0.797-7.188C99.264,117.005,100.196,118.32,101.162,119.677z"/>
		<path fill-rule="evenodd" clip-rule="evenodd" fill="#FFFFFF" d="M107.333,127.826c0.82,1.145,1.76,2.463,2.704,3.782
			c-3.272,3.689-3.745,3.653-6.363-0.556C104.854,130.009,106.046,128.958,107.333,127.826z"/>
		<path fill-rule="evenodd" clip-rule="evenodd" fill="#FFFFFF" d="M103.902,106.608c-3.046-3.542-3.015-3.929,1.152-7.623
			c0.313,0.722,0.575,1.528,0.99,2.218c0.413,0.693,0.981,1.268,1.402,1.797C106.197,104.271,105.054,105.438,103.902,106.608z"/>
		<path fill-rule="evenodd" clip-rule="evenodd" fill="#FFFFFF" d="M122.568,123.581c0.708,1.044,1.617,2.374,2.652,3.897
			c-1.296,0.774-2.665,1.59-4.033,2.404c-0.772-1.137-1.471-2.158-2.222-3.258C120.05,125.707,121.263,124.687,122.568,123.581z"/>
		<path fill-rule="evenodd" clip-rule="evenodd" fill="#FFFFFF" d="M97.355,126.846c0.998,1.381,1.904,2.638,2.86,3.96
			c-0.703,0.577-1.446,1.187-2.256,1.853C94.827,130.869,94.585,129.262,97.355,126.846z"/>
		<path fill-rule="evenodd" clip-rule="evenodd" fill="#FFFFFF" d="M114.795,96.391c-0.959-1.218-1.843-2.34-2.744-3.482
			c2.688-1.437,5.079-1.373,6.073,0.071C116.994,94.138,115.866,95.292,114.795,96.391z"/>
		<path fill-rule="evenodd" clip-rule="evenodd" fill="#FFFFFF" d="M125.978,99.176c0.706-0.628,1.389-1.23,2.178-1.93
			c0.992,1.299,1.949,2.553,3.039,3.984c-0.828,0.718-1.509,1.312-2.121,1.84C128.077,101.816,127.092,100.579,125.978,99.176z"/>
		<path fill-rule="evenodd" clip-rule="evenodd" fill="#FFFFFF" d="M133.314,113.038c0.678,2.425-0.466,4.418-1.225,6.865
			c-0.818-1.403-1.503-2.58-2.192-3.766C130.804,115.317,131.981,114.248,133.314,113.038z"/>
		<path fill-rule="evenodd" clip-rule="evenodd" fill="#FFFFFF" d="M99.903,105.229c0.945,1.439,1.555,2.365,2.178,3.309
			c-1.171,1.042-2.366,2.104-3.714,3.305C97.188,109.277,99.697,107.904,99.903,105.229z"/>
		<path fill-rule="evenodd" clip-rule="evenodd" fill="#FFFFFF" d="M90.828,133.006c0.917,1.223,1.728,2.307,2.659,3.549
			c-1.495,0.491-3.004,0.99-4.828,1.592C89.458,136.249,90.125,134.672,90.828,133.006z"/>
		<path fill-rule="evenodd" clip-rule="evenodd" fill="#FFFFFF" d="M113.529,131.851c1.152-1.075,2.306-2.15,3.592-3.351
			c0.505,0.714,1.038,1.462,1.726,2.434c-1.845,0.613-3.386,1.769-5.192,1.473C113.614,132.22,113.571,132.035,113.529,131.851z"/>
		<path fill-rule="evenodd" clip-rule="evenodd" fill="#FFFFFF" d="M124.583,96.712c-0.814-1.055-1.778-2.3-2.739-3.546
			c0.026-0.091,0.056-0.182,0.085-0.271c1.391,0.767,2.784,1.529,4.598,2.528C125.589,96.047,124.934,96.479,124.583,96.712z"/>
		<path fill-rule="evenodd" clip-rule="evenodd" fill="#FFFFFF" d="M130.665,104.916c0.345-0.267,0.876-0.68,1.625-1.26
			c0.47,1.765,0.925,3.477,1.375,5.185c-0.112,0.066-0.231,0.135-0.35,0.199C132.49,107.754,131.661,106.466,130.665,104.916z"/>
	</g>
</g>
<g>
	<path fill="#FFFFFF" d="M38.397,27.641h-2.185v-1.9h6.46v1.9h-2.185V39.04h-2.09V27.641z"/>
	<path fill="#FFFFFF" d="M43.679,25.74h5.7v1.9h-3.61v3.515h2.869v1.899H45.77v4.086h3.61v1.899h-5.7V25.74z"/>
	<path fill="#FFFFFF" d="M50.576,25.74h2.622l2.033,7.961h0.038V25.74h1.862v13.3h-2.147l-2.508-9.709h-0.038v9.709h-1.862V25.74z"
		/>
	<path fill="#FFFFFF" d="M58.689,25.74h2.622l2.033,7.961h0.038V25.74h1.862v13.3h-2.147l-2.508-9.709h-0.038v9.709h-1.862V25.74z"
		/>
	<path fill="#FFFFFF" d="M66.802,25.74h2.09v13.3h-2.09V25.74z"/>
	<path fill="#FFFFFF" d="M70.868,38.365c-0.52-0.576-0.779-1.402-0.779-2.479v-0.761h1.976v0.912c0,0.861,0.361,1.292,1.083,1.292
		c0.354,0,0.624-0.104,0.808-0.313c0.183-0.209,0.275-0.548,0.275-1.017c0-0.557-0.127-1.048-0.38-1.473
		c-0.254-0.424-0.722-0.934-1.406-1.529c-0.861-0.76-1.463-1.447-1.805-2.062c-0.342-0.614-0.513-1.308-0.513-2.081
		c0-1.051,0.266-1.864,0.798-2.441c0.532-0.576,1.305-0.864,2.318-0.864c1,0,1.758,0.288,2.271,0.864
		c0.513,0.577,0.77,1.403,0.77,2.48v0.551h-1.976v-0.684c0-0.457-0.089-0.789-0.266-0.998c-0.178-0.209-0.437-0.313-0.779-0.313
		c-0.697,0-1.045,0.425-1.045,1.272c0,0.482,0.13,0.932,0.39,1.35c0.259,0.418,0.731,0.924,1.416,1.52
		c0.874,0.76,1.476,1.451,1.805,2.071c0.33,0.62,0.494,1.349,0.494,2.185c0,1.09-0.269,1.926-0.808,2.508
		c-0.538,0.584-1.32,0.875-2.346,0.875C72.153,39.23,71.387,38.941,70.868,38.365z"/>
	<path fill="#FFFFFF" d="M81.213,38.375c-0.526-0.57-0.789-1.374-0.789-2.413v-7.144c0-1.039,0.263-1.844,0.789-2.413
		c0.525-0.57,1.289-0.855,2.29-0.855c1,0,1.764,0.285,2.29,0.855c0.525,0.569,0.788,1.374,0.788,2.413v1.406h-1.976v-1.539
		c0-0.824-0.349-1.235-1.045-1.235c-0.696,0-1.045,0.411-1.045,1.235v7.429c0,0.811,0.349,1.216,1.045,1.216
		c0.697,0,1.045-0.405,1.045-1.216v-2.033h1.976v1.881c0,1.039-0.263,1.843-0.788,2.413c-0.526,0.57-1.289,0.855-2.29,0.855
		C82.501,39.23,81.738,38.945,81.213,38.375z"/>
	<path fill="#FFFFFF" d="M88.537,38.355c-0.544-0.582-0.817-1.405-0.817-2.469v-6.992c0-1.064,0.272-1.888,0.817-2.471
		c0.544-0.582,1.33-0.874,2.356-0.874c1.026,0,1.812,0.292,2.356,0.874c0.545,0.583,0.817,1.406,0.817,2.471v6.992
		c0,1.063-0.272,1.887-0.817,2.469c-0.544,0.584-1.33,0.875-2.356,0.875C89.867,39.23,89.082,38.939,88.537,38.355z M91.976,36.02
		v-7.258c0-0.875-0.361-1.312-1.083-1.312c-0.722,0-1.083,0.437-1.083,1.312v7.258c0,0.873,0.361,1.311,1.083,1.311
		C91.615,37.33,91.976,36.893,91.976,36.02z"/>
	<path fill="#FFFFFF" d="M96.194,38.365c-0.532-0.576-0.798-1.402-0.798-2.479V25.74h2.09v10.298c0,0.456,0.092,0.786,0.275,0.987
		c0.184,0.203,0.447,0.305,0.789,0.305c0.342,0,0.605-0.102,0.789-0.305c0.184-0.201,0.275-0.531,0.275-0.987V25.74h2.014v10.146
		c0,1.076-0.266,1.902-0.798,2.479c-0.532,0.576-1.305,0.865-2.318,0.865S96.727,38.941,96.194,38.365z"/>
	<path fill="#FFFFFF" d="M103.11,25.74h3.097c1.077,0,1.862,0.25,2.356,0.75c0.494,0.501,0.741,1.271,0.741,2.309v0.817
		c0,1.38-0.456,2.255-1.368,2.622v0.037c0.506,0.152,0.865,0.463,1.074,0.932s0.313,1.096,0.313,1.881v2.337
		c0,0.38,0.012,0.688,0.038,0.922s0.089,0.466,0.19,0.693h-2.128c-0.076-0.216-0.126-0.418-0.152-0.608
		c-0.025-0.189-0.038-0.531-0.038-1.025v-2.432c0-0.608-0.098-1.033-0.294-1.273s-0.535-0.361-1.017-0.361H105.2v5.7h-2.09V25.74z
		 M105.96,31.439c0.418,0,0.731-0.107,0.94-0.322s0.313-0.576,0.313-1.083v-1.026c0-0.48-0.085-0.829-0.256-1.045
		c-0.171-0.215-0.44-0.322-0.808-0.322h-0.95v3.799H105.96z"/>
	<path fill="#FFFFFF" d="M112.363,27.641h-2.185v-1.9h6.46v1.9h-2.185V39.04h-2.09V27.641z"/>
	<path fill="#FFFFFF" d="M118.063,38.365c-0.52-0.576-0.779-1.402-0.779-2.479v-0.761h1.976v0.912c0,0.861,0.361,1.292,1.083,1.292
		c0.354,0,0.624-0.104,0.808-0.313c0.183-0.209,0.275-0.548,0.275-1.017c0-0.557-0.127-1.048-0.38-1.473
		c-0.254-0.424-0.722-0.934-1.406-1.529c-0.861-0.76-1.463-1.447-1.805-2.062c-0.342-0.614-0.513-1.308-0.513-2.081
		c0-1.051,0.266-1.864,0.798-2.441c0.532-0.576,1.305-0.864,2.318-0.864c1,0,1.758,0.288,2.271,0.864
		c0.513,0.577,0.77,1.403,0.77,2.48v0.551h-1.976v-0.684c0-0.457-0.089-0.789-0.266-0.998c-0.178-0.209-0.437-0.313-0.779-0.313
		c-0.697,0-1.045,0.425-1.045,1.272c0,0.482,0.13,0.932,0.39,1.35c0.259,0.418,0.731,0.924,1.416,1.52
		c0.874,0.76,1.476,1.451,1.805,2.071c0.33,0.62,0.494,1.349,0.494,2.185c0,1.09-0.269,1.926-0.808,2.508
		c-0.538,0.584-1.32,0.875-2.346,0.875C119.349,39.23,118.583,38.941,118.063,38.365z"/>
</g>
</svg>
