<?xml version="1.0" encoding="utf-8"?>
<!-- Generator: Adobe Illustrator 16.0.0, SVG Export Plug-In . SVG Version: 6.00 Build 0)  -->
<!DOCTYPE svg PUBLIC "-//W3C//DTD SVG 1.1//EN" "http://www.w3.org/Graphics/SVG/1.1/DTD/svg11.dtd">
<svg version="1.1" id="Layer_1" xmlns="http://www.w3.org/2000/svg" xmlns:xlink="http://www.w3.org/1999/xlink" x="0px" y="0px"
	 width="157px" height="179px" viewBox="0 0 157 179" enable-background="new 0 0 157 179" xml:space="preserve">
<rect x="1" y="1" fill-rule="evenodd" clip-rule="evenodd" fill="#FFFFFF" stroke="#627D53" stroke-width="2" stroke-miterlimit="10" width="155" height="177"/>
<rect x="1" y="1" fill-rule="evenodd" clip-rule="evenodd" fill="#627D53" width="155" height="56"/>
<g>
	<path fill-rule="evenodd" clip-rule="evenodd" fill="#627D53" d="M128.47,170.19c-30.046-0.018-60.093-0.036-90.14-0.054
		c-1.007-0.001-2.015,0-3.479,0c1.508-2.659,2.763-5.109,4.286-7.381c0.354-0.528,1.622-0.613,2.469-0.614
		c21.16-0.033,42.32-0.025,63.479-0.025c5.333,0,10.666,0.059,15.997-0.038c1.517-0.027,2.47,0.383,3.312,1.678
		c1.229,1.89,2.706,3.621,4.076,5.419C128.47,169.513,128.47,169.853,128.47,170.19z"/>
	<path fill-rule="evenodd" clip-rule="evenodd" fill="#627D53" d="M110.7,156.224c3.27,0.328,6.056,0.456,8.766,0.979
		c0.732,0.142,1.232,1.483,2.218,2.766c-4.95-0.36-9.405,0.821-13.809-1.063c-8.224-3.517-16.538-6.824-24.771-10.322
		c-1.6-0.68-2.933-0.746-4.546-0.063c-6.839,2.897-13.857,5.401-20.562,8.573c-5.488,2.596-11.054,3.403-17.058,2.681
		c0.542-2.225,1.695-3.349,4.323-3.301c5.449,0.097,5.452-0.052,5.452-5.57c0-3.555,0.105-7.114-0.044-10.665
		c-0.073-1.726,0.557-2.86,2.056-3.326c5.215-1.619,10.381-3.602,15.725-4.557c11.991-2.139,23.914-1.208,35.588,2.323
		c6.666,2.016,6.651,2.075,6.662,8.983C110.706,147.871,110.7,152.077,110.7,156.224z M74.56,141.467
		c0-1.683,0.176-3.394-0.078-5.036c-0.119-0.771-1.07-1.413-1.645-2.114c-0.592,0.674-1.658,1.319-1.697,2.023
		c-0.183,3.272-0.183,6.566-0.003,9.839c0.041,0.737,1.061,1.421,1.63,2.13c0.597-0.682,1.577-1.297,1.709-2.06
		C74.745,144.697,74.556,143.065,74.56,141.467z M94.926,142.737c0,1.693-0.182,3.415,0.081,5.066
		c0.121,0.757,1.112,1.375,1.709,2.057c0.56-0.637,1.569-1.251,1.602-1.914c0.166-3.378,0.166-6.77,0.005-10.147
		c-0.031-0.646-1.045-1.243-1.605-1.861c-0.598,0.658-1.586,1.251-1.713,1.989C94.739,139.489,94.923,141.13,94.926,142.737z
		 M87.054,141.202c0.004,0,0.007,0,0.011,0c0,1.773-0.135,3.562,0.076,5.31c0.07,0.579,1.039,1.468,1.582,1.456
		c0.562-0.011,1.562-0.924,1.584-1.475c0.146-3.539,0.16-7.092-0.005-10.631c-0.028-0.6-1.129-1.15-1.735-1.723
		c-0.504,0.581-1.371,1.121-1.443,1.752C86.923,137.642,87.054,139.429,87.054,141.202z M66.521,142.841
		c0-1.687,0.152-3.393-0.074-5.049c-0.092-0.673-1.006-1.236-1.547-1.849c-0.562,0.593-1.579,1.163-1.609,1.781
		c-0.161,3.365-0.174,6.746,0,10.109c0.036,0.698,1.08,1.342,1.659,2.011c0.524-0.731,1.382-1.413,1.503-2.208
		C66.692,146.071,66.523,144.443,66.521,142.841z M82.368,140.422c0-1.604,0.162-3.232-0.078-4.799
		c-0.101-0.655-1.056-1.179-1.623-1.764c-0.516,0.55-1.453,1.084-1.479,1.655c-0.144,3.285-0.159,6.585,0.005,9.867
		c0.031,0.622,1.062,1.192,1.631,1.787c0.516-0.646,1.376-1.242,1.477-1.947C82.528,143.65,82.373,142.024,82.368,140.422z
		 M58.511,145.565c0-1.516,0.161-3.057-0.072-4.536c-0.107-0.683-0.984-1.245-1.511-1.862c-0.56,0.584-1.57,1.147-1.604,1.761
		c-0.164,3.106-0.164,6.231,0.002,9.338c0.031,0.598,1.062,1.141,1.631,1.708c0.519-0.619,1.379-1.188,1.485-1.872
		C58.673,148.62,58.514,147.08,58.511,145.565z M106.21,145.549c0-1.516,0.16-3.055-0.071-4.532
		c-0.105-0.679-0.978-1.239-1.502-1.852c-0.543,0.594-1.525,1.164-1.557,1.783c-0.161,3.104-0.16,6.228,0.003,9.332
		c0.031,0.592,1.054,1.131,1.62,1.694c0.501-0.543,1.358-1.04,1.436-1.64C106.342,148.763,106.207,147.146,106.21,145.549z"/>
	<path fill-rule="evenodd" clip-rule="evenodd" fill="#394730" d="M99.438,107.458c-6.235-0.811-12.62-2.295-19.003-2.284
		c-6.4,0.008-12.798,1.508-19.099,2.343c0.077-6.687,6.948-16.72,13.753-19.248c4.863-1.806,9.468-1.086,13.714,1.829
		C93.895,93.595,98.693,101.7,99.438,107.458z"/>
	<path fill-rule="evenodd" clip-rule="evenodd" fill="#627D53" d="M60.299,126.267c-1.904,0.585-3.588,1.1-5.518,1.691
		c0-2.271-0.185-4.389,0.086-6.446c0.118-0.893,1.011-2.099,1.837-2.414c4.854-1.854,9.676-4.065,14.726-5.067
		c9.176-1.817,18.327-0.881,27.187,2.292c0.635,0.227,1.277,0.44,1.894,0.713c5.954,2.612,6.53,3.606,5.91,10.488
		c-1.938-0.534-3.826-1.058-5.837-1.614c0-1.601,0.109-3.13-0.06-4.626c-0.06-0.528-0.802-0.979-1.232-1.465
		c-0.449,0.477-1.203,0.905-1.287,1.438c-0.192,1.234-0.061,2.52-0.061,4.01c-1.155-0.178-2.174-0.335-3.516-0.541
		c0-1.501,0.149-3.021-0.058-4.492c-0.115-0.822-0.821-1.563-1.26-2.339c-0.466,0.738-1.199,1.43-1.337,2.226
		c-0.224,1.291-0.061,2.651-0.061,4.16c-1.35-0.197-2.405-0.351-3.66-0.533c0-1.865,0.097-3.642-0.056-5.396
		c-0.049-0.551-0.767-1.044-1.178-1.563c-0.504,0.53-1.371,1.015-1.44,1.597c-0.198,1.647-0.069,3.336-0.069,5.069
		c-1.27,0-2.26,0-3.532,0c0-1.936,0.113-3.781-0.066-5.599c-0.057-0.576-0.896-1.073-1.377-1.607
		c-0.404,0.524-1.107,1.022-1.155,1.577c-0.149,1.759-0.055,3.539-0.055,5.533c-1.122,0.15-2.154,0.289-3.522,0.471
		c0-1.901,0.124-3.588-0.063-5.237c-0.071-0.631-0.852-1.181-1.31-1.768c-0.475,0.558-1.188,1.048-1.368,1.688
		c-0.242,0.864-0.079,1.845-0.083,2.775c-0.012,3.04-0.159,3.167-3.59,2.866c0-1.493,0.131-3.025-0.062-4.513
		c-0.082-0.629-0.846-1.169-1.3-1.748c-0.452,0.597-1.218,1.157-1.294,1.8c-0.189,1.582-0.062,3.202-0.062,5.101
		c-1.093,0.246-2.166,0.486-3.51,0.788c0-1.652,0.128-3.014-0.063-4.329c-0.076-0.523-0.858-0.944-1.318-1.412
		c-0.426,0.493-1.165,0.953-1.22,1.486C60.195,122.913,60.299,124.527,60.299,126.267z"/>
	<path fill-rule="evenodd" clip-rule="evenodd" fill="#627D53" d="M57.034,159.805c7.738-3.171,14.901-6.151,22.115-9.006
		c0.909-0.358,2.203-0.375,3.106-0.017c7.213,2.861,14.374,5.852,22.084,9.022C88.396,159.805,73.006,159.805,57.034,159.805z"/>
	<path fill-rule="evenodd" clip-rule="evenodd" fill="#627D53" d="M113.673,136.171c-21.768-9.552-43.252-9.638-64.893-0.095
		c-0.69-1.83,0.533-2.926,2.229-3.854c5.952-3.253,12.475-4.641,19.071-5.586c11.875-1.701,23.585-0.733,35.011,2.983
		c2.228,0.727,4.321,1.872,6.458,2.861C113.31,133.297,114.094,134.632,113.673,136.171z"/>
	<path fill-rule="evenodd" clip-rule="evenodd" fill="#627D53" d="M52.85,118.459c-0.148-1.97,0.805-3.547,2.696-4.764
		c6.285-4.041,13.356-5.665,20.606-6.346c8.623-0.812,17.007,0.664,24.997,4.055c1.694,0.72,3.252,1.775,4.832,2.745
		c1.754,1.076,2.59,2.592,2.065,4.349C89.633,108.229,71.335,108.282,52.85,118.459z"/>
	<path fill-rule="evenodd" clip-rule="evenodd" fill="#627D53" d="M84.345,85.151c-2.632,0-4.882,0-7.385,0
		c0-2.49-0.226-4.948,0.067-7.344c0.269-2.198,2.274-2.199,3.969-2.102c1.475,0.087,3.254,0.05,3.331,2.221
		C84.409,80.276,84.345,82.632,84.345,85.151z"/>
	<path fill-rule="evenodd" clip-rule="evenodd" fill="#627D53" d="M81.916,73.992c-1.13,0-1.773,0-2.857,0
		c0.318-3.735,0.627-7.376,0.938-11.015c0.28-0.007,0.561-0.012,0.841-0.02C81.187,66.533,81.536,70.108,81.916,73.992z"/>
</g>
<g>
	<g>
		<path fill="#FFFFFF" d="M32.686,27.663c-0.476-0.516-0.714-1.255-0.714-2.218v-6.257c0-0.963,0.238-1.702,0.714-2.218
			s1.167-0.773,2.074-0.773c0.906,0,1.598,0.258,2.074,0.773s0.714,1.255,0.714,2.218v1.021H35.78V19.07
			c0-0.783-0.323-1.174-0.969-1.174s-0.969,0.391-0.969,1.174v6.51c0,0.771,0.323,1.156,0.969,1.156s0.969-0.385,0.969-1.156v-2.328
			h-0.935v-1.7h2.703v3.894c0,0.963-0.238,1.702-0.714,2.218s-1.167,0.773-2.074,0.773C33.853,28.437,33.162,28.179,32.686,27.663z"
			/>
		<path fill="#FFFFFF" d="M39.35,27.654c-0.487-0.521-0.731-1.258-0.731-2.209v-6.257c0-0.952,0.244-1.688,0.731-2.21
			s1.19-0.781,2.108-0.781s1.621,0.26,2.108,0.781s0.731,1.258,0.731,2.21v6.257c0,0.951-0.244,1.688-0.731,2.209
			s-1.19,0.782-2.108,0.782S39.837,28.176,39.35,27.654z M42.427,25.563V19.07c0-0.783-0.323-1.174-0.969-1.174
			s-0.969,0.391-0.969,1.174v6.493c0,0.782,0.323,1.173,0.969,1.173S42.427,26.346,42.427,25.563z"/>
		<path fill="#FFFFFF" d="M45.027,16.367h1.887l1.224,9.23h0.034l1.224-9.23h1.717l-1.802,11.899h-2.482L45.027,16.367z"/>
		<path fill="#FFFFFF" d="M52.014,16.367h5.1v1.699h-3.23v3.145h2.567v1.701h-2.567v3.654h3.23v1.7h-5.1V16.367z"/>
		<path fill="#FFFFFF" d="M58.185,16.367h2.771c0.963,0,1.666,0.223,2.108,0.671c0.442,0.448,0.663,1.136,0.663,2.065v0.73
			c0,1.236-0.408,2.018-1.224,2.347v0.034c0.453,0.136,0.773,0.414,0.96,0.832c0.187,0.42,0.28,0.98,0.28,1.684v2.092
			c0,0.34,0.011,0.614,0.034,0.824c0.022,0.209,0.079,0.416,0.17,0.62h-1.904c-0.068-0.192-0.114-0.374-0.136-0.544
			c-0.023-0.17-0.034-0.477-0.034-0.918v-2.176c0-0.545-0.088-0.924-0.264-1.139c-0.176-0.216-0.479-0.324-0.91-0.324h-0.646v5.101
			h-1.87V16.367z M60.735,21.467c0.374,0,0.654-0.096,0.841-0.289s0.281-0.516,0.281-0.969v-0.918c0-0.432-0.077-0.742-0.229-0.936
			c-0.153-0.192-0.394-0.289-0.723-0.289h-0.85v3.4H60.735z"/>
		<path fill="#FFFFFF" d="M65.036,16.367h2.346l1.819,7.123h0.034v-7.123h1.666v11.899H68.98l-2.244-8.687h-0.034v8.687h-1.666
			V16.367z"/>
		<path fill="#FFFFFF" d="M72.294,16.367h2.669l1.19,8.517h0.034l1.19-8.517h2.669v11.899h-1.768v-9.01h-0.034l-1.36,9.01h-1.564
			l-1.36-9.01h-0.034v9.01h-1.632V16.367z"/>
		<path fill="#FFFFFF" d="M81.44,16.367h5.1v1.699h-3.23v3.145h2.567v1.701h-2.567v3.654h3.23v1.7h-5.1V16.367z"/>
		<path fill="#FFFFFF" d="M87.611,16.367h2.346l1.819,7.123h0.034v-7.123h1.666v11.899h-1.921l-2.244-8.687h-0.034v8.687h-1.666
			V16.367z"/>
		<path fill="#FFFFFF" d="M96.333,18.066h-1.955v-1.699h5.78v1.699h-1.955v10.2h-1.87V18.066z"/>
		<path fill="#FFFFFF" d="M104.373,27.654c-0.487-0.521-0.731-1.258-0.731-2.209v-6.257c0-0.952,0.244-1.688,0.731-2.21
			s1.19-0.781,2.108-0.781s1.621,0.26,2.108,0.781s0.731,1.258,0.731,2.21v6.257c0,0.951-0.244,1.688-0.731,2.209
			s-1.19,0.782-2.108,0.782S104.86,28.176,104.373,27.654z M107.45,25.563V19.07c0-0.783-0.323-1.174-0.969-1.174
			s-0.969,0.391-0.969,1.174v6.493c0,0.782,0.323,1.173,0.969,1.173S107.45,26.346,107.45,25.563z"/>
		<path fill="#FFFFFF" d="M110.578,16.367h2.771c0.963,0,1.666,0.223,2.108,0.671c0.442,0.448,0.663,1.136,0.663,2.065v0.73
			c0,1.236-0.408,2.018-1.224,2.347v0.034c0.453,0.136,0.773,0.414,0.96,0.832c0.187,0.42,0.28,0.98,0.28,1.684v2.092
			c0,0.34,0.011,0.614,0.034,0.824c0.022,0.209,0.079,0.416,0.17,0.62h-1.904c-0.068-0.192-0.114-0.374-0.136-0.544
			c-0.023-0.17-0.034-0.477-0.034-0.918v-2.176c0-0.545-0.088-0.924-0.264-1.139c-0.176-0.216-0.479-0.324-0.91-0.324h-0.646v5.101
			h-1.87V16.367z M113.128,21.467c0.374,0,0.654-0.096,0.841-0.289s0.281-0.516,0.281-0.969v-0.918c0-0.432-0.077-0.742-0.229-0.936
			c-0.153-0.192-0.394-0.289-0.723-0.289h-0.85v3.4H113.128z"/>
		<path fill="#FFFFFF" d="M118.007,27.663c-0.476-0.516-0.714-1.255-0.714-2.218v-6.257c0-0.963,0.238-1.702,0.714-2.218
			s1.167-0.773,2.074-0.773c0.906,0,1.598,0.258,2.074,0.773s0.714,1.255,0.714,2.218v1.021h-1.768V19.07
			c0-0.783-0.323-1.174-0.969-1.174s-0.969,0.391-0.969,1.174v6.51c0,0.771,0.323,1.156,0.969,1.156s0.969-0.385,0.969-1.156v-2.328
			h-0.935v-1.7h2.703v3.894c0,0.963-0.238,1.702-0.714,2.218s-1.167,0.773-2.074,0.773
			C119.174,28.437,118.483,28.179,118.007,27.663z"/>
		<path fill="#FFFFFF" d="M124.45,27.663c-0.465-0.516-0.697-1.255-0.697-2.218v-0.681h1.768v0.815c0,0.771,0.323,1.156,0.969,1.156
			c0.317,0,0.558-0.094,0.723-0.28c0.164-0.187,0.247-0.49,0.247-0.909c0-0.499-0.113-0.938-0.34-1.318
			c-0.227-0.379-0.646-0.835-1.258-1.367c-0.771-0.681-1.309-1.295-1.615-1.846c-0.306-0.549-0.459-1.17-0.459-1.861
			c0-0.94,0.238-1.668,0.714-2.184s1.167-0.773,2.074-0.773c0.896,0,1.573,0.258,2.032,0.773s0.688,1.255,0.688,2.218v0.493h-1.768
			V19.07c0-0.408-0.08-0.706-0.238-0.893c-0.159-0.188-0.391-0.281-0.697-0.281c-0.624,0-0.935,0.38-0.935,1.139
			c0,0.432,0.116,0.834,0.349,1.207c0.232,0.375,0.654,0.828,1.267,1.36c0.782,0.681,1.32,1.298,1.615,1.853
			c0.295,0.557,0.442,1.207,0.442,1.955c0,0.975-0.241,1.723-0.723,2.244c-0.482,0.521-1.182,0.782-2.1,0.782
			C125.6,28.437,124.915,28.179,124.45,27.663z"/>
		<path fill="#FFFFFF" d="M40.266,32.767h0.791c-0.319,0.654-0.575,1.417-0.767,2.29s-0.288,1.772-0.288,2.7
			c0,0.859,0.072,1.688,0.217,2.485s0.344,1.499,0.598,2.104h-0.752c-0.241-0.579-0.433-1.261-0.576-2.046s-0.215-1.602-0.215-2.451
			c0-0.914,0.084-1.806,0.254-2.674C39.698,34.309,39.944,33.506,40.266,32.767z"/>
		<path fill="#FFFFFF" d="M42.341,34.954h0.693v6.113c0,0.446-0.081,0.771-0.242,0.974c-0.161,0.204-0.382,0.306-0.662,0.306
			c-0.231,0-0.492-0.056-0.781-0.166v-0.615c0.182,0.095,0.347,0.142,0.493,0.142c0.186,0,0.324-0.076,0.415-0.229
			c0.055-0.098,0.083-0.302,0.083-0.61V34.954z M42.678,32.767c0.156,0,0.289,0.056,0.398,0.166s0.164,0.244,0.164,0.4
			c0,0.153-0.055,0.284-0.164,0.396s-0.242,0.166-0.398,0.166s-0.289-0.055-0.398-0.166s-0.164-0.242-0.164-0.396
			c0-0.156,0.055-0.29,0.164-0.4S42.522,32.767,42.678,32.767z"/>
		<path fill="#FFFFFF" d="M44.368,34.954h0.684v2.48c0,0.605,0.033,1.022,0.098,1.25c0.098,0.325,0.285,0.583,0.56,0.771
			s0.604,0.283,0.985,0.283s0.705-0.092,0.971-0.276c0.266-0.184,0.449-0.426,0.55-0.725c0.068-0.205,0.103-0.64,0.103-1.304v-2.48
			h0.698v2.607c0,0.732-0.085,1.284-0.256,1.655s-0.428,0.662-0.771,0.871c-0.343,0.211-0.774,0.315-1.292,0.315
			s-0.95-0.104-1.296-0.315c-0.347-0.209-0.605-0.502-0.776-0.879c-0.171-0.375-0.256-0.941-0.256-1.696V34.954z"/>
		<path fill="#FFFFFF" d="M53.206,35.535l-0.439,0.454c-0.366-0.354-0.723-0.532-1.072-0.532c-0.222,0-0.412,0.073-0.57,0.22
			s-0.237,0.317-0.237,0.513c0,0.172,0.065,0.337,0.196,0.493c0.13,0.159,0.404,0.347,0.822,0.562
			c0.509,0.264,0.855,0.518,1.038,0.762c0.179,0.248,0.269,0.525,0.269,0.835c0,0.437-0.153,0.806-0.46,1.108
			c-0.306,0.303-0.689,0.454-1.149,0.454c-0.307,0-0.599-0.067-0.878-0.2s-0.509-0.317-0.692-0.552l0.43-0.488
			c0.349,0.394,0.719,0.591,1.111,0.591c0.274,0,0.507-0.088,0.7-0.264c0.192-0.176,0.289-0.383,0.289-0.62
			c0-0.195-0.063-0.37-0.191-0.522c-0.127-0.15-0.414-0.338-0.861-0.566c-0.479-0.248-0.806-0.492-0.979-0.732
			s-0.259-0.516-0.259-0.825c0-0.403,0.138-0.739,0.413-1.006c0.276-0.267,0.624-0.4,1.044-0.4
			C52.218,34.817,52.71,35.057,53.206,35.535z"/>
		<path fill="#FFFFFF" d="M55.012,32.981h0.684v1.973h1.084v0.591h-1.084v4.722h-0.684v-4.722H54.08v-0.591h0.933V32.981z"/>
		<path fill="#FFFFFF" d="M62.761,32.903v0.669c-0.25-0.107-0.465-0.161-0.645-0.161c-0.133,0-0.244,0.026-0.332,0.081
			c-0.088,0.053-0.143,0.115-0.166,0.186c-0.023,0.069-0.034,0.256-0.034,0.559l0,0.718h1.109v0.591h-1.109l-0.004,4.722h-0.684
			v-4.722h-0.698v-0.591h0.698v-0.83c0-0.381,0.035-0.653,0.105-0.815s0.189-0.294,0.356-0.393c0.167-0.1,0.37-0.149,0.608-0.149
			C62.187,32.767,62.452,32.813,62.761,32.903z"/>
		<path fill="#FFFFFF" d="M66.228,34.817c0.818,0,1.497,0.296,2.035,0.889c0.489,0.54,0.734,1.181,0.734,1.919
			c0,0.742-0.258,1.391-0.775,1.945c-0.517,0.556-1.181,0.833-1.993,0.833c-0.815,0-1.481-0.277-1.998-0.833
			c-0.517-0.555-0.775-1.203-0.775-1.945c0-0.736,0.245-1.373,0.734-1.914C64.727,35.115,65.406,34.817,66.228,34.817z
			 M66.226,35.486c-0.568,0-1.057,0.21-1.465,0.63c-0.408,0.42-0.612,0.928-0.612,1.523c0,0.384,0.093,0.742,0.279,1.074
			s0.438,0.589,0.755,0.769c0.316,0.182,0.665,0.271,1.043,0.271s0.727-0.09,1.043-0.271c0.317-0.18,0.569-0.437,0.755-0.769
			s0.279-0.69,0.279-1.074c0-0.596-0.205-1.104-0.615-1.523C67.278,35.696,66.791,35.486,66.226,35.486z"/>
		<path fill="#FFFFFF" d="M70.002,34.954h0.698v0.776c0.208-0.307,0.428-0.535,0.659-0.686c0.231-0.152,0.472-0.228,0.723-0.228
			c0.189,0,0.391,0.06,0.605,0.181l-0.356,0.576c-0.143-0.063-0.264-0.093-0.361-0.093c-0.228,0-0.448,0.094-0.659,0.28
			c-0.211,0.188-0.373,0.479-0.483,0.872c-0.084,0.303-0.127,0.915-0.127,1.836v1.797h-0.698V34.954z"/>
		<path fill="#FFFFFF" d="M75.466,34.954h0.723l1.826,4.091l1.773-4.091h0.728l-3.169,7.256h-0.722l1.023-2.346L75.466,34.954z"/>
		<path fill="#FFFFFF" d="M83.914,34.817c0.818,0,1.497,0.296,2.035,0.889c0.489,0.54,0.734,1.181,0.734,1.919
			c0,0.742-0.258,1.391-0.775,1.945c-0.517,0.556-1.181,0.833-1.993,0.833c-0.815,0-1.481-0.277-1.998-0.833
			c-0.517-0.555-0.775-1.203-0.775-1.945c0-0.736,0.245-1.373,0.734-1.914C82.412,35.115,83.092,34.817,83.914,34.817z
			 M83.911,35.486c-0.568,0-1.057,0.21-1.465,0.63c-0.408,0.42-0.612,0.928-0.612,1.523c0,0.384,0.093,0.742,0.279,1.074
			s0.438,0.589,0.755,0.769c0.316,0.182,0.665,0.271,1.043,0.271s0.727-0.09,1.043-0.271c0.317-0.18,0.569-0.437,0.755-0.769
			s0.279-0.69,0.279-1.074c0-0.596-0.205-1.104-0.615-1.523C84.964,35.696,84.476,35.486,83.911,35.486z"/>
		<path fill="#FFFFFF" d="M87.859,34.954h0.684v2.48c0,0.605,0.033,1.022,0.098,1.25c0.098,0.325,0.285,0.583,0.56,0.771
			s0.604,0.283,0.985,0.283s0.705-0.092,0.971-0.276c0.266-0.184,0.449-0.426,0.55-0.725c0.068-0.205,0.103-0.64,0.103-1.304v-2.48
			h0.698v2.607c0,0.732-0.085,1.284-0.256,1.655s-0.428,0.662-0.771,0.871c-0.343,0.211-0.774,0.315-1.292,0.315
			s-0.95-0.104-1.296-0.315c-0.347-0.209-0.605-0.502-0.776-0.879c-0.171-0.375-0.256-0.941-0.256-1.696V34.954z"/>
		<path fill="#FFFFFF" d="M93.767,34.954h0.698v0.776c0.208-0.307,0.428-0.535,0.659-0.686c0.231-0.152,0.472-0.228,0.723-0.228
			c0.189,0,0.391,0.06,0.605,0.181l-0.356,0.576c-0.143-0.063-0.264-0.093-0.361-0.093c-0.228,0-0.448,0.094-0.659,0.28
			c-0.211,0.188-0.373,0.479-0.483,0.872c-0.084,0.303-0.127,0.915-0.127,1.836v1.797h-0.698V34.954z"/>
		<path fill="#FFFFFF" d="M102.473,35.535l-0.439,0.454c-0.366-0.354-0.723-0.532-1.072-0.532c-0.222,0-0.412,0.073-0.57,0.22
			s-0.237,0.317-0.237,0.513c0,0.172,0.065,0.337,0.196,0.493c0.13,0.159,0.404,0.347,0.822,0.562
			c0.509,0.264,0.855,0.518,1.038,0.762c0.179,0.248,0.269,0.525,0.269,0.835c0,0.437-0.153,0.806-0.46,1.108
			c-0.306,0.303-0.689,0.454-1.149,0.454c-0.307,0-0.599-0.067-0.878-0.2s-0.509-0.317-0.692-0.552l0.43-0.488
			c0.349,0.394,0.719,0.591,1.111,0.591c0.274,0,0.507-0.088,0.7-0.264c0.192-0.176,0.289-0.383,0.289-0.62
			c0-0.195-0.063-0.37-0.191-0.522c-0.127-0.15-0.414-0.338-0.861-0.566c-0.479-0.248-0.806-0.492-0.979-0.732
			s-0.259-0.516-0.259-0.825c0-0.403,0.138-0.739,0.413-1.006c0.276-0.267,0.624-0.4,1.044-0.4
			C101.485,34.817,101.978,35.057,102.473,35.535z"/>
		<path fill="#FFFFFF" d="M104.28,32.981h0.684v1.973h1.084v0.591h-1.084v4.722h-0.684v-4.722h-0.933v-0.591h0.933V32.981z"/>
		<path fill="#FFFFFF" d="M112.366,34.954v5.313h-0.674v-0.913c-0.287,0.348-0.608,0.61-0.964,0.786s-0.746,0.264-1.169,0.264
			c-0.752,0-1.394-0.272-1.926-0.817c-0.532-0.546-0.798-1.209-0.798-1.99c0-0.766,0.269-1.42,0.806-1.963s1.183-0.815,1.938-0.815
			c0.436,0,0.831,0.093,1.184,0.278s0.663,0.464,0.93,0.835v-0.977H112.366z M109.634,35.477c-0.38,0-0.731,0.094-1.053,0.28
			c-0.322,0.187-0.578,0.45-0.769,0.788c-0.19,0.338-0.285,0.695-0.285,1.072c0,0.375,0.096,0.732,0.288,1.073
			c0.192,0.342,0.45,0.607,0.773,0.798c0.324,0.189,0.671,0.285,1.042,0.285c0.374,0,0.729-0.094,1.063-0.283
			c0.335-0.188,0.593-0.443,0.773-0.766c0.18-0.322,0.271-0.684,0.271-1.088c0-0.613-0.203-1.128-0.607-1.541
			C110.724,35.684,110.226,35.477,109.634,35.477z"/>
		<path fill="#FFFFFF" d="M116.091,32.903v0.669c-0.25-0.107-0.465-0.161-0.645-0.161c-0.133,0-0.244,0.026-0.332,0.081
			c-0.088,0.053-0.143,0.115-0.166,0.186c-0.023,0.069-0.034,0.256-0.034,0.559l0,0.718h1.109v0.591h-1.109l-0.004,4.722h-0.684
			v-4.722h-0.698v-0.591h0.698v-0.83c0-0.381,0.035-0.653,0.105-0.815s0.189-0.294,0.356-0.393c0.167-0.1,0.37-0.149,0.608-0.149
			C115.517,32.767,115.782,32.813,116.091,32.903z"/>
		<path fill="#FFFFFF" d="M119.26,32.903v0.669c-0.25-0.107-0.465-0.161-0.645-0.161c-0.133,0-0.244,0.026-0.332,0.081
			c-0.088,0.053-0.143,0.115-0.166,0.186c-0.023,0.069-0.034,0.256-0.034,0.559l0,0.718h1.109v0.591h-1.109l-0.004,4.722h-0.684
			v-4.722h-0.698v-0.591h0.698v-0.83c0-0.381,0.035-0.653,0.105-0.815s0.189-0.294,0.356-0.393c0.167-0.1,0.37-0.149,0.608-0.149
			C118.686,32.767,118.951,32.813,119.26,32.903z"/>
		<path fill="#FFFFFF" d="M120.847,42.347h-0.791c0.322-0.654,0.579-1.417,0.769-2.29s0.286-1.772,0.286-2.7
			c0-0.859-0.072-1.688-0.217-2.485s-0.344-1.499-0.598-2.104h0.752c0.244,0.579,0.437,1.263,0.579,2.048
			c0.142,0.787,0.212,1.604,0.212,2.454c0,0.911-0.084,1.801-0.254,2.669C121.415,40.805,121.169,41.607,120.847,42.347z"/>
	</g>
</g>
</svg>
