<?xml version="1.0" encoding="utf-8"?>
<!-- Generator: Adobe Illustrator 16.0.0, SVG Export Plug-In . SVG Version: 6.00 Build 0)  -->
<!DOCTYPE svg PUBLIC "-//W3C//DTD SVG 1.1//EN" "http://www.w3.org/Graphics/SVG/1.1/DTD/svg11.dtd">
<svg version="1.1" id="Layer_1" xmlns="http://www.w3.org/2000/svg" xmlns:xlink="http://www.w3.org/1999/xlink" x="0px" y="0px"
	 width="157px" height="179px" viewBox="0 0 157 179" enable-background="new 0 0 157 179" xml:space="preserve">
<rect x="1" y="1" fill-rule="evenodd" clip-rule="evenodd" fill="#FFFFFF" stroke="#627D53" stroke-width="2" stroke-miterlimit="10" width="155" height="177"/>
<rect x="2" y="1" fill-rule="evenodd" clip-rule="evenodd" fill="#627D53" width="155" height="56"/>
<g>
	<path fill-rule="evenodd" clip-rule="evenodd" fill="#627D53" d="M31.868,163.654c0-0.468,0-0.932,0-1.399
		c0.7-1.781,2.014-2.46,3.904-2.35c1.718,0.099,3.449,0.02,5.251,0.02c0-0.387,0-0.691,0-0.996c0-12.523,0-25.043,0-37.565
		c0-1.367-0.004-1.354-1.254-1.827c-2.986-1.125-5.26-3.086-6.594-5.985c-0.595-1.295-0.879-2.731-1.307-4.104
		c0-1.399,0-2.796,0-4.194c32.216-0.001,64.43-0.003,96.644-0.004c0.173,0,0.348,0.018,0.453,0.021c0,1.556,0.124,3.062-0.04,4.534
		c-0.128,1.16-0.487,2.338-0.961,3.408c-1.388,3.132-3.753,5.277-7,6.389c-0.77,0.264-1.045,0.608-1.044,1.461
		c0.034,12.626,0.023,25.253,0.023,37.879c0,0.304,0,0.605,0,0.983c0.365,0,0.643,0,0.921,0c1.76,0.003,3.52-0.014,5.278,0.01
		c1.23,0.016,2.105,0.645,2.646,1.723c0.505,1.012,0.48,2.061-0.232,2.923c-0.473,0.569-1.183,0.942-1.787,1.404
		c-30.857,0-61.713,0-92.573,0C33.089,165.539,32.316,164.759,31.868,163.654z M80.451,109.645
		c-0.107,0.483-0.174,0.769-0.236,1.058c-1.174,5.471-5.683,9.367-11.189,9.614c-0.682,0.032-0.723,0.331-0.723,0.861
		c0.009,12.655,0.008,25.313,0.011,37.969c0,0.245,0.031,0.489,0.049,0.737c15.21,0,30.339,0,45.552,0c0-0.369,0-0.699,0-1.028
		c0-12.45,0-24.899,0-37.349c0-1.532-0.016-1.491-1.403-2.047c-3.63-1.452-6.03-4.067-7.188-7.803
		c-0.192-0.625-0.311-1.273-0.5-2.073c-1.527,6.695-5.373,10.729-12.265,10.7C85.788,120.256,82.001,116.244,80.451,109.645z
		 M65.299,159.89c0-0.399,0-0.711,0-1.019c0-12.473,0-24.943,0-37.416c0-1.48-0.018-1.438-1.377-1.985
		c-3.854-1.555-6.323-4.349-7.36-8.384c-0.126-0.487-0.214-0.986-0.32-1.477c-0.175,0.195-0.226,0.387-0.259,0.58
		c-0.264,1.545-0.777,2.995-1.603,4.331c-1.575,2.539-3.789,4.272-6.618,5.196c-0.583,0.19-0.725,0.475-0.725,1.053
		c0.016,12.729,0.014,25.46,0.014,38.19c0,0.301,0,0.603,0,0.93C53.172,159.89,59.192,159.89,65.299,159.89z"/>
	<path fill-rule="evenodd" clip-rule="evenodd" fill="#627D53" d="M31.868,102.146c0-0.052,0-0.103,0-0.155
		c0.212-0.347,0.452-0.682,0.636-1.046c1.25-2.495,2.479-5,3.729-7.496c2.44-4.877,4.913-9.735,7.309-14.634
		c0.359-0.734,0.747-0.925,1.51-0.925c18.296,0.021,36.591,0.018,54.887,0.018c5.435,0,10.868,0.001,16.303-0.004
		c0.427,0,0.743,0.017,0.987,0.508c3.027,6.113,6.09,12.21,9.141,18.312c0.887,1.773,1.763,3.551,2.691,5.423
		C96.596,102.146,64.231,102.146,31.868,102.146z M100.218,95.884c-0.137-0.304-0.336-0.829-0.602-1.322
		c-1.273-2.358-2.566-4.71-3.856-7.063c-0.781-1.425-1.542-2.861-2.369-4.26c-0.479-0.81-1.239-1.001-1.988-0.63
		c-0.73,0.359-0.99,1.092-0.673,1.98c0.113,0.313,0.282,0.605,0.443,0.898c1.286,2.356,2.572,4.712,3.865,7.063
		c0.809,1.469,1.612,2.941,2.453,4.392c0.35,0.604,0.953,0.809,1.612,0.62C99.785,97.368,100.173,96.87,100.218,95.884z
		 M69.824,84.143c0.007-0.882-0.451-1.479-1.134-1.657c-0.726-0.188-1.417,0.173-1.818,0.975c-1.676,3.345-3.35,6.691-5.017,10.041
		c-0.366,0.738-0.751,1.475-1.025,2.248c-0.244,0.687,0.121,1.377,0.749,1.688c0.693,0.342,1.396,0.188,1.855-0.436
		c0.199-0.269,0.37-0.562,0.52-0.86c1.88-3.761,3.754-7.524,5.621-11.292C69.708,84.577,69.778,84.273,69.824,84.143z
		 M57.683,84.062c-0.081-0.86-0.409-1.386-1.128-1.568c-0.669-0.169-1.258,0.026-1.604,0.635c-0.487,0.85-0.926,1.731-1.364,2.608
		c-1.585,3.168-3.173,6.334-4.735,9.513c-0.473,0.96-0.208,1.816,0.589,2.197c0.84,0.398,1.628,0.109,2.109-0.845
		c1.945-3.855,3.872-7.718,5.796-11.581C57.514,84.679,57.602,84.298,57.683,84.062z M112.361,95.927
		c-0.048-0.145-0.113-0.451-0.248-0.723c-1.364-2.759-2.733-5.513-4.111-8.262c-0.637-1.27-1.265-2.547-1.959-3.785
		c-0.399-0.714-1.171-0.896-1.881-0.57c-0.692,0.315-1.004,1.028-0.756,1.815c0.124,0.392,0.299,0.771,0.483,1.138
		c1.047,2.107,2.105,4.21,3.158,6.313c0.812,1.617,1.619,3.238,2.442,4.851c0.385,0.752,1.001,1.042,1.716,0.854
		C111.898,97.378,112.36,96.792,112.361,95.927z M82.033,89.954c0-1.32,0-2.641-0.001-3.961c-0.001-0.646,0.023-1.295-0.013-1.94
		c-0.054-0.973-0.693-1.621-1.544-1.617c-0.843,0.003-1.459,0.659-1.535,1.635c-0.007,0.104-0.004,0.206-0.004,0.31
		c-0.002,3.755-0.003,7.508,0.003,11.261c0.001,0.306,0.021,0.631,0.121,0.915c0.239,0.677,0.743,1.069,1.47,1.048
		c0.69-0.021,1.172-0.41,1.379-1.065c0.098-0.313,0.117-0.66,0.118-0.993C82.038,93.681,82.031,91.817,82.033,89.954z"/>
	<path fill-rule="evenodd" clip-rule="evenodd" fill="#627D53" d="M114.652,68.753c0.789,0.435,1.565,0.852,1.983,1.743
		c0.883,1.878-0.396,4.149-2.463,4.3c-0.231,0.017-0.467,0.016-0.699,0.016c-21.993,0-43.986-0.005-65.98,0.009
		c-1.192,0.002-2.219-0.276-2.9-1.297c-1.093-1.637-0.514-3.641,1.261-4.512c0.156-0.077,0.306-0.173,0.457-0.259
		C69.093,68.753,91.874,68.753,114.652,68.753z"/>
	<path fill-rule="evenodd" clip-rule="evenodd" fill="#627D53" d="M31.868,163.654c0.449,1.104,1.221,1.885,2.328,2.33
		c-0.774,0-1.551,0-2.328,0C31.868,165.209,31.868,164.43,31.868,163.654z"/>
	<path fill-rule="evenodd" clip-rule="evenodd" fill="#627D53" d="M100.183,126.006c0.662,0.668,1.332,1.342,1.938,1.956
		c-5.706,5.695-11.401,11.383-17.136,17.102c-0.55-0.604-1.202-1.32-1.847-2.029C88.757,137.421,94.442,131.741,100.183,126.006z"/>
	<path fill-rule="evenodd" clip-rule="evenodd" fill="#627D53" d="M91.566,126.072c0.667,0.657,1.34,1.324,2.058,2.031
		c-0.143,0.166-0.28,0.348-0.437,0.503c-2.52,2.524-5.046,5.037-7.555,7.57c-0.36,0.361-0.591,0.471-0.986,0.033
		c-0.514-0.569-1.109-1.068-1.657-1.585C85.91,131.714,88.739,128.89,91.566,126.072z"/>
	<path fill-rule="evenodd" clip-rule="evenodd" fill="#627D53" d="M91.521,143.206c2.961-2.971,5.767-5.785,8.582-8.609
		c0.707,0.718,1.383,1.404,2.186,2.219c-1.064,1.02-2.149,2.046-3.212,3.096c-1.622,1.598-3.249,3.188-4.826,4.829
		c-0.455,0.468-0.7,0.412-1.101-0.024C92.663,144.188,92.096,143.734,91.521,143.206z"/>
	<path fill-rule="evenodd" clip-rule="evenodd" fill="#627D53" d="M59.243,147.7c-1.297,0.011-2.359-0.678-2.807-1.814
		c-0.482-1.221-0.154-2.446,0.806-3.393c0.256-0.252,0.45-0.694,0.458-1.052c0.046-1.859,0.049-3.726-0.001-5.584
		c-0.011-0.38-0.228-0.845-0.505-1.108c-1.219-1.153-1.309-3.11-0.133-4.308c1.19-1.212,3.223-1.182,4.38,0.067
		c1.106,1.186,0.979,3.159-0.215,4.251c-0.261,0.24-0.466,0.681-0.475,1.033c-0.046,1.913-0.044,3.829-0.001,5.74
		c0.007,0.33,0.212,0.733,0.456,0.966c0.885,0.84,1.245,2.112,0.835,3.256C61.607,146.962,60.56,147.693,59.243,147.7z"/>
</g>
<g>
	<path fill="#FFFFFF" d="M38.881,32.5c-0.52-0.577-0.779-1.403-0.779-2.48v-0.76h1.976v0.912c0,0.861,0.361,1.292,1.083,1.292
		c0.354,0,0.624-0.104,0.808-0.313c0.183-0.209,0.275-0.548,0.275-1.017c0-0.558-0.127-1.048-0.38-1.473
		c-0.254-0.424-0.722-0.934-1.406-1.529c-0.861-0.76-1.463-1.446-1.805-2.062c-0.342-0.614-0.513-1.308-0.513-2.08
		c0-1.052,0.266-1.865,0.798-2.441c0.532-0.576,1.305-0.865,2.318-0.865c1,0,1.758,0.289,2.271,0.865
		c0.513,0.576,0.77,1.402,0.77,2.479v0.551h-1.976v-0.684c0-0.455-0.089-0.788-0.266-0.997c-0.178-0.209-0.437-0.313-0.779-0.313
		c-0.697,0-1.045,0.424-1.045,1.273c0,0.48,0.13,0.93,0.39,1.349c0.259,0.418,0.731,0.925,1.416,1.52
		c0.874,0.761,1.476,1.45,1.805,2.071c0.33,0.621,0.494,1.35,0.494,2.186c0,1.089-0.269,1.925-0.808,2.508
		c-0.538,0.582-1.32,0.873-2.346,0.873C40.167,33.363,39.401,33.076,38.881,32.5z"/>
	<path fill="#FFFFFF" d="M45.531,19.874h3.078c1.039,0,1.817,0.278,2.337,0.836s0.779,1.374,0.779,2.45v1.312
		c0,1.077-0.26,1.894-0.779,2.451s-1.298,0.836-2.337,0.836h-0.988v5.415h-2.09V19.874z M48.609,25.859
		c0.342,0,0.599-0.096,0.77-0.285c0.171-0.19,0.256-0.514,0.256-0.969v-1.578c0-0.455-0.085-0.778-0.256-0.969
		c-0.171-0.189-0.427-0.285-0.77-0.285h-0.988v4.086H48.609z"/>
	<path fill="#FFFFFF" d="M53.53,32.49c-0.544-0.583-0.817-1.406-0.817-2.471v-6.992c0-1.063,0.272-1.887,0.817-2.47
		c0.544-0.582,1.33-0.874,2.356-0.874c1.026,0,1.812,0.292,2.356,0.874c0.545,0.583,0.817,1.406,0.817,2.47v6.992
		c0,1.064-0.272,1.888-0.817,2.471c-0.544,0.582-1.33,0.873-2.356,0.873C54.86,33.363,54.074,33.072,53.53,32.49z M56.969,30.152
		v-7.258c0-0.873-0.361-1.311-1.083-1.311c-0.722,0-1.083,0.438-1.083,1.311v7.258c0,0.875,0.361,1.312,1.083,1.312
		C56.608,31.464,56.969,31.027,56.969,30.152z"/>
	<path fill="#FFFFFF" d="M60.465,19.874h3.097c1.077,0,1.862,0.25,2.356,0.751c0.494,0.5,0.741,1.27,0.741,2.308v0.817
		c0,1.381-0.456,2.254-1.368,2.622v0.038c0.506,0.152,0.865,0.463,1.074,0.931c0.209,0.469,0.313,1.096,0.313,1.881v2.337
		c0,0.381,0.012,0.688,0.038,0.922s0.089,0.465,0.19,0.693h-2.128c-0.076-0.215-0.126-0.418-0.152-0.607
		c-0.025-0.19-0.038-0.533-0.038-1.026v-2.433c0-0.607-0.098-1.031-0.294-1.272s-0.535-0.361-1.017-0.361h-0.722v5.7h-2.09V19.874z
		 M63.315,25.574c0.418,0,0.731-0.107,0.94-0.323s0.313-0.576,0.313-1.083v-1.026c0-0.481-0.085-0.829-0.256-1.045
		c-0.171-0.215-0.44-0.323-0.808-0.323h-0.95v3.801H63.315z"/>
	<path fill="#FFFFFF" d="M69.718,21.773h-2.185v-1.899h6.46v1.899h-2.185v11.4h-2.09V21.773z"/>
	<path fill="#FFFFFF" d="M78.458,32.5c-0.52-0.577-0.779-1.403-0.779-2.48v-0.76h1.976v0.912c0,0.861,0.361,1.292,1.083,1.292
		c0.354,0,0.624-0.104,0.808-0.313c0.183-0.209,0.275-0.548,0.275-1.017c0-0.558-0.127-1.048-0.38-1.473
		c-0.254-0.424-0.722-0.934-1.406-1.529c-0.861-0.76-1.463-1.446-1.805-2.062c-0.342-0.614-0.513-1.308-0.513-2.08
		c0-1.052,0.266-1.865,0.798-2.441c0.532-0.576,1.305-0.865,2.318-0.865c1,0,1.758,0.289,2.271,0.865
		c0.513,0.576,0.77,1.402,0.77,2.479v0.551h-1.976v-0.684c0-0.455-0.089-0.788-0.266-0.997c-0.178-0.209-0.437-0.313-0.779-0.313
		c-0.697,0-1.045,0.424-1.045,1.273c0,0.48,0.13,0.93,0.39,1.349c0.259,0.418,0.731,0.925,1.416,1.52
		c0.874,0.761,1.476,1.45,1.805,2.071c0.33,0.621,0.494,1.35,0.494,2.186c0,1.089-0.269,1.925-0.808,2.508
		c-0.538,0.582-1.32,0.873-2.346,0.873C79.743,33.363,78.977,33.076,78.458,32.5z"/>
	<path fill="#FFFFFF" d="M86.742,21.773h-2.185v-1.899h6.46v1.899h-2.185v11.4h-2.09V21.773z"/>
	<path fill="#FFFFFF" d="M92.613,32.49c-0.544-0.583-0.817-1.406-0.817-2.471v-6.992c0-1.063,0.272-1.887,0.817-2.47
		c0.544-0.582,1.33-0.874,2.356-0.874c1.026,0,1.812,0.292,2.356,0.874c0.545,0.583,0.817,1.406,0.817,2.47v6.992
		c0,1.064-0.272,1.888-0.817,2.471c-0.544,0.582-1.33,0.873-2.356,0.873C93.943,33.363,93.157,33.072,92.613,32.49z M96.052,30.152
		v-7.258c0-0.873-0.361-1.311-1.083-1.311c-0.722,0-1.083,0.438-1.083,1.311v7.258c0,0.875,0.361,1.312,1.083,1.312
		C95.691,31.464,96.052,31.027,96.052,30.152z"/>
	<path fill="#FFFFFF" d="M99.548,19.874h3.097c1.077,0,1.862,0.25,2.356,0.751c0.494,0.5,0.741,1.27,0.741,2.308v0.817
		c0,1.381-0.456,2.254-1.368,2.622v0.038c0.506,0.152,0.865,0.463,1.074,0.931c0.209,0.469,0.313,1.096,0.313,1.881v2.337
		c0,0.381,0.012,0.688,0.038,0.922s0.089,0.465,0.19,0.693h-2.128c-0.076-0.215-0.126-0.418-0.152-0.607
		c-0.025-0.19-0.038-0.533-0.038-1.026v-2.433c0-0.607-0.098-1.031-0.294-1.272s-0.535-0.361-1.017-0.361h-0.722v5.7h-2.09V19.874z
		 M102.398,25.574c0.418,0,0.731-0.107,0.94-0.323s0.313-0.576,0.313-1.083v-1.026c0-0.481-0.085-0.829-0.256-1.045
		c-0.171-0.215-0.44-0.323-0.808-0.323h-0.95v3.801H102.398z"/>
	<path fill="#FFFFFF" d="M107.205,19.874h5.7v1.899h-3.61v3.516h2.869v1.9h-2.869v4.084h3.61v1.9h-5.7V19.874z"/>
	<path fill="#FFFFFF" d="M114.558,32.5c-0.52-0.577-0.779-1.403-0.779-2.48v-0.76h1.976v0.912c0,0.861,0.361,1.292,1.083,1.292
		c0.354,0,0.624-0.104,0.808-0.313c0.183-0.209,0.275-0.548,0.275-1.017c0-0.558-0.127-1.048-0.38-1.473
		c-0.254-0.424-0.722-0.934-1.406-1.529c-0.861-0.76-1.463-1.446-1.805-2.062c-0.342-0.614-0.513-1.308-0.513-2.08
		c0-1.052,0.266-1.865,0.798-2.441c0.532-0.576,1.305-0.865,2.318-0.865c1,0,1.758,0.289,2.271,0.865
		c0.513,0.576,0.77,1.402,0.77,2.479v0.551h-1.976v-0.684c0-0.455-0.089-0.788-0.266-0.997c-0.178-0.209-0.437-0.313-0.779-0.313
		c-0.697,0-1.045,0.424-1.045,1.273c0,0.48,0.13,0.93,0.39,1.349c0.259,0.418,0.731,0.925,1.416,1.52
		c0.874,0.761,1.476,1.45,1.805,2.071c0.33,0.621,0.494,1.35,0.494,2.186c0,1.089-0.269,1.925-0.808,2.508
		c-0.538,0.582-1.32,0.873-2.346,0.873C115.843,33.363,115.077,33.076,114.558,32.5z"/>
</g>
</svg>
