<?xml version="1.0" encoding="utf-8"?>
<!-- Generator: Adobe Illustrator 16.0.0, SVG Export Plug-In . SVG Version: 6.00 Build 0)  -->
<!DOCTYPE svg PUBLIC "-//W3C//DTD SVG 1.1//EN" "http://www.w3.org/Graphics/SVG/1.1/DTD/svg11.dtd">
<svg version="1.1" id="Layer_1" xmlns="http://www.w3.org/2000/svg" xmlns:xlink="http://www.w3.org/1999/xlink" x="0px" y="0px"
	 width="157px" height="179px" viewBox="0 0 157 179" enable-background="new 0 0 157 179" xml:space="preserve">
<rect x="1" y="1" fill-rule="evenodd" clip-rule="evenodd" fill="#FFFFFF" stroke="#627D53" stroke-width="2" stroke-miterlimit="10" width="155" height="177"/>
<rect x="2" y="1" fill-rule="evenodd" clip-rule="evenodd" fill="#627D53" width="155" height="56"/>
<g>
	<path fill-rule="evenodd" clip-rule="evenodd" fill="#394730" d="M140.45,109.217c-0.759-0.049-1.472,0.101-2.124,0.504
		c-1.112,0.031-2.263-0.209-3.282,0.472l-0.228-0.034l-0.209,0.096c-1.615,0.029-3.255-0.199-4.811,0.457
		c-0.346,0.029-0.691,0.06-1.037,0.089c-0.879,0.022-1.793-0.105-2.629,0.095c-1.878,0.447-4.815,0.014-5.105,2.284
		c-0.323,2.531,2.527,3.151,4.535,3.966c0.319,0.541,0.875,0.568,1.406,0.65c0.619,0.658,1.437,0.884,2.283,1.045
		c2.33,1.248,4.77,2.33,6.963,3.785c3.013,1.996,2.749,4.198-0.574,5.604c-5.329,2.254-11.057,2.438-16.682,2.638
		c-17.542,0.624-35.023-0.496-52.468-2.362c-15.557-1.665-31.007-3.92-46.204-7.718c-1.329-0.78-2.817-1.085-4.288-1.442
		c-0.269-0.07-0.537-0.141-0.806-0.211c-0.035-0.301-1.063-0.641-0.168-0.824c1-0.207,2.107-0.008,3.15,0.142
		c2.886,0.414,5.754,0.963,8.646,1.336c9.839,1.267,19.734,1.867,29.63,2.458c7.754,0.464,15.535,0.773,23.276,0.938
		c6.556,0.14,13.226-0.294,19.817-0.861c3.865-0.333,7.786-0.429,11.529-1.718c1.982-0.684,2.306-1.778,1.051-3.365
		c-0.876-1.108-1.93-2.082-2.758-3.222c-1.492-2.052-1.062-3.682,1.285-4.617c2.061-0.821,4.278-1.044,6.479-1.329
		c4.216-0.546,8.5-0.201,12.688-1.04c0.894-0.034,1.787-0.069,2.68-0.104c0.779,0.063,1.568,0.184,2.228-0.408
		c0.27-0.074,0.54-0.148,0.806-0.225c-0.003-0.002,0.065,0.034,0.065,0.034c0.473,0.159,0.93,0.181,1.344-0.161
		c0.381,0.374,0.643,0.103,0.904-0.17c0.172,0.047,0.331,0.018,0.474-0.09c0.462,0.064,0.875-0.012,1.179-0.406
		c1.999-0.125,2.685-1.654,3.321-3.184c1.247,0.186,1.129,1.518,1.893,2.063c0,0.887,0,1.772,0,2.659
		c-0.887,0.544-1.774,1.087-2.661,1.631C141.43,108.602,140.918,108.845,140.45,109.217z"/>
	<path fill-rule="evenodd" clip-rule="evenodd" fill="#627D53" d="M129.829,105.111c-1.879,0.171-3.063-1.004-4.475-2.063
		c0.428,0.6,0.857,1.198,1.488,2.08c-3.587,0.29-6.966,0.574-10.346,0.83c-2.125,0.161-4.219,0.521-6.215,1.242
		c-4.288,1.551-5.196,4.963-2.324,8.555c0.66,0.825,1.394,1.591,2.1,2.392c-6.998,4.442-79.336,2.08-92.451-2.394
		c1.83-1.964,3.621-3.887,5.411-5.808c5.586-5.614,11.182-11.22,16.751-16.851c1.347-1.361,2.466-1.978,4.031-0.104
		c1.52,1.819,3.448,3.293,5.113,5c0.815,0.835,1.403,0.826,2.192,0.016c4.624-4.744,9.271-9.464,13.911-14.192
		c0.319-0.25,0.639-0.501,0.958-0.751c0.251,0.584,0.66,1.002,1.27,1.207c-0.357,1.592-1.719,2.43-2.761,3.434
		c-4.678,4.508-9.331,9.034-14.271,14.369c4.867-1.621,6.634-6.38,11.109-7.372c-1.095,1.649-2.63,2.821-4.079,4.091
		c-0.533,0.468-1.465,1.102-0.531,1.938c0.995,0.891,0.359,1.512-0.13,2.238c-1.636,2.434-3.259,4.877-4.923,7.37
		c0.36,0.11,0.606,0.249,0.662,0.194c4.002-3.956,7.585-8.307,11.377-12.453c3.067-3.355,5.893-6.963,9.049-10.267
		c1.618-0.032,0.426-1.721,1.294-2.195c0.357-0.144,0.713-0.288,1.069-0.433c0.661,0.381,1.034,0.936,1.045,1.713
		c-1.382,1.49-2.763,2.981-4.144,4.472c0.154,0.185,0.307,0.37,0.461,0.554c5.286-3.557,9.795-8.17,15.451-12.336
		c-0.519,1.424-0.804,2.209-1.09,2.993c-1.616,3.239-3.209,6.49-4.872,9.706c-0.278,0.537-0.369,0.719,0.139,1.222
		c1.439,1.423,2.737,2.99,4.09,4.5c0.172,0.193,0.344,0.387,0.515,0.579l-0.022-0.016c0.33,1.049,1.731,1.739,1.047,3.129
		c-0.125,0.188-0.25,0.377-0.375,0.564c-1.631,2.735-3.263,5.471-4.894,8.206c0.162,0.166,0.324,0.332,0.485,0.499
		c2.393-1.741,4.845-3.4,6.998-5.482c0.517-0.393,1.033-0.785,1.55-1.178c0.246-0.18,0.493-0.359,0.739-0.539
		c0.203-0.008,0.333-0.109,0.39-0.305c0.191-0.135,0.383-0.27,0.574-0.404c0.149-0.121,0.299-0.241,0.449-0.361
		c0.71-0.313,1.407-0.637,1.571-1.516c1.139-2.735,2.278-5.471,3.626-8.707c0.117,1.563,0.193,2.584,0.269,3.604l0.012,0.104
		c-0.104,0.867-0.412,1.863,1.09,1.699l0.003,0.074c-1.002-0.316-1.238,0.312-1.299,1.09c-0.081,1.046-0.121,2.095-0.178,3.143
		c-0.432,1.833-0.257,3.672,0.168,5.584c0.934-3.25,1.868-6.501,2.801-9.751l0.092-0.097l-0.042-0.128
		c0.107-0.285,0.213-0.571,0.32-0.856c0.103-0.145,0.139-0.304,0.11-0.479c0.576-0.429,0.503-1.057,0.509-1.66
		c0.499-0.569,0.588-1.266,0.612-1.98c0.394-0.317,0.447-0.75,0.41-1.213c0.065-0.163,0.131-0.326,0.196-0.49
		c0.815-1.369-0.579-1.616-1.157-2.278c-0.386-0.511-0.772-1.022-1.158-1.534c0.723-1.178-1.646-1.968-0.404-3.211
		c1.745,1.23,2.941,2.971,4.283,4.582c1.396,1.677,2.727,2.339,4.584,0.276c2.384-2.647,2.51-2.509,4.981-0.054
		c3.621,3.598,7.262,7.173,10.895,10.758c0.7,1.145,1.741,1.951,2.755,2.784c0.141,0.126,0.281,0.251,0.421,0.376
		c0.376,0.758,0.968,1.308,1.685,1.735C130.479,104.74,130.154,104.926,129.829,105.111z M119.528,98.616
		c1.338,0.563,2.058,2.093,3.745,2.223c-3.283-3.76-6.669-7.407-10.352-10.726c-1.044-0.939-1.666,1.059-2.522,1.641
		c-0.699,0.474-0.82,1.213-0.047,1.742c2.797,1.915,4.864,4.61,7.391,6.813c0.31,0.27,0.71,0.838,1.045,0.458
		c0.276-0.312,0.138-0.989,0.184-1.504C119.157,99.047,119.342,98.832,119.528,98.616z M35.893,101.884
		c0.146,0.159,0.292,0.317,0.438,0.477c-1.029,1.317-2.059,2.634-3.259,4.169c3.753-0.77,3.753-0.77,2.9,2.518
		c0.581,0.267,1.017,0.016,1.388-0.411c2.64-3.041,5.259-6.099,7.922-9.118c0.639-0.725,0.8-1.295,0.006-2.007
		c-0.855-0.768-1.668-1.588-2.448-2.433c-0.593-0.643-1.013-0.738-1.696-0.03c-2.267,2.348-4.611,4.62-7.011,7.007
		C34.968,102.371,35.456,102.26,35.893,101.884z"/>
	<path fill-rule="evenodd" clip-rule="evenodd" fill="#394730" d="M101.199,84.098c-1.242,1.243,1.127,2.033,0.405,3.212
		c-3.182-3.073-6.365-6.146-9.547-9.219l-0.037,0.003c-0.029-0.156-0.122-0.246-0.279-0.271l-0.007-0.043
		c-0.597-0.54-1.194-1.08-1.791-1.621c-0.696-1.293-1.433-1.773-2.578-0.354c-0.613,0.76-1.474,1.32-2.223,1.972l-0.009,0.009
		c-0.312,0.106-0.798,0.122-0.911,0.334c-1.922,3.639-5.218,6.004-8.068,8.778c-0.012-0.776-0.385-1.331-1.046-1.711
		c3.935-4.661,8.444-8.761,12.744-13.067c0.512-0.512,0.96-0.668,1.555-0.227c0.372,0.361,0.744,0.725,1.116,1.087
		c0.156,1.241,0.946,1.843,2.099,2.078l0.039,0.039c-0.105,1.478,0.538,2.221,2.061,2.102
		C96.881,79.498,99.04,81.797,101.199,84.098z"/>
	<path fill-rule="evenodd" clip-rule="evenodd" fill="#394730" d="M72.377,83.638c0.554,0.66,1.108,1.32,1.663,1.979
		c-0.868,0.476,0.324,2.164-1.294,2.196c-1.543-1.632-2.131-4.75-5.502-3.542c-0.61-0.205-1.019-0.623-1.27-1.207
		c1.4-1.455,2.627-3.729,4.901-1.032C71.231,82.702,71.56,83.398,72.377,83.638z"/>
	<path fill-rule="evenodd" clip-rule="evenodd" fill="#ECF5F7" d="M99.114,96.082c0.164,0.02,0.328,0.038,0.492,0.057
		c-0.16,0.018-0.318,0.034-0.479,0.049C99.125,96.186,99.114,96.082,99.114,96.082z"/>
	<path fill-rule="evenodd" clip-rule="evenodd" fill="#ECF5F7" d="M101.761,97.8c0.107-0.285,0.213-0.571,0.32-0.856
		C101.975,97.229,101.868,97.515,101.761,97.8z"/>
	<path fill-rule="evenodd" clip-rule="evenodd" fill="#ECF5F7" d="M86.191,98.009c0.172,0.193,0.344,0.387,0.515,0.579
		C86.535,98.396,86.363,98.202,86.191,98.009z"/>
	<path fill-rule="evenodd" clip-rule="evenodd" fill="#ECF5F7" d="M89.399,79.916c0.041-0.074,0.081-0.148,0.121-0.223
		c-0.041,0.073-0.082,0.146-0.123,0.221L89.399,79.916z"/>
	<path fill-rule="evenodd" clip-rule="evenodd" fill="#627D53" d="M35.893,101.884c0.458-0.521,0.874-1.097,2.146-1.37
		c-0.756,0.817-1.232,1.332-1.708,1.847C36.186,102.201,36.039,102.043,35.893,101.884z"/>
	<path fill-rule="evenodd" clip-rule="evenodd" fill="#627D53" d="M118.971,99.263c-0.574-0.688-1.452-1.14-1.744-2.259
		c1.167,0.133,1.69,0.938,2.301,1.612C119.342,98.832,119.157,99.047,118.971,99.263z"/>
</g>
<g>
	<path fill-rule="evenodd" clip-rule="evenodd" fill="#627D53" d="M13.759,153.071c0.482-0.31,0.942-0.66,1.45-0.918
		c1.292-0.653,2.699-0.924,4.117-1.141c3.198-0.488,6.37-0.21,9.534,0.322c3.924,0.66,7.73,1.818,11.59,2.748
		c4.389,1.058,8.803,2.013,13.207,3.011c0.077,0.017,0.159,0.017,0.269,0.028c-0.059-0.245-0.094-0.465-0.17-0.67
		c-0.027-0.074-0.145-0.148-0.23-0.163c-5.06-0.835-9.989-2.225-14.939-3.523c-3.717-0.976-7.441-1.918-11.233-2.566
		c-2.686-0.459-5.379-0.649-8.087-0.241c-0.71,0.107-1.407,0.307-2.113,0.447c-0.131,0.027-0.324,0.031-0.409-0.045
		c-1.482-1.312-2.516-2.891-2.742-4.896c-0.241-2.135,0.679-3.723,2.466-4.818c1.763-1.08,3.723-1.467,5.766-1.502
		c2.818-0.05,5.476,0.682,8.075,1.68c2.61,1.003,5.075,2.313,7.567,3.568c3.594,1.81,7.27,3.43,11.104,4.67
		c0.155,0.05,0.315,0.084,0.472,0.125c0.112-0.363-0.007-0.576-0.378-0.71c-1.256-0.456-2.512-0.909-3.769-1.362
		c-0.467-0.17-0.937-0.33-1.4-0.509c-0.275-0.106-0.549-0.222-0.808-0.362c-0.653-0.356-0.674-0.417-0.563-1.14
		c0.164-1.063,0.33-2.127,0.481-3.192c0.015-0.104-0.032-0.272-0.109-0.322c-0.092-0.06-0.265-0.07-0.371-0.025
		c-1.091,0.453-2.164,0.953-3.266,1.377c-1.1,0.424-1.438,0.189-1.561-0.975c-0.205-1.951,0.029-3.873,0.403-5.783
		c0.123-0.626,0.273-1.248,0.378-1.877c0.027-0.158-0.021-0.376-0.121-0.499c-0.51-0.634-1.047-1.247-1.625-1.856
		c-0.261,3.744-0.686,7.48,0.212,11.275c-0.188-0.076-0.303-0.119-0.413-0.168c-2.263-1.021-4.526-2.041-6.788-3.067
		c-1.289-0.584-2.629-0.983-4.026-1.224c-0.401-0.068-0.772-0.316-1.201-0.502c-0.148,0.207-0.361,0.373-0.719,0.273
		c-0.324-0.091-0.451-0.213-0.297-0.512c0.142-0.272,0.111-0.475-0.013-0.744c-0.086-0.188-0.087-0.495,0.013-0.67
		c0.208-0.364,0.483-0.701,0.785-0.995c0.098-0.096,0.373-0.063,0.546-0.015c0.147,0.041,0.264,0.189,0.434,0.32
		c3.977-4.361,7.957-8.728,11.954-13.111c-0.608-0.59-0.378-1.221-0.066-1.819c0.319-0.61,0.811-0.715,1.397-0.357
		c0.13,0.079,0.252,0.173,0.407,0.28c0.701-0.752,1.405-1.496,2.091-2.259c0.091-0.101,0.092-0.286,0.13-0.433
		c0.174-0.7,0.324-1.406,0.525-2.098c0.451-1.549,1.374-2.789,2.599-3.813c0.659-0.551,0.955-0.59,1.637-0.073
		c0.618,0.468,1.19,1.005,1.732,1.562c0.467,0.479,0.481,0.896,0.108,1.478c-0.624,0.969-1.47,1.728-2.416,2.37
		c-1.006,0.685-2.127,1.125-3.28,1.498c-0.22,0.07-0.444,0.218-0.597,0.391c-0.594,0.672-1.16,1.369-1.726,2.046
		c0.015,0.05,0.014,0.08,0.029,0.093c0.872,0.736,1.438,1.68,1.859,2.726c0.58,1.437,1.175,2.866,1.759,4.3
		c0.084,0.207,0.154,0.423,0.202,0.641c0.173,0.782-0.173,1.313-0.965,1.426c-1.37,0.193-2.743,0.359-4.115,0.532
		c-0.311,0.039-0.613,0.08-0.82,0.402c0.483,0.603,0.966,1.213,1.462,1.812c0.052,0.063,0.184,0.076,0.281,0.083
		c0.551,0.042,0.914,0.352,1.161,0.815c0.052,0.1,0.1,0.254,0.06,0.339c-0.169,0.358,0.061,0.579,0.237,0.823
		c2.561,3.549,5.122,7.096,7.677,10.649c0.133,0.187,0.265,0.253,0.494,0.247c0.267-0.007,0.536,0.064,0.804,0.085
		c0.091,0.007,0.209-0.009,0.275-0.063c0.355-0.294,0.698-0.603,1.046-0.906c0.207-0.181,0.25-0.386,0.107-0.63
		c-0.381-0.654-0.749-1.316-1.144-1.961c-0.072-0.118-0.251-0.172-0.416-0.277c-0.266,1.061-0.515,2.052-0.779,3.102
		c-1.933-2.577-3.838-5.117-5.79-7.72c0.448-0.118,0.839-0.235,1.236-0.323c1.576-0.347,3.105-0.157,4.587,0.449
		c0.734,0.3,1.303,0.8,1.705,1.49c0.795,1.371,1.597,2.737,2.396,4.105c0.047,0.081,0.097,0.16,0.214,0.24
		c0.004-0.104,0.028-0.212,0.011-0.313c-0.071-0.41,0.117-0.642,0.464-0.844c0.935-0.544,1.864-1.096,2.983-1.132
		c0.375-0.013,0.752,0.056,1.129,0.07c0.131,0.007,0.293,0.007,0.39-0.063c1.18-0.852,2.349-1.717,3.521-2.579
		c0.027-0.02,0.046-0.052,0.091-0.104c-0.333-0.435-0.079-0.757,0.238-1.063c0.076-0.073,0.151-0.149,0.23-0.22
		c0.638-0.565,0.875-0.549,1.486,0.175c0.279-0.4,0.566-0.765,0.801-1.163c0.311-0.527,0.553-1.098,0.875-1.619
		c0.661-1.068,1.661-1.729,2.801-2.193c0.103-0.042,0.283-0.006,0.379,0.063c0.859,0.609,1.366,1.46,1.604,2.471
		c0.025,0.107-0.077,0.282-0.17,0.373c-1.239,1.203-2.722,1.912-4.437,2.1c-0.618,0.066-1.167,0.248-1.676,0.675
		c0.448,0.714,0.375,1.528,0.391,2.327c0.023,1.207,0.04,2.414,0.054,3.621c0.012,0.982-0.489,1.423-1.439,1.18
		c-0.972-0.25-1.922-0.583-2.881-0.881c-0.135-0.042-0.269-0.089-0.483-0.16c-0.054,1.584-0.107,3.135-0.162,4.713
		c-0.888,0.172-1.771,0.202-2.654,0.145c-0.92-0.061-1.836-0.176-2.756-0.246c-0.263-0.02-0.329-0.139-0.356-0.374
		c-0.099-0.843-0.217-1.685-0.328-2.533c-1.059,0.638-2.093,1.261-3.142,1.894c0.652,0.881,1.324,1.766,1.968,2.67
		c0.396,0.557,0.738,1.152,1.132,1.711c0.145,0.205,0.347,0.397,0.566,0.514c0.468,0.25,0.959,0.461,1.45,0.662
		c1.96,0.805,3.592,1.988,4.61,3.908c0.053,0.1,0.251,0.186,0.373,0.175c0.986-0.082,1.971-0.188,2.956-0.29
		c0.068-0.008,0.135-0.03,0.22-0.051c-0.175,0.266-0.468,0.43-0.94,0.553c-1.646,0.432-3.319,0.482-5.002,0.343
		c-3.939-0.324-7.772-1.234-11.607-2.126c-5.066-1.179-10.122-2.4-15.197-3.539c-3.104-0.697-6.239-1.258-9.437-1.313
		c-2.377-0.041-4.697,0.262-6.884,1.267c-0.225,0.104-0.446,0.213-0.67,0.319C13.812,153.146,13.786,153.108,13.759,153.071z
		 M32.469,129.563c1.543-1.111,3.255-1.36,5.085-1.146c0.916,0.105,1.836,0.173,2.756,0.242c0.576,0.043,0.636-0.049,0.467-0.588
		c-0.413-1.318-0.82-2.64-1.23-3.96c-0.072-0.232-0.146-0.465-0.234-0.741c-0.293,0.097-0.546,0.187-0.803,0.264
		c-0.224,0.067-0.456,0.108-0.677,0.184c-0.166,0.057-0.363,0.107-0.473,0.229c-0.89,0.981-1.762,1.979-2.639,2.971
		C33.97,127.864,33.22,128.714,32.469,129.563z M59.046,142.176c1.156,0.524,2.216,1.007,3.278,1.485
		c0.074,0.033,0.161,0.036,0.241,0.055c0.25,0.058,0.382-0.045,0.412-0.297c0.127-1.089,0.264-2.178,0.373-3.27
		c0.012-0.123-0.132-0.377-0.204-0.377c-0.324,0-0.717-0.031-0.961,0.133C61.148,140.601,60.156,141.362,59.046,142.176z
		 M26.296,136.762c-0.049,0.911,0.018,1.012,0.847,1.153c0.605,0.104,1.216,0.173,1.826,0.246c0.463,0.057,0.533,0.001,0.405-0.438
		c-0.321-1.099-0.672-2.189-1.015-3.281c-0.092-0.294-0.261-0.27-0.44-0.079c-0.372,0.396-0.724,0.813-1.107,1.195
		C26.45,135.92,26.212,136.313,26.296,136.762z M41.982,138.587c-0.537-0.737-1.036-1.441-1.558-2.127
		c-0.163-0.213-0.391-0.376-0.588-0.563c-0.13,0.279-0.361,0.554-0.372,0.836c-0.042,1.167-0.018,2.336-0.018,3.59
		C40.475,139.905,41.174,139.216,41.982,138.587z"/>
	<path fill-rule="evenodd" clip-rule="evenodd" fill="#627D53" d="M51.926,149.613c1.054,0.181,2.129,0.405,3.215,0.541
		c1.993,0.248,3.96-0.003,5.92-0.375c1.02-0.194,2.047-0.363,3.078-0.479c0.847-0.094,1.673,0.065,2.429,0.493
		c1.778,1.007,2.093,3.16,0.674,4.627c-0.641,0.664-1.446,1.055-2.302,1.352c-1.495,0.516-3.054,0.713-4.611,0.938
		c-0.566,0.082-0.864-0.057-1.191-0.537c-0.912-1.341-2.255-2.161-3.713-2.805c-0.216-0.096-0.434-0.191-0.658-0.264
		c-0.495-0.159-0.883-0.468-1.164-0.887C53.02,151.346,52.465,150.454,51.926,149.613z"/>
	<path fill-rule="evenodd" clip-rule="evenodd" fill="#627D53" d="M32.292,127.128c0.048,0.31-0.119,0.637-0.437,0.938
		c-0.505,0.479-0.963,1.01-1.464,1.494c-0.129,0.125-0.339,0.223-0.517,0.232c-1.337,0.075-2.673-0.813-2.893-1.971
		c-0.221-1.167,0.025-2.236,1.022-2.982c0.974-0.728,2.033-0.768,3.098-0.174C32.015,125.175,32.284,126.025,32.292,127.128z"/>
	<path fill-rule="evenodd" clip-rule="evenodd" fill="#627D53" d="M47.06,137.036c-1.419-0.001-2.378-1.056-2.375-2.613
		c0.002-1.455,0.98-2.504,2.333-2.501c1.47,0.003,2.716,1.153,2.707,2.499C49.714,135.97,48.626,137.036,47.06,137.036z"/>
	<path fill-rule="evenodd" clip-rule="evenodd" fill="#627D53" d="M55.586,141.521c-1.326-0.003-2.384-1.024-2.385-2.302
		c0-1.328,1.11-2.418,2.459-2.413c1.257,0.005,2.332,1.177,2.341,2.552C58.009,140.579,56.955,141.523,55.586,141.521z"/>
	<path fill-rule="evenodd" clip-rule="evenodd" fill="#627D53" d="M32.469,129.563c0.75-0.85,1.5-1.699,2.251-2.547
		c0.877-0.992,1.75-1.989,2.639-2.971c0.11-0.121,0.308-0.172,0.473-0.229c0.221-0.075,0.454-0.116,0.677-0.184
		c0.257-0.077,0.51-0.167,0.803-0.264c0.087,0.276,0.162,0.509,0.234,0.741c0.41,1.32,0.817,2.642,1.23,3.96
		c0.169,0.539,0.109,0.631-0.467,0.588c-0.92-0.069-1.841-0.137-2.756-0.242C35.725,128.203,34.012,128.452,32.469,129.563z"/>
	<path fill-rule="evenodd" clip-rule="evenodd" fill="#627D53" d="M59.046,142.176c1.11-0.813,2.102-1.575,3.138-2.271
		c0.244-0.164,0.637-0.133,0.961-0.133c0.072,0,0.216,0.254,0.204,0.377c-0.108,1.092-0.246,2.181-0.373,3.27
		c-0.03,0.252-0.162,0.354-0.412,0.297c-0.08-0.019-0.167-0.021-0.241-0.055C61.262,143.183,60.202,142.7,59.046,142.176z"/>
	<path fill-rule="evenodd" clip-rule="evenodd" fill="#627D53" d="M26.296,136.762c-0.084-0.448,0.154-0.842,0.516-1.204
		c0.384-0.383,0.736-0.799,1.107-1.195c0.179-0.19,0.348-0.215,0.44,0.079c0.343,1.092,0.694,2.183,1.015,3.281
		c0.128,0.439,0.059,0.495-0.405,0.438c-0.61-0.073-1.221-0.143-1.826-0.246C26.314,137.773,26.248,137.673,26.296,136.762z"/>
	<path fill-rule="evenodd" clip-rule="evenodd" fill="#627D53" d="M41.982,138.587c-0.808,0.629-1.507,1.318-2.536,1.736
		c0-1.254-0.024-2.423,0.018-3.59c0.01-0.282,0.242-0.557,0.372-0.836c0.198,0.187,0.426,0.35,0.588,0.563
		C40.946,137.146,41.445,137.85,41.982,138.587z"/>
</g>
<g>
	<path fill="#FFFFFF" d="M38.688,22.796h3.097c1.077,0,1.862,0.25,2.356,0.751c0.494,0.5,0.741,1.27,0.741,2.308v0.817
		c0,1.381-0.456,2.254-1.368,2.622v0.038c0.506,0.152,0.865,0.463,1.074,0.931c0.209,0.469,0.313,1.096,0.313,1.881v2.337
		c0,0.381,0.012,0.688,0.038,0.922s0.089,0.465,0.19,0.693h-2.128c-0.076-0.215-0.126-0.418-0.152-0.607
		c-0.025-0.19-0.038-0.533-0.038-1.026v-2.433c0-0.607-0.098-1.031-0.294-1.272s-0.535-0.361-1.017-0.361h-0.722v5.7h-2.09V22.796z
		 M41.539,28.496c0.418,0,0.731-0.107,0.94-0.323s0.313-0.576,0.313-1.083v-1.026c0-0.481-0.085-0.829-0.256-1.045
		c-0.171-0.215-0.44-0.323-0.808-0.323h-0.95v3.801H41.539z"/>
	<path fill="#FFFFFF" d="M46.346,22.796h2.09v13.3h-2.09V22.796z"/>
	<path fill="#FFFFFF" d="M49.443,22.796h2.109l1.368,10.317h0.038l1.368-10.317h1.919l-2.014,13.3h-2.774L49.443,22.796z"/>
	<path fill="#FFFFFF" d="M57.251,22.796h5.7v1.899h-3.61v3.516h2.869v1.9h-2.869v4.084h3.61v1.9h-5.7V22.796z"/>
	<path fill="#FFFFFF" d="M64.148,22.796h3.097c1.077,0,1.862,0.25,2.356,0.751c0.494,0.5,0.741,1.27,0.741,2.308v0.817
		c0,1.381-0.456,2.254-1.368,2.622v0.038c0.506,0.152,0.865,0.463,1.074,0.931c0.209,0.469,0.313,1.096,0.313,1.881v2.337
		c0,0.381,0.012,0.688,0.038,0.922s0.089,0.465,0.19,0.693h-2.128c-0.076-0.215-0.126-0.418-0.152-0.607
		c-0.025-0.19-0.038-0.533-0.038-1.026v-2.433c0-0.607-0.098-1.031-0.294-1.272s-0.535-0.361-1.017-0.361h-0.722v5.7h-2.09V22.796z
		 M66.999,28.496c0.418,0,0.731-0.107,0.94-0.323s0.313-0.576,0.313-1.083v-1.026c0-0.481-0.085-0.829-0.256-1.045
		c-0.171-0.215-0.44-0.323-0.808-0.323h-0.95v3.801H66.999z"/>
	<path fill="#FFFFFF" d="M74.845,22.796h3.097c1.077,0,1.862,0.25,2.356,0.751c0.494,0.5,0.741,1.27,0.741,2.308v0.817
		c0,1.381-0.456,2.254-1.368,2.622v0.038c0.506,0.152,0.865,0.463,1.074,0.931c0.209,0.469,0.313,1.096,0.313,1.881v2.337
		c0,0.381,0.012,0.688,0.038,0.922s0.089,0.465,0.19,0.693h-2.128c-0.076-0.215-0.126-0.418-0.152-0.607
		c-0.025-0.19-0.038-0.533-0.038-1.026v-2.433c0-0.607-0.098-1.031-0.294-1.272s-0.535-0.361-1.017-0.361h-0.722v5.7h-2.09V22.796z
		 M77.695,28.496c0.418,0,0.731-0.107,0.94-0.323s0.313-0.576,0.313-1.083v-1.026c0-0.481-0.085-0.829-0.256-1.045
		c-0.171-0.215-0.44-0.323-0.808-0.323h-0.95v3.801H77.695z"/>
	<path fill="#FFFFFF" d="M84.118,22.796h2.831l2.166,13.3h-2.09l-0.38-2.641v0.037H84.27l-0.38,2.604h-1.938L84.118,22.796z
		 M86.397,31.688l-0.931-6.574h-0.038l-0.912,6.574H86.397z"/>
	<path fill="#FFFFFF" d="M90.121,22.796h5.529v1.899h-3.439V28.4h2.698v1.9h-2.698v5.795h-2.09V22.796z"/>
	<path fill="#FFFFFF" d="M98.481,24.695h-2.185v-1.899h6.46v1.899h-2.185v11.4h-2.09V24.695z"/>
	<path fill="#FFFFFF" d="M103.763,22.796h2.09v13.3h-2.09V22.796z"/>
	<path fill="#FFFFFF" d="M107.411,22.796h2.622l2.033,7.961h0.038v-7.961h1.862v13.3h-2.147l-2.508-9.709h-0.038v9.709h-1.862
		V22.796z"/>
	<path fill="#FFFFFF" d="M116.169,35.422c-0.532-0.577-0.798-1.403-0.798-2.48v-6.992c0-1.076,0.266-1.902,0.798-2.479
		c0.532-0.576,1.305-0.865,2.318-0.865c1.013,0,1.786,0.289,2.318,0.865c0.532,0.576,0.798,1.402,0.798,2.479v1.141h-1.976v-1.273
		c0-0.873-0.361-1.311-1.083-1.311c-0.722,0-1.083,0.438-1.083,1.311v7.277c0,0.861,0.361,1.292,1.083,1.292
		c0.722,0,1.083-0.431,1.083-1.292V30.49h-1.045v-1.899h3.021v4.351c0,1.077-0.266,1.903-0.798,2.48
		c-0.532,0.576-1.305,0.863-2.318,0.863C117.474,36.285,116.702,35.998,116.169,35.422z"/>
</g>
</svg>
