<?xml version="1.0" encoding="utf-8"?>
<!-- Generator: Adobe Illustrator 16.0.0, SVG Export Plug-In . SVG Version: 6.00 Build 0)  -->
<!DOCTYPE svg PUBLIC "-//W3C//DTD SVG 1.1//EN" "http://www.w3.org/Graphics/SVG/1.1/DTD/svg11.dtd">
<svg version="1.1" id="Layer_1" xmlns="http://www.w3.org/2000/svg" xmlns:xlink="http://www.w3.org/1999/xlink" x="0px" y="0px"
	 width="156px" height="178px" viewBox="0 0 156 178" enable-background="new 0 0 156 178" xml:space="preserve">
<rect x="1" y="1" fill-rule="evenodd" clip-rule="evenodd" fill="#FFFFFF" stroke="#627D53" stroke-width="2" stroke-miterlimit="10" width="155" height="177"/>
<rect x="2" y="1" fill-rule="evenodd" clip-rule="evenodd" fill="#627D53" width="155" height="57"/>
<g>
	<path fill="#FFFFFF" d="M33.565,23.987h3.097c1.077,0,1.862,0.25,2.356,0.751c0.494,0.5,0.741,1.27,0.741,2.308v0.817
		c0,1.381-0.456,2.254-1.368,2.622v0.038c0.506,0.152,0.865,0.463,1.074,0.931c0.209,0.469,0.313,1.096,0.313,1.881v2.337
		c0,0.381,0.012,0.688,0.038,0.922s0.089,0.465,0.19,0.693h-2.128c-0.076-0.215-0.126-0.418-0.152-0.607
		c-0.025-0.19-0.038-0.533-0.038-1.026v-2.433c0-0.607-0.098-1.031-0.294-1.272s-0.535-0.361-1.017-0.361h-0.722v5.7h-2.09V23.987z
		 M36.416,29.688c0.418,0,0.731-0.107,0.94-0.323s0.313-0.576,0.313-1.083v-1.026c0-0.481-0.085-0.829-0.256-1.045
		c-0.171-0.215-0.44-0.323-0.808-0.323h-0.95v3.801H36.416z"/>
	<path fill="#FFFFFF" d="M42.838,23.987h2.831l2.166,13.3h-2.09l-0.38-2.641v0.037H42.99l-0.38,2.604h-1.938L42.838,23.987z
		 M45.118,32.879l-0.931-6.574h-0.038l-0.912,6.574H45.118z"/>
	<path fill="#FFFFFF" d="M49.459,36.622c-0.526-0.569-0.789-1.374-0.789-2.413v-7.145c0-1.037,0.263-1.842,0.789-2.412
		c0.525-0.57,1.289-0.855,2.29-0.855c1,0,1.764,0.285,2.29,0.855c0.525,0.57,0.788,1.375,0.788,2.412v1.406h-1.976v-1.539
		c0-0.822-0.349-1.234-1.045-1.234c-0.696,0-1.045,0.412-1.045,1.234v7.43c0,0.811,0.349,1.216,1.045,1.216
		c0.697,0,1.045-0.405,1.045-1.216v-2.033h1.976v1.881c0,1.039-0.263,1.844-0.788,2.413c-0.526,0.569-1.289,0.854-2.29,0.854
		C50.748,37.477,49.984,37.191,49.459,36.622z"/>
	<path fill="#FFFFFF" d="M56.08,23.987h2.09v13.3h-2.09V23.987z"/>
	<path fill="#FFFFFF" d="M59.728,23.987h2.622l2.033,7.961h0.038v-7.961h1.862v13.3h-2.147l-2.508-9.709H61.59v9.709h-1.862V23.987z
		"/>
	<path fill="#FFFFFF" d="M68.487,36.613c-0.532-0.577-0.798-1.403-0.798-2.48v-6.992c0-1.076,0.266-1.902,0.798-2.479
		c0.532-0.576,1.305-0.865,2.318-0.865c1.013,0,1.786,0.289,2.318,0.865c0.532,0.576,0.798,1.402,0.798,2.479v1.141h-1.976v-1.273
		c0-0.873-0.361-1.311-1.083-1.311c-0.722,0-1.083,0.438-1.083,1.311v7.277c0,0.861,0.361,1.292,1.083,1.292
		c0.722,0,1.083-0.431,1.083-1.292v-2.604H70.9v-1.899h3.021v4.351c0,1.077-0.266,1.903-0.798,2.48
		c-0.532,0.576-1.305,0.863-2.318,0.863C69.792,37.477,69.019,37.189,68.487,36.613z"/>
	<path fill="#FFFFFF" d="M78.727,36.613c-0.52-0.577-0.779-1.403-0.779-2.48v-0.76h1.976v0.912c0,0.861,0.361,1.292,1.083,1.292
		c0.354,0,0.624-0.104,0.808-0.313c0.183-0.209,0.275-0.548,0.275-1.017c0-0.558-0.127-1.048-0.38-1.473
		c-0.254-0.424-0.722-0.934-1.406-1.529c-0.861-0.76-1.463-1.446-1.805-2.062c-0.342-0.614-0.513-1.308-0.513-2.08
		c0-1.052,0.266-1.865,0.798-2.441c0.532-0.576,1.305-0.865,2.318-0.865c1,0,1.758,0.289,2.271,0.865
		c0.513,0.576,0.77,1.402,0.77,2.479v0.551h-1.976v-0.684c0-0.455-0.089-0.788-0.266-0.997c-0.178-0.209-0.437-0.313-0.779-0.313
		c-0.697,0-1.045,0.424-1.045,1.273c0,0.48,0.13,0.93,0.39,1.349c0.259,0.418,0.731,0.925,1.416,1.52
		c0.874,0.761,1.476,1.45,1.805,2.071c0.33,0.621,0.494,1.35,0.494,2.186c0,1.089-0.269,1.925-0.808,2.508
		c-0.538,0.582-1.32,0.873-2.346,0.873C80.013,37.477,79.247,37.189,78.727,36.613z"/>
	<path fill="#FFFFFF" d="M86.033,36.622c-0.526-0.569-0.789-1.374-0.789-2.413v-7.145c0-1.037,0.263-1.842,0.789-2.412
		c0.525-0.57,1.289-0.855,2.29-0.855c1,0,1.764,0.285,2.29,0.855c0.525,0.57,0.788,1.375,0.788,2.412v1.406h-1.976v-1.539
		c0-0.822-0.349-1.234-1.045-1.234c-0.696,0-1.045,0.412-1.045,1.234v7.43c0,0.811,0.349,1.216,1.045,1.216
		c0.697,0,1.045-0.405,1.045-1.216v-2.033H91.4v1.881c0,1.039-0.263,1.844-0.788,2.413c-0.526,0.569-1.289,0.854-2.29,0.854
		C87.321,37.477,86.558,37.191,86.033,36.622z"/>
	<path fill="#FFFFFF" d="M92.654,23.987h2.09v5.415h2.242v-5.415h2.09v13.3h-2.09v-5.984h-2.242v5.984h-2.09V23.987z"/>
	<path fill="#FFFFFF" d="M101.299,36.604c-0.544-0.583-0.817-1.406-0.817-2.471v-6.992c0-1.063,0.272-1.887,0.817-2.47
		c0.544-0.582,1.33-0.874,2.356-0.874c1.026,0,1.812,0.292,2.356,0.874c0.545,0.583,0.817,1.406,0.817,2.47v6.992
		c0,1.064-0.272,1.888-0.817,2.471c-0.544,0.582-1.33,0.873-2.356,0.873C102.629,37.477,101.843,37.186,101.299,36.604z
		 M104.738,34.266v-7.258c0-0.873-0.361-1.311-1.083-1.311c-0.722,0-1.083,0.438-1.083,1.311v7.258c0,0.875,0.361,1.312,1.083,1.312
		C104.377,35.577,104.738,35.141,104.738,34.266z"/>
	<path fill="#FFFFFF" d="M108.899,36.604c-0.544-0.583-0.817-1.406-0.817-2.471v-6.992c0-1.063,0.272-1.887,0.817-2.47
		c0.544-0.582,1.33-0.874,2.356-0.874c1.026,0,1.812,0.292,2.356,0.874c0.545,0.583,0.817,1.406,0.817,2.47v6.992
		c0,1.064-0.272,1.888-0.817,2.471c-0.544,0.582-1.33,0.873-2.356,0.873C110.229,37.477,109.443,37.186,108.899,36.604z
		 M112.338,34.266v-7.258c0-0.873-0.361-1.311-1.083-1.311c-0.722,0-1.083,0.438-1.083,1.311v7.258c0,0.875,0.361,1.312,1.083,1.312
		C111.977,35.577,112.338,35.141,112.338,34.266z"/>
	<path fill="#FFFFFF" d="M115.834,23.987h2.09v11.399h3.439v1.9h-5.529V23.987z"/>
	<path fill="#FFFFFF" d="M122.788,36.613c-0.52-0.577-0.779-1.403-0.779-2.48v-0.76h1.976v0.912c0,0.861,0.361,1.292,1.083,1.292
		c0.354,0,0.624-0.104,0.808-0.313c0.183-0.209,0.275-0.548,0.275-1.017c0-0.558-0.127-1.048-0.38-1.473
		c-0.254-0.424-0.722-0.934-1.406-1.529c-0.861-0.76-1.463-1.446-1.805-2.062c-0.342-0.614-0.513-1.308-0.513-2.08
		c0-1.052,0.266-1.865,0.798-2.441c0.532-0.576,1.305-0.865,2.318-0.865c1,0,1.758,0.289,2.271,0.865
		c0.513,0.576,0.77,1.402,0.77,2.479v0.551h-1.976v-0.684c0-0.455-0.089-0.788-0.266-0.997c-0.178-0.209-0.437-0.313-0.779-0.313
		c-0.697,0-1.045,0.424-1.045,1.273c0,0.48,0.13,0.93,0.39,1.349c0.259,0.418,0.731,0.925,1.416,1.52
		c0.874,0.761,1.476,1.45,1.805,2.071c0.33,0.621,0.494,1.35,0.494,2.186c0,1.089-0.269,1.925-0.808,2.508
		c-0.538,0.582-1.32,0.873-2.346,0.873C124.073,37.477,123.307,37.189,122.788,36.613z"/>
</g>
<g>
	<path fill-rule="evenodd" clip-rule="evenodd" fill="#627D53" d="M127.261,123.919c2.935-6.952,1.871-12.807-3.054-16.818
		c-4.317-3.516-10.493-3.825-15.184-0.762c-5.583,3.649-6.84,8.928-4.188,17.904c-16.645,0-33.247,0-50.119,0
		c3.006-6.154,2.463-11.74-2.529-16.989c2.023-0.63,3.766-1.418,5.576-1.627c0.847-0.098,2.147,0.701,2.681,1.479
		c1.534,2.234,3.415,3.222,6.123,2.828c1.233-0.179,2.56-0.246,3.766,0.007c5.33,1.117,8.716-1.403,10.717-5.936
		c0.889-2.015,0.91-4.413,1.368-6.868c1.048,0,2.257,0,3.761,0c0.111,1.995,0.221,3.972,0.347,6.213
		c5.744,1.054,11.426,2.104,17.112,3.125c0.462,0.083,1.019,0.106,1.431-0.073c5.835-2.555,11.644-5.173,17.483-7.717
		c1.37-0.598,2.821-1.345,4.257-1.394c5.014-0.171,10.038-0.066,15.173-0.066c0.716,2.046,0.316,3.5-1.876,4.584
		c-2.324,1.15-5.512,2.225-6.373,4.188c-0.849,1.936,0.814,4.931,1.222,7.485c0.12,0.754-0.106,1.69-0.481,2.374
		c-1.305,2.374-2.651,4.738-4.184,6.966c-0.568,0.826-1.7,1.266-2.575,1.88C127.564,124.44,127.413,124.18,127.261,123.919z"/>
	<path fill-rule="evenodd" clip-rule="evenodd" fill="#627D53" d="M54.08,117.126c0.017,5.762-4.467,10.318-10.241,10.405
		c-5.825,0.089-10.629-4.604-10.627-10.377c0.002-5.78,4.823-10.532,10.597-10.448C49.541,106.791,54.063,111.378,54.08,117.126z
		 M43.775,123.636c3.542-0.054,6.416-2.979,6.401-6.515c-0.015-3.515-2.943-6.476-6.438-6.508c-3.563-0.034-6.704,3.163-6.572,6.688
		C37.301,120.843,40.27,123.688,43.775,123.636z"/>
	<path fill-rule="evenodd" clip-rule="evenodd" fill="#627D53" d="M105.709,116.964c0.063-5.713,4.703-10.287,10.419-10.271
		c5.788,0.016,10.521,4.833,10.429,10.615c-0.091,5.676-4.771,10.246-10.482,10.232
		C110.201,127.527,105.644,122.878,105.709,116.964z M109.651,117.056c-0.04,3.589,2.74,6.494,6.299,6.584
		c3.612,0.091,6.688-2.943,6.652-6.563c-0.034-3.49-3.008-6.45-6.487-6.455C112.585,110.617,109.69,113.499,109.651,117.056z"/>
	<path fill-rule="evenodd" clip-rule="evenodd" fill="#627D53" d="M30.333,114.532c0.641,3.392,1.235,6.547,1.856,9.84
		c-3.853,0-7.904,0.091-11.944-0.077c-0.809-0.034-1.936-0.909-2.243-1.67c-0.221-0.548,0.46-1.928,1.102-2.282
		C22.872,118.256,26.746,116.363,30.333,114.532z"/>
	<path fill-rule="evenodd" clip-rule="evenodd" fill="#627D53" d="M43.775,123.636c-3.506,0.053-6.474-2.793-6.608-6.335
		c-0.132-3.524,3.009-6.722,6.572-6.688c3.495,0.032,6.423,2.993,6.438,6.508C50.191,120.657,47.318,123.582,43.775,123.636z
		 M43.574,119.454c0.798-0.97,1.678-1.569,1.672-2.158c-0.007-0.623-0.857-1.238-1.339-1.855c-0.657,0.558-1.619,1.011-1.861,1.712
		C41.896,117.589,42.836,118.4,43.574,119.454z"/>
	<path fill-rule="evenodd" clip-rule="evenodd" fill="#627D53" d="M109.651,117.056c0.04-3.557,2.934-6.438,6.464-6.435
		c3.479,0.005,6.453,2.965,6.487,6.455c0.036,3.62-3.04,6.654-6.652,6.563C112.391,123.55,109.611,120.645,109.651,117.056z
		 M118.494,117.183c-1.048-0.806-1.78-1.754-2.253-1.64c-0.695,0.17-1.205,1.1-1.794,1.705c0.57,0.524,1.113,1.425,1.717,1.467
		C116.761,118.757,117.42,117.936,118.494,117.183z"/>
	<path fill-rule="evenodd" clip-rule="evenodd" fill="#627D53" d="M43.574,119.454c-0.738-1.054-1.678-1.865-1.528-2.302
		c0.242-0.701,1.204-1.154,1.861-1.712c0.482,0.617,1.333,1.232,1.339,1.855C45.252,117.885,44.372,118.484,43.574,119.454z"/>
	<path fill-rule="evenodd" clip-rule="evenodd" fill="#627D53" d="M118.494,117.183c-1.074,0.753-1.733,1.574-2.331,1.532
		c-0.604-0.042-1.147-0.942-1.717-1.467c0.589-0.605,1.099-1.535,1.794-1.705C116.714,115.429,117.446,116.377,118.494,117.183z"/>
</g>
</svg>
