<?xml version="1.0" encoding="utf-8"?>
<!-- Generator: Adobe Illustrator 16.0.0, SVG Export Plug-In . SVG Version: 6.00 Build 0)  -->
<!DOCTYPE svg PUBLIC "-//W3C//DTD SVG 1.1//EN" "http://www.w3.org/Graphics/SVG/1.1/DTD/svg11.dtd">
<svg version="1.1" id="Layer_1" xmlns="http://www.w3.org/2000/svg" xmlns:xlink="http://www.w3.org/1999/xlink" x="0px" y="0px"
	 width="157px" height="179px" viewBox="0 0 157 179" enable-background="new 0 0 157 179" xml:space="preserve">
<rect x="1" y="1" fill-rule="evenodd" clip-rule="evenodd" fill="#FFFFFF" stroke="#627D53" stroke-width="2" stroke-miterlimit="10" width="155" height="177"/>
<rect x="2" y="1" fill-rule="evenodd" clip-rule="evenodd" fill="#627D53" width="155" height="56"/>
<g>
	<path fill-rule="evenodd" clip-rule="evenodd" fill="#394730" d="M36.977,144.7c0,3.252,0,6.389,0,9.586c-2.511,0-4.95,0-7.501,0
		c0-3.165,0-6.326,0-9.585c-1.573,0-3.036,0-4.548,0c0-3.987,0-7.876,0-11.901c1.61,0,3.204-0.042,4.794,0.021
		c0.739,0.028,1.095-0.199,1.397-0.888c3.427-7.828,6.89-15.639,10.345-23.454c0.304-0.688,0.533-1.429,0.947-2.042
		c0.677-1.005,0.464-1.726-0.263-2.644c-3.24-4.089-6.395-8.245-9.576-12.382c-1.114-1.447-1.007-3.129,0.247-4.109
		c1.322-1.033,2.956-0.745,4.106,0.762c2.557,3.35,5.073,6.73,7.649,10.065c6.015,7.788,12.059,15.553,18.084,23.332
		c2.736,3.533,5.47,7.067,8.171,10.626c0.405,0.534,0.812,0.729,1.479,0.729c21.441-0.019,42.881-0.016,64.323-0.016
		c0.371,0,0.741,0,1.163,0c0,3.969,0,7.858,0,11.876c-1.808,0-3.635,0-5.514,0c0,3.26,0,6.391,0,9.596c-2.472,0-4.907,0-7.467,0
		c0-3.149,0-6.332,0-9.572C95.5,144.7,66.308,144.7,36.977,144.7z M45.653,108.393c-3.634,8.228-7.184,16.268-10.752,24.347
		c9.903,0,19.638,0,29.514,0C58.14,124.597,51.948,116.562,45.653,108.393z"/>
	<path fill-rule="evenodd" clip-rule="evenodd" fill="#627D53" d="M131.799,131.298c-0.333,0-0.577,0-0.819,0
		c-3.809-0.001-7.618,0.009-11.427-0.018c-0.448-0.003-0.935-0.123-1.335-0.324c-6.032-3.041-12.059-6.093-18.068-9.179
		c-0.579-0.297-1.008-0.269-1.568-0.011c-6.673,3.087-13.355,6.15-20.037,9.218c-3.266,1.499-6.068,0.8-8.247-2.064
		c-5.446-7.162-10.892-14.326-16.331-21.495c-1.813-2.389-2.053-5.329-0.65-7.575c2.271-3.638,7.313-3.998,10.052-0.696
		c1.767,2.128,3.494,4.29,5.299,6.511c1.247-0.749,2.479-1.489,3.71-2.23c2.558-1.54,5.108-3.095,7.681-4.61
		c0.509-0.301,0.653-0.612,0.587-1.203c-0.32-2.906-0.584-5.816-0.875-8.8c3.263,0,6.455,0,9.787,0
		c-0.189,1.922-0.325,3.82-0.582,5.704c-0.148,1.092,0.022,1.894,0.835,2.766c1.954,2.095,1.546,4.883-0.799,6.629
		c-2.747,2.046-5.602,3.946-8.408,5.91c-2.002,1.403-4.001,2.811-6.064,4.259c0.972,1.281,1.872,2.528,2.856,3.703
		c0.157,0.188,0.738,0.176,1.048,0.058c6.195-2.343,12.402-4.657,18.554-7.112c2.173-0.866,3.94-0.717,5.889,0.663
		c6.34,4.487,12.771,8.849,19.204,13.205c0.913,0.619,2,1.021,3.055,1.382c1.989,0.679,4.005,1.278,6.026,1.854
		c0.503,0.144,0.652,0.354,0.634,0.842C131.777,129.522,131.799,130.364,131.799,131.298z"/>
	<path fill-rule="evenodd" clip-rule="evenodd" fill="#627D53" d="M50.773,97.286c-4.423-0.097-8.176-3.572-8.153-8.257
		c0.022-4.503,3.762-8.198,8.272-8.166c4.505,0.031,8.188,3.771,8.164,8.287C59.031,93.67,55.336,97.299,50.773,97.286z"/>
	<path fill-rule="evenodd" clip-rule="evenodd" fill="#627D53" d="M45.408,92.166c-0.506,0-0.875,0-1.37,0
		c0.287-1.451,0.562-2.847,0.834-4.23c1.262-0.178,1.369-0.069,1.142,1.07C45.808,90.047,45.614,91.089,45.408,92.166z"/>
	<polygon fill-rule="evenodd" clip-rule="evenodd" fill="#627D53" points="88.853,86 87.442,86 86.189,88 87.442,88 	"/>
</g>
<g>
	<path fill="#FFFFFF" d="M38.671,26.92c-0.52-0.577-0.779-1.403-0.779-2.48v-0.76h1.976v0.912c0,0.861,0.361,1.292,1.083,1.292
		c0.354,0,0.624-0.104,0.808-0.313c0.183-0.209,0.275-0.548,0.275-1.017c0-0.558-0.127-1.048-0.38-1.473
		c-0.254-0.424-0.722-0.934-1.406-1.529c-0.861-0.76-1.463-1.446-1.805-2.062c-0.342-0.614-0.513-1.308-0.513-2.08
		c0-1.052,0.266-1.865,0.798-2.441c0.532-0.576,1.305-0.865,2.318-0.865c1,0,1.758,0.289,2.271,0.865
		c0.513,0.576,0.77,1.402,0.77,2.479v0.551H42.11v-0.684c0-0.455-0.089-0.788-0.266-0.997c-0.178-0.209-0.437-0.313-0.779-0.313
		c-0.697,0-1.045,0.424-1.045,1.273c0,0.48,0.13,0.93,0.39,1.349c0.259,0.418,0.731,0.925,1.416,1.52
		c0.874,0.761,1.476,1.45,1.805,2.071c0.33,0.621,0.494,1.35,0.494,2.186c0,1.089-0.269,1.925-0.808,2.508
		c-0.538,0.582-1.32,0.873-2.346,0.873C39.957,27.783,39.19,27.496,38.671,26.92z"/>
	<path fill="#FFFFFF" d="M45.321,14.294h3.078c1.039,0,1.817,0.278,2.337,0.836s0.779,1.374,0.779,2.45v1.312
		c0,1.077-0.26,1.894-0.779,2.451s-1.298,0.836-2.337,0.836h-0.988v5.415h-2.09V14.294z M48.399,20.279
		c0.342,0,0.599-0.096,0.77-0.285c0.171-0.19,0.256-0.514,0.256-0.969v-1.578c0-0.455-0.085-0.778-0.256-0.969
		c-0.171-0.189-0.427-0.285-0.77-0.285h-0.988v4.086H48.399z"/>
	<path fill="#FFFFFF" d="M53.32,26.91c-0.544-0.583-0.817-1.406-0.817-2.471v-6.992c0-1.063,0.272-1.887,0.817-2.47
		c0.544-0.582,1.33-0.874,2.356-0.874c1.026,0,1.812,0.292,2.356,0.874c0.545,0.583,0.817,1.406,0.817,2.47v6.992
		c0,1.064-0.272,1.888-0.817,2.471c-0.544,0.582-1.33,0.873-2.356,0.873C54.65,27.783,53.864,27.492,53.32,26.91z M56.759,24.572
		v-7.258c0-0.873-0.361-1.311-1.083-1.311c-0.722,0-1.083,0.438-1.083,1.311v7.258c0,0.875,0.361,1.312,1.083,1.312
		C56.398,25.884,56.759,25.447,56.759,24.572z"/>
	<path fill="#FFFFFF" d="M60.255,14.294h3.097c1.077,0,1.862,0.25,2.356,0.751c0.494,0.5,0.741,1.27,0.741,2.308v0.817
		c0,1.381-0.456,2.254-1.368,2.622v0.038c0.506,0.152,0.865,0.463,1.074,0.931c0.209,0.469,0.313,1.096,0.313,1.881v2.337
		c0,0.381,0.012,0.688,0.038,0.922s0.089,0.465,0.19,0.693h-2.128c-0.076-0.215-0.126-0.418-0.152-0.607
		c-0.025-0.19-0.038-0.533-0.038-1.026v-2.433c0-0.607-0.098-1.031-0.294-1.272s-0.535-0.361-1.017-0.361h-0.722v5.7h-2.09V14.294z
		 M63.105,19.994c0.418,0,0.731-0.107,0.94-0.323s0.313-0.576,0.313-1.083v-1.026c0-0.481-0.085-0.829-0.256-1.045
		c-0.171-0.215-0.44-0.323-0.808-0.323h-0.95v3.801H63.105z"/>
	<path fill="#FFFFFF" d="M69.508,16.193h-2.185v-1.899h6.46v1.899h-2.185v11.4h-2.09V16.193z"/>
	<path fill="#FFFFFF" d="M77.83,14.294h2.09v5.415h2.242v-5.415h2.09v13.3h-2.09v-5.984H79.92v5.984h-2.09V14.294z"/>
	<path fill="#FFFFFF" d="M86.475,26.91c-0.544-0.583-0.817-1.406-0.817-2.471v-6.992c0-1.063,0.272-1.887,0.817-2.47
		c0.544-0.582,1.33-0.874,2.356-0.874c1.026,0,1.812,0.292,2.356,0.874c0.545,0.583,0.817,1.406,0.817,2.47v6.992
		c0,1.064-0.272,1.888-0.817,2.471c-0.544,0.582-1.33,0.873-2.356,0.873C87.805,27.783,87.019,27.492,86.475,26.91z M89.914,24.572
		v-7.258c0-0.873-0.361-1.311-1.083-1.311c-0.722,0-1.083,0.438-1.083,1.311v7.258c0,0.875,0.361,1.312,1.083,1.312
		C89.553,25.884,89.914,25.447,89.914,24.572z"/>
	<path fill="#FFFFFF" d="M94.968,16.193h-2.185v-1.899h6.46v1.899h-2.185v11.4h-2.09V16.193z"/>
	<path fill="#FFFFFF" d="M100.25,14.294h5.7v1.899h-3.61v3.516h2.869v1.9h-2.869v4.084h3.61v1.9h-5.7V14.294z"/>
	<path fill="#FFFFFF" d="M107.147,14.294h2.09v11.399h3.439v1.9h-5.529V14.294z"/>
	<path fill="#FFFFFF" d="M114.101,26.92c-0.52-0.577-0.779-1.403-0.779-2.48v-0.76h1.976v0.912c0,0.861,0.361,1.292,1.083,1.292
		c0.354,0,0.624-0.104,0.808-0.313c0.183-0.209,0.275-0.548,0.275-1.017c0-0.558-0.127-1.048-0.38-1.473
		c-0.254-0.424-0.722-0.934-1.406-1.529c-0.861-0.76-1.463-1.446-1.805-2.062c-0.342-0.614-0.513-1.308-0.513-2.08
		c0-1.052,0.266-1.865,0.798-2.441c0.532-0.576,1.305-0.865,2.318-0.865c1,0,1.758,0.289,2.271,0.865
		c0.513,0.576,0.77,1.402,0.77,2.479v0.551h-1.976v-0.684c0-0.455-0.089-0.788-0.266-0.997c-0.178-0.209-0.437-0.313-0.779-0.313
		c-0.697,0-1.045,0.424-1.045,1.273c0,0.48,0.13,0.93,0.39,1.349c0.259,0.418,0.731,0.925,1.416,1.52
		c0.874,0.761,1.476,1.45,1.805,2.071c0.33,0.621,0.494,1.35,0.494,2.186c0,1.089-0.269,1.925-0.808,2.508
		c-0.538,0.582-1.32,0.873-2.346,0.873C115.386,27.783,114.62,27.496,114.101,26.92z"/>
	<path fill="#FFFFFF" d="M49.045,45.805c-0.393-0.52-0.589-1.273-0.589-2.262v-1.387c0-0.696,0.12-1.279,0.361-1.748
		s0.633-0.811,1.178-1.025v-0.038c-0.494-0.202-0.858-0.528-1.093-0.979s-0.351-1.029-0.351-1.739v-0.246
		c0-1.076,0.259-1.894,0.779-2.451c0.519-0.557,1.298-0.836,2.337-0.836h2.394v1.9h-2.356c-0.342,0-0.605,0.102-0.789,0.303
		c-0.184,0.203-0.275,0.533-0.275,0.988v0.817c0,0.507,0.104,0.868,0.313,1.083s0.522,0.323,0.94,0.323h0.817v-1.482h2.052v1.482
		h0.589v1.899h-0.589v4.37c0,0.38,0.012,0.688,0.038,0.922c0.025,0.234,0.088,0.466,0.19,0.693h-2.09
		c-0.102-0.278-0.165-0.627-0.19-1.045h-0.038c-0.228,0.418-0.491,0.729-0.788,0.931c-0.298,0.203-0.668,0.305-1.112,0.305
		C50.014,46.584,49.438,46.324,49.045,45.805z M52.712,43.486v-3.078h-0.798c-0.481,0-0.83,0.131-1.045,0.39
		c-0.216,0.26-0.323,0.694-0.323,1.302v1.35c0,0.443,0.089,0.76,0.266,0.949s0.424,0.285,0.741,0.285
		C52.211,44.684,52.598,44.285,52.712,43.486z"/>
	<path fill="#FFFFFF" d="M59.551,33.094h3.097c1.077,0,1.862,0.25,2.356,0.75c0.494,0.501,0.741,1.271,0.741,2.309v0.817
		c0,1.38-0.456,2.255-1.368,2.622v0.037c0.506,0.152,0.865,0.463,1.074,0.932s0.313,1.096,0.313,1.881v2.337
		c0,0.38,0.012,0.688,0.038,0.922s0.089,0.466,0.19,0.693h-2.128c-0.076-0.216-0.126-0.418-0.152-0.608
		c-0.025-0.189-0.038-0.531-0.038-1.025v-2.432c0-0.608-0.098-1.033-0.294-1.273s-0.535-0.361-1.017-0.361h-0.722v5.7h-2.09V33.094z
		 M62.401,38.793c0.418,0,0.731-0.107,0.94-0.322s0.313-0.576,0.313-1.083v-1.026c0-0.48-0.085-0.829-0.256-1.045
		c-0.171-0.215-0.44-0.322-0.808-0.322h-0.95v3.799H62.401z"/>
	<path fill="#FFFFFF" d="M67.208,33.094h5.7v1.9h-3.61v3.515h2.869v1.899h-2.869v4.086h3.61v1.899h-5.7V33.094z"/>
	<path fill="#FFFFFF" d="M74.562,45.719c-0.52-0.576-0.779-1.402-0.779-2.479v-0.761h1.976v0.912c0,0.861,0.361,1.292,1.083,1.292
		c0.354,0,0.624-0.104,0.808-0.313c0.183-0.209,0.275-0.548,0.275-1.017c0-0.557-0.127-1.048-0.38-1.473
		c-0.254-0.424-0.722-0.934-1.406-1.529c-0.861-0.76-1.463-1.447-1.805-2.062c-0.342-0.614-0.513-1.308-0.513-2.081
		c0-1.051,0.266-1.864,0.798-2.441c0.532-0.576,1.305-0.864,2.318-0.864c1,0,1.758,0.288,2.271,0.864
		c0.513,0.577,0.77,1.403,0.77,2.48v0.551h-1.976v-0.684c0-0.457-0.089-0.789-0.266-0.998c-0.178-0.209-0.437-0.313-0.779-0.313
		c-0.697,0-1.045,0.425-1.045,1.272c0,0.482,0.13,0.932,0.39,1.35c0.259,0.418,0.731,0.924,1.416,1.52
		c0.874,0.76,1.476,1.451,1.805,2.071c0.33,0.62,0.494,1.349,0.494,2.185c0,1.09-0.269,1.926-0.808,2.508
		c-0.538,0.584-1.32,0.875-2.346,0.875C75.847,46.584,75.081,46.295,74.562,45.719z"/>
	<path fill="#FFFFFF" d="M81.876,45.709c-0.544-0.582-0.817-1.405-0.817-2.469v-6.992c0-1.064,0.272-1.888,0.817-2.471
		c0.544-0.582,1.33-0.874,2.356-0.874c1.026,0,1.812,0.292,2.356,0.874c0.545,0.583,0.817,1.406,0.817,2.471v6.992
		c0,1.063-0.272,1.887-0.817,2.469c-0.544,0.584-1.33,0.875-2.356,0.875C83.207,46.584,82.421,46.293,81.876,45.709z M85.315,43.373
		v-7.258c0-0.875-0.361-1.312-1.083-1.312c-0.722,0-1.083,0.437-1.083,1.312v7.258c0,0.873,0.361,1.311,1.083,1.311
		C84.955,44.684,85.315,44.246,85.315,43.373z"/>
	<path fill="#FFFFFF" d="M88.812,33.094h3.097c1.077,0,1.862,0.25,2.356,0.75c0.494,0.501,0.741,1.271,0.741,2.309v0.817
		c0,1.38-0.456,2.255-1.368,2.622v0.037c0.506,0.152,0.865,0.463,1.074,0.932s0.313,1.096,0.313,1.881v2.337
		c0,0.38,0.012,0.688,0.038,0.922s0.089,0.466,0.19,0.693h-2.128c-0.076-0.216-0.126-0.418-0.152-0.608
		c-0.025-0.189-0.038-0.531-0.038-1.025v-2.432c0-0.608-0.098-1.033-0.294-1.273s-0.535-0.361-1.017-0.361h-0.722v5.7h-2.09V33.094z
		 M91.662,38.793c0.418,0,0.731-0.107,0.94-0.322s0.313-0.576,0.313-1.083v-1.026c0-0.48-0.085-0.829-0.256-1.045
		c-0.171-0.215-0.44-0.322-0.808-0.322h-0.95v3.799H91.662z"/>
	<path fill="#FFFFFF" d="M98.065,34.994H95.88v-1.9h6.46v1.9h-2.185v11.399h-2.09V34.994z"/>
	<path fill="#FFFFFF" d="M103.765,45.719c-0.52-0.576-0.779-1.402-0.779-2.479v-0.761h1.976v0.912c0,0.861,0.361,1.292,1.083,1.292
		c0.354,0,0.624-0.104,0.808-0.313c0.183-0.209,0.275-0.548,0.275-1.017c0-0.557-0.127-1.048-0.38-1.473
		c-0.254-0.424-0.722-0.934-1.406-1.529c-0.861-0.76-1.463-1.447-1.805-2.062c-0.342-0.614-0.513-1.308-0.513-2.081
		c0-1.051,0.266-1.864,0.798-2.441c0.532-0.576,1.305-0.864,2.318-0.864c1,0,1.758,0.288,2.271,0.864
		c0.513,0.577,0.77,1.403,0.77,2.48v0.551h-1.976v-0.684c0-0.457-0.089-0.789-0.266-0.998c-0.178-0.209-0.437-0.313-0.779-0.313
		c-0.697,0-1.045,0.425-1.045,1.272c0,0.482,0.13,0.932,0.39,1.35c0.259,0.418,0.731,0.924,1.416,1.52
		c0.874,0.76,1.476,1.451,1.805,2.071c0.33,0.62,0.494,1.349,0.494,2.185c0,1.09-0.269,1.926-0.808,2.508
		c-0.538,0.584-1.32,0.875-2.346,0.875C105.05,46.584,104.284,46.295,103.765,45.719z"/>
</g>
</svg>
