<?xml version="1.0" encoding="utf-8"?>
<!-- Generator: Adobe Illustrator 16.0.0, SVG Export Plug-In . SVG Version: 6.00 Build 0)  -->
<!DOCTYPE svg PUBLIC "-//W3C//DTD SVG 1.1//EN" "http://www.w3.org/Graphics/SVG/1.1/DTD/svg11.dtd">
<svg version="1.1" id="Layer_1" xmlns="http://www.w3.org/2000/svg" xmlns:xlink="http://www.w3.org/1999/xlink" x="0px" y="0px"
	 width="157px" height="151px" viewBox="0 28 157 151" enable-background="new 0 28 157 151" xml:space="preserve">
<path d="M276.667-29.779"/>
<circle cx="75.387" cy="103.039" r="63.5"/>
<g>
	<path fill="#FFFFFF" d="M85.028,85.75l-23.683,3.843l-0.908,2.793c0.978-0.047,1.816-0.069,2.515-0.069
		c1.537,0,2.748,0.396,3.632,1.187c0.884,0.793,1.327,1.7,1.327,2.724c0,1.632-0.466,4.052-1.397,7.265l-9.71,33.393
		c-0.792,2.655-1.188,4.845-1.188,6.565c0,2.61,0.896,4.765,2.689,6.463c1.792,1.7,4.202,2.55,7.23,2.55
		c7.917,0,15.391-6.123,22.424-18.371l-2.375-1.398c-2.935,4.518-5.449,7.638-7.545,9.36c-0.792,0.699-1.584,1.048-2.375,1.048
		c-0.466,0-0.908-0.221-1.327-0.663s-0.628-0.919-0.628-1.433c0-0.883,0.395-2.746,1.187-5.589L89.219,85.75H85.028z M77.658,56.62
		c-1.98,2.003-2.969,4.425-2.969,7.265c0,2.841,1.001,5.264,3.004,7.266c2.002,2.003,4.401,3.004,7.196,3.004
		c2.84,0,5.262-1.001,7.265-3.004c2.002-2.001,3.003-4.424,3.003-7.266c0-2.839-0.989-5.262-2.969-7.265
		c-1.979-2.002-4.412-3.004-7.299-3.004C82.047,53.616,79.637,54.618,77.658,56.62z"/>
</g>
</svg>
