<svg width="23" height="22" viewBox="0 0 23 22" fill="none" xmlns="http://www.w3.org/2000/svg">
<path d="M5.9082 11.0617H17.0878M5.9082 6.58984H12.6159" stroke="white" stroke-width="1.5" stroke-linecap="round" stroke-linejoin="round"/>
<path d="M1.43555 20.3295V3.23591C1.43555 2.64291 1.67112 2.0742 2.09043 1.65488C2.50975 1.23557 3.07846 1 3.67146 1H19.3229C19.9159 1 20.4846 1.23557 20.9039 1.65488C21.3232 2.0742 21.5588 2.64291 21.5588 3.23591V14.4155C21.5588 15.0085 21.3232 15.5772 20.9039 15.9965C20.4846 16.4158 19.9159 16.6514 19.3229 16.6514H6.98173C6.6466 16.6514 6.31577 16.7268 6.0137 16.8719C5.71163 17.0171 5.44605 17.2283 5.2366 17.4899L2.63064 20.7476C2.54392 20.8563 2.42556 20.9353 2.29195 20.9738C2.15833 21.0123 2.01606 21.0083 1.88481 20.9624C1.75356 20.9165 1.63983 20.8309 1.55934 20.7175C1.47886 20.6041 1.4356 20.4685 1.43555 20.3295Z" stroke="white" stroke-width="1.5"/>
</svg>
