<svg width="37" height="36" viewBox="0 0 37 36" fill="none" xmlns="http://www.w3.org/2000/svg">
<circle cx="18.8541" cy="17.957" r="16.8362" fill="#F4F3ED" stroke="black" stroke-width="2.17241"/>
<path d="M25.0705 20.76L22.8863 20.5106C22.6295 20.4805 22.3692 20.5089 22.1249 20.5938C21.8806 20.6787 21.6588 20.8179 21.476 21.0008L19.8938 22.583C17.4528 21.3413 15.4687 19.3572 14.227 16.9162L15.8178 15.3254C16.1876 14.9556 16.3682 14.4397 16.308 13.9151L16.0586 11.7481C16.01 11.3286 15.8087 10.9415 15.4932 10.6608C15.1776 10.3801 14.7697 10.2254 14.3474 10.2261H12.8597C11.888 10.2261 11.0797 11.0344 11.1399 12.0061C11.5956 19.3498 17.4688 25.2144 24.8039 25.6701C25.7756 25.7303 26.5839 24.922 26.5839 23.9503V22.4626C26.5925 21.5941 25.939 20.8632 25.0705 20.76Z" fill="black"/>
</svg>
