<?xml version="1.0" encoding="utf-8"?>
<!-- Generator: Adobe Illustrator 16.0.0, SVG Export Plug-In . SVG Version: 6.00 Build 0)  -->
<!DOCTYPE svg PUBLIC "-//W3C//DTD SVG 1.1//EN" "http://www.w3.org/Graphics/SVG/1.1/DTD/svg11.dtd">
<svg version="1.1" id="Layer_1" xmlns="http://www.w3.org/2000/svg" xmlns:xlink="http://www.w3.org/1999/xlink" x="0px" y="0px"
	 width="16px" height="16px" viewBox="18 0 16 16" enable-background="new 18 0 16 16" xml:space="preserve">
<g>
	<path fill-rule="evenodd" clip-rule="evenodd" fill="#627D53" d="M26.037,1.772c0.183,0.048,0.36,0.106,0.505,0.238
		c0.162,0.148,0.28,0.327,0.299,0.545c0.021,0.238,0.031,0.481,0.012,0.719c-0.039,0.439-0.302,0.717-0.764,0.86
		c0.177,0,0.354-0.001,0.532,0c0.677,0.007,1.229,0.445,1.385,1.1c0.023,0.103,0.036,0.21,0.037,0.315
		c0.003,0.996,0.001,1.991,0.001,2.987c0,0.023-0.002,0.047-0.003,0.082c-0.233,0-0.464,0-0.704,0
		c-0.158,1.752-0.315,3.494-0.474,5.24c-0.633,0-1.256,0-1.89,0c-0.157-1.743-0.313-3.482-0.472-5.232c-0.233,0-0.463,0-0.709,0
		c0-0.054,0-0.096,0-0.137c0-0.961-0.001-1.921,0.001-2.881c0-0.861,0.61-1.473,1.469-1.475c0.161,0,0.323,0,0.455,0
		c-0.126-0.071-0.282-0.14-0.414-0.239c-0.177-0.131-0.287-0.322-0.307-0.54c-0.021-0.25-0.03-0.504-0.007-0.753
		c0.04-0.419,0.341-0.726,0.756-0.811c0.02-0.004,0.037-0.013,0.055-0.019C25.879,1.772,25.958,1.772,26.037,1.772z"/>
</g>
</svg>
