<svg width="36" height="36" viewBox="0 0 36 36" fill="none" xmlns="http://www.w3.org/2000/svg">
<g clip-path="url(#clip0_113_1021)">
<path d="M30.0348 10.5105C30.0348 10.5105 30.1316 10.4206 30.3253 10.2407C30.519 10.0608 30.6158 9.71395 30.6158 9.20006C30.6158 8.68617 30.4221 8.24937 30.0348 7.88965C29.6475 7.52993 29.1772 7.35007 28.6239 7.35007C28.0706 7.35007 27.6002 7.52993 27.2129 7.88965C26.8256 8.24937 26.6319 8.68617 26.6319 9.20006C26.6319 9.71395 26.8256 10.1508 27.2129 10.5105C27.6002 10.8702 28.0706 11.0501 28.6239 11.0501C29.1772 11.0501 29.6475 10.8702 30.0348 10.5105ZM35.2636 3.65006C35.2636 6.84902 34.7414 9.61439 33.697 11.9462C32.6527 14.2779 30.8994 16.5936 28.4371 18.8933C27.3167 19.9211 25.968 21.0516 24.391 22.285L23.976 29.5886C23.9484 29.7942 23.8377 29.9612 23.6441 30.0896L15.6764 34.4063C15.5795 34.4577 15.4689 34.4834 15.3444 34.4834C15.1784 34.4834 15.0193 34.4256 14.8671 34.31L13.5392 33.0766C13.3594 32.8968 13.304 32.6912 13.3732 32.46L15.1369 27.1412L9.30634 21.7261L3.57956 23.3641C3.53806 23.377 3.47581 23.3834 3.39282 23.3834C3.19916 23.3834 3.04008 23.3256 2.91559 23.21L1.58764 21.9766C1.35248 21.7325 1.3179 21.482 1.48389 21.2251L6.13171 13.8251C6.27004 13.6452 6.44987 13.5424 6.67119 13.5167L14.5351 13.1313C15.8631 11.6667 17.0804 10.4141 18.187 9.3735C20.7876 6.97107 23.2636 5.31378 25.6152 4.40163C27.9668 3.48948 30.9478 3.0334 34.5581 3.0334C34.7518 3.0334 34.9178 3.09442 35.0561 3.21647C35.1945 3.33852 35.2636 3.48305 35.2636 3.65006Z" fill="#343A40"/>
</g>
<defs>
<clipPath id="clip0_113_1021">
<rect width="34.5333" height="34.5333" fill="white" transform="matrix(1 0 0 -1 0.733398 35.1001)"/>
</clipPath>
</defs>
</svg>
