<?xml version="1.0" encoding="utf-8"?>
<!-- Generator: Adobe Illustrator 16.0.0, SVG Export Plug-In . SVG Version: 6.00 Build 0)  -->
<!DOCTYPE svg PUBLIC "-//W3C//DTD SVG 1.1//EN" "http://www.w3.org/Graphics/SVG/1.1/DTD/svg11.dtd">
<svg version="1.1" id="Layer_1" xmlns="http://www.w3.org/2000/svg" xmlns:xlink="http://www.w3.org/1999/xlink" x="0px" y="0px"
	 width="157px" height="179px" viewBox="0 0 157 179" enable-background="new 0 0 157 179" xml:space="preserve">
<rect x="1.5" y="1" fill-rule="evenodd" clip-rule="evenodd" fill="#FFFFFF" stroke="#627D53" stroke-width="2" stroke-miterlimit="10" width="155" height="177"/>
<rect x="0.5" fill-rule="evenodd" clip-rule="evenodd" fill="#627D53" width="155" height="56"/>
<g>
	<path fill="#FFFFFF" d="M33.113,36.207c-0.52-0.576-0.779-1.402-0.779-2.479v-0.761h1.976v0.912c0,0.861,0.361,1.292,1.083,1.292
		c0.354,0,0.624-0.104,0.808-0.313c0.183-0.209,0.275-0.548,0.275-1.017c0-0.557-0.127-1.048-0.38-1.473
		c-0.254-0.424-0.722-0.934-1.406-1.529c-0.861-0.76-1.463-1.447-1.805-2.062c-0.342-0.614-0.513-1.308-0.513-2.081
		c0-1.051,0.266-1.864,0.798-2.441c0.532-0.576,1.305-0.864,2.318-0.864c1,0,1.758,0.288,2.271,0.864
		c0.513,0.577,0.77,1.403,0.77,2.48v0.551h-1.976v-0.684c0-0.457-0.089-0.789-0.266-0.998c-0.178-0.209-0.437-0.313-0.779-0.313
		c-0.697,0-1.045,0.425-1.045,1.272c0,0.482,0.13,0.932,0.39,1.35c0.259,0.418,0.731,0.924,1.416,1.52
		c0.874,0.76,1.476,1.451,1.805,2.071c0.33,0.62,0.494,1.349,0.494,2.185c0,1.09-0.269,1.926-0.808,2.508
		c-0.538,0.584-1.32,0.875-2.346,0.875C34.398,37.072,33.632,36.783,33.113,36.207z"/>
	<path fill="#FFFFFF" d="M41.321,23.582h2.831l2.166,13.3h-2.09l-0.38-2.642v0.039h-2.375l-0.38,2.603h-1.938L41.321,23.582z
		 M43.601,32.474L42.67,25.9h-0.038l-0.912,6.573H43.601z"/>
	<path fill="#FFFFFF" d="M47.325,23.582h2.09v13.3h-2.09V23.582z"/>
	<path fill="#FFFFFF" d="M50.973,23.582h2.09v11.4h3.439v1.899h-5.529V23.582z"/>
	<path fill="#FFFFFF" d="M57.508,23.582h2.09v13.3h-2.09V23.582z"/>
	<path fill="#FFFFFF" d="M61.156,23.582h2.622l2.033,7.961h0.038v-7.961h1.862v13.3h-2.147l-2.508-9.709h-0.038v9.709h-1.862V23.582
		z"/>
	<path fill="#FFFFFF" d="M69.915,36.207c-0.532-0.576-0.798-1.402-0.798-2.479v-6.992c0-1.077,0.266-1.903,0.798-2.48
		c0.532-0.576,1.305-0.864,2.318-0.864c1.013,0,1.786,0.288,2.318,0.864c0.532,0.577,0.798,1.403,0.798,2.48v1.14h-1.976v-1.272
		c0-0.875-0.361-1.312-1.083-1.312c-0.722,0-1.083,0.437-1.083,1.312v7.276c0,0.861,0.361,1.292,1.083,1.292
		c0.722,0,1.083-0.431,1.083-1.292v-2.603h-1.045v-1.9h3.021v4.352c0,1.076-0.266,1.902-0.798,2.479
		c-0.532,0.576-1.305,0.865-2.318,0.865C71.22,37.072,70.447,36.783,69.915,36.207z"/>
	<path fill="#FFFFFF" d="M79.737,23.582h2.09v11.4h3.439v1.899h-5.529V23.582z"/>
	<path fill="#FFFFFF" d="M86.273,23.582h5.7v1.9h-3.61v3.515h2.869v1.899h-2.869v4.086h3.61v1.899h-5.7V23.582z"/>
	<path fill="#FFFFFF" d="M94.785,23.582h2.831l2.166,13.3h-2.09l-0.38-2.642v0.039h-2.375l-0.38,2.603h-1.938L94.785,23.582z
		 M97.065,32.474L96.134,25.9h-0.038l-0.912,6.573H97.065z"/>
	<path fill="#FFFFFF" d="M101.396,36.207c-0.532-0.576-0.798-1.402-0.798-2.479v-6.992c0-1.077,0.266-1.903,0.798-2.48
		c0.532-0.576,1.305-0.864,2.318-0.864c1.013,0,1.786,0.288,2.318,0.864c0.532,0.577,0.798,1.403,0.798,2.48v1.14h-1.976v-1.272
		c0-0.875-0.361-1.312-1.083-1.312c-0.722,0-1.083,0.437-1.083,1.312v7.276c0,0.861,0.361,1.292,1.083,1.292
		c0.722,0,1.083-0.431,1.083-1.292v-2.603h-1.045v-1.9h3.021v4.352c0,1.076-0.266,1.902-0.798,2.479
		c-0.532,0.576-1.305,0.865-2.318,0.865C102.701,37.072,101.929,36.783,101.396,36.207z"/>
	<path fill="#FFFFFF" d="M108.901,36.207c-0.532-0.576-0.798-1.402-0.798-2.479V23.582h2.09V33.88c0,0.456,0.092,0.786,0.275,0.987
		c0.184,0.203,0.447,0.305,0.789,0.305c0.342,0,0.605-0.102,0.789-0.305c0.184-0.201,0.275-0.531,0.275-0.987V23.582h2.014v10.146
		c0,1.076-0.266,1.902-0.798,2.479c-0.532,0.576-1.305,0.865-2.318,0.865S109.434,36.783,108.901,36.207z"/>
	<path fill="#FFFFFF" d="M115.817,23.582h5.7v1.9h-3.61v3.515h2.869v1.899h-2.869v4.086h3.61v1.899h-5.7V23.582z"/>
	<path fill="#FFFFFF" d="M123.17,36.207c-0.52-0.576-0.779-1.402-0.779-2.479v-0.761h1.976v0.912c0,0.861,0.361,1.292,1.083,1.292
		c0.354,0,0.624-0.104,0.808-0.313c0.183-0.209,0.275-0.548,0.275-1.017c0-0.557-0.127-1.048-0.38-1.473
		c-0.254-0.424-0.722-0.934-1.406-1.529c-0.861-0.76-1.463-1.447-1.805-2.062c-0.342-0.614-0.513-1.308-0.513-2.081
		c0-1.051,0.266-1.864,0.798-2.441c0.532-0.576,1.305-0.864,2.318-0.864c1,0,1.758,0.288,2.271,0.864
		c0.513,0.577,0.77,1.403,0.77,2.48v0.551h-1.976v-0.684c0-0.457-0.089-0.789-0.266-0.998c-0.178-0.209-0.437-0.313-0.779-0.313
		c-0.697,0-1.045,0.425-1.045,1.272c0,0.482,0.13,0.932,0.39,1.35c0.259,0.418,0.731,0.924,1.416,1.52
		c0.874,0.76,1.476,1.451,1.805,2.071c0.33,0.62,0.494,1.349,0.494,2.185c0,1.09-0.269,1.926-0.808,2.508
		c-0.538,0.584-1.32,0.875-2.346,0.875C124.456,37.072,123.689,36.783,123.17,36.207z"/>
</g>
<g>
	<path fill-rule="evenodd" clip-rule="evenodd" fill="#627D53" d="M77.347,154.473c-9.813,0-19.625,0.01-29.438-0.02
		c-0.604-0.002-1.283-0.167-1.796-0.475c-1.018-0.61-1.312-1.875-0.839-2.949c0.479-1.086,1.668-1.714,2.824-1.37
		c1.983,0.592,3.939,1.272,5.918,1.882c0.552,0.17,1.137,0.299,1.711,0.317c5.927,0.187,11.854,0.353,17.782,0.513
		c2.102,0.057,3.68-0.832,4.944-2.535c1.247-1.679,1.601-3.679,2.291-5.554c0.364-0.987,0.852-1.413,1.926-1.507
		c7.784-0.68,15.563-1.429,23.342-2.153c4.049-0.376,8.098-0.766,12.15-1.097c0.438-0.035,1.085,0.148,1.309,0.464
		c0.216,0.305,0.137,0.96-0.032,1.371c-0.412,1.004-1.146,1.911-1.388,2.941c-0.309,1.319-1.286,1.956-2.143,2.742
		c-2.529,2.316-5.094,4.595-7.621,6.915c-0.427,0.391-0.854,0.526-1.421,0.525C97.025,154.47,87.186,154.473,77.347,154.473z
		 M110.68,141.81c0.107,1.291,0.206,2.464,0.307,3.683c1.152-0.101,2.218-0.194,3.321-0.292c-0.107-1.271-0.207-2.445-0.312-3.688
		C112.873,141.613,111.83,141.706,110.68,141.81z M105.775,142.266c0.093,1.225,0.18,2.375,0.275,3.619
		c1.129-0.09,2.195-0.174,3.333-0.264c-0.104-1.246-0.202-2.417-0.305-3.652C107.931,142.071,106.889,142.165,105.775,142.266z
		 M100.852,142.716c0.097,1.235,0.187,2.382,0.281,3.574c1.15-0.097,2.197-0.187,3.322-0.282c-0.1-1.22-0.193-2.365-0.292-3.58
		C103.035,142.525,102.014,142.615,100.852,142.716z M99.527,146.426c-0.098-1.246-0.187-2.371-0.279-3.557
		c-1.13,0.104-2.176,0.201-3.314,0.305c0.089,1.179,0.175,2.301,0.267,3.512C97.318,146.599,98.363,146.517,99.527,146.426z
		 M94.601,146.814c-0.098-1.226-0.187-2.346-0.28-3.503c-1.147,0.114-2.195,0.216-3.318,0.326c0.098,1.178,0.19,2.292,0.287,3.452
		C92.43,146.995,93.454,146.91,94.601,146.814z M86.53,147.479c1.109-0.093,2.103-0.177,3.159-0.267
		c-0.097-1.178-0.188-2.277-0.284-3.439c-1.088,0.103-2.104,0.199-3.188,0.302C86.323,145.226,86.422,146.3,86.53,147.479z
		 M81.209,147.915c1.316-0.112,2.51-0.214,3.729-0.317c-0.114-1.178-0.218-2.247-0.327-3.377c-0.681,0.066-1.284,0.108-1.88,0.193
		c-0.149,0.021-0.355,0.151-0.402,0.28C81.949,145.727,81.602,146.771,81.209,147.915z M115.596,141.364
		c0.098,1.144,0.189,2.215,0.282,3.285c0.059,0.005,0.117,0.009,0.175,0.013c0.553-1.122,1.106-2.244,1.722-3.497
		C116.963,141.239,116.315,141.299,115.596,141.364z"/>
	<path fill-rule="evenodd" clip-rule="evenodd" fill="#627D53" d="M61.171,141.365c-2.381,0.369-4.843,0.753-7.306,1.132
		c-1.523,0.235-3.043,0.491-4.573,0.671c-0.423,0.05-1.071,0.002-1.258-0.259c-0.183-0.254-0.026-0.907,0.185-1.265
		c5.183-8.789,10.393-17.561,15.599-26.336c4.786-8.065,9.577-16.128,14.346-24.205c0.229-0.386,0.359-0.885,0.373-1.336
		c0.067-2.259,0.079-4.521,0.114-6.78c0.009-0.562-0.038-1.227,0.737-1.276c0.835-0.055,0.853,0.619,0.888,1.222
		c0.002,0.046,0.046,0.089,0.101,0.188c1.759-0.728,3.308-0.188,4.861,0.755c1.626,0.987,3.372,0.733,5.077,0.103
		c0.576-0.214,1.159-0.521,1.702,0.026c0.568,0.573,0.482,1.229,0.208,1.923c-1.237,3.129-4.275,4.699-7.791,3.982
		c-1.144-0.232-2.276-0.524-3.417-0.78c-0.251-0.057-0.512-0.073-0.877-0.123c0,1.101,0,2.126,0,3.165
		c-2.038-0.316-2.385-0.1-3.041,1.815C71.962,108.98,66.822,123.971,61.7,138.97C61.447,139.711,61.356,140.506,61.171,141.365z"/>
	<path fill-rule="evenodd" clip-rule="evenodd" fill="#627D53" d="M80.027,96.789c-0.083,5.556-0.161,11.11-0.249,16.667
		c-0.125,7.948-0.258,15.899-0.388,23.849c-0.019,1.161-0.081,1.262-1.223,1.441c-4.25,0.668-8.504,1.322-12.757,1.977
		c-0.153,0.023-0.312,0.004-0.604,0.004c5.032-14.703,10.042-29.343,15.054-43.982C79.917,96.759,79.972,96.773,80.027,96.789z"/>
	<path fill-rule="evenodd" clip-rule="evenodd" fill="#627D53" d="M63.638,144.929c1.602,0,3,0,4.517,0
		c0,0.601-0.008,1.122,0.002,1.644c0.027,1.436,0.763,2.203,2.228,2.234c1.648,0.035,3.299-0.017,4.947,0.027
		c0.454,0.014,0.901,0.237,1.537,0.416c-0.985,1.173-2.033,1.559-3.249,1.525c-4.333-0.117-8.666-0.259-13-0.373
		c-1.271-0.033-2.545-0.005-3.871-0.127c1.615-1.97,2.463-4.635,5.524-5.31c0-1.089-0.067-2.206,0.02-3.312
		c0.078-0.991,0.2-2.013,0.519-2.948c5.074-14.903,10.181-29.796,15.283-44.688c0.077-0.226,0.109-0.537,0.271-0.647
		c0.271-0.186,0.689-0.401,0.933-0.308c0.243,0.092,0.41,0.532,0.489,0.85c0.049,0.194-0.129,0.446-0.207,0.673
		c-5.138,15.021-10.31,30.033-15.367,45.083C63.682,141.253,63.824,143.065,63.638,144.929z"/>
	<path fill-rule="evenodd" clip-rule="evenodd" fill="#627D53" d="M69.763,144.96c1.908-0.055,3.172,0.877,4.428,2.226
		c-1.446,0-2.748,0.012-4.048-0.021c-0.13-0.002-0.351-0.267-0.363-0.421C69.737,146.172,69.763,145.595,69.763,144.96z"/>
</g>
</svg>
