<?xml version="1.0" encoding="utf-8"?>
<!-- Generator: Adobe Illustrator 16.0.0, SVG Export Plug-In . SVG Version: 6.00 Build 0)  -->
<!DOCTYPE svg PUBLIC "-//W3C//DTD SVG 1.1//EN" "http://www.w3.org/Graphics/SVG/1.1/DTD/svg11.dtd">
<svg version="1.1" id="Layer_1" xmlns="http://www.w3.org/2000/svg" xmlns:xlink="http://www.w3.org/1999/xlink" x="0px" y="0px"
	 width="157px" height="179px" viewBox="0 0 157 179" enable-background="new 0 0 157 179" xml:space="preserve">
<rect x="1.483" y="1" fill-rule="evenodd" clip-rule="evenodd" fill="#FFFFFF" stroke="#627D53" stroke-width="2" stroke-miterlimit="10" width="155" height="177"/>
<rect x="1.483" fill-rule="evenodd" clip-rule="evenodd" fill="#627D53" width="155" height="56"/>
<g>
	<path fill="#FFFFFF" d="M22.629,34.217c-0.526-0.57-0.789-1.374-0.789-2.413V24.66c0-1.038,0.263-1.843,0.789-2.413
		c0.525-0.57,1.289-0.855,2.29-0.855c1,0,1.764,0.285,2.29,0.855c0.525,0.57,0.788,1.375,0.788,2.413v1.406h-1.976v-1.539
		c0-0.823-0.349-1.235-1.045-1.235c-0.696,0-1.045,0.412-1.045,1.235v7.429c0,0.811,0.349,1.216,1.045,1.216
		c0.697,0,1.045-0.405,1.045-1.216v-2.033h1.976v1.881c0,1.039-0.263,1.843-0.788,2.413c-0.526,0.57-1.289,0.855-2.29,0.855
		C23.918,35.072,23.155,34.787,22.629,34.217z"/>
	<path fill="#FFFFFF" d="M30.866,21.582h2.831l2.166,13.3h-2.09l-0.38-2.641v0.038h-2.375l-0.38,2.603H28.7L30.866,21.582z
		 M33.146,30.474L32.215,23.9h-0.038l-0.912,6.574H33.146z"/>
	<path fill="#FFFFFF" d="M36.869,21.582h3.097c1.077,0,1.862,0.25,2.356,0.75s0.741,1.27,0.741,2.308v0.817
		c0,1.38-0.456,2.254-1.368,2.622v0.038c0.506,0.152,0.865,0.463,1.074,0.931c0.209,0.469,0.313,1.096,0.313,1.881v2.337
		c0,0.38,0.012,0.688,0.038,0.922s0.089,0.465,0.19,0.693h-2.128c-0.076-0.215-0.126-0.418-0.152-0.608s-0.038-0.532-0.038-1.026
		v-2.432c0-0.608-0.098-1.032-0.294-1.273s-0.535-0.361-1.017-0.361h-0.722v5.7h-2.09V21.582z M39.719,27.282
		c0.418,0,0.731-0.107,0.94-0.323s0.313-0.576,0.313-1.083V24.85c0-0.481-0.085-0.829-0.256-1.045
		c-0.171-0.215-0.44-0.323-0.808-0.323h-0.95v3.8H39.719z"/>
	<path fill="#FFFFFF" d="M47.566,21.582h3.097c1.077,0,1.862,0.25,2.356,0.75s0.741,1.27,0.741,2.308v0.817
		c0,1.38-0.456,2.254-1.368,2.622v0.038c0.506,0.152,0.865,0.463,1.074,0.931c0.209,0.469,0.313,1.096,0.313,1.881v2.337
		c0,0.38,0.012,0.688,0.038,0.922s0.089,0.465,0.19,0.693h-2.128c-0.076-0.215-0.126-0.418-0.152-0.608s-0.038-0.532-0.038-1.026
		v-2.432c0-0.608-0.098-1.032-0.294-1.273s-0.535-0.361-1.017-0.361h-0.722v5.7h-2.09V21.582z M50.416,27.282
		c0.418,0,0.731-0.107,0.94-0.323s0.313-0.576,0.313-1.083V24.85c0-0.481-0.085-0.829-0.256-1.045
		c-0.171-0.215-0.44-0.323-0.808-0.323h-0.95v3.8H50.416z"/>
	<path fill="#FFFFFF" d="M56.838,21.582h2.831l2.166,13.3h-2.09l-0.38-2.641v0.038H56.99l-0.38,2.603h-1.938L56.838,21.582z
		 M59.118,30.474L58.188,23.9h-0.038l-0.912,6.574H59.118z"/>
	<path fill="#FFFFFF" d="M63.459,34.217c-0.526-0.57-0.789-1.374-0.789-2.413V24.66c0-1.038,0.263-1.843,0.789-2.413
		c0.525-0.57,1.289-0.855,2.29-0.855c1,0,1.764,0.285,2.29,0.855c0.525,0.57,0.788,1.375,0.788,2.413v1.406h-1.976v-1.539
		c0-0.823-0.349-1.235-1.045-1.235c-0.696,0-1.045,0.412-1.045,1.235v7.429c0,0.811,0.349,1.216,1.045,1.216
		c0.697,0,1.045-0.405,1.045-1.216v-2.033h1.976v1.881c0,1.039-0.263,1.843-0.788,2.413c-0.526,0.57-1.289,0.855-2.29,0.855
		C64.748,35.072,63.985,34.787,63.459,34.217z"/>
	<path fill="#FFFFFF" d="M70.081,21.582h2.09v13.3h-2.09V21.582z"/>
	<path fill="#FFFFFF" d="M73.729,21.582h2.622l2.033,7.961h0.038v-7.961h1.862v13.3h-2.147l-2.508-9.709h-0.038v9.709h-1.862V21.582
		z"/>
	<path fill="#FFFFFF" d="M82.487,34.208c-0.532-0.577-0.798-1.403-0.798-2.479v-6.992c0-1.077,0.266-1.903,0.798-2.479
		c0.532-0.576,1.305-0.865,2.318-0.865c1.013,0,1.786,0.289,2.318,0.865c0.532,0.577,0.798,1.403,0.798,2.479v1.14h-1.976v-1.273
		c0-0.874-0.361-1.311-1.083-1.311c-0.722,0-1.083,0.437-1.083,1.311v7.277c0,0.861,0.361,1.292,1.083,1.292
		c0.722,0,1.083-0.431,1.083-1.292v-2.603H84.9v-1.9h3.021v4.351c0,1.077-0.266,1.903-0.798,2.479
		c-0.532,0.576-1.305,0.864-2.318,0.864C83.792,35.072,83.02,34.784,82.487,34.208z"/>
	<path fill="#FFFFFF" d="M93.944,23.482h-2.185v-1.9h6.46v1.9h-2.185v11.4h-2.09V23.482z"/>
	<path fill="#FFFFFF" d="M99.226,21.582h3.097c1.077,0,1.862,0.25,2.356,0.75s0.741,1.27,0.741,2.308v0.817
		c0,1.38-0.456,2.254-1.368,2.622v0.038c0.506,0.152,0.865,0.463,1.074,0.931c0.209,0.469,0.313,1.096,0.313,1.881v2.337
		c0,0.38,0.012,0.688,0.038,0.922s0.089,0.465,0.19,0.693h-2.128c-0.076-0.215-0.126-0.418-0.152-0.608s-0.038-0.532-0.038-1.026
		v-2.432c0-0.608-0.098-1.032-0.294-1.273s-0.535-0.361-1.017-0.361h-0.722v5.7h-2.09V21.582z M102.076,27.282
		c0.418,0,0.731-0.107,0.94-0.323s0.313-0.576,0.313-1.083V24.85c0-0.481-0.085-0.829-0.256-1.045
		c-0.171-0.215-0.44-0.323-0.808-0.323h-0.95v3.8H102.076z"/>
	<path fill="#FFFFFF" d="M108.498,21.582h2.831l2.166,13.3h-2.09l-0.38-2.641v0.038h-2.375l-0.38,2.603h-1.938L108.498,21.582z
		 M110.778,30.474l-0.931-6.574h-0.038l-0.912,6.574H110.778z"/>
	<path fill="#FFFFFF" d="M115.119,34.217c-0.526-0.57-0.789-1.374-0.789-2.413V24.66c0-1.038,0.263-1.843,0.789-2.413
		c0.525-0.57,1.289-0.855,2.29-0.855c1,0,1.764,0.285,2.29,0.855c0.525,0.57,0.788,1.375,0.788,2.413v1.406h-1.976v-1.539
		c0-0.823-0.349-1.235-1.045-1.235c-0.696,0-1.045,0.412-1.045,1.235v7.429c0,0.811,0.349,1.216,1.045,1.216
		c0.697,0,1.045-0.405,1.045-1.216v-2.033h1.976v1.881c0,1.039-0.263,1.843-0.788,2.413c-0.526,0.57-1.289,0.855-2.29,0.855
		C116.408,35.072,115.645,34.787,115.119,34.217z"/>
	<path fill="#FFFFFF" d="M121.74,21.582h2.09v5.605l2.66-5.605h2.09l-2.489,4.883l2.527,8.417h-2.185l-1.767-5.928l-0.836,1.691
		v4.237h-2.09V21.582z"/>
	<path fill="#FFFFFF" d="M129.891,34.208c-0.52-0.577-0.779-1.403-0.779-2.479v-0.76h1.976v0.912c0,0.861,0.361,1.292,1.083,1.292
		c0.354,0,0.624-0.104,0.808-0.313c0.183-0.209,0.275-0.548,0.275-1.017c0-0.557-0.127-1.048-0.38-1.473
		c-0.254-0.424-0.722-0.934-1.406-1.529c-0.861-0.76-1.463-1.447-1.805-2.062c-0.342-0.614-0.513-1.308-0.513-2.081
		c0-1.051,0.266-1.865,0.798-2.441c0.532-0.576,1.305-0.865,2.318-0.865c1,0,1.758,0.289,2.271,0.865
		c0.513,0.577,0.77,1.403,0.77,2.479v0.551h-1.976v-0.684c0-0.456-0.089-0.789-0.266-0.998c-0.178-0.209-0.437-0.313-0.779-0.313
		c-0.697,0-1.045,0.424-1.045,1.273c0,0.481,0.13,0.931,0.39,1.349c0.259,0.418,0.731,0.924,1.416,1.52
		c0.874,0.76,1.476,1.451,1.805,2.071c0.33,0.621,0.494,1.349,0.494,2.185c0,1.089-0.269,1.925-0.808,2.508
		c-0.538,0.583-1.32,0.874-2.346,0.874C131.177,35.072,130.411,34.784,129.891,34.208z"/>
</g>
<g>
	<path fill-rule="evenodd" clip-rule="evenodd" fill="#627D53" d="M11.615,112.869c0.958-3.408,1.507-7,2.946-10.191
		c6.147-13.634,16.792-21.082,31.816-21.269c21.387-0.264,42.779-0.136,64.169-0.058c17.809,0.066,32.027,12.914,34.26,30.73
		c0.084,0.671,0.353,1.318,0.535,1.977c0,1.387,0,2.773,0,4.16c-0.326,1.636-0.627,3.277-0.983,4.906
		c-3.616,16.554-17.274,27.734-34.16,27.791c-21.284,0.069-42.568,0.055-63.852,0.005c-17.314-0.041-31.756-12.713-34.189-29.854
		c-0.081-0.567-0.357-1.106-0.543-1.659C11.615,117.229,11.615,115.049,11.615,112.869z M78.366,149.149
		c10.593,0,21.186,0.024,31.778-0.022c1.868-0.008,3.747-0.221,5.598-0.488c14.936-2.166,28.537-15.811,27.568-33.834
		c-0.984-18.333-15.135-31.625-32.85-31.672c-21.285-0.058-42.57-0.088-63.854,0.01c-18.4,0.085-32.978,14.876-32.877,33.14
		c0.102,18.33,14.716,32.833,33.154,32.871C57.377,149.176,67.872,149.158,78.366,149.149z"/>
	<path fill-rule="evenodd" clip-rule="evenodd" fill="#FFFFFF" d="M78.366,149.153c-10.494,0.005-20.988,0.022-31.482,0
		c-18.438-0.038-33.052-14.541-33.154-32.871c-0.101-18.264,14.477-33.055,32.877-33.14c21.284-0.098,42.57-0.067,63.854-0.01
		c17.715,0.047,31.865,13.339,32.85,31.672c0.968,18.023-12.632,31.668-27.568,33.834c-1.852,0.268-3.73,0.48-5.598,0.488
		C99.551,149.174,88.958,149.149,78.366,149.153z M78.406,86.104c-2.873,0-5.745-0.01-8.618,0.002
		c-9.112,0.038-18.291-0.603-27.321,0.278c-15.474,1.508-27.356,15.813-26.479,30.713c0.986,16.756,13.851,29.041,30.463,29.063
		c15.254,0.02,30.509,0.025,45.763,0.008c7.427-0.009,14.924,0.541,22.269-0.263c15.544-1.701,27.361-15.817,26.486-30.743
		c-0.981-16.739-13.857-29.029-30.469-29.057C99.801,86.088,89.104,86.103,78.406,86.104z"/>
	<path fill-rule="evenodd" clip-rule="evenodd" fill="#627D53" d="M78.406,86.104c10.698-0.001,21.396-0.016,32.093,0.002
		c16.612,0.027,29.488,12.317,30.469,29.057c0.875,14.926-10.942,29.042-26.486,30.743c-7.345,0.804-14.841,0.254-22.269,0.263
		c-15.254,0.018-30.509,0.012-45.763-0.008c-16.612-0.021-29.477-12.307-30.463-29.063c-0.877-14.9,11.006-29.205,26.479-30.713
		c9.03-0.881,18.209-0.24,27.321-0.278C72.661,86.095,75.533,86.104,78.406,86.104z M78.365,132.484
		c9.705,0,19.409,0.021,29.114-0.005c9.487-0.026,17.026-7.206,17.031-16.168c0.006-9.065-7.398-16.403-16.812-16.434
		c-19.408-0.062-38.817-0.052-58.226,0.004c-9.547,0.028-16.992,7.187-17.024,16.177c-0.032,9.144,7.464,16.377,17.1,16.417
		C59.154,132.516,68.76,132.484,78.365,132.484z M127.217,102.921c1.232,2.523,2.35,4.81,3.556,7.279
		c0.994-0.284,1.964-0.563,3.395-0.973c-1.51-2.954-2.817-5.513-4.208-8.234C128.817,101.797,128.103,102.299,127.217,102.921z
		 M24.44,104.964c-0.814,3.036-1.56,5.817-2.408,8.979c1.523,0.066,2.545,0.111,3.537,0.155c0.707-2.665,1.349-5.09,2.02-7.622
		C26.626,106.015,25.774,105.605,24.44,104.964z M29.664,129.199c-1.179-2.439-2.282-4.722-3.465-7.168
		c-0.911,0.215-1.821,0.43-3.417,0.809c1.425,2.932,2.699,5.554,4.098,8.432C28.144,130.33,28.902,129.766,29.664,129.199z
		 M124.751,132.048c-2.415,1.548-4.537,2.908-6.848,4.39c0.454,0.947,0.893,1.865,1.506,3.144c2.649-1.713,4.995-3.229,7.547-4.878
		C126.077,133.643,125.469,132.912,124.751,132.048z M29.872,97.59c0.987,1.168,1.684,1.994,2.233,2.644
		c2.573-1.661,4.624-2.985,6.823-4.405c-0.429-0.948-0.844-1.866-1.438-3.18C34.771,94.412,32.422,95.936,29.872,97.59z
		 M132.487,127.379c0.836-3.146,1.574-5.924,2.396-9.018c-1.542,0-2.566,0-3.568,0c-0.657,2.516-1.291,4.94-1.937,7.414
		C130.279,126.24,131.057,126.642,132.487,127.379z M42.216,140.884c0.213-1.587,0.337-2.511,0.458-3.407
		c-2.544-1.016-4.892-1.953-7.379-2.945c-0.551,0.838-1.077,1.637-1.918,2.916C36.382,138.615,39.129,139.684,42.216,140.884z
		 M121.745,97.784c0.56-0.985,1.047-1.842,1.766-3.104c-3.131-1.149-5.798-2.129-8.83-3.241c-0.175,1.675-0.271,2.593-0.353,3.37
		C116.891,95.837,119.155,96.745,121.745,97.784z M72.089,91.54c-2.992,0-5.695,0-8.319,0c-0.83,2.533,0.099,3.314,2.353,3.179
		c1.941-0.116,3.896-0.023,5.966-0.023C72.089,93.443,72.089,92.596,72.089,91.54z M105.95,91.305c-2.553,0-4.891-0.102-7.207,0.077
		c-0.518,0.04-1.358,1.083-1.33,1.625c0.031,0.58,0.88,1.552,1.431,1.595c2.308,0.18,4.638,0.076,7.105,0.076
		C105.95,93.48,105.95,92.641,105.95,91.305z M59.324,137.756c-2.97,0-5.592,0-8.342,0c0,1.094,0,2.009,0,3.01
		c2.875,0,5.559,0,8.342,0C59.324,139.688,59.324,138.842,59.324,137.756z M84.722,137.74c0.061,1.23,0.103,2.078,0.161,3.254
		c2.124,0,4.083-0.096,6.031,0.023c2.684,0.162,3.051-1.041,2.173-3.277C90.375,137.74,87.737,137.74,84.722,137.74z
		 M110.188,137.797c-2.883,0-5.584,0-8.522,0c0.078,1.151,0.141,2.07,0.207,3.039c2.919,0,5.552,0,8.315,0
		C110.188,139.754,110.188,138.83,110.188,137.797z M46.712,94.488c2.956,0,5.554,0,8.208,0c0-1.122,0-2.035,0-2.955
		c-2.874,0-5.543,0-8.208,0C46.712,92.633,46.712,93.477,46.712,94.488z M80.686,91.389c0,1.152,0,2.07,0,3.072
		c2.834,0,5.5,0,8.39,0c-0.071-1.162-0.126-2.073-0.187-3.072C86.074,91.389,83.547,91.389,80.686,91.389z M76.322,137.764
		c-2.909,0-5.507,0-8.259,0c0,1.094,0,2.005,0,3.009c2.849,0,5.513,0,8.259,0C76.322,139.704,76.322,138.859,76.322,137.764z"/>
	<path fill-rule="evenodd" clip-rule="evenodd" fill="#FFFFFF" d="M78.365,132.484c-9.605,0-19.211,0.031-28.816-0.009
		c-9.636-0.04-17.132-7.273-17.1-16.417c0.032-8.99,7.477-16.148,17.024-16.177c19.409-0.056,38.818-0.065,58.226-0.004
		c9.413,0.03,16.817,7.368,16.812,16.434c-0.005,8.962-7.543,16.142-17.031,16.168C97.774,132.506,88.07,132.484,78.365,132.484z
		 M78.486,130.078c0,0.006,0,0.012,0,0.018c9.806,0,19.613,0.056,29.419-0.018c8.001-0.061,14.082-6.058,14.144-13.771
		c0.061-7.529-5.904-13.85-13.712-13.906c-19.909-0.146-39.82-0.096-59.729-0.014c-4.742,0.02-8.641,2.114-11.273,6.118
		c-2.947,4.483-3.313,9.254-0.813,14.062c2.496,4.799,6.563,7.407,11.952,7.476C58.477,130.168,68.482,130.078,78.486,130.078z"/>
	<path fill-rule="evenodd" clip-rule="evenodd" fill="#FFFFFF" d="M127.217,102.921c0.886-0.622,1.6-1.124,2.742-1.928
		c1.391,2.722,2.699,5.28,4.208,8.234c-1.431,0.41-2.4,0.688-3.395,0.973C129.567,107.73,128.45,105.444,127.217,102.921z"/>
	<path fill-rule="evenodd" clip-rule="evenodd" fill="#FFFFFF" d="M24.44,104.964c1.334,0.642,2.187,1.051,3.148,1.513
		c-0.671,2.532-1.313,4.957-2.02,7.622c-0.991-0.044-2.014-0.089-3.537-0.155C22.88,110.781,23.625,108,24.44,104.964z"/>
	<path fill-rule="evenodd" clip-rule="evenodd" fill="#FFFFFF" d="M29.664,129.199c-0.762,0.566-1.521,1.131-2.785,2.072
		c-1.398-2.878-2.673-5.5-4.098-8.432c1.596-0.379,2.506-0.594,3.417-0.809C27.382,124.478,28.485,126.76,29.664,129.199z"/>
	<path fill-rule="evenodd" clip-rule="evenodd" fill="#FFFFFF" d="M124.751,132.048c0.718,0.864,1.325,1.595,2.206,2.655
		c-2.552,1.649-4.898,3.165-7.547,4.878c-0.613-1.278-1.052-2.196-1.506-3.144C120.215,134.956,122.337,133.596,124.751,132.048z"/>
	<path fill-rule="evenodd" clip-rule="evenodd" fill="#FFFFFF" d="M29.872,97.59c2.55-1.654,4.899-3.178,7.618-4.941
		c0.594,1.313,1.009,2.231,1.438,3.18c-2.199,1.42-4.25,2.744-6.823,4.405C31.556,99.584,30.859,98.758,29.872,97.59z"/>
	<path fill-rule="evenodd" clip-rule="evenodd" fill="#FFFFFF" d="M132.487,127.379c-1.43-0.737-2.208-1.139-3.109-1.604
		c0.646-2.474,1.28-4.898,1.937-7.414c1.002,0,2.026,0,3.568,0C134.062,121.455,133.324,124.232,132.487,127.379z"/>
	<path fill-rule="evenodd" clip-rule="evenodd" fill="#FFFFFF" d="M42.216,140.884c-3.087-1.2-5.834-2.269-8.839-3.437
		c0.841-1.279,1.367-2.078,1.918-2.916c2.487,0.992,4.834,1.93,7.379,2.945C42.554,138.373,42.429,139.297,42.216,140.884z"/>
	<path fill-rule="evenodd" clip-rule="evenodd" fill="#FFFFFF" d="M121.745,97.784c-2.59-1.039-4.854-1.947-7.417-2.976
		c0.082-0.777,0.178-1.695,0.353-3.37c3.032,1.112,5.698,2.092,8.83,3.241C122.792,95.942,122.305,96.799,121.745,97.784z"/>
	<path fill-rule="evenodd" clip-rule="evenodd" fill="#FFFFFF" d="M72.089,91.54c0,1.056,0,1.903,0,3.155
		c-2.071,0-4.025-0.093-5.966,0.023c-2.254,0.136-3.183-0.646-2.353-3.179C66.394,91.54,69.097,91.54,72.089,91.54z"/>
	<path fill-rule="evenodd" clip-rule="evenodd" fill="#FFFFFF" d="M105.95,91.305c0,1.336,0,2.176,0,3.373
		c-2.468,0-4.797,0.104-7.105-0.076c-0.551-0.043-1.399-1.015-1.431-1.595c-0.029-0.542,0.812-1.585,1.33-1.625
		C101.06,91.203,103.397,91.305,105.95,91.305z"/>
	<path fill-rule="evenodd" clip-rule="evenodd" fill="#FFFFFF" d="M59.324,137.756c0,1.086,0,1.933,0,3.01c-2.783,0-5.467,0-8.342,0
		c0-1.001,0-1.916,0-3.01C53.732,137.756,56.354,137.756,59.324,137.756z"/>
	<path fill-rule="evenodd" clip-rule="evenodd" fill="#FFFFFF" d="M84.722,137.74c3.016,0,5.653,0,8.364,0
		c0.878,2.236,0.511,3.439-2.173,3.277c-1.947-0.119-3.907-0.023-6.031-0.023C84.824,139.818,84.782,138.971,84.722,137.74z"/>
	<path fill-rule="evenodd" clip-rule="evenodd" fill="#FFFFFF" d="M110.188,137.797c0,1.033,0,1.957,0,3.039
		c-2.764,0-5.396,0-8.315,0c-0.066-0.969-0.128-1.888-0.207-3.039C104.604,137.797,107.305,137.797,110.188,137.797z"/>
	<path fill-rule="evenodd" clip-rule="evenodd" fill="#FFFFFF" d="M46.712,94.488c0-1.012,0-1.855,0-2.955c2.665,0,5.335,0,8.208,0
		c0,0.92,0,1.833,0,2.955C52.266,94.488,49.668,94.488,46.712,94.488z"/>
	<path fill-rule="evenodd" clip-rule="evenodd" fill="#FFFFFF" d="M80.686,91.389c2.861,0,5.388,0,8.204,0
		c0.061,0.999,0.116,1.91,0.187,3.072c-2.89,0-5.556,0-8.39,0C80.686,93.459,80.686,92.541,80.686,91.389z"/>
	<path fill-rule="evenodd" clip-rule="evenodd" fill="#FFFFFF" d="M76.322,137.764c0,1.096,0,1.94,0,3.009c-2.746,0-5.41,0-8.259,0
		c0-1.004,0-1.915,0-3.009C70.815,137.764,73.413,137.764,76.322,137.764z"/>
	<path fill-rule="evenodd" clip-rule="evenodd" fill="#627D53" d="M78.486,130.078c-10.004,0-20.01,0.09-30.013-0.036
		c-5.389-0.068-9.457-2.677-11.952-7.476c-2.5-4.808-2.134-9.578,0.813-14.062c2.632-4.004,6.531-6.099,11.273-6.118
		c19.91-0.082,39.82-0.132,59.729,0.014c7.808,0.057,13.773,6.377,13.712,13.906c-0.062,7.714-6.143,13.711-14.144,13.771
		c-9.806,0.073-19.613,0.018-29.419,0.018C78.486,130.09,78.486,130.084,78.486,130.078z M78.628,128.322
		c9.406,0,18.813,0.01,28.218-0.003c7.729-0.01,13.307-5.063,13.386-12.097c0.077-6.803-5.429-11.994-13.107-12.025
		c-19.207-0.076-38.415-0.113-57.619,0.084c-2.611,0.025-5.508,0.992-7.748,2.374c-4.313,2.661-5.927,8.224-4.464,13.103
		c1.49,4.971,6.117,8.488,11.63,8.535C58.825,128.379,68.727,128.318,78.628,128.322z"/>
</g>
</svg>
