<?xml version="1.0" encoding="utf-8"?>
<!-- Generator: Adobe Illustrator 16.0.0, SVG Export Plug-In . SVG Version: 6.00 Build 0)  -->
<!DOCTYPE svg PUBLIC "-//W3C//DTD SVG 1.1//EN" "http://www.w3.org/Graphics/SVG/1.1/DTD/svg11.dtd">
<svg version="1.1" id="Layer_1" xmlns="http://www.w3.org/2000/svg" xmlns:xlink="http://www.w3.org/1999/xlink" x="0px" y="0px"
	 width="134.023px" height="152.98px" viewBox="0 0 134.023 152.98" enable-background="new 0 0 134.023 152.98"
	 xml:space="preserve">
<rect x="1.061" y="1" fill-rule="evenodd" clip-rule="evenodd" fill="#FFFFFF" width="131.962" height="150.692"/>
<rect x="1.061" y="1" fill="none" stroke="#235F30" stroke-width="2" stroke-miterlimit="10" width="131.962" height="150.692"/>
<rect x="1.912" y="1.79" fill-rule="evenodd" clip-rule="evenodd" fill="#235F30" width="131.963" height="47.677"/>
<g>
	<path fill="#FFFFFF" d="M17.729,19.717H14.21v3.335h2.507v3.22h-2.53v6.67h-3.22V16.497h6.762V19.717z"/>
	<path fill="#FFFFFF" d="M22.03,20.798h-2.806c0-0.168,0-0.433,0-0.793c0-0.36,0.003-0.728,0.012-1.104
		c0.007-0.375,0.011-0.847,0.011-1.415h1.794h0.989V20.798z M19.27,32.942c0-0.107,0-0.456,0-1.046s-0.004-1.3-0.011-2.127
		c-0.008-0.828-0.012-1.714-0.012-2.657s0-1.817,0-2.622c0-0.805,0.004-1.476,0.012-2.012c0.007-0.537,0.011-0.813,0.011-0.828
		c0.046-0.077,0.153-0.13,0.322-0.161c0.168-0.03,0.513-0.046,1.035-0.046c0.537,0,0.889,0.016,1.058,0.046
		c0.168,0.031,0.276,0.084,0.322,0.161c0,0.016,0.003,0.184,0.011,0.506c0.008,0.322,0.012,0.744,0.012,1.265
		c0,0.521,0,1.115,0,1.783c0,0.667,0,1.345,0,2.035s0,1.369,0,2.036s0,1.269,0,1.806s0,0.974,0,1.311s0,0.521,0,0.552H19.27z"/>
	<path fill="#FFFFFF" d="M27.504,21.465c0.23,0,0.402,0.004,0.517,0.012c0.115,0.008,0.196,0.054,0.242,0.138
		c0.046,0.084,0.069,0.219,0.069,0.403c0,0.184,0,0.46,0,0.828v1.127c-0.015,0.108-0.057,0.177-0.126,0.207
		c-0.069,0.031-0.257,0.046-0.563,0.046h-0.759c0,1.38,0,2.453,0,3.22c0,0.767,0.003,1.342,0.011,1.725s0.023,0.629,0.046,0.736
		c0.023,0.107,0.057,0.184,0.104,0.23c0.046,0.077,0.199,0.115,0.46,0.115h0.115c0.077-0.015,0.146-0.023,0.207-0.023
		c0.061,0,0.115,0,0.161,0c0.184,0,0.288,0.081,0.311,0.241c0.023,0.161,0.034,0.525,0.034,1.093c0,0.353-0.004,0.625-0.011,0.816
		c-0.008,0.192-0.027,0.326-0.058,0.402c-0.031,0.077-0.088,0.123-0.172,0.138c-0.084,0.016-0.204,0.023-0.356,0.023
		c-0.292,0-0.598-0.007-0.92-0.023c-0.322-0.015-0.632-0.065-0.931-0.149c-0.299-0.084-0.575-0.215-0.828-0.391
		s-0.464-0.433-0.632-0.771c-0.23-0.46-0.342-1.334-0.333-2.622c0.007-1.288,0.019-2.875,0.034-4.761h-0.23h-0.138
		c-0.169,0-0.295-0.012-0.38-0.035s-0.146-0.081-0.184-0.172c-0.039-0.092-0.062-0.242-0.069-0.449s-0.011-0.495-0.011-0.862
		c0-0.337,0.003-0.59,0.011-0.759c0.008-0.168,0.042-0.288,0.104-0.356c0.061-0.069,0.161-0.107,0.299-0.115
		c0.138-0.008,0.337-0.019,0.598-0.035c0-0.398-0.004-0.728-0.011-0.989c-0.008-0.261-0.008-0.468,0-0.621
		c0.007-0.153,0.03-0.257,0.069-0.311c0.038-0.054,0.096-0.081,0.172-0.081h1.196h0.598c0.215,0,0.372,0.008,0.472,0.023
		c0.1,0.016,0.168,0.062,0.207,0.138c0.038,0.077,0.058,0.188,0.058,0.333c0,0.146,0,0.349,0,0.609v0.897L27.504,21.465z"/>
	<path fill="#FFFFFF" d="M34.219,32.942c0-0.123,0-0.387,0-0.793s-0.004-0.893-0.011-1.46c-0.008-0.567-0.016-1.173-0.023-1.817
		c-0.008-0.644-0.016-1.261-0.023-1.852c-0.008-0.59-0.016-1.116-0.023-1.576c-0.008-0.46-0.012-0.782-0.012-0.966
		c0-0.199-0.069-0.379-0.207-0.541s-0.345-0.242-0.621-0.242c-0.199,0-0.387,0.054-0.563,0.161c-0.176,0.107-0.28,0.269-0.311,0.483
		c-0.015,0.153-0.027,0.476-0.034,0.966c-0.008,0.491-0.016,1.112-0.023,1.863c-0.008,0.751-0.008,1.618,0,2.599
		c0.007,0.981,0.011,2.039,0.011,3.174h-2.806c0-0.153-0.004-0.272-0.011-0.356c-0.008-0.084-0.012-0.23-0.012-0.437
		s-0.004-0.518-0.011-0.932c-0.008-0.414-0.012-1.023-0.012-1.829c0-0.805,0-1.847,0-3.128c0-1.28,0-2.886,0-4.818h2.553v0.437
		c0.168-0.184,0.41-0.322,0.724-0.414c0.314-0.092,0.633-0.138,0.955-0.138c0.23,0,0.437,0.023,0.621,0.069
		c0.537,0.107,0.962,0.272,1.276,0.495s0.56,0.468,0.736,0.736c0.176,0.269,0.295,0.548,0.356,0.839
		c0.061,0.292,0.107,0.567,0.138,0.828v8.648H34.219z"/>
	<path fill="#FFFFFF" d="M45.812,29.607c-0.016,0.476-0.123,0.92-0.322,1.334s-0.464,0.778-0.793,1.092
		c-0.33,0.314-0.713,0.56-1.15,0.736c-0.437,0.176-0.909,0.264-1.415,0.264c-0.169,0-0.341-0.008-0.518-0.023
		s-0.303-0.038-0.379-0.069c-0.644-0.138-1.15-0.379-1.518-0.725c-0.368-0.345-0.644-0.778-0.828-1.299
		c-0.184-0.521-0.299-1.104-0.345-1.748s-0.069-1.334-0.069-2.07c0-0.69,0.026-1.38,0.08-2.07s0.203-1.307,0.449-1.852
		c0.245-0.544,0.621-0.985,1.127-1.322c0.506-0.337,1.204-0.506,2.093-0.506c0.951,0,1.683,0.245,2.197,0.736
		c0.514,0.491,0.877,1.092,1.092,1.806c0.215,0.713,0.322,1.468,0.322,2.265c0,0.798-0.039,1.511-0.115,2.139h-4.508
		c0,0.199,0.003,0.414,0.011,0.644s0.046,0.445,0.115,0.644s0.172,0.36,0.311,0.483c0.138,0.123,0.345,0.184,0.621,0.184
		c0.26,0,0.444-0.092,0.552-0.276c0.107-0.184,0.184-0.383,0.23-0.598c0.031-0.138,0.054-0.242,0.069-0.311
		c0.015-0.069,0.065-0.119,0.149-0.149c0.084-0.031,0.207-0.05,0.368-0.058c0.161-0.007,0.403-0.012,0.725-0.012h0.575
		c0.23,0,0.406,0.008,0.529,0.023c0.123,0.015,0.21,0.05,0.265,0.104c0.054,0.054,0.084,0.13,0.092,0.23
		S45.827,29.438,45.812,29.607z M43.074,25.927c0-0.168-0.004-0.36-0.011-0.575c-0.008-0.215-0.035-0.426-0.081-0.633
		s-0.13-0.379-0.253-0.518c-0.123-0.138-0.314-0.207-0.575-0.207c-0.307,0-0.525,0.104-0.655,0.31
		c-0.13,0.207-0.219,0.602-0.265,1.185l-0.023,0.437H43.074z"/>
	<path fill="#FFFFFF" d="M52.895,24.915h-0.322c-0.261,0-0.46-0.004-0.598-0.012c-0.138-0.007-0.241-0.026-0.311-0.058
		c-0.069-0.03-0.123-0.076-0.161-0.138c-0.038-0.061-0.08-0.146-0.126-0.253c-0.077-0.169-0.168-0.288-0.276-0.356
		c-0.107-0.069-0.261-0.104-0.46-0.104c-0.246,0-0.453,0.077-0.621,0.23c-0.169,0.153-0.253,0.375-0.253,0.667
		c0,0.276,0.061,0.471,0.184,0.586c0.123,0.115,0.288,0.192,0.495,0.23c0.207,0.039,0.44,0.062,0.701,0.069
		c0.261,0.008,0.521,0.05,0.782,0.126c0.583,0.138,1.054,0.388,1.415,0.748c0.36,0.36,0.625,0.778,0.793,1.253
		c0.168,0.476,0.241,0.978,0.218,1.507c-0.023,0.529-0.134,1.031-0.333,1.506c-0.199,0.476-0.487,0.894-0.862,1.253
		c-0.376,0.36-0.832,0.609-1.369,0.748c-0.307,0.077-0.69,0.115-1.15,0.115c-0.184,0-0.368-0.008-0.552-0.023
		c-0.184-0.015-0.353-0.046-0.506-0.092c-0.506-0.138-0.935-0.379-1.288-0.725c-0.353-0.345-0.629-0.705-0.828-1.081
		c-0.2-0.375-0.322-0.725-0.368-1.046s-0.023-0.529,0.069-0.621l0.115-0.115c0.659,0.015,1.223,0.023,1.69,0.023
		s0.725,0.015,0.771,0.046c0.107,0.107,0.184,0.234,0.23,0.379c0.046,0.146,0.161,0.272,0.345,0.379
		c0.107,0.062,0.237,0.092,0.391,0.092s0.303-0.042,0.449-0.126c0.146-0.084,0.256-0.211,0.333-0.379
		c0.077-0.123,0.115-0.276,0.115-0.46c0-0.184-0.038-0.329-0.115-0.437c-0.153-0.184-0.349-0.291-0.586-0.322
		c-0.238-0.031-0.514-0.061-0.828-0.092c-0.314-0.031-0.652-0.104-1.012-0.219c-0.36-0.115-0.732-0.364-1.115-0.748
		c-0.353-0.353-0.602-0.713-0.748-1.081c-0.146-0.368-0.218-0.828-0.218-1.38c0-0.567,0.092-1.084,0.276-1.552
		s0.44-0.866,0.771-1.196c0.33-0.33,0.72-0.586,1.173-0.771c0.452-0.184,0.955-0.276,1.506-0.276c0.874,0,1.622,0.246,2.243,0.736
		c0.621,0.491,1.039,1.166,1.253,2.024c0.123,0.43,0.134,0.694,0.035,0.794c-0.1,0.1-0.303,0.149-0.609,0.149H52.895z"/>
	<path fill="#FFFFFF" d="M61.014,24.915h-0.322c-0.261,0-0.46-0.004-0.598-0.012c-0.138-0.007-0.241-0.026-0.311-0.058
		c-0.069-0.03-0.123-0.076-0.161-0.138c-0.038-0.061-0.08-0.146-0.126-0.253c-0.077-0.169-0.168-0.288-0.276-0.356
		c-0.107-0.069-0.261-0.104-0.46-0.104c-0.246,0-0.453,0.077-0.621,0.23c-0.169,0.153-0.253,0.375-0.253,0.667
		c0,0.276,0.061,0.471,0.184,0.586c0.123,0.115,0.288,0.192,0.495,0.23c0.207,0.039,0.44,0.062,0.701,0.069
		c0.261,0.008,0.521,0.05,0.782,0.126c0.583,0.138,1.054,0.388,1.415,0.748c0.36,0.36,0.625,0.778,0.793,1.253
		c0.168,0.476,0.241,0.978,0.218,1.507c-0.023,0.529-0.134,1.031-0.333,1.506c-0.199,0.476-0.487,0.894-0.862,1.253
		c-0.376,0.36-0.832,0.609-1.369,0.748c-0.307,0.077-0.69,0.115-1.15,0.115c-0.184,0-0.368-0.008-0.552-0.023
		c-0.184-0.015-0.353-0.046-0.506-0.092c-0.506-0.138-0.935-0.379-1.288-0.725c-0.353-0.345-0.629-0.705-0.828-1.081
		c-0.2-0.375-0.322-0.725-0.368-1.046s-0.023-0.529,0.069-0.621l0.115-0.115c0.659,0.015,1.223,0.023,1.69,0.023
		s0.725,0.015,0.771,0.046c0.107,0.107,0.184,0.234,0.23,0.379c0.046,0.146,0.161,0.272,0.345,0.379
		c0.107,0.062,0.237,0.092,0.391,0.092s0.303-0.042,0.449-0.126c0.146-0.084,0.256-0.211,0.333-0.379
		c0.077-0.123,0.115-0.276,0.115-0.46c0-0.184-0.038-0.329-0.115-0.437c-0.153-0.184-0.349-0.291-0.586-0.322
		c-0.238-0.031-0.514-0.061-0.828-0.092c-0.314-0.031-0.652-0.104-1.012-0.219c-0.36-0.115-0.732-0.364-1.115-0.748
		c-0.353-0.353-0.602-0.713-0.748-1.081c-0.146-0.368-0.218-0.828-0.218-1.38c0-0.567,0.092-1.084,0.276-1.552
		s0.44-0.866,0.771-1.196c0.33-0.33,0.72-0.586,1.173-0.771c0.452-0.184,0.955-0.276,1.506-0.276c0.874,0,1.622,0.246,2.243,0.736
		c0.621,0.491,1.039,1.166,1.253,2.024c0.123,0.43,0.134,0.694,0.035,0.794c-0.1,0.1-0.303,0.149-0.609,0.149H61.014z"/>
	<path fill="#FFFFFF" d="M72.768,19.763c-0.077-0.153-0.207-0.23-0.391-0.23c-0.138,0-0.253,0.046-0.345,0.138
		c-0.123,0.107-0.2,0.28-0.23,0.518c-0.031,0.238-0.035,0.491-0.012,0.759c0.023,0.269,0.073,0.533,0.149,0.793
		c0.077,0.261,0.161,0.468,0.253,0.621c0.199,0.276,0.456,0.544,0.771,0.805s0.648,0.529,1,0.805
		c0.353,0.276,0.698,0.579,1.035,0.909c0.337,0.33,0.621,0.709,0.851,1.139c0.322,0.552,0.521,1.2,0.598,1.943
		c0.076,0.744,0.019,1.464-0.173,2.162s-0.537,1.307-1.035,1.829c-0.499,0.521-1.162,0.843-1.99,0.966
		c-0.153,0.016-0.303,0.026-0.448,0.035c-0.146,0.007-0.303,0.011-0.472,0.011c-0.905,0-1.633-0.149-2.185-0.448
		c-0.552-0.299-0.974-0.705-1.265-1.219c-0.292-0.514-0.487-1.119-0.586-1.817s-0.157-1.438-0.172-2.22h3.542
		c0.015,0.246,0.023,0.518,0.023,0.817c0,0.299,0.015,0.579,0.046,0.839s0.088,0.479,0.173,0.655
		c0.084,0.177,0.218,0.265,0.402,0.265c0.214,0,0.356-0.084,0.425-0.253c0.069-0.168,0.104-0.498,0.104-0.989
		c0-0.276-0.015-0.521-0.046-0.736c-0.031-0.214-0.107-0.425-0.23-0.632c-0.123-0.207-0.307-0.426-0.552-0.656
		s-0.575-0.498-0.989-0.805c-0.491-0.368-0.905-0.717-1.242-1.047c-0.337-0.33-0.613-0.682-0.828-1.058
		c-0.215-0.376-0.372-0.794-0.472-1.254c-0.1-0.46-0.149-0.989-0.149-1.587c0.015-1.426,0.337-2.515,0.966-3.266
		c0.628-0.751,1.656-1.127,3.082-1.127c1.027,0,1.855,0.246,2.484,0.736c0.46,0.353,0.801,0.793,1.024,1.322
		c0.222,0.529,0.379,1.046,0.471,1.553c0.092,0.506,0.138,0.943,0.138,1.311c0,0.368,0,0.567,0,0.598h-3.496
		c-0.046-0.613-0.069-1.081-0.069-1.403C72.929,20.223,72.875,19.962,72.768,19.763z"/>
	<path fill="#FFFFFF" d="M81.807,21.465c0.23,0,0.402,0.004,0.517,0.012c0.115,0.008,0.196,0.054,0.242,0.138
		c0.046,0.084,0.069,0.219,0.069,0.403c0,0.184,0,0.46,0,0.828v1.127c-0.015,0.108-0.057,0.177-0.126,0.207
		c-0.069,0.031-0.257,0.046-0.563,0.046h-0.759c0,1.38,0,2.453,0,3.22c0,0.767,0.003,1.342,0.011,1.725s0.023,0.629,0.046,0.736
		c0.023,0.107,0.057,0.184,0.104,0.23c0.046,0.077,0.199,0.115,0.46,0.115h0.115c0.077-0.015,0.146-0.023,0.207-0.023
		c0.061,0,0.115,0,0.161,0c0.184,0,0.288,0.081,0.311,0.241c0.023,0.161,0.034,0.525,0.034,1.093c0,0.353-0.004,0.625-0.011,0.816
		c-0.008,0.192-0.027,0.326-0.058,0.402c-0.031,0.077-0.088,0.123-0.172,0.138c-0.084,0.016-0.204,0.023-0.356,0.023
		c-0.292,0-0.598-0.007-0.92-0.023c-0.322-0.015-0.632-0.065-0.931-0.149c-0.299-0.084-0.575-0.215-0.828-0.391
		s-0.464-0.433-0.632-0.771c-0.23-0.46-0.342-1.334-0.333-2.622c0.007-1.288,0.019-2.875,0.034-4.761h-0.23h-0.138
		c-0.169,0-0.295-0.012-0.38-0.035s-0.146-0.081-0.184-0.172c-0.039-0.092-0.062-0.242-0.069-0.449s-0.011-0.495-0.011-0.862
		c0-0.337,0.003-0.59,0.011-0.759c0.008-0.168,0.042-0.288,0.104-0.356c0.061-0.069,0.161-0.107,0.299-0.115
		c0.138-0.008,0.337-0.019,0.598-0.035c0-0.398-0.004-0.728-0.011-0.989c-0.008-0.261-0.008-0.468,0-0.621
		c0.007-0.153,0.03-0.257,0.069-0.311c0.038-0.054,0.096-0.081,0.172-0.081h1.196h0.598c0.215,0,0.372,0.008,0.472,0.023
		c0.1,0.016,0.168,0.062,0.207,0.138c0.038,0.077,0.058,0.188,0.058,0.333c0,0.146,0,0.349,0,0.609v0.897L81.807,21.465z"/>
	<path fill="#FFFFFF" d="M88.522,32.666c-0.276,0.138-0.567,0.234-0.874,0.288c-0.307,0.053-0.583,0.08-0.828,0.08
		c-0.307,0-0.529-0.023-0.667-0.069c-0.721-0.199-1.254-0.506-1.599-0.92c-0.345-0.414-0.579-0.928-0.702-1.541
		s-0.176-1.314-0.161-2.104c0.015-0.79,0.023-1.652,0.023-2.587c0-0.276,0-0.621,0-1.035s0.003-0.835,0.011-1.265
		c0.008-0.429,0.012-0.832,0.012-1.208c0-0.375,0-0.663,0-0.862h2.714c0,1.35,0,2.458,0,3.324s0,1.575,0,2.127
		c0,0.552,0,0.993,0,1.322c0,0.33,0,0.632,0,0.909c0,0.399,0.084,0.675,0.253,0.828c0.168,0.154,0.445,0.23,0.828,0.23
		c0.322-0.046,0.544-0.176,0.667-0.391c0.015-0.046,0.026-0.1,0.035-0.161c0.007-0.061,0.015-0.184,0.023-0.368
		c0.007-0.184,0.011-0.448,0.011-0.793c0-0.345,0.004-0.824,0.012-1.438c0.007-0.613,0.015-1.372,0.023-2.277
		c0.007-0.905,0.011-2.009,0.011-3.312h2.783c0,1.825,0.003,3.668,0.012,5.532c0.007,1.863,0.011,3.852,0.011,5.968h-2.599V32.666z"
		/>
	<path fill="#FFFFFF" d="M97.446,21.649c0.015-0.368,0.023-0.694,0.023-0.978s0-0.602,0-0.955c0-0.353,0-0.693,0-1.023
		c0-0.33,0-0.632,0-0.909c0-0.276,0-0.475,0-0.598c0.444,0,0.889-0.004,1.334-0.012c0.444-0.007,0.912-0.011,1.403-0.011
		c0,0.062,0.003,0.337,0.012,0.828c0.007,0.491,0.011,1.108,0.011,1.852c0,0.744,0,1.583,0,2.519c0,0.936,0,1.89,0,2.864
		s0,1.92,0,2.84s0,1.74,0,2.461s0,1.299,0,1.736s0,0.664,0,0.679h-2.415v-0.483c-0.062,0.077-0.161,0.149-0.299,0.218
		c-0.138,0.069-0.292,0.13-0.46,0.184c-0.169,0.054-0.349,0.096-0.541,0.126c-0.192,0.031-0.372,0.046-0.541,0.046
		c-0.153,0-0.269-0.008-0.345-0.023c-0.659-0.107-1.169-0.337-1.529-0.69c-0.36-0.353-0.629-0.778-0.805-1.276
		c-0.176-0.498-0.284-1.054-0.322-1.667c-0.039-0.613-0.058-1.227-0.058-1.84c-0.016-0.69,0.003-1.38,0.058-2.07
		c0.053-0.69,0.176-1.322,0.368-1.897c0.192-0.575,0.475-1.062,0.851-1.46c0.375-0.398,0.878-0.636,1.507-0.713
		c0.107-0.015,0.214-0.027,0.322-0.035c0.107-0.007,0.214-0.011,0.322-0.011c0.245,0,0.463,0.023,0.655,0.069
		C97.189,21.465,97.338,21.542,97.446,21.649z M96.618,24.041c-0.292,0-0.506,0.077-0.644,0.23s-0.23,0.433-0.276,0.839
		c-0.046,0.407-0.062,0.955-0.046,1.645s0.023,1.572,0.023,2.645c0,0.23,0.065,0.414,0.195,0.552
		c0.13,0.138,0.349,0.207,0.655,0.207c0.245,0,0.429-0.049,0.552-0.149c0.123-0.1,0.21-0.272,0.265-0.518
		c0.053-0.245,0.084-0.586,0.092-1.023c0.007-0.437,0.012-0.985,0.012-1.645c0-0.644-0.008-1.18-0.023-1.61
		c-0.015-0.429-0.046-0.69-0.092-0.782C97.208,24.171,96.971,24.041,96.618,24.041z"/>
	<path fill="#FFFFFF" d="M104.852,20.798h-2.806c0-0.168,0-0.433,0-0.793c0-0.36,0.003-0.728,0.012-1.104
		c0.007-0.375,0.011-0.847,0.011-1.415h1.794h0.989V20.798z M102.092,32.942c0-0.107,0-0.456,0-1.046s-0.004-1.3-0.011-2.127
		c-0.008-0.828-0.012-1.714-0.012-2.657s0-1.817,0-2.622c0-0.805,0.004-1.476,0.012-2.012c0.007-0.537,0.011-0.813,0.011-0.828
		c0.046-0.077,0.153-0.13,0.322-0.161c0.168-0.03,0.513-0.046,1.035-0.046c0.537,0,0.889,0.016,1.058,0.046
		c0.168,0.031,0.276,0.084,0.322,0.161c0,0.016,0.003,0.184,0.011,0.506c0.008,0.322,0.012,0.744,0.012,1.265
		c0,0.521,0,1.115,0,1.783c0,0.667,0,1.345,0,2.035s0,1.369,0,2.036s0,1.269,0,1.806s0,0.974,0,1.311s0,0.521,0,0.552H102.092z"/>
	<path fill="#FFFFFF" d="M113.891,27.1c0,0.644-0.02,1.284-0.058,1.92c-0.039,0.636-0.138,1.219-0.299,1.748
		c-0.161,0.529-0.407,0.985-0.736,1.368c-0.33,0.384-0.786,0.652-1.368,0.805c-0.123,0.031-0.28,0.054-0.472,0.069
		c-0.192,0.015-0.395,0.023-0.609,0.023c-0.215,0-0.426-0.008-0.633-0.023s-0.372-0.038-0.494-0.069
		c-0.675-0.168-1.192-0.425-1.553-0.771s-0.617-0.755-0.771-1.23c-0.153-0.475-0.241-1-0.265-1.576
		c-0.023-0.575-0.042-1.185-0.057-1.828c-0.016-0.751-0.008-1.495,0.023-2.231c0.03-0.736,0.157-1.399,0.379-1.989
		c0.222-0.59,0.59-1.065,1.104-1.426c0.514-0.36,1.246-0.541,2.196-0.541c0.767,0,1.388,0.104,1.863,0.31
		c0.475,0.207,0.843,0.541,1.104,1.001c0.26,0.46,0.433,1.054,0.518,1.782C113.848,25.172,113.891,26.057,113.891,27.1z
		 M109.336,24.754c0,1.012-0.008,1.863-0.023,2.553c-0.016,0.69-0.004,1.242,0.035,1.656c0.038,0.414,0.123,0.709,0.253,0.886
		c0.13,0.176,0.341,0.264,0.632,0.264c0.276,0,0.495-0.096,0.656-0.288c0.161-0.191,0.241-0.502,0.241-0.931v-3.657
		c0-0.521-0.081-0.858-0.241-1.012c-0.161-0.153-0.388-0.23-0.679-0.23c-0.337,0-0.563,0.073-0.678,0.218
		C109.417,24.359,109.352,24.54,109.336,24.754z"/>
	<path fill="#FFFFFF" d="M120.951,24.915h-0.322c-0.261,0-0.46-0.004-0.598-0.012c-0.138-0.007-0.241-0.026-0.311-0.058
		c-0.069-0.03-0.123-0.076-0.161-0.138c-0.038-0.061-0.08-0.146-0.126-0.253c-0.077-0.169-0.168-0.288-0.276-0.356
		c-0.107-0.069-0.261-0.104-0.46-0.104c-0.246,0-0.453,0.077-0.621,0.23c-0.169,0.153-0.253,0.375-0.253,0.667
		c0,0.276,0.061,0.471,0.184,0.586c0.123,0.115,0.288,0.192,0.495,0.23c0.207,0.039,0.44,0.062,0.701,0.069
		c0.261,0.008,0.521,0.05,0.782,0.126c0.583,0.138,1.054,0.388,1.415,0.748c0.36,0.36,0.625,0.778,0.793,1.253
		c0.168,0.476,0.241,0.978,0.218,1.507c-0.023,0.529-0.134,1.031-0.333,1.506c-0.199,0.476-0.487,0.894-0.862,1.253
		c-0.376,0.36-0.832,0.609-1.369,0.748c-0.307,0.077-0.69,0.115-1.15,0.115c-0.184,0-0.368-0.008-0.552-0.023
		c-0.184-0.015-0.353-0.046-0.506-0.092c-0.506-0.138-0.935-0.379-1.288-0.725c-0.353-0.345-0.629-0.705-0.828-1.081
		c-0.2-0.375-0.322-0.725-0.368-1.046s-0.023-0.529,0.069-0.621l0.115-0.115c0.659,0.015,1.223,0.023,1.69,0.023
		s0.725,0.015,0.771,0.046c0.107,0.107,0.184,0.234,0.23,0.379c0.046,0.146,0.161,0.272,0.345,0.379
		c0.107,0.062,0.237,0.092,0.391,0.092s0.303-0.042,0.449-0.126c0.146-0.084,0.256-0.211,0.333-0.379
		c0.077-0.123,0.115-0.276,0.115-0.46c0-0.184-0.038-0.329-0.115-0.437c-0.153-0.184-0.349-0.291-0.586-0.322
		c-0.238-0.031-0.514-0.061-0.828-0.092c-0.314-0.031-0.652-0.104-1.012-0.219c-0.36-0.115-0.732-0.364-1.115-0.748
		c-0.353-0.353-0.602-0.713-0.748-1.081c-0.146-0.368-0.218-0.828-0.218-1.38c0-0.567,0.092-1.084,0.276-1.552
		s0.44-0.866,0.771-1.196c0.33-0.33,0.72-0.586,1.173-0.771c0.452-0.184,0.955-0.276,1.506-0.276c0.874,0,1.622,0.246,2.243,0.736
		c0.621,0.491,1.039,1.166,1.253,2.024c0.123,0.43,0.134,0.694,0.035,0.794c-0.1,0.1-0.303,0.149-0.609,0.149H120.951z"/>
</g>
<polyline fill-rule="evenodd" clip-rule="evenodd" fill="#FFFFFF" points="1,49.341 1,151.98 133,151.98 133,49.341 "/>
<polyline fill="none" stroke="#010101" stroke-width="2" stroke-miterlimit="10" points="1,49.341 1,151.98 133,151.98 133,49.341 
	"/>
<path fill-rule="evenodd" clip-rule="evenodd" fill="#010101" d="M73.114,103.581c-0.607-0.164-0.976,0.06-1.352,0.437
	c-3.232,3.251-6.485,6.48-9.731,9.717c-0.564,0.563-0.569,1.216-0.016,1.769c2.47,2.458,4.95,4.901,7.4,7.378
	c1.226,1.239,1.626,2.749,1.142,4.432c-0.483,1.687-1.631,2.744-3.34,3.119c-1.549,0.34-2.944-0.047-4.083-1.167
	c-3.523-3.469-7.031-6.954-10.548-10.431c-0.334-0.33-0.685-0.643-1.009-0.981c-1.813-1.903-1.781-4.595,0.077-6.45
	c3.191-3.188,6.386-6.375,9.588-9.553c0.263-0.261,0.38-0.519,0.379-0.896c-0.012-4.802-0.011-9.603,0.001-14.403
	c0.001-0.373-0.106-0.634-0.37-0.896c-3.612-3.587-7.217-7.179-10.815-10.778c-2.131-2.131-4.248-4.274-6.367-6.418
	c-1.461-1.479-1.514-3.823-0.127-5.342c1.339-1.469,3.72-1.62,5.299-0.333c0.237,0.193,0.457,0.409,0.674,0.626
	c4.742,4.752,9.486,9.5,14.219,14.262c0.278,0.279,0.554,0.39,0.946,0.389c4.512-0.013,9.024-0.013,13.536,0.002
	c0.397,0,0.665-0.126,0.939-0.399C84.366,72.847,89.18,68.04,94,63.236c1.526-1.521,3.588-1.764,5.21-0.632
	c1.869,1.304,2.177,4.115,0.55,5.752c-4.678,4.714-9.392,9.393-14.093,14.085c-1.111,1.11-2.232,2.209-3.319,3.342
	c-0.169,0.177-0.244,0.509-0.247,0.769c-0.013,5.938-0.009,11.877-0.009,17.814c0,10.739,0.001,21.479-0.003,32.218
	c-0.001,2.317-1.626,4.134-3.968,4.469c-2.108,0.302-4.215-1.067-4.816-3.167c-0.131-0.46-0.183-0.958-0.183-1.439
	c-0.01-10.738-0.008-21.478-0.008-32.217V103.581z"/>
<path fill-rule="evenodd" clip-rule="evenodd" fill="#010101" d="M62.914,67.854c0-4.938,4.033-8.962,8.955-8.936
	c4.954,0.029,8.942,4.029,8.94,8.965c-0.003,4.941-4.021,8.933-8.971,8.912C66.858,76.777,62.914,72.824,62.914,67.854"/>
</svg>
