<?xml version="1.0" encoding="utf-8"?>
<!-- Generator: Adobe Illustrator 16.0.0, SVG Export Plug-In . SVG Version: 6.00 Build 0)  -->
<!DOCTYPE svg PUBLIC "-//W3C//DTD SVG 1.1//EN" "http://www.w3.org/Graphics/SVG/1.1/DTD/svg11.dtd">
<svg version="1.1" id="Layer_1" xmlns="http://www.w3.org/2000/svg" xmlns:xlink="http://www.w3.org/1999/xlink" x="0px" y="0px"
	 width="157px" height="179px" viewBox="0 0 157 179" enable-background="new 0 0 157 179" xml:space="preserve">
<rect x="0.975" y="1" fill-rule="evenodd" clip-rule="evenodd" fill="#FFFFFF" stroke="#627D53" stroke-width="2" stroke-miterlimit="10" width="155" height="177"/>
<rect x="1.975" fill-rule="evenodd" clip-rule="evenodd" fill="#627D53" width="155" height="56"/>
<g>
	<path fill="#FFFFFF" d="M38.703,21.582h3.154c1.076,0,1.862,0.25,2.356,0.75s0.741,1.27,0.741,2.308v0.532
		c0,0.684-0.111,1.242-0.333,1.672c-0.222,0.431-0.56,0.741-1.016,0.931v0.038c1.038,0.354,1.558,1.279,1.558,2.774v1.14
		c0,1.026-0.269,1.808-0.807,2.346c-0.539,0.539-1.327,0.808-2.366,0.808h-3.287V21.582z M41.61,26.997
		c0.418,0,0.731-0.108,0.94-0.323s0.313-0.576,0.313-1.083V24.85c0-0.481-0.085-0.829-0.256-1.045
		c-0.171-0.215-0.44-0.323-0.808-0.323h-1.007v3.515H41.61z M41.99,32.982c0.367,0,0.64-0.098,0.817-0.294s0.266-0.535,0.266-1.017
		v-1.159c0-0.608-0.104-1.029-0.313-1.263s-0.554-0.352-1.036-0.352h-0.931v4.085H41.99z"/>
	<path fill="#FFFFFF" d="M47.043,34.198c-0.544-0.583-0.817-1.406-0.817-2.47v-6.992c0-1.064,0.272-1.887,0.817-2.47
		c0.544-0.582,1.33-0.874,2.356-0.874c1.026,0,1.812,0.292,2.356,0.874c0.545,0.583,0.817,1.406,0.817,2.47v6.992
		c0,1.064-0.272,1.887-0.817,2.47c-0.544,0.583-1.33,0.874-2.356,0.874C48.374,35.072,47.588,34.781,47.043,34.198z M50.482,31.861
		v-7.258c0-0.874-0.361-1.311-1.083-1.311c-0.722,0-1.083,0.437-1.083,1.311v7.258c0,0.874,0.361,1.311,1.083,1.311
		C50.122,33.172,50.482,32.735,50.482,31.861z"/>
	<path fill="#FFFFFF" d="M55.518,28.08l-2.299-6.498h2.204l1.406,4.294h0.038l1.444-4.294h1.976l-2.299,6.498l2.413,6.802h-2.204
		l-1.52-4.636h-0.038l-1.558,4.636h-1.976L55.518,28.08z"/>
	<path fill="#FFFFFF" d="M61.389,21.582h2.09v13.3h-2.09V21.582z"/>
	<path fill="#FFFFFF" d="M65.037,21.582h2.622l2.033,7.961h0.038v-7.961h1.862v13.3h-2.147l-2.508-9.709h-0.038v9.709h-1.862V21.582
		z"/>
	<path fill="#FFFFFF" d="M73.795,34.208c-0.532-0.577-0.798-1.403-0.798-2.479v-6.992c0-1.077,0.266-1.903,0.798-2.479
		c0.532-0.576,1.305-0.865,2.318-0.865c1.013,0,1.786,0.289,2.318,0.865c0.532,0.577,0.798,1.403,0.798,2.479v1.14h-1.976v-1.273
		c0-0.874-0.361-1.311-1.083-1.311c-0.722,0-1.083,0.437-1.083,1.311v7.277c0,0.861,0.361,1.292,1.083,1.292
		c0.722,0,1.083-0.431,1.083-1.292v-2.603h-1.045v-1.9h3.021v4.351c0,1.077-0.266,1.903-0.798,2.479
		c-0.532,0.576-1.305,0.864-2.318,0.864C75.1,35.072,74.328,34.784,73.795,34.208z"/>
	<path fill="#FFFFFF" d="M84.273,34.217c-0.526-0.57-0.789-1.374-0.789-2.413V24.66c0-1.038,0.263-1.843,0.789-2.413
		c0.525-0.57,1.289-0.855,2.29-0.855c1,0,1.764,0.285,2.29,0.855c0.525,0.57,0.788,1.375,0.788,2.413v1.406h-1.976v-1.539
		c0-0.823-0.349-1.235-1.045-1.235c-0.696,0-1.045,0.412-1.045,1.235v7.429c0,0.811,0.349,1.216,1.045,1.216
		c0.697,0,1.045-0.405,1.045-1.216v-2.033h1.976v1.881c0,1.039-0.263,1.843-0.788,2.413c-0.526,0.57-1.289,0.855-2.29,0.855
		C85.562,35.072,84.799,34.787,84.273,34.217z"/>
	<path fill="#FFFFFF" d="M90.895,21.582h2.09v11.4h3.439v1.9h-5.529V21.582z"/>
	<path fill="#FFFFFF" d="M98.152,34.208c-0.532-0.577-0.798-1.403-0.798-2.479V21.582h2.09V31.88c0,0.456,0.092,0.786,0.275,0.988
		c0.184,0.203,0.447,0.304,0.789,0.304c0.342,0,0.605-0.101,0.789-0.304c0.184-0.202,0.275-0.532,0.275-0.988V21.582h2.014v10.146
		c0,1.077-0.266,1.903-0.798,2.479c-0.532,0.576-1.305,0.864-2.318,0.864S98.685,34.784,98.152,34.208z"/>
	<path fill="#FFFFFF" d="M105.068,21.582h3.154c1.076,0,1.862,0.25,2.356,0.75s0.741,1.27,0.741,2.308v0.532
		c0,0.684-0.111,1.242-0.333,1.672c-0.222,0.431-0.56,0.741-1.016,0.931v0.038c1.038,0.354,1.558,1.279,1.558,2.774v1.14
		c0,1.026-0.269,1.808-0.807,2.346c-0.539,0.539-1.327,0.808-2.366,0.808h-3.287V21.582z M107.975,26.997
		c0.418,0,0.731-0.108,0.94-0.323s0.313-0.576,0.313-1.083V24.85c0-0.481-0.085-0.829-0.256-1.045
		c-0.171-0.215-0.44-0.323-0.808-0.323h-1.007v3.515H107.975z M108.355,32.982c0.367,0,0.64-0.098,0.817-0.294
		s0.266-0.535,0.266-1.017v-1.159c0-0.608-0.104-1.029-0.313-1.263s-0.554-0.352-1.036-0.352h-0.931v4.085H108.355z"/>
	<path fill="#FFFFFF" d="M113.162,34.208c-0.52-0.577-0.779-1.403-0.779-2.479v-0.76h1.976v0.912c0,0.861,0.361,1.292,1.083,1.292
		c0.354,0,0.624-0.104,0.808-0.313c0.183-0.209,0.275-0.548,0.275-1.017c0-0.557-0.127-1.048-0.38-1.473
		c-0.254-0.424-0.722-0.934-1.406-1.529c-0.861-0.76-1.463-1.447-1.805-2.062c-0.342-0.614-0.513-1.308-0.513-2.081
		c0-1.051,0.266-1.865,0.798-2.441c0.532-0.576,1.305-0.865,2.318-0.865c1,0,1.758,0.289,2.271,0.865
		c0.513,0.577,0.77,1.403,0.77,2.479v0.551h-1.976v-0.684c0-0.456-0.089-0.789-0.266-0.998c-0.178-0.209-0.437-0.313-0.779-0.313
		c-0.697,0-1.045,0.424-1.045,1.273c0,0.481,0.13,0.931,0.39,1.349c0.259,0.418,0.731,0.924,1.416,1.52
		c0.874,0.76,1.476,1.451,1.805,2.071c0.33,0.621,0.494,1.349,0.494,2.185c0,1.089-0.269,1.925-0.808,2.508
		c-0.538,0.583-1.32,0.874-2.346,0.874C114.447,35.072,113.681,34.784,113.162,34.208z"/>
</g>
<g>
	<path fill-rule="evenodd" clip-rule="evenodd" fill="#627D53" d="M66.996,90.101c-1.648-0.169-2.83,1.198-4.326,1.529
		c-0.083-0.078-0.165-0.156-0.247-0.234c0.386-0.654,0.794-1.298,1.148-1.969c0.142-0.27,0.169-0.601,0.248-0.903
		c-0.303,0.106-0.743,0.122-0.884,0.335c-0.64,0.972-1.237,1.978-1.767,3.015c-0.432,0.846-0.722,1.763-1.122,2.627
		c-0.131,0.28-0.411,0.492-0.676,0.797c-0.104-1.37,0.015-2.654-0.344-3.787c-0.401-1.265-1.122-2.475-1.91-3.559
		c-0.904-1.243-0.971-1.125,0.301-1.992c1.59-1.083,3.26-1.839,5.227-1.834c2.316,0.005,4.409,0.776,6.498,1.688
		c4.556,1.987,7.013,5.939,9.434,9.921c2.271,3.736,3.715,7.806,4.433,12.107c0.569,3.405,0.688,6.86-1.146,9.942
		c-1.326,2.226-2.794,4.457-4.602,6.287c-3.118,3.156-6.926,5.017-11.563,4.322c-3.83-0.572-7.028-2.476-9.941-4.918
		c-2.307-1.935-4.063-4.311-5.247-7.063c-1.594-3.706-2.321-7.487-0.193-11.259c0.495-0.877,1.209-1.631,1.84-2.429
		c0.543-0.685,1.026-1.452,1.686-2.004c1.752-1.466,3.608-2.808,5.38-4.251c1.478-1.205,2.855-2.534,4.353-3.713
		c0.893-0.704,1.934-1.219,2.898-1.833c0.24-0.152,0.443-0.363,0.663-0.548C67.091,90.284,67.043,90.192,66.996,90.101z"/>
	<path fill-rule="evenodd" clip-rule="evenodd" fill="#627D53" d="M106.36,95.007c-0.705-0.773-1.547-1.3-1.667-2.541
		c-0.133-1.383-0.839-2.68-2.041-3.545c-0.252-0.183-0.68-0.12-1.027-0.171c0.138,0.305,0.224,0.649,0.424,0.905
		c0.454,0.576,0.964,1.109,1.452,1.659c-0.064,0.094-0.128,0.188-0.193,0.282c-0.306-0.072-0.628-0.104-0.915-0.226
		c-0.849-0.357-1.673-0.777-2.531-1.109c-0.24-0.092-0.566,0.039-0.854,0.067c0.187,0.249,0.343,0.533,0.569,0.737
		c0.182,0.164,0.441,0.257,0.68,0.339c1.755,0.605,2.918,1.968,4.238,3.171c2.349,2.141,4.827,4.139,7.238,6.212
		c1.83,1.574,3.369,3.399,4.285,5.647c0.833,2.045,0.967,4.154,0.425,6.351c-1.023,4.15-3.249,7.596-6.223,10.527
		c-2.318,2.284-5.249,3.672-8.367,4.609c-0.606,0.183-1.229,0.314-1.85,0.435c-4.206,0.814-7.528-0.994-10.624-3.546
		c-2.062-1.7-3.715-3.751-5.253-5.905c-0.93-1.303-0.896-1.674,0.042-2.998c0.054-0.076,0.122-0.16,0.133-0.246
		c0.27-2.103,0.642-4.199,0.756-6.311c0.063-1.18-0.27-2.389-0.484-3.574c-0.158-0.869-0.506-1.712-0.589-2.584
		c-0.05-0.531,0.194-1.112,0.391-1.641c1.372-3.692,3.142-7.231,5.585-10.281c2.943-3.674,6.711-6.221,11.55-7.069
		c2.912-0.511,5.123,0.75,7.405,2.067c0.141,0.081,0.137,0.677,0.002,0.927c-0.556,1.032-1.253,1.991-1.777,3.038
		C106.403,91.715,106.235,93.32,106.36,95.007z"/>
	<path fill-rule="evenodd" clip-rule="evenodd" fill="#627D53" d="M42.032,97.266c0,0.587,0,0.894,0,1.423
		c-1.075-0.398-2.027-0.751-3.078-1.14c0.202,1.076,1.378,1.902,2.532,2.003c1.675,0.146,3.356,0.26,5.021,0.489
		c1.32,0.183,2.624,0.5,3.927,0.792c0.717,0.161,0.783,0.733,0.186,1.381c-0.77,0.835-1.61,1.615-2.303,2.51
		c-3.017,3.893-2.47,7.895-0.147,11.835c2.247,3.813,5.233,6.959,8.98,9.353c0.106,0.068,0.212,0.141,0.303,0.228
		c0.038,0.036,0.037,0.113,0.073,0.237c-0.877,0.321-1.769,0.614-2.634,0.971c-2.723,1.122-5.127,2.688-7.417,4.592
		c-2.936,2.441-5.962,4.886-9.755,5.995c-0.701,0.205-1.409,0.438-2.128,0.512c-0.385,0.039-0.879-0.136-1.191-0.383
		c-2.016-1.589-3.359-3.704-4.594-5.917c-1.89-3.389-3.944-6.69-5.72-10.137c-0.92-1.786-1.572-3.763-2.009-5.729
		c-0.336-1.514,0.449-2.948,1.542-4.04c2.273-2.271,4.972-3.97,7.786-5.482c0.926-0.499,2.516-0.152,3.413,0.84
		c1.47,1.625,2.941,3.266,4.233,5.031c2.187,2.988,3.824,6.293,5.146,9.753c0.169,0.441,0.45,0.84,0.679,1.258
		c0.1-0.034,0.2-0.068,0.3-0.103c-0.016-0.291,0.022-0.599-0.056-0.873c-1.005-3.567-2.386-6.98-4.258-10.185
		c-1.666-2.852-3.714-5.401-6.145-7.637c-0.377-0.347-0.457-0.602-0.275-1.137c0.302-0.89,0.461-1.846,0.544-2.786
		c0.089-1.013,0.079-2.043,0.007-3.059c-0.131-1.855,0.112-3.625,1.044-5.252c0.899-1.568,1.775-3.158,2.793-4.648
		c0.702-1.027,1.8-1.593,3.066-1.749c1.8-0.224,3.599-0.62,5.4-0.635c3.221-0.024,6.212,0.945,8.563,3.199
		c2.069,1.983,3.055,4.479,2.108,7.372c-0.205,0.623-0.76,1.287-1.334,1.609c-4.228,2.371-8.604,2.147-13.004,0.517
		C43.125,98.087,42.695,97.692,42.032,97.266z"/>
	<path fill-rule="evenodd" clip-rule="evenodd" fill="#627D53" d="M119.561,127.128c0.456-1.201,0.911-2.403,1.368-3.604
		c1.488-3.915,3.269-7.69,5.837-11.015c1.452-1.879,3.131-3.587,4.746-5.336c0.746-0.807,1.748-0.816,2.659-0.402
		c3.221,1.463,6.119,3.417,8.43,6.117c1.098,1.282,1.323,2.843,0.837,4.503c-0.827,2.83-2.118,5.444-3.603,7.975
		c-1.866,3.183-3.701,6.383-5.613,9.537c-0.522,0.86-1.309,1.557-1.909,2.375c-0.989,1.35-2.241,1.188-3.637,0.831
		c-4.134-1.059-7.308-3.585-10.274-6.487c-0.642-0.629-1.443-1.131-2.243-1.555c-2.493-1.32-5.02-2.575-7.627-3.902
		c0.191-0.162,0.386-0.344,0.597-0.503c3.642-2.757,6.843-5.91,8.897-10.062c0.988-1.998,1.92-4.013,1.509-6.369
		c-0.335-1.919-1.33-3.484-2.472-4.979c-0.657-0.859-1.41-1.645-2.105-2.476c-0.173-0.207-0.288-0.462-0.43-0.695
		c0.244-0.101,0.479-0.258,0.732-0.293c2.987-0.423,5.979-0.813,8.964-1.244c1.385-0.199,2.432-0.956,2.948-2.269
		c-1.168,0.537-2.13,0.979-3.094,1.424c0.077-0.651,0.134-1.135,0.19-1.618c-0.383,0.277-0.745,0.59-1.153,0.822
		c-0.459,0.261-0.939,0.569-1.444,0.65c-2.042,0.328-4.092,0.616-6.147,0.843c-2.336,0.258-4.465-0.264-6.358-1.754
		c-2.036-1.602-2.243-4.108-1.237-6.197c1.379-2.865,3.842-4.389,6.787-5.292c3.216-0.985,6.43-0.877,9.591,0.123
		c2.896,0.917,4.144,3.436,5.265,5.96c1.061,2.388,1.533,4.883,1.174,7.53c-0.129,0.946,0.021,1.971,0.239,2.913
		c0.376,1.621,0.125,1.952-1.02,3.128c-1.451,1.491-2.635,3.243-3.919,4.896c-2.399,3.086-3.593,6.765-5.015,10.325
		c-0.67,1.679-1.216,3.407-1.796,5.122c-0.09,0.268-0.058,0.576-0.083,0.866C119.288,127.054,119.424,127.091,119.561,127.128z"/>
</g>
</svg>
