<?xml version="1.0" encoding="utf-8"?>
<!-- Generator: Adobe Illustrator 16.0.0, SVG Export Plug-In . SVG Version: 6.00 Build 0)  -->
<!DOCTYPE svg PUBLIC "-//W3C//DTD SVG 1.1//EN" "http://www.w3.org/Graphics/SVG/1.1/DTD/svg11.dtd">
<svg version="1.1" id="Layer_1" xmlns="http://www.w3.org/2000/svg" xmlns:xlink="http://www.w3.org/1999/xlink" x="0px" y="0px"
	 width="134.023px" height="152.98px" viewBox="0 0 134.023 152.98" enable-background="new 0 0 134.023 152.98"
	 xml:space="preserve">
<rect x="1.008" y="1.494" fill-rule="evenodd" clip-rule="evenodd" fill="#FFFFFF" width="131.963" height="150.692"/>
<g>
	
		<rect x="1.008" y="1.494" fill="none" stroke="#235F30" stroke-width="2" stroke-miterlimit="10" width="131.963" height="150.692"/>
</g>
<rect x="1.86" y="2.283" fill-rule="evenodd" clip-rule="evenodd" fill="#235F30" width="131.963" height="47.677"/>
<g>
	<path fill="#FFFFFF" d="M59.034,20.549c-0.046-0.705-0.149-1.2-0.311-1.483s-0.418-0.426-0.771-0.426h-0.046
		c-0.353,0-0.602,0.158-0.747,0.472c-0.146,0.314-0.25,0.894-0.311,1.736c-0.016,0.215-0.027,0.614-0.035,1.196
		s-0.011,1.2-0.011,1.852s0.003,1.265,0.011,1.84c0.008,0.575,0.02,0.97,0.035,1.185c0.061,0.797,0.161,1.342,0.299,1.633
		c0.138,0.292,0.383,0.445,0.736,0.46c0.152,0,0.268-0.011,0.345-0.034c0.076-0.023,0.161-0.073,0.253-0.15
		c0.169-0.123,0.291-0.314,0.368-0.575c0.076-0.261,0.126-0.537,0.149-0.828c0.022-0.291,0.03-0.563,0.022-0.816
		s-0.004-0.433,0.012-0.541c-0.368,0-0.629-0.004-0.782-0.012c-0.153-0.007-0.253-0.011-0.299-0.011s-0.062,0-0.046,0s0.016,0,0,0
		v-2.852h4.692c0,0.077,0,0.333,0,0.771s0,0.966,0,1.587s0.003,1.284,0.012,1.99c0.007,0.705,0.011,1.368,0.011,1.989
		s0,1.15,0,1.587s0,0.694,0,0.771c0,0.123-0.068,0.184-0.207,0.184h-0.851c-0.031-0.107-0.062-0.233-0.092-0.379
		c-0.031-0.146-0.062-0.28-0.093-0.403c-0.03-0.123-0.061-0.276-0.092-0.46C61.226,30.891,61.13,30.995,61,31.14
		c-0.131,0.146-0.318,0.292-0.563,0.437c-0.245,0.146-0.567,0.272-0.966,0.379c-0.399,0.108-0.897,0.161-1.495,0.161
		c-1.12,0-1.989-0.172-2.61-0.518c-0.621-0.345-1.081-0.816-1.38-1.415c-0.3-0.598-0.491-1.299-0.575-2.104
		c-0.085-0.805-0.143-1.667-0.173-2.587c-0.077-2.008-0.05-3.653,0.081-4.934c0.13-1.28,0.383-2.292,0.759-3.036
		c0.375-0.744,0.881-1.257,1.518-1.541s1.422-0.426,2.357-0.426c0.904,0,1.652,0.135,2.243,0.403
		c0.59,0.268,1.062,0.648,1.414,1.138c0.353,0.491,0.602,1.07,0.747,1.737s0.227,1.407,0.242,2.219h-3.542L59.034,20.549z"/>
	<path fill="#FFFFFF" d="M68.326,20.848c0-0.03,0.02-0.084,0.058-0.161s0.096-0.115,0.173-0.115h2.415
		c0.076,0,0.138,0.023,0.184,0.069c0.046,0.046,0.054,0.123,0.023,0.23c0,0.016-0.046,0.25-0.138,0.702
		c-0.093,0.453-0.216,1.046-0.368,1.783c-0.153,0.736-0.326,1.575-0.518,2.518c-0.192,0.943-0.388,1.906-0.587,2.887
		c-0.199,0.981-0.395,1.943-0.586,2.887c-0.192,0.943-0.365,1.786-0.518,2.53c-0.153,0.744-0.28,1.346-0.38,1.806
		s-0.149,0.697-0.149,0.713c-0.031,0.092-0.127,0.146-0.287,0.161c-0.161,0.015-0.472,0.023-0.932,0.023h-0.943
		c-0.153-0.016-0.241-0.062-0.265-0.138c-0.022-0.077-0.026-0.153-0.012-0.23c0-0.062,0.043-0.33,0.127-0.805
		s0.18-0.997,0.287-1.564c0.107-0.644,0.238-1.372,0.392-2.185c-0.46-1.932-0.852-3.557-1.173-4.876
		c-0.322-1.318-0.583-2.399-0.782-3.243s-0.349-1.487-0.448-1.932c-0.101-0.444-0.161-0.767-0.185-0.966
		c-0.022-0.199-0.02-0.311,0.012-0.333c0.03-0.023,0.069-0.035,0.115-0.035h0.068h1.357c0.276,0,0.518,0,0.725,0
		s0.318,0.008,0.333,0.023c0.046,0.016,0.089,0.062,0.127,0.138s0.096,0.292,0.173,0.644c0.076,0.353,0.184,0.901,0.321,1.645
		c0.139,0.744,0.337,1.782,0.599,3.116c0.076-0.521,0.146-0.974,0.207-1.357c0.061-0.383,0.126-0.801,0.195-1.253
		c0.068-0.452,0.13-0.874,0.184-1.265s0.1-0.721,0.138-0.989S68.326,20.863,68.326,20.848z"/>
	<path fill="#FFFFFF" d="M80.747,23.125c-0.2,0-0.414,0.05-0.645,0.149c-0.229,0.1-0.345,0.264-0.345,0.494c0,0.092,0,0.848,0,2.266
		c0,1.418-0.008,3.431-0.023,6.038H77.02c0-0.077,0-0.322,0-0.736s-0.004-0.912-0.012-1.495c-0.008-0.583-0.011-1.211-0.011-1.886
		c0-0.674-0.004-1.303-0.012-1.886c-0.008-0.583-0.012-1.081-0.012-1.495s0-0.659,0-0.736c-0.031-0.307-0.131-0.502-0.299-0.586
		c-0.169-0.084-0.392-0.126-0.667-0.126c-0.368,0-0.613,0.115-0.736,0.345c-0.016,0.046-0.03,0.084-0.046,0.115
		s-0.027,0.119-0.034,0.264c-0.008,0.146-0.012,0.384-0.012,0.713s0,0.805,0,1.426s0.004,1.422,0.012,2.403
		c0.007,0.981,0.019,2.208,0.034,3.68h-2.852c0-0.123,0-0.21,0-0.265c0-0.053-0.004-0.172-0.012-0.356s-0.012-0.479-0.012-0.885
		s0-1.016,0-1.829c0-0.813,0.004-1.878,0.012-3.197c0.008-1.318,0.012-2.974,0.012-4.968h0.828h1.771v0.736
		c0.062-0.123,0.157-0.233,0.287-0.333c0.131-0.1,0.276-0.184,0.438-0.253s0.322-0.126,0.482-0.172
		c0.161-0.046,0.311-0.069,0.449-0.069c0.353,0,0.647,0.046,0.886,0.138c0.237,0.092,0.433,0.196,0.586,0.311
		c0.153,0.115,0.269,0.223,0.345,0.322c0.077,0.1,0.123,0.157,0.139,0.172c0.291-0.353,0.644-0.598,1.058-0.736
		c0.414-0.138,0.843-0.207,1.288-0.207c0.981,0,1.778,0.268,2.392,0.805c0.613,0.537,0.951,1.257,1.013,2.162
		c0.015,0.169,0.026,0.453,0.034,0.851c0.008,0.399,0.012,0.862,0.012,1.392c0,0.529,0,1.1,0,1.713s0,1.211,0,1.794
		c0,0.583,0,1.127,0,1.633c0,0.506,0,0.92,0,1.242h-2.668c0-1.411-0.004-2.595-0.012-3.554c-0.008-0.958-0.016-1.744-0.023-2.357
		c-0.008-0.613-0.015-1.088-0.022-1.426s-0.023-0.59-0.046-0.759c-0.023-0.168-0.046-0.283-0.069-0.345
		c-0.022-0.061-0.058-0.123-0.104-0.184C81.298,23.232,81.068,23.125,80.747,23.125z"/>
	<path fill="#FFFFFF" d="M91.441,24.045h-0.322c-0.261,0-0.46-0.004-0.598-0.012c-0.138-0.007-0.241-0.026-0.311-0.058
		c-0.069-0.03-0.123-0.076-0.161-0.138c-0.038-0.061-0.08-0.146-0.126-0.253c-0.077-0.169-0.169-0.288-0.276-0.356
		c-0.107-0.069-0.261-0.104-0.46-0.104c-0.245,0-0.452,0.077-0.621,0.23s-0.253,0.375-0.253,0.667c0,0.276,0.062,0.471,0.184,0.586
		c0.123,0.115,0.288,0.192,0.495,0.23c0.207,0.039,0.44,0.062,0.701,0.069c0.261,0.008,0.521,0.05,0.782,0.126
		c0.582,0.138,1.054,0.388,1.414,0.748c0.36,0.36,0.625,0.778,0.794,1.253c0.169,0.476,0.241,0.978,0.219,1.507
		c-0.023,0.529-0.135,1.031-0.334,1.506c-0.199,0.476-0.486,0.894-0.862,1.253c-0.376,0.36-0.832,0.609-1.368,0.748
		c-0.308,0.077-0.69,0.115-1.15,0.115c-0.184,0-0.368-0.008-0.552-0.023c-0.185-0.015-0.354-0.046-0.506-0.092
		c-0.506-0.138-0.936-0.379-1.288-0.725c-0.354-0.345-0.629-0.705-0.828-1.081c-0.199-0.375-0.322-0.725-0.368-1.046
		s-0.023-0.529,0.069-0.621l0.114-0.115c0.659,0.015,1.223,0.023,1.691,0.023c0.467,0,0.724,0.015,0.771,0.046
		c0.106,0.107,0.184,0.234,0.229,0.379c0.046,0.146,0.161,0.272,0.345,0.379c0.107,0.062,0.238,0.092,0.392,0.092
		c0.152,0,0.303-0.042,0.448-0.126c0.146-0.084,0.257-0.211,0.333-0.379c0.077-0.123,0.115-0.276,0.115-0.46
		c0-0.184-0.038-0.329-0.115-0.437c-0.153-0.184-0.349-0.291-0.586-0.322c-0.238-0.031-0.514-0.061-0.828-0.092
		s-0.652-0.104-1.012-0.219c-0.36-0.115-0.732-0.364-1.116-0.748c-0.353-0.353-0.602-0.713-0.747-1.081
		c-0.146-0.368-0.219-0.828-0.219-1.38c0-0.567,0.092-1.084,0.276-1.552c0.184-0.468,0.44-0.866,0.771-1.196
		c0.329-0.33,0.721-0.586,1.173-0.771s0.954-0.276,1.507-0.276c0.874,0,1.621,0.246,2.242,0.736
		c0.621,0.491,1.039,1.166,1.254,2.024c0.122,0.43,0.134,0.694,0.034,0.794s-0.303,0.149-0.609,0.149H91.441z"/>
</g>
<polyline fill-rule="evenodd" clip-rule="evenodd" fill="#FFFFFF" points="1.036,49.833 1.036,152.473 133.036,152.473 
	133.036,49.833 "/>
<polyline fill="none" stroke="#010101" stroke-width="2" stroke-miterlimit="10" points="1.036,49.833 1.036,152.473 
	133.036,152.473 133.036,49.833 "/>
<path fill-rule="evenodd" clip-rule="evenodd" fill="#010101" d="M68.027,141.566c-5.113,0-10.227-0.021-15.339,0.02
	c-0.912,0.008-1.371-0.153-1.231-1.177c0.082-0.591,0.047-1.203,0.009-1.802c-0.096-1.521,0.15-2.761,1.293-4.046
	c2.193-2.466,1.844-6.171-0.517-8.529c-0.576-0.575-0.792-1.123-0.784-1.909c0.045-4.51,0.047-9.022,0.061-13.532
	c0.002-0.639,0.122-1.358-0.654-1.657c-0.7-0.27-1.11,0.278-1.539,0.685c-2.427,2.309-4.825,4.648-7.285,6.921
	c-0.667,0.616-0.552,0.969,0.036,1.518c2.823,2.64,5.608,5.319,8.421,7.971c2.597,2.447,2.878,6.144,0.626,8.495
	c-2.391,2.495-5.948,2.478-8.617-0.024c-3.413-3.203-6.875-6.355-10.247-9.6c-2.995-2.881-4.623-6.266-3.438-10.547
	c0.41-1.477,1.453-2.526,2.428-3.595c4.192-4.606,8.394-9.203,12.659-13.74c2.91-3.093,6.68-4.391,10.813-4.819
	c0.602-0.063,0.833,0.237,1.047,0.712c3.387,7.512,6.779,15.023,10.19,22.524c0.262,0.575,0.297,0.864-0.414,1.103
	c-0.901,0.301-2.27,0.092-2.568,1.082c-0.234,0.777,0.324,1.806,0.57,2.713c0.641,2.36,1.329,4.708,1.944,7.074
	c0.245,0.95,0.665,1.27,1.648,0.939c1.341-0.451,2.706-0.858,4.089-1.144c1.165-0.24,1.299-0.755,0.974-1.811
	c-0.796-2.583-1.451-5.209-2.211-7.804c-0.208-0.709-0.155-1.308,0.162-1.972c3.56-7.479,7.106-14.964,10.622-22.463
	c0.331-0.706,0.719-0.919,1.472-0.842c4.117,0.424,7.592,2.229,10.388,5.179c4.459,4.707,8.779,9.546,13.147,14.339
	c2.015,2.213,2.307,4.811,1.552,7.586c-0.578,2.126-1.768,3.896-3.369,5.394c-3.512,3.287-7.01,6.587-10.542,9.853
	c-2.599,2.406-6.179,2.288-8.504-0.229c-2.129-2.306-1.924-5.864,0.514-8.209c2.816-2.711,5.646-5.405,8.506-8.069
	c0.665-0.62,0.817-0.992,0.045-1.7c-2.438-2.232-4.788-4.561-7.185-6.841c-0.424-0.404-0.839-0.957-1.543-0.678
	c-0.765,0.301-0.677,1.006-0.675,1.652c0.014,4.512,0.012,9.022,0.051,13.533c0.007,0.782-0.188,1.356-0.756,1.933
	c-2.639,2.686-2.577,6.679,0.129,9.328c0.444,0.435,0.642,0.846,0.624,1.451c-0.035,1.202-0.067,2.408,0.008,3.607
	c0.057,0.903-0.236,1.155-1.141,1.148C78.338,141.544,73.183,141.566,68.027,141.566"/>
<path fill-rule="evenodd" clip-rule="evenodd" fill="#010101" d="M69.142,63.377c7.277,0.007,13.119,5.855,13.072,13.089
	c-0.046,7.244-5.918,13.047-13.179,13.024c-7.243-0.021-13.087-5.892-13.071-13.131C55.982,69.117,61.814,63.371,69.142,63.377"/>
<path fill-rule="evenodd" clip-rule="evenodd" fill="#010101" d="M77.767,92.246c-3.156,6.786-6.312,13.569-9.58,20.596
	c-0.582-1.29-1.066-2.354-1.542-3.421c-2.396-5.359-4.775-10.724-7.198-16.072c-0.411-0.91-0.488-1.271,0.754-1.261
	c5.405,0.047,10.81-0.008,16.213-0.012C76.827,92.076,77.259,91.958,77.767,92.246"/>
<path fill-rule="evenodd" clip-rule="evenodd" fill="#010101" d="M69.095,116.079c-0.049,0.75-0.432,1.13-1.064,1.138
	c-0.709,0.008-1.124-0.422-1.105-1.135c0.018-0.638,0.39-1.046,1.055-1.05C68.707,115.026,69.047,115.46,69.095,116.079"/>
</svg>
