<?xml version="1.0" encoding="utf-8"?>
<!-- Generator: Adobe Illustrator 16.0.0, SVG Export Plug-In . SVG Version: 6.00 Build 0)  -->
<!DOCTYPE svg PUBLIC "-//W3C//DTD SVG 1.1//EN" "http://www.w3.org/Graphics/SVG/1.1/DTD/svg11.dtd">
<svg version="1.1" id="Layer_1" xmlns="http://www.w3.org/2000/svg" xmlns:xlink="http://www.w3.org/1999/xlink" x="0px" y="0px"
	 width="134.023px" height="152.98px" viewBox="0 0 134.023 152.98" enable-background="new 0 0 134.023 152.98"
	 xml:space="preserve">
<g>
	<polyline fill="none" stroke="#010101" stroke-width="2" stroke-miterlimit="10" points="1.062,48.281 1.062,151.922 
		133.062,151.922 133.062,48.281 	"/>
</g>
<rect x="0" fill="#235F30" width="134.023" height="49.451"/>
<g>
	<g>
		<path fill="#FFFFFF" d="M23.49,8.385c-0.077-0.153-0.207-0.23-0.391-0.23c-0.139,0-0.253,0.046-0.346,0.138
			c-0.123,0.108-0.199,0.28-0.229,0.518c-0.031,0.238-0.035,0.491-0.012,0.76s0.072,0.532,0.149,0.793
			c0.076,0.261,0.161,0.468,0.253,0.621c0.199,0.276,0.456,0.545,0.771,0.805c0.314,0.262,0.647,0.529,1.001,0.806
			c0.353,0.275,0.697,0.579,1.035,0.908c0.337,0.33,0.62,0.709,0.851,1.139c0.322,0.552,0.521,1.2,0.598,1.943
			c0.077,0.744,0.02,1.465-0.172,2.162c-0.192,0.698-0.537,1.308-1.035,1.828c-0.499,0.521-1.162,0.844-1.989,0.966
			c-0.154,0.016-0.304,0.027-0.449,0.035s-0.303,0.012-0.472,0.012c-0.904,0-1.633-0.15-2.185-0.449s-0.974-0.705-1.265-1.219
			c-0.292-0.514-0.487-1.119-0.587-1.817c-0.1-0.697-0.157-1.438-0.173-2.219h3.542c0.016,0.245,0.023,0.518,0.023,0.816
			s0.015,0.579,0.046,0.839c0.03,0.262,0.088,0.479,0.173,0.656c0.084,0.176,0.219,0.264,0.402,0.264
			c0.215,0,0.356-0.084,0.426-0.253c0.068-0.168,0.104-0.498,0.104-0.988c0-0.276-0.016-0.521-0.046-0.736
			c-0.031-0.215-0.108-0.426-0.23-0.633c-0.123-0.207-0.307-0.425-0.552-0.655c-0.246-0.229-0.575-0.498-0.989-0.805
			c-0.491-0.368-0.905-0.717-1.242-1.047c-0.337-0.329-0.613-0.682-0.828-1.058S19.3,11.49,19.201,11.03
			c-0.101-0.46-0.15-0.989-0.15-1.587c0.016-1.426,0.338-2.515,0.967-3.266C20.646,5.426,21.673,5.05,23.1,5.05
			c1.026,0,1.854,0.245,2.483,0.735c0.46,0.354,0.801,0.794,1.023,1.323c0.223,0.528,0.38,1.046,0.472,1.552
			s0.138,0.943,0.138,1.312s0,0.567,0,0.598H23.72c-0.046-0.613-0.068-1.081-0.068-1.403C23.651,8.845,23.598,8.584,23.49,8.385z"/>
		<path fill="#FFFFFF" d="M36.002,19.103c-0.262,0.828-0.683,1.46-1.266,1.897c-0.583,0.437-1.334,0.655-2.254,0.655
			c-0.215,0-0.398-0.02-0.552-0.058s-0.269-0.072-0.345-0.104v4.255h-2.783c0-0.215,0-0.375,0-0.482s0-0.296,0-0.563
			c0-0.269,0-0.675,0-1.219c0-0.545,0-1.361,0-2.45c0-1.088-0.004-2.515-0.012-4.277c-0.008-1.764-0.012-3.994-0.012-6.693h2.438
			v0.368c0.168-0.169,0.379-0.284,0.633-0.345c0.253-0.062,0.509-0.093,0.771-0.093c0.306,0,0.602,0.027,0.885,0.081
			c0.284,0.054,0.502,0.111,0.655,0.172c0.461,0.169,0.828,0.445,1.104,0.828c0.276,0.384,0.483,0.828,0.621,1.334
			s0.222,1.051,0.253,1.633c0.03,0.583,0.038,1.15,0.023,1.702c-0.031,0.66-0.039,1.296-0.023,1.909
			C36.154,18.267,36.108,18.75,36.002,19.103z M33.448,15.814c0-0.536-0.004-1.001-0.011-1.392
			c-0.008-0.391-0.039-0.713-0.093-0.966s-0.142-0.438-0.264-0.552c-0.123-0.115-0.3-0.173-0.529-0.173
			c-0.368,0.016-0.603,0.089-0.701,0.219c-0.101,0.13-0.165,0.295-0.196,0.494c0,1.166-0.004,2.101-0.011,2.806
			c-0.009,0.706,0.007,1.25,0.046,1.634c0.038,0.383,0.114,0.64,0.229,0.771c0.115,0.13,0.295,0.195,0.541,0.195h0.092
			c0.261-0.016,0.452-0.111,0.575-0.288c0.122-0.176,0.207-0.405,0.253-0.689c0.046-0.283,0.068-0.602,0.068-0.955
			C33.448,16.565,33.448,16.198,33.448,15.814z"/>
		<path fill="#FFFFFF" d="M45.087,15.722c0,0.644-0.02,1.284-0.058,1.92c-0.038,0.637-0.138,1.22-0.299,1.748
			c-0.161,0.529-0.406,0.985-0.736,1.369c-0.33,0.383-0.786,0.651-1.368,0.805c-0.123,0.03-0.28,0.054-0.472,0.069
			c-0.192,0.015-0.395,0.022-0.609,0.022s-0.426-0.008-0.633-0.022c-0.207-0.016-0.372-0.039-0.494-0.069
			c-0.675-0.169-1.192-0.426-1.553-0.771s-0.617-0.755-0.771-1.23s-0.241-1.001-0.265-1.575c-0.022-0.575-0.042-1.185-0.058-1.829
			c-0.016-0.751-0.008-1.495,0.023-2.23c0.03-0.736,0.157-1.399,0.379-1.99c0.223-0.59,0.591-1.065,1.104-1.426
			c0.514-0.359,1.245-0.54,2.196-0.54c0.767,0,1.388,0.104,1.863,0.311c0.475,0.207,0.843,0.54,1.104,1s0.434,1.055,0.518,1.783
			C45.044,13.793,45.087,14.679,45.087,15.722z M40.533,13.375c0,1.013-0.009,1.863-0.023,2.554
			c-0.016,0.689-0.004,1.242,0.034,1.656c0.038,0.413,0.123,0.709,0.253,0.885c0.131,0.177,0.342,0.265,0.633,0.265
			c0.276,0,0.494-0.096,0.655-0.287s0.242-0.502,0.242-0.932v-3.657c0-0.521-0.081-0.858-0.242-1.012s-0.387-0.23-0.678-0.23
			c-0.338,0-0.563,0.073-0.679,0.219S40.548,13.162,40.533,13.375z"/>
		<path fill="#FFFFFF" d="M53.643,11.467c0,0.062-0.092,0.188-0.276,0.379c-0.184,0.192-0.398,0.396-0.644,0.609
			c-0.245,0.215-0.476,0.407-0.69,0.575c-0.215,0.169-0.36,0.253-0.437,0.253c-0.153,0-0.307-0.122-0.46-0.368
			c-0.077-0.122-0.177-0.245-0.299-0.367c-0.123-0.123-0.284-0.185-0.483-0.185c-0.43,0-0.659,0.199-0.689,0.599
			c0,0.199-0.005,0.536-0.012,1.012c-0.008,0.476-0.012,1.016-0.012,1.621c0,0.606,0,1.238,0,1.897c0,0.66,0,1.276,0,1.852
			s0,1.066,0,1.473s0,0.655,0,0.747h-2.806c0-0.107,0-0.191,0-0.253s-0.004-0.188-0.012-0.38c-0.008-0.191-0.012-0.494-0.012-0.908
			s0-1.031,0-1.852s0-1.882,0-3.186c0-1.303,0-2.944,0-4.922h2.737v0.621c0.261-0.215,0.563-0.387,0.908-0.518
			c0.345-0.13,0.687-0.195,1.023-0.195c0.185,0,0.36,0.02,0.529,0.058c0.168,0.038,0.322,0.104,0.46,0.195
			c0.122,0.077,0.249,0.173,0.379,0.287c0.131,0.115,0.257,0.23,0.38,0.346c0.123,0.114,0.223,0.226,0.299,0.333
			C53.604,11.298,53.643,11.39,53.643,11.467z"/>
		<path fill="#FFFFFF" d="M58.334,10.087c0.23,0,0.402,0.004,0.518,0.011c0.115,0.008,0.195,0.055,0.242,0.139
			c0.046,0.084,0.068,0.218,0.068,0.402c0,0.184,0,0.46,0,0.828v1.127c-0.016,0.107-0.058,0.176-0.126,0.207
			c-0.069,0.03-0.257,0.046-0.563,0.046h-0.76c0,1.38,0,2.453,0,3.22s0.004,1.342,0.012,1.725c0.008,0.384,0.023,0.629,0.046,0.736
			c0.023,0.107,0.058,0.185,0.104,0.23c0.046,0.076,0.199,0.114,0.46,0.114h0.115c0.076-0.015,0.146-0.022,0.207-0.022
			s0.115,0,0.161,0c0.184,0,0.287,0.08,0.311,0.241c0.022,0.161,0.034,0.525,0.034,1.093c0,0.353-0.004,0.625-0.012,0.816
			s-0.026,0.326-0.057,0.402c-0.031,0.077-0.089,0.123-0.173,0.138c-0.085,0.016-0.203,0.023-0.356,0.023
			c-0.292,0-0.599-0.008-0.92-0.023c-0.322-0.015-0.633-0.064-0.932-0.149c-0.299-0.084-0.575-0.214-0.828-0.391
			c-0.253-0.176-0.464-0.433-0.633-0.771c-0.229-0.46-0.341-1.334-0.333-2.622s0.019-2.875,0.034-4.761h-0.229h-0.139
			c-0.169,0-0.295-0.012-0.379-0.035c-0.085-0.022-0.146-0.08-0.185-0.172s-0.062-0.241-0.068-0.448
			c-0.008-0.207-0.012-0.495-0.012-0.863c0-0.337,0.004-0.59,0.012-0.759c0.007-0.168,0.042-0.287,0.104-0.356
			c0.061-0.069,0.16-0.107,0.299-0.115c0.138-0.007,0.337-0.019,0.598-0.034c0-0.398-0.004-0.729-0.012-0.989s-0.008-0.468,0-0.621
			c0.008-0.152,0.031-0.256,0.069-0.311c0.038-0.053,0.096-0.08,0.173-0.08h1.195h0.599c0.214,0,0.371,0.008,0.472,0.023
			c0.099,0.015,0.168,0.061,0.207,0.138c0.038,0.077,0.057,0.188,0.057,0.333c0,0.146,0,0.35,0,0.609v0.897L58.334,10.087z"/>
		<path fill="#FFFFFF" d="M73.306,10.11c0,0.245-0.011,0.521-0.034,0.828c-0.022,0.307-0.077,0.609-0.161,0.908
			s-0.203,0.587-0.356,0.862c-0.153,0.276-0.36,0.507-0.621,0.69c0.46,0.077,0.806,0.326,1.035,0.747
			c0.23,0.423,0.387,0.909,0.472,1.461c0.084,0.552,0.111,1.123,0.08,1.714c-0.03,0.59-0.084,1.1-0.16,1.529
			c-0.154,0.613-0.396,1.101-0.725,1.46c-0.33,0.361-0.74,0.637-1.23,0.828c-0.491,0.192-1.055,0.318-1.69,0.38
			c-0.637,0.061-1.339,0.092-2.104,0.092c-0.445,0-0.901-0.008-1.369-0.022c-0.468-0.016-0.962-0.023-1.483-0.023V5.119
			c0.89,0.016,1.717,0.02,2.484,0.012c0.767-0.008,1.464,0.02,2.093,0.081c0.629,0.061,1.185,0.172,1.667,0.333
			c0.483,0.161,0.886,0.426,1.208,0.794c0.322,0.367,0.56,0.854,0.713,1.46C73.275,8.405,73.337,9.175,73.306,10.11z M68.177,18.574
			c0.261-0.015,0.521-0.03,0.782-0.046c0.261-0.015,0.498-0.069,0.713-0.161s0.395-0.249,0.541-0.472
			c0.146-0.222,0.233-0.548,0.265-0.978c0.046-0.582,0.007-1.038-0.115-1.368c-0.123-0.329-0.288-0.578-0.495-0.747
			s-0.429-0.276-0.667-0.322c-0.237-0.046-0.456-0.069-0.655-0.069h-0.368V18.574z M70.086,10.156c0-0.414-0.02-0.751-0.058-1.012
			s-0.111-0.468-0.218-0.621c-0.107-0.153-0.262-0.257-0.46-0.311c-0.2-0.054-0.453-0.088-0.76-0.104H68.2v4.094
			c0.061,0,0.13,0.004,0.207,0.012c0.076,0.008,0.168,0.012,0.276,0.012c0.353,0,0.62-0.054,0.805-0.161
			c0.184-0.107,0.322-0.253,0.414-0.437c0.092-0.185,0.146-0.403,0.161-0.656C70.078,10.719,70.086,10.448,70.086,10.156z"/>
		<path fill="#FFFFFF" d="M79.93,21.104c-0.275,0.245-0.595,0.398-0.954,0.46c-0.36,0.062-0.694,0.092-1.001,0.092
			c-0.43,0-0.878-0.1-1.346-0.299s-0.839-0.468-1.115-0.805c-0.43-0.537-0.687-1.104-0.771-1.702s-0.054-1.169,0.092-1.714
			c0.146-0.544,0.388-1.035,0.725-1.472c0.337-0.438,0.705-0.755,1.104-0.954c0.275-0.139,0.56-0.23,0.851-0.276
			s0.567-0.069,0.828-0.069c0.353,0,0.645,0.023,0.874,0.069c0.123,0.016,0.237,0.038,0.345,0.069
			c-0.016-0.153-0.03-0.322-0.046-0.507c-0.016-0.184-0.05-0.359-0.104-0.528s-0.142-0.311-0.265-0.426
			c-0.122-0.115-0.299-0.173-0.528-0.173c-0.261,0-0.445,0.058-0.553,0.173s-0.222,0.364-0.345,0.747
			c-0.031,0.093-0.062,0.161-0.092,0.207c-0.031,0.046-0.092,0.081-0.184,0.104c-0.093,0.023-0.223,0.039-0.392,0.046
			c-0.169,0.009-0.406,0.012-0.713,0.012c-0.537,0-0.882-0.012-1.035-0.034c-0.153-0.023-0.253-0.088-0.299-0.195
			c-0.031-0.062-0.046-0.161-0.046-0.299c0-0.139,0.015-0.288,0.046-0.449c0.03-0.161,0.069-0.329,0.115-0.506
			c0.046-0.176,0.1-0.341,0.161-0.494c0.275-0.736,0.716-1.288,1.322-1.656c0.605-0.368,1.3-0.552,2.081-0.552
			c0.967,0,1.756,0.241,2.369,0.725c0.613,0.482,1.004,1.207,1.173,2.173c0.016,0.062,0.027,0.139,0.035,0.23
			c0.007,0.092,0.011,0.241,0.011,0.448s0.004,0.499,0.012,0.874c0.008,0.376,0.012,0.874,0.012,1.495s0,1.392,0,2.312
			s0,2.032,0,3.335H79.93V21.104z M78.182,19.057c0.077,0.03,0.191,0.046,0.345,0.046c0.261,0,0.491-0.088,0.69-0.265
			c0.199-0.176,0.307-0.44,0.322-0.793c0.015-0.353-0.073-0.633-0.265-0.84c-0.192-0.207-0.456-0.318-0.794-0.334
			c-0.261-0.015-0.482,0.069-0.667,0.253c-0.184,0.185-0.307,0.399-0.367,0.645c-0.062,0.245-0.039,0.491,0.068,0.736
			S77.845,18.934,78.182,19.057z"/>
		<path fill="#FFFFFF" d="M90.97,11.467c0,0.062-0.092,0.188-0.276,0.379c-0.184,0.192-0.398,0.396-0.644,0.609
			c-0.245,0.215-0.476,0.407-0.69,0.575c-0.215,0.169-0.36,0.253-0.437,0.253c-0.153,0-0.307-0.122-0.46-0.368
			c-0.077-0.122-0.177-0.245-0.299-0.367c-0.123-0.123-0.284-0.185-0.483-0.185c-0.43,0-0.659,0.199-0.689,0.599
			c0,0.199-0.005,0.536-0.012,1.012c-0.008,0.476-0.012,1.016-0.012,1.621c0,0.606,0,1.238,0,1.897c0,0.66,0,1.276,0,1.852
			s0,1.066,0,1.473s0,0.655,0,0.747h-2.806c0-0.107,0-0.191,0-0.253s-0.004-0.188-0.012-0.38c-0.008-0.191-0.012-0.494-0.012-0.908
			s0-1.031,0-1.852s0-1.882,0-3.186c0-1.303,0-2.944,0-4.922h2.737v0.621c0.261-0.215,0.563-0.387,0.908-0.518
			c0.345-0.13,0.687-0.195,1.023-0.195c0.185,0,0.36,0.02,0.529,0.058c0.168,0.038,0.322,0.104,0.46,0.195
			c0.122,0.077,0.249,0.173,0.379,0.287c0.131,0.115,0.257,0.23,0.38,0.346c0.123,0.114,0.223,0.226,0.299,0.333
			C90.932,11.298,90.97,11.39,90.97,11.467z"/>
		<path fill="#FFFFFF" d="M97.363,13.537h-0.322c-0.261,0-0.46-0.003-0.598-0.011s-0.241-0.027-0.311-0.058
			c-0.069-0.031-0.123-0.077-0.161-0.139c-0.038-0.061-0.08-0.146-0.126-0.253c-0.077-0.168-0.169-0.287-0.276-0.356
			c-0.107-0.068-0.261-0.104-0.46-0.104c-0.245,0-0.452,0.077-0.621,0.23s-0.253,0.376-0.253,0.667c0,0.275,0.062,0.472,0.184,0.586
			c0.123,0.115,0.288,0.192,0.495,0.23s0.44,0.062,0.701,0.069s0.521,0.05,0.782,0.126c0.582,0.138,1.054,0.388,1.414,0.748
			s0.625,0.778,0.794,1.253c0.169,0.476,0.241,0.978,0.219,1.507c-0.023,0.528-0.135,1.031-0.334,1.506
			c-0.199,0.476-0.486,0.894-0.862,1.254s-0.832,0.609-1.368,0.747c-0.308,0.077-0.69,0.115-1.15,0.115
			c-0.184,0-0.368-0.008-0.552-0.022c-0.185-0.016-0.354-0.046-0.506-0.093c-0.506-0.138-0.936-0.379-1.288-0.724
			c-0.354-0.346-0.629-0.705-0.828-1.081s-0.322-0.725-0.368-1.047s-0.023-0.529,0.069-0.621l0.114-0.115
			c0.659,0.016,1.223,0.023,1.691,0.023c0.467,0,0.724,0.016,0.771,0.046c0.106,0.107,0.184,0.234,0.229,0.38
			s0.161,0.272,0.345,0.379c0.107,0.062,0.238,0.092,0.392,0.092c0.152,0,0.303-0.042,0.448-0.126s0.257-0.211,0.333-0.38
			c0.077-0.122,0.115-0.275,0.115-0.46c0-0.184-0.038-0.329-0.115-0.437c-0.153-0.185-0.349-0.291-0.586-0.322
			c-0.238-0.03-0.514-0.062-0.828-0.092s-0.652-0.104-1.012-0.219c-0.36-0.115-0.732-0.364-1.116-0.747
			c-0.353-0.353-0.602-0.713-0.747-1.081s-0.219-0.828-0.219-1.38c0-0.567,0.092-1.085,0.276-1.553
			c0.184-0.468,0.44-0.866,0.771-1.196c0.329-0.329,0.721-0.586,1.173-0.771c0.452-0.184,0.954-0.276,1.507-0.276
			c0.874,0,1.621,0.246,2.242,0.736c0.621,0.491,1.039,1.166,1.254,2.024c0.122,0.429,0.134,0.693,0.034,0.793
			c-0.1,0.101-0.303,0.149-0.609,0.149H97.363z"/>
		<path fill="#FFFFFF" d="M115.278,21.564c-0.437-0.437-0.851-0.874-1.448-1.518c-1.334,1.241-2.828,1.771-4.53,1.771
			c-3.012,0-4.76-2.023-4.76-4.346c0-2.116,1.265-3.564,3.035-4.53v-0.069c-0.805-1.012-1.287-2.139-1.287-3.242
			c0-1.886,1.356-3.817,3.932-3.817c1.932,0,3.427,1.288,3.427,3.289c0,1.632-0.943,2.92-3.403,4.139v0.069
			c1.311,1.518,2.782,3.219,3.771,4.322c0.713-1.08,1.196-2.575,1.495-4.529h1.84c-0.414,2.438-1.081,4.369-2.23,5.726
			c0.827,0.874,1.632,1.747,2.552,2.736H115.278z M112.841,18.897c-0.92-1.012-2.645-2.897-4.369-4.875c-0.827,0.528-2,1.518-2,3.15
			c0,1.771,1.311,3.127,3.173,3.127C110.979,20.299,112.105,19.702,112.841,18.897z M108.127,9.446c0,1.104,0.506,1.954,1.173,2.782
			c1.563-0.896,2.575-1.725,2.575-3.035c0-0.943-0.528-2.001-1.793-2.001C108.794,7.192,108.127,8.25,108.127,9.446z"/>
		<path fill="#FFFFFF" d="M24.583,41.164c-0.046-0.506-0.077-1.089-0.093-1.748c-0.015-0.659-0.05-1.3-0.104-1.921
			c-0.054-0.62-0.142-1.169-0.264-1.645c-0.123-0.475-0.308-0.766-0.553-0.873h-1.195c0,0.613,0,1.149,0,1.609
			s-0.004,0.955-0.012,1.483c-0.008,0.529-0.012,1.023-0.012,1.483s0,0.997,0,1.61h-3.22V24.718h0.92h1.081
			c0.95,0,1.824,0.039,2.622,0.115c0.797,0.077,1.479,0.292,2.047,0.645s1.004,0.893,1.311,1.621s0.438,1.744,0.392,3.048
			c-0.016,0.705-0.077,1.272-0.185,1.701c-0.107,0.43-0.222,0.764-0.345,1.001c-0.123,0.238-0.245,0.414-0.368,0.529
			c-0.123,0.114-0.215,0.211-0.275,0.287c0.398,0.368,0.682,0.82,0.851,1.357c0.169,0.536,0.283,1.131,0.345,1.782
			s0.1,1.35,0.115,2.093c0.016,0.744,0.069,1.499,0.161,2.266H24.583z M24.1,31.71c0.062-0.184,0.107-0.429,0.138-0.736
			c0.031-0.306,0.042-0.628,0.035-0.966c-0.008-0.337-0.039-0.663-0.092-0.978c-0.055-0.313-0.135-0.556-0.242-0.725
			c-0.107-0.168-0.241-0.295-0.402-0.379s-0.322-0.142-0.483-0.173c-0.16-0.03-0.303-0.046-0.425-0.046c-0.123,0-0.207,0-0.253,0
			c0,0.736,0,1.426,0,2.07c0.015,0.537,0.022,1.069,0.022,1.599c0,0.528-0.008,0.9-0.022,1.115c0.152,0,0.317-0.004,0.494-0.012
			c0.176-0.008,0.345-0.034,0.506-0.08s0.307-0.123,0.438-0.23C23.942,32.064,24.038,31.91,24.1,31.71z"/>
		<path fill="#FFFFFF" d="M36.428,37.829c-0.016,0.476-0.123,0.92-0.322,1.334s-0.464,0.778-0.793,1.093
			c-0.33,0.314-0.714,0.56-1.15,0.735c-0.438,0.177-0.908,0.265-1.414,0.265c-0.169,0-0.342-0.008-0.518-0.022
			c-0.177-0.016-0.304-0.039-0.38-0.069c-0.644-0.138-1.15-0.38-1.518-0.725c-0.368-0.345-0.645-0.778-0.828-1.3
			c-0.185-0.521-0.299-1.104-0.346-1.748c-0.046-0.644-0.068-1.334-0.068-2.069c0-0.69,0.026-1.38,0.08-2.07
			c0.054-0.689,0.203-1.307,0.448-1.852c0.245-0.544,0.621-0.985,1.128-1.322c0.506-0.337,1.203-0.506,2.093-0.506
			c0.95,0,1.683,0.245,2.196,0.735c0.514,0.491,0.878,1.093,1.093,1.806c0.214,0.713,0.321,1.469,0.321,2.266
			c0,0.798-0.038,1.511-0.114,2.139h-4.509c0,0.2,0.004,0.414,0.012,0.645c0.008,0.229,0.046,0.445,0.115,0.644
			c0.069,0.2,0.173,0.361,0.311,0.483c0.138,0.123,0.345,0.184,0.621,0.184c0.261,0,0.444-0.092,0.552-0.275
			c0.107-0.185,0.185-0.383,0.23-0.599c0.03-0.138,0.053-0.241,0.068-0.311c0.016-0.068,0.065-0.118,0.149-0.149
			c0.084-0.03,0.207-0.049,0.368-0.057s0.402-0.012,0.725-0.012h0.575c0.229,0,0.406,0.008,0.529,0.022
			c0.122,0.016,0.21,0.05,0.264,0.104s0.085,0.131,0.093,0.23C36.446,37.526,36.442,37.66,36.428,37.829z M33.69,34.149
			c0-0.169-0.004-0.36-0.012-0.575s-0.034-0.426-0.08-0.633s-0.131-0.379-0.253-0.518c-0.123-0.138-0.314-0.207-0.575-0.207
			c-0.307,0-0.525,0.104-0.655,0.311c-0.131,0.207-0.219,0.603-0.265,1.185l-0.023,0.438H33.69z"/>
		<path fill="#FFFFFF" d="M43.512,33.136h-0.322c-0.261,0-0.46-0.003-0.598-0.011s-0.241-0.027-0.311-0.058
			c-0.069-0.031-0.123-0.077-0.161-0.139c-0.038-0.061-0.08-0.146-0.126-0.253c-0.077-0.168-0.169-0.287-0.276-0.356
			c-0.107-0.068-0.261-0.104-0.46-0.104c-0.245,0-0.452,0.077-0.621,0.23s-0.253,0.376-0.253,0.667c0,0.275,0.062,0.472,0.184,0.586
			c0.123,0.115,0.288,0.192,0.495,0.23s0.44,0.062,0.701,0.069s0.521,0.05,0.782,0.126c0.582,0.138,1.054,0.388,1.414,0.748
			s0.625,0.778,0.794,1.253c0.169,0.476,0.241,0.978,0.219,1.507c-0.023,0.528-0.135,1.031-0.334,1.506
			c-0.199,0.476-0.486,0.894-0.862,1.254s-0.832,0.609-1.368,0.747c-0.308,0.077-0.69,0.115-1.15,0.115
			c-0.184,0-0.368-0.008-0.552-0.022c-0.185-0.016-0.354-0.046-0.506-0.093c-0.506-0.138-0.936-0.379-1.288-0.724
			c-0.354-0.346-0.629-0.705-0.828-1.081s-0.322-0.725-0.368-1.047s-0.023-0.529,0.069-0.621l0.114-0.115
			c0.659,0.016,1.223,0.023,1.691,0.023c0.467,0,0.724,0.016,0.771,0.046c0.106,0.107,0.184,0.234,0.229,0.38
			s0.161,0.272,0.345,0.379c0.107,0.062,0.238,0.092,0.392,0.092c0.152,0,0.303-0.042,0.448-0.126s0.257-0.211,0.333-0.38
			c0.077-0.122,0.115-0.275,0.115-0.46c0-0.184-0.038-0.329-0.115-0.437c-0.153-0.185-0.349-0.291-0.586-0.322
			c-0.238-0.03-0.514-0.062-0.828-0.092s-0.652-0.104-1.012-0.219c-0.36-0.115-0.732-0.364-1.116-0.747
			c-0.353-0.353-0.602-0.713-0.747-1.081s-0.219-0.828-0.219-1.38c0-0.567,0.092-1.085,0.276-1.553
			c0.184-0.468,0.44-0.866,0.771-1.196c0.329-0.329,0.721-0.586,1.173-0.771c0.452-0.184,0.954-0.276,1.507-0.276
			c0.874,0,1.621,0.246,2.242,0.736c0.621,0.491,1.039,1.166,1.254,2.024c0.122,0.429,0.134,0.693,0.034,0.793
			c-0.1,0.101-0.303,0.149-0.609,0.149H43.512z"/>
		<path fill="#FFFFFF" d="M49.929,29.687c0.23,0,0.402,0.004,0.518,0.011c0.115,0.008,0.195,0.055,0.242,0.139
			c0.046,0.084,0.068,0.218,0.068,0.402c0,0.184,0,0.46,0,0.828v1.127c-0.016,0.107-0.058,0.176-0.126,0.207
			c-0.069,0.03-0.257,0.046-0.563,0.046h-0.76c0,1.38,0,2.453,0,3.22s0.004,1.342,0.012,1.725c0.008,0.384,0.023,0.629,0.046,0.736
			c0.023,0.107,0.058,0.185,0.104,0.23c0.046,0.076,0.199,0.114,0.46,0.114h0.115c0.076-0.015,0.146-0.022,0.207-0.022
			s0.115,0,0.161,0c0.184,0,0.287,0.08,0.311,0.241c0.022,0.161,0.034,0.525,0.034,1.093c0,0.353-0.004,0.625-0.012,0.816
			s-0.026,0.326-0.057,0.402c-0.031,0.077-0.089,0.123-0.173,0.138c-0.085,0.016-0.203,0.023-0.356,0.023
			c-0.292,0-0.599-0.008-0.92-0.023c-0.322-0.015-0.633-0.064-0.932-0.149c-0.299-0.084-0.575-0.214-0.828-0.391
			c-0.253-0.176-0.464-0.433-0.633-0.771c-0.229-0.46-0.341-1.334-0.333-2.622s0.019-2.875,0.034-4.761h-0.229H46.18
			c-0.169,0-0.295-0.012-0.379-0.035c-0.085-0.022-0.146-0.08-0.185-0.172s-0.062-0.241-0.068-0.448
			c-0.008-0.207-0.012-0.495-0.012-0.863c0-0.337,0.004-0.59,0.012-0.759c0.007-0.168,0.042-0.287,0.104-0.356
			c0.061-0.069,0.16-0.107,0.299-0.115c0.138-0.007,0.337-0.019,0.598-0.034c0-0.398-0.004-0.729-0.012-0.989s-0.008-0.468,0-0.621
			c0.008-0.152,0.031-0.256,0.069-0.311c0.038-0.053,0.096-0.08,0.173-0.08h1.195h0.599c0.214,0,0.371,0.008,0.472,0.023
			c0.099,0.015,0.168,0.061,0.207,0.138c0.038,0.077,0.057,0.188,0.057,0.333c0,0.146,0,0.35,0,0.609v0.897L49.929,29.687z"/>
		<path fill="#FFFFFF" d="M56.621,40.704c-0.275,0.245-0.595,0.398-0.954,0.46c-0.36,0.062-0.694,0.092-1.001,0.092
			c-0.43,0-0.878-0.1-1.346-0.299s-0.839-0.468-1.115-0.805c-0.43-0.537-0.687-1.104-0.771-1.702s-0.054-1.169,0.092-1.714
			c0.146-0.544,0.388-1.035,0.725-1.472c0.337-0.438,0.705-0.755,1.104-0.954c0.275-0.139,0.56-0.23,0.851-0.276
			s0.567-0.069,0.828-0.069c0.353,0,0.645,0.023,0.874,0.069c0.123,0.016,0.237,0.038,0.345,0.069
			c-0.016-0.153-0.03-0.322-0.046-0.507c-0.016-0.184-0.05-0.359-0.104-0.528s-0.142-0.311-0.265-0.426
			c-0.122-0.115-0.299-0.173-0.528-0.173c-0.261,0-0.445,0.058-0.553,0.173s-0.222,0.364-0.345,0.747
			c-0.031,0.093-0.062,0.161-0.092,0.207c-0.031,0.046-0.092,0.081-0.184,0.104c-0.093,0.023-0.223,0.039-0.392,0.046
			c-0.169,0.009-0.406,0.012-0.713,0.012c-0.537,0-0.882-0.012-1.035-0.034c-0.153-0.023-0.253-0.088-0.299-0.195
			c-0.031-0.062-0.046-0.161-0.046-0.299c0-0.139,0.015-0.288,0.046-0.449c0.03-0.161,0.069-0.329,0.115-0.506
			c0.046-0.176,0.1-0.341,0.161-0.494c0.275-0.736,0.716-1.288,1.322-1.656c0.605-0.368,1.3-0.552,2.081-0.552
			c0.967,0,1.756,0.241,2.369,0.725c0.613,0.482,1.004,1.207,1.173,2.173c0.016,0.062,0.027,0.139,0.035,0.23
			c0.007,0.092,0.011,0.241,0.011,0.448s0.004,0.499,0.012,0.874c0.008,0.376,0.012,0.874,0.012,1.495s0,1.392,0,2.312
			s0,2.032,0,3.335h-2.369V40.704z M54.873,38.657c0.077,0.03,0.191,0.046,0.345,0.046c0.261,0,0.491-0.088,0.69-0.265
			c0.199-0.176,0.307-0.44,0.322-0.793c0.015-0.353-0.073-0.633-0.265-0.84c-0.192-0.207-0.456-0.318-0.794-0.334
			c-0.261-0.015-0.482,0.069-0.667,0.253c-0.184,0.185-0.307,0.399-0.367,0.645c-0.062,0.245-0.039,0.491,0.068,0.736
			S54.536,38.534,54.873,38.657z"/>
		<path fill="#FFFFFF" d="M65.522,40.887c-0.276,0.139-0.567,0.234-0.874,0.288c-0.308,0.054-0.583,0.08-0.828,0.08
			c-0.307,0-0.529-0.022-0.667-0.068c-0.721-0.199-1.254-0.507-1.599-0.921c-0.345-0.413-0.579-0.927-0.701-1.541
			c-0.123-0.612-0.177-1.314-0.161-2.104c0.015-0.789,0.022-1.651,0.022-2.587c0-0.276,0-0.621,0-1.035s0.004-0.836,0.012-1.265
			c0.008-0.43,0.012-0.832,0.012-1.208c0-0.375,0-0.663,0-0.862h2.714c0,1.35,0,2.457,0,3.323c0,0.867,0,1.576,0,2.128
			s0,0.993,0,1.322c0,0.33,0,0.633,0,0.908c0,0.399,0.084,0.675,0.253,0.828s0.444,0.23,0.828,0.23
			c0.322-0.046,0.544-0.177,0.667-0.392c0.015-0.046,0.026-0.1,0.034-0.16c0.008-0.062,0.016-0.185,0.023-0.368
			c0.008-0.185,0.012-0.449,0.012-0.794s0.003-0.824,0.011-1.438s0.016-1.372,0.023-2.277c0.008-0.904,0.012-2.008,0.012-3.312
			h2.783c0,1.825,0.003,3.669,0.011,5.531c0.008,1.863,0.012,3.853,0.012,5.969h-2.599V40.887z"/>
		<path fill="#FFFFFF" d="M76.77,31.067c0,0.062-0.092,0.188-0.276,0.379c-0.184,0.192-0.398,0.396-0.644,0.609
			c-0.245,0.215-0.476,0.407-0.69,0.575c-0.215,0.169-0.36,0.253-0.437,0.253c-0.153,0-0.307-0.122-0.46-0.368
			c-0.077-0.122-0.177-0.245-0.299-0.367c-0.123-0.123-0.284-0.185-0.483-0.185c-0.43,0-0.659,0.199-0.689,0.599
			c0,0.199-0.005,0.536-0.012,1.012c-0.008,0.476-0.012,1.016-0.012,1.621c0,0.606,0,1.238,0,1.897c0,0.66,0,1.276,0,1.852
			s0,1.066,0,1.473s0,0.655,0,0.747h-2.806c0-0.107,0-0.191,0-0.253s-0.004-0.188-0.012-0.38c-0.008-0.191-0.012-0.494-0.012-0.908
			s0-1.031,0-1.852s0-1.882,0-3.186c0-1.303,0-2.944,0-4.922h2.737v0.621c0.261-0.215,0.563-0.387,0.908-0.518
			c0.345-0.13,0.687-0.195,1.023-0.195c0.185,0,0.36,0.02,0.529,0.058c0.168,0.038,0.322,0.104,0.46,0.195
			c0.122,0.077,0.249,0.173,0.379,0.287c0.131,0.115,0.257,0.23,0.38,0.346c0.123,0.114,0.223,0.226,0.299,0.333
			C76.731,30.898,76.77,30.99,76.77,31.067z"/>
		<path fill="#FFFFFF" d="M82.496,40.704c-0.275,0.245-0.595,0.398-0.954,0.46c-0.36,0.062-0.694,0.092-1.001,0.092
			c-0.43,0-0.878-0.1-1.346-0.299s-0.839-0.468-1.115-0.805c-0.43-0.537-0.687-1.104-0.771-1.702s-0.054-1.169,0.092-1.714
			c0.146-0.544,0.388-1.035,0.725-1.472c0.337-0.438,0.705-0.755,1.104-0.954c0.275-0.139,0.56-0.23,0.851-0.276
			s0.567-0.069,0.828-0.069c0.353,0,0.645,0.023,0.874,0.069c0.123,0.016,0.237,0.038,0.345,0.069
			c-0.016-0.153-0.03-0.322-0.046-0.507c-0.016-0.184-0.05-0.359-0.104-0.528s-0.142-0.311-0.265-0.426
			c-0.122-0.115-0.299-0.173-0.528-0.173c-0.261,0-0.445,0.058-0.553,0.173s-0.222,0.364-0.345,0.747
			c-0.031,0.093-0.062,0.161-0.092,0.207c-0.031,0.046-0.092,0.081-0.184,0.104c-0.093,0.023-0.223,0.039-0.392,0.046
			c-0.169,0.009-0.406,0.012-0.713,0.012c-0.537,0-0.882-0.012-1.035-0.034c-0.153-0.023-0.253-0.088-0.299-0.195
			c-0.031-0.062-0.046-0.161-0.046-0.299c0-0.139,0.015-0.288,0.046-0.449c0.03-0.161,0.069-0.329,0.115-0.506
			c0.046-0.176,0.1-0.341,0.161-0.494c0.275-0.736,0.716-1.288,1.322-1.656c0.605-0.368,1.3-0.552,2.081-0.552
			c0.967,0,1.756,0.241,2.369,0.725c0.613,0.482,1.004,1.207,1.173,2.173c0.016,0.062,0.027,0.139,0.035,0.23
			c0.007,0.092,0.011,0.241,0.011,0.448s0.004,0.499,0.012,0.874c0.008,0.376,0.012,0.874,0.012,1.495s0,1.392,0,2.312
			s0,2.032,0,3.335h-2.369V40.704z M80.748,38.657c0.077,0.03,0.191,0.046,0.345,0.046c0.261,0,0.491-0.088,0.69-0.265
			c0.199-0.176,0.307-0.44,0.322-0.793c0.015-0.353-0.073-0.633-0.265-0.84c-0.192-0.207-0.456-0.318-0.794-0.334
			c-0.261-0.015-0.482,0.069-0.667,0.253c-0.184,0.185-0.307,0.399-0.367,0.645c-0.062,0.245-0.039,0.491,0.068,0.736
			S80.411,38.534,80.748,38.657z"/>
		<path fill="#FFFFFF" d="M91.397,41.164c0-0.122,0-0.387,0-0.794c0-0.405-0.004-0.893-0.012-1.46s-0.016-1.173-0.023-1.817
			c-0.008-0.644-0.015-1.261-0.022-1.852c-0.008-0.59-0.016-1.115-0.023-1.575s-0.012-0.782-0.012-0.966
			c0-0.199-0.068-0.38-0.206-0.541c-0.139-0.16-0.346-0.241-0.621-0.241c-0.2,0-0.388,0.054-0.563,0.161
			c-0.177,0.107-0.28,0.269-0.311,0.483c-0.016,0.153-0.027,0.475-0.035,0.966c-0.008,0.49-0.016,1.111-0.022,1.862
			c-0.008,0.752-0.008,1.618,0,2.6c0.007,0.981,0.012,2.039,0.012,3.174h-2.807c0-0.153-0.004-0.272-0.012-0.356
			s-0.011-0.23-0.011-0.438s-0.004-0.517-0.012-0.931s-0.012-1.023-0.012-1.829c0-0.805,0-1.848,0-3.128s0-2.887,0-4.818h2.553V30.1
			c0.169-0.184,0.41-0.321,0.725-0.413c0.314-0.093,0.633-0.139,0.955-0.139c0.229,0,0.437,0.023,0.621,0.069
			c0.536,0.107,0.962,0.272,1.276,0.494c0.313,0.223,0.56,0.468,0.735,0.736c0.177,0.269,0.295,0.548,0.356,0.84
			c0.062,0.291,0.107,0.567,0.139,0.827v8.648H91.397z"/>
		<path fill="#FFFFFF" d="M99.424,29.687c0.23,0,0.402,0.004,0.518,0.011c0.115,0.008,0.195,0.055,0.242,0.139
			c0.046,0.084,0.068,0.218,0.068,0.402c0,0.184,0,0.46,0,0.828v1.127c-0.016,0.107-0.058,0.176-0.126,0.207
			c-0.069,0.03-0.257,0.046-0.563,0.046h-0.76c0,1.38,0,2.453,0,3.22s0.004,1.342,0.012,1.725c0.008,0.384,0.023,0.629,0.046,0.736
			c0.023,0.107,0.058,0.185,0.104,0.23c0.046,0.076,0.199,0.114,0.46,0.114h0.115c0.076-0.015,0.146-0.022,0.207-0.022
			s0.115,0,0.161,0c0.184,0,0.287,0.08,0.311,0.241c0.022,0.161,0.034,0.525,0.034,1.093c0,0.353-0.004,0.625-0.012,0.816
			s-0.026,0.326-0.057,0.402c-0.031,0.077-0.089,0.123-0.173,0.138c-0.085,0.016-0.203,0.023-0.356,0.023
			c-0.292,0-0.599-0.008-0.92-0.023c-0.322-0.015-0.633-0.064-0.932-0.149c-0.299-0.084-0.575-0.214-0.828-0.391
			c-0.253-0.176-0.464-0.433-0.633-0.771c-0.229-0.46-0.341-1.334-0.333-2.622s0.019-2.875,0.034-4.761h-0.229h-0.139
			c-0.169,0-0.295-0.012-0.379-0.035c-0.085-0.022-0.146-0.08-0.185-0.172s-0.062-0.241-0.068-0.448
			c-0.008-0.207-0.012-0.495-0.012-0.863c0-0.337,0.004-0.59,0.012-0.759c0.007-0.168,0.042-0.287,0.104-0.356
			c0.061-0.069,0.16-0.107,0.299-0.115c0.138-0.007,0.337-0.019,0.598-0.034c0-0.398-0.004-0.729-0.012-0.989s-0.008-0.468,0-0.621
			c0.008-0.152,0.031-0.256,0.069-0.311c0.038-0.053,0.096-0.08,0.173-0.08h1.195h0.599c0.214,0,0.371,0.008,0.472,0.023
			c0.099,0.015,0.168,0.061,0.207,0.138c0.038,0.077,0.057,0.188,0.057,0.333c0,0.146,0,0.35,0,0.609v0.897L99.424,29.687z"/>
		<path fill="#FFFFFF" d="M106.783,33.136h-0.322c-0.261,0-0.46-0.003-0.598-0.011s-0.241-0.027-0.311-0.058
			c-0.069-0.031-0.123-0.077-0.161-0.139c-0.038-0.061-0.08-0.146-0.126-0.253c-0.077-0.168-0.169-0.287-0.276-0.356
			c-0.107-0.068-0.261-0.104-0.46-0.104c-0.245,0-0.452,0.077-0.621,0.23s-0.253,0.376-0.253,0.667c0,0.275,0.062,0.472,0.184,0.586
			c0.123,0.115,0.288,0.192,0.495,0.23s0.44,0.062,0.701,0.069s0.521,0.05,0.782,0.126c0.582,0.138,1.054,0.388,1.414,0.748
			s0.625,0.778,0.794,1.253c0.169,0.476,0.241,0.978,0.219,1.507c-0.023,0.528-0.135,1.031-0.334,1.506
			c-0.199,0.476-0.486,0.894-0.862,1.254s-0.832,0.609-1.368,0.747c-0.308,0.077-0.69,0.115-1.15,0.115
			c-0.184,0-0.368-0.008-0.552-0.022c-0.185-0.016-0.354-0.046-0.506-0.093c-0.506-0.138-0.936-0.379-1.288-0.724
			c-0.354-0.346-0.629-0.705-0.828-1.081s-0.322-0.725-0.368-1.047s-0.023-0.529,0.069-0.621l0.114-0.115
			c0.659,0.016,1.223,0.023,1.691,0.023c0.467,0,0.724,0.016,0.771,0.046c0.106,0.107,0.184,0.234,0.229,0.38
			s0.161,0.272,0.345,0.379c0.107,0.062,0.238,0.092,0.392,0.092c0.152,0,0.303-0.042,0.448-0.126s0.257-0.211,0.333-0.38
			c0.077-0.122,0.115-0.275,0.115-0.46c0-0.184-0.038-0.329-0.115-0.437c-0.153-0.185-0.349-0.291-0.586-0.322
			c-0.238-0.03-0.514-0.062-0.828-0.092s-0.652-0.104-1.012-0.219c-0.36-0.115-0.732-0.364-1.116-0.747
			c-0.353-0.353-0.602-0.713-0.747-1.081s-0.219-0.828-0.219-1.38c0-0.567,0.092-1.085,0.276-1.553
			c0.184-0.468,0.44-0.866,0.771-1.196c0.329-0.329,0.721-0.586,1.173-0.771c0.452-0.184,0.954-0.276,1.507-0.276
			c0.874,0,1.621,0.246,2.242,0.736c0.621,0.491,1.039,1.166,1.254,2.024c0.122,0.429,0.134,0.693,0.034,0.793
			c-0.1,0.101-0.303,0.149-0.609,0.149H106.783z"/>
	</g>
</g>
<line fill="none" stroke="#676767" stroke-width="2" stroke-miterlimit="10" x1="71.7" y1="62.246" x2="71.7" y2="141.423"/>
<path fill-rule="evenodd" clip-rule="evenodd" fill="#010101" d="M97.292,112.393c2.751-3.313,5.716-6.476,8.159-10.001
	c1.116-1.606,1.811-3.98,1.636-5.912c-0.377-4.165,0.74-7.732,3.059-10.989c2.667-3.749,5.493-7.39,8.302-11.039
	c0.437-0.57,1.141-0.936,2.309-0.914c-2.909,4.787-5.82,9.57-8.729,14.354c0.304,0.191,0.607,0.378,0.911,0.569
	c3.031-4.793,6.063-9.585,9.095-14.379c0.326,0.183,0.653,0.369,0.979,0.553c-2.781,4.938-5.563,9.875-8.346,14.815
	c0.296,0.176,0.591,0.349,0.885,0.525c2.91-4.885,5.819-9.772,8.729-14.658c0.328,0.174,0.656,0.349,0.984,0.525
	c-2.669,5.073-5.34,10.15-8.007,15.227c0.327,0.176,0.654,0.352,0.981,0.527c2.701-4.975,5.403-9.949,8.105-14.925
	c0.374,0.227,0.748,0.454,1.124,0.68c-3.774,8.106-4.733,17.749-14.14,22.748c-2.117,1.124-3.666,3.767-4.884,6.026
	c-1.762,3.282-2.742,6.98-4.489,10.268c-3.048,5.734-6.462,11.271-9.648,16.932c-1.252,2.223-2.875,3.188-5.21,1.81
	c-2.265-1.339-2.837-3.039-1.329-5.583c3.36-5.672,6.446-11.505,9.644-17.271L97.292,112.393z"/>
<path fill-rule="evenodd" clip-rule="evenodd" fill="#010101" d="M97.411,112.281c-2.865-1.159-6.983-1.491-8.374-3.616
	C83.26,99.86,78.456,90.442,78.165,79.515c-0.047-1.787,0.585-3.597,1.733-5.493c1.24,2.068,2.51,4.117,3.715,6.205
	c4.137,7.159,8.055,14.456,12.454,21.448c2.248,3.57,3.626,6.815,1.223,10.719C97.292,112.394,97.411,112.281,97.411,112.281
	 M89.28,92.457c-0.281,0.153-0.564,0.311-0.847,0.462c2.372,4.657,4.744,9.313,7.117,13.973c0.495-0.271,0.992-0.537,1.488-0.803
	C94.454,101.544,91.867,97,89.28,92.457"/>
<path fill-rule="evenodd" clip-rule="evenodd" fill="#010101" d="M104.822,117.071c2.721,4.688,5.324,9.027,7.767,13.455
	c1.169,2.117-0.01,3.663-1.849,4.652c-1.73,0.928-3.419,0.954-4.569-1.046c-1.588-2.761-3.306-5.46-4.711-8.314
	c-0.416-0.842-0.251-2.239,0.154-3.159C102.419,120.842,103.578,119.186,104.822,117.071"/>
<path fill-rule="evenodd" clip-rule="evenodd" fill="#FFFFFF" d="M89.28,92.457c2.587,4.544,5.174,9.088,7.759,13.632
	c-0.496,0.266-0.993,0.532-1.488,0.803c-2.373-4.659-4.745-9.315-7.117-13.973C88.716,92.767,88.999,92.61,89.28,92.457"/>
<path fill-rule="evenodd" clip-rule="evenodd" fill="#010101" d="M49.418,65.506c-0.124-0.06-0.249-0.104-0.359-0.173
	c-0.319-0.195-0.452-0.449-0.326-0.841c0.276-0.863,0.522-1.733,0.789-2.631c-0.201-0.023-0.366-0.043-0.523-0.063
	c-0.262-1.167,0.52-2.633,2.05-2.59c1.71,0.049,3.426,0.066,5.135-0.004c1.591-0.063,2.39,1.353,2.16,2.589
	c-0.157,0.021-0.324,0.038-0.535,0.064c0.247,0.836,0.486,1.651,0.73,2.464c0.202,0.674,0.054,0.954-0.664,1.157
	c0.075,1.011,0.147,2.032,0.228,3.053c0.147,1.893,0.3,3.785,0.447,5.677c0.153,1.959,0.284,3.919,0.462,5.875
	c0.092,1.008,0.216,2.02,0.411,3.012c0.309,1.561,0.996,2.991,1.784,4.356c1.998,3.462,2.968,7.184,2.965,11.171
	c-0.003,5.925-0.006,11.85-0.006,17.776c0.001,7.33,0.009,14.658,0.005,21.987c-0.001,1.114-0.43,2.009-1.497,2.481
	c-0.259,0.116-0.567,0.165-0.854,0.165c-5.431,0.01-10.86,0.009-16.291,0.006c-1.154-0.001-2.127-0.813-2.275-1.965
	c-0.087-0.671-0.095-1.356-0.096-2.036c-0.006-7.649-0.004-15.301-0.003-22.951c0-5.015-0.001-10.029,0.001-15.044
	c0.001-2.731,0.269-5.434,1.293-7.984c0.629-1.57,1.431-3.072,2.192-4.584c0.943-1.874,1.522-3.834,1.656-5.936
	c0.126-1.974,0.313-3.943,0.466-5.916c0.141-1.825,0.268-3.651,0.404-5.477c0.081-1.08,0.17-2.16,0.251-3.24
	C49.427,65.775,49.418,65.644,49.418,65.506"/>
<path fill-rule="evenodd" clip-rule="evenodd" fill="#010101" d="M38.479,140.661c0.313-0.149,0.656-0.257,0.937-0.46
	c0.697-0.508,0.991-1.257,0.99-2.15c-0.002-2.956,0-5.913,0-8.869v-15.734v-0.473h-2.44c0,0.16,0.002,0.308,0,0.458
	c-0.018,1.464,0.047,2.936-0.074,4.391c-0.188,2.249-2.116,4.048-4.236,4.098c-2.229,0.052-4.165-1.607-4.521-3.894
	c-0.064-0.415-0.074-0.843-0.078-1.265c-0.009-1.256-0.003-2.513-0.003-3.789h-9.81v0.538v24.101c0,1.802,0.375,2.402,1.906,3.049
	H38.479z"/>
<path fill-rule="evenodd" clip-rule="evenodd" fill="#010101" d="M29.202,101.158c-0.218,0.058-0.438,0.11-0.653,0.175
	c-0.947,0.277-1.757,0.802-2.419,1.583c-0.687,0.811-1.26,0.925-2.165,0.422c-1.796-0.998-4.006-0.491-5.244,1.205
	c-1.251,1.712-1.198,4.131,0.118,5.754c0.192,0.236,0.391,0.352,0.702,0.35c3.737-0.012,7.475-0.009,11.213-0.009h0.456v0.459
	c0,2.032-0.013,4.062,0.008,6.093c0.009,1.017,0.476,1.771,1.336,2.193c0.861,0.421,1.689,0.291,2.423-0.35
	c0.586-0.511,0.832-1.204,0.83-2.006c-0.001-1.954,0-3.908,0-5.861v-0.528h0.391c1.317,0,2.636-0.005,3.953,0.006
	c0.249,0.002,0.422-0.075,0.591-0.272c1.354-1.598,1.46-4.007,0.238-5.747c-1.216-1.732-3.412-2.293-5.217-1.33
	c-1.05,0.558-1.504,0.466-2.308-0.446c-0.774-0.876-1.718-1.42-2.832-1.618c-0.068-0.012-0.132-0.048-0.198-0.071H29.202z"/>
<path fill-rule="evenodd" clip-rule="evenodd" fill="#010101" d="M17.066,135.79v-4.915c-0.211-0.013-0.413-0.01-0.611-0.038
	c-1.184-0.17-2.027-1.145-2.044-2.437c-0.023-1.838-0.026-3.676,0.001-5.515c0.021-1.41,1.012-2.414,2.336-2.441
	c0.096-0.002,0.19,0,0.312,0v-4.896c-4.343-0.544-7.217,2.798-7.247,6.492c-0.02,2.404-0.033,4.811,0.004,7.213
	c0.057,3.706,2.742,6.515,6.2,6.536C16.353,135.792,16.687,135.79,17.066,135.79"/>
</svg>
