<?xml version="1.0" encoding="utf-8"?>
<!-- Generator: Adobe Illustrator 16.0.0, SVG Export Plug-In . SVG Version: 6.00 Build 0)  -->
<!DOCTYPE svg PUBLIC "-//W3C//DTD SVG 1.1//EN" "http://www.w3.org/Graphics/SVG/1.1/DTD/svg11.dtd">
<svg version="1.1" id="Layer_1" xmlns="http://www.w3.org/2000/svg" xmlns:xlink="http://www.w3.org/1999/xlink" x="0px" y="0px"
	 width="157px" height="179px" viewBox="0 0 157 179" enable-background="new 0 0 157 179" xml:space="preserve">
<rect x="1.008" y="1.52" fill-rule="evenodd" clip-rule="evenodd" fill="#FFFFFF" stroke="#627D53" stroke-width="2" stroke-miterlimit="10" width="155" height="177"/>
<rect x="2.008" y="-0.48" fill-rule="evenodd" clip-rule="evenodd" fill="#627D53" width="155" height="56"/>
<g>
	<path fill="#FFFFFF" d="M33.714,20.22l-2.527-7.638h2.223l1.425,4.883h0.038l1.425-4.883h2.033l-2.527,7.638v5.662h-2.09V20.22z"/>
	<path fill="#FFFFFF" d="M39.604,25.197c-0.544-0.582-0.817-1.405-0.817-2.469v-6.992c0-1.064,0.272-1.888,0.817-2.471
		c0.544-0.582,1.33-0.874,2.356-0.874c1.026,0,1.812,0.292,2.356,0.874c0.545,0.583,0.817,1.406,0.817,2.471v6.992
		c0,1.063-0.272,1.887-0.817,2.469c-0.544,0.584-1.33,0.875-2.356,0.875C40.934,26.072,40.148,25.781,39.604,25.197z M43.042,22.861
		v-7.258c0-0.875-0.361-1.312-1.083-1.312c-0.722,0-1.083,0.437-1.083,1.312v7.258c0,0.873,0.361,1.311,1.083,1.311
		C42.682,24.172,43.042,23.734,43.042,22.861z"/>
	<path fill="#FFFFFF" d="M47.261,25.207c-0.532-0.576-0.798-1.402-0.798-2.479V12.582h2.09V22.88c0,0.456,0.092,0.786,0.275,0.987
		c0.184,0.203,0.447,0.305,0.789,0.305c0.342,0,0.605-0.102,0.789-0.305c0.184-0.201,0.275-0.531,0.275-0.987V12.582h2.014v10.146
		c0,1.076-0.266,1.902-0.798,2.479c-0.532,0.576-1.305,0.865-2.318,0.865S47.793,25.783,47.261,25.207z"/>
	<path fill="#FFFFFF" d="M55.811,14.482h-2.185v-1.9h6.46v1.9H57.9v11.399h-2.09V14.482z"/>
	<path fill="#FFFFFF" d="M61.092,12.582h2.09v5.415h2.242v-5.415h2.09v13.3h-2.09v-5.985h-2.242v5.985h-2.09V12.582z"/>
	<path fill="#FFFFFF" d="M72.112,12.582h3.154c1.076,0,1.861,0.25,2.355,0.75c0.494,0.501,0.741,1.271,0.741,2.309v0.532
		c0,0.685-0.11,1.241-0.333,1.672c-0.221,0.431-0.56,0.741-1.016,0.931v0.039c1.038,0.354,1.558,1.279,1.558,2.773v1.141
		c0,1.025-0.269,1.808-0.808,2.346c-0.538,0.539-1.326,0.808-2.365,0.808h-3.287V12.582z M75.019,17.997
		c0.418,0,0.731-0.108,0.94-0.323s0.313-0.576,0.313-1.083V15.85c0-0.48-0.085-0.829-0.257-1.045
		c-0.17-0.215-0.439-0.322-0.807-0.322h-1.008v3.515H75.019z M75.399,23.982c0.367,0,0.64-0.099,0.816-0.295
		c0.178-0.196,0.267-0.535,0.267-1.017v-1.159c0-0.607-0.104-1.029-0.313-1.264s-0.555-0.352-1.035-0.352h-0.932v4.086H75.399z"/>
	<path fill="#FFFFFF" d="M81.403,12.582h2.831l2.166,13.3h-2.091L83.93,23.24v0.039h-2.375l-0.381,2.603h-1.938L81.403,12.582z
		 M83.682,21.474l-0.93-6.573h-0.039l-0.912,6.573H83.682z"/>
	<path fill="#FFFFFF" d="M87.768,25.207c-0.52-0.576-0.779-1.402-0.779-2.479v-0.761h1.977v0.912c0,0.861,0.36,1.292,1.082,1.292
		c0.355,0,0.624-0.104,0.809-0.313c0.183-0.209,0.275-0.548,0.275-1.017c0-0.557-0.127-1.048-0.381-1.473
		c-0.254-0.424-0.722-0.934-1.406-1.529c-0.861-0.76-1.463-1.447-1.805-2.062s-0.513-1.308-0.513-2.081
		c0-1.051,0.267-1.864,0.798-2.441c0.532-0.576,1.305-0.864,2.318-0.864c1,0,1.758,0.288,2.27,0.864
		c0.514,0.577,0.77,1.403,0.77,2.48v0.551h-1.975v-0.684c0-0.457-0.09-0.789-0.267-0.998c-0.178-0.209-0.437-0.313-0.779-0.313
		c-0.696,0-1.045,0.425-1.045,1.272c0,0.482,0.13,0.932,0.39,1.35s0.731,0.924,1.416,1.52c0.873,0.76,1.475,1.451,1.805,2.071
		c0.329,0.62,0.494,1.349,0.494,2.185c0,1.09-0.27,1.926-0.809,2.508c-0.537,0.584-1.32,0.875-2.346,0.875
		C89.053,26.072,88.288,25.783,87.768,25.207z"/>
	<path fill="#FFFFFF" d="M94.417,12.582h5.7v1.9h-3.609v3.515h2.868v1.899h-2.868v4.086h3.609v1.899h-5.7V12.582z"/>
	<path fill="#FFFFFF" d="M101.315,12.582h3.154c1.076,0,1.861,0.25,2.355,0.75c0.494,0.501,0.74,1.271,0.74,2.309v0.532
		c0,0.685-0.11,1.241-0.332,1.672s-0.561,0.741-1.016,0.931v0.039c1.037,0.354,1.557,1.279,1.557,2.773v1.141
		c0,1.025-0.269,1.808-0.807,2.346c-0.539,0.539-1.327,0.808-2.365,0.808h-3.287V12.582z M104.221,17.997
		c0.418,0,0.732-0.108,0.941-0.323s0.313-0.576,0.313-1.083V15.85c0-0.48-0.085-0.829-0.256-1.045
		c-0.171-0.215-0.44-0.322-0.808-0.322h-1.007v3.515H104.221z M104.602,23.982c0.367,0,0.639-0.099,0.816-0.295
		s0.266-0.535,0.266-1.017v-1.159c0-0.607-0.104-1.029-0.313-1.264s-0.555-0.352-1.036-0.352h-0.931v4.086H104.602z"/>
	<path fill="#FFFFFF" d="M110.606,12.582h2.83l2.166,13.3h-2.09l-0.38-2.642v0.039h-2.375l-0.38,2.603h-1.938L110.606,12.582z
		 M112.885,21.474l-0.931-6.573h-0.038l-0.912,6.573H112.885z"/>
	<path fill="#FFFFFF" d="M116.609,12.582h2.091v11.4h3.438v1.899h-5.529V12.582z"/>
	<path fill="#FFFFFF" d="M123.145,12.582h2.09v11.4h3.439v1.899h-5.529V12.582z"/>
	<path fill="#FFFFFF" d="M57.216,31.382h2.09v11.399h3.439v1.9h-5.529V31.382z"/>
	<path fill="#FFFFFF" d="M63.751,31.382h5.7v1.899h-3.61v3.516h2.869v1.9h-2.869v4.084h3.61v1.9h-5.7V31.382z"/>
	<path fill="#FFFFFF" d="M72.264,31.382h2.83l2.166,13.3h-2.09l-0.38-2.641v0.037h-2.375l-0.38,2.604h-1.938L72.264,31.382z
		 M74.543,40.273l-0.931-6.574h-0.038l-0.912,6.574H74.543z"/>
	<path fill="#FFFFFF" d="M78.875,44.008c-0.532-0.577-0.799-1.403-0.799-2.48v-6.992c0-1.076,0.267-1.902,0.799-2.479
		c0.531-0.576,1.305-0.865,2.318-0.865c1.013,0,1.785,0.289,2.317,0.865s0.798,1.402,0.798,2.479v1.141h-1.977v-1.273
		c0-0.873-0.36-1.311-1.082-1.311c-0.723,0-1.084,0.438-1.084,1.311v7.277c0,0.861,0.361,1.292,1.084,1.292
		c0.722,0,1.082-0.431,1.082-1.292v-2.604h-1.045v-1.899h3.021v4.351c0,1.077-0.266,1.903-0.798,2.48
		c-0.532,0.576-1.305,0.863-2.317,0.863C80.18,44.871,79.407,44.584,78.875,44.008z"/>
	<path fill="#FFFFFF" d="M86.379,44.008c-0.531-0.577-0.797-1.403-0.797-2.48V31.382h2.09V41.68c0,0.456,0.092,0.785,0.275,0.988
		s0.446,0.304,0.788,0.304c0.343,0,0.604-0.101,0.788-0.304s0.275-0.532,0.275-0.988V31.382h2.015v10.146
		c0,1.077-0.267,1.903-0.798,2.48c-0.532,0.576-1.305,0.863-2.318,0.863S86.913,44.584,86.379,44.008z"/>
	<path fill="#FFFFFF" d="M93.295,31.382h5.7v1.899h-3.61v3.516h2.869v1.9h-2.869v4.084h3.61v1.9h-5.7V31.382z"/>
	<path fill="#FFFFFF" d="M100.649,44.008c-0.52-0.577-0.779-1.403-0.779-2.48v-0.76h1.977v0.912c0,0.861,0.36,1.292,1.082,1.292
		c0.355,0,0.624-0.104,0.809-0.313c0.183-0.209,0.275-0.548,0.275-1.017c0-0.558-0.127-1.048-0.381-1.473
		c-0.254-0.424-0.722-0.934-1.406-1.529c-0.861-0.76-1.463-1.446-1.805-2.062c-0.342-0.614-0.513-1.308-0.513-2.08
		c0-1.052,0.267-1.865,0.798-2.441c0.532-0.576,1.305-0.865,2.318-0.865c1,0,1.758,0.289,2.27,0.865
		c0.514,0.576,0.77,1.402,0.77,2.479v0.551h-1.975v-0.684c0-0.455-0.09-0.788-0.267-0.997c-0.178-0.209-0.437-0.313-0.779-0.313
		c-0.696,0-1.045,0.424-1.045,1.273c0,0.48,0.13,0.93,0.39,1.349c0.26,0.418,0.731,0.925,1.416,1.52
		c0.873,0.761,1.475,1.45,1.805,2.071c0.329,0.621,0.494,1.35,0.494,2.186c0,1.089-0.27,1.925-0.809,2.508
		c-0.537,0.582-1.32,0.873-2.346,0.873C101.934,44.871,101.168,44.584,100.649,44.008z"/>
</g>
<g>
	<path fill-rule="evenodd" clip-rule="evenodd" fill="#627D53" d="M62.698,142.968c-3.023-3.021-6.049-6.045-9.002-8.996
		c-1.248,1.247-2.551,2.551-3.775,3.774c2.977,2.976,6,5.999,8.998,8.995C60.149,145.513,61.44,144.224,62.698,142.968z
		 M97.022,128.867c0,0.243-0.015,0.487,0.002,0.73c0.176,2.555,2.071,4.449,4.55,4.556c2.522,0.108,4.59-1.63,4.956-4.197
		c0.078-0.552,0.027-1.121,0.093-1.676c0.055-0.464-0.154-0.638-0.558-0.757c-2.631-0.778-5.276-0.861-7.925-0.141
		C96.729,127.766,97.042,127.54,97.022,128.867z"/>
	<path fill-rule="evenodd" clip-rule="evenodd" fill="#627D53" d="M116.125,92.656c-0.184,0.701-0.337,1.411-0.557,2.101
		c-0.582,1.83-1.588,3.393-3.036,4.661c-12.87,11.272-25.741,22.544-38.612,33.815c-2.405,2.106-4.811,4.212-7.217,6.317
		c-0.163,0.142-0.332,0.276-0.443,0.368c-3.195-3.195-6.363-6.362-9.572-9.572c1.509-1.723,3.067-3.499,4.624-5.276
		c11.917-13.604,23.837-27.205,35.747-40.814c1.761-2.013,3.944-3.218,6.577-3.631c0.114-0.019,0.221-0.084,0.331-0.127
		c0.83,0,1.66,0,2.49,0c0.137,0.043,0.271,0.102,0.412,0.127c4.604,0.839,7.557,3.519,8.898,7.987
		c0.152,0.508,0.239,1.035,0.357,1.554C116.125,90.996,116.125,91.826,116.125,92.656z"/>
	<path fill-rule="evenodd" clip-rule="evenodd" fill="#627D53" d="M116.125,142.607c-0.246,1.039-0.424,2.101-0.753,3.113
		c-0.823,2.535-2.29,4.652-4.418,6.464c-0.433-3.049-1.835-5.395-4.389-6.985c-1.807-1.125-3.783-1.509-5.888-1.277
		c-3.223,0.353-7.251,2.801-8.035,8.087c-6.388-4.761-7.204-15.831-0.003-21.696c0.325,2.377,1.305,4.388,3.093,5.954
		c1.802,1.577,3.912,2.343,6.308,2.285c2.317-0.056,4.328-0.896,6.016-2.473c1.661-1.551,2.587-3.495,2.899-5.979
		c0.775,0.826,1.463,1.47,2.046,2.197c1.637,2.04,2.637,4.367,2.986,6.967c0.026,0.189,0.091,0.373,0.138,0.56
		C116.125,140.752,116.125,141.68,116.125,142.607z"/>
	<path fill-rule="evenodd" clip-rule="evenodd" fill="#627D53" d="M41.125,146.27c1.63-1.607,3.259-3.216,4.89-4.822
		c0.187-0.185,0.38-0.363,0.532-0.509c3.055,3.055,6.07,6.07,9.141,9.141c-0.83,0.826-1.696,1.677-2.547,2.542
		c-0.937,0.951-1.858,1.917-2.787,2.877c-0.049,0-0.098,0-0.146,0c-1.95-1.973-3.895-3.951-5.853-5.916
		c-1.064-1.068-2.152-2.111-3.229-3.166C41.125,146.367,41.125,146.318,41.125,146.27z"/>
	<path fill-rule="evenodd" clip-rule="evenodd" fill="#627D53" d="M100.452,155.498c-0.97-0.219-1.943-0.424-2.906-0.67
		c-0.199-0.052-0.471-0.231-0.518-0.404c-0.491-1.803,0.434-4.232,2.024-5.311c1.512-1.023,3.137-1.179,4.785-0.396
		c1.709,0.811,2.671,2.233,2.714,4.106c0.052,2.262,0.514,1.751-1.827,2.372c-0.489,0.129-0.992,0.203-1.489,0.303
		C102.307,155.498,101.379,155.498,100.452,155.498z"/>
	<path fill-rule="evenodd" clip-rule="evenodd" fill="#627D53" d="M62.698,142.968c-1.258,1.256-2.549,2.545-3.779,3.773
		c-2.998-2.996-6.021-6.02-8.998-8.995c1.224-1.224,2.528-2.527,3.775-3.774C56.649,136.923,59.675,139.947,62.698,142.968z"/>
	<path fill-rule="evenodd" clip-rule="evenodd" fill="#627D53" d="M97.022,128.867c0.02-1.327-0.293-1.102,1.118-1.484
		c2.648-0.721,5.294-0.638,7.925,0.141c0.403,0.119,0.612,0.293,0.558,0.757c-0.065,0.555-0.015,1.124-0.093,1.676
		c-0.366,2.567-2.434,4.306-4.956,4.197c-2.479-0.106-4.374-2.001-4.55-4.556C97.007,129.354,97.022,129.11,97.022,128.867z"/>
</g>
</svg>
