<?xml version="1.0" encoding="utf-8"?>
<!-- Generator: Adobe Illustrator 16.0.0, SVG Export Plug-In . SVG Version: 6.00 Build 0)  -->
<!DOCTYPE svg PUBLIC "-//W3C//DTD SVG 1.1//EN" "http://www.w3.org/Graphics/SVG/1.1/DTD/svg11.dtd">
<svg version="1.1" id="Layer_1" xmlns="http://www.w3.org/2000/svg" xmlns:xlink="http://www.w3.org/1999/xlink" x="0px" y="0px"
	 width="134.023px" height="152.98px" viewBox="0 0 134.023 152.98" enable-background="new 0 0 134.023 152.98"
	 xml:space="preserve">
<g>
	
		<rect x="1.21" y="1.306" fill="none" stroke="#235F30" stroke-width="2" stroke-miterlimit="10" width="131.962" height="150.692"/>
</g>
<rect x="2.061" y="1.246" fill-rule="evenodd" clip-rule="evenodd" fill="#235F30" width="131.962" height="48.526"/>
<g>
	<path fill="#FFFFFF" d="M10.435,8.848c-0.077-0.153-0.207-0.23-0.391-0.23c-0.138,0-0.253,0.046-0.345,0.138
		c-0.123,0.108-0.2,0.28-0.23,0.518c-0.031,0.238-0.035,0.491-0.012,0.76s0.073,0.532,0.149,0.793s0.161,0.468,0.253,0.621
		c0.199,0.276,0.456,0.545,0.771,0.805c0.314,0.262,0.648,0.529,1,0.806c0.353,0.275,0.698,0.579,1.035,0.908
		c0.337,0.33,0.621,0.709,0.851,1.139c0.322,0.552,0.521,1.2,0.598,1.943c0.076,0.744,0.019,1.465-0.173,2.162
		c-0.192,0.698-0.537,1.308-1.035,1.828c-0.499,0.521-1.162,0.844-1.99,0.966c-0.153,0.016-0.303,0.027-0.448,0.035
		c-0.146,0.008-0.303,0.012-0.472,0.012c-0.905,0-1.633-0.15-2.185-0.449c-0.552-0.299-0.974-0.705-1.265-1.219
		s-0.487-1.119-0.586-1.817c-0.1-0.697-0.157-1.438-0.172-2.219h3.542c0.015,0.245,0.023,0.518,0.023,0.816s0.015,0.579,0.046,0.839
		c0.031,0.262,0.088,0.479,0.173,0.656c0.084,0.176,0.218,0.264,0.402,0.264c0.214,0,0.356-0.084,0.425-0.253
		c0.069-0.168,0.104-0.498,0.104-0.988c0-0.276-0.015-0.521-0.046-0.736s-0.107-0.426-0.23-0.633
		c-0.123-0.207-0.307-0.425-0.552-0.655c-0.245-0.229-0.575-0.498-0.989-0.805c-0.491-0.368-0.905-0.717-1.242-1.047
		c-0.337-0.329-0.613-0.682-0.828-1.058c-0.215-0.376-0.372-0.794-0.472-1.254c-0.1-0.46-0.149-0.989-0.149-1.587
		C6.011,8.48,6.333,7.391,6.962,6.64c0.628-0.751,1.656-1.127,3.082-1.127c1.027,0,1.855,0.245,2.484,0.735
		c0.46,0.354,0.801,0.794,1.024,1.323c0.222,0.528,0.379,1.046,0.471,1.552c0.092,0.506,0.138,0.943,0.138,1.312s0,0.567,0,0.598
		h-3.496c-0.046-0.613-0.069-1.081-0.069-1.403C10.596,9.308,10.542,9.047,10.435,8.848z"/>
	<path fill="#FFFFFF" d="M22.947,19.566c-0.261,0.828-0.682,1.46-1.265,1.897c-0.583,0.437-1.334,0.655-2.254,0.655
		c-0.215,0-0.399-0.02-0.552-0.058c-0.153-0.038-0.269-0.072-0.345-0.104v4.255h-2.783c0-0.215,0-0.375,0-0.482s0-0.296,0-0.563
		c0-0.269,0-0.675,0-1.219c0-0.545,0-1.361,0-2.45c0-1.088-0.004-2.515-0.012-4.277c-0.008-1.764-0.011-3.994-0.011-6.693h2.438
		v0.368c0.168-0.169,0.379-0.284,0.632-0.345c0.253-0.062,0.51-0.093,0.771-0.093c0.307,0,0.602,0.027,0.886,0.081
		c0.283,0.054,0.502,0.111,0.655,0.172c0.46,0.169,0.828,0.445,1.104,0.828c0.276,0.384,0.483,0.828,0.621,1.334
		c0.138,0.506,0.222,1.051,0.253,1.633c0.03,0.583,0.038,1.15,0.023,1.702c-0.031,0.66-0.039,1.296-0.023,1.909
		C23.1,18.73,23.054,19.213,22.947,19.566z M20.394,16.277c0-0.536-0.004-1.001-0.012-1.392s-0.039-0.713-0.092-0.966
		c-0.054-0.253-0.142-0.438-0.265-0.552c-0.123-0.115-0.299-0.173-0.529-0.173c-0.368,0.016-0.602,0.089-0.702,0.219
		c-0.1,0.13-0.165,0.295-0.195,0.494c0,1.166-0.004,2.101-0.012,2.806c-0.008,0.706,0.008,1.25,0.046,1.634
		c0.038,0.383,0.115,0.64,0.23,0.771c0.115,0.13,0.295,0.195,0.541,0.195h0.092c0.26-0.016,0.452-0.111,0.575-0.288
		c0.123-0.176,0.207-0.405,0.253-0.689c0.046-0.283,0.069-0.602,0.069-0.955C20.394,17.028,20.394,16.661,20.394,16.277z"/>
	<path fill="#FFFFFF" d="M32.032,16.185c0,0.644-0.02,1.284-0.058,1.92c-0.039,0.637-0.138,1.22-0.299,1.748
		c-0.161,0.529-0.407,0.985-0.736,1.369c-0.33,0.383-0.786,0.651-1.368,0.805c-0.123,0.03-0.28,0.054-0.472,0.069
		c-0.192,0.015-0.395,0.022-0.609,0.022c-0.215,0-0.426-0.008-0.633-0.022c-0.207-0.016-0.372-0.039-0.494-0.069
		c-0.675-0.169-1.192-0.426-1.553-0.771s-0.617-0.755-0.771-1.23s-0.241-1.001-0.265-1.575c-0.023-0.575-0.042-1.185-0.057-1.829
		c-0.016-0.751-0.008-1.495,0.023-2.23c0.03-0.736,0.157-1.399,0.379-1.99c0.222-0.59,0.59-1.065,1.104-1.426
		c0.514-0.359,1.246-0.54,2.196-0.54c0.767,0,1.388,0.104,1.863,0.311c0.475,0.207,0.843,0.54,1.104,1
		c0.26,0.46,0.433,1.055,0.518,1.783C31.989,14.256,32.032,15.142,32.032,16.185z M27.478,13.838c0,1.013-0.008,1.863-0.023,2.554
		c-0.016,0.689-0.004,1.242,0.035,1.656c0.038,0.413,0.123,0.709,0.253,0.885c0.13,0.177,0.341,0.265,0.632,0.265
		c0.276,0,0.495-0.096,0.656-0.287c0.161-0.191,0.241-0.502,0.241-0.932v-3.657c0-0.521-0.081-0.858-0.241-1.012
		c-0.161-0.153-0.388-0.23-0.679-0.23c-0.337,0-0.563,0.073-0.678,0.219C27.558,13.444,27.493,13.625,27.478,13.838z"/>
	<path fill="#FFFFFF" d="M40.587,11.93c0,0.062-0.092,0.188-0.276,0.379c-0.184,0.192-0.399,0.396-0.644,0.609
		c-0.246,0.215-0.476,0.407-0.69,0.575c-0.215,0.169-0.36,0.253-0.437,0.253c-0.153,0-0.307-0.122-0.46-0.368
		c-0.077-0.122-0.177-0.245-0.299-0.367c-0.123-0.123-0.284-0.185-0.483-0.185c-0.429,0-0.659,0.199-0.69,0.599
		c0,0.199-0.004,0.536-0.011,1.012c-0.008,0.476-0.012,1.016-0.012,1.621c0,0.606,0,1.238,0,1.897c0,0.66,0,1.276,0,1.852
		s0,1.066,0,1.473s0,0.655,0,0.747h-2.806c0-0.107,0-0.191,0-0.253s-0.004-0.188-0.011-0.38c-0.008-0.191-0.012-0.494-0.012-0.908
		s0-1.031,0-1.852s0-1.882,0-3.186c0-1.303,0-2.944,0-4.922h2.737v0.621c0.26-0.215,0.563-0.387,0.908-0.518
		c0.345-0.13,0.686-0.195,1.023-0.195c0.184,0,0.36,0.02,0.529,0.058c0.168,0.038,0.322,0.104,0.46,0.195
		c0.123,0.077,0.249,0.173,0.379,0.287c0.13,0.115,0.256,0.23,0.379,0.346c0.123,0.114,0.222,0.226,0.299,0.333
		C40.549,11.761,40.587,11.853,40.587,11.93z"/>
	<path fill="#FFFFFF" d="M45.279,10.55c0.23,0,0.402,0.004,0.517,0.011c0.115,0.008,0.196,0.055,0.242,0.139
		s0.069,0.218,0.069,0.402c0,0.184,0,0.46,0,0.828v1.127c-0.015,0.107-0.057,0.176-0.126,0.207c-0.069,0.03-0.257,0.046-0.563,0.046
		h-0.759c0,1.38,0,2.453,0,3.22s0.003,1.342,0.011,1.725c0.008,0.384,0.023,0.629,0.046,0.736c0.023,0.107,0.057,0.185,0.104,0.23
		c0.046,0.076,0.199,0.114,0.46,0.114h0.115c0.077-0.015,0.146-0.022,0.207-0.022c0.061,0,0.115,0,0.161,0
		c0.184,0,0.288,0.08,0.311,0.241s0.034,0.525,0.034,1.093c0,0.353-0.004,0.625-0.011,0.816c-0.008,0.191-0.027,0.326-0.058,0.402
		c-0.031,0.077-0.088,0.123-0.172,0.138c-0.084,0.016-0.204,0.023-0.356,0.023c-0.292,0-0.598-0.008-0.92-0.023
		c-0.322-0.015-0.632-0.064-0.931-0.149c-0.299-0.084-0.575-0.214-0.828-0.391c-0.253-0.176-0.464-0.433-0.632-0.771
		c-0.23-0.46-0.342-1.334-0.333-2.622c0.007-1.288,0.019-2.875,0.034-4.761h-0.23H41.53c-0.169,0-0.295-0.012-0.38-0.035
		c-0.084-0.022-0.146-0.08-0.184-0.172c-0.039-0.092-0.062-0.241-0.069-0.448s-0.011-0.495-0.011-0.863
		c0-0.337,0.003-0.59,0.011-0.759c0.008-0.168,0.042-0.287,0.104-0.356c0.061-0.069,0.161-0.107,0.299-0.115
		c0.138-0.007,0.337-0.019,0.598-0.034c0-0.398-0.004-0.729-0.011-0.989c-0.008-0.261-0.008-0.468,0-0.621
		c0.007-0.152,0.03-0.256,0.069-0.311c0.038-0.053,0.096-0.08,0.172-0.08h1.196h0.598c0.215,0,0.372,0.008,0.472,0.023
		c0.1,0.015,0.168,0.061,0.207,0.138c0.038,0.077,0.058,0.188,0.058,0.333c0,0.146,0,0.35,0,0.609v0.897L45.279,10.55z"/>
	<path fill="#FFFFFF" d="M57.791,15.219h-1.265l-1.242,0.022v3.588c0.138,0,0.353,0,0.644,0s0.61,0,0.955,0
		c0.345,0,0.69,0.004,1.035,0.012c0.345,0.008,0.64,0.012,0.885,0.012v3.174h-6.785V5.582h6.785v3.174h-3.565v3.289h2.553V15.219z"
		/>
	<path fill="#FFFFFF" d="M65.197,26.212c-0.015-0.475-0.027-1.104-0.034-1.886c-0.008-0.782-0.012-1.587-0.012-2.415
		c-0.138,0.077-0.326,0.13-0.563,0.161c-0.238,0.03-0.441,0.046-0.609,0.046c-0.384,0-0.763-0.058-1.139-0.172
		c-0.376-0.115-0.721-0.284-1.035-0.507c-0.314-0.222-0.575-0.49-0.782-0.805s-0.333-0.671-0.379-1.069
		c-0.046-0.261-0.088-0.679-0.126-1.254c-0.039-0.574-0.062-1.203-0.069-1.886c-0.008-0.682,0-1.356,0.023-2.023
		s0.065-1.208,0.126-1.622c0.061-0.383,0.192-0.721,0.391-1.012s0.449-0.537,0.748-0.736s0.636-0.349,1.012-0.448
		c0.375-0.1,0.771-0.149,1.184-0.149c0.077,0,0.18,0.008,0.311,0.022c0.13,0.016,0.272,0.046,0.426,0.093
		c0.153,0.046,0.299,0.104,0.437,0.172c0.138,0.069,0.245,0.165,0.322,0.288v-0.483h2.507V26.19c-0.445,0-0.901,0-1.369,0
		C66.098,26.19,65.642,26.198,65.197,26.212z M65.105,18.278c0-0.076,0-0.237,0-0.483c0-0.245,0-0.524,0-0.839s0-0.647,0-1.001
		c0-0.353-0.004-0.686-0.012-1s-0.02-0.579-0.034-0.794c-0.016-0.214-0.031-0.345-0.046-0.391c-0.062-0.169-0.165-0.314-0.311-0.438
		c-0.146-0.122-0.31-0.184-0.494-0.184c-0.215,0-0.403,0.077-0.563,0.229c-0.161,0.154-0.265,0.338-0.311,0.553
		c0,1.027-0.012,1.886-0.035,2.576c-0.023,0.689-0.011,1.241,0.035,1.655s0.134,0.71,0.264,0.886
		c0.13,0.177,0.341,0.265,0.633,0.265c0.184,0,0.368-0.05,0.552-0.149S65.074,18.769,65.105,18.278z"/>
	<path fill="#FFFFFF" d="M74.465,21.75c-0.276,0.139-0.567,0.234-0.874,0.288s-0.583,0.08-0.828,0.08
		c-0.307,0-0.529-0.022-0.667-0.068c-0.721-0.199-1.254-0.507-1.599-0.921c-0.345-0.413-0.579-0.927-0.702-1.541
		c-0.123-0.612-0.176-1.314-0.161-2.104c0.015-0.789,0.023-1.651,0.023-2.587c0-0.276,0-0.621,0-1.035s0.003-0.836,0.011-1.265
		c0.008-0.43,0.012-0.832,0.012-1.208c0-0.375,0-0.663,0-0.862h2.714c0,1.35,0,2.457,0,3.323c0,0.867,0,1.576,0,2.128
		s0,0.993,0,1.322c0,0.33,0,0.633,0,0.908c0,0.399,0.084,0.675,0.253,0.828c0.168,0.153,0.445,0.23,0.828,0.23
		c0.322-0.046,0.544-0.177,0.667-0.392c0.015-0.046,0.026-0.1,0.035-0.16c0.007-0.062,0.015-0.185,0.023-0.368
		c0.007-0.185,0.011-0.449,0.011-0.794s0.004-0.824,0.012-1.438c0.007-0.613,0.015-1.372,0.023-2.277
		c0.007-0.904,0.011-2.008,0.011-3.312h2.783c0,1.825,0.003,3.669,0.012,5.531c0.007,1.863,0.011,3.853,0.011,5.969h-2.599V21.75z"
		/>
	<path fill="#FFFFFF" d="M81.665,9.883h-2.806c0-0.169,0-0.434,0-0.794s0.003-0.729,0.012-1.104
		c0.007-0.376,0.011-0.848,0.011-1.415h1.794h0.989V9.883z M78.904,22.027c0-0.107,0-0.456,0-1.047c0-0.59-0.004-1.299-0.011-2.127
		c-0.008-0.828-0.012-1.714-0.012-2.656c0-0.943,0-1.817,0-2.622c0-0.806,0.004-1.476,0.012-2.013
		c0.007-0.537,0.011-0.813,0.011-0.828c0.046-0.076,0.153-0.13,0.322-0.161c0.168-0.03,0.513-0.046,1.035-0.046
		c0.537,0,0.889,0.016,1.058,0.046c0.168,0.031,0.276,0.085,0.322,0.161c0,0.016,0.003,0.184,0.011,0.506s0.012,0.744,0.012,1.265
		c0,0.521,0,1.116,0,1.783s0,1.346,0,2.035c0,0.69,0,1.368,0,2.035s0,1.27,0,1.806c0,0.537,0,0.975,0,1.312s0,0.521,0,0.552H78.904z
		"/>
	<path fill="#FFFFFF" d="M90.611,19.566c-0.261,0.828-0.682,1.46-1.265,1.897c-0.583,0.437-1.334,0.655-2.254,0.655
		c-0.215,0-0.399-0.02-0.552-0.058c-0.153-0.038-0.269-0.072-0.345-0.104v4.255h-2.783c0-0.215,0-0.375,0-0.482s0-0.296,0-0.563
		c0-0.269,0-0.675,0-1.219c0-0.545,0-1.361,0-2.45c0-1.088-0.004-2.515-0.012-4.277c-0.008-1.764-0.011-3.994-0.011-6.693h2.438
		v0.368c0.168-0.169,0.379-0.284,0.632-0.345c0.253-0.062,0.51-0.093,0.771-0.093c0.307,0,0.602,0.027,0.886,0.081
		c0.283,0.054,0.502,0.111,0.655,0.172c0.46,0.169,0.828,0.445,1.104,0.828c0.276,0.384,0.483,0.828,0.621,1.334
		c0.138,0.506,0.222,1.051,0.253,1.633c0.03,0.583,0.038,1.15,0.023,1.702c-0.031,0.66-0.039,1.296-0.023,1.909
		C90.764,18.73,90.718,19.213,90.611,19.566z M88.058,16.277c0-0.536-0.004-1.001-0.012-1.392s-0.039-0.713-0.092-0.966
		c-0.054-0.253-0.142-0.438-0.265-0.552c-0.123-0.115-0.299-0.173-0.529-0.173c-0.368,0.016-0.602,0.089-0.702,0.219
		c-0.1,0.13-0.165,0.295-0.195,0.494c0,1.166-0.004,2.101-0.012,2.806c-0.008,0.706,0.008,1.25,0.046,1.634
		c0.038,0.383,0.115,0.64,0.23,0.771c0.115,0.13,0.295,0.195,0.541,0.195h0.092c0.26-0.016,0.452-0.111,0.575-0.288
		c0.123-0.176,0.207-0.405,0.253-0.689c0.046-0.283,0.069-0.602,0.069-0.955C88.058,17.028,88.058,16.661,88.058,16.277z"/>
	<path fill="#FFFFFF" d="M100.892,13.08c-0.199,0-0.414,0.05-0.644,0.149c-0.23,0.101-0.345,0.265-0.345,0.495
		c0,0.092,0,0.847,0,2.266c0,1.418-0.008,3.431-0.023,6.037h-2.714c0-0.076,0-0.322,0-0.736s-0.004-0.912-0.011-1.495
		c-0.008-0.582-0.012-1.211-0.012-1.886s-0.004-1.303-0.011-1.886c-0.008-0.583-0.012-1.081-0.012-1.495s0-0.659,0-0.736
		c-0.031-0.307-0.13-0.502-0.299-0.586c-0.169-0.084-0.391-0.127-0.667-0.127c-0.368,0-0.614,0.115-0.736,0.346
		c-0.015,0.046-0.031,0.084-0.046,0.114c-0.015,0.031-0.027,0.119-0.034,0.265c-0.008,0.146-0.012,0.384-0.012,0.713
		c0,0.33,0,0.806,0,1.426c0,0.621,0.003,1.423,0.012,2.404c0.007,0.981,0.019,2.208,0.034,3.68H92.52c0-0.122,0-0.211,0-0.265
		s-0.004-0.172-0.011-0.356c-0.008-0.184-0.012-0.479-0.012-0.886c0-0.405,0-1.016,0-1.828s0.004-1.878,0.012-3.197
		c0.007-1.318,0.011-2.975,0.011-4.968h0.828h1.771v0.736c0.061-0.123,0.157-0.234,0.288-0.334c0.13-0.1,0.276-0.184,0.437-0.253
		s0.322-0.126,0.483-0.173c0.161-0.046,0.311-0.068,0.449-0.068c0.353,0,0.647,0.046,0.885,0.138s0.433,0.195,0.586,0.311
		s0.268,0.223,0.345,0.322c0.076,0.1,0.123,0.157,0.138,0.172c0.292-0.353,0.644-0.598,1.058-0.735
		c0.414-0.139,0.843-0.207,1.288-0.207c0.981,0,1.778,0.269,2.392,0.805c0.613,0.537,0.95,1.258,1.012,2.162
		c0.015,0.169,0.027,0.452,0.035,0.851c0.007,0.399,0.012,0.863,0.012,1.392c0,0.529,0,1.101,0,1.714s0,1.211,0,1.794
		s0,1.127,0,1.633s0,0.92,0,1.242h-2.668c0-1.41-0.004-2.595-0.011-3.554c-0.008-0.958-0.016-1.744-0.023-2.357
		c-0.008-0.613-0.016-1.089-0.023-1.426c-0.008-0.337-0.023-0.59-0.046-0.759c-0.023-0.169-0.046-0.284-0.069-0.346
		c-0.023-0.061-0.058-0.122-0.104-0.184C101.444,13.187,101.214,13.08,100.892,13.08z"/>
	<path fill="#FFFFFF" d="M113.45,18.692c-0.016,0.476-0.123,0.92-0.322,1.334s-0.464,0.778-0.793,1.093s-0.713,0.56-1.15,0.735
		c-0.437,0.177-0.909,0.265-1.415,0.265c-0.169,0-0.341-0.008-0.518-0.022c-0.176-0.016-0.303-0.039-0.379-0.069
		c-0.644-0.138-1.15-0.38-1.518-0.725s-0.644-0.778-0.828-1.3c-0.184-0.521-0.299-1.104-0.345-1.748
		c-0.046-0.644-0.069-1.334-0.069-2.069c0-0.69,0.026-1.38,0.08-2.07c0.054-0.689,0.203-1.307,0.449-1.852
		c0.245-0.544,0.621-0.985,1.127-1.322s1.204-0.506,2.093-0.506c0.951,0,1.683,0.245,2.197,0.735
		c0.514,0.491,0.877,1.093,1.092,1.806s0.322,1.469,0.322,2.266c0,0.798-0.039,1.511-0.115,2.139h-4.508
		c0,0.2,0.003,0.414,0.011,0.645c0.008,0.229,0.046,0.445,0.115,0.644c0.069,0.2,0.172,0.361,0.311,0.483
		c0.138,0.123,0.345,0.184,0.621,0.184c0.26,0,0.444-0.092,0.552-0.275c0.107-0.185,0.184-0.383,0.23-0.599
		c0.031-0.138,0.054-0.241,0.069-0.311c0.015-0.068,0.065-0.118,0.149-0.149c0.084-0.03,0.207-0.049,0.368-0.057
		c0.161-0.008,0.403-0.012,0.725-0.012h0.575c0.23,0,0.406,0.008,0.529,0.022c0.123,0.016,0.21,0.05,0.265,0.104
		c0.054,0.054,0.084,0.131,0.092,0.23S113.465,18.523,113.45,18.692z M110.712,15.012c0-0.169-0.004-0.36-0.011-0.575
		c-0.008-0.215-0.035-0.426-0.081-0.633s-0.13-0.379-0.253-0.518c-0.123-0.138-0.314-0.207-0.575-0.207
		c-0.307,0-0.525,0.104-0.655,0.311c-0.13,0.207-0.219,0.603-0.265,1.185l-0.023,0.438H110.712z"/>
	<path fill="#FFFFFF" d="M119.889,22.027c0-0.122,0-0.387,0-0.794c0-0.405-0.004-0.893-0.011-1.46
		c-0.008-0.567-0.016-1.173-0.023-1.817c-0.008-0.644-0.016-1.261-0.023-1.852c-0.008-0.59-0.016-1.115-0.023-1.575
		c-0.008-0.46-0.012-0.782-0.012-0.966c0-0.199-0.069-0.38-0.207-0.541c-0.138-0.16-0.345-0.241-0.621-0.241
		c-0.199,0-0.387,0.054-0.563,0.161s-0.28,0.269-0.311,0.483c-0.015,0.153-0.027,0.475-0.034,0.966
		c-0.008,0.49-0.016,1.111-0.023,1.862c-0.008,0.752-0.008,1.618,0,2.6c0.007,0.981,0.011,2.039,0.011,3.174h-2.806
		c0-0.153-0.004-0.272-0.011-0.356c-0.008-0.084-0.012-0.23-0.012-0.438s-0.004-0.517-0.011-0.931
		c-0.008-0.414-0.012-1.023-0.012-1.829c0-0.805,0-1.848,0-3.128s0-2.887,0-4.818h2.553v0.437c0.168-0.184,0.41-0.321,0.724-0.413
		c0.314-0.093,0.633-0.139,0.955-0.139c0.23,0,0.437,0.023,0.621,0.069c0.537,0.107,0.962,0.272,1.276,0.494
		c0.314,0.223,0.56,0.468,0.736,0.736c0.176,0.269,0.295,0.548,0.356,0.84c0.061,0.291,0.107,0.567,0.138,0.827v8.648H119.889z"/>
	<path fill="#FFFFFF" d="M127.917,10.55c0.23,0,0.402,0.004,0.517,0.011c0.115,0.008,0.196,0.055,0.242,0.139
		s0.069,0.218,0.069,0.402c0,0.184,0,0.46,0,0.828v1.127c-0.015,0.107-0.057,0.176-0.126,0.207c-0.069,0.03-0.257,0.046-0.563,0.046
		h-0.759c0,1.38,0,2.453,0,3.22s0.003,1.342,0.011,1.725c0.008,0.384,0.023,0.629,0.046,0.736c0.023,0.107,0.057,0.185,0.104,0.23
		c0.046,0.076,0.199,0.114,0.46,0.114h0.115c0.077-0.015,0.146-0.022,0.207-0.022c0.061,0,0.115,0,0.161,0
		c0.184,0,0.288,0.08,0.311,0.241s0.034,0.525,0.034,1.093c0,0.353-0.004,0.625-0.011,0.816c-0.008,0.191-0.027,0.326-0.058,0.402
		c-0.031,0.077-0.088,0.123-0.172,0.138c-0.084,0.016-0.204,0.023-0.356,0.023c-0.292,0-0.598-0.008-0.92-0.023
		c-0.322-0.015-0.632-0.064-0.931-0.149c-0.299-0.084-0.575-0.214-0.828-0.391c-0.253-0.176-0.464-0.433-0.632-0.771
		c-0.23-0.46-0.342-1.334-0.333-2.622c0.007-1.288,0.019-2.875,0.034-4.761h-0.23h-0.138c-0.169,0-0.295-0.012-0.38-0.035
		c-0.084-0.022-0.146-0.08-0.184-0.172c-0.039-0.092-0.062-0.241-0.069-0.448s-0.011-0.495-0.011-0.863
		c0-0.337,0.003-0.59,0.011-0.759c0.008-0.168,0.042-0.287,0.104-0.356c0.061-0.069,0.161-0.107,0.299-0.115
		c0.138-0.007,0.337-0.019,0.598-0.034c0-0.398-0.004-0.729-0.011-0.989c-0.008-0.261-0.008-0.468,0-0.621
		c0.007-0.152,0.03-0.256,0.069-0.311c0.038-0.053,0.096-0.08,0.172-0.08h1.196h0.598c0.215,0,0.372,0.008,0.472,0.023
		c0.1,0.015,0.168,0.061,0.207,0.138c0.038,0.077,0.058,0.188,0.058,0.333c0,0.146,0,0.35,0,0.609v0.897L127.917,10.55z"/>
</g>
<g>
	<path fill="#FFFFFF" d="M49.88,33.182c0,0.245-0.012,0.521-0.035,0.828s-0.077,0.609-0.161,0.908
		c-0.084,0.299-0.204,0.587-0.357,0.862c-0.153,0.276-0.36,0.507-0.621,0.69c0.46,0.077,0.805,0.326,1.035,0.747
		c0.23,0.423,0.387,0.909,0.472,1.461c0.084,0.552,0.111,1.123,0.081,1.714c-0.031,0.59-0.084,1.1-0.161,1.529
		c-0.153,0.613-0.395,1.101-0.725,1.46c-0.33,0.361-0.74,0.637-1.23,0.828c-0.491,0.192-1.054,0.318-1.69,0.38
		c-0.636,0.061-1.338,0.092-2.104,0.092c-0.445,0-0.901-0.008-1.369-0.022c-0.468-0.016-0.962-0.023-1.483-0.023V28.191
		c0.889,0.016,1.717,0.02,2.484,0.012s1.464,0.02,2.093,0.081c0.628,0.061,1.185,0.172,1.667,0.333s0.885,0.426,1.208,0.794
		c0.322,0.367,0.56,0.854,0.713,1.46C49.849,31.477,49.91,32.248,49.88,33.182z M44.751,41.646c0.26-0.015,0.521-0.03,0.782-0.046
		c0.261-0.015,0.498-0.069,0.713-0.161s0.395-0.249,0.541-0.472c0.146-0.222,0.234-0.548,0.265-0.978
		c0.046-0.582,0.008-1.038-0.115-1.368c-0.123-0.329-0.288-0.578-0.495-0.747s-0.43-0.276-0.667-0.322
		c-0.238-0.046-0.457-0.069-0.656-0.069h-0.368V41.646z M46.66,33.228c0-0.414-0.019-0.751-0.057-1.012
		c-0.039-0.261-0.112-0.468-0.219-0.621c-0.107-0.153-0.261-0.257-0.46-0.311s-0.453-0.088-0.759-0.104h-0.391v4.094
		c0.061,0,0.13,0.004,0.207,0.012c0.077,0.008,0.168,0.012,0.276,0.012c0.353,0,0.621-0.054,0.805-0.161
		c0.184-0.107,0.322-0.253,0.414-0.437c0.092-0.185,0.146-0.403,0.161-0.656S46.66,33.52,46.66,33.228z"/>
	<path fill="#FFFFFF" d="M58.666,34.54c0,0.062-0.092,0.188-0.276,0.379c-0.184,0.192-0.399,0.396-0.644,0.609
		c-0.246,0.215-0.476,0.407-0.69,0.575c-0.215,0.169-0.36,0.253-0.437,0.253c-0.153,0-0.307-0.122-0.46-0.368
		c-0.077-0.122-0.177-0.245-0.299-0.367c-0.123-0.123-0.284-0.185-0.483-0.185c-0.429,0-0.659,0.199-0.69,0.599
		c0,0.199-0.004,0.536-0.011,1.012c-0.008,0.476-0.012,1.016-0.012,1.621c0,0.606,0,1.238,0,1.897c0,0.66,0,1.276,0,1.852
		s0,1.066,0,1.473s0,0.655,0,0.747h-2.806c0-0.107,0-0.191,0-0.253s-0.004-0.188-0.011-0.38c-0.008-0.191-0.012-0.494-0.012-0.908
		s0-1.031,0-1.852s0-1.882,0-3.186c0-1.303,0-2.944,0-4.922h2.737v0.621c0.26-0.215,0.563-0.387,0.908-0.518
		c0.345-0.13,0.686-0.195,1.023-0.195c0.184,0,0.36,0.02,0.529,0.058c0.168,0.038,0.322,0.104,0.46,0.195
		c0.123,0.077,0.249,0.173,0.379,0.287c0.13,0.115,0.256,0.23,0.379,0.346c0.123,0.114,0.222,0.226,0.299,0.333
		C58.627,34.371,58.666,34.462,58.666,34.54z"/>
	<path fill="#FFFFFF" d="M63.956,44.176c-0.276,0.245-0.594,0.398-0.955,0.46s-0.694,0.092-1,0.092c-0.429,0-0.878-0.1-1.345-0.299
		c-0.468-0.199-0.839-0.468-1.116-0.805c-0.429-0.537-0.686-1.104-0.771-1.702s-0.054-1.169,0.092-1.714
		c0.146-0.544,0.387-1.035,0.725-1.472c0.337-0.438,0.705-0.755,1.104-0.954c0.276-0.139,0.559-0.23,0.851-0.276
		s0.567-0.069,0.828-0.069c0.353,0,0.644,0.023,0.874,0.069c0.123,0.016,0.238,0.038,0.345,0.069
		c-0.016-0.153-0.031-0.322-0.046-0.507c-0.015-0.184-0.05-0.359-0.104-0.528s-0.142-0.311-0.264-0.426
		c-0.123-0.115-0.299-0.173-0.529-0.173c-0.261,0-0.445,0.058-0.552,0.173c-0.107,0.115-0.223,0.364-0.345,0.747
		c-0.031,0.093-0.062,0.161-0.092,0.207c-0.031,0.046-0.092,0.081-0.184,0.104c-0.092,0.023-0.223,0.039-0.391,0.046
		c-0.169,0.009-0.406,0.012-0.713,0.012c-0.537,0-0.882-0.012-1.035-0.034c-0.153-0.023-0.253-0.088-0.299-0.195
		c-0.031-0.062-0.046-0.161-0.046-0.299c0-0.139,0.015-0.288,0.046-0.449s0.069-0.329,0.115-0.506
		c0.046-0.176,0.099-0.341,0.161-0.494c0.276-0.736,0.717-1.288,1.323-1.656c0.605-0.368,1.299-0.552,2.082-0.552
		c0.966,0,1.755,0.241,2.369,0.725c0.613,0.482,1.004,1.207,1.173,2.173c0.015,0.062,0.026,0.139,0.034,0.23
		s0.012,0.241,0.012,0.448s0.003,0.499,0.011,0.874c0.008,0.376,0.012,0.874,0.012,1.495s0,1.392,0,2.312s0,2.032,0,3.335h-2.369
		V44.176z M62.208,42.129c0.077,0.03,0.192,0.046,0.345,0.046c0.261,0,0.491-0.088,0.69-0.265c0.199-0.176,0.307-0.44,0.322-0.793
		c0.015-0.353-0.073-0.633-0.265-0.84c-0.192-0.207-0.457-0.318-0.793-0.334c-0.261-0.015-0.483,0.069-0.667,0.253
		c-0.184,0.185-0.307,0.399-0.368,0.645c-0.062,0.245-0.039,0.491,0.069,0.736S61.87,42.006,62.208,42.129z"/>
	<path fill="#FFFFFF" d="M72.856,44.636c0-0.122,0-0.387,0-0.794c0-0.405-0.004-0.893-0.011-1.46
		c-0.008-0.567-0.016-1.173-0.023-1.817c-0.008-0.644-0.016-1.261-0.023-1.852c-0.008-0.59-0.016-1.115-0.023-1.575
		c-0.008-0.46-0.012-0.782-0.012-0.966c0-0.199-0.069-0.38-0.207-0.541c-0.138-0.16-0.345-0.241-0.621-0.241
		c-0.199,0-0.387,0.054-0.563,0.161s-0.28,0.269-0.311,0.483c-0.015,0.153-0.027,0.475-0.034,0.966
		c-0.008,0.49-0.016,1.111-0.023,1.862c-0.008,0.752-0.008,1.618,0,2.6c0.007,0.981,0.011,2.039,0.011,3.174H68.21
		c0-0.153-0.004-0.272-0.011-0.356c-0.008-0.084-0.012-0.23-0.012-0.438s-0.004-0.517-0.011-0.931
		c-0.008-0.414-0.012-1.023-0.012-1.829c0-0.805,0-1.848,0-3.128s0-2.887,0-4.818h2.553v0.437c0.168-0.184,0.41-0.321,0.724-0.413
		c0.314-0.093,0.633-0.139,0.955-0.139c0.23,0,0.437,0.023,0.621,0.069c0.537,0.107,0.962,0.272,1.276,0.494
		c0.314,0.223,0.56,0.468,0.736,0.736c0.176,0.269,0.295,0.548,0.356,0.84c0.061,0.291,0.107,0.567,0.138,0.827v8.648H72.856z"/>
	<path fill="#FFFFFF" d="M81.758,33.343c0.015-0.368,0.023-0.693,0.023-0.978c0-0.283,0-0.602,0-0.954s0-0.694,0-1.023
		c0-0.33,0-0.633,0-0.909c0-0.275,0-0.475,0-0.598c0.444,0,0.889-0.004,1.334-0.012c0.444-0.008,0.912-0.012,1.403-0.012
		c0,0.062,0.003,0.338,0.012,0.828c0.007,0.491,0.011,1.108,0.011,1.852c0,0.744,0,1.584,0,2.519c0,0.936,0,1.89,0,2.863
		c0,0.975,0,1.921,0,2.841s0,1.74,0,2.461s0,1.3,0,1.736c0,0.438,0,0.664,0,0.679h-2.415v-0.483
		c-0.062,0.077-0.161,0.149-0.299,0.219c-0.138,0.069-0.292,0.131-0.46,0.185c-0.169,0.054-0.349,0.095-0.541,0.126
		c-0.192,0.03-0.372,0.046-0.541,0.046c-0.153,0-0.269-0.008-0.345-0.022c-0.659-0.107-1.169-0.338-1.529-0.69
		c-0.36-0.353-0.629-0.778-0.805-1.276s-0.284-1.054-0.322-1.668c-0.039-0.612-0.058-1.227-0.058-1.84
		c-0.016-0.689,0.003-1.38,0.058-2.069c0.053-0.69,0.176-1.323,0.368-1.897c0.192-0.575,0.475-1.063,0.851-1.461
		c0.375-0.398,0.878-0.636,1.507-0.713c0.107-0.016,0.214-0.026,0.322-0.034c0.107-0.008,0.214-0.012,0.322-0.012
		c0.245,0,0.463,0.022,0.655,0.068C81.5,33.16,81.65,33.236,81.758,33.343z M80.93,35.735c-0.292,0-0.506,0.077-0.644,0.23
		s-0.23,0.434-0.276,0.84c-0.046,0.406-0.062,0.954-0.046,1.645c0.015,0.689,0.023,1.571,0.023,2.645
		c0,0.23,0.065,0.414,0.195,0.552c0.13,0.139,0.349,0.207,0.655,0.207c0.245,0,0.429-0.05,0.552-0.149
		c0.123-0.1,0.21-0.271,0.265-0.518c0.053-0.245,0.084-0.586,0.092-1.023c0.007-0.437,0.012-0.985,0.012-1.645
		c0-0.644-0.008-1.181-0.023-1.609c-0.015-0.43-0.046-0.69-0.092-0.782C81.52,35.866,81.282,35.735,80.93,35.735z"/>
	<path fill="#FFFFFF" d="M91.716,36.609h-0.322c-0.261,0-0.46-0.003-0.598-0.011c-0.138-0.008-0.241-0.027-0.311-0.058
		c-0.069-0.031-0.123-0.077-0.161-0.139c-0.038-0.061-0.08-0.146-0.126-0.253c-0.077-0.168-0.168-0.287-0.276-0.356
		c-0.107-0.068-0.261-0.104-0.46-0.104c-0.246,0-0.453,0.077-0.621,0.23c-0.169,0.153-0.253,0.376-0.253,0.667
		c0,0.275,0.061,0.472,0.184,0.586c0.123,0.115,0.288,0.192,0.495,0.23s0.44,0.062,0.701,0.069s0.521,0.05,0.782,0.126
		c0.583,0.138,1.054,0.388,1.415,0.748c0.36,0.36,0.625,0.778,0.793,1.253c0.168,0.476,0.241,0.978,0.218,1.507
		c-0.023,0.528-0.134,1.031-0.333,1.506c-0.199,0.476-0.487,0.894-0.862,1.254c-0.376,0.36-0.832,0.609-1.369,0.747
		c-0.307,0.077-0.69,0.115-1.15,0.115c-0.184,0-0.368-0.008-0.552-0.022c-0.184-0.016-0.353-0.046-0.506-0.093
		c-0.506-0.138-0.935-0.379-1.288-0.724c-0.353-0.346-0.629-0.705-0.828-1.081c-0.2-0.376-0.322-0.725-0.368-1.047
		s-0.023-0.529,0.069-0.621l0.115-0.115c0.659,0.016,1.223,0.023,1.69,0.023s0.725,0.016,0.771,0.046
		c0.107,0.107,0.184,0.234,0.23,0.38s0.161,0.272,0.345,0.379c0.107,0.062,0.237,0.092,0.391,0.092s0.303-0.042,0.449-0.126
		c0.146-0.084,0.256-0.211,0.333-0.38c0.077-0.122,0.115-0.275,0.115-0.46c0-0.184-0.038-0.329-0.115-0.437
		c-0.153-0.185-0.349-0.291-0.586-0.322c-0.238-0.03-0.514-0.062-0.828-0.092c-0.314-0.03-0.652-0.104-1.012-0.219
		s-0.732-0.364-1.115-0.747c-0.353-0.353-0.602-0.713-0.748-1.081c-0.146-0.368-0.218-0.828-0.218-1.38
		c0-0.567,0.092-1.085,0.276-1.553s0.44-0.866,0.771-1.196c0.33-0.329,0.72-0.586,1.173-0.771c0.452-0.184,0.955-0.276,1.506-0.276
		c0.874,0,1.622,0.246,2.243,0.736c0.621,0.491,1.039,1.166,1.253,2.024c0.123,0.429,0.134,0.693,0.035,0.793
		c-0.1,0.101-0.303,0.149-0.609,0.149H91.716z"/>
</g>
<rect x="1.118" y="49.659" fill="#FFFFFF" width="132" height="103.64"/>
<g>
	<polyline fill="none" stroke="#010101" stroke-width="2" stroke-miterlimit="10" points="1.118,49.658 1.118,153.299 
		133.118,153.299 133.118,49.658 	"/>
</g>
<g>
	<path fill-rule="evenodd" clip-rule="evenodd" fill="#010101" d="M127.992,79.396v15.892c-0.002,1.327-0.811,2.185-2.134,2.247
		c-3.139,0.151-6.281,0.04-9.424,0.062c-1.48,0.011-2.962-0.08-4.441-0.049c-5.865,0.124-11.726,0.016-17.59,0.054h-0.34
		c-1.775-0.012-2.619-0.861-2.619-2.625c0-10.513,0.017-21.026-0.023-31.539c-0.005-1.254,1.051-2.434,2.395-2.407
		c3.644,0.071,7.288,0.053,10.933,0.013c1.633-0.019,3.268-0.031,4.896-0.017c3.285,0.031,6.574,0,9.861,0.025
		c2.087,0.017,4.174,0,6.259,0.006c1.384,0.002,2.227,0.858,2.227,2.254c0.003,5.362,0.002,10.724,0.002,16.085H127.992z
		 M99.281,72.403c-1.049,1.282-2.021,3.799-2.189,5.812c-0.347,4.138,0.955,7.673,3.94,10.58c0.252,0.243,0.384,0.262,0.651,0.01
		c1.291-1.212,2.774-2.129,4.474-2.641c4.263-1.28,8.014-0.276,11.291,2.65c0.367,0.327,0.544,0.335,0.9-0.007
		c3.943-3.791,5.09-9.346,2.933-14.36c-0.341-0.795-0.753-1.553-1.3-2.243c-2.491,3.703-5.729,6.137-10.321,6.175
		C105.075,78.417,101.792,76.049,99.281,72.403 M109.645,66.88c-3.149,0.047-5.929,1.093-8.328,3.164
		c-0.261,0.224-0.297,0.386-0.113,0.678c0.872,1.381,1.909,2.583,3.27,3.527c0.987,0.684,2.056,1.222,3.188,1.454
		c1.316,0.27,2.699,0.277,4.034-0.082c2.815-0.759,4.805-2.552,6.292-4.993c0.226-0.374,0.131-0.543-0.157-0.783
		C115.456,67.887,112.731,66.913,109.645,66.88 M115.743,90.696c-3.379-3.438-9.001-3.311-12.256-0.092
		C107.566,92.728,111.629,92.742,115.743,90.696"/>
	<path fill-rule="evenodd" clip-rule="evenodd" fill="#010101" d="M28.002,102.087H43.94c1.475,0,2.377,0.893,2.377,2.35
		c0,8.503-0.001,17.005-0.001,25.507c0,2.021,0.011,4.044-0.002,6.065c-0.003,0.563-0.037,1.129-0.371,1.632
		c-0.427,0.647-1.026,0.978-1.789,0.989c-1.116,0.016-2.235,0.004-3.352,0.004c-9.491,0.004-18.982,0.005-28.474,0.005
		c-1.777-0.001-2.625-0.836-2.618-2.623c0.011-2.445,0.037-4.893,0.02-7.334c-0.036-5.087,0.003-10.172-0.025-15.256
		c-0.014-2.736-0.003-5.476,0.005-8.213c0.001-0.45,0.023-0.908,0.08-1.355c0.131-1.025,1.038-1.765,2.18-1.765
		c3.546-0.009,7.091-0.002,10.639-0.002h5.393V102.087z M26.192,126.174c-0.006,0.119-0.084,0.152-0.15,0.197
		c-0.361,0.256-0.908,0.248-1.237-0.09c-0.27-0.275-0.454-0.289-0.666,0.026c-0.259,0.378-0.519,0.417-0.793,0.008
		c-0.176-0.265-0.332-0.251-0.56-0.011c-0.564,0.599-1.154,1.177-1.75,1.744c-0.179,0.172-0.155,0.27,0.008,0.424
		c0.353,0.33,0.71,0.659,1.035,1.02c1.086,1.217,2.162,2.442,3.235,3.673c0.159,0.183,0.289,0.232,0.537,0.159
		c1.275-0.378,2.514-0.846,3.709-1.425c5.82-2.824,9.471-7.458,11.333-13.587c0.076-0.257,0.052-0.399-0.158-0.577
		c-1.622-1.355-3.197-2.764-4.689-4.262c-0.164-0.164-0.242-0.187-0.413-0.01c-0.538,0.561-1.077,1.121-1.657,1.637
		c-0.352,0.313-0.321,0.527,0.021,0.783c0.193,0.146,0.313,0.27,0.059,0.516c-0.51,0.491-0.492,0.508,0.026,1.022
		c0.025,0.023,0.049,0.044,0.068,0.07c0.106,0.153,0.398,0.225,0.322,0.433c-0.08,0.225-0.361,0.253-0.58,0.297
		c-0.251,0.05-0.532-0.008-0.682-0.18c-0.397-0.445-0.657-0.227-0.93,0.115c-0.07,0.087-0.158,0.161-0.237,0.242
		c-0.577,0.588-0.573,0.584,0.027,1.169c0.129,0.128,0.414,0.228,0.328,0.428c-0.106,0.246-0.404,0.307-0.666,0.312
		c-0.229,0.004-0.49-0.032-0.633-0.2c-0.355-0.425-0.601-0.234-0.858,0.088c-0.071,0.088-0.157,0.163-0.238,0.243
		c-0.61,0.614-0.608,0.612-0.007,1.21c0.132,0.129,0.402,0.257,0.334,0.428c-0.086,0.229-0.385,0.275-0.623,0.313
		c-0.249,0.038-0.524-0.034-0.675-0.207c-0.366-0.425-0.607-0.206-0.869,0.092c-0.084,0.097-0.177,0.188-0.269,0.282
		c-0.579,0.583-0.577,0.58,0.015,1.175c0.132,0.133,0.407,0.239,0.331,0.43c-0.09,0.23-0.383,0.265-0.621,0.298
		c-0.198,0.028-0.436,0-0.553-0.136c-0.512-0.596-0.819-0.17-1.152,0.197c-0.141,0.155-0.283,0.314-0.444,0.447
		c-0.195,0.163-0.207,0.289-0.006,0.462c0.208,0.176,0.392,0.384,0.585,0.577C26.104,126.065,26.152,126.125,26.192,126.174
		 M14.952,122.48c-0.053,0.277,0.01,0.368,0.142,0.476c1.619,1.344,3.18,2.753,4.667,4.241c0.237,0.237,0.34,0.209,0.551-0.014
		c0.508-0.544,1.035-1.075,1.587-1.574c0.336-0.3,0.342-0.514-0.025-0.77c-0.198-0.137-0.317-0.27-0.062-0.518
		c0.504-0.488,0.486-0.506-0.019-1.021c-0.023-0.022-0.046-0.046-0.065-0.071c-0.109-0.162-0.42-0.248-0.313-0.474
		c0.096-0.198,0.376-0.223,0.605-0.25c0.237-0.026,0.495,0.012,0.637,0.175c0.428,0.482,0.687,0.178,0.964-0.154
		c0.051-0.062,0.113-0.113,0.171-0.171c0.593-0.6,0.585-0.593,0.011-1.208c-0.126-0.134-0.441-0.228-0.303-0.476
		c0.122-0.214,0.409-0.252,0.651-0.254c0.193,0,0.425,0.007,0.548,0.157c0.415,0.503,0.705,0.242,0.999-0.122
		c0.06-0.075,0.134-0.139,0.203-0.21c0.567-0.563,0.562-0.56,0.006-1.137c-0.138-0.145-0.429-0.288-0.35-0.466
		c0.115-0.261,0.443-0.298,0.724-0.302c0.18-0.001,0.383,0.035,0.493,0.168c0.42,0.508,0.71,0.221,1.005-0.133
		c0.052-0.061,0.114-0.114,0.171-0.171c0.616-0.607,0.612-0.605,0.004-1.212c-0.131-0.13-0.396-0.257-0.33-0.431
		c0.09-0.23,0.378-0.269,0.627-0.283c0.233-0.013,0.489,0,0.639,0.171c0.386,0.442,0.652,0.257,0.922-0.114
		c0.066-0.092,0.161-0.16,0.241-0.238c0.572-0.568,0.565-0.562,0.015-1.142c-0.139-0.146-0.456-0.262-0.331-0.506
		c0.123-0.237,0.438-0.241,0.701-0.239c0.253,0,0.494,0.064,0.657,0.264c0.244,0.294,0.44,0.227,0.627-0.049
		c0.282-0.418,0.558-0.375,0.827,0.007c0.182,0.262,0.323,0.205,0.524-0.006c0.546-0.571,1.108-1.133,1.685-1.677
		c0.231-0.217,0.221-0.342-0.002-0.563c-1.241-1.254-2.436-2.55-3.583-3.891c-0.848-0.986-0.854-1.003-2.084-0.587
		c-6.658,2.253-11.208,6.682-13.638,13.277C15.254,121.516,15.092,122.057,14.952,122.48 M22.688,134.027
		c-0.047-0.085-0.066-0.148-0.107-0.193c-1.061-1.196-2.137-2.38-3.251-3.528c-0.202-0.206-0.316-0.238-0.531-0.018
		c-0.984,1.007-1.975,2.004-2.983,2.984c-0.296,0.289-0.148,0.373,0.12,0.488c0.753,0.323,1.553,0.44,2.355,0.495
		C19.746,134.359,21.198,134.293,22.688,134.027 M41.619,115.176c0.308-2.491,0.483-4.859-0.469-7.31
		c-1.193,1.219-2.286,2.339-3.384,3.453c-0.123,0.123-0.106,0.213,0.005,0.324C38.995,112.836,40.235,114.013,41.619,115.176
		 M14.763,132.739c1.084-1.086,2.137-2.155,3.206-3.207c0.24-0.233,0.244-0.38-0.002-0.603c-0.754-0.684-1.485-1.39-2.235-2.076
		c-0.463-0.422-0.943-0.822-1.439-1.252C13.828,127.869,13.834,131.345,14.763,132.739 M33.101,106.67
		c1.197,1.379,2.333,2.616,3.509,3.817c0.138,0.142,0.221,0.187,0.383,0.025c1.099-1.097,2.207-2.183,3.394-3.351
		C37.976,106.106,35.601,106.411,33.101,106.67"/>
	<path fill-rule="evenodd" clip-rule="evenodd" fill="#010101" d="M127.992,120.368c0,5.297-0.025,10.592,0.018,15.89
		c0.01,1.268-0.95,2.396-2.401,2.392c-10.576-0.027-21.154-0.015-31.731-0.015c-1.587,0-2.434-0.84-2.434-2.433
		c-0.001-9.946,0-19.892,0-29.836c0-0.664-0.006-1.328,0-1.992c0.013-1.368,0.925-2.28,2.301-2.282
		c4.665-0.007,9.328-0.003,13.994-0.003c5.977,0,11.953-0.001,17.93,0c1.089,0,1.795,0.472,2.209,1.433
		c0.12,0.279,0.114,0.567,0.114,0.858V120.368z M123.192,121.102c-0.043-7.646-6.129-13.667-13.834-13.572
		c-7.404,0.09-13.291,6.073-13.336,13.511c-0.046,7.339,5.889,14.054,14.484,13.589
		C117.557,134.249,123.127,128.415,123.192,121.102"/>
	<path fill-rule="evenodd" clip-rule="evenodd" fill="#010101" d="M87.156,79.255c0,5.266-0.029,10.529,0.019,15.793
		c0.011,1.319-0.751,2.583-2.499,2.554c-0.129-0.003-0.258,0-0.388,0c-9.2,0-18.402,0.002-27.601-0.005
		c-1.271,0-2.542-0.042-3.813-0.06c-1.424-0.017-2.269-0.881-2.269-2.327v-8.94c0-7.628,0-15.257,0-22.886
		c0-1.466,0.85-2.326,2.31-2.33c2.674-0.004,5.346-0.001,8.019,0c4.987,0,9.973,0.016,14.959-0.009
		c1.616-0.009,3.235-0.002,4.85-0.017c1.487-0.017,2.978-0.021,4.466,0.035c1.065,0.039,1.938,0.986,1.942,2.106
		c0.01,2.624,0.005,5.248,0.005,7.872V79.255z M68.717,65.757c-7.66-0.003-13.993,6.311-14.014,13.956
		c-0.02,7.892,6.377,14.118,14.045,14.118c7.684,0,14.016-6.276,14.031-13.929C82.792,72.079,76.511,65.761,68.717,65.757"/>
	<path fill-rule="evenodd" clip-rule="evenodd" fill="#010101" d="M68.885,138.634c-5.264,0-10.529,0.003-15.793,0
		c-1.65,0-2.486-0.835-2.486-2.479v-31.63c0-1.578,0.854-2.438,2.427-2.438c7.565-0.004,15.129-0.007,22.694-0.007
		c2.995,0,5.992,0.003,8.988,0.007c1.582,0.003,2.437,0.847,2.437,2.434c0.006,10.61,0.006,21.218,0.004,31.829
		c-0.001,1.383-0.911,2.283-2.285,2.283C79.543,138.637,74.213,138.637,68.885,138.634 M54.937,120.548
		c-0.03,7.767,6.361,14.229,14.351,14.101c7.637-0.126,13.819-6.454,13.827-14.067c0.009-7.748-6.285-14.102-14.008-14.115
		C61.245,106.455,54.941,112.722,54.937,120.548"/>
	<path fill-rule="evenodd" clip-rule="evenodd" fill="#010101" d="M28.797,97.601c-6.202,0-11.321,0.002-16.438-0.002
		c-0.739,0-1.453-0.082-1.993-0.694C9.999,96.488,9.77,96.04,9.77,95.468c0.006-3.336-0.004-6.674-0.005-10.011
		c-0.001-4.937-0.001-9.873,0-14.812c0.001-2.46,0.051-4.92-0.015-7.377c-0.029-1.171,1.056-2.283,2.288-2.233
		c1.86,0.073,3.725,0.043,5.587,0.013c1.616-0.027,3.235-0.039,4.848-0.023c2.995,0.033,5.991,0.012,8.986,0.025
		c4.128,0.018,8.256,0.045,12.382-0.018c1.455-0.021,2.495,0.958,2.484,2.463c-0.019,2.655-0.007,5.312-0.005,7.969
		c0.001,1.116,0.016,2.234,0.014,3.352c-0.003,6.783-0.013,13.566-0.011,20.347c0,1.303-0.785,2.344-2.19,2.38
		C38.659,97.686,33.186,97.539,28.797,97.601 M42.279,79.246c-0.089-8.002-6.465-14.289-14.41-14.206
		c-7.915,0.084-14.194,6.52-14.108,14.456c0.088,7.885,6.535,14.131,14.509,14.058C36.02,93.481,42.368,87.001,42.279,79.246"/>
	<path fill-rule="evenodd" clip-rule="evenodd" fill="#FFFFFF" d="M99.281,72.403c2.511,3.646,5.794,6.015,10.379,5.976
		c4.592-0.038,7.829-2.472,10.321-6.175c0.547,0.69,0.959,1.448,1.3,2.243c2.157,5.015,1.01,10.569-2.933,14.36
		c-0.357,0.342-0.533,0.334-0.9,0.007c-3.277-2.927-7.028-3.932-11.291-2.65c-1.7,0.512-3.183,1.428-4.474,2.641
		c-0.267,0.252-0.4,0.233-0.652-0.01c-2.984-2.907-4.286-6.442-3.939-10.58C97.26,76.202,98.232,73.685,99.281,72.403"/>
	<path fill-rule="evenodd" clip-rule="evenodd" fill="#FFFFFF" d="M109.645,66.879c3.086,0.032,5.812,1.009,8.186,2.967
		c0.289,0.238,0.383,0.407,0.157,0.781c-1.487,2.442-3.477,4.235-6.292,4.993c-1.335,0.361-2.718,0.354-4.034,0.082
		c-1.132-0.23-2.201-0.769-3.188-1.454c-1.361-0.942-2.398-2.145-3.27-3.525c-0.184-0.292-0.147-0.454,0.113-0.68
		C103.716,67.974,106.496,66.928,109.645,66.879"/>
	<path fill-rule="evenodd" clip-rule="evenodd" fill="#FFFFFF" d="M115.743,90.696c-4.114,2.046-8.177,2.032-12.256-0.092
		C106.742,87.385,112.364,87.258,115.743,90.696"/>
	<path fill-rule="evenodd" clip-rule="evenodd" fill="#FFFFFF" d="M26.192,126.174c-0.04-0.049-0.088-0.109-0.143-0.167
		c-0.193-0.193-0.377-0.401-0.586-0.578c-0.201-0.172-0.188-0.298,0.007-0.461c0.161-0.133,0.303-0.292,0.444-0.447
		c0.333-0.367,0.639-0.793,1.152-0.197c0.117,0.136,0.355,0.164,0.553,0.136c0.238-0.033,0.531-0.067,0.621-0.298
		c0.076-0.191-0.199-0.297-0.331-0.43c-0.592-0.596-0.594-0.593-0.015-1.176c0.091-0.093,0.184-0.185,0.269-0.281
		c0.261-0.298,0.503-0.517,0.868-0.092c0.151,0.173,0.427,0.244,0.676,0.206c0.238-0.037,0.537-0.085,0.623-0.313
		c0.068-0.171-0.202-0.298-0.335-0.428c-0.6-0.598-0.603-0.597,0.008-1.21c0.081-0.08,0.167-0.155,0.238-0.243
		c0.257-0.322,0.502-0.513,0.858-0.088c0.142,0.169,0.404,0.204,0.633,0.2c0.262-0.006,0.56-0.065,0.666-0.312
		c0.086-0.2-0.199-0.3-0.329-0.427c-0.6-0.586-0.604-0.582-0.026-1.169c0.079-0.081,0.167-0.156,0.237-0.243
		c0.272-0.342,0.533-0.562,0.93-0.115c0.15,0.172,0.431,0.229,0.682,0.179c0.218-0.044,0.499-0.071,0.579-0.296
		c0.076-0.208-0.216-0.279-0.321-0.433c-0.02-0.026-0.043-0.047-0.068-0.07c-0.518-0.515-0.536-0.531-0.027-1.021
		c0.255-0.247,0.135-0.37-0.058-0.517c-0.343-0.256-0.373-0.471-0.022-0.783c0.58-0.516,1.12-1.075,1.657-1.637
		c0.172-0.177,0.249-0.154,0.414,0.01c1.492,1.497,3.067,2.906,4.689,4.263c0.21,0.177,0.233,0.318,0.157,0.576
		c-1.861,6.129-5.512,10.763-11.332,13.587c-1.195,0.579-2.434,1.047-3.709,1.425c-0.248,0.073-0.378,0.022-0.537-0.159
		c-1.074-1.23-2.149-2.456-3.236-3.673c-0.324-0.36-0.681-0.69-1.034-1.021c-0.164-0.152-0.187-0.252-0.008-0.423
		c0.595-0.567,1.185-1.146,1.75-1.745c0.227-0.239,0.384-0.253,0.559,0.012c0.274,0.409,0.534,0.37,0.793-0.008
		c0.212-0.315,0.397-0.302,0.667-0.026c0.329,0.338,0.876,0.346,1.237,0.09C26.108,126.327,26.187,126.293,26.192,126.174"/>
	<path fill-rule="evenodd" clip-rule="evenodd" fill="#FFFFFF" d="M14.952,122.479c0.14-0.423,0.302-0.964,0.499-1.495
		c2.43-6.597,6.98-11.024,13.638-13.276c1.23-0.416,1.236-0.401,2.084,0.586c1.147,1.341,2.342,2.636,3.583,3.89
		c0.223,0.224,0.233,0.349,0.002,0.565c-0.577,0.543-1.139,1.104-1.685,1.676c-0.201,0.211-0.342,0.267-0.524,0.005
		c-0.269-0.381-0.545-0.424-0.827-0.006c-0.187,0.276-0.383,0.342-0.627,0.048c-0.164-0.199-0.404-0.263-0.657-0.263
		c-0.263-0.001-0.578,0.002-0.701,0.24c-0.125,0.242,0.192,0.358,0.331,0.506c0.55,0.58,0.557,0.572-0.015,1.14
		c-0.08,0.079-0.175,0.148-0.241,0.239c-0.27,0.372-0.536,0.556-0.922,0.115c-0.15-0.172-0.406-0.186-0.639-0.172
		c-0.249,0.016-0.537,0.054-0.627,0.282c-0.067,0.174,0.199,0.303,0.33,0.433c0.608,0.604,0.612,0.603-0.004,1.212
		c-0.058,0.056-0.119,0.108-0.171,0.171c-0.295,0.352-0.585,0.639-1.005,0.132c-0.11-0.132-0.313-0.169-0.493-0.168
		c-0.281,0.004-0.609,0.041-0.725,0.301c-0.078,0.179,0.213,0.322,0.351,0.466c0.556,0.577,0.561,0.574-0.006,1.139
		c-0.069,0.069-0.143,0.134-0.203,0.21c-0.294,0.362-0.584,0.625-0.999,0.122c-0.123-0.151-0.355-0.158-0.548-0.158
		c-0.242,0.002-0.529,0.041-0.651,0.254c-0.138,0.248,0.177,0.341,0.303,0.475c0.574,0.615,0.582,0.609-0.011,1.208
		c-0.058,0.06-0.12,0.11-0.171,0.172c-0.277,0.331-0.536,0.638-0.964,0.153c-0.142-0.163-0.4-0.201-0.637-0.174
		c-0.229,0.028-0.509,0.051-0.605,0.25c-0.108,0.225,0.204,0.311,0.313,0.473c0.019,0.026,0.042,0.051,0.065,0.072
		c0.505,0.515,0.523,0.533,0.019,1.022c-0.255,0.248-0.136,0.381,0.062,0.517c0.367,0.255,0.361,0.469,0.025,0.77
		c-0.552,0.499-1.079,1.029-1.587,1.573c-0.211,0.225-0.314,0.251-0.551,0.016c-1.487-1.489-3.048-2.898-4.667-4.241
		C14.962,122.847,14.899,122.757,14.952,122.479"/>
	<path fill-rule="evenodd" clip-rule="evenodd" fill="#FFFFFF" d="M22.688,134.027c-1.49,0.268-2.942,0.332-4.397,0.229
		c-0.802-0.056-1.602-0.172-2.354-0.496c-0.269-0.116-0.417-0.2-0.121-0.489c1.008-0.979,1.999-1.976,2.983-2.982
		c0.215-0.223,0.329-0.19,0.531,0.016c1.114,1.15,2.19,2.332,3.251,3.53C22.622,133.879,22.641,133.942,22.688,134.027"/>
	<path fill-rule="evenodd" clip-rule="evenodd" fill="#FFFFFF" d="M41.619,115.176c-1.384-1.164-2.624-2.34-3.848-3.532
		c-0.111-0.111-0.128-0.2-0.006-0.323c1.099-1.115,2.192-2.235,3.385-3.454C42.102,110.318,41.927,112.685,41.619,115.176"/>
	<path fill-rule="evenodd" clip-rule="evenodd" fill="#FFFFFF" d="M14.763,132.739c-0.929-1.395-0.935-4.87-0.47-7.139
		c0.495,0.431,0.976,0.83,1.439,1.252c0.75,0.688,1.481,1.395,2.235,2.076c0.246,0.224,0.242,0.371,0.002,0.604
		C16.9,130.584,15.847,131.653,14.763,132.739"/>
	<path fill-rule="evenodd" clip-rule="evenodd" fill="#FFFFFF" d="M33.101,106.67c2.5-0.26,4.875-0.564,7.286,0.492
		c-1.187,1.168-2.295,2.254-3.394,3.351c-0.162,0.161-0.245,0.116-0.383-0.025C35.434,109.287,34.298,108.049,33.101,106.67"/>
	<path fill-rule="evenodd" clip-rule="evenodd" fill="#010101" d="M123.192,121.102c-0.065,7.313-5.636,13.146-12.686,13.527
		c-8.595,0.465-14.53-6.25-14.484-13.589c0.045-7.438,5.932-13.421,13.335-13.511C117.063,107.435,123.148,113.456,123.192,121.102
		 M97.845,123.519c0.044,0.313,0.058,0.589,0.129,0.849c0.112,0.409,0.229,0.825,0.406,1.212c1.501,3.27,3.835,5.652,7.275,6.892
		c1.703,0.613,3.457,0.805,5.229,0.609c1.745-0.193,3.405-0.748,4.921-1.674c0.422-0.258,0.431-0.438,0.008-0.725
		c-0.484-0.328-1.033-0.329-1.59-0.298c-0.446,0.027-0.853,0.216-1.297,0.317c0.261-1.385,2.084-2.507,3.561-2.215
		c0.712,0.139,1.264,0.478,1.339,1.299c2.755-2.279,4.448-6.91,3.587-10.746c-0.174,0.149-0.27,0.377-0.504,0.434
		c-0.393-2.309-1.57-3.087-3.835-2.503c-0.007-0.677,0.16-1.285,0.576-1.813c0.469-0.596,1.112-0.837,1.911-0.813
		c-0.588-0.874-1.25-1.596-1.981-2.258c-0.184-0.168-0.24-0.107-0.307,0.116c-0.146,0.479-0.454,0.836-0.906,1.061
		c-0.101-0.311-0.165-0.616-0.294-0.89c-0.666-1.417-2.234-2.058-3.696-1.595c-0.469,0.147-0.441-0.016-0.377-0.359
		c0.067-0.373,0.277-0.675,0.458-1c-4.087-1.074-8.628,0.322-11.501,3.27c1.251,0.407,1.745,1.326,1.628,2.56
		c-0.093,0.958-0.557,1.735-1.445,2.36c0.036-0.398-0.025-0.669-0.1-0.933c-0.213-0.761-0.671-1.312-1.428-1.595
		c-0.254-0.097-0.405-0.061-0.547,0.198c-0.881,1.6-1.354,3.315-1.493,5.13c-0.02,0.261,0.053,0.386,0.315,0.496
		c1.115,0.47,1.757,1.344,1.977,2.518c0.116,0.611,0.033,1.201-0.39,1.729C98.853,124.197,98.553,123.893,97.845,123.519"/>
	<path fill-rule="evenodd" clip-rule="evenodd" fill="#010101" d="M68.717,65.758c7.794,0.004,14.075,6.32,14.062,14.144
		c-0.014,7.654-6.347,13.93-14.031,13.93c-7.668,0-14.065-6.228-14.044-14.118C54.725,72.067,61.058,65.754,68.717,65.758
		 M72.978,67.812c0.022-0.011,0.047-0.023,0.072-0.037c0.002-0.002,0-0.012,0-0.02C73.025,67.774,73,67.792,72.978,67.812
		c0.711,0.546,1.129,1.317,1.519,2.09c0.967,1.908,1.508,3.942,1.677,6.075c0.009,0.123-0.046,0.281,0.093,0.353
		c0.154,0.082,0.285-0.035,0.39-0.127c0.262-0.228,0.549-0.421,0.758-0.726c0.749-1.105,0.927-2.383,1.186-3.642
		c0.039-0.184-0.052-0.307-0.164-0.432c-1.421-1.618-3.128-2.832-5.143-3.606C73.182,67.753,73.08,67.73,72.978,67.812
		 M72.237,92.138c2.284-0.633,4.209-1.861,5.864-3.538c0.216-0.221,0.346-0.464,0.376-0.753c0.104-1.005,0.141-2.008-0.086-2.998
		c-0.269-1.181-0.76-2.234-1.772-2.973c-0.214-0.154-0.349-0.229-0.381,0.146c-0.085,0.977-0.235,1.942-0.407,2.911
		c-0.297,1.683-0.87,3.243-1.735,4.704c-0.531,0.895-1.239,1.65-1.925,2.425c-0.028,0.024-0.058,0.049-0.088,0.075
		C72.133,92.191,72.184,92.166,72.237,92.138 M67.272,79.459c-1.45,0.053-3.197,0.095-4.942,0.176
		c-1.988,0.094-3.971,0.235-5.94,0.536c-0.343,0.052-0.482,0.161-0.454,0.55c0.192,2.519,1.053,4.781,2.563,6.799
		c0.338,0.448,0.659,0.928,1.137,1.244c0.773,0.514,1.597,0.402,2.425,0.136c1.616-0.522,3.042-1.405,4.453-2.318
		c2.199-1.424,4.137-3.153,5.98-5.003c0.644-0.645,1.402-1.15,2.348-1.268c0.342-0.042,0.27-0.282,0.287-0.502
		c0.024-0.281-0.153-0.259-0.337-0.27c-0.403-0.02-0.805-0.073-1.208-0.076C71.579,79.456,69.573,79.459,67.272,79.459
		 M55.945,78.706c-0.056,0.241,0.011,0.359,0.406,0.282c1.191-0.234,2.406-0.321,3.614-0.407c4.219-0.301,8.443-0.372,12.671-0.294
		c0.741,0.016,1.482,0.043,2.223,0.071c0.173,0.007,0.297-0.025,0.255-0.229c-0.037-0.18,0.138-0.439-0.186-0.52
		c-0.952-0.23-1.736-0.754-2.441-1.404c-1.13-1.043-2.227-2.119-3.481-3.018c-1.908-1.366-3.958-2.447-6.209-3.124
		c-1.085-0.327-2.187-0.177-2.973,0.561C57.528,72.771,56.284,75.482,55.945,78.706 M61.434,90.272
		c0.043,0.077,0.053,0.112,0.076,0.128c2.371,1.597,4.985,2.348,7.844,2.222c0.163-0.007,0.318-0.021,0.455-0.133
		c1.065-0.854,2.064-1.771,2.863-2.886c1.687-2.358,2.204-5.066,2.386-7.88c0.02-0.284-0.098-0.243-0.282-0.188
		c-0.642,0.192-1.161,0.582-1.607,1.051c-2.026,2.119-4.277,3.952-6.769,5.494C64.857,89.035,63.283,89.928,61.434,90.272
		 M75.024,76.359c-0.078-1.282-0.283-2.474-0.617-3.643c-0.634-2.229-1.71-4.154-3.78-5.377c-0.264-0.155-0.528-0.317-0.845-0.339
		c-2.445-0.157-4.77,0.274-6.951,1.415c-0.154,0.081-0.352,0.121-0.454,0.321c0.761,0.149,1.469,0.375,2.161,0.648
		c3.199,1.253,5.961,3.16,8.386,5.578C73.509,75.55,74.15,76.06,75.024,76.359 M79.771,86.318c0.985-1.544,1.662-3.788,1.772-5.584
		c0.026-0.419-0.099-0.553-0.484-0.625c-1.402-0.256-2.818-0.377-4.24-0.461c-0.152-0.009-0.441-0.179-0.468,0.137
		c-0.024,0.269-0.134,0.576,0.301,0.749c0.833,0.33,1.449,0.947,1.942,1.695C79.392,83.443,79.682,84.804,79.771,86.318
		 M79.601,72.958c-0.119,0.49-0.201,0.915-0.326,1.328c-0.432,1.425-1.1,2.683-2.612,3.214c-0.4,0.143-0.352,0.384-0.344,0.668
		c0.008,0.346,0.28,0.255,0.464,0.27c1.499,0.116,3.003,0.197,4.48,0.504c0.309,0.063,0.273-0.112,0.259-0.295
		c-0.066-0.907-0.254-1.792-0.523-2.658C80.674,74.942,80.217,73.951,79.601,72.958"/>
	<path fill-rule="evenodd" clip-rule="evenodd" fill="#010101" d="M54.937,120.549c0.005-7.826,6.307-14.095,14.17-14.082
		c7.723,0.012,14.017,6.366,14.008,14.114c-0.008,7.613-6.191,13.94-13.827,14.066C61.297,134.778,54.907,128.314,54.937,120.549
		 M61.032,130.943c-0.067,0.139,0.073,0.122,0.126,0.172c0.526,0.435,1.106,0.784,1.703,1.104c1.292,0.692,2.665,1.15,4.114,1.365
		c0.116,0.018,0.294,0.145,0.375-0.063c0.08-0.204-0.25-0.782-0.475-0.829c-1.929-0.406-3.829-0.903-5.66-1.644
		c-0.036-0.09-0.12-0.083-0.195-0.093c-0.02-0.043-0.044-0.076-0.095-0.046c-0.004,0.004,0,0.033,0.009,0.041
		C60.967,130.982,61.005,131.007,61.032,130.943 M67.48,126.187c0,0.471-0.015,0.941,0.001,1.411
		c0.056,1.943,0.164,3.879,0.789,5.749c0.105,0.312,0.248,0.425,0.575,0.423c1.617-0.009,3.188-0.277,4.715-0.811
		c0.212-0.073,0.345-0.214,0.452-0.406c0.66-1.208,0.907-2.525,0.97-3.876c0.149-3.263-0.494-6.401-1.545-9.473
		c-0.101-0.298-0.235-0.3-0.49-0.229c-1.421,0.371-2.871,0.508-4.332,0.455c-0.517-0.019-0.648,0.131-0.692,0.606
		C67.737,122.086,67.513,124.129,67.48,126.187 M63.902,117.817c0.129,0.044,0.216,0.083,0.309,0.107
		c2.504,0.677,5.041,0.817,7.591,0.366c2.008-0.355,3.919-0.99,5.504-2.354c1.705-1.464,1.897-3.258,0.56-5.057
		c-0.159-0.217-0.35-0.361-0.614-0.432c-1.963-0.514-3.875-0.343-5.751,0.396c-2.191,0.862-3.919,2.351-5.454,4.088
		C65.256,115.825,64.538,116.775,63.902,117.817 M57.944,113.389c-0.576,0.916-1.026,1.783-1.342,2.712
		c-0.368,1.089-0.781,2.197-0.657,3.354c0.17,1.592,0.998,2.905,2.139,3.983c2.29,2.16,5.171,2.897,8.188,3.268
		c0.304,0.037,0.3-0.119,0.306-0.333c0.049-2.17,0.208-4.333,0.491-6.484c0.067-0.498-0.121-0.544-0.514-0.594
		c-1.953-0.244-3.843-0.727-5.595-1.655c-1.441-0.764-2.431-1.903-2.839-3.509C58.069,113.917,58.02,113.707,57.944,113.389
		 M75.23,132.17c1.271-0.611,2.788-1.828,3.782-3.002c0.427-0.504,0.871-0.993,1.015-1.667c0.202-0.947,0.397-1.899,0.397-2.875
		c0.002-2.821-1.088-5.28-2.557-7.611c-0.112-0.177-0.193-0.201-0.373-0.066c-0.922,0.699-1.947,1.209-3.039,1.583
		c-0.22,0.075-0.266,0.171-0.182,0.39c0.288,0.757,0.515,1.531,0.714,2.315C75.902,124.846,76.397,128.467,75.23,132.17
		 M75.714,109.243c-1.226-0.783-2.531-1.366-3.96-1.576c-2.686-0.391-5.036,0.441-7.147,2.084c-1.925,1.496-3.433,3.367-4.891,5.289
		c-0.168,0.222-0.063,0.346,0.06,0.499c0.724,0.897,1.699,1.413,2.744,1.843c0.343,0.141,0.508,0.125,0.715-0.205
		c0.699-1.11,1.498-2.146,2.386-3.115c1.794-1.96,3.846-3.543,6.421-4.355C73.235,109.332,74.46,109.205,75.714,109.243
		 M56.111,122.533c-0.194,0.09-0.094,0.208-0.078,0.309c0.242,1.516,0.771,2.934,1.548,4.257c0.309,0.521,0.547,1.12,1.07,1.477
		c2.418,1.651,5.133,2.559,7.975,3.146c0.238,0.05,0.302,0.006,0.255-0.259c-0.157-0.943-0.223-1.896-0.271-2.853
		c-0.047-0.935-0.06-0.934-1.011-1.081c-0.145-0.021-0.29-0.041-0.433-0.063c-2.403-0.387-4.693-1.071-6.702-2.517
		C57.533,124.279,56.8,123.418,56.111,122.533 M79.723,112.903c-0.035,1.117-0.368,2.113-1.091,2.948
		c-0.215,0.247-0.197,0.398-0.034,0.654c1.242,1.95,2.221,4.011,2.574,6.323c0.116,0.765,0.18,1.535,0.19,2.308
		C82.883,120.783,82.359,116.703,79.723,112.903 M66.068,107.747c-0.149-0.011-0.183-0.021-0.209-0.014
		c-2.761,0.71-5.061,2.163-6.927,4.311c-0.083,0.097-0.167,0.194-0.16,0.34c0.03,0.64,0.117,1.263,0.359,1.937
		C61.102,111.739,63.126,109.316,66.068,107.747"/>
	<path fill-rule="evenodd" clip-rule="evenodd" fill="#010101" d="M42.278,79.246c0.089,7.756-6.259,14.236-14.009,14.307
		c-7.974,0.074-14.421-6.173-14.509-14.057c-0.086-7.938,6.194-14.372,14.108-14.456C35.813,64.957,42.189,71.244,42.278,79.246
		 M28.94,77.493c-0.265-1.398-0.532-2.795-0.791-4.195c-0.038-0.197-0.201-0.201-0.326-0.237c-1.161-0.343-2.328-0.672-3.493-1.011
		c-0.196-0.059-0.347-0.064-0.524,0.094c-0.939,0.843-1.892,1.671-2.844,2.499c-0.142,0.123-0.222,0.241-0.211,0.45
		c0.062,1.278,0.236,2.544,0.405,3.812c0.025,0.186,0.113,0.286,0.282,0.351c1.205,0.467,2.41,0.938,3.614,1.408
		c0.178,0.072,0.328,0.07,0.488-0.068c1.067-0.918,2.14-1.827,3.214-2.734C28.875,77.757,28.973,77.665,28.94,77.493 M34.605,84.103
		c-0.154-1.225-0.305-2.315-0.417-3.41c-0.033-0.336-0.147-0.511-0.471-0.621c-1.222-0.421-2.439-0.861-3.647-1.32
		c-0.222-0.083-0.343-0.051-0.506,0.089c-1.033,0.883-2.068,1.765-3.115,2.629c-0.234,0.194-0.289,0.396-0.228,0.673
		c0.26,1.201,0.518,2.403,0.77,3.606c0.047,0.227,0.147,0.35,0.386,0.427c1.185,0.383,2.385,0.71,3.594,1.008
		c0.194,0.049,0.328,0.016,0.481-0.112c0.934-0.778,1.869-1.55,2.818-2.308C34.542,84.545,34.682,84.318,34.605,84.103
		 M28.217,65.963c-0.43,0.009-1.032-0.128-1.5,0.156c-0.814,0.493-1.554,1.102-2.327,1.662c-0.132,0.094-0.188,0.217-0.174,0.374
		c0.063,0.834,0.076,1.673,0.222,2.501c0.033,0.189,0.097,0.271,0.284,0.322c1.186,0.315,2.37,0.643,3.549,0.981
		c0.197,0.057,0.329,0.026,0.484-0.096c0.96-0.74,1.924-1.476,2.89-2.207c0.158-0.12,0.216-0.225,0.143-0.444
		c-0.275-0.826-0.532-1.661-0.765-2.502c-0.083-0.3-0.259-0.404-0.531-0.466C29.78,66.085,29.06,65.99,28.217,65.963 M41.375,79.732
		c-0.028-0.273-0.084-0.577-0.087-0.881c-0.002-0.194-0.074-0.294-0.235-0.371c-0.811-0.398-1.623-0.793-2.427-1.205
		c-0.205-0.105-0.338-0.088-0.508,0.071c-0.862,0.83-1.733,1.65-2.613,2.462c-0.162,0.149-0.205,0.282-0.177,0.502
		c0.143,1.187,0.275,2.377,0.385,3.566c0.025,0.253,0.099,0.367,0.345,0.428c0.721,0.177,1.437,0.374,2.153,0.566
		c0.284,0.075,0.513,0.039,0.735-0.196c0.578-0.608,1.184-1.192,1.78-1.784c0.106-0.104,0.199-0.209,0.235-0.357
		C41.182,81.62,41.275,80.689,41.375,79.732 M14.648,79.757c0,0.28-0.046,0.644,0.331,0.859c0.715,0.411,1.432,0.817,2.139,1.242
		c0.207,0.124,0.328,0.089,0.493-0.078c0.737-0.749,1.483-1.491,2.243-2.218c0.179-0.17,0.205-0.323,0.174-0.556
		c-0.156-1.152-0.312-2.31-0.341-3.475c-0.008-0.333-0.099-0.499-0.412-0.591c-0.679-0.203-1.353-0.427-2.027-0.646
		c-0.153-0.05-0.278-0.043-0.395,0.083c-0.583,0.629-1.174,1.249-1.749,1.886c-0.089,0.099-0.123,0.262-0.15,0.399
		C14.76,77.663,14.683,78.675,14.648,79.757 M28.022,92.62c0.553,0.116,1.126-0.13,1.663-0.539c0.412-0.313,0.844-0.598,1.283-0.87
		c0.216-0.135,0.271-0.287,0.231-0.521c-0.117-0.701-0.228-1.405-0.325-2.11c-0.036-0.254-0.166-0.335-0.404-0.39
		c-1.165-0.273-2.326-0.561-3.46-0.944c-0.218-0.074-0.384-0.046-0.577,0.098c-0.842,0.632-1.692,1.249-2.554,1.851
		c-0.208,0.145-0.223,0.266-0.141,0.478c0.292,0.755,0.577,1.511,0.85,2.271c0.076,0.21,0.198,0.292,0.413,0.34
		C25.954,92.495,26.914,92.612,28.022,92.62 M32.194,66.667c0.28,0.895,0.543,1.717,0.793,2.541c0.055,0.184,0.207,0.182,0.338,0.23
		c1.027,0.379,2.061,0.753,3.03,1.259c0.487,0.254,0.8,0.169,1.172-0.185c0.243-0.231,0.224-0.332,0.007-0.552
		c-0.948-0.964-2.022-1.755-3.203-2.401C33.677,67.2,32.999,66.882,32.194,66.667 M41.159,77.257
		c-0.225-1.951-1.262-4.452-2.405-5.853c-0.06-0.075-0.122-0.175-0.201-0.197c-0.202-0.053-0.811,0.691-0.748,0.915
		c0.342,1.196,0.602,2.41,0.838,3.63c0.035,0.177,0.106,0.289,0.266,0.369C39.644,76.489,40.375,76.862,41.159,77.257
		 M14.958,81.841c0.02,0.137,0.025,0.196,0.039,0.255c0.386,1.813,1.119,3.473,2.219,4.966c0.098,0.133,0.143,0.506,0.424,0.295
		c0.218-0.162,0.592-0.26,0.422-0.739c-0.38-1.076-0.663-2.186-0.899-3.305c-0.038-0.177-0.124-0.277-0.278-0.364
		C16.265,82.605,15.653,82.244,14.958,81.841 M18.254,88.354c1.425,1.535,3.108,2.671,5.14,3.44
		c-0.27-0.716-0.522-1.351-0.747-1.995c-0.082-0.234-0.217-0.356-0.443-0.455c-0.872-0.378-1.737-0.769-2.596-1.175
		C18.872,87.82,18.878,87.806,18.254,88.354 M22.295,67.278c1,0.227,1.745-0.137,2.404-0.88
		C23.848,66.612,23.07,66.88,22.295,67.278 M40.206,84.7c-0.767,0.573-1.342,1.144-1.21,2.146
		C39.467,86.179,39.847,85.501,40.206,84.7 M15.697,74.271c0.735-0.49,1.052-1.137,1.015-2.011
		C16.299,72.907,15.969,73.541,15.697,74.271 M33.039,91.635c-0.813-0.187-1.446,0.04-2.001,0.644
		C31.737,92.123,32.372,91.918,33.039,91.635"/>
	<path fill-rule="evenodd" clip-rule="evenodd" fill="#FFFFFF" d="M97.845,123.52c0.708,0.374,1.008,0.676,1.629,1.632
		c0.423-0.527,0.506-1.118,0.389-1.729c-0.219-1.174-0.861-2.048-1.977-2.519c-0.261-0.109-0.334-0.234-0.315-0.496
		c0.14-1.813,0.613-3.529,1.494-5.13c0.142-0.257,0.293-0.294,0.546-0.197c0.758,0.282,1.216,0.834,1.429,1.595
		c0.074,0.265,0.136,0.534,0.1,0.933c0.888-0.625,1.352-1.403,1.445-2.361c0.117-1.231-0.377-2.15-1.628-2.558
		c2.873-2.949,7.414-4.344,11.501-3.271c-0.182,0.324-0.391,0.627-0.458,1c-0.064,0.345-0.092,0.507,0.377,0.358
		c1.461-0.461,3.03,0.178,3.696,1.595c0.129,0.275,0.193,0.579,0.294,0.892c0.451-0.227,0.76-0.582,0.906-1.063
		c0.067-0.222,0.123-0.283,0.307-0.115c0.731,0.661,1.393,1.385,1.981,2.259c-0.8-0.025-1.442,0.218-1.911,0.812
		c-0.416,0.529-0.583,1.137-0.576,1.814c2.264-0.584,3.442,0.192,3.835,2.503c0.234-0.058,0.33-0.284,0.504-0.436
		c0.861,3.837-0.832,8.468-3.587,10.746c-0.075-0.82-0.627-1.159-1.339-1.299c-1.477-0.292-3.3,0.831-3.561,2.215
		c0.444-0.1,0.851-0.29,1.297-0.316c0.556-0.03,1.106-0.029,1.59,0.299c0.422,0.287,0.414,0.467-0.008,0.723
		c-1.516,0.926-3.176,1.482-4.922,1.674c-1.772,0.196-3.525,0.005-5.229-0.607c-3.439-1.239-5.774-3.622-7.274-6.894
		c-0.177-0.386-0.294-0.802-0.406-1.212C97.903,124.108,97.889,123.832,97.845,123.52 M113.739,121.285
		c1.211-0.639,1.741-2.263,1.192-3.662c-0.539-1.381-2.131-2.179-3.579-1.785c-1.544,0.418-2.319,1.914-2.152,2.871
		C111.488,117.715,113.504,119.05,113.739,121.285 M105.698,123.557c1.24-0.674,1.746-2.253,1.2-3.646
		c-0.533-1.355-2.019-2.166-3.365-1.829c-1.353,0.34-2.307,1.617-2.146,2.874C103.47,119.973,105.458,121.445,105.698,123.557
		 M112.653,128.021c1.232-0.647,1.764-1.965,1.337-3.235c-0.418-1.248-1.856-2.032-3.255-1.771c-1.42,0.264-2.465,1.477-2.44,2.839
		C110.915,125.238,112.398,125.966,112.653,128.021 M104.443,112.495c1.92-0.964,4.078-0.117,4.341,2.239
		c0.86-0.523,1.359-1.251,1.416-2.242c0.056-0.983-0.369-1.75-1.213-2.217c-1.082-0.599-2.183-0.507-3.228,0.131
		C105.005,110.866,104.527,111.524,104.443,112.495 M104.983,129.751c0.755-0.388,1.162-0.969,1.209-1.773
		c0.119-2.021-2.213-3.667-4.08-2.896c-0.939,0.389-1.458,1.301-1.3,2.283C102.824,126.869,104.487,127.8,104.983,129.751
		 M119.378,126.022c0.518-0.312,0.809-0.729,1.043-1.189c0.618-1.202,0.283-2.816-0.719-3.452c-0.761-0.484-1.559-0.494-2.351-0.086
		c-0.929,0.478-1.445,1.266-1.631,2.279c-0.032,0.181,0.016,0.226,0.209,0.171c0.274-0.078,0.562-0.114,0.844-0.161
		C118.071,123.375,119.429,124.161,119.378,126.022 M108.504,130.003c-0.651,0.011-1.175,0.107-1.659,0.352
		c-0.559,0.276-0.986,0.673-1.075,1.337c-0.03,0.225,0.026,0.299,0.261,0.199c0.654-0.283,1.342-0.219,2.005-0.09
		c0.605,0.118,1.253,0.234,1.608,0.857c0.07,0.125,0.158,0.064,0.249,0.037c0.489-0.146,0.824-0.468,0.938-0.956
		c0.108-0.458-0.145-0.805-0.5-1.073C109.757,130.235,109.09,130.075,108.504,130.003"/>
	<path fill-rule="evenodd" clip-rule="evenodd" fill="#FFFFFF" d="M67.272,79.459c2.301,0,4.307-0.004,6.312,0.004
		c0.403,0.003,0.805,0.058,1.208,0.076c0.184,0.011,0.361-0.012,0.337,0.27c-0.017,0.22,0.056,0.46-0.287,0.502
		c-0.945,0.117-1.704,0.623-2.348,1.268c-1.843,1.85-3.781,3.579-5.98,5.003c-1.411,0.913-2.837,1.796-4.453,2.318
		c-0.828,0.267-1.652,0.378-2.425-0.136c-0.478-0.316-0.799-0.796-1.136-1.244c-1.511-2.018-2.372-4.28-2.564-6.799
		c-0.028-0.389,0.111-0.498,0.454-0.55c1.969-0.301,3.952-0.442,5.94-0.536C64.075,79.554,65.822,79.512,67.272,79.459"/>
	<path fill-rule="evenodd" clip-rule="evenodd" fill="#FFFFFF" d="M55.945,78.706c0.338-3.224,1.583-5.935,3.878-8.082
		c0.787-0.737,1.889-0.888,2.974-0.561c2.251,0.677,4.301,1.758,6.209,3.123c1.253,0.899,2.351,1.976,3.481,3.019
		c0.705,0.65,1.489,1.174,2.44,1.404c0.325,0.08,0.149,0.34,0.186,0.52c0.043,0.204-0.082,0.236-0.254,0.229
		c-0.741-0.028-1.482-0.056-2.224-0.071c-4.227-0.078-8.452-0.007-12.67,0.294c-1.208,0.086-2.423,0.173-3.614,0.407
		C55.956,79.065,55.889,78.947,55.945,78.706"/>
	<path fill-rule="evenodd" clip-rule="evenodd" fill="#FFFFFF" d="M61.434,90.272c1.849-0.345,3.424-1.236,4.966-2.19
		c2.492-1.542,4.743-3.375,6.769-5.495c0.447-0.468,0.965-0.859,1.608-1.05c0.184-0.057,0.301-0.098,0.282,0.186
		c-0.182,2.815-0.699,5.523-2.387,7.88c-0.799,1.115-1.797,2.031-2.863,2.888c-0.137,0.11-0.292,0.126-0.454,0.133
		c-2.86,0.126-5.474-0.625-7.845-2.223C61.486,90.383,61.477,90.348,61.434,90.272"/>
	<path fill-rule="evenodd" clip-rule="evenodd" fill="#FFFFFF" d="M75.024,76.359c-0.874-0.3-1.515-0.81-2.1-1.396
		c-2.425-2.417-5.187-4.326-8.386-5.579c-0.693-0.272-1.4-0.499-2.161-0.647c0.102-0.199,0.299-0.239,0.454-0.32
		c2.18-1.142,4.506-1.574,6.95-1.415c0.318,0.021,0.581,0.182,0.846,0.338c2.07,1.223,3.146,3.148,3.78,5.376
		C74.74,73.884,74.946,75.078,75.024,76.359"/>
	<path fill-rule="evenodd" clip-rule="evenodd" fill="#FFFFFF" d="M72.171,92.061c0.686-0.772,1.394-1.528,1.924-2.425
		c0.866-1.461,1.438-3.02,1.736-4.704c0.172-0.968,0.322-1.934,0.406-2.91c0.033-0.374,0.168-0.301,0.382-0.146
		c1.011,0.739,1.502,1.792,1.772,2.972c0.227,0.991,0.19,1.993,0.086,2.998c-0.03,0.289-0.16,0.533-0.376,0.753
		c-1.656,1.678-3.58,2.906-5.865,3.538C72.213,92.112,72.191,92.086,72.171,92.061"/>
	<path fill-rule="evenodd" clip-rule="evenodd" fill="#FFFFFF" d="M72.978,67.814c0.102-0.084,0.204-0.061,0.316-0.017
		c2.015,0.774,3.722,1.989,5.143,3.606c0.112,0.125,0.203,0.248,0.164,0.432c-0.259,1.258-0.437,2.537-1.186,3.641
		c-0.208,0.307-0.496,0.498-0.758,0.728c-0.105,0.091-0.236,0.209-0.39,0.127c-0.139-0.073-0.084-0.231-0.093-0.354
		c-0.169-2.133-0.71-4.167-1.676-6.074c-0.391-0.772-0.809-1.544-1.52-2.092V67.814z"/>
	<path fill-rule="evenodd" clip-rule="evenodd" fill="#FFFFFF" d="M79.771,86.318c-0.089-1.515-0.38-2.875-1.178-4.089
		c-0.492-0.748-1.109-1.365-1.942-1.694c-0.434-0.174-0.324-0.482-0.301-0.749c0.028-0.317,0.317-0.147,0.469-0.138
		c1.421,0.084,2.837,0.204,4.24,0.461c0.385,0.071,0.51,0.206,0.483,0.625C81.434,82.53,80.756,84.774,79.771,86.318"/>
	<path fill-rule="evenodd" clip-rule="evenodd" fill="#FFFFFF" d="M79.601,72.958c0.616,0.993,1.073,1.984,1.398,3.03
		c0.269,0.866,0.457,1.751,0.523,2.658c0.014,0.183,0.05,0.358-0.259,0.295c-1.477-0.307-2.981-0.388-4.48-0.504
		c-0.184-0.015-0.456,0.076-0.464-0.27c-0.008-0.284-0.056-0.525,0.344-0.668c1.512-0.531,2.18-1.789,2.612-3.214
		C79.4,73.873,79.482,73.448,79.601,72.958"/>
	<path fill-rule="evenodd" clip-rule="evenodd" fill="#FFFFFF" d="M72.978,67.81c0.022-0.019,0.047-0.036,0.072-0.055
		c0,0.007,0.002,0.018,0,0.02C73.025,67.79,73,67.8,72.978,67.812V67.81z"/>
	<path fill-rule="evenodd" clip-rule="evenodd" fill="#FFFFFF" d="M72.237,92.137c-0.052,0.028-0.104,0.055-0.154-0.001
		c0.03-0.024,0.06-0.05,0.089-0.074C72.192,92.086,72.214,92.112,72.237,92.137"/>
	<path fill-rule="evenodd" clip-rule="evenodd" fill="#FFFFFF" d="M67.479,126.187c0.033-2.059,0.258-4.102,0.444-6.149
		c0.044-0.477,0.175-0.625,0.691-0.608c1.461,0.054,2.912-0.084,4.332-0.455c0.256-0.068,0.389-0.066,0.49,0.231
		c1.051,3.07,1.695,6.21,1.545,9.471c-0.063,1.353-0.31,2.668-0.969,3.876c-0.108,0.194-0.241,0.333-0.453,0.407
		c-1.527,0.534-3.098,0.801-4.715,0.811c-0.326,0.002-0.47-0.11-0.575-0.424c-0.624-1.869-0.732-3.805-0.789-5.749
		C67.465,127.127,67.479,126.659,67.479,126.187"/>
	<path fill-rule="evenodd" clip-rule="evenodd" fill="#FFFFFF" d="M63.902,117.817c0.636-1.042,1.353-1.991,2.144-2.887
		c1.536-1.736,3.264-3.224,5.455-4.088c1.875-0.737,3.787-0.909,5.75-0.394c0.264,0.068,0.455,0.215,0.614,0.431
		c1.337,1.798,1.145,3.592-0.559,5.057c-1.585,1.363-3.496,1.999-5.504,2.355c-2.551,0.451-5.087,0.31-7.592-0.368
		C64.118,117.9,64.03,117.861,63.902,117.817"/>
	<path fill-rule="evenodd" clip-rule="evenodd" fill="#FFFFFF" d="M57.944,113.388c0.075,0.318,0.125,0.529,0.176,0.742
		c0.408,1.607,1.398,2.746,2.84,3.509c1.751,0.931,3.642,1.411,5.594,1.655c0.394,0.05,0.582,0.096,0.515,0.594
		c-0.283,2.152-0.442,4.315-0.491,6.485c-0.006,0.213-0.003,0.37-0.307,0.333c-3.016-0.371-5.897-1.108-8.187-3.267
		c-1.141-1.078-1.97-2.394-2.139-3.984c-0.124-1.158,0.289-2.265,0.657-3.354C56.917,115.171,57.367,114.304,57.944,113.388"/>
	<path fill-rule="evenodd" clip-rule="evenodd" fill="#FFFFFF" d="M75.229,132.169c1.167-3.703,0.672-7.323-0.242-10.933
		c-0.199-0.784-0.426-1.559-0.715-2.316c-0.084-0.218-0.037-0.313,0.182-0.389c1.092-0.374,2.117-0.883,3.04-1.583
		c0.179-0.134,0.26-0.111,0.372,0.066c1.469,2.331,2.559,4.79,2.558,7.611c0,0.977-0.195,1.928-0.397,2.875
		c-0.144,0.673-0.589,1.163-1.016,1.667C78.019,130.341,76.5,131.559,75.229,132.169"/>
	<path fill-rule="evenodd" clip-rule="evenodd" fill="#FFFFFF" d="M75.714,109.243c-1.254-0.038-2.479,0.09-3.672,0.463
		c-2.575,0.812-4.627,2.395-6.421,4.355c-0.888,0.969-1.687,2.005-2.386,3.115c-0.207,0.33-0.372,0.346-0.715,0.205
		c-1.045-0.43-2.02-0.945-2.744-1.843c-0.123-0.153-0.228-0.277-0.06-0.498c1.458-1.923,2.966-3.794,4.891-5.289
		c2.111-1.644,4.461-2.476,7.147-2.084C73.183,107.877,74.488,108.46,75.714,109.243"/>
	<path fill-rule="evenodd" clip-rule="evenodd" fill="#FFFFFF" d="M56.111,122.533c0.689,0.887,1.422,1.746,2.353,2.416
		c2.009,1.445,4.299,2.13,6.702,2.517c0.143,0.021,0.288,0.042,0.433,0.063c0.951,0.147,0.964,0.146,1.011,1.081
		c0.048,0.956,0.114,1.908,0.271,2.853c0.047,0.265-0.017,0.309-0.255,0.259c-2.842-0.587-5.557-1.495-7.975-3.146
		c-0.523-0.356-0.761-0.955-1.07-1.478c-0.777-1.322-1.306-2.74-1.548-4.256C56.017,122.741,55.917,122.623,56.111,122.533"/>
	<path fill-rule="evenodd" clip-rule="evenodd" fill="#FFFFFF" d="M79.723,112.903c2.636,3.801,3.16,7.88,1.639,12.232
		c-0.011-0.771-0.074-1.543-0.19-2.306c-0.353-2.314-1.332-4.373-2.574-6.324c-0.164-0.255-0.182-0.408,0.034-0.654
		C79.354,115.015,79.687,114.02,79.723,112.903"/>
	<path fill-rule="evenodd" clip-rule="evenodd" fill="#FFFFFF" d="M66.068,107.747c-2.942,1.569-4.966,3.992-6.937,6.573
		c-0.242-0.674-0.329-1.297-0.359-1.937c-0.007-0.146,0.077-0.243,0.16-0.34c1.866-2.147,4.166-3.601,6.927-4.311
		C65.885,107.726,65.919,107.736,66.068,107.747"/>
	<path fill-rule="evenodd" clip-rule="evenodd" fill="#FFFFFF" d="M61.215,131.046c1.831,0.741,3.731,1.238,5.66,1.646
		c0.225,0.046,0.555,0.625,0.475,0.829c-0.081,0.208-0.259,0.08-0.375,0.063c-1.448-0.215-2.822-0.673-4.114-1.366
		c-0.597-0.317-1.177-0.669-1.703-1.103C61.177,131.092,61.196,131.069,61.215,131.046"/>
	<path fill-rule="evenodd" clip-rule="evenodd" fill="#FFFFFF" d="M61.032,130.942c-0.028,0.064-0.065,0.04-0.098,0.009
		c-0.009-0.009-0.013-0.037-0.009-0.041c0.051-0.031,0.075,0.003,0.094,0.046L61.032,130.942z"/>
	<path fill-rule="evenodd" clip-rule="evenodd" fill="#FFFFFF" d="M61.02,130.955c0.075,0.01,0.159,0.003,0.195,0.093
		c-0.018,0.021-0.038,0.046-0.056,0.067c-0.054-0.05-0.193-0.033-0.126-0.172C61.033,130.942,61.02,130.955,61.02,130.955"/>
	<path fill-rule="evenodd" clip-rule="evenodd" fill="#FFFFFF" d="M28.94,77.493c0.032,0.173-0.066,0.266-0.186,0.366
		c-1.074,0.908-2.147,1.818-3.213,2.736c-0.161,0.137-0.31,0.139-0.489,0.067c-1.204-0.472-2.409-0.94-3.614-1.407
		c-0.168-0.066-0.257-0.165-0.282-0.353c-0.169-1.266-0.342-2.532-0.405-3.81c-0.011-0.209,0.069-0.328,0.211-0.451
		c0.952-0.829,1.905-1.657,2.844-2.499c0.177-0.159,0.328-0.152,0.525-0.093c1.164,0.339,2.331,0.668,3.492,1.01
		c0.125,0.037,0.288,0.04,0.326,0.238C28.408,74.697,28.675,76.095,28.94,77.493"/>
	<path fill-rule="evenodd" clip-rule="evenodd" fill="#FFFFFF" d="M34.606,84.102c0.076,0.215-0.064,0.443-0.335,0.661
		c-0.95,0.757-1.885,1.529-2.818,2.308c-0.154,0.128-0.287,0.16-0.481,0.112c-1.209-0.298-2.409-0.625-3.594-1.008
		c-0.239-0.077-0.34-0.2-0.386-0.427c-0.252-1.203-0.511-2.405-0.771-3.606c-0.06-0.275-0.006-0.478,0.228-0.673
		c1.047-0.865,2.082-1.746,3.116-2.629c0.163-0.139,0.284-0.172,0.506-0.089c1.208,0.459,2.424,0.898,3.647,1.32
		c0.324,0.11,0.437,0.284,0.471,0.62C34.3,81.789,34.451,82.878,34.606,84.102"/>
	<path fill-rule="evenodd" clip-rule="evenodd" fill="#FFFFFF" d="M28.216,65.963c0.844,0.025,1.563,0.122,2.275,0.282
		c0.272,0.063,0.449,0.166,0.532,0.466c0.232,0.842,0.489,1.677,0.764,2.502c0.073,0.221,0.015,0.324-0.143,0.444
		c-0.966,0.732-1.93,1.467-2.889,2.207c-0.156,0.121-0.288,0.153-0.485,0.096c-1.179-0.339-2.363-0.666-3.549-0.981
		c-0.187-0.051-0.251-0.132-0.284-0.322c-0.145-0.828-0.159-1.668-0.222-2.502c-0.014-0.156,0.043-0.279,0.174-0.374
		c0.773-0.559,1.514-1.169,2.327-1.661C27.184,65.835,27.786,65.973,28.216,65.963"/>
	<path fill-rule="evenodd" clip-rule="evenodd" fill="#FFFFFF" d="M41.375,79.731c-0.099,0.957-0.193,1.89-0.414,2.803
		c-0.036,0.147-0.128,0.253-0.235,0.356c-0.596,0.591-1.202,1.175-1.78,1.784c-0.222,0.236-0.451,0.271-0.735,0.197
		c-0.716-0.193-1.432-0.392-2.153-0.567c-0.245-0.06-0.32-0.175-0.345-0.427c-0.109-1.191-0.242-2.38-0.385-3.567
		c-0.028-0.22,0.015-0.352,0.177-0.502c0.88-0.811,1.751-1.632,2.613-2.462c0.17-0.16,0.303-0.177,0.508-0.072
		c0.804,0.412,1.616,0.809,2.427,1.205c0.161,0.078,0.233,0.177,0.235,0.372C41.292,79.154,41.347,79.459,41.375,79.731"/>
	<path fill-rule="evenodd" clip-rule="evenodd" fill="#FFFFFF" d="M14.649,79.757c0.033-1.082,0.11-2.095,0.306-3.094
		c0.027-0.138,0.061-0.302,0.15-0.399c0.575-0.637,1.166-1.257,1.749-1.886c0.117-0.126,0.241-0.133,0.395-0.083
		c0.674,0.221,1.348,0.442,2.027,0.646c0.312,0.092,0.403,0.258,0.412,0.591c0.029,1.165,0.185,2.322,0.341,3.475
		c0.03,0.231,0.005,0.387-0.174,0.556c-0.76,0.727-1.506,1.468-2.243,2.217c-0.166,0.168-0.287,0.203-0.493,0.079
		c-0.707-0.424-1.424-0.831-2.139-1.242C14.603,80.401,14.649,80.038,14.649,79.757"/>
	<path fill-rule="evenodd" clip-rule="evenodd" fill="#FFFFFF" d="M28.022,92.62c-1.109-0.009-2.069-0.125-3.021-0.338
		c-0.215-0.049-0.337-0.131-0.413-0.341c-0.273-0.759-0.558-1.515-0.85-2.27c-0.082-0.213-0.067-0.333,0.141-0.479
		c0.862-0.6,1.712-1.218,2.554-1.849c0.193-0.146,0.359-0.172,0.577-0.099c1.135,0.385,2.295,0.671,3.46,0.943
		c0.238,0.056,0.368,0.137,0.405,0.391c0.096,0.705,0.207,1.408,0.324,2.109c0.04,0.236-0.014,0.388-0.231,0.523
		c-0.439,0.271-0.871,0.557-1.282,0.869C29.148,92.489,28.576,92.735,28.022,92.62"/>
	<path fill-rule="evenodd" clip-rule="evenodd" fill="#FFFFFF" d="M32.195,66.667c0.804,0.216,1.482,0.532,2.137,0.894
		c1.18,0.646,2.255,1.437,3.202,2.4c0.218,0.221,0.237,0.319-0.006,0.553c-0.373,0.353-0.685,0.438-1.172,0.183
		c-0.969-0.506-2.003-0.88-3.031-1.258c-0.13-0.048-0.282-0.046-0.338-0.23C32.737,68.385,32.475,67.562,32.195,66.667"/>
	<path fill-rule="evenodd" clip-rule="evenodd" fill="#FFFFFF" d="M41.159,77.257c-0.784-0.396-1.515-0.77-2.25-1.136
		c-0.16-0.08-0.231-0.192-0.266-0.369c-0.236-1.22-0.496-2.434-0.838-3.63c-0.063-0.224,0.545-0.969,0.748-0.915
		c0.079,0.022,0.141,0.122,0.201,0.196C39.896,72.805,40.933,75.306,41.159,77.257"/>
	<path fill-rule="evenodd" clip-rule="evenodd" fill="#FFFFFF" d="M14.958,81.841c0.696,0.402,1.307,0.764,1.927,1.107
		c0.154,0.087,0.24,0.188,0.278,0.364c0.236,1.12,0.519,2.229,0.899,3.305c0.17,0.479-0.204,0.577-0.422,0.739
		c-0.281,0.211-0.326-0.162-0.424-0.295c-1.1-1.493-1.833-3.152-2.219-4.966C14.982,82.038,14.979,81.978,14.958,81.841"/>
	<path fill-rule="evenodd" clip-rule="evenodd" fill="#FFFFFF" d="M18.255,88.353c0.624-0.547,0.617-0.533,1.354-0.184
		c0.859,0.407,1.724,0.797,2.596,1.175c0.225,0.098,0.361,0.22,0.443,0.455c0.225,0.644,0.477,1.28,0.747,1.995
		C21.363,91.024,19.679,89.889,18.255,88.353"/>
	<path fill-rule="evenodd" clip-rule="evenodd" fill="#FFFFFF" d="M22.295,67.277c0.775-0.396,1.552-0.666,2.404-0.88
		C24.042,67.141,23.295,67.505,22.295,67.277"/>
	<path fill-rule="evenodd" clip-rule="evenodd" fill="#FFFFFF" d="M40.205,84.7c-0.358,0.803-0.738,1.479-1.21,2.146
		C38.864,85.844,39.439,85.272,40.205,84.7"/>
	<path fill-rule="evenodd" clip-rule="evenodd" fill="#FFFFFF" d="M15.696,74.27c0.272-0.729,0.604-1.362,1.016-2.01
		C16.749,73.134,16.431,73.781,15.696,74.27"/>
	<path fill-rule="evenodd" clip-rule="evenodd" fill="#FFFFFF" d="M33.039,91.635c-0.667,0.283-1.301,0.487-2.001,0.644
		C31.593,91.675,32.226,91.449,33.039,91.635"/>
	<path fill-rule="evenodd" clip-rule="evenodd" fill="#010101" d="M113.74,121.285c-0.235-2.233-2.251-3.568-4.539-2.576
		c-0.167-0.957,0.608-2.452,2.152-2.87c1.448-0.395,3.039,0.403,3.579,1.784C115.48,119.021,114.95,120.645,113.74,121.285"/>
	<path fill-rule="evenodd" clip-rule="evenodd" fill="#010101" d="M105.699,123.556c-0.24-2.11-2.228-3.584-4.312-2.6
		c-0.16-1.256,0.794-2.534,2.146-2.874c1.347-0.337,2.833,0.473,3.365,1.829C107.445,121.303,106.938,122.883,105.699,123.556"/>
	<path fill-rule="evenodd" clip-rule="evenodd" fill="#010101" d="M112.653,128.02c-0.255-2.054-1.739-2.781-4.358-2.167
		c-0.025-1.36,1.02-2.573,2.441-2.839c1.398-0.261,2.836,0.524,3.254,1.772C114.417,126.055,113.885,127.375,112.653,128.02"/>
	<path fill-rule="evenodd" clip-rule="evenodd" fill="#010101" d="M104.443,112.495c0.084-0.972,0.562-1.629,1.316-2.089
		c1.045-0.639,2.146-0.729,3.228-0.131c0.844,0.467,1.269,1.234,1.213,2.217c-0.057,0.991-0.556,1.72-1.416,2.242
		C108.521,112.378,106.363,111.531,104.443,112.495"/>
	<path fill-rule="evenodd" clip-rule="evenodd" fill="#010101" d="M104.983,129.751c-0.495-1.951-2.158-2.883-4.171-2.387
		c-0.157-0.982,0.361-1.895,1.3-2.283c1.868-0.771,4.199,0.876,4.08,2.896C106.145,128.783,105.738,129.364,104.983,129.751"/>
	<path fill-rule="evenodd" clip-rule="evenodd" fill="#010101" d="M119.378,126.021c0.051-1.859-1.307-2.646-2.605-2.438
		c-0.282,0.047-0.569,0.084-0.844,0.162c-0.193,0.054-0.241,0.009-0.208-0.171c0.186-1.016,0.702-1.804,1.631-2.28
		c0.791-0.409,1.589-0.399,2.351,0.086c1.002,0.635,1.337,2.25,0.719,3.453C120.188,125.292,119.896,125.71,119.378,126.021"/>
	<path fill-rule="evenodd" clip-rule="evenodd" fill="#010101" d="M108.504,130.003c0.586,0.071,1.253,0.231,1.827,0.663
		c0.355,0.269,0.608,0.615,0.5,1.073c-0.114,0.488-0.449,0.81-0.938,0.956c-0.091,0.027-0.179,0.088-0.249-0.037
		c-0.355-0.623-1.003-0.739-1.608-0.857c-0.663-0.129-1.351-0.193-2.005,0.09c-0.235,0.1-0.291,0.025-0.261-0.199
		c0.089-0.664,0.516-1.061,1.075-1.337C107.33,130.111,107.854,130.014,108.504,130.003"/>
</g>
</svg>
