<?xml version="1.0" encoding="utf-8"?>
<!-- Generator: Adobe Illustrator 16.0.0, SVG Export Plug-In . SVG Version: 6.00 Build 0)  -->
<!DOCTYPE svg PUBLIC "-//W3C//DTD SVG 1.1//EN" "http://www.w3.org/Graphics/SVG/1.1/DTD/svg11.dtd">
<svg version="1.1" id="Layer_1" xmlns="http://www.w3.org/2000/svg" xmlns:xlink="http://www.w3.org/1999/xlink" x="0px" y="0px"
	 width="157px" height="179px" viewBox="0 0 157 179" enable-background="new 0 0 157 179" xml:space="preserve">
<rect x="0.975" y="1" fill-rule="evenodd" clip-rule="evenodd" fill="#FFFFFF" stroke="#627D53" stroke-width="2" stroke-miterlimit="10" width="155" height="177"/>
<rect x="1.975" fill-rule="evenodd" clip-rule="evenodd" fill="#627D53" width="155" height="56"/>
<g>
	<path fill="#FFFFFF" d="M34.418,21.582h2.09v5.605l2.66-5.605h2.09l-2.489,4.883l2.527,8.417h-2.185l-1.767-5.929l-0.836,1.691
		v4.237h-2.09V21.582z"/>
	<path fill="#FFFFFF" d="M43.899,21.582h2.831l2.166,13.3h-2.09l-0.38-2.642v0.039h-2.375l-0.38,2.603h-1.938L43.899,21.582z
		 M46.179,30.474L45.248,23.9H45.21l-0.912,6.573H46.179z"/>
	<path fill="#FFFFFF" d="M50.948,29.22l-2.527-7.638h2.223l1.425,4.883h0.038l1.425-4.883h2.033l-2.527,7.638v5.662h-2.09V29.22z"/>
	<path fill="#FFFFFF" d="M57.256,21.582h2.831l2.166,13.3h-2.09l-0.38-2.642v0.039h-2.375l-0.38,2.603H55.09L57.256,21.582z
		 M59.536,30.474L58.605,23.9h-0.038l-0.912,6.573H59.536z"/>
	<path fill="#FFFFFF" d="M63.259,21.582h2.09v5.605l2.66-5.605h2.09l-2.489,4.883l2.527,8.417h-2.185l-1.767-5.929l-0.836,1.691
		v4.237h-2.09V21.582z"/>
	<path fill="#FFFFFF" d="M74.165,21.582h3.097c1.077,0,1.862,0.25,2.356,0.75c0.494,0.501,0.741,1.271,0.741,2.309v0.817
		c0,1.38-0.456,2.255-1.368,2.622v0.037c0.506,0.152,0.865,0.463,1.074,0.932s0.313,1.096,0.313,1.881v2.337
		c0,0.38,0.012,0.688,0.038,0.922s0.089,0.466,0.19,0.693h-2.128c-0.076-0.216-0.126-0.418-0.152-0.608
		c-0.025-0.189-0.038-0.531-0.038-1.025v-2.432c0-0.608-0.098-1.033-0.294-1.273s-0.535-0.361-1.017-0.361h-0.722v5.7h-2.09V21.582z
		 M77.015,27.281c0.418,0,0.731-0.107,0.94-0.322s0.313-0.576,0.313-1.083V24.85c0-0.48-0.085-0.829-0.256-1.045
		c-0.171-0.215-0.44-0.322-0.808-0.322h-0.95v3.799H77.015z"/>
	<path fill="#FFFFFF" d="M81.822,21.582h5.7v1.9h-3.61v3.515h2.869v1.899h-2.869v4.086h3.61v1.899h-5.7V21.582z"/>
	<path fill="#FFFFFF" d="M88.719,21.582h2.622l2.033,7.961h0.038v-7.961h1.862v13.3h-2.147l-2.508-9.709h-0.038v9.709h-1.862V21.582
		z"/>
	<path fill="#FFFFFF" d="M98.466,23.482h-2.185v-1.9h6.46v1.9h-2.185v11.399h-2.09V23.482z"/>
	<path fill="#FFFFFF" d="M104.489,21.582h2.831l2.166,13.3h-2.09l-0.38-2.642v0.039h-2.375l-0.38,2.603h-1.938L104.489,21.582z
		 M106.769,30.474l-0.931-6.573H105.8l-0.912,6.573H106.769z"/>
	<path fill="#FFFFFF" d="M110.492,21.582h2.09v11.4h3.439v1.899h-5.529V21.582z"/>
	<path fill="#FFFFFF" d="M117.446,34.207c-0.52-0.576-0.779-1.402-0.779-2.479v-0.761h1.976v0.912c0,0.861,0.361,1.292,1.083,1.292
		c0.354,0,0.624-0.104,0.808-0.313c0.183-0.209,0.275-0.548,0.275-1.017c0-0.557-0.127-1.048-0.38-1.473
		c-0.254-0.424-0.722-0.934-1.406-1.529c-0.861-0.76-1.463-1.447-1.805-2.062c-0.342-0.614-0.513-1.308-0.513-2.081
		c0-1.051,0.266-1.864,0.798-2.441c0.532-0.576,1.305-0.864,2.318-0.864c1,0,1.758,0.288,2.271,0.864
		c0.513,0.577,0.77,1.403,0.77,2.48v0.551h-1.976v-0.684c0-0.457-0.089-0.789-0.266-0.998c-0.178-0.209-0.437-0.313-0.779-0.313
		c-0.697,0-1.045,0.425-1.045,1.272c0,0.482,0.13,0.932,0.39,1.35c0.259,0.418,0.731,0.924,1.416,1.52
		c0.874,0.76,1.476,1.451,1.805,2.071c0.33,0.62,0.494,1.349,0.494,2.185c0,1.09-0.269,1.926-0.808,2.508
		c-0.538,0.584-1.32,0.875-2.346,0.875C118.732,35.072,117.966,34.783,117.446,34.207z"/>
</g>
<g>
	<path fill-rule="evenodd" clip-rule="evenodd" fill="#627D53" d="M37.362,150.811c0.608-5.988,2.722-11.875,5.278-17.617
		c5.007-11.25,11.658-21.436,19.966-30.533c2.261-2.476,2.255-2.479-0.206-4.941c-2.665-2.667-5.392-5.275-7.961-8.03
		c-1.294-1.388-2.632-2.229-4.572-1.919c-1.888,0.302-3.307-0.402-4.612-1.837c-2.139-2.351-4.445-4.556-6.755-6.743
		c-1.491-1.412-1.476-2.616,0.036-3.987c1.425-1.294,2.769-2.682,4.092-4.081c1.224-1.293,2.316-1.368,3.602-0.034
		c2.556,2.654,5.132,5.294,7.822,7.809c1.278,1.193,1.019,2.593,0.948,3.954c-0.084,1.628,0.395,2.816,1.603,3.959
		c2.981,2.819,5.98,5.648,8.664,8.742c1.76,2.029,2.744,1.584,4.488-0.002c11.262-10.238,23.937-18.186,38.396-23.15
		c3.014-1.034,6.084-1.82,9.244-2.221c3.932-0.497,5.286,0.864,4.754,4.798c-0.836,6.189-2.958,11.994-5.519,17.637
		c-5.089,11.212-11.786,21.379-20.207,30.371c-1.355,1.448-1.512,2.303,0.064,3.755c3.448,3.175,6.691,6.574,9.974,9.925
		c0.948,0.968,1.823,1.479,3.235,0.874c1.513-0.647,2.854-0.233,4.042,1.022c2.36,2.493,4.786,4.929,7.274,7.294
		c1.451,1.379,1.646,2.558,0.086,3.974c-1.425,1.293-2.783,2.669-4.089,4.083c-1.333,1.446-2.477,1.318-3.789-0.055
		c-2.257-2.361-4.549-4.694-6.938-6.92c-1.26-1.173-2.02-2.411-1.724-4.152c0.357-2.107-0.514-3.586-2.056-5.017
		c-3.068-2.848-6.003-5.845-8.874-8.892c-1.133-1.202-1.781-1.135-2.979-0.034c-11.526,10.595-24.51,18.819-39.392,23.893
		c-3.171,1.081-6.413,1.928-9.759,2.208C38.347,155.204,37.291,154.171,37.362,150.811z M86.215,95.708
		c-4.551,0.274-8.946,2.312-12.908,5.45c-1.356,1.074-0.806,1.898,0.157,2.854c4.935,4.895,9.88,9.78,14.727,14.762
		c1.378,1.417,2.3,1.271,3.383-0.202c2.567-3.491,4.414-7.291,4.992-11.619C97.412,100.624,93.112,95.713,86.215,95.708z
		 M73.541,129.366c4.366-0.265,8.746-2.349,12.728-5.445c1.356-1.054,0.839-1.886-0.134-2.852
		c-4.995-4.951-9.982-9.911-14.911-14.928c-1.191-1.212-2.046-1.149-3.025,0.155c-2.703,3.604-4.692,7.529-5.19,12.057
		C62.317,124.643,66.545,129.351,73.541,129.366z"/>
</g>
</svg>
