<?xml version="1.0" encoding="utf-8"?>
<!-- Generator: Adobe Illustrator 16.0.0, SVG Export Plug-In . SVG Version: 6.00 Build 0)  -->
<!DOCTYPE svg PUBLIC "-//W3C//DTD SVG 1.1//EN" "http://www.w3.org/Graphics/SVG/1.1/DTD/svg11.dtd">
<svg version="1.1" id="Layer_1" xmlns="http://www.w3.org/2000/svg" xmlns:xlink="http://www.w3.org/1999/xlink" x="0px" y="0px"
	 width="157px" height="179px" viewBox="0 0 157 179" enable-background="new 0 0 157 179" xml:space="preserve">
<rect x="1.5" y="1" fill-rule="evenodd" clip-rule="evenodd" fill="#FFFFFF" stroke="#627D53" stroke-width="2" stroke-miterlimit="10" width="155" height="177"/>
<rect x="1.5" fill-rule="evenodd" clip-rule="evenodd" fill="#627D53" width="155" height="56"/>
<g>
	<path fill="#FFFFFF" d="M47.236,34.207c-0.532-0.576-0.798-1.402-0.798-2.479v-6.992c0-1.077,0.266-1.903,0.798-2.48
		c0.532-0.576,1.305-0.864,2.318-0.864c1.013,0,1.786,0.288,2.318,0.864c0.532,0.577,0.798,1.403,0.798,2.48v1.14h-1.976v-1.272
		c0-0.875-0.361-1.312-1.083-1.312c-0.722,0-1.083,0.437-1.083,1.312v7.276c0,0.861,0.361,1.292,1.083,1.292
		c0.722,0,1.083-0.431,1.083-1.292v-2.603h-1.045v-1.9h3.021v4.352c0,1.076-0.266,1.902-0.798,2.479
		c-0.532,0.576-1.305,0.865-2.318,0.865C48.541,35.072,47.768,34.783,47.236,34.207z"/>
	<path fill="#FFFFFF" d="M54.684,34.197c-0.544-0.582-0.817-1.405-0.817-2.469v-6.992c0-1.064,0.272-1.888,0.817-2.471
		c0.544-0.582,1.33-0.874,2.356-0.874c1.026,0,1.812,0.292,2.356,0.874c0.545,0.583,0.817,1.406,0.817,2.471v6.992
		c0,1.063-0.272,1.887-0.817,2.469c-0.544,0.584-1.33,0.875-2.356,0.875C56.014,35.072,55.228,34.781,54.684,34.197z M58.123,31.861
		v-7.258c0-0.875-0.361-1.312-1.083-1.312c-0.722,0-1.083,0.437-1.083,1.312v7.258c0,0.873,0.361,1.311,1.083,1.311
		C57.762,33.172,58.123,32.734,58.123,31.861z"/>
	<path fill="#FFFFFF" d="M61.619,21.582h2.09v11.4h3.439v1.899h-5.529V21.582z"/>
	<path fill="#FFFFFF" d="M68.155,21.582h5.529v1.9h-3.439v3.705h2.698v1.899h-2.698v5.795h-2.09V21.582z"/>
	<path fill="#FFFFFF" d="M78.386,34.217c-0.526-0.57-0.789-1.374-0.789-2.413V24.66c0-1.039,0.263-1.844,0.789-2.413
		c0.525-0.57,1.289-0.855,2.29-0.855c1,0,1.764,0.285,2.29,0.855c0.525,0.569,0.788,1.374,0.788,2.413v1.406h-1.976v-1.539
		c0-0.824-0.349-1.235-1.045-1.235c-0.696,0-1.045,0.411-1.045,1.235v7.429c0,0.811,0.349,1.216,1.045,1.216
		c0.697,0,1.045-0.405,1.045-1.216v-2.033h1.976v1.881c0,1.039-0.263,1.843-0.788,2.413c-0.526,0.57-1.289,0.855-2.29,0.855
		C79.675,35.072,78.912,34.787,78.386,34.217z"/>
	<path fill="#FFFFFF" d="M85.007,21.582h2.09v11.4h3.439v1.899h-5.529V21.582z"/>
	<path fill="#FFFFFF" d="M92.266,34.207c-0.532-0.576-0.798-1.402-0.798-2.479V21.582h2.09V31.88c0,0.456,0.092,0.786,0.275,0.987
		c0.184,0.203,0.447,0.305,0.789,0.305c0.342,0,0.605-0.102,0.789-0.305c0.184-0.201,0.275-0.531,0.275-0.987V21.582H97.7v10.146
		c0,1.076-0.266,1.902-0.798,2.479c-0.532,0.576-1.305,0.865-2.318,0.865S92.798,34.783,92.266,34.207z"/>
	<path fill="#FFFFFF" d="M99.181,21.582h3.154c1.076,0,1.862,0.25,2.356,0.75c0.494,0.501,0.741,1.271,0.741,2.309v0.532
		c0,0.685-0.111,1.241-0.333,1.672s-0.56,0.741-1.016,0.931v0.039c1.038,0.354,1.558,1.279,1.558,2.773v1.141
		c0,1.025-0.269,1.808-0.807,2.346c-0.539,0.539-1.327,0.808-2.366,0.808h-3.287V21.582z M102.088,26.997
		c0.418,0,0.731-0.108,0.94-0.323s0.313-0.576,0.313-1.083V24.85c0-0.48-0.085-0.829-0.256-1.045
		c-0.171-0.215-0.44-0.322-0.808-0.322h-1.007v3.515H102.088z M102.468,32.982c0.367,0,0.64-0.099,0.817-0.295
		s0.266-0.535,0.266-1.017v-1.159c0-0.607-0.104-1.029-0.313-1.264s-0.554-0.352-1.036-0.352h-0.931v4.086H102.468z"/>
	<path fill="#FFFFFF" d="M107.275,34.207c-0.52-0.576-0.779-1.402-0.779-2.479v-0.761h1.976v0.912c0,0.861,0.361,1.292,1.083,1.292
		c0.354,0,0.624-0.104,0.808-0.313c0.183-0.209,0.275-0.548,0.275-1.017c0-0.557-0.127-1.048-0.38-1.473
		c-0.254-0.424-0.722-0.934-1.406-1.529c-0.861-0.76-1.463-1.447-1.805-2.062c-0.342-0.614-0.513-1.308-0.513-2.081
		c0-1.051,0.266-1.864,0.798-2.441c0.532-0.576,1.305-0.864,2.318-0.864c1,0,1.758,0.288,2.271,0.864
		c0.513,0.577,0.77,1.403,0.77,2.48v0.551h-1.976v-0.684c0-0.457-0.089-0.789-0.266-0.998c-0.178-0.209-0.437-0.313-0.779-0.313
		c-0.697,0-1.045,0.425-1.045,1.272c0,0.482,0.13,0.932,0.39,1.35c0.259,0.418,0.731,0.924,1.416,1.52
		c0.874,0.76,1.476,1.451,1.805,2.071c0.33,0.62,0.494,1.349,0.494,2.185c0,1.09-0.269,1.926-0.808,2.508
		c-0.538,0.584-1.32,0.875-2.346,0.875C108.561,35.072,107.794,34.783,107.275,34.207z"/>
</g>
<g>
	<path fill-rule="evenodd" clip-rule="evenodd" fill="#627D53" d="M97.404,99.045c1.729,0.989,3.398,1.922,5.044,2.893
		c0.842,0.496,1.662,1.036,2.452,1.61c0.16,0.116,0.271,0.539,0.186,0.714c-1.082,2.208-2.191,4.402-3.317,6.589
		c-1.061,2.058-2.159,4.096-3.221,6.153c-1.172,2.271-2.18,4.643-3.52,6.811c-1.304,2.109-2.904,4.028-4.677,5.809
		c-1.856,1.865-3.941,3.392-6.145,4.784c-0.267,0.168-0.623,0.194-0.923,0.282c-1.175-1.497-2.34-2.982-3.551-4.526
		c1.926-1.02,3.604-2.35,5.117-3.917c1.433-1.484,2.545-3.176,3.499-4.978c0.536-1.016-0.034-2.336-1.134-2.677
		c-1.515-0.47-3.049-0.883-4.586-1.276c-1.624-0.416-3.254-0.806-4.893-1.155c-0.968-0.206-1.954-0.37-2.939-0.45
		c-2.464-0.2-4.931-0.42-7.401-0.486c-2.763-0.073-5.535-0.069-8.294,0.063c-1.467,0.07-2.925,0.447-4.373,0.757
		c-1.092,0.233-2.157,0.597-3.242,0.869c-1.06,0.266-1.618,0.943-1.652,2.006c-0.049,1.487,0.386,2.864,0.771,4.282
		c0.507,1.868,1.411,3.468,2.624,4.923c0.413,0.495,0.878,0.959,1.379,1.363c0.395,0.318,0.331,0.512,0.03,0.838
		c-0.946,1.024-1.85,2.088-2.805,3.104c-0.138,0.146-0.553,0.247-0.685,0.151c-1.707-1.227-3.438-2.442-4.667-4.193
		c-0.794-1.133-1.648-2.254-2.237-3.493c-0.639-1.345-1.049-2.807-1.467-4.243c-0.237-0.814-0.361-1.678-0.412-2.525
		c-0.105-1.738,0.602-3.252,1.436-4.724c1.1-1.942,2.894-2.97,4.879-3.729c1.828-0.698,3.716-1.078,5.669-1.359
		c3.653-0.526,7.29-0.246,10.933-0.19c1.858,0.028,3.718,0.168,5.567,0.356c1.341,0.137,2.666,0.44,3.998,0.664
		c0.247,0.042,0.499,0.053,0.746,0.096c1.46,0.254,2.918,0.512,4.376,0.773c0.868,0.155,1.738,0.305,2.601,0.485
		c1.209,0.252,2.425,0.486,3.616,0.809c1.964,0.53,3.145,0.056,4.386-1.98c1.58-2.591,3.101-5.218,4.665-7.819
		C95.939,101.337,96.685,100.19,97.404,99.045z"/>
	<path fill-rule="evenodd" clip-rule="evenodd" fill="#627D53" d="M118.786,78.401c-0.231,0.428-13.178,23.511-13.416,23.372
		c-2.102-1.223-4.168-2.506-6.252-3.76C98.491,97.638,109.052,80.991,110.18,79c0.091-0.161,0.112-0.362,0.171-0.566
		c0.908,0,6.076-0.148,6.886-0.042C117.672,78.448,118.122,78.401,118.786,78.401z"/>
</g>
<circle fill-rule="evenodd" clip-rule="evenodd" fill="#627D53" cx="66.854" cy="144.125" r="14.625"/>
</svg>
