<?xml version="1.0" encoding="utf-8"?>
<!-- Generator: Adobe Illustrator 16.0.0, SVG Export Plug-In . SVG Version: 6.00 Build 0)  -->
<!DOCTYPE svg PUBLIC "-//W3C//DTD SVG 1.1//EN" "http://www.w3.org/Graphics/SVG/1.1/DTD/svg11.dtd">
<svg version="1.1" id="Layer_1" xmlns="http://www.w3.org/2000/svg" xmlns:xlink="http://www.w3.org/1999/xlink" x="0px" y="0px"
	 width="157px" height="179px" viewBox="0 0 157 179" enable-background="new 0 0 157 179" xml:space="preserve">
<rect x="1.975" y="1" fill-rule="evenodd" clip-rule="evenodd" fill="#FFFFFF" stroke="#627D53" stroke-width="2" stroke-miterlimit="10" width="155" height="177"/>
<rect x="1.975" fill-rule="evenodd" clip-rule="evenodd" fill="#627D53" width="155" height="56"/>
<g>
	<path fill="#FFFFFF" d="M44.212,21.582h5.7v1.9h-3.61v3.515h2.869v1.9h-2.869v4.085h3.61v1.9h-5.7V21.582z"/>
	<path fill="#FFFFFF" d="M55.518,34.844c-0.393,0.152-0.855,0.228-1.387,0.228c-1.026,0-1.812-0.291-2.356-0.874
		c-0.544-0.583-0.817-1.406-0.817-2.47v-6.992c0-1.064,0.272-1.887,0.817-2.47c0.544-0.582,1.33-0.874,2.356-0.874
		c1.026,0,1.812,0.292,2.356,0.874c0.545,0.583,0.817,1.406,0.817,2.47v6.992c0,0.887-0.197,1.615-0.589,2.185
		c0.076,0.127,0.171,0.209,0.285,0.247c0.114,0.038,0.278,0.057,0.494,0.057h0.323v1.9h-0.551
		C56.315,36.117,55.733,35.692,55.518,34.844z M55.213,31.861v-7.258c0-0.874-0.361-1.311-1.083-1.311
		c-0.722,0-1.083,0.437-1.083,1.311v7.258c0,0.874,0.361,1.311,1.083,1.311C54.853,33.172,55.213,32.735,55.213,31.861z"/>
	<path fill="#FFFFFF" d="M59.432,34.208c-0.532-0.577-0.798-1.403-0.798-2.479V21.582h2.09V31.88c0,0.456,0.092,0.786,0.275,0.988
		c0.184,0.203,0.447,0.304,0.789,0.304c0.342,0,0.605-0.101,0.789-0.304c0.184-0.202,0.275-0.532,0.275-0.988V21.582h2.014v10.146
		c0,1.077-0.266,1.903-0.798,2.479c-0.532,0.576-1.305,0.864-2.318,0.864S59.964,34.784,59.432,34.208z"/>
	<path fill="#FFFFFF" d="M66.347,21.582h5.7v1.9h-3.61v3.515h2.869v1.9h-2.869v4.085h3.61v1.9h-5.7V21.582z"/>
	<path fill="#FFFFFF" d="M73.7,34.208c-0.52-0.577-0.779-1.403-0.779-2.479v-0.76h1.976v0.912c0,0.861,0.361,1.292,1.083,1.292
		c0.354,0,0.624-0.104,0.808-0.313c0.183-0.209,0.275-0.548,0.275-1.017c0-0.557-0.127-1.048-0.38-1.473
		c-0.254-0.424-0.722-0.934-1.406-1.529c-0.861-0.76-1.463-1.447-1.805-2.062c-0.342-0.614-0.513-1.308-0.513-2.081
		c0-1.051,0.266-1.865,0.798-2.441c0.532-0.576,1.305-0.865,2.318-0.865c1,0,1.758,0.289,2.271,0.865
		c0.513,0.577,0.77,1.403,0.77,2.479v0.551H77.14v-0.684c0-0.456-0.089-0.789-0.266-0.998c-0.178-0.209-0.437-0.313-0.779-0.313
		c-0.697,0-1.045,0.424-1.045,1.273c0,0.481,0.13,0.931,0.39,1.349c0.259,0.418,0.731,0.924,1.416,1.52
		c0.874,0.76,1.476,1.451,1.805,2.071c0.33,0.621,0.494,1.349,0.494,2.185c0,1.089-0.269,1.925-0.808,2.508
		c-0.538,0.583-1.32,0.874-2.346,0.874C74.986,35.072,74.22,34.784,73.7,34.208z"/>
	<path fill="#FFFFFF" d="M81.984,23.482h-2.185v-1.9h6.46v1.9h-2.185v11.4h-2.09V23.482z"/>
	<path fill="#FFFFFF" d="M87.266,21.582h3.097c1.077,0,1.862,0.25,2.356,0.75s0.741,1.27,0.741,2.308v0.817
		c0,1.38-0.456,2.254-1.368,2.622v0.038c0.506,0.152,0.865,0.463,1.074,0.931c0.209,0.469,0.313,1.096,0.313,1.881v2.337
		c0,0.38,0.012,0.688,0.038,0.922s0.089,0.465,0.19,0.693h-2.128c-0.076-0.215-0.126-0.418-0.152-0.608s-0.038-0.532-0.038-1.026
		v-2.432c0-0.608-0.098-1.032-0.294-1.273s-0.535-0.361-1.017-0.361h-0.722v5.7h-2.09V21.582z M90.116,27.282
		c0.418,0,0.731-0.107,0.94-0.323s0.313-0.576,0.313-1.083V24.85c0-0.481-0.085-0.829-0.256-1.045
		c-0.171-0.215-0.44-0.323-0.808-0.323h-0.95v3.8H90.116z"/>
	<path fill="#FFFFFF" d="M94.923,21.582h2.09v13.3h-2.09V21.582z"/>
	<path fill="#FFFFFF" d="M100.187,21.582h2.831l2.166,13.3h-2.09l-0.38-2.641v0.038h-2.375l-0.38,2.603h-1.938L100.187,21.582z
		 M102.466,30.474l-0.931-6.574h-0.038l-0.912,6.574H102.466z"/>
	<path fill="#FFFFFF" d="M106.19,21.582h2.622l2.033,7.961h0.038v-7.961h1.862v13.3h-2.147l-2.508-9.709h-0.038v9.709h-1.862V21.582
		z"/>
</g>
<g>
	<path fill-rule="evenodd" clip-rule="evenodd" fill="#627D53" d="M48.399,137.557c2.499-2.346,4.823-4.633,7.271-6.778
		c1.121-0.983,1.247-1.832,0.852-3.277c-1.048-3.837-1.602-7.813-2.718-11.627c-0.989-3.377-2.442-6.623-3.752-9.902
		c-0.314-0.784-0.878-1.47-1.731-2.858c-1.064,4.479-4.141,5.021-7.361,5.595c-1.24,0.222-2.261,1.503-3.51,1.885
		c-1.036,0.317-2.642,0.449-3.284-0.128c-0.563-0.506-0.592-2.432-0.069-3.177c2.087-2.966,4.415-5.773,6.789-8.523
		c1.373-1.591,2.193-3.208,2.057-5.383c-0.068-1.086,0.438-2.207,0.817-3.905c1.106,0.927,2.082,1.345,2.333,2.029
		c0.943,2.564,3.083,2.679,5.246,2.968c7.012,0.938,12.401,4.364,16.107,10.73c-2.93,1.769-5.843,3.527-8.893,5.369
		c0.903,1.842,1.688,3.443,2.602,5.304c4.075-2.079,7.976-3.974,11.781-6.043c2.74-1.49,5.391-0.456,8.767-0.596
		c-1.47,3.09-2.753,5.457-3.699,7.95c-0.348,0.917-0.27,2.374,0.248,3.176c2.611,4.041,5.455,7.932,8.162,11.913
		c0.924,1.358,1.845,1.695,3.41,0.888c5.059-2.608,5.086-2.556,2.565-7.636c-1.169-2.354-2.338-4.709-3.635-7.318
		c2.52-2.465,4.714-5.485,7.671-7.163c1.652-0.938,4.837-0.192,6.837,0.795c1.855,0.917,3.369,2.985,4.448,4.878
		c1,1.754,1.693,3.947,1.7,5.949c0.016,4.901,2.005,8.699,5.555,11.811c1.447,1.267,1.36,2.384,0.456,3.965
		c-2.563,4.482-4.955,9.062-7.54,13.837c-1.202-0.69-2.265-1.3-3.513-2.017c1.921-4.199,3.786-8.278,5.889-12.876
		c-2.702,0-4.981,0.346-7.094-0.1c-2.013-0.424-3.853-1.673-6.307-2.809c2.079-0.991,3.413-1.627,4.746-2.262
		c-0.084-0.3-0.168-0.6-0.251-0.899c-11.231,2.462-22.319,7.478-33.439,2.611c-1.204,0.951-2.06,1.917-3.134,2.411
		c-1.971,0.908-4.037,1.653-6.125,2.253c-2.084,0.598-2.613,1.456-1.431,3.459c1.701,2.883,3.154,5.911,4.86,9.158
		c-1.229,0.681-2.388,1.321-3.851,2.131C55.002,148.162,51.805,143.028,48.399,137.557z"/>
	<path fill-rule="evenodd" clip-rule="evenodd" fill="#627D53" d="M92.659,129.647c-1.494,0.834-2.822,1.577-4.33,2.42
		c-2.901-4.157-5.806-8.203-8.538-12.364c-0.405-0.617-0.24-1.874,0.085-2.659c1.07-2.58,2.335-5.077,3.621-7.811
		c-2-1.255-3.888-2.439-5.918-3.712c1.278-1.806,2.476-3.494,3.673-5.184c-0.289-0.242-0.578-0.484-0.867-0.728
		c-2.536,2.838-4.727,6.129-7.702,8.389c-3.114,2.365-6.98,3.739-10.679,5.63c-0.437-0.822-0.796-1.5-1.381-2.604
		c7.127-2.94,12.759-7.186,13.778-15.336c-0.208-0.144-0.417-0.288-0.624-0.434c-0.563,0.945-1.159,1.874-1.68,2.842
		c-0.546,1.013-1.021,2.064-1.569,3.188c-2.028-1.418-2.691-3.516-1.835-5.146c0.922-1.755,2.764-3.192,4.508-4.28
		c0.9-0.563,2.686-0.497,3.687,0.023c5.523,2.873,11.258,5.518,16.281,9.129c4.882,3.51,4.557,6.158,0.259,10.44
		c-2.168,2.161-5.524,4.173-5.995,6.691c-0.442,2.367,2.201,5.313,3.495,7.999C91.469,127.27,92.034,128.386,92.659,129.647z"/>
	<path fill-rule="evenodd" clip-rule="evenodd" fill="#627D53" d="M62.781,92.964c-3.907-0.016-6.891-3.044-6.82-6.923
		c0.067-3.619,3-6.596,6.568-6.663c3.767-0.071,7.013,3.1,7.012,6.849C69.54,89.923,66.474,92.979,62.781,92.964z"/>
	<path fill-rule="evenodd" clip-rule="evenodd" fill="#627D53" d="M119.741,124.023c-1.726,0.652-3.322,1.255-4.481,1.692
		c-2.682-4.475-5.24-8.743-7.795-13.007C112.519,110.629,118.517,115.985,119.741,124.023z"/>
	<path fill-rule="evenodd" clip-rule="evenodd" fill="#627D53" d="M63.052,138.764c2.021-0.732,3.88-1.407,6.422-2.33
		c-1.125,6.735,3.279,9.752,8.185,12.391c-0.631,1.048-1.032,1.715-1.375,2.286c-0.353,0.039-0.556,0.13-0.687,0.067
		C65.528,146.378,65.227,146.083,63.052,138.764z"/>
	<path fill-rule="evenodd" clip-rule="evenodd" fill="#627D53" d="M94.766,149.188c2.362-2.819,4.614-5.506,6.938-8.28
		c-0.766-0.927-1.428-1.728-2.159-2.611c2.638,0.428,5.095,0.825,7.696,1.248c-0.963,5.425-5.679,8.08-9.108,11.99
		C96.947,150.709,95.94,150.007,94.766,149.188z"/>
</g>
</svg>
