<?xml version="1.0" encoding="utf-8"?>
<!-- Generator: Adobe Illustrator 16.0.0, SVG Export Plug-In . SVG Version: 6.00 Build 0)  -->
<!DOCTYPE svg PUBLIC "-//W3C//DTD SVG 1.1//EN" "http://www.w3.org/Graphics/SVG/1.1/DTD/svg11.dtd">
<svg version="1.1" id="Layer_1" xmlns="http://www.w3.org/2000/svg" xmlns:xlink="http://www.w3.org/1999/xlink" x="0px" y="0px"
	 width="16px" height="16px" viewBox="0 0 16 16" enable-background="new 0 0 16 16" xml:space="preserve">
<g>
	<path fill-rule="evenodd" clip-rule="evenodd" fill="#FFFFFF" d="M3.098,8.19C1.691,7.004,1.819,5.176,2.783,4.164
		C3.803,3.09,5.436,3.03,6.541,4.017c1,0.894,1.379,2.875-0.187,4.193c0.082,0.043,0.155,0.083,0.23,0.119
		c1.299,0.625,2.107,1.65,2.478,3.035c0.017,0.061,0.027,0.123,0.034,0.188c0.027,0.225-0.1,0.414-0.313,0.465
		c-0.193,0.049-0.4-0.064-0.471-0.27c-0.049-0.143-0.072-0.293-0.117-0.436C7.776,9.906,6.542,8.865,5.039,8.75
		C3.541,8.635,2.38,9.266,1.611,10.557c-0.2,0.334-0.305,0.729-0.433,1.102c-0.086,0.252-0.259,0.398-0.48,0.359
		c-0.237-0.041-0.374-0.25-0.314-0.525c0.304-1.406,1.102-2.441,2.375-3.109C2.863,8.328,2.972,8.28,3.079,8.227
		C3.084,8.225,3.086,8.213,3.098,8.19z M4.75,4.127C3.763,4.101,2.895,4.944,2.869,5.956c-0.027,1.062,0.784,1.935,1.82,1.96
		C5.705,7.94,6.571,7.11,6.594,6.089C6.618,5.014,5.812,4.155,4.75,4.127z"/>
	<path fill-rule="evenodd" clip-rule="evenodd" fill="#FFFFFF" d="M8.865,7.381c0.389,0.319,0.837,0.625,1.209,1.006
		c0.666,0.683,0.992,1.541,1.127,2.474c0.036,0.258-0.106,0.463-0.33,0.5c-0.232,0.035-0.434-0.123-0.477-0.395
		c-0.123-0.76-0.393-1.453-0.912-2.033C9.07,8.469,8.56,8.158,7.969,7.982c-0.21-0.063-0.36-0.171-0.389-0.396
		c-0.028-0.21,0.099-0.33,0.257-0.446c1.089-0.797,1.326-2.787-0.276-3.519C7.357,3.528,7.119,3.502,6.893,3.471
		C6.591,3.43,6.417,3.277,6.436,3.033c0.02-0.244,0.217-0.39,0.514-0.377C8.715,2.729,9.922,4.445,9.4,6.177
		C9.272,6.604,9.038,6.999,8.865,7.381z"/>
	<g>
		<path fill="#FFFFFF" d="M13.367,9.549V11.9h2.263v0.602h-2.263v2.371h-0.641v-2.371h-2.264V11.9h2.264V9.549H13.367z"/>
	</g>
</g>
</svg>
