<?xml version="1.0" encoding="utf-8"?>
<!-- Generator: Adobe Illustrator 16.0.0, SVG Export Plug-In . SVG Version: 6.00 Build 0)  -->
<!DOCTYPE svg PUBLIC "-//W3C//DTD SVG 1.1//EN" "http://www.w3.org/Graphics/SVG/1.1/DTD/svg11.dtd">
<svg version="1.1" id="Layer_1" xmlns="http://www.w3.org/2000/svg" xmlns:xlink="http://www.w3.org/1999/xlink" x="0px" y="0px"
	 width="16px" height="16px" viewBox="0 0 16 16" enable-background="new 0 0 16 16" xml:space="preserve">
<g>
	<path fill-rule="evenodd" clip-rule="evenodd" d="M4.449,4.567C4.535,3.085,5.389,1.8,6.713,1.274
		c1.351-0.538,2.854-0.19,3.869,0.894c0.994,1.063,1.257,2.675,0.501,4.027c-1.058,1.888-1.957,3.839-2.701,5.868
		c-0.057,0.154-0.246,0.26-0.374,0.389c-0.125-0.133-0.298-0.242-0.373-0.398c-0.913-1.949-1.828-3.899-2.704-5.865
		C4.704,5.678,4.606,5.109,4.449,4.567z M9.511,4.563c0.001-0.851-0.642-1.504-1.476-1.498c-0.827,0.006-1.489,0.68-1.48,1.508
		C6.563,5.375,7.214,6.03,8.018,6.044C8.853,6.059,9.508,5.408,9.511,4.563z"/>
	<path fill-rule="evenodd" clip-rule="evenodd" d="M5.981,10.977c-0.938,0.201-1.878,0.387-2.809,0.613
		c-0.359,0.086-0.71,0.242-1.037,0.418c-0.659,0.352-0.665,0.691,0.012,1.035c0.473,0.24,0.981,0.443,1.497,0.557
		c3.058,0.674,6.118,0.686,9.156-0.121c0.44-0.115,0.871-0.32,1.264-0.557c0.441-0.264,0.45-0.574-0.006-0.797
		c-0.635-0.309-1.308-0.559-1.989-0.744c-0.664-0.182-1.359-0.246-2.039-0.363c0.036-0.715,0.186-0.898,0.808-0.768
		c1.059,0.225,2.119,0.473,3.146,0.809c0.665,0.219,1.315,0.633,1.322,1.447c0.007,0.84-0.671,1.215-1.333,1.506
		c-1.425,0.627-2.948,0.83-4.482,0.914c-2.162,0.119-4.318,0.057-6.415-0.559c-0.574-0.168-1.152-0.404-1.653-0.725
		c-0.972-0.623-0.965-1.615,0.002-2.248c1.228-0.803,2.641-1.049,4.07-1.152c0.194-0.014,0.419,0.385,0.63,0.59
		C6.076,10.881,6.029,10.93,5.981,10.977z"/>
</g>
</svg>
