<?xml version="1.0" encoding="utf-8"?>
<!-- Generator: Adobe Illustrator 16.0.0, SVG Export Plug-In . SVG Version: 6.00 Build 0)  -->
<!DOCTYPE svg PUBLIC "-//W3C//DTD SVG 1.1//EN" "http://www.w3.org/Graphics/SVG/1.1/DTD/svg11.dtd">
<svg version="1.1" id="Layer_1" xmlns="http://www.w3.org/2000/svg" xmlns:xlink="http://www.w3.org/1999/xlink" x="0px" y="0px"
	 width="16px" height="16px" viewBox="0 0 16 16" enable-background="new 0 0 16 16" xml:space="preserve">
<g>
	<path fill="#0071BC" d="M7.992,15.242v-0.211c-0.453,0-0.904-0.002-1.356-0.002c-0.419,0-0.838,0.002-1.257,0.004H5.378H5.366
		c-0.025,0-0.043-0.002-0.05-0.002H5.313l0,0l-0.018,0.064l0.036-0.058c-0.01-0.009-0.017-0.009-0.018-0.009l-0.018,0.064
		l0.036-0.057l-0.059,0.094l0.101-0.047c-0.007-0.016-0.026-0.039-0.042-0.047l-0.059,0.094l0.101-0.047l-0.066,0.029l0.072-0.012
		l-0.005-0.019l-0.066,0.028L5.38,15.1l-0.012,0.002L5.381,15.1l0,0l-0.012,0.002L5.382,15.1v-0.002c0-0.006,0-0.014,0.002-0.027
		v-0.002c0.008-0.057,0.011-0.112,0.011-0.164c0-0.065-0.004-0.127-0.007-0.184l0,0c-0.002-0.029-0.003-0.057-0.003-0.082
		c0-0.092,0.011-0.166,0.036-0.236c0.025-0.067,0.064-0.139,0.134-0.217c0.205-0.229,0.303-0.516,0.303-0.801
		c0-0.342-0.141-0.682-0.399-0.941l0,0c-0.034-0.034-0.048-0.057-0.057-0.078c-0.008-0.02-0.014-0.045-0.014-0.09v-0.002l0,0H5.245
		l0.136,0.008v-0.008H5.245l0.136,0.008v-0.006V12.27c0.007-0.77,0.008-1.537,0.01-2.305c0-0.021,0.001-0.047,0.001-0.082
		c0.001-0.047,0-0.117-0.036-0.199C5.338,9.643,5.31,9.602,5.273,9.566C5.236,9.533,5.192,9.506,5.146,9.488
		C5.103,9.473,5.055,9.463,5.008,9.463c-0.052,0-0.101,0.012-0.141,0.029C4.807,9.518,4.765,9.553,4.733,9.58
		C4.702,9.609,4.678,9.635,4.662,9.65L4.658,9.654l0.004-0.006c-0.415,0.396-0.822,0.793-1.238,1.178l0,0
		c-0.036,0.033-0.067,0.066-0.095,0.111c-0.028,0.045-0.051,0.104-0.05,0.168c0,0.074,0.028,0.139,0.057,0.182
		c0.029,0.043,0.061,0.074,0.094,0.105c0.479,0.448,0.953,0.905,1.433,1.356c0.202,0.19,0.299,0.427,0.299,0.647
		c0,0.185-0.065,0.355-0.2,0.498c-0.167,0.174-0.36,0.252-0.56,0.252c-0.202,0-0.416-0.082-0.61-0.264
		c-0.583-0.547-1.171-1.082-1.743-1.633c-0.186-0.178-0.333-0.363-0.433-0.559c-0.1-0.193-0.154-0.396-0.154-0.617
		c0-0.129,0.018-0.266,0.059-0.41c0.026-0.094,0.072-0.178,0.137-0.264c0.063-0.084,0.144-0.172,0.229-0.264
		C2.6,9.354,3.314,8.572,4.039,7.801c0.227-0.24,0.484-0.41,0.771-0.53c0.286-0.12,0.602-0.19,0.938-0.225l0,0h0.004V6.992
		l-0.019,0.05c0.011,0.004,0.019,0.004,0.019,0.004V6.992l-0.019,0.05L5.76,6.969L5.699,7.018C5.7,7.021,5.717,7.036,5.734,7.041
		l0.027-0.073l-0.062,0.05l0.014-0.011L5.698,7.018h0.001l0.014-0.011L5.698,7.018l0.004,0.006l0.01,0.021l0,0
		c0.577,1.279,1.155,2.559,1.736,3.836l0,0c0.007,0.016,0.012,0.025,0.012,0.029l0.001,0.002L7.499,10.9L7.46,10.906l0.001,0.006
		L7.499,10.9L7.46,10.906l0.102-0.018H7.458l0.001,0.018l0.102-0.018H7.458H7.6l-0.13-0.058c-0.008,0.021-0.011,0.043-0.011,0.058
		H7.6l-0.13-0.058l0.117,0.051l-0.073-0.104c-0.008,0.004-0.031,0.023-0.044,0.055l0.117,0.051l-0.073-0.105l0.029,0.043
		l-0.025-0.047l-0.004,0.004l0.029,0.043l-0.025-0.047l0,0l-0.016,0.006c-0.016,0.007-0.048,0.013-0.09,0.021
		c-0.062,0.01-0.141,0.016-0.234,0.049c-0.046,0.018-0.098,0.045-0.144,0.086c-0.047,0.043-0.085,0.104-0.104,0.17
		c-0.014,0.045-0.02,0.09-0.02,0.131c0.001,0.102,0.027,0.186,0.051,0.26c0.025,0.074,0.05,0.139,0.063,0.188
		c0.11,0.404,0.227,0.803,0.331,1.201l0,0c0.021,0.078,0.046,0.152,0.11,0.225c0.031,0.037,0.074,0.068,0.12,0.088
		c0.048,0.021,0.099,0.029,0.145,0.029c0.064-0.002,0.121-0.016,0.177-0.033h0.001c0.224-0.075,0.448-0.143,0.671-0.188l0,0
		c0.044-0.01,0.087-0.021,0.128-0.036c0.061-0.025,0.125-0.066,0.17-0.134c0.023-0.032,0.039-0.067,0.049-0.104
		c0.01-0.033,0.014-0.068,0.014-0.103c0-0.071-0.016-0.135-0.035-0.198c-0.133-0.435-0.244-0.879-0.375-1.326
		c-0.012-0.033-0.014-0.058-0.014-0.076c0-0.033,0.006-0.062,0.027-0.107l0.002-0.004v0.002c0.605-1.273,1.209-2.547,1.809-3.826
		v0.001c0.008-0.019,0.015-0.028,0.019-0.032l0.001-0.002l-0.02-0.017l0.017,0.02l0.003-0.003l-0.02-0.017l0.017,0.02L10.348,7.03
		l0.01,0.039l0.014-0.007L10.348,7.03l0.01,0.039l-0.002-0.007l0.002,0.007l0,0l-0.002-0.007l0.002,0.007l0.013-0.001
		c0.006,0,0.014,0,0.022,0.001c0.652,0.068,1.191,0.348,1.637,0.816c0.758,0.8,1.492,1.622,2.236,2.437
		c0.1,0.109,0.166,0.222,0.209,0.337c0.045,0.112,0.064,0.233,0.065,0.362c0,0.123-0.021,0.256-0.06,0.396
		c-0.086,0.319-0.263,0.586-0.514,0.819l0,0c-0.599,0.562-1.193,1.121-1.794,1.677c-0.179,0.166-0.378,0.239-0.569,0.239
		c-0.207,0-0.41-0.086-0.578-0.266l0,0c-0.131-0.143-0.193-0.314-0.193-0.496c0-0.209,0.087-0.428,0.271-0.606l0,0
		c0.479-0.464,0.959-0.921,1.444-1.371l0,0c0.035-0.033,0.069-0.067,0.103-0.112c0.016-0.023,0.031-0.05,0.041-0.082
		c0.013-0.031,0.02-0.068,0.02-0.107c0.002-0.068-0.021-0.131-0.052-0.176c-0.03-0.049-0.063-0.084-0.104-0.121l0,0
		c-0.41-0.377-0.811-0.771-1.222-1.162h0.002c-0.022-0.021-0.056-0.059-0.106-0.1c-0.025-0.021-0.06-0.041-0.1-0.06
		c-0.04-0.017-0.089-0.027-0.141-0.027c-0.049,0-0.098,0.011-0.143,0.027h0.002c-0.048,0.019-0.094,0.045-0.131,0.081
		c-0.058,0.056-0.09,0.125-0.104,0.183c-0.014,0.06-0.016,0.106-0.016,0.147c0,0.023,0,0.05,0.002,0.068l0.209-0.004H10.6
		c0.002,0.77,0.002,1.537,0.008,2.307v-0.002v0.008c0,0.048-0.006,0.074-0.014,0.097c-0.01,0.022-0.021,0.045-0.055,0.076l0,0
		c-0.258,0.265-0.393,0.597-0.391,0.931c-0.002,0.346,0.143,0.689,0.416,0.956c0.022,0.024,0.033,0.041,0.035,0.048
		c0.006,0.01,0.006,0.014,0.008,0.039l0,0v0.016l0.211-0.004l-0.211-0.006c-0.004,0.11-0.008,0.229-0.008,0.346
		c0,0.094,0.002,0.189,0.008,0.287l0,0l0.002,0.021L10.607,15.1l0,0l0.08,0.019l-0.064-0.046c-0.012,0.015-0.014,0.025-0.016,0.027
		l0.08,0.019l-0.064-0.046l0.092,0.064l-0.064-0.095c-0.01,0.009-0.021,0.021-0.026,0.03l0.092,0.064l-0.063-0.095l0.049,0.071
		l-0.03-0.082l-0.019,0.011l0.049,0.071l-0.03-0.082l0.011,0.029l-0.008-0.029h-0.003l0.011,0.029l-0.008-0.029
		c0,0-0.015,0.003-0.041,0.003h-0.006v0.211l0.002-0.211c-0.438-0.003-0.873-0.005-1.311-0.005c-0.441,0-0.883,0.002-1.324,0.002
		v0.211v0.209c0.441,0,0.883,0,1.324,0c0.436,0,0.871,0,1.307,0.006h0.002h0.001h0.005c0.045,0,0.088-0.004,0.135-0.014
		c0.033-0.008,0.072-0.021,0.109-0.043c0.057-0.033,0.105-0.094,0.127-0.152c0.023-0.059,0.029-0.113,0.029-0.164
		c0-0.014,0-0.031-0.002-0.049v0.002c-0.006-0.086-0.006-0.174-0.006-0.262c0-0.109,0.002-0.221,0.006-0.334v-0.002v-0.008l0,0
		v-0.009c0-0.071-0.014-0.147-0.047-0.217c-0.03-0.065-0.075-0.123-0.123-0.17c-0.196-0.19-0.289-0.425-0.289-0.656
		c0-0.224,0.086-0.444,0.271-0.633H10.84c0.063-0.063,0.115-0.138,0.146-0.222c0.031-0.082,0.043-0.168,0.043-0.248V12.27l0,0
		c-0.006-0.766-0.006-1.533-0.008-2.303V9.965c0-0.023-0.002-0.045-0.002-0.063c0-0.021,0.002-0.031,0.002-0.041l0.002-0.004V9.855
		l-0.049-0.015l0.037,0.031l0.012-0.019L10.975,9.84l0.037,0.031L10.975,9.84l0.027,0.043l0.01-0.01L10.975,9.84l0.027,0.043
		L10.99,9.865L11,9.883h0.002L10.99,9.865L11,9.883h0.002h0.001l-0.015-0.041v0.041h0.015l-0.015-0.041v0.041V9.822l-0.024,0.059
		c0.003,0.002,0.015,0.002,0.024,0.002V9.822l-0.024,0.059l0.009-0.02l-0.012,0.018l0.003,0.002l0.009-0.02l-0.012,0.018
		c0,0,0.01,0.006,0.023,0.02c0.015,0.015,0.033,0.033,0.059,0.056l0,0c0.405,0.39,0.807,0.784,1.227,1.17v-0.002
		c0.01,0.013,0.019,0.021,0.021,0.024l0.008,0.008l0,0l0.075-0.047h-0.086c0,0.027,0.01,0.047,0.011,0.047l0.075-0.047h-0.086h0.106
		l-0.101-0.037c-0.004,0.009-0.007,0.023-0.007,0.037h0.107l-0.102-0.037l0.057,0.021l-0.05-0.033l-0.005,0.012l0.057,0.021
		L12.3,11.059v0.002v-0.002l0,0v0.002v-0.002c-0.002,0.004-0.017,0.021-0.041,0.043l0,0c-0.487,0.453-0.97,0.912-1.45,1.377l0,0
		c-0.263,0.252-0.401,0.584-0.401,0.91c0,0.281,0.104,0.563,0.307,0.781l0,0c0.241,0.262,0.563,0.402,0.89,0.402
		c0.303,0,0.606-0.121,0.856-0.352c0.603-0.558,1.197-1.117,1.795-1.679l0,0c0.295-0.274,0.522-0.61,0.634-1.019
		c0.047-0.168,0.072-0.338,0.072-0.506c0-0.174-0.027-0.348-0.092-0.516c-0.063-0.164-0.161-0.322-0.292-0.469
		c-0.744-0.814-1.479-1.639-2.242-2.443c-0.506-0.535-1.147-0.871-1.899-0.946c-0.021-0.003-0.045-0.004-0.066-0.004
		c-0.039,0-0.08,0.004-0.123,0.015c-0.063,0.017-0.126,0.054-0.172,0.101c-0.047,0.047-0.076,0.098-0.102,0.15V6.91
		C9.372,8.186,8.77,9.459,8.164,10.732V10.73c-0.044,0.09-0.071,0.19-0.07,0.293c0,0.065,0.012,0.133,0.029,0.195
		c0.128,0.436,0.24,0.885,0.377,1.332c0.014,0.043,0.018,0.071,0.018,0.073l0,0l0,0l0,0l0,0l0,0l0.064,0.006l-0.057-0.026
		c-0.008,0.012-0.008,0.021-0.008,0.021l0.063,0.006l-0.058-0.026L8.6,12.639L8.541,12.58l-0.016,0.023L8.6,12.639L8.541,12.58
		l0.033,0.035l-0.026-0.041L8.541,12.58l0.033,0.035l-0.026-0.041l0.003,0.002l-0.002-0.002H8.548l0.003,0.002l-0.002-0.002
		c-0.002,0-0.021,0.01-0.055,0.016h0.001c-0.249,0.051-0.489,0.123-0.721,0.201l0,0c-0.015,0.006-0.025,0.008-0.034,0.008
		l-0.01,0.002v0.059l0.022-0.051C7.74,12.801,7.73,12.801,7.73,12.801v0.059l0.022-0.051L7.72,12.881l0.055-0.061l-0.023-0.012
		L7.72,12.881l0.055-0.061l-0.033,0.037l0.04-0.029L7.775,12.82l-0.033,0.037l0.04-0.029L7.779,12.83l0.003-0.002l0,0L7.779,12.83
		l0.003-0.002c-0.001,0-0.01-0.018-0.018-0.051l0,0c-0.106-0.408-0.224-0.807-0.332-1.205c-0.022-0.08-0.05-0.15-0.07-0.211
		c-0.021-0.061-0.03-0.109-0.03-0.127v-0.008l-0.038-0.013l0.031,0.022l0.007-0.012l-0.038-0.012l0.031,0.023l-0.034-0.027
		l0.025,0.037l0.008-0.01L7.29,11.209l0.025,0.037L7.313,11.24l0.004,0.008l0,0L7.313,11.24l0.004,0.008
		c0.001-0.004,0.041-0.016,0.099-0.023c0.059-0.01,0.133-0.018,0.22-0.045c0.051-0.018,0.102-0.037,0.154-0.086
		C7.817,11.07,7.841,11.037,7.858,11c0.016-0.037,0.022-0.078,0.022-0.111c-0.001-0.045-0.009-0.078-0.018-0.107
		c-0.009-0.028-0.021-0.053-0.03-0.075v0.002c-0.581-1.28-1.159-2.557-1.735-3.836l0,0C6.076,6.826,6.049,6.769,5.99,6.713
		C5.96,6.686,5.922,6.661,5.88,6.646S5.793,6.625,5.752,6.625c-0.017,0-0.033,0-0.048,0.002l0,0C5.337,6.665,4.98,6.742,4.646,6.882
		S4,7.226,3.732,7.512C3.004,8.287,2.288,9.07,1.574,9.854c-0.081,0.09-0.172,0.185-0.256,0.297
		c-0.084,0.111-0.161,0.242-0.205,0.402c-0.05,0.18-0.074,0.354-0.074,0.523c0,0.293,0.074,0.564,0.201,0.811
		c0.127,0.248,0.305,0.467,0.516,0.67c0.577,0.555,1.167,1.092,1.747,1.637c0.262,0.246,0.58,0.379,0.899,0.379
		c0.316,0,0.626-0.133,0.865-0.385c0.212-0.219,0.318-0.504,0.317-0.789c0-0.346-0.151-0.69-0.432-0.957
		c-0.478-0.448-0.952-0.905-1.434-1.354c-0.01-0.01-0.018-0.019-0.023-0.022l-0.006-0.008l0,0l-0.081,0.051h0.094
		c0-0.029-0.013-0.051-0.013-0.051l-0.081,0.051h0.094H3.604l0.084,0.053c0.002-0.002,0.013-0.023,0.013-0.053H3.604l0.084,0.053
		l-0.015-0.01l0.015,0.01l0,0l-0.015-0.01l0.015,0.01c0,0,0.007-0.008,0.022-0.021l0,0c0.421-0.391,0.83-0.789,1.242-1.182h0.001
		C4.991,9.92,5.017,9.893,5.029,9.883l0.005-0.004l0,0L5.008,9.83v0.055c0.013,0,0.026-0.006,0.026-0.006L5.008,9.83v0.055V9.828
		L4.997,9.883l0.011,0.002V9.828L4.997,9.883l0.004-0.021L4.994,9.883h0.003l0.004-0.021L4.994,9.883h0.001l0.02-0.041L4.982,9.873
		l0.013,0.01l0.02-0.041L4.982,9.873L5.03,9.828L4.972,9.857l0.01,0.016L5.03,9.828L4.972,9.857l0.034-0.017L4.969,9.852
		l0.002,0.006l0.034-0.017L4.968,9.852h0.001l0,0l0,0H4.97H4.969c0,0,0.002,0.014,0.002,0.035c0,0.02-0.001,0.047-0.001,0.08
		c-0.002,0.77-0.003,1.537-0.01,2.303l0.211,0.002l-0.21-0.014c-0.001,0.016,0,0.021,0,0.021c0,0.084,0.013,0.172,0.046,0.254
		c0.034,0.082,0.087,0.152,0.149,0.213l0,0c0.181,0.182,0.276,0.418,0.275,0.643c0,0.189-0.062,0.369-0.196,0.521
		c-0.1,0.112-0.172,0.231-0.216,0.356c-0.045,0.123-0.061,0.25-0.061,0.377c0,0.035,0.001,0.072,0.004,0.109V14.75
		c0.003,0.057,0.006,0.109,0.006,0.158c0,0.039-0.002,0.074-0.006,0.107l0,0c-0.004,0.026-0.006,0.057-0.006,0.086
		c0,0.051,0.007,0.104,0.032,0.16c0.019,0.041,0.048,0.079,0.084,0.108c0.053,0.045,0.111,0.063,0.159,0.071
		c0.049,0.011,0.092,0.013,0.136,0.013h0.017H5.382c0.417-0.005,0.835-0.005,1.254-0.005c0.452,0,0.904,0,1.356,0V15.242z"/>
	<path fill="#0071BC" d="M8.182,1.446L8.181,1.657c1.12,0.001,2.014,0.896,2.014,2.002v0.02l0.212-0.004l-0.212-0.002
		C10.188,4.788,9.289,5.68,8.171,5.68h-0.01l0.002,0.211V5.68C7.048,5.677,6.149,4.775,6.149,3.661V3.659L5.975,3.66l0.173,0.016
		c0.001-0.012,0.001-0.017,0.001-0.017L5.975,3.66l0.173,0.016l0.001-0.01V3.657C6.15,3.097,6.375,2.6,6.74,2.239
		c0.366-0.361,0.871-0.582,1.438-0.583H8.18V1.511L8.176,1.657H8.18V1.511L8.176,1.657h0.001H8.18L8.182,1.446l0.005-0.21H8.18
		H8.178c-0.679,0-1.292,0.267-1.734,0.703C6.001,2.375,5.729,2.982,5.727,3.655l0.211,0.001l-0.21-0.02c0,0.01,0,0.017,0,0.021
		v0.004l0,0c0,1.346,1.088,2.437,2.436,2.441h0.001h0.002h0.005c1.35,0,2.438-1.08,2.447-2.427V3.669V3.67V3.659
		c0-1.341-1.088-2.423-2.437-2.423V1.446l0.005-0.21L8.182,1.446z"/>
	<path fill="#0071BC" d="M9.65,6.844L9.507,6.778c-0.538,1.155-1.075,2.31-1.631,3.507l0.143,0.066l0.145-0.064
		c-0.099-0.221-0.182-0.402-0.262-0.582V9.703C7.493,8.791,7.088,7.878,6.675,6.966C6.662,6.938,6.652,6.915,6.646,6.9L6.643,6.885
		l0,0L6.594,6.892h0.049V6.885L6.594,6.892h0.049H6.545l0.082,0.051C6.64,6.923,6.643,6.9,6.643,6.892H6.545l0.082,0.051L6.543,6.89
		l0.052,0.084C6.604,6.97,6.617,6.959,6.627,6.943L6.543,6.89l0.052,0.084L6.567,6.929L6.584,6.98l0.011-0.005L6.567,6.929
		L6.584,6.98l0,0C6.588,6.979,6.612,6.975,6.65,6.975h0.007h0.001c0.269,0.003,0.538,0.003,0.807,0.003
		c0.652,0,1.303-0.005,1.956-0.005h0.002c0.043,0,0.073-0.005,0.095-0.004c0.026,0,0.035,0.001,0.057,0.012L9.65,6.844L9.507,6.778
		L9.65,6.844l0.078-0.138C9.652,6.663,9.572,6.652,9.518,6.653c-0.045,0-0.078,0.004-0.096,0.003H9.42
		c-0.652,0-1.305,0.006-1.956,0.006c-0.268,0-0.536-0.001-0.804-0.004h0.002H6.65C6.579,6.661,6.522,6.663,6.455,6.692
		C6.422,6.707,6.385,6.734,6.36,6.773C6.334,6.812,6.326,6.857,6.326,6.892c0,0.046,0.011,0.08,0.022,0.111
		c0.011,0.033,0.024,0.062,0.039,0.094c0.412,0.91,0.817,1.823,1.225,2.735l0,0c0.081,0.184,0.164,0.365,0.263,0.584l0.142,0.314
		l0.146-0.313c0.556-1.196,1.093-2.352,1.63-3.506l0.063-0.133L9.729,6.707L9.65,6.844z"/>
	<path fill="#0071BC" d="M8.173,10.902l-0.158-0.01c-0.001,0.02-0.004,0.03-0.007,0.039l-0.003,0.006l0.006,0.006l-0.003-0.008
		l-0.003,0.002l0.006,0.006l-0.003-0.008c0,0-0.005,0.002-0.018,0.002l0,0H7.988c-0.012,0-0.02-0.002-0.023-0.004H7.963L7.96,10.939
		l0.005-0.006H7.963L7.96,10.939l0.005-0.006L7.96,10.939l0.006-0.004l-0.001-0.002L7.96,10.939l0.006-0.004l-0.001-0.004
		c-0.001-0.004-0.002-0.011-0.002-0.021V10.91H7.897l0.065,0.002V10.91H7.897l0.065,0.002l-0.116-0.004l0.116,0.012v-0.008
		l-0.116-0.004l0.116,0.012v-0.006v-0.008c0-0.012,0.002-0.02,0.003-0.021l0.001-0.004H7.961l0.005,0.002l0.001-0.002H7.961
		l0.005,0.002l-0.007-0.006l0.006,0.008l0.001-0.002l-0.007-0.006l0.006,0.008l0,0c0,0,0.006-0.004,0.021-0.004l0,0h0.002
		l-0.001-0.08v0.08h0.001l-0.001-0.08v0.08c0.014,0,0.021,0.004,0.023,0.004l0,0l0.004-0.006l-0.006,0.004l0.002,0.002l0.004-0.006
		l-0.006,0.004l0,0l0,0l0,0l0,0l0,0c0.001,0.002,0.005,0.012,0.007,0.031L8.173,10.902l-0.158-0.01L8.173,10.902l0.158-0.012
		c-0.007-0.078-0.031-0.162-0.095-0.228c-0.031-0.033-0.071-0.06-0.115-0.076c-0.043-0.017-0.088-0.021-0.135-0.021H7.981h0.001
		c-0.044,0-0.089,0.008-0.131,0.021c-0.062,0.024-0.119,0.069-0.153,0.127c-0.035,0.058-0.05,0.121-0.051,0.185l0.158,0.004
		l-0.158-0.018c-0.001,0.018,0,0.026-0.001,0.026c0,0.043,0.006,0.088,0.022,0.131c0.023,0.063,0.068,0.123,0.128,0.157
		c0.058,0.037,0.126,0.054,0.192,0.054h0.006l0,0c0.043,0,0.086-0.006,0.128-0.022c0.063-0.023,0.12-0.07,0.154-0.129
		c0.036-0.06,0.051-0.123,0.056-0.189v-0.01v-0.012L8.173,10.902z"/>
</g>
</svg>
