<?xml version="1.0" encoding="utf-8"?>
<!-- Generator: Adobe Illustrator 16.0.0, SVG Export Plug-In . SVG Version: 6.00 Build 0)  -->
<!DOCTYPE svg PUBLIC "-//W3C//DTD SVG 1.1//EN" "http://www.w3.org/Graphics/SVG/1.1/DTD/svg11.dtd">
<svg version="1.1" id="Layer_1" xmlns="http://www.w3.org/2000/svg" xmlns:xlink="http://www.w3.org/1999/xlink" x="0px" y="0px"
	 width="16px" height="16px" viewBox="0 0 16 16" enable-background="new 0 0 16 16" xml:space="preserve">
<g>
	<path fill-rule="evenodd" clip-rule="evenodd" d="M15.263,9.259c-0.228,0.598-0.661,0.847-1.299,0.815
		c-0.557-0.028-1.116,0-1.674-0.008c-0.784-0.009-1.165-0.396-1.167-1.169c-0.001-0.635-0.004-1.268,0.001-1.902
		c0.004-0.607,0.367-1.032,0.976-1.06c0.729-0.033,1.461-0.024,2.189-0.001c0.513,0.017,0.793,0.363,0.974,0.806
		C15.263,7.58,15.263,8.419,15.263,9.259z M14.222,6.974c-0.687,0-1.364,0-2.04,0c0,0.697,0,1.377,0,2.048c0.696,0,1.364,0,2.04,0
		C14.222,8.328,14.222,7.665,14.222,6.974z"/>
	<path fill-rule="evenodd" clip-rule="evenodd" d="M9.259,0.737c0.598,0.228,0.848,0.66,0.814,1.298
		c-0.029,0.557-0.002,1.116-0.008,1.675c-0.008,0.778-0.397,1.165-1.169,1.166c-0.633,0-1.266,0.003-1.9,0
		c-0.607-0.004-1.031-0.37-1.055-0.977C5.912,3.17,5.919,2.439,5.938,1.71C5.952,1.192,6.3,0.918,6.742,0.737
		C7.581,0.737,8.42,0.737,9.259,0.737z M6.966,3.821c0.706,0,1.384,0,2.057,0c0-0.697,0-1.365,0-2.029c-0.699,0-1.37,0-2.057,0
		C6.966,2.472,6.966,3.133,6.966,3.821z"/>
	<path fill-rule="evenodd" clip-rule="evenodd" d="M0.737,11.905c0.25-0.604,0.702-0.832,1.348-0.789
		c0.566,0.036,1.138,0.003,1.706,0.008c0.667,0.005,1.079,0.416,1.085,1.086c0.005,0.568-0.027,1.14,0.008,1.706
		c0.041,0.645-0.183,1.1-0.791,1.347c-0.839,0-1.678,0-2.517,0c-0.426-0.134-0.705-0.415-0.84-0.839
		C0.737,13.584,0.737,12.744,0.737,11.905z M1.795,12.164c0,0.708,0,1.377,0,2.04c0.695,0,1.366,0,2.026,0c0-0.694,0-1.365,0-2.04
		C3.134,12.164,2.472,12.164,1.795,12.164z"/>
	<path fill-rule="evenodd" clip-rule="evenodd" d="M6.742,15.263c-0.608-0.222-0.847-0.665-0.821-1.299
		c0.024-0.57,0-1.141,0.007-1.711c0.009-0.73,0.416-1.127,1.149-1.13c0.635-0.001,1.269-0.004,1.904,0.001
		c0.642,0.005,1.06,0.392,1.078,1.03c0.019,0.688,0.008,1.377,0.004,2.065c-0.003,0.55-0.334,0.852-0.805,1.043
		C8.42,15.263,7.581,15.263,6.742,15.263z M6.965,14.21c0.709,0,1.38,0,2.065,0c0-0.688,0-1.358,0-2.033c-0.699,0-1.377,0-2.065,0
		C6.965,12.864,6.965,13.525,6.965,14.21z"/>
	<path fill-rule="evenodd" clip-rule="evenodd" d="M4.03,0.737c0.68,0.276,0.847,0.524,0.847,1.262c0,0.601,0.004,1.201-0.001,1.801
		C4.87,4.47,4.459,4.873,3.785,4.875C3.217,4.878,2.646,4.846,2.081,4.884C1.435,4.927,0.983,4.7,0.737,4.094
		c0-0.839,0-1.678,0-2.518C0.87,1.15,1.153,0.873,1.577,0.737C2.395,0.737,3.212,0.737,4.03,0.737z M3.833,1.797
		c-0.709,0-1.378,0-2.038,0c0,0.696,0,1.367,0,2.026c0.695,0,1.366,0,2.038,0C3.833,3.133,3.833,2.471,3.833,1.797z"/>
	<path fill-rule="evenodd" clip-rule="evenodd" d="M15.263,4.094c-0.247,0.605-0.699,0.831-1.345,0.79
		c-0.576-0.037-1.158-0.005-1.737-0.008c-0.633-0.004-1.048-0.413-1.056-1.044c-0.007-0.611-0.002-1.223-0.002-1.834
		c0-0.742,0.163-0.984,0.848-1.26c0.817,0,1.636,0,2.453,0c0.427,0.133,0.701,0.417,0.839,0.839
		C15.263,2.416,15.263,3.254,15.263,4.094z M14.217,1.792c-0.699,0-1.369,0-2.042,0c0,0.69,0,1.36,0,2.036c0.69,0,1.36,0,2.042,0
		C14.217,3.144,14.217,2.481,14.217,1.792z"/>
	<path fill-rule="evenodd" clip-rule="evenodd" d="M11.906,15.263c-0.607-0.246-0.832-0.7-0.791-1.345
		c0.036-0.577,0.004-1.157,0.009-1.736c0.005-0.628,0.421-1.049,1.046-1.056c0.6-0.008,1.199-0.003,1.8-0.003
		c0.776,0,0.998,0.146,1.293,0.848c0,0.817,0,1.635,0,2.453c-0.137,0.423-0.416,0.701-0.839,0.839
		C13.584,15.263,12.745,15.263,11.906,15.263z M12.175,12.163c0,0.701,0,1.371,0,2.045c0.69,0,1.36,0,2.035,0
		c0-0.692,0-1.362,0-2.045C13.527,12.163,12.865,12.163,12.175,12.163z"/>
	<path fill-rule="evenodd" clip-rule="evenodd" d="M0.737,6.741c0.223-0.608,0.666-0.844,1.3-0.815
		c0.569,0.025,1.14-0.001,1.71,0.007c0.734,0.01,1.126,0.412,1.129,1.147c0.003,0.624,0.003,1.248,0,1.872
		c-0.003,0.684-0.382,1.091-1.064,1.109C3.157,10.08,2.5,10.063,1.844,10.068c-0.573,0.005-0.908-0.307-1.107-0.81
		C0.737,8.419,0.737,7.58,0.737,6.741z M3.821,9.032c0-0.703,0-1.382,0-2.059c-0.696,0-1.365,0-2.032,0c0,0.699,0,1.371,0,2.059
		C2.469,9.032,3.13,9.032,3.821,9.032z"/>
	<path fill-rule="evenodd" clip-rule="evenodd" d="M10.056,8.03c0,0.364,0.018,0.73-0.005,1.094
		c-0.031,0.501-0.369,0.894-0.869,0.919c-0.791,0.038-1.588,0.036-2.379-0.003c-0.487-0.022-0.834-0.396-0.854-0.892
		C5.918,8.388,5.916,7.624,5.947,6.863c0.021-0.53,0.407-0.898,0.943-0.917c0.74-0.025,1.482-0.025,2.222,0.002
		c0.547,0.021,0.896,0.405,0.945,0.954c0.003,0.032,0.008,0.064,0.008,0.097c0,0.343,0,0.687,0,1.031
		C10.063,8.03,10.06,8.03,10.056,8.03z M6.972,6.965c0,0.708,0,1.377,0,2.057c0.7,0,1.378,0,2.059,0c0-0.697,0-1.368,0-2.057
		C8.339,6.965,7.667,6.965,6.972,6.965z"/>
</g>
</svg>
