<?xml version="1.0" encoding="utf-8"?>
<!-- Generator: Adobe Illustrator 16.0.0, SVG Export Plug-In . SVG Version: 6.00 Build 0)  -->
<!DOCTYPE svg PUBLIC "-//W3C//DTD SVG 1.1//EN" "http://www.w3.org/Graphics/SVG/1.1/DTD/svg11.dtd">
<svg version="1.1" id="Layer_1" xmlns="http://www.w3.org/2000/svg" xmlns:xlink="http://www.w3.org/1999/xlink" x="0px" y="0px"
	 width="16px" height="16px" viewBox="0 0 16 16" enable-background="new 0 0 16 16" xml:space="preserve">
<g>
	<path fill-rule="evenodd" clip-rule="evenodd" fill="#FFFFFF" d="M3.037,8.436C1.858,7.44,1.965,5.91,2.773,5.06
		c0.854-0.898,2.223-0.949,3.148-0.123c0.838,0.75,1.155,2.41-0.157,3.514c0.069,0.035,0.13,0.068,0.193,0.098
		c1.088,0.525,1.767,1.383,2.075,2.543c0.014,0.051,0.023,0.105,0.029,0.158c0.023,0.188-0.084,0.348-0.262,0.391
		c-0.162,0.041-0.334-0.055-0.394-0.229c-0.041-0.119-0.062-0.244-0.098-0.365C6.957,9.871,5.923,9.002,4.663,8.904
		c-1.254-0.098-2.227,0.432-2.871,1.512c-0.167,0.279-0.255,0.611-0.363,0.924c-0.073,0.209-0.218,0.334-0.403,0.301
		c-0.198-0.037-0.313-0.211-0.263-0.439c0.255-1.178,0.923-2.045,1.99-2.605C2.84,8.549,2.932,8.51,3.021,8.465
		C3.026,8.463,3.027,8.455,3.037,8.436z M4.42,5.03C3.594,5.008,2.867,5.715,2.845,6.562C2.822,7.451,3.502,8.182,4.37,8.205
		c0.852,0.02,1.577-0.676,1.597-1.532C5.986,5.773,5.311,5.054,4.42,5.03z"/>
	<path fill-rule="evenodd" clip-rule="evenodd" fill="#FFFFFF" d="M10.771,8.436C9.594,7.44,9.7,5.91,10.508,5.06
		c0.854-0.898,2.223-0.949,3.148-0.123c0.838,0.75,1.154,2.41-0.156,3.514c0.068,0.035,0.129,0.068,0.192,0.098
		c1.089,0.525,1.767,1.383,2.075,2.543c0.014,0.051,0.023,0.105,0.029,0.158c0.023,0.188-0.084,0.348-0.263,0.391
		c-0.161,0.041-0.333-0.055-0.394-0.229c-0.041-0.119-0.062-0.244-0.098-0.365c-0.353-1.176-1.385-2.045-2.646-2.143
		c-1.255-0.098-2.228,0.432-2.872,1.512c-0.166,0.279-0.254,0.611-0.362,0.924c-0.071,0.209-0.217,0.334-0.402,0.301
		c-0.198-0.037-0.313-0.211-0.263-0.439c0.254-1.178,0.923-2.045,1.99-2.605c0.088-0.047,0.179-0.086,0.269-0.131
		C10.761,8.463,10.762,8.455,10.771,8.436z M12.155,5.03c-0.826-0.022-1.554,0.686-1.575,1.532c-0.022,0.889,0.656,1.62,1.525,1.643
		c0.851,0.02,1.576-0.676,1.596-1.532C13.722,5.773,13.045,5.054,12.155,5.03z"/>
</g>
</svg>
