<?xml version="1.0" encoding="utf-8"?>
<!-- Generator: Adobe Illustrator 16.0.0, SVG Export Plug-In . SVG Version: 6.00 Build 0)  -->
<!DOCTYPE svg PUBLIC "-//W3C//DTD SVG 1.1//EN" "http://www.w3.org/Graphics/SVG/1.1/DTD/svg11.dtd">
<svg version="1.1" id="Layer_1" xmlns="http://www.w3.org/2000/svg" xmlns:xlink="http://www.w3.org/1999/xlink" x="0px" y="0px"
	 width="16px" height="16px" viewBox="0 0 16 16" enable-background="new 0 0 16 16" xml:space="preserve">
<g>
	<path fill="#0071BC" d="M7.967,13.988c-1.604,0.002-3.208-0.004-4.813,0.004c-0.574,0.002-1.106-0.123-1.567-0.473
		C0.933,13.023,0.6,12.361,0.6,11.539c0-2.418-0.004-4.833,0.003-7.25c0.003-0.937,0.45-1.616,1.271-2.052
		c0.335-0.179,0.703-0.229,1.078-0.229c2.188,0,4.374,0.001,6.562,0c0.938,0,1.639,0.406,2.1,1.223
		c0.199,0.353,0.266,0.743,0.268,1.144c0.006,1.026,0.001,2.054,0.001,3.082c0,0.217,0.001,0.218,0.222,0.218
		c0.322,0,0.646-0.004,0.97,0.001c0.964,0.017,1.679,0.45,2.12,1.31c0.148,0.289,0.214,0.605,0.211,0.935
		c-0.004,0.589,0.004,1.177-0.006,1.763c-0.02,1.012-0.719,1.877-1.633,2.176c-0.287,0.094-0.604,0.125-0.908,0.127
		C11.227,13.996,9.598,13.988,7.967,13.988z M6.771,12.66L6.771,12.66c1.268,0,2.534,0,3.801,0c0.195,0,0.22-0.025,0.15-0.184
		c-0.142-0.33-0.179-0.679-0.179-1.031c0.001-2.191,0-4.384,0-6.576c0-0.19,0.008-0.382-0.002-0.572
		c-0.021-0.39-0.174-0.712-0.55-0.861C9.809,3.363,9.596,3.343,9.395,3.341C7.77,3.334,6.146,3.337,4.521,3.337
		c-0.528,0-1.057,0-1.585,0c-0.212,0-0.417,0.03-0.596,0.162C2.065,3.701,1.93,3.966,1.931,4.312
		c0.004,1.918,0.001,3.836,0.001,5.752c0,0.49,0.001,0.979-0.001,1.47c0,0.209,0.032,0.407,0.147,0.588
		c0.236,0.366,0.569,0.541,1.008,0.537C4.314,12.656,5.543,12.66,6.771,12.66z M14.068,10.775c0,0,0,0,0.002,0
		c0-0.273-0.006-0.549,0.002-0.822c0.012-0.535-0.432-0.945-0.965-0.951C12.756,9,12.404,9.006,12.053,9
		c-0.129-0.002-0.174,0.045-0.174,0.17c0.004,0.813,0,1.623,0.008,2.436c0.002,0.133,0.035,0.271,0.086,0.396
		c0.203,0.496,0.709,0.752,1.275,0.629c0.41-0.088,0.816-0.489,0.818-1.004C14.068,11.342,14.068,11.059,14.068,10.775z"/>
	<path fill="#0071BC" d="M6.249,10.268c-0.617,0-1.232,0.01-1.849-0.002c-0.491-0.008-0.769-0.402-0.636-0.875
		c0.068-0.242,0.313-0.422,0.609-0.447c0.04-0.002,0.078-0.004,0.118-0.004c1.179,0,2.357,0,3.536,0.002
		c0.278,0,0.518,0.076,0.674,0.332c0.236,0.392-0.006,0.918-0.458,0.979c-0.14,0.019-0.283,0.021-0.423,0.021
		c-0.524,0.002-1.048,0-1.571,0C6.249,10.271,6.249,10.27,6.249,10.268z"/>
	<path fill="#0071BC" d="M6.25,7.057c-0.601,0-1.203,0.002-1.804-0.001C4.058,7.054,3.811,6.852,3.736,6.49
		C3.673,6.175,3.889,5.831,4.202,5.76c0.095-0.021,0.194-0.03,0.291-0.03C5.666,5.729,6.84,5.729,8.014,5.729
		c0.257,0,0.498,0.042,0.655,0.278c0.144,0.218,0.161,0.452,0.05,0.682C8.594,6.95,8.361,7.054,8.084,7.056
		C7.473,7.06,6.861,7.057,6.25,7.057z"/>
</g>
</svg>
