<?xml version="1.0" encoding="utf-8"?>
<!-- Generator: Adobe Illustrator 16.0.0, SVG Export Plug-In . SVG Version: 6.00 Build 0)  -->
<!DOCTYPE svg PUBLIC "-//W3C//DTD SVG 1.1//EN" "http://www.w3.org/Graphics/SVG/1.1/DTD/svg11.dtd">
<svg version="1.1" id="Layer_1" xmlns="http://www.w3.org/2000/svg" xmlns:xlink="http://www.w3.org/1999/xlink" x="0px" y="0px"
	 width="16px" height="16px" viewBox="0 0 16 16" enable-background="new 0 0 16 16" xml:space="preserve">
<g>
	<path fill-rule="evenodd" clip-rule="evenodd" fill="#0071BC" d="M15.646,13.816c-0.224,0.564-0.645,0.754-1.239,0.752
		c-3.698-0.016-7.398-0.007-11.097-0.007c-0.838,0-1.191-0.352-1.191-1.186c0-1.02,0.001-2.038,0-3.058
		c0-0.278,0.087-0.502,0.388-0.562C2.853,9.688,3.074,9.9,3.075,10.298c0.003,0.962,0.001,1.924,0.001,2.888
		c0,0.124,0,0.247,0,0.398c3.866,0,7.709,0,11.58,0c0-2.875,0-5.765,0-8.673c-3.842,0-7.685,0-11.554,0c0,0.297,0,0.599,0,0.961
		c0.346,0,0.696-0.001,1.045,0c0.147,0,0.299-0.012,0.445,0.011C4.869,5.927,5.02,6.097,5,6.383
		C4.983,6.647,4.835,6.813,4.563,6.814C3.257,6.819,1.951,6.828,0.646,6.802C0.491,6.798,0.34,6.583,0.188,6.466
		c0-0.092,0-0.184,0-0.275C0.35,5.93,0.586,5.855,0.884,5.868c0.404,0.018,0.81,0.004,1.235,0.004c0-0.297,0-0.536,0-0.774
		c0.002-0.806,0.362-1.163,1.178-1.163c3.704,0,7.408,0.007,11.113-0.008c0.598-0.002,1.012,0.192,1.236,0.752
		C15.646,7.726,15.646,10.771,15.646,13.816z"/>
	<path fill-rule="evenodd" clip-rule="evenodd" fill="#0071BC" d="M10.83,7.808c0-0.32-0.002-0.64,0.002-0.96
		c0.004-0.535,0.338-0.924,0.867-0.965c0.375-0.027,0.756-0.028,1.129-0.001c0.522,0.039,0.871,0.425,0.884,0.962
		c0.013,0.627,0.011,1.258,0.001,1.886c-0.012,0.604-0.397,0.976-0.998,0.985c-0.321,0.004-0.643,0.009-0.961-0.003
		c-0.549-0.021-0.912-0.395-0.922-0.943C10.825,8.45,10.83,8.128,10.83,7.808z M12.731,8.756c0-0.653,0-1.282,0-1.909
		c-0.329,0-0.628,0-0.933,0c0,0.65,0,1.272,0,1.909C12.124,8.756,12.426,8.756,12.731,8.756z"/>
	<path fill-rule="evenodd" clip-rule="evenodd" fill="#0071BC" d="M7.916,11.678c0.469,0.003,0.938,0.005,1.407-0.002
		c0.303-0.002,0.479,0.137,0.508,0.437c0.027,0.292-0.152,0.503-0.473,0.507c-0.961,0.014-1.922,0.014-2.881,0
		C6.155,12.615,5.97,12.397,6,12.112c0.032-0.293,0.204-0.441,0.51-0.437C6.978,11.683,7.447,11.678,7.916,11.678z"/>
	<path fill-rule="evenodd" clip-rule="evenodd" fill="#0071BC" d="M3.048,8.747c-0.457,0-0.915,0.004-1.373,0
		C1.368,8.742,1.132,8.539,1.156,8.281C1.183,7.998,1.34,7.814,1.647,7.814c0.96-0.002,1.92-0.004,2.882,0.002
		c0.305,0.002,0.481,0.19,0.473,0.468c-0.008,0.307-0.177,0.459-0.48,0.462C4.031,8.751,3.54,8.747,3.048,8.747z"/>
	<path fill-rule="evenodd" clip-rule="evenodd" fill="#0071BC" d="M7.939,9.748c0.456,0,0.912-0.005,1.369,0
		c0.341,0.004,0.518,0.164,0.522,0.454c0.006,0.292-0.168,0.473-0.499,0.476c-0.937,0.009-1.875,0.009-2.81,0.004
		C6.186,10.678,6,10.502,5.996,10.223C5.991,9.928,6.188,9.75,6.533,9.748C7.002,9.74,7.47,9.745,7.939,9.745V9.748z"/>
	<path fill-rule="evenodd" clip-rule="evenodd" fill="#0071BC" d="M7.917,8.747c-0.467,0-0.937,0.007-1.404,0
		C6.18,8.742,6.001,8.571,6.003,8.281c0.001-0.295,0.171-0.466,0.51-0.468c0.947-0.007,1.896-0.005,2.843,0.004
		C9.664,7.819,9.832,8,9.831,8.281S9.658,8.742,9.355,8.747C8.876,8.756,8.396,8.749,7.917,8.747z"/>
</g>
</svg>
