<?xml version="1.0" encoding="utf-8"?>
<!-- Generator: Adobe Illustrator 16.0.0, SVG Export Plug-In . SVG Version: 6.00 Build 0)  -->
<!DOCTYPE svg PUBLIC "-//W3C//DTD SVG 1.1//EN" "http://www.w3.org/Graphics/SVG/1.1/DTD/svg11.dtd">
<svg version="1.1" id="Layer_1" xmlns="http://www.w3.org/2000/svg" xmlns:xlink="http://www.w3.org/1999/xlink" x="0px" y="0px"
	 width="16px" height="16px" viewBox="0 0 16 16" enable-background="new 0 0 16 16" xml:space="preserve">
<path fill="#0071BC" d="M15.577,8.73l-5.108,4.859c-0.457,0.432-1.246,0.128-1.246-0.493V10.32H5.085
	c-0.404,0-0.731-0.311-0.731-0.694V6.851c0-0.386,0.327-0.695,0.731-0.695h4.138V3.38c0-0.616,0.787-0.925,1.246-0.493l5.108,4.859
	C15.861,8.019,15.861,8.458,15.577,8.73z M6.301,13.443v-1.157c0-0.19-0.165-0.346-0.364-0.346H3.38
	c-0.539,0-0.971-0.415-0.971-0.926V5.464c0-0.512,0.435-0.927,0.971-0.927h2.558c0.199,0,0.364-0.155,0.364-0.346V3.034
	c0-0.189-0.165-0.346-0.364-0.346H3.38c-1.611,0-2.921,1.243-2.921,2.776v5.551c0,1.53,1.31,2.775,2.921,2.775h2.558
	C6.137,13.79,6.301,13.634,6.301,13.443z"/>
</svg>
