<?xml version="1.0" encoding="utf-8"?>
<!-- Generator: Adobe Illustrator 16.0.0, SVG Export Plug-In . SVG Version: 6.00 Build 0)  -->
<!DOCTYPE svg PUBLIC "-//W3C//DTD SVG 1.1//EN" "http://www.w3.org/Graphics/SVG/1.1/DTD/svg11.dtd">
<svg version="1.1" id="Layer_1" xmlns="http://www.w3.org/2000/svg" xmlns:xlink="http://www.w3.org/1999/xlink" x="0px" y="0px"
	 width="16px" height="16px" viewBox="0 0 16 16" enable-background="new 0 0 16 16" xml:space="preserve">
<g>
	<path fill-rule="evenodd" clip-rule="evenodd" fill="#FFFFFF" d="M7.967,14.988c-1.604,0.002-3.208-0.004-4.813,0.004
		c-0.574,0.002-1.106-0.123-1.567-0.473c-0.654-0.496-0.987-1.158-0.987-1.98c0-2.418-0.004-4.833,0.003-7.25
		c0.003-0.937,0.45-1.616,1.271-2.052c0.335-0.179,0.703-0.229,1.078-0.229c2.188,0,4.374,0.001,6.561,0
		c0.938,0,1.639,0.406,2.1,1.223c0.199,0.353,0.266,0.743,0.268,1.144c0.005,1.026,0.001,2.054,0.001,3.082
		c0,0.217,0.001,0.218,0.221,0.218c0.323,0,0.646-0.005,0.97,0.001c0.964,0.017,1.679,0.449,2.121,1.311
		c0.148,0.289,0.213,0.605,0.211,0.934c-0.004,0.588,0.003,1.176-0.007,1.762c-0.019,1.012-0.718,1.877-1.632,2.176
		c-0.287,0.094-0.604,0.125-0.908,0.127C11.227,14.996,9.597,14.988,7.967,14.988z M6.771,13.66L6.771,13.66
		c1.268,0,2.533,0,3.801,0c0.195,0,0.22-0.025,0.151-0.184c-0.142-0.33-0.179-0.678-0.179-1.031c0.001-2.191,0-4.384,0-6.576
		c0-0.19,0.008-0.382-0.002-0.572c-0.021-0.39-0.174-0.712-0.55-0.861C9.809,4.363,9.595,4.343,9.395,4.341
		C7.77,4.334,6.146,4.337,4.521,4.337c-0.528,0-1.057,0-1.585,0c-0.212,0-0.417,0.03-0.596,0.162
		c-0.275,0.202-0.41,0.467-0.409,0.813c0.004,1.918,0.001,3.835,0.001,5.753c0,0.49,0.001,0.979-0.001,1.469
		c0,0.209,0.032,0.408,0.147,0.588c0.236,0.367,0.569,0.541,1.008,0.537C4.314,13.656,5.543,13.66,6.771,13.66z M14.068,11.775
		c0,0,0.001,0,0.003,0c0-0.273-0.006-0.549,0.001-0.822c0.012-0.535-0.432-0.945-0.964-0.951C12.756,10,12.404,10.006,12.053,10
		c-0.129-0.002-0.174,0.045-0.174,0.17c0.004,0.813,0,1.623,0.008,2.436c0.002,0.133,0.035,0.271,0.086,0.395
		c0.203,0.496,0.709,0.752,1.275,0.629c0.41-0.088,0.817-0.49,0.819-1.004C14.069,12.342,14.068,12.059,14.068,11.775z"/>
	<path fill-rule="evenodd" clip-rule="evenodd" fill="#FFFFFF" d="M6.249,11.268c-0.617,0-1.232,0.01-1.849-0.002
		c-0.491-0.008-0.769-0.402-0.636-0.875c0.068-0.242,0.313-0.422,0.609-0.447c0.04-0.002,0.078-0.004,0.118-0.004
		c1.179,0,2.357,0,3.536,0.002c0.278,0,0.518,0.076,0.674,0.332c0.236,0.391-0.006,0.918-0.458,0.979
		c-0.14,0.018-0.283,0.02-0.423,0.021c-0.524,0.002-1.048,0-1.571,0C6.249,11.271,6.249,11.27,6.249,11.268z"/>
	<path fill-rule="evenodd" clip-rule="evenodd" fill="#FFFFFF" d="M6.25,8.057c-0.601,0-1.203,0.002-1.804-0.001
		C4.058,8.054,3.811,7.852,3.736,7.49C3.673,7.175,3.889,6.831,4.202,6.76c0.095-0.021,0.194-0.03,0.291-0.03
		c1.173-0.001,2.347-0.001,3.521-0.001c0.257,0,0.498,0.042,0.655,0.278c0.144,0.218,0.161,0.452,0.05,0.682
		C8.594,7.95,8.361,8.054,8.084,8.056C7.473,8.06,6.861,8.057,6.25,8.057z"/>
</g>
</svg>
