<?xml version="1.0" encoding="utf-8"?>
<!-- Generator: Adobe Illustrator 16.0.0, SVG Export Plug-In . SVG Version: 6.00 Build 0)  -->
<!DOCTYPE svg PUBLIC "-//W3C//DTD SVG 1.1//EN" "http://www.w3.org/Graphics/SVG/1.1/DTD/svg11.dtd">
<svg version="1.1" id="Layer_1" xmlns="http://www.w3.org/2000/svg" xmlns:xlink="http://www.w3.org/1999/xlink" x="0px" y="0px"
	 width="141.732px" height="141.732px" viewBox="0 0 141.732 141.732" enable-background="new 0 0 141.732 141.732"
	 xml:space="preserve">
<path fill="#15A2B8" d="M74.138,123.632c-30.209,0-54.697-24.488-54.697-54.697c0-9.288,2.322-18.031,6.407-25.692l-10.479-8.312
	c-5.8,10.002-9.136,21.61-9.136,34.003c0,37.503,30.402,67.905,67.905,67.905c13.83,0,26.688-4.145,37.418-11.245l-6.71-11.393
	C96.091,120.152,85.522,123.632,74.138,123.632z"/>
<g>
	<path fill="#FFFFFF" d="M19.712,40.4c-2.463-1.182-5.196,0.865-6.597,4.427c-0.599,1.524-0.817,2.769-0.826,3.41
		c0.314-0.032,0.628-0.063,0.941-0.091c0.015-0.696,0.238-1.726,0.616-2.697c1.183-3.025,3.263-4.254,5.126-3.432
		c2.019,0.881,2.326,3.098,1.331,5.667c-0.356,0.919-0.771,1.645-1.152,2.134c0.244,0.195,0.489,0.394,0.735,0.585
		c0.272-0.333,0.774-1.124,1.298-2.479C22.478,44.589,22.08,41.532,19.712,40.4z"/>
	<path fill="#FFFFFF" d="M15.726,50.114c-2.441-0.695-4.912,1.18-5.698,4.484c-0.761,3.192,0.441,5.896,3.356,6.118
		c2.528,0.19,4.53-1.53,5.207-4.436C19.254,53.439,18.302,50.842,15.726,50.114z M17.729,56.061
		c-0.541,2.329-2.454,3.26-4.141,3.085c-1.911-0.201-3.291-1.781-2.703-4.303c0.598-2.506,2.625-3.551,4.363-3.113
		C17.051,52.177,18.281,53.747,17.729,56.061z"/>
	<path fill="#FFFFFF" d="M8.426,66.75c2.779,1.412,5.614,2.635,8.487,3.671c-0.008-0.478-0.01-0.956-0.005-1.435
		c-1.404-0.521-2.8-1.09-4.183-1.699c-1.095-0.483-2.147-0.961-3.115-1.301l0.001-0.034c1.021-0.313,2.089-0.731,3.282-1.193
		c1.449-0.553,2.904-1.068,4.361-1.548c0.055-0.494,0.117-0.988,0.185-1.484c-2.986,0.939-5.96,2.044-8.905,3.305
		C8.49,65.607,8.455,66.178,8.426,66.75z"/>
	<path fill="#FFFFFF" d="M8.389,72.294c0.02,0.509,0.044,1.015,0.074,1.519c2.849-0.317,5.696-0.634,8.545-0.951
		c-0.027-0.44-0.049-0.884-0.064-1.326C14.093,71.788,11.241,72.041,8.389,72.294z"/>
	<path fill="#FFFFFF" d="M17.08,75.175c-2.792,0.422-5.585,0.842-8.377,1.263c0.014,0.767,0.08,1.667,0.234,2.723
		c0.326,2.231,1.125,3.869,2.14,4.681c1.007,0.818,2.258,1.019,3.612,0.614c1.343-0.399,2.166-1.209,2.644-2.275
		c0.484-1.054,0.563-2.425,0.277-4.272C17.452,76.886,17.262,75.96,17.08,75.175z M14.309,83.067
		c-2.238,0.629-3.964-0.651-4.45-3.79c-0.086-0.572-0.146-1.113-0.142-1.493c2.235-0.388,4.471-0.774,6.706-1.161
		c0.107,0.338,0.226,0.843,0.329,1.517C17.188,80.88,16.292,82.525,14.309,83.067z"/>
	<path fill="#FFFFFF" d="M13.608,86.133c0.358,1.279,0.758,2.542,1.195,3.786c0.26-0.1,0.521-0.203,0.782-0.302
		c-0.433-1.229-0.827-2.476-1.181-3.738C14.139,85.964,13.875,86.047,13.608,86.133z"/>
	<path fill="#FFFFFF" d="M19.541,90.234c-0.234,0.191-0.468,0.384-0.702,0.577c0.452,0.426,0.91,0.841,1.371,1.247l0.011,0.028
		c-2.218,1.023-4.437,2.049-6.656,3.076c0.188,0.434,0.38,0.864,0.578,1.294c2.516-1.228,5.031-2.452,7.548-3.68
		c-0.153-0.332-0.302-0.666-0.449-1.002C20.667,91.277,20.099,90.763,19.541,90.234z"/>
	<path fill="#FFFFFF" d="M20.715,97.208c-1.256,0.688-1.704,2.302-0.746,3.903c0.532,0.883,1.26,1.393,2.039,1.545l0.026,0.038
		c-0.929,0.401-1.813,0.399-2.605,0.083c-0.697-0.259-1.336-0.787-1.831-1.464c-0.279-0.405-0.477-0.707-0.607-0.991
		c-0.269,0.154-0.537,0.31-0.806,0.464c0.157,0.313,0.397,0.711,0.719,1.136c0.67,0.951,1.604,1.714,2.575,2.044
		c1.237,0.434,2.729,0.312,4.24-0.761c1.751-1.256,2.204-3.027,1.205-4.658C23.927,96.915,22.114,96.441,20.715,97.208z
		 M23.076,101.991c-0.15,0.102-0.284,0.138-0.412,0.13c-0.612-0.014-1.316-0.41-1.795-1.201c-0.618-1.021-0.353-2.063,0.553-2.59
		c1.029-0.597,2.145-0.346,2.715,0.592C24.837,100.07,24.267,101.183,23.076,101.991z"/>
	<path fill="#FFFFFF" d="M28.672,110.346c-1.149,0.438-2.263,0.847-3.22,1.292l-0.022-0.023c0.569-0.901,1.102-1.905,1.703-3.016
		c0.734-1.35,1.497-2.677,2.287-3.979c-0.284-0.351-0.564-0.704-0.84-1.061c-1.644,2.634-3.172,5.371-4.574,8.199
		c0.346,0.398,0.695,0.795,1.05,1.184c3.038-0.986,5.996-2.125,8.856-3.405c-0.32-0.31-0.636-0.625-0.947-0.944
		C31.555,109.211,30.124,109.795,28.672,110.346z"/>
	<path fill="#FFFFFF" d="M27.401,115.391c0.352,0.349,0.706,0.691,1.065,1.03c0.909-0.399,1.81-0.813,2.703-1.238
		c0.93,0.85,1.885,1.671,2.865,2.466c-0.285,0.947-0.554,1.902-0.809,2.864c0.403,0.313,0.81,0.624,1.221,0.929
		c0.737-3.078,1.625-6.091,2.658-9.024c-0.387-0.324-0.77-0.651-1.146-0.985C33.2,112.884,30.344,114.207,27.401,115.391z
		 M35.213,114.216c-0.292,0.852-0.572,1.708-0.839,2.572c-0.818-0.669-1.619-1.358-2.401-2.066c0.821-0.393,1.634-0.795,2.441-1.211
		c0.496-0.271,0.969-0.563,1.42-0.859l0.022,0.019C35.637,113.147,35.411,113.636,35.213,114.216z"/>
	<path fill="#FFFFFF" d="M44.528,117.511c-2.559-1.524-5.299-1.281-6.954,0.904c-1.725,2.278-0.753,4.957,1.968,6.597
		c1.166,0.703,2.203,1.034,2.768,1.104c0.059-0.306,0.12-0.61,0.181-0.918c-0.608-0.081-1.451-0.391-2.196-0.837
		c-2.316-1.389-2.777-3.425-1.537-5.154c1.341-1.868,3.341-2.043,5.312-0.867c0.705,0.419,1.227,0.889,1.553,1.304
		c0.242-0.217,0.483-0.435,0.722-0.653C46.127,118.695,45.568,118.13,44.528,117.511z"/>
	<path fill="#FFFFFF" d="M44.928,122.985c-1.403,2.482-0.062,4.991,2.891,6.233c1.265,0.53,2.35,0.714,2.924,0.705
		c0.016-0.31,0.033-0.619,0.052-0.929c-0.621,0.003-1.509-0.187-2.315-0.521c-2.511-1.051-3.257-2.994-2.259-4.871
		c1.077-2.027,3.048-2.474,5.186-1.588c0.764,0.317,1.354,0.707,1.736,1.069c0.213-0.246,0.423-0.494,0.632-0.743
		c-0.261-0.26-0.9-0.739-2.027-1.205C48.975,119.985,46.276,120.601,44.928,122.985z"/>
	<path fill="#FFFFFF" d="M52.355,130.789c0.461,0.153,0.925,0.303,1.392,0.446c0.939-2.738,1.879-5.476,2.819-8.211
		c-0.406-0.127-0.812-0.257-1.215-0.391C54.353,125.351,53.354,128.071,52.355,130.789z"/>
	<path fill="#FFFFFF" d="M64.203,128.453c-0.252,1.319-0.419,2.358-0.5,3.509l-0.036,0.009c-0.366-0.945-0.825-1.934-1.396-3.064
		c-0.82-1.625-1.551-3.27-2.198-4.925c-0.456-0.108-0.909-0.222-1.361-0.343c-0.836,2.768-1.672,5.536-2.509,8.302
		c0.445,0.119,0.894,0.231,1.343,0.341c0.334-1.188,0.667-2.377,1-3.566c0.389-1.384,0.639-2.396,0.862-3.465l0.048-0.003
		c0.245,1.026,0.667,2.138,1.167,3.225c0.759,1.65,1.604,3.286,2.537,4.899c0.498,0.074,0.996,0.141,1.497,0.203
		c0.48-2.836,0.96-5.671,1.44-8.508c-0.407-0.049-0.813-0.104-1.218-0.165C64.654,126.084,64.428,127.268,64.203,128.453z"/>
	<path fill="#FFFFFF" d="M71.068,125.453c-1.404,2.816-2.968,5.592-4.687,8.31c0.514,0.05,1.032,0.093,1.55,0.13
		c0.512-0.868,1.008-1.741,1.489-2.618c1.329,0.068,2.669,0.095,4.018,0.076c0.371,0.893,0.76,1.781,1.166,2.664
		c0.548-0.019,1.098-0.044,1.648-0.076c-1.371-2.771-2.564-5.595-3.578-8.454C72.137,125.48,71.602,125.471,71.068,125.453z
		 M69.806,130.426c0.443-0.809,0.873-1.621,1.289-2.437c0.248-0.516,0.46-1.033,0.653-1.538l0.031,0.002
		c0.121,0.497,0.243,1.008,0.448,1.569c0.302,0.826,0.617,1.648,0.947,2.466C72.043,130.5,70.921,130.478,69.806,130.426z"/>
	<path fill="#FFFFFF" d="M83.193,124.542c-2.634,0.482-5.244,0.774-7.823,0.888c-0.004,0.313-0.007,0.626-0.011,0.939
		c1.076-0.049,2.156-0.126,3.244-0.234c0.107,2.529,0.215,5.061,0.324,7.59c0.525-0.053,1.052-0.112,1.58-0.178
		c-0.168-2.523-0.335-5.047-0.502-7.572c1.096-0.135,2.196-0.305,3.301-0.507C83.267,125.159,83.23,124.85,83.193,124.542z"/>
	<path fill="#FFFFFF" d="M87.011,131.462c-0.17-1.004-0.338-2.006-0.507-3.012c1.495-0.343,2.997-0.744,4.503-1.202
		c-0.071-0.291-0.144-0.583-0.215-0.876c-1.484,0.454-2.964,0.848-4.438,1.187c-0.149-0.88-0.297-1.762-0.445-2.642
		c1.492-0.341,2.989-0.743,4.491-1.209c-0.073-0.296-0.147-0.591-0.222-0.886c-1.941,0.601-3.879,1.097-5.805,1.49
		c0.402,2.799,0.805,5.598,1.206,8.397c2.294-0.469,4.603-1.064,6.919-1.792c-0.075-0.295-0.15-0.59-0.227-0.883
		C90.513,130.586,88.757,131.063,87.011,131.462z"/>
	<path fill="#FFFFFF" d="M99.985,119.969c-1.245-0.153-2.804,0.195-4.808,1.008c-1.108,0.446-2.096,0.89-2.92,1.281
		c0.768,2.651,1.534,5.302,2.303,7.953c0.826-0.222,1.793-0.531,2.936-0.983c2.415-0.955,4.182-2.258,5-3.527
		c0.829-1.264,0.939-2.587,0.344-3.812C102.25,120.672,101.242,120.114,99.985,119.969z M97.523,128.279
		c-0.617,0.248-1.203,0.458-1.619,0.559c-0.668-2.107-1.337-4.215-2.006-6.322c0.355-0.2,0.895-0.459,1.627-0.756
		c2.977-1.218,4.96-0.862,5.767,0.955C102.238,124.75,100.927,126.9,97.523,128.279z"/>
</g>
<g>
	<polygon fill="#15A2B8" points="114.08,112.604 114.08,112.104 96.33,112.104 96.33,95.017 113.58,95.017 113.58,112.604 
		114.08,112.604 114.08,112.104 114.08,112.604 114.58,112.604 114.58,94.017 95.33,94.017 95.33,113.104 114.58,113.104 
		114.58,112.604 	"/>
</g>
<path fill-rule="evenodd" clip-rule="evenodd" fill="#15A2B8" d="M104.026,103.797c1.97-3.664,3.881-7.315,5.892-10.91
	c0.807-1.444,1.879-2.737,2.742-4.152c0.619-1.014,2.447-1.024,3.302-0.458c0.142,0.094,0.099,0.712-0.056,0.967
	c-1.5,2.454-3.23,4.786-4.527,7.341c-1.832,3.611-3.393,7.365-4.978,11.097c-0.36,0.85-0.74,1.413-1.69,1.438
	c-1.021,0.026-1.798-0.296-2.318-1.284c-1.117-2.123-2.314-4.206-3.499-6.293c-0.216-0.379-0.53-0.701-0.8-1.049
	c-0.592-0.763-0.461-1.226,0.488-1.392c1.057-0.185,2.082-0.188,2.793,0.896C102.238,101.317,103.177,102.588,104.026,103.797z"/>
</svg>
