<svg width="47" height="43" viewBox="0 0 47 43" fill="none" xmlns="http://www.w3.org/2000/svg">
<path d="M46.3209 40.4531V29.0141C46.3209 28.3329 45.7687 27.7808 45.0876 27.7808H40.8257C40.1445 27.7808 39.5923 28.3329 39.5923 29.0141V31.0331C39.5923 31.7143 39.0402 32.2665 38.359 32.2665H33.2C32.5188 32.2665 31.9667 32.8186 31.9667 33.4998V35.5188C31.9667 36.2 31.4145 36.7522 30.7333 36.7522H26.0229C25.3417 36.7522 24.7896 37.3043 24.7896 37.9855V40.4531C24.7896 41.1342 25.3417 41.6864 26.0229 41.6864H45.0876C45.7687 41.6864 46.3209 41.1342 46.3209 40.4531Z" fill="#343A40" stroke="#343A40" stroke-width="1.23333"/>
<path d="M20.9852 8.14367L23.0611 9.03335C23.556 9.24543 23.8561 9.75398 23.8025 10.2897L23.7547 10.7681C23.6434 11.8811 24.9522 12.5556 25.794 11.819L26.1641 11.4952C26.6528 11.0676 27.3893 11.0921 27.8484 11.5513L31.8634 15.5663C32.2005 15.9033 32.7015 16.016 33.1504 15.8557L37.6036 14.2653C38.2171 14.0461 38.8953 14.3421 39.152 14.9409L39.5222 15.8048C39.8031 16.4601 39.4714 17.2164 38.7991 17.4537L32.7651 19.5833C32.537 19.6638 32.2902 19.6755 32.0555 19.6168L30.9833 19.3488C30.7471 19.2897 30.5337 19.162 30.3699 18.9819L27.3126 15.6189C26.7389 14.9878 25.7131 15.1156 25.3118 15.8681L23.0818 20.0494C22.7795 20.6161 22.9628 21.3199 23.5031 21.6672L28.2604 24.7255C28.6134 24.9524 28.8268 25.3433 28.8268 25.7629V32.0942C28.8268 32.708 28.3755 33.2283 27.7679 33.3151L27.0945 33.4113C26.3515 33.5175 25.6868 32.9409 25.6868 32.1904V27.6096C25.6868 27.1617 25.444 26.749 25.0524 26.5314L14.6294 20.7409C14.0435 20.4154 13.8248 19.6815 14.137 19.0883L17.1097 13.4403C17.5419 12.619 16.9464 11.6325 16.0183 11.6325H14.3377C13.8705 11.6325 13.4434 11.8964 13.2345 12.3143L10.9555 16.8723C10.6635 17.4564 9.96676 17.7116 9.36654 17.4544L8.46068 17.0662C7.82239 16.7926 7.53514 16.0471 7.83059 15.4187C8.82314 13.3074 10.2874 10.2845 10.884 9.38965C11.6017 8.31309 12.3792 8.04395 12.6783 8.04395H20.4994C20.6664 8.04395 20.8317 8.07787 20.9852 8.14367Z" fill="#343A40"/>
<path d="M5.18658 17.5882L11.1024 20.8748C11.7167 21.216 11.9221 22.0008 11.5539 22.5993L9.25936 26.3279C8.91356 26.8898 8.18678 27.08 7.61002 26.7596L1.69416 23.473C1.07988 23.1317 0.874453 22.347 1.24274 21.7485L3.53724 18.0199C3.88304 17.458 4.60982 17.2678 5.18658 17.5882Z" fill="#343A40"/>
<path d="M17.3793 24.3001L16.2575 23.7392C15.4374 23.3292 14.4726 23.9255 14.4726 24.8423V29.5441C14.4726 29.8527 14.3569 30.15 14.1484 30.3775L10.3362 34.5362C9.89004 35.023 9.90638 35.7748 10.3733 36.2417L10.909 36.7774C11.3907 37.2591 12.1716 37.2591 12.6532 36.7774L17.6999 31.7308C17.9312 31.4995 18.0611 31.1858 18.0611 30.8587V25.4033C18.0611 24.9361 17.7972 24.5091 17.3793 24.3001Z" fill="#343A40"/>
<path d="M20.9852 8.14367L23.0611 9.03335C23.556 9.24543 23.8561 9.75398 23.8025 10.2897L23.7547 10.7681C23.6434 11.8811 24.9522 12.5556 25.794 11.819L26.1641 11.4952C26.6528 11.0676 27.3893 11.0921 27.8484 11.5513L31.8634 15.5663C32.2005 15.9033 32.7015 16.016 33.1504 15.8557L37.6036 14.2653C38.2171 14.0461 38.8953 14.3421 39.152 14.9409L39.5222 15.8048C39.8031 16.4601 39.4714 17.2164 38.7991 17.4537L32.7651 19.5833C32.537 19.6638 32.2902 19.6755 32.0555 19.6168L30.9833 19.3488C30.7471 19.2897 30.5337 19.162 30.3699 18.9819L27.3126 15.6189C26.7389 14.9878 25.7131 15.1156 25.3118 15.8681L23.0818 20.0494C22.7795 20.6161 22.9628 21.3199 23.5031 21.6672L28.2604 24.7255C28.6134 24.9524 28.8268 25.3433 28.8268 25.7629V32.0942C28.8268 32.708 28.3755 33.2283 27.7679 33.3151L27.0945 33.4113C26.3515 33.5175 25.6868 32.9409 25.6868 32.1904V27.6096C25.6868 27.1617 25.444 26.749 25.0524 26.5314L14.6294 20.7409C14.0435 20.4154 13.8248 19.6815 14.137 19.0883L17.1097 13.4403C17.5419 12.619 16.9464 11.6325 16.0183 11.6325H14.3377C13.8705 11.6325 13.4434 11.8964 13.2345 12.3143L10.9555 16.8723C10.6635 17.4564 9.96676 17.7116 9.36654 17.4544L8.46068 17.0662C7.82239 16.7926 7.53514 16.0471 7.83059 15.4187C8.82314 13.3074 10.2874 10.2845 10.884 9.38965C11.6017 8.31309 12.3792 8.04395 12.6783 8.04395H20.4994C20.6664 8.04395 20.8317 8.07787 20.9852 8.14367Z" stroke="#343A40" stroke-width="1.23333"/>
<path d="M5.18658 17.5882L11.1024 20.8748C11.7167 21.216 11.9221 22.0008 11.5539 22.5993L9.25936 26.3279C8.91356 26.8898 8.18678 27.08 7.61002 26.7596L1.69416 23.473C1.07988 23.1317 0.874453 22.347 1.24274 21.7485L3.53724 18.0199C3.88304 17.458 4.60982 17.2678 5.18658 17.5882Z" stroke="#343A40" stroke-width="1.23333"/>
<path d="M17.3793 24.3001L16.2575 23.7392C15.4374 23.3292 14.4726 23.9255 14.4726 24.8423V29.5441C14.4726 29.8527 14.3569 30.15 14.1484 30.3775L10.3362 34.5362C9.89004 35.023 9.90638 35.7748 10.3733 36.2417L10.909 36.7774C11.3907 37.2591 12.1716 37.2591 12.6532 36.7774L17.6999 31.7308C17.9312 31.4995 18.0611 31.1858 18.0611 30.8587V25.4033C18.0611 24.9361 17.7972 24.5091 17.3793 24.3001Z" stroke="#343A40" stroke-width="1.23333"/>
<circle cx="27.0322" cy="4.90383" r="4.03713" fill="#343A40"/>
</svg>
