<svg width="24" height="18" viewBox="0 0 24 18" fill="none" xmlns="http://www.w3.org/2000/svg">
<path d="M19.2815 0.00252198C18.9911 0.0251367 18.7136 0.131806 18.4828 0.309508C18.2521 0.48721 18.078 0.728256 17.9819 1.00322C17.8859 1.27819 17.8719 1.57518 17.9418 1.85793C18.0117 2.14069 18.1624 2.39698 18.3755 2.59552C19.2095 3.42781 19.8708 4.41675 20.3213 5.50549C20.7718 6.59422 21.0026 7.76127 21.0005 8.93952C21.0021 10.1177 20.771 11.2846 20.3205 12.3732C19.8701 13.4619 19.2091 14.4509 18.3755 15.2835C18.2307 15.4218 18.1149 15.5877 18.0351 15.7714C17.9553 15.9551 17.913 16.1529 17.9107 16.3532C17.9084 16.5535 17.9461 16.7522 18.0217 16.9377C18.0973 17.1231 18.2092 17.2916 18.3508 17.4333C18.4924 17.5749 18.6609 17.6868 18.8464 17.7624C19.0319 17.8379 19.2306 17.8757 19.4309 17.8734C19.6311 17.8711 19.8289 17.8288 20.0126 17.7489C20.1963 17.6691 20.3622 17.5534 20.5005 17.4085C22.7422 15.1601 24.0011 12.1146 24.0011 8.93952C24.0011 5.76449 22.7422 2.71898 20.5005 0.470522C20.3634 0.325585 20.1988 0.209452 20.0163 0.128921C19.8338 0.0483893 19.637 0.00507786 19.4375 0.00152158C19.3855 -0.000507193 19.3335 -0.000507193 19.2815 0.00152158V0.00252198ZM4.37553 0.0325217C4.0431 0.0766105 3.73504 0.23082 3.50053 0.470522C1.25882 2.71898 0 5.76449 0 8.93952C0 12.1146 1.25882 15.1601 3.50053 17.4085C3.63886 17.5534 3.80474 17.6691 3.98843 17.7489C4.17212 17.8288 4.36992 17.8711 4.57019 17.8734C4.77046 17.8757 4.96918 17.8379 5.15466 17.7624C5.34014 17.6868 5.50864 17.5749 5.65027 17.4333C5.79189 17.2916 5.90378 17.1231 5.97936 16.9377C6.05494 16.7522 6.09269 16.5535 6.09039 16.3532C6.08808 16.1529 6.04577 15.9551 5.96594 15.7714C5.88611 15.5877 5.77037 15.4218 5.62553 15.2835C4.79151 14.4512 4.13025 13.4623 3.67976 12.3736C3.22926 11.2848 2.99843 10.1178 3.00053 8.93952C2.99898 7.76135 3.23006 6.59446 3.68052 5.50581C4.13098 4.41715 4.79196 3.42814 5.62553 2.59552C5.85228 2.37531 6.00367 2.0891 6.0581 1.77774C6.11253 1.46638 6.06721 1.14579 5.92861 0.861712C5.79001 0.577638 5.56521 0.344606 5.28631 0.195878C5.0074 0.0471508 4.68864 -0.0106716 4.37553 0.0325217ZM8.18853 3.34552C7.85964 3.38089 7.55166 3.52398 7.31253 3.75252C6.58614 4.40759 6.00511 5.20763 5.60689 6.10103C5.20867 6.99444 5.00211 7.96139 5.00053 8.93952C5.00053 10.9875 5.87053 12.8495 7.28153 14.1275C7.42729 14.2609 7.5979 14.3642 7.78361 14.4316C7.96931 14.4991 8.16648 14.5293 8.36385 14.5205C8.56122 14.5117 8.75493 14.4641 8.93392 14.3805C9.11291 14.2969 9.27367 14.1788 9.40703 14.033C9.54038 13.8873 9.64372 13.7166 9.71115 13.5309C9.77857 13.3452 9.80876 13.1481 9.79998 12.9507C9.79121 12.7533 9.74364 12.5596 9.66001 12.3806C9.57637 12.2016 9.45829 12.0409 9.31253 11.9075C8.89763 11.5327 8.56636 11.0747 8.3403 10.5633C8.11424 10.0519 7.99847 9.49864 8.00053 8.93952C7.99846 8.38016 8.11432 7.82664 8.34055 7.31507C8.56679 6.80349 8.89832 6.34535 9.31353 5.97052C9.55317 5.76204 9.72045 5.48286 9.79126 5.17321C9.86207 4.86356 9.83275 4.53943 9.70753 4.24751C9.58231 3.95559 9.36766 3.71096 9.09449 3.54886C8.82133 3.38676 8.50475 3.31556 8.18853 3.34552ZM15.5945 3.34552C15.297 3.36192 15.0112 3.46654 14.7734 3.64604C14.5356 3.82554 14.3566 4.07178 14.2593 4.35338C14.162 4.63498 14.1508 4.93917 14.2271 5.22718C14.3033 5.51519 14.4636 5.77397 14.6875 5.97052C15.1027 6.34535 15.4343 6.80349 15.6605 7.31507C15.8867 7.82664 16.0026 8.38016 16.0005 8.93952C16.0026 9.49889 15.8867 10.0524 15.6605 10.564C15.4343 11.0756 15.1027 11.5337 14.6875 11.9085C14.5204 12.0333 14.3811 12.1917 14.2786 12.3734C14.1761 12.5551 14.1127 12.7561 14.0923 12.9637C14.0719 13.1713 14.095 13.3809 14.1602 13.5791C14.2254 13.7772 14.3312 13.9596 14.4709 14.1146C14.6106 14.2695 14.781 14.3937 14.9714 14.479C15.1617 14.5644 15.3678 14.6091 15.5764 14.6103C15.785 14.6115 15.9915 14.5692 16.1829 14.4861C16.3742 14.403 16.5461 14.2808 16.6875 14.1275C17.4142 13.4724 17.9955 12.6723 18.3939 11.7787C18.7923 10.8851 18.999 9.9179 19.0005 8.93952C19.0042 7.96334 18.8032 6.99723 18.4103 6.1036C18.0174 5.20997 17.4414 4.40869 16.7195 3.75152C16.5699 3.61031 16.3928 3.50139 16.1992 3.43155C16.0057 3.3617 15.7999 3.33242 15.5945 3.34552ZM12.0005 7.12752C11.6422 7.12772 11.292 7.23416 10.9941 7.43338C10.6963 7.63261 10.4642 7.91567 10.3272 8.24679C10.1902 8.57791 10.1544 8.94221 10.2245 9.29364C10.2945 9.64507 10.4672 9.96784 10.7206 10.2212C10.9741 10.4745 11.2969 10.6469 11.6484 10.7168C11.9999 10.7866 12.3641 10.7507 12.6952 10.6135C13.0262 10.4763 13.3092 10.2441 13.5082 9.94611C13.7073 9.64815 13.8135 9.29786 13.8135 8.93952C13.8139 8.70132 13.7673 8.46539 13.6763 8.24525C13.5854 8.02511 13.4518 7.82509 13.2834 7.65666C13.115 7.48822 12.9149 7.3547 12.6948 7.26372C12.4747 7.17275 12.2387 7.12713 12.0005 7.12752Z" fill="black"/>
</svg>
