<?xml version="1.0" encoding="utf-8"?>
<!-- Generator: Adobe Illustrator 16.0.0, SVG Export Plug-In . SVG Version: 6.00 Build 0)  -->
<!DOCTYPE svg PUBLIC "-//W3C//DTD SVG 1.1//EN" "http://www.w3.org/Graphics/SVG/1.1/DTD/svg11.dtd">
<svg version="1.1" id="Layer_1" xmlns="http://www.w3.org/2000/svg" xmlns:xlink="http://www.w3.org/1999/xlink" x="0px" y="0px"
	 width="16px" height="18.58px" viewBox="0 0 16 18.58" enable-background="new 0 0 16 18.58" xml:space="preserve">
<g>
	<path d="M3.508,16.37H2.724l-0.149,0.447H2.1l0.808-2.17h0.414l0.812,2.17H3.658L3.508,16.37z M2.845,16.008h0.542l-0.273-0.813
		L2.845,16.008z"/>
	<path d="M5.049,16.849c-0.125,0-0.237-0.021-0.336-0.063s-0.183-0.098-0.252-0.167c-0.069-0.068-0.122-0.152-0.158-0.248
		c-0.036-0.095-0.053-0.195-0.053-0.304v-0.06c0-0.12,0.018-0.233,0.053-0.336c0.035-0.104,0.085-0.188,0.15-0.265
		c0.065-0.071,0.144-0.131,0.237-0.172c0.093-0.041,0.197-0.063,0.313-0.063c0.116,0,0.218,0.021,0.307,0.06
		c0.088,0.039,0.163,0.094,0.223,0.16c0.06,0.067,0.105,0.151,0.136,0.25c0.031,0.1,0.045,0.205,0.045,0.323v0.185H4.686
		c0.007,0.055,0.021,0.104,0.042,0.146c0.021,0.041,0.048,0.078,0.082,0.107s0.072,0.055,0.117,0.068
		c0.044,0.019,0.095,0.023,0.15,0.023c0.079,0,0.151-0.016,0.218-0.044c0.066-0.028,0.124-0.073,0.171-0.138l0.212,0.236
		c-0.026,0.037-0.058,0.072-0.097,0.105s-0.084,0.063-0.137,0.094c-0.053,0.025-0.112,0.051-0.178,0.064
		C5.2,16.84,5.128,16.849,5.049,16.849z M5,15.524c-0.046,0-0.087,0.008-0.123,0.022s-0.066,0.039-0.091,0.065
		c-0.025,0.029-0.046,0.063-0.062,0.104s-0.027,0.089-0.034,0.14h0.599v-0.035c-0.001-0.043-0.007-0.082-0.019-0.119
		c-0.011-0.034-0.029-0.067-0.052-0.096c-0.023-0.024-0.053-0.047-0.089-0.063C5.093,15.531,5.05,15.524,5,15.524z"/>
	<path d="M6.863,15.608c-0.022-0.002-0.047-0.006-0.077-0.008c-0.029-0.004-0.056-0.004-0.079-0.004
		c-0.084,0-0.152,0.014-0.205,0.041c-0.053,0.028-0.091,0.069-0.116,0.122v1.058h-0.43v-1.612h0.407l0.012,0.192
		c0.041-0.069,0.091-0.125,0.15-0.164s0.129-0.06,0.208-0.06c0.023,0,0.047,0.002,0.072,0.007c0.025,0.004,0.046,0.01,0.062,0.014
		L6.863,15.608z"/>
	<path d="M7.002,15.996c0-0.117,0.017-0.226,0.051-0.326c0.034-0.101,0.083-0.187,0.147-0.26c0.064-0.072,0.145-0.13,0.239-0.173
		c0.094-0.041,0.203-0.063,0.324-0.063c0.122,0,0.23,0.021,0.326,0.063c0.095,0.043,0.175,0.101,0.24,0.173
		c0.065,0.073,0.115,0.159,0.148,0.26c0.035,0.103,0.05,0.209,0.05,0.326v0.03c0,0.119-0.016,0.229-0.05,0.328
		c-0.034,0.101-0.083,0.187-0.148,0.26c-0.065,0.072-0.145,0.13-0.239,0.171c-0.095,0.041-0.203,0.063-0.325,0.063
		c-0.123,0-0.231-0.021-0.326-0.063c-0.095-0.042-0.175-0.099-0.24-0.171c-0.065-0.073-0.115-0.159-0.148-0.26
		C7.017,16.254,7,16.146,7,16.026v-0.03H7.002z M7.433,16.026c0,0.065,0.006,0.129,0.018,0.187c0.012,0.06,0.031,0.106,0.057,0.149
		c0.026,0.041,0.061,0.076,0.103,0.101S7.705,16.5,7.767,16.5c0.06,0,0.11-0.013,0.152-0.037c0.042-0.022,0.077-0.06,0.104-0.101
		c0.027-0.043,0.046-0.092,0.058-0.149c0.012-0.058,0.018-0.119,0.018-0.187v-0.03c0-0.063-0.006-0.123-0.018-0.181
		c-0.012-0.06-0.031-0.106-0.058-0.149s-0.062-0.078-0.104-0.104c-0.043-0.023-0.094-0.037-0.155-0.037
		c-0.06,0-0.111,0.014-0.153,0.037c-0.042,0.025-0.077,0.063-0.103,0.104c-0.026,0.043-0.045,0.094-0.057,0.149
		c-0.012,0.058-0.018,0.117-0.018,0.181V16.026z"/>
	<path d="M10.248,16.026c0,0.121-0.014,0.229-0.039,0.332c-0.025,0.101-0.064,0.187-0.117,0.26c-0.052,0.072-0.117,0.13-0.195,0.169
		c-0.078,0.04-0.17,0.062-0.272,0.062c-0.097,0-0.174-0.02-0.242-0.054c-0.065-0.035-0.127-0.084-0.176-0.146l-0.021,0.17H8.795
		v-2.287h0.43v0.82c0.049-0.059,0.104-0.102,0.168-0.131c0.064-0.029,0.143-0.047,0.228-0.047c0.104,0,0.194,0.021,0.272,0.063
		c0.08,0.041,0.146,0.101,0.197,0.171c0.053,0.071,0.092,0.157,0.118,0.262c0.026,0.101,0.039,0.209,0.039,0.328L10.248,16.026
		L10.248,16.026z M9.816,15.995c0-0.063-0.004-0.124-0.017-0.182c-0.009-0.06-0.022-0.106-0.048-0.149S9.7,15.588,9.66,15.563
		c-0.04-0.025-0.09-0.037-0.152-0.037c-0.072,0-0.131,0.016-0.177,0.043c-0.046,0.029-0.081,0.072-0.106,0.125v0.637
		c0.025,0.055,0.063,0.096,0.106,0.125c0.046,0.029,0.106,0.045,0.181,0.045c0.063,0,0.11-0.012,0.149-0.035
		c0.039-0.021,0.069-0.058,0.094-0.099c0.022-0.042,0.04-0.093,0.048-0.149c0.01-0.059,0.014-0.121,0.014-0.188V15.995L9.816,15.995
		z"/>
	<path d="M10.51,14.788c0-0.063,0.021-0.116,0.064-0.159c0.043-0.041,0.102-0.063,0.177-0.063c0.037,0,0.069,0.007,0.101,0.02
		c0.029,0.01,0.058,0.023,0.075,0.045c0.021,0.021,0.037,0.043,0.048,0.07c0.012,0.025,0.021,0.059,0.021,0.089
		c0,0.033-0.009,0.063-0.021,0.091c-0.011,0.026-0.023,0.053-0.048,0.07c-0.021,0.02-0.046,0.033-0.075,0.046
		c-0.031,0.011-0.063,0.019-0.101,0.019s-0.069-0.008-0.101-0.019c-0.029-0.013-0.055-0.026-0.075-0.046
		c-0.021-0.021-0.037-0.044-0.048-0.07C10.516,14.853,10.51,14.821,10.51,14.788z M10.967,16.817h-0.432v-1.612h0.432V16.817z"/>
	<path d="M11.992,16.5c0.04,0,0.076-0.006,0.107-0.017c0.03-0.015,0.063-0.028,0.086-0.049c0.021-0.021,0.041-0.047,0.056-0.076
		c0.013-0.028,0.021-0.063,0.021-0.101h0.404c-0.001,0.086-0.02,0.164-0.055,0.234c-0.034,0.071-0.082,0.137-0.141,0.188
		c-0.063,0.053-0.134,0.094-0.215,0.119c-0.081,0.029-0.168,0.047-0.261,0.047c-0.125,0-0.231-0.021-0.328-0.063
		c-0.094-0.043-0.171-0.101-0.229-0.173c-0.063-0.073-0.107-0.159-0.142-0.258c-0.028-0.102-0.046-0.205-0.046-0.319v-0.042
		c0-0.113,0.02-0.221,0.046-0.32c0.03-0.099,0.077-0.186,0.142-0.26c0.063-0.072,0.14-0.131,0.229-0.174
		c0.096-0.043,0.202-0.063,0.326-0.063c0.099,0,0.188,0.019,0.271,0.045c0.082,0.029,0.15,0.07,0.209,0.125
		c0.061,0.058,0.104,0.121,0.137,0.199s0.053,0.166,0.054,0.265h-0.401c-0.004-0.039-0.011-0.076-0.021-0.109
		c-0.015-0.034-0.03-0.063-0.056-0.09c-0.021-0.022-0.052-0.045-0.084-0.063c-0.033-0.017-0.072-0.021-0.115-0.021
		c-0.063,0-0.112,0.014-0.152,0.039c-0.04,0.023-0.068,0.063-0.093,0.104c-0.023,0.043-0.038,0.092-0.048,0.148
		c-0.008,0.057-0.012,0.115-0.012,0.176v0.042c0,0.062,0.004,0.12,0.012,0.177c0.011,0.059,0.022,0.105,0.048,0.148
		c0.021,0.043,0.053,0.076,0.093,0.104C11.875,16.487,11.927,16.5,11.992,16.5z"/>
	<path d="M13.786,16.373c0-0.022-0.005-0.045-0.015-0.063c-0.008-0.021-0.025-0.037-0.051-0.055
		c-0.023-0.018-0.062-0.029-0.104-0.047c-0.043-0.016-0.102-0.029-0.166-0.043c-0.083-0.02-0.159-0.041-0.229-0.064
		c-0.07-0.026-0.133-0.063-0.184-0.104c-0.053-0.039-0.091-0.085-0.12-0.139c-0.026-0.053-0.043-0.113-0.043-0.186
		c0-0.064,0.017-0.131,0.044-0.189c0.029-0.063,0.071-0.114,0.126-0.16c0.058-0.047,0.123-0.083,0.203-0.109
		c0.08-0.023,0.17-0.039,0.271-0.039c0.104,0,0.199,0.014,0.28,0.037c0.085,0.025,0.153,0.063,0.214,0.107
		c0.059,0.046,0.104,0.104,0.133,0.166c0.031,0.063,0.051,0.134,0.051,0.209H13.77c0-0.063-0.02-0.111-0.06-0.152
		c-0.04-0.039-0.103-0.061-0.187-0.061c-0.072,0-0.129,0.018-0.168,0.049c-0.039,0.033-0.063,0.074-0.063,0.126
		c0,0.021,0.005,0.045,0.02,0.063c0.01,0.019,0.023,0.035,0.051,0.052c0.023,0.017,0.054,0.028,0.092,0.043
		c0.038,0.014,0.085,0.022,0.141,0.035c0.088,0.019,0.168,0.036,0.243,0.063c0.075,0.024,0.14,0.06,0.193,0.098
		c0.053,0.039,0.096,0.087,0.127,0.146c0.03,0.058,0.046,0.123,0.046,0.203c0,0.069-0.016,0.138-0.048,0.194
		c-0.032,0.063-0.077,0.111-0.136,0.156c-0.063,0.043-0.131,0.077-0.215,0.104c-0.082,0.022-0.18,0.039-0.279,0.039
		c-0.113,0-0.213-0.021-0.301-0.052c-0.086-0.028-0.158-0.071-0.221-0.125c-0.059-0.051-0.104-0.106-0.133-0.174
		c-0.025-0.063-0.044-0.131-0.044-0.192h0.405c0.004,0.039,0.014,0.075,0.027,0.104c0.02,0.028,0.037,0.055,0.064,0.071
		c0.027,0.021,0.059,0.033,0.093,0.043c0.035,0.01,0.072,0.015,0.11,0.015c0.084,0,0.146-0.017,0.188-0.047
		C13.766,16.465,13.786,16.424,13.786,16.373z"/>
</g>
<g>
	<path fill="#6D6E70" stroke="#FFFFFF" stroke-width="0.2" stroke-miterlimit="10" d="M11.225,10.478
		c-0.418,0.102-0.781,0.004-1.141-0.133c-0.85-0.311-1.713-0.353-2.585-0.135c-0.341,0.08-0.67,0.188-1.008,0.281
		c-0.063,0.018-0.135,0.003-0.23,0.003C6.198,10.024,6.14,9.56,6.073,9.095C6.061,9.023,6.019,8.931,5.961,8.905
		C4.43,8.157,3.256,7.01,2.269,5.65c-0.255-0.348-0.5-0.716-0.715-1.091C1.25,4.03,1.494,3.512,2.075,3.438
		c0.328-0.041,0.568,0.136,0.765,0.38C3.6,4.736,4.469,5.53,5.521,6.107c1.048,0.574,2.151,0.822,3.327,0.466
		c0.985-0.291,1.735-0.936,2.368-1.725c0.61-0.765,1.075-1.608,1.416-2.519c0.218-0.573,0.845-0.748,1.276-0.365
		c0.225,0.2,0.225,0.453,0.174,0.698c-0.391,1.826-1.119,3.492-2.384,4.896c-0.175,0.192-0.355,0.376-0.556,0.543
		c-0.105,0.091-0.115,0.17-0.105,0.297C11.107,9.082,11.162,9.765,11.225,10.478z"/>
	<path fill="#6D6E70" d="M7.953,6.033c-0.924,0.001-1.676-0.739-1.68-1.66C6.268,3.449,7.015,2.688,7.929,2.686
		C8.874,2.682,9.63,3.432,9.63,4.367C9.63,5.284,8.879,6.029,7.953,6.033z"/>
	<path fill="#6D6E70" d="M15.425,11.188c0,0.221,0,0.476,0,0.752c-0.397,0.02-0.771-0.035-1.123-0.185
		c-0.757-0.315-1.493-0.341-2.26-0.019c-0.776,0.33-1.585,0.289-2.364-0.016c-0.727-0.285-1.432-0.305-2.156-0.007
		c-0.782,0.328-1.581,0.312-2.364,0.021c-0.773-0.285-1.517-0.301-2.29,0.012c-0.339,0.137-0.72,0.17-1.112,0.253
		c0-0.321,0-0.586,0-0.81c0.545-0.146,1.076-0.32,1.621-0.438c0.64-0.138,1.274-0.072,1.885,0.159
		c0.708,0.264,1.401,0.274,2.115-0.009c0.78-0.307,1.59-0.299,2.371-0.014c0.777,0.286,1.514,0.293,2.289-0.019
		c0.73-0.296,1.49-0.235,2.242,0C14.646,10.987,15.02,11.08,15.425,11.188z"/>
	<path fill="#6D6E70" d="M14.277,3.345c0.092-0.22,0.209-0.587,0.397-0.906c0.163-0.273,0.581-0.328,0.886-0.175
		c0.291,0.146,0.463,0.482,0.369,0.804c-0.072,0.262-0.17,0.521-0.279,0.769c-0.133,0.3-0.496,0.459-0.808,0.386
		C14.497,4.134,14.273,3.854,14.277,3.345z"/>
	<path fill="#6D6E70" d="M4.539,3.474C4.511,3.753,4.362,3.977,4.12,4.078C3.873,4.179,3.584,4.13,3.407,3.93
		C3.258,3.76,3.116,3.578,2.992,3.386c-0.18-0.28-0.106-0.639,0.152-0.834C3.417,2.337,3.777,2.363,4.007,2.62
		c0.141,0.158,0.275,0.328,0.391,0.506C4.467,3.226,4.492,3.359,4.539,3.474z"/>
	<path fill="#6D6E70" d="M11.811,2.686c-0.56-0.003-0.854-0.406-0.723-0.843c0.057-0.192,0.133-0.392,0.217-0.573
		c0.145-0.315,0.491-0.454,0.803-0.335c0.334,0.123,0.496,0.447,0.393,0.789c-0.063,0.196-0.131,0.388-0.215,0.577
		C12.171,2.554,11.968,2.683,11.811,2.686z"/>
	<path fill="#6D6E70" d="M1.007,6.176c-0.007,0-0.014,0-0.023,0C0.517,6.163-0.068,5.372,0.061,4.93
		C0.2,4.454,0.802,4.304,1.139,4.663c0.152,0.168,0.287,0.356,0.416,0.542C1.693,5.413,1.69,5.64,1.569,5.854
		C1.449,6.065,1.26,6.181,1.007,6.176z"/>
</g>
</svg>
