<?xml version="1.0" encoding="utf-8"?>
<!-- Generator: Adobe Illustrator 16.0.0, SVG Export Plug-In . SVG Version: 6.00 Build 0)  -->
<!DOCTYPE svg PUBLIC "-//W3C//DTD SVG 1.1//EN" "http://www.w3.org/Graphics/SVG/1.1/DTD/svg11.dtd">
<svg version="1.1" id="Layer_1" xmlns="http://www.w3.org/2000/svg" xmlns:xlink="http://www.w3.org/1999/xlink" x="0px" y="0px"
	 width="16px" height="18.579px" viewBox="0 0 16 18.579" enable-background="new 0 0 16 18.579" xml:space="preserve">
<g>
	<g>
		<path d="M1.87,14.301v0.785H1.407v-2.237h0.875c0.13,0,0.251,0.021,0.353,0.056c0.106,0.036,0.193,0.09,0.266,0.152
			c0.07,0.068,0.127,0.145,0.166,0.234c0.038,0.092,0.055,0.191,0.055,0.299c0,0.109-0.02,0.205-0.055,0.291
			c-0.038,0.091-0.094,0.162-0.166,0.225c-0.072,0.063-0.163,0.109-0.266,0.145c-0.102,0.033-0.222,0.053-0.353,0.053L1.87,14.301
			L1.87,14.301z M1.87,13.924h0.413c0.063,0,0.12-0.01,0.167-0.023c0.047-0.018,0.087-0.037,0.116-0.066
			c0.03-0.027,0.054-0.063,0.068-0.104c0.016-0.043,0.021-0.087,0.021-0.135c0-0.049-0.007-0.098-0.021-0.143
			c-0.015-0.043-0.037-0.084-0.068-0.115c-0.029-0.034-0.068-0.063-0.116-0.082c-0.047-0.021-0.104-0.03-0.167-0.03H1.87V13.924z"/>
		<path d="M3.407,12.997c0-0.07,0.023-0.123,0.067-0.168c0.043-0.045,0.105-0.064,0.181-0.064c0.04,0,0.072,0.008,0.104,0.018
			c0.031,0.014,0.057,0.026,0.079,0.047c0.021,0.023,0.039,0.047,0.05,0.074c0.011,0.025,0.019,0.059,0.019,0.094
			c0,0.033-0.005,0.063-0.019,0.09c-0.014,0.029-0.026,0.056-0.05,0.072c-0.022,0.021-0.047,0.035-0.079,0.049
			c-0.03,0.012-0.065,0.02-0.104,0.02c-0.038,0-0.07-0.008-0.103-0.02c-0.031-0.014-0.056-0.025-0.077-0.049
			c-0.023-0.02-0.039-0.045-0.051-0.072C3.412,13.057,3.407,13.03,3.407,12.997z M3.878,15.086H3.435v-1.664H3.88L3.878,15.086
			L3.878,15.086z"/>
		<path d="M4.937,14.758c0.042,0,0.079-0.008,0.112-0.02c0.037-0.012,0.063-0.027,0.087-0.05c0.023-0.021,0.043-0.048,0.059-0.079
			c0.014-0.025,0.021-0.063,0.022-0.1h0.417c-0.001,0.086-0.021,0.168-0.055,0.242c-0.035,0.072-0.084,0.138-0.146,0.19
			C5.371,15,5.297,15.042,5.214,15.07c-0.082,0.028-0.172,0.044-0.269,0.044c-0.128,0-0.24-0.021-0.338-0.063
			c-0.095-0.045-0.175-0.104-0.24-0.182c-0.064-0.072-0.111-0.164-0.144-0.268c-0.03-0.104-0.047-0.211-0.047-0.327v-0.042
			c0-0.117,0.018-0.23,0.047-0.332c0.032-0.104,0.081-0.191,0.144-0.268c0.065-0.077,0.145-0.137,0.238-0.182
			c0.098-0.045,0.209-0.064,0.338-0.064c0.102,0,0.195,0.02,0.281,0.047c0.082,0.027,0.156,0.072,0.216,0.129
			c0.061,0.059,0.107,0.125,0.143,0.205c0.032,0.082,0.05,0.172,0.051,0.271H5.218C5.217,14,5.21,13.961,5.197,13.926
			c-0.013-0.037-0.031-0.065-0.056-0.09c-0.022-0.027-0.052-0.051-0.087-0.065c-0.035-0.015-0.074-0.022-0.12-0.022
			c-0.064,0-0.117,0.017-0.159,0.039c-0.042,0.028-0.072,0.066-0.097,0.107c-0.023,0.046-0.04,0.102-0.046,0.154
			c-0.009,0.062-0.015,0.117-0.015,0.185v0.042c0,0.063,0.004,0.127,0.015,0.184c0.006,0.06,0.024,0.109,0.046,0.151
			c0.024,0.046,0.054,0.079,0.097,0.109C4.817,14.747,4.871,14.758,4.937,14.758z"/>
		<path d="M6.492,14.42l-0.161,0.16v0.506H5.889v-2.362h0.444v1.312l0.085-0.113l0.426-0.5h0.534l-0.601,0.695l0.653,0.969H6.92
			L6.492,14.42z"/>
		<path d="M8.038,15.086H7.593v-2.362h0.445V15.086L8.038,15.086z"/>
		<path d="M9.17,15.12c-0.13,0-0.245-0.021-0.35-0.063c-0.103-0.043-0.188-0.103-0.258-0.175c-0.07-0.07-0.126-0.156-0.164-0.254
			c-0.037-0.102-0.056-0.203-0.056-0.314V14.25c0-0.123,0.018-0.238,0.055-0.347c0.035-0.106,0.088-0.194,0.155-0.269
			c0.066-0.079,0.149-0.139,0.242-0.184c0.096-0.041,0.206-0.063,0.322-0.063c0.119,0,0.229,0.021,0.318,0.063
			c0.092,0.036,0.166,0.094,0.229,0.166c0.063,0.07,0.105,0.156,0.139,0.256c0.03,0.105,0.049,0.219,0.049,0.342v0.188H8.793
			c0.012,0.053,0.023,0.104,0.046,0.148s0.052,0.078,0.086,0.113c0.031,0.03,0.072,0.059,0.119,0.07
			c0.046,0.02,0.099,0.023,0.154,0.023c0.079,0,0.157-0.018,0.227-0.043c0.066-0.031,0.127-0.078,0.177-0.141l0.217,0.242
			c-0.021,0.035-0.061,0.075-0.098,0.105c-0.041,0.039-0.089,0.072-0.142,0.102c-0.058,0.027-0.116,0.053-0.185,0.066
			C9.323,15.109,9.25,15.12,9.17,15.12z M9.118,13.752c-0.05,0-0.091,0.011-0.127,0.024c-0.035,0.017-0.066,0.042-0.095,0.067
			c-0.025,0.029-0.049,0.066-0.063,0.111c-0.02,0.041-0.029,0.088-0.035,0.139h0.617v-0.032c-0.001-0.045-0.006-0.085-0.021-0.122
			c-0.01-0.04-0.027-0.072-0.052-0.102C9.32,13.816,9.29,13.79,9.251,13.775C9.216,13.76,9.171,13.752,9.118,13.752z"/>
		<path d="M11.605,14.272c0,0.125-0.015,0.236-0.043,0.341c-0.023,0.106-0.063,0.196-0.119,0.269
			c-0.053,0.072-0.12,0.135-0.202,0.176c-0.079,0.042-0.175,0.063-0.282,0.063c-0.098,0-0.18-0.02-0.249-0.054
			c-0.071-0.036-0.133-0.088-0.185-0.153l-0.021,0.176h-0.397v-2.36h0.443v0.847c0.047-0.06,0.108-0.102,0.172-0.133
			c0.065-0.029,0.146-0.048,0.233-0.048c0.104,0,0.203,0.021,0.28,0.063c0.084,0.041,0.15,0.103,0.207,0.176
			c0.056,0.072,0.094,0.162,0.119,0.267c0.026,0.104,0.041,0.218,0.041,0.341v0.033h0.002V14.272z M11.162,14.238
			c0-0.065-0.004-0.127-0.016-0.188c-0.01-0.059-0.023-0.109-0.049-0.151c-0.022-0.044-0.059-0.079-0.101-0.106
			c-0.042-0.021-0.093-0.035-0.155-0.035c-0.076,0-0.136,0.016-0.182,0.043c-0.051,0.027-0.086,0.074-0.11,0.131v0.654
			c0.024,0.057,0.063,0.1,0.11,0.131c0.046,0.027,0.107,0.045,0.184,0.045c0.064,0,0.113-0.016,0.153-0.036
			c0.042-0.024,0.073-0.058,0.101-0.101c0.022-0.045,0.039-0.097,0.049-0.156c0.012-0.061,0.016-0.123,0.016-0.194V14.238z"/>
		<path d="M12.842,15.086c-0.02-0.039-0.033-0.09-0.047-0.147c-0.044,0.049-0.102,0.093-0.169,0.127
			c-0.065,0.034-0.149,0.05-0.249,0.05c-0.078,0-0.152-0.011-0.227-0.033c-0.066-0.022-0.127-0.061-0.178-0.104
			c-0.054-0.046-0.094-0.098-0.119-0.156c-0.027-0.063-0.041-0.129-0.041-0.199c0-0.088,0.015-0.168,0.047-0.232
			c0.031-0.066,0.082-0.126,0.146-0.176c0.064-0.043,0.145-0.08,0.239-0.106c0.096-0.022,0.206-0.036,0.335-0.036h0.195v-0.098
			c0-0.077-0.02-0.141-0.061-0.188c-0.037-0.045-0.102-0.065-0.186-0.065c-0.073,0-0.137,0.019-0.176,0.052
			c-0.045,0.036-0.064,0.087-0.064,0.15h-0.446c0-0.072,0.019-0.143,0.052-0.205c0.033-0.064,0.08-0.121,0.145-0.172
			c0.063-0.045,0.136-0.084,0.22-0.111c0.091-0.029,0.188-0.043,0.294-0.043c0.098,0,0.186,0.014,0.268,0.035
			c0.084,0.023,0.152,0.063,0.213,0.111s0.105,0.109,0.142,0.185c0.03,0.069,0.05,0.153,0.05,0.255v0.704
			c0,0.05,0.002,0.091,0.004,0.128c0.004,0.037,0.008,0.068,0.015,0.102c0.003,0.031,0.012,0.057,0.021,0.082
			c0.008,0.021,0.019,0.047,0.026,0.067v0.024H12.842L12.842,15.086z M12.477,14.779c0.035,0,0.071-0.002,0.104-0.015
			c0.032-0.012,0.063-0.021,0.09-0.034c0.022-0.019,0.046-0.032,0.063-0.054c0.021-0.02,0.035-0.038,0.047-0.063v-0.283h-0.186
			c-0.058,0-0.107,0.004-0.15,0.021c-0.043,0.015-0.077,0.026-0.104,0.052c-0.027,0.023-0.051,0.051-0.064,0.084
			c-0.012,0.028-0.02,0.064-0.02,0.1c0,0.062,0.02,0.104,0.061,0.141C12.355,14.76,12.409,14.779,12.477,14.779z"/>
		<path d="M14.037,15.086H13.59v-2.362h0.447V15.086z"/>
		<path d="M14.87,15.086h-0.446v-2.362h0.446V15.086z"/>
	</g>
	<path d="M3.498,17.094v0.789H3.035v-2.24h0.874c0.132,0,0.25,0.021,0.354,0.057c0.104,0.036,0.191,0.088,0.264,0.155
		C4.598,15.918,4.654,16,4.692,16.09s0.057,0.188,0.057,0.295c0,0.111-0.02,0.211-0.057,0.295c-0.038,0.087-0.094,0.16-0.166,0.224
		c-0.073,0.062-0.161,0.109-0.264,0.144c-0.103,0.031-0.222,0.051-0.354,0.051L3.498,17.094L3.498,17.094z M3.498,16.723h0.411
		c0.065,0,0.123-0.012,0.171-0.023c0.046-0.02,0.086-0.043,0.116-0.068c0.029-0.03,0.052-0.066,0.066-0.106
		c0.014-0.04,0.021-0.084,0.021-0.135c0-0.048-0.007-0.097-0.021-0.142c-0.016-0.043-0.038-0.08-0.066-0.117
		c-0.03-0.033-0.07-0.063-0.116-0.082c-0.047-0.021-0.104-0.028-0.171-0.028H3.498V16.723z"/>
	<path d="M5.506,17.881H5.06v-2.362h0.447L5.506,17.881L5.506,17.881z"/>
	<path d="M6.837,17.881c-0.021-0.041-0.036-0.088-0.044-0.147c-0.046,0.052-0.103,0.095-0.17,0.128
		c-0.067,0.032-0.15,0.053-0.25,0.053c-0.081,0-0.154-0.013-0.225-0.037c-0.068-0.024-0.129-0.062-0.18-0.104
		c-0.05-0.042-0.089-0.1-0.12-0.16c-0.028-0.06-0.042-0.125-0.042-0.195c0-0.09,0.017-0.17,0.047-0.234
		c0.033-0.066,0.081-0.122,0.146-0.17c0.064-0.049,0.146-0.085,0.241-0.107c0.095-0.025,0.207-0.039,0.335-0.039h0.196v-0.095
		c0-0.077-0.02-0.14-0.059-0.187c-0.04-0.045-0.102-0.068-0.186-0.068c-0.075,0-0.134,0.021-0.178,0.055
		c-0.043,0.036-0.063,0.084-0.063,0.149H5.844c0-0.073,0.018-0.14,0.05-0.206c0.033-0.063,0.08-0.117,0.142-0.168
		c0.063-0.051,0.135-0.088,0.224-0.114c0.087-0.026,0.185-0.041,0.292-0.041c0.097,0,0.187,0.013,0.268,0.035
		c0.082,0.022,0.154,0.062,0.213,0.108c0.06,0.049,0.106,0.109,0.14,0.185c0.032,0.073,0.049,0.16,0.049,0.258v0.704
		c0,0.047,0.002,0.09,0.004,0.125c0.002,0.038,0.007,0.072,0.013,0.104c0.004,0.029,0.012,0.061,0.02,0.082
		c0.009,0.022,0.019,0.045,0.029,0.068v0.021H6.837V17.881z M6.468,17.575c0.039,0,0.071-0.004,0.106-0.014
		c0.031-0.012,0.06-0.021,0.085-0.038c0.026-0.013,0.047-0.026,0.068-0.049c0.019-0.021,0.033-0.042,0.043-0.063v-0.281H6.59
		c-0.059,0-0.109,0.006-0.152,0.019S6.36,17.18,6.331,17.206c-0.026,0.021-0.047,0.051-0.062,0.08
		c-0.015,0.03-0.021,0.063-0.021,0.104c0,0.055,0.02,0.102,0.057,0.134C6.349,17.557,6.401,17.575,6.468,17.575z"/>
	<path d="M8.181,17.254l0.308-1.031h0.478l-0.664,1.91c-0.016,0.043-0.035,0.089-0.061,0.141c-0.022,0.049-0.057,0.094-0.099,0.137
		c-0.04,0.041-0.092,0.076-0.15,0.104c-0.06,0.028-0.136,0.044-0.224,0.044c-0.021,0-0.039-0.002-0.056-0.002
		c-0.018-0.002-0.033-0.006-0.046-0.008c-0.017-0.002-0.031-0.006-0.047-0.01c-0.016-0.002-0.031-0.008-0.047-0.013v-0.34
		c0.01,0,0.023,0.002,0.034,0.002c0.012,0,0.023,0,0.034,0c0.043,0,0.08-0.002,0.113-0.01c0.031-0.005,0.058-0.021,0.08-0.031
		c0.022-0.017,0.042-0.032,0.057-0.058c0.015-0.022,0.029-0.049,0.041-0.078l0.048-0.125l-0.584-1.668h0.479L8.181,17.254z"/>
	<path d="M9.908,17.917c-0.133,0-0.245-0.021-0.348-0.063c-0.104-0.039-0.191-0.099-0.261-0.171
		c-0.071-0.073-0.127-0.159-0.165-0.258c-0.039-0.098-0.056-0.202-0.056-0.313v-0.063c0-0.127,0.017-0.239,0.054-0.346
		c0.037-0.104,0.09-0.195,0.158-0.273c0.064-0.071,0.146-0.135,0.242-0.178c0.094-0.039,0.203-0.063,0.32-0.063
		c0.121,0,0.229,0.02,0.317,0.061c0.095,0.037,0.166,0.096,0.229,0.164c0.062,0.071,0.105,0.158,0.14,0.26
		c0.033,0.101,0.049,0.213,0.049,0.334V17.2h-1.06c0.005,0.055,0.021,0.102,0.045,0.145c0.021,0.046,0.051,0.082,0.085,0.115
		c0.032,0.029,0.071,0.056,0.116,0.069c0.049,0.021,0.1,0.027,0.158,0.027c0.08,0,0.151-0.019,0.225-0.048
		c0.064-0.028,0.126-0.076,0.178-0.141l0.217,0.242c-0.025,0.037-0.06,0.075-0.101,0.111c-0.04,0.037-0.087,0.066-0.142,0.098
		c-0.055,0.029-0.117,0.051-0.186,0.063C10.063,17.909,9.986,17.917,9.908,17.917z M9.855,16.549c-0.049,0-0.09,0.01-0.129,0.023
		c-0.035,0.021-0.063,0.04-0.093,0.072c-0.024,0.029-0.049,0.066-0.063,0.107c-0.019,0.041-0.029,0.086-0.035,0.138h0.617v-0.03
		c0-0.042-0.006-0.085-0.021-0.122c-0.011-0.036-0.026-0.073-0.053-0.104c-0.022-0.025-0.054-0.047-0.093-0.063
		C9.952,16.557,9.908,16.549,9.855,16.549z"/>
	<path d="M11.777,16.635c-0.021,0-0.049-0.002-0.079-0.006s-0.058-0.006-0.079-0.006c-0.09,0-0.16,0.017-0.215,0.043
		c-0.051,0.031-0.094,0.074-0.118,0.127v1.09h-0.443v-1.66h0.419l0.014,0.195c0.041-0.071,0.095-0.129,0.154-0.17
		c0.063-0.041,0.135-0.06,0.217-0.06c0.023,0,0.049,0.002,0.072,0.007c0.025,0.004,0.049,0.006,0.063,0.012L11.777,16.635z"/>
	<path d="M12.893,17.424c0-0.024-0.004-0.045-0.018-0.064c-0.009-0.021-0.023-0.037-0.051-0.057c-0.025-0.02-0.063-0.03-0.104-0.049
		c-0.048-0.018-0.103-0.027-0.172-0.045c-0.088-0.019-0.164-0.043-0.234-0.068c-0.073-0.025-0.137-0.063-0.188-0.104
		c-0.053-0.041-0.097-0.088-0.122-0.146c-0.027-0.054-0.046-0.114-0.046-0.188c0-0.068,0.019-0.136,0.046-0.197
		c0.028-0.061,0.074-0.116,0.133-0.164c0.055-0.051,0.122-0.086,0.209-0.114c0.08-0.026,0.172-0.039,0.275-0.039
		c0.109,0,0.205,0.013,0.292,0.037s0.159,0.063,0.22,0.11c0.063,0.049,0.105,0.107,0.141,0.172c0.031,0.063,0.05,0.137,0.05,0.217
		h-0.447c0-0.066-0.021-0.118-0.062-0.16s-0.104-0.061-0.192-0.061c-0.075,0-0.134,0.015-0.174,0.05
		c-0.038,0.032-0.062,0.077-0.062,0.128c0,0.023,0.004,0.047,0.016,0.064c0.013,0.022,0.029,0.037,0.054,0.053
		c0.022,0.018,0.056,0.031,0.096,0.043c0.037,0.017,0.089,0.023,0.146,0.037c0.089,0.021,0.172,0.039,0.249,0.065
		c0.076,0.022,0.145,0.058,0.199,0.101c0.056,0.043,0.1,0.09,0.131,0.146c0.033,0.062,0.049,0.132,0.049,0.214
		c0,0.071-0.02,0.141-0.049,0.202c-0.032,0.063-0.078,0.117-0.141,0.16c-0.062,0.047-0.136,0.081-0.223,0.106
		c-0.087,0.024-0.182,0.037-0.289,0.037c-0.118,0-0.219-0.015-0.309-0.048c-0.088-0.032-0.166-0.075-0.226-0.131
		c-0.063-0.053-0.106-0.11-0.139-0.181c-0.03-0.064-0.046-0.135-0.046-0.201h0.421c0.002,0.042,0.014,0.08,0.028,0.111
		c0.016,0.029,0.037,0.06,0.063,0.076c0.029,0.021,0.063,0.031,0.097,0.043c0.037,0.01,0.075,0.016,0.115,0.016
		c0.085,0,0.151-0.02,0.192-0.051C12.87,17.516,12.893,17.476,12.893,17.424z"/>
</g>
<g>
	<path fill="#6D6E70" d="M5.5,3.465C4.731,3.449,4.106,2.867,4.107,2.06c0.001-0.785,0.609-1.388,1.398-1.396
		c0.772-0.006,1.414,0.643,1.401,1.409C6.897,2.847,6.267,3.471,5.5,3.465z"/>
	<path fill="#FFFFFF" d="M5.5,3.465l0.006-0.277c-0.63-0.02-1.118-0.473-1.121-1.126V2.061H4.116l0.267,0.03l0.001-0.03H4.116
		l0.267,0.03l0.001-0.015V2.061c0.005-0.636,0.478-1.108,1.123-1.12h0.009c0.302,0,0.58,0.126,0.784,0.33
		C6.505,1.475,6.63,1.753,6.63,2.05v0.021V2.069c-0.008,0.62-0.512,1.12-1.119,1.119H5.497L5.5,3.465l0.006-0.277L5.5,3.465
		l0.002,0.277H5.51c0.917-0.001,1.661-0.746,1.673-1.667V2.074V2.05C7.18,1.141,6.433,0.39,5.516,0.387H5.502
		C4.57,0.392,3.828,1.127,3.831,2.06h0.277L3.832,2.029L3.831,2.061v0.001C3.827,3.02,4.589,3.729,5.494,3.742h0.004h0.004
		L5.5,3.465z"/>
	<path fill="#6D6E70" d="M1.939,3.028c0.278,0.001,0.494,0.214,0.492,0.49C2.43,3.792,2.208,4.012,1.936,4.009
		C1.662,4.004,1.447,3.782,1.449,3.51C1.452,3.244,1.67,3.026,1.939,3.028z"/>
	<path fill="#FFFFFF" d="M1.939,3.028v0.166C2.13,3.198,2.264,3.331,2.266,3.516v0.017l0.166-0.014L2.265,3.517
		C2.264,3.7,2.12,3.842,1.942,3.842H1.933l0.002,0.167l0.003-0.167C1.756,3.839,1.616,3.695,1.615,3.514H1.499l0.116,0.01v-0.01
		H1.499l0.116,0.01V3.518V3.511c0.001-0.172,0.146-0.317,0.322-0.317v-0.15l-0.02,0.149l0.02,0.001v-0.15l-0.02,0.149l0.011,0.001
		h0.01L1.939,3.028L1.96,2.863L1.937,2.861c-0.36,0-0.65,0.29-0.654,0.647L1.449,3.51L1.284,3.496v0.018
		c-0.001,0.36,0.287,0.656,0.65,0.661h0.002h0.003h0.003c0.361,0,0.654-0.293,0.656-0.656V3.511V3.503L2.444,3.517h0.153V3.504
		L2.444,3.517h0.153V3.516c0-0.365-0.294-0.654-0.658-0.654V3.028L1.96,2.863L1.939,3.028z"/>
	<path fill="#6D6E70" d="M14.555,9.988c-0.07,0.13-0.128,0.271-0.22,0.384c-0.188,0.237-0.512,0.299-0.767,0.133
		c-0.371-0.239-0.748-0.484-1.086-0.764c-0.537-0.449-1.051-0.929-1.565-1.406c-0.252-0.232-0.483-0.491-0.715-0.742l-0.167-0.03
		c-0.66,0.307-1.078,0.834-1.374,1.476c-0.228,0.491-0.372,1.005-0.494,1.533c-0.1,0.43-0.375,0.62-0.792,0.533
		c-0.4-0.078-0.658-0.441-0.572-0.837c0.142-0.651,0.337-1.29,0.629-1.888c0.273-0.557,0.62-1.065,1.083-1.486l0.043-0.035
		C8.113,6.38,7.671,5.906,7.221,5.423C7.163,5.54,7.109,5.657,7.048,5.769c-0.291,0.52-0.725,0.852-1.3,1.007
		c-0.676,0.179-1.333,0.08-1.983-0.127c-0.24-0.074-0.373-0.261-0.402-0.505C3.349,6.027,3.28,6.027,3.201,6.004L3.054,6.081
		c-0.331,0.562-1.02,0.762-1.607,0.482C1.146,6.421,0.885,6.23,0.707,5.951C0.624,5.819,0.575,5.667,0.513,5.525v-0.27
		c0.095-0.363,0.328-0.618,0.654-0.781C1.669,4.217,2.183,4.14,2.686,4.47c0.315,0.206,0.487,0.51,0.525,0.882l0.138,0.152
		c0.115,0.023,0.2,0.015,0.301-0.073c0.159-0.134,0.356-0.14,0.563-0.094C4.505,5.4,4.804,5.47,5.103,5.487
		c0.398,0.025,0.685-0.206,0.818-0.584C6.017,4.631,6.037,4.35,6.042,4.065C6.046,3.868,6.061,3.67,6.097,3.479l0.162-0.222
		c0.083-0.09,0.165-0.188,0.265-0.251c0.142-0.09,0.304-0.15,0.456-0.224l0.145-0.078C7.96,1.893,8.832,1.121,9.719,0.365
		c0.477-0.403,1.02-0.168,1.215,0.198c0.121,0.228,0.096,0.498-0.105,0.686c-0.213,0.199-0.444,0.374-0.66,0.569
		C9.564,2.354,8.973,2.899,8.373,3.441L8.328,3.492c0.115,0.132,0.227,0.265,0.344,0.393C9.033,4.282,9.393,4.683,9.76,5.073
		c0.161,0.172,0.346,0.32,0.506,0.491c0.283,0.312,0.551,0.639,0.836,0.948c0.344,0.369,0.688,0.736,1.051,1.087
		c0.336,0.326,0.689,0.64,1.051,0.941c0.271,0.226,0.563,0.429,0.855,0.624c0.217,0.145,0.412,0.294,0.492,0.551L14.555,9.988z"/>
	<path fill="#FFFFFF" d="M14.555,9.988l-0.049-0.028c-0.072,0.135-0.129,0.271-0.215,0.377c-0.105,0.135-0.258,0.205-0.413,0.205
		L13.6,10.458c-0.371-0.24-0.746-0.484-1.08-0.76c-0.535-0.448-1.051-0.927-1.563-1.405c-0.25-0.23-0.479-0.488-0.712-0.739
		L10.23,7.54l-0.187-0.033l-0.019-0.003L10.01,7.512c-0.675,0.313-1.102,0.854-1.4,1.503c-0.229,0.496-0.375,1.017-0.498,1.544
		c-0.084,0.348-0.264,0.509-0.551,0.512l-0.175-0.02c-0.325-0.064-0.544-0.326-0.544-0.633l0.015-0.14
		C6.999,9.63,7.193,8.997,7.483,8.403c0.271-0.552,0.613-1.054,1.07-1.469L8.516,6.893l0.035,0.043l0.042-0.035l0.048-0.037
		L8.598,6.821C8.153,6.342,7.711,5.868,7.261,5.386L7.207,5.327L7.171,5.399C7.113,5.517,7.06,5.633,6.999,5.743
		C6.715,6.25,6.296,6.569,5.733,6.722C5.494,6.786,5.257,6.813,5.021,6.813c-0.416,0-0.829-0.087-1.24-0.217
		C3.563,6.527,3.446,6.365,3.418,6.137c-0.014-0.149-0.14-0.172-0.202-0.186L3.195,5.945L3.029,6.032L3.015,6.039L3.006,6.053
		c-0.22,0.374-0.606,0.58-1.01,0.58c-0.176,0-0.354-0.039-0.525-0.12c-0.295-0.14-0.546-0.324-0.717-0.592
		c-0.079-0.124-0.127-0.272-0.19-0.418L0.513,5.525h0.055v-0.27H0.513L0.567,5.27c0.091-0.347,0.311-0.587,0.625-0.747
		c0.263-0.135,0.527-0.217,0.786-0.217c0.227,0,0.452,0.062,0.678,0.21C2.958,4.713,3.118,5,3.156,5.357l0.002,0.019l0.149,0.166
		L3.32,5.555l0.018,0.003L3.446,5.57l0.24-0.098C3.777,5.396,3.881,5.367,4,5.367l0.201,0.024C4.493,5.455,4.794,5.525,5.1,5.542
		l0.062,0.002c0.393,0.001,0.681-0.249,0.812-0.623C6.073,4.64,6.093,4.352,6.099,4.066c0.003-0.195,0.018-0.39,0.054-0.577
		l-0.055-0.01l0.045,0.032l0.16-0.221L6.258,3.257L6.3,3.294l0.253-0.242c0.135-0.086,0.295-0.146,0.45-0.221h0.002L7.15,2.753
		l0.007-0.004l0.005-0.005c0.835-0.81,1.705-1.581,2.591-2.336c0.168-0.142,0.339-0.198,0.499-0.198c0.271,0,0.516,0.167,0.63,0.379
		l0.067,0.259c0,0.131-0.053,0.257-0.162,0.36c-0.21,0.196-0.441,0.371-0.658,0.568C9.529,2.313,8.934,2.858,8.336,3.4L8.334,3.401
		L8.287,3.455L8.254,3.491l0.031,0.037C8.4,3.66,8.514,3.793,8.631,3.922c0.361,0.397,0.721,0.799,1.09,1.189
		c0.163,0.175,0.348,0.324,0.504,0.491c0.282,0.31,0.549,0.636,0.836,0.947c0.344,0.369,0.688,0.737,1.053,1.089
		c0.339,0.327,0.691,0.642,1.054,0.944c0.272,0.229,0.567,0.433,0.86,0.627c0.217,0.145,0.397,0.285,0.472,0.521l0.053-0.016
		l-0.055,0.001L14.5,9.988H14.555l-0.049-0.028L14.555,9.988l0.055-0.001l-0.002-0.273V9.706l-0.002-0.007
		c-0.088-0.278-0.299-0.436-0.518-0.581c-0.291-0.195-0.583-0.397-0.852-0.621c-0.358-0.3-0.711-0.614-1.045-0.938
		c-0.362-0.35-0.707-0.716-1.051-1.085c-0.283-0.307-0.55-0.633-0.836-0.947C10.143,5.352,9.957,5.203,9.8,5.036
		c-0.366-0.39-0.726-0.791-1.087-1.188C8.598,3.721,8.484,3.587,8.37,3.456L8.328,3.492l0.041,0.037l0.045-0.051L8.373,3.441
		L8.41,3.482c0.6-0.542,1.193-1.087,1.793-1.624c0.213-0.193,0.443-0.368,0.66-0.569c0.133-0.122,0.197-0.281,0.197-0.441
		c0-0.106-0.027-0.213-0.08-0.311c-0.133-0.248-0.41-0.438-0.729-0.438c-0.188,0-0.386,0.067-0.57,0.225
		C8.793,1.08,7.922,1.853,7.085,2.666l0.038,0.04L7.098,2.655L6.953,2.733l0.026,0.048l-0.023-0.05
		c-0.15,0.073-0.313,0.133-0.462,0.228c-0.11,0.07-0.195,0.172-0.276,0.261L6.216,3.222L6.052,3.446l-0.007,0.01L6.042,3.469
		C6.005,3.665,5.991,3.865,5.987,4.064C5.982,4.347,5.962,4.622,5.868,4.885C5.746,5.228,5.504,5.432,5.162,5.433L5.106,5.432
		C4.813,5.416,4.518,5.346,4.225,5.283L4,5.256c-0.137,0-0.272,0.036-0.386,0.133l-0.168,0.07L3.359,5.45l-0.01,0.053L3.39,5.466
		L3.252,5.314L3.211,5.352l0.055-0.006c-0.039-0.385-0.22-0.708-0.55-0.923C2.474,4.264,2.225,4.195,1.978,4.195
		c-0.283,0-0.563,0.089-0.836,0.229C0.805,4.593,0.559,4.863,0.459,5.241L0.458,5.248v0.277v0.011l0.004,0.011
		c0.061,0.139,0.11,0.294,0.198,0.434c0.187,0.291,0.457,0.487,0.764,0.632c0.185,0.088,0.38,0.131,0.572,0.131
		c0.442,0,0.866-0.227,1.106-0.635L3.054,6.081L3.08,6.13l0.147-0.077L3.201,6.004L3.186,6.057l0.123,0.094
		c0.029,0.26,0.179,0.472,0.44,0.551C4.166,6.834,4.59,6.924,5.021,6.924c0.245,0,0.491-0.028,0.741-0.095
		C6.35,6.671,6.8,6.328,7.096,5.796C7.159,5.681,7.213,5.563,7.27,5.447L7.22,5.423L7.18,5.461c0.45,0.482,0.893,0.957,1.337,1.435
		l0.041-0.038L8.521,6.816L8.481,6.851H8.48L8.479,6.852c-0.47,0.427-0.82,0.94-1.096,1.502c-0.295,0.604-0.491,1.247-0.633,1.9
		l-0.018,0.164c0,0.36,0.261,0.668,0.633,0.74l0.197,0.021c0.339,0.003,0.576-0.22,0.659-0.597c0.121-0.525,0.265-1.039,0.489-1.523
		c0.294-0.634,0.702-1.148,1.349-1.449l-0.023-0.05l-0.01,0.055l0.166,0.03l0.011-0.055l-0.041,0.037
		c0.231,0.251,0.464,0.511,0.718,0.746c0.516,0.478,1.03,0.958,1.568,1.408c0.341,0.283,0.72,0.529,1.092,0.768
		c0.105,0.068,0.225,0.103,0.339,0.103c0.188,0,0.373-0.087,0.5-0.247c0.099-0.121,0.156-0.266,0.226-0.391L14.609,10V9.987
		L14.555,9.988z"/>
</g>
</svg>
