<?xml version="1.0" encoding="utf-8"?>
<!-- Generator: Adobe Illustrator 16.0.0, SVG Export Plug-In . SVG Version: 6.00 Build 0)  -->
<!DOCTYPE svg PUBLIC "-//W3C//DTD SVG 1.1//EN" "http://www.w3.org/Graphics/SVG/1.1/DTD/svg11.dtd">
<svg version="1.1" id="Layer_1" xmlns="http://www.w3.org/2000/svg" xmlns:xlink="http://www.w3.org/1999/xlink" x="0px" y="0px"
	 width="16px" height="18.58px" viewBox="0 0 16 18.58" enable-background="new 0 0 16 18.58" xml:space="preserve">
<g>
	<path fill="#6D6E70" d="M12.781,5.894c-0.047,0-0.08,0-0.115,0c-0.689,0-1.379,0-2.066,0c-0.168,0-0.291-0.1-0.312-0.248
		c-0.026-0.191,0.106-0.345,0.308-0.345c0.411-0.002,0.82-0.002,1.229-0.002c0.268,0,0.534,0.002,0.801,0
		c0.103,0,0.159-0.045,0.16-0.121c0-0.076-0.062-0.123-0.158-0.123c-0.369,0-0.737,0-1.108,0c-0.027,0-0.063,0-0.102,0
		c0-0.169-0.012-0.331,0.007-0.49c0.005-0.059,0.066-0.131,0.118-0.16c0.775-0.454,1.557-0.903,2.334-1.354
		c0.133-0.075,0.271-0.04,0.348,0.095c0.183,0.311,0.361,0.623,0.539,0.936c0.076,0.131,0.036,0.27-0.095,0.346
		c-0.213,0.126-0.428,0.248-0.642,0.368c-0.045,0.027-0.065,0.055-0.065,0.111c0.001,1.8,0.001,3.604,0.001,5.408
		c0,0.021,0.002,0.041,0.002,0.067c0.032,0.002,0.064,0.011,0.094,0.013c0.414,0.045,0.717,0.393,0.713,0.813
		c-0.004,0.412-0.319,0.756-0.736,0.791c-0.035,0.002-0.073,0.002-0.112,0.002c-3.95,0-7.905,0-11.86,0
		c-0.352,0-0.622-0.135-0.779-0.451c-0.261-0.524,0.107-1.133,0.696-1.161c0.056,0,0.112,0,0.169,0c3.498,0,6.996,0,10.498,0
		c0.041,0,0.084,0,0.129,0C12.781,8.887,12.781,7.397,12.781,5.894z"/>
	<path fill="#6D6E70" d="M7.973,6.375C7.621,6.274,7.282,6.182,6.939,6.082C6.679,6.011,6.421,5.94,6.162,5.868
		C5.699,5.733,5.504,5.371,5.643,4.909C5.665,4.84,5.691,4.778,5.722,4.713c0.294-0.579,0.589-1.157,0.884-1.738
		c0.015-0.022,0.027-0.051,0.045-0.09C6.527,2.87,6.411,2.85,6.294,2.832c-0.301-0.037-0.603-0.08-0.905-0.117
		c-0.051-0.002-0.111,0.003-0.16,0.023C4.789,2.931,4.352,3.13,3.91,3.317c-0.09,0.04-0.196,0.061-0.295,0.061
		C3.474,3.38,3.37,3.303,3.311,3.175C3.249,3.044,3.258,2.911,3.348,2.803c0.05-0.066,0.118-0.125,0.193-0.162
		C4.046,2.37,4.552,2.098,5.064,1.84C5.17,1.785,5.308,1.766,5.429,1.773C6.214,1.822,7,1.877,7.786,1.941
		c0.356,0.026,0.657,0.187,0.882,0.47c0.247,0.308,0.26,0.69,0.027,1.029C8.572,3.617,8.428,3.778,8.29,3.945
		C8.045,4.246,7.796,4.542,7.552,4.842C7.538,4.858,7.528,4.873,7.507,4.899C7.55,4.917,7.586,4.932,7.623,4.943
		C8.077,5.11,8.531,5.272,8.984,5.438C9.229,5.527,9.383,5.69,9.4,5.959C9.41,6.131,9.355,6.285,9.255,6.42
		C8.682,7.19,8.107,7.953,7.53,8.72C7.438,8.841,7.318,8.929,7.161,8.95C6.823,8.997,6.569,8.685,6.678,8.357
		C6.702,8.278,6.745,8.202,6.79,8.136c0.373-0.557,0.747-1.114,1.123-1.67C7.931,6.442,7.947,6.411,7.973,6.375z"/>
	<path fill="#6D6E70" d="M5.408,5.627C5.534,5.89,5.739,6.021,5.995,6.093c0.192,0.051,0.383,0.108,0.583,0.163
		C6.531,6.377,6.485,6.492,6.44,6.608C6.293,6.985,6.142,7.359,6,7.735C5.934,7.919,5.832,8.062,5.688,8.196
		C5.254,8.583,4.831,8.981,4.401,9.378c-0.229,0.213-0.46,0.425-0.69,0.639c-0.113,0.104-0.242,0.176-0.398,0.178
		C2.98,10.206,2.758,9.872,2.896,9.568C2.932,9.484,2.99,9.41,3.053,9.348c0.568-0.593,1.141-1.18,1.712-1.769
		c0.04-0.04,0.072-0.091,0.088-0.146c0.177-0.57,0.348-1.139,0.521-1.705C5.382,5.699,5.393,5.672,5.408,5.627z"/>
	<path fill="#6D6E70" d="M9.146,2.067C8.573,2.065,8.113,1.6,8.115,1.026c0.001-0.571,0.469-1.034,1.037-1.031
		c0.578,0.003,1.037,0.466,1.035,1.044C10.182,1.614,9.723,2.071,9.146,2.067z"/>
	<path fill="#6D6E70" d="M8.697,3.83c0.259-0.292,0.443-0.606,0.396-1.031c0.28,0.276,0.549,0.53,0.815,0.79
		c0.271-0.162,0.534-0.322,0.799-0.48c0.124-0.077,0.246-0.16,0.376-0.226c0.086-0.043,0.182-0.078,0.273-0.08
		c0.279-0.007,0.455,0.283,0.324,0.532c-0.041,0.073-0.105,0.143-0.176,0.195c-0.473,0.333-0.943,0.665-1.421,1
		C9.95,4.623,9.803,4.637,9.65,4.58C9.6,4.56,9.548,4.537,9.503,4.502C9.236,4.281,8.971,4.058,8.697,3.83z"/>
</g>
<g>
	<path d="M5.609,16.459c-0.026,0.031-0.062,0.063-0.106,0.103c-0.045,0.033-0.101,0.065-0.168,0.1
		c-0.067,0.031-0.147,0.057-0.239,0.074c-0.092,0.021-0.197,0.031-0.316,0.031c-0.14,0-0.268-0.021-0.384-0.068
		s-0.214-0.111-0.297-0.203c-0.084-0.09-0.148-0.199-0.193-0.328c-0.045-0.133-0.068-0.283-0.068-0.449v-0.129
		c0-0.168,0.021-0.316,0.065-0.447c0.043-0.131,0.104-0.24,0.183-0.33s0.174-0.155,0.287-0.203c0.113-0.047,0.237-0.069,0.374-0.069
		c0.141,0,0.263,0.021,0.366,0.054c0.103,0.034,0.188,0.084,0.258,0.147c0.069,0.063,0.123,0.139,0.162,0.229
		c0.039,0.089,0.064,0.185,0.076,0.289H5.173c-0.009-0.057-0.023-0.104-0.042-0.147s-0.044-0.082-0.077-0.111
		c-0.033-0.03-0.074-0.057-0.122-0.071c-0.048-0.021-0.105-0.028-0.172-0.028c-0.153,0-0.269,0.062-0.349,0.175
		c-0.079,0.114-0.119,0.284-0.119,0.515v0.131c0,0.229,0.043,0.397,0.13,0.516c0.087,0.119,0.213,0.176,0.38,0.176
		c0.054,0,0.1-0.004,0.14-0.012c0.04-0.006,0.074-0.016,0.102-0.023c0.028-0.012,0.052-0.021,0.071-0.035
		c0.019-0.012,0.034-0.021,0.046-0.033v-0.375H4.755v-0.328h0.854V16.459z"/>
	<path d="M6.544,16.125l0.298-1.004h0.461l-0.645,1.854c-0.015,0.041-0.034,0.084-0.057,0.133c-0.023,0.048-0.055,0.093-0.095,0.134
		s-0.089,0.075-0.147,0.104c-0.058,0.028-0.131,0.041-0.216,0.041c-0.02,0-0.038,0-0.054-0.003
		c-0.016-0.002-0.031-0.004-0.046-0.006s-0.029-0.004-0.044-0.008c-0.014-0.004-0.03-0.009-0.047-0.015v-0.325
		c0.011,0,0.022,0,0.034,0c0.012,0.002,0.022,0.002,0.033,0.002c0.043,0,0.079-0.005,0.11-0.011c0.03-0.006,0.056-0.019,0.078-0.03
		c0.021-0.017,0.04-0.031,0.055-0.056c0.015-0.021,0.028-0.047,0.039-0.078l0.046-0.118l-0.565-1.617h0.463L6.544,16.125z"/>
	<path d="M7.878,15.121l0.013,0.185c0.054-0.064,0.119-0.117,0.196-0.154s0.166-0.059,0.269-0.059c0.096,0,0.183,0.021,0.253,0.061
		c0.074,0.039,0.131,0.104,0.172,0.188c0.055-0.076,0.119-0.138,0.199-0.183c0.08-0.043,0.176-0.063,0.285-0.063
		c0.08,0,0.149,0.012,0.215,0.032c0.063,0.021,0.119,0.06,0.164,0.104c0.045,0.05,0.08,0.109,0.104,0.188
		c0.025,0.078,0.037,0.174,0.037,0.287v1.023H9.352v-1.023c0-0.057-0.006-0.1-0.018-0.135c-0.01-0.033-0.025-0.063-0.047-0.08
		c-0.021-0.02-0.047-0.033-0.076-0.039c-0.029-0.01-0.063-0.014-0.102-0.014c-0.066,0-0.121,0.018-0.166,0.051
		s-0.08,0.078-0.104,0.137c0,0.004,0,0.012,0,0.018s0,0.013,0,0.017v1.073H8.411v-1.021c0-0.056-0.006-0.101-0.018-0.134
		c-0.012-0.035-0.027-0.063-0.048-0.082c-0.021-0.021-0.046-0.032-0.077-0.041c-0.031-0.01-0.064-0.016-0.102-0.016
		c-0.064,0-0.117,0.016-0.161,0.041c-0.044,0.024-0.079,0.063-0.104,0.11v1.142h-0.43V15.12L7.878,15.121L7.878,15.121z"/>
	<path d="M10.988,16.289c0-0.021-0.006-0.045-0.014-0.063c-0.013-0.021-0.027-0.037-0.054-0.055s-0.062-0.029-0.103-0.047
		c-0.043-0.018-0.098-0.027-0.166-0.043c-0.084-0.02-0.157-0.041-0.229-0.064c-0.068-0.026-0.133-0.063-0.184-0.104
		c-0.053-0.039-0.092-0.084-0.119-0.139c-0.029-0.053-0.043-0.113-0.043-0.186c0-0.066,0.016-0.132,0.043-0.191
		c0.027-0.061,0.07-0.111,0.127-0.158c0.055-0.047,0.123-0.084,0.203-0.109c0.078-0.023,0.17-0.039,0.271-0.039
		c0.104,0,0.194,0.014,0.278,0.037c0.082,0.025,0.151,0.063,0.211,0.107c0.062,0.045,0.104,0.104,0.138,0.164
		c0.028,0.063,0.047,0.135,0.047,0.209h-0.435c0-0.063-0.021-0.111-0.062-0.15c-0.039-0.041-0.102-0.063-0.186-0.063
		c-0.072,0-0.131,0.018-0.168,0.049c-0.041,0.033-0.061,0.074-0.061,0.127c0,0.021,0.004,0.045,0.016,0.063
		c0.012,0.021,0.027,0.037,0.053,0.053c0.021,0.019,0.053,0.029,0.092,0.043c0.037,0.015,0.084,0.023,0.142,0.035
		c0.088,0.019,0.168,0.038,0.244,0.063c0.073,0.024,0.139,0.058,0.19,0.097c0.055,0.039,0.096,0.09,0.127,0.146
		c0.031,0.059,0.047,0.123,0.047,0.203c0,0.068-0.018,0.137-0.049,0.195c-0.031,0.063-0.076,0.11-0.137,0.153
		c-0.061,0.045-0.131,0.078-0.215,0.104c-0.082,0.023-0.176,0.037-0.277,0.037c-0.113,0-0.215-0.018-0.303-0.049
		c-0.086-0.031-0.156-0.072-0.217-0.125s-0.104-0.109-0.135-0.176c-0.027-0.063-0.043-0.129-0.043-0.193h0.408
		c0.002,0.043,0.01,0.076,0.024,0.107c0.019,0.027,0.037,0.055,0.063,0.07c0.025,0.021,0.06,0.033,0.094,0.043
		c0.033,0.01,0.07,0.016,0.109,0.016c0.084,0,0.146-0.018,0.188-0.047C10.967,16.38,10.988,16.339,10.988,16.289z"/>
</g>
</svg>
