<?xml version="1.0" encoding="utf-8"?>
<!-- Generator: Adobe Illustrator 16.0.0, SVG Export Plug-In . SVG Version: 6.00 Build 0)  -->
<!DOCTYPE svg PUBLIC "-//W3C//DTD SVG 1.1//EN" "http://www.w3.org/Graphics/SVG/1.1/DTD/svg11.dtd">
<svg version="1.1" id="Layer_1" xmlns="http://www.w3.org/2000/svg" xmlns:xlink="http://www.w3.org/1999/xlink" x="0px" y="0px"
	 width="16.08px" height="18.48px" viewBox="0 0 16.08 18.48" enable-background="new 0 0 16.08 18.48" xml:space="preserve">
<path d="M12.622,14.939c0.124,0.088,0.292,0.132,0.504,0.132c0.232,0,0.409-0.052,0.527-0.156c0.121-0.104,0.18-0.229,0.18-0.376
	c0-0.134-0.043-0.237-0.129-0.313c-0.086-0.074-0.239-0.14-0.459-0.188c-0.221-0.05-0.348-0.09-0.385-0.118l-0.041-0.076
	l0.047-0.085c0.047-0.028,0.125-0.046,0.232-0.046l0.196,0.052l0.097,0.142l0.389-0.072c-0.039-0.139-0.11-0.243-0.215-0.313
	c-0.104-0.07-0.26-0.106-0.477-0.106c-0.224,0-0.389,0.047-0.492,0.143c-0.106,0.095-0.16,0.211-0.16,0.349
	c0,0.151,0.063,0.271,0.186,0.354c0.089,0.063,0.299,0.133,0.631,0.205l0.139,0.059l0.029,0.079l-0.055,0.109
	c-0.055,0.04-0.135,0.063-0.24,0.063c-0.098,0-0.172-0.021-0.227-0.063l-0.106-0.186l-0.413,0.063
	C12.418,14.733,12.499,14.852,12.622,14.939z M11.166,14.105c-0.001-0.114,0.026-0.205,0.086-0.272l0.224-0.101l0.213,0.095
	c0.062,0.063,0.09,0.156,0.096,0.278H11.166z M11.658,14.703l-0.163,0.055l-0.237-0.104c-0.063-0.069-0.097-0.166-0.1-0.291h1.032
	c0.004-0.322-0.062-0.563-0.192-0.718c-0.134-0.155-0.315-0.233-0.548-0.233c-0.206,0-0.377,0.074-0.512,0.224
	c-0.135,0.148-0.203,0.355-0.203,0.619c0,0.223,0.052,0.402,0.154,0.547c0.131,0.184,0.33,0.271,0.602,0.271
	c0.171,0,0.313-0.04,0.427-0.12s0.196-0.197,0.25-0.352l-0.411-0.069L11.658,14.703z M9.285,14.939
	c0.124,0.088,0.292,0.132,0.504,0.132c0.233,0,0.409-0.052,0.528-0.156c0.119-0.104,0.179-0.229,0.179-0.376
	c0-0.134-0.043-0.237-0.129-0.313c-0.087-0.074-0.239-0.14-0.459-0.188s-0.349-0.09-0.386-0.118l-0.041-0.076l0.047-0.085
	c0.048-0.028,0.125-0.046,0.23-0.046l0.199,0.052l0.096,0.142l0.391-0.072c-0.041-0.139-0.111-0.243-0.215-0.313
	c-0.104-0.07-0.264-0.106-0.478-0.106c-0.226,0-0.39,0.047-0.495,0.143c-0.104,0.095-0.156,0.211-0.156,0.349
	c0,0.151,0.062,0.271,0.185,0.354c0.089,0.063,0.299,0.133,0.631,0.205l0.138,0.059l0.03,0.079l-0.056,0.109
	c-0.053,0.04-0.135,0.063-0.239,0.063c-0.099,0-0.172-0.021-0.226-0.063l-0.107-0.19l-0.413,0.063
	C9.081,14.733,9.162,14.852,9.285,14.939z M7.617,14.939c0.124,0.088,0.291,0.132,0.503,0.132c0.234,0,0.41-0.052,0.529-0.156
	c0.119-0.104,0.179-0.229,0.179-0.376c0-0.134-0.043-0.237-0.129-0.313c-0.087-0.074-0.24-0.14-0.459-0.188
	c-0.219-0.05-0.347-0.09-0.385-0.118l-0.041-0.076L7.86,13.76c0.047-0.028,0.125-0.046,0.233-0.046l0.198,0.052l0.095,0.142
	l0.388-0.072c-0.039-0.139-0.11-0.243-0.215-0.313c-0.104-0.07-0.264-0.106-0.477-0.106c-0.224,0-0.389,0.047-0.495,0.144
	c-0.106,0.094-0.159,0.21-0.159,0.348c0,0.152,0.061,0.271,0.184,0.354c0.089,0.063,0.3,0.133,0.631,0.205l0.138,0.059l0.029,0.079
	L8.36,14.708c-0.054,0.04-0.134,0.063-0.241,0.063c-0.096,0-0.171-0.021-0.226-0.063L7.786,14.52l-0.413,0.063
	C7.412,14.733,7.493,14.852,7.617,14.939z M6.709,14.357c0,0.1-0.005,0.169-0.016,0.204l-0.098,0.14l-0.212,0.074l-0.165-0.063
	L6.154,14.56l0.081-0.148c0.035-0.021,0.11-0.048,0.224-0.073c0.114-0.021,0.197-0.047,0.25-0.063V14.357z M6.258,13.777
	l0.171-0.045c0.109,0,0.182,0.018,0.222,0.052l0.058,0.173v0.042c-0.074,0.031-0.207,0.066-0.4,0.104
	c-0.142,0.024-0.251,0.06-0.327,0.097l-0.177,0.162l-0.063,0.239c0,0.136,0.046,0.249,0.139,0.337
	c0.092,0.089,0.219,0.133,0.378,0.133l0.257-0.052l0.226-0.157l0.014,0.05l0.04,0.124h0.407l-0.074-0.213
	c-0.014-0.067-0.02-0.17-0.02-0.31l0.004-0.49c0-0.186-0.018-0.312-0.055-0.376l-0.19-0.169c-0.09-0.045-0.227-0.067-0.41-0.067
	c-0.202,0-0.355,0.037-0.458,0.11c-0.102,0.071-0.175,0.188-0.216,0.342l0.373,0.068L6.258,13.777z M5.429,15.036v-2.193H5.017
	v2.193H5.429z M4.049,14.582c-0.083,0.075-0.183,0.112-0.297,0.112c-0.156,0-0.283-0.062-0.381-0.176
	c-0.098-0.118-0.146-0.315-0.146-0.596c0-0.261,0.049-0.448,0.148-0.563c0.099-0.117,0.228-0.175,0.388-0.175
	c0.115,0,0.213,0.029,0.293,0.098c0.081,0.066,0.134,0.156,0.159,0.27l0.429-0.104c-0.048-0.176-0.122-0.311-0.219-0.404
	c-0.164-0.158-0.377-0.234-0.64-0.234c-0.301,0-0.544,0.102-0.728,0.303c-0.185,0.202-0.277,0.482-0.277,0.851
	c0,0.348,0.092,0.617,0.276,0.816c0.183,0.198,0.418,0.298,0.703,0.298c0.231,0,0.421-0.059,0.571-0.174
	c0.15-0.117,0.257-0.294,0.322-0.534l-0.42-0.136C4.191,14.39,4.132,14.508,4.049,14.582z"/>
<g>
	<path fill-rule="evenodd" clip-rule="evenodd" fill="#6D6E70" d="M5.523,3.011c0.025,0.363-0.059,0.742,0.272,0.967
		C5.932,4.07,6.113,4.126,6.278,4.141c0.283,0.025,0.523-0.115,0.624-0.372C6.99,3.546,6.994,3.289,7.038,3.026
		c0.662,0,1.338,0,2.037,0c0.021,0.349-0.059,0.726,0.271,0.952C9.48,4.071,9.662,4.125,9.828,4.141
		c0.284,0.027,0.521-0.116,0.624-0.372c0.089-0.223,0.093-0.479,0.136-0.73c0.344,0,0.705-0.042,1.053,0.01
		c0.413,0.062,0.719,0.474,0.721,0.906c0.006,1.838,0.009,3.676-0.004,5.513c-0.004,0.654-0.556,1.199-1.214,1.203
		c-2.069,0.012-4.138,0.012-6.207,0c-0.67-0.004-1.215-0.561-1.218-1.229C3.71,7.622,3.712,5.803,3.717,3.983
		c0.002-0.542,0.396-0.945,0.937-0.97C4.937,3,5.221,3.011,5.523,3.011z M8.04,5.729c-1.053,0-2.105,0-3.158,0.001
		c-0.374,0-0.444,0.069-0.445,0.43c0,0.997-0.001,1.995,0.001,2.992C4.438,9.656,4.68,9.896,5.186,9.896
		c1.903,0.002,3.806,0.002,5.707,0c0.506,0,0.748-0.24,0.75-0.744c0.002-0.988,0.002-1.977,0-2.965c0-0.396-0.065-0.458-0.473-0.458
		C10.127,5.729,9.083,5.73,8.04,5.729z"/>
	<path fill-rule="evenodd" clip-rule="evenodd" fill="#6D6E70" d="M5.819,2.982c0-0.139-0.008-0.277,0.001-0.415
		C5.839,2.309,6.025,2.14,6.274,2.144c0.237,0.004,0.421,0.169,0.432,0.415c0.012,0.294,0.013,0.59,0.001,0.885
		c-0.01,0.262-0.198,0.425-0.452,0.42C6.011,3.859,5.84,3.702,5.822,3.452C5.811,3.297,5.819,3.139,5.819,2.982z"/>
	<path fill-rule="evenodd" clip-rule="evenodd" fill="#6D6E70" d="M10.259,3.003c0,0.148,0.008,0.295-0.001,0.442
		c-0.019,0.262-0.2,0.424-0.455,0.418c-0.241-0.005-0.42-0.165-0.43-0.413c-0.013-0.295-0.013-0.59,0-0.885
		c0.01-0.258,0.204-0.427,0.453-0.421c0.237,0.005,0.413,0.169,0.43,0.416C10.267,2.707,10.259,2.856,10.259,3.003z"/>
	<path fill-rule="evenodd" clip-rule="evenodd" fill="#6D6E70" d="M5.161,8.558c0.109-0.006,0.19-0.013,0.271-0.014
		c0.553-0.005,0.64,0.098,0.527,0.646C5.948,9.243,5.875,9.317,5.828,9.32C5.611,9.334,5.393,9.326,5.161,9.326
		C5.161,9.056,5.161,8.822,5.161,8.558z"/>
	<path fill-rule="evenodd" clip-rule="evenodd" fill="#6D6E70" d="M6.383,8.563c0.296,0,0.55,0,0.808,0c0,0.257,0,0.493,0,0.762
		c-0.233,0-0.453,0.01-0.67-0.007C6.472,9.314,6.395,9.22,6.39,9.162C6.373,8.972,6.383,8.779,6.383,8.563z"/>
	<path fill-rule="evenodd" clip-rule="evenodd" fill="#6D6E70" d="M8.885,8.562c0.267,0,0.521,0,0.792,0c0,0.248,0,0.482,0,0.742
		c-0.26,0-0.52,0-0.792,0C8.885,9.051,8.885,8.816,8.885,8.562z"/>
	<path fill-rule="evenodd" clip-rule="evenodd" fill="#6D6E70" d="M8.893,6.313c0.261,0,0.506,0,0.777,0c0,0.241,0,0.483,0,0.745
		c-0.252,0-0.504,0-0.777,0C8.893,6.819,8.893,6.583,8.893,6.313z"/>
	<path fill-rule="evenodd" clip-rule="evenodd" fill="#6D6E70" d="M7.182,8.183c-0.268,0-0.514,0-0.75,0
		C6.412,8.154,6.393,8.14,6.393,8.125c0.002-0.832-0.189-0.722,0.789-0.688C7.182,7.684,7.182,7.93,7.182,8.183z"/>
	<path fill-rule="evenodd" clip-rule="evenodd" fill="#6D6E70" d="M8.89,7.417c0.231,0,0.442-0.01,0.65,0.007
		C9.596,7.428,9.684,7.51,9.688,7.562C9.705,7.76,9.695,7.961,9.695,8.178c-0.283,0-0.535,0-0.806,0
		C8.89,7.933,8.89,7.698,8.89,7.417z"/>
	<path fill-rule="evenodd" clip-rule="evenodd" fill="#6D6E70" d="M10.925,6.317c0,0.256,0,0.485,0,0.737c-0.257,0-0.51,0-0.787,0
		c0-0.234,0-0.476,0-0.737C10.394,6.317,10.646,6.317,10.925,6.317z"/>
	<path fill-rule="evenodd" clip-rule="evenodd" fill="#6D6E70" d="M5.162,8.197c0-0.276,0-0.511,0-0.758
		C5.228,7.43,5.28,7.418,5.333,7.417c0.694-0.016,0.717,0.012,0.599,0.78c-0.116,0-0.24,0-0.364,0
		C5.441,8.197,5.314,8.197,5.162,8.197z"/>
	<path fill-rule="evenodd" clip-rule="evenodd" fill="#6D6E70" d="M10.918,7.439c0,0.255,0,0.49,0,0.741c-0.268,0-0.518,0-0.788,0
		c0-0.25,0-0.483,0-0.741C10.391,7.439,10.64,7.439,10.918,7.439z"/>
	<path fill-rule="evenodd" clip-rule="evenodd" fill="#6D6E70" d="M7.634,8.545c0.245,0,0.456-0.008,0.665,0.005
		C8.35,8.553,8.435,8.625,8.438,8.67c0.015,0.208,0.007,0.417,0.007,0.656c-0.244,0-0.455,0.01-0.663-0.007
		C7.729,9.315,7.646,9.228,7.641,9.173C7.623,8.982,7.634,8.789,7.634,8.545z"/>
	<path fill-rule="evenodd" clip-rule="evenodd" fill="#6D6E70" d="M8.429,6.321c0,0.257,0,0.491,0,0.741c-0.26,0-0.503,0-0.772,0
		c0-0.241,0-0.482,0-0.741C7.913,6.321,8.17,6.321,8.429,6.321z"/>
	<path fill-rule="evenodd" clip-rule="evenodd" fill="#6D6E70" d="M8.477,8.182c-0.315,0-0.559,0-0.867,0
		C7.64,7.92,7.589,7.611,7.721,7.451c0.094-0.113,0.531-0.114,0.637,0.001C8.491,7.594,8.443,7.906,8.477,8.182z"/>
</g>
</svg>
