<?xml version="1.0" encoding="utf-8"?>
<!-- Generator: Adobe Illustrator 16.0.0, SVG Export Plug-In . SVG Version: 6.00 Build 0)  -->
<!DOCTYPE svg PUBLIC "-//W3C//DTD SVG 1.1//EN" "http://www.w3.org/Graphics/SVG/1.1/DTD/svg11.dtd">
<svg version="1.1" id="Layer_1" xmlns="http://www.w3.org/2000/svg" xmlns:xlink="http://www.w3.org/1999/xlink" x="0px" y="0px"
	 width="16.08px" height="18.48px" viewBox="0 0 16.08 18.48" enable-background="new 0 0 16.08 18.48" xml:space="preserve">
<g>
	<path fill="#6D6E70" d="M3.864,2.501c0.351-0.179,0.724-0.202,1.111-0.192C6.026,2.333,7.076,2.34,8.127,2.355
		c0.09,0.001,0.181,0.006,0.245,0.009C8.363,3.075,8.355,3.773,8.346,4.478C7.211,4.82,6.655,5.45,6.668,6.411
		c0.011,0.735,0.438,1.628,1.65,1.878c-0.007,0.706-0.015,1.409-0.023,2.104c-1.29-0.012-2.588-0.001-3.883-0.043
		C3.725,10.326,3.25,9.756,3.248,9.063C3.247,8.791,3.253,8.519,3.256,8.205C3.558,8.218,3.83,8.23,4.103,8.243
		C4.375,8.255,4.648,8.269,4.892,8.28c0.016-1.309,0.033-2.573,0.049-3.867C4.436,4.417,3.889,4.422,3.313,4.427
		C3.326,3.851,3.241,3.302,3.55,2.808C3.655,2.706,3.76,2.604,3.864,2.501z"/>
	<path fill="#6D6E70" d="M8.806,8.287c1.076-0.17,1.639-0.971,1.687-1.792C10.55,5.521,9.987,4.837,8.874,4.49
		c0.01-0.706,0.021-1.405,0.031-2.143c0.422,0.012,0.877,0.027,1.332,0.035c0.785,0.015,1.57,0.02,2.357,0.033
		c0.813,0.016,1.326,0.546,1.321,1.356c-0.001,0.246,0.003,0.492,0.005,0.75c-0.576-0.019-1.13-0.035-1.656-0.051
		c-0.017,1.325-0.033,2.583-0.05,3.835c0.503,0.003,1.056,0.006,1.64,0.009c-0.041,0.633,0.117,1.223-0.324,1.711
		c-0.246,0.271-0.545,0.442-0.909,0.438c-1.288-0.011-2.575-0.038-3.851-0.06C8.782,9.707,8.793,9.006,8.806,8.287z"/>
	<path fill="#6D6E70" d="M13.79,7.917c-0.354-0.004-0.753-0.008-1.135-0.013c0.021-0.968,0.041-1.94,0.061-2.91
		c0.338,0.013,0.742,0.028,1.112,0.042C13.815,5.963,13.804,6.935,13.79,7.917z"/>
	<path fill="#6D6E70" d="M4.479,7.769C4.092,7.76,3.685,7.753,3.306,7.746C3.32,6.809,3.335,5.835,3.35,4.868
		C3.732,4.879,4.139,4.89,4.52,4.901C4.506,5.84,4.492,6.813,4.479,7.769z"/>
	<path fill="#6D6E70" d="M8.825,7.829c0.016-0.952,0.031-1.907,0.046-2.861c0.59,0.022,1.153,0.646,1.188,1.361
		C10.095,7.079,9.55,7.731,8.825,7.829z"/>
	<path fill="#6D6E70" d="M8.334,4.95C8.321,5.914,8.308,6.87,8.295,7.821C7.606,7.709,7.093,7.097,7.103,6.37
		C7.111,5.643,7.642,5.042,8.334,4.95z"/>
</g>
<g>
	<g>
		<path d="M5.394,13.029H4.697v1.896H4.228v-1.896H3.541V12.65h1.853V13.029z"/>
		<path d="M6.409,14.956c-0.131,0-0.249-0.021-0.353-0.063s-0.191-0.102-0.264-0.176c-0.073-0.073-0.128-0.16-0.166-0.26
			s-0.057-0.206-0.057-0.319v-0.062c0-0.128,0.019-0.245,0.056-0.352c0.037-0.107,0.089-0.199,0.157-0.276
			c0.068-0.077,0.151-0.137,0.249-0.181c0.097-0.043,0.206-0.064,0.327-0.064c0.122,0,0.229,0.021,0.322,0.061
			c0.093,0.039,0.17,0.096,0.234,0.168c0.063,0.072,0.11,0.159,0.142,0.262c0.032,0.103,0.048,0.216,0.048,0.341v0.192H6.028
			c0.007,0.055,0.022,0.104,0.044,0.149c0.022,0.045,0.051,0.083,0.086,0.115c0.035,0.032,0.076,0.057,0.123,0.074
			c0.047,0.017,0.1,0.025,0.158,0.025c0.083,0,0.159-0.015,0.228-0.046c0.07-0.03,0.13-0.078,0.179-0.143l0.222,0.249
			c-0.027,0.039-0.061,0.076-0.102,0.112c-0.04,0.036-0.088,0.068-0.144,0.098c-0.055,0.029-0.117,0.052-0.187,0.069
			C6.565,14.947,6.491,14.956,6.409,14.956z M6.357,13.568c-0.049,0-0.092,0.009-0.129,0.025c-0.037,0.018-0.068,0.042-0.095,0.072
			c-0.027,0.031-0.048,0.068-0.065,0.11c-0.017,0.043-0.028,0.09-0.036,0.142H6.66v-0.036c-0.001-0.045-0.008-0.086-0.02-0.125
			c-0.012-0.039-0.03-0.071-0.055-0.1c-0.024-0.028-0.056-0.05-0.094-0.066C6.453,13.575,6.41,13.568,6.357,13.568z"/>
		<path d="M7.776,13.234l0.014,0.195c0.058-0.073,0.128-0.13,0.211-0.169c0.083-0.038,0.174-0.059,0.275-0.059
			c0.08,0,0.153,0.011,0.219,0.033c0.066,0.021,0.122,0.06,0.169,0.109c0.047,0.052,0.083,0.118,0.108,0.2
			c0.024,0.082,0.039,0.184,0.039,0.304v1.074H8.359v-1.078c0-0.054-0.006-0.099-0.018-0.134c-0.012-0.036-0.029-0.063-0.052-0.084
			c-0.023-0.021-0.051-0.036-0.084-0.044c-0.033-0.009-0.072-0.013-0.116-0.013c-0.066,0-0.124,0.015-0.171,0.043
			c-0.047,0.029-0.086,0.069-0.115,0.119v1.191H7.352v-1.689H7.776z"/>
		<path d="M9.567,13.234l0.015,0.195C9.64,13.356,9.71,13.3,9.793,13.26c0.083-0.038,0.174-0.059,0.274-0.059
			c0.08,0,0.154,0.011,0.22,0.033c0.065,0.021,0.122,0.06,0.169,0.109c0.047,0.052,0.083,0.118,0.107,0.2
			c0.025,0.082,0.039,0.184,0.039,0.304v1.074h-0.451v-1.078c0-0.054-0.006-0.099-0.019-0.134c-0.012-0.036-0.028-0.063-0.052-0.084
			c-0.023-0.021-0.051-0.036-0.084-0.044c-0.033-0.009-0.072-0.013-0.116-0.013c-0.065,0-0.124,0.015-0.171,0.043
			c-0.047,0.029-0.086,0.069-0.115,0.119v1.191H9.144v-1.689H9.567z"/>
		<path d="M10.942,12.797c0-0.067,0.021-0.124,0.066-0.167s0.107-0.064,0.186-0.064c0.039,0,0.074,0.006,0.104,0.017
			c0.031,0.012,0.058,0.028,0.08,0.048c0.021,0.021,0.038,0.046,0.05,0.074c0.012,0.029,0.018,0.061,0.018,0.093
			c0,0.034-0.006,0.066-0.018,0.095s-0.029,0.054-0.05,0.073c-0.022,0.021-0.049,0.037-0.08,0.049
			c-0.03,0.012-0.065,0.018-0.104,0.018s-0.072-0.006-0.104-0.018s-0.058-0.027-0.08-0.049c-0.021-0.021-0.039-0.045-0.051-0.073
			S10.942,12.831,10.942,12.797z M11.422,14.925H10.97v-1.689h0.452V14.925z"/>
		<path d="M12.709,14.458c0-0.023-0.004-0.046-0.015-0.064c-0.01-0.021-0.026-0.039-0.053-0.057
			c-0.025-0.017-0.062-0.034-0.105-0.049c-0.044-0.016-0.104-0.03-0.174-0.045c-0.086-0.019-0.166-0.042-0.239-0.07
			c-0.074-0.027-0.138-0.063-0.19-0.104c-0.055-0.042-0.097-0.09-0.125-0.146c-0.031-0.055-0.045-0.12-0.045-0.191
			s0.016-0.139,0.045-0.202c0.031-0.063,0.075-0.12,0.133-0.168c0.059-0.048,0.129-0.086,0.213-0.115s0.179-0.042,0.283-0.042
			c0.109,0,0.209,0.013,0.295,0.041c0.088,0.027,0.162,0.065,0.224,0.113s0.108,0.105,0.142,0.172
			c0.032,0.067,0.049,0.14,0.049,0.219h-0.453c0-0.063-0.021-0.118-0.063-0.16s-0.107-0.063-0.195-0.063
			c-0.076,0-0.135,0.017-0.176,0.051c-0.042,0.035-0.063,0.078-0.063,0.131c0,0.025,0.005,0.047,0.016,0.066
			c0.012,0.02,0.029,0.037,0.053,0.053c0.024,0.016,0.057,0.031,0.098,0.044c0.039,0.014,0.09,0.026,0.147,0.038
			c0.091,0.018,0.177,0.04,0.255,0.065s0.146,0.06,0.202,0.101c0.058,0.041,0.101,0.091,0.134,0.15
			c0.031,0.059,0.049,0.13,0.049,0.213c0,0.075-0.018,0.144-0.051,0.207c-0.033,0.063-0.08,0.117-0.143,0.163
			s-0.137,0.082-0.225,0.107c-0.086,0.026-0.185,0.039-0.293,0.039c-0.119,0-0.224-0.017-0.313-0.05
			c-0.09-0.034-0.167-0.077-0.229-0.131c-0.063-0.055-0.108-0.115-0.14-0.184c-0.03-0.066-0.047-0.136-0.047-0.205h0.429
			c0.002,0.045,0.012,0.082,0.028,0.113s0.04,0.059,0.067,0.078c0.029,0.021,0.062,0.034,0.099,0.043s0.076,0.014,0.117,0.014
			c0.086,0,0.151-0.017,0.196-0.049C12.687,14.554,12.709,14.51,12.709,14.458z"/>
		<path d="M5.567,17.007c-0.009,0.116-0.035,0.223-0.078,0.319c-0.044,0.097-0.104,0.18-0.182,0.249
			c-0.078,0.069-0.17,0.124-0.28,0.163c-0.11,0.039-0.235,0.059-0.376,0.059c-0.146,0-0.276-0.024-0.393-0.075
			c-0.116-0.052-0.215-0.123-0.295-0.219c-0.081-0.095-0.143-0.209-0.186-0.344s-0.065-0.286-0.065-0.454v-0.149
			c0-0.167,0.022-0.319,0.067-0.455c0.044-0.136,0.108-0.25,0.19-0.346c0.082-0.095,0.181-0.168,0.297-0.219
			c0.117-0.051,0.247-0.077,0.391-0.077c0.142,0,0.267,0.021,0.375,0.061c0.109,0.04,0.202,0.096,0.278,0.167
			s0.135,0.155,0.178,0.255c0.042,0.099,0.069,0.206,0.081,0.321H5.102c-0.005-0.068-0.017-0.129-0.035-0.181
			c-0.019-0.052-0.044-0.096-0.079-0.131c-0.034-0.036-0.078-0.063-0.133-0.081c-0.054-0.018-0.12-0.027-0.197-0.027
			c-0.158,0-0.276,0.059-0.354,0.174c-0.077,0.114-0.116,0.293-0.116,0.534v0.153c0,0.118,0.009,0.221,0.026,0.311
			c0.017,0.089,0.044,0.162,0.081,0.222S4.38,17.34,4.439,17.37s0.13,0.044,0.213,0.044c0.074,0,0.138-0.008,0.191-0.024
			c0.053-0.018,0.099-0.042,0.135-0.076s0.063-0.077,0.083-0.127c0.02-0.052,0.032-0.11,0.038-0.179L5.567,17.007L5.567,17.007z"/>
		<path d="M5.775,16.904c0-0.123,0.018-0.237,0.053-0.342c0.035-0.105,0.087-0.196,0.155-0.272c0.068-0.077,0.151-0.137,0.25-0.181
			s0.213-0.065,0.34-0.065c0.128,0,0.242,0.021,0.342,0.065s0.184,0.104,0.252,0.181c0.068,0.076,0.12,0.167,0.155,0.272
			c0.036,0.104,0.053,0.219,0.053,0.342v0.033c0,0.124-0.018,0.237-0.053,0.343c-0.035,0.104-0.087,0.195-0.155,0.271
			c-0.068,0.077-0.152,0.138-0.251,0.181s-0.212,0.064-0.341,0.064c-0.128,0-0.241-0.021-0.341-0.064
			c-0.1-0.043-0.184-0.104-0.252-0.181c-0.068-0.076-0.12-0.167-0.155-0.271c-0.035-0.104-0.053-0.219-0.053-0.343L5.775,16.904
			L5.775,16.904z M6.227,16.937c0,0.068,0.006,0.133,0.019,0.193c0.013,0.062,0.033,0.113,0.06,0.157
			c0.028,0.044,0.064,0.08,0.108,0.105s0.099,0.039,0.163,0.039c0.063,0,0.116-0.014,0.161-0.039
			c0.044-0.026,0.081-0.062,0.108-0.105c0.028-0.044,0.048-0.096,0.061-0.157c0.013-0.061,0.019-0.125,0.019-0.193v-0.033
			c0-0.067-0.006-0.13-0.019-0.19c-0.013-0.06-0.033-0.111-0.061-0.157c-0.028-0.046-0.064-0.082-0.109-0.108
			c-0.044-0.026-0.099-0.04-0.163-0.04c-0.063,0-0.116,0.014-0.16,0.04s-0.08,0.063-0.108,0.108
			c-0.027,0.045-0.047,0.098-0.06,0.157c-0.012,0.061-0.019,0.123-0.019,0.19V16.937z"/>
		<path d="M8.667,17.593c-0.053,0.064-0.118,0.115-0.193,0.15c-0.076,0.036-0.166,0.053-0.269,0.053
			c-0.083,0-0.16-0.012-0.228-0.035c-0.069-0.023-0.128-0.061-0.178-0.11c-0.049-0.051-0.087-0.116-0.114-0.195
			c-0.027-0.08-0.041-0.175-0.041-0.287v-1.094h0.452v1.097c0,0.047,0.006,0.087,0.018,0.12c0.012,0.034,0.028,0.062,0.05,0.081
			c0.021,0.021,0.047,0.035,0.076,0.044c0.029,0.01,0.062,0.015,0.097,0.015c0.081,0,0.147-0.015,0.198-0.042
			c0.051-0.028,0.09-0.067,0.116-0.117v-1.197h0.453v1.69H8.679L8.667,17.593z"/>
		<path d="M10.396,16.498c-0.022-0.003-0.049-0.006-0.08-0.009c-0.031-0.002-0.059-0.004-0.082-0.004
			c-0.088,0-0.16,0.015-0.215,0.044c-0.056,0.03-0.096,0.073-0.121,0.129v1.106H9.444v-1.69h0.428l0.013,0.201
			c0.042-0.073,0.095-0.13,0.157-0.171s0.137-0.063,0.219-0.063c0.024,0,0.051,0.002,0.076,0.006s0.048,0.01,0.064,0.015
			L10.396,16.498z"/>
		<path d="M11.153,15.658v0.416h0.289v0.331h-0.289v0.844c0,0.036,0.002,0.064,0.011,0.087c0.007,0.023,0.019,0.041,0.032,0.055
			c0.016,0.013,0.033,0.021,0.055,0.025s0.046,0.007,0.075,0.007c0.026,0,0.052-0.001,0.073-0.003
			c0.022-0.002,0.043-0.005,0.06-0.008v0.342c-0.037,0.012-0.078,0.021-0.122,0.029c-0.045,0.008-0.095,0.012-0.15,0.012
			c-0.074,0-0.142-0.009-0.201-0.026c-0.059-0.019-0.109-0.047-0.151-0.087s-0.075-0.092-0.099-0.154
			c-0.022-0.063-0.034-0.14-0.034-0.23v-0.892h-0.247v-0.331h0.247v-0.416H11.153z"/>
		<path d="M12.608,17.297c0-0.023-0.004-0.046-0.014-0.064c-0.009-0.021-0.027-0.039-0.053-0.057
			c-0.025-0.017-0.063-0.033-0.105-0.049c-0.045-0.016-0.104-0.029-0.174-0.045c-0.086-0.019-0.166-0.042-0.24-0.069
			c-0.072-0.028-0.137-0.063-0.189-0.105c-0.055-0.042-0.096-0.09-0.126-0.145c-0.03-0.056-0.045-0.12-0.045-0.192
			c0-0.071,0.015-0.138,0.046-0.202c0.031-0.063,0.075-0.12,0.133-0.168c0.059-0.048,0.129-0.086,0.213-0.115
			c0.084-0.027,0.178-0.042,0.283-0.042c0.109,0,0.208,0.014,0.295,0.041c0.088,0.027,0.162,0.065,0.223,0.113
			c0.063,0.048,0.108,0.105,0.142,0.172c0.032,0.067,0.05,0.14,0.05,0.219h-0.451c0-0.063-0.021-0.117-0.064-0.16
			c-0.04-0.042-0.105-0.063-0.194-0.063c-0.076,0-0.135,0.017-0.176,0.051c-0.042,0.035-0.063,0.078-0.063,0.131
			c0,0.025,0.006,0.047,0.016,0.066c0.012,0.02,0.029,0.037,0.055,0.053c0.025,0.017,0.057,0.031,0.098,0.044
			c0.039,0.015,0.088,0.026,0.146,0.038c0.092,0.019,0.177,0.04,0.255,0.065s0.146,0.06,0.202,0.101
			c0.056,0.041,0.102,0.091,0.134,0.15c0.032,0.059,0.048,0.13,0.048,0.213c0,0.075-0.017,0.144-0.05,0.207
			c-0.033,0.063-0.081,0.117-0.144,0.163c-0.062,0.046-0.137,0.082-0.225,0.107c-0.087,0.026-0.186,0.039-0.293,0.039
			c-0.119,0-0.223-0.017-0.314-0.05c-0.09-0.034-0.166-0.077-0.229-0.131s-0.109-0.115-0.141-0.183
			c-0.03-0.067-0.047-0.137-0.047-0.205h0.43c0.002,0.044,0.012,0.082,0.027,0.112c0.019,0.032,0.041,0.059,0.068,0.078
			c0.028,0.021,0.061,0.034,0.098,0.043s0.076,0.015,0.117,0.015c0.086,0,0.151-0.018,0.196-0.05
			C12.587,17.394,12.608,17.351,12.608,17.297z"/>
	</g>
</g>
</svg>
