<?xml version="1.0" encoding="utf-8"?>
<!-- Generator: Adobe Illustrator 16.0.0, SVG Export Plug-In . SVG Version: 6.00 Build 0)  -->
<!DOCTYPE svg PUBLIC "-//W3C//DTD SVG 1.1//EN" "http://www.w3.org/Graphics/SVG/1.1/DTD/svg11.dtd">
<svg version="1.1" id="Layer_1" xmlns="http://www.w3.org/2000/svg" xmlns:xlink="http://www.w3.org/1999/xlink" x="0px" y="0px"
	 width="16.08px" height="18.48px" viewBox="0 0 16.08 18.48" enable-background="new 0 0 16.08 18.48" xml:space="preserve">
<g>
	<path fill="#6D6E70" d="M3.263,6.762C3.29,6.666,3.35,6.587,3.404,6.506c1.042-1.563,2.085-3.127,3.127-4.689
		c0.147-0.222,0.426-0.259,0.615-0.083c0.028,0.025,0.052,0.059,0.075,0.091c0.591,0.836,1.181,1.672,1.77,2.507
		c0.007,0.01,0.015,0.021,0.023,0.032C9.09,4.276,9.163,4.191,9.237,4.106c0.293-0.34,0.588-0.681,0.882-1.021
		c0.036-0.041,0.069-0.083,0.106-0.123c0.17-0.188,0.461-0.176,0.615,0.025c0.407,0.528,0.814,1.056,1.221,1.584
		c0.414,0.537,0.826,1.074,1.24,1.61c0.106,0.138,0.213,0.273,0.318,0.411c0.188,0.244,0.07,0.579-0.23,0.646
		c-0.16,0.036-0.299-0.017-0.398-0.147c-0.526-0.68-1.051-1.36-1.575-2.043c-0.294-0.381-0.587-0.763-0.881-1.144
		c-0.007-0.01-0.017-0.021-0.027-0.032C10.452,3.938,10.397,4,10.345,4.061C10.103,4.34,9.862,4.618,9.62,4.896
		C9.588,4.933,9.556,4.969,9.524,5.006C9.507,5.026,9.504,5.043,9.521,5.067c0.172,0.245,0.342,0.491,0.513,0.737
		c0.034,0.05,0.073,0.098,0.096,0.152c0.076,0.191-0.017,0.412-0.202,0.5c-0.189,0.09-0.408,0.021-0.521-0.156
		C9.328,6.177,9.241,6.061,9.157,5.942C8.743,5.356,8.328,4.77,7.913,4.184c-0.335-0.474-0.67-0.946-1.005-1.418
		C6.904,2.759,6.899,2.753,6.892,2.745C6.884,2.757,6.876,2.768,6.869,2.778c-0.95,1.425-1.9,2.85-2.85,4.274
		C3.955,7.15,3.871,7.218,3.757,7.245C3.547,7.294,3.34,7.173,3.276,6.967C3.272,6.956,3.268,6.945,3.263,6.935
		C3.263,6.877,3.263,6.82,3.263,6.762z"/>
	<path fill="#6D6E70" d="M3.263,9.885c0.049-0.083,0.11-0.153,0.201-0.188c0.048-0.02,0.102-0.033,0.153-0.033
		c3.225-0.002,6.45-0.002,9.675-0.002c0.206,0,0.371,0.125,0.412,0.312c0.056,0.251-0.119,0.479-0.378,0.492
		c-0.019,0.001-0.035,0.001-0.054,0.001c-3.188,0-6.376,0-9.564,0c-0.058,0-0.118,0-0.175-0.011
		c-0.11-0.022-0.195-0.089-0.253-0.187c-0.005-0.01-0.011-0.017-0.017-0.024C3.263,10.123,3.263,10.004,3.263,9.885z"/>
	<path fill="#6D6E70" d="M3.263,8.274c0.03-0.037,0.056-0.077,0.089-0.109C3.425,8.093,3.515,8.055,3.62,8.055
		c3.231,0,6.463,0,9.693,0c0.189,0,0.352,0.13,0.392,0.313c0.041,0.188-0.052,0.373-0.224,0.452
		c-0.056,0.025-0.113,0.037-0.174,0.037c-3.205,0-6.41,0-9.615,0c-0.066,0-0.132,0.003-0.196-0.021
		C3.408,8.805,3.338,8.751,3.288,8.672C3.28,8.66,3.272,8.649,3.263,8.639C3.263,8.517,3.263,8.396,3.263,8.274z"/>
</g>
<g>
	<g>
		<path d="M7.435,14.328c0-0.04-0.006-0.075-0.017-0.106c-0.011-0.032-0.034-0.062-0.066-0.089c-0.033-0.026-0.078-0.054-0.136-0.08
			C7.157,14.027,7.083,14,6.991,13.969c-0.104-0.032-0.202-0.07-0.294-0.112c-0.092-0.042-0.173-0.091-0.242-0.147
			c-0.069-0.056-0.125-0.122-0.165-0.195c-0.04-0.074-0.06-0.16-0.06-0.26c0-0.095,0.021-0.181,0.062-0.26
			c0.042-0.079,0.099-0.146,0.174-0.201c0.074-0.055,0.163-0.098,0.266-0.129s0.215-0.046,0.338-0.046
			c0.126,0,0.241,0.019,0.344,0.052c0.104,0.035,0.191,0.083,0.264,0.146c0.073,0.063,0.129,0.137,0.168,0.223
			c0.04,0.086,0.06,0.18,0.06,0.282h-0.47c0-0.048-0.007-0.092-0.022-0.133s-0.038-0.076-0.069-0.105
			c-0.031-0.028-0.07-0.052-0.117-0.067C7.181,13,7.126,12.992,7.062,12.992c-0.061,0-0.115,0.007-0.16,0.021
			s-0.083,0.031-0.112,0.056c-0.03,0.023-0.052,0.052-0.067,0.084c-0.015,0.032-0.022,0.066-0.022,0.103
			c0,0.075,0.038,0.139,0.115,0.188c0.077,0.051,0.189,0.098,0.337,0.142c0.124,0.039,0.233,0.081,0.327,0.128
			c0.094,0.047,0.173,0.101,0.236,0.159c0.063,0.061,0.111,0.126,0.143,0.2c0.032,0.074,0.048,0.158,0.048,0.251
			c0,0.1-0.02,0.189-0.059,0.267c-0.039,0.078-0.096,0.146-0.168,0.2c-0.072,0.054-0.159,0.095-0.26,0.124s-0.215,0.043-0.34,0.043
			c-0.075,0-0.15-0.006-0.225-0.02c-0.075-0.015-0.146-0.033-0.215-0.061c-0.068-0.026-0.131-0.061-0.19-0.102
			c-0.058-0.041-0.109-0.088-0.152-0.145c-0.043-0.055-0.078-0.117-0.102-0.188c-0.024-0.07-0.037-0.148-0.037-0.234H6.63
			c0,0.069,0.011,0.127,0.033,0.175c0.022,0.049,0.053,0.086,0.092,0.116s0.086,0.051,0.141,0.065
			c0.055,0.014,0.117,0.021,0.185,0.021c0.061,0,0.113-0.007,0.158-0.02c0.045-0.014,0.082-0.031,0.111-0.054
			c0.029-0.023,0.051-0.051,0.065-0.082C7.429,14.398,7.435,14.364,7.435,14.328z"/>
		<path d="M8.808,14.247L8.644,14.41v0.516H8.192v-2.399h0.452v1.33l0.088-0.112l0.433-0.508h0.542l-0.611,0.705l0.665,0.985H9.241
			L8.808,14.247z"/>
		<path d="M9.899,12.797c0-0.067,0.021-0.124,0.067-0.167s0.107-0.064,0.185-0.064c0.039,0,0.074,0.006,0.104,0.017
			c0.031,0.012,0.058,0.028,0.08,0.048c0.021,0.021,0.039,0.046,0.052,0.074c0.012,0.029,0.018,0.061,0.018,0.093
			c0,0.034-0.006,0.066-0.018,0.095c-0.013,0.028-0.029,0.054-0.052,0.073c-0.022,0.021-0.049,0.037-0.08,0.049
			c-0.03,0.012-0.065,0.018-0.104,0.018c-0.037,0-0.072-0.006-0.104-0.018s-0.058-0.027-0.08-0.049
			c-0.021-0.021-0.039-0.045-0.051-0.073S9.899,12.831,9.899,12.797z M10.378,14.925H9.925v-1.689h0.453V14.925z"/>
		<path d="M3.842,16.932H3.468v0.833H3V15.49h0.845c0.131,0,0.249,0.015,0.353,0.044c0.104,0.029,0.192,0.073,0.264,0.131
			c0.071,0.059,0.127,0.129,0.166,0.215s0.058,0.185,0.058,0.297c0,0.083-0.01,0.158-0.028,0.225
			c-0.019,0.065-0.046,0.125-0.081,0.177c-0.036,0.051-0.078,0.097-0.128,0.135c-0.05,0.039-0.106,0.072-0.168,0.101l0.492,0.93
			v0.022H4.268L3.842,16.932z M3.468,16.552h0.378c0.062,0,0.115-0.008,0.162-0.023c0.047-0.016,0.085-0.039,0.116-0.069
			c0.031-0.028,0.054-0.064,0.07-0.105c0.016-0.041,0.023-0.087,0.023-0.139c0-0.106-0.031-0.191-0.092-0.253
			S3.97,15.87,3.845,15.87H3.468V16.552z"/>
		<path d="M5.928,17.297c0-0.023-0.005-0.046-0.014-0.064c-0.009-0.021-0.027-0.039-0.053-0.057
			c-0.026-0.017-0.062-0.033-0.106-0.049s-0.103-0.029-0.173-0.045c-0.086-0.019-0.167-0.042-0.24-0.069
			c-0.073-0.028-0.137-0.063-0.19-0.105c-0.054-0.042-0.096-0.09-0.126-0.145c-0.03-0.056-0.045-0.12-0.045-0.192
			c0-0.071,0.016-0.138,0.046-0.202c0.03-0.063,0.073-0.12,0.131-0.168c0.058-0.048,0.128-0.086,0.212-0.115
			c0.084-0.028,0.178-0.042,0.284-0.042c0.109,0,0.208,0.014,0.295,0.041c0.088,0.027,0.162,0.065,0.223,0.113
			s0.108,0.105,0.141,0.172c0.033,0.067,0.049,0.14,0.049,0.219H5.91c0-0.063-0.021-0.117-0.063-0.16
			c-0.042-0.042-0.106-0.063-0.195-0.063c-0.076,0-0.135,0.017-0.176,0.051c-0.042,0.035-0.063,0.078-0.063,0.131
			c0,0.025,0.005,0.047,0.016,0.066c0.012,0.02,0.029,0.037,0.054,0.053c0.025,0.017,0.057,0.031,0.097,0.044
			c0.04,0.015,0.089,0.026,0.147,0.038c0.092,0.019,0.177,0.04,0.255,0.065s0.146,0.06,0.202,0.101s0.101,0.091,0.134,0.15
			c0.032,0.059,0.048,0.13,0.048,0.213c0,0.075-0.016,0.144-0.05,0.207c-0.033,0.063-0.081,0.117-0.143,0.163
			s-0.137,0.082-0.225,0.107c-0.087,0.026-0.185,0.039-0.293,0.039c-0.119,0-0.224-0.017-0.314-0.05
			c-0.091-0.034-0.167-0.077-0.229-0.131s-0.109-0.115-0.14-0.183c-0.031-0.067-0.047-0.137-0.047-0.205h0.428
			c0.002,0.044,0.012,0.082,0.029,0.112c0.018,0.032,0.04,0.059,0.068,0.078c0.028,0.021,0.061,0.034,0.098,0.043
			c0.037,0.009,0.076,0.015,0.116,0.015c0.086,0,0.152-0.018,0.196-0.05C5.905,17.394,5.928,17.351,5.928,17.297z"/>
		<path d="M7.573,17.297c0-0.023-0.004-0.046-0.014-0.064c-0.009-0.021-0.027-0.039-0.053-0.057
			C7.48,17.159,7.444,17.142,7.4,17.127c-0.044-0.015-0.103-0.029-0.173-0.045c-0.086-0.019-0.167-0.042-0.24-0.069
			c-0.074-0.028-0.137-0.063-0.191-0.105c-0.054-0.042-0.096-0.09-0.125-0.145c-0.03-0.056-0.045-0.12-0.045-0.192
			c0-0.071,0.015-0.138,0.046-0.202c0.031-0.063,0.075-0.12,0.133-0.168c0.058-0.048,0.129-0.086,0.212-0.115
			c0.084-0.027,0.179-0.042,0.284-0.042c0.109,0,0.208,0.014,0.295,0.041c0.087,0.027,0.162,0.065,0.223,0.113
			s0.108,0.105,0.141,0.172c0.033,0.067,0.049,0.14,0.049,0.219H7.555c0-0.063-0.021-0.117-0.062-0.16
			c-0.042-0.042-0.107-0.063-0.195-0.063c-0.077,0-0.135,0.017-0.177,0.051c-0.042,0.035-0.063,0.078-0.063,0.131
			c0,0.025,0.006,0.047,0.017,0.066c0.011,0.02,0.029,0.037,0.053,0.053c0.024,0.017,0.057,0.031,0.097,0.044
			c0.04,0.015,0.089,0.026,0.148,0.038c0.091,0.019,0.176,0.04,0.254,0.065s0.146,0.06,0.203,0.101s0.101,0.091,0.133,0.15
			c0.032,0.059,0.048,0.13,0.048,0.213c0,0.075-0.017,0.144-0.05,0.207c-0.033,0.063-0.081,0.117-0.143,0.163
			s-0.137,0.082-0.224,0.107c-0.087,0.026-0.186,0.039-0.294,0.039c-0.119,0-0.223-0.017-0.314-0.05
			c-0.09-0.034-0.167-0.077-0.229-0.131s-0.108-0.115-0.14-0.183c-0.031-0.067-0.047-0.137-0.047-0.205H7
			c0.002,0.044,0.012,0.082,0.029,0.112c0.017,0.031,0.04,0.059,0.068,0.078c0.028,0.021,0.061,0.034,0.098,0.043
			c0.037,0.009,0.076,0.015,0.117,0.015c0.086,0,0.151-0.018,0.196-0.05C7.553,17.392,7.573,17.351,7.573,17.297z"/>
		<path d="M8.232,16.904c0-0.123,0.018-0.237,0.053-0.342c0.036-0.105,0.087-0.196,0.155-0.272c0.068-0.077,0.151-0.137,0.25-0.181
			s0.213-0.065,0.34-0.065c0.129,0,0.242,0.021,0.343,0.065s0.185,0.104,0.252,0.181c0.067,0.076,0.12,0.167,0.155,0.272
			c0.035,0.104,0.054,0.219,0.054,0.342v0.033c0,0.124-0.019,0.237-0.054,0.343c-0.035,0.104-0.086,0.195-0.155,0.271
			c-0.069,0.077-0.151,0.138-0.25,0.181s-0.213,0.064-0.341,0.064c-0.127,0-0.241-0.021-0.342-0.064
			c-0.1-0.043-0.184-0.104-0.25-0.181c-0.068-0.076-0.12-0.167-0.156-0.271c-0.035-0.104-0.053-0.219-0.053-0.343L8.232,16.904
			L8.232,16.904z M8.685,16.937c0,0.068,0.006,0.133,0.019,0.193c0.012,0.062,0.032,0.113,0.06,0.157
			c0.028,0.044,0.064,0.08,0.108,0.105s0.099,0.039,0.163,0.039c0.063,0,0.115-0.014,0.16-0.039
			c0.045-0.026,0.082-0.062,0.109-0.105s0.049-0.096,0.061-0.157c0.013-0.061,0.019-0.125,0.019-0.193v-0.033
			c0-0.067-0.006-0.13-0.019-0.19c-0.012-0.06-0.033-0.111-0.061-0.157c-0.029-0.046-0.064-0.082-0.109-0.108s-0.1-0.04-0.162-0.04
			s-0.116,0.014-0.16,0.04s-0.081,0.063-0.107,0.108c-0.027,0.045-0.048,0.098-0.061,0.157c-0.014,0.061-0.02,0.123-0.02,0.19
			V16.937L8.685,16.937z"/>
		<path d="M11.062,16.498c-0.022-0.003-0.049-0.006-0.08-0.009c-0.031-0.002-0.059-0.004-0.082-0.004
			c-0.09,0-0.16,0.015-0.215,0.044c-0.056,0.03-0.096,0.073-0.121,0.129v1.106H10.11v-1.69h0.428l0.012,0.201
			c0.043-0.073,0.096-0.13,0.158-0.171s0.137-0.063,0.219-0.063c0.024,0,0.049,0.002,0.076,0.006
			c0.025,0.004,0.048,0.01,0.064,0.015L11.062,16.498z"/>
		<path d="M11.819,15.658v0.416h0.289v0.331h-0.289v0.844c0,0.036,0.004,0.064,0.012,0.087c0.008,0.023,0.018,0.041,0.033,0.055
			c0.015,0.013,0.033,0.021,0.054,0.025s0.046,0.007,0.076,0.007c0.026,0,0.052-0.001,0.073-0.003
			c0.022-0.002,0.043-0.005,0.06-0.008v0.342c-0.038,0.012-0.079,0.021-0.123,0.029s-0.095,0.012-0.151,0.012
			c-0.074,0-0.141-0.009-0.199-0.026c-0.059-0.019-0.11-0.047-0.152-0.087s-0.075-0.092-0.098-0.154
			c-0.023-0.063-0.034-0.14-0.034-0.23v-0.892h-0.247v-0.331h0.247v-0.416H11.819z"/>
		<path d="M13.276,17.297c0-0.023-0.004-0.046-0.014-0.064c-0.01-0.021-0.027-0.039-0.054-0.057
			c-0.026-0.017-0.062-0.033-0.106-0.049c-0.043-0.015-0.103-0.029-0.172-0.045c-0.086-0.019-0.168-0.042-0.24-0.069
			c-0.074-0.028-0.137-0.063-0.191-0.105s-0.096-0.09-0.125-0.145c-0.029-0.056-0.045-0.12-0.045-0.192
			c0-0.071,0.016-0.138,0.046-0.202c0.03-0.063,0.075-0.12,0.133-0.168s0.13-0.086,0.212-0.115c0.084-0.027,0.18-0.042,0.284-0.042
			c0.108,0,0.208,0.014,0.295,0.041s0.162,0.065,0.224,0.113c0.061,0.048,0.107,0.105,0.141,0.172
			c0.033,0.067,0.049,0.14,0.049,0.219H13.26c0-0.063-0.021-0.117-0.063-0.16c-0.041-0.042-0.106-0.063-0.194-0.063
			c-0.076,0-0.135,0.017-0.177,0.051c-0.042,0.035-0.063,0.078-0.063,0.131c0,0.025,0.006,0.047,0.016,0.066
			c0.012,0.02,0.029,0.037,0.054,0.053c0.024,0.017,0.058,0.031,0.097,0.044c0.041,0.015,0.09,0.026,0.148,0.038
			c0.091,0.019,0.176,0.04,0.254,0.065s0.146,0.06,0.203,0.101s0.101,0.091,0.133,0.15c0.032,0.059,0.048,0.13,0.048,0.213
			c0,0.075-0.017,0.144-0.05,0.207c-0.033,0.063-0.081,0.117-0.143,0.163c-0.063,0.046-0.138,0.082-0.225,0.107
			c-0.087,0.026-0.186,0.039-0.294,0.039c-0.119,0-0.224-0.017-0.313-0.05c-0.09-0.034-0.168-0.077-0.229-0.131
			s-0.108-0.115-0.14-0.183s-0.047-0.137-0.047-0.205h0.428c0.002,0.044,0.012,0.082,0.029,0.112
			c0.017,0.031,0.039,0.059,0.067,0.078c0.028,0.021,0.062,0.034,0.099,0.043s0.076,0.015,0.115,0.015
			c0.088,0,0.152-0.018,0.196-0.05C13.253,17.392,13.276,17.351,13.276,17.297z"/>
	</g>
</g>
</svg>
