<?xml version="1.0" encoding="utf-8"?>
<!-- Generator: Adobe Illustrator 16.0.0, SVG Export Plug-In . SVG Version: 6.00 Build 0)  -->
<!DOCTYPE svg PUBLIC "-//W3C//DTD SVG 1.1//EN" "http://www.w3.org/Graphics/SVG/1.1/DTD/svg11.dtd">
<svg version="1.1" id="Layer_1" xmlns="http://www.w3.org/2000/svg" xmlns:xlink="http://www.w3.org/1999/xlink" x="0px" y="0px"
	 width="16px" height="18.58px" viewBox="0 0 16 18.58" enable-background="new 0 0 16 18.58" xml:space="preserve">
<g>
	<g>
		<path fill="#6D6E70" d="M5.891,4.385c0.212,0.053,0.395,0.097,0.579,0.14c0.376,0.091,0.755,0.173,1.128,0.276
			C7.952,4.897,8.125,5.286,7.95,5.605C7.655,6.156,7.342,6.694,7.038,7.237C6.866,7.541,6.694,7.84,6.524,8.144
			C6.507,8.173,6.496,8.207,6.481,8.239c0.134,0.049,0.254,0.103,0.381,0.139c0.032,0.008,0.087-0.022,0.117-0.049
			c0.489-0.443,0.978-0.887,1.465-1.33C8.619,6.842,8.793,6.68,8.971,6.525c0.062-0.053,0.066-0.097,0.026-0.164
			c-0.196-0.349-0.388-0.703-0.58-1.055c-0.158-0.287-0.01-0.542,0.317-0.542c0.602,0,1.197,0,1.799,0.005
			c0.092,0.002,0.141-0.03,0.182-0.113c0.201-0.399,0.41-0.793,0.617-1.19c0.098-0.181,0.291-0.249,0.453-0.166
			c0.154,0.079,0.227,0.275,0.146,0.435c-0.259,0.506-0.521,1.011-0.785,1.518c-0.072,0.139-0.199,0.184-0.353,0.184
			C10.34,5.435,9.883,5.435,9.43,5.432c-0.188,0-0.188,0-0.103,0.159C9.609,6.112,9.9,6.634,10.182,7.158
			c0.049,0.091,0.096,0.112,0.195,0.084c0.799-0.226,1.646,0.135,2.043,0.861c0.389,0.71,0.242,1.583-0.357,2.146
			c-0.141,0.13-0.133,0.087-0.039,0.26c0.17,0.32,0.347,0.635,0.521,0.955c0.151,0.281,0.004,0.533-0.315,0.533
			c-3.34,0-6.678,0-10.018,0.002c-0.154,0-0.275-0.051-0.345-0.189c-0.055-0.108-0.047-0.226,0.022-0.326
			c0.07-0.104,0.172-0.144,0.296-0.144c0.448,0.002,0.896-0.003,1.344,0.002c0.096,0,0.169-0.026,0.238-0.097
			c0.362-0.331,0.726-0.66,1.092-0.986c0.066-0.06,0.076-0.115,0.054-0.199C4.777,9.538,4.646,9.013,4.511,8.49
			c-0.13-0.513-0.264-1.022-0.393-1.541C4.059,6.722,4.005,6.494,3.944,6.262c-0.02-0.069,0.011-0.091,0.072-0.091
			c0.342,0,0.682,0,1.021-0.002c0.076,0,0.089,0.053,0.103,0.104c0.056,0.209,0.108,0.422,0.162,0.635
			c0.05,0.197,0.098,0.395,0.15,0.59c0.005,0.03,0.024,0.054,0.05,0.098c0.051-0.092,0.094-0.165,0.134-0.237
			c0.242-0.427,0.484-0.852,0.725-1.28c0.077-0.134,0.069-0.15-0.085-0.152c-0.967,0-1.935,0-2.904,0
			c-0.054,0-0.109,0.002-0.16-0.002c-0.179-0.02-0.309-0.166-0.303-0.334c0.005-0.165,0.146-0.312,0.318-0.319
			C3.348,5.268,3.47,5.27,3.594,5.27c0.072,0.002,0.095-0.023,0.074-0.096c-0.036-0.135-0.07-0.273-0.096-0.41
			C3.514,4.469,3.584,4.201,3.803,3.987c0.708-0.702,1.425-1.396,2.119-2.11c0.457-0.472,1.077-0.256,1.323,0.125
			c0.353,0.547,0.708,1.095,1.057,1.646C8.358,3.735,8.421,3.77,8.527,3.77c0.484-0.003,0.967,0,1.451,0
			c0.059,0,0.114,0,0.174,0.007c0.24,0.032,0.379,0.19,0.369,0.417c-0.008,0.202-0.174,0.358-0.402,0.375
			c-0.043,0.002-0.086,0.002-0.131,0.002c-0.6,0-1.201-0.005-1.804,0C7.948,4.574,7.779,4.477,7.658,4.285
			c-0.189-0.304-0.379-0.61-0.57-0.913C7.021,3.266,7.014,3.266,6.924,3.355c-0.313,0.313-0.626,0.621-0.94,0.932
			C5.958,4.309,5.937,4.336,5.891,4.385z M4.673,11.326c2.36,0,4.688,0,7.043,0c-0.12-0.218-0.229-0.415-0.344-0.613
			c-0.009-0.021-0.063-0.032-0.093-0.026c-0.319,0.082-0.635,0.068-0.952-0.021c-0.629-0.184-1.181-0.842-1.241-1.497
			C9.027,8.587,9.2,8.087,9.616,7.675c0.045-0.046,0.055-0.086,0.022-0.139c-0.074-0.132-0.15-0.262-0.217-0.398
			C9.381,7.063,9.346,7.072,9.293,7.119c-0.625,0.569-1.246,1.134-1.871,1.7c-0.052,0.048-0.059,0.09-0.034,0.15
			c0.096,0.232,0.106,0.465,0.045,0.707c-0.177,0.701-0.978,1.07-1.617,0.737c-0.068-0.036-0.114-0.03-0.169,0.02
			c-0.292,0.269-0.583,0.53-0.876,0.797C4.742,11.249,4.717,11.28,4.673,11.326z M5.939,9.391c0.002,0.218,0.175,0.393,0.387,0.393
			c0.213,0,0.401-0.189,0.397-0.4C6.72,9.173,6.537,9,6.325,9C6.108,9,5.938,9.173,5.939,9.391z"/>
		<path fill="#6D6E70" d="M8.054,2.09c-0.557,0-1.009-0.458-1.013-1.025C7.039,0.496,7.489,0.042,8.053,0.046
			c0.568,0,1.029,0.451,1.029,1.009C9.086,1.621,8.619,2.09,8.054,2.09z"/>
	</g>
</g>
<g>
	<path d="M6.955,16.183c0-0.037-0.005-0.07-0.016-0.102c-0.011-0.03-0.032-0.059-0.063-0.084c-0.031-0.025-0.075-0.053-0.129-0.076
		c-0.055-0.025-0.126-0.052-0.214-0.079c-0.1-0.032-0.193-0.067-0.281-0.106c-0.088-0.041-0.165-0.088-0.231-0.142
		c-0.066-0.055-0.118-0.116-0.157-0.188c-0.038-0.07-0.057-0.152-0.057-0.247c0-0.09,0.02-0.174,0.059-0.248
		c0.04-0.075,0.095-0.139,0.166-0.191c0.071-0.052,0.155-0.094,0.253-0.123c0.098-0.029,0.205-0.044,0.322-0.044
		c0.12,0,0.229,0.017,0.328,0.05c0.098,0.033,0.182,0.08,0.251,0.143c0.07,0.061,0.123,0.13,0.161,0.212
		c0.038,0.082,0.057,0.172,0.057,0.271H6.957c0-0.047-0.007-0.088-0.021-0.127s-0.037-0.072-0.066-0.102
		c-0.03-0.027-0.067-0.05-0.112-0.063c-0.044-0.019-0.097-0.023-0.158-0.023c-0.059,0-0.109,0.007-0.153,0.02
		c-0.043,0.016-0.079,0.03-0.107,0.055c-0.028,0.021-0.05,0.051-0.064,0.08c-0.014,0.031-0.021,0.063-0.021,0.101
		c0,0.069,0.037,0.131,0.109,0.181c0.073,0.049,0.18,0.094,0.321,0.137c0.118,0.035,0.222,0.076,0.312,0.121
		s0.165,0.096,0.225,0.149s0.105,0.12,0.136,0.188c0.031,0.07,0.046,0.15,0.046,0.24c0,0.098-0.019,0.182-0.056,0.254
		c-0.037,0.074-0.09,0.141-0.159,0.188c-0.068,0.051-0.151,0.091-0.248,0.118c-0.097,0.027-0.205,0.041-0.324,0.041
		c-0.072,0-0.143-0.008-0.215-0.02c-0.071-0.015-0.14-0.031-0.205-0.06c-0.065-0.024-0.125-0.062-0.181-0.099
		c-0.056-0.037-0.104-0.086-0.145-0.139c-0.042-0.053-0.074-0.111-0.097-0.18c-0.023-0.066-0.035-0.141-0.035-0.223h0.448
		c0,0.063,0.01,0.121,0.031,0.166c0.021,0.047,0.05,0.084,0.087,0.11c0.038,0.027,0.083,0.05,0.135,0.063
		c0.052,0.013,0.111,0.02,0.176,0.02c0.058,0,0.107-0.006,0.15-0.019c0.042-0.013,0.078-0.029,0.105-0.052
		c0.028-0.021,0.049-0.049,0.062-0.078C6.949,16.25,6.955,16.218,6.955,16.183z"/>
	<path d="M9.128,15.961c0,0.117-0.015,0.226-0.041,0.326s-0.067,0.187-0.12,0.26s-0.117,0.131-0.195,0.172
		c-0.078,0.042-0.168,0.063-0.27,0.063c-0.085,0-0.161-0.016-0.226-0.045c-0.065-0.03-0.122-0.071-0.169-0.125v0.76h-0.43V15.14
		h0.399l0.015,0.158c0.05-0.061,0.107-0.105,0.173-0.139C8.332,15.127,8.41,15.11,8.5,15.11c0.102,0,0.191,0.02,0.271,0.059
		c0.078,0.039,0.144,0.096,0.194,0.167c0.056,0.072,0.095,0.158,0.12,0.259c0.025,0.104,0.041,0.213,0.041,0.336L9.128,15.961
		L9.128,15.961z M8.698,15.931c0-0.064-0.007-0.13-0.017-0.187c-0.015-0.058-0.031-0.106-0.058-0.149
		c-0.022-0.042-0.058-0.074-0.099-0.099C8.49,15.474,8.442,15.46,8.385,15.46c-0.07,0-0.128,0.014-0.173,0.04
		s-0.081,0.063-0.105,0.115v0.659c0.025,0.051,0.06,0.09,0.105,0.117c0.045,0.026,0.104,0.043,0.176,0.043
		c0.057,0,0.104-0.016,0.144-0.037c0.038-0.024,0.069-0.062,0.095-0.104C8.65,16.25,8.669,16.2,8.682,16.144
		c0.01-0.058,0.018-0.119,0.018-0.185L8.698,15.931L8.698,15.931z"/>
	<path d="M9.393,14.724c0-0.063,0.021-0.117,0.064-0.16c0.043-0.041,0.102-0.063,0.177-0.063c0.037,0,0.07,0.005,0.101,0.018
		c0.029,0.01,0.057,0.025,0.076,0.045c0.021,0.021,0.037,0.043,0.047,0.07c0.014,0.027,0.02,0.059,0.02,0.09
		c0,0.032-0.006,0.063-0.02,0.09c-0.01,0.026-0.024,0.054-0.047,0.07c-0.021,0.02-0.047,0.035-0.076,0.047
		c-0.028,0.01-0.063,0.019-0.101,0.019c-0.036,0-0.069-0.009-0.1-0.019c-0.03-0.012-0.056-0.027-0.076-0.047
		s-0.037-0.044-0.048-0.07C9.398,14.786,9.393,14.756,9.393,14.724z M9.85,16.752H9.417V15.14H9.85V16.752z"/>
	<path d="M10.602,15.14l0.016,0.188c0.056-0.069,0.121-0.123,0.199-0.16s0.166-0.058,0.264-0.058c0.074,0,0.146,0.013,0.208,0.033
		c0.063,0.021,0.114,0.057,0.161,0.104c0.045,0.049,0.078,0.109,0.104,0.188c0.024,0.08,0.037,0.176,0.037,0.289v1.025h-0.431
		v-1.027c0-0.053-0.007-0.095-0.019-0.129c-0.012-0.033-0.029-0.061-0.051-0.08c-0.021-0.021-0.049-0.033-0.081-0.043
		c-0.032-0.008-0.067-0.013-0.11-0.013c-0.063,0-0.115,0.015-0.164,0.042c-0.045,0.027-0.082,0.064-0.106,0.113v1.137h-0.433V15.14
		H10.602z"/>
</g>
</svg>
