<?xml version="1.0" encoding="utf-8"?>
<!-- Generator: Adobe Illustrator 16.0.0, SVG Export Plug-In . SVG Version: 6.00 Build 0)  -->
<!DOCTYPE svg PUBLIC "-//W3C//DTD SVG 1.1//EN" "http://www.w3.org/Graphics/SVG/1.1/DTD/svg11.dtd">
<svg version="1.1" id="Layer_1" xmlns="http://www.w3.org/2000/svg" xmlns:xlink="http://www.w3.org/1999/xlink" x="0px" y="0px"
	 width="16.08px" height="18.48px" viewBox="0 0 16.08 18.48" enable-background="new 0 0 16.08 18.48" xml:space="preserve">
<g>
	<path fill="#6D6E70" d="M8.536,3.369C8.75,3.456,9.082,3.594,9.417,3.725c0.436,0.17,0.887,0.171,1.342,0.128
		c0.504-0.047,1.004-0.038,1.501,0.077c1.054,0.243,1.617,0.999,1.531,2.072c-0.017,0.214-0.058,0.43-0.117,0.636
		c-0.19,0.646-0.479,1.24-0.999,1.694c-0.402,0.352-0.889,0.519-1.396,0.641c-0.235,0.057-0.471,0.113-0.709,0.161
		C9.978,9.255,9.438,9.521,8.888,9.75c-0.661,0.275-1.331,0.519-2.04,0.646c-1.382,0.25-2.503-0.19-3.387-1.267
		C2.866,8.406,2.408,7.615,2.308,6.663C2.176,5.416,2.515,4.336,3.505,3.519C4.154,2.982,4.928,2.76,5.756,2.73
		C6.76,2.692,7.28,2.768,8.536,3.369z M8.356,3.76c0.001-0.002,0.002-0.005,0.003-0.008C8.225,3.691,8.089,3.63,7.955,3.566
		C7.114,3.161,6.229,3.06,5.314,3.203C4.631,3.309,4.01,3.56,3.525,4.068c-0.732,0.768-0.939,1.697-0.77,2.72
		c0.162,0.977,0.688,1.756,1.373,2.438c0.659,0.654,1.465,0.9,2.38,0.792C7.1,9.947,7.668,9.775,8.223,9.561
		c0.243-0.094,0.489-0.184,0.723-0.297c0.713-0.351,1.476-0.535,2.244-0.706c0.438-0.098,0.865-0.236,1.203-0.546
		c0.614-0.563,0.916-1.283,0.978-2.099c0.06-0.803-0.36-1.348-1.142-1.551c-0.463-0.121-0.934-0.129-1.405-0.086
		C10.31,4.323,9.8,4.324,9.308,4.137C8.991,4.014,8.674,3.887,8.356,3.76z"/>
	<path fill="#6D6E70" d="M8.206,3.923c0.295,0.116,0.673,0.271,1.055,0.414c0.469,0.176,0.955,0.203,1.448,0.154
		c0.426-0.042,0.853-0.053,1.276,0.026c0.918,0.172,1.312,0.734,1.15,1.656c-0.087,0.5-0.285,0.955-0.58,1.366
		c-0.26,0.361-0.617,0.588-1.039,0.708c-0.363,0.104-0.729,0.19-1.099,0.272c-0.61,0.135-1.176,0.391-1.745,0.637
		C8.078,9.415,7.47,9.641,6.83,9.756C6.188,9.872,5.552,9.88,4.95,9.567C4.477,9.32,4.11,8.957,3.792,8.536
		c-0.48-0.635-0.835-1.325-0.875-2.138C2.866,5.354,3.2,4.475,4.092,3.873c0.606-0.41,1.301-0.518,2.019-0.52
		C6.83,3.351,7.495,3.548,8.206,3.923z M4.27,5.195C4.17,5.469,4.092,5.657,4.034,5.85C3.904,6.275,3.82,6.706,3.882,7.152
		C3.916,7.394,4,7.613,4.194,7.777c0.24,0.201,0.464,0.233,0.704,0.069c0.364-0.25,0.582-0.584,0.523-1.05
		c-0.068-0.542,0.121-0.958,0.585-1.25c0.122-0.075,0.245-0.15,0.361-0.234c0.178-0.13,0.208-0.271,0.05-0.416
		C6.199,4.694,5.969,4.491,5.712,4.343c-0.359-0.208-0.7-0.142-0.97,0.175C4.546,4.748,4.394,5.015,4.27,5.195z M8.438,6.986
		c-0.261-0.061-0.52-0.14-0.784-0.174C7.29,6.765,6.969,6.868,6.737,7.175C6.461,7.541,6.425,8.24,6.664,8.623
		c0.129,0.207,0.309,0.282,0.54,0.205c0.108-0.036,0.222-0.091,0.302-0.169c0.361-0.354,0.73-0.705,1.06-1.089
		C8.841,7.248,8.718,7.123,8.438,6.986z M11.933,6.078c-0.084-0.029-0.17-0.059-0.254-0.085c-0.316-0.098-0.318-0.097-0.41,0.212
		c-0.069,0.234-0.188,0.323-0.432,0.325c-0.045,0-0.09-0.006-0.134-0.005c-0.163,0.001-0.284,0.105-0.271,0.268
		c0.008,0.1,0.051,0.213,0.118,0.285c0.366,0.398,0.998,0.425,1.485,0.074C12.521,6.802,12.474,6.33,11.933,6.078z M8.985,5.846
		C8.634,5.684,8.292,5.525,7.95,5.367C7.897,5.343,7.845,5.313,7.789,5.302C7.75,5.293,7.705,5.313,7.663,5.321
		C7.688,5.356,7.707,5.399,7.74,5.425c0.038,0.03,0.088,0.043,0.133,0.064c0.35,0.162,0.7,0.324,1.046,0.484
		c0.02,0.271,0.105,0.398,0.291,0.432C9.372,6.434,9.53,6.35,9.595,6.2C9.655,6.058,9.61,5.88,9.489,5.788
		C9.34,5.674,9.183,5.692,8.985,5.846z M8.646,4.544C8.369,4.772,8.121,4.977,7.86,5.192c0.28,0.129,0.537,0.249,0.813,0.376
		C8.665,5.227,8.655,4.905,8.646,4.544z"/>
</g>
<g>
	<g>
		<path d="M7.034,14.637c-0.026,0.031-0.064,0.066-0.11,0.104c-0.047,0.037-0.106,0.071-0.177,0.103
			c-0.071,0.032-0.154,0.06-0.251,0.08c-0.096,0.021-0.207,0.032-0.332,0.032c-0.146,0-0.281-0.023-0.402-0.073
			c-0.121-0.048-0.225-0.119-0.312-0.213c-0.087-0.093-0.153-0.208-0.201-0.345c-0.047-0.136-0.071-0.292-0.071-0.469v-0.134
			c0-0.177,0.022-0.333,0.067-0.471c0.047-0.137,0.11-0.252,0.193-0.346s0.183-0.165,0.301-0.214
			c0.118-0.049,0.249-0.073,0.393-0.073c0.147,0,0.275,0.02,0.383,0.055c0.108,0.037,0.198,0.09,0.27,0.156
			c0.072,0.066,0.129,0.146,0.17,0.239s0.067,0.194,0.079,0.305H6.578c-0.009-0.057-0.024-0.108-0.044-0.155
			c-0.02-0.046-0.046-0.086-0.081-0.118c-0.034-0.033-0.077-0.059-0.127-0.076c-0.051-0.019-0.111-0.027-0.181-0.027
			c-0.16,0-0.282,0.062-0.365,0.183c-0.084,0.121-0.125,0.301-0.125,0.539v0.138c0,0.238,0.045,0.419,0.136,0.541
			s0.224,0.183,0.398,0.183c0.056,0,0.105-0.004,0.146-0.011c0.042-0.007,0.078-0.017,0.107-0.027
			c0.029-0.011,0.054-0.021,0.074-0.036c0.02-0.013,0.036-0.025,0.048-0.039v-0.392H6.14V13.73h0.895L7.034,14.637L7.034,14.637z"/>
		<path d="M7.314,14.064c0-0.123,0.018-0.237,0.053-0.342c0.036-0.105,0.087-0.196,0.155-0.272c0.067-0.077,0.151-0.137,0.25-0.181
			s0.212-0.065,0.34-0.065c0.128,0,0.242,0.021,0.342,0.065c0.1,0.044,0.184,0.104,0.252,0.181c0.068,0.076,0.12,0.167,0.156,0.272
			c0.035,0.104,0.053,0.219,0.053,0.342v0.033c0,0.124-0.018,0.237-0.053,0.343c-0.036,0.104-0.088,0.194-0.156,0.271
			s-0.152,0.138-0.25,0.181c-0.099,0.043-0.212,0.064-0.34,0.064c-0.128,0-0.242-0.021-0.342-0.064
			c-0.1-0.043-0.184-0.104-0.251-0.181c-0.068-0.077-0.12-0.167-0.156-0.271c-0.035-0.104-0.053-0.219-0.053-0.343V14.064z
			 M7.766,14.097c0,0.068,0.007,0.133,0.019,0.193c0.013,0.062,0.033,0.113,0.061,0.157c0.027,0.044,0.063,0.08,0.108,0.104
			c0.044,0.026,0.099,0.039,0.164,0.039c0.063,0,0.115-0.013,0.16-0.039c0.044-0.025,0.08-0.061,0.108-0.104
			c0.028-0.044,0.048-0.096,0.061-0.157c0.013-0.061,0.019-0.125,0.019-0.193v-0.033c0-0.067-0.006-0.13-0.019-0.19
			c-0.012-0.06-0.032-0.111-0.061-0.158c-0.029-0.046-0.064-0.082-0.109-0.107c-0.045-0.026-0.099-0.04-0.163-0.04
			c-0.063,0-0.116,0.014-0.16,0.04c-0.044,0.025-0.081,0.063-0.108,0.107c-0.027,0.045-0.048,0.099-0.061,0.158
			c-0.012,0.061-0.019,0.123-0.019,0.19V14.097z"/>
		<path d="M9.67,14.925H9.217v-2.399H9.67V14.925z"/>
		<path d="M10.166,14.925v-1.358H9.914v-0.331h0.252v-0.147c0-0.096,0.015-0.181,0.043-0.255s0.069-0.136,0.123-0.187
			c0.054-0.052,0.119-0.089,0.194-0.115c0.078-0.026,0.164-0.039,0.26-0.039c0.04,0,0.08,0.003,0.117,0.009
			c0.039,0.006,0.076,0.015,0.111,0.022l-0.005,0.35c-0.036-0.009-0.083-0.014-0.137-0.014c-0.082,0-0.144,0.02-0.188,0.059
			c-0.043,0.039-0.065,0.096-0.065,0.169v0.147h0.336v0.331h-0.336v1.358L10.166,14.925L10.166,14.925z"/>
		<path d="M4.072,17.007c-0.009,0.116-0.035,0.223-0.078,0.319c-0.044,0.097-0.104,0.18-0.182,0.249s-0.17,0.124-0.28,0.163
			c-0.11,0.039-0.235,0.059-0.376,0.059c-0.146,0-0.276-0.024-0.393-0.075c-0.116-0.052-0.214-0.123-0.295-0.219
			c-0.081-0.095-0.143-0.209-0.186-0.344c-0.043-0.135-0.065-0.286-0.065-0.454v-0.149c0-0.167,0.022-0.319,0.067-0.455
			c0.045-0.136,0.108-0.25,0.19-0.346c0.082-0.095,0.181-0.168,0.297-0.219s0.247-0.077,0.391-0.077
			c0.142,0,0.267,0.021,0.376,0.061s0.201,0.096,0.277,0.167s0.135,0.155,0.178,0.255c0.042,0.099,0.069,0.206,0.081,0.321H3.606
			c-0.005-0.068-0.017-0.129-0.035-0.181c-0.019-0.052-0.044-0.096-0.079-0.131c-0.034-0.036-0.078-0.063-0.133-0.081
			c-0.054-0.018-0.12-0.027-0.197-0.027c-0.158,0-0.276,0.059-0.354,0.174c-0.077,0.114-0.116,0.293-0.116,0.534v0.153
			c0,0.118,0.009,0.221,0.026,0.311c0.017,0.089,0.044,0.162,0.081,0.222c0.037,0.06,0.085,0.104,0.144,0.134
			s0.13,0.044,0.213,0.044c0.074,0,0.138-0.008,0.191-0.024c0.053-0.018,0.099-0.042,0.135-0.076s0.063-0.077,0.083-0.127
			c0.02-0.052,0.032-0.11,0.038-0.179L4.072,17.007L4.072,17.007z"/>
		<path d="M4.28,16.904c0-0.123,0.018-0.237,0.053-0.342c0.035-0.105,0.087-0.196,0.155-0.272c0.067-0.077,0.15-0.137,0.25-0.181
			c0.1-0.044,0.213-0.065,0.34-0.065c0.128,0,0.242,0.021,0.342,0.065s0.184,0.104,0.252,0.181c0.068,0.076,0.12,0.167,0.155,0.272
			c0.036,0.104,0.053,0.219,0.053,0.342v0.033c0,0.124-0.018,0.237-0.053,0.343c-0.035,0.104-0.087,0.195-0.155,0.271
			c-0.068,0.077-0.152,0.138-0.251,0.181s-0.212,0.064-0.34,0.064s-0.242-0.021-0.341-0.064c-0.1-0.043-0.184-0.104-0.252-0.181
			c-0.068-0.076-0.12-0.167-0.155-0.271S4.28,17.061,4.28,16.937V16.904z M4.731,16.937c0,0.068,0.006,0.133,0.019,0.193
			c0.013,0.062,0.033,0.113,0.061,0.157c0.027,0.044,0.063,0.08,0.107,0.105s0.099,0.039,0.164,0.039
			c0.063,0,0.116-0.014,0.16-0.039c0.045-0.026,0.081-0.062,0.109-0.105s0.048-0.096,0.061-0.157
			c0.013-0.061,0.018-0.125,0.018-0.193v-0.033c0-0.067-0.005-0.13-0.018-0.19c-0.013-0.06-0.033-0.111-0.061-0.157
			s-0.064-0.082-0.109-0.108c-0.044-0.026-0.099-0.04-0.163-0.04c-0.063,0-0.116,0.014-0.16,0.04s-0.08,0.063-0.107,0.108
			c-0.028,0.045-0.048,0.098-0.061,0.157c-0.013,0.061-0.019,0.123-0.019,0.19L4.731,16.937L4.731,16.937z"/>
		<path d="M7.172,17.593c-0.053,0.064-0.118,0.115-0.193,0.15c-0.076,0.036-0.166,0.053-0.269,0.053
			c-0.083,0-0.16-0.012-0.228-0.035c-0.069-0.023-0.128-0.061-0.178-0.11c-0.049-0.051-0.087-0.116-0.114-0.195
			c-0.027-0.08-0.041-0.175-0.041-0.287v-1.094H6.6v1.097c0,0.047,0.006,0.087,0.018,0.12c0.012,0.034,0.028,0.062,0.05,0.081
			c0.021,0.021,0.047,0.035,0.076,0.044c0.029,0.01,0.061,0.015,0.097,0.015c0.081,0,0.147-0.015,0.198-0.042
			c0.051-0.028,0.09-0.067,0.117-0.117v-1.197h0.453v1.69H7.185L7.172,17.593z"/>
		<path d="M8.899,16.498c-0.022-0.003-0.049-0.006-0.08-0.009c-0.031-0.002-0.059-0.004-0.082-0.004
			c-0.088,0-0.16,0.015-0.215,0.044c-0.055,0.03-0.095,0.073-0.121,0.129v1.106H7.95v-1.69h0.427l0.013,0.201
			c0.042-0.073,0.095-0.13,0.157-0.171c0.062-0.041,0.136-0.063,0.22-0.063c0.023,0,0.049,0.002,0.075,0.006s0.048,0.01,0.063,0.015
			L8.899,16.498z"/>
		<path d="M10.033,17.297c0-0.023-0.005-0.046-0.015-0.064c-0.01-0.021-0.027-0.039-0.054-0.057
			c-0.026-0.017-0.062-0.033-0.106-0.049c-0.043-0.015-0.103-0.029-0.172-0.045c-0.086-0.019-0.168-0.042-0.24-0.069
			c-0.073-0.028-0.137-0.063-0.19-0.105s-0.096-0.09-0.126-0.145c-0.029-0.056-0.045-0.12-0.045-0.192
			c0-0.071,0.016-0.138,0.046-0.202c0.03-0.063,0.075-0.12,0.132-0.168c0.059-0.048,0.129-0.086,0.213-0.115
			c0.084-0.027,0.178-0.042,0.283-0.042c0.109,0,0.208,0.014,0.295,0.041c0.088,0.027,0.162,0.065,0.223,0.113
			s0.107,0.105,0.141,0.172c0.033,0.067,0.049,0.14,0.049,0.219h-0.451c0-0.063-0.021-0.117-0.063-0.16
			c-0.042-0.042-0.106-0.063-0.195-0.063c-0.075,0-0.135,0.017-0.177,0.051c-0.042,0.035-0.063,0.078-0.063,0.131
			c0,0.025,0.006,0.047,0.017,0.066s0.028,0.037,0.053,0.053c0.024,0.017,0.058,0.031,0.097,0.044
			c0.041,0.015,0.09,0.026,0.147,0.038c0.092,0.019,0.177,0.04,0.255,0.065s0.146,0.06,0.202,0.101s0.101,0.091,0.134,0.15
			c0.032,0.059,0.047,0.13,0.047,0.213c0,0.075-0.016,0.144-0.049,0.207c-0.034,0.063-0.081,0.117-0.143,0.163
			c-0.063,0.046-0.137,0.082-0.226,0.107c-0.087,0.026-0.185,0.039-0.293,0.039c-0.118,0-0.223-0.017-0.313-0.05
			c-0.09-0.034-0.166-0.077-0.229-0.131s-0.107-0.115-0.14-0.183c-0.031-0.067-0.048-0.137-0.048-0.205h0.429
			c0.002,0.044,0.013,0.082,0.028,0.112c0.019,0.032,0.041,0.059,0.068,0.078c0.028,0.021,0.062,0.034,0.098,0.043
			c0.037,0.009,0.076,0.015,0.117,0.015c0.086,0,0.15-0.018,0.195-0.05C10.011,17.394,10.033,17.351,10.033,17.297z"/>
		<path d="M11.541,17.796c-0.132,0-0.249-0.021-0.353-0.063c-0.104-0.043-0.192-0.102-0.265-0.175
			c-0.073-0.074-0.127-0.161-0.166-0.261c-0.038-0.1-0.058-0.206-0.058-0.319v-0.062c0-0.128,0.02-0.245,0.056-0.352
			c0.037-0.107,0.089-0.199,0.158-0.276c0.067-0.077,0.151-0.137,0.248-0.181c0.098-0.043,0.207-0.064,0.328-0.064
			c0.122,0,0.229,0.021,0.321,0.061c0.094,0.04,0.172,0.096,0.233,0.168c0.063,0.072,0.11,0.16,0.144,0.262
			c0.031,0.103,0.047,0.216,0.047,0.341v0.192h-1.076c0.008,0.055,0.021,0.104,0.045,0.149s0.051,0.083,0.086,0.115
			s0.076,0.058,0.123,0.074s0.1,0.026,0.158,0.026c0.082,0,0.158-0.016,0.229-0.047c0.069-0.03,0.129-0.077,0.18-0.143l0.223,0.249
			c-0.027,0.039-0.061,0.076-0.102,0.112c-0.041,0.037-0.09,0.068-0.145,0.098c-0.057,0.029-0.118,0.052-0.188,0.069
			C11.699,17.787,11.623,17.796,11.541,17.796z M11.489,16.408c-0.049,0-0.092,0.009-0.129,0.026
			c-0.037,0.017-0.069,0.042-0.096,0.071c-0.027,0.031-0.049,0.068-0.064,0.11c-0.018,0.043-0.029,0.09-0.036,0.142h0.628v-0.035
			c-0.001-0.046-0.008-0.087-0.02-0.125c-0.013-0.039-0.03-0.072-0.056-0.101c-0.024-0.028-0.056-0.05-0.094-0.065
			C11.585,16.415,11.541,16.408,11.489,16.408z"/>
		<path d="M13.408,17.297c0-0.023-0.005-0.046-0.015-0.064c-0.01-0.021-0.027-0.039-0.054-0.057
			c-0.026-0.017-0.062-0.033-0.106-0.049c-0.043-0.015-0.103-0.029-0.172-0.045c-0.086-0.019-0.168-0.042-0.24-0.069
			c-0.073-0.028-0.137-0.063-0.19-0.105s-0.096-0.09-0.126-0.145c-0.029-0.056-0.045-0.12-0.045-0.192
			c0-0.071,0.016-0.138,0.046-0.202c0.03-0.063,0.075-0.12,0.132-0.168c0.059-0.048,0.129-0.086,0.213-0.115
			c0.084-0.027,0.178-0.042,0.283-0.042c0.109,0,0.208,0.014,0.295,0.041c0.088,0.027,0.162,0.065,0.223,0.113
			s0.107,0.105,0.141,0.172c0.033,0.067,0.049,0.14,0.049,0.219H13.39c0-0.063-0.021-0.117-0.063-0.16
			c-0.042-0.042-0.106-0.063-0.195-0.063c-0.075,0-0.135,0.017-0.177,0.051c-0.042,0.035-0.063,0.078-0.063,0.131
			c0,0.025,0.006,0.047,0.017,0.066s0.028,0.037,0.053,0.053c0.024,0.017,0.058,0.031,0.097,0.044
			c0.041,0.015,0.09,0.026,0.147,0.038c0.092,0.019,0.177,0.04,0.255,0.065s0.146,0.06,0.202,0.101s0.101,0.091,0.134,0.15
			c0.032,0.059,0.047,0.13,0.047,0.213c0,0.075-0.016,0.144-0.049,0.207c-0.034,0.063-0.081,0.117-0.143,0.163
			c-0.063,0.046-0.137,0.082-0.226,0.107c-0.087,0.026-0.185,0.039-0.293,0.039c-0.118,0-0.223-0.017-0.313-0.05
			c-0.09-0.034-0.166-0.077-0.229-0.131s-0.107-0.115-0.14-0.183c-0.031-0.067-0.048-0.137-0.048-0.205h0.429
			c0.002,0.044,0.013,0.082,0.028,0.112c0.019,0.032,0.041,0.059,0.068,0.078c0.028,0.021,0.062,0.034,0.098,0.043
			c0.037,0.009,0.076,0.015,0.117,0.015c0.086,0,0.15-0.018,0.195-0.05C13.386,17.394,13.408,17.351,13.408,17.297z"/>
	</g>
</g>
</svg>
