<?xml version="1.0" encoding="utf-8"?>
<!-- Generator: Adobe Illustrator 16.0.0, SVG Export Plug-In . SVG Version: 6.00 Build 0)  -->
<!DOCTYPE svg PUBLIC "-//W3C//DTD SVG 1.1//EN" "http://www.w3.org/Graphics/SVG/1.1/DTD/svg11.dtd">
<svg version="1.1" id="Layer_1" xmlns="http://www.w3.org/2000/svg" xmlns:xlink="http://www.w3.org/1999/xlink" x="0px" y="0px"
	 width="16.08px" height="18.48px" viewBox="0 0 16.08 18.48" enable-background="new 0 0 16.08 18.48" xml:space="preserve">
<g>
	<g>
		<path d="M1.67,14.154v0.802H1.202v-2.274H2.09c0.134,0,0.254,0.019,0.36,0.056s0.195,0.09,0.269,0.157
			c0.073,0.066,0.129,0.146,0.168,0.238c0.038,0.093,0.058,0.192,0.058,0.302s-0.02,0.21-0.058,0.298
			c-0.039,0.089-0.095,0.164-0.168,0.227c-0.074,0.063-0.163,0.111-0.269,0.146s-0.226,0.051-0.36,0.051L1.67,14.154L1.67,14.154z
			 M1.67,13.775h0.419c0.066,0,0.124-0.008,0.172-0.025c0.048-0.017,0.088-0.04,0.119-0.069c0.031-0.03,0.054-0.065,0.068-0.107
			c0.014-0.042,0.021-0.087,0.021-0.136s-0.007-0.097-0.021-0.143c-0.014-0.046-0.037-0.085-0.068-0.12
			c-0.03-0.034-0.07-0.063-0.119-0.084c-0.048-0.021-0.106-0.03-0.172-0.03H1.67V13.775z"/>
		<path d="M3.233,12.828c0-0.068,0.022-0.124,0.068-0.167c0.045-0.043,0.107-0.064,0.185-0.064c0.039,0,0.073,0.006,0.104,0.017
			c0.031,0.012,0.058,0.028,0.08,0.048c0.021,0.021,0.039,0.046,0.051,0.074c0.012,0.029,0.018,0.06,0.018,0.093
			c0,0.034-0.006,0.066-0.018,0.094c-0.012,0.029-0.029,0.055-0.051,0.074c-0.022,0.021-0.049,0.037-0.08,0.048
			c-0.031,0.013-0.066,0.019-0.104,0.019c-0.038,0-0.073-0.006-0.104-0.019c-0.031-0.011-0.058-0.026-0.08-0.048
			c-0.021-0.021-0.039-0.045-0.051-0.074C3.239,12.894,3.233,12.862,3.233,12.828z M3.712,14.956H3.259v-1.689h0.453V14.956z"/>
		<path d="M4.788,14.623c0.042,0,0.08-0.006,0.114-0.018c0.034-0.013,0.064-0.029,0.089-0.051c0.025-0.022,0.045-0.049,0.059-0.079
			c0.014-0.031,0.021-0.065,0.022-0.104h0.424c-0.001,0.09-0.02,0.172-0.057,0.248c-0.036,0.076-0.086,0.141-0.148,0.195
			c-0.062,0.054-0.136,0.097-0.221,0.127s-0.177,0.045-0.274,0.045c-0.131,0-0.246-0.022-0.344-0.066
			c-0.098-0.044-0.179-0.104-0.244-0.181s-0.113-0.167-0.145-0.271c-0.033-0.104-0.049-0.215-0.049-0.335V14.09
			c0-0.12,0.016-0.23,0.049-0.336c0.032-0.104,0.08-0.194,0.145-0.271c0.064-0.077,0.146-0.139,0.243-0.183
			c0.098-0.044,0.211-0.065,0.342-0.065c0.104,0,0.199,0.015,0.285,0.046s0.159,0.075,0.221,0.132
			c0.062,0.058,0.109,0.127,0.144,0.209c0.035,0.082,0.052,0.173,0.053,0.274H5.072c-0.001-0.041-0.008-0.079-0.021-0.115
			c-0.014-0.036-0.032-0.067-0.056-0.094s-0.054-0.048-0.089-0.063C4.871,13.607,4.831,13.6,4.785,13.6
			c-0.065,0-0.119,0.014-0.161,0.041c-0.042,0.026-0.074,0.063-0.098,0.107s-0.039,0.099-0.048,0.157
			c-0.008,0.059-0.012,0.121-0.012,0.184v0.044c0,0.064,0.004,0.126,0.012,0.187c0.009,0.059,0.024,0.111,0.048,0.156
			c0.023,0.044,0.056,0.08,0.098,0.106C4.666,14.61,4.72,14.623,4.788,14.623z"/>
		<path d="M6.368,14.278L6.205,14.44v0.516H5.753v-2.399h0.451v1.329l0.088-0.111l0.433-0.508h0.542l-0.61,0.705l0.664,0.985H6.802
			L6.368,14.278z"/>
		<path d="M7.939,14.956H7.486v-2.399h0.453V14.956z"/>
		<path d="M9.089,14.987c-0.131,0-0.249-0.021-0.354-0.064c-0.104-0.043-0.19-0.101-0.263-0.175
			c-0.073-0.074-0.128-0.161-0.166-0.26c-0.038-0.1-0.057-0.206-0.057-0.32v-0.061c0-0.128,0.018-0.245,0.055-0.353
			c0.037-0.106,0.089-0.198,0.158-0.275s0.15-0.138,0.249-0.182c0.097-0.043,0.207-0.063,0.328-0.063c0.122,0,0.229,0.02,0.321,0.06
			s0.17,0.097,0.234,0.168c0.063,0.073,0.109,0.16,0.141,0.263c0.033,0.103,0.049,0.216,0.049,0.341v0.191H8.708
			c0.007,0.056,0.021,0.105,0.044,0.15s0.052,0.083,0.086,0.115c0.035,0.032,0.076,0.057,0.123,0.074
			c0.047,0.017,0.099,0.025,0.157,0.025c0.083,0,0.158-0.015,0.229-0.046c0.069-0.031,0.131-0.078,0.18-0.143l0.223,0.249
			c-0.027,0.039-0.061,0.075-0.102,0.111c-0.041,0.037-0.088,0.069-0.145,0.099c-0.057,0.028-0.118,0.052-0.188,0.068
			C9.248,14.979,9.171,14.987,9.089,14.987z M9.038,13.6c-0.049,0-0.092,0.009-0.129,0.025c-0.037,0.018-0.068,0.042-0.096,0.072
			c-0.026,0.031-0.047,0.068-0.064,0.11c-0.018,0.043-0.027,0.09-0.036,0.142h0.628v-0.036c-0.001-0.045-0.007-0.086-0.02-0.125
			c-0.014-0.039-0.03-0.072-0.055-0.1c-0.024-0.028-0.057-0.05-0.095-0.066C9.134,13.607,9.09,13.6,9.038,13.6z"/>
		<path d="M11.563,14.126c0,0.127-0.014,0.243-0.041,0.349c-0.026,0.104-0.067,0.195-0.123,0.271
			c-0.055,0.076-0.123,0.135-0.205,0.177c-0.084,0.042-0.18,0.063-0.289,0.063c-0.098,0-0.184-0.02-0.254-0.056
			c-0.071-0.037-0.133-0.089-0.186-0.155l-0.021,0.18h-0.405v-2.399h0.452v0.86c0.05-0.058,0.109-0.104,0.176-0.135
			s0.146-0.047,0.234-0.047c0.111,0,0.207,0.021,0.291,0.063c0.082,0.042,0.152,0.103,0.207,0.179
			c0.055,0.075,0.097,0.167,0.123,0.271c0.027,0.105,0.041,0.221,0.041,0.346V14.126z M11.112,14.094
			c0-0.066-0.004-0.13-0.014-0.189c-0.01-0.061-0.027-0.112-0.052-0.157c-0.024-0.044-0.058-0.08-0.099-0.105
			c-0.043-0.026-0.096-0.039-0.16-0.039c-0.076,0-0.139,0.015-0.186,0.046c-0.049,0.031-0.086,0.074-0.111,0.13v0.667
			c0.025,0.056,0.063,0.1,0.111,0.131c0.047,0.031,0.11,0.047,0.188,0.047c0.063,0,0.114-0.012,0.157-0.037
			c0.041-0.024,0.074-0.06,0.098-0.104c0.023-0.043,0.042-0.097,0.051-0.157c0.01-0.061,0.016-0.127,0.016-0.199V14.094
			L11.112,14.094z"/>
		<path d="M12.821,14.956c-0.021-0.041-0.035-0.091-0.045-0.15c-0.045,0.051-0.104,0.094-0.172,0.129
			c-0.069,0.035-0.154,0.053-0.254,0.053c-0.082,0-0.158-0.013-0.229-0.038c-0.071-0.025-0.131-0.06-0.184-0.104
			c-0.051-0.044-0.092-0.098-0.121-0.159c-0.028-0.063-0.043-0.13-0.043-0.204c0-0.088,0.017-0.167,0.049-0.236
			c0.031-0.069,0.082-0.127,0.148-0.175c0.064-0.048,0.146-0.084,0.243-0.109c0.099-0.024,0.211-0.038,0.341-0.038h0.201v-0.097
			c0-0.078-0.02-0.141-0.061-0.188c-0.039-0.048-0.104-0.07-0.189-0.07c-0.076,0-0.136,0.019-0.179,0.055
			c-0.043,0.037-0.063,0.087-0.063,0.15h-0.453c0-0.073,0.018-0.144,0.051-0.208c0.035-0.065,0.082-0.123,0.146-0.172
			c0.063-0.05,0.138-0.088,0.228-0.116c0.088-0.029,0.188-0.043,0.297-0.043c0.098,0,0.188,0.012,0.271,0.037
			c0.084,0.024,0.155,0.063,0.217,0.111c0.06,0.051,0.106,0.112,0.141,0.187c0.033,0.075,0.051,0.161,0.051,0.26v0.715
			c0,0.048,0.001,0.091,0.004,0.129c0.004,0.038,0.008,0.073,0.014,0.104c0.004,0.031,0.012,0.058,0.021,0.083
			c0.008,0.023,0.019,0.048,0.028,0.07v0.025H12.821z M12.449,14.642c0.038,0,0.073-0.005,0.106-0.015
			c0.032-0.009,0.063-0.021,0.088-0.037c0.025-0.015,0.049-0.032,0.067-0.052c0.021-0.02,0.035-0.04,0.046-0.061v-0.291h-0.186
			c-0.061,0-0.111,0.006-0.154,0.02c-0.044,0.013-0.08,0.031-0.107,0.056c-0.029,0.022-0.05,0.051-0.063,0.082
			c-0.015,0.032-0.021,0.066-0.021,0.104c0,0.056,0.021,0.103,0.06,0.139C12.326,14.624,12.379,14.642,12.449,14.642z"/>
		<path d="M14.035,14.956h-0.453v-2.399h0.453V14.956z"/>
		<path d="M14.883,14.956h-0.452v-2.399h0.452V14.956z"/>
		<path d="M5.235,17.038C5.227,17.154,5.2,17.26,5.157,17.357c-0.043,0.097-0.104,0.18-0.181,0.249
			c-0.077,0.068-0.171,0.124-0.28,0.163c-0.11,0.039-0.235,0.059-0.376,0.059c-0.146,0-0.277-0.025-0.393-0.076
			c-0.116-0.051-0.214-0.123-0.295-0.218s-0.143-0.209-0.186-0.344s-0.065-0.286-0.065-0.454v-0.15c0-0.167,0.022-0.318,0.067-0.455
			c0.045-0.136,0.108-0.25,0.19-0.345s0.181-0.168,0.297-0.219c0.117-0.051,0.247-0.077,0.391-0.077c0.142,0,0.268,0.02,0.376,0.06
			c0.109,0.04,0.201,0.097,0.277,0.167c0.076,0.072,0.136,0.156,0.178,0.256c0.042,0.099,0.07,0.205,0.082,0.32H4.77
			c-0.005-0.067-0.017-0.128-0.035-0.18c-0.019-0.052-0.045-0.096-0.079-0.131c-0.034-0.036-0.079-0.063-0.133-0.081
			c-0.054-0.019-0.12-0.027-0.197-0.027c-0.158,0-0.276,0.059-0.354,0.173c-0.078,0.115-0.116,0.293-0.116,0.535v0.153
			c0,0.118,0.008,0.221,0.025,0.31c0.018,0.088,0.044,0.163,0.081,0.223C4,17.326,4.047,17.37,4.106,17.4s0.13,0.044,0.213,0.044
			c0.074,0,0.138-0.008,0.191-0.025c0.053-0.017,0.099-0.042,0.134-0.076c0.036-0.033,0.064-0.076,0.083-0.127
			c0.02-0.051,0.032-0.109,0.038-0.178H5.235z"/>
		<path d="M5.443,16.935c0-0.123,0.018-0.237,0.054-0.343c0.035-0.104,0.087-0.195,0.154-0.271c0.068-0.077,0.151-0.137,0.251-0.181
			s0.213-0.065,0.34-0.065c0.128,0,0.242,0.021,0.342,0.065c0.101,0.044,0.185,0.104,0.253,0.181
			c0.068,0.076,0.12,0.167,0.155,0.271c0.035,0.105,0.053,0.22,0.053,0.343v0.032c0,0.124-0.018,0.238-0.053,0.344
			c-0.035,0.104-0.087,0.194-0.155,0.271s-0.152,0.137-0.251,0.181c-0.099,0.043-0.213,0.064-0.341,0.064s-0.242-0.021-0.341-0.064
			c-0.099-0.044-0.183-0.104-0.251-0.181c-0.068-0.077-0.12-0.167-0.155-0.271c-0.036-0.104-0.054-0.22-0.054-0.344L5.443,16.935
			L5.443,16.935z M5.895,16.968c0,0.069,0.006,0.134,0.019,0.194c0.013,0.062,0.032,0.113,0.06,0.157
			c0.028,0.044,0.063,0.08,0.108,0.104c0.044,0.026,0.099,0.039,0.163,0.039c0.063,0,0.116-0.013,0.16-0.039
			c0.044-0.025,0.081-0.061,0.108-0.104c0.028-0.044,0.049-0.096,0.062-0.157c0.012-0.061,0.019-0.125,0.019-0.194v-0.032
			c0-0.067-0.006-0.13-0.019-0.19c-0.013-0.06-0.033-0.112-0.062-0.158c-0.028-0.045-0.064-0.082-0.109-0.107
			c-0.044-0.026-0.099-0.04-0.162-0.04s-0.116,0.014-0.16,0.04c-0.044,0.025-0.08,0.063-0.108,0.107
			c-0.028,0.045-0.047,0.099-0.06,0.158c-0.013,0.061-0.019,0.123-0.019,0.19V16.968z"/>
		<path d="M8.335,17.624c-0.053,0.064-0.118,0.115-0.194,0.15c-0.076,0.036-0.166,0.053-0.269,0.053
			c-0.083,0-0.159-0.012-0.228-0.035c-0.069-0.022-0.128-0.061-0.178-0.11c-0.049-0.052-0.088-0.116-0.115-0.195
			S7.31,17.311,7.31,17.199v-1.094h0.451v1.097c0,0.047,0.006,0.087,0.019,0.12c0.012,0.034,0.028,0.061,0.05,0.081
			c0.021,0.021,0.046,0.035,0.076,0.044c0.029,0.01,0.062,0.014,0.097,0.014c0.081,0,0.147-0.014,0.198-0.042
			c0.051-0.027,0.09-0.066,0.117-0.117v-1.196h0.453v1.689H8.348L8.335,17.624z"/>
		<path d="M10.063,16.529c-0.023-0.003-0.051-0.006-0.082-0.009c-0.03-0.002-0.058-0.004-0.082-0.004
			c-0.088,0-0.159,0.015-0.215,0.044C9.63,16.59,9.59,16.633,9.563,16.689v1.105H9.112v-1.689H9.54l0.012,0.201
			c0.043-0.073,0.096-0.131,0.158-0.172s0.135-0.062,0.219-0.062c0.023,0,0.049,0.002,0.076,0.006
			c0.025,0.004,0.049,0.009,0.064,0.014L10.063,16.529z"/>
		<path d="M10.821,15.689v0.416h0.289v0.331h-0.289v0.844c0,0.036,0.003,0.063,0.011,0.087c0.007,0.023,0.019,0.041,0.032,0.054
			c0.015,0.014,0.033,0.021,0.054,0.026s0.046,0.007,0.076,0.007c0.026,0,0.052-0.001,0.073-0.003
			c0.022-0.002,0.043-0.005,0.06-0.008v0.342c-0.037,0.011-0.078,0.021-0.123,0.029s-0.094,0.012-0.151,0.012
			c-0.074,0-0.141-0.009-0.199-0.027c-0.059-0.018-0.11-0.047-0.152-0.087s-0.074-0.091-0.098-0.153
			c-0.022-0.063-0.034-0.141-0.034-0.23v-0.892h-0.247v-0.331h0.247v-0.416H10.821z"/>
		<path d="M12.278,17.329c0-0.023-0.006-0.046-0.016-0.064c-0.009-0.021-0.027-0.039-0.053-0.057
			c-0.025-0.017-0.063-0.034-0.105-0.049c-0.045-0.015-0.104-0.03-0.174-0.045c-0.086-0.02-0.166-0.042-0.24-0.07
			c-0.072-0.027-0.137-0.063-0.189-0.104c-0.055-0.042-0.096-0.09-0.126-0.146c-0.03-0.055-0.045-0.12-0.045-0.191
			s0.015-0.139,0.046-0.202c0.029-0.063,0.075-0.12,0.133-0.168c0.059-0.048,0.129-0.086,0.213-0.115
			c0.084-0.028,0.178-0.042,0.283-0.042c0.109,0,0.208,0.013,0.295,0.041c0.088,0.027,0.162,0.065,0.223,0.113
			c0.062,0.048,0.108,0.105,0.142,0.172c0.032,0.066,0.049,0.14,0.049,0.219H12.26c0-0.063-0.021-0.118-0.063-0.16
			c-0.041-0.042-0.105-0.063-0.194-0.063c-0.076,0-0.135,0.017-0.177,0.051c-0.042,0.035-0.063,0.078-0.063,0.131
			c0,0.025,0.006,0.047,0.016,0.066c0.012,0.02,0.029,0.037,0.054,0.053s0.058,0.031,0.097,0.044
			c0.041,0.014,0.09,0.026,0.147,0.038c0.092,0.018,0.177,0.04,0.255,0.065s0.146,0.06,0.202,0.101s0.101,0.091,0.134,0.15
			c0.032,0.059,0.048,0.13,0.048,0.213c0,0.074-0.017,0.144-0.05,0.207c-0.033,0.063-0.081,0.116-0.143,0.163
			c-0.063,0.046-0.138,0.081-0.226,0.107c-0.087,0.026-0.187,0.039-0.294,0.039c-0.118,0-0.223-0.017-0.313-0.05
			c-0.092-0.034-0.168-0.077-0.229-0.131c-0.062-0.055-0.108-0.115-0.14-0.184c-0.031-0.066-0.047-0.136-0.047-0.205h0.428
			c0.002,0.044,0.012,0.082,0.029,0.113c0.018,0.032,0.039,0.058,0.067,0.078c0.028,0.02,0.062,0.034,0.099,0.043
			s0.074,0.014,0.115,0.014c0.086,0,0.151-0.017,0.196-0.049C12.255,17.425,12.278,17.382,12.278,17.329z"/>
	</g>
</g>
<g>
	<path fill="#FFFFFF" d="M10.134,7.128c0,0,0.001,0.001,0.002,0.002c0.309-0.294,0.623-0.582,0.922-0.885
		c0.489-0.5,0.613-1.244,0.213-1.809c-0.354-0.501-0.789-0.955-1.232-1.384C9.437,2.472,8.61,2.474,7.985,3.035
		c-0.611,0.548-1.201,1.12-1.794,1.688C5.769,5.127,5.614,5.628,5.688,6.203c0.037,0.292,0.085,0.582,0.121,0.874
		C5.836,7.293,5.78,7.484,5.631,7.654c-0.245,0.28-0.459,0.59-0.721,0.851C4.613,8.8,4.293,9.077,3.955,9.322
		C3.623,9.563,3.593,9.656,3.882,9.957c0.038,0.04,0.074,0.079,0.112,0.118c0.201,0.204,0.323,0.191,0.489-0.051
		C4.561,9.91,4.624,9.778,4.722,9.685c0.42-0.397,0.836-0.803,1.284-1.166c0.369-0.3,0.803-0.409,1.28-0.241
		c0.167,0.059,0.345,0.088,0.52,0.12C8.353,8.496,8.835,8.35,9.243,7.979C9.547,7.703,9.838,7.413,10.134,7.128z"/>
	<path fill="#6D6E70" d="M10.134,7.128C9.838,7.412,9.547,7.702,9.243,7.978c-0.408,0.372-0.89,0.518-1.437,0.42
		c-0.175-0.031-0.354-0.062-0.52-0.12C6.809,8.11,6.375,8.219,6.006,8.519C5.558,8.882,5.143,9.288,4.722,9.685
		C4.624,9.778,4.561,9.91,4.483,10.024c-0.166,0.242-0.288,0.255-0.489,0.051c-0.038-0.039-0.075-0.078-0.112-0.118
		C3.593,9.656,3.623,9.563,3.955,9.322C4.293,9.077,4.613,8.8,4.91,8.505c0.263-0.262,0.476-0.57,0.721-0.851
		c0.149-0.17,0.205-0.361,0.178-0.578C5.773,6.784,5.725,6.494,5.688,6.202C5.614,5.627,5.769,5.126,6.191,4.722
		c0.593-0.567,1.183-1.14,1.794-1.688c0.625-0.561,1.452-0.563,2.054,0.019c0.444,0.429,0.878,0.882,1.233,1.384
		c0.398,0.564,0.275,1.309-0.215,1.809c-0.298,0.304-0.613,0.591-0.92,0.885C10.136,7.13,10.135,7.129,10.134,7.128z"/>
	<circle fill="#6D6E70" cx="11.563" cy="9.601" r="0.967"/>
</g>
</svg>
