<?xml version="1.0" encoding="utf-8"?>
<!-- Generator: Adobe Illustrator 16.0.0, SVG Export Plug-In . SVG Version: 6.00 Build 0)  -->
<!DOCTYPE svg PUBLIC "-//W3C//DTD SVG 1.1//EN" "http://www.w3.org/Graphics/SVG/1.1/DTD/svg11.dtd">
<svg version="1.1" id="Layer_1" xmlns="http://www.w3.org/2000/svg" xmlns:xlink="http://www.w3.org/1999/xlink" x="0px" y="0px"
	 width="16.08px" height="18.48px" viewBox="0 0 16.08 18.48" enable-background="new 0 0 16.08 18.48" xml:space="preserve">
<g>
	<path d="M5.008,14.311c0-0.04-0.006-0.075-0.018-0.105c-0.011-0.033-0.033-0.063-0.066-0.089c-0.033-0.027-0.078-0.056-0.136-0.08
		c-0.058-0.026-0.133-0.055-0.225-0.083c-0.104-0.033-0.202-0.071-0.294-0.113c-0.093-0.042-0.173-0.091-0.242-0.147
		c-0.069-0.056-0.124-0.122-0.164-0.194c-0.04-0.074-0.061-0.16-0.061-0.261c0-0.095,0.021-0.181,0.062-0.26
		c0.042-0.079,0.1-0.146,0.174-0.201c0.074-0.055,0.163-0.098,0.266-0.129c0.103-0.029,0.215-0.046,0.338-0.046
		c0.126,0,0.241,0.02,0.344,0.052c0.104,0.035,0.191,0.083,0.265,0.146c0.073,0.063,0.129,0.137,0.168,0.223
		c0.039,0.086,0.059,0.182,0.059,0.282H5.009c0-0.048-0.007-0.092-0.022-0.133s-0.038-0.076-0.069-0.105
		c-0.031-0.027-0.07-0.052-0.118-0.066c-0.046-0.018-0.102-0.024-0.166-0.024c-0.061,0-0.114,0.007-0.16,0.021
		c-0.045,0.014-0.083,0.03-0.112,0.056c-0.029,0.024-0.052,0.052-0.067,0.084c-0.015,0.031-0.023,0.066-0.023,0.103
		c0,0.073,0.038,0.138,0.115,0.188c0.076,0.051,0.188,0.098,0.336,0.142c0.124,0.039,0.233,0.081,0.327,0.13
		c0.094,0.047,0.173,0.1,0.236,0.157c0.063,0.062,0.111,0.126,0.144,0.2c0.032,0.074,0.048,0.158,0.048,0.251
		c0,0.102-0.02,0.189-0.059,0.269c-0.039,0.076-0.094,0.144-0.166,0.196c-0.072,0.056-0.159,0.097-0.26,0.124
		c-0.101,0.029-0.215,0.043-0.34,0.043c-0.075,0-0.15-0.006-0.225-0.02s-0.146-0.033-0.215-0.062
		c-0.068-0.025-0.131-0.061-0.189-0.102c-0.059-0.041-0.109-0.088-0.152-0.145c-0.043-0.056-0.077-0.117-0.102-0.188
		c-0.025-0.07-0.037-0.148-0.037-0.234h0.471c0,0.069,0.011,0.127,0.032,0.177c0.022,0.048,0.053,0.086,0.092,0.114
		c0.039,0.03,0.086,0.053,0.142,0.065c0.055,0.014,0.116,0.021,0.184,0.021c0.061,0,0.113-0.007,0.158-0.02
		c0.045-0.013,0.082-0.031,0.111-0.054c0.029-0.023,0.051-0.052,0.064-0.082C5,14.382,5.008,14.347,5.008,14.311z"/>
	<path d="M6.306,12.802v0.416h0.289v0.331H6.306v0.844c0,0.036,0.003,0.064,0.011,0.087c0.007,0.023,0.018,0.041,0.032,0.056
		c0.015,0.013,0.033,0.021,0.054,0.024s0.046,0.007,0.076,0.007c0.027,0,0.052-0.001,0.074-0.003s0.042-0.005,0.059-0.008v0.342
		c-0.037,0.013-0.078,0.021-0.123,0.029s-0.094,0.012-0.151,0.012c-0.074,0-0.141-0.009-0.2-0.025
		c-0.059-0.02-0.11-0.047-0.152-0.087s-0.074-0.093-0.098-0.155c-0.022-0.063-0.034-0.14-0.034-0.23v-0.892H5.608v-0.331h0.247
		v-0.416H6.306z"/>
	<path d="M6.777,14.048c0-0.123,0.018-0.237,0.053-0.342c0.036-0.105,0.087-0.196,0.155-0.272c0.067-0.077,0.151-0.137,0.25-0.181
		c0.099-0.044,0.212-0.065,0.34-0.065s0.242,0.021,0.342,0.065c0.1,0.044,0.184,0.104,0.252,0.181
		c0.068,0.076,0.12,0.167,0.156,0.272c0.036,0.104,0.053,0.219,0.053,0.342v0.033c0,0.124-0.018,0.236-0.053,0.343
		c-0.036,0.104-0.087,0.195-0.156,0.271c-0.069,0.077-0.151,0.139-0.25,0.182c-0.099,0.043-0.212,0.063-0.34,0.063
		s-0.242-0.021-0.342-0.063s-0.184-0.104-0.251-0.182c-0.068-0.075-0.12-0.167-0.156-0.271c-0.035-0.104-0.053-0.219-0.053-0.343
		V14.048z M7.228,14.081c0,0.067,0.007,0.133,0.019,0.192c0.012,0.063,0.033,0.113,0.06,0.157s0.063,0.08,0.108,0.105
		c0.044,0.024,0.099,0.039,0.164,0.039c0.063,0,0.115-0.015,0.16-0.039c0.044-0.026,0.08-0.063,0.108-0.105s0.048-0.096,0.061-0.157
		c0.013-0.061,0.019-0.125,0.019-0.192v-0.033c0-0.067-0.006-0.13-0.019-0.19c-0.012-0.06-0.032-0.11-0.061-0.156
		c-0.029-0.048-0.064-0.082-0.109-0.108s-0.099-0.04-0.163-0.04c-0.063,0-0.116,0.014-0.16,0.04s-0.081,0.063-0.108,0.108
		s-0.048,0.098-0.06,0.156c-0.012,0.062-0.019,0.123-0.019,0.19V14.081z"/>
	<path d="M9.606,13.641c-0.023-0.003-0.051-0.006-0.082-0.009c-0.031-0.002-0.058-0.004-0.082-0.004
		c-0.089,0-0.16,0.015-0.215,0.044c-0.055,0.03-0.095,0.073-0.121,0.129v1.106H8.655v-1.69h0.428l0.013,0.201
		c0.043-0.073,0.097-0.13,0.158-0.171s0.135-0.063,0.219-0.063c0.022,0,0.049,0.002,0.076,0.006
		c0.024,0.004,0.048,0.011,0.063,0.016L9.606,13.641z"/>
	<path d="M10.602,14.939c-0.132,0-0.249-0.021-0.353-0.063c-0.104-0.043-0.192-0.103-0.264-0.175
		c-0.074-0.074-0.127-0.161-0.166-0.262c-0.039-0.1-0.058-0.206-0.058-0.319v-0.063c0-0.128,0.019-0.245,0.056-0.352
		c0.036-0.107,0.09-0.199,0.157-0.276s0.151-0.137,0.248-0.181c0.099-0.043,0.207-0.064,0.328-0.064
		c0.122,0,0.229,0.021,0.321,0.062c0.094,0.04,0.172,0.096,0.234,0.168c0.061,0.071,0.108,0.16,0.143,0.262
		c0.031,0.103,0.048,0.216,0.048,0.341v0.192H10.22c0.008,0.055,0.021,0.104,0.045,0.148s0.051,0.083,0.086,0.115
		s0.076,0.059,0.123,0.074s0.1,0.026,0.158,0.026c0.082,0,0.158-0.017,0.229-0.048c0.069-0.029,0.129-0.076,0.18-0.143l0.224,0.249
		c-0.026,0.039-0.062,0.076-0.103,0.112c-0.041,0.037-0.09,0.067-0.145,0.098c-0.056,0.029-0.117,0.052-0.188,0.069
		C10.76,14.93,10.684,14.939,10.602,14.939z M10.55,13.552c-0.048,0-0.092,0.009-0.128,0.026c-0.038,0.017-0.069,0.042-0.097,0.07
		c-0.025,0.031-0.047,0.068-0.063,0.11c-0.017,0.043-0.028,0.09-0.036,0.142h0.628v-0.034c-0.001-0.047-0.007-0.088-0.021-0.125
		c-0.012-0.039-0.029-0.072-0.055-0.102c-0.023-0.028-0.057-0.05-0.095-0.064C10.646,13.558,10.602,13.552,10.55,13.552z"/>
	<path d="M12.469,14.44c0-0.022-0.005-0.046-0.015-0.063c-0.01-0.021-0.027-0.039-0.053-0.058c-0.027-0.017-0.063-0.032-0.106-0.049
		c-0.044-0.015-0.103-0.028-0.173-0.045c-0.086-0.019-0.168-0.042-0.24-0.068c-0.073-0.028-0.137-0.063-0.189-0.105
		c-0.055-0.042-0.097-0.09-0.127-0.145c-0.029-0.057-0.045-0.12-0.045-0.192c0-0.071,0.016-0.138,0.047-0.202
		c0.029-0.063,0.074-0.12,0.133-0.168s0.127-0.086,0.211-0.115c0.084-0.026,0.181-0.042,0.285-0.042
		c0.108,0,0.207,0.015,0.295,0.041c0.088,0.027,0.162,0.065,0.224,0.113s0.106,0.104,0.142,0.172
		c0.032,0.067,0.049,0.14,0.049,0.219h-0.453c0-0.063-0.021-0.116-0.063-0.159c-0.042-0.042-0.106-0.063-0.194-0.063
		c-0.076,0-0.136,0.017-0.178,0.051c-0.042,0.035-0.063,0.078-0.063,0.131c0,0.025,0.006,0.048,0.017,0.066s0.028,0.037,0.054,0.053
		c0.023,0.018,0.057,0.031,0.096,0.044c0.041,0.016,0.091,0.026,0.147,0.038c0.093,0.02,0.177,0.04,0.255,0.065
		c0.078,0.024,0.146,0.06,0.202,0.101s0.101,0.091,0.134,0.15c0.032,0.059,0.049,0.13,0.049,0.213c0,0.075-0.018,0.144-0.051,0.207
		c-0.033,0.063-0.08,0.117-0.143,0.163s-0.137,0.082-0.225,0.106c-0.088,0.026-0.188,0.039-0.295,0.039
		c-0.117,0-0.224-0.017-0.313-0.05c-0.093-0.034-0.167-0.077-0.229-0.131s-0.107-0.115-0.141-0.183
		c-0.031-0.067-0.047-0.138-0.047-0.205h0.429c0.002,0.044,0.013,0.082,0.029,0.111c0.019,0.032,0.04,0.06,0.067,0.078
		c0.027,0.021,0.062,0.034,0.099,0.043c0.036,0.009,0.075,0.016,0.116,0.016c0.086,0,0.149-0.019,0.195-0.051
		C12.446,14.538,12.469,14.495,12.469,14.44z"/>
</g>
<g>
	<path d="M5.823,24.621c0-0.04-0.006-0.075-0.017-0.105c-0.012-0.032-0.034-0.063-0.066-0.09c-0.033-0.025-0.078-0.054-0.136-0.08
		c-0.058-0.025-0.132-0.053-0.224-0.084c-0.104-0.031-0.202-0.069-0.295-0.111c-0.092-0.042-0.173-0.091-0.242-0.147
		c-0.069-0.056-0.124-0.122-0.164-0.194c-0.04-0.074-0.06-0.16-0.06-0.261c0-0.095,0.021-0.181,0.062-0.26s0.099-0.146,0.173-0.201
		c0.074-0.055,0.163-0.098,0.266-0.129s0.215-0.046,0.338-0.046c0.126,0,0.24,0.02,0.344,0.052c0.103,0.035,0.191,0.083,0.264,0.146
		c0.073,0.063,0.129,0.137,0.169,0.223s0.06,0.18,0.06,0.282h-0.47c0-0.048-0.008-0.092-0.022-0.133
		c-0.016-0.041-0.039-0.076-0.07-0.105c-0.031-0.027-0.07-0.052-0.117-0.066c-0.047-0.018-0.102-0.025-0.166-0.025
		c-0.062,0-0.115,0.007-0.16,0.021c-0.045,0.014-0.083,0.03-0.112,0.056c-0.03,0.022-0.053,0.052-0.067,0.084
		c-0.016,0.032-0.022,0.065-0.022,0.103c0,0.075,0.038,0.14,0.114,0.188c0.077,0.051,0.189,0.098,0.336,0.142
		c0.124,0.039,0.234,0.081,0.328,0.128c0.095,0.047,0.172,0.102,0.236,0.159c0.063,0.062,0.11,0.126,0.143,0.2
		c0.032,0.074,0.049,0.158,0.049,0.251c0,0.1-0.02,0.189-0.059,0.267c-0.039,0.078-0.095,0.146-0.167,0.2
		c-0.072,0.054-0.159,0.095-0.26,0.124s-0.215,0.043-0.34,0.043c-0.075,0-0.15-0.006-0.225-0.02
		c-0.075-0.015-0.147-0.033-0.215-0.062c-0.068-0.025-0.132-0.061-0.19-0.102c-0.058-0.041-0.109-0.088-0.152-0.146
		c-0.043-0.055-0.077-0.116-0.102-0.188s-0.036-0.148-0.036-0.234h0.47c0,0.069,0.011,0.127,0.033,0.175
		c0.021,0.05,0.052,0.086,0.091,0.116c0.04,0.03,0.087,0.051,0.142,0.065c0.056,0.014,0.117,0.021,0.185,0.021
		c0.061,0,0.113-0.007,0.158-0.02c0.044-0.015,0.081-0.031,0.11-0.055c0.029-0.022,0.05-0.051,0.065-0.081
		C5.816,24.691,5.823,24.657,5.823,24.621z"/>
	<path d="M8.104,24.386c0,0.123-0.015,0.237-0.043,0.344c-0.029,0.104-0.071,0.194-0.126,0.271s-0.124,0.139-0.206,0.183
		c-0.082,0.043-0.176,0.063-0.282,0.063c-0.09,0-0.169-0.016-0.237-0.047s-0.127-0.075-0.177-0.131v0.797H6.581v-2.34H7l0.016,0.167
		c0.052-0.063,0.113-0.111,0.182-0.146c0.069-0.034,0.151-0.051,0.246-0.051c0.107,0,0.202,0.021,0.285,0.063
		c0.082,0.041,0.151,0.1,0.206,0.175c0.055,0.076,0.097,0.167,0.126,0.271c0.028,0.106,0.043,0.225,0.043,0.353V24.386z
		 M7.651,24.356c0-0.07-0.006-0.137-0.018-0.195c-0.012-0.06-0.031-0.112-0.057-0.156c-0.026-0.044-0.06-0.079-0.101-0.104
		c-0.041-0.025-0.091-0.037-0.15-0.037c-0.074,0-0.135,0.014-0.183,0.041c-0.047,0.028-0.084,0.068-0.109,0.121v0.69
		c0.025,0.054,0.063,0.095,0.109,0.123c0.048,0.03,0.109,0.044,0.186,0.044c0.06,0,0.11-0.013,0.151-0.039
		c0.042-0.024,0.075-0.062,0.1-0.105c0.026-0.045,0.044-0.098,0.056-0.159c0.011-0.06,0.017-0.124,0.017-0.192L7.651,24.356
		L7.651,24.356z"/>
	<path d="M8.312,24.357c0-0.123,0.017-0.237,0.053-0.342c0.036-0.105,0.087-0.196,0.155-0.272c0.067-0.077,0.151-0.137,0.25-0.181
		c0.099-0.044,0.213-0.065,0.34-0.065c0.129,0,0.242,0.021,0.343,0.065s0.185,0.104,0.252,0.181c0.067,0.076,0.12,0.167,0.155,0.272
		c0.035,0.104,0.053,0.219,0.053,0.342v0.033c0,0.124-0.018,0.236-0.053,0.343c-0.035,0.104-0.088,0.193-0.155,0.271
		s-0.151,0.139-0.251,0.182s-0.212,0.063-0.34,0.063c-0.129,0-0.243-0.021-0.342-0.063c-0.101-0.043-0.185-0.104-0.251-0.182
		s-0.12-0.167-0.156-0.271c-0.036-0.104-0.053-0.219-0.053-0.343V24.357z M8.765,24.39c0,0.067,0.006,0.133,0.02,0.192
		c0.012,0.063,0.031,0.113,0.061,0.157c0.027,0.044,0.063,0.08,0.107,0.104c0.044,0.026,0.099,0.039,0.163,0.039
		c0.063,0,0.114-0.013,0.159-0.039c0.043-0.024,0.08-0.061,0.107-0.104c0.028-0.044,0.049-0.096,0.061-0.157
		c0.014-0.061,0.021-0.125,0.021-0.192v-0.033c0-0.067-0.007-0.13-0.021-0.19c-0.012-0.06-0.031-0.11-0.061-0.158
		c-0.027-0.046-0.064-0.082-0.109-0.106c-0.045-0.026-0.099-0.04-0.162-0.04c-0.063,0-0.114,0.014-0.158,0.04
		c-0.045,0.024-0.081,0.063-0.107,0.106c-0.027,0.044-0.048,0.1-0.061,0.158c-0.014,0.062-0.02,0.123-0.02,0.19V24.39z"/>
	<path d="M11.144,23.951c-0.022-0.003-0.051-0.006-0.082-0.009c-0.028-0.002-0.058-0.004-0.082-0.004
		c-0.088,0-0.16,0.015-0.215,0.044c-0.055,0.028-0.095,0.073-0.121,0.129v1.104h-0.451v-1.688h0.429l0.012,0.201
		c0.042-0.073,0.097-0.13,0.157-0.171c0.063-0.041,0.136-0.063,0.219-0.063c0.024,0,0.051,0.002,0.076,0.006
		s0.048,0.009,0.063,0.016L11.144,23.951z"/>
	<path d="M11.899,23.111v0.416h0.289v0.331h-0.289v0.844c0,0.036,0.004,0.064,0.012,0.087c0.007,0.023,0.018,0.041,0.033,0.054
		c0.015,0.015,0.033,0.021,0.054,0.026s0.046,0.007,0.075,0.007c0.027,0,0.052-0.001,0.074-0.003
		c0.021-0.002,0.041-0.005,0.059-0.008v0.342c-0.037,0.011-0.078,0.021-0.122,0.029c-0.045,0.008-0.095,0.012-0.151,0.012
		c-0.074,0-0.141-0.009-0.199-0.027c-0.06-0.018-0.109-0.047-0.151-0.087c-0.043-0.04-0.075-0.091-0.099-0.152
		c-0.022-0.063-0.034-0.142-0.034-0.23v-0.892h-0.248v-0.331h0.247v-0.416L11.899,23.111L11.899,23.111z"/>
</g>
<g>
	<path fill="#6D6E70" d="M3.828,10.25c0-0.042,0-0.086,0-0.129c0.064-0.164,0.186-0.226,0.36-0.216
		c0.158,0.009,0.318,0.002,0.484,0.002c0-0.036,0-0.063,0-0.091c0-1.154,0-2.309,0-3.461c0-0.126,0-0.125-0.116-0.168
		C4.281,6.083,4.071,5.902,3.948,5.635C3.893,5.515,3.867,5.383,3.827,5.257c0-0.129,0-0.258,0-0.387c2.968,0,5.936,0,8.902,0
		c0.017,0,0.033,0.001,0.043,0.001c0,0.146,0.012,0.282-0.004,0.417c-0.013,0.107-0.045,0.215-0.088,0.314
		c-0.127,0.289-0.347,0.484-0.646,0.588c-0.07,0.023-0.097,0.056-0.097,0.135c0.002,1.163,0,2.326,0,3.489c0,0.027,0,0.056,0,0.091
		c0.035,0,0.062,0,0.086,0c0.162,0,0.324-0.001,0.486,0.001c0.112,0.001,0.194,0.059,0.244,0.159
		c0.047,0.093,0.044,0.188-0.021,0.269c-0.043,0.055-0.107,0.088-0.164,0.13c-2.844,0-5.687,0-8.527,0
		C3.94,10.424,3.869,10.352,3.828,10.25z M8.303,5.275C8.294,5.32,8.288,5.346,8.282,5.373C8.174,5.876,7.758,6.236,7.251,6.258
		C7.188,6.26,7.184,6.289,7.184,6.338C7.186,7.503,7.185,8.67,7.186,9.835c0,0.022,0.002,0.045,0.004,0.068c1.401,0,2.795,0,4.198,0
		c0-0.034,0-0.064,0-0.095c0-1.147,0-2.293,0-3.441c0-0.141-0.002-0.137-0.131-0.188c-0.334-0.135-0.555-0.375-0.662-0.721
		c-0.018-0.057-0.029-0.117-0.046-0.189c-0.141,0.615-0.495,0.987-1.13,0.984C8.795,6.253,8.446,5.883,8.303,5.275z M6.908,9.904
		c0-0.037,0-0.066,0-0.094c0-1.149,0-2.298,0-3.447c0-0.136-0.002-0.132-0.126-0.183c-0.355-0.145-0.583-0.4-0.678-0.772
		c-0.012-0.044-0.02-0.091-0.029-0.136C6.057,5.29,6.052,5.308,6.049,5.325C6.025,5.468,5.978,5.602,5.902,5.724
		c-0.145,0.232-0.349,0.394-0.61,0.479C5.239,6.219,5.225,6.247,5.225,6.3c0.001,1.174,0.001,2.347,0.001,3.52
		c0,0.025,0,0.056,0,0.085C5.791,9.904,6.345,9.904,6.908,9.904z"/>
	<path fill="#6D6E70" d="M3.828,4.584c0-0.005,0-0.01,0-0.015c0.02-0.031,0.042-0.063,0.059-0.096
		c0.115-0.23,0.229-0.461,0.343-0.69c0.225-0.45,0.452-0.897,0.673-1.349C4.937,2.367,4.972,2.35,5.042,2.35
		c1.685,0.002,3.37,0.002,5.057,0.002c0.5,0,1,0,1.502,0c0.039,0,0.067,0.001,0.09,0.046c0.279,0.563,0.563,1.125,0.844,1.687
		c0.082,0.163,0.16,0.327,0.246,0.5C9.791,4.584,6.81,4.584,3.828,4.584z M10.125,4.008c-0.013-0.027-0.03-0.075-0.056-0.122
		C9.952,3.669,9.833,3.451,9.714,3.236C9.642,3.104,9.571,2.972,9.496,2.843C9.451,2.768,9.381,2.75,9.313,2.785
		c-0.067,0.033-0.092,0.1-0.063,0.182c0.01,0.03,0.024,0.059,0.041,0.083C9.41,3.267,9.528,3.483,9.647,3.701
		c0.074,0.135,0.146,0.271,0.226,0.404C9.905,4.16,9.961,4.18,10.022,4.162C10.085,4.144,10.121,4.098,10.125,4.008z M7.325,2.926
		C7.326,2.844,7.283,2.79,7.22,2.773C7.153,2.756,7.09,2.79,7.053,2.863C6.898,3.171,6.744,3.479,6.59,3.788
		C6.557,3.856,6.521,3.924,6.496,3.995c-0.022,0.063,0.012,0.127,0.07,0.156c0.063,0.031,0.128,0.017,0.17-0.041
		C6.754,4.085,6.77,4.058,6.784,4.031C6.957,3.685,7.13,3.338,7.302,2.99C7.314,2.966,7.32,2.938,7.325,2.926z M6.207,2.918
		C6.199,2.839,6.168,2.79,6.102,2.773c-0.061-0.017-0.115,0.003-0.147,0.06C5.91,2.912,5.87,2.992,5.83,3.073
		C5.683,3.364,5.536,3.656,5.393,3.949C5.349,4.037,5.374,4.116,5.447,4.151c0.078,0.037,0.15,0.01,0.194-0.078
		c0.18-0.355,0.356-0.711,0.534-1.067C6.19,2.975,6.199,2.94,6.207,2.918z M11.244,4.012c-0.004-0.016-0.011-0.044-0.022-0.066
		c-0.127-0.255-0.252-0.509-0.38-0.762c-0.059-0.117-0.116-0.234-0.181-0.351c-0.037-0.064-0.107-0.083-0.174-0.052
		c-0.063,0.029-0.092,0.094-0.068,0.167c0.012,0.036,0.027,0.071,0.044,0.105c0.097,0.192,0.194,0.388,0.291,0.581
		c0.075,0.148,0.149,0.298,0.226,0.445c0.035,0.069,0.092,0.097,0.158,0.079C11.201,4.145,11.243,4.091,11.244,4.012z M8.45,3.461
		c0-0.122,0-0.244,0-0.363c0-0.062,0.002-0.12-0.001-0.181C8.443,2.828,8.384,2.768,8.306,2.769C8.228,2.77,8.171,2.83,8.164,2.919
		C8.163,2.929,8.163,2.939,8.163,2.948c0,0.346,0,0.692,0,1.038C8.165,4.013,8.166,4.043,8.176,4.07
		c0.021,0.063,0.068,0.098,0.135,0.096c0.063-0.002,0.108-0.038,0.127-0.098c0.009-0.029,0.01-0.063,0.011-0.091
		C8.45,3.805,8.449,3.633,8.45,3.461z"/>
	<path fill="#6D6E70" d="M11.454,1.508c0.072,0.04,0.145,0.078,0.184,0.16c0.082,0.173-0.037,0.382-0.228,0.396
		c-0.021,0.002-0.043,0.002-0.063,0.002c-2.027,0-4.053-0.001-6.079,0.001c-0.11,0-0.205-0.026-0.267-0.12
		c-0.102-0.15-0.048-0.335,0.116-0.415c0.014-0.007,0.028-0.016,0.042-0.023C7.257,1.508,9.356,1.508,11.454,1.508z"/>
	<path fill="#6D6E70" d="M3.828,10.25c0.042,0.104,0.112,0.174,0.215,0.215c-0.072,0-0.143,0-0.215,0
		C3.828,10.394,3.828,10.322,3.828,10.25z"/>
	<path fill="#6D6E70" d="M10.121,6.782c0.062,0.062,0.124,0.124,0.179,0.18C9.774,7.487,9.25,8.01,8.722,8.538
		C8.671,8.483,8.61,8.417,8.551,8.351C9.067,7.833,9.592,7.311,10.121,6.782z"/>
	<path fill="#6D6E70" d="M9.328,6.789C9.39,6.849,9.451,6.911,9.517,6.976C9.503,6.991,9.491,7.008,9.478,7.022
		C9.245,7.254,9.013,7.486,8.78,7.719C8.747,7.752,8.726,7.763,8.69,7.722C8.644,7.669,8.587,7.624,8.537,7.576
		C8.806,7.308,9.067,7.048,9.328,6.789z"/>
	<path fill="#6D6E70" d="M9.323,8.367c0.273-0.274,0.531-0.534,0.791-0.793c0.064,0.066,0.127,0.129,0.201,0.205
		c-0.101,0.094-0.198,0.188-0.297,0.285C9.87,8.21,9.72,8.357,9.575,8.508C9.533,8.552,9.511,8.546,9.474,8.506
		C9.429,8.457,9.376,8.416,9.323,8.367z"/>
	<path fill="#6D6E70" d="M6.35,8.781C6.23,8.782,6.132,8.718,6.091,8.614C6.047,8.501,6.077,8.388,6.166,8.301
		c0.023-0.021,0.042-0.063,0.042-0.097c0.004-0.171,0.004-0.343,0-0.514C6.207,7.655,6.187,7.612,6.161,7.588
		c-0.112-0.104-0.12-0.287-0.012-0.396c0.11-0.111,0.297-0.109,0.404,0.006c0.102,0.11,0.09,0.292-0.021,0.393
		C6.508,7.611,6.489,7.652,6.489,7.684c-0.004,0.176-0.004,0.353,0,0.527c0,0.031,0.019,0.068,0.042,0.089
		C6.612,8.38,6.645,8.496,6.608,8.602C6.568,8.712,6.471,8.78,6.35,8.781z"/>
</g>
</svg>
