<?xml version="1.0" encoding="utf-8"?>
<!-- Generator: Adobe Illustrator 16.0.0, SVG Export Plug-In . SVG Version: 6.00 Build 0)  -->
<!DOCTYPE svg PUBLIC "-//W3C//DTD SVG 1.1//EN" "http://www.w3.org/Graphics/SVG/1.1/DTD/svg11.dtd">
<svg version="1.1" id="Layer_1" xmlns="http://www.w3.org/2000/svg" xmlns:xlink="http://www.w3.org/1999/xlink" x="0px" y="0px"
	 width="16px" height="18.579px" viewBox="0 0 16 18.579" enable-background="new 0 0 16 18.579" xml:space="preserve">
<g>
	<path fill="#6D6E70" d="M11.547-0.033c-0.035,0.215-0.054,0.435-0.109,0.646c-0.353,1.308-0.863,2.54-1.746,3.591
		C9.359,4.598,8.977,4.93,8.499,5.172C8.431,4.966,8.468,4.847,8.643,4.739c0.533-0.333,0.922-0.813,1.254-1.336
		c0.668-1.06,1.113-2.212,1.375-3.436C11.363-0.033,11.455-0.033,11.547-0.033z"/>
	<path fill="#6D6E70" d="M7.79,11.019c-0.001-1.077,0.006-2.154-0.01-3.23C7.776,7.545,7.861,7.431,8.12,7.39
		c0,1.212,0,2.42,0,3.629C8.01,11.019,7.899,11.019,7.79,11.019z"/>
	<path fill="#6D6E70" d="M8.1,5.742c-0.524-0.01-1.046-0.019-1.569-0.027c-0.137-0.002-0.275,0-0.439,0c0-0.541,0-1.06,0-1.637
		C5.73,4.217,5.41,4.34,5.089,4.464C4.635,4.643,4.506,4.603,4.24,4.201C3.945,3.758,3.649,3.312,3.357,2.864
		c-0.181-0.28-0.149-0.553,0.077-0.706c0.241-0.164,0.496-0.09,0.696,0.21C4.345,2.689,4.568,3.005,4.765,3.34
		c0.108,0.183,0.217,0.203,0.396,0.112C5.351,3.36,5.56,3.306,5.75,3.218c0.534-0.249,1.083-0.391,1.68-0.344
		c0.104,0.007,0.261-0.087,0.32-0.18c0.47-0.727,0.921-1.465,1.38-2.197C9.327,0.186,9.572,0.1,9.814,0.257
		c0.238,0.151,0.271,0.424,0.084,0.726C9.354,1.857,8.802,2.73,8.265,3.608c-0.081,0.134-0.127,0.303-0.133,0.46
		c-0.026,0.56-0.026,1.12-0.036,1.679L8.1,5.742z"/>
	<path fill="#6D6E70" d="M8.096,5.747c0.355-0.171,0.706-0.355,1.067-0.511c0.278-0.117,0.589,0.036,0.674,0.35
		c0.192,0.7,0.368,1.405,0.532,2.112c0.063,0.269-0.141,0.536-0.411,0.601C9.691,8.361,9.414,8.21,9.331,7.929
		C9.229,7.586,9.152,7.236,9.063,6.888C9.043,6.809,9.02,6.73,8.997,6.643c-0.734,0.181-1.312,0.824-2.17,0.688
		c-0.035,0.071-0.081,0.155-0.12,0.246C6.33,8.444,5.954,9.314,5.574,10.181c-0.162,0.374-0.396,0.493-0.709,0.376
		c-0.333-0.126-0.513-0.506-0.369-0.84C4.998,8.543,5.51,7.371,6.032,6.204C6.065,6.128,6.209,6.06,6.305,6.059
		c0.597-0.012,1.194-0.006,1.819-0.006C8.115,5.931,8.108,5.836,8.101,5.742L8.096,5.747z"/>
	<path fill="#6D6E70" d="M6.973,1.085c0.438,0.004,0.81,0.375,0.811,0.814C7.787,2.346,7.396,2.728,6.95,2.716
		C6.507,2.703,6.146,2.328,6.155,1.889C6.163,1.447,6.537,1.082,6.973,1.085z"/>
</g>
<g>
	<path d="M3.379,14.333c-0.009,0.115-0.035,0.222-0.078,0.317c-0.044,0.099-0.104,0.181-0.182,0.25
		c-0.077,0.067-0.17,0.123-0.28,0.162c-0.11,0.039-0.235,0.06-0.376,0.06c-0.146,0-0.277-0.024-0.393-0.076
		c-0.117-0.051-0.215-0.123-0.295-0.219c-0.081-0.095-0.143-0.209-0.186-0.345c-0.043-0.135-0.065-0.287-0.065-0.453v-0.149
		c0-0.168,0.023-0.319,0.068-0.455c0.044-0.135,0.108-0.25,0.19-0.346c0.082-0.095,0.181-0.168,0.297-0.22
		c0.116-0.051,0.247-0.075,0.391-0.075c0.142,0,0.267,0.021,0.376,0.061c0.108,0.039,0.201,0.097,0.277,0.166
		c0.076,0.072,0.135,0.156,0.178,0.257c0.042,0.099,0.069,0.205,0.081,0.319H2.913c-0.005-0.067-0.017-0.127-0.035-0.18
		c-0.018-0.054-0.044-0.097-0.079-0.132c-0.034-0.034-0.079-0.063-0.133-0.08c-0.054-0.021-0.12-0.026-0.197-0.026
		c-0.158,0-0.276,0.058-0.354,0.172C2.037,13.456,2,13.633,2,13.875v0.152c0,0.117,0.009,0.223,0.026,0.311S2.07,14.5,2.107,14.561
		c0.037,0.059,0.084,0.104,0.144,0.133c0.059,0.029,0.13,0.045,0.213,0.045c0.074,0,0.138-0.01,0.191-0.025
		c0.054-0.018,0.099-0.043,0.134-0.074c0.036-0.033,0.064-0.076,0.084-0.129c0.02-0.051,0.032-0.109,0.038-0.178H3.379L3.379,14.333
		z"/>
	<path d="M4.134,15.09H3.681v-2.4h0.453V15.09z"/>
	<path d="M4.503,12.961c0-0.068,0.022-0.123,0.068-0.166c0.045-0.045,0.107-0.066,0.185-0.066c0.039,0,0.073,0.006,0.105,0.018
		c0.031,0.012,0.058,0.027,0.079,0.049c0.022,0.021,0.039,0.045,0.051,0.074c0.012,0.027,0.018,0.061,0.018,0.092
		c0,0.035-0.006,0.066-0.018,0.098c-0.012,0.025-0.029,0.053-0.051,0.072c-0.021,0.021-0.048,0.035-0.079,0.049
		c-0.032,0.012-0.066,0.02-0.105,0.02s-0.073-0.008-0.104-0.02c-0.031-0.014-0.058-0.027-0.08-0.049
		c-0.022-0.021-0.039-0.047-0.051-0.072C4.509,13.027,4.503,12.997,4.503,12.961z M4.982,15.09H4.529v-1.691h0.453V15.09z"/>
	<path d="M5.777,13.398l0.014,0.188c0.056-0.067,0.125-0.123,0.206-0.162s0.174-0.059,0.28-0.059c0.101,0,0.19,0.02,0.268,0.061
		s0.138,0.107,0.181,0.197c0.055-0.08,0.125-0.144,0.208-0.188c0.084-0.045,0.184-0.067,0.299-0.067
		c0.082,0,0.157,0.012,0.224,0.034c0.067,0.021,0.125,0.06,0.172,0.111c0.047,0.051,0.084,0.116,0.109,0.198
		c0.025,0.08,0.038,0.183,0.038,0.302v1.075H7.324v-1.075c0-0.058-0.006-0.104-0.018-0.142c-0.012-0.035-0.029-0.063-0.051-0.084
		c-0.022-0.021-0.049-0.035-0.08-0.043c-0.031-0.009-0.066-0.013-0.106-0.013c-0.07,0-0.129,0.019-0.175,0.054
		c-0.047,0.034-0.082,0.082-0.106,0.141c0,0.007,0,0.013,0.001,0.019c0,0.007,0.001,0.013,0.001,0.019v1.127H6.338v-1.073
		c0-0.058-0.006-0.103-0.017-0.14c-0.012-0.037-0.028-0.063-0.05-0.086c-0.022-0.021-0.049-0.035-0.081-0.043
		c-0.032-0.011-0.068-0.015-0.107-0.015c-0.067,0-0.123,0.015-0.169,0.043c-0.046,0.027-0.083,0.065-0.109,0.117v1.194H5.354v-1.69
		H5.777z"/>
	<path d="M9.648,14.26c0,0.127-0.016,0.242-0.041,0.348c-0.027,0.105-0.068,0.197-0.123,0.273c-0.055,0.074-0.123,0.135-0.205,0.176
		C9.197,15.1,9.102,15.122,8.99,15.122c-0.098,0-0.184-0.021-0.254-0.058c-0.071-0.037-0.133-0.088-0.187-0.153l-0.021,0.18H8.125
		v-2.399h0.452v0.86c0.05-0.059,0.108-0.104,0.176-0.135c0.067-0.033,0.146-0.049,0.235-0.049c0.109,0,0.207,0.021,0.289,0.063
		c0.084,0.043,0.152,0.103,0.207,0.178c0.056,0.076,0.097,0.166,0.123,0.271c0.026,0.105,0.041,0.223,0.041,0.348V14.26L9.648,14.26
		z M9.195,14.227c0-0.066-0.004-0.129-0.014-0.189c-0.011-0.06-0.025-0.113-0.052-0.156c-0.024-0.045-0.058-0.082-0.101-0.105
		s-0.096-0.039-0.158-0.039c-0.076,0-0.139,0.018-0.188,0.049c-0.047,0.027-0.084,0.072-0.109,0.131v0.666
		c0.025,0.057,0.063,0.1,0.109,0.131c0.049,0.031,0.111,0.047,0.189,0.047c0.063,0,0.115-0.012,0.156-0.037s0.074-0.059,0.1-0.104
		c0.023-0.043,0.041-0.098,0.051-0.156c0.01-0.063,0.014-0.127,0.014-0.199v-0.037H9.195z"/>
	<path d="M10.704,15.122c-0.131,0-0.249-0.021-0.353-0.063c-0.104-0.043-0.191-0.103-0.266-0.177
		c-0.07-0.073-0.127-0.159-0.166-0.26s-0.059-0.205-0.059-0.317v-0.063c0-0.128,0.021-0.244,0.058-0.353
		c0.037-0.109,0.089-0.199,0.158-0.275c0.067-0.077,0.149-0.139,0.249-0.182c0.097-0.043,0.207-0.063,0.326-0.063
		c0.121,0,0.229,0.021,0.322,0.062c0.092,0.038,0.17,0.096,0.232,0.168c0.063,0.071,0.109,0.159,0.143,0.262
		c0.031,0.104,0.047,0.218,0.047,0.343v0.19H10.32c0.008,0.056,0.021,0.104,0.045,0.149s0.051,0.082,0.086,0.115
		c0.033,0.03,0.074,0.057,0.123,0.073c0.046,0.019,0.1,0.024,0.156,0.024c0.082,0,0.158-0.017,0.229-0.045
		c0.069-0.03,0.129-0.078,0.181-0.144l0.223,0.248c-0.027,0.037-0.063,0.076-0.102,0.11c-0.041,0.037-0.09,0.07-0.146,0.099
		s-0.118,0.054-0.188,0.069C10.861,15.111,10.786,15.122,10.704,15.122z M10.652,13.732c-0.049,0-0.092,0.011-0.129,0.026
		c-0.037,0.017-0.069,0.041-0.097,0.07c-0.024,0.03-0.048,0.067-0.063,0.11c-0.018,0.043-0.029,0.09-0.036,0.144h0.628v-0.037
		c-0.001-0.045-0.008-0.086-0.02-0.125c-0.014-0.039-0.031-0.071-0.057-0.101c-0.023-0.026-0.056-0.051-0.094-0.065
		C10.748,13.741,10.704,13.732,10.652,13.732z"/>
	<path d="M12.605,13.823c-0.022-0.005-0.049-0.007-0.08-0.009c-0.031-0.004-0.06-0.004-0.082-0.004c-0.088,0-0.16,0.015-0.215,0.043
		c-0.057,0.03-0.097,0.073-0.123,0.129v1.106h-0.451v-1.69h0.428l0.012,0.201c0.043-0.072,0.096-0.13,0.158-0.17
		c0.063-0.041,0.135-0.063,0.219-0.063c0.024,0,0.049,0.002,0.076,0.006c0.026,0.004,0.049,0.01,0.064,0.018L12.605,13.823z"/>
	<path d="M13.738,14.624c0-0.024-0.004-0.047-0.014-0.065c-0.012-0.021-0.027-0.039-0.055-0.056
		c-0.025-0.019-0.063-0.035-0.105-0.051c-0.043-0.017-0.104-0.029-0.172-0.045c-0.086-0.019-0.168-0.041-0.24-0.07
		c-0.074-0.026-0.137-0.063-0.191-0.104c-0.054-0.043-0.095-0.092-0.125-0.146c-0.029-0.055-0.045-0.119-0.045-0.19
		s0.016-0.14,0.046-0.201c0.031-0.063,0.075-0.12,0.134-0.168c0.057-0.049,0.129-0.088,0.213-0.114
		c0.082-0.029,0.178-0.043,0.282-0.043c0.109,0,0.208,0.014,0.296,0.041c0.086,0.026,0.161,0.063,0.223,0.112
		c0.062,0.05,0.107,0.104,0.141,0.172c0.033,0.065,0.05,0.142,0.05,0.22h-0.45c0-0.063-0.021-0.117-0.063-0.16
		c-0.042-0.041-0.106-0.063-0.195-0.063c-0.075,0-0.135,0.019-0.176,0.052c-0.042,0.034-0.063,0.077-0.063,0.133
		c0,0.022,0.006,0.047,0.018,0.065c0.011,0.019,0.027,0.035,0.053,0.054c0.023,0.016,0.059,0.03,0.098,0.045
		c0.041,0.012,0.09,0.024,0.146,0.037c0.092,0.018,0.177,0.039,0.255,0.063c0.078,0.026,0.146,0.062,0.203,0.103
		s0.103,0.092,0.133,0.149c0.032,0.06,0.05,0.129,0.05,0.213c0,0.074-0.018,0.146-0.051,0.207c-0.031,0.063-0.081,0.117-0.145,0.164
		c-0.062,0.045-0.137,0.08-0.223,0.106c-0.088,0.024-0.187,0.039-0.293,0.039c-0.119,0-0.225-0.019-0.313-0.052
		c-0.091-0.032-0.169-0.075-0.229-0.131s-0.107-0.114-0.14-0.185c-0.031-0.065-0.047-0.135-0.047-0.203h0.428
		c0.002,0.043,0.013,0.08,0.029,0.113c0.017,0.03,0.038,0.058,0.067,0.076c0.027,0.02,0.062,0.034,0.098,0.045
		c0.037,0.008,0.076,0.014,0.117,0.014c0.086,0,0.151-0.018,0.195-0.049C13.716,14.719,13.738,14.676,13.738,14.624z"/>
</g>
</svg>
