<?xml version="1.0" encoding="utf-8"?>
<!-- Generator: Adobe Illustrator 16.0.0, SVG Export Plug-In . SVG Version: 6.00 Build 0)  -->
<!DOCTYPE svg PUBLIC "-//W3C//DTD SVG 1.1//EN" "http://www.w3.org/Graphics/SVG/1.1/DTD/svg11.dtd">
<svg version="1.1" id="Layer_1" xmlns="http://www.w3.org/2000/svg" xmlns:xlink="http://www.w3.org/1999/xlink" x="0px" y="0px"
	 width="16px" height="18.977px" viewBox="0 0 16 18.977" enable-background="new 0 0 16 18.977" xml:space="preserve">
<g>
	<g>
		<path d="M3.847,14.483c0-0.042-0.005-0.074-0.018-0.108c-0.012-0.031-0.034-0.063-0.067-0.09c-0.033-0.027-0.08-0.056-0.138-0.081
			c-0.059-0.024-0.134-0.054-0.226-0.084c-0.107-0.032-0.205-0.072-0.298-0.116c-0.094-0.038-0.176-0.088-0.246-0.146
			c-0.071-0.059-0.126-0.123-0.167-0.197c-0.04-0.078-0.061-0.163-0.061-0.265c0-0.097,0.022-0.183,0.063-0.27
			c0.042-0.076,0.101-0.146,0.176-0.201c0.074-0.057,0.165-0.101,0.269-0.129c0.102-0.03,0.218-0.048,0.343-0.048
			c0.127,0,0.245,0.02,0.348,0.055c0.105,0.033,0.195,0.086,0.268,0.147c0.074,0.064,0.13,0.139,0.172,0.224
			c0.041,0.087,0.06,0.186,0.06,0.286H3.85c0-0.048-0.008-0.092-0.023-0.132c-0.015-0.04-0.04-0.074-0.071-0.108
			c-0.033-0.028-0.073-0.052-0.12-0.068c-0.048-0.018-0.102-0.023-0.168-0.023c-0.062,0-0.117,0.01-0.163,0.023
			c-0.045,0.015-0.083,0.029-0.113,0.057c-0.03,0.023-0.053,0.053-0.068,0.084C3.106,13.324,3.1,13.358,3.1,13.396
			c0,0.075,0.039,0.14,0.116,0.188c0.079,0.053,0.192,0.101,0.343,0.143c0.125,0.04,0.236,0.084,0.332,0.13
			c0.095,0.049,0.174,0.104,0.239,0.161c0.064,0.064,0.112,0.13,0.145,0.207c0.033,0.073,0.049,0.161,0.049,0.255
			c0,0.103-0.02,0.189-0.059,0.269c-0.04,0.079-0.096,0.146-0.168,0.205c-0.074,0.051-0.161,0.094-0.264,0.124
			c-0.103,0.025-0.218,0.042-0.345,0.042c-0.076,0-0.152-0.009-0.228-0.021c-0.075-0.014-0.147-0.034-0.218-0.063
			c-0.07-0.029-0.134-0.063-0.192-0.104c-0.06-0.042-0.112-0.09-0.154-0.146c-0.046-0.06-0.08-0.122-0.105-0.19
			c-0.024-0.072-0.038-0.151-0.038-0.236H3.03c0,0.072,0.01,0.125,0.034,0.176c0.022,0.05,0.052,0.088,0.092,0.12
			c0.038,0.031,0.086,0.056,0.144,0.066c0.055,0.015,0.117,0.021,0.187,0.021c0.062,0,0.115-0.007,0.161-0.021
			c0.046-0.014,0.083-0.031,0.112-0.052c0.03-0.025,0.052-0.054,0.065-0.086C3.841,14.553,3.847,14.518,3.847,14.483z"/>
		<path d="M4.544,14.212c0-0.13,0.015-0.248,0.044-0.357c0.03-0.104,0.075-0.195,0.13-0.271c0.058-0.077,0.127-0.138,0.211-0.182
			c0.082-0.042,0.179-0.062,0.288-0.062c0.098,0,0.182,0.02,0.252,0.056c0.073,0.039,0.134,0.088,0.187,0.157l0.029-0.179h0.402
			v2.373H5.63V14.94C5.579,15,5.521,15.042,5.451,15.073c-0.067,0.029-0.145,0.046-0.235,0.046c-0.106,0-0.204-0.021-0.286-0.065
			c-0.082-0.046-0.153-0.104-0.21-0.183c-0.056-0.079-0.1-0.171-0.13-0.275c-0.03-0.106-0.044-0.222-0.044-0.347L4.544,14.212
			L4.544,14.212z M5.002,14.249c0,0.068,0.006,0.134,0.018,0.196c0.013,0.059,0.031,0.111,0.058,0.156
			c0.025,0.046,0.06,0.081,0.102,0.109c0.04,0.024,0.092,0.038,0.152,0.038c0.075,0,0.137-0.016,0.185-0.044
			c0.049-0.028,0.086-0.072,0.113-0.122v-0.707c-0.026-0.052-0.064-0.09-0.113-0.119c-0.048-0.028-0.109-0.046-0.182-0.046
			c-0.061,0-0.111,0.018-0.153,0.04c-0.042,0.025-0.075,0.062-0.103,0.105c-0.025,0.045-0.047,0.1-0.059,0.16
			c-0.012,0.063-0.019,0.124-0.019,0.198L5.002,14.249L5.002,14.249z"/>
		<path d="M7.476,14.915c-0.054,0.063-0.121,0.113-0.197,0.149c-0.078,0.036-0.168,0.055-0.272,0.055
			c-0.085,0-0.163-0.011-0.232-0.032c-0.069-0.023-0.131-0.063-0.18-0.115c-0.049-0.054-0.089-0.116-0.116-0.198
			c-0.029-0.079-0.042-0.177-0.042-0.29v-1.107h0.459v1.11c0,0.049,0.005,0.087,0.018,0.122c0.012,0.033,0.029,0.063,0.05,0.083
			c0.021,0.021,0.047,0.034,0.075,0.042c0.03,0.012,0.064,0.018,0.099,0.018c0.083,0,0.15-0.018,0.203-0.044
			c0.052-0.025,0.091-0.069,0.119-0.12v-1.211h0.46v1.715H7.488L7.476,14.915z"/>
		<path d="M9.258,15.087c-0.021-0.041-0.035-0.095-0.046-0.155c-0.048,0.053-0.104,0.095-0.177,0.133
			c-0.07,0.034-0.154,0.055-0.26,0.055c-0.08,0-0.158-0.017-0.229-0.037c-0.071-0.024-0.13-0.063-0.185-0.106
			C8.31,14.93,8.269,14.877,8.24,14.814c-0.029-0.064-0.044-0.133-0.044-0.209c0-0.089,0.017-0.171,0.05-0.237
			c0.033-0.071,0.083-0.13,0.149-0.18c0.066-0.047,0.146-0.083,0.246-0.107c0.101-0.024,0.215-0.04,0.346-0.04h0.203V13.94
			c0-0.078-0.021-0.143-0.06-0.188c-0.04-0.048-0.104-0.072-0.194-0.072c-0.076,0-0.136,0.021-0.18,0.056
			c-0.046,0.038-0.064,0.09-0.064,0.154H8.234c0-0.074,0.019-0.145,0.051-0.212c0.036-0.066,0.084-0.124,0.146-0.176
			c0.062-0.048,0.141-0.089,0.23-0.116c0.09-0.031,0.188-0.045,0.301-0.045c0.101,0,0.19,0.014,0.276,0.037
			c0.082,0.021,0.156,0.061,0.219,0.115c0.061,0.05,0.109,0.113,0.143,0.188c0.034,0.074,0.051,0.16,0.051,0.264v0.724
			c0,0.052,0.004,0.095,0.007,0.132c0.002,0.04,0.008,0.074,0.013,0.104c0.005,0.034,0.014,0.061,0.021,0.087
			c0.012,0.021,0.021,0.05,0.029,0.067v0.029H9.258L9.258,15.087z M8.881,14.768c0.038,0,0.073-0.002,0.105-0.015
			c0.035-0.01,0.065-0.021,0.093-0.035c0.026-0.019,0.048-0.035,0.069-0.055c0.021-0.021,0.031-0.04,0.047-0.063v-0.296H9.007
			c-0.062,0-0.114,0.006-0.157,0.021c-0.045,0.013-0.082,0.029-0.108,0.055c-0.029,0.025-0.05,0.053-0.063,0.085
			s-0.021,0.066-0.021,0.104c0,0.061,0.021,0.103,0.063,0.143C8.757,14.75,8.811,14.768,8.881,14.768z"/>
		<path d="M10.932,14.616c0-0.028-0.002-0.049-0.011-0.068c-0.012-0.021-0.028-0.04-0.056-0.058
			c-0.027-0.021-0.063-0.034-0.107-0.052c-0.047-0.017-0.104-0.028-0.176-0.046c-0.089-0.018-0.169-0.042-0.244-0.068
			c-0.07-0.029-0.14-0.067-0.193-0.107c-0.054-0.042-0.097-0.092-0.127-0.15c-0.029-0.054-0.045-0.121-0.045-0.19
			c0-0.073,0.016-0.143,0.045-0.206c0.03-0.065,0.076-0.121,0.135-0.171c0.06-0.052,0.133-0.09,0.219-0.116
			c0.084-0.029,0.18-0.045,0.287-0.045c0.109,0,0.212,0.016,0.3,0.042c0.09,0.027,0.166,0.064,0.226,0.116
			c0.062,0.049,0.108,0.104,0.143,0.171c0.033,0.068,0.049,0.144,0.049,0.224h-0.457c0-0.065-0.021-0.122-0.063-0.164
			c-0.043-0.042-0.109-0.063-0.197-0.063c-0.077,0-0.139,0.021-0.18,0.053c-0.045,0.033-0.063,0.077-0.063,0.134
			c0,0.024,0.004,0.046,0.016,0.069c0.01,0.017,0.028,0.031,0.053,0.054c0.024,0.019,0.06,0.028,0.1,0.046
			c0.041,0.012,0.092,0.024,0.148,0.034c0.095,0.021,0.181,0.04,0.259,0.066c0.079,0.026,0.149,0.063,0.208,0.104
			c0.06,0.04,0.104,0.094,0.136,0.155c0.031,0.059,0.048,0.128,0.048,0.214c0,0.076-0.017,0.148-0.05,0.211
			c-0.03,0.063-0.082,0.119-0.146,0.169c-0.063,0.042-0.14,0.08-0.226,0.109c-0.089,0.023-0.188,0.038-0.299,0.038
			c-0.121,0-0.226-0.021-0.317-0.053c-0.091-0.031-0.17-0.075-0.229-0.132c-0.063-0.057-0.111-0.118-0.144-0.186
			c-0.029-0.068-0.048-0.139-0.048-0.206h0.435c0,0.04,0.014,0.08,0.027,0.114c0.02,0.032,0.04,0.06,0.071,0.074
			c0.024,0.021,0.062,0.036,0.099,0.046c0.036,0.01,0.074,0.016,0.116,0.016c0.091,0,0.154-0.018,0.2-0.048
			C10.91,14.711,10.932,14.667,10.932,14.616z"/>
		<path d="M12.122,13.561c0.055-0.068,0.122-0.125,0.198-0.163s0.162-0.06,0.26-0.06c0.084,0,0.158,0.014,0.229,0.035
			c0.071,0.021,0.133,0.063,0.18,0.119c0.051,0.051,0.089,0.119,0.115,0.207c0.026,0.083,0.041,0.185,0.041,0.307v1.08h-0.457V14
			c0-0.056-0.004-0.101-0.021-0.136c-0.013-0.038-0.028-0.069-0.054-0.09c-0.022-0.024-0.053-0.039-0.088-0.051
			c-0.031-0.008-0.073-0.016-0.115-0.016c-0.071,0-0.133,0.016-0.182,0.042c-0.047,0.024-0.084,0.066-0.108,0.115v1.219h-0.46
			v-2.436h0.46L12.122,13.561L12.122,13.561z"/>
	</g>
	<path d="M3.096,17.157v0.811H2.622v-2.309h0.901c0.135,0,0.257,0.021,0.365,0.059c0.107,0.038,0.198,0.092,0.272,0.16
		c0.074,0.069,0.131,0.148,0.172,0.243c0.038,0.094,0.058,0.194,0.058,0.307c0,0.113-0.021,0.216-0.058,0.303
		c-0.04,0.088-0.097,0.168-0.172,0.229c-0.074,0.063-0.164,0.113-0.272,0.146c-0.108,0.032-0.229,0.053-0.365,0.053L3.096,17.157
		L3.096,17.157z M3.096,16.77h0.427c0.065,0,0.124-0.009,0.174-0.023c0.049-0.019,0.088-0.042,0.121-0.07
		c0.03-0.03,0.054-0.065,0.07-0.107c0.014-0.042,0.021-0.088,0.021-0.139s-0.008-0.099-0.021-0.145
		c-0.016-0.044-0.039-0.084-0.07-0.122c-0.032-0.035-0.071-0.065-0.121-0.084c-0.05-0.021-0.108-0.029-0.174-0.029H3.096V16.77z"/>
	<path d="M5.166,17.967H4.707v-2.434h0.459V17.967z"/>
	<path d="M6.538,17.967c-0.021-0.041-0.038-0.092-0.046-0.151c-0.047,0.052-0.106,0.097-0.176,0.13C6.246,17.981,6.161,18,6.06,18
		c-0.083,0-0.16-0.013-0.231-0.038c-0.072-0.025-0.133-0.063-0.186-0.104c-0.051-0.043-0.092-0.101-0.122-0.162
		c-0.029-0.063-0.044-0.131-0.044-0.205c0-0.091,0.018-0.173,0.049-0.239c0.035-0.072,0.083-0.132,0.15-0.178
		c0.067-0.05,0.15-0.087,0.248-0.111c0.1-0.024,0.214-0.038,0.345-0.038h0.205v-0.099c0-0.078-0.021-0.143-0.062-0.188
		s-0.104-0.069-0.192-0.069c-0.077,0-0.138,0.018-0.182,0.055c-0.044,0.034-0.064,0.084-0.064,0.151h-0.46
		c0-0.075,0.019-0.144,0.052-0.215c0.035-0.065,0.083-0.123,0.146-0.175c0.063-0.048,0.14-0.086,0.23-0.117
		c0.091-0.029,0.191-0.042,0.301-0.042c0.1,0,0.192,0.013,0.277,0.037c0.083,0.024,0.156,0.063,0.219,0.112
		c0.061,0.052,0.109,0.113,0.143,0.189c0.034,0.072,0.051,0.164,0.051,0.264v0.729c0,0.046,0.002,0.09,0.005,0.13
		c0.002,0.034,0.007,0.072,0.013,0.105c0.005,0.025,0.013,0.059,0.021,0.08c0.009,0.022,0.019,0.048,0.031,0.07v0.024L6.538,17.967
		L6.538,17.967z M6.158,17.65c0.04,0,0.076-0.004,0.108-0.014c0.033-0.013,0.063-0.024,0.089-0.038
		c0.026-0.016,0.05-0.033,0.069-0.052c0.021-0.021,0.036-0.042,0.047-0.065v-0.292H6.284c-0.061,0-0.113,0.006-0.157,0.021
		c-0.045,0.015-0.081,0.03-0.11,0.057c-0.029,0.023-0.05,0.054-0.064,0.084c-0.015,0.03-0.021,0.068-0.021,0.104
		c0,0.06,0.02,0.104,0.061,0.14C6.035,17.632,6.089,17.65,6.158,17.65z"/>
	<path d="M7.924,17.321l0.316-1.065h0.49l-0.686,1.973c-0.016,0.044-0.037,0.09-0.061,0.143c-0.024,0.051-0.06,0.1-0.102,0.142
		c-0.041,0.043-0.095,0.081-0.157,0.108c-0.062,0.029-0.139,0.046-0.229,0.046c-0.021,0-0.042-0.002-0.057-0.002
		c-0.019-0.004-0.034-0.006-0.05-0.008c-0.017-0.003-0.031-0.007-0.048-0.011c-0.017-0.004-0.031-0.009-0.049-0.012v-0.352
		c0.011,0,0.024,0.004,0.035,0.004c0.013,0,0.024,0,0.034,0c0.045,0,0.084-0.004,0.117-0.012c0.032-0.006,0.06-0.02,0.083-0.032
		c0.023-0.014,0.042-0.032,0.059-0.058c0.017-0.024,0.03-0.052,0.042-0.083l0.048-0.128l-0.6-1.72h0.492L7.924,17.321z"/>
	<path d="M9.703,18.001c-0.135,0-0.253-0.022-0.357-0.065c-0.104-0.041-0.193-0.102-0.268-0.178
		c-0.073-0.074-0.127-0.164-0.167-0.264c-0.041-0.103-0.06-0.211-0.06-0.324v-0.063c0-0.13,0.021-0.249,0.057-0.358
		c0.037-0.106,0.093-0.2,0.16-0.276c0.07-0.077,0.152-0.141,0.252-0.183c0.102-0.044,0.209-0.067,0.33-0.067
		c0.127,0,0.234,0.021,0.328,0.063c0.095,0.038,0.176,0.098,0.234,0.17c0.064,0.075,0.115,0.165,0.146,0.266
		c0.031,0.104,0.049,0.22,0.049,0.347v0.194H9.313c0.01,0.058,0.022,0.109,0.047,0.151c0.021,0.046,0.053,0.084,0.088,0.117
		s0.076,0.061,0.126,0.073c0.047,0.021,0.1,0.026,0.159,0.026c0.08,0,0.158-0.019,0.229-0.048c0.07-0.028,0.132-0.078,0.183-0.145
		l0.225,0.253c-0.026,0.038-0.063,0.074-0.104,0.116c-0.037,0.034-0.086,0.067-0.143,0.099c-0.059,0.028-0.12,0.052-0.191,0.067
		C9.863,17.991,9.785,18.001,9.703,18.001z M9.648,16.593c-0.049,0-0.094,0.01-0.129,0.026c-0.039,0.019-0.069,0.042-0.097,0.071
		c-0.026,0.031-0.05,0.068-0.067,0.111c-0.017,0.044-0.027,0.091-0.035,0.146h0.635V16.91c0-0.042-0.008-0.086-0.02-0.122
		c-0.014-0.04-0.031-0.073-0.056-0.104c-0.022-0.023-0.056-0.051-0.098-0.065C9.749,16.601,9.703,16.593,9.648,16.593z"/>
	<path d="M11.631,16.682c-0.023,0-0.051-0.006-0.083-0.008c-0.03-0.002-0.058-0.005-0.083-0.005c-0.09,0-0.162,0.019-0.22,0.046
		c-0.056,0.028-0.097,0.072-0.12,0.131v1.121h-0.46v-1.713H11.1l0.012,0.204c0.045-0.072,0.097-0.134,0.158-0.174
		c0.065-0.04,0.142-0.063,0.226-0.063c0.022,0,0.048,0.002,0.075,0.007c0.025,0.006,0.049,0.008,0.066,0.016L11.631,16.682z"/>
	<path d="M12.779,17.495c0-0.022-0.004-0.046-0.016-0.066c-0.009-0.021-0.027-0.039-0.054-0.057
		c-0.026-0.021-0.063-0.031-0.106-0.049c-0.045-0.021-0.104-0.03-0.178-0.047c-0.086-0.021-0.167-0.044-0.242-0.07
		c-0.072-0.03-0.138-0.068-0.192-0.108c-0.056-0.04-0.099-0.092-0.128-0.146c-0.029-0.061-0.047-0.124-0.047-0.195
		c0-0.077,0.016-0.141,0.047-0.206c0.031-0.063,0.076-0.121,0.136-0.172c0.058-0.05,0.131-0.086,0.218-0.118
		c0.082-0.028,0.18-0.041,0.285-0.041c0.113,0,0.214,0.013,0.303,0.041c0.086,0.024,0.163,0.064,0.225,0.112
		c0.063,0.053,0.109,0.109,0.142,0.178c0.035,0.065,0.054,0.142,0.054,0.222h-0.461c0-0.065-0.021-0.122-0.063-0.162
		c-0.042-0.044-0.105-0.066-0.196-0.066c-0.075,0-0.138,0.02-0.18,0.055c-0.044,0.031-0.065,0.077-0.065,0.129
		c0,0.025,0.01,0.048,0.02,0.07c0.013,0.021,0.027,0.037,0.056,0.053c0.024,0.02,0.06,0.033,0.099,0.047
		c0.039,0.015,0.09,0.023,0.148,0.037c0.092,0.021,0.182,0.042,0.259,0.067c0.078,0.023,0.147,0.061,0.208,0.103
		c0.057,0.044,0.102,0.093,0.135,0.15c0.029,0.062,0.049,0.134,0.049,0.219c0,0.076-0.02,0.146-0.051,0.212
		c-0.033,0.063-0.082,0.12-0.146,0.164c-0.063,0.048-0.141,0.084-0.225,0.111c-0.09,0.023-0.188,0.036-0.299,0.036
		c-0.121,0-0.228-0.015-0.318-0.049c-0.088-0.031-0.172-0.077-0.229-0.134c-0.063-0.052-0.11-0.113-0.146-0.184
		c-0.028-0.07-0.043-0.138-0.043-0.208h0.433c0.002,0.044,0.011,0.079,0.026,0.116c0.021,0.029,0.041,0.062,0.07,0.076
		c0.027,0.021,0.063,0.033,0.1,0.045c0.037,0.011,0.078,0.015,0.117,0.015c0.09,0,0.154-0.018,0.199-0.05
		C12.758,17.59,12.779,17.55,12.779,17.495z"/>
</g>
<g>
	<path fill="#6D6E70" stroke="#FFFFFF" stroke-width="0.1" stroke-miterlimit="10" d="M3.506,0C4.139,0.223,4.36,0.746,4.485,1.34
		c0.059,0.285,0.086,0.587,0.201,0.85c0.116,0.268,0.318,0.5,0.493,0.739c0.034,0.046,0.128,0.073,0.194,0.072
		c0.32-0.012,0.519,0.142,0.636,0.428c0.063,0.147,0.133,0.29,0.203,0.44c0.756-0.741,1.689-1.204,2.524-1.803
		C9.12,1.792,9.49,1.5,9.871,1.222c0.322-0.236,0.671-0.199,0.884,0.082c0.206,0.277,0.134,0.628-0.185,0.869
		c-0.442,0.333-0.883,0.668-1.327,0.993C9.131,3.249,9.111,3.318,9.156,3.449c0.191,0.542,0.369,1.092,0.561,1.633
		c0.032,0.095,0.1,0.188,0.17,0.257c0.488,0.479,0.979,0.955,1.475,1.426c0.182,0.172,0.281,0.37,0.281,0.623
		c0,0.829,0.004,1.66-0.002,2.49c-0.002,0.367-0.168,0.584-0.48,0.684c-0.264,0.084-0.559,0.011-0.715-0.229
		c-0.088-0.135-0.145-0.313-0.147-0.474c-0.017-0.675-0.013-1.349-0.004-2.023c0.004-0.159-0.056-0.269-0.16-0.381
		C9.828,7.14,9.541,6.807,9.248,6.481C9.21,6.504,9.174,6.527,9.137,6.549C9.102,6.846,9.063,7.145,9.029,7.444
		c-0.031,0.26-0.037,0.524-0.096,0.775C8.891,8.4,8.816,8.599,8.693,8.731c-0.625,0.677-1.262,1.334-1.908,1.991
		c-0.108,0.109-0.264,0.18-0.397,0.266c-0.099,0-0.195,0-0.292,0c-0.159-0.151-0.372-0.274-0.464-0.461
		c-0.134-0.27-0.018-0.53,0.194-0.75C6.38,9.204,6.934,8.631,7.478,8.05c0.086-0.092,0.149-0.234,0.166-0.36
		c0.074-0.547,0.13-1.097,0.188-1.646c0.008-0.07,0.004-0.147-0.014-0.215C7.697,5.365,7.572,4.904,7.439,4.411
		C7.372,4.463,7.315,4.499,7.265,4.543C6.979,4.797,6.7,5.059,6.409,5.305C6.077,5.584,5.655,5.5,5.47,5.115
		C5.266,4.691,5.071,4.263,4.902,3.823C4.85,3.686,4.9,3.51,4.897,3.352C4.896,3.24,4.918,3.115,4.873,3.023
		C4.73,2.741,4.514,2.525,4.228,2.379c-0.34-0.17-0.686-0.333-1.01-0.536C3.037,1.731,2.87,1.573,2.741,1.399
		C2.349,0.879,2.55,0.307,3.214,0C3.312,0,3.409,0,3.506,0z"/>
	<path fill="#6D6E70" stroke="#FFFFFF" stroke-width="0.1" stroke-miterlimit="10" d="M7.241,2.502
		C6.585,2.508,6.077,2.01,6.071,1.359c-0.006-0.647,0.5-1.166,1.146-1.17S8.383,0.693,8.39,1.336
		C8.398,1.981,7.886,2.499,7.241,2.502z"/>
</g>
</svg>
