<?xml version="1.0" encoding="utf-8"?>
<!-- Generator: Adobe Illustrator 16.0.0, SVG Export Plug-In . SVG Version: 6.00 Build 0)  -->
<!DOCTYPE svg PUBLIC "-//W3C//DTD SVG 1.1//EN" "http://www.w3.org/Graphics/SVG/1.1/DTD/svg11.dtd">
<svg version="1.1" id="Layer_1" xmlns="http://www.w3.org/2000/svg" xmlns:xlink="http://www.w3.org/1999/xlink" x="0px" y="0px"
	 width="16px" height="18.832px" viewBox="0 0 16 18.832" enable-background="new 0 0 16 18.832" xml:space="preserve">
<g>
	<path d="M4.829,13.25H4.127v1.91h-0.47v-1.91H2.965v-0.38h1.863L4.829,13.25L4.829,13.25z"/>
	<path d="M5.852,15.191c-0.132,0-0.251-0.021-0.355-0.063c-0.104-0.045-0.193-0.104-0.265-0.179
		c-0.072-0.074-0.129-0.163-0.167-0.263c-0.038-0.103-0.057-0.205-0.057-0.319v-0.063c0-0.127,0.019-0.244,0.056-0.354
		c0.037-0.11,0.09-0.201,0.159-0.275c0.069-0.08,0.151-0.144,0.25-0.186c0.097-0.042,0.208-0.064,0.328-0.064
		c0.123,0,0.231,0.021,0.324,0.063c0.092,0.039,0.17,0.099,0.234,0.171c0.064,0.069,0.111,0.159,0.144,0.262
		c0.031,0.104,0.048,0.22,0.048,0.345v0.191H5.467c0.006,0.057,0.021,0.105,0.045,0.15c0.023,0.043,0.052,0.082,0.086,0.113
		c0.036,0.033,0.076,0.062,0.123,0.074c0.047,0.02,0.099,0.023,0.16,0.023c0.083,0,0.158-0.017,0.229-0.045
		c0.07-0.031,0.129-0.078,0.18-0.144l0.224,0.248c-0.027,0.038-0.061,0.077-0.104,0.113c-0.041,0.038-0.089,0.071-0.144,0.1
		c-0.056,0.028-0.119,0.054-0.188,0.069C6.01,15.184,5.934,15.191,5.852,15.191z M5.8,13.795c-0.05,0-0.093,0.012-0.13,0.027
		c-0.037,0.015-0.069,0.041-0.097,0.068c-0.025,0.03-0.048,0.069-0.065,0.112c-0.017,0.043-0.029,0.09-0.035,0.144h0.631v-0.035
		c-0.001-0.045-0.009-0.086-0.02-0.125c-0.013-0.041-0.03-0.073-0.056-0.101c-0.024-0.026-0.055-0.055-0.093-0.069
		C5.897,13.803,5.852,13.795,5.8,13.795z"/>
	<path d="M7.228,13.461l0.013,0.195c0.058-0.074,0.129-0.131,0.21-0.168c0.083-0.043,0.175-0.063,0.277-0.063
		c0.082,0,0.155,0.015,0.221,0.033c0.066,0.024,0.123,0.062,0.169,0.112c0.046,0.05,0.082,0.117,0.109,0.197
		c0.025,0.082,0.04,0.188,0.04,0.307v1.083H7.813V14.07c0-0.055-0.007-0.098-0.021-0.133c-0.012-0.035-0.029-0.065-0.052-0.086
		c-0.021-0.021-0.05-0.037-0.085-0.043c-0.033-0.014-0.073-0.018-0.117-0.018c-0.067,0-0.125,0.018-0.172,0.047
		c-0.047,0.025-0.085,0.067-0.114,0.118v1.198H6.798v-1.7L7.228,13.461L7.228,13.461z"/>
	<path d="M9.027,13.461l0.018,0.195c0.059-0.074,0.129-0.131,0.212-0.168c0.082-0.043,0.175-0.063,0.275-0.063
		c0.079,0,0.153,0.015,0.221,0.033c0.065,0.024,0.122,0.062,0.169,0.112c0.049,0.05,0.084,0.117,0.105,0.197
		c0.029,0.082,0.041,0.188,0.041,0.307v1.083H9.613V14.07c0-0.055-0.006-0.098-0.018-0.133c-0.014-0.035-0.029-0.065-0.056-0.086
		c-0.021-0.021-0.054-0.037-0.084-0.043c-0.032-0.012-0.073-0.016-0.117-0.016c-0.063,0-0.123,0.018-0.17,0.047
		c-0.049,0.023-0.087,0.065-0.114,0.116v1.199H8.6v-1.701h0.428V13.461L9.027,13.461z"/>
	<path d="M10.409,13.021c0-0.069,0.022-0.123,0.069-0.17c0.045-0.045,0.105-0.064,0.187-0.064c0.037,0,0.071,0.007,0.104,0.021
		c0.03,0.01,0.061,0.022,0.082,0.047c0.021,0.021,0.037,0.047,0.049,0.071c0.014,0.027,0.021,0.063,0.021,0.097
		s-0.007,0.063-0.021,0.096c-0.012,0.027-0.026,0.055-0.049,0.074c-0.023,0.019-0.052,0.035-0.082,0.048
		c-0.029,0.011-0.065,0.017-0.104,0.017s-0.072-0.006-0.106-0.017c-0.029-0.013-0.059-0.028-0.078-0.048
		c-0.021-0.021-0.039-0.047-0.053-0.074C10.416,13.083,10.409,13.057,10.409,13.021z M10.893,15.159h-0.457v-1.701h0.455
		L10.893,15.159L10.893,15.159z"/>
	<path d="M12.188,14.691c0-0.025-0.004-0.049-0.014-0.067c-0.009-0.021-0.025-0.038-0.053-0.058
		c-0.028-0.019-0.063-0.031-0.105-0.049c-0.047-0.017-0.104-0.027-0.176-0.045c-0.087-0.021-0.167-0.043-0.24-0.072
		c-0.074-0.024-0.14-0.063-0.191-0.104c-0.055-0.043-0.098-0.094-0.129-0.146c-0.028-0.057-0.043-0.119-0.043-0.192
		c0-0.069,0.015-0.14,0.043-0.203c0.031-0.063,0.076-0.119,0.135-0.166c0.063-0.052,0.131-0.09,0.218-0.116
		c0.082-0.029,0.179-0.043,0.284-0.043c0.107,0,0.208,0.014,0.295,0.04c0.088,0.026,0.162,0.064,0.225,0.114
		c0.063,0.05,0.106,0.104,0.144,0.171c0.03,0.067,0.05,0.146,0.05,0.224h-0.454c0-0.066-0.021-0.121-0.063-0.162
		c-0.041-0.041-0.108-0.066-0.197-0.066c-0.077,0-0.139,0.018-0.18,0.051c-0.041,0.034-0.063,0.077-0.063,0.135
		c0,0.024,0.005,0.047,0.016,0.064c0.015,0.02,0.028,0.034,0.057,0.055c0.021,0.018,0.056,0.029,0.096,0.045
		c0.04,0.014,0.09,0.025,0.148,0.037c0.094,0.02,0.178,0.039,0.257,0.064c0.078,0.027,0.146,0.063,0.203,0.104
		s0.103,0.094,0.134,0.15c0.034,0.059,0.048,0.129,0.048,0.214c0,0.075-0.019,0.146-0.048,0.21c-0.034,0.063-0.08,0.116-0.146,0.164
		c-0.063,0.045-0.139,0.082-0.228,0.107c-0.086,0.024-0.187,0.037-0.294,0.037c-0.12,0-0.227-0.019-0.316-0.049
		c-0.09-0.035-0.168-0.074-0.229-0.134c-0.063-0.054-0.106-0.114-0.142-0.187c-0.031-0.063-0.047-0.135-0.047-0.201h0.43
		c0.002,0.041,0.013,0.078,0.029,0.111c0.019,0.031,0.038,0.06,0.066,0.076c0.027,0.021,0.063,0.033,0.1,0.047
		c0.036,0.008,0.076,0.014,0.116,0.014c0.088,0,0.154-0.02,0.197-0.049C12.167,14.788,12.188,14.745,12.188,14.691z"/>
	<path d="M3.081,17.25v0.807H2.61v-2.291h0.894c0.134,0,0.257,0.021,0.363,0.06c0.107,0.036,0.196,0.091,0.27,0.157
		c0.074,0.068,0.131,0.148,0.169,0.24c0.039,0.092,0.058,0.193,0.058,0.303c0,0.111-0.02,0.215-0.058,0.302
		c-0.038,0.086-0.095,0.165-0.169,0.229c-0.073,0.063-0.164,0.11-0.27,0.146c-0.106,0.03-0.228,0.05-0.363,0.05L3.081,17.25
		L3.081,17.25z M3.081,16.867h0.42c0.067,0,0.125-0.008,0.174-0.023c0.048-0.019,0.087-0.041,0.12-0.068
		c0.031-0.029,0.053-0.063,0.07-0.107c0.014-0.04,0.02-0.086,0.02-0.137c0-0.049-0.006-0.1-0.02-0.146
		c-0.017-0.043-0.038-0.082-0.07-0.119c-0.032-0.033-0.072-0.063-0.12-0.084c-0.049-0.021-0.107-0.029-0.174-0.029h-0.42V16.867z"/>
	<path d="M5.134,18.057H4.678v-2.414h0.457L5.134,18.057L5.134,18.057z"/>
	<path d="M6.495,18.057c-0.021-0.041-0.037-0.092-0.046-0.15c-0.044,0.053-0.103,0.097-0.172,0.132
		c-0.069,0.034-0.155,0.053-0.256,0.053c-0.082,0-0.158-0.013-0.228-0.036C5.72,18.029,5.66,17.99,5.609,17.948
		c-0.053-0.046-0.094-0.099-0.122-0.163c-0.029-0.063-0.044-0.128-0.044-0.204c0-0.089,0.017-0.17,0.048-0.237
		c0.033-0.066,0.083-0.127,0.149-0.174c0.066-0.048,0.147-0.084,0.246-0.107c0.098-0.024,0.212-0.041,0.342-0.041h0.204v-0.098
		c0-0.08-0.022-0.145-0.062-0.189c-0.042-0.047-0.104-0.069-0.192-0.069c-0.075,0-0.135,0.021-0.179,0.055
		c-0.043,0.037-0.064,0.087-0.064,0.15H5.479c0-0.072,0.017-0.146,0.051-0.21c0.036-0.065,0.083-0.121,0.145-0.174
		c0.063-0.047,0.139-0.086,0.229-0.114c0.09-0.027,0.19-0.042,0.298-0.042c0.098,0,0.19,0.013,0.274,0.036
		c0.084,0.022,0.157,0.063,0.216,0.11c0.063,0.049,0.109,0.111,0.143,0.188c0.035,0.074,0.05,0.162,0.05,0.265v0.719
		c0,0.047,0.002,0.092,0.005,0.131c0.003,0.035,0.006,0.072,0.013,0.104c0.005,0.027,0.011,0.061,0.021,0.084
		c0.008,0.021,0.019,0.045,0.028,0.069v0.022L6.495,18.057L6.495,18.057z M6.119,17.74c0.038,0,0.074-0.006,0.107-0.016
		c0.033-0.011,0.063-0.021,0.089-0.037c0.026-0.015,0.048-0.029,0.068-0.049c0.02-0.021,0.035-0.046,0.047-0.065v-0.289H6.244
		c-0.061,0-0.112,0.005-0.157,0.019c-0.043,0.014-0.081,0.033-0.107,0.059c-0.029,0.021-0.049,0.052-0.064,0.082
		c-0.014,0.031-0.02,0.066-0.02,0.104c0,0.057,0.019,0.104,0.061,0.141C5.996,17.721,6.05,17.74,6.119,17.74z"/>
	<path d="M7.87,17.415l0.315-1.058h0.487l-0.681,1.955c-0.015,0.043-0.033,0.09-0.061,0.143c-0.023,0.049-0.059,0.098-0.1,0.141
		c-0.042,0.041-0.094,0.078-0.155,0.107c-0.062,0.027-0.139,0.044-0.229,0.044c-0.021,0-0.041-0.002-0.057-0.002
		c-0.017-0.002-0.034-0.005-0.051-0.007c-0.013-0.002-0.029-0.008-0.045-0.012c-0.016-0.002-0.032-0.009-0.049-0.011v-0.349
		c0.012,0,0.023,0.002,0.036,0.002c0.012,0,0.023,0,0.033,0c0.046,0,0.083-0.002,0.115-0.01c0.032-0.008,0.061-0.021,0.083-0.033
		c0.021-0.016,0.042-0.032,0.059-0.057c0.017-0.026,0.029-0.053,0.042-0.082l0.047-0.129l-0.596-1.703h0.489L7.87,17.415z"/>
	<path d="M9.632,18.088c-0.131,0-0.25-0.021-0.354-0.063c-0.104-0.043-0.191-0.103-0.266-0.176
		c-0.072-0.074-0.131-0.164-0.166-0.263c-0.039-0.103-0.06-0.209-0.06-0.321v-0.063c0-0.13,0.021-0.246,0.058-0.354
		c0.035-0.107,0.092-0.199,0.159-0.277c0.069-0.074,0.149-0.137,0.25-0.182c0.099-0.041,0.206-0.063,0.329-0.063
		c0.121,0,0.23,0.021,0.322,0.063c0.094,0.036,0.172,0.096,0.236,0.166c0.063,0.073,0.109,0.163,0.143,0.264
		c0.031,0.104,0.052,0.22,0.052,0.344v0.195H9.249c0.01,0.055,0.022,0.104,0.045,0.147c0.022,0.045,0.054,0.084,0.088,0.115
		c0.036,0.032,0.076,0.06,0.124,0.073c0.045,0.021,0.1,0.025,0.157,0.025c0.085,0,0.159-0.017,0.229-0.047
		c0.068-0.029,0.129-0.08,0.182-0.145l0.224,0.25c-0.026,0.037-0.063,0.076-0.104,0.113c-0.039,0.036-0.088,0.067-0.146,0.1
		c-0.054,0.027-0.116,0.051-0.188,0.066C9.792,18.08,9.716,18.088,9.632,18.088z M9.581,16.693c-0.052,0-0.093,0.01-0.132,0.024
		c-0.034,0.019-0.067,0.041-0.094,0.072c-0.026,0.028-0.051,0.065-0.066,0.11c-0.018,0.043-0.027,0.089-0.035,0.144h0.633v-0.037
		c-0.003-0.041-0.01-0.086-0.021-0.123c-0.015-0.039-0.031-0.073-0.056-0.104c-0.022-0.027-0.061-0.052-0.097-0.064
		C9.68,16.7,9.633,16.693,9.581,16.693z"/>
	<path d="M11.547,16.781c-0.023,0-0.052-0.008-0.082-0.01c-0.031-0.002-0.058-0.004-0.081-0.004c-0.091,0-0.161,0.018-0.217,0.045
		c-0.056,0.028-0.097,0.073-0.12,0.131v1.113h-0.456v-1.701h0.429l0.014,0.201c0.043-0.072,0.097-0.132,0.158-0.171
		c0.063-0.041,0.137-0.063,0.221-0.063c0.021,0,0.048,0.002,0.074,0.007c0.025,0.005,0.048,0.007,0.064,0.015L11.547,16.781z"/>
	<path d="M12.686,17.588c0-0.023-0.006-0.045-0.014-0.064c-0.01-0.021-0.027-0.039-0.055-0.059c-0.026-0.018-0.063-0.031-0.107-0.05
		s-0.102-0.03-0.175-0.044c-0.085-0.021-0.167-0.043-0.241-0.072c-0.072-0.027-0.138-0.064-0.191-0.105
		c-0.055-0.041-0.098-0.09-0.127-0.145c-0.027-0.059-0.047-0.121-0.047-0.193s0.019-0.141,0.047-0.205
		c0.029-0.063,0.074-0.116,0.136-0.166c0.057-0.053,0.13-0.088,0.213-0.118c0.084-0.027,0.183-0.04,0.286-0.04
		c0.107,0,0.209,0.013,0.295,0.039c0.089,0.025,0.163,0.064,0.225,0.111c0.063,0.053,0.108,0.109,0.146,0.176
		c0.032,0.066,0.051,0.142,0.051,0.222H12.67c0-0.065-0.021-0.121-0.064-0.16c-0.041-0.046-0.104-0.065-0.195-0.065
		c-0.075,0-0.137,0.021-0.178,0.056c-0.045,0.03-0.063,0.075-0.063,0.129c0,0.026,0.007,0.05,0.02,0.067
		c0.01,0.021,0.025,0.035,0.055,0.054c0.021,0.019,0.057,0.03,0.097,0.044s0.089,0.025,0.149,0.039
		c0.093,0.018,0.178,0.041,0.256,0.064c0.076,0.023,0.146,0.06,0.203,0.104c0.059,0.042,0.103,0.089,0.135,0.148
		c0.031,0.063,0.049,0.133,0.049,0.217c0,0.074-0.018,0.146-0.049,0.209c-0.034,0.063-0.082,0.117-0.146,0.162
		c-0.063,0.049-0.138,0.086-0.226,0.106c-0.089,0.027-0.187,0.039-0.294,0.039c-0.119,0-0.227-0.014-0.316-0.048
		c-0.09-0.032-0.17-0.077-0.229-0.135c-0.063-0.053-0.107-0.112-0.145-0.184c-0.028-0.068-0.045-0.138-0.045-0.207h0.433
		c0.002,0.043,0.011,0.082,0.026,0.117c0.021,0.028,0.039,0.059,0.067,0.075c0.026,0.021,0.062,0.033,0.099,0.044
		c0.037,0.01,0.075,0.014,0.117,0.014c0.086,0,0.152-0.016,0.196-0.049S12.686,17.641,12.686,17.588z"/>
</g>
<g>
	<path fill="#6D6E70" d="M2.398,1.021c0.158-0.504,0.447-0.869,1.018-0.898C4.22,0.083,4.901,0.765,4.904,1.59
		c0.001,0.313,0.017,0.627,0.04,0.94c0.008,0.112,0.047,0.227,0.091,0.334C5.129,3.102,5.208,3.29,5.548,3.351
		c0.53,0.094,1.036,0.328,1.551,0.511c0.04,0.014,0.077,0.073,0.092,0.119c0.052,0.164,0.094,0.331,0.153,0.551
		c-0.143,0-0.265,0.024-0.372-0.006c-0.23-0.062-0.455-0.148-0.68-0.231C6.137,4.237,5.98,4.135,5.903,4.309
		C5.701,4.186,5.505,4.089,5.34,3.955c-0.097-0.078-0.205-0.221-0.2-0.328c0.008-0.17-0.062-0.264-0.167-0.359
		c-0.307-0.283-0.676-0.476-1.08-0.526C3.101,2.643,2.616,2.225,2.398,1.47C2.398,1.32,2.398,1.171,2.398,1.021z M3.81,2.513
		C4.25,2.515,4.593,2.244,4.69,1.82c0.164-0.719-0.426-1.487-1.164-1.514C3.084,0.29,2.72,0.567,2.615,0.998
		C2.442,1.712,3.07,2.509,3.81,2.513z M4.272,2.637c0.187,0.086,0.36,0.165,0.551,0.253C4.781,2.68,4.744,2.5,4.705,2.306
		C4.562,2.416,4.429,2.519,4.272,2.637z"/>
	<path fill="#6D6E70" d="M13.602,5.056c-0.129,0.216-0.305,0.27-0.547,0.19c-0.516-0.169-1.037-0.325-1.574-0.492
		c0.055-0.227,0.102-0.433,0.147-0.652c0.585,0.18,1.157,0.348,1.722,0.535c0.102,0.032,0.17,0.145,0.252,0.219
		C13.602,4.923,13.602,4.989,13.602,5.056z"/>
	<path fill="#6D6E70" d="M7.909,4.211C7.791,4.269,7.652,4.336,7.492,4.412c-0.054-0.188-0.113-0.366-0.148-0.55
		C7.333,3.814,7.389,3.727,7.438,3.7c0.261-0.142,0.526-0.278,0.8-0.396c0.099-0.042,0.231-0.056,0.335-0.029
		c0.929,0.24,1.854,0.493,2.78,0.741c0.028,0.009,0.06,0.028,0.105,0.053c-0.047,0.204-0.096,0.41-0.146,0.635
		c-0.317-0.095-0.621-0.186-0.932-0.277c-0.466,0.66-0.47,1.358-0.195,2.065c0.063,0.166,0.242,0.29,0.379,0.422
		c0.172,0.167,0.354,0.321,0.539,0.487c-0.295,0.279-0.543,0.517-0.764,0.724c-0.388-0.356-0.802-0.736-1.23-1.13
		c-0.084,0.45-0.17,0.908-0.26,1.387C8.505,8.313,8.175,8.247,7.824,8.179c0.102-0.56,0.207-1.109,0.297-1.66
		c0.024-0.15,0.013-0.31-0.003-0.463C8.054,5.449,7.981,4.843,7.909,4.211z"/>
	<path fill="#6D6E70" d="M10.525,8.271c0.19-0.2,0.425-0.437,0.654-0.672c0.506,0.341,0.584,0.545,0.434,1.102
		c-0.18,0.662-0.36,1.322-0.545,1.984c-0.096,0.347-0.356,0.517-0.66,0.437c-0.299-0.08-0.439-0.367-0.348-0.711
		c0.149-0.574,0.313-1.146,0.459-1.724C10.55,8.568,10.525,8.436,10.525,8.271z"/>
	<path fill="#6D6E70" d="M7.822,8.36c0.254,0.05,0.506,0.097,0.757,0.146C8.65,8.521,8.723,8.54,8.846,8.57
		C8.77,8.754,8.725,8.938,8.626,9.089c-0.377,0.583-0.77,1.158-1.158,1.731c-0.22,0.328-0.528,0.408-0.802,0.216
		c-0.244-0.17-0.277-0.492-0.076-0.795C6.939,9.72,7.292,9.199,7.641,8.676C7.705,8.582,7.754,8.479,7.822,8.36z"/>
	<path fill="#6D6E70" d="M10.027,3.374C9.501,3.37,9.083,2.944,9.093,2.42c0.009-0.522,0.443-0.948,0.957-0.94
		c0.519,0.008,0.938,0.441,0.933,0.963C10.977,2.973,10.561,3.378,10.027,3.374z"/>
	<path fill="#FFFFFF" d="M4.272,2.637c0.157-0.118,0.29-0.221,0.433-0.331C4.744,2.5,4.781,2.68,4.823,2.89
		C4.632,2.802,4.458,2.723,4.272,2.637z"/>
</g>
</svg>
