<?xml version="1.0" encoding="utf-8"?>
<!-- Generator: Adobe Illustrator 16.0.0, SVG Export Plug-In . SVG Version: 6.00 Build 0)  -->
<!DOCTYPE svg PUBLIC "-//W3C//DTD SVG 1.1//EN" "http://www.w3.org/Graphics/SVG/1.1/DTD/svg11.dtd">
<svg version="1.1" id="Layer_1" xmlns="http://www.w3.org/2000/svg" xmlns:xlink="http://www.w3.org/1999/xlink" x="0px" y="0px"
	 width="16.08px" height="18.48px" viewBox="0 0 16.08 18.48" enable-background="new 0 0 16.08 18.48" xml:space="preserve">
<path d="M12.622,23.404c0.124,0.088,0.292,0.132,0.504,0.132c0.232,0,0.409-0.052,0.527-0.156c0.121-0.104,0.18-0.229,0.18-0.376
	c0-0.134-0.043-0.237-0.129-0.313c-0.086-0.074-0.239-0.14-0.459-0.188c-0.221-0.05-0.348-0.09-0.385-0.118l-0.041-0.076
	l0.047-0.085c0.047-0.028,0.125-0.046,0.232-0.046l0.196,0.052l0.097,0.142l0.389-0.072c-0.039-0.139-0.11-0.243-0.215-0.313
	c-0.104-0.07-0.26-0.106-0.477-0.106c-0.224,0-0.389,0.047-0.492,0.143c-0.106,0.095-0.16,0.211-0.16,0.349
	c0,0.151,0.063,0.271,0.186,0.354c0.089,0.063,0.299,0.133,0.631,0.205l0.139,0.059l0.029,0.079l-0.055,0.109
	c-0.055,0.04-0.135,0.063-0.24,0.063c-0.098,0-0.172-0.021-0.227-0.063l-0.106-0.186l-0.413,0.063
	C12.418,23.198,12.499,23.317,12.622,23.404z M11.166,22.57c-0.001-0.114,0.026-0.205,0.086-0.272l0.224-0.101l0.213,0.095
	c0.062,0.063,0.09,0.156,0.096,0.278H11.166z M11.658,23.168l-0.163,0.055l-0.237-0.104c-0.063-0.069-0.097-0.166-0.1-0.291h1.032
	c0.004-0.322-0.062-0.563-0.192-0.718c-0.134-0.155-0.315-0.233-0.548-0.233c-0.206,0-0.377,0.074-0.512,0.224
	c-0.135,0.148-0.203,0.355-0.203,0.619c0,0.223,0.052,0.402,0.154,0.547c0.131,0.184,0.33,0.271,0.602,0.271
	c0.171,0,0.313-0.04,0.427-0.12s0.196-0.197,0.25-0.352l-0.411-0.069L11.658,23.168z M9.285,23.404
	c0.124,0.088,0.292,0.132,0.504,0.132c0.233,0,0.409-0.052,0.528-0.156c0.119-0.104,0.179-0.229,0.179-0.376
	c0-0.134-0.043-0.237-0.129-0.313c-0.087-0.074-0.239-0.14-0.459-0.188s-0.349-0.09-0.386-0.118l-0.041-0.076l0.047-0.085
	c0.048-0.028,0.125-0.046,0.23-0.046l0.199,0.052l0.096,0.142l0.391-0.072c-0.041-0.139-0.111-0.243-0.215-0.313
	c-0.104-0.07-0.264-0.106-0.478-0.106c-0.226,0-0.39,0.047-0.495,0.143c-0.104,0.095-0.156,0.211-0.156,0.349
	c0,0.151,0.062,0.271,0.185,0.354c0.089,0.063,0.299,0.133,0.631,0.205l0.138,0.059l0.03,0.079l-0.056,0.109
	c-0.053,0.04-0.135,0.063-0.239,0.063c-0.099,0-0.172-0.021-0.226-0.063l-0.107-0.19l-0.413,0.063
	C9.081,23.198,9.162,23.317,9.285,23.404z M7.617,23.404c0.124,0.088,0.291,0.132,0.503,0.132c0.234,0,0.41-0.052,0.529-0.156
	c0.119-0.104,0.179-0.229,0.179-0.376c0-0.134-0.043-0.237-0.129-0.313c-0.087-0.074-0.24-0.14-0.459-0.188
	c-0.219-0.05-0.347-0.09-0.385-0.118l-0.041-0.076l0.046-0.084c0.047-0.028,0.125-0.046,0.233-0.046l0.198,0.052l0.095,0.142
	L8.774,22.3c-0.039-0.139-0.11-0.243-0.215-0.313c-0.104-0.07-0.264-0.106-0.477-0.106c-0.224,0-0.389,0.047-0.495,0.144
	c-0.106,0.094-0.159,0.21-0.159,0.348c0,0.152,0.061,0.271,0.184,0.354c0.089,0.063,0.3,0.133,0.631,0.205l0.138,0.059l0.029,0.079
	L8.36,23.173c-0.054,0.04-0.134,0.063-0.241,0.063c-0.096,0-0.171-0.021-0.226-0.063l-0.107-0.187l-0.413,0.063
	C7.412,23.198,7.493,23.317,7.617,23.404z M6.709,22.822c0,0.1-0.005,0.169-0.016,0.204l-0.098,0.14L6.383,23.24l-0.165-0.063
	l-0.064-0.151l0.081-0.148c0.035-0.021,0.11-0.048,0.224-0.073c0.114-0.021,0.197-0.047,0.25-0.063V22.822z M6.258,22.242
	l0.171-0.045c0.109,0,0.182,0.018,0.222,0.052l0.058,0.173v0.042c-0.074,0.031-0.207,0.066-0.4,0.104
	c-0.142,0.024-0.251,0.06-0.327,0.097l-0.177,0.162l-0.063,0.239c0,0.136,0.046,0.249,0.139,0.337
	c0.092,0.089,0.219,0.133,0.378,0.133l0.257-0.052l0.226-0.157l0.014,0.05l0.04,0.124h0.407l-0.074-0.213
	c-0.014-0.067-0.02-0.17-0.02-0.31l0.004-0.49c0-0.186-0.018-0.312-0.055-0.376l-0.19-0.169c-0.09-0.045-0.227-0.067-0.41-0.067
	c-0.202,0-0.355,0.037-0.458,0.11c-0.102,0.071-0.175,0.188-0.216,0.342l0.373,0.068L6.258,22.242z M5.429,23.501v-2.193H5.017
	v2.193H5.429z M4.049,23.047c-0.083,0.075-0.183,0.112-0.297,0.112c-0.156,0-0.283-0.062-0.381-0.176
	c-0.098-0.118-0.146-0.315-0.146-0.596c0-0.261,0.049-0.448,0.148-0.563c0.099-0.117,0.228-0.175,0.388-0.175
	c0.115,0,0.213,0.029,0.293,0.098c0.081,0.066,0.134,0.156,0.159,0.27l0.429-0.104c-0.048-0.176-0.122-0.311-0.219-0.404
	c-0.164-0.158-0.377-0.234-0.64-0.234c-0.301,0-0.544,0.102-0.728,0.303c-0.185,0.202-0.277,0.482-0.277,0.851
	c0,0.348,0.092,0.617,0.276,0.816c0.183,0.198,0.418,0.298,0.703,0.298c0.231,0,0.421-0.059,0.571-0.174
	c0.15-0.117,0.257-0.294,0.322-0.534l-0.42-0.136C4.191,22.855,4.132,22.972,4.049,23.047z"/>
<g>
	<path fill-rule="evenodd" clip-rule="evenodd" fill="#6D6E70" d="M5.524,3.134c0.025,0.363-0.059,0.742,0.272,0.967
		c0.136,0.093,0.317,0.148,0.482,0.164C6.562,4.29,6.802,4.15,6.903,3.892C6.991,3.669,6.994,3.413,7.039,3.15
		c0.662,0,1.338,0,2.037,0c0.021,0.349-0.059,0.727,0.271,0.951c0.135,0.094,0.316,0.147,0.482,0.164
		c0.283,0.027,0.521-0.117,0.623-0.372c0.09-0.223,0.094-0.479,0.137-0.729c0.344,0,0.705-0.043,1.053,0.01
		c0.412,0.062,0.719,0.474,0.721,0.906c0.006,1.838,0.008,3.676-0.004,5.513c-0.004,0.654-0.557,1.199-1.215,1.203
		c-2.068,0.012-4.138,0.012-6.207,0c-0.67-0.004-1.215-0.561-1.218-1.229C3.71,7.745,3.712,5.927,3.718,4.107
		c0.002-0.543,0.396-0.945,0.937-0.97C4.938,3.124,5.221,3.134,5.524,3.134z M8.04,5.853c-1.053,0-2.105-0.001-3.158,0
		c-0.374,0-0.444,0.069-0.445,0.431c0,0.997-0.001,1.995,0.001,2.992c0.001,0.505,0.243,0.744,0.748,0.744
		c1.903,0.002,3.805,0.002,5.708,0c0.506,0,0.748-0.24,0.75-0.743c0.002-0.988,0.002-1.977,0-2.965c0-0.396-0.066-0.459-0.473-0.459
		C10.128,5.853,9.083,5.853,8.04,5.853z"/>
	<path fill-rule="evenodd" clip-rule="evenodd" fill="#6D6E70" d="M5.82,3.106c0-0.139-0.008-0.277,0.001-0.415
		c0.018-0.258,0.204-0.427,0.453-0.423c0.237,0.005,0.421,0.169,0.432,0.415c0.012,0.294,0.013,0.59,0.001,0.885
		c-0.01,0.262-0.198,0.425-0.452,0.42C6.012,3.982,5.84,3.825,5.822,3.575C5.811,3.42,5.82,3.263,5.82,3.106z"/>
	<path fill-rule="evenodd" clip-rule="evenodd" fill="#6D6E70" d="M10.259,3.126c0,0.148,0.008,0.295,0,0.442
		c-0.02,0.262-0.201,0.425-0.455,0.419c-0.242-0.006-0.42-0.165-0.43-0.414c-0.014-0.295-0.014-0.59,0-0.885
		c0.01-0.258,0.203-0.426,0.453-0.42c0.236,0.005,0.412,0.169,0.43,0.415C10.267,2.831,10.259,2.98,10.259,3.126z"/>
</g>
<image overflow="visible" width="38" height="41" xlink:href="C1A6F303.jpg"  transform="matrix(1 0 0 1 25.707 -8.0002)">
</image>
<polygon fill-rule="evenodd" clip-rule="evenodd" fill="#6D6E70" points="9.1,9.452 8.058,8.921 7.029,9.478 7.212,8.323 
	6.365,7.517 7.521,7.334 8.025,6.279 8.556,7.322 9.716,7.475 8.888,8.302 "/>
<g>
	<path d="M11.418,15.087c0.126,0.088,0.297,0.132,0.513,0.132c0.238,0,0.417-0.053,0.539-0.157c0.121-0.104,0.182-0.229,0.182-0.374
		c0-0.134-0.044-0.237-0.131-0.313c-0.089-0.073-0.245-0.136-0.468-0.187c-0.224-0.051-0.354-0.09-0.392-0.117l-0.042-0.076
		l0.048-0.085c0.048-0.031,0.126-0.047,0.237-0.047l0.202,0.05l0.096,0.142l0.396-0.073c-0.04-0.139-0.112-0.243-0.218-0.313
		s-0.267-0.105-0.483-0.105c-0.228,0-0.396,0.047-0.505,0.14c-0.108,0.094-0.162,0.209-0.162,0.347c0,0.152,0.063,0.271,0.188,0.356
		c0.091,0.062,0.306,0.13,0.644,0.204l0.141,0.056l0.029,0.079l-0.055,0.111c-0.055,0.04-0.137,0.061-0.245,0.061
		c-0.099,0-0.175-0.021-0.229-0.063l-0.109-0.187l-0.421,0.064C11.21,14.881,11.292,15,11.418,15.087z M10.741,13.597v-0.56
		l-0.421,0.245v0.314h-0.192v0.335h0.192v0.69c0,0.148,0.005,0.247,0.014,0.296l0.06,0.163l0.133,0.099l0.205,0.038
		c0.123,0,0.233-0.021,0.331-0.063l-0.036-0.325l-0.168,0.041l-0.071-0.021l-0.037-0.053c-0.006-0.021-0.009-0.097-0.009-0.226
		v-0.639h0.287v-0.335H10.741z M9.876,14.198c0-0.123-0.008-0.217-0.023-0.282l-0.082-0.177l-0.174-0.127
		c-0.077-0.033-0.161-0.05-0.254-0.05c-0.21,0-0.384,0.089-0.522,0.269v-0.233H8.432v1.585h0.419v-0.718
		c0-0.177,0.011-0.299,0.032-0.364l0.118-0.158l0.195-0.06l0.146,0.042l0.088,0.117c0.018,0.05,0.026,0.161,0.026,0.332v0.809h0.42
		V14.198z M7.05,14.255c-0.001-0.114,0.028-0.205,0.088-0.271c0.06-0.067,0.136-0.101,0.228-0.101l0.217,0.095
		c0.061,0.063,0.092,0.155,0.095,0.277H7.05z M7.551,14.851l-0.165,0.054c-0.097,0-0.177-0.035-0.241-0.104
		c-0.065-0.069-0.1-0.166-0.102-0.291h1.05c0.006-0.321-0.06-0.56-0.195-0.715c-0.137-0.156-0.322-0.233-0.558-0.233
		c-0.211,0-0.385,0.074-0.521,0.223s-0.205,0.354-0.205,0.617c0,0.22,0.052,0.401,0.156,0.546c0.132,0.18,0.336,0.271,0.611,0.271
		c0.174,0,0.319-0.04,0.436-0.12c0.115-0.08,0.2-0.197,0.254-0.351l-0.418-0.069L7.551,14.851z M5.849,15.182l0.629-1.585H6.047
		l-0.301,0.809l-0.045,0.135l-0.043,0.136l-0.087-0.271l-0.298-0.809h-0.44l0.639,1.585H5.849z M4.664,15.182v-0.368H3.442v-0.596
		H4.54V13.85H3.442v-0.485h1.18v-0.37H3v2.188H4.664z"/>
</g>
</svg>
