<?xml version="1.0" encoding="utf-8"?>
<!-- Generator: Adobe Illustrator 16.0.0, SVG Export Plug-In . SVG Version: 6.00 Build 0)  -->
<!DOCTYPE svg PUBLIC "-//W3C//DTD SVG 1.1//EN" "http://www.w3.org/Graphics/SVG/1.1/DTD/svg11.dtd">
<svg version="1.1" id="Layer_1" xmlns="http://www.w3.org/2000/svg" xmlns:xlink="http://www.w3.org/1999/xlink" x="0px" y="0px"
	 width="16px" height="16px" viewBox="-1.083 0 16 16" enable-background="new -1.083 0 16 16" xml:space="preserve">
<g>
	<path fill-rule="evenodd" clip-rule="evenodd" fill="#98BC80" d="M1.696,5.303C1.73,5.13,1.755,4.956,1.799,4.785
		C2.072,3.731,3,2.906,4.079,2.753c1.283-0.182,2.459,0.47,2.99,1.656c0.496,1.109,0.16,2.495-0.786,3.257
		C5.947,7.937,5.575,8.131,5.156,8.232C5.101,8.245,5.061,8.257,5.062,8.331c0.004,0.371,0.002,0.743,0.002,1.114
		c0,0.014,0.004,0.027,0.009,0.058c0.14-0.11,0.271-0.214,0.409-0.322c0.197,0.238,0.39,0.472,0.588,0.712
		c-0.271,0.222-0.535,0.438-0.8,0.654c-0.227,0.186-0.455,0.37-0.682,0.558c-0.042,0.035-0.073,0.053-0.125,0.009
		c-0.469-0.399-0.939-0.795-1.41-1.192C3.043,9.912,3.035,9.9,3.019,9.883c0.194-0.23,0.386-0.46,0.586-0.698
		c0.115,0.099,0.227,0.193,0.354,0.302c0.003-0.044,0.007-0.072,0.007-0.102c0-0.339-0.002-0.679,0.002-1.018
		C3.969,8.29,3.946,8.259,3.869,8.239C2.827,7.97,2.144,7.315,1.812,6.295C1.755,6.12,1.734,5.932,1.696,5.749
		C1.696,5.601,1.696,5.452,1.696,5.303z M6.205,5.52c0.004-0.932-0.751-1.696-1.686-1.704C3.578,3.809,2.806,4.572,2.802,5.513
		C2.799,6.447,3.564,7.213,4.501,7.216C5.441,7.218,6.201,6.461,6.205,5.52z"/>
	<path fill-rule="evenodd" clip-rule="evenodd" fill="#627D53" d="M10.761,3.937c0,0.313,0,0.612,0,0.92c-0.142,0-0.277,0-0.428,0
		c0,0.238-0.003,0.466,0.004,0.695c0.001,0.021,0.058,0.052,0.093,0.061c0.431,0.106,0.818,0.298,1.148,0.592
		c0.763,0.68,1.101,1.53,0.946,2.547c-0.147,0.971-0.682,1.682-1.565,2.104c-0.847,0.404-1.705,0.375-2.526-0.074
		C7.588,10.319,7.094,9.59,6.99,8.633C6.883,7.642,7.238,6.815,7.998,6.169c0.333-0.284,0.721-0.47,1.148-0.568
		C9.173,5.594,9.2,5.585,9.229,5.577c0-0.237,0-0.47,0-0.717c-0.158,0-0.314,0-0.476,0c0-0.31,0-0.606,0-0.918
		c0.157,0,0.313,0,0.479,0c0-0.227,0-0.437,0-0.655c0.368,0,0.727,0,1.097,0c0,0.212,0,0.423,0,0.649
		C10.478,3.937,10.616,3.937,10.761,3.937z M8.072,8.315c-0.021,0.919,0.744,1.697,1.688,1.716c0.923,0.019,1.697-0.744,1.716-1.689
		c0.019-0.923-0.739-1.693-1.688-1.715C8.868,6.605,8.094,7.367,8.072,8.315z"/>
</g>
</svg>
