<?xml version="1.0" encoding="utf-8"?>
<!-- Generator: Adobe Illustrator 16.0.0, SVG Export Plug-In . SVG Version: 6.00 Build 0)  -->
<!DOCTYPE svg PUBLIC "-//W3C//DTD SVG 1.1//EN" "http://www.w3.org/Graphics/SVG/1.1/DTD/svg11.dtd">
<svg version="1.1" id="Layer_1" xmlns="http://www.w3.org/2000/svg" xmlns:xlink="http://www.w3.org/1999/xlink" x="0px" y="0px"
	 width="157px" height="179px" viewBox="0 0 157 179" enable-background="new 0 0 157 179" xml:space="preserve">
<rect x="1" y="1" fill-rule="evenodd" clip-rule="evenodd" fill="#FFFFFF" stroke="#627D53" stroke-width="2" stroke-miterlimit="10" width="155" height="177"/>
<rect x="1" y="1" fill-rule="evenodd" clip-rule="evenodd" fill="#627D53" width="155" height="56"/>
<path fill-rule="evenodd" clip-rule="evenodd" d="M67.667,18"/>
<g>
	<path fill-rule="evenodd" clip-rule="evenodd" fill="#627D53" d="M79.71,167.788c-6.886,0-13.773-0.028-20.658,0.026
		c-1.229,0.012-1.847-0.206-1.658-1.584c0.109-0.796,0.063-1.621,0.012-2.428c-0.129-2.049,0.202-3.718,1.741-5.448
		c2.954-3.321,2.483-8.312-0.696-11.486c-0.776-0.775-1.067-1.513-1.056-2.571c0.06-6.074,0.063-12.15,0.082-18.225
		c0.003-0.861,0.164-1.828-0.882-2.231c-0.943-0.364-1.495,0.374-2.072,0.923c-3.268,3.109-6.499,6.259-9.812,9.32
		c-0.898,0.83-0.743,1.305,0.048,2.045c3.802,3.555,7.554,7.162,11.342,10.734c3.497,3.296,3.875,8.275,0.842,11.44
		c-3.219,3.36-8.011,3.337-11.604-0.032c-4.598-4.313-9.26-8.559-13.802-12.928c-4.034-3.881-6.226-8.439-4.63-14.205
		c0.551-1.989,1.957-3.401,3.269-4.842c5.646-6.202,11.304-12.395,17.049-18.504c3.919-4.166,8.995-5.914,14.563-6.49
		c0.81-0.085,1.121,0.318,1.409,0.959c4.562,10.117,9.13,20.231,13.724,30.334c0.352,0.775,0.4,1.164-0.557,1.485
		c-1.214,0.405-3.058,0.125-3.459,1.457c-0.316,1.047,0.436,2.433,0.767,3.654c0.863,3.179,1.791,6.34,2.619,9.527
		c0.331,1.279,0.896,1.71,2.221,1.265c1.805-0.607,3.645-1.156,5.507-1.541c1.568-0.324,1.749-1.017,1.311-2.439
		c-1.072-3.479-1.955-7.016-2.978-10.51c-0.28-0.955-0.209-1.762,0.218-2.656c4.794-10.072,9.571-20.152,14.305-30.252
		c0.446-0.951,0.969-1.238,1.983-1.134c5.545,0.571,10.224,3.002,13.989,6.975c6.006,6.339,11.824,12.856,17.707,19.312
		c2.714,2.98,3.106,6.479,2.09,10.217c-0.778,2.862-2.38,5.246-4.538,7.264c-4.729,4.427-9.441,8.871-14.197,13.271
		c-3.5,3.24-8.322,3.081-11.454-0.31c-2.866-3.105-2.59-7.896,0.692-11.055c3.792-3.651,7.604-7.279,11.455-10.867
		c0.896-0.835,1.101-1.336,0.061-2.289c-3.284-3.006-6.449-6.143-9.675-9.213c-0.572-0.545-1.131-1.289-2.08-0.914
		c-1.029,0.406-0.911,1.354-0.908,2.226c0.018,6.076,0.015,12.15,0.068,18.226c0.009,1.053-0.254,1.826-1.019,2.604
		c-3.553,3.617-3.471,8.994,0.174,12.563c0.599,0.585,0.864,1.139,0.84,1.953c-0.047,1.619-0.091,3.244,0.01,4.857
		c0.077,1.217-0.317,1.557-1.536,1.547C93.598,167.759,86.654,167.788,79.71,167.788z"/>
	<path fill-rule="evenodd" clip-rule="evenodd" fill="#627D53" d="M81.212,62.487c9.801,0.01,17.668,7.886,17.605,17.627
		c-0.063,9.757-7.97,17.571-17.749,17.541c-9.755-0.028-17.625-7.936-17.603-17.685C63.489,70.217,71.343,62.479,81.212,62.487z"/>
	<path fill-rule="evenodd" clip-rule="evenodd" fill="#627D53" d="M92.828,101.365c-4.25,9.14-8.499,18.274-12.902,27.738
		c-0.784-1.737-1.435-3.171-2.076-4.607c-3.227-7.217-6.432-14.443-9.694-21.646c-0.555-1.225-0.658-1.712,1.016-1.697
		c7.278,0.063,14.557-0.011,21.836-0.018C91.561,101.136,92.145,100.979,92.828,101.365z"/>
	<path fill-rule="evenodd" clip-rule="evenodd" fill="#627D53" d="M81.148,133.463c-0.065,1.01-0.581,1.521-1.433,1.532
		c-0.955,0.012-1.514-0.567-1.488-1.528c0.023-0.859,0.525-1.409,1.419-1.414C80.625,132.046,81.084,132.631,81.148,133.463z"/>
</g>
<g>
	<path fill="#FFFFFF" d="M61.354,25.325c-0.52-0.577-0.779-1.403-0.779-2.479v-0.76h1.976v0.912c0,0.861,0.361,1.291,1.083,1.291
		c0.354,0,0.624-0.104,0.808-0.313c0.183-0.209,0.275-0.549,0.275-1.018c0-0.557-0.127-1.047-0.38-1.473
		c-0.254-0.424-0.722-0.934-1.406-1.529c-0.861-0.76-1.463-1.446-1.805-2.061c-0.342-0.615-0.513-1.309-0.513-2.081
		c0-1.052,0.266-1.864,0.798-2.441c0.532-0.576,1.305-0.864,2.318-0.864c1,0,1.758,0.288,2.271,0.864
		c0.513,0.577,0.77,1.403,0.77,2.479v0.551h-1.976v-0.684c0-0.456-0.089-0.789-0.266-0.998c-0.178-0.209-0.437-0.313-0.779-0.313
		c-0.697,0-1.045,0.424-1.045,1.272c0,0.481,0.13,0.931,0.39,1.349c0.259,0.418,0.731,0.925,1.416,1.52
		c0.874,0.761,1.476,1.451,1.805,2.072c0.33,0.62,0.494,1.349,0.494,2.185c0,1.089-0.269,1.925-0.808,2.508
		c-0.538,0.583-1.32,0.874-2.346,0.874C62.64,26.189,61.874,25.901,61.354,25.325z"/>
	<path fill="#FFFFFF" d="M68.004,12.699h3.078c1.039,0,1.817,0.279,2.337,0.836c0.52,0.559,0.779,1.375,0.779,2.451v1.311
		c0,1.078-0.26,1.895-0.779,2.451c-0.52,0.559-1.298,0.836-2.337,0.836h-0.988V26h-2.09V12.699z M71.083,18.685
		c0.342,0,0.599-0.095,0.77-0.285s0.256-0.513,0.256-0.969v-1.577c0-0.456-0.085-0.779-0.256-0.969
		c-0.171-0.19-0.427-0.285-0.77-0.285h-0.988v4.085H71.083z"/>
	<path fill="#FFFFFF" d="M76.003,25.315c-0.544-0.583-0.817-1.405-0.817-2.47v-6.992c0-1.064,0.272-1.887,0.817-2.471
		c0.544-0.582,1.33-0.873,2.356-0.873c1.026,0,1.812,0.291,2.356,0.873c0.545,0.584,0.817,1.406,0.817,2.471v6.992
		c0,1.064-0.272,1.887-0.817,2.47c-0.544,0.583-1.33,0.874-2.356,0.874C77.333,26.189,76.548,25.898,76.003,25.315z M79.442,22.979
		v-7.258c0-0.874-0.361-1.311-1.083-1.311c-0.722,0-1.083,0.437-1.083,1.311v7.258c0,0.874,0.361,1.311,1.083,1.311
		C79.082,24.289,79.442,23.853,79.442,22.979z"/>
	<path fill="#FFFFFF" d="M82.938,12.699h3.097c1.077,0,1.862,0.25,2.356,0.751s0.741,1.271,0.741,2.308v0.818
		c0,1.38-0.456,2.254-1.368,2.621v0.038c0.506,0.152,0.865,0.463,1.074,0.931c0.209,0.469,0.313,1.096,0.313,1.881v2.338
		c0,0.38,0.012,0.688,0.038,0.922s0.089,0.465,0.19,0.693h-2.128c-0.076-0.216-0.126-0.418-0.152-0.608s-0.038-0.532-0.038-1.026
		v-2.432c0-0.607-0.098-1.032-0.294-1.273c-0.196-0.24-0.535-0.361-1.017-0.361h-0.722V26h-2.09V12.699z M85.789,18.399
		c0.418,0,0.731-0.107,0.94-0.323c0.209-0.215,0.313-0.576,0.313-1.082v-1.027c0-0.48-0.085-0.828-0.256-1.045
		c-0.171-0.215-0.44-0.322-0.808-0.322h-0.95v3.8H85.789z"/>
	<path fill="#FFFFFF" d="M92.192,14.6h-2.185v-1.9h6.46v1.9h-2.185V26h-2.09V14.6z"/>
	<path fill="#FFFFFF" d="M40.464,31.5h2.09v13.299h-2.09V31.5z"/>
	<path fill="#FFFFFF" d="M44.112,31.5h2.622l2.033,7.961h0.038V31.5h1.862v13.299h-2.147l-2.508-9.709h-0.038v9.709h-1.862V31.5z"/>
	<path fill="#FFFFFF" d="M52.643,44.125c-0.52-0.576-0.779-1.402-0.779-2.479v-0.761h1.976v0.912c0,0.861,0.361,1.293,1.083,1.293
		c0.354,0,0.624-0.105,0.808-0.314c0.183-0.209,0.275-0.547,0.275-1.016c0-0.558-0.127-1.049-0.38-1.473
		c-0.254-0.424-0.722-0.934-1.406-1.529c-0.861-0.76-1.463-1.447-1.805-2.063c-0.342-0.613-0.513-1.307-0.513-2.08
		c0-1.051,0.266-1.865,0.798-2.441c0.532-0.576,1.305-0.865,2.318-0.865c1,0,1.758,0.289,2.271,0.865
		c0.513,0.576,0.77,1.402,0.77,2.479v0.551h-1.976v-0.684c0-0.456-0.089-0.788-0.266-0.997c-0.178-0.209-0.437-0.314-0.779-0.314
		c-0.697,0-1.045,0.425-1.045,1.273c0,0.481,0.13,0.931,0.39,1.35c0.259,0.418,0.731,0.924,1.416,1.52
		c0.874,0.76,1.476,1.45,1.805,2.07c0.33,0.621,0.494,1.35,0.494,2.186c0,1.09-0.269,1.926-0.808,2.508
		c-0.538,0.583-1.32,0.874-2.346,0.874C53.929,44.989,53.163,44.701,52.643,44.125z"/>
	<path fill="#FFFFFF" d="M60.927,33.399h-2.185V31.5h6.46v1.899h-2.185v11.399h-2.09V33.399z"/>
	<path fill="#FFFFFF" d="M66.209,31.5h3.097c1.077,0,1.862,0.25,2.356,0.75s0.741,1.27,0.741,2.309v0.816
		c0,1.381-0.456,2.255-1.368,2.623v0.037c0.506,0.152,0.865,0.463,1.074,0.932s0.313,1.096,0.313,1.881v2.336
		c0,0.381,0.012,0.688,0.038,0.922s0.089,0.466,0.19,0.693h-2.128c-0.076-0.215-0.126-0.418-0.152-0.607s-0.038-0.532-0.038-1.025
		v-2.433c0-0.608-0.098-1.032-0.294-1.272c-0.196-0.241-0.535-0.361-1.017-0.361h-0.722v5.699h-2.09V31.5z M69.059,37.199
		c0.418,0,0.731-0.107,0.94-0.322c0.209-0.216,0.313-0.576,0.313-1.084v-1.025c0-0.481-0.085-0.83-0.256-1.045
		s-0.44-0.323-0.808-0.323h-0.95v3.8H69.059z"/>
	<path fill="#FFFFFF" d="M74.588,44.125c-0.532-0.576-0.798-1.402-0.798-2.479V31.5h2.09v10.297c0,0.457,0.092,0.786,0.275,0.988
		c0.184,0.203,0.447,0.305,0.789,0.305c0.342,0,0.605-0.102,0.789-0.305c0.184-0.202,0.275-0.531,0.275-0.988V31.5h2.014v10.146
		c0,1.077-0.266,1.903-0.798,2.479c-0.532,0.576-1.305,0.864-2.318,0.864S75.121,44.701,74.588,44.125z"/>
	<path fill="#FFFFFF" d="M82.16,44.135c-0.526-0.57-0.789-1.375-0.789-2.414v-7.144c0-1.038,0.263-1.843,0.789-2.413
		c0.525-0.57,1.289-0.855,2.29-0.855c1,0,1.764,0.285,2.29,0.855c0.525,0.57,0.788,1.375,0.788,2.413v1.406h-1.976v-1.539
		c0-0.823-0.349-1.235-1.045-1.235c-0.696,0-1.045,0.412-1.045,1.235v7.429c0,0.811,0.349,1.217,1.045,1.217
		c0.697,0,1.045-0.406,1.045-1.217V39.84h1.976v1.881c0,1.039-0.263,1.844-0.788,2.414c-0.526,0.569-1.289,0.854-2.29,0.854
		C83.448,44.989,82.685,44.704,82.16,44.135z"/>
	<path fill="#FFFFFF" d="M90.415,33.399H88.23V31.5h6.46v1.899h-2.185v11.399h-2.09V33.399z"/>
	<path fill="#FFFFFF" d="M96.286,44.115c-0.544-0.582-0.817-1.406-0.817-2.47v-6.992c0-1.063,0.272-1.888,0.817-2.47
		s1.33-0.875,2.356-0.875c1.026,0,1.812,0.293,2.356,0.875c0.545,0.582,0.817,1.406,0.817,2.47v6.992
		c0,1.063-0.272,1.888-0.817,2.47c-0.544,0.583-1.33,0.874-2.356,0.874C97.616,44.989,96.83,44.698,96.286,44.115z M99.725,41.778
		v-7.258c0-0.874-0.361-1.312-1.083-1.312c-0.722,0-1.083,0.438-1.083,1.312v7.258c0,0.874,0.361,1.312,1.083,1.312
		C99.364,43.09,99.725,42.652,99.725,41.778z"/>
	<path fill="#FFFFFF" d="M103.221,31.5h3.097c1.077,0,1.862,0.25,2.356,0.75s0.741,1.27,0.741,2.309v0.816
		c0,1.381-0.456,2.255-1.368,2.623v0.037c0.506,0.152,0.865,0.463,1.074,0.932s0.313,1.096,0.313,1.881v2.336
		c0,0.381,0.012,0.688,0.038,0.922s0.089,0.466,0.19,0.693h-2.128c-0.076-0.215-0.126-0.418-0.152-0.607s-0.038-0.532-0.038-1.025
		v-2.433c0-0.608-0.098-1.032-0.294-1.272c-0.196-0.241-0.535-0.361-1.017-0.361h-0.722v5.699h-2.09V31.5z M106.071,37.199
		c0.418,0,0.731-0.107,0.94-0.322c0.209-0.216,0.313-0.576,0.313-1.084v-1.025c0-0.481-0.085-0.83-0.256-1.045
		s-0.44-0.323-0.808-0.323h-0.95v3.8H106.071z"/>
	<path fill="#FFFFFF" d="M111.296,44.125c-0.52-0.576-0.779-1.402-0.779-2.479v-0.761h1.976v0.912c0,0.861,0.361,1.293,1.083,1.293
		c0.354,0,0.624-0.105,0.808-0.314c0.183-0.209,0.275-0.547,0.275-1.016c0-0.558-0.127-1.049-0.38-1.473
		c-0.254-0.424-0.722-0.934-1.406-1.529c-0.861-0.76-1.463-1.447-1.805-2.063c-0.342-0.613-0.513-1.307-0.513-2.08
		c0-1.051,0.266-1.865,0.798-2.441c0.532-0.576,1.305-0.865,2.318-0.865c1,0,1.758,0.289,2.271,0.865
		c0.513,0.576,0.77,1.402,0.77,2.479v0.551h-1.976v-0.684c0-0.456-0.089-0.788-0.266-0.997c-0.178-0.209-0.437-0.314-0.779-0.314
		c-0.697,0-1.045,0.425-1.045,1.273c0,0.481,0.13,0.931,0.39,1.35c0.259,0.418,0.731,0.924,1.416,1.52
		c0.874,0.76,1.476,1.45,1.805,2.07c0.33,0.621,0.494,1.35,0.494,2.186c0,1.09-0.269,1.926-0.808,2.508
		c-0.538,0.583-1.32,0.874-2.346,0.874C112.582,44.989,111.815,44.701,111.296,44.125z"/>
</g>
</svg>
