<?xml version="1.0" encoding="utf-8"?>
<!-- Generator: Adobe Illustrator 16.0.0, SVG Export Plug-In . SVG Version: 6.00 Build 0)  -->
<!DOCTYPE svg PUBLIC "-//W3C//DTD SVG 1.1//EN" "http://www.w3.org/Graphics/SVG/1.1/DTD/svg11.dtd">
<svg version="1.1" id="Layer_1" xmlns="http://www.w3.org/2000/svg" xmlns:xlink="http://www.w3.org/1999/xlink" x="0px" y="0px"
	 width="157px" height="179px" viewBox="0 0 157 179" enable-background="new 0 0 157 179" xml:space="preserve">
<rect x="1" y="1" fill-rule="evenodd" clip-rule="evenodd" fill="#FFFFFF" stroke="#627D53" stroke-width="2" stroke-miterlimit="10" width="155" height="177"/>
<rect x="2" y="1" fill-rule="evenodd" clip-rule="evenodd" fill="#627D53" width="155" height="56"/>
<g>
	<path fill-rule="evenodd" clip-rule="evenodd" fill="#627D53" d="M100.186,65.731c2.418,1.188,2.908,2.386,2.054,4.99
		c-1.537,4.691-3.105,9.371-4.581,14.083c-0.419,1.334-1.15,2.185-2.432,2.719c-1.779,0.742-3.52,1.585-5.249,2.437
		c-0.275,0.135-0.588,0.549-0.588,0.833c-0.031,9.695-0.027,19.392-0.025,29.085c0,0.081,0.044,0.164,0.107,0.386
		c0.208-0.422,0.368-0.728,0.511-1.039c2.856-6.244,5.716-12.487,8.559-18.738c0.469-1.031,1.088-1.854,2.334-2.155
		c0.103,0.223,0.227,0.438,0.309,0.668c1.091,3.047,2.168,6.099,3.273,9.142c0.194,0.534,0.166,0.914-0.201,1.409
		c-1.385,1.878-1.057,4.505,0.675,6.044c1.711,1.521,4.295,1.541,6.016,0.045c1.78-1.546,2.149-4.122,0.768-6.027
		c-0.409-0.566-0.411-0.981-0.187-1.589c1.072-2.914,2.094-5.847,3.134-8.773c0.107-0.3,0.231-0.597,0.352-0.909
		c1.336,0.257,1.95,1.179,2.442,2.26c2.883,6.338,5.776,12.675,8.668,19.011c0.461,1.012,0.938,2.017,1.379,3.037
		c0.775,1.794,0.184,3.583-1.413,4.354c-1.634,0.79-3.481,0.117-4.333-1.687c-1.453-3.075-2.842-6.18-4.258-9.27
		c-0.146-0.324-0.302-0.64-0.659-0.952c0,0.363,0,0.726,0,1.087c0,12.052,0.001,24.106-0.004,36.159
		c0,0.488-0.014,0.983-0.085,1.467c-0.292,1.945-1.948,3.326-3.827,3.218c-1.951-0.114-3.422-1.567-3.533-3.538
		c-0.047-0.85-0.027-1.705-0.027-2.555c-0.002-6.223-0.001-12.444-0.001-18.668c0-0.387,0-0.775,0-1.227c-0.917,0-1.752,0-2.758,0
		c0,0.356,0,0.729,0,1.103c0,6.78,0.004,13.562-0.007,20.34c-0.001,0.618-0.028,1.255-0.176,1.851
		c-0.407,1.641-2.091,2.807-3.771,2.688c-1.85-0.13-3.289-1.481-3.47-3.282c-0.048-0.487-0.05-0.98-0.051-1.471
		c-0.005-12.021-0.009-24.039-0.012-36.061c0-0.375,0-0.749-0.224-1.159c-0.755,1.654-1.51,3.31-2.265,4.964
		c-0.733,1.606-1.464,3.215-2.2,4.82c-1.088,2.378-2.543,2.972-5.068,1.987c0,0.386,0,0.734,0,1.082
		c0,3.996,0.029,7.992-0.012,11.988c-0.027,2.807-2.534,4.591-5.043,3.663c-1.537-0.567-2.411-1.905-2.414-3.779
		c-0.008-6.912-0.003-13.822-0.003-20.732c0-0.389,0-0.773,0-1.226c-0.929,0-1.765,0-2.755,0c0,0.362,0,0.742,0,1.119
		c0,6.779,0.002,13.56-0.005,20.34c0,0.521-0.018,1.054-0.123,1.562c-0.386,1.88-2.005,3.061-3.952,2.928
		c-1.825-0.127-3.327-1.596-3.359-3.477c-0.061-3.567-0.03-7.139-0.034-10.709c-0.003-3.044-0.001-6.087-0.001-9.13
		c-0.102-0.01-0.198-0.045-0.221-0.018c-1.577,1.878-4.435,1.316-5.479-1.111c-1.342-3.123-2.813-6.192-4.228-9.285
		c-0.12-0.261-0.239-0.522-0.574-0.767c0,0.335,0,0.668,0,1.003c0,12.118,0.003,24.236-0.004,36.354
		c-0.001,0.62,0.001,1.259-0.134,1.856c-0.387,1.707-1.985,2.833-3.801,2.758c-1.729-0.072-3.169-1.349-3.435-3.08
		c-0.079-0.514-0.099-1.043-0.1-1.564c-0.007-6.683-0.004-13.365-0.004-20.046c0-0.39,0-0.778,0-1.252c-0.922,0-1.779,0-2.759,0
		c0,0.415,0,0.798,0,1.182c0,6.779,0.004,13.561-0.005,20.341c-0.002,0.585-0.005,1.192-0.151,1.752
		c-0.448,1.71-2.039,2.774-3.869,2.663c-1.671-0.103-3.066-1.367-3.343-3.071c-0.083-0.512-0.104-1.041-0.104-1.563
		c-0.008-12.021-0.01-24.041-0.011-36.061c0-0.387,0-0.775-0.171-1.226c-0.152,0.298-0.315,0.59-0.454,0.895
		c-1.388,3.032-2.761,6.071-4.158,9.102c-0.873,1.89-2.514,2.668-4.202,2.031c-1.542-0.581-2.388-2.248-1.894-3.825
		c0.205-0.651,0.512-1.273,0.796-1.897c3.171-6.963,6.35-13.923,9.521-20.887c0.478-1.051,1.095-1.932,2.424-2.136
		c0.797,2.225,1.59,4.436,2.381,6.646c0.198,0.555,0.387,1.111,0.594,1.663c0.463,1.235,0.844,2.289-0.068,3.688
		c-1.172,1.799-0.301,4.292,1.477,5.546c1.788,1.258,4.312,1.047,5.859-0.493c1.522-1.516,1.804-3.99,0.557-5.766
		c-0.411-0.584-0.449-1.022-0.21-1.672c1.053-2.853,2.042-5.729,3.057-8.595c0.12-0.335,0.262-0.659,0.405-1.021
		c1.243,0.206,1.878,1.009,2.345,2.034c2.141,4.704,4.292,9.403,6.438,14.1c0.992,2.173,1.979,4.346,2.971,6.517
		c0.115,0.25,0.258,0.489,0.552,0.693c0-0.278,0-0.557,0-0.834c0-7.958-0.009-15.917,0.016-23.876
		c0.002-0.718-0.183-1.107-0.871-1.405c-1.891-0.815-3.737-1.733-5.613-2.586c-0.832-0.377-1.349-0.97-1.632-1.838
		c-1.648-5.068-3.332-10.123-4.975-15.191c-0.686-2.116,0.027-3.449,2.299-4.472c0.459,0,0.917,0,1.376,0
		c1.418,0.564,2.145,1.645,2.583,3.088c1,3.279,2.273,6.484,3.125,9.799c0.647,2.519,1.828,4.264,4.371,5.035
		c0.407,0.123,0.831,0.637,0.991,1.065c1.257,3.398,2.44,6.828,3.677,10.235c0.19,0.522,0.13,0.869-0.208,1.324
		c-1.404,1.883-1.138,4.491,0.557,6.056c1.691,1.565,4.35,1.606,6.093,0.096c1.802-1.559,2.127-4.127,0.707-6.105
		c-0.337-0.47-0.351-0.824-0.166-1.331c0.929-2.547,1.985-5.065,2.678-7.677c0.658-2.48,1.93-4.142,4.402-4.925
		c0.424-0.133,0.861-0.692,1.015-1.149c1.406-4.144,2.79-8.297,4.091-12.478c0.45-1.448,1.19-2.515,2.636-3.033
		C99.269,65.731,99.728,65.731,100.186,65.731z"/>
	<path fill-rule="evenodd" clip-rule="evenodd" fill="#627D53" d="M39.069,166.349c0.001-3.176,0.001-6.353,0.003-9.527
		c0.001-2.374,0.714-3.077,3.121-3.077c7.661-0.001,15.321,0,22.982,0c0.384,0,0.77,0,1.296,0c0-1.395-0.002-2.692,0-3.99
		c0.005-2.391,0.709-3.096,3.107-3.096c7.366,0,14.732-0.001,22.098,0c2.232,0,2.99,0.769,2.992,3.016
		c0.004,2.945,0.001,5.891,0.001,8.992c0.423,0,0.799,0,1.176,0c7.726,0,15.452-0.001,23.178,0c2.288,0.001,3.021,0.717,3.019,2.972
		c-0.003,1.571-0.027,3.141-0.043,4.711C94.356,166.349,66.713,166.349,39.069,166.349z"/>
	<path fill-rule="evenodd" clip-rule="evenodd" fill="#627D53" d="M107.932,82.182c3.998-0.03,7.324,3.263,7.341,7.266
		c0.016,3.97-3.345,7.33-7.318,7.317c-3.968-0.015-7.2-3.235-7.271-7.245C100.614,85.538,103.901,82.209,107.932,82.182z"/>
	<path fill-rule="evenodd" clip-rule="evenodd" fill="#627D53" d="M52.011,90.953c-4.085-0.163-7.14-3.549-6.972-7.492
		c0.194-4.521,3.827-7.221,7.528-7.034c4.181,0.208,7.282,3.649,7.011,7.543C59.29,88.123,55.915,91.239,52.011,90.953z"/>
	<path fill-rule="evenodd" clip-rule="evenodd" fill="#627D53" d="M103.862,98.213c2.812,0,5.446,0,8.19,0
		c-0.198,0.594-0.363,1.115-0.545,1.629c-0.835,2.37-1.69,4.731-2.506,7.107c-0.177,0.52-0.42,0.702-0.982,0.673
		c-0.531-0.026-0.878-0.053-1.087-0.67C105.953,104.055,104.911,101.179,103.862,98.213z"/>
	<path fill-rule="evenodd" clip-rule="evenodd" fill="#627D53" d="M56.412,92.479c-1.09,3.07-2.132,6.056-3.238,9.016
		c-0.078,0.207-0.629,0.311-0.964,0.321c-0.258,0.009-0.692-0.14-0.761-0.323c-1.096-2.964-2.145-5.943-3.238-9.014
		C50.977,92.479,53.611,92.479,56.412,92.479z"/>
	<path fill-rule="evenodd" clip-rule="evenodd" fill="#627D53" d="M73.221,76.181c0.028-4.022,3.394-7.354,7.341-7.263
		c4.004,0.092,7.227,3.342,7.234,7.296c0.007,3.994-3.319,7.313-7.317,7.3C76.46,83.5,73.192,80.197,73.221,76.181z"/>
	<path fill-rule="evenodd" clip-rule="evenodd" fill="#627D53" d="M76.386,84.99c2.778,0,5.417,0,8.146,0
		c-0.078,0.295-0.124,0.538-0.206,0.771c-0.934,2.646-1.877,5.288-2.803,7.937c-0.161,0.461-0.305,0.779-0.927,0.743
		c-0.584-0.033-0.917-0.114-1.133-0.751C78.49,90.822,77.449,87.976,76.386,84.99z"/>
</g>
<g>
	<path fill="#FFFFFF" d="M40.053,12.216h3.078c1.039,0,1.817,0.278,2.337,0.836s0.779,1.374,0.779,2.45v1.312
		c0,1.077-0.26,1.894-0.779,2.451s-1.298,0.836-2.337,0.836h-0.988v5.415h-2.09V12.216z M43.131,18.201
		c0.342,0,0.599-0.096,0.77-0.285c0.171-0.19,0.256-0.514,0.256-0.969v-1.578c0-0.455-0.085-0.778-0.256-0.969
		c-0.171-0.189-0.427-0.285-0.77-0.285h-0.988v4.086H43.131z"/>
	<path fill="#FFFFFF" d="M47.386,12.216h3.097c1.077,0,1.862,0.25,2.356,0.751c0.494,0.5,0.741,1.27,0.741,2.308v0.817
		c0,1.381-0.456,2.254-1.368,2.622v0.038c0.506,0.152,0.865,0.463,1.074,0.931c0.209,0.469,0.313,1.096,0.313,1.881V23.9
		c0,0.381,0.012,0.688,0.038,0.922s0.089,0.465,0.19,0.693h-2.128c-0.076-0.215-0.126-0.418-0.152-0.607
		c-0.025-0.19-0.038-0.533-0.038-1.026v-2.433c0-0.607-0.098-1.031-0.294-1.272s-0.535-0.361-1.017-0.361h-0.722v5.7h-2.09V12.216z
		 M50.236,17.916c0.418,0,0.731-0.107,0.94-0.323s0.313-0.576,0.313-1.083v-1.026c0-0.481-0.085-0.829-0.256-1.045
		c-0.171-0.215-0.44-0.323-0.808-0.323h-0.95v3.801H50.236z"/>
	<path fill="#FFFFFF" d="M55.708,24.832c-0.544-0.583-0.817-1.406-0.817-2.471v-6.992c0-1.063,0.272-1.887,0.817-2.47
		c0.544-0.582,1.33-0.874,2.356-0.874c1.026,0,1.812,0.292,2.356,0.874c0.545,0.583,0.817,1.406,0.817,2.47v6.992
		c0,1.064-0.272,1.888-0.817,2.471c-0.544,0.582-1.33,0.873-2.356,0.873C57.039,25.705,56.253,25.414,55.708,24.832z M59.147,22.494
		v-7.258c0-0.873-0.361-1.311-1.083-1.311c-0.722,0-1.083,0.438-1.083,1.311v7.258c0,0.875,0.361,1.312,1.083,1.312
		C58.787,23.806,59.147,23.369,59.147,22.494z"/>
	<path fill="#FFFFFF" d="M62.644,12.216h5.529v1.899h-3.439v3.705h2.698v1.9h-2.698v5.795h-2.09V12.216z"/>
	<path fill="#FFFFFF" d="M69.179,12.216h5.7v1.899h-3.61v3.516h2.869v1.9H71.27v4.084h3.61v1.9h-5.7V12.216z"/>
	<path fill="#FFFFFF" d="M76.532,24.842c-0.52-0.577-0.779-1.403-0.779-2.48v-0.76h1.976v0.912c0,0.861,0.361,1.292,1.083,1.292
		c0.354,0,0.624-0.104,0.808-0.313c0.183-0.209,0.275-0.548,0.275-1.017c0-0.558-0.127-1.048-0.38-1.473
		c-0.254-0.424-0.722-0.934-1.406-1.529c-0.861-0.76-1.463-1.446-1.805-2.062c-0.342-0.614-0.513-1.308-0.513-2.08
		c0-1.052,0.266-1.865,0.798-2.441c0.532-0.576,1.305-0.865,2.318-0.865c1,0,1.758,0.289,2.271,0.865
		c0.513,0.576,0.77,1.402,0.77,2.479v0.551h-1.976v-0.684c0-0.455-0.089-0.788-0.266-0.997c-0.178-0.209-0.437-0.313-0.779-0.313
		c-0.697,0-1.045,0.424-1.045,1.273c0,0.48,0.13,0.93,0.39,1.349c0.259,0.418,0.731,0.925,1.416,1.52
		c0.874,0.761,1.476,1.45,1.805,2.071c0.33,0.621,0.494,1.35,0.494,2.186c0,1.089-0.269,1.925-0.808,2.508
		c-0.538,0.582-1.32,0.873-2.346,0.873C77.818,25.705,77.052,25.418,76.532,24.842z"/>
	<path fill="#FFFFFF" d="M83.6,24.842c-0.52-0.577-0.779-1.403-0.779-2.48v-0.76h1.976v0.912c0,0.861,0.361,1.292,1.083,1.292
		c0.354,0,0.624-0.104,0.808-0.313c0.183-0.209,0.275-0.548,0.275-1.017c0-0.558-0.127-1.048-0.38-1.473
		c-0.254-0.424-0.722-0.934-1.406-1.529c-0.861-0.76-1.463-1.446-1.805-2.062c-0.342-0.614-0.513-1.308-0.513-2.08
		c0-1.052,0.266-1.865,0.798-2.441c0.532-0.576,1.305-0.865,2.318-0.865c1,0,1.758,0.289,2.271,0.865
		c0.513,0.576,0.77,1.402,0.77,2.479v0.551H87.04v-0.684c0-0.455-0.089-0.788-0.266-0.997c-0.178-0.209-0.437-0.313-0.779-0.313
		c-0.697,0-1.045,0.424-1.045,1.273c0,0.48,0.13,0.93,0.39,1.349c0.259,0.418,0.731,0.925,1.416,1.52
		c0.874,0.761,1.476,1.45,1.805,2.071c0.33,0.621,0.494,1.35,0.494,2.186c0,1.089-0.269,1.925-0.808,2.508
		c-0.538,0.582-1.32,0.873-2.346,0.873C84.886,25.705,84.12,25.418,83.6,24.842z"/>
	<path fill="#FFFFFF" d="M90.25,12.216h2.09v13.3h-2.09V12.216z"/>
	<path fill="#FFFFFF" d="M94.563,24.832c-0.544-0.583-0.817-1.406-0.817-2.471v-6.992c0-1.063,0.272-1.887,0.817-2.47
		c0.544-0.582,1.33-0.874,2.356-0.874c1.026,0,1.812,0.292,2.356,0.874c0.545,0.583,0.817,1.406,0.817,2.47v6.992
		c0,1.064-0.272,1.888-0.817,2.471c-0.544,0.582-1.33,0.873-2.356,0.873C95.893,25.705,95.107,25.414,94.563,24.832z M98.002,22.494
		v-7.258c0-0.873-0.361-1.311-1.083-1.311c-0.722,0-1.083,0.438-1.083,1.311v7.258c0,0.875,0.361,1.312,1.083,1.312
		C97.641,23.806,98.002,23.369,98.002,22.494z"/>
	<path fill="#FFFFFF" d="M101.498,12.216h2.622l2.033,7.961h0.038v-7.961h1.862v13.3h-2.147l-2.508-9.709h-0.038v9.709h-1.862
		V12.216z"/>
	<path fill="#FFFFFF" d="M111.226,12.216h2.831l2.166,13.3h-2.09l-0.38-2.641v0.037h-2.375l-0.38,2.604h-1.938L111.226,12.216z
		 M113.506,21.107l-0.931-6.574h-0.038l-0.912,6.574H113.506z"/>
	<path fill="#FFFFFF" d="M117.229,12.216h2.09v11.399h3.439v1.9h-5.529V12.216z"/>
	<path fill="#FFFFFF" d="M37.64,43.641c-0.52-0.576-0.779-1.402-0.779-2.479v-0.761h1.976v0.912c0,0.861,0.361,1.292,1.083,1.292
		c0.354,0,0.624-0.104,0.808-0.313c0.183-0.209,0.275-0.548,0.275-1.017c0-0.557-0.127-1.048-0.38-1.473
		c-0.254-0.424-0.722-0.934-1.406-1.529c-0.861-0.76-1.463-1.447-1.805-2.062c-0.342-0.614-0.513-1.308-0.513-2.081
		c0-1.051,0.266-1.864,0.798-2.441c0.532-0.576,1.305-0.864,2.318-0.864c1,0,1.758,0.288,2.271,0.864
		c0.513,0.577,0.77,1.403,0.77,2.48v0.551h-1.976v-0.684c0-0.457-0.089-0.789-0.266-0.998c-0.178-0.209-0.437-0.313-0.779-0.313
		c-0.697,0-1.045,0.425-1.045,1.272c0,0.482,0.13,0.932,0.39,1.35c0.259,0.418,0.731,0.924,1.416,1.52
		c0.874,0.76,1.476,1.451,1.805,2.071c0.33,0.62,0.494,1.349,0.494,2.185c0,1.09-0.269,1.926-0.808,2.508
		c-0.538,0.584-1.32,0.875-2.346,0.875C38.925,44.506,38.159,44.217,37.64,43.641z"/>
	<path fill="#FFFFFF" d="M44.29,31.016h3.078c1.039,0,1.817,0.279,2.337,0.836c0.52,0.558,0.779,1.375,0.779,2.451v1.311
		c0,1.077-0.26,1.895-0.779,2.451c-0.52,0.558-1.298,0.836-2.337,0.836H46.38v5.415h-2.09V31.016z M47.368,37
		c0.342,0,0.599-0.095,0.77-0.285c0.171-0.189,0.256-0.512,0.256-0.969V34.17c0-0.457-0.085-0.779-0.256-0.97
		s-0.427-0.284-0.77-0.284H46.38V37H47.368z"/>
	<path fill="#FFFFFF" d="M52.289,43.631c-0.544-0.582-0.817-1.405-0.817-2.469V34.17c0-1.064,0.272-1.888,0.817-2.471
		c0.544-0.582,1.33-0.874,2.356-0.874c1.026,0,1.812,0.292,2.356,0.874c0.545,0.583,0.817,1.406,0.817,2.471v6.992
		c0,1.063-0.272,1.887-0.817,2.469c-0.544,0.584-1.33,0.875-2.356,0.875C53.619,44.506,52.833,44.215,52.289,43.631z M55.728,41.295
		v-7.258c0-0.875-0.361-1.312-1.083-1.312c-0.722,0-1.083,0.437-1.083,1.312v7.258c0,0.873,0.361,1.311,1.083,1.311
		C55.367,42.605,55.728,42.168,55.728,41.295z"/>
	<path fill="#FFFFFF" d="M59.224,31.016h3.097c1.077,0,1.862,0.25,2.356,0.75c0.494,0.501,0.741,1.271,0.741,2.309v0.817
		c0,1.38-0.456,2.255-1.368,2.622v0.037c0.506,0.152,0.865,0.463,1.074,0.932s0.313,1.096,0.313,1.881V42.7
		c0,0.38,0.012,0.688,0.038,0.922s0.089,0.466,0.19,0.693h-2.128c-0.076-0.216-0.126-0.418-0.152-0.608
		c-0.025-0.189-0.038-0.531-0.038-1.025V40.25c0-0.608-0.098-1.033-0.294-1.273s-0.535-0.361-1.017-0.361h-0.722v5.7h-2.09V31.016z
		 M62.074,36.715c0.418,0,0.731-0.107,0.94-0.322s0.313-0.576,0.313-1.083v-1.026c0-0.48-0.085-0.829-0.256-1.045
		c-0.171-0.215-0.44-0.322-0.808-0.322h-0.95v3.799H62.074z"/>
	<path fill="#FFFFFF" d="M68.477,32.916h-2.185v-1.9h6.46v1.9h-2.185v11.399h-2.09V32.916z"/>
	<path fill="#FFFFFF" d="M76.798,31.016h3.078c1.039,0,1.817,0.279,2.337,0.836c0.52,0.558,0.779,1.375,0.779,2.451v1.311
		c0,1.077-0.26,1.895-0.779,2.451c-0.52,0.558-1.298,0.836-2.337,0.836h-0.988v5.415h-2.09V31.016z M79.876,37
		c0.342,0,0.599-0.095,0.77-0.285c0.171-0.189,0.256-0.512,0.256-0.969V34.17c0-0.457-0.085-0.779-0.256-0.97
		s-0.427-0.284-0.77-0.284h-0.988V37H79.876z"/>
	<path fill="#FFFFFF" d="M84.132,31.016h2.09v11.4h3.439v1.899h-5.529V31.016z"/>
	<path fill="#FFFFFF" d="M92.36,31.016h2.831l2.166,13.3h-2.09l-0.38-2.642v0.039h-2.375l-0.38,2.603h-1.938L92.36,31.016z
		 M94.64,39.907l-0.931-6.573h-0.038l-0.912,6.573H94.64z"/>
	<path fill="#FFFFFF" d="M99.409,38.653l-2.527-7.638h2.223l1.425,4.883h0.038l1.425-4.883h2.033l-2.527,7.638v5.662h-2.09V38.653z"
		/>
	<path fill="#FFFFFF" d="M104.975,31.016h5.7v1.9h-3.61v3.515h2.869v1.899h-2.869v4.086h3.61v1.899h-5.7V31.016z"/>
	<path fill="#FFFFFF" d="M111.872,31.016h3.097c1.077,0,1.862,0.25,2.356,0.75c0.494,0.501,0.741,1.271,0.741,2.309v0.817
		c0,1.38-0.456,2.255-1.368,2.622v0.037c0.506,0.152,0.865,0.463,1.074,0.932s0.313,1.096,0.313,1.881V42.7
		c0,0.38,0.012,0.688,0.038,0.922s0.089,0.466,0.19,0.693h-2.128c-0.076-0.216-0.126-0.418-0.152-0.608
		c-0.025-0.189-0.038-0.531-0.038-1.025V40.25c0-0.608-0.098-1.033-0.294-1.273s-0.535-0.361-1.017-0.361h-0.722v5.7h-2.09V31.016z
		 M114.722,36.715c0.418,0,0.731-0.107,0.94-0.322s0.313-0.576,0.313-1.083v-1.026c0-0.48-0.085-0.829-0.256-1.045
		c-0.171-0.215-0.44-0.322-0.808-0.322h-0.95v3.799H114.722z"/>
	<path fill="#FFFFFF" d="M119.947,43.641c-0.52-0.576-0.779-1.402-0.779-2.479v-0.761h1.976v0.912c0,0.861,0.361,1.292,1.083,1.292
		c0.354,0,0.624-0.104,0.808-0.313c0.183-0.209,0.275-0.548,0.275-1.017c0-0.557-0.127-1.048-0.38-1.473
		c-0.254-0.424-0.722-0.934-1.406-1.529c-0.861-0.76-1.463-1.447-1.805-2.062c-0.342-0.614-0.513-1.308-0.513-2.081
		c0-1.051,0.266-1.864,0.798-2.441c0.532-0.576,1.305-0.864,2.318-0.864c1,0,1.758,0.288,2.271,0.864
		c0.513,0.577,0.77,1.403,0.77,2.48v0.551h-1.976v-0.684c0-0.457-0.089-0.789-0.266-0.998c-0.178-0.209-0.437-0.313-0.779-0.313
		c-0.697,0-1.045,0.425-1.045,1.272c0,0.482,0.13,0.932,0.39,1.35c0.259,0.418,0.731,0.924,1.416,1.52
		c0.874,0.76,1.476,1.451,1.805,2.071c0.33,0.62,0.494,1.349,0.494,2.185c0,1.09-0.269,1.926-0.808,2.508
		c-0.538,0.584-1.32,0.875-2.346,0.875C121.233,44.506,120.467,44.217,119.947,43.641z"/>
</g>
</svg>
