<?xml version="1.0" encoding="utf-8"?>
<!-- Generator: Adobe Illustrator 16.0.0, SVG Export Plug-In . SVG Version: 6.00 Build 0)  -->
<!DOCTYPE svg PUBLIC "-//W3C//DTD SVG 1.1//EN" "http://www.w3.org/Graphics/SVG/1.1/DTD/svg11.dtd">
<svg version="1.1" id="Layer_1" xmlns="http://www.w3.org/2000/svg" xmlns:xlink="http://www.w3.org/1999/xlink" x="0px" y="0px"
	 width="157px" height="179px" viewBox="0 0 157 179" enable-background="new 0 0 157 179" xml:space="preserve">
<rect x="1" y="1" fill-rule="evenodd" clip-rule="evenodd" fill="#FFFFFF" stroke="#627D53" stroke-width="2" stroke-miterlimit="10" width="155" height="177"/>
<rect x="2" y="1" fill-rule="evenodd" clip-rule="evenodd" fill="#627D53" width="155" height="57"/>
<g>
	<path fill-rule="evenodd" clip-rule="evenodd" fill="#627D53" d="M34.999,123.448c0.223-0.821,0.736-1.485,1.196-2.176
		c8.854-13.284,17.71-26.565,26.566-39.848c1.25-1.876,3.617-2.2,5.22-0.704c0.245,0.225,0.447,0.504,0.641,0.777
		c5.014,7.1,10.024,14.199,15.036,21.297c0.058,0.084,0.119,0.167,0.194,0.269c0.637-0.735,1.262-1.458,1.886-2.179
		c2.498-2.887,4.996-5.773,7.494-8.66c0.301-0.348,0.594-0.703,0.902-1.043c1.453-1.601,3.915-1.494,5.23,0.215
		c3.456,4.488,6.915,8.971,10.372,13.457c3.514,4.56,7.025,9.12,10.539,13.682c0.897,1.166,1.802,2.329,2.7,3.495
		c1.595,2.073,0.595,4.919-1.958,5.483c-1.367,0.301-2.539-0.146-3.394-1.251c-4.467-5.778-8.92-11.569-13.377-17.355
		c-2.495-3.239-4.987-6.479-7.482-9.718c-0.067-0.087-0.142-0.168-0.23-0.272c-0.471,0.542-0.925,1.063-1.379,1.587
		c-2.054,2.365-4.108,4.73-6.162,7.096c-0.271,0.313-0.543,0.623-0.814,0.933c-0.145,0.167-0.169,0.314-0.025,0.52
		c1.456,2.081,2.902,4.169,4.345,6.26c0.29,0.422,0.628,0.833,0.814,1.302c0.643,1.627-0.133,3.498-1.71,4.248
		c-1.606,0.765-3.475,0.179-4.424-1.322c-0.66-1.044-1.395-2.043-2.109-3.051c-3.523-4.983-7.051-9.963-10.577-14.943
		c-2.844-4.018-5.688-8.033-8.532-12.049c-0.038-0.053-0.082-0.104-0.138-0.175c-0.07,0.103-0.133,0.191-0.194,0.281
		c-8.071,12.105-16.142,24.209-24.208,36.317c-0.548,0.822-1.259,1.406-2.231,1.634c-1.779,0.416-3.544-0.61-4.086-2.366
		c-0.028-0.094-0.07-0.184-0.105-0.275C34.999,124.424,34.999,123.938,34.999,123.448z"/>
	<path fill-rule="evenodd" clip-rule="evenodd" fill="#627D53" d="M34.999,149.973c0.409-0.705,0.932-1.306,1.706-1.604
		c0.411-0.158,0.867-0.285,1.303-0.285c27.396-0.012,54.79-0.012,82.185-0.012c1.748,0,3.153,1.059,3.502,2.635
		c0.472,2.135-1.014,4.074-3.216,4.191c-0.149,0.009-0.3,0.006-0.45,0.006c-27.085,0.001-54.17,0.003-81.256-0.004
		c-0.494,0-1,0.007-1.479-0.097c-0.942-0.197-1.657-0.756-2.156-1.582c-0.042-0.073-0.092-0.138-0.14-0.206
		C34.999,152.001,34.999,150.986,34.999,149.973z"/>
	<path fill-rule="evenodd" clip-rule="evenodd" fill="#627D53" d="M34.999,136.288c0.249-0.312,0.467-0.651,0.75-0.928
		c0.625-0.613,1.386-0.933,2.277-0.933c27.451,0.004,54.902,0.002,82.354,0.004c1.606,0,2.981,1.105,3.32,2.666
		c0.346,1.594-0.434,3.17-1.904,3.84c-0.466,0.211-0.957,0.308-1.471,0.308c-27.226-0.001-54.453-0.001-81.679,0.002
		c-0.563,0-1.122,0.028-1.665-0.172c-0.748-0.274-1.344-0.731-1.775-1.402c-0.064-0.099-0.138-0.191-0.208-0.286
		C34.999,138.354,34.999,137.32,34.999,136.288z"/>
</g>
<g>
	<path fill="#FFFFFF" d="M45.678,35.234c-0.52-0.576-0.779-1.402-0.779-2.479v-0.761h1.976v0.912c0,0.861,0.361,1.292,1.083,1.292
		c0.354,0,0.624-0.104,0.808-0.313c0.183-0.209,0.275-0.548,0.275-1.017c0-0.557-0.127-1.048-0.38-1.473
		c-0.254-0.424-0.722-0.934-1.406-1.529c-0.861-0.76-1.463-1.447-1.805-2.062c-0.342-0.614-0.513-1.308-0.513-2.081
		c0-1.051,0.266-1.864,0.798-2.441c0.532-0.576,1.305-0.864,2.318-0.864c1,0,1.758,0.288,2.271,0.864
		c0.513,0.577,0.77,1.403,0.77,2.48v0.551h-1.976v-0.684c0-0.457-0.089-0.789-0.266-0.998c-0.178-0.209-0.437-0.313-0.779-0.313
		c-0.697,0-1.045,0.425-1.045,1.272c0,0.482,0.13,0.932,0.39,1.35c0.259,0.418,0.731,0.924,1.416,1.52
		c0.874,0.76,1.476,1.451,1.805,2.071c0.33,0.62,0.494,1.349,0.494,2.185c0,1.09-0.269,1.926-0.808,2.508
		c-0.538,0.584-1.32,0.875-2.346,0.875C46.963,36.1,46.197,35.811,45.678,35.234z"/>
	<path fill="#FFFFFF" d="M52.328,22.609h2.09v5.605l2.66-5.605h2.09l-2.489,4.883l2.527,8.417h-2.185l-1.767-5.929l-0.836,1.691
		v4.237h-2.09V22.609z"/>
	<path fill="#FFFFFF" d="M60.193,22.609h2.09v13.3h-2.09V22.609z"/>
	<path fill="#FFFFFF" d="M66.881,22.609h3.097c1.077,0,1.862,0.25,2.356,0.75c0.494,0.501,0.741,1.271,0.741,2.309v0.817
		c0,1.38-0.456,2.255-1.368,2.622v0.037c0.506,0.152,0.865,0.463,1.074,0.932s0.313,1.096,0.313,1.881v2.337
		c0,0.38,0.012,0.688,0.038,0.922s0.089,0.466,0.19,0.693h-2.128c-0.076-0.216-0.126-0.418-0.152-0.608
		c-0.025-0.189-0.038-0.531-0.038-1.025v-2.432c0-0.608-0.098-1.033-0.294-1.273s-0.535-0.361-1.017-0.361h-0.722v5.7h-2.09V22.609z
		 M69.731,28.309c0.418,0,0.731-0.107,0.94-0.322s0.313-0.576,0.313-1.083v-1.026c0-0.48-0.085-0.829-0.256-1.045
		c-0.171-0.215-0.44-0.322-0.808-0.322h-0.95v3.799H69.731z"/>
	<path fill="#FFFFFF" d="M74.538,22.609h5.7v1.9h-3.61v3.515h2.869v1.899h-2.869v4.086h3.61v1.899h-5.7V22.609z"/>
	<path fill="#FFFFFF" d="M81.891,35.234c-0.52-0.576-0.779-1.402-0.779-2.479v-0.761h1.976v0.912c0,0.861,0.361,1.292,1.083,1.292
		c0.354,0,0.624-0.104,0.808-0.313c0.183-0.209,0.275-0.548,0.275-1.017c0-0.557-0.127-1.048-0.38-1.473
		c-0.254-0.424-0.722-0.934-1.406-1.529c-0.861-0.76-1.463-1.447-1.805-2.062c-0.342-0.614-0.513-1.308-0.513-2.081
		c0-1.051,0.266-1.864,0.798-2.441c0.532-0.576,1.305-0.864,2.318-0.864c1,0,1.758,0.288,2.271,0.864
		c0.513,0.577,0.77,1.403,0.77,2.48v0.551h-1.976v-0.684c0-0.457-0.089-0.789-0.266-0.998c-0.178-0.209-0.437-0.313-0.779-0.313
		c-0.697,0-1.045,0.425-1.045,1.272c0,0.482,0.13,0.932,0.39,1.35c0.259,0.418,0.731,0.924,1.416,1.52
		c0.874,0.76,1.476,1.451,1.805,2.071c0.33,0.62,0.494,1.349,0.494,2.185c0,1.09-0.269,1.926-0.808,2.508
		c-0.538,0.584-1.32,0.875-2.346,0.875C83.177,36.1,82.411,35.811,81.891,35.234z"/>
	<path fill="#FFFFFF" d="M89.206,35.225c-0.544-0.582-0.817-1.405-0.817-2.469v-6.992c0-1.064,0.272-1.888,0.817-2.471
		c0.544-0.582,1.33-0.874,2.356-0.874c1.026,0,1.812,0.292,2.356,0.874c0.545,0.583,0.817,1.406,0.817,2.471v6.992
		c0,1.063-0.272,1.887-0.817,2.469c-0.544,0.584-1.33,0.875-2.356,0.875C90.536,36.1,89.75,35.809,89.206,35.225z M92.645,32.889
		v-7.258c0-0.875-0.361-1.312-1.083-1.312c-0.722,0-1.083,0.437-1.083,1.312v7.258c0,0.873,0.361,1.311,1.083,1.311
		C92.284,34.199,92.645,33.762,92.645,32.889z"/>
	<path fill="#FFFFFF" d="M96.141,22.609h3.097c1.077,0,1.862,0.25,2.356,0.75c0.494,0.501,0.741,1.271,0.741,2.309v0.817
		c0,1.38-0.456,2.255-1.368,2.622v0.037c0.506,0.152,0.865,0.463,1.074,0.932s0.313,1.096,0.313,1.881v2.337
		c0,0.38,0.012,0.688,0.038,0.922s0.089,0.466,0.19,0.693h-2.128c-0.076-0.216-0.126-0.418-0.152-0.608
		c-0.025-0.189-0.038-0.531-0.038-1.025v-2.432c0-0.608-0.098-1.033-0.294-1.273s-0.535-0.361-1.017-0.361h-0.722v5.7h-2.09V22.609z
		 M98.991,28.309c0.418,0,0.731-0.107,0.94-0.322s0.313-0.576,0.313-1.083v-1.026c0-0.48-0.085-0.829-0.256-1.045
		c-0.171-0.215-0.44-0.322-0.808-0.322h-0.95v3.799H98.991z"/>
	<path fill="#FFFFFF" d="M105.395,24.51h-2.185v-1.9h6.46v1.9h-2.185v11.399h-2.09V24.51z"/>
	<path fill="#FFFFFF" d="M111.094,35.234c-0.52-0.576-0.779-1.402-0.779-2.479v-0.761h1.976v0.912c0,0.861,0.361,1.292,1.083,1.292
		c0.354,0,0.624-0.104,0.808-0.313c0.183-0.209,0.275-0.548,0.275-1.017c0-0.557-0.127-1.048-0.38-1.473
		c-0.254-0.424-0.722-0.934-1.406-1.529c-0.861-0.76-1.463-1.447-1.805-2.062c-0.342-0.614-0.513-1.308-0.513-2.081
		c0-1.051,0.266-1.864,0.798-2.441c0.532-0.576,1.305-0.864,2.318-0.864c1,0,1.758,0.288,2.271,0.864
		c0.513,0.577,0.77,1.403,0.77,2.48v0.551h-1.976v-0.684c0-0.457-0.089-0.789-0.266-0.998c-0.178-0.209-0.437-0.313-0.779-0.313
		c-0.697,0-1.045,0.425-1.045,1.272c0,0.482,0.13,0.932,0.39,1.35c0.259,0.418,0.731,0.924,1.416,1.52
		c0.874,0.76,1.476,1.451,1.805,2.071c0.33,0.62,0.494,1.349,0.494,2.185c0,1.09-0.269,1.926-0.808,2.508
		c-0.538,0.584-1.32,0.875-2.346,0.875C112.38,36.1,111.614,35.811,111.094,35.234z"/>
</g>
</svg>
