<?xml version="1.0" encoding="utf-8"?>
<!-- Generator: Adobe Illustrator 16.0.0, SVG Export Plug-In . SVG Version: 6.00 Build 0)  -->
<!DOCTYPE svg PUBLIC "-//W3C//DTD SVG 1.1//EN" "http://www.w3.org/Graphics/SVG/1.1/DTD/svg11.dtd">
<svg version="1.1" id="Layer_1" xmlns="http://www.w3.org/2000/svg" xmlns:xlink="http://www.w3.org/1999/xlink" x="0px" y="0px"
	 width="157px" height="179px" viewBox="0 0 157 179" enable-background="new 0 0 157 179" xml:space="preserve">
<rect x="1" y="1" fill-rule="evenodd" clip-rule="evenodd" fill="#FFFFFF" stroke="#627D53" stroke-width="2" stroke-miterlimit="10" width="155" height="177"/>
<rect x="2" y="1" fill-rule="evenodd" clip-rule="evenodd" fill="#627D53" width="155" height="56"/>
<g>
	<path fill="#FFFFFF" d="M28.061,26.654c-0.471-0.51-0.706-1.229-0.706-2.158v-6.393c0-0.929,0.235-1.648,0.706-2.158
		c0.47-0.51,1.153-0.766,2.048-0.766c0.895,0,1.578,0.256,2.048,0.766s0.706,1.229,0.706,2.158v1.258h-1.768v-1.377
		c0-0.736-0.312-1.104-0.935-1.104c-0.623,0-0.935,0.368-0.935,1.104v6.647c0,0.726,0.312,1.089,0.935,1.089
		c0.624,0,0.935-0.363,0.935-1.089v-1.819h1.768v1.684c0,0.93-0.235,1.648-0.706,2.158c-0.47,0.511-1.153,0.766-2.048,0.766
		C29.213,27.42,28.53,27.165,28.061,26.654z"/>
	<path fill="#FFFFFF" d="M34.614,26.639c-0.487-0.521-0.731-1.259-0.731-2.211v-6.256c0-0.951,0.244-1.688,0.731-2.21
		c0.487-0.521,1.19-0.782,2.108-0.782s1.621,0.262,2.108,0.782c0.487,0.521,0.731,1.259,0.731,2.21v6.256
		c0,0.952-0.244,1.689-0.731,2.211c-0.487,0.521-1.19,0.781-2.108,0.781S35.101,27.159,34.614,26.639z M37.691,24.547v-6.494
		c0-0.781-0.323-1.173-0.969-1.173s-0.969,0.392-0.969,1.173v6.494c0,0.782,0.323,1.174,0.969,1.174S37.691,25.329,37.691,24.547z"
		/>
	<path fill="#FFFFFF" d="M40.818,15.35h2.669l1.19,8.518h0.034l1.19-8.518h2.669v11.9h-1.768v-9.01h-0.034l-1.36,9.01h-1.564
		l-1.36-9.01h-0.034v9.01h-1.632V15.35z"/>
	<path fill="#FFFFFF" d="M49.964,15.35h2.754c0.929,0,1.626,0.25,2.091,0.748c0.464,0.499,0.697,1.23,0.697,2.193v1.173
		c0,0.964-0.232,1.694-0.697,2.193c-0.465,0.499-1.162,0.747-2.091,0.747h-0.884v4.846h-1.87V15.35z M52.719,20.705
		c0.306,0,0.535-0.085,0.688-0.255c0.153-0.171,0.229-0.459,0.229-0.867v-1.411c0-0.408-0.077-0.697-0.229-0.867
		c-0.153-0.17-0.383-0.255-0.688-0.255h-0.884v3.655H52.719z"/>
	<path fill="#FFFFFF" d="M57.376,15.35h2.533l1.938,11.9h-1.87l-0.34-2.363v0.034h-2.125l-0.34,2.329h-1.734L57.376,15.35z
		 M59.416,23.307l-0.833-5.883h-0.034l-0.816,5.883H59.416z"/>
	<path fill="#FFFFFF" d="M62.748,15.35h2.346l1.819,7.123h0.034V15.35h1.666v11.9h-1.921l-2.244-8.688h-0.034v8.688h-1.666V15.35z"
		/>
	<path fill="#FFFFFF" d="M71.724,22.184l-2.261-6.834h1.989l1.275,4.369h0.034l1.275-4.369h1.819l-2.261,6.834v5.066h-1.87V22.184z"
		/>
	<path fill="#FFFFFF" d="M80.869,15.35h2.533l1.938,11.9h-1.87l-0.34-2.363v0.034h-2.125l-0.34,2.329h-1.734L80.869,15.35z
		 M82.909,23.307l-0.833-5.883h-0.034l-0.816,5.883H82.909z"/>
	<path fill="#FFFFFF" d="M86.794,26.654c-0.471-0.51-0.706-1.229-0.706-2.158v-6.393c0-0.929,0.235-1.648,0.706-2.158
		c0.47-0.51,1.153-0.766,2.048-0.766c0.895,0,1.578,0.256,2.048,0.766s0.706,1.229,0.706,2.158v1.258h-1.768v-1.377
		c0-0.736-0.312-1.104-0.935-1.104c-0.623,0-0.935,0.368-0.935,1.104v6.647c0,0.726,0.312,1.089,0.935,1.089
		c0.624,0,0.935-0.363,0.935-1.089v-1.819h1.768v1.684c0,0.93-0.235,1.648-0.706,2.158c-0.47,0.511-1.153,0.766-2.048,0.766
		C87.947,27.42,87.264,27.165,86.794,26.654z"/>
	<path fill="#FFFFFF" d="M93.338,26.654c-0.471-0.51-0.706-1.229-0.706-2.158v-6.393c0-0.929,0.235-1.648,0.706-2.158
		c0.47-0.51,1.153-0.766,2.048-0.766c0.895,0,1.578,0.256,2.048,0.766s0.706,1.229,0.706,2.158v1.258h-1.768v-1.377
		c0-0.736-0.312-1.104-0.935-1.104c-0.623,0-0.935,0.368-0.935,1.104v6.647c0,0.726,0.312,1.089,0.935,1.089
		c0.624,0,0.935-0.363,0.935-1.089v-1.819h1.768v1.684c0,0.93-0.235,1.648-0.706,2.158c-0.47,0.511-1.153,0.766-2.048,0.766
		C94.491,27.42,93.808,27.165,93.338,26.654z"/>
	<path fill="#FFFFFF" d="M99.892,26.639c-0.487-0.521-0.731-1.259-0.731-2.211v-6.256c0-0.951,0.244-1.688,0.731-2.21
		c0.487-0.521,1.19-0.782,2.108-0.782s1.621,0.262,2.108,0.782c0.487,0.521,0.731,1.259,0.731,2.21v6.256
		c0,0.952-0.244,1.689-0.731,2.211c-0.487,0.521-1.19,0.781-2.108,0.781S100.379,27.159,99.892,26.639z M102.969,24.547v-6.494
		c0-0.781-0.323-1.173-0.969-1.173s-0.969,0.392-0.969,1.173v6.494c0,0.782,0.323,1.174,0.969,1.174S102.969,25.329,102.969,24.547z
		"/>
	<path fill="#FFFFFF" d="M106.742,26.646c-0.476-0.516-0.714-1.255-0.714-2.219V15.35h1.87v9.215c0,0.408,0.082,0.702,0.247,0.884
		c0.164,0.181,0.399,0.272,0.706,0.272c0.306,0,0.541-0.092,0.706-0.272c0.164-0.182,0.246-0.476,0.246-0.884V15.35h1.802v9.078
		c0,0.964-0.238,1.703-0.714,2.219c-0.476,0.516-1.167,0.773-2.074,0.773S107.218,27.162,106.742,26.646z"/>
	<path fill="#FFFFFF" d="M112.93,15.35h2.346l1.819,7.123h0.034V15.35h1.666v11.9h-1.921l-2.244-8.688h-0.034v8.688h-1.666V15.35z"
		/>
	<path fill="#FFFFFF" d="M121.651,17.05h-1.955v-1.7h5.78v1.7h-1.955v10.2h-1.87V17.05z"/>
	<path fill="#FFFFFF" d="M126.751,26.646c-0.465-0.516-0.697-1.255-0.697-2.219v-0.68h1.768v0.816c0,0.771,0.323,1.156,0.969,1.156
		c0.317,0,0.558-0.094,0.723-0.281c0.164-0.188,0.247-0.49,0.247-0.91c0-0.498-0.113-0.938-0.34-1.316
		c-0.227-0.38-0.646-0.836-1.258-1.369c-0.771-0.68-1.309-1.295-1.615-1.844c-0.306-0.551-0.459-1.17-0.459-1.861
		c0-0.941,0.238-1.67,0.714-2.186s1.167-0.773,2.074-0.773c0.896,0,1.573,0.258,2.032,0.773s0.688,1.256,0.688,2.219v0.493h-1.768
		v-0.612c0-0.408-0.08-0.705-0.238-0.893c-0.159-0.187-0.391-0.28-0.697-0.28c-0.624,0-0.935,0.38-0.935,1.14
		c0,0.43,0.116,0.832,0.349,1.207c0.232,0.373,0.654,0.826,1.267,1.359c0.782,0.68,1.32,1.298,1.615,1.854
		c0.295,0.555,0.442,1.207,0.442,1.955c0,0.975-0.241,1.723-0.723,2.244c-0.482,0.521-1.182,0.781-2.1,0.781
		C127.901,27.42,127.216,27.162,126.751,26.646z"/>
	<path fill="#FFFFFF" d="M33.538,32.2h0.87c-0.351,0.72-0.632,1.56-0.843,2.519c-0.211,0.96-0.317,1.95-0.317,2.971
		c0,0.945,0.08,1.856,0.239,2.734c0.159,0.877,0.378,1.648,0.658,2.314h-0.827c-0.265-0.637-0.476-1.388-0.634-2.25
		c-0.158-0.863-0.236-1.762-0.236-2.697c0-1.006,0.093-1.986,0.279-2.94S33.183,33.014,33.538,32.2z"/>
	<path fill="#FFFFFF" d="M38.624,32.549h0.79v5.334c0,0.82-0.063,1.391-0.19,1.711c-0.127,0.32-0.339,0.576-0.637,0.768
		s-0.657,0.287-1.08,0.287c-0.319,0-0.633-0.062-0.943-0.185c-0.31-0.124-0.652-0.341-1.028-0.653l0.419-0.628
		c0.413,0.29,0.755,0.494,1.028,0.612c0.18,0.078,0.355,0.118,0.527,0.118c0.226,0,0.432-0.067,0.616-0.204
		c0.185-0.137,0.314-0.316,0.388-0.543c0.074-0.225,0.11-0.662,0.11-1.311V32.549z"/>
	<path fill="#FFFFFF" d="M41.116,34.606h0.752v2.729c0,0.666,0.036,1.124,0.107,1.375c0.108,0.358,0.313,0.642,0.616,0.849
		c0.303,0.207,0.664,0.312,1.084,0.312c0.419,0,0.775-0.101,1.067-0.304c0.292-0.202,0.494-0.468,0.605-0.797
		c0.075-0.227,0.113-0.704,0.113-1.435v-2.729h0.768v2.868c0,0.806-0.094,1.412-0.282,1.82c-0.188,0.408-0.471,0.729-0.849,0.959
		c-0.377,0.231-0.851,0.347-1.42,0.347s-1.044-0.115-1.426-0.347c-0.381-0.23-0.666-0.553-0.854-0.967
		c-0.188-0.413-0.282-1.035-0.282-1.866V34.606z"/>
	<path fill="#FFFFFF" d="M50.838,35.246l-0.483,0.499c-0.402-0.39-0.795-0.585-1.179-0.585c-0.244,0-0.454,0.08-0.627,0.241
		c-0.174,0.161-0.261,0.349-0.261,0.563c0,0.19,0.072,0.371,0.215,0.543c0.144,0.176,0.445,0.381,0.904,0.617
		c0.56,0.291,0.94,0.57,1.141,0.838c0.197,0.272,0.296,0.578,0.296,0.919c0,0.479-0.168,0.886-0.506,1.22
		c-0.337,0.332-0.758,0.499-1.264,0.499c-0.337,0-0.659-0.073-0.966-0.22c-0.307-0.147-0.561-0.35-0.761-0.607l0.473-0.537
		c0.384,0.434,0.792,0.65,1.222,0.65c0.301,0,0.558-0.098,0.77-0.291c0.212-0.193,0.318-0.42,0.318-0.682
		c0-0.215-0.07-0.406-0.21-0.574c-0.14-0.165-0.456-0.373-0.947-0.623c-0.527-0.272-0.886-0.541-1.077-0.807
		c-0.19-0.265-0.285-0.566-0.285-0.907c0-0.444,0.151-0.813,0.455-1.106s0.686-0.44,1.149-0.44
		C49.751,34.456,50.292,34.719,50.838,35.246z"/>
	<path fill="#FFFFFF" d="M52.825,32.437h0.752v2.17h1.192v0.649h-1.192v5.194h-0.752v-5.194h-1.026v-0.649h1.026V32.437z"/>
	<path fill="#FFFFFF" d="M61.349,32.351v0.735c-0.276-0.117-0.512-0.177-0.709-0.177c-0.147,0-0.269,0.029-0.365,0.089
		c-0.097,0.059-0.158,0.127-0.183,0.204s-0.038,0.282-0.038,0.614l0,0.79h1.22v0.649h-1.22l-0.004,5.194h-0.752v-5.194h-0.768
		v-0.649h0.768v-0.913c0-0.419,0.039-0.718,0.115-0.896c0.077-0.18,0.208-0.324,0.393-0.433c0.184-0.109,0.407-0.164,0.668-0.164
		C60.717,32.2,61.009,32.25,61.349,32.351z"/>
	<path fill="#FFFFFF" d="M65.163,34.456c0.9,0,1.646,0.325,2.238,0.978c0.538,0.594,0.807,1.298,0.807,2.111
		c0,0.816-0.284,1.529-0.853,2.14c-0.568,0.61-1.299,0.916-2.192,0.916c-0.897,0-1.629-0.306-2.198-0.916
		c-0.569-0.61-0.853-1.323-0.853-2.14c0-0.81,0.269-1.512,0.807-2.105C63.511,34.783,64.259,34.456,65.163,34.456z M65.16,35.191
		c-0.625,0-1.163,0.231-1.612,0.693s-0.674,1.021-0.674,1.676c0,0.422,0.103,0.816,0.307,1.182c0.205,0.365,0.481,0.647,0.83,0.846
		c0.349,0.199,0.731,0.299,1.148,0.299c0.417,0,0.799-0.1,1.148-0.299c0.349-0.198,0.625-0.48,0.83-0.846
		c0.205-0.365,0.307-0.76,0.307-1.182c0-0.655-0.226-1.214-0.676-1.676C66.318,35.423,65.782,35.191,65.16,35.191z"/>
	<path fill="#FFFFFF" d="M69.314,34.606h0.768v0.854c0.229-0.337,0.471-0.589,0.725-0.755c0.254-0.167,0.519-0.25,0.795-0.25
		c0.208,0,0.43,0.066,0.666,0.198l-0.392,0.635c-0.158-0.068-0.29-0.103-0.397-0.103c-0.25,0-0.492,0.103-0.725,0.309
		s-0.41,0.526-0.532,0.959c-0.093,0.333-0.14,1.007-0.14,2.02v1.977h-0.768V34.606z"/>
	<path fill="#FFFFFF" d="M75.325,34.606h0.795l2.008,4.5l1.95-4.5h0.8l-3.486,7.981h-0.794l1.125-2.58L75.325,34.606z"/>
	<path fill="#FFFFFF" d="M84.617,34.456c0.9,0,1.646,0.325,2.238,0.978c0.538,0.594,0.807,1.298,0.807,2.111
		c0,0.816-0.284,1.529-0.853,2.14c-0.568,0.61-1.299,0.916-2.192,0.916c-0.897,0-1.629-0.306-2.198-0.916
		c-0.569-0.61-0.853-1.323-0.853-2.14c0-0.81,0.269-1.512,0.807-2.105C82.965,34.783,83.713,34.456,84.617,34.456z M84.614,35.191
		c-0.625,0-1.163,0.231-1.612,0.693s-0.674,1.021-0.674,1.676c0,0.422,0.103,0.816,0.307,1.182c0.205,0.365,0.481,0.647,0.83,0.846
		c0.349,0.199,0.731,0.299,1.148,0.299c0.417,0,0.799-0.1,1.148-0.299c0.349-0.198,0.625-0.48,0.83-0.846
		c0.205-0.365,0.307-0.76,0.307-1.182c0-0.655-0.226-1.214-0.676-1.676C85.772,35.423,85.236,35.191,84.614,35.191z"/>
	<path fill="#FFFFFF" d="M88.957,34.606h0.752v2.729c0,0.666,0.036,1.124,0.107,1.375c0.108,0.358,0.313,0.642,0.616,0.849
		c0.303,0.207,0.664,0.312,1.084,0.312c0.419,0,0.775-0.101,1.067-0.304c0.292-0.202,0.494-0.468,0.605-0.797
		c0.075-0.227,0.113-0.704,0.113-1.435v-2.729h0.768v2.868c0,0.806-0.094,1.412-0.282,1.82c-0.188,0.408-0.471,0.729-0.849,0.959
		c-0.377,0.231-0.851,0.347-1.42,0.347s-1.044-0.115-1.426-0.347c-0.381-0.23-0.666-0.553-0.854-0.967
		c-0.188-0.413-0.282-1.035-0.282-1.866V34.606z"/>
	<path fill="#FFFFFF" d="M95.456,34.606h0.768v0.854c0.229-0.337,0.471-0.589,0.725-0.755c0.254-0.167,0.519-0.25,0.795-0.25
		c0.208,0,0.43,0.066,0.666,0.198l-0.392,0.635c-0.158-0.068-0.29-0.103-0.397-0.103c-0.25,0-0.492,0.103-0.725,0.309
		s-0.41,0.526-0.532,0.959c-0.093,0.333-0.14,1.007-0.14,2.02v1.977h-0.768V34.606z"/>
	<path fill="#FFFFFF" d="M105.032,35.246l-0.483,0.499c-0.402-0.39-0.795-0.585-1.179-0.585c-0.244,0-0.454,0.08-0.627,0.241
		c-0.174,0.161-0.261,0.349-0.261,0.563c0,0.19,0.072,0.371,0.215,0.543c0.144,0.176,0.445,0.381,0.904,0.617
		c0.56,0.291,0.94,0.57,1.141,0.838c0.197,0.272,0.296,0.578,0.296,0.919c0,0.479-0.168,0.886-0.506,1.22
		c-0.337,0.332-0.758,0.499-1.264,0.499c-0.337,0-0.659-0.073-0.966-0.22c-0.307-0.147-0.561-0.35-0.761-0.607l0.473-0.537
		c0.384,0.434,0.792,0.65,1.222,0.65c0.301,0,0.558-0.098,0.77-0.291c0.212-0.193,0.318-0.42,0.318-0.682
		c0-0.215-0.07-0.406-0.21-0.574c-0.14-0.165-0.456-0.373-0.947-0.623c-0.527-0.272-0.886-0.541-1.077-0.807
		c-0.19-0.265-0.285-0.566-0.285-0.907c0-0.444,0.151-0.813,0.455-1.106s0.686-0.44,1.149-0.44
		C103.945,34.456,104.487,34.719,105.032,35.246z"/>
	<path fill="#FFFFFF" d="M107.02,32.437h0.752v2.17h1.192v0.649h-1.192v5.194h-0.752v-5.194h-1.026v-0.649h1.026V32.437z"/>
	<path fill="#FFFFFF" d="M115.914,34.606v5.844h-0.741v-1.005c-0.315,0.384-0.669,0.672-1.061,0.865
		c-0.393,0.193-0.821,0.29-1.287,0.29c-0.827,0-1.534-0.3-2.119-0.899c-0.586-0.6-0.878-1.33-0.878-2.189
		c0-0.841,0.295-1.561,0.886-2.158c0.591-0.599,1.302-0.897,2.132-0.897c0.48,0,0.914,0.103,1.302,0.306
		c0.389,0.205,0.73,0.511,1.023,0.919v-1.074H115.914z M112.909,35.182c-0.418,0-0.805,0.103-1.159,0.309
		c-0.354,0.205-0.636,0.494-0.845,0.865c-0.209,0.373-0.314,0.766-0.314,1.181c0,0.411,0.105,0.806,0.316,1.181
		s0.495,0.668,0.851,0.877c0.355,0.209,0.737,0.314,1.145,0.314c0.412,0,0.801-0.104,1.17-0.312c0.368-0.208,0.652-0.488,0.85-0.843
		c0.199-0.354,0.298-0.752,0.298-1.196c0-0.676-0.223-1.241-0.668-1.695S113.56,35.182,112.909,35.182z"/>
	<path fill="#FFFFFF" d="M120.012,32.351v0.735c-0.276-0.117-0.512-0.177-0.709-0.177c-0.147,0-0.269,0.029-0.365,0.089
		c-0.097,0.059-0.158,0.127-0.183,0.204s-0.038,0.282-0.038,0.614l0,0.79h1.22v0.649h-1.22l-0.004,5.194h-0.752v-5.194h-0.768
		v-0.649h0.768v-0.913c0-0.419,0.039-0.718,0.115-0.896c0.077-0.18,0.208-0.324,0.393-0.433c0.184-0.109,0.407-0.164,0.668-0.164
		C119.38,32.2,119.672,32.25,120.012,32.351z"/>
	<path fill="#FFFFFF" d="M123.498,32.351v0.735c-0.276-0.117-0.512-0.177-0.709-0.177c-0.147,0-0.269,0.029-0.365,0.089
		c-0.097,0.059-0.158,0.127-0.183,0.204s-0.038,0.282-0.038,0.614l0,0.79h1.22v0.649h-1.22l-0.004,5.194h-0.752v-5.194h-0.768
		v-0.649h0.768v-0.913c0-0.419,0.039-0.718,0.115-0.896c0.077-0.18,0.208-0.324,0.393-0.433c0.184-0.109,0.407-0.164,0.668-0.164
		C122.866,32.2,123.158,32.25,123.498,32.351z"/>
	<path fill="#FFFFFF" d="M125.244,42.738h-0.87c0.354-0.72,0.637-1.56,0.846-2.52c0.21-0.959,0.314-1.949,0.314-2.97
		c0-0.945-0.08-1.856-0.239-2.733c-0.159-0.878-0.378-1.649-0.658-2.315h0.827c0.269,0.638,0.481,1.389,0.636,2.253
		c0.156,0.865,0.234,1.765,0.234,2.699c0,1.002-0.093,1.98-0.279,2.936C125.869,41.042,125.598,41.926,125.244,42.738z"/>
</g>
<g>
	<g>
		<path fill-rule="evenodd" clip-rule="evenodd" fill="#627D53" d="M118.166,96.69c-0.798,2.198-1.536,4.236-2.314,6.382
			c-0.786-1.448-1.359-2.51-1.935-3.571c-0.501,1.108-1.005,2.218-1.651,3.644c-0.866-2.246-1.686-4.37-2.583-6.693
			c-2.43,1.312-4.663,2.401-6.753,3.722c-0.579,0.364-1.106,1.468-1.006,2.133c0.481,3.202,1.184,6.374,1.836,9.696
			c6.481,0,12.604,0.053,18.723-0.069c0.721-0.015,1.837-0.826,2.074-1.51c2.878-8.317,2.343-9.585-5.351-13.511
			C119.018,96.817,118.783,96.817,118.166,96.69z M127.833,105.366c4.94,0,9.342,0.078,13.733-0.084
			c0.659-0.021,1.814-1.147,1.823-1.778c0.056-3.331,3.273-6.77,0.499-9.847c-1.613-1.787-4.374-2.544-6.788-3.855
			c-0.948,2.443-1.729,4.459-2.556,6.594c-0.691-1.391-1.225-2.463-1.76-3.539c-0.558,1.098-1.115,2.199-1.807,3.564
			c-0.839-2.25-1.634-4.379-2.509-6.723c-2.944,1.68-5.503,3.136-8.203,4.676C123.653,97.896,131.226,97.585,127.833,105.366z
			 M95.334,92.67c-0.389,0.206-0.78,0.412-1.169,0.614c-0.049,1.001-0.096,2.002-0.145,3.003c-0.2,0.017-0.4,0.036-0.601,0.053
			c-0.774-2.06-1.547-4.12-2.46-6.552c-2.498,1.354-4.821,2.474-6.992,3.836c-1.372,0.858,0.174,10.905,1.685,11.584
			c0.199,0.089,0.442,0.105,0.666,0.105c4.502,0.006,9.004,0.003,13.963,0.003c-3.482-7.989,4.477-7.392,7.507-11.025
			c-2.783-1.54-5.404-2.991-8.28-4.581c-0.885,2.421-1.672,4.567-2.549,6.963C96.313,95.075,95.824,93.874,95.334,92.67z
			 M113.896,81.971c-3.708,0.063-6.369,2.796-6.317,6.491c0.048,3.538,3.024,6.436,6.541,6.365c3.504-0.069,6.423-3.082,6.38-6.594
			C120.455,84.664,117.548,81.906,113.896,81.971z M94.979,88.125c3.663,0.078,6.616-2.713,6.676-6.308
			c0.06-3.633-2.752-6.558-6.367-6.619c-3.468-0.061-6.583,3.033-6.558,6.508C88.756,85.106,91.625,88.056,94.979,88.125z
			 M132.723,88.111c3.621,0.039,6.503-2.83,6.479-6.449c-0.025-3.522-2.697-6.291-6.189-6.408c-3.571-0.119-6.622,2.73-6.73,6.28
			C126.176,85.001,129.185,88.072,132.723,88.111z"/>
		<path fill-rule="evenodd" clip-rule="evenodd" fill="#627D53" d="M118.166,96.69c0.617,0.127,0.852,0.127,1.039,0.222
			c7.694,3.926,8.229,5.193,5.351,13.511c-0.236,0.684-1.353,1.495-2.074,1.51c-6.119,0.122-12.241,0.069-18.723,0.069
			c-0.652-3.322-1.355-6.494-1.836-9.696c-0.1-0.665,0.428-1.769,1.006-2.133c2.09-1.32,4.324-2.41,6.753-3.722
			c0.896,2.323,3.732,4.158,4.234,3.05C114.492,100.563,117.368,98.889,118.166,96.69z"/>
		<path fill-rule="evenodd" clip-rule="evenodd" fill="#627D53" d="M127.833,105.366c3.393-7.781-4.179-7.47-7.568-10.992
			c2.7-1.54,5.259-2.996,8.203-4.676c0.875,2.344,1.669,4.473,2.509,6.723c0.692-1.365,1.25-2.467,1.807-3.564
			c0.535,1.076,1.069,2.148,1.76,3.539c0.827-2.135,1.608-4.15,2.556-6.594c2.414,1.312,5.175,2.068,6.788,3.855
			c2.774,3.077-0.443,6.516-0.499,9.847c-0.009,0.631-1.165,1.757-1.823,1.778C137.174,105.444,132.772,105.366,127.833,105.366z"/>
		<path fill-rule="evenodd" clip-rule="evenodd" fill="#627D53" d="M95.334,92.67c0.489,1.204,0.979,2.405,1.626,4.003
			c0.877-2.396,1.664-4.542,2.549-6.963c2.876,1.59,5.497,3.041,8.28,4.581c-3.03,3.634-10.989,3.036-7.507,11.025
			c-4.959,0-9.461,0.003-13.963-0.003c-0.224,0-0.467-0.017-0.666-0.105c-1.511-0.679-3.057-10.726-1.685-11.584
			c2.171-1.362,4.494-2.482,6.992-3.836c0.913,2.432,1.686,4.492,2.46,6.552c0.2-0.017,0.4-0.036,0.601-0.053
			c0.048-1.001,0.096-2.002,0.145-3.003C94.555,93.082,94.945,92.876,95.334,92.67z"/>
		<path fill-rule="evenodd" clip-rule="evenodd" fill="#627D53" d="M113.896,81.971c3.653-0.064,6.56,2.693,6.604,6.263
			c0.043,3.512-2.876,6.524-6.38,6.594c-3.517,0.07-6.493-2.827-6.541-6.365C107.527,84.767,110.188,82.034,113.896,81.971z"/>
		<path fill-rule="evenodd" clip-rule="evenodd" fill="#627D53" d="M94.979,88.125c-3.354-0.069-6.223-3.019-6.249-6.419
			c-0.025-3.475,3.09-6.568,6.558-6.508c3.615,0.062,6.427,2.986,6.367,6.619C101.595,85.412,98.641,88.203,94.979,88.125z"/>
		<path fill-rule="evenodd" clip-rule="evenodd" fill="#627D53" d="M132.723,88.111c-3.538-0.039-6.547-3.11-6.441-6.577
			c0.108-3.55,3.16-6.399,6.73-6.28c3.493,0.117,6.164,2.886,6.189,6.408C139.226,85.281,136.343,88.15,132.723,88.111z"/>
	</g>
	<g>
		<path fill-rule="evenodd" clip-rule="evenodd" fill="#627D53" d="M118.166,143.024c-0.798,2.198-1.536,4.236-2.314,6.382
			c-0.786-1.448-1.359-2.51-1.935-3.571c-0.501,1.108-1.005,2.218-1.651,3.644c-0.866-2.246-1.686-4.37-2.583-6.693
			c-2.43,1.312-4.663,2.401-6.753,3.722c-0.579,0.364-1.106,1.468-1.006,2.133c0.481,3.202,1.184,6.374,1.836,9.696
			c6.481,0,12.604,0.053,18.723-0.069c0.721-0.015,1.837-0.826,2.074-1.51c2.878-8.317,2.343-9.585-5.351-13.511
			C119.018,143.151,118.783,143.151,118.166,143.024z M127.833,151.7c4.94,0,9.342,0.078,13.733-0.084
			c0.659-0.021,1.814-1.147,1.823-1.778c0.056-3.331,3.273-6.77,0.499-9.847c-1.613-1.787-4.374-2.544-6.788-3.855
			c-0.948,2.443-1.729,4.459-2.556,6.594c-0.691-1.391-1.225-2.463-1.76-3.539c-0.558,1.098-1.115,2.199-1.807,3.564
			c-0.839-2.25-1.634-4.379-2.509-6.723c-2.944,1.68-5.503,3.136-8.203,4.676C123.653,144.23,131.226,143.919,127.833,151.7z
			 M95.334,139.004c-0.389,0.206-0.78,0.412-1.169,0.614c-0.049,1.001-0.096,2.002-0.145,3.003c-0.2,0.017-0.4,0.036-0.601,0.053
			c-0.774-2.06-1.547-4.12-2.46-6.552c-2.498,1.354-4.821,2.474-6.992,3.836c-1.372,0.858,0.174,10.905,1.685,11.584
			c0.199,0.089,0.442,0.105,0.666,0.105c4.502,0.006,9.004,0.003,13.963,0.003c-3.482-7.989,4.477-7.392,7.507-11.025
			c-2.783-1.54-5.404-2.991-8.28-4.581c-0.885,2.421-1.672,4.567-2.549,6.963C96.313,141.409,95.824,140.208,95.334,139.004z
			 M113.896,128.305c-3.708,0.063-6.369,2.796-6.317,6.491c0.048,3.538,3.024,6.436,6.541,6.365c3.504-0.069,6.423-3.082,6.38-6.594
			C120.455,130.998,117.548,128.24,113.896,128.305z M94.979,134.459c3.663,0.078,6.616-2.713,6.676-6.308
			c0.06-3.633-2.752-6.558-6.367-6.619c-3.468-0.061-6.583,3.033-6.558,6.508C88.756,131.44,91.625,134.39,94.979,134.459z
			 M132.723,134.445c3.621,0.039,6.503-2.83,6.479-6.449c-0.025-3.522-2.697-6.291-6.189-6.408c-3.571-0.119-6.622,2.73-6.73,6.28
			C126.176,131.335,129.185,134.406,132.723,134.445z"/>
		<path fill-rule="evenodd" clip-rule="evenodd" fill="#627D53" d="M118.166,143.024c0.617,0.127,0.852,0.127,1.039,0.222
			c7.694,3.926,8.229,5.193,5.351,13.511c-0.236,0.684-1.353,1.495-2.074,1.51c-6.119,0.122-12.241,0.069-18.723,0.069
			c-0.652-3.322-1.355-6.494-1.836-9.696c-0.1-0.665,0.428-1.769,1.006-2.133c2.09-1.32,4.324-2.41,6.753-3.722
			C110.579,145.108,117.368,145.223,118.166,143.024z"/>
		<path fill-rule="evenodd" clip-rule="evenodd" fill="#627D53" d="M127.833,151.7c3.393-7.781-4.179-7.47-7.568-10.992
			c2.7-1.54,5.259-2.996,8.203-4.676c0.875,2.344,3.758,4.256,4.316,3.158c0.535,1.076,3.368-0.611,4.316-3.055
			c2.414,1.312,5.175,2.068,6.788,3.855c2.774,3.077-0.443,6.516-0.499,9.847c-0.009,0.631-1.165,1.757-1.823,1.778
			C137.174,151.778,132.772,151.7,127.833,151.7z"/>
		<path fill-rule="evenodd" clip-rule="evenodd" fill="#627D53" d="M95.334,139.004c0.489,1.204,0.979,2.405,1.626,4.003
			c0.877-2.396,1.664-4.542,2.549-6.963c2.876,1.59,5.497,3.041,8.28,4.581c-3.03,3.634-10.989,3.036-7.507,11.025
			c-4.959,0-9.461,0.003-13.963-0.003c-0.224,0-0.467-0.017-0.666-0.105c-1.511-0.679-3.057-10.726-1.685-11.584
			c2.171-1.362,4.494-2.482,6.992-3.836c0.913,2.432,1.686,4.492,2.46,6.552c0.2-0.017,0.4-0.036,0.601-0.053
			c0.048-1.001,0.096-2.002,0.145-3.003C94.555,139.416,94.945,139.21,95.334,139.004z"/>
		<path fill-rule="evenodd" clip-rule="evenodd" fill="#627D53" d="M113.896,128.305c3.653-0.064,6.56,2.693,6.604,6.263
			c0.043,3.512-2.876,6.524-6.38,6.594c-3.517,0.07-6.493-2.827-6.541-6.365C107.527,131.101,110.188,128.368,113.896,128.305z"/>
		<path fill-rule="evenodd" clip-rule="evenodd" fill="#627D53" d="M94.979,134.459c-3.354-0.069-6.223-3.019-6.249-6.419
			c-0.025-3.475,3.09-6.568,6.558-6.508c3.615,0.062,6.427,2.986,6.367,6.619C101.595,131.746,98.641,134.537,94.979,134.459z"/>
		<path fill-rule="evenodd" clip-rule="evenodd" fill="#627D53" d="M132.723,134.445c-3.538-0.039-6.547-3.11-6.441-6.577
			c0.108-3.55,3.16-6.399,6.73-6.28c3.493,0.117,6.164,2.886,6.189,6.408C139.226,131.615,136.343,134.484,132.723,134.445z"/>
	</g>
	<g>
		<path fill-rule="evenodd" clip-rule="evenodd" fill="#627D53" d="M49.802,96.69c-0.798,2.198-1.536,4.236-2.314,6.382
			c-0.786-1.448-1.359-2.51-1.935-3.571c-0.501,1.108-1.005,2.218-1.651,3.644c-0.866-2.246-1.686-4.37-2.583-6.693
			c-2.43,1.312-4.663,2.401-6.753,3.722c-0.579,0.364-1.106,1.468-1.006,2.133c0.481,3.202,1.184,6.374,1.836,9.696
			c6.481,0,12.604,0.053,18.723-0.069c0.721-0.015,1.837-0.826,2.074-1.51c2.878-8.317,2.343-9.585-5.351-13.511
			C50.654,96.817,50.419,96.817,49.802,96.69z M59.469,105.366c4.94,0,9.342,0.078,13.733-0.084
			c0.659-0.021,1.814-1.147,1.823-1.778c0.056-3.331,3.273-6.77,0.499-9.847c-1.613-1.787-4.374-2.544-6.788-3.855
			c-0.948,2.443-1.729,4.459-2.556,6.594c-0.691-1.391-1.225-2.463-1.76-3.539c-0.558,1.098-1.115,2.199-1.807,3.564
			c-0.839-2.25-1.634-4.379-2.509-6.723c-2.944,1.68-5.503,3.136-8.203,4.676C55.29,97.896,62.862,97.585,59.469,105.366z
			 M26.971,92.67c-0.389,0.206-0.78,0.412-1.169,0.614c-0.049,1.001-0.096,2.002-0.145,3.003c-0.2,0.017-0.4,0.036-0.601,0.053
			c-0.774-2.06-1.547-4.12-2.46-6.552c-2.498,1.354-4.821,2.474-6.992,3.836c-1.372,0.858,0.174,10.905,1.685,11.584
			c0.199,0.089,0.442,0.105,0.666,0.105c4.502,0.006,9.004,0.003,13.963,0.003c-3.482-7.989,4.477-7.392,7.507-11.025
			c-2.783-1.54-5.404-2.991-8.28-4.581c-0.885,2.421-1.672,4.567-2.549,6.963C27.949,95.075,27.46,93.874,26.971,92.67z
			 M45.532,81.971c-3.708,0.063-6.369,2.796-6.317,6.491c0.048,3.538,3.024,6.436,6.541,6.365c3.504-0.069,6.423-3.082,6.38-6.594
			C52.091,84.664,49.185,81.906,45.532,81.971z M26.615,88.125c3.663,0.078,6.616-2.713,6.676-6.308
			c0.06-3.633-2.752-6.558-6.367-6.619c-3.468-0.061-6.583,3.033-6.558,6.508C20.392,85.106,23.261,88.056,26.615,88.125z
			 M64.359,88.111c3.621,0.039,6.503-2.83,6.479-6.449c-0.025-3.522-2.697-6.291-6.189-6.408c-3.571-0.119-6.622,2.73-6.73,6.28
			C57.812,85.001,60.821,88.072,64.359,88.111z"/>
		<path fill-rule="evenodd" clip-rule="evenodd" fill="#627D53" d="M49.802,96.69c0.617,0.127,0.852,0.127,1.039,0.222
			c7.694,3.926,8.229,5.193,5.351,13.511c-0.236,0.684-1.353,1.495-2.074,1.51c-6.119,0.122-12.241,0.069-18.723,0.069
			c-0.652-3.322-1.355-6.494-1.836-9.696c-0.1-0.665,0.428-1.769,1.006-2.133c2.09-1.32,4.324-2.41,6.753-3.722
			c0.896,2.323,1.717,4.447,2.583,6.693c0.646-1.426,1.15-2.535,1.651-3.644c0.576,1.062,1.149,2.123,1.935,3.571
			C48.266,100.927,49.004,98.889,49.802,96.69z"/>
		<path fill-rule="evenodd" clip-rule="evenodd" fill="#627D53" d="M59.469,105.366c3.393-7.781-4.179-7.47-7.568-10.992
			c2.7-1.54,5.259-2.996,8.203-4.676c0.875,2.344,1.669,4.473,2.509,6.723c0.692-1.365,1.25-2.467,1.807-3.564
			c0.535,1.076,1.069,2.148,1.76,3.539c0.827-2.135,1.608-4.15,2.556-6.594c2.414,1.312,5.175,2.068,6.788,3.855
			c2.774,3.077-0.443,6.516-0.499,9.847c-0.009,0.631-1.165,1.757-1.823,1.778C68.811,105.444,64.409,105.366,59.469,105.366z"/>
		<path fill-rule="evenodd" clip-rule="evenodd" fill="#627D53" d="M31.146,89.71c2.876,1.59,5.497,3.041,8.28,4.581
			c-3.03,3.634-10.989,3.036-7.507,11.025c-4.959,0-9.461,0.003-13.963-0.003c-0.224,0-0.467-0.017-0.666-0.105
			c-1.511-0.679-3.057-10.726-1.685-11.584c2.171-1.362,4.494-2.482,6.992-3.836C23.51,92.22,30.261,92.131,31.146,89.71z"/>
		<path fill-rule="evenodd" clip-rule="evenodd" fill="#627D53" d="M45.532,81.971c3.653-0.064,6.56,2.693,6.604,6.263
			c0.043,3.512-2.876,6.524-6.38,6.594c-3.517,0.07-6.493-2.827-6.541-6.365C39.163,84.767,41.824,82.034,45.532,81.971z"/>
		<path fill-rule="evenodd" clip-rule="evenodd" fill="#627D53" d="M26.615,88.125c-3.354-0.069-6.223-3.019-6.249-6.419
			c-0.025-3.475,3.09-6.568,6.558-6.508c3.615,0.062,6.427,2.986,6.367,6.619C33.231,85.412,30.277,88.203,26.615,88.125z"/>
		<path fill-rule="evenodd" clip-rule="evenodd" fill="#627D53" d="M64.359,88.111c-3.538-0.039-6.547-3.11-6.441-6.577
			c0.108-3.55,3.16-6.399,6.73-6.28c3.493,0.117,6.164,2.886,6.189,6.408C70.862,85.281,67.979,88.15,64.359,88.111z"/>
	</g>
	<g>
		<path fill-rule="evenodd" clip-rule="evenodd" fill="#627D53" d="M49.802,143.024c-0.798,2.198-1.536,4.236-2.314,6.382
			c-0.786-1.448-1.359-2.51-1.935-3.571c-0.501,1.108-1.005,2.218-1.651,3.644c-0.866-2.246-1.686-4.37-2.583-6.693
			c-2.43,1.312-4.663,2.401-6.753,3.722c-0.579,0.364-1.106,1.468-1.006,2.133c0.481,3.202,1.184,6.374,1.836,9.696
			c6.481,0,12.604,0.053,18.723-0.069c0.721-0.015,1.837-0.826,2.074-1.51c2.878-8.317,2.343-9.585-5.351-13.511
			C50.654,143.151,50.419,143.151,49.802,143.024z M59.469,151.7c4.94,0,9.342,0.078,13.733-0.084
			c0.659-0.021,1.814-1.147,1.823-1.778c0.056-3.331,3.273-6.77,0.499-9.847c-1.613-1.787-4.374-2.544-6.788-3.855
			c-0.948,2.443-1.729,4.459-2.556,6.594c-0.691-1.391-1.225-2.463-1.76-3.539c-0.558,1.098-1.115,2.199-1.807,3.564
			c-0.839-2.25-1.634-4.379-2.509-6.723c-2.944,1.68-5.503,3.136-8.203,4.676C55.29,144.23,62.862,143.919,59.469,151.7z
			 M26.971,139.004c-0.389,0.206-0.78,0.412-1.169,0.614c-0.049,1.001-0.096,2.002-0.145,3.003c-0.2,0.017-0.4,0.036-0.601,0.053
			c-0.774-2.06-1.547-4.12-2.46-6.552c-2.498,1.354-4.821,2.474-6.992,3.836c-1.372,0.858,0.174,10.905,1.685,11.584
			c0.199,0.089,0.442,0.105,0.666,0.105c4.502,0.006,9.004,0.003,13.963,0.003c-3.482-7.989,4.477-7.392,7.507-11.025
			c-2.783-1.54-5.404-2.991-8.28-4.581c-0.885,2.421-1.672,4.567-2.549,6.963C27.949,141.409,27.46,140.208,26.971,139.004z
			 M45.532,128.305c-3.708,0.063-6.369,2.796-6.317,6.491c0.048,3.538,3.024,6.436,6.541,6.365c3.504-0.069,6.423-3.082,6.38-6.594
			C52.091,130.998,49.185,128.24,45.532,128.305z M26.615,134.459c3.663,0.078,6.616-2.713,6.676-6.308
			c0.06-3.633-2.752-6.558-6.367-6.619c-3.468-0.061-6.583,3.033-6.558,6.508C20.392,131.44,23.261,134.39,26.615,134.459z
			 M64.359,134.445c3.621,0.039,6.503-2.83,6.479-6.449c-0.025-3.522-2.697-6.291-6.189-6.408c-3.571-0.119-6.622,2.73-6.73,6.28
			C57.812,131.335,60.821,134.406,64.359,134.445z"/>
		<path fill-rule="evenodd" clip-rule="evenodd" fill="#627D53" d="M49.802,143.024c0.617,0.127,0.852,0.127,1.039,0.222
			c7.694,3.926,8.229,5.193,5.351,13.511c-0.236,0.684-1.353,1.495-2.074,1.51c-6.119,0.122-12.241,0.069-18.723,0.069
			c-0.652-3.322-1.355-6.494-1.836-9.696c-0.1-0.665,0.428-1.769,1.006-2.133c2.09-1.32,4.324-2.41,6.753-3.722
			c0.896,2.323,3.732,4.158,4.234,3.05C46.128,146.896,49.004,145.223,49.802,143.024z"/>
		<path fill-rule="evenodd" clip-rule="evenodd" fill="#627D53" d="M59.469,151.7c3.393-7.781-4.179-7.47-7.568-10.992
			c2.7-1.54,5.259-2.996,8.203-4.676c0.875,2.344,1.669,4.473,2.509,6.723c0.692-1.365,1.25-2.467,1.807-3.564
			c0.535,1.076,1.069,2.148,1.76,3.539c0.827-2.135,1.608-4.15,2.556-6.594c2.414,1.312,5.175,2.068,6.788,3.855
			c2.774,3.077-0.443,6.516-0.499,9.847c-0.009,0.631-1.165,1.757-1.823,1.778C68.811,151.778,64.409,151.7,59.469,151.7z"/>
		<path fill-rule="evenodd" clip-rule="evenodd" fill="#627D53" d="M26.971,139.004c0.489,1.204,0.979,2.405,1.626,4.003
			c0.877-2.396,1.664-4.542,2.549-6.963c2.876,1.59,5.497,3.041,8.28,4.581c-3.03,3.634-10.989,3.036-7.507,11.025
			c-4.959,0-9.461,0.003-13.963-0.003c-0.224,0-0.467-0.017-0.666-0.105c-1.511-0.679-3.057-10.726-1.685-11.584
			c2.171-1.362,4.494-2.482,6.992-3.836c0.913,2.432,1.686,4.492,2.46,6.552c0.2-0.017,0.4-0.036,0.601-0.053
			c0.048-1.001,0.096-2.002,0.145-3.003C26.191,139.416,26.582,139.21,26.971,139.004z"/>
		<path fill-rule="evenodd" clip-rule="evenodd" fill="#627D53" d="M45.532,128.305c3.653-0.064,6.56,2.693,6.604,6.263
			c0.043,3.512-2.876,6.524-6.38,6.594c-3.517,0.07-6.493-2.827-6.541-6.365C39.163,131.101,41.824,128.368,45.532,128.305z"/>
		<path fill-rule="evenodd" clip-rule="evenodd" fill="#627D53" d="M26.615,134.459c-3.354-0.069-6.223-3.019-6.249-6.419
			c-0.025-3.475,3.09-6.568,6.558-6.508c3.615,0.062,6.427,2.986,6.367,6.619C33.231,131.746,30.277,134.537,26.615,134.459z"/>
		<path fill-rule="evenodd" clip-rule="evenodd" fill="#627D53" d="M64.359,134.445c-3.538-0.039-6.547-3.11-6.441-6.577
			c0.108-3.55,3.16-6.399,6.73-6.28c3.493,0.117,6.164,2.886,6.189,6.408C70.862,131.615,67.979,134.484,64.359,134.445z"/>
	</g>
</g>
</svg>
