<?xml version="1.0" encoding="utf-8"?>
<!-- Generator: Adobe Illustrator 16.0.0, SVG Export Plug-In . SVG Version: 6.00 Build 0)  -->
<!DOCTYPE svg PUBLIC "-//W3C//DTD SVG 1.1//EN" "http://www.w3.org/Graphics/SVG/1.1/DTD/svg11.dtd">
<svg version="1.1" id="Layer_1" xmlns="http://www.w3.org/2000/svg" xmlns:xlink="http://www.w3.org/1999/xlink" x="0px" y="0px"
	 width="157px" height="179px" viewBox="0 0 157 179" enable-background="new 0 0 157 179" xml:space="preserve">
<rect x="1" y="1" fill-rule="evenodd" clip-rule="evenodd" fill="#FFFFFF" stroke="#627D53" stroke-width="2" stroke-miterlimit="10" width="155" height="177"/>
<rect x="1" y="1" fill-rule="evenodd" clip-rule="evenodd" fill="#627D53" width="155" height="56"/>
<g>
	<path fill="#FFFFFF" d="M61.041,25.326c-0.532-0.577-0.798-1.403-0.798-2.48v-6.992c0-1.076,0.266-1.902,0.798-2.479
		c0.532-0.576,1.305-0.865,2.318-0.865c1.013,0,1.786,0.289,2.318,0.865c0.532,0.576,0.798,1.402,0.798,2.479v1.141h-1.976v-1.273
		c0-0.873-0.361-1.311-1.083-1.311c-0.722,0-1.083,0.438-1.083,1.311v7.277c0,0.861,0.361,1.292,1.083,1.292
		c0.722,0,1.083-0.431,1.083-1.292v-2.604h-1.045v-1.899h3.021v4.351c0,1.077-0.266,1.903-0.798,2.48
		c-0.532,0.576-1.305,0.863-2.318,0.863C62.345,26.189,61.573,25.902,61.041,25.326z"/>
	<path fill="#FFFFFF" d="M69.458,20.338L66.93,12.7h2.223l1.425,4.883h0.038l1.425-4.883h2.033l-2.527,7.638V26h-2.09V20.338z"/>
	<path fill="#FFFFFF" d="M75.024,12.7h2.983l1.33,9.519h0.038l1.33-9.519h2.983V26h-1.976V15.93h-0.038L80.154,26h-1.748
		l-1.52-10.07h-0.038V26h-1.824V12.7z"/>
	<path fill="#FFFFFF" d="M85.664,25.326c-0.52-0.577-0.779-1.403-0.779-2.48v-0.76h1.976v0.912c0,0.861,0.361,1.292,1.083,1.292
		c0.354,0,0.624-0.104,0.808-0.313c0.183-0.209,0.275-0.548,0.275-1.017c0-0.558-0.127-1.048-0.38-1.473
		c-0.254-0.424-0.722-0.934-1.406-1.529c-0.861-0.76-1.463-1.446-1.805-2.062c-0.342-0.614-0.513-1.308-0.513-2.08
		c0-1.052,0.266-1.865,0.798-2.441c0.532-0.576,1.305-0.865,2.318-0.865c1,0,1.758,0.289,2.271,0.865
		c0.513,0.576,0.77,1.402,0.77,2.479v0.551h-1.976v-0.684c0-0.455-0.089-0.788-0.266-0.997c-0.178-0.209-0.437-0.313-0.779-0.313
		c-0.697,0-1.045,0.424-1.045,1.273c0,0.48,0.13,0.93,0.39,1.349c0.259,0.418,0.731,0.925,1.416,1.52
		c0.874,0.761,1.476,1.45,1.805,2.071c0.33,0.621,0.494,1.35,0.494,2.186c0,1.089-0.269,1.925-0.808,2.508
		c-0.538,0.582-1.32,0.873-2.346,0.873C86.949,26.189,86.183,25.902,85.664,25.326z"/>
	<path fill="#FFFFFF" d="M95.809,25.411c-0.393-0.52-0.589-1.272-0.589-2.261v-1.387c0-0.697,0.12-1.279,0.361-1.748
		s0.633-0.811,1.178-1.027v-0.037c-0.494-0.203-0.858-0.529-1.093-0.979s-0.351-1.029-0.351-1.738v-0.248
		c0-1.076,0.259-1.893,0.779-2.45c0.519-0.558,1.298-0.836,2.337-0.836h2.394V14.6h-2.356c-0.342,0-0.605,0.102-0.789,0.305
		s-0.275,0.531-0.275,0.988v0.816c0,0.507,0.104,0.867,0.313,1.083s0.522,0.323,0.94,0.323h0.817v-1.482h2.052v1.482h0.589v1.9
		h-0.589v4.369c0,0.381,0.012,0.688,0.038,0.922c0.025,0.234,0.088,0.465,0.19,0.693h-2.09c-0.102-0.278-0.165-0.627-0.19-1.045
		h-0.038c-0.228,0.418-0.491,0.729-0.788,0.932c-0.298,0.201-0.668,0.303-1.112,0.303C96.778,26.189,96.202,25.931,95.809,25.411z
		 M99.476,23.093v-3.077h-0.798c-0.481,0-0.83,0.129-1.045,0.389c-0.216,0.26-0.323,0.693-0.323,1.302v1.349
		c0,0.443,0.089,0.76,0.266,0.95S98,24.29,98.317,24.29C98.976,24.29,99.362,23.891,99.476,23.093z"/>
	<path fill="#FFFFFF" d="M33.349,31.5h5.529v1.9h-3.439v3.705h2.698v1.899h-2.698V44.8h-2.09V31.5z"/>
	<path fill="#FFFFFF" d="M39.884,31.5h2.09v13.3h-2.09V31.5z"/>
	<path fill="#FFFFFF" d="M45.167,33.4h-2.185v-1.9h6.46v1.9h-2.185V44.8h-2.09V33.4z"/>
	<path fill="#FFFFFF" d="M50.448,31.5h2.622l2.033,7.961h0.038V31.5h1.862v13.3h-2.147l-2.508-9.709h-0.038V44.8h-1.862V31.5z"/>
	<path fill="#FFFFFF" d="M58.561,31.5h5.7v1.9h-3.61v3.515h2.869v1.899h-2.869V42.9h3.61V44.8h-5.7V31.5z"/>
	<path fill="#FFFFFF" d="M65.914,44.125c-0.52-0.576-0.779-1.402-0.779-2.479v-0.761h1.976v0.912c0,0.861,0.361,1.292,1.083,1.292
		c0.354,0,0.624-0.104,0.808-0.313c0.183-0.209,0.275-0.548,0.275-1.017c0-0.557-0.127-1.048-0.38-1.473
		c-0.254-0.424-0.722-0.934-1.406-1.529c-0.861-0.76-1.463-1.447-1.805-2.062c-0.342-0.614-0.513-1.308-0.513-2.081
		c0-1.051,0.266-1.864,0.798-2.441c0.532-0.576,1.305-0.864,2.318-0.864c1,0,1.758,0.288,2.271,0.864
		c0.513,0.577,0.77,1.403,0.77,2.48v0.551h-1.976v-0.684c0-0.457-0.089-0.789-0.266-0.998c-0.178-0.209-0.437-0.313-0.779-0.313
		c-0.697,0-1.045,0.425-1.045,1.272c0,0.482,0.13,0.932,0.39,1.35c0.259,0.418,0.731,0.924,1.416,1.52
		c0.874,0.76,1.476,1.451,1.805,2.071c0.33,0.62,0.494,1.349,0.494,2.185c0,1.09-0.269,1.926-0.808,2.508
		c-0.538,0.584-1.32,0.875-2.346,0.875C67.2,44.99,66.434,44.701,65.914,44.125z"/>
	<path fill="#FFFFFF" d="M72.982,44.125c-0.52-0.576-0.779-1.402-0.779-2.479v-0.761h1.976v0.912c0,0.861,0.361,1.292,1.083,1.292
		c0.354,0,0.624-0.104,0.808-0.313c0.183-0.209,0.275-0.548,0.275-1.017c0-0.557-0.127-1.048-0.38-1.473
		c-0.254-0.424-0.722-0.934-1.406-1.529c-0.861-0.76-1.463-1.447-1.805-2.062c-0.342-0.614-0.513-1.308-0.513-2.081
		c0-1.051,0.266-1.864,0.798-2.441c0.532-0.576,1.305-0.864,2.318-0.864c1,0,1.758,0.288,2.271,0.864
		c0.513,0.577,0.77,1.403,0.77,2.48v0.551h-1.976v-0.684c0-0.457-0.089-0.789-0.266-0.998c-0.178-0.209-0.437-0.313-0.779-0.313
		c-0.697,0-1.045,0.425-1.045,1.272c0,0.482,0.13,0.932,0.39,1.35c0.259,0.418,0.731,0.924,1.416,1.52
		c0.874,0.76,1.476,1.451,1.805,2.071c0.33,0.62,0.494,1.349,0.494,2.185c0,1.09-0.269,1.926-0.808,2.508
		c-0.538,0.584-1.32,0.875-2.346,0.875C74.268,44.99,73.501,44.701,72.982,44.125z"/>
	<path fill="#FFFFFF" d="M83.089,44.125c-0.52-0.576-0.779-1.402-0.779-2.479v-0.761h1.976v0.912c0,0.861,0.361,1.292,1.083,1.292
		c0.354,0,0.624-0.104,0.808-0.313c0.183-0.209,0.275-0.548,0.275-1.017c0-0.557-0.127-1.048-0.38-1.473
		c-0.254-0.424-0.722-0.934-1.406-1.529c-0.861-0.76-1.463-1.447-1.805-2.062c-0.342-0.614-0.513-1.308-0.513-2.081
		c0-1.051,0.266-1.864,0.798-2.441c0.532-0.576,1.305-0.864,2.318-0.864c1,0,1.758,0.288,2.271,0.864
		c0.513,0.577,0.77,1.403,0.77,2.48v0.551h-1.976v-0.684c0-0.457-0.089-0.789-0.266-0.998c-0.178-0.209-0.437-0.313-0.779-0.313
		c-0.697,0-1.045,0.425-1.045,1.272c0,0.482,0.13,0.932,0.39,1.35c0.259,0.418,0.731,0.924,1.416,1.52
		c0.874,0.76,1.476,1.451,1.805,2.071c0.33,0.62,0.494,1.349,0.494,2.185c0,1.09-0.269,1.926-0.808,2.508
		c-0.538,0.584-1.32,0.875-2.346,0.875C84.375,44.99,83.609,44.701,83.089,44.125z"/>
	<path fill="#FFFFFF" d="M91.374,33.4h-2.185v-1.9h6.46v1.9h-2.185V44.8h-2.09V33.4z"/>
	<path fill="#FFFFFF" d="M97.377,44.125c-0.532-0.576-0.798-1.402-0.798-2.479V31.5h2.09v10.298c0,0.456,0.092,0.786,0.275,0.987
		c0.184,0.203,0.447,0.305,0.789,0.305c0.342,0,0.605-0.102,0.789-0.305c0.184-0.201,0.275-0.531,0.275-0.987V31.5h2.014v10.146
		c0,1.076-0.266,1.902-0.798,2.479c-0.532,0.576-1.305,0.865-2.318,0.865S97.91,44.701,97.377,44.125z"/>
	<path fill="#FFFFFF" d="M104.293,31.5h3.192c1.038,0,1.817,0.279,2.337,0.836c0.519,0.558,0.779,1.375,0.779,2.451v6.726
		c0,1.077-0.26,1.894-0.779,2.451c-0.52,0.558-1.299,0.836-2.337,0.836h-3.192V31.5z M107.447,42.9c0.342,0,0.604-0.102,0.789-0.305
		c0.183-0.202,0.275-0.531,0.275-0.988v-6.916c0-0.455-0.092-0.785-0.275-0.988c-0.184-0.201-0.447-0.303-0.789-0.303h-1.064v9.5
		H107.447z"/>
	<path fill="#FFFFFF" d="M112.007,31.5h2.09v13.3h-2.09V31.5z"/>
	<path fill="#FFFFFF" d="M116.32,44.115c-0.544-0.582-0.817-1.405-0.817-2.469v-6.992c0-1.064,0.272-1.888,0.817-2.471
		c0.544-0.582,1.33-0.874,2.356-0.874c1.026,0,1.812,0.292,2.356,0.874c0.545,0.583,0.817,1.406,0.817,2.471v6.992
		c0,1.063-0.272,1.887-0.817,2.469c-0.544,0.584-1.33,0.875-2.356,0.875C117.65,44.99,116.864,44.699,116.32,44.115z
		 M119.759,41.779v-7.258c0-0.875-0.361-1.312-1.083-1.312c-0.722,0-1.083,0.437-1.083,1.312v7.258c0,0.873,0.361,1.311,1.083,1.311
		C119.398,43.09,119.759,42.652,119.759,41.779z"/>
	<path fill="#FFFFFF" d="M123.673,44.125c-0.52-0.576-0.779-1.402-0.779-2.479v-0.761h1.976v0.912c0,0.861,0.361,1.292,1.083,1.292
		c0.354,0,0.624-0.104,0.808-0.313c0.183-0.209,0.275-0.548,0.275-1.017c0-0.557-0.127-1.048-0.38-1.473
		c-0.254-0.424-0.722-0.934-1.406-1.529c-0.861-0.76-1.463-1.447-1.805-2.062c-0.342-0.614-0.513-1.308-0.513-2.081
		c0-1.051,0.266-1.864,0.798-2.441c0.532-0.576,1.305-0.864,2.318-0.864c1,0,1.758,0.288,2.271,0.864
		c0.513,0.577,0.77,1.403,0.77,2.48v0.551h-1.976v-0.684c0-0.457-0.089-0.789-0.266-0.998c-0.178-0.209-0.437-0.313-0.779-0.313
		c-0.697,0-1.045,0.425-1.045,1.272c0,0.482,0.13,0.932,0.39,1.35c0.259,0.418,0.731,0.924,1.416,1.52
		c0.874,0.76,1.476,1.451,1.805,2.071c0.33,0.62,0.494,1.349,0.494,2.185c0,1.09-0.269,1.926-0.808,2.508
		c-0.538,0.584-1.32,0.875-2.346,0.875C124.958,44.99,124.192,44.701,123.673,44.125z"/>
</g>
<g>
	<path fill-rule="evenodd" clip-rule="evenodd" fill="#627D53" d="M85.631,123.599c-0.713-0.192-1.145,0.07-1.587,0.514
		c-3.798,3.817-7.618,7.611-11.431,11.413c-0.662,0.659-0.668,1.428-0.017,2.076c2.899,2.887,5.813,5.758,8.691,8.666
		c1.441,1.455,1.911,3.229,1.342,5.206c-0.569,1.98-1.917,3.223-3.923,3.663c-1.82,0.399-3.46-0.056-4.796-1.371
		c-4.14-4.074-8.26-8.167-12.39-12.251c-0.392-0.388-0.805-0.754-1.185-1.152c-2.128-2.235-2.092-5.397,0.09-7.576
		c3.75-3.745,7.501-7.488,11.263-11.222c0.308-0.306,0.446-0.609,0.445-1.052c-0.014-5.639-0.013-11.278,0.001-16.918
		c0.001-0.438-0.125-0.744-0.435-1.052c-4.242-4.213-8.477-8.433-12.704-12.66c-2.502-2.504-4.99-5.021-7.479-7.539
		c-1.715-1.735-1.776-4.49-0.149-6.273c1.574-1.726,4.37-1.904,6.224-0.392c0.279,0.228,0.537,0.48,0.792,0.735
		c5.571,5.58,11.142,11.159,16.702,16.751c0.327,0.329,0.649,0.458,1.111,0.457c5.3-0.016,10.6-0.016,15.9,0.002
		c0.467,0.001,0.781-0.147,1.104-0.47c5.648-5.655,11.305-11.301,16.965-16.943c1.792-1.786,4.214-2.072,6.12-0.742
		c2.195,1.531,2.557,4.833,0.646,6.757c-5.496,5.536-11.032,11.031-16.553,16.543c-1.305,1.304-2.623,2.595-3.899,3.926
		c-0.198,0.207-0.288,0.597-0.29,0.902c-0.016,6.976-0.012,13.95-0.012,20.925c0,12.614,0.002,25.229-0.003,37.842
		c-0.001,2.722-1.91,4.855-4.66,5.249c-2.477,0.354-4.952-1.254-5.657-3.72c-0.154-0.541-0.215-1.126-0.216-1.69
		c-0.012-12.614-0.009-25.228-0.009-37.842C85.631,124.109,85.631,123.858,85.631,123.599z"/>
	<path fill-rule="evenodd" clip-rule="evenodd" fill="#627D53" d="M73.651,81.635c0-5.801,4.736-10.526,10.518-10.494
		c5.82,0.033,10.504,4.731,10.501,10.529c-0.004,5.804-4.722,10.491-10.536,10.468C78.284,92.115,73.651,87.473,73.651,81.635z"/>
</g>
</svg>
