<?xml version="1.0" encoding="utf-8"?>
<!-- Generator: Adobe Illustrator 16.0.0, SVG Export Plug-In . SVG Version: 6.00 Build 0)  -->
<!DOCTYPE svg PUBLIC "-//W3C//DTD SVG 1.1//EN" "http://www.w3.org/Graphics/SVG/1.1/DTD/svg11.dtd">
<svg version="1.1" id="Layer_1" xmlns="http://www.w3.org/2000/svg" xmlns:xlink="http://www.w3.org/1999/xlink" x="0px" y="0px"
	 width="157px" height="179px" viewBox="0 0 157 179" enable-background="new 0 0 157 179" xml:space="preserve">
<rect x="1" y="1" fill-rule="evenodd" clip-rule="evenodd" fill="#FFFFFF" stroke="#627D53" stroke-width="2" stroke-miterlimit="10" width="155" height="177"/>
<rect x="2" y="1" fill-rule="evenodd" clip-rule="evenodd" fill="#627D53" width="155" height="57"/>
<g>
	<path fill="#FFFFFF" d="M47.074,14.87h2.983l1.33,9.519h0.038l1.33-9.519h2.983v13.3h-1.976V18.1h-0.038l-1.52,10.07h-1.748
		l-1.52-10.07h-0.038v10.07h-1.824V14.87z"/>
	<path fill="#FFFFFF" d="M57.96,27.486c-0.544-0.583-0.817-1.406-0.817-2.471v-6.992c0-1.063,0.272-1.887,0.817-2.47
		c0.544-0.582,1.33-0.874,2.356-0.874c1.026,0,1.812,0.292,2.356,0.874c0.545,0.583,0.817,1.406,0.817,2.47v6.992
		c0,1.064-0.272,1.888-0.817,2.471c-0.544,0.582-1.33,0.873-2.356,0.873C59.291,28.359,58.505,28.068,57.96,27.486z M61.399,25.148
		v-7.258c0-0.873-0.361-1.311-1.083-1.311c-0.722,0-1.083,0.438-1.083,1.311v7.258c0,0.875,0.361,1.312,1.083,1.312
		C61.039,26.46,61.399,26.023,61.399,25.148z"/>
	<path fill="#FFFFFF" d="M66.454,16.77h-2.185V14.87h6.46v1.899h-2.185v11.4h-2.09V16.77z"/>
	<path fill="#FFFFFF" d="M72.325,27.486c-0.544-0.583-0.817-1.406-0.817-2.471v-6.992c0-1.063,0.272-1.887,0.817-2.47
		c0.544-0.582,1.33-0.874,2.356-0.874c1.026,0,1.812,0.292,2.356,0.874c0.545,0.583,0.817,1.406,0.817,2.47v6.992
		c0,1.064-0.272,1.888-0.817,2.471c-0.544,0.582-1.33,0.873-2.356,0.873C73.655,28.359,72.869,28.068,72.325,27.486z M75.764,25.148
		v-7.258c0-0.873-0.361-1.311-1.083-1.311c-0.722,0-1.083,0.438-1.083,1.311v7.258c0,0.875,0.361,1.312,1.083,1.312
		C75.403,26.46,75.764,26.023,75.764,25.148z"/>
	<path fill="#FFFFFF" d="M79.916,27.505c-0.526-0.569-0.789-1.374-0.789-2.413v-7.145c0-1.037,0.263-1.842,0.789-2.412
		c0.525-0.57,1.289-0.855,2.29-0.855c1,0,1.764,0.285,2.29,0.855c0.525,0.57,0.788,1.375,0.788,2.412v1.406h-1.976v-1.539
		c0-0.822-0.349-1.234-1.045-1.234c-0.696,0-1.045,0.412-1.045,1.234v7.43c0,0.811,0.349,1.216,1.045,1.216
		c0.697,0,1.045-0.405,1.045-1.216v-2.033h1.976v1.881c0,1.039-0.263,1.844-0.788,2.413c-0.526,0.569-1.289,0.854-2.29,0.854
		C81.204,28.359,80.441,28.074,79.916,27.505z"/>
	<path fill="#FFFFFF" d="M86.537,14.87h3.097c1.077,0,1.862,0.25,2.356,0.751c0.494,0.5,0.741,1.27,0.741,2.308v0.817
		c0,1.381-0.456,2.254-1.368,2.622v0.038c0.506,0.152,0.865,0.463,1.074,0.931c0.209,0.469,0.313,1.096,0.313,1.881v2.337
		c0,0.381,0.012,0.688,0.038,0.922s0.089,0.465,0.19,0.693H90.85c-0.076-0.215-0.126-0.418-0.152-0.607
		c-0.025-0.19-0.038-0.533-0.038-1.026v-2.433c0-0.607-0.098-1.031-0.294-1.272s-0.535-0.361-1.017-0.361h-0.722v5.7h-2.09V14.87z
		 M89.387,20.57c0.418,0,0.731-0.107,0.94-0.323s0.313-0.576,0.313-1.083v-1.026c0-0.481-0.085-0.829-0.256-1.045
		c-0.171-0.215-0.44-0.323-0.808-0.323h-0.95v3.801H89.387z"/>
	<path fill="#FFFFFF" d="M94.859,27.486c-0.544-0.583-0.817-1.406-0.817-2.471v-6.992c0-1.063,0.272-1.887,0.817-2.47
		c0.544-0.582,1.33-0.874,2.356-0.874c1.026,0,1.812,0.292,2.356,0.874c0.545,0.583,0.817,1.406,0.817,2.47v6.992
		c0,1.064-0.272,1.888-0.817,2.471c-0.544,0.582-1.33,0.873-2.356,0.873C96.189,28.359,95.403,28.068,94.859,27.486z M98.298,25.148
		v-7.258c0-0.873-0.361-1.311-1.083-1.311c-0.722,0-1.083,0.438-1.083,1.311v7.258c0,0.875,0.361,1.312,1.083,1.312
		C97.937,26.46,98.298,26.023,98.298,25.148z"/>
	<path fill="#FFFFFF" d="M102.212,27.496c-0.52-0.577-0.779-1.403-0.779-2.48v-0.76h1.976v0.912c0,0.861,0.361,1.292,1.083,1.292
		c0.354,0,0.624-0.104,0.808-0.313c0.183-0.209,0.275-0.548,0.275-1.017c0-0.558-0.127-1.048-0.38-1.473
		c-0.254-0.424-0.722-0.934-1.406-1.529c-0.861-0.76-1.463-1.446-1.805-2.062c-0.342-0.614-0.513-1.308-0.513-2.08
		c0-1.052,0.266-1.865,0.798-2.441c0.532-0.576,1.305-0.865,2.318-0.865c1,0,1.758,0.289,2.271,0.865
		c0.513,0.576,0.77,1.402,0.77,2.479v0.551h-1.976v-0.684c0-0.455-0.089-0.788-0.266-0.997c-0.178-0.209-0.437-0.313-0.779-0.313
		c-0.697,0-1.045,0.424-1.045,1.273c0,0.48,0.13,0.93,0.39,1.349c0.259,0.418,0.731,0.925,1.416,1.52
		c0.874,0.761,1.476,1.45,1.805,2.071c0.33,0.621,0.494,1.35,0.494,2.186c0,1.089-0.269,1.925-0.808,2.508
		c-0.538,0.582-1.32,0.873-2.346,0.873C103.498,28.359,102.731,28.072,102.212,27.496z"/>
	<path fill="#FFFFFF" d="M109.28,27.496c-0.52-0.577-0.779-1.403-0.779-2.48v-0.76h1.976v0.912c0,0.861,0.361,1.292,1.083,1.292
		c0.354,0,0.624-0.104,0.808-0.313c0.183-0.209,0.275-0.548,0.275-1.017c0-0.558-0.127-1.048-0.38-1.473
		c-0.254-0.424-0.722-0.934-1.406-1.529c-0.861-0.76-1.463-1.446-1.805-2.062c-0.342-0.614-0.513-1.308-0.513-2.08
		c0-1.052,0.266-1.865,0.798-2.441c0.532-0.576,1.305-0.865,2.318-0.865c1,0,1.758,0.289,2.271,0.865
		c0.513,0.576,0.77,1.402,0.77,2.479v0.551h-1.976v-0.684c0-0.455-0.089-0.788-0.266-0.997c-0.178-0.209-0.437-0.313-0.779-0.313
		c-0.697,0-1.045,0.424-1.045,1.273c0,0.48,0.13,0.93,0.39,1.349c0.259,0.418,0.731,0.925,1.416,1.52
		c0.874,0.761,1.476,1.45,1.805,2.071c0.33,0.621,0.494,1.35,0.494,2.186c0,1.089-0.269,1.925-0.808,2.508
		c-0.538,0.582-1.32,0.873-2.346,0.873C110.565,28.359,109.799,28.072,109.28,27.496z"/>
	<path fill="#FFFFFF" d="M56.745,46.305c-0.526-0.57-0.789-1.374-0.789-2.413v-7.144c0-1.039,0.263-1.844,0.789-2.413
		c0.525-0.57,1.289-0.855,2.29-0.855c1,0,1.764,0.285,2.29,0.855c0.525,0.569,0.788,1.374,0.788,2.413v1.406h-1.976v-1.539
		c0-0.824-0.349-1.235-1.045-1.235c-0.696,0-1.045,0.411-1.045,1.235v7.429c0,0.811,0.349,1.216,1.045,1.216
		c0.697,0,1.045-0.405,1.045-1.216v-2.033h1.976v1.881c0,1.039-0.263,1.843-0.788,2.413c-0.526,0.57-1.289,0.855-2.29,0.855
		C58.034,47.16,57.271,46.875,56.745,46.305z"/>
	<path fill="#FFFFFF" d="M63.366,33.67h5.7v1.9h-3.61v3.515h2.869v1.899h-2.869v4.086h3.61v1.899h-5.7V33.67z"/>
	<path fill="#FFFFFF" d="M70.263,33.67h2.622l2.033,7.961h0.038V33.67h1.862v13.3h-2.147l-2.508-9.709h-0.038v9.709h-1.862V33.67z"
		/>
	<path fill="#FFFFFF" d="M80.01,35.57h-2.185v-1.9h6.46v1.9H82.1V46.97h-2.09V35.57z"/>
	<path fill="#FFFFFF" d="M85.292,33.67h5.7v1.9h-3.61v3.515h2.869v1.899h-2.869v4.086h3.61v1.899h-5.7V33.67z"/>
	<path fill="#FFFFFF" d="M92.189,33.67h3.097c1.077,0,1.862,0.25,2.356,0.75c0.494,0.501,0.741,1.271,0.741,2.309v0.817
		c0,1.38-0.456,2.255-1.368,2.622v0.037c0.506,0.152,0.865,0.463,1.074,0.932s0.313,1.096,0.313,1.881v2.337
		c0,0.38,0.012,0.688,0.038,0.922s0.089,0.466,0.19,0.693h-2.128c-0.076-0.216-0.126-0.418-0.152-0.608
		c-0.025-0.189-0.038-0.531-0.038-1.025v-2.432c0-0.608-0.098-1.033-0.294-1.273s-0.535-0.361-1.017-0.361h-0.722v5.7h-2.09V33.67z
		 M95.039,39.369c0.418,0,0.731-0.107,0.94-0.322s0.313-0.576,0.313-1.083v-1.026c0-0.48-0.085-0.829-0.256-1.045
		c-0.171-0.215-0.44-0.322-0.808-0.322h-0.95v3.799H95.039z"/>
	<path fill="#FFFFFF" d="M100.264,46.295c-0.52-0.576-0.779-1.402-0.779-2.479v-0.761h1.976v0.912c0,0.861,0.361,1.292,1.083,1.292
		c0.354,0,0.624-0.104,0.808-0.313c0.183-0.209,0.275-0.548,0.275-1.017c0-0.557-0.127-1.048-0.38-1.473
		c-0.254-0.424-0.722-0.934-1.406-1.529c-0.861-0.76-1.463-1.447-1.805-2.062c-0.342-0.614-0.513-1.308-0.513-2.081
		c0-1.051,0.266-1.864,0.798-2.441c0.532-0.576,1.305-0.864,2.318-0.864c1,0,1.758,0.288,2.271,0.864
		c0.513,0.577,0.77,1.403,0.77,2.48v0.551h-1.976v-0.684c0-0.457-0.089-0.789-0.266-0.998c-0.178-0.209-0.437-0.313-0.779-0.313
		c-0.697,0-1.045,0.425-1.045,1.272c0,0.482,0.13,0.932,0.39,1.35c0.259,0.418,0.731,0.924,1.416,1.52
		c0.874,0.76,1.476,1.451,1.805,2.071c0.33,0.62,0.494,1.349,0.494,2.185c0,1.09-0.269,1.926-0.808,2.508
		c-0.538,0.584-1.32,0.875-2.346,0.875C101.55,47.16,100.784,46.871,100.264,46.295z"/>
</g>
<g>
	<path fill-rule="evenodd" clip-rule="evenodd" fill="#627D53" d="M93.609,103.584c2.118,1.193,4.112,1.908,3.577,5.381
		c-0.841,5.461,2.894,10.314,8.34,12.033c5.019,1.585,10.611-0.6,13.542-5.287c2.813-4.504,2.1-10.543-1.708-14.451
		c-3.724-3.822-10.02-4.924-14.351-1.768c-2.83,2.061-4.502,1.27-6.45-0.732c4.086-6.219,14.026-7.784,21.164-3.335
		c7.708,4.806,10.154,14.962,5.479,22.742c-4.55,7.571-14.659,10.337-22.244,6.083C93.293,119.952,89.905,110.584,93.609,103.584z"
		/>
	<path fill-rule="evenodd" clip-rule="evenodd" fill="#627D53" d="M65.205,136.512c3.336,7.396,0.812,15.834-5.982,20.442
		c-6.601,4.478-15.867,3.438-21.376-2.397c-5.613-5.945-6.109-15.188-1.162-21.665c4.901-6.415,13.59-8.4,20.698-4.729
		c-1.307,2.868-2.64,3.647-5.43,3.175c-6.596-1.119-12.833,3.593-13.742,10.385c-0.869,6.492,4.219,12.684,10.799,13.141
		c6.854,0.476,12.866-4.633,12.662-11.461C61.576,140.174,62.729,138.293,65.205,136.512z"/>
	<path fill-rule="evenodd" clip-rule="evenodd" fill="#394730" d="M82.467,95.799c-1.049,3.094-2.113,6.234-3.25,9.587
		c-0.773-0.583-1.354-1.05-1.964-1.476c-3.268-2.277-6.686-1.879-9.309,1.098c-3.334,3.78-6.573,7.649-10.011,11.332
		c-1.922,2.057-3.643,3.865-0.372,6.069c-2.834,2.692-9.546,3.496-12.855,1.663c-1.868-1.035-3.635-2.271-5.554-3.195
		c-1.74-0.836-3.626-1.369-5.458-2.04c1.495-0.592,3.324-1.579,5.278-2.042c6.892-1.635,13.839-3.037,20.732-4.669
		c0.919-0.218,1.929-1.099,2.407-1.947c1.676-2.978,3.216-6.038,4.651-9.141c0.766-1.656,1.007-3.566,1.846-5.175
		c1.213-2.326,3.376-3.104,5.893-2.447C77.133,94.101,79.716,94.967,82.467,95.799z"/>
	<path fill-rule="evenodd" clip-rule="evenodd" fill="#394730" d="M78.98,108.274c0,0-6.288-8.671-12.312,1.759
		c0,0-7.541,8.208-8.588,9.18c0,0,8.127,5.417,15,9.861c0,0,7.011-4.861,5.344-11.25C78.425,117.824,71.202,113.727,78.98,108.274z"
		/>
	<path fill-rule="evenodd" clip-rule="evenodd" fill="#627D53" d="M107.807,82.987c-0.809,0.459-1.433,0.976-2.148,1.192
		c-2.913,0.885-5.88,1.597-8.77,2.548c-1,0.329-1.871,1.114-2.733,1.78c-1.08,0.832-2.088,1.758-3.129,2.642
		c-3.276,2.781-4.745,2.501-7.252-1.384C90.604,82.649,103.492,79.42,107.807,82.987z"/>
	<path fill-rule="evenodd" clip-rule="evenodd" fill="#394730" d="M104.691,105.705c1.756-0.346,3.545-1.086,5.262-0.947
		c2.524,0.207,4.2,2.914,3.87,5.458c-0.317,2.449-2.437,4.319-4.929,4.348c-2.566,0.029-4.896-1.889-4.928-4.54
		c-0.021-1.752-0.8-2.563-2.097-3.367c-2.316-1.438-4.583-2.958-6.823-4.512c-0.575-0.398-0.978-1.046-1.459-1.58
		c0.22-0.279,0.441-0.56,0.661-0.84c3.415,2.22,6.83,4.439,10.245,6.66C104.559,106.158,104.625,105.932,104.691,105.705z"/>
	<path fill-rule="evenodd" clip-rule="evenodd" fill="#394730" d="M65.426,125.605c-5.167,5.209-10.333,10.418-15.587,15.715
		c0.879,0.893,1.582,1.605,2.511,2.548c5.513-5.25,10.631-10.769,16.283-15.677c0.273,0.264,0.546,0.527,0.819,0.792
		c-0.449,0.62-0.823,1.319-1.36,1.851c-4.728,4.691-9.534,9.306-14.2,14.058c-1.269,1.291-2.026,1.063-3.1-0.094
		c-3.875-4.172-4.025-2.832-0.02-6.913c3.889-3.964,7.859-7.848,11.827-11.733c0.589-0.577,1.358-0.97,2.043-1.447
		C64.904,125.004,65.165,125.305,65.426,125.605z"/>
	<path fill-rule="evenodd" clip-rule="evenodd" fill="#394730" d="M42.587,113.793c2.844-1.238,5.625-2.654,8.544-3.675
		c5.497-1.919,10.102-4.906,13.221-9.938c0.209-0.337,0.518-0.614,1.137-0.699c-1.653,3.293-3.28,6.601-4.992,9.863
		c-0.242,0.462-0.851,0.894-1.368,1.021c-5.447,1.345-10.909,2.624-16.367,3.921C42.703,114.122,42.645,113.958,42.587,113.793z"/>
	<path fill-rule="evenodd" clip-rule="evenodd" fill="#627D53" d="M82.236,89.534c-3.33-2.542-6.382-4.813-9.333-7.208
		c-0.331-0.269-0.363-1.427-0.068-1.85c1.078-1.549,3.948-1.94,5.566-0.923C80.696,80.996,82.811,86.04,82.236,89.534z"/>
	<path fill-rule="evenodd" clip-rule="evenodd" fill="#627D53" d="M85.159,94.884c-5.315-2.987-9.854-7.183-15.167-10.514
		c-1.112,1.411-2.202,2.796-3.292,4.18c-0.277-0.202-0.555-0.405-0.832-0.606c1.207-1.9,2.414-3.8,3.802-5.983
		c5.612,4.073,10.915,7.923,16.218,11.772C85.645,94.117,85.402,94.5,85.159,94.884z"/>
	<path fill-rule="evenodd" clip-rule="evenodd" fill="#394730" d="M40.523,124.173c-2.093,0.304-3.949,0.575-6.564,0.957
		c0.69-1.054,0.917-1.845,1.362-1.998C37.05,122.539,38.861,122.074,40.523,124.173z"/>
	<path fill-rule="evenodd" clip-rule="evenodd" fill="#394730" d="M89.062,100.85c1.323-1.634,2.407-2.973,3.492-4.313
		C93.011,99.326,91.539,101.014,89.062,100.85z"/>
	<path fill-rule="evenodd" clip-rule="evenodd" fill="#394730" d="M87.139,99.315c0.902-1.528,1.502-3.331,3.438-3.919
		c0.253,0.215,0.506,0.431,0.759,0.646c-1.087,1.369-2.173,2.737-3.259,4.107C87.763,99.872,87.45,99.594,87.139,99.315z"/>
	<path fill-rule="evenodd" clip-rule="evenodd" fill="#394730" d="M89.283,94.271c-1.409,1.717-2.494,3.037-4.002,4.872
		C85.085,96.104,86.537,94.371,89.283,94.271z"/>
	<path fill-rule="evenodd" clip-rule="evenodd" fill="#FFFFFF" d="M60.253,118.479c1.979-1.967,3.952-3.941,5.978-5.861
		c0.038-0.035,0.69,0.577,1.056,0.888c-1.941,2.055-3.882,4.107-5.823,6.16C61.061,119.271,60.657,118.875,60.253,118.479z"/>
	<path fill-rule="evenodd" clip-rule="evenodd" fill="#FFFFFF" d="M64.019,119.594c1.979-1.967,3.952-3.941,5.978-5.861
		c0.038-0.035,0.69,0.578,1.056,0.888c-1.941,2.054-3.882,4.106-5.823,6.16C64.825,120.386,64.422,119.989,64.019,119.594z"/>
</g>
</svg>
