<?xml version="1.0" encoding="utf-8"?>
<!-- Generator: Adobe Illustrator 16.0.0, SVG Export Plug-In . SVG Version: 6.00 Build 0)  -->
<!DOCTYPE svg PUBLIC "-//W3C//DTD SVG 1.1//EN" "http://www.w3.org/Graphics/SVG/1.1/DTD/svg11.dtd">
<svg version="1.1" id="Layer_1" xmlns="http://www.w3.org/2000/svg" xmlns:xlink="http://www.w3.org/1999/xlink" x="0px" y="0px"
	 width="134.023px" height="152.98px" viewBox="0 0 134.023 152.98" enable-background="new 0 0 134.023 152.98"
	 xml:space="preserve">
<polyline fill="none" stroke="#010101" stroke-width="2" stroke-miterlimit="10" points="1.012,47.981 1.012,151.98 133.012,151.98 
	133.012,47.981 "/>
<path fill-rule="evenodd" clip-rule="evenodd" fill="#010101" d="M27.36,142.326c0.382,0.94,1.04,1.604,1.981,1.983H27.36V142.326z"
	/>
<rect fill-rule="evenodd" clip-rule="evenodd" fill="#235F30" width="134.023" height="48.152"/>
<g>
	<path fill="#FFFFFF" d="M28.793,19.79c-0.077-0.153-0.207-0.23-0.391-0.23c-0.138,0-0.253,0.046-0.345,0.138
		c-0.123,0.107-0.2,0.28-0.23,0.518c-0.031,0.238-0.035,0.491-0.012,0.759c0.023,0.269,0.073,0.533,0.149,0.793
		c0.077,0.261,0.161,0.468,0.253,0.621c0.199,0.276,0.456,0.544,0.771,0.805s0.648,0.529,1,0.805
		c0.353,0.276,0.698,0.579,1.035,0.909c0.337,0.33,0.621,0.709,0.851,1.139c0.322,0.552,0.521,1.2,0.598,1.943
		c0.076,0.744,0.019,1.464-0.173,2.162s-0.537,1.307-1.035,1.829c-0.499,0.521-1.162,0.843-1.99,0.966
		c-0.153,0.016-0.303,0.026-0.448,0.035c-0.146,0.007-0.303,0.011-0.472,0.011c-0.905,0-1.633-0.149-2.185-0.448
		c-0.552-0.299-0.974-0.705-1.265-1.219c-0.292-0.514-0.487-1.119-0.586-1.817s-0.157-1.438-0.172-2.22h3.542
		c0.015,0.246,0.023,0.518,0.023,0.817c0,0.299,0.015,0.579,0.046,0.839s0.088,0.479,0.173,0.655
		c0.084,0.177,0.218,0.265,0.402,0.265c0.214,0,0.356-0.084,0.425-0.253c0.069-0.168,0.104-0.498,0.104-0.989
		c0-0.276-0.015-0.521-0.046-0.736c-0.031-0.214-0.107-0.425-0.23-0.632c-0.123-0.207-0.307-0.426-0.552-0.656
		s-0.575-0.498-0.989-0.805c-0.491-0.368-0.905-0.717-1.242-1.047c-0.337-0.33-0.613-0.682-0.828-1.058
		c-0.215-0.376-0.372-0.794-0.472-1.254c-0.1-0.46-0.149-0.989-0.149-1.587c0.015-1.426,0.337-2.515,0.966-3.266
		c0.628-0.751,1.656-1.127,3.082-1.127c1.027,0,1.855,0.246,2.484,0.736c0.46,0.353,0.801,0.793,1.024,1.322
		c0.222,0.529,0.379,1.046,0.471,1.553c0.092,0.506,0.138,0.943,0.138,1.311c0,0.368,0,0.567,0,0.598h-3.496
		c-0.046-0.613-0.069-1.081-0.069-1.403C28.954,20.25,28.9,19.989,28.793,19.79z"/>
	<path fill="#FFFFFF" d="M41.305,30.508c-0.261,0.828-0.682,1.46-1.265,1.897c-0.583,0.437-1.334,0.655-2.254,0.655
		c-0.215,0-0.399-0.019-0.552-0.057c-0.153-0.038-0.269-0.073-0.345-0.104v4.255h-2.783c0-0.215,0-0.376,0-0.483
		c0-0.107,0-0.295,0-0.563c0-0.269,0-0.675,0-1.219c0-0.544,0-1.361,0-2.449c0-1.089-0.004-2.515-0.012-4.278
		c-0.008-1.763-0.011-3.994-0.011-6.693h2.438v0.368c0.168-0.169,0.379-0.284,0.632-0.345c0.253-0.061,0.51-0.092,0.771-0.092
		c0.307,0,0.602,0.027,0.886,0.081c0.283,0.054,0.502,0.111,0.655,0.172c0.46,0.169,0.828,0.445,1.104,0.828
		s0.483,0.828,0.621,1.334c0.138,0.506,0.222,1.05,0.253,1.633c0.03,0.583,0.038,1.15,0.023,1.702
		c-0.031,0.659-0.039,1.296-0.023,1.909C41.458,29.672,41.412,30.155,41.305,30.508z M38.752,27.219c0-0.537-0.004-1-0.012-1.392
		s-0.039-0.713-0.092-0.966c-0.054-0.253-0.142-0.437-0.265-0.552c-0.123-0.115-0.299-0.172-0.529-0.172
		c-0.368,0.016-0.602,0.088-0.702,0.219c-0.1,0.13-0.165,0.295-0.195,0.494c0,1.166-0.004,2.101-0.012,2.806
		c-0.008,0.706,0.008,1.25,0.046,1.633c0.038,0.384,0.115,0.641,0.23,0.771c0.115,0.131,0.295,0.196,0.541,0.196h0.092
		c0.26-0.015,0.452-0.111,0.575-0.288s0.207-0.406,0.253-0.69c0.046-0.284,0.069-0.602,0.069-0.955
		C38.752,27.97,38.752,27.602,38.752,27.219z"/>
	<path fill="#FFFFFF" d="M50.39,27.127c0,0.644-0.02,1.284-0.058,1.92c-0.039,0.636-0.138,1.219-0.299,1.748
		c-0.161,0.529-0.407,0.985-0.736,1.368c-0.33,0.384-0.786,0.652-1.368,0.805c-0.123,0.031-0.28,0.054-0.472,0.069
		c-0.192,0.015-0.395,0.023-0.609,0.023c-0.215,0-0.426-0.008-0.633-0.023S45.843,33,45.721,32.969
		c-0.675-0.168-1.192-0.425-1.553-0.771s-0.617-0.755-0.771-1.23c-0.153-0.475-0.241-1-0.265-1.576
		c-0.023-0.575-0.042-1.185-0.057-1.828c-0.016-0.751-0.008-1.495,0.023-2.231c0.03-0.736,0.157-1.399,0.379-1.989
		c0.222-0.59,0.59-1.065,1.104-1.426c0.514-0.36,1.246-0.541,2.196-0.541c0.767,0,1.388,0.104,1.863,0.31
		c0.475,0.207,0.843,0.541,1.104,1.001c0.26,0.46,0.433,1.054,0.518,1.782C50.347,25.199,50.39,26.084,50.39,27.127z M45.835,24.781
		c0,1.012-0.008,1.863-0.023,2.553c-0.016,0.69-0.004,1.242,0.035,1.656c0.038,0.414,0.123,0.709,0.253,0.886
		c0.13,0.176,0.341,0.264,0.632,0.264c0.276,0,0.495-0.096,0.656-0.288c0.161-0.191,0.241-0.502,0.241-0.931v-3.657
		c0-0.521-0.081-0.858-0.241-1.012c-0.161-0.153-0.388-0.23-0.679-0.23c-0.337,0-0.563,0.073-0.678,0.218
		C45.916,24.386,45.851,24.566,45.835,24.781z"/>
	<path fill="#FFFFFF" d="M58.945,22.872c0,0.062-0.092,0.188-0.275,0.38c-0.185,0.192-0.399,0.395-0.645,0.609
		c-0.246,0.215-0.476,0.406-0.689,0.575c-0.215,0.169-0.361,0.253-0.438,0.253c-0.153,0-0.307-0.123-0.46-0.368
		c-0.077-0.123-0.177-0.245-0.3-0.368c-0.122-0.123-0.283-0.184-0.482-0.184c-0.43,0-0.659,0.2-0.69,0.598
		c0,0.2-0.004,0.537-0.011,1.012c-0.008,0.475-0.012,1.016-0.012,1.622c0,0.605,0,1.238,0,1.897s0,1.276,0,1.851
		c0,0.575,0,1.066,0,1.472c0,0.407,0,0.656,0,0.748h-2.806c0-0.107,0-0.191,0-0.253c0-0.061-0.004-0.188-0.011-0.379
		c-0.008-0.192-0.012-0.495-0.012-0.909s0-1.031,0-1.852c0-0.82,0-1.882,0-3.186c0-1.303,0-2.944,0-4.922h2.737v0.621
		c0.26-0.215,0.563-0.387,0.908-0.518c0.346-0.13,0.686-0.195,1.023-0.195c0.184,0,0.36,0.019,0.529,0.057
		c0.168,0.039,0.322,0.104,0.46,0.196c0.122,0.077,0.249,0.172,0.38,0.288c0.129,0.115,0.256,0.23,0.379,0.345
		c0.123,0.115,0.223,0.227,0.299,0.333C58.906,22.703,58.945,22.795,58.945,22.872z"/>
	<path fill="#FFFFFF" d="M63.637,21.492c0.23,0,0.402,0.004,0.518,0.012s0.195,0.054,0.242,0.138
		c0.045,0.084,0.068,0.219,0.068,0.403c0,0.184,0,0.46,0,0.828v1.127c-0.016,0.108-0.057,0.177-0.127,0.207
		c-0.068,0.031-0.256,0.046-0.563,0.046h-0.76c0,1.38,0,2.453,0,3.22c0,0.767,0.004,1.342,0.012,1.725s0.023,0.629,0.047,0.736
		c0.022,0.107,0.057,0.184,0.104,0.23c0.045,0.077,0.198,0.115,0.459,0.115h0.115c0.076-0.015,0.146-0.023,0.207-0.023
		c0.061,0,0.115,0,0.161,0c0.185,0,0.288,0.081,0.311,0.241c0.022,0.161,0.034,0.525,0.034,1.093c0,0.353-0.004,0.625-0.012,0.816
		c-0.008,0.192-0.026,0.326-0.057,0.402c-0.031,0.077-0.089,0.123-0.173,0.138c-0.085,0.016-0.204,0.023-0.356,0.023
		c-0.291,0-0.598-0.007-0.92-0.023c-0.322-0.015-0.633-0.065-0.932-0.149s-0.575-0.215-0.828-0.391s-0.464-0.433-0.633-0.771
		c-0.229-0.46-0.342-1.334-0.333-2.622c0.007-1.288,0.019-2.875,0.034-4.761h-0.23h-0.137c-0.17,0-0.296-0.012-0.381-0.035
		c-0.084-0.023-0.145-0.081-0.184-0.172c-0.038-0.092-0.061-0.242-0.068-0.449s-0.012-0.495-0.012-0.862
		c0-0.337,0.004-0.59,0.012-0.759c0.008-0.168,0.041-0.288,0.104-0.356c0.061-0.069,0.16-0.107,0.299-0.115
		c0.138-0.008,0.337-0.019,0.598-0.035c0-0.398-0.004-0.728-0.012-0.989s-0.008-0.468,0-0.621s0.031-0.257,0.069-0.311
		s0.096-0.081,0.173-0.081h1.195h0.598c0.215,0,0.372,0.008,0.473,0.023c0.1,0.016,0.168,0.062,0.207,0.138
		c0.037,0.077,0.057,0.188,0.057,0.333c0,0.146,0,0.349,0,0.609v0.897L63.637,21.492z"/>
	<path fill="#FFFFFF" d="M76.148,26.161h-1.265l-1.242,0.023v3.588c0.138,0,0.353,0,0.644,0c0.292,0,0.61,0,0.955,0
		c0.346,0,0.689,0.004,1.035,0.011c0.345,0.008,0.641,0.012,0.885,0.012v3.174h-6.784V16.524h6.784v3.174h-3.564v3.289h2.553V26.161
		z"/>
	<path fill="#FFFFFF" d="M81.783,27.288c0.016-0.061,0.047-0.226,0.093-0.494s0.099-0.59,0.161-0.966
		c0.061-0.375,0.126-0.786,0.195-1.23c0.068-0.444,0.138-0.87,0.207-1.276c0.068-0.406,0.134-0.778,0.195-1.116
		c0.061-0.337,0.107-0.583,0.139-0.736h2.76c-0.016,0.062-0.085,0.379-0.207,0.955c-0.123,0.575-0.27,1.28-0.438,2.116
		c-0.169,0.836-0.356,1.737-0.563,2.703s-0.396,1.867-0.563,2.703c-0.169,0.836-0.314,1.537-0.438,2.104s-0.191,0.874-0.207,0.92
		h-2.76c-0.414-1.917-0.816-3.822-1.207-5.715s-0.771-3.822-1.139-5.785h2.76c0.031,0.138,0.069,0.364,0.115,0.679
		s0.104,0.675,0.172,1.081c0.07,0.407,0.143,0.836,0.219,1.288c0.077,0.453,0.15,0.871,0.219,1.253
		c0.069,0.384,0.131,0.713,0.184,0.989C81.734,27.035,81.769,27.211,81.783,27.288z"/>
	<path fill="#FFFFFF" d="M93.605,29.634c-0.016,0.476-0.123,0.92-0.322,1.334s-0.464,0.778-0.793,1.092
		c-0.33,0.314-0.713,0.56-1.15,0.736c-0.438,0.176-0.908,0.264-1.414,0.264c-0.17,0-0.342-0.008-0.518-0.023
		c-0.177-0.015-0.303-0.038-0.38-0.069c-0.644-0.138-1.149-0.379-1.519-0.725c-0.367-0.345-0.644-0.778-0.828-1.299
		c-0.184-0.521-0.299-1.104-0.344-1.748c-0.047-0.644-0.069-1.334-0.069-2.07c0-0.69,0.026-1.38,0.08-2.07s0.203-1.307,0.448-1.852
		c0.246-0.544,0.621-0.985,1.127-1.322c0.506-0.337,1.204-0.506,2.094-0.506c0.95,0,1.682,0.245,2.196,0.736
		c0.514,0.491,0.878,1.092,1.093,1.806c0.215,0.713,0.322,1.468,0.322,2.265c0,0.798-0.039,1.511-0.115,2.139h-4.508
		c0,0.199,0.003,0.414,0.011,0.644s0.046,0.445,0.115,0.644s0.173,0.36,0.311,0.483c0.138,0.123,0.345,0.184,0.621,0.184
		c0.261,0,0.444-0.092,0.552-0.276c0.107-0.184,0.184-0.383,0.23-0.598c0.03-0.138,0.053-0.242,0.068-0.311s0.065-0.119,0.15-0.149
		c0.084-0.031,0.207-0.05,0.367-0.058c0.161-0.007,0.402-0.012,0.725-0.012h0.575c0.229,0,0.405,0.008,0.528,0.023
		s0.211,0.05,0.266,0.104c0.053,0.054,0.084,0.13,0.092,0.23S93.621,29.465,93.605,29.634z M90.868,25.954
		c0-0.168-0.004-0.36-0.011-0.575c-0.008-0.215-0.035-0.426-0.081-0.633s-0.13-0.379-0.253-0.518
		c-0.123-0.138-0.314-0.207-0.575-0.207c-0.307,0-0.525,0.104-0.655,0.31c-0.131,0.207-0.219,0.602-0.265,1.185l-0.022,0.437H90.868
		z"/>
	<path fill="#FFFFFF" d="M100.045,32.969c0-0.123,0-0.387,0-0.793s-0.004-0.893-0.012-1.46s-0.016-1.173-0.022-1.817
		c-0.008-0.644-0.016-1.261-0.022-1.852c-0.009-0.59-0.016-1.116-0.023-1.576s-0.012-0.782-0.012-0.966
		c0-0.199-0.068-0.379-0.207-0.541s-0.346-0.242-0.621-0.242c-0.199,0-0.387,0.054-0.563,0.161c-0.177,0.107-0.28,0.269-0.311,0.483
		c-0.015,0.153-0.026,0.476-0.034,0.966c-0.008,0.491-0.016,1.112-0.023,1.863c-0.008,0.751-0.008,1.618,0,2.599
		s0.012,2.039,0.012,3.174h-2.807c0-0.153-0.004-0.272-0.011-0.356c-0.008-0.084-0.012-0.23-0.012-0.437s-0.004-0.518-0.011-0.932
		c-0.008-0.414-0.012-1.023-0.012-1.829c0-0.805,0-1.847,0-3.128c0-1.28,0-2.886,0-4.818h2.553v0.437
		c0.168-0.184,0.41-0.322,0.725-0.414c0.314-0.092,0.633-0.138,0.954-0.138c0.229,0,0.437,0.023,0.621,0.069
		c0.536,0.107,0.962,0.272,1.276,0.495s0.56,0.468,0.736,0.736c0.176,0.269,0.295,0.548,0.356,0.839
		c0.062,0.292,0.106,0.567,0.138,0.828v8.648H100.045z"/>
	<path fill="#FFFFFF" d="M108.072,21.492c0.23,0,0.402,0.004,0.518,0.012s0.195,0.054,0.241,0.138
		c0.046,0.084,0.069,0.219,0.069,0.403c0,0.184,0,0.46,0,0.828v1.127c-0.016,0.108-0.058,0.177-0.127,0.207
		c-0.068,0.031-0.257,0.046-0.563,0.046h-0.759c0,1.38,0,2.453,0,3.22c0,0.767,0.004,1.342,0.012,1.725s0.022,0.629,0.046,0.736
		c0.022,0.107,0.058,0.184,0.104,0.23c0.046,0.077,0.198,0.115,0.46,0.115h0.115c0.076-0.015,0.145-0.023,0.207-0.023
		c0.061,0,0.115,0,0.16,0c0.185,0,0.288,0.081,0.311,0.241c0.023,0.161,0.035,0.525,0.035,1.093c0,0.353-0.004,0.625-0.012,0.816
		c-0.008,0.192-0.027,0.326-0.058,0.402c-0.03,0.077-0.089,0.123-0.173,0.138c-0.084,0.016-0.203,0.023-0.355,0.023
		c-0.292,0-0.599-0.007-0.921-0.023c-0.321-0.015-0.632-0.065-0.931-0.149c-0.3-0.084-0.576-0.215-0.828-0.391
		c-0.254-0.176-0.465-0.433-0.633-0.771c-0.23-0.46-0.342-1.334-0.334-2.622s0.02-2.875,0.035-4.761h-0.23h-0.138
		c-0.169,0-0.296-0.012-0.38-0.035s-0.146-0.081-0.184-0.172c-0.039-0.092-0.062-0.242-0.069-0.449s-0.011-0.495-0.011-0.862
		c0-0.337,0.003-0.59,0.011-0.759c0.008-0.168,0.042-0.288,0.104-0.356s0.161-0.107,0.3-0.115c0.137-0.008,0.336-0.019,0.598-0.035
		c0-0.398-0.004-0.728-0.012-0.989s-0.008-0.468,0-0.621s0.03-0.257,0.068-0.311c0.039-0.054,0.096-0.081,0.173-0.081h1.196h0.598
		c0.215,0,0.371,0.008,0.472,0.023c0.1,0.016,0.169,0.062,0.207,0.138s0.058,0.188,0.058,0.333c0,0.146,0,0.349,0,0.609v0.897
		L108.072,21.492z"/>
	<path fill="#FFFFFF" d="M115.432,24.942h-0.322c-0.261,0-0.459-0.004-0.598-0.012c-0.138-0.007-0.241-0.026-0.311-0.058
		c-0.068-0.03-0.123-0.076-0.161-0.138c-0.038-0.061-0.08-0.146-0.126-0.253c-0.077-0.169-0.169-0.288-0.276-0.356
		c-0.107-0.069-0.261-0.104-0.46-0.104c-0.246,0-0.453,0.077-0.621,0.23c-0.169,0.153-0.253,0.375-0.253,0.667
		c0,0.276,0.062,0.471,0.185,0.586c0.122,0.115,0.287,0.192,0.494,0.23c0.207,0.039,0.44,0.062,0.701,0.069
		c0.261,0.008,0.521,0.05,0.782,0.126c0.583,0.138,1.054,0.388,1.415,0.748c0.359,0.36,0.624,0.778,0.793,1.253
		c0.168,0.476,0.241,0.978,0.219,1.507c-0.023,0.529-0.135,1.031-0.334,1.506c-0.199,0.476-0.486,0.894-0.862,1.253
		c-0.376,0.36-0.832,0.609-1.368,0.748c-0.307,0.077-0.69,0.115-1.15,0.115c-0.184,0-0.368-0.008-0.552-0.023
		c-0.185-0.015-0.353-0.046-0.507-0.092c-0.506-0.138-0.935-0.379-1.287-0.725c-0.354-0.345-0.629-0.705-0.828-1.081
		c-0.199-0.375-0.322-0.725-0.368-1.046s-0.022-0.529,0.069-0.621l0.115-0.115c0.658,0.015,1.223,0.023,1.689,0.023
		c0.469,0,0.725,0.015,0.771,0.046c0.106,0.107,0.184,0.234,0.229,0.379c0.046,0.146,0.161,0.272,0.345,0.379
		c0.107,0.062,0.238,0.092,0.391,0.092c0.154,0,0.303-0.042,0.449-0.126c0.146-0.084,0.256-0.211,0.334-0.379
		c0.076-0.123,0.114-0.276,0.114-0.46c0-0.184-0.038-0.329-0.114-0.437c-0.154-0.184-0.35-0.291-0.587-0.322
		s-0.515-0.061-0.828-0.092c-0.314-0.031-0.651-0.104-1.013-0.219c-0.359-0.115-0.731-0.364-1.115-0.748
		c-0.353-0.353-0.602-0.713-0.747-1.081c-0.146-0.368-0.218-0.828-0.218-1.38c0-0.567,0.092-1.084,0.275-1.552
		s0.44-0.866,0.771-1.196c0.329-0.33,0.72-0.586,1.173-0.771c0.452-0.184,0.955-0.276,1.506-0.276c0.875,0,1.622,0.246,2.243,0.736
		c0.621,0.491,1.038,1.166,1.253,2.024c0.123,0.43,0.135,0.694,0.035,0.794s-0.303,0.149-0.609,0.149H115.432z"/>
</g>
<path fill-rule="evenodd" clip-rule="evenodd" d="M56.379,111.899c-0.18,0.743-0.293,1.509-0.549,2.224
	c-2.355,6.591-10.54,8.492-15.576,3.638c-4.308-4.154-3.554-11.504,1.509-14.698c5.307-3.349,12.108-0.955,14.134,4.991
	c0.22,0.647,0.323,1.334,0.481,2.002V111.899z M40.277,110.948c-0.082,3.521,2.854,6.585,6.393,6.674
	c3.692,0.09,6.759-2.773,6.848-6.395c0.092-3.747-2.772-6.742-6.546-6.843C43.378,104.289,40.363,107.244,40.277,110.948"/>
<path fill-rule="evenodd" clip-rule="evenodd" d="M9.143,110.056c0.207-0.798,0.333-1.628,0.635-2.388
	c1.348-3.38,3.83-5.44,7.434-6.006c3.849-0.605,7.515,1.186,9.515,4.531c0.023,0.037,0.033,0.084,0.068,0.179
	c-0.701,0.632-1.416,1.279-2.129,1.922c-0.967-2.051-2.647-3.427-5.028-3.824c-1.666-0.276-3.24,0.074-4.663,1.011
	c-2.884,1.894-3.792,5.752-2.15,8.756c1.469,2.687,5.829,4.946,9.826,2.045c0.331,0.331,0.635,0.705,1.008,0.991
	c0.37,0.285,0.809,0.481,1.26,0.74c-0.63,0.629-1.366,1.109-2.162,1.493c-5.572,2.688-12.09-0.487-13.407-6.525
	c-0.078-0.358-0.139-0.721-0.207-1.08V110.056z"/>
<path fill-rule="evenodd" clip-rule="evenodd" d="M30.693,105.026c-1.116-0.703-2.19-1.358-3.243-2.049
	c-1.491-0.974-2.966-1.974-4.447-2.964c-1.82-1.216-2.227-3.4-1.457-5.223c0.494-1.173,1.308-2.071,2.378-2.742
	c3.306-2.072,6.607-4.151,9.922-6.209c2.138-1.326,4.522-0.761,5.884,1.359c0.157,0.246,0.289,0.514,0.469,0.74
	c0.862,1.096,0.997,2.317,0.768,3.659c-0.208,1.224-0.298,2.469-0.447,3.758c0.963,0.166,1.895,0.328,2.827,0.483
	c1.167,0.192,2.335,0.377,3.501,0.576c1.239,0.21,2.066,1.084,2.14,2.245c0.068,1.078-0.646,2.157-1.716,2.378
	c-0.563,0.115-1.187,0.035-1.769-0.056c-2.594-0.402-5.183-0.845-7.773-1.27c-1.374-0.227-2.207-1.268-2.129-2.666
	c0.01-0.176,0.017-0.354,0.029-0.625c-1.232,0.769-2.386,1.49-3.591,2.245c0.166,0.108,0.292,0.203,0.428,0.281
	c1.474,0.857,2.954,1.702,4.42,2.57c1.454,0.861,1.946,2.394,1.229,3.832c-0.154,0.312-0.383,0.597-0.624,0.848
	c-2.917,3.04-5.86,6.055-8.759,9.108c-1.76,1.854-4.41,0.988-4.961-1.057c-0.305-1.129,0.042-2.08,0.838-2.903
	c1.893-1.956,3.779-3.917,5.667-5.876C30.404,105.34,30.526,105.207,30.693,105.026"/>
<path fill-rule="evenodd" clip-rule="evenodd" d="M49.881,84.418c0.203,2.32-1.77,4.642-4.063,4.906
	c-2.866,0.331-5.164-1.764-5.373-4.233c-0.223-2.64,1.664-4.939,4.262-5.177C47.364,79.67,49.802,81.686,49.881,84.418"/>
<path d="M65.119,77.809c0.596-1.237,1.52-1.824,2.645-1.667c0.904,0.127,1.49,0.639,1.824,1.485
	c0.406,1.031,0.762,2.092,1.283,3.063c1.598,2.987,4.086,4.56,7.523,4.432c0.607-0.022,1.199-0.365,1.811-0.418
	c0.627-0.054,1.32-0.069,1.898,0.139c4.193,1.506,8.365,3.064,12.539,4.623c1.33,0.495,1.945,1.682,1.6,2.996
	c-0.35,1.331-1.41,1.894-2.76,1.405c-2.635-0.954-5.26-1.938-7.889-2.908c-0.221-0.081-0.445-0.15-0.727-0.247
	c-0.285,2.264,0.104,4.378,0.869,6.598c-1.391-0.415-2.658-0.73-3.881-1.17c-1.688-0.608-3.338-1.314-5.01-1.965
	c-0.352-0.139-0.479-0.353-0.469-0.73c0.033-1.149,0.016-2.301,0.053-3.45c0.01-0.332-0.088-0.469-0.412-0.52
	c-4.684-0.748-7.742-3.559-9.699-7.719c-0.471-0.999-0.803-2.063-1.199-3.098V77.809z"/>
<path d="M81.756,108.933c-1.674,1.351-2.107,2.697-1.33,4.761c0.453,1.201,1.031,2.365,1.641,3.5c1.32,2.45-0.721,4.351-2.502,4.399
	c-0.848,0.025-1.611-0.263-2.045-0.974c-1.756-2.884-3.289-5.855-3.066-9.395c0.154-2.439,1.293-4.405,3.051-5.997
	c0.844-0.766,1.473-1.364,0.814-2.608c-0.352-0.666-0.348-1.519-0.531-2.419c2.824,1.741,5.883,2.467,9.104,2.956
	c-0.125,0.347-0.166,0.666-0.334,0.888c-0.309,0.41-0.25,0.744-0.072,1.205c2.068,5.369,5.727,9.505,10.078,13.114
	c0.482,0.398,0.975,0.792,1.42,1.229c0.799,0.789,0.914,1.796,0.363,2.772c-0.951,1.688-3.104,2.188-4.633,0.976
	c-3.262-2.582-6.252-5.45-8.602-8.907C83.914,112.67,82.883,110.793,81.756,108.933"/>
<path d="M75.186,93.788c1.24,0.637,2.42,1.295,3.645,1.858c5.189,2.394,10.635,3.449,16.326,2.748
	c2.615-0.321,5.195-0.952,7.787-1.462c6.027-1.189,12.084-2.165,18.217-2.584c1.67-0.115,3.352-0.034,5.027-0.035
	c0.172,0,0.346,0.049,0.543,0.19c-1.063,0.511-2.125,1.02-3.256,1.563c1.252,0.938,2.715,1.525,3.867,2.838
	c-0.436,0-0.705,0.026-0.969-0.004c-5.131-0.571-10.207-0.05-15.262,0.788c-4.658,0.774-9.293,1.693-13.959,2.416
	c-4.227,0.657-8.479,0.873-12.715-0.029c-2.959-0.631-5.684-1.805-8.164-3.539c-0.139-0.097-0.307-0.245-0.336-0.393
	C75.674,96.698,75.436,95.249,75.186,93.788"/>
<path d="M76.248,78.901c-0.006-2.676,2.193-4.872,4.857-4.851c2.641,0.021,4.811,2.202,4.816,4.841
	c0.008,2.653-2.225,4.878-4.867,4.854C78.398,83.721,76.252,81.559,76.248,78.901"/>
<line stroke="#010101" stroke-miterlimit="10" x1="61.119" y1="76.011" x2="61.119" y2="122.011"/>
</svg>
