<?xml version="1.0" encoding="utf-8"?>
<!-- Generator: Adobe Illustrator 16.0.0, SVG Export Plug-In . SVG Version: 6.00 Build 0)  -->
<!DOCTYPE svg PUBLIC "-//W3C//DTD SVG 1.1//EN" "http://www.w3.org/Graphics/SVG/1.1/DTD/svg11.dtd">
<svg version="1.1" id="Layer_1" xmlns="http://www.w3.org/2000/svg" xmlns:xlink="http://www.w3.org/1999/xlink" x="0px" y="0px"
	 width="157px" height="179px" viewBox="0 0 157 179" enable-background="new 0 0 157 179" xml:space="preserve">
<rect x="0.992" y="1.01" fill-rule="evenodd" clip-rule="evenodd" fill="#FFFFFF" stroke="#627D53" stroke-width="2" stroke-miterlimit="10" width="155" height="177"/>
<rect x="0.992" y="0.01" fill-rule="evenodd" clip-rule="evenodd" fill="#627D53" width="155" height="56"/>
<g>
	<path fill="#FFFFFF" d="M26.733,26.207c-0.532-0.576-0.798-1.402-0.798-2.479V13.582h2.09V23.88c0,0.456,0.092,0.786,0.275,0.987
		c0.184,0.203,0.447,0.305,0.789,0.305c0.342,0,0.605-0.102,0.789-0.305c0.184-0.201,0.275-0.531,0.275-0.987V13.582h2.014v10.146
		c0,1.076-0.266,1.902-0.798,2.479c-0.532,0.576-1.305,0.865-2.318,0.865S27.265,26.783,26.733,26.207z"/>
	<path fill="#FFFFFF" d="M33.648,13.582h2.09v11.4h3.439v1.899h-5.529V13.582z"/>
	<path fill="#FFFFFF" d="M40.336,15.482h-2.185v-1.9h6.46v1.9h-2.185v11.399h-2.09V15.482z"/>
	<path fill="#FFFFFF" d="M45.618,13.582h2.09v13.3h-2.09V13.582z"/>
	<path fill="#FFFFFF" d="M49.266,13.582h2.983l1.33,9.52h0.038l1.33-9.52h2.983v13.3h-1.976V16.813h-0.038l-1.52,10.069h-1.748
		l-1.52-10.069H51.09v10.069h-1.824V13.582z"/>
	<path fill="#FFFFFF" d="M61.103,13.582h2.831l2.166,13.3h-2.09l-0.38-2.642v0.039h-2.375l-0.38,2.603h-1.938L61.103,13.582z
		 M63.383,22.474L62.452,15.9h-0.038l-0.912,6.573H63.383z"/>
	<path fill="#FFFFFF" d="M67.867,15.482h-2.185v-1.9h6.46v1.9h-2.185v11.399h-2.09V15.482z"/>
	<path fill="#FFFFFF" d="M73.149,13.582h5.7v1.9h-3.61v3.515h2.869v1.899h-2.869v4.086h3.61v1.899h-5.7V13.582z"/>
	<path fill="#FFFFFF" d="M83.085,13.582h5.529v1.9h-3.439v3.705h2.698v1.899h-2.698v5.795h-2.09V13.582z"/>
	<path fill="#FFFFFF" d="M89.622,13.582h3.097c1.077,0,1.862,0.25,2.356,0.75c0.494,0.501,0.741,1.271,0.741,2.309v0.817
		c0,1.38-0.456,2.255-1.368,2.622v0.037c0.506,0.152,0.865,0.463,1.074,0.932s0.313,1.096,0.313,1.881v2.337
		c0,0.38,0.012,0.688,0.038,0.922s0.089,0.466,0.19,0.693h-2.128c-0.076-0.216-0.126-0.418-0.152-0.608
		c-0.025-0.189-0.038-0.531-0.038-1.025v-2.432c0-0.608-0.098-1.033-0.294-1.273s-0.535-0.361-1.017-0.361h-0.722v5.7h-2.09V13.582z
		 M92.472,19.281c0.418,0,0.731-0.107,0.94-0.322s0.313-0.576,0.313-1.083V16.85c0-0.48-0.085-0.829-0.256-1.045
		c-0.171-0.215-0.44-0.322-0.808-0.322h-0.95v3.799H92.472z"/>
	<path fill="#FFFFFF" d="M97.279,13.582h2.09v13.3h-2.09V13.582z"/>
	<path fill="#FFFFFF" d="M101.345,26.207c-0.52-0.576-0.779-1.402-0.779-2.479v-0.761h1.976v0.912c0,0.861,0.361,1.292,1.083,1.292
		c0.354,0,0.624-0.104,0.808-0.313c0.183-0.209,0.275-0.548,0.275-1.017c0-0.557-0.127-1.048-0.38-1.473
		c-0.254-0.424-0.722-0.934-1.406-1.529c-0.861-0.76-1.463-1.447-1.805-2.062c-0.342-0.614-0.513-1.308-0.513-2.081
		c0-1.051,0.266-1.864,0.798-2.441c0.532-0.576,1.305-0.864,2.318-0.864c1,0,1.758,0.288,2.271,0.864
		c0.513,0.577,0.77,1.403,0.77,2.48v0.551h-1.976v-0.684c0-0.457-0.089-0.789-0.266-0.998c-0.178-0.209-0.437-0.313-0.779-0.313
		c-0.697,0-1.045,0.425-1.045,1.272c0,0.482,0.13,0.932,0.39,1.35c0.259,0.418,0.731,0.924,1.416,1.52
		c0.874,0.76,1.476,1.451,1.805,2.071c0.33,0.62,0.494,1.349,0.494,2.185c0,1.09-0.269,1.926-0.808,2.508
		c-0.538,0.584-1.32,0.875-2.346,0.875C102.63,27.072,101.864,26.783,101.345,26.207z"/>
	<path fill="#FFFFFF" d="M107.995,13.582h3.154c1.076,0,1.862,0.25,2.356,0.75c0.494,0.501,0.741,1.271,0.741,2.309v0.532
		c0,0.685-0.111,1.241-0.333,1.672s-0.56,0.741-1.016,0.931v0.039c1.038,0.354,1.558,1.279,1.558,2.773v1.141
		c0,1.025-0.269,1.808-0.807,2.346c-0.539,0.539-1.327,0.808-2.366,0.808h-3.287V13.582z M110.902,18.997
		c0.418,0,0.731-0.108,0.94-0.323s0.313-0.576,0.313-1.083V16.85c0-0.48-0.085-0.829-0.256-1.045
		c-0.171-0.215-0.44-0.322-0.808-0.322h-1.007v3.515H110.902z M111.282,24.982c0.367,0,0.64-0.099,0.817-0.295
		s0.266-0.535,0.266-1.017v-1.159c0-0.607-0.104-1.029-0.313-1.264s-0.554-0.352-1.036-0.352h-0.931v4.086H111.282z"/>
	<path fill="#FFFFFF" d="M115.67,13.582h5.7v1.9h-3.61v3.515h2.869v1.899h-2.869v4.086h3.61v1.899h-5.7V13.582z"/>
	<path fill="#FFFFFF" d="M122.567,13.582h5.7v1.9h-3.61v3.515h2.869v1.899h-2.869v4.086h3.61v1.899h-5.7V13.582z"/>
	<path fill="#FFFFFF" d="M54.216,32.382h2.09v11.399h3.439v1.9h-5.529V32.382z"/>
	<path fill="#FFFFFF" d="M60.751,32.382h5.7v1.899h-3.61v3.516h2.869v1.9h-2.869v4.084h3.61v1.9h-5.7V32.382z"/>
	<path fill="#FFFFFF" d="M69.264,32.382h2.831l2.166,13.3h-2.09l-0.38-2.641v0.037h-2.375l-0.38,2.604h-1.938L69.264,32.382z
		 M71.543,41.273l-0.931-6.574h-0.038l-0.912,6.574H71.543z"/>
	<path fill="#FFFFFF" d="M75.875,45.008c-0.532-0.577-0.798-1.403-0.798-2.48v-6.992c0-1.076,0.266-1.902,0.798-2.479
		c0.532-0.576,1.305-0.865,2.318-0.865c1.013,0,1.786,0.289,2.318,0.865c0.532,0.576,0.798,1.402,0.798,2.479v1.141h-1.976v-1.273
		c0-0.873-0.361-1.311-1.083-1.311c-0.722,0-1.083,0.438-1.083,1.311v7.277c0,0.861,0.361,1.292,1.083,1.292
		c0.722,0,1.083-0.431,1.083-1.292v-2.604h-1.045v-1.899h3.021v4.351c0,1.077-0.266,1.903-0.798,2.48
		c-0.532,0.576-1.305,0.863-2.318,0.863C77.18,45.871,76.407,45.584,75.875,45.008z"/>
	<path fill="#FFFFFF" d="M83.38,45.008c-0.532-0.577-0.798-1.403-0.798-2.48V32.382h2.09V42.68c0,0.456,0.092,0.785,0.275,0.988
		s0.447,0.304,0.789,0.304c0.342,0,0.605-0.101,0.789-0.304S86.8,43.136,86.8,42.68V32.382h2.014v10.146
		c0,1.077-0.266,1.903-0.798,2.48c-0.532,0.576-1.305,0.863-2.318,0.863S83.912,45.584,83.38,45.008z"/>
	<path fill="#FFFFFF" d="M90.295,32.382h5.7v1.899h-3.61v3.516h2.869v1.9h-2.869v4.084h3.61v1.9h-5.7V32.382z"/>
	<path fill="#FFFFFF" d="M97.648,45.008c-0.52-0.577-0.779-1.403-0.779-2.48v-0.76h1.976v0.912c0,0.861,0.361,1.292,1.083,1.292
		c0.354,0,0.624-0.104,0.808-0.313c0.183-0.209,0.275-0.548,0.275-1.017c0-0.558-0.127-1.048-0.38-1.473
		c-0.254-0.424-0.722-0.934-1.406-1.529c-0.861-0.76-1.463-1.446-1.805-2.062c-0.342-0.614-0.513-1.308-0.513-2.08
		c0-1.052,0.266-1.865,0.798-2.441c0.532-0.576,1.305-0.865,2.318-0.865c1,0,1.758,0.289,2.271,0.865
		c0.513,0.576,0.77,1.402,0.77,2.479v0.551h-1.976v-0.684c0-0.455-0.089-0.788-0.266-0.997c-0.178-0.209-0.437-0.313-0.779-0.313
		c-0.697,0-1.045,0.424-1.045,1.273c0,0.48,0.13,0.93,0.39,1.349c0.259,0.418,0.731,0.925,1.416,1.52
		c0.874,0.761,1.476,1.45,1.805,2.071c0.33,0.621,0.494,1.35,0.494,2.186c0,1.089-0.269,1.925-0.808,2.508
		c-0.538,0.582-1.32,0.873-2.346,0.873C98.934,45.871,98.168,45.584,97.648,45.008z"/>
</g>
<g>
	<path fill-rule="evenodd" clip-rule="evenodd" fill="#627D53" d="M76.645,78.755c1.31,0,2.62,0,3.93,0
		c0.19,0.038,0.38,0.084,0.572,0.113c1.83,0.284,3.69,0.437,5.484,0.866c17.219,4.128,28.303,21.427,24.931,38.84
		c-1.293,6.677-4.319,12.453-9.1,17.28c-5.012,5.062-11.035,8.249-18.071,9.462c-1.264,0.218-2.543,0.347-3.816,0.517
		c-1.31,0-2.62,0-3.93,0c-0.885-0.105-1.772-0.195-2.654-0.319c-6.613-0.935-12.46-3.576-17.465-7.996
		c-5.895-5.206-9.583-11.685-10.939-19.452c-0.22-1.261-0.346-2.537-0.516-3.806c0-1.311,0-2.621,0-3.931
		c0.041-0.231,0.089-0.461,0.12-0.693c0.16-1.21,0.253-2.433,0.48-3.629c1.27-6.681,4.311-12.452,9.09-17.277
		c5.012-5.06,11.034-8.245,18.068-9.458C74.094,79.054,75.373,78.925,76.645,78.755z M78.583,139.381
		c14.849,0.04,27.097-12.191,27.113-27.076c0.016-14.844-12.118-27.01-27.027-27.098c-14.823-0.087-27.083,12.127-27.146,27.044
		C51.46,127.087,63.683,139.341,78.583,139.381z"/>
	<path fill-rule="evenodd" clip-rule="evenodd" fill="#FFFFFF" d="M78.583,139.381c-14.9-0.04-27.124-12.294-27.06-27.13
		c0.063-14.917,12.323-27.131,27.146-27.044c14.909,0.088,27.043,12.254,27.027,27.098
		C105.681,127.189,93.433,139.421,78.583,139.381z M101.764,112.321c-0.076-12.622-10.06-23.1-23.094-23.157
		c-12.645-0.056-23.153,10.048-23.189,23.104c-0.035,12.621,10.036,23.099,23.07,23.156
		C91.195,135.479,101.619,125.376,101.764,112.321z"/>
	<path fill-rule="evenodd" clip-rule="evenodd" fill="#627D53" d="M101.764,112.321c-0.145,13.055-10.568,23.158-23.213,23.103
		c-13.034-0.058-23.105-10.535-23.07-23.156c0.037-13.056,10.544-23.159,23.189-23.104
		C91.704,89.222,101.688,99.699,101.764,112.321z M91.339,112.311c0.015-7.032-5.691-12.745-12.729-12.746
		c-7.015,0-12.685,5.648-12.729,12.681c-0.044,7.021,5.646,12.748,12.696,12.778C85.605,125.053,91.324,119.355,91.339,112.311z"/>
	<path fill-rule="evenodd" clip-rule="evenodd" fill="#FFFFFF" d="M91.339,112.311c-0.015,7.045-5.734,12.742-12.762,12.713
		c-7.05-0.03-12.741-5.758-12.696-12.778c0.044-7.032,5.714-12.681,12.729-12.681C85.648,99.565,91.354,105.278,91.339,112.311z
		 M87.409,112.312c0.011-4.858-3.887-8.786-8.749-8.816c-4.882-0.03-8.838,3.896-8.849,8.781c-0.011,4.858,3.886,8.784,8.749,8.816
		C83.44,121.125,87.398,117.197,87.409,112.312z"/>
	<path fill-rule="evenodd" clip-rule="evenodd" fill="#627D53" d="M87.409,112.312c-0.011,4.886-3.969,8.813-8.849,8.781
		c-4.863-0.032-8.76-3.958-8.749-8.816c0.011-4.886,3.967-8.812,8.849-8.781C83.521,103.525,87.419,107.453,87.409,112.312z"/>
</g>
</svg>
