<?xml version="1.0" encoding="utf-8"?>
<!-- Generator: Adobe Illustrator 16.0.0, SVG Export Plug-In . SVG Version: 6.00 Build 0)  -->
<!DOCTYPE svg PUBLIC "-//W3C//DTD SVG 1.1//EN" "http://www.w3.org/Graphics/SVG/1.1/DTD/svg11.dtd">
<svg version="1.1" id="Layer_1" xmlns="http://www.w3.org/2000/svg" xmlns:xlink="http://www.w3.org/1999/xlink" x="0px" y="0px"
	 width="157px" height="179px" viewBox="0 0 157 179" enable-background="new 0 0 157 179" xml:space="preserve">
<rect x="1" y="1" fill="#FFFFFF" stroke="#000000" stroke-width="2" stroke-miterlimit="10" width="155" height="177"/>
<rect x="1" y="1" width="155" height="56"/>
<path d="M67.667,18"/>
<g>
	<path d="M79.71,167.788c-6.886,0-13.773-0.028-20.658,0.026c-1.229,0.012-1.847-0.207-1.658-1.584
		c0.109-0.797,0.063-1.621,0.012-2.429c-0.129-2.049,0.202-3.718,1.741-5.448c2.954-3.32,2.483-8.312-0.696-11.485
		c-0.776-0.775-1.067-1.513-1.056-2.571c0.06-6.074,0.063-12.15,0.082-18.225c0.003-0.861,0.164-1.828-0.882-2.231
		c-0.943-0.364-1.495,0.374-2.072,0.923c-3.268,3.109-6.499,6.26-9.812,9.32c-0.898,0.83-0.743,1.305,0.048,2.045
		c3.802,3.555,7.554,7.162,11.342,10.734c3.497,3.296,3.875,8.275,0.842,11.439c-3.219,3.36-8.011,3.338-11.604-0.031
		c-4.598-4.313-9.26-8.56-13.802-12.929c-4.034-3.881-6.226-8.438-4.63-14.204c0.551-1.99,1.957-3.402,3.269-4.843
		c5.646-6.202,11.304-12.396,17.049-18.504c3.919-4.166,8.995-5.914,14.563-6.49c0.81-0.085,1.121,0.318,1.409,0.959
		c4.562,10.117,9.13,20.231,13.724,30.335c0.352,0.774,0.4,1.163-0.557,1.484c-1.214,0.404-3.058,0.125-3.459,1.457
		c-0.316,1.047,0.436,2.434,0.767,3.654c0.863,3.179,1.791,6.34,2.619,9.526c0.331,1.279,0.896,1.71,2.221,1.265
		c1.804-0.606,3.645-1.155,5.507-1.541c1.567-0.323,1.748-1.017,1.311-2.438c-1.072-3.479-1.955-7.017-2.979-10.51
		c-0.279-0.955-0.209-1.763,0.219-2.656c4.794-10.071,9.57-20.151,14.305-30.252c0.445-0.951,0.969-1.237,1.982-1.134
		c5.545,0.57,10.225,3.002,13.99,6.975c6.006,6.34,11.823,12.856,17.707,19.313c2.713,2.979,3.105,6.479,2.09,10.217
		c-0.778,2.861-2.381,5.246-4.539,7.264c-4.729,4.428-9.44,8.871-14.196,13.271c-3.5,3.24-8.322,3.081-11.454-0.311
		c-2.866-3.104-2.59-7.896,0.691-11.055c3.793-3.65,7.604-7.279,11.455-10.867c0.896-0.835,1.102-1.336,0.062-2.289
		c-3.284-3.006-6.449-6.143-9.675-9.213c-0.572-0.545-1.131-1.289-2.08-0.914c-1.029,0.406-0.911,1.354-0.908,2.227
		c0.018,6.076,0.016,12.149,0.068,18.226c0.009,1.054-0.254,1.826-1.02,2.604c-3.553,3.617-3.471,8.994,0.174,12.563
		c0.6,0.585,0.864,1.139,0.84,1.953c-0.047,1.619-0.09,3.244,0.011,4.857c0.077,1.217-0.317,1.557-1.536,1.547
		C93.598,167.759,86.654,167.788,79.71,167.788z"/>
	<path d="M81.212,62.487c9.802,0.01,17.668,7.886,17.604,17.627c-0.063,9.757-7.969,17.571-17.748,17.541
		c-9.755-0.028-17.625-7.937-17.604-17.686C63.489,70.217,71.343,62.479,81.212,62.487z"/>
	<path d="M92.828,101.365c-4.25,9.14-8.499,18.273-12.902,27.738c-0.783-1.737-1.435-3.172-2.076-4.607
		c-3.227-7.217-6.432-14.443-9.694-21.646c-0.555-1.225-0.658-1.711,1.016-1.697c7.278,0.063,14.557-0.01,21.836-0.018
		C91.561,101.136,92.145,100.979,92.828,101.365z"/>
	<path d="M81.148,133.463c-0.065,1.01-0.582,1.521-1.434,1.532c-0.955,0.012-1.514-0.567-1.488-1.528
		c0.023-0.859,0.525-1.408,1.419-1.414C80.625,132.046,81.084,132.631,81.148,133.463z"/>
</g>
<g>
	<path fill="#FFFFFF" d="M144.992,22.024c-1.354,0-2.441,0.408-3.264,1.224c-0.823,0.816-1.234,1.862-1.234,3.139
		c0,0.75,0.174,1.418,0.521,2.004c0.348,0.587,0.788,1.038,1.322,1.354c0.535,0.316,1.347,0.668,2.437,1.057
		c0.848,0.306,1.389,0.595,1.625,0.869c0.235,0.274,0.354,0.585,0.354,0.932c0,0.458-0.168,0.828-0.505,1.109
		s-0.775,0.422-1.317,0.422c-1.187,0-1.946-0.715-2.28-2.145l-2.728,0.781c0.715,2.603,2.36,3.905,4.936,3.905
		c1.534,0,2.757-0.425,3.67-1.275c0.913-0.851,1.369-1.938,1.369-3.265c0-0.756-0.161-1.421-0.484-1.994
		c-0.322-0.573-0.746-1.026-1.27-1.359c-0.524-0.333-1.244-0.67-2.161-1.01c-1.006-0.389-1.668-0.703-1.983-0.942
		c-0.315-0.24-0.474-0.561-0.474-0.963c0-0.347,0.134-0.651,0.4-0.911c0.268-0.26,0.631-0.39,1.089-0.39
		c0.979,0,1.651,0.586,2.02,1.759l2.582-0.989C149.005,23.128,147.464,22.024,144.992,22.024z M133.675,24.544
		c0.465,0,0.817,0.054,1.057,0.161c0.239,0.108,0.449,0.313,0.63,0.615c0.181,0.302,0.271,0.689,0.271,1.161
		c0,1.368-0.611,2.051-1.833,2.051h-1.374v-3.988H133.675z M129.301,36.456h3.124v-5.623h1.561l1.901,5.623h3.399l-2.613-6.216
		c1.333-0.722,1.999-1.971,1.999-3.748c0-0.757-0.134-1.439-0.4-2.046c-0.268-0.607-0.637-1.086-1.109-1.437
		c-0.472-0.351-0.938-0.566-1.4-0.646c-0.461-0.08-1.126-0.12-1.993-0.12h-4.468V36.456z M119.129,36.456h8.643v-2.541h-5.519
		v-3.499h4.29V27.98h-4.29V24.68h5.519v-2.437h-8.643V36.456z M107.029,36.456h2.416V26.169l4.331,10.287h2.791V22.243h-2.416v8.83
		l-3.654-8.83h-3.468V36.456z M101.334,36.456h3.124V22.243h-3.124V36.456z M92.842,31.083l1.378-5.823l1.437,5.823H92.842z
		 M88.674,36.456h2.87l0.696-2.936h4.004l0.709,2.936h3.194l-4.061-14.213h-3.145L88.674,36.456z M83.187,24.544
		c0.465,0,0.817,0.054,1.057,0.161c0.239,0.108,0.449,0.313,0.63,0.615c0.181,0.302,0.271,0.689,0.271,1.161
		c0,1.368-0.611,2.051-1.833,2.051h-1.374v-3.988H83.187z M78.813,36.456h3.124v-5.623h1.561l1.901,5.623h3.399l-2.613-6.216
		c1.333-0.722,1.999-1.971,1.999-3.748c0-0.757-0.134-1.439-0.4-2.046c-0.268-0.607-0.637-1.086-1.109-1.437
		c-0.472-0.351-0.938-0.566-1.4-0.646c-0.461-0.08-1.126-0.12-1.993-0.12h-4.468V36.456z M68.869,24.909h2.832v11.547h3.124V24.909
		h2.906v-2.666h-8.862V24.909z M52.563,24.909h2.832v11.547h3.124V24.909h2.905v-2.666h-8.861V24.909z M46.503,24.544
		c0.465,0,0.817,0.054,1.057,0.161c0.239,0.108,0.449,0.313,0.63,0.615c0.18,0.302,0.271,0.689,0.271,1.161
		c0,1.368-0.611,2.051-1.833,2.051h-1.375v-3.988H46.503z M42.13,36.456h3.124v-5.623h1.561l1.901,5.623h3.4l-2.613-6.216
		c1.333-0.722,1.999-1.971,1.999-3.748c0-0.757-0.134-1.439-0.401-2.046c-0.268-0.607-0.637-1.086-1.109-1.437
		c-0.472-0.351-0.939-0.566-1.4-0.646c-0.462-0.08-1.126-0.12-1.994-0.12H42.13V36.456z M36.21,33.187
		c-0.302,0.632-0.775,0.948-1.421,0.948c-0.653,0-1.126-0.33-1.421-0.989c-0.295-0.66-0.443-1.926-0.443-3.801
		c0-1.909,0.149-3.182,0.448-3.821c0.298-0.638,0.771-0.958,1.417-0.958c0.652,0,1.128,0.317,1.426,0.953s0.448,1.911,0.448,3.826
		C36.664,31.274,36.513,32.555,36.21,33.187z M38.631,23.857c-0.881-1.222-2.162-1.833-3.842-1.833c-3.437,0-5.154,2.44-5.154,7.32
		c0,2.395,0.434,4.215,1.301,5.461s2.156,1.869,3.863,1.869c3.436,0,5.154-2.443,5.154-7.331
		C39.954,26.908,39.513,25.079,38.631,23.857z M23.336,24.544c0.458,0,0.814,0.047,1.067,0.141c0.253,0.094,0.476,0.307,0.667,0.637
		s0.286,0.764,0.286,1.299c0,0.633-0.123,1.148-0.37,1.545c-0.247,0.396-0.796,0.595-1.65,0.595h-0.968v-4.217H23.336z
		 M19.244,36.456h3.124v-5.258h1.104c1.374,0,2.393-0.151,3.056-0.453c0.663-0.302,1.182-0.793,1.557-1.474
		c0.375-0.68,0.563-1.541,0.563-2.582c0-1.083-0.233-1.991-0.698-2.723c-0.465-0.732-1.04-1.203-1.723-1.411
		c-0.684-0.208-1.647-0.313-2.89-0.313h-4.092V36.456z M12.414,22.024c-1.354,0-2.442,0.408-3.265,1.224
		c-0.822,0.816-1.233,1.862-1.233,3.139c0,0.75,0.173,1.418,0.521,2.004c0.347,0.587,0.788,1.038,1.322,1.354
		c0.535,0.316,1.347,0.668,2.437,1.057c0.847,0.306,1.388,0.595,1.624,0.869c0.236,0.274,0.354,0.585,0.354,0.932
		c0,0.458-0.168,0.828-0.505,1.109c-0.336,0.281-0.775,0.422-1.317,0.422c-1.187,0-1.947-0.715-2.28-2.145L7.343,32.77
		c0.715,2.603,2.36,3.905,4.935,3.905c1.534,0,2.758-0.425,3.67-1.275c0.913-0.851,1.369-1.938,1.369-3.265
		c0-0.756-0.161-1.421-0.484-1.994s-0.746-1.026-1.271-1.359c-0.524-0.333-1.244-0.67-2.161-1.01
		c-1.006-0.389-1.667-0.703-1.983-0.942c-0.316-0.24-0.474-0.561-0.474-0.963c0-0.347,0.133-0.651,0.401-0.911
		c0.267-0.26,0.63-0.39,1.088-0.39c0.979,0,1.652,0.586,2.02,1.759l2.583-0.989C16.426,23.128,14.885,22.024,12.414,22.024z"/>
</g>
</svg>
