<?xml version="1.0" encoding="utf-8"?>
<!-- Generator: Adobe Illustrator 16.0.0, SVG Export Plug-In . SVG Version: 6.00 Build 0)  -->
<!DOCTYPE svg PUBLIC "-//W3C//DTD SVG 1.1//EN" "http://www.w3.org/Graphics/SVG/1.1/DTD/svg11.dtd">
<svg version="1.1" id="Layer_1" xmlns="http://www.w3.org/2000/svg" xmlns:xlink="http://www.w3.org/1999/xlink" x="0px" y="0px"
	 width="157px" height="179px" viewBox="0 0 157 179" enable-background="new 0 0 157 179" xml:space="preserve">
<rect x="1.975" y="1" fill-rule="evenodd" clip-rule="evenodd" fill="#FFFFFF" stroke="#627D53" stroke-width="2" stroke-miterlimit="10" width="155" height="177"/>
<rect x="1.975" fill-rule="evenodd" clip-rule="evenodd" fill="#627D53" width="155" height="56"/>
<g>
	<path fill="#FFFFFF" d="M43.434,36.207c-0.52-0.576-0.779-1.402-0.779-2.479v-0.761h1.976v0.912c0,0.861,0.361,1.292,1.083,1.292
		c0.354,0,0.624-0.104,0.808-0.313c0.183-0.209,0.275-0.548,0.275-1.017c0-0.557-0.127-1.048-0.38-1.473
		c-0.254-0.424-0.722-0.934-1.406-1.529c-0.861-0.76-1.463-1.447-1.805-2.062c-0.342-0.614-0.513-1.308-0.513-2.081
		c0-1.051,0.266-1.864,0.798-2.441c0.532-0.576,1.305-0.864,2.318-0.864c1,0,1.758,0.288,2.271,0.864
		c0.513,0.577,0.77,1.403,0.77,2.48v0.551h-1.976v-0.684c0-0.457-0.089-0.789-0.266-0.998c-0.178-0.209-0.437-0.313-0.779-0.313
		c-0.697,0-1.045,0.425-1.045,1.272c0,0.482,0.13,0.932,0.39,1.35c0.259,0.418,0.731,0.924,1.416,1.52
		c0.874,0.76,1.476,1.451,1.805,2.071c0.33,0.62,0.494,1.349,0.494,2.185c0,1.09-0.269,1.926-0.808,2.508
		c-0.538,0.584-1.32,0.875-2.346,0.875C44.719,37.072,43.953,36.783,43.434,36.207z"/>
	<path fill="#FFFFFF" d="M50.083,23.582h2.09v5.605l2.66-5.605h2.09l-2.489,4.883l2.527,8.417h-2.185l-1.767-5.929l-0.836,1.691
		v4.237h-2.09V23.582z"/>
	<path fill="#FFFFFF" d="M57.949,23.582h2.09v13.3h-2.09V23.582z"/>
	<path fill="#FFFFFF" d="M64.637,23.582h3.097c1.077,0,1.862,0.25,2.356,0.75c0.494,0.501,0.741,1.271,0.741,2.309v0.817
		c0,1.38-0.456,2.255-1.368,2.622v0.037c0.506,0.152,0.865,0.463,1.074,0.932s0.313,1.096,0.313,1.881v2.337
		c0,0.38,0.012,0.688,0.038,0.922s0.089,0.466,0.19,0.693H68.95c-0.076-0.216-0.126-0.418-0.152-0.608
		c-0.025-0.189-0.038-0.531-0.038-1.025v-2.432c0-0.608-0.098-1.033-0.294-1.273s-0.535-0.361-1.017-0.361h-0.722v5.7h-2.09V23.582z
		 M67.487,29.281c0.418,0,0.731-0.107,0.94-0.322s0.313-0.576,0.313-1.083V26.85c0-0.48-0.085-0.829-0.256-1.045
		c-0.171-0.215-0.44-0.322-0.808-0.322h-0.95v3.799H67.487z"/>
	<path fill="#FFFFFF" d="M72.294,23.582h5.7v1.9h-3.61v3.515h2.869v1.899h-2.869v4.086h3.61v1.899h-5.7V23.582z"/>
	<path fill="#FFFFFF" d="M79.647,36.207c-0.52-0.576-0.779-1.402-0.779-2.479v-0.761h1.976v0.912c0,0.861,0.361,1.292,1.083,1.292
		c0.354,0,0.624-0.104,0.808-0.313c0.183-0.209,0.275-0.548,0.275-1.017c0-0.557-0.127-1.048-0.38-1.473
		c-0.254-0.424-0.722-0.934-1.406-1.529c-0.861-0.76-1.463-1.447-1.805-2.062c-0.342-0.614-0.513-1.308-0.513-2.081
		c0-1.051,0.266-1.864,0.798-2.441c0.532-0.576,1.305-0.864,2.318-0.864c1,0,1.758,0.288,2.271,0.864
		c0.513,0.577,0.77,1.403,0.77,2.48v0.551h-1.976v-0.684c0-0.457-0.089-0.789-0.266-0.998c-0.178-0.209-0.437-0.313-0.779-0.313
		c-0.697,0-1.045,0.425-1.045,1.272c0,0.482,0.13,0.932,0.39,1.35c0.259,0.418,0.731,0.924,1.416,1.52
		c0.874,0.76,1.476,1.451,1.805,2.071c0.33,0.62,0.494,1.349,0.494,2.185c0,1.09-0.269,1.926-0.808,2.508
		c-0.538,0.584-1.32,0.875-2.346,0.875C80.933,37.072,80.167,36.783,79.647,36.207z"/>
	<path fill="#FFFFFF" d="M86.962,36.197c-0.544-0.582-0.817-1.405-0.817-2.469v-6.992c0-1.064,0.272-1.888,0.817-2.471
		c0.544-0.582,1.33-0.874,2.356-0.874c1.026,0,1.812,0.292,2.356,0.874c0.545,0.583,0.817,1.406,0.817,2.471v6.992
		c0,1.063-0.272,1.887-0.817,2.469c-0.544,0.584-1.33,0.875-2.356,0.875C88.292,37.072,87.506,36.781,86.962,36.197z M90.401,33.861
		v-7.258c0-0.875-0.361-1.312-1.083-1.312c-0.722,0-1.083,0.437-1.083,1.312v7.258c0,0.873,0.361,1.311,1.083,1.311
		C90.04,35.172,90.401,34.734,90.401,33.861z"/>
	<path fill="#FFFFFF" d="M93.897,23.582h3.097c1.077,0,1.862,0.25,2.356,0.75c0.494,0.501,0.741,1.271,0.741,2.309v0.817
		c0,1.38-0.456,2.255-1.368,2.622v0.037c0.506,0.152,0.865,0.463,1.074,0.932s0.313,1.096,0.313,1.881v2.337
		c0,0.38,0.012,0.688,0.038,0.922s0.089,0.466,0.19,0.693H98.21c-0.076-0.216-0.126-0.418-0.152-0.608
		c-0.025-0.189-0.038-0.531-0.038-1.025v-2.432c0-0.608-0.098-1.033-0.294-1.273s-0.535-0.361-1.017-0.361h-0.722v5.7h-2.09V23.582z
		 M96.747,29.281c0.418,0,0.731-0.107,0.94-0.322s0.313-0.576,0.313-1.083V26.85c0-0.48-0.085-0.829-0.256-1.045
		c-0.171-0.215-0.44-0.322-0.808-0.322h-0.95v3.799H96.747z"/>
	<path fill="#FFFFFF" d="M103.15,25.482h-2.185v-1.9h6.46v1.9h-2.185v11.399h-2.09V25.482z"/>
	<path fill="#FFFFFF" d="M108.85,36.207c-0.52-0.576-0.779-1.402-0.779-2.479v-0.761h1.976v0.912c0,0.861,0.361,1.292,1.083,1.292
		c0.354,0,0.624-0.104,0.808-0.313c0.183-0.209,0.275-0.548,0.275-1.017c0-0.557-0.127-1.048-0.38-1.473
		c-0.254-0.424-0.722-0.934-1.406-1.529c-0.861-0.76-1.463-1.447-1.805-2.062c-0.342-0.614-0.513-1.308-0.513-2.081
		c0-1.051,0.266-1.864,0.798-2.441c0.532-0.576,1.305-0.864,2.318-0.864c1,0,1.758,0.288,2.271,0.864
		c0.513,0.577,0.77,1.403,0.77,2.48v0.551h-1.976v-0.684c0-0.457-0.089-0.789-0.266-0.998c-0.178-0.209-0.437-0.313-0.779-0.313
		c-0.697,0-1.045,0.425-1.045,1.272c0,0.482,0.13,0.932,0.39,1.35c0.259,0.418,0.731,0.924,1.416,1.52
		c0.874,0.76,1.476,1.451,1.805,2.071c0.33,0.62,0.494,1.349,0.494,2.185c0,1.09-0.269,1.926-0.808,2.508
		c-0.538,0.584-1.32,0.875-2.346,0.875C110.136,37.072,109.37,36.783,108.85,36.207z"/>
</g>
<g>
	<path fill-rule="evenodd" clip-rule="evenodd" fill="#627D53" d="M38.49,123.895c0.412-0.633,0.716-1.388,1.259-1.873
		c1.014-0.906,2.225-0.764,3.454-0.338c8.998,3.115,18.004,6.203,27,9.324c0.578,0.201,0.941,0.137,1.407-0.264
		c3.783-3.261,7.594-6.49,11.396-9.729c0.337-0.287,0.67-0.58,1.072-0.929c-0.404-0.298-0.741-0.547-1.078-0.795
		c-3.1-2.285-6.282-4.467-9.278-6.88c-4.036-3.25-4.492-8.499-1.184-12.256c0.653-0.742,1.532-1.293,2.34-1.886
		c0.15-0.111,0.522-0.094,0.69,0.018c5.111,3.39,10.208,6.799,15.44,10.292c-1.018,0.515-1.945,0.982-2.947,1.488
		c0.218,0.179,0.382,0.326,0.56,0.455c2.251,1.646,4.52,3.269,6.753,4.938c2.443,1.826,3.028,4.719,1.446,7.169
		c-0.353,0.547-0.848,1.025-1.349,1.45c-4.173,3.541-8.362,7.063-12.546,10.59c-0.16,0.135-0.314,0.277-0.556,0.491
		c0.44,0.155,0.801,0.284,1.163,0.409c8.877,3.059,17.756,6.112,26.627,9.187c0.604,0.209,1.08,0.199,1.628-0.16
		c1.087-0.712,2.217-1.36,3.341-2.016c1.724-1.006,3.585-0.612,4.53,0.939c0.943,1.551,0.43,3.403-1.265,4.441
		c-1.698,1.04-3.417,2.043-5.124,3.07c-1.043,0.628-2.096,0.725-3.272,0.319c-23.017-7.938-46.04-15.86-69.067-23.768
		c-1.239-0.426-1.982-1.25-2.439-2.414C38.49,124.745,38.49,124.319,38.49,123.895z"/>
	<path fill-rule="evenodd" clip-rule="evenodd" fill="#627D53" d="M95.089,99.909c0.231-1.058,0.47-1.982,0.609-2.923
		c0.031-0.213-0.23-0.557-0.449-0.706c-2.039-1.393-4.098-2.756-6.151-4.13c-0.218-0.146-0.43-0.301-0.777-0.545
		c2.377-0.988,4.394-2.512,6.903-2.904c2.667-0.418,5.407,1.087,6.863,3.791c0.515,0.957,0.973,1.947,1.412,2.941
		c0.561,1.271,0.716,2.58,0.389,3.963c-0.396,1.678-0.679,3.382-1.06,5.063c-0.102,0.448,0.031,0.645,0.363,0.911
		c1.613,1.297,3.49,1.951,5.47,2.426c1.494,0.357,2.983,0.766,4.434,1.269c1.601,0.556,2.494,1.801,2.681,3.454
		c0.187,1.658-0.462,3.018-1.849,3.979c-0.991,0.686-2.111,0.92-3.265,0.611c-4.791-1.284-9.582-2.571-14.35-3.937
		c-1.928-0.552-2.777-1.827-2.823-3.854c-0.014-0.634-0.002-1.282,0.119-1.9c0.12-0.613-0.042-0.94-0.568-1.291
		c-11.362-7.562-22.708-15.149-34.064-22.72c-1.028-0.686-1.784-1.509-1.828-2.806c-0.082-2.402,2.414-3.994,4.555-2.906
		c0.306,0.156,0.593,0.352,0.88,0.543c10.558,7.046,21.115,14.093,31.672,21.139C94.493,99.537,94.739,99.688,95.089,99.909z"/>
	<path fill-rule="evenodd" clip-rule="evenodd" fill="#627D53" d="M111.811,81.597c4.174,0.036,7.759,3.589,7.604,7.888
		c-0.169,4.661-3.736,7.961-8.239,7.751c-4.132-0.193-7.612-3.879-7.426-7.866C103.963,84.771,107.466,81.394,111.811,81.597z"/>
</g>
</svg>
