<?xml version="1.0" encoding="utf-8"?>
<!-- Generator: Adobe Illustrator 16.0.0, SVG Export Plug-In . SVG Version: 6.00 Build 0)  -->
<!DOCTYPE svg PUBLIC "-//W3C//DTD SVG 1.1//EN" "http://www.w3.org/Graphics/SVG/1.1/DTD/svg11.dtd">
<svg version="1.1" id="Layer_1" xmlns="http://www.w3.org/2000/svg" xmlns:xlink="http://www.w3.org/1999/xlink" x="0px" y="0px"
	 width="157px" height="179px" viewBox="0 0 157 179" enable-background="new 0 0 157 179" xml:space="preserve">
<rect x="0.975" y="0.766" fill-rule="evenodd" clip-rule="evenodd" fill="#FFFFFF" stroke="#627D53" stroke-width="2" stroke-miterlimit="10" width="155" height="177"/>
<rect x="1.975" y="-0.234" fill-rule="evenodd" clip-rule="evenodd" fill="#627D53" width="155" height="56"/>
<g>
	<path fill="#FFFFFF" d="M10.802,21.582h2.09v5.605l2.66-5.605h2.09l-2.489,4.883l2.527,8.417h-2.185l-1.767-5.929l-0.836,1.691
		v4.237h-2.09V21.582z"/>
	<path fill="#FFFFFF" d="M18.667,21.582h2.09v13.3h-2.09V21.582z"/>
	<path fill="#FFFFFF" d="M23.95,23.482h-2.185v-1.9h6.46v1.9H26.04v11.399h-2.09V23.482z"/>
	<path fill="#FFFFFF" d="M29.231,21.582h5.7v1.9h-3.61v3.515h2.869v1.899h-2.869v4.086h3.61v1.899h-5.7V21.582z"/>
	<path fill="#FFFFFF" d="M36.128,21.582h3.154c1.076,0,1.862,0.25,2.356,0.75c0.494,0.501,0.741,1.271,0.741,2.309v0.532
		c0,0.685-0.111,1.241-0.333,1.672s-0.56,0.741-1.016,0.931v0.039c1.038,0.354,1.558,1.279,1.558,2.773v1.141
		c0,1.025-0.269,1.808-0.807,2.346c-0.539,0.539-1.327,0.808-2.366,0.808h-3.287V21.582z M39.036,26.997
		c0.418,0,0.731-0.108,0.94-0.323s0.313-0.576,0.313-1.083V24.85c0-0.48-0.085-0.829-0.256-1.045
		c-0.171-0.215-0.44-0.322-0.808-0.322h-1.007v3.515H39.036z M39.416,32.982c0.367,0,0.64-0.099,0.817-0.295
		s0.266-0.535,0.266-1.017v-1.159c0-0.607-0.104-1.029-0.313-1.264s-0.554-0.352-1.036-0.352h-0.931v4.086H39.416z"/>
	<path fill="#FFFFFF" d="M44.469,34.197c-0.544-0.582-0.817-1.405-0.817-2.469v-6.992c0-1.064,0.272-1.888,0.817-2.471
		c0.544-0.582,1.33-0.874,2.356-0.874c1.026,0,1.812,0.292,2.356,0.874c0.545,0.583,0.817,1.406,0.817,2.471v6.992
		c0,1.063-0.272,1.887-0.817,2.469c-0.544,0.584-1.33,0.875-2.356,0.875C45.799,35.072,45.014,34.781,44.469,34.197z M47.908,31.861
		v-7.258c0-0.875-0.361-1.312-1.083-1.312c-0.722,0-1.083,0.437-1.083,1.312v7.258c0,0.873,0.361,1.311,1.083,1.311
		C47.547,33.172,47.908,32.734,47.908,31.861z"/>
	<path fill="#FFFFFF" d="M52.981,21.582h2.831l2.166,13.3h-2.09l-0.38-2.642v0.039h-2.375l-0.38,2.603h-1.938L52.981,21.582z
		 M55.261,30.474L54.331,23.9h-0.038l-0.912,6.573H55.261z"/>
	<path fill="#FFFFFF" d="M58.985,21.582h3.097c1.077,0,1.862,0.25,2.356,0.75c0.494,0.501,0.741,1.271,0.741,2.309v0.817
		c0,1.38-0.456,2.255-1.368,2.622v0.037c0.506,0.152,0.865,0.463,1.074,0.932s0.313,1.096,0.313,1.881v2.337
		c0,0.38,0.012,0.688,0.038,0.922s0.089,0.466,0.19,0.693h-2.128c-0.076-0.216-0.126-0.418-0.152-0.608
		c-0.025-0.189-0.038-0.531-0.038-1.025v-2.432c0-0.608-0.098-1.033-0.294-1.273s-0.535-0.361-1.017-0.361h-0.722v5.7h-2.09V21.582z
		 M61.835,27.281c0.418,0,0.731-0.107,0.94-0.322s0.313-0.576,0.313-1.083V24.85c0-0.48-0.085-0.829-0.256-1.045
		c-0.171-0.215-0.44-0.322-0.808-0.322h-0.95v3.799H61.835z"/>
	<path fill="#FFFFFF" d="M66.642,21.582h3.192c1.038,0,1.817,0.279,2.337,0.836c0.519,0.558,0.779,1.375,0.779,2.451v6.726
		c0,1.077-0.26,1.894-0.779,2.451c-0.52,0.558-1.299,0.836-2.337,0.836h-3.192V21.582z M69.796,32.982
		c0.342,0,0.604-0.102,0.789-0.305c0.183-0.202,0.275-0.531,0.275-0.988v-6.916c0-0.455-0.092-0.785-0.275-0.988
		c-0.184-0.201-0.447-0.303-0.789-0.303h-1.064v9.5H69.796z"/>
	<path fill="#FFFFFF" d="M74.356,21.582h2.09v13.3h-2.09V21.582z"/>
	<path fill="#FFFFFF" d="M78.004,21.582h2.622l2.033,7.961h0.038v-7.961h1.862v13.3h-2.147l-2.508-9.709h-0.038v9.709h-1.862V21.582
		z"/>
	<path fill="#FFFFFF" d="M86.763,34.207c-0.532-0.576-0.798-1.402-0.798-2.479v-6.992c0-1.077,0.266-1.903,0.798-2.48
		c0.532-0.576,1.305-0.864,2.318-0.864c1.013,0,1.786,0.288,2.318,0.864c0.532,0.577,0.798,1.403,0.798,2.48v1.14h-1.976v-1.272
		c0-0.875-0.361-1.312-1.083-1.312c-0.722,0-1.083,0.437-1.083,1.312v7.276c0,0.861,0.361,1.292,1.083,1.292
		c0.722,0,1.083-0.431,1.083-1.292v-2.603h-1.045v-1.9h3.021v4.352c0,1.076-0.266,1.902-0.798,2.479
		c-0.532,0.576-1.305,0.865-2.318,0.865C88.067,35.072,87.295,34.783,86.763,34.207z"/>
	<path fill="#FFFFFF" d="M97.003,34.207c-0.52-0.576-0.779-1.402-0.779-2.479v-0.761H98.2v0.912c0,0.861,0.361,1.292,1.083,1.292
		c0.354,0,0.624-0.104,0.808-0.313c0.183-0.209,0.275-0.548,0.275-1.017c0-0.557-0.127-1.048-0.38-1.473
		c-0.254-0.424-0.722-0.934-1.406-1.529c-0.861-0.76-1.463-1.447-1.805-2.062c-0.342-0.614-0.513-1.308-0.513-2.081
		c0-1.051,0.266-1.864,0.798-2.441c0.532-0.576,1.305-0.864,2.318-0.864c1,0,1.758,0.288,2.271,0.864
		c0.513,0.577,0.77,1.403,0.77,2.48v0.551h-1.976v-0.684c0-0.457-0.089-0.789-0.266-0.998c-0.178-0.209-0.437-0.313-0.779-0.313
		c-0.697,0-1.045,0.425-1.045,1.272c0,0.482,0.13,0.932,0.39,1.35c0.259,0.418,0.731,0.924,1.416,1.52
		c0.874,0.76,1.476,1.451,1.805,2.071c0.33,0.62,0.494,1.349,0.494,2.185c0,1.09-0.269,1.926-0.808,2.508
		c-0.538,0.584-1.32,0.875-2.346,0.875C98.289,35.072,97.522,34.783,97.003,34.207z"/>
	<path fill="#FFFFFF" d="M104.309,34.217c-0.526-0.57-0.789-1.374-0.789-2.413V24.66c0-1.039,0.263-1.844,0.789-2.413
		c0.525-0.57,1.289-0.855,2.29-0.855c1,0,1.764,0.285,2.29,0.855c0.525,0.569,0.788,1.374,0.788,2.413v1.406H107.7v-1.539
		c0-0.824-0.349-1.235-1.045-1.235c-0.696,0-1.045,0.411-1.045,1.235v7.429c0,0.811,0.349,1.216,1.045,1.216
		c0.697,0,1.045-0.405,1.045-1.216v-2.033h1.976v1.881c0,1.039-0.263,1.843-0.788,2.413c-0.526,0.57-1.289,0.855-2.29,0.855
		C105.597,35.072,104.834,34.787,104.309,34.217z"/>
	<path fill="#FFFFFF" d="M110.93,21.582h2.09v5.415h2.242v-5.415h2.09v13.3h-2.09v-5.985h-2.242v5.985h-2.09V21.582z"/>
	<path fill="#FFFFFF" d="M119.575,34.197c-0.544-0.582-0.817-1.405-0.817-2.469v-6.992c0-1.064,0.272-1.888,0.817-2.471
		c0.544-0.582,1.33-0.874,2.356-0.874c1.026,0,1.812,0.292,2.356,0.874c0.545,0.583,0.817,1.406,0.817,2.471v6.992
		c0,1.063-0.272,1.887-0.817,2.469c-0.544,0.584-1.33,0.875-2.356,0.875C120.905,35.072,120.119,34.781,119.575,34.197z
		 M123.014,31.861v-7.258c0-0.875-0.361-1.312-1.083-1.312c-0.722,0-1.083,0.437-1.083,1.312v7.258c0,0.873,0.361,1.311,1.083,1.311
		C122.653,33.172,123.014,32.734,123.014,31.861z"/>
	<path fill="#FFFFFF" d="M127.175,34.197c-0.544-0.582-0.817-1.405-0.817-2.469v-6.992c0-1.064,0.272-1.888,0.817-2.471
		c0.544-0.582,1.33-0.874,2.356-0.874c1.026,0,1.812,0.292,2.356,0.874c0.545,0.583,0.817,1.406,0.817,2.471v6.992
		c0,1.063-0.272,1.887-0.817,2.469c-0.544,0.584-1.33,0.875-2.356,0.875C128.505,35.072,127.719,34.781,127.175,34.197z
		 M130.614,31.861v-7.258c0-0.875-0.361-1.312-1.083-1.312c-0.722,0-1.083,0.437-1.083,1.312v7.258c0,0.873,0.361,1.311,1.083,1.311
		C130.253,33.172,130.614,32.734,130.614,31.861z"/>
	<path fill="#FFFFFF" d="M134.11,21.582h2.09v11.4h3.439v1.899h-5.529V21.582z"/>
	<path fill="#FFFFFF" d="M141.064,34.207c-0.52-0.576-0.779-1.402-0.779-2.479v-0.761h1.976v0.912c0,0.861,0.361,1.292,1.083,1.292
		c0.354,0,0.624-0.104,0.808-0.313c0.183-0.209,0.275-0.548,0.275-1.017c0-0.557-0.127-1.048-0.38-1.473
		c-0.254-0.424-0.722-0.934-1.406-1.529c-0.861-0.76-1.463-1.447-1.805-2.062c-0.342-0.614-0.513-1.308-0.513-2.081
		c0-1.051,0.266-1.864,0.798-2.441c0.532-0.576,1.305-0.864,2.318-0.864c1,0,1.758,0.288,2.271,0.864
		c0.513,0.577,0.77,1.403,0.77,2.48v0.551h-1.976v-0.684c0-0.457-0.089-0.789-0.266-0.998c-0.178-0.209-0.437-0.313-0.779-0.313
		c-0.697,0-1.045,0.425-1.045,1.272c0,0.482,0.13,0.932,0.39,1.35c0.259,0.418,0.731,0.924,1.416,1.52
		c0.874,0.76,1.476,1.451,1.805,2.071c0.33,0.62,0.494,1.349,0.494,2.185c0,1.09-0.269,1.926-0.808,2.508
		c-0.538,0.584-1.32,0.875-2.346,0.875C142.35,35.072,141.583,34.783,141.064,34.207z"/>
</g>
<g>
	<path fill-rule="evenodd" clip-rule="evenodd" fill="#627D53" d="M65.862,153.871c-1.391-0.103-2.783-0.192-4.173-0.311
		c-3.857-0.325-7.694-0.772-11.347-2.164c-0.544-0.207-1.069-0.472-1.587-0.739c-1.27-0.657-1.937-1.682-1.858-3.144
		c0.014-0.254,0.013-0.51,0-0.763c-0.075-1.458,0.587-2.465,1.848-3.153c2.038-1.111,4.244-1.701,6.505-2.08
		c2.129-0.356,4.275-0.608,6.646-0.938c-0.683-0.836-1.292-1.646-1.976-2.389c-0.319-0.347-0.769-0.582-1.181-0.831
		c-4.46-2.699-8.928-5.385-13.385-8.087c-1.838-1.114-2.572-2.753-2.079-4.63c0.115-0.436,0.321-0.856,0.541-1.254
		c2.204-3.981,4.417-7.958,6.632-11.933c0.729-1.31,1.406-1.509,2.758-0.84c0.159,0.08,0.339,0.136,0.472,0.247
		c1.537,1.3,3.175,1.377,4.972,0.547c0.846-0.392,1.778-0.607,2.685-0.854c0.916-0.251,1.47-0.813,1.798-1.696
		c1.094-2.953,2.197-5.905,3.355-8.835c0.252-0.639,0.677-1.244,1.141-1.758c0.472-0.524,1.172-0.635,1.839-0.384
		c0.711,0.269,1.077,0.886,1.104,1.607c0.021,0.568-0.055,1.178-0.248,1.712c-1.222,3.394-2.486,6.773-3.74,10.155
		c-0.399,1.078-1.121,1.847-2.179,2.325c-1.804,0.816-3.593,1.665-5.188,2.408c-0.262,0.886-0.476,1.606-0.689,2.327
		c-0.088-0.012-0.176-0.023-0.264-0.035c-0.587-1.313-1.23-2.605-1.742-3.946c-0.331-0.866-0.95-1.166-1.678-1.318
		c0.925,2.055,1.878,4.115,2.774,6.2c0.243,0.564,0.604,0.86,1.174,0.928c0.655,0.078,1.314,0.164,1.972,0.17
		c2.265,0.021,4.531,0.008,6.796,0.008c0.885,0,1.771,0,2.709,0c-0.776-0.993-1.57-2.01-2.364-3.026
		c-0.375-0.481-0.763-0.954-1.125-1.446c-0.565-0.771-0.503-1.545,0.14-2.019c0.609-0.449,1.355-0.31,1.929,0.419
		c2.439,3.1,4.865,6.209,7.296,9.315c1.38,1.763,2.775,3.515,4.128,5.299c0.262,0.345,0.526,0.827,0.491,1.219
		c-0.035,0.379-0.381,0.879-0.725,1.039c-0.336,0.157-0.876,0.037-1.26-0.121c-0.298-0.122-0.514-0.477-0.732-0.754
		c-1.451-1.838-2.881-3.691-4.352-5.512c-0.186-0.23-0.57-0.421-0.864-0.423c-4.912-0.024-9.825-0.028-14.737-0.006
		c-0.946,0.005-1.819-0.115-2.529-0.771c-0.076,0.044-0.132,0.06-0.161,0.097c-0.979,1.26-0.98,1.261,0.251,2.263
		c2.961,2.408,5.912,4.83,8.893,7.215c1.258,1.007,2.236,2.204,2.926,3.656c0.469,0.986,0.998,1.945,1.455,2.938
		c0.208,0.454,0.468,0.62,0.981,0.62c3.83,0.007,7.619,0.418,11.333,1.371c2.996,0.769,5.872,1.837,8.37,3.729
		c1.362,1.031,1.351,2.185-0.022,3.219c-2.867,2.16-6.179,3.313-9.634,4.011c-2.384,0.482-4.829,0.664-7.246,0.982
		c-0.248,0.032-0.493,0.087-0.739,0.132C69.935,153.871,67.898,153.871,65.862,153.871z"/>
	<path fill-rule="evenodd" clip-rule="evenodd" fill="#627D53" d="M89.077,75.674c0.704,0.203,1.43,0.35,2.106,0.621
		c2.105,0.846,3.845,2.879,4.461,5.17c-0.483,0.189-0.979,0.371-1.464,0.577c-4.335,1.844-8.078,4.588-11.6,7.663
		c-0.69,0.602-1.348,1.241-2.034,1.85c-1.103,0.98-2.025,1.097-3.251,0.284c-1.497-0.992-2.515-2.401-2.896-4.151
		c-0.35-1.605,0.328-3.068,1.085-4.423c2.418-4.324,6.231-6.631,11.035-7.448c0.144-0.025,0.279-0.095,0.419-0.143
		C87.651,75.674,88.364,75.674,89.077,75.674z"/>
	<path fill-rule="evenodd" clip-rule="evenodd" fill="#627D53" d="M110.592,95.239c-0.034,6.288-1.077,11.683-3.83,16.647
		c-0.786,1.416-1.709,2.775-2.721,4.04c-1.916,2.392-5.047,2.97-7.786,1.572c-1.044-0.533-1.691-1.83-1.441-3.106
		c0.161-0.818,0.442-1.616,0.728-2.403c1.723-4.742,3.039-9.592,3.681-14.602c0.777-6.063,0.292-11.98-2.402-17.573
		c-0.45-0.933-1.092-1.771-1.611-2.674c-0.151-0.265-0.181-0.6-0.266-0.902c0.337,0.002,0.719-0.1,1.005,0.023
		c1.07,0.463,2.144,0.937,3.153,1.516c3.27,1.876,6.088,4.331,8.7,7.021c1.895,1.951,2.473,4.439,2.623,7.061
		C110.501,93.204,110.558,94.551,110.592,95.239z"/>
	<path fill-rule="evenodd" clip-rule="evenodd" fill="#627D53" d="M56.597,99.46c2.88-0.015,5.25,2.322,5.283,5.207
		c0.033,2.879-2.397,5.313-5.282,5.293c-2.882-0.021-5.242-2.387-5.242-5.255C51.356,101.829,53.709,99.474,56.597,99.46z"/>
</g>
</svg>
