<?xml version="1.0" encoding="utf-8"?>
<!-- Generator: Adobe Illustrator 16.0.0, SVG Export Plug-In . SVG Version: 6.00 Build 0)  -->
<!DOCTYPE svg PUBLIC "-//W3C//DTD SVG 1.1//EN" "http://www.w3.org/Graphics/SVG/1.1/DTD/svg11.dtd">
<svg version="1.1" id="Layer_1" xmlns="http://www.w3.org/2000/svg" xmlns:xlink="http://www.w3.org/1999/xlink" x="0px" y="0px"
	 width="157px" height="179px" viewBox="0 0 157 179" enable-background="new 0 0 157 179" xml:space="preserve">
<rect x="0.975" y="1.01" fill-rule="evenodd" clip-rule="evenodd" fill="#FFFFFF" stroke="#627D53" stroke-width="2" stroke-miterlimit="10" width="155" height="177"/>
<rect x="1.975" y="0.01" fill-rule="evenodd" clip-rule="evenodd" fill="#627D53" width="155" height="56"/>
<g>
	<path fill="#FFFFFF" d="M40.897,23.482h-2.185v-1.9h6.46v1.9h-2.185v11.399h-2.09V23.482z"/>
	<path fill="#FFFFFF" d="M46.179,21.582h5.7v1.9h-3.61v3.515h2.869v1.899H48.27v4.086h3.61v1.899h-5.7V21.582z"/>
	<path fill="#FFFFFF" d="M53.076,21.582h2.622l2.033,7.961h0.038v-7.961h1.862v13.3h-2.147l-2.508-9.709h-0.038v9.709h-1.862V21.582
		z"/>
	<path fill="#FFFFFF" d="M61.189,21.582h2.622l2.033,7.961h0.038v-7.961h1.862v13.3h-2.147l-2.508-9.709h-0.038v9.709h-1.862V21.582
		z"/>
	<path fill="#FFFFFF" d="M69.302,21.582h2.09v13.3h-2.09V21.582z"/>
	<path fill="#FFFFFF" d="M73.368,34.207c-0.52-0.576-0.779-1.402-0.779-2.479v-0.761h1.976v0.912c0,0.861,0.361,1.292,1.083,1.292
		c0.354,0,0.624-0.104,0.808-0.313c0.183-0.209,0.275-0.548,0.275-1.017c0-0.557-0.127-1.048-0.38-1.473
		c-0.254-0.424-0.722-0.934-1.406-1.529c-0.861-0.76-1.463-1.447-1.805-2.062c-0.342-0.614-0.513-1.308-0.513-2.081
		c0-1.051,0.266-1.864,0.798-2.441c0.532-0.576,1.305-0.864,2.318-0.864c1,0,1.758,0.288,2.271,0.864
		c0.513,0.577,0.77,1.403,0.77,2.48v0.551h-1.976v-0.684c0-0.457-0.089-0.789-0.266-0.998c-0.178-0.209-0.437-0.313-0.779-0.313
		c-0.697,0-1.045,0.425-1.045,1.272c0,0.482,0.13,0.932,0.39,1.35c0.259,0.418,0.731,0.924,1.416,1.52
		c0.874,0.76,1.476,1.451,1.805,2.071c0.33,0.62,0.494,1.349,0.494,2.185c0,1.09-0.269,1.926-0.808,2.508
		c-0.538,0.584-1.32,0.875-2.346,0.875C74.653,35.072,73.887,34.783,73.368,34.207z"/>
	<path fill="#FFFFFF" d="M83.713,34.217c-0.526-0.57-0.789-1.374-0.789-2.413V24.66c0-1.039,0.263-1.844,0.789-2.413
		c0.525-0.57,1.289-0.855,2.29-0.855c1,0,1.764,0.285,2.29,0.855c0.525,0.569,0.788,1.374,0.788,2.413v1.406h-1.976v-1.539
		c0-0.824-0.349-1.235-1.045-1.235c-0.696,0-1.045,0.411-1.045,1.235v7.429c0,0.811,0.349,1.216,1.045,1.216
		c0.697,0,1.045-0.405,1.045-1.216v-2.033h1.976v1.881c0,1.039-0.263,1.843-0.788,2.413c-0.526,0.57-1.289,0.855-2.29,0.855
		C85.001,35.072,84.238,34.787,83.713,34.217z"/>
	<path fill="#FFFFFF" d="M90.334,21.582h2.09v11.4h3.439v1.899h-5.529V21.582z"/>
	<path fill="#FFFFFF" d="M97.592,34.207c-0.532-0.576-0.798-1.402-0.798-2.479V21.582h2.09V31.88c0,0.456,0.092,0.786,0.275,0.987
		c0.184,0.203,0.447,0.305,0.789,0.305c0.342,0,0.605-0.102,0.789-0.305c0.184-0.201,0.275-0.531,0.275-0.987V21.582h2.014v10.146
		c0,1.076-0.266,1.902-0.798,2.479c-0.532,0.576-1.305,0.865-2.318,0.865S98.124,34.783,97.592,34.207z"/>
	<path fill="#FFFFFF" d="M104.507,21.582h3.154c1.076,0,1.862,0.25,2.356,0.75c0.494,0.501,0.741,1.271,0.741,2.309v0.532
		c0,0.685-0.111,1.241-0.333,1.672s-0.56,0.741-1.016,0.931v0.039c1.038,0.354,1.558,1.279,1.558,2.773v1.141
		c0,1.025-0.269,1.808-0.807,2.346c-0.539,0.539-1.327,0.808-2.366,0.808h-3.287V21.582z M107.415,26.997
		c0.418,0,0.731-0.108,0.94-0.323s0.313-0.576,0.313-1.083V24.85c0-0.48-0.085-0.829-0.256-1.045
		c-0.171-0.215-0.44-0.322-0.808-0.322h-1.007v3.515H107.415z M107.794,32.982c0.367,0,0.64-0.099,0.817-0.295
		s0.266-0.535,0.266-1.017v-1.159c0-0.607-0.104-1.029-0.313-1.264s-0.554-0.352-1.036-0.352h-0.931v4.086H107.794z"/>
	<path fill="#FFFFFF" d="M112.601,34.207c-0.52-0.576-0.779-1.402-0.779-2.479v-0.761h1.976v0.912c0,0.861,0.361,1.292,1.083,1.292
		c0.354,0,0.624-0.104,0.808-0.313c0.183-0.209,0.275-0.548,0.275-1.017c0-0.557-0.127-1.048-0.38-1.473
		c-0.254-0.424-0.722-0.934-1.406-1.529c-0.861-0.76-1.463-1.447-1.805-2.062c-0.342-0.614-0.513-1.308-0.513-2.081
		c0-1.051,0.266-1.864,0.798-2.441c0.532-0.576,1.305-0.864,2.318-0.864c1,0,1.758,0.288,2.271,0.864
		c0.513,0.577,0.77,1.403,0.77,2.48v0.551h-1.976v-0.684c0-0.457-0.089-0.789-0.266-0.998c-0.178-0.209-0.437-0.313-0.779-0.313
		c-0.697,0-1.045,0.425-1.045,1.272c0,0.482,0.13,0.932,0.39,1.35c0.259,0.418,0.731,0.924,1.416,1.52
		c0.874,0.76,1.476,1.451,1.805,2.071c0.33,0.62,0.494,1.349,0.494,2.185c0,1.09-0.269,1.926-0.808,2.508
		c-0.538,0.584-1.32,0.875-2.346,0.875C113.887,35.072,113.121,34.783,112.601,34.207z"/>
</g>
<g>
	<path fill-rule="evenodd" clip-rule="evenodd" fill="#627D53" d="M79.105,105.488c3.396,0.023,6.037-2.629,6.055-6.08
		c0.017-3.273-2.717-5.894-6.168-5.912c-3.16-0.017-5.809,2.718-5.836,6.024C73.129,102.778,75.808,105.466,79.105,105.488z
		 M94.442,86.99c-1.261-0.014-2.273,0.972-2.29,2.23c-0.017,1.267,0.966,2.273,2.23,2.285c1.261,0.011,2.283-0.979,2.299-2.226
		C96.697,88.034,95.69,87.004,94.442,86.99z"/>
	<path fill-rule="evenodd" clip-rule="evenodd" fill="#627D53" d="M73.292,152.414c-1.149-0.427-2.076-1.098-2.278-2.392
		c-0.08-0.513-0.038-1.075,0.082-1.584c1.576-6.668,3.221-13.319,4.726-20.003c0.244-1.083-0.038-2.307-0.185-3.451
		c-0.473-3.678-0.996-7.35-1.501-11.022c-0.018-0.134-0.057-0.264-0.098-0.45c-2.215,0.34-4.406,0.646-6.584,1.022
		c-1.15,0.198-2.075-0.032-2.927-0.877c-2.056-2.037-4.171-4.014-6.258-6.02c-1.292-1.242-1.28-2.278,0.008-3.493
		c0.165-0.155,0.288-0.363,0.403-0.563c1.073-1.857,2.149-3.714,3.204-5.582c0.274-0.484,0.49-1.004,0.715-1.515
		c0.47-1.071,0.562-2.009-0.122-3.165c-1.209-2.046-1.042-4.335-0.224-6.498c1.116-2.948,3.114-5.054,6.25-5.907
		c0.287-0.078,0.576-0.149,0.865-0.224c0.56,0,1.121,0,1.681,0c0.48,0.16,0.979,0.28,1.437,0.489
		c2.317,1.056,3.535,2.922,3.735,5.41c0.296,3.679-1.161,6.595-4.121,8.741c-1.392,1.011-2.976,1.523-4.733,1.397
		c-0.22-0.016-0.529,0.068-0.666,0.223c-0.649,0.731-1.344,1.446-1.854,2.271c-1.142,1.842-2.184,3.746-3.302,5.687
		c0.347,0.271,0.685,0.546,1.033,0.807c1.326,0.994,2.672,1.961,3.972,2.987c0.438,0.346,0.829,0.378,1.337,0.252
		c3.121-0.774,6.234-1.587,9.377-2.258c1.866-0.397,3.821-0.401,5.664-0.869c2.044-0.52,4.009-1.352,6-2.073
		c0.941-0.341,1.878-0.706,2.781-1.135c0.338-0.161,0.679-0.485,0.839-0.821c0.854-1.786,1.631-3.61,2.476-5.401
		c0.723-1.532,2.413-2.021,3.75-1.135c0.88,0.584,1.376,1.688,1.038,2.685c-0.912,2.691-1.88,5.363-2.853,8.034
		c-0.273,0.752-0.929,1.137-1.628,1.448c-2.257,1.004-4.504,2.031-6.773,3.007c-0.506,0.218-0.63,0.479-0.557,0.997
		c0.641,4.549,1.261,9.101,1.887,13.652c0.092,0.67,0.214,1.337,0.268,2.011c0.254,3.158,1.775,5.917,2.814,8.821
		c0.502,1.404,0.647,2.685,0.23,4.136c-0.914,3.18-1.693,6.397-2.526,9.6c-0.315,1.21-0.989,2.115-2.227,2.474
		c-2.197,0.637-4.206-1.181-3.779-3.426c0.506-2.655,0.988-5.319,1.606-7.949c0.305-1.3,0.224-2.416-0.438-3.589
		c-0.73-1.295-1.295-2.684-1.992-4.157c-0.143,0.315-0.248,0.529-0.338,0.748c-2.159,5.284-4.337,10.562-6.461,15.86
		c-0.507,1.266-1.147,2.325-2.495,2.8C74.132,152.414,73.712,152.414,73.292,152.414z M64.18,89.914
		c0,0.257-0.019,0.515,0.003,0.769c0.225,2.627,2.548,4.181,5.052,3.384c3-0.956,5.144-4.662,4.478-7.745
		c-0.555-2.568-2.816-3.783-5.271-2.831C65.989,84.441,64.113,87.247,64.18,89.914z"/>
	<path fill-rule="evenodd" clip-rule="evenodd" fill="#627D53" d="M79.105,105.488c-3.298-0.022-5.977-2.71-5.95-5.968
		c0.027-3.307,2.677-6.041,5.836-6.024c3.451,0.019,6.185,2.639,6.168,5.912C85.143,102.859,82.501,105.512,79.105,105.488z"/>
	<path fill-rule="evenodd" clip-rule="evenodd" fill="#627D53" d="M94.442,86.99c1.248,0.014,2.254,1.044,2.239,2.29
		c-0.016,1.247-1.038,2.236-2.299,2.226c-1.264-0.012-2.247-1.019-2.23-2.285C92.169,87.962,93.181,86.977,94.442,86.99z"/>
</g>
</svg>
