<?xml version="1.0" encoding="utf-8"?>
<!-- Generator: Adobe Illustrator 16.0.0, SVG Export Plug-In . SVG Version: 6.00 Build 0)  -->
<!DOCTYPE svg PUBLIC "-//W3C//DTD SVG 1.1//EN" "http://www.w3.org/Graphics/SVG/1.1/DTD/svg11.dtd">
<svg version="1.1" id="Layer_1" xmlns="http://www.w3.org/2000/svg" xmlns:xlink="http://www.w3.org/1999/xlink" x="0px" y="0px"
	 width="157px" height="179px" viewBox="0 0 157 179" enable-background="new 0 0 157 179" xml:space="preserve">
<rect x="0.975" y="1.01" fill-rule="evenodd" clip-rule="evenodd" fill="#FFFFFF" stroke="#627D53" stroke-width="2" stroke-miterlimit="10" width="155" height="177"/>
<rect x="1.975" y="0.01" fill-rule="evenodd" clip-rule="evenodd" fill="#627D53" width="155" height="56"/>
<g>
	<path fill="#FFFFFF" d="M22.125,34.207c-0.52-0.576-0.779-1.402-0.779-2.479v-0.761h1.976v0.912c0,0.861,0.361,1.292,1.083,1.292
		c0.354,0,0.624-0.104,0.808-0.313c0.183-0.209,0.275-0.548,0.275-1.017c0-0.557-0.127-1.048-0.38-1.473
		c-0.254-0.424-0.722-0.934-1.406-1.529c-0.861-0.76-1.463-1.447-1.805-2.062c-0.342-0.614-0.513-1.308-0.513-2.081
		c0-1.051,0.266-1.864,0.798-2.441c0.532-0.576,1.305-0.864,2.318-0.864c1,0,1.758,0.288,2.271,0.864
		c0.513,0.577,0.77,1.403,0.77,2.48v0.551h-1.976v-0.684c0-0.457-0.089-0.789-0.266-0.998c-0.178-0.209-0.437-0.313-0.779-0.313
		c-0.697,0-1.045,0.425-1.045,1.272c0,0.482,0.13,0.932,0.39,1.35c0.259,0.418,0.731,0.924,1.416,1.52
		c0.874,0.76,1.476,1.451,1.805,2.071c0.33,0.62,0.494,1.349,0.494,2.185c0,1.09-0.269,1.926-0.808,2.508
		c-0.538,0.584-1.32,0.875-2.346,0.875C23.411,35.072,22.645,34.783,22.125,34.207z"/>
	<path fill="#FFFFFF" d="M28.282,21.582h2.014l0.931,10.222h0.038l0.988-10.222h2.28l0.988,10.222h0.038l0.931-10.222h1.805
		l-1.349,13.3h-2.603l-0.95-8.968h-0.038l-0.95,8.968H29.63L28.282,21.582z"/>
	<path fill="#FFFFFF" d="M39.358,21.582h2.09v13.3h-2.09V21.582z"/>
	<path fill="#FFFFFF" d="M43.006,21.582h2.983l1.33,9.52h0.038l1.33-9.52h2.983v13.3h-1.976V24.813h-0.038l-1.52,10.069h-1.748
		l-1.52-10.069h-0.038v10.069h-1.824V21.582z"/>
	<path fill="#FFFFFF" d="M53.228,21.582h2.983l1.33,9.52h0.038l1.33-9.52h2.983v13.3h-1.976V24.813h-0.038l-1.52,10.069H56.61
		l-1.52-10.069h-0.038v10.069h-1.824V21.582z"/>
	<path fill="#FFFFFF" d="M63.45,21.582h2.09v13.3h-2.09V21.582z"/>
	<path fill="#FFFFFF" d="M67.098,21.582h2.622l2.033,7.961h0.038v-7.961h1.862v13.3h-2.147l-2.508-9.709H68.96v9.709h-1.862V21.582z
		"/>
	<path fill="#FFFFFF" d="M75.856,34.207c-0.532-0.576-0.798-1.402-0.798-2.479v-6.992c0-1.077,0.266-1.903,0.798-2.48
		c0.532-0.576,1.305-0.864,2.318-0.864c1.013,0,1.786,0.288,2.318,0.864c0.532,0.577,0.798,1.403,0.798,2.48v1.14h-1.976v-1.272
		c0-0.875-0.361-1.312-1.083-1.312c-0.722,0-1.083,0.437-1.083,1.312v7.276c0,0.861,0.361,1.292,1.083,1.292
		c0.722,0,1.083-0.431,1.083-1.292v-2.603H78.27v-1.9h3.021v4.352c0,1.076-0.266,1.902-0.798,2.479
		c-0.532,0.576-1.305,0.865-2.318,0.865C77.161,35.072,76.389,34.783,75.856,34.207z"/>
	<path fill="#FFFFFF" d="M86.097,34.207c-0.52-0.576-0.779-1.402-0.779-2.479v-0.761h1.976v0.912c0,0.861,0.361,1.292,1.083,1.292
		c0.354,0,0.624-0.104,0.808-0.313c0.183-0.209,0.275-0.548,0.275-1.017c0-0.557-0.127-1.048-0.38-1.473
		c-0.254-0.424-0.722-0.934-1.406-1.529c-0.861-0.76-1.463-1.447-1.805-2.062c-0.342-0.614-0.513-1.308-0.513-2.081
		c0-1.051,0.266-1.864,0.798-2.441c0.532-0.576,1.305-0.864,2.318-0.864c1,0,1.758,0.288,2.271,0.864
		c0.513,0.577,0.77,1.403,0.77,2.48v0.551h-1.976v-0.684c0-0.457-0.089-0.789-0.266-0.998c-0.178-0.209-0.437-0.313-0.779-0.313
		c-0.697,0-1.045,0.425-1.045,1.272c0,0.482,0.13,0.932,0.39,1.35c0.259,0.418,0.731,0.924,1.416,1.52
		c0.874,0.76,1.476,1.451,1.805,2.071c0.33,0.62,0.494,1.349,0.494,2.185c0,1.09-0.269,1.926-0.808,2.508
		c-0.538,0.584-1.32,0.875-2.346,0.875C87.382,35.072,86.616,34.783,86.097,34.207z"/>
	<path fill="#FFFFFF" d="M93.402,34.217c-0.526-0.57-0.789-1.374-0.789-2.413V24.66c0-1.039,0.263-1.844,0.789-2.413
		c0.525-0.57,1.289-0.855,2.29-0.855c1,0,1.764,0.285,2.29,0.855c0.525,0.569,0.788,1.374,0.788,2.413v1.406h-1.976v-1.539
		c0-0.824-0.349-1.235-1.045-1.235c-0.696,0-1.045,0.411-1.045,1.235v7.429c0,0.811,0.349,1.216,1.045,1.216
		c0.697,0,1.045-0.405,1.045-1.216v-2.033h1.976v1.881c0,1.039-0.263,1.843-0.788,2.413c-0.526,0.57-1.289,0.855-2.29,0.855
		C94.691,35.072,93.928,34.787,93.402,34.217z"/>
	<path fill="#FFFFFF" d="M100.023,21.582h2.09v5.415h2.242v-5.415h2.09v13.3h-2.09v-5.985h-2.242v5.985h-2.09V21.582z"/>
	<path fill="#FFFFFF" d="M108.668,34.197c-0.544-0.582-0.817-1.405-0.817-2.469v-6.992c0-1.064,0.272-1.888,0.817-2.471
		c0.544-0.582,1.33-0.874,2.356-0.874c1.026,0,1.812,0.292,2.356,0.874c0.545,0.583,0.817,1.406,0.817,2.471v6.992
		c0,1.063-0.272,1.887-0.817,2.469c-0.544,0.584-1.33,0.875-2.356,0.875C109.999,35.072,109.213,34.781,108.668,34.197z
		 M112.107,31.861v-7.258c0-0.875-0.361-1.312-1.083-1.312c-0.722,0-1.083,0.437-1.083,1.312v7.258c0,0.873,0.361,1.311,1.083,1.311
		C111.747,33.172,112.107,32.734,112.107,31.861z"/>
	<path fill="#FFFFFF" d="M116.269,34.197c-0.544-0.582-0.817-1.405-0.817-2.469v-6.992c0-1.064,0.272-1.888,0.817-2.471
		c0.544-0.582,1.33-0.874,2.356-0.874c1.026,0,1.812,0.292,2.356,0.874c0.545,0.583,0.817,1.406,0.817,2.471v6.992
		c0,1.063-0.272,1.887-0.817,2.469c-0.544,0.584-1.33,0.875-2.356,0.875C117.599,35.072,116.813,34.781,116.269,34.197z
		 M119.708,31.861v-7.258c0-0.875-0.361-1.312-1.083-1.312c-0.722,0-1.083,0.437-1.083,1.312v7.258c0,0.873,0.361,1.311,1.083,1.311
		C119.347,33.172,119.708,32.734,119.708,31.861z"/>
	<path fill="#FFFFFF" d="M123.204,21.582h2.09v11.4h3.439v1.899h-5.529V21.582z"/>
	<path fill="#FFFFFF" d="M130.158,34.207c-0.52-0.576-0.779-1.402-0.779-2.479v-0.761h1.976v0.912c0,0.861,0.361,1.292,1.083,1.292
		c0.354,0,0.624-0.104,0.808-0.313c0.183-0.209,0.275-0.548,0.275-1.017c0-0.557-0.127-1.048-0.38-1.473
		c-0.254-0.424-0.722-0.934-1.406-1.529c-0.861-0.76-1.463-1.447-1.805-2.062c-0.342-0.614-0.513-1.308-0.513-2.081
		c0-1.051,0.266-1.864,0.798-2.441c0.532-0.576,1.305-0.864,2.318-0.864c1,0,1.758,0.288,2.271,0.864
		c0.513,0.577,0.77,1.403,0.77,2.48v0.551h-1.976v-0.684c0-0.457-0.089-0.789-0.266-0.998c-0.178-0.209-0.437-0.313-0.779-0.313
		c-0.697,0-1.045,0.425-1.045,1.272c0,0.482,0.13,0.932,0.39,1.35c0.259,0.418,0.731,0.924,1.416,1.52
		c0.874,0.76,1.476,1.451,1.805,2.071c0.33,0.62,0.494,1.349,0.494,2.185c0,1.09-0.269,1.926-0.808,2.508
		c-0.538,0.584-1.32,0.875-2.346,0.875C131.443,35.072,130.677,34.783,130.158,34.207z"/>
</g>
<g>
	<path fill-rule="evenodd" clip-rule="evenodd" fill="#627D53" d="M38.528,130.782c1.212,0.405,2.422,0.819,3.638,1.214
		c1.25,0.406,2.489,0.872,3.765,1.176c2.954,0.703,5.414-0.502,7.747-2.14c1.487-1.044,2.902-2.263,4.527-3.025
		c4.854-2.276,9.658-2.013,14.276,0.795c1.389,0.845,2.662,1.902,4.337,2.207c1.943,0.354,3.784,0.096,5.521-0.824
		c1.374-0.728,2.676-1.604,4.088-2.243c5.253-2.378,10.25-1.881,14.926,1.53c1.172,0.854,2.274,1.821,3.51,2.568
		c2.795,1.691,5.745,1.673,8.749,0.545c1.429-0.537,2.874-1.03,4.317-1.528c0.242-0.084,0.511-0.089,0.8-0.069
		c-2.491,1.896-4.234,4.678-7.318,5.854c-3.983,1.519-7.779,1.144-11.54-0.746c-1.425-0.716-2.925-1.356-4.462-1.756
		c-2.524-0.655-4.762,0.213-6.836,1.683c-1.287,0.912-2.571,1.915-4.008,2.51c-5.326,2.203-10.365,1.409-15.09-1.795
		c-1.023-0.694-2.032-1.462-3.155-1.945c-2.522-1.086-5.02-0.861-7.464,0.426c-1.509,0.794-3.034,1.678-4.661,2.104
		c-4.653,1.221-8.816,0.117-12.361-3.172c-1.118-1.037-2.216-2.096-3.324-3.146C38.514,130.931,38.521,130.856,38.528,130.782z"/>
	<path fill-rule="evenodd" clip-rule="evenodd" fill="#627D53" d="M69.026,124.588c3.039-2.891,5.959-5.67,8.938-8.504
		c-0.764-1.232-1.493-2.479-2.317-3.661c-0.133-0.19-0.703-0.173-1.043-0.106c-3.443,0.664-6.879,1.366-10.321,2.042
		c-1.693,0.333-3.134-0.469-3.583-1.958c-0.469-1.561,0.275-3.053,1.918-3.664c4.545-1.692,9.098-3.363,13.657-5.015
		c1.569-0.568,3.022-0.271,4.09,1.033c5.221,6.37,10.406,12.77,15.602,19.161c0.077,0.094,0.125,0.211,0.237,0.404
		c-0.824-0.079-1.55-0.147-2.275-0.218c-3.775-0.368-7.201,0.676-10.415,2.575c-0.749,0.442-1.477,0.926-2.244,1.334
		c-1.727,0.918-3.527,1.036-5.214,0.02C73.85,126.7,71.745,125.191,69.026,124.588z"/>
	<path fill-rule="evenodd" clip-rule="evenodd" fill="#627D53" d="M98.367,120.697c-4.23-0.046-7.635-3.543-7.589-7.795
		c0.044-4.153,3.627-7.647,7.759-7.566c4.222,0.083,7.67,3.627,7.606,7.816C106.079,117.32,102.551,120.743,98.367,120.697z"/>
</g>
</svg>
