<?xml version="1.0" encoding="utf-8"?>
<!-- Generator: Adobe Illustrator 16.0.0, SVG Export Plug-In . SVG Version: 6.00 Build 0)  -->
<!DOCTYPE svg PUBLIC "-//W3C//DTD SVG 1.1//EN" "http://www.w3.org/Graphics/SVG/1.1/DTD/svg11.dtd">
<svg version="1.1" id="Layer_1" xmlns="http://www.w3.org/2000/svg" xmlns:xlink="http://www.w3.org/1999/xlink" x="0px" y="0px"
	 width="157px" height="179px" viewBox="0 0 157 179" enable-background="new 0 0 157 179" xml:space="preserve">
<rect x="0.975" y="1" fill-rule="evenodd" clip-rule="evenodd" fill="#FFFFFF" stroke="#627D53" stroke-width="2" stroke-miterlimit="10" width="155" height="177"/>
<rect x="1.975" fill-rule="evenodd" clip-rule="evenodd" fill="#627D53" width="155" height="56"/>
<g>
	<path fill="#FFFFFF" d="M20.957,34.207c-0.52-0.576-0.779-1.402-0.779-2.479v-0.761h1.976v0.912c0,0.861,0.361,1.292,1.083,1.292
		c0.354,0,0.624-0.104,0.808-0.313c0.183-0.209,0.275-0.548,0.275-1.017c0-0.557-0.127-1.048-0.38-1.473
		c-0.254-0.424-0.722-0.934-1.406-1.529c-0.861-0.76-1.463-1.447-1.805-2.062c-0.342-0.614-0.513-1.308-0.513-2.081
		c0-1.051,0.266-1.864,0.798-2.441c0.532-0.576,1.305-0.864,2.318-0.864c1,0,1.758,0.288,2.271,0.864
		c0.513,0.577,0.77,1.403,0.77,2.48v0.551h-1.976v-0.684c0-0.457-0.089-0.789-0.266-0.998c-0.178-0.209-0.437-0.313-0.779-0.313
		c-0.697,0-1.045,0.425-1.045,1.272c0,0.482,0.13,0.932,0.39,1.35c0.259,0.418,0.731,0.924,1.416,1.52
		c0.874,0.76,1.476,1.451,1.805,2.071c0.33,0.62,0.494,1.349,0.494,2.185c0,1.09-0.269,1.926-0.808,2.508
		c-0.538,0.584-1.32,0.875-2.346,0.875C22.243,35.072,21.477,34.783,20.957,34.207z"/>
	<path fill="#FFFFFF" d="M27.607,21.582h2.09v5.605l2.66-5.605h2.09l-2.489,4.883l2.527,8.417H32.3l-1.767-5.929l-0.836,1.691v4.237
		h-2.09V21.582z"/>
	<path fill="#FFFFFF" d="M37.392,29.22l-2.527-7.638h2.223l1.425,4.883h0.038l1.425-4.883h2.033l-2.527,7.638v5.662h-2.09V29.22z"/>
	<path fill="#FFFFFF" d="M45.998,21.582h3.192c1.038,0,1.817,0.279,2.337,0.836c0.519,0.558,0.779,1.375,0.779,2.451v6.726
		c0,1.077-0.26,1.894-0.779,2.451c-0.52,0.558-1.299,0.836-2.337,0.836h-3.192V21.582z M49.152,32.982
		c0.342,0,0.604-0.102,0.789-0.305c0.183-0.202,0.275-0.531,0.275-0.988v-6.916c0-0.455-0.092-0.785-0.275-0.988
		c-0.184-0.201-0.447-0.303-0.789-0.303h-1.064v9.5H49.152z"/>
	<path fill="#FFFFFF" d="M53.712,21.582h2.09v13.3h-2.09V21.582z"/>
	<path fill="#FFFFFF" d="M56.809,21.582h2.109l1.368,10.316h0.038l1.368-10.316h1.919l-2.014,13.3h-2.774L56.809,21.582z"/>
	<path fill="#FFFFFF" d="M64.618,21.582h2.09v13.3h-2.09V21.582z"/>
	<path fill="#FFFFFF" d="M68.266,21.582h2.622l2.033,7.961h0.038v-7.961h1.862v13.3h-2.147l-2.508-9.709h-0.038v9.709h-1.862V21.582
		z"/>
	<path fill="#FFFFFF" d="M77.024,34.207c-0.532-0.576-0.798-1.402-0.798-2.479v-6.992c0-1.077,0.266-1.903,0.798-2.48
		c0.532-0.576,1.305-0.864,2.318-0.864c1.013,0,1.786,0.288,2.318,0.864c0.532,0.577,0.798,1.403,0.798,2.48v1.14h-1.976v-1.272
		c0-0.875-0.361-1.312-1.083-1.312c-0.722,0-1.083,0.437-1.083,1.312v7.276c0,0.861,0.361,1.292,1.083,1.292
		c0.722,0,1.083-0.431,1.083-1.292v-2.603h-1.045v-1.9h3.021v4.352c0,1.076-0.266,1.902-0.798,2.479
		c-0.532,0.576-1.305,0.865-2.318,0.865C78.329,35.072,77.557,34.783,77.024,34.207z"/>
	<path fill="#FFFFFF" d="M87.265,34.207c-0.52-0.576-0.779-1.402-0.779-2.479v-0.761h1.976v0.912c0,0.861,0.361,1.292,1.083,1.292
		c0.354,0,0.624-0.104,0.808-0.313c0.183-0.209,0.275-0.548,0.275-1.017c0-0.557-0.127-1.048-0.38-1.473
		c-0.254-0.424-0.722-0.934-1.406-1.529c-0.861-0.76-1.463-1.447-1.805-2.062c-0.342-0.614-0.513-1.308-0.513-2.081
		c0-1.051,0.266-1.864,0.798-2.441c0.532-0.576,1.305-0.864,2.318-0.864c1,0,1.758,0.288,2.271,0.864
		c0.513,0.577,0.77,1.403,0.77,2.48v0.551h-1.976v-0.684c0-0.457-0.089-0.789-0.266-0.998c-0.178-0.209-0.437-0.313-0.779-0.313
		c-0.697,0-1.045,0.425-1.045,1.272c0,0.482,0.13,0.932,0.39,1.35c0.259,0.418,0.731,0.924,1.416,1.52
		c0.874,0.76,1.476,1.451,1.805,2.071c0.33,0.62,0.494,1.349,0.494,2.185c0,1.09-0.269,1.926-0.808,2.508
		c-0.538,0.584-1.32,0.875-2.346,0.875C88.55,35.072,87.784,34.783,87.265,34.207z"/>
	<path fill="#FFFFFF" d="M94.57,34.217c-0.526-0.57-0.789-1.374-0.789-2.413V24.66c0-1.039,0.263-1.844,0.789-2.413
		c0.525-0.57,1.289-0.855,2.29-0.855c1,0,1.764,0.285,2.29,0.855c0.525,0.569,0.788,1.374,0.788,2.413v1.406h-1.976v-1.539
		c0-0.824-0.349-1.235-1.045-1.235c-0.696,0-1.045,0.411-1.045,1.235v7.429c0,0.811,0.349,1.216,1.045,1.216
		c0.697,0,1.045-0.405,1.045-1.216v-2.033h1.976v1.881c0,1.039-0.263,1.843-0.788,2.413c-0.526,0.57-1.289,0.855-2.29,0.855
		C95.859,35.072,95.096,34.787,94.57,34.217z"/>
	<path fill="#FFFFFF" d="M101.191,21.582h2.09v5.415h2.242v-5.415h2.09v13.3h-2.09v-5.985h-2.242v5.985h-2.09V21.582z"/>
	<path fill="#FFFFFF" d="M109.836,34.197c-0.544-0.582-0.817-1.405-0.817-2.469v-6.992c0-1.064,0.272-1.888,0.817-2.471
		c0.544-0.582,1.33-0.874,2.356-0.874c1.026,0,1.812,0.292,2.356,0.874c0.545,0.583,0.817,1.406,0.817,2.471v6.992
		c0,1.063-0.272,1.887-0.817,2.469c-0.544,0.584-1.33,0.875-2.356,0.875C111.167,35.072,110.381,34.781,109.836,34.197z
		 M113.275,31.861v-7.258c0-0.875-0.361-1.312-1.083-1.312c-0.722,0-1.083,0.437-1.083,1.312v7.258c0,0.873,0.361,1.311,1.083,1.311
		C112.915,33.172,113.275,32.734,113.275,31.861z"/>
	<path fill="#FFFFFF" d="M117.437,34.197c-0.544-0.582-0.817-1.405-0.817-2.469v-6.992c0-1.064,0.272-1.888,0.817-2.471
		c0.544-0.582,1.33-0.874,2.356-0.874c1.026,0,1.812,0.292,2.356,0.874c0.545,0.583,0.817,1.406,0.817,2.471v6.992
		c0,1.063-0.272,1.887-0.817,2.469c-0.544,0.584-1.33,0.875-2.356,0.875C118.767,35.072,117.981,34.781,117.437,34.197z
		 M120.875,31.861v-7.258c0-0.875-0.361-1.312-1.083-1.312c-0.722,0-1.083,0.437-1.083,1.312v7.258c0,0.873,0.361,1.311,1.083,1.311
		C120.515,33.172,120.875,32.734,120.875,31.861z"/>
	<path fill="#FFFFFF" d="M124.372,21.582h2.09v11.4h3.439v1.899h-5.529V21.582z"/>
	<path fill="#FFFFFF" d="M131.326,34.207c-0.52-0.576-0.779-1.402-0.779-2.479v-0.761h1.976v0.912c0,0.861,0.361,1.292,1.083,1.292
		c0.354,0,0.624-0.104,0.808-0.313c0.183-0.209,0.275-0.548,0.275-1.017c0-0.557-0.127-1.048-0.38-1.473
		c-0.254-0.424-0.722-0.934-1.406-1.529c-0.861-0.76-1.463-1.447-1.805-2.062c-0.342-0.614-0.513-1.308-0.513-2.081
		c0-1.051,0.266-1.864,0.798-2.441c0.532-0.576,1.305-0.864,2.318-0.864c1,0,1.758,0.288,2.271,0.864
		c0.513,0.577,0.77,1.403,0.77,2.48v0.551h-1.976v-0.684c0-0.457-0.089-0.789-0.266-0.998c-0.178-0.209-0.437-0.313-0.779-0.313
		c-0.697,0-1.045,0.425-1.045,1.272c0,0.482,0.13,0.932,0.39,1.35c0.259,0.418,0.731,0.924,1.416,1.52
		c0.874,0.76,1.476,1.451,1.805,2.071c0.33,0.62,0.494,1.349,0.494,2.185c0,1.09-0.269,1.926-0.808,2.508
		c-0.538,0.584-1.32,0.875-2.346,0.875C132.611,35.072,131.845,34.783,131.326,34.207z"/>
</g>
<g>
	<path fill-rule="evenodd" clip-rule="evenodd" fill="#627D53" d="M81.284,71.49c1.208,0.176,2.422,0.317,3.622,0.534
		c4.57,0.825,8.699,2.56,11.828,6.129c1.667,1.9,3.095,3.965,3.26,6.641c0.085,1.392-0.021,2.702-0.645,3.999
		c-1.822,3.79-3.575,7.613-5.33,11.436c-0.106,0.23-0.102,0.641,0.038,0.834c0.731,1.018,0.647,1.997,0.046,3.027
		c-2.812,4.821-5.624,9.643-8.401,14.484c-0.273,0.478-0.43,1.09-0.435,1.642c-0.037,3.802,0.03,7.606-0.04,11.408
		c-0.039,2.13,0.69,4.079,1.187,6.08c1.552,6.264,3.172,12.512,4.771,18.764c0.678,2.65,0.124,3.83-2.348,4.948
		c-0.469,0-0.937,0-1.405,0c-1.737-0.623-2.393-2-2.809-3.691c-1.619-6.582-3.318-13.143-5-19.709
		c-0.098-0.38-0.036-0.88-0.728-0.888c-0.671-0.008-0.654,0.455-0.762,0.848c-1.834,6.677-3.691,13.346-5.469,20.037
		c-0.43,1.62-1.188,2.823-2.797,3.403c-0.469,0-0.937,0-1.405,0c-1.243-0.504-2.309-1.223-2.5-2.658
		c-0.089-0.67-0.009-1.402,0.168-2.06c2.067-7.643,4.169-15.275,6.25-22.914c0.121-0.445,0.188-0.919,0.189-1.38
		c0.015-4.068,0.022-8.136-0.01-12.204c-0.004-0.495-0.163-1.042-0.411-1.474c-2.767-4.815-5.558-9.619-8.363-14.413
		c-0.721-1.231-0.925-2.377,0.178-3.509c0.12-0.122,0.11-0.488,0.022-0.678c-1.557-3.369-3.134-6.729-4.711-10.087
		c-0.073-0.155-0.162-0.349-0.298-0.421c-1.993-1.06-1.846-2.92-1.642-4.688c0.529-4.576,3.413-7.575,7.054-9.941
		c3.208-2.086,6.843-2.947,10.61-3.32c0.341-0.033,0.676-0.118,1.014-0.179C77.771,71.49,79.528,71.49,81.284,71.49z M70.302,90.549
		c1.064,4.955,2.111,9.828,3.158,14.701c1.103-2.964,3.189-4.587,5.732-4.399c2.199,0.161,4.721,1.593,5.233,5.19
		c1.105-5.15,2.209-10.301,3.323-15.492 M68.791,90.476c-2.576,0-5.101,0-7.692,0c1.473,3.149,2.929,6.269,4.4,9.38
		c0.077,0.163,0.267,0.357,0.429,0.383c1.056,0.165,1.561,0.927,2.04,1.758c1.488,2.584,2.995,5.156,4.497,7.732
		c0.141,0.242,0.3,0.475,0.451,0.711c0.049-0.02,0.098-0.039,0.146-0.059C71.643,103.769,70.224,97.157,68.791,90.476z
		 M89.294,90.349c-1.412,6.576-2.778,12.942-4.145,19.31c0.3-0.218,0.476-0.479,0.634-0.751c1.38-2.374,2.76-4.747,4.133-7.124
		c0.438-0.76,0.98-1.348,1.897-1.557c0.328-0.075,0.723-0.366,0.867-0.665c1.433-2.971,2.821-5.964,4.218-8.951
		c0.065-0.139,0.105-0.289,0.096-0.262C94.424,90.349,91.871,90.349,89.294,90.349z M83.804,108.889
		c-2.306,3.317-6.641,3.807-9.5,0.307c0.386,1.784,0.748,3.455,1.108,5.12c2.458,0,4.822,0,7.241,0
		C83.041,112.491,83.422,110.69,83.804,108.889z"/>
</g>
</svg>
