<?xml version="1.0" encoding="utf-8"?>
<!-- Generator: Adobe Illustrator 16.0.0, SVG Export Plug-In . SVG Version: 6.00 Build 0)  -->
<!DOCTYPE svg PUBLIC "-//W3C//DTD SVG 1.1//EN" "http://www.w3.org/Graphics/SVG/1.1/DTD/svg11.dtd">
<svg version="1.1" id="Layer_1" xmlns="http://www.w3.org/2000/svg" xmlns:xlink="http://www.w3.org/1999/xlink" x="0px" y="0px"
	 width="134.023px" height="152.98px" viewBox="0 0 134.023 152.98" enable-background="new 0 0 134.023 152.98"
	 xml:space="preserve">
<path fill-rule="evenodd" clip-rule="evenodd" d="M127.033,118.294c-1.362-1.861-4.39-2.521-8.082-2.577
	c-5.521-0.084-10.45-0.845-15.255-1.8c-5.249-1.042-10.922-1.412-17.227-0.69c-5.759,0.659-11.102,2.151-16.016,4.4
	c-2.857,1.311-5.585,2.717-8.4,4.059c-0.447,0.213-1.059,0.398-1.583,0.46c-6.677,0.768-12.565,2.629-17.739,5.605
	c-3.743,2.153-7.984,3.778-12.939,4.426c-8.162,1.068-14.917,3.703-20.662,7.473c-1.074,0.707-2.044,1.455-3.062,2.184
	c0.008,0.043,80.701-15.393,121.039-23.152C127.083,118.553,127.058,118.422,127.033,118.294"/>
<path fill-rule="evenodd" clip-rule="evenodd" d="M6.494,141.695L1,144.007h131.111V118.55c0,0-1.797-0.708-4.578-0.172
	C124.751,118.912,20.502,134.798,6.494,141.695"/>
<rect fill="#235F30" width="134.023" height="48.137"/>
<g>
	<path fill="#FFFFFF" d="M51.9,30.967c0-0.061,0-0.421,0-1.081c0-0.659,0-1.468,0-2.426s-0.004-1.993-0.012-3.105
		s-0.012-2.147-0.012-3.105c0-0.958,0-1.767,0-2.427c0-0.659,0-1.02,0-1.081h-2.921v-3.22h9.063v3.174H55.12v13.271H51.9z"/>
	<path fill="#FFFFFF" d="M65.724,25.125c0,0.644-0.02,1.284-0.058,1.92s-0.138,1.219-0.299,1.748
		c-0.161,0.529-0.406,0.985-0.736,1.368c-0.33,0.384-0.786,0.652-1.368,0.805c-0.123,0.031-0.28,0.054-0.472,0.069
		c-0.192,0.015-0.395,0.023-0.609,0.023s-0.426-0.008-0.633-0.023s-0.372-0.038-0.494-0.069c-0.675-0.168-1.192-0.425-1.553-0.771
		s-0.617-0.755-0.771-1.23c-0.153-0.475-0.241-1-0.265-1.576c-0.022-0.575-0.042-1.185-0.058-1.828
		c-0.016-0.751-0.008-1.495,0.023-2.231c0.03-0.736,0.157-1.399,0.379-1.989c0.223-0.59,0.591-1.065,1.104-1.426
		s1.245-0.541,2.196-0.541c0.767,0,1.388,0.104,1.863,0.31c0.475,0.207,0.843,0.541,1.104,1.001c0.261,0.46,0.434,1.054,0.518,1.782
		C65.681,23.197,65.724,24.082,65.724,25.125z M61.17,22.779c0,1.012-0.009,1.863-0.023,2.553c-0.016,0.69-0.004,1.242,0.034,1.656
		s0.123,0.709,0.253,0.886c0.131,0.176,0.342,0.264,0.633,0.264c0.276,0,0.494-0.096,0.655-0.288
		c0.161-0.191,0.242-0.502,0.242-0.931v-3.657c0-0.521-0.081-0.858-0.242-1.012s-0.387-0.23-0.678-0.23
		c-0.338,0-0.563,0.073-0.679,0.218C61.25,22.384,61.185,22.564,61.17,22.779z"/>
	<path fill="#FFFFFF" d="M72.141,30.691c-0.276,0.138-0.567,0.234-0.874,0.288c-0.308,0.053-0.583,0.08-0.828,0.08
		c-0.307,0-0.529-0.023-0.667-0.069c-0.721-0.199-1.254-0.506-1.599-0.92s-0.579-0.928-0.701-1.541
		c-0.123-0.613-0.177-1.314-0.161-2.104c0.015-0.79,0.022-1.652,0.022-2.587c0-0.276,0-0.621,0-1.035s0.004-0.835,0.012-1.265
		c0.008-0.429,0.012-0.832,0.012-1.208c0-0.375,0-0.663,0-0.862h2.714c0,1.35,0,2.458,0,3.324s0,1.575,0,2.127
		c0,0.552,0,0.993,0,1.322c0,0.33,0,0.632,0,0.909c0,0.399,0.084,0.675,0.253,0.828c0.169,0.154,0.444,0.23,0.828,0.23
		c0.322-0.046,0.544-0.176,0.667-0.391c0.015-0.046,0.026-0.1,0.034-0.161c0.008-0.061,0.016-0.184,0.023-0.368
		c0.008-0.184,0.012-0.448,0.012-0.793c0-0.345,0.003-0.824,0.011-1.438c0.008-0.613,0.016-1.372,0.023-2.277
		s0.012-2.009,0.012-3.312h2.783c0,1.825,0.003,3.668,0.011,5.532c0.008,1.863,0.012,3.852,0.012,5.968h-2.599V30.691z"/>
	<path fill="#FFFFFF" d="M83.387,20.87c0,0.062-0.092,0.188-0.276,0.38c-0.184,0.192-0.398,0.395-0.644,0.609
		s-0.476,0.406-0.69,0.575c-0.215,0.169-0.36,0.253-0.437,0.253c-0.153,0-0.307-0.123-0.46-0.368
		c-0.077-0.123-0.177-0.245-0.299-0.368c-0.123-0.123-0.284-0.184-0.483-0.184c-0.43,0-0.659,0.2-0.689,0.598
		c0,0.2-0.005,0.537-0.012,1.012c-0.008,0.475-0.012,1.016-0.012,1.622c0,0.605,0,1.238,0,1.897s0,1.276,0,1.851
		c0,0.575,0,1.066,0,1.472c0,0.407,0,0.656,0,0.748h-2.806c0-0.107,0-0.191,0-0.253c0-0.061-0.004-0.188-0.012-0.379
		s-0.012-0.495-0.012-0.909s0-1.031,0-1.852c0-0.82,0-1.882,0-3.186c0-1.303,0-2.944,0-4.922h2.737v0.621
		c0.261-0.215,0.563-0.387,0.908-0.518c0.345-0.13,0.687-0.195,1.023-0.195c0.185,0,0.36,0.019,0.529,0.057
		c0.168,0.039,0.322,0.104,0.46,0.196c0.122,0.077,0.249,0.172,0.379,0.288c0.131,0.115,0.257,0.23,0.38,0.345
		c0.123,0.115,0.223,0.227,0.299,0.333C83.349,20.701,83.387,20.793,83.387,20.87z"/>
	<path fill="#FFFFFF" d="M89.78,22.94h-0.322c-0.261,0-0.46-0.004-0.598-0.012c-0.138-0.007-0.241-0.026-0.311-0.058
		c-0.069-0.03-0.123-0.076-0.161-0.138c-0.038-0.061-0.08-0.146-0.126-0.253c-0.077-0.169-0.169-0.288-0.276-0.356
		c-0.107-0.069-0.261-0.104-0.46-0.104c-0.245,0-0.452,0.077-0.621,0.23s-0.253,0.375-0.253,0.667c0,0.276,0.062,0.471,0.184,0.586
		c0.123,0.115,0.288,0.192,0.495,0.23c0.207,0.039,0.44,0.062,0.701,0.069c0.261,0.008,0.521,0.05,0.782,0.126
		c0.582,0.138,1.054,0.388,1.414,0.748c0.36,0.36,0.625,0.778,0.794,1.253c0.169,0.476,0.241,0.978,0.219,1.507
		c-0.023,0.529-0.135,1.031-0.334,1.506c-0.199,0.476-0.486,0.894-0.862,1.253c-0.376,0.36-0.832,0.609-1.368,0.748
		c-0.308,0.077-0.69,0.115-1.15,0.115c-0.184,0-0.368-0.008-0.552-0.023c-0.185-0.015-0.354-0.046-0.506-0.092
		c-0.506-0.138-0.936-0.379-1.288-0.725c-0.354-0.345-0.629-0.705-0.828-1.081c-0.199-0.375-0.322-0.725-0.368-1.046
		s-0.023-0.529,0.069-0.621l0.114-0.115c0.659,0.015,1.223,0.023,1.691,0.023c0.467,0,0.724,0.015,0.771,0.046
		c0.106,0.107,0.184,0.234,0.229,0.379c0.046,0.146,0.161,0.272,0.345,0.379c0.107,0.062,0.238,0.092,0.392,0.092
		c0.152,0,0.303-0.042,0.448-0.126c0.146-0.084,0.257-0.211,0.333-0.379c0.077-0.123,0.115-0.276,0.115-0.46
		c0-0.184-0.038-0.329-0.115-0.437c-0.153-0.184-0.349-0.291-0.586-0.322c-0.238-0.031-0.514-0.061-0.828-0.092
		s-0.652-0.104-1.012-0.219c-0.36-0.115-0.732-0.364-1.116-0.748c-0.353-0.353-0.602-0.713-0.747-1.081
		c-0.146-0.368-0.219-0.828-0.219-1.38c0-0.567,0.092-1.084,0.276-1.552c0.184-0.468,0.44-0.866,0.771-1.196
		c0.329-0.33,0.721-0.586,1.173-0.771s0.954-0.276,1.507-0.276c0.874,0,1.621,0.246,2.242,0.736
		c0.621,0.491,1.039,1.166,1.254,2.024c0.122,0.43,0.134,0.694,0.034,0.794s-0.303,0.149-0.609,0.149H89.78z"/>
</g>
<g>
	<polyline fill="none" stroke="#000000" stroke-width="2" stroke-miterlimit="10" points="1.031,48.099 1.031,151.994 
		133.031,151.994 133.031,48.099 	"/>
</g>
<path fill-rule="evenodd" clip-rule="evenodd" fill="#010101" d="M22.713,139.437c20.846-4.01,41.691-8.02,62.537-12.03
	c-0.163,0.076-0.319,0.189-0.492,0.222c-3.845,0.749-7.691,1.488-11.538,2.227c-16.635,3.201-33.269,6.4-49.903,9.595
	C23.123,139.488,22.914,139.445,22.713,139.437"/>
<path fill-rule="evenodd" clip-rule="evenodd" fill="#010101" d="M22.055,101.356c0.187,0.007,0.373,0.005,0.559,0.021
	c1.242,0.104,2.2,1.07,2.311,2.325c0.105,1.198-0.687,2.32-1.857,2.633c-1.187,0.315-2.438-0.249-2.938-1.324
	c-0.538-1.162-0.208-2.452,0.811-3.176c0.103-0.074,0.201-0.154,0.302-0.232C21.513,101.522,21.783,101.438,22.055,101.356"/>
<path fill-rule="evenodd" clip-rule="evenodd" fill="#010101" d="M30.517,108.67c0.047-0.003,0.06,0,0.07-0.004
	c0.307-0.069,0.661-0.269,0.903-0.175c0.25,0.096,0.392,0.477,0.576,0.734c1.079,1.517,2.157,3.035,3.237,4.55
	c0.061,0.087,0.124,0.169,0.203,0.274c1.759-1.011,3.596-1.236,5.507-0.524c1.476,0.55,2.587,1.538,3.324,2.927
	c1.454,2.742,0.617,6.183-1.924,7.976c-2.588,1.825-6.086,1.433-8.229-0.919c-2.113-2.321-2.289-6.215,0.461-8.821
	c-0.219-0.31-0.44-0.624-0.681-0.961c-0.067,0.105-0.118,0.181-0.162,0.259c-1.344,2.455-2.688,4.91-4.021,7.368
	c-0.074,0.137-0.11,0.339-0.073,0.486c0.18,0.723-0.03,1.402-0.59,1.796c-0.575,0.405-1.269,0.393-1.884-0.031
	c-0.057-0.039-0.114-0.077-0.165-0.112c0.256,4.127-1.402,6.863-5.651,7.494c-2.659,0.396-5.257-1.296-6.301-3.804
	c-1.037-2.493-0.304-5.413,1.782-7.16c2.045-1.711,5.29-2.091,7.944-0.044c0.158-0.163,0.327-0.322,0.476-0.499
	c0.051-0.06,0.048-0.164,0.065-0.248c0.003-0.021-0.021-0.043-0.024-0.065c-0.135-0.896-0.629-1.296-1.561-1.387
	c-1.18-0.117-2.344-0.409-3.514-0.626c-1.345-0.252-2.091-1.304-1.862-2.657c0.306-1.812,0.667-3.618,0.934-5.436
	c0.227-1.548,1.668-2.411,3.238-1.739c0.868,0.372,1.729,0.764,2.578,1.175c0.351,0.171,0.676,0.196,1.052,0.111
	c0.886-0.198,1.784-0.342,2.667-0.551C29.591,107.891,30.126,108.059,30.517,108.67 M35.602,116.026
	c-1.776,1.596-1.895,4.525-0.301,6.356c1.668,1.916,4.558,2.148,6.495,0.523c1.936-1.626,2.227-4.497,0.653-6.454
	c-1.718-2.138-4.545-2.088-5.996-1.063c0.08,0.114,0.158,0.23,0.239,0.345c0.69,0.97,1.384,1.938,2.07,2.911
	c0.223,0.314,0.19,0.636-0.064,0.814c-0.261,0.183-0.546,0.122-0.769-0.169c-0.157-0.206-0.303-0.421-0.454-0.632
	C36.855,117.788,36.235,116.915,35.602,116.026 M23.707,121.147c-1.601-1.375-4.217-1.29-5.889,0.171
	c-1.718,1.499-2.084,4.087-0.85,5.987c1.277,1.959,3.759,2.692,5.854,1.728c1.921-0.886,3.146-3.252,2.595-5.061
	c-0.935,0.285-1.869,0.574-2.808,0.853c-0.207,0.061-0.33,0.141-0.392,0.375c-0.14,0.537-0.517,0.872-1.059,0.978
	c-0.601,0.112-1.094-0.093-1.442-0.604c-0.314-0.462-0.32-1.074-0.004-1.533c0.349-0.506,0.835-0.703,1.444-0.612
	c0.115,0.016,0.283,0.028,0.349-0.034C22.248,122.654,22.975,121.899,23.707,121.147 M32.38,111.499
	c-0.374-0.526-0.756-1.02-1.086-1.545c-0.176-0.278-0.357-0.341-0.63-0.196c-0.1,0.054-0.184,0.136-0.28,0.194
	c-0.284,0.174-0.551,0.427-0.86,0.498c-1.159,0.275-2.333,0.486-3.5,0.729c-0.418,0.087-0.812,0.071-1.204-0.124
	c-0.448-0.225-0.912-0.415-1.397-0.635c-0.233,1.338-0.459,2.635-0.689,3.955c0.151,0.031,0.277,0.06,0.402,0.082
	c1.171,0.22,2.342,0.432,3.512,0.658c0.26,0.05,0.509,0.153,0.821,0.249C29.057,114.114,30.703,112.819,32.38,111.499
	 M32.99,112.406c-0.03,0.009-0.058,0.01-0.074,0.025c-1.667,1.306-3.334,2.611-4.992,3.931c-0.073,0.059-0.102,0.249-0.068,0.354
	c0.175,0.535,0.372,1.066,0.565,1.599c0.231,0.634,0.467,1.266,0.724,1.962c0.093-0.159,0.147-0.245,0.197-0.337
	c1.256-2.295,2.506-4.595,3.774-6.883C33.281,112.761,33.221,112.585,32.99,112.406 M24.503,121.847
	c-0.602,0.62-1.146,1.178-1.745,1.796c0.848-0.259,1.604-0.488,2.4-0.732C24.933,122.545,24.731,122.218,24.503,121.847
	 M25.85,120.499c-0.259,0.244-0.136,0.539,0.3,0.844C26.05,121.062,25.957,120.803,25.85,120.499"/>
<path fill-rule="evenodd" clip-rule="evenodd" fill="#010101" d="M24.503,121.846c0.229,0.371,0.43,0.699,0.655,1.064
	c-0.797,0.245-1.553,0.473-2.4,0.731C23.357,123.025,23.901,122.466,24.503,121.846"/>
<path fill-rule="evenodd" clip-rule="evenodd" fill="#010101" d="M25.85,120.499c0.107,0.304,0.2,0.563,0.3,0.844
	C25.714,121.038,25.591,120.743,25.85,120.499"/>
<path fill-rule="evenodd" clip-rule="evenodd" fill="#010101" d="M59.243,88.291c0.187,0.008,0.373,0.005,0.559,0.021
	c1.242,0.104,2.2,1.07,2.311,2.325c0.105,1.199-0.687,2.32-1.857,2.633c-1.187,0.315-2.438-0.248-2.938-1.324
	c-0.537-1.161-0.208-2.452,0.811-3.177c0.104-0.074,0.202-0.153,0.302-0.231C58.701,88.456,58.972,88.373,59.243,88.291"/>
<path fill-rule="evenodd" clip-rule="evenodd" fill="#010101" d="M67.706,95.604c0.046-0.002,0.059,0,0.07-0.003
	c0.306-0.069,0.661-0.27,0.903-0.176c0.249,0.096,0.391,0.477,0.575,0.735c1.079,1.517,2.158,3.035,3.237,4.55
	c0.061,0.086,0.125,0.168,0.203,0.274c1.759-1.012,3.596-1.236,5.507-0.525c1.477,0.55,2.588,1.538,3.325,2.927
	c1.453,2.742,0.617,6.183-1.924,7.976c-2.589,1.825-6.087,1.432-8.229-0.919c-2.112-2.321-2.289-6.215,0.462-8.821
	c-0.219-0.309-0.441-0.623-0.682-0.961c-0.066,0.105-0.118,0.181-0.162,0.26c-1.343,2.453-2.688,4.909-4.021,7.367
	c-0.075,0.137-0.111,0.339-0.074,0.485c0.181,0.723-0.03,1.402-0.589,1.797c-0.576,0.405-1.269,0.393-1.885-0.031
	c-0.057-0.039-0.114-0.077-0.164-0.112c0.255,4.127-1.402,6.863-5.651,7.494c-2.659,0.395-5.258-1.297-6.302-3.806
	c-1.036-2.492-0.304-5.412,1.783-7.159c2.044-1.711,5.289-2.091,7.944-0.045c0.157-0.162,0.326-0.321,0.476-0.498
	c0.049-0.06,0.048-0.164,0.064-0.248c0.004-0.021-0.021-0.043-0.023-0.066c-0.135-0.896-0.63-1.295-1.561-1.387
	c-1.182-0.116-2.345-0.409-3.515-0.626c-1.345-0.251-2.091-1.303-1.862-2.655c0.307-1.812,0.667-3.618,0.934-5.436
	c0.228-1.549,1.668-2.411,3.239-1.739c0.867,0.371,1.728,0.763,2.577,1.175c0.351,0.17,0.677,0.196,1.052,0.111
	c0.886-0.199,1.784-0.342,2.668-0.552C66.779,94.826,67.315,94.994,67.706,95.604 M72.79,102.96
	c-1.775,1.597-1.895,4.526-0.301,6.355c1.668,1.917,4.559,2.15,6.496,0.525c1.935-1.626,2.226-4.498,0.652-6.455
	c-1.718-2.137-4.544-2.087-5.996-1.063c0.081,0.115,0.159,0.23,0.24,0.346c0.689,0.968,1.383,1.937,2.069,2.91
	c0.223,0.314,0.19,0.636-0.063,0.814c-0.262,0.182-0.547,0.122-0.77-0.169c-0.157-0.206-0.303-0.421-0.453-0.632
	C74.044,104.722,73.424,103.85,72.79,102.96 M60.896,108.082c-1.601-1.375-4.216-1.29-5.889,0.17
	c-1.718,1.499-2.084,4.088-0.849,5.987c1.275,1.96,3.759,2.692,5.854,1.728c1.92-0.885,3.146-3.251,2.595-5.06
	c-0.936,0.284-1.87,0.573-2.809,0.852c-0.207,0.062-0.33,0.14-0.391,0.375c-0.141,0.537-0.518,0.873-1.06,0.979
	c-0.6,0.112-1.094-0.094-1.441-0.604c-0.315-0.463-0.32-1.074-0.004-1.533c0.348-0.506,0.834-0.704,1.443-0.613
	c0.115,0.016,0.284,0.029,0.35-0.034C59.436,109.589,60.164,108.833,60.896,108.082 M69.569,98.435
	c-0.375-0.526-0.756-1.02-1.087-1.545c-0.176-0.278-0.357-0.341-0.629-0.196c-0.101,0.053-0.185,0.136-0.28,0.193
	c-0.284,0.175-0.552,0.428-0.861,0.499c-1.159,0.275-2.333,0.485-3.499,0.728c-0.418,0.087-0.813,0.072-1.205-0.124
	c-0.448-0.225-0.911-0.415-1.396-0.635c-0.234,1.337-0.46,2.636-0.69,3.955c0.151,0.032,0.277,0.061,0.402,0.083
	c1.171,0.22,2.343,0.432,3.512,0.657c0.26,0.051,0.509,0.154,0.821,0.25C66.245,101.049,67.891,99.755,69.569,98.435 M70.179,99.341
	c-0.03,0.01-0.058,0.011-0.074,0.025c-1.667,1.306-3.334,2.612-4.992,3.93c-0.073,0.06-0.101,0.25-0.067,0.354
	c0.174,0.537,0.371,1.068,0.564,1.601c0.231,0.634,0.468,1.266,0.724,1.961c0.094-0.158,0.148-0.245,0.197-0.336
	c1.257-2.295,2.506-4.595,3.775-6.883C70.47,99.695,70.409,99.52,70.179,99.341 M61.691,108.781
	c-0.602,0.619-1.145,1.177-1.745,1.796c0.849-0.259,1.604-0.489,2.4-0.732C62.121,109.479,61.92,109.152,61.691,108.781
	 M63.038,107.434c-0.258,0.243-0.136,0.538,0.3,0.842C63.239,107.996,63.146,107.737,63.038,107.434"/>
<path fill-rule="evenodd" clip-rule="evenodd" fill="#010101" d="M61.691,108.78c0.229,0.371,0.43,0.699,0.655,1.064
	c-0.797,0.244-1.552,0.473-2.4,0.731C60.547,109.959,61.09,109.4,61.691,108.78"/>
<path fill-rule="evenodd" clip-rule="evenodd" fill="#010101" d="M63.038,107.434c0.107,0.304,0.201,0.563,0.3,0.842
	C62.902,107.972,62.78,107.677,63.038,107.434"/>
<path fill-rule="evenodd" clip-rule="evenodd" fill="#010101" d="M106.955,81.6c0.161,0.096,0.326,0.184,0.48,0.286
	c1.043,0.685,1.424,1.988,0.923,3.146c-0.479,1.104-1.71,1.713-2.888,1.428c-1.193-0.287-2.025-1.38-1.951-2.563
	c0.082-1.276,0.986-2.255,2.227-2.406c0.126-0.016,0.251-0.038,0.376-0.061C106.4,81.488,106.678,81.543,106.955,81.6"/>
<path fill-rule="evenodd" clip-rule="evenodd" fill="#010101" d="M110.907,92.063c0.042,0.021,0.052,0.028,0.063,0.031
	c0.303,0.083,0.709,0.079,0.878,0.276c0.174,0.202,0.117,0.604,0.155,0.92c0.225,1.848,0.45,3.695,0.677,5.544
	c0.012,0.104,0.029,0.208,0.048,0.337c2.027-0.049,3.75,0.628,5.091,2.165c1.034,1.186,1.541,2.585,1.526,4.158
	c-0.029,3.102-2.403,5.727-5.492,6.092c-3.146,0.372-6.034-1.643-6.796-4.731c-0.751-3.047,0.95-6.553,4.611-7.534
	c-0.046-0.375-0.091-0.758-0.141-1.169c-0.109,0.063-0.19,0.104-0.267,0.151c-2.351,1.518-4.703,3.035-7.047,4.559
	c-0.131,0.085-0.259,0.244-0.297,0.394c-0.186,0.719-0.695,1.217-1.374,1.296c-0.699,0.082-1.303-0.258-1.642-0.925
	c-0.031-0.063-0.063-0.122-0.092-0.178c-1.742,3.75-4.504,5.365-8.541,3.894c-2.524-0.919-4.001-3.646-3.724-6.348
	c0.276-2.686,2.313-4.904,4.979-5.443c2.613-0.53,5.647,0.683,7.006,3.748c0.215-0.068,0.44-0.126,0.654-0.211
	c0.073-0.029,0.121-0.123,0.176-0.188c0.013-0.016,0.003-0.047,0.011-0.067c0.309-0.854,0.063-1.44-0.711-1.964
	c-0.982-0.665-1.865-1.478-2.791-2.228c-1.062-0.861-1.216-2.142-0.37-3.222c1.134-1.447,2.311-2.863,3.413-4.333
	c0.937-1.253,2.615-1.324,3.675,0.015c0.586,0.74,1.156,1.494,1.706,2.262c0.228,0.316,0.501,0.495,0.871,0.601
	c0.874,0.247,1.732,0.549,2.608,0.786C110.465,90.937,110.855,91.341,110.907,92.063 M111.869,100.955
	c-2.322,0.557-3.822,3.072-3.294,5.441c0.553,2.481,2.982,4.064,5.46,3.559c2.476-0.507,4.101-2.893,3.65-5.362
	c-0.49-2.697-3-4.002-4.762-3.793c0.014,0.14,0.028,0.279,0.044,0.417c0.146,1.182,0.292,2.363,0.433,3.544
	c0.046,0.385-0.136,0.651-0.445,0.688c-0.315,0.034-0.538-0.153-0.595-0.516c-0.04-0.256-0.066-0.513-0.098-0.771
	C112.132,103.1,112.003,102.038,111.869,100.955 M98.973,99.786c-0.752-1.973-3.092-3.146-5.258-2.657
	c-2.225,0.499-3.781,2.598-3.601,4.856c0.188,2.33,2.021,4.158,4.321,4.31c2.11,0.137,4.315-1.359,4.693-3.211
	c-0.958-0.196-1.917-0.387-2.875-0.588c-0.21-0.047-0.356-0.035-0.522,0.142c-0.378,0.406-0.87,0.52-1.396,0.354
	c-0.582-0.188-0.918-0.602-0.981-1.217c-0.056-0.556,0.231-1.097,0.729-1.349c0.547-0.279,1.068-0.221,1.562,0.148
	c0.094,0.069,0.235,0.161,0.323,0.138C96.972,100.416,97.971,100.097,98.973,99.786 M111.196,95.438
	c-0.078-0.641-0.179-1.256-0.218-1.876c-0.022-0.329-0.153-0.47-0.461-0.472c-0.113-0.001-0.226,0.031-0.339,0.037
	c-0.332,0.018-0.688,0.112-0.994,0.027c-1.149-0.312-2.282-0.686-3.423-1.029c-0.41-0.122-0.748-0.323-1-0.684
	c-0.286-0.409-0.604-0.8-0.926-1.223c-0.843,1.063-1.659,2.096-2.492,3.147c0.118,0.1,0.216,0.184,0.314,0.266
	c0.925,0.75,1.854,1.495,2.773,2.251c0.204,0.168,0.375,0.377,0.604,0.611C107.027,96.152,109.092,95.8,111.196,95.438
	 M111.3,96.527c-0.031-0.006-0.056-0.019-0.077-0.015c-2.088,0.354-4.176,0.708-6.263,1.078c-0.092,0.016-0.207,0.169-0.228,0.276
	c-0.104,0.557-0.184,1.116-0.267,1.678c-0.099,0.667-0.192,1.335-0.299,2.067c0.157-0.095,0.247-0.145,0.334-0.201
	c2.199-1.419,4.393-2.846,6.6-4.251C111.388,96.977,111.417,96.796,111.3,96.527 M99.338,100.778c-0.824,0.26-1.568,0.49-2.39,0.747
	c0.869,0.178,1.643,0.336,2.459,0.501C99.383,101.599,99.362,101.215,99.338,100.778 M101.165,100.236
	c-0.344,0.093-0.377,0.409-0.139,0.885C101.072,100.829,101.115,100.555,101.165,100.236"/>
<path fill-rule="evenodd" clip-rule="evenodd" fill="#010101" d="M99.338,100.778c0.023,0.437,0.045,0.82,0.069,1.248
	c-0.816-0.165-1.591-0.323-2.459-0.501C97.771,101.269,98.514,101.038,99.338,100.778"/>
<path fill-rule="evenodd" clip-rule="evenodd" fill="#010101" d="M101.165,100.236c-0.05,0.318-0.093,0.593-0.139,0.885
	C100.788,100.646,100.821,100.329,101.165,100.236"/>
</svg>
