<?xml version="1.0" encoding="utf-8"?>
<!-- Generator: Adobe Illustrator 16.0.0, SVG Export Plug-In . SVG Version: 6.00 Build 0)  -->
<!DOCTYPE svg PUBLIC "-//W3C//DTD SVG 1.1//EN" "http://www.w3.org/Graphics/SVG/1.1/DTD/svg11.dtd">
<svg version="1.1" id="Layer_1" xmlns="http://www.w3.org/2000/svg" xmlns:xlink="http://www.w3.org/1999/xlink" x="0px" y="0px"
	 width="157px" height="179px" viewBox="0 0 157 179" enable-background="new 0 0 157 179" xml:space="preserve">
<rect x="1.5" y="1" fill-rule="evenodd" clip-rule="evenodd" fill="#FFFFFF" stroke="#627D53" stroke-width="2" stroke-miterlimit="10" width="155" height="177"/>
<rect x="1.5" fill-rule="evenodd" clip-rule="evenodd" fill="#627D53" width="155" height="56"/>
<g>
	<path fill="#FFFFFF" d="M32.863,21.582h3.192c1.038,0,1.817,0.279,2.337,0.836c0.519,0.558,0.779,1.375,0.779,2.451v6.726
		c0,1.077-0.26,1.894-0.779,2.451c-0.52,0.558-1.299,0.836-2.337,0.836h-3.192V21.582z M36.017,32.982
		c0.342,0,0.604-0.102,0.789-0.304c0.183-0.202,0.275-0.532,0.275-0.988v-6.916c0-0.456-0.092-0.785-0.275-0.988
		c-0.184-0.202-0.447-0.304-0.789-0.304h-1.064v9.5H36.017z"/>
	<path fill="#FFFFFF" d="M42.154,21.582h2.831l2.166,13.3h-2.09l-0.38-2.641v0.038h-2.375l-0.38,2.603h-1.938L42.154,21.582z
		 M44.434,30.474L43.503,23.9h-0.038l-0.912,6.574H44.434z"/>
	<path fill="#FFFFFF" d="M48.157,21.582h2.622l2.033,7.961h0.038v-7.961h1.862v13.3h-2.147l-2.508-9.709H50.02v9.709h-1.862V21.582z
		"/>
	<path fill="#FFFFFF" d="M56.926,34.217c-0.526-0.57-0.789-1.374-0.789-2.413V24.66c0-1.038,0.263-1.843,0.789-2.413
		c0.525-0.57,1.289-0.855,2.29-0.855c1,0,1.764,0.285,2.29,0.855c0.525,0.57,0.788,1.375,0.788,2.413v1.406h-1.976v-1.539
		c0-0.823-0.349-1.235-1.045-1.235c-0.696,0-1.045,0.412-1.045,1.235v7.429c0,0.811,0.349,1.216,1.045,1.216
		c0.697,0,1.045-0.405,1.045-1.216v-2.033h1.976v1.881c0,1.039-0.263,1.843-0.788,2.413c-0.526,0.57-1.289,0.855-2.29,0.855
		C58.214,35.072,57.451,34.787,56.926,34.217z"/>
	<path fill="#FFFFFF" d="M63.547,21.582h5.7v1.9h-3.61v3.515h2.869v1.9h-2.869v4.085h3.61v1.9h-5.7V21.582z"/>
	<path fill="#FFFFFF" d="M73.901,34.208c-0.52-0.577-0.779-1.403-0.779-2.479v-0.76h1.976v0.912c0,0.861,0.361,1.292,1.083,1.292
		c0.354,0,0.624-0.104,0.808-0.313c0.183-0.209,0.275-0.548,0.275-1.017c0-0.557-0.127-1.048-0.38-1.473
		c-0.254-0.424-0.722-0.934-1.406-1.529c-0.861-0.76-1.463-1.447-1.805-2.062c-0.342-0.614-0.513-1.308-0.513-2.081
		c0-1.051,0.266-1.865,0.798-2.441c0.532-0.576,1.305-0.865,2.318-0.865c1,0,1.758,0.289,2.271,0.865
		c0.513,0.577,0.77,1.403,0.77,2.479v0.551h-1.976v-0.684c0-0.456-0.089-0.789-0.266-0.998c-0.178-0.209-0.437-0.313-0.779-0.313
		c-0.697,0-1.045,0.424-1.045,1.273c0,0.481,0.13,0.931,0.39,1.349c0.259,0.418,0.731,0.924,1.416,1.52
		c0.874,0.76,1.476,1.451,1.805,2.071c0.33,0.621,0.494,1.349,0.494,2.185c0,1.089-0.269,1.925-0.808,2.508
		c-0.538,0.583-1.32,0.874-2.346,0.874C75.187,35.072,74.421,34.784,73.901,34.208z"/>
	<path fill="#FFFFFF" d="M81.207,34.217c-0.526-0.57-0.789-1.374-0.789-2.413V24.66c0-1.038,0.263-1.843,0.789-2.413
		c0.525-0.57,1.289-0.855,2.29-0.855c1,0,1.764,0.285,2.29,0.855c0.525,0.57,0.788,1.375,0.788,2.413v1.406h-1.976v-1.539
		c0-0.823-0.349-1.235-1.045-1.235c-0.696,0-1.045,0.412-1.045,1.235v7.429c0,0.811,0.349,1.216,1.045,1.216
		c0.697,0,1.045-0.405,1.045-1.216v-2.033h1.976v1.881c0,1.039-0.263,1.843-0.788,2.413c-0.526,0.57-1.289,0.855-2.29,0.855
		C82.496,35.072,81.732,34.787,81.207,34.217z"/>
	<path fill="#FFFFFF" d="M87.828,21.582h2.09v5.415h2.242v-5.415h2.09v13.3h-2.09v-5.985h-2.242v5.985h-2.09V21.582z"/>
	<path fill="#FFFFFF" d="M96.473,34.198c-0.544-0.583-0.817-1.406-0.817-2.47v-6.992c0-1.064,0.272-1.887,0.817-2.47
		c0.544-0.582,1.33-0.874,2.356-0.874c1.026,0,1.812,0.292,2.356,0.874c0.545,0.583,0.817,1.406,0.817,2.47v6.992
		c0,1.064-0.272,1.887-0.817,2.47c-0.544,0.583-1.33,0.874-2.356,0.874C97.803,35.072,97.018,34.781,96.473,34.198z M99.912,31.861
		v-7.258c0-0.874-0.361-1.311-1.083-1.311c-0.722,0-1.083,0.437-1.083,1.311v7.258c0,0.874,0.361,1.311,1.083,1.311
		C99.551,33.172,99.912,32.735,99.912,31.861z"/>
	<path fill="#FFFFFF" d="M104.073,34.198c-0.544-0.583-0.817-1.406-0.817-2.47v-6.992c0-1.064,0.272-1.887,0.817-2.47
		c0.544-0.582,1.33-0.874,2.356-0.874c1.026,0,1.812,0.292,2.356,0.874c0.545,0.583,0.817,1.406,0.817,2.47v6.992
		c0,1.064-0.272,1.887-0.817,2.47c-0.544,0.583-1.33,0.874-2.356,0.874C105.403,35.072,104.618,34.781,104.073,34.198z
		 M107.512,31.861v-7.258c0-0.874-0.361-1.311-1.083-1.311c-0.722,0-1.083,0.437-1.083,1.311v7.258c0,0.874,0.361,1.311,1.083,1.311
		C107.151,33.172,107.512,32.735,107.512,31.861z"/>
	<path fill="#FFFFFF" d="M111.008,21.582h2.09v11.4h3.439v1.9h-5.529V21.582z"/>
	<path fill="#FFFFFF" d="M117.962,34.208c-0.52-0.577-0.779-1.403-0.779-2.479v-0.76h1.976v0.912c0,0.861,0.361,1.292,1.083,1.292
		c0.354,0,0.624-0.104,0.808-0.313c0.183-0.209,0.275-0.548,0.275-1.017c0-0.557-0.127-1.048-0.38-1.473
		c-0.254-0.424-0.722-0.934-1.406-1.529c-0.861-0.76-1.463-1.447-1.805-2.062c-0.342-0.614-0.513-1.308-0.513-2.081
		c0-1.051,0.266-1.865,0.798-2.441c0.532-0.576,1.305-0.865,2.318-0.865c1,0,1.758,0.289,2.271,0.865
		c0.513,0.577,0.77,1.403,0.77,2.479v0.551h-1.976v-0.684c0-0.456-0.089-0.789-0.266-0.998c-0.178-0.209-0.437-0.313-0.779-0.313
		c-0.697,0-1.045,0.424-1.045,1.273c0,0.481,0.13,0.931,0.39,1.349c0.259,0.418,0.731,0.924,1.416,1.52
		c0.874,0.76,1.476,1.451,1.805,2.071c0.33,0.621,0.494,1.349,0.494,2.185c0,1.089-0.269,1.925-0.808,2.508
		c-0.538,0.583-1.32,0.874-2.346,0.874C119.248,35.072,118.482,34.784,117.962,34.208z"/>
</g>
<g>
	<path fill-rule="evenodd" clip-rule="evenodd" fill="#627D53" d="M83.069,123.619c-1.599,3.939-3.164,7.892-4.817,11.808
		c-0.454,1.074-0.117,2.025,0.122,2.991c1.345,5.437,2.732,10.862,4.118,16.288c0.942,3.689-0.181,5.952-3.417,6.828
		c-3.425,0.926-5.771-0.406-6.785-4.01c-1.646-5.849-3.238-11.712-4.792-17.586c-0.82-3.101-0.122-6.118,0.786-9.087
		c1.503-4.922,3.768-9.537,5.821-14.235c0.622-1.423,0.831-2.775,0.552-4.347c-0.829-4.662-1.527-9.349-2.183-14.039
		c-0.218-1.563-0.767-2.115-2.43-1.819c-3.573,0.637-7.192,1.01-10.772,1.606c-2.061,0.344-3.704-0.135-5.091-1.719
		c-2.238-2.554-4.567-5.029-6.798-7.59c-1.739-1.995-1.76-3.681-0.205-5.228c1.657-1.647,3.792-1.603,5.697,0.126
		c0.292,0.266,0.632,0.512,0.831,0.84c2.772,4.579,6.738,4.763,11.546,3.81c7.658-1.519,15.439-2.411,23.159-3.621
		c4.549-0.713,8.096,0.53,10.275,4.835c0.625,1.236,2.56,2.347,2.055,3.441c-0.537,1.162-2.577,0.496-3.953,0.556
		c-2.761,0.119-5.53,0.054-8.292,0.146c-2.713,0.092-4.117,1.677-4.064,4.441c0.055,2.924,1.51,4.436,4.262,4.54
		c1.797,0.068,4.143-0.781,5.245,0.402c1.113,1.195,0.054,3.467-0.033,5.263c-0.819,17.056-0.063,34.116-0.242,51.174
		c-0.047,4.538-2.813,6.939-6.699,5.766c-2.385-0.72-3.457-2.354-3.466-5.529c-0.029-10.19-0.021-20.382-0.027-30.572
		c-0.001-1.816,0-3.633,0-5.449C83.337,123.64,83.203,123.63,83.069,123.619z"/>
	<path fill-rule="evenodd" clip-rule="evenodd" fill="#627D53" d="M98.335,106.397c1.211,1.565,2.032,2.692,2.924,3.76
		c0.863,1.033,1.846,2.361,3.188,2.243c2.504-0.222,2.724,1.422,3.235,3.083c1.645,5.349,3.311,10.69,5.042,16.012
		c0.45,1.384,0.569,2.069-1.326,2.074c-4.251,0.015-4.251,0.117-4.217,4.442c0.059,7.339,0.116,14.678,0.174,22.016
		c0.029,3.62-1.095,5.02-4.071,5.062c-3.142,0.047-4.93-1.691-4.935-5.02C98.321,142.394,98.335,124.717,98.335,106.397z"/>
	<path fill-rule="evenodd" clip-rule="evenodd" fill="#627D53" d="M96.16,100.688c-2.443-0.002-4.888-0.054-7.329,0.015
		c-1.95,0.055-2.421-1.147-2.479-2.71c-0.059-1.617,0.706-2.486,2.41-2.495c3.625-0.018,7.25-0.075,10.875-0.138
		c1.613-0.028,3.271-0.175,4.047-1.86c0.771-1.674-0.183-3.039-1.167-4.313c-0.481-0.623-1.059-1.175-1.504-1.82
		c-0.362-0.525-1.431-0.938-0.81-1.68c0.402-0.48,1.335-0.272,2.015,0.013c1.224,0.514,2.506,0.927,3.652,1.58
		c3.031,1.728,4.274,4.668,3.428,7.789c-1.083,3.992-3.095,5.613-6.992,5.621C100.258,100.694,98.209,100.69,96.16,100.688z"/>
	<path fill-rule="evenodd" clip-rule="evenodd" fill="#627D53" d="M80.143,76.08c-0.017-3.673,2.865-6.634,6.513-6.691
		c3.711-0.058,6.762,2.98,6.747,6.721c-0.015,3.601-3.01,6.549-6.659,6.554C83.09,82.669,80.16,79.746,80.143,76.08z"/>
	<path fill-rule="evenodd" clip-rule="evenodd" fill="#627D53" d="M103.396,84.08c-3.173,0.172-6.027-2.545-6.244-5.943
		c-0.229-3.592,2.381-6.875,5.563-6.996c4.42-0.169,7.475,2.273,7.697,6.153C110.634,81.154,107.858,83.839,103.396,84.08z"/>
	<path fill-rule="evenodd" clip-rule="evenodd" fill="#627D53" d="M98.466,102.779c3.313-0.497,6.292,0.409,8.998-1.24
		c0.766-0.467,2.986,2.71,2.96,4.3c-0.033,2.007-1.06,3.462-2.877,4.217c-1.724,0.716-3.251,0.21-4.408-1.251
		C101.638,106.911,100.176,104.988,98.466,102.779z"/>
	<path fill-rule="evenodd" clip-rule="evenodd" fill="#627D53" d="M79.708,84.178c-5.24,0.763-10.292,1.498-15.343,2.232
		c-0.624,0.091-1.25,0.162-1.871,0.268c-2.49,0.422-5.472-1.045-6.64-3.197c-0.525-0.968,0.288-1.138,0.775-1.3
		c1.518-0.507,2.808,0.026,3.79,1.216c1.118,1.354,2.361,1.67,4.146,1.353c4.184-0.743,8.424-1.158,12.635-1.759
		C78.192,82.849,79.096,82.657,79.708,84.178z"/>
</g>
</svg>
