<?xml version="1.0" encoding="utf-8"?>
<!-- Generator: Adobe Illustrator 16.0.0, SVG Export Plug-In . SVG Version: 6.00 Build 0)  -->
<!DOCTYPE svg PUBLIC "-//W3C//DTD SVG 1.1//EN" "http://www.w3.org/Graphics/SVG/1.1/DTD/svg11.dtd">
<svg version="1.1" id="Layer_1" xmlns="http://www.w3.org/2000/svg" xmlns:xlink="http://www.w3.org/1999/xlink" x="0px" y="0px"
	 width="134.023px" height="152.98px" viewBox="0 0 134.023 152.98" enable-background="new 0 0 134.023 152.98"
	 xml:space="preserve">
<rect fill="#235F30" width="134.023" height="49.451"/>
<g>
	<g>
		<path fill="#FFFFFF" d="M31.827,8.387c-0.077-0.153-0.207-0.23-0.391-0.23c-0.138,0-0.253,0.046-0.345,0.138
			c-0.123,0.107-0.2,0.28-0.23,0.518c-0.031,0.238-0.035,0.491-0.012,0.759c0.023,0.269,0.073,0.533,0.149,0.793
			c0.077,0.261,0.161,0.468,0.253,0.621c0.199,0.276,0.456,0.544,0.771,0.805s0.648,0.529,1,0.805
			c0.353,0.276,0.698,0.579,1.035,0.909c0.337,0.33,0.621,0.709,0.851,1.139c0.322,0.552,0.521,1.2,0.598,1.943
			c0.076,0.744,0.019,1.464-0.173,2.162s-0.537,1.307-1.035,1.829c-0.499,0.521-1.162,0.843-1.99,0.966
			c-0.153,0.016-0.303,0.026-0.448,0.035c-0.146,0.007-0.303,0.011-0.472,0.011c-0.905,0-1.633-0.149-2.185-0.448
			c-0.552-0.299-0.974-0.705-1.265-1.219c-0.292-0.514-0.487-1.119-0.586-1.817s-0.157-1.438-0.172-2.22h3.542
			c0.015,0.246,0.023,0.518,0.023,0.817c0,0.299,0.015,0.579,0.046,0.839s0.088,0.479,0.173,0.655
			c0.084,0.177,0.218,0.265,0.402,0.265c0.214,0,0.356-0.084,0.425-0.253c0.069-0.168,0.104-0.498,0.104-0.989
			c0-0.276-0.015-0.521-0.046-0.736c-0.031-0.214-0.107-0.425-0.23-0.632c-0.123-0.207-0.307-0.426-0.552-0.656
			s-0.575-0.498-0.989-0.805c-0.491-0.368-0.905-0.717-1.242-1.047c-0.337-0.33-0.613-0.682-0.828-1.058
			c-0.215-0.376-0.372-0.794-0.472-1.254c-0.1-0.46-0.149-0.989-0.149-1.587c0.015-1.426,0.337-2.515,0.966-3.266
			c0.628-0.751,1.656-1.127,3.082-1.127c1.027,0,1.855,0.246,2.484,0.736c0.46,0.353,0.801,0.793,1.024,1.322
			c0.222,0.529,0.379,1.046,0.471,1.553c0.092,0.506,0.138,0.943,0.138,1.311c0,0.368,0,0.567,0,0.598h-3.496
			c-0.046-0.613-0.069-1.081-0.069-1.403C31.988,8.847,31.934,8.586,31.827,8.387z"/>
		<path fill="#FFFFFF" d="M41.809,16.644c0.03-0.092,0.096-0.153,0.195-0.184s0.326-0.046,0.679-0.046h0.575h0.482
			c0.215,0,0.38,0.008,0.495,0.023c0.114,0.015,0.195,0.058,0.241,0.126s0.069,0.176,0.069,0.322c0,0.146,0,0.342,0,0.586
			c-0.016,1.457-0.356,2.522-1.023,3.197c-0.667,0.675-1.515,1.012-2.542,1.012c-0.889,0-1.583-0.165-2.082-0.495
			c-0.499-0.33-0.874-0.763-1.127-1.3c-0.253-0.536-0.41-1.15-0.472-1.84c-0.061-0.69-0.092-1.403-0.092-2.139
			c0-0.69,0.031-1.383,0.092-2.081c0.062-0.698,0.211-1.334,0.449-1.909c0.237-0.575,0.602-1.042,1.092-1.403
			s1.166-0.541,2.024-0.541c0.444,0,0.87,0.061,1.276,0.184c0.406,0.123,0.771,0.311,1.092,0.563
			c0.322,0.253,0.594,0.575,0.816,0.966s0.364,0.847,0.426,1.369c0.015,0.123,0.03,0.291,0.046,0.506s0.023,0.437,0.023,0.667
			s-0.004,0.437-0.012,0.621c-0.008,0.184-0.02,0.307-0.034,0.368c-0.016,0.046-0.035,0.073-0.058,0.081
			c-0.023,0.008-0.051,0.02-0.081,0.035s-0.157,0.027-0.379,0.034c-0.223,0.008-0.495,0.012-0.816,0.012H42.66
			c-0.23,0-0.403-0.007-0.518-0.023c-0.115-0.015-0.2-0.05-0.253-0.104c-0.054-0.054-0.084-0.134-0.092-0.242
			c-0.008-0.107-0.019-0.253-0.034-0.437c-0.016-0.153-0.027-0.33-0.035-0.529c-0.008-0.199-0.042-0.391-0.104-0.575
			c-0.062-0.184-0.153-0.341-0.276-0.471c-0.123-0.13-0.299-0.196-0.529-0.196c-0.215,0-0.383,0.107-0.506,0.322
			c-0.123,0.215-0.211,0.479-0.265,0.793c-0.054,0.314-0.084,0.632-0.092,0.955c-0.008,0.322-0.012,0.583-0.012,0.782
			c0,0.506,0,0.958,0,1.357c0,0.399,0.031,0.744,0.092,1.035c0.061,0.292,0.157,0.51,0.288,0.656
			c0.13,0.146,0.325,0.218,0.586,0.218c0.23,0,0.406-0.088,0.529-0.265c0.123-0.176,0.21-0.387,0.265-0.632
			c0.054-0.245,0.084-0.498,0.092-0.759S41.809,16.797,41.809,16.644z"/>
		<path fill="#FFFFFF" d="M51.032,21.566c0-1.395-0.004-2.568-0.012-3.519c-0.008-0.951-0.012-1.732-0.012-2.346
			c0-0.613-0.004-1.088-0.012-1.426c-0.008-0.337-0.016-0.59-0.022-0.759c-0.008-0.169-0.027-0.284-0.058-0.345
			c-0.031-0.061-0.069-0.13-0.115-0.207c-0.123-0.214-0.384-0.322-0.782-0.322c-0.337,0-0.556,0.054-0.655,0.161
			c-0.1,0.107-0.157,0.215-0.173,0.322c0,0.031,0,0.257,0,0.678c0,0.422,0.004,0.939,0.012,1.553s0.012,1.273,0.012,1.978
			c0,0.706,0,1.365,0,1.978s0,1.131,0,1.552c0,0.422,0,0.656,0,0.702h-2.806c-0.016-1.579-0.023-3.243-0.023-4.991V5.65h2.76
			c0,0.23,0,0.468,0,0.713c0,0.215,0.004,0.46,0.012,0.736c0.008,0.276,0.012,0.56,0.012,0.851v2.3
			c0.199-0.061,0.371-0.107,0.518-0.138c0.146-0.03,0.313-0.061,0.506-0.092c0.191-0.031,0.387-0.046,0.587-0.046
			c0.843,0,1.506,0.249,1.989,0.747c0.482,0.499,0.777,1.162,0.886,1.99c0.015,0.077,0.026,0.188,0.034,0.333
			c0.008,0.146,0.015,0.376,0.022,0.69c0.008,0.314,0.012,0.748,0.012,1.299c0,0.552,0,1.281,0,2.185v4.347H51.032z"/>
		<path fill="#FFFFFF" d="M62.646,15.724c0,0.644-0.02,1.284-0.058,1.92s-0.138,1.219-0.299,1.748
			c-0.161,0.529-0.406,0.985-0.736,1.368c-0.33,0.384-0.786,0.652-1.368,0.805c-0.123,0.031-0.28,0.054-0.472,0.069
			c-0.192,0.015-0.395,0.023-0.609,0.023s-0.426-0.008-0.633-0.023s-0.372-0.038-0.494-0.069c-0.675-0.168-1.192-0.425-1.553-0.771
			s-0.617-0.755-0.771-1.23c-0.153-0.475-0.241-1-0.265-1.576c-0.022-0.575-0.042-1.185-0.058-1.828
			c-0.016-0.751-0.008-1.495,0.023-2.231c0.03-0.736,0.157-1.399,0.379-1.989c0.223-0.59,0.591-1.065,1.104-1.426
			s1.245-0.541,2.196-0.541c0.767,0,1.388,0.104,1.863,0.31c0.475,0.207,0.843,0.541,1.104,1.001
			c0.261,0.46,0.434,1.054,0.518,1.782C62.604,13.796,62.646,14.681,62.646,15.724z M58.093,13.378c0,1.012-0.009,1.863-0.023,2.553
			c-0.016,0.69-0.004,1.242,0.034,1.656s0.123,0.709,0.253,0.886c0.131,0.176,0.342,0.264,0.633,0.264
			c0.276,0,0.494-0.096,0.655-0.288c0.161-0.191,0.242-0.502,0.242-0.931v-3.657c0-0.521-0.081-0.858-0.242-1.012
			s-0.387-0.23-0.678-0.23c-0.338,0-0.563,0.073-0.679,0.218C58.173,12.983,58.107,13.164,58.093,13.378z"/>
		<path fill="#FFFFFF" d="M71.57,15.724c0,0.644-0.02,1.284-0.058,1.92s-0.138,1.219-0.299,1.748
			c-0.161,0.529-0.406,0.985-0.736,1.368c-0.33,0.384-0.786,0.652-1.368,0.805c-0.123,0.031-0.28,0.054-0.472,0.069
			c-0.192,0.015-0.395,0.023-0.609,0.023s-0.426-0.008-0.633-0.023s-0.372-0.038-0.494-0.069c-0.675-0.168-1.192-0.425-1.553-0.771
			s-0.617-0.755-0.771-1.23c-0.153-0.475-0.241-1-0.265-1.576c-0.022-0.575-0.042-1.185-0.058-1.828
			c-0.016-0.751-0.008-1.495,0.023-2.231c0.03-0.736,0.157-1.399,0.379-1.989c0.223-0.59,0.591-1.065,1.104-1.426
			s1.245-0.541,2.196-0.541c0.767,0,1.388,0.104,1.863,0.31c0.475,0.207,0.843,0.541,1.104,1.001
			c0.261,0.46,0.434,1.054,0.518,1.782C71.527,13.796,71.57,14.681,71.57,15.724z M67.017,13.378c0,1.012-0.009,1.863-0.023,2.553
			c-0.016,0.69-0.004,1.242,0.034,1.656s0.123,0.709,0.253,0.886c0.131,0.176,0.342,0.264,0.633,0.264
			c0.276,0,0.494-0.096,0.655-0.288c0.161-0.191,0.242-0.502,0.242-0.931v-3.657c0-0.521-0.081-0.858-0.242-1.012
			s-0.387-0.23-0.678-0.23c-0.338,0-0.563,0.073-0.679,0.218C67.097,12.983,67.031,13.164,67.017,13.378z"/>
		<path fill="#FFFFFF" d="M76.101,5.673v15.893h-0.62h-2.186V5.673H76.101z"/>
		<path fill="#FFFFFF" d="M83.276,13.539h-0.322c-0.261,0-0.46-0.004-0.598-0.012c-0.138-0.007-0.241-0.026-0.311-0.058
			c-0.069-0.03-0.123-0.076-0.161-0.138c-0.038-0.061-0.08-0.146-0.126-0.253c-0.077-0.169-0.169-0.288-0.276-0.356
			c-0.107-0.069-0.261-0.104-0.46-0.104c-0.245,0-0.452,0.077-0.621,0.23s-0.253,0.375-0.253,0.667c0,0.276,0.062,0.471,0.184,0.586
			c0.123,0.115,0.288,0.192,0.495,0.23c0.207,0.039,0.44,0.062,0.701,0.069c0.261,0.008,0.521,0.05,0.782,0.126
			c0.582,0.138,1.054,0.388,1.414,0.748c0.36,0.36,0.625,0.778,0.794,1.253c0.169,0.476,0.241,0.978,0.219,1.507
			c-0.023,0.529-0.135,1.031-0.334,1.506c-0.199,0.476-0.486,0.894-0.862,1.253c-0.376,0.36-0.832,0.609-1.368,0.748
			c-0.308,0.077-0.69,0.115-1.15,0.115c-0.184,0-0.368-0.008-0.552-0.023c-0.185-0.015-0.354-0.046-0.506-0.092
			c-0.506-0.138-0.936-0.379-1.288-0.725c-0.354-0.345-0.629-0.705-0.828-1.081c-0.199-0.375-0.322-0.725-0.368-1.046
			s-0.023-0.529,0.069-0.621l0.114-0.115c0.659,0.015,1.223,0.023,1.691,0.023c0.467,0,0.724,0.015,0.771,0.046
			c0.106,0.107,0.184,0.234,0.229,0.379c0.046,0.146,0.161,0.272,0.345,0.379c0.107,0.062,0.238,0.092,0.392,0.092
			c0.152,0,0.303-0.042,0.448-0.126c0.146-0.084,0.257-0.211,0.333-0.379c0.077-0.123,0.115-0.276,0.115-0.46
			c0-0.184-0.038-0.329-0.115-0.437c-0.153-0.184-0.349-0.291-0.586-0.322c-0.238-0.031-0.514-0.061-0.828-0.092
			s-0.652-0.104-1.012-0.219c-0.36-0.115-0.732-0.364-1.116-0.748c-0.353-0.353-0.602-0.713-0.747-1.081
			c-0.146-0.368-0.219-0.828-0.219-1.38c0-0.567,0.092-1.084,0.276-1.552c0.184-0.468,0.44-0.866,0.771-1.196
			c0.329-0.33,0.721-0.586,1.173-0.771s0.954-0.276,1.507-0.276c0.874,0,1.621,0.246,2.242,0.736
			c0.621,0.491,1.039,1.166,1.254,2.024c0.122,0.43,0.134,0.694,0.034,0.794s-0.303,0.149-0.609,0.149H83.276z"/>
		<path fill="#FFFFFF" d="M101.19,21.566c-0.437-0.437-0.851-0.874-1.448-1.518c-1.334,1.242-2.828,1.771-4.53,1.771
			c-3.012,0-4.76-2.023-4.76-4.346c0-2.115,1.265-3.564,3.035-4.53v-0.069c-0.805-1.012-1.287-2.139-1.287-3.243
			c0-1.885,1.356-3.817,3.932-3.817c1.932,0,3.427,1.288,3.427,3.288c0,1.633-0.943,2.92-3.403,4.139v0.069
			c1.311,1.518,2.782,3.219,3.771,4.323c0.713-1.081,1.196-2.576,1.495-4.53h1.84c-0.414,2.438-1.081,4.369-2.23,5.726
			c0.827,0.874,1.632,1.748,2.552,2.736H101.19z M98.753,18.898c-0.919-1.012-2.645-2.897-4.369-4.875c-0.827,0.529-2,1.518-2,3.15
			c0,1.771,1.311,3.127,3.173,3.127C96.891,20.301,98.018,19.703,98.753,18.898z M94.039,9.448c0,1.104,0.506,1.955,1.173,2.782
			c1.563-0.897,2.575-1.725,2.575-3.035c0-0.943-0.528-2.001-1.793-2.001C94.706,7.194,94.039,8.252,94.039,9.448z"/>
		<path fill="#FFFFFF" d="M33.058,24.721c0,0.69-0.004,1.445-0.012,2.265c-0.008,0.821-0.016,1.645-0.023,2.473
			c-0.008,0.828-0.012,1.637-0.012,2.427s-0.004,1.506-0.011,2.15c-0.008,0.644-0.016,1.181-0.023,1.61
			c-0.008,0.43-0.012,0.698-0.012,0.805c-0.031,0.813-0.13,1.518-0.299,2.116c-0.169,0.598-0.434,1.093-0.793,1.483
			c-0.36,0.391-0.82,0.683-1.38,0.874c-0.56,0.192-1.246,0.288-2.059,0.288c-0.614,0-1.177-0.061-1.69-0.184
			c-0.514-0.123-0.97-0.325-1.369-0.609c-0.399-0.284-0.729-0.663-0.989-1.139c-0.261-0.475-0.445-1.058-0.552-1.748
			c-0.062-0.368-0.104-0.893-0.126-1.576c-0.023-0.682-0.042-1.548-0.058-2.599c-0.015-1.05-0.023-2.289-0.023-3.714
			c0-1.426,0-3.066,0-4.922h3.312c0,1.687,0.003,3.139,0.012,4.358c0.007,1.219,0.011,2.254,0.011,3.105s0.003,1.545,0.012,2.082
			c0.007,0.537,0.015,0.966,0.023,1.288c0.007,0.322,0.011,0.56,0.011,0.713s0.008,0.276,0.023,0.368
			c0.092,1.073,0.529,1.61,1.311,1.61c0.767,0,1.196-0.537,1.288-1.61c0.015-0.245,0.031-0.475,0.046-0.69
			c0.015-0.214,0.023-0.486,0.023-0.816c0-0.33,0.003-0.748,0.011-1.253s0.012-1.158,0.012-1.955c0-0.797,0-1.782,0-2.956
			c0-1.173,0.007-2.587,0.023-4.243H33.058z"/>
		<path fill="#FFFFFF" d="M39.543,41.166c0-0.123,0-0.387,0-0.793s-0.004-0.893-0.011-1.46c-0.008-0.567-0.016-1.173-0.023-1.817
			c-0.008-0.644-0.016-1.261-0.023-1.852c-0.008-0.59-0.016-1.116-0.023-1.576c-0.008-0.46-0.012-0.782-0.012-0.966
			c0-0.199-0.069-0.379-0.207-0.541s-0.345-0.242-0.621-0.242c-0.199,0-0.387,0.054-0.563,0.161
			c-0.176,0.107-0.28,0.269-0.311,0.483c-0.015,0.153-0.027,0.476-0.034,0.966c-0.008,0.491-0.016,1.112-0.023,1.863
			c-0.008,0.751-0.008,1.618,0,2.599c0.007,0.981,0.011,2.039,0.011,3.174h-2.806c0-0.153-0.004-0.272-0.011-0.356
			c-0.008-0.084-0.012-0.23-0.012-0.437s-0.004-0.518-0.011-0.932c-0.008-0.414-0.012-1.023-0.012-1.829c0-0.805,0-1.847,0-3.128
			c0-1.28,0-2.886,0-4.818h2.553v0.437c0.168-0.184,0.41-0.322,0.724-0.414c0.314-0.092,0.633-0.138,0.955-0.138
			c0.23,0,0.437,0.023,0.621,0.069c0.537,0.107,0.962,0.272,1.276,0.495s0.56,0.468,0.736,0.736
			c0.176,0.269,0.295,0.548,0.356,0.839c0.061,0.292,0.107,0.567,0.138,0.828v8.648H39.543z"/>
		<path fill="#FFFFFF" d="M46.72,29.022h-2.806c0-0.168,0-0.433,0-0.793c0-0.36,0.003-0.728,0.011-1.104
			c0.008-0.375,0.012-0.847,0.012-1.415h1.794h0.989V29.022z M43.96,41.166c0-0.107,0-0.456,0-1.046s-0.004-1.3-0.012-2.127
			c-0.008-0.828-0.012-1.714-0.012-2.657s0-1.817,0-2.622c0-0.805,0.004-1.476,0.012-2.012s0.012-0.813,0.012-0.828
			c0.046-0.077,0.152-0.13,0.321-0.161c0.169-0.03,0.514-0.046,1.035-0.046c0.537,0,0.89,0.016,1.059,0.046
			c0.168,0.031,0.275,0.084,0.321,0.161c0,0.016,0.004,0.184,0.012,0.506c0.008,0.322,0.012,0.744,0.012,1.265
			c0,0.521,0,1.115,0,1.783c0,0.667,0,1.345,0,2.035s0,1.369,0,2.036s0,1.269,0,1.806s0,0.974,0,1.311s0,0.521,0,0.552H43.96z"/>
		<path fill="#FFFFFF" d="M51.435,35.485c0.016-0.061,0.046-0.226,0.092-0.494s0.1-0.59,0.161-0.966
			c0.062-0.375,0.127-0.786,0.195-1.23c0.069-0.444,0.139-0.87,0.207-1.276c0.069-0.406,0.135-0.778,0.196-1.116
			c0.061-0.337,0.106-0.583,0.138-0.736h2.76c-0.016,0.062-0.084,0.379-0.207,0.955c-0.123,0.575-0.269,1.28-0.437,2.116
			c-0.169,0.836-0.356,1.737-0.563,2.703s-0.396,1.867-0.563,2.703c-0.169,0.836-0.314,1.537-0.438,2.104s-0.191,0.874-0.207,0.92
			h-2.76c-0.414-1.917-0.816-3.822-1.208-5.715c-0.391-1.894-0.771-3.822-1.138-5.785h2.76c0.03,0.138,0.068,0.364,0.115,0.679
			c0.046,0.314,0.104,0.675,0.172,1.081c0.069,0.407,0.142,0.836,0.219,1.288c0.076,0.453,0.149,0.871,0.219,1.253
			c0.068,0.384,0.13,0.713,0.184,0.989S51.419,35.409,51.435,35.485z"/>
		<path fill="#FFFFFF" d="M63.257,37.831c-0.016,0.476-0.123,0.92-0.322,1.334s-0.464,0.778-0.793,1.092
			c-0.33,0.314-0.714,0.56-1.15,0.736c-0.438,0.176-0.908,0.264-1.414,0.264c-0.169,0-0.342-0.008-0.518-0.023
			c-0.177-0.015-0.304-0.038-0.38-0.069c-0.644-0.138-1.15-0.379-1.518-0.725c-0.368-0.345-0.645-0.778-0.828-1.299
			c-0.185-0.521-0.299-1.104-0.346-1.748c-0.046-0.644-0.068-1.334-0.068-2.07c0-0.69,0.026-1.38,0.08-2.07s0.203-1.307,0.448-1.852
			c0.245-0.544,0.621-0.985,1.128-1.322c0.506-0.337,1.203-0.506,2.093-0.506c0.95,0,1.683,0.245,2.196,0.736
			s0.878,1.092,1.093,1.806c0.214,0.713,0.321,1.468,0.321,2.265c0,0.798-0.038,1.511-0.114,2.139h-4.509
			c0,0.199,0.004,0.414,0.012,0.644s0.046,0.445,0.115,0.644s0.173,0.36,0.311,0.483c0.138,0.123,0.345,0.184,0.621,0.184
			c0.261,0,0.444-0.092,0.552-0.276c0.107-0.184,0.185-0.383,0.23-0.598c0.03-0.138,0.053-0.242,0.068-0.311
			s0.065-0.119,0.149-0.149s0.207-0.05,0.368-0.058c0.161-0.007,0.402-0.012,0.725-0.012h0.575c0.229,0,0.406,0.008,0.529,0.023
			c0.122,0.015,0.21,0.05,0.264,0.104s0.085,0.13,0.093,0.23C63.275,37.528,63.271,37.663,63.257,37.831z M60.52,34.151
			c0-0.168-0.004-0.36-0.012-0.575s-0.034-0.426-0.08-0.633s-0.131-0.379-0.253-0.518c-0.123-0.138-0.314-0.207-0.575-0.207
			c-0.307,0-0.525,0.104-0.655,0.31c-0.131,0.207-0.219,0.602-0.265,1.185l-0.023,0.437H60.52z"/>
		<path fill="#FFFFFF" d="M71.836,31.069c0,0.062-0.092,0.188-0.276,0.38c-0.184,0.192-0.398,0.395-0.644,0.609
			s-0.476,0.406-0.69,0.575c-0.215,0.169-0.36,0.253-0.437,0.253c-0.153,0-0.307-0.123-0.46-0.368
			c-0.077-0.123-0.177-0.245-0.299-0.368c-0.123-0.123-0.284-0.184-0.483-0.184c-0.43,0-0.659,0.2-0.689,0.598
			c0,0.2-0.005,0.537-0.012,1.012c-0.008,0.475-0.012,1.016-0.012,1.622c0,0.605,0,1.238,0,1.897s0,1.276,0,1.851
			c0,0.575,0,1.066,0,1.472c0,0.407,0,0.656,0,0.748h-2.806c0-0.107,0-0.191,0-0.253c0-0.061-0.004-0.188-0.012-0.379
			s-0.012-0.495-0.012-0.909s0-1.031,0-1.852c0-0.82,0-1.882,0-3.186c0-1.303,0-2.944,0-4.922h2.737v0.621
			c0.261-0.215,0.563-0.387,0.908-0.518c0.345-0.13,0.687-0.195,1.023-0.195c0.185,0,0.36,0.019,0.529,0.057
			c0.168,0.039,0.322,0.104,0.46,0.196c0.122,0.077,0.249,0.172,0.379,0.288c0.131,0.115,0.257,0.23,0.38,0.345
			c0.123,0.115,0.223,0.227,0.299,0.333C71.798,30.9,71.836,30.993,71.836,31.069z"/>
		<path fill="#FFFFFF" d="M78.229,33.139h-0.322c-0.261,0-0.46-0.004-0.598-0.012c-0.138-0.007-0.241-0.026-0.311-0.058
			c-0.069-0.03-0.123-0.076-0.161-0.138c-0.038-0.061-0.08-0.146-0.126-0.253c-0.077-0.169-0.169-0.288-0.276-0.356
			c-0.107-0.069-0.261-0.104-0.46-0.104c-0.245,0-0.452,0.077-0.621,0.23s-0.253,0.375-0.253,0.667c0,0.276,0.062,0.471,0.184,0.586
			c0.123,0.115,0.288,0.192,0.495,0.23c0.207,0.039,0.44,0.062,0.701,0.069c0.261,0.008,0.521,0.05,0.782,0.126
			c0.582,0.138,1.054,0.388,1.414,0.748c0.36,0.36,0.625,0.778,0.794,1.253c0.169,0.476,0.241,0.978,0.219,1.507
			c-0.023,0.529-0.135,1.031-0.334,1.506c-0.199,0.476-0.486,0.894-0.862,1.253c-0.376,0.36-0.832,0.609-1.368,0.748
			c-0.308,0.077-0.69,0.115-1.15,0.115c-0.184,0-0.368-0.008-0.552-0.023c-0.185-0.015-0.354-0.046-0.506-0.092
			c-0.506-0.138-0.936-0.379-1.288-0.725c-0.354-0.345-0.629-0.705-0.828-1.081c-0.199-0.375-0.322-0.725-0.368-1.046
			s-0.023-0.529,0.069-0.621l0.114-0.115c0.659,0.015,1.223,0.023,1.691,0.023c0.467,0,0.724,0.015,0.771,0.046
			c0.106,0.107,0.184,0.234,0.229,0.379c0.046,0.146,0.161,0.272,0.345,0.379c0.107,0.062,0.238,0.092,0.392,0.092
			c0.152,0,0.303-0.042,0.448-0.126c0.146-0.084,0.257-0.211,0.333-0.379c0.077-0.123,0.115-0.276,0.115-0.46
			c0-0.184-0.038-0.329-0.115-0.437c-0.153-0.184-0.349-0.291-0.586-0.322c-0.238-0.031-0.514-0.061-0.828-0.092
			s-0.652-0.104-1.012-0.219c-0.36-0.115-0.732-0.364-1.116-0.748c-0.353-0.353-0.602-0.713-0.747-1.081
			c-0.146-0.368-0.219-0.828-0.219-1.38c0-0.567,0.092-1.084,0.276-1.552c0.184-0.468,0.44-0.866,0.771-1.196
			c0.329-0.33,0.721-0.586,1.173-0.771s0.954-0.276,1.507-0.276c0.874,0,1.621,0.246,2.242,0.736
			c0.621,0.491,1.039,1.166,1.254,2.024c0.122,0.43,0.134,0.694,0.034,0.794s-0.303,0.149-0.609,0.149H78.229z"/>
		<path fill="#FFFFFF" d="M83.796,29.022H80.99c0-0.168,0-0.433,0-0.793c0-0.36,0.003-0.728,0.011-1.104
			c0.008-0.375,0.012-0.847,0.012-1.415h1.794h0.989V29.022z M81.036,41.166c0-0.107,0-0.456,0-1.046s-0.004-1.3-0.012-2.127
			c-0.008-0.828-0.012-1.714-0.012-2.657s0-1.817,0-2.622c0-0.805,0.004-1.476,0.012-2.012s0.012-0.813,0.012-0.828
			c0.046-0.077,0.152-0.13,0.321-0.161c0.169-0.03,0.514-0.046,1.035-0.046c0.537,0,0.89,0.016,1.059,0.046
			c0.168,0.031,0.275,0.084,0.321,0.161c0,0.016,0.004,0.184,0.012,0.506c0.008,0.322,0.012,0.744,0.012,1.265
			c0,0.521,0,1.115,0,1.783c0,0.667,0,1.345,0,2.035s0,1.369,0,2.036s0,1.269,0,1.806s0,0.974,0,1.311s0,0.521,0,0.552H81.036z"/>
		<path fill="#FFFFFF" d="M89.27,29.689c0.23,0,0.402,0.004,0.518,0.012s0.195,0.054,0.242,0.138
			c0.046,0.084,0.068,0.219,0.068,0.403c0,0.184,0,0.46,0,0.828v1.127c-0.016,0.108-0.058,0.177-0.126,0.207
			c-0.069,0.031-0.257,0.046-0.563,0.046h-0.76c0,1.38,0,2.453,0,3.22c0,0.767,0.004,1.342,0.012,1.725s0.023,0.629,0.046,0.736
			c0.023,0.107,0.058,0.184,0.104,0.23c0.046,0.077,0.199,0.115,0.46,0.115h0.115c0.076-0.015,0.146-0.023,0.207-0.023
			s0.115,0,0.161,0c0.184,0,0.287,0.081,0.311,0.241c0.022,0.161,0.034,0.525,0.034,1.093c0,0.353-0.004,0.625-0.012,0.816
			c-0.008,0.192-0.026,0.326-0.057,0.402c-0.031,0.077-0.089,0.123-0.173,0.138c-0.085,0.016-0.203,0.023-0.356,0.023
			c-0.292,0-0.599-0.007-0.92-0.023c-0.322-0.015-0.633-0.065-0.932-0.149s-0.575-0.215-0.828-0.391s-0.464-0.433-0.633-0.771
			c-0.229-0.46-0.341-1.334-0.333-2.622s0.019-2.875,0.034-4.761h-0.229h-0.139c-0.169,0-0.295-0.012-0.379-0.035
			c-0.085-0.023-0.146-0.081-0.185-0.172c-0.038-0.092-0.062-0.242-0.068-0.449c-0.008-0.207-0.012-0.495-0.012-0.862
			c0-0.337,0.004-0.59,0.012-0.759c0.007-0.168,0.042-0.288,0.104-0.356c0.061-0.069,0.16-0.107,0.299-0.115
			c0.138-0.008,0.337-0.019,0.598-0.035c0-0.398-0.004-0.728-0.012-0.989s-0.008-0.468,0-0.621s0.031-0.257,0.069-0.311
			s0.096-0.081,0.173-0.081h1.195h0.599c0.214,0,0.371,0.008,0.472,0.023c0.099,0.016,0.168,0.062,0.207,0.138
			c0.038,0.077,0.057,0.188,0.057,0.333c0,0.146,0,0.349,0,0.609v0.897L89.27,29.689z"/>
		<path fill="#FFFFFF" d="M94.076,29.022h-2.806c0-0.168,0-0.433,0-0.793c0-0.36,0.003-0.728,0.011-1.104
			c0.008-0.375,0.012-0.847,0.012-1.415h1.794h0.989V29.022z M91.316,41.166c0-0.107,0-0.456,0-1.046s-0.004-1.3-0.012-2.127
			c-0.008-0.828-0.012-1.714-0.012-2.657s0-1.817,0-2.622c0-0.805,0.004-1.476,0.012-2.012s0.012-0.813,0.012-0.828
			c0.046-0.077,0.152-0.13,0.321-0.161c0.169-0.03,0.514-0.046,1.035-0.046c0.537,0,0.89,0.016,1.059,0.046
			c0.168,0.031,0.275,0.084,0.321,0.161c0,0.016,0.004,0.184,0.012,0.506c0.008,0.322,0.012,0.744,0.012,1.265
			c0,0.521,0,1.115,0,1.783c0,0.667,0,1.345,0,2.035s0,1.369,0,2.036s0,1.269,0,1.806s0,0.974,0,1.311s0,0.521,0,0.552H91.316z"/>
		<path fill="#FFFFFF" d="M103.115,37.831c-0.016,0.476-0.123,0.92-0.322,1.334s-0.464,0.778-0.793,1.092
			c-0.33,0.314-0.714,0.56-1.15,0.736c-0.438,0.176-0.908,0.264-1.414,0.264c-0.169,0-0.342-0.008-0.518-0.023
			c-0.177-0.015-0.304-0.038-0.38-0.069c-0.644-0.138-1.15-0.379-1.518-0.725c-0.368-0.345-0.645-0.778-0.828-1.299
			c-0.185-0.521-0.299-1.104-0.346-1.748c-0.046-0.644-0.068-1.334-0.068-2.07c0-0.69,0.026-1.38,0.08-2.07s0.203-1.307,0.448-1.852
			c0.245-0.544,0.621-0.985,1.128-1.322c0.506-0.337,1.203-0.506,2.093-0.506c0.95,0,1.683,0.245,2.196,0.736
			s0.878,1.092,1.093,1.806c0.214,0.713,0.321,1.468,0.321,2.265c0,0.798-0.038,1.511-0.114,2.139h-4.509
			c0,0.199,0.004,0.414,0.012,0.644s0.046,0.445,0.115,0.644s0.173,0.36,0.311,0.483c0.138,0.123,0.345,0.184,0.621,0.184
			c0.261,0,0.444-0.092,0.552-0.276c0.107-0.184,0.185-0.383,0.23-0.598c0.03-0.138,0.053-0.242,0.068-0.311
			s0.065-0.119,0.149-0.149s0.207-0.05,0.368-0.058c0.161-0.007,0.402-0.012,0.725-0.012h0.575c0.229,0,0.406,0.008,0.529,0.023
			c0.122,0.015,0.21,0.05,0.264,0.104s0.085,0.13,0.093,0.23C103.134,37.528,103.13,37.663,103.115,37.831z M100.378,34.151
			c0-0.168-0.004-0.36-0.012-0.575s-0.034-0.426-0.08-0.633s-0.131-0.379-0.253-0.518c-0.123-0.138-0.314-0.207-0.575-0.207
			c-0.307,0-0.525,0.104-0.655,0.31c-0.131,0.207-0.219,0.602-0.265,1.185l-0.023,0.437H100.378z"/>
		<path fill="#FFFFFF" d="M110.199,33.139h-0.322c-0.261,0-0.46-0.004-0.598-0.012c-0.138-0.007-0.241-0.026-0.311-0.058
			c-0.069-0.03-0.123-0.076-0.161-0.138c-0.038-0.061-0.08-0.146-0.126-0.253c-0.077-0.169-0.169-0.288-0.276-0.356
			c-0.107-0.069-0.261-0.104-0.46-0.104c-0.245,0-0.452,0.077-0.621,0.23s-0.253,0.375-0.253,0.667c0,0.276,0.062,0.471,0.184,0.586
			c0.123,0.115,0.288,0.192,0.495,0.23c0.207,0.039,0.44,0.062,0.701,0.069c0.261,0.008,0.521,0.05,0.782,0.126
			c0.582,0.138,1.054,0.388,1.414,0.748c0.36,0.36,0.625,0.778,0.794,1.253c0.169,0.476,0.241,0.978,0.219,1.507
			c-0.023,0.529-0.135,1.031-0.334,1.506c-0.199,0.476-0.486,0.894-0.862,1.253c-0.376,0.36-0.832,0.609-1.368,0.748
			c-0.308,0.077-0.69,0.115-1.15,0.115c-0.184,0-0.368-0.008-0.552-0.023c-0.185-0.015-0.354-0.046-0.506-0.092
			c-0.506-0.138-0.936-0.379-1.288-0.725c-0.354-0.345-0.629-0.705-0.828-1.081c-0.199-0.375-0.322-0.725-0.368-1.046
			s-0.023-0.529,0.069-0.621l0.114-0.115c0.659,0.015,1.223,0.023,1.691,0.023c0.467,0,0.724,0.015,0.771,0.046
			c0.106,0.107,0.184,0.234,0.229,0.379c0.046,0.146,0.161,0.272,0.345,0.379c0.107,0.062,0.238,0.092,0.392,0.092
			c0.152,0,0.303-0.042,0.448-0.126c0.146-0.084,0.257-0.211,0.333-0.379c0.077-0.123,0.115-0.276,0.115-0.46
			c0-0.184-0.038-0.329-0.115-0.437c-0.153-0.184-0.349-0.291-0.586-0.322c-0.238-0.031-0.514-0.061-0.828-0.092
			s-0.652-0.104-1.012-0.219c-0.36-0.115-0.732-0.364-1.116-0.748c-0.353-0.353-0.602-0.713-0.747-1.081
			c-0.146-0.368-0.219-0.828-0.219-1.38c0-0.567,0.092-1.084,0.276-1.552c0.184-0.468,0.44-0.866,0.771-1.196
			c0.329-0.33,0.721-0.586,1.173-0.771s0.954-0.276,1.507-0.276c0.874,0,1.621,0.246,2.242,0.736
			c0.621,0.491,1.039,1.166,1.254,2.024c0.122,0.43,0.134,0.694,0.034,0.794s-0.303,0.149-0.609,0.149H110.199z"/>
	</g>
</g>
<polyline fill-rule="evenodd" clip-rule="evenodd" fill="#FFFFFF" points="1,46.793 1,152.792 133,152.792 133,46.793 "/>
<polyline fill="none" stroke="#010101" stroke-width="2" stroke-miterlimit="10" points="1,46.793 1,152.792 133,152.792 
	133,46.793 "/>
<path fill-rule="evenodd" clip-rule="evenodd" fill="#010101" d="M21.237,141.018v-3.527c0.462,0.034,0.661-0.288,0.922-0.582
	c0.184-0.207,0.518-0.316,0.804-0.388c0.271-0.068,0.568-0.021,0.853-0.043c0.363-0.029,0.584-0.234,0.607-0.601
	c0.022-0.354,0.009-0.712,0.009-1.069c0.003-9.991,0.004-19.982,0.004-29.978c0-0.412-0.052-0.827-0.033-1.238
	c0.031-0.71,0.346-0.916,1.043-0.785c0.332,0.063,0.679,0.062,1.02,0.063c6.566,0.006,13.132,0.015,19.698,0.002
	c0.531,0,1.063-0.152,1.593-0.239c0.111-0.018,0.22-0.089,0.329-0.089c0.983,0.004,1.763-0.506,2.525-1.027
	c0.396-0.271,0.759-0.603,1.096-0.948c1.153-1.183,2.271-2.401,3.436-3.573c1.145-1.153,2.336-2.258,3.494-3.398
	c0.609-0.6,1.183-1.234,1.787-1.84c0.957-0.956,1.938-1.89,2.89-2.852c1.024-1.034,2.038-2.077,3.036-3.133
	c0.712-0.756,1.102-0.738,1.773,0.034c0.54,0.624,1.14,1.197,1.722,1.784c1.855,1.873,3.714,3.743,5.573,5.612
	c2.221,2.234,4.459,4.451,6.657,6.705c0.802,0.819,1.637,1.585,2.604,2.198c0.211,0.134,0.456,0.227,0.699,0.29
	c0.274,0.068,0.588,0.023,0.841,0.133c1.068,0.456,2.186,0.341,3.294,0.341c5.882,0.002,11.763,0.003,17.645-0.002
	c0.639-0.001,1.279-0.046,1.918-0.085c0.52-0.032,0.805,0.167,0.83,0.687c0.027,0.538-0.015,1.081-0.015,1.623
	c-0.001,9.85,0,19.698-0.001,29.548c0,0.344-0.025,0.688-0.011,1.027c0.024,0.528,0.232,0.74,0.756,0.81
	c0.127,0.018,0.26,0.038,0.384,0.02c0.666-0.099,1.143,0.179,1.556,0.684c0.271,0.331,0.404,0.671,0.401,1.092
	c-0.006,0.67,0.006,1.341,0.014,2.012c0.014,1.068-0.664,1.785-1.692,1.785c-4.939-0.003-9.879-0.009-14.818-0.009
	c-10.147-0.002-20.297,0-30.446-0.001c-9.05-0.001-18.1-0.007-27.149-0.007c-5.267,0-10.534,0.005-15.802,0.017
	c-0.491,0-0.879-0.134-1.182-0.551C21.763,141.331,21.517,141.223,21.237,141.018 M68.288,100.689h0.077
	c0,1.085,0.005,2.169-0.001,3.253c-0.004,0.862-0.446,1.332-1.304,1.356c-0.84,0.025-1.683-0.011-2.521,0.036
	c-1.212,0.071-1.514-0.182-1.54-1.4c-0.015-0.712,0.377-1.126,1.097-1.129c0.298-0.001,0.596,0.064,0.895,0.069
	c0.633,0.012,0.949-0.272,1.026-0.9c0.019-0.142,0.026-0.283,0.027-0.428c0.008-1.368,0.011-2.738,0.021-4.107
	c0.006-0.763-0.268-0.979-1.016-0.942c-0.898,0.042-1.525,0.628-2.199,1.067c-1.678,1.092-2.669,2.773-3.135,4.637
	c-0.4,1.6-0.482,3.315,0.45,4.864c0.073,0.119,0.117,0.26,0.158,0.395c0.247,0.814,0.778,1.459,1.327,2.065
	c0.89,0.983,1.977,1.682,3.239,2.15c1.15,0.427,2.303,0.56,3.484,0.329c0.594-0.115,1.192-0.325,1.726-0.61
	c0.745-0.399,1.479-0.852,2.133-1.384c0.882-0.717,1.478-1.666,1.979-2.696c0.537-1.104,0.761-2.255,0.702-3.437
	c-0.065-1.321-0.265-2.644-1.057-3.78c-0.512-0.732-0.938-1.537-1.721-2.049c-0.51-0.333-1.038-0.655-1.49-1.061
	c-0.46-0.412-0.968-0.518-1.539-0.475c-0.584,0.044-0.817,0.305-0.819,0.88C68.287,98.493,68.288,99.589,68.288,100.689
	 M62.436,130.598h-0.008c0,1.584,0.014,3.168-0.006,4.751c-0.011,0.866,0.206,1.146,1.083,1.15c2.482,0.013,4.965,0.014,7.447,0.004
	c0.826-0.003,1.083-0.356,1.073-1.184c-0.033-2.968-0.016-5.935-0.056-8.9c-0.021-1.443-0.233-2.832-1.2-4.025
	c-0.944-1.168-2.139-1.737-3.604-1.677c-0.656,0.027-1.374,0.125-1.941,0.424c-1.881,0.99-2.771,2.636-2.787,4.75
	C62.427,127.459,62.436,129.03,62.436,130.598 M86.851,114.814h-0.008v-1.069c0-0.372,0.011-0.743-0.002-1.113
	c-0.034-0.91-0.438-1.291-1.339-1.285c-1.227,0.005-2.452,0.009-3.678,0.006c-1.204-0.002-1.642,0.442-1.638,1.66
	c0.006,1.254,0.005,2.51-0.001,3.764c-0.002,1.057,0.34,1.433,1.391,1.445c1.34,0.018,2.681,0.017,4.021,0.006
	c0.852-0.008,1.246-0.423,1.253-1.275C86.854,116.239,86.851,115.526,86.851,114.814 M101.613,114.769h-0.03
	c0-0.799,0.025-1.6-0.008-2.396c-0.028-0.671-0.333-1.003-0.927-1.01c-1.427-0.023-2.854-0.033-4.279,0.002
	c-0.884,0.02-1.294,0.396-1.312,1.201c-0.033,1.522-0.033,3.05-0.006,4.575c0.014,0.755,0.301,1.001,1.058,1.062
	c0.198,0.016,0.399,0.013,0.599,0.013c1.155,0.004,2.312-0.021,3.466,0.018c1.01,0.033,1.429-0.316,1.439-1.325
	C101.619,116.196,101.613,115.482,101.613,114.769 M86.844,127.134h0.006c0-0.713,0.007-1.427-0.002-2.14
	c-0.01-0.854-0.377-1.249-1.216-1.257c-1.397-0.016-2.796-0.014-4.194,0.007c-0.857,0.011-1.241,0.417-1.246,1.284
	c-0.009,1.353-0.009,2.708-0.001,4.061c0.006,1.024,0.446,1.459,1.465,1.462c1.282,0.006,2.567,0.006,3.852,0.008
	c0.922,0.001,1.32-0.39,1.335-1.327C86.853,128.534,86.844,127.833,86.844,127.134 M101.613,127.109h-0.004
	c0-0.742,0.021-1.485-0.006-2.226c-0.03-0.866-0.474-1.231-1.329-1.163c-0.185,0.017-0.37,0.017-0.556,0.018
	c-1.127,0.002-2.254-0.016-3.38,0.007c-0.913,0.018-1.304,0.393-1.312,1.273c-0.014,1.412-0.008,2.824,0.019,4.234
	c0.016,0.907,0.349,1.228,1.243,1.287c0.156,0.011,0.313,0.011,0.47,0.013c1.227,0.011,2.452,0.019,3.677,0.03
	c0.543,0.005,0.91-0.228,1.059-0.751c0.081-0.283,0.106-0.587,0.114-0.884C101.625,128.334,101.613,127.721,101.613,127.109
	 M32.847,114.829h0.011v0.557c-0.002,0.613-0.029,1.229-0.002,1.84c0.037,0.813,0.379,1.083,1.189,1.012
	c0.198-0.019,0.399-0.019,0.599-0.019c1.213-0.003,2.427,0.01,3.64-0.012c0.746-0.013,1.034-0.27,1.048-1.003
	c0.027-1.569,0.029-3.14-0.006-4.709c-0.018-0.817-0.283-1.041-1.098-1.125c-0.113-0.01-0.228-0.01-0.342-0.01
	c-1.256-0.002-2.512,0.004-3.768-0.009c-0.989-0.011-1.242,0.208-1.269,1.209C32.831,113.316,32.847,114.073,32.847,114.829
	 M47.663,114.809L47.663,114.809c0.002,0.783-0.014,1.569,0.006,2.354c0.018,0.746,0.385,1.101,1.078,1.095
	c1.354-0.013,2.709-0.024,4.063-0.041c1.119-0.012,1.408-0.314,1.403-1.442c-0.005-1.256-0.007-2.511,0-3.767
	c0.008-1.307-0.327-1.65-1.637-1.65c-1.211-0.001-2.422,0.003-3.633-0.006c-0.946-0.006-1.254,0.272-1.277,1.232
	C47.648,113.326,47.663,114.068,47.663,114.809 M39.348,127.056h0.012c0-0.77,0.011-1.541-0.004-2.312
	c-0.013-0.661-0.315-0.96-0.971-1c-0.171-0.01-0.343-0.007-0.514-0.007c-1.229,0-2.459,0.058-3.684-0.019
	c-1.244-0.078-1.339,0.424-1.343,1.287c-0.003,0.798,0.002,1.599,0.012,2.396c0.01,0.77-0.004,1.543,0.055,2.309
	c0.043,0.552,0.32,0.808,0.868,0.816c1.583,0.021,3.168,0.01,4.752,0.002c0.394-0.002,0.64-0.236,0.72-0.612
	c0.056-0.263,0.087-0.536,0.092-0.804C39.355,128.427,39.348,127.743,39.348,127.056 M54.207,127.098L54.207,127.098
	c0.001-0.542,0.001-1.085,0.002-1.626c0-0.069,0.006-0.142,0.01-0.214c0.08-1.167-0.224-1.501-1.383-1.521
	c-0.114-0.001-0.229,0.001-0.342,0c-1.254-0.014-2.507-0.025-3.76-0.041c-0.661-0.01-1.05,0.319-1.061,1.013
	c-0.022,1.539-0.027,3.079,0.004,4.618c0.017,0.86,0.362,1.197,1.215,1.211c1.354,0.025,2.708,0.023,4.062-0.004
	c0.916-0.019,1.221-0.339,1.248-1.256C54.224,128.552,54.207,127.826,54.207,127.098"/>
<path fill-rule="evenodd" clip-rule="evenodd" fill="#010101" d="M21.231,98.539v-1.149c0.474,0.009,0.66-0.313,0.869-0.674
	c0.282-0.49,0.642-0.938,0.979-1.396c0.871-1.182,1.743-2.362,2.624-3.537c1.306-1.741,2.628-3.471,3.925-5.218
	c0.951-1.279,1.854-2.593,2.813-3.865c0.639-0.846,1.419-1.381,2.592-1.371c6.094,0.045,12.191,0.023,18.287,0.039
	c0.666,0.001,1.147-0.244,1.607-0.722c1.156-1.201,2.372-2.347,3.552-3.527c1.188-1.189,2.361-2.398,3.55-3.589
	c0.927-0.928,1.867-1.843,2.8-2.763c0.305-0.302,0.635-0.584,0.891-0.923c0.161-0.212,0.286-0.513,0.287-0.774
	c0.016-4.396,0.01-8.794,0.009-13.191c0-0.382-0.048-0.772,0.005-1.147c0.084-0.601,0.408-0.903,1.01-0.997
	c0.785-0.122,1.471,0.003,2.163,0.51c1.141,0.834,2.434,1.202,3.902,1.021c1.144-0.142,2.175-0.592,3.192-1.017
	c1.701-0.708,3.349-0.667,5.04-0.126c0.419,0.135,0.822,0.321,1.23,0.49c0.392,0.162,0.622,0.454,0.636,0.882
	c0.014,0.426,0.001,0.853,0.001,1.279c0,2.184-0.004,4.369,0.003,6.553c0.001,0.341,0.073,0.681,0.074,1.021
	c0.001,0.599-0.332,0.795-0.871,0.526c-0.416-0.207-0.806-0.502-1.244-0.624c-1.387-0.386-2.796-0.293-4.198-0.064
	c-0.233,0.039-0.452,0.163-0.677,0.251c-0.355,0.142-0.705,0.303-1.066,0.428c-0.59,0.204-1.176,0.447-1.784,0.565
	c-1.389,0.265-2.683-0.047-3.88-0.786c-0.301-0.185-0.612-0.469-0.972-0.265c-0.375,0.214-0.291,0.644-0.287,1.01
	c0.017,1.154,0.083,2.311,0.042,3.463c-0.026,0.778,0.472,1.205,0.921,1.657c1.52,1.526,3.071,3.019,4.606,4.529
	c1.626,1.602,3.248,3.208,4.87,4.813c0.345,0.34,0.693,0.678,1.024,1.032c0.337,0.359,0.741,0.486,1.227,0.484
	c2.912-0.015,5.824-0.014,8.737-0.017c3.282-0.004,6.566,0.008,9.85-0.021c1.01-0.008,1.702,0.479,2.271,1.22
	c1.016,1.319,2.02,2.648,3.021,3.98c0.299,0.398,0.563,0.821,0.858,1.222c1.154,1.572,2.315,3.142,3.473,4.713
	c1.021,1.386,2.038,2.773,3.062,4.157c0.127,0.171,0.282,0.322,0.421,0.483c0.654,0.763,0.299,1.841-0.691,1.988
	c-0.513,0.075-1.044,0.015-1.567,0.015c-7.096,0.001-14.191,0.003-21.286,0.004c-0.329,0-0.669,0.052-0.982-0.016
	c-0.348-0.075-0.753-0.178-0.993-0.412c-1.858-1.813-3.679-3.665-5.519-5.497c-1.041-1.037-2.104-2.051-3.141-3.091
	c-1.479-1.487-2.938-2.994-4.417-4.481c-1.81-1.814-3.629-3.619-5.447-5.427c-0.343-0.34-0.694-0.673-1.045-1.006
	c-0.315-0.301-0.595-0.235-0.886,0.06c-1.021,1.035-2.053,2.059-3.079,3.088c-2.052,2.061-4.107,4.118-6.151,6.187
	c-0.682,0.688-1.323,1.418-2.007,2.103c-0.866,0.868-1.767,1.699-2.633,2.567c-1.229,1.232-2.429,2.493-3.662,3.722
	c-0.635,0.635-1.271,1.28-1.987,1.815c-0.344,0.256-0.871,0.372-1.316,0.374c-5.311,0.023-10.621,0.014-15.932,0.012
	c-2.17,0-4.341-0.019-6.511,0.015c-0.617,0.012-1.186,0.021-1.678-0.425C21.634,98.598,21.432,98.598,21.231,98.539"/>
</svg>
