<?xml version="1.0" encoding="utf-8"?>
<!-- Generator: Adobe Illustrator 16.0.0, SVG Export Plug-In . SVG Version: 6.00 Build 0)  -->
<!DOCTYPE svg PUBLIC "-//W3C//DTD SVG 1.1//EN" "http://www.w3.org/Graphics/SVG/1.1/DTD/svg11.dtd">
<svg version="1.1" id="Layer_1" xmlns="http://www.w3.org/2000/svg" xmlns:xlink="http://www.w3.org/1999/xlink" x="0px" y="0px"
	 width="157px" height="179px" viewBox="0 0 157 179" enable-background="new 0 0 157 179" xml:space="preserve">
<rect x="2" y="1.52" fill-rule="evenodd" clip-rule="evenodd" fill="#FFFFFF" stroke="#627D53" stroke-width="2" stroke-miterlimit="10" width="155" height="177"/>
<rect x="2" y="-0.48" fill-rule="evenodd" clip-rule="evenodd" fill="#627D53" width="155" height="56"/>
<g>
	<path fill="#FFFFFF" d="M34.027,20.22L31.5,12.582h2.223l1.425,4.883h0.038l1.425-4.883h2.033l-2.527,7.638v5.662h-2.09V20.22z"/>
	<path fill="#FFFFFF" d="M39.917,25.197c-0.544-0.582-0.817-1.405-0.817-2.469v-6.992c0-1.064,0.272-1.888,0.817-2.471
		c0.544-0.582,1.33-0.874,2.356-0.874c1.026,0,1.812,0.292,2.356,0.874c0.545,0.583,0.817,1.406,0.817,2.471v6.992
		c0,1.063-0.272,1.887-0.817,2.469c-0.544,0.584-1.33,0.875-2.356,0.875C41.247,26.072,40.461,25.781,39.917,25.197z M43.355,22.861
		v-7.258c0-0.875-0.361-1.312-1.083-1.312c-0.722,0-1.083,0.437-1.083,1.312v7.258c0,0.873,0.361,1.311,1.083,1.311
		C42.995,24.172,43.355,23.734,43.355,22.861z"/>
	<path fill="#FFFFFF" d="M47.574,25.207c-0.532-0.576-0.798-1.402-0.798-2.479V12.582h2.09V22.88c0,0.456,0.092,0.786,0.275,0.987
		c0.184,0.203,0.447,0.305,0.789,0.305c0.342,0,0.605-0.102,0.789-0.305c0.184-0.201,0.275-0.531,0.275-0.987V12.582h2.014v10.146
		c0,1.076-0.266,1.902-0.798,2.479c-0.532,0.576-1.305,0.865-2.318,0.865S48.106,25.783,47.574,25.207z"/>
	<path fill="#FFFFFF" d="M56.124,14.482h-2.185v-1.9h6.46v1.9h-2.185v11.399h-2.09V14.482z"/>
	<path fill="#FFFFFF" d="M61.405,12.582h2.09v5.415h2.242v-5.415h2.09v13.3h-2.09v-5.985h-2.242v5.985h-2.09V12.582z"/>
	<path fill="#FFFFFF" d="M72.425,12.582h5.529v1.9h-3.439v3.705h2.698v1.899h-2.698v5.795h-2.09V12.582z"/>
	<path fill="#FFFFFF" d="M79.625,25.197c-0.544-0.582-0.817-1.405-0.817-2.469v-6.992c0-1.064,0.272-1.888,0.817-2.471
		c0.544-0.582,1.33-0.874,2.356-0.874c1.026,0,1.812,0.292,2.356,0.874c0.545,0.583,0.817,1.406,0.817,2.471v6.992
		c0,1.063-0.272,1.887-0.817,2.469c-0.544,0.584-1.33,0.875-2.356,0.875C80.956,26.072,80.17,25.781,79.625,25.197z M83.064,22.861
		v-7.258c0-0.875-0.361-1.312-1.083-1.312c-0.722,0-1.083,0.437-1.083,1.312v7.258c0,0.873,0.361,1.311,1.083,1.311
		C82.704,24.172,83.064,23.734,83.064,22.861z"/>
	<path fill="#FFFFFF" d="M87.226,25.197c-0.544-0.582-0.817-1.405-0.817-2.469v-6.992c0-1.064,0.272-1.888,0.817-2.471
		c0.544-0.582,1.33-0.874,2.356-0.874c1.026,0,1.812,0.292,2.356,0.874c0.545,0.583,0.817,1.406,0.817,2.471v6.992
		c0,1.063-0.272,1.887-0.817,2.469c-0.544,0.584-1.33,0.875-2.356,0.875C88.556,26.072,87.77,25.781,87.226,25.197z M90.665,22.861
		v-7.258c0-0.875-0.361-1.312-1.083-1.312c-0.722,0-1.083,0.437-1.083,1.312v7.258c0,0.873,0.361,1.311,1.083,1.311
		C90.304,24.172,90.665,23.734,90.665,22.861z"/>
	<path fill="#FFFFFF" d="M95.719,14.482h-2.185v-1.9h6.46v1.9h-2.185v11.399h-2.09V14.482z"/>
	<path fill="#FFFFFF" d="M101,12.582h3.154c1.076,0,1.862,0.25,2.356,0.75c0.494,0.501,0.741,1.271,0.741,2.309v0.532
		c0,0.685-0.111,1.241-0.333,1.672s-0.56,0.741-1.016,0.931v0.039c1.038,0.354,1.558,1.279,1.558,2.773v1.141
		c0,1.025-0.269,1.808-0.807,2.346c-0.539,0.539-1.327,0.808-2.366,0.808H101V12.582z M103.908,17.997
		c0.418,0,0.731-0.108,0.94-0.323s0.313-0.576,0.313-1.083V15.85c0-0.48-0.085-0.829-0.256-1.045
		c-0.171-0.215-0.44-0.322-0.808-0.322h-1.007v3.515H103.908z M104.288,23.982c0.367,0,0.64-0.099,0.817-0.295
		s0.266-0.535,0.266-1.017v-1.159c0-0.607-0.104-1.029-0.313-1.264s-0.554-0.352-1.036-0.352h-0.931v4.086H104.288z"/>
	<path fill="#FFFFFF" d="M110.292,12.582h2.831l2.166,13.3h-2.09l-0.38-2.642v0.039h-2.375l-0.38,2.603h-1.938L110.292,12.582z
		 M112.571,21.474l-0.931-6.573h-0.038l-0.912,6.573H112.571z"/>
	<path fill="#FFFFFF" d="M116.295,12.582h2.09v11.4h3.439v1.899h-5.529V12.582z"/>
	<path fill="#FFFFFF" d="M122.831,12.582h2.09v11.4h3.439v1.899h-5.529V12.582z"/>
	<path fill="#FFFFFF" d="M57.216,31.382h2.09v11.399h3.439v1.9h-5.529V31.382z"/>
	<path fill="#FFFFFF" d="M63.751,31.382h5.7v1.899h-3.61v3.516h2.869v1.9h-2.869v4.084h3.61v1.9h-5.7V31.382z"/>
	<path fill="#FFFFFF" d="M72.264,31.382h2.831l2.166,13.3h-2.09l-0.38-2.641v0.037h-2.375l-0.38,2.604h-1.938L72.264,31.382z
		 M74.543,40.273l-0.931-6.574h-0.038l-0.912,6.574H74.543z"/>
	<path fill="#FFFFFF" d="M78.875,44.008c-0.532-0.577-0.798-1.403-0.798-2.48v-6.992c0-1.076,0.266-1.902,0.798-2.479
		c0.532-0.576,1.305-0.865,2.318-0.865c1.013,0,1.786,0.289,2.318,0.865c0.532,0.576,0.798,1.402,0.798,2.479v1.141h-1.976v-1.273
		c0-0.873-0.361-1.311-1.083-1.311c-0.722,0-1.083,0.438-1.083,1.311v7.277c0,0.861,0.361,1.292,1.083,1.292
		c0.722,0,1.083-0.431,1.083-1.292v-2.604h-1.045v-1.899h3.021v4.351c0,1.077-0.266,1.903-0.798,2.48
		c-0.532,0.576-1.305,0.863-2.318,0.863C80.18,44.871,79.407,44.584,78.875,44.008z"/>
	<path fill="#FFFFFF" d="M86.38,44.008c-0.532-0.577-0.798-1.403-0.798-2.48V31.382h2.09V41.68c0,0.456,0.092,0.785,0.275,0.988
		s0.447,0.304,0.789,0.304c0.342,0,0.605-0.101,0.789-0.304S89.8,42.136,89.8,41.68V31.382h2.014v10.146
		c0,1.077-0.266,1.903-0.798,2.48c-0.532,0.576-1.305,0.863-2.318,0.863S86.912,44.584,86.38,44.008z"/>
	<path fill="#FFFFFF" d="M93.295,31.382h5.7v1.899h-3.61v3.516h2.869v1.9h-2.869v4.084h3.61v1.9h-5.7V31.382z"/>
	<path fill="#FFFFFF" d="M100.648,44.008c-0.52-0.577-0.779-1.403-0.779-2.48v-0.76h1.976v0.912c0,0.861,0.361,1.292,1.083,1.292
		c0.354,0,0.624-0.104,0.808-0.313c0.183-0.209,0.275-0.548,0.275-1.017c0-0.558-0.127-1.048-0.38-1.473
		c-0.254-0.424-0.722-0.934-1.406-1.529c-0.861-0.76-1.463-1.446-1.805-2.062c-0.342-0.614-0.513-1.308-0.513-2.08
		c0-1.052,0.266-1.865,0.798-2.441c0.532-0.576,1.305-0.865,2.318-0.865c1,0,1.758,0.289,2.271,0.865
		c0.513,0.576,0.77,1.402,0.77,2.479v0.551h-1.976v-0.684c0-0.455-0.089-0.788-0.266-0.997c-0.178-0.209-0.437-0.313-0.779-0.313
		c-0.697,0-1.045,0.424-1.045,1.273c0,0.48,0.13,0.93,0.39,1.349c0.259,0.418,0.731,0.925,1.416,1.52
		c0.874,0.761,1.476,1.45,1.805,2.071c0.33,0.621,0.494,1.35,0.494,2.186c0,1.089-0.269,1.925-0.808,2.508
		c-0.538,0.582-1.32,0.873-2.346,0.873C101.934,44.871,101.168,44.584,100.648,44.008z"/>
</g>
<g>
	<path fill-rule="evenodd" clip-rule="evenodd" fill="#627D53" d="M43.77,135.656c0-2.249,0-4.497,0-6.746
		c0.213-0.07,0.125-0.255,0.137-0.391c0.174-2.04,0.41-4.075,0.832-6.078c3.074-14.576,10.876-25.918,23.423-33.937
		c6.485-4.145,13.613-6.582,21.259-7.51c0.92-0.112,1.868-0.046,2.761-0.364c2.161,0,4.321,0,6.481,0
		c0.04,0.144,0.159,0.118,0.264,0.124c2.355,0.129,4.688,0.436,6.994,0.929c2.411,0.516,3.93,2.01,4.479,4.392
		c0.434,1.885,0.682,3.809,0.864,5.738c0.052,0.548-0.038,1.127,0.23,1.647c0,2.204,0,4.409,0,6.613
		c-0.231,0.096-0.127,0.303-0.14,0.458c-0.233,2.856-0.641,5.69-1.374,8.46c-3.858,14.575-12.38,25.583-25.492,32.988
		c-6.626,3.742-13.797,5.767-21.4,6.263c-4.646,0.303-9.245-0.032-13.796-0.967c-2.346-0.482-3.868-1.963-4.426-4.295
		c-0.439-1.839-0.675-3.722-0.859-5.608C43.952,136.802,44.033,136.202,43.77,135.656z M58.436,138.45
		c0.823-0.396,1.038-0.365,1.686,0.28c1.889,1.884,3.84,3.71,5.632,5.683c0.967,1.064,1.876,1.417,3.302,1.058
		c2.338-0.59,4.692-1.103,6.888-1.881c-7.327-7.33-14.656-14.663-21.977-21.987c-1.161,2.326-2.198,4.771-3.099,7.275
		c-0.145,0.403-0.004,0.601,0.244,0.847c1.75,1.74,3.495,3.487,5.239,5.235c0.655,0.655,0.692,0.909,0.277,1.743
		c-0.686,0.393-1.225,0.203-1.75-0.352c-0.938-0.992-1.926-1.938-2.89-2.906c-0.633-0.636-1.262-1.276-1.921-1.944
		c-0.079,0.166-0.128,0.241-0.152,0.324c-1.095,3.68-1.813,7.434-2.154,11.258c-0.116,1.3,0.158,1.668,1.417,2.102
		c0.166,0.058,0.338,0.098,0.509,0.134c2.938,0.622,5.914,0.914,8.91,1.01c1.968,0.063,3.932-0.039,5.955-0.357
		c-0.145-0.223-0.367-0.336-0.536-0.503c-1.767-1.755-3.526-3.516-5.284-5.279C58.061,139.516,58.024,139.269,58.436,138.45z
		 M96.029,103.763c0.783-0.423,1.058-0.39,1.687,0.237c1.562,1.556,3.121,3.114,4.676,4.676c1.413,1.418,2.819,2.841,4.283,4.316
		c1.009-2.883,1.714-5.731,2.185-8.643c0.063-0.389-0.171-0.558-0.384-0.771c-5.096-5.097-10.203-10.184-15.273-15.306
		c-0.545-0.551-0.959-0.666-1.688-0.384c-2.325,0.904-4.628,1.849-6.953,3.029c0.238,0.209,0.429,0.357,0.599,0.527
		c2.948,2.944,5.887,5.896,8.844,8.831c0.514,0.51,0.646,1.021,0.256,1.643c-0.776,0.42-1.062,0.386-1.684-0.235
		c-3.15-3.146-6.302-6.291-9.438-9.451c-0.3-0.303-0.509-0.358-0.883-0.126c-1.158,0.722-2.349,1.391-3.512,2.103
		c-0.87,0.532-0.86,0.549-0.203,1.347c0.042,0.051,0.089,0.099,0.123,0.155c0.253,0.431,0.234,0.853-0.107,1.217
		c-0.364,0.389-0.807,0.433-1.256,0.15c-0.183-0.115-0.333-0.287-0.489-0.441c-0.695-0.687-0.694-0.688-1.496-0.102
		c-0.018,0.013-0.035,0.026-0.053,0.04c-0.901,0.66-0.901,0.66-0.147,1.443c0.524,0.544,0.583,1.146,0.152,1.568
		c-0.437,0.43-1.005,0.365-1.564-0.178c-0.957-0.93-0.957-0.93-1.966-0.097c-0.659,0.544-0.658,0.543-0.077,1.132
		c0.154,0.156,0.317,0.31,0.444,0.487c0.31,0.438,0.285,0.882-0.091,1.259c-0.4,0.401-0.863,0.393-1.318,0.081
		c-0.144-0.099-0.261-0.236-0.386-0.36c-0.73-0.723-0.73-0.724-1.488-0.03c-0.834,0.762-0.834,0.762-0.046,1.57
		c0.583,0.599,0.644,1.161,0.173,1.61c-0.454,0.435-0.981,0.368-1.562-0.195c-0.829-0.805-0.829-0.805-1.64,0.035
		c-0.688,0.712-0.687,0.712-0.011,1.391c0.14,0.14,0.287,0.275,0.412,0.429c0.364,0.448,0.349,1.002-0.027,1.372
		c-0.393,0.388-0.913,0.406-1.368,0.021c-0.268-0.228-0.503-0.494-0.756-0.739c-0.124-0.119-0.25-0.292-0.43-0.077
		c-0.396,0.473-0.939,0.896-1.123,1.441c-0.112,0.332,0.557,0.654,0.852,1.001c0.071,0.084,0.158,0.154,0.227,0.24
		c0.353,0.434,0.34,1.016-0.025,1.378c-0.375,0.371-0.938,0.387-1.372,0.009c-0.282-0.245-0.534-0.525-0.801-0.788
		c-0.125-0.121-0.248-0.285-0.42-0.051c-0.365,0.496-0.898,0.948-1.041,1.502c-0.098,0.378,0.586,0.685,0.889,1.052
		c0.056,0.067,0.125,0.125,0.177,0.195c0.33,0.451,0.334,0.903-0.042,1.322c-0.352,0.393-0.927,0.41-1.37,0.05
		c-0.221-0.181-0.426-0.386-0.613-0.602c-0.234-0.269-0.38-0.267-0.587,0.052c-1.094,1.68-2.145,3.385-3.128,5.132
		c-0.19,0.337-0.067,0.496,0.156,0.716c1.13,1.114,2.248,2.24,3.37,3.362c6.312,6.313,12.628,12.619,18.924,18.946
		c0.413,0.415,0.74,0.491,1.25,0.24c1.183-0.585,2.41-1.083,3.578-1.696c10.68-5.609,18.393-13.969,23.177-25.042
		c0.242-0.56,0.152-0.88-0.27-1.297c-3.027-2.988-6.019-6.012-9.041-9.005C95.803,104.932,95.624,104.418,96.029,103.763z
		 M53.522,118.081c1.092-1.913,2.201-3.762,3.438-5.529c0.149-0.213,0.086-0.343-0.076-0.5c-0.333-0.321-0.674-0.638-0.97-0.991
		c-0.373-0.445-0.334-0.998,0.077-1.363c0.421-0.373,0.888-0.371,1.324-0.036c0.278,0.214,0.511,0.484,0.764,0.73
		c0.116,0.113,0.242,0.229,0.38,0.044c0.368-0.493,0.863-0.949,1.039-1.505c0.114-0.359-0.529-0.624-0.795-0.964
		c-0.041-0.052-0.092-0.095-0.134-0.146c-0.364-0.452-0.351-0.989,0.033-1.369c0.389-0.385,0.92-0.405,1.369-0.028
		c0.236,0.197,0.438,0.435,0.665,0.643c0.1,0.092,0.207,0.302,0.37,0.118c0.423-0.478,0.937-0.924,1.185-1.484
		c0.111-0.252-0.509-0.581-0.776-0.895c-0.071-0.084-0.158-0.155-0.226-0.241c-0.354-0.451-0.337-1.008,0.036-1.378
		c0.386-0.383,0.908-0.401,1.372-0.028c0.205,0.166,0.413,0.344,0.564,0.556c0.354,0.493,0.612,0.408,0.995-0.012
		c0.942-1.036,0.965-1.016-0.002-2.057c-0.03-0.032-0.063-0.062-0.092-0.095c-0.408-0.483-0.407-1.026,0.003-1.42
		c0.418-0.4,0.931-0.381,1.426,0.022c0.396,0.321,0.662,1.03,1.162,0.924c0.445-0.095,0.79-0.66,1.179-1.018
		c0.016-0.015,0.031-0.032,0.048-0.045c0.244-0.169,0.224-0.322,0.008-0.517c-0.293-0.266-0.585-0.541-0.833-0.848
		c-0.348-0.432-0.351-0.895,0.028-1.319c0.354-0.396,0.932-0.438,1.369-0.077c0.322,0.266,0.601,0.583,0.904,0.871
		c0.106,0.101,0.228,0.316,0.368,0.213c0.513-0.378,1.107-0.723,1.447-1.229c0.208-0.312-0.438-0.549-0.648-0.859
		c-0.061-0.091-0.156-0.157-0.22-0.245c-0.333-0.455-0.328-0.912,0.069-1.314c0.396-0.401,0.866-0.427,1.312-0.084
		c0.277,0.213,0.538,0.464,0.755,0.738c0.326,0.412,0.625,0.459,1.019,0.087c0.348-0.329,0.998-0.499,1.063-0.913
		c0.063-0.394-0.562-0.661-0.854-1.01c-0.397-0.473-0.423-1.041-0.051-1.432c0.416-0.436,0.959-0.441,1.468,0.016
		c0.344,0.309,0.675,0.636,0.981,0.981c0.224,0.252,0.397,0.237,0.665,0.057c1.333-0.9,2.705-1.739,4.118-2.506
		c0.377-0.205,0.331-0.337,0.062-0.601c-1.119-1.095-2.241-2.187-3.313-3.325c-0.405-0.43-0.732-0.446-1.248-0.227
		c-8.079,3.438-14.82,8.613-20.2,15.548c-2.7,3.48-4.896,7.262-6.569,11.342c-0.103,0.25-0.31,0.494-0.024,0.777
		C50.87,115.436,52.176,116.741,53.522,118.081z M94.83,86.828c4.809,4.808,9.626,9.624,14.394,14.391
		c0.52-3.317,0.265-9.572-0.572-13.748c-0.173-0.863-0.292-1.734-0.861-2.465c-0.253-0.324-0.506-0.473-0.942-0.44
		c-3.082,0.226-6.118,0.726-9.117,1.458C96.715,86.271,95.695,86.508,94.83,86.828z M79.161,85.426
		c1.285,1.285,2.533,2.521,3.764,3.776c0.229,0.233,0.395,0.084,0.581-0.004c0.813-0.387,1.62-0.786,2.434-1.17
		c1.594-0.753,3.24-1.385,4.987-2.057c-0.517-0.493-1.04-0.862-1.393-1.353c-0.9-1.254-1.979-1.483-3.461-1.104
		C83.777,84.104,81.461,84.603,79.161,85.426z M48.574,116.001c-0.996,2.894-1.733,5.751-2.165,8.687
		c-0.023,0.157-0.02,0.294,0.109,0.422c0.865,0.858,1.723,1.723,2.617,2.619c0.946-2.582,1.992-5.021,3.202-7.388
		c0.098-0.191,0.207-0.354-0.018-0.576C51.081,118.543,49.864,117.302,48.574,116.001z M90.606,82.893
		c0.816,0.807,1.513,1.475,2.184,2.168c0.221,0.228,0.415,0.146,0.652,0.079c1.182-0.338,2.365-0.67,3.551-0.991
		c1.634-0.442,3.304-0.727,4.96-1.075C98.232,82.568,94.513,82.468,90.606,82.893z M46.042,127.457
		c-0.424,3.935-0.327,7.637,0.181,11.335c0.505-2.903,1.193-5.759,2.069-8.568c0.063-0.202,0.106-0.358-0.069-0.534
		C47.53,128.994,46.849,128.285,46.042,127.457z"/>
	<path fill-rule="evenodd" clip-rule="evenodd" fill="#FDFDFD" d="M111.494,93.461c-0.268-0.521-0.179-1.1-0.23-1.647
		c-0.182-1.93-0.43-3.854-0.864-5.738c-0.549-2.382-2.067-3.876-4.479-4.392c-2.306-0.493-4.639-0.8-6.994-0.929
		c-0.105-0.006-0.224,0.02-0.264-0.124c4.123,0,8.245,0.007,12.368-0.012c0.395-0.002,0.476,0.079,0.474,0.475
		C111.487,85.216,111.494,89.338,111.494,93.461z"/>
	<path fill-rule="evenodd" clip-rule="evenodd" fill="#9CC184" d="M96.029,103.763c-0.405,0.655-0.226,1.169,0.303,1.692
		c3.022,2.993,6.014,6.017,9.041,9.005c0.422,0.417,0.512,0.737,0.27,1.297c-4.785,11.073-12.498,19.433-23.177,25.042
		c-1.167,0.613-2.395,1.111-3.578,1.696c-0.51,0.251-0.836,0.175-1.25-0.24c-6.296-6.327-12.613-12.634-18.924-18.946
		c-1.122-1.122-2.24-2.248-3.37-3.362c-0.223-0.22-0.346-0.379-0.156-0.716c0.984-1.747,2.034-3.452,3.128-5.132
		c0.208-0.318,0.354-0.32,0.587-0.052c0.188,0.216,0.393,0.421,0.613,0.602c0.442,0.36,1.018,0.343,1.37-0.05
		c0.376-0.419,0.372-0.871,0.042-1.322c-0.052-0.07-0.121-0.128-0.177-0.195c-0.303-0.367-0.986-0.674-0.889-1.052
		c0.143-0.554,0.676-1.006,1.041-1.502c0.172-0.234,0.295-0.07,0.42,0.051c0.268,0.263,0.519,0.543,0.801,0.788
		c0.433,0.378,0.996,0.362,1.372-0.009c0.365-0.362,0.377-0.944,0.025-1.378c-0.069-0.086-0.156-0.156-0.227-0.24
		c-0.295-0.347-0.964-0.669-0.852-1.001c0.183-0.545,0.727-0.969,1.123-1.441c0.181-0.215,0.307-0.042,0.43,0.077
		c0.253,0.245,0.488,0.512,0.756,0.739c0.456,0.386,0.975,0.367,1.368-0.021c0.376-0.37,0.391-0.924,0.027-1.372
		c-0.125-0.153-0.272-0.289-0.412-0.429c-0.676-0.679-0.677-0.679,0.011-1.391c0.812-0.84,0.812-0.84,1.64-0.035
		c0.581,0.563,1.107,0.63,1.562,0.195c0.471-0.449,0.411-1.012-0.173-1.61c-0.788-0.809-0.788-0.809,0.046-1.57
		c0.758-0.693,0.758-0.692,1.488,0.03c0.125,0.124,0.243,0.262,0.386,0.36c0.455,0.312,0.918,0.32,1.318-0.081
		c0.375-0.377,0.4-0.821,0.091-1.259c-0.126-0.178-0.29-0.331-0.444-0.487c-0.581-0.589-0.582-0.588,0.077-1.132
		c1.009-0.833,1.009-0.833,1.966,0.097c0.559,0.543,1.127,0.607,1.564,0.178c0.431-0.423,0.372-1.024-0.152-1.568
		c-0.754-0.783-0.754-0.783,0.147-1.443c0.018-0.014,0.035-0.027,0.053-0.04c0.802-0.586,0.801-0.585,1.496,0.102
		c0.156,0.154,0.306,0.326,0.489,0.441c0.449,0.282,0.892,0.238,1.256-0.15c0.341-0.364,0.36-0.786,0.107-1.217
		c-0.033-0.057-0.081-0.104-0.123-0.155c-0.657-0.798-0.667-0.814,0.203-1.347c1.164-0.712,2.354-1.381,3.512-2.103
		c0.374-0.232,0.583-0.177,0.883,0.126c3.136,3.16,6.288,6.305,9.438,9.451c0.622,0.621,0.908,0.655,1.685,0.235
		C94.85,102.533,95.439,103.148,96.029,103.763z"/>
	<path fill-rule="evenodd" clip-rule="evenodd" fill="#9CC184" d="M53.522,118.081c-1.347-1.34-2.653-2.646-3.967-3.942
		c-0.286-0.283-0.078-0.527,0.024-0.777c1.673-4.08,3.869-7.861,6.569-11.342c5.38-6.935,12.121-12.109,20.2-15.548
		c0.516-0.22,0.843-0.203,1.248,0.227c1.073,1.139,2.195,2.23,3.313,3.325c0.27,0.264,0.316,0.396-0.062,0.601
		c-1.414,0.767-2.786,1.605-4.118,2.506c-0.268,0.181-0.441,0.195-0.665-0.057c-0.307-0.346-0.637-0.673-0.981-0.981
		c-0.509-0.457-1.053-0.451-1.468-0.016c-0.372,0.391-0.347,0.959,0.051,1.432c0.293,0.349,0.917,0.616,0.854,1.01
		c-0.065,0.414-0.715,0.584-1.063,0.913c-0.394,0.372-0.692,0.325-1.019-0.087c-0.217-0.274-0.478-0.525-0.755-0.738
		c-0.445-0.343-0.915-0.317-1.312,0.084c-0.396,0.402-0.402,0.859-0.069,1.314c0.064,0.088,0.159,0.154,0.22,0.245
		c0.211,0.311,0.857,0.548,0.648,0.859c-0.34,0.507-0.935,0.852-1.447,1.229c-0.14,0.104-0.262-0.112-0.368-0.213
		c-0.304-0.288-0.583-0.605-0.904-0.871c-0.437-0.361-1.015-0.319-1.369,0.077c-0.379,0.425-0.376,0.888-0.028,1.319
		c0.248,0.307,0.54,0.582,0.833,0.848c0.215,0.194,0.235,0.348-0.008,0.517c-0.018,0.013-0.032,0.03-0.048,0.045
		c-0.389,0.357-0.734,0.923-1.179,1.018c-0.5,0.106-0.767-0.603-1.162-0.924c-0.495-0.403-1.008-0.423-1.426-0.022
		c-0.41,0.394-0.412,0.937-0.003,1.42c0.028,0.033,0.062,0.063,0.092,0.095c0.967,1.041,0.944,1.021,0.002,2.057
		c-0.383,0.42-0.641,0.505-0.995,0.012c-0.152-0.212-0.359-0.39-0.564-0.556c-0.464-0.373-0.985-0.354-1.372,0.028
		c-0.373,0.37-0.389,0.927-0.036,1.378c0.068,0.086,0.154,0.157,0.226,0.241c0.267,0.313,0.887,0.643,0.776,0.895
		c-0.248,0.561-0.762,1.007-1.185,1.484c-0.163,0.184-0.27-0.026-0.37-0.118c-0.228-0.208-0.429-0.445-0.665-0.643
		c-0.449-0.377-0.98-0.356-1.369,0.028c-0.384,0.38-0.397,0.917-0.033,1.369c0.042,0.051,0.093,0.094,0.134,0.146
		c0.266,0.34,0.909,0.604,0.795,0.964c-0.176,0.556-0.671,1.012-1.039,1.505c-0.139,0.186-0.264,0.069-0.38-0.044
		c-0.253-0.246-0.486-0.517-0.764-0.73c-0.436-0.335-0.903-0.337-1.324,0.036c-0.411,0.365-0.45,0.918-0.077,1.363
		c0.296,0.354,0.637,0.67,0.97,0.991c0.162,0.157,0.225,0.287,0.076,0.5C55.723,114.319,54.614,116.168,53.522,118.081z"/>
	<path fill-rule="evenodd" clip-rule="evenodd" fill="#FDFDFD" d="M96.029,103.763c-0.59-0.614-1.179-1.229-1.769-1.844
		c0.389-0.622,0.258-1.133-0.256-1.643c-2.957-2.935-5.896-5.887-8.844-8.831c-0.17-0.17-0.361-0.318-0.599-0.527
		c2.325-1.181,4.628-2.125,6.953-3.029c0.728-0.282,1.143-0.167,1.688,0.384c5.071,5.122,10.177,10.209,15.273,15.306
		c0.213,0.214,0.447,0.383,0.384,0.771c-0.47,2.911-1.175,5.76-2.185,8.643c-1.463-1.476-2.87-2.898-4.283-4.316
		c-1.556-1.562-3.115-3.12-4.676-4.676C97.087,103.373,96.812,103.34,96.029,103.763z"/>
	<path fill-rule="evenodd" clip-rule="evenodd" fill="#FDFDFD" d="M56.627,136.703c0.415-0.834,0.377-1.088-0.277-1.743
		c-1.744-1.748-3.489-3.495-5.239-5.235c-0.248-0.246-0.389-0.443-0.244-0.847c0.901-2.505,1.938-4.949,3.099-7.275
		c7.321,7.324,14.65,14.657,21.977,21.987c-2.196,0.778-4.55,1.291-6.888,1.881c-1.426,0.359-2.335,0.007-3.302-1.058
		c-1.792-1.973-3.743-3.799-5.632-5.683c-0.647-0.646-0.863-0.676-1.686-0.28C57.845,137.855,57.31,137.202,56.627,136.703z"/>
	<path fill-rule="evenodd" clip-rule="evenodd" fill="#9CC184" d="M56.627,136.703c0.683,0.499,1.217,1.152,1.808,1.747
		c-0.412,0.818-0.375,1.065,0.296,1.738c1.758,1.764,3.518,3.524,5.284,5.279c0.168,0.167,0.391,0.28,0.536,0.503
		c-2.023,0.318-3.986,0.42-5.955,0.357c-2.996-0.096-5.973-0.388-8.91-1.01c-0.171-0.036-0.344-0.076-0.509-0.134
		c-1.259-0.434-1.534-0.802-1.417-2.102c0.341-3.824,1.06-7.578,2.154-11.258c0.024-0.083,0.073-0.158,0.152-0.324
		c0.659,0.668,1.288,1.309,1.921,1.944c0.964,0.969,1.951,1.914,2.89,2.906C55.403,136.906,55.941,137.096,56.627,136.703z"/>
	<path fill-rule="evenodd" clip-rule="evenodd" fill="#9CC184" d="M94.83,86.828c0.865-0.32,1.885-0.557,2.901-0.805
		c3-0.732,6.036-1.232,9.117-1.458c0.436-0.032,0.689,0.116,0.942,0.44c0.569,0.73,0.688,1.602,0.861,2.465
		c0.837,4.176,1.092,10.431,0.572,13.748C104.457,96.452,99.639,91.636,94.83,86.828z"/>
	<path fill-rule="evenodd" clip-rule="evenodd" fill="#FDFDFD" d="M79.161,85.426c2.3-0.823,4.616-1.321,6.911-1.91
		c1.482-0.38,2.561-0.15,3.461,1.104c0.353,0.49,0.875,0.859,1.393,1.353c-1.747,0.672-3.393,1.304-4.987,2.057
		c-0.814,0.384-1.621,0.783-2.434,1.17c-0.186,0.088-0.352,0.237-0.581,0.004C81.694,87.947,80.446,86.711,79.161,85.426z"/>
	<path fill-rule="evenodd" clip-rule="evenodd" fill="#FDFDFD" d="M48.574,116.001c1.29,1.301,2.507,2.542,3.744,3.764
		c0.225,0.223,0.116,0.385,0.018,0.576c-1.21,2.367-2.256,4.806-3.202,7.388c-0.894-0.896-1.752-1.761-2.617-2.619
		c-0.129-0.128-0.132-0.265-0.109-0.422C46.84,121.752,47.578,118.895,48.574,116.001z"/>
	<path fill-rule="evenodd" clip-rule="evenodd" fill="#9CC184" d="M90.606,82.893c3.906-0.425,7.626-0.324,11.347,0.181
		c-1.657,0.349-3.326,0.633-4.96,1.075c-1.186,0.321-2.369,0.653-3.551,0.991c-0.237,0.067-0.431,0.148-0.652-0.079
		C92.119,84.367,91.423,83.699,90.606,82.893z"/>
	<path fill-rule="evenodd" clip-rule="evenodd" fill="#9CC184" d="M46.042,127.457c0.807,0.828,1.488,1.537,2.181,2.232
		c0.175,0.176,0.132,0.332,0.069,0.534c-0.875,2.81-1.563,5.665-2.069,8.568C45.715,135.094,45.618,131.392,46.042,127.457z"/>
</g>
</svg>
