<?xml version="1.0" encoding="utf-8"?>
<!-- Generator: Adobe Illustrator 16.0.0, SVG Export Plug-In . SVG Version: 6.00 Build 0)  -->
<!DOCTYPE svg PUBLIC "-//W3C//DTD SVG 1.1//EN" "http://www.w3.org/Graphics/SVG/1.1/DTD/svg11.dtd">
<svg version="1.1" id="Layer_1" xmlns="http://www.w3.org/2000/svg" xmlns:xlink="http://www.w3.org/1999/xlink" x="0px" y="0px"
	 width="157px" height="179px" viewBox="0 0 157 179" enable-background="new 0 0 157 179" xml:space="preserve">
<rect x="1.5" y="1" fill-rule="evenodd" clip-rule="evenodd" fill="#FFFFFF" stroke="#627D53" stroke-width="2" stroke-miterlimit="10" width="155" height="177"/>
<rect x="1.5" fill-rule="evenodd" clip-rule="evenodd" fill="#627D53" width="155" height="56"/>
<g>
	<path fill="#FFFFFF" d="M13.34,21.582h3.097c1.077,0,1.862,0.25,2.356,0.75c0.494,0.501,0.741,1.271,0.741,2.309v0.817
		c0,1.38-0.456,2.255-1.368,2.622v0.037c0.506,0.152,0.865,0.463,1.074,0.932s0.313,1.096,0.313,1.881v2.337
		c0,0.38,0.012,0.688,0.038,0.922s0.089,0.466,0.19,0.693h-2.128c-0.076-0.216-0.126-0.418-0.152-0.608
		c-0.025-0.189-0.038-0.531-0.038-1.025v-2.432c0-0.608-0.098-1.033-0.294-1.273s-0.535-0.361-1.017-0.361h-0.722v5.7h-2.09V21.582z
		 M16.19,27.281c0.418,0,0.731-0.107,0.94-0.322s0.313-0.576,0.313-1.083V24.85c0-0.48-0.085-0.829-0.256-1.045
		c-0.171-0.215-0.44-0.322-0.808-0.322h-0.95v3.799H16.19z"/>
	<path fill="#FFFFFF" d="M22.613,21.582h2.831l2.166,13.3h-2.09l-0.38-2.642v0.039h-2.375l-0.38,2.603h-1.938L22.613,21.582z
		 M24.893,30.474L23.962,23.9h-0.038l-0.912,6.573H24.893z"/>
	<path fill="#FFFFFF" d="M29.234,34.217c-0.526-0.57-0.789-1.374-0.789-2.413V24.66c0-1.039,0.263-1.844,0.789-2.413
		c0.525-0.57,1.289-0.855,2.29-0.855c1,0,1.764,0.285,2.29,0.855c0.525,0.569,0.788,1.374,0.788,2.413v1.406h-1.976v-1.539
		c0-0.824-0.349-1.235-1.045-1.235c-0.696,0-1.045,0.411-1.045,1.235v7.429c0,0.811,0.349,1.216,1.045,1.216
		c0.697,0,1.045-0.405,1.045-1.216v-2.033h1.976v1.881c0,1.039-0.263,1.843-0.788,2.413c-0.526,0.57-1.289,0.855-2.29,0.855
		C30.522,35.072,29.759,34.787,29.234,34.217z"/>
	<path fill="#FFFFFF" d="M40.301,34.844c-0.393,0.152-0.855,0.229-1.387,0.229c-1.026,0-1.812-0.291-2.356-0.875
		c-0.544-0.582-0.817-1.405-0.817-2.469v-6.992c0-1.064,0.272-1.888,0.817-2.471c0.544-0.582,1.33-0.874,2.356-0.874
		c1.026,0,1.812,0.292,2.356,0.874c0.545,0.583,0.817,1.406,0.817,2.471v6.992c0,0.887-0.197,1.614-0.589,2.184
		c0.076,0.127,0.171,0.21,0.285,0.248c0.114,0.037,0.278,0.057,0.494,0.057H42.6v1.9h-0.551
		C41.099,36.117,40.517,35.692,40.301,34.844z M39.997,31.861v-7.258c0-0.875-0.361-1.312-1.083-1.312
		c-0.722,0-1.083,0.437-1.083,1.312v7.258c0,0.873,0.361,1.311,1.083,1.311C39.636,33.172,39.997,32.734,39.997,31.861z"/>
	<path fill="#FFFFFF" d="M44.215,34.207c-0.532-0.576-0.798-1.402-0.798-2.479V21.582h2.09V31.88c0,0.456,0.092,0.786,0.275,0.987
		c0.184,0.203,0.447,0.305,0.789,0.305c0.342,0,0.605-0.102,0.789-0.305c0.184-0.201,0.275-0.531,0.275-0.987V21.582h2.014v10.146
		c0,1.076-0.266,1.902-0.798,2.479c-0.532,0.576-1.305,0.865-2.318,0.865S44.748,34.783,44.215,34.207z"/>
	<path fill="#FFFFFF" d="M51.131,21.582h5.7v1.9h-3.61v3.515h2.869v1.899h-2.869v4.086h3.61v1.899h-5.7V21.582z"/>
	<path fill="#FFFFFF" d="M59.662,23.482h-2.185v-1.9h6.46v1.9h-2.185v11.399h-2.09V23.482z"/>
	<path fill="#FFFFFF" d="M64.944,21.582h3.154c1.076,0,1.862,0.25,2.356,0.75c0.494,0.501,0.741,1.271,0.741,2.309v0.532
		c0,0.685-0.111,1.241-0.333,1.672s-0.56,0.741-1.016,0.931v0.039c1.038,0.354,1.558,1.279,1.558,2.773v1.141
		c0,1.025-0.269,1.808-0.807,2.346c-0.539,0.539-1.327,0.808-2.366,0.808h-3.287V21.582z M67.851,26.997
		c0.418,0,0.731-0.108,0.94-0.323s0.313-0.576,0.313-1.083V24.85c0-0.48-0.085-0.829-0.256-1.045
		c-0.171-0.215-0.44-0.322-0.808-0.322h-1.007v3.515H67.851z M68.231,32.982c0.367,0,0.64-0.099,0.817-0.295
		s0.266-0.535,0.266-1.017v-1.159c0-0.607-0.104-1.029-0.313-1.264s-0.554-0.352-1.036-0.352h-0.931v4.086H68.231z"/>
	<path fill="#FFFFFF" d="M74.235,21.582h2.831l2.166,13.3h-2.09l-0.38-2.642v0.039h-2.375l-0.38,2.603h-1.938L74.235,21.582z
		 M76.515,30.474L75.584,23.9h-0.038l-0.912,6.573H76.515z"/>
	<path fill="#FFFFFF" d="M80.238,21.582h2.09v11.4h3.439v1.899h-5.529V21.582z"/>
	<path fill="#FFFFFF" d="M86.774,21.582h2.09v11.4h3.439v1.899h-5.529V21.582z"/>
	<path fill="#FFFFFF" d="M97.005,34.217c-0.526-0.57-0.789-1.374-0.789-2.413V24.66c0-1.039,0.263-1.844,0.789-2.413
		c0.525-0.57,1.289-0.855,2.29-0.855c1,0,1.764,0.285,2.29,0.855c0.525,0.569,0.788,1.374,0.788,2.413v1.406h-1.976v-1.539
		c0-0.824-0.349-1.235-1.045-1.235c-0.696,0-1.045,0.411-1.045,1.235v7.429c0,0.811,0.349,1.216,1.045,1.216
		c0.697,0,1.045-0.405,1.045-1.216v-2.033h1.976v1.881c0,1.039-0.263,1.843-0.788,2.413c-0.526,0.57-1.289,0.855-2.29,0.855
		C98.294,35.072,97.531,34.787,97.005,34.217z"/>
	<path fill="#FFFFFF" d="M103.626,21.582h5.7v1.9h-3.61v3.515h2.869v1.899h-2.869v4.086h3.61v1.899h-5.7V21.582z"/>
	<path fill="#FFFFFF" d="M110.523,21.582h2.622l2.033,7.961h0.038v-7.961h1.862v13.3h-2.147l-2.508-9.709h-0.038v9.709h-1.862
		V21.582z"/>
	<path fill="#FFFFFF" d="M120.271,23.482h-2.185v-1.9h6.46v1.9h-2.185v11.399h-2.09V23.482z"/>
	<path fill="#FFFFFF" d="M125.552,21.582h5.7v1.9h-3.61v3.515h2.869v1.899h-2.869v4.086h3.61v1.899h-5.7V21.582z"/>
	<path fill="#FFFFFF" d="M132.449,21.582h3.097c1.077,0,1.862,0.25,2.356,0.75c0.494,0.501,0.741,1.271,0.741,2.309v0.817
		c0,1.38-0.456,2.255-1.368,2.622v0.037c0.506,0.152,0.865,0.463,1.074,0.932s0.313,1.096,0.313,1.881v2.337
		c0,0.38,0.012,0.688,0.038,0.922s0.089,0.466,0.19,0.693h-2.128c-0.076-0.216-0.126-0.418-0.152-0.608
		c-0.025-0.189-0.038-0.531-0.038-1.025v-2.432c0-0.608-0.098-1.033-0.294-1.273s-0.535-0.361-1.017-0.361h-0.722v5.7h-2.09V21.582z
		 M135.299,27.281c0.418,0,0.731-0.107,0.94-0.322s0.313-0.576,0.313-1.083V24.85c0-0.48-0.085-0.829-0.256-1.045
		c-0.171-0.215-0.44-0.322-0.808-0.322h-0.95v3.799H135.299z"/>
	<path fill="#FFFFFF" d="M140.524,34.207c-0.52-0.576-0.779-1.402-0.779-2.479v-0.761h1.976v0.912c0,0.861,0.361,1.292,1.083,1.292
		c0.354,0,0.624-0.104,0.808-0.313c0.183-0.209,0.275-0.548,0.275-1.017c0-0.557-0.127-1.048-0.38-1.473
		c-0.254-0.424-0.722-0.934-1.406-1.529c-0.861-0.76-1.463-1.447-1.805-2.062c-0.342-0.614-0.513-1.308-0.513-2.081
		c0-1.051,0.266-1.864,0.798-2.441c0.532-0.576,1.305-0.864,2.318-0.864c1,0,1.758,0.288,2.271,0.864
		c0.513,0.577,0.77,1.403,0.77,2.48v0.551h-1.976v-0.684c0-0.457-0.089-0.789-0.266-0.998c-0.178-0.209-0.437-0.313-0.779-0.313
		c-0.697,0-1.045,0.425-1.045,1.272c0,0.482,0.13,0.932,0.39,1.35c0.259,0.418,0.731,0.924,1.416,1.52
		c0.874,0.76,1.476,1.451,1.805,2.071c0.33,0.62,0.494,1.349,0.494,2.185c0,1.09-0.269,1.926-0.808,2.508
		c-0.538,0.584-1.32,0.875-2.346,0.875C141.81,35.072,141.044,34.783,140.524,34.207z"/>
</g>
<g>
	<path fill-rule="evenodd" clip-rule="evenodd" fill="#627D53" d="M55.292,156.053c-3.283-0.871-5.512-3.032-7.093-5.917
		c-1.186-2.162-0.844-4.151,1.034-5.739c2.624-2.22,5.349-4.319,7.994-6.515c1.386-1.149,2.699-2.388,4.033-3.598
		c0.863-0.783,1.145-1.847,1.262-2.939c0.244-2.26,0.108-4.496-0.645-6.665c-0.939-2.71-1.377-5.506-1.456-8.197
		c8.84,8.843,17.755,17.763,26.64,26.65c-0.818-0.064-1.855-0.041-2.844-0.247c-2.057-0.43-4.083-1.002-6.13-1.477
		c-2.448-0.567-4.917-0.847-7.355-0.006c-0.598,0.206-1.212,0.604-1.621,1.084c-2.755,3.226-5.457,6.497-8.176,9.754
		c-0.486,0.582-0.973,1.164-1.45,1.754c-0.809,1-1.781,1.751-3.055,2.058C56.052,156.053,55.672,156.053,55.292,156.053z"/>
	<path fill-rule="evenodd" clip-rule="evenodd" fill="#627D53" d="M56.716,83.18c0.291,0.083,0.579,0.171,0.872,0.247
		c4.033,1.049,6.459,4.659,5.961,8.871c-0.443,3.745-3.871,6.761-7.748,6.815c-4.009,0.058-7.417-2.851-8.019-6.842
		c-0.623-4.133,2.191-8.097,6.345-8.944c0.155-0.031,0.302-0.098,0.454-0.147C55.292,83.18,56.004,83.18,56.716,83.18z"/>
	<path fill-rule="evenodd" clip-rule="evenodd" fill="#627D53" d="M117.842,112.363c-0.15,3.915-1.005,7.642-2.524,11.205
		c-2.075,4.865-5.104,9.08-9.025,12.629c-3.571,3.231-7.736,5.344-12.452,6.343c-0.237,0.05-0.606-0.064-0.779-0.237
		c-10.611-10.587-21.21-21.188-31.795-31.802c-0.188-0.188-0.314-0.59-0.259-0.847c1.151-5.28,3.669-9.825,7.5-13.627
		c3.174-3.15,6.775-5.704,10.873-7.526c10.77-4.79,21.845-3.175,30.44,5.567c3.599,3.66,6.206,7.894,7.281,12.957
		C117.473,108.777,117.602,110.582,117.842,112.363z"/>
</g>
</svg>
