<?xml version="1.0" encoding="utf-8"?>
<!-- Generator: Adobe Illustrator 16.0.0, SVG Export Plug-In . SVG Version: 6.00 Build 0)  -->
<!DOCTYPE svg PUBLIC "-//W3C//DTD SVG 1.1//EN" "http://www.w3.org/Graphics/SVG/1.1/DTD/svg11.dtd">
<svg version="1.1" id="Layer_1" xmlns="http://www.w3.org/2000/svg" xmlns:xlink="http://www.w3.org/1999/xlink" x="0px" y="0px"
	 width="157px" height="179px" viewBox="0 0 157 179" enable-background="new 0 0 157 179" xml:space="preserve">
<rect x="2" y="2.01" fill-rule="evenodd" clip-rule="evenodd" fill="#FFFFFF" stroke="#627D53" stroke-width="2" stroke-miterlimit="10" width="155" height="177"/>
<rect x="2" y="0.01" fill-rule="evenodd" clip-rule="evenodd" fill="#627D53" width="155" height="56"/>
<g>
	<path fill="#FFFFFF" d="M16.587,21.582h2.014l0.931,10.222h0.038l0.988-10.222h2.28l0.988,10.222h0.038l0.931-10.222H26.6
		l-1.349,13.3h-2.603l-0.95-8.968H21.66l-0.95,8.968h-2.774L16.587,21.582z"/>
	<path fill="#FFFFFF" d="M27.664,21.582h2.09v13.3h-2.09V21.582z"/>
	<path fill="#FFFFFF" d="M31.312,21.582h2.622l2.033,7.961h0.038v-7.961h1.862v13.3H35.72l-2.508-9.709h-0.038v9.709h-1.862V21.582z
		"/>
	<path fill="#FFFFFF" d="M39.425,21.582h3.192c1.038,0,1.817,0.279,2.337,0.836c0.519,0.558,0.779,1.375,0.779,2.451v6.726
		c0,1.077-0.26,1.894-0.779,2.451c-0.52,0.558-1.299,0.836-2.337,0.836h-3.192V21.582z M42.579,32.982
		c0.342,0,0.604-0.102,0.789-0.305c0.183-0.202,0.275-0.531,0.275-0.988v-6.916c0-0.455-0.092-0.785-0.275-0.988
		c-0.184-0.201-0.447-0.303-0.789-0.303h-1.064v9.5H42.579z"/>
	<path fill="#FFFFFF" d="M47.557,34.207c-0.52-0.576-0.779-1.402-0.779-2.479v-0.761h1.976v0.912c0,0.861,0.361,1.292,1.083,1.292
		c0.354,0,0.624-0.104,0.808-0.313c0.183-0.209,0.275-0.548,0.275-1.017c0-0.557-0.127-1.048-0.38-1.473
		c-0.254-0.424-0.722-0.934-1.406-1.529c-0.861-0.76-1.463-1.447-1.805-2.062c-0.342-0.614-0.513-1.308-0.513-2.081
		c0-1.051,0.266-1.864,0.798-2.441c0.532-0.576,1.305-0.864,2.318-0.864c1,0,1.758,0.288,2.271,0.864
		c0.513,0.577,0.77,1.403,0.77,2.48v0.551h-1.976v-0.684c0-0.457-0.089-0.789-0.266-0.998c-0.178-0.209-0.437-0.313-0.779-0.313
		c-0.697,0-1.045,0.425-1.045,1.272c0,0.482,0.13,0.932,0.39,1.35c0.259,0.418,0.731,0.924,1.416,1.52
		c0.874,0.76,1.476,1.451,1.805,2.071c0.33,0.62,0.494,1.349,0.494,2.185c0,1.09-0.269,1.926-0.808,2.508
		c-0.538,0.584-1.32,0.875-2.346,0.875C48.842,35.072,48.076,34.783,47.557,34.207z"/>
	<path fill="#FFFFFF" d="M54.929,34.207c-0.532-0.576-0.798-1.402-0.798-2.479V21.582h2.09V31.88c0,0.456,0.092,0.786,0.275,0.987
		c0.184,0.203,0.447,0.305,0.789,0.305c0.342,0,0.605-0.102,0.789-0.305c0.184-0.201,0.275-0.531,0.275-0.987V21.582h2.014v10.146
		c0,1.076-0.266,1.902-0.798,2.479c-0.532,0.576-1.305,0.865-2.318,0.865S55.461,34.783,54.929,34.207z"/>
	<path fill="#FFFFFF" d="M61.844,21.582h3.097c1.077,0,1.862,0.25,2.356,0.75c0.494,0.501,0.741,1.271,0.741,2.309v0.817
		c0,1.38-0.456,2.255-1.368,2.622v0.037c0.506,0.152,0.865,0.463,1.074,0.932s0.313,1.096,0.313,1.881v2.337
		c0,0.38,0.012,0.688,0.038,0.922s0.089,0.466,0.19,0.693h-2.128c-0.076-0.216-0.126-0.418-0.152-0.608
		c-0.025-0.189-0.038-0.531-0.038-1.025v-2.432c0-0.608-0.098-1.033-0.294-1.273s-0.535-0.361-1.017-0.361h-0.722v5.7h-2.09V21.582z
		 M64.694,27.281c0.418,0,0.731-0.107,0.94-0.322s0.313-0.576,0.313-1.083V24.85c0-0.48-0.085-0.829-0.256-1.045
		c-0.171-0.215-0.44-0.322-0.808-0.322h-0.95v3.799H64.694z"/>
	<path fill="#FFFFFF" d="M69.501,21.582h5.529v1.9h-3.439v3.705h2.698v1.899h-2.698v5.795h-2.09V21.582z"/>
	<path fill="#FFFFFF" d="M76.038,21.582h2.09v13.3h-2.09V21.582z"/>
	<path fill="#FFFFFF" d="M79.686,21.582h2.622l2.033,7.961h0.038v-7.961h1.862v13.3h-2.147l-2.508-9.709h-0.038v9.709h-1.862V21.582
		z"/>
	<path fill="#FFFFFF" d="M88.444,34.207c-0.532-0.576-0.798-1.402-0.798-2.479v-6.992c0-1.077,0.266-1.903,0.798-2.48
		c0.532-0.576,1.305-0.864,2.318-0.864c1.013,0,1.786,0.288,2.318,0.864c0.532,0.577,0.798,1.403,0.798,2.48v1.14h-1.976v-1.272
		c0-0.875-0.361-1.312-1.083-1.312c-0.722,0-1.083,0.437-1.083,1.312v7.276c0,0.861,0.361,1.292,1.083,1.292
		c0.722,0,1.083-0.431,1.083-1.292v-2.603h-1.045v-1.9h3.021v4.352c0,1.076-0.266,1.902-0.798,2.479
		c-0.532,0.576-1.305,0.865-2.318,0.865C89.749,35.072,88.977,34.783,88.444,34.207z"/>
	<path fill="#FFFFFF" d="M98.685,34.207c-0.52-0.576-0.779-1.402-0.779-2.479v-0.761h1.976v0.912c0,0.861,0.361,1.292,1.083,1.292
		c0.354,0,0.624-0.104,0.808-0.313c0.183-0.209,0.275-0.548,0.275-1.017c0-0.557-0.127-1.048-0.38-1.473
		c-0.254-0.424-0.722-0.934-1.406-1.529c-0.861-0.76-1.463-1.447-1.805-2.062c-0.342-0.614-0.513-1.308-0.513-2.081
		c0-1.051,0.266-1.864,0.798-2.441c0.532-0.576,1.305-0.864,2.318-0.864c1,0,1.758,0.288,2.271,0.864
		c0.513,0.577,0.77,1.403,0.77,2.48v0.551h-1.976v-0.684c0-0.457-0.089-0.789-0.266-0.998c-0.178-0.209-0.437-0.313-0.779-0.313
		c-0.697,0-1.045,0.425-1.045,1.272c0,0.482,0.13,0.932,0.39,1.35c0.259,0.418,0.731,0.924,1.416,1.52
		c0.874,0.76,1.476,1.451,1.805,2.071c0.33,0.62,0.494,1.349,0.494,2.185c0,1.09-0.269,1.926-0.808,2.508
		c-0.538,0.584-1.32,0.875-2.346,0.875C99.97,35.072,99.204,34.783,98.685,34.207z"/>
	<path fill="#FFFFFF" d="M106.969,23.482h-2.185v-1.9h6.46v1.9h-2.185v11.399h-2.09V23.482z"/>
	<path fill="#FFFFFF" d="M112.839,34.197c-0.544-0.582-0.817-1.405-0.817-2.469v-6.992c0-1.064,0.272-1.888,0.817-2.471
		c0.544-0.582,1.33-0.874,2.356-0.874c1.026,0,1.812,0.292,2.356,0.874c0.545,0.583,0.817,1.406,0.817,2.471v6.992
		c0,1.063-0.272,1.887-0.817,2.469c-0.544,0.584-1.33,0.875-2.356,0.875C114.169,35.072,113.384,34.781,112.839,34.197z
		 M116.278,31.861v-7.258c0-0.875-0.361-1.312-1.083-1.312c-0.722,0-1.083,0.437-1.083,1.312v7.258c0,0.873,0.361,1.311,1.083,1.311
		C115.917,33.172,116.278,32.734,116.278,31.861z"/>
	<path fill="#FFFFFF" d="M119.774,21.582h3.097c1.077,0,1.862,0.25,2.356,0.75c0.494,0.501,0.741,1.271,0.741,2.309v0.817
		c0,1.38-0.456,2.255-1.368,2.622v0.037c0.506,0.152,0.865,0.463,1.074,0.932s0.313,1.096,0.313,1.881v2.337
		c0,0.38,0.012,0.688,0.038,0.922s0.089,0.466,0.19,0.693h-2.128c-0.076-0.216-0.126-0.418-0.152-0.608
		c-0.025-0.189-0.038-0.531-0.038-1.025v-2.432c0-0.608-0.098-1.033-0.294-1.273s-0.535-0.361-1.017-0.361h-0.722v5.7h-2.09V21.582z
		 M122.625,27.281c0.418,0,0.731-0.107,0.94-0.322s0.313-0.576,0.313-1.083V24.85c0-0.48-0.085-0.829-0.256-1.045
		c-0.171-0.215-0.44-0.322-0.808-0.322h-0.95v3.799H122.625z"/>
	<path fill="#FFFFFF" d="M127.432,21.582h5.7v1.9h-3.61v3.515h2.869v1.899h-2.869v4.086h3.61v1.899h-5.7V21.582z"/>
	<path fill="#FFFFFF" d="M134.785,34.207c-0.52-0.576-0.779-1.402-0.779-2.479v-0.761h1.976v0.912c0,0.861,0.361,1.292,1.083,1.292
		c0.354,0,0.624-0.104,0.808-0.313c0.183-0.209,0.275-0.548,0.275-1.017c0-0.557-0.127-1.048-0.38-1.473
		c-0.254-0.424-0.722-0.934-1.406-1.529c-0.861-0.76-1.463-1.447-1.805-2.062c-0.342-0.614-0.513-1.308-0.513-2.081
		c0-1.051,0.266-1.864,0.798-2.441c0.532-0.576,1.305-0.864,2.318-0.864c1,0,1.758,0.288,2.271,0.864
		c0.513,0.577,0.77,1.403,0.77,2.48v0.551h-1.976v-0.684c0-0.457-0.089-0.789-0.266-0.998c-0.178-0.209-0.437-0.313-0.779-0.313
		c-0.697,0-1.045,0.425-1.045,1.272c0,0.482,0.13,0.932,0.39,1.35c0.259,0.418,0.731,0.924,1.416,1.52
		c0.874,0.76,1.476,1.451,1.805,2.071c0.33,0.62,0.494,1.349,0.494,2.185c0,1.09-0.269,1.926-0.808,2.508
		c-0.538,0.584-1.32,0.875-2.346,0.875C136.07,35.072,135.304,34.783,134.785,34.207z"/>
</g>
<g>
	<path fill-rule="evenodd" clip-rule="evenodd" fill="#627D53" d="M48.976,137.294c0.432-0.596,1.035-0.699,1.729-0.685
		c6.28,0.132,12.561,0.246,18.842,0.363c0.49,0.01,0.98,0.002,1.565,0.002c0-0.324,0-0.622,0-0.919c0-19.059,0-38.116,0.001-57.175
		c0-0.306-0.011-0.613,0.02-0.916c0.062-0.612,0.492-0.997,1.073-0.99c0.596,0.007,1.042,0.43,1.056,1.089
		c0.026,1.224,0.01,2.447,0.012,3.671c0,0.278,0,0.557,0,0.895c2.011,0.195,3.97,0.39,5.929,0.573
		c3.161,0.297,6.321,0.596,9.484,0.872c0.822,0.071,1.152,0.557,1.374,1.276c3.329,10.795,6.672,21.585,10.012,32.377
		c0.139,0.448,0.279,0.896,0.417,1.346c0.378,1.232,0.232,1.565-0.921,2.105c-7.063,3.309-14.126,6.616-21.189,9.924
		c-1.511,0.707-3.015,1.429-4.535,2.114c-0.416,0.188-0.609,0.398-0.585,0.889c0.047,0.96,0.014,1.924,0.014,2.961
		c1.378,0.067,2.712,0.128,4.045,0.199c6.366,0.342,12.741,0.559,19.093,1.064c7.475,0.594,14.93,1.438,22.394,2.177
		c0.374,0.037,0.746,0.124,1.12,0.13c0.596,0.009,1.015,0.293,1.347,0.752c0,0.235,0,0.471,0,0.706
		c-0.435,0.279-0.836,0.7-1.312,0.814c-2.876,0.691-5.772,1.298-8.655,1.961c-5.898,1.356-11.844,2.408-17.913,2.435
		c-13.145,0.059-26.29,0.052-39.436,0.034c-0.817-0.001-1.688-0.207-2.439-0.533c-1.469-0.638-2.156-1.951-2.543-3.44
		C48.976,141.342,48.976,139.317,48.976,137.294z"/>
</g>
</svg>
