<?xml version="1.0" encoding="utf-8"?>
<!-- Generator: Adobe Illustrator 16.0.0, SVG Export Plug-In . SVG Version: 6.00 Build 0)  -->
<!DOCTYPE svg PUBLIC "-//W3C//DTD SVG 1.1//EN" "http://www.w3.org/Graphics/SVG/1.1/DTD/svg11.dtd">
<svg version="1.1" id="Layer_1" xmlns="http://www.w3.org/2000/svg" xmlns:xlink="http://www.w3.org/1999/xlink" x="0px" y="0px"
	 width="157px" height="179px" viewBox="0 0 157 179" enable-background="new 0 0 157 179" xml:space="preserve">
<rect x="1.975" y="1" fill-rule="evenodd" clip-rule="evenodd" fill="#FFFFFF" stroke="#627D53" stroke-width="2" stroke-miterlimit="10" width="155" height="177"/>
<rect x="1.975" fill-rule="evenodd" clip-rule="evenodd" fill="#627D53" width="155" height="56"/>
<g>
	<path fill="#FFFFFF" d="M11.241,34.207c-0.52-0.576-0.779-1.402-0.779-2.479v-0.761h1.976v0.912c0,0.861,0.361,1.292,1.083,1.292
		c0.354,0,0.624-0.104,0.808-0.313c0.183-0.209,0.275-0.548,0.275-1.017c0-0.557-0.127-1.048-0.38-1.473
		c-0.254-0.424-0.722-0.934-1.406-1.529c-0.861-0.76-1.463-1.447-1.805-2.062c-0.342-0.614-0.513-1.308-0.513-2.081
		c0-1.051,0.266-1.864,0.798-2.441c0.532-0.576,1.305-0.864,2.318-0.864c1,0,1.758,0.288,2.271,0.864
		c0.513,0.577,0.77,1.403,0.77,2.48v0.551H14.68v-0.684c0-0.457-0.089-0.789-0.266-0.998c-0.178-0.209-0.437-0.313-0.779-0.313
		c-0.697,0-1.045,0.425-1.045,1.272c0,0.482,0.13,0.932,0.39,1.35c0.259,0.418,0.731,0.924,1.416,1.52
		c0.874,0.76,1.476,1.451,1.805,2.071c0.33,0.62,0.494,1.349,0.494,2.185c0,1.09-0.269,1.926-0.808,2.508
		c-0.538,0.584-1.32,0.875-2.346,0.875C12.526,35.072,11.76,34.783,11.241,34.207z"/>
	<path fill="#FFFFFF" d="M22.299,34.844c-0.393,0.152-0.855,0.229-1.387,0.229c-1.026,0-1.812-0.291-2.356-0.875
		c-0.544-0.582-0.817-1.405-0.817-2.469v-6.992c0-1.064,0.272-1.888,0.817-2.471c0.544-0.582,1.33-0.874,2.356-0.874
		c1.026,0,1.812,0.292,2.356,0.874c0.545,0.583,0.817,1.406,0.817,2.471v6.992c0,0.887-0.197,1.614-0.589,2.184
		c0.076,0.127,0.171,0.21,0.285,0.248c0.114,0.037,0.278,0.057,0.494,0.057h0.323v1.9h-0.551
		C23.097,36.117,22.514,35.692,22.299,34.844z M21.995,31.861v-7.258c0-0.875-0.361-1.312-1.083-1.312
		c-0.722,0-1.083,0.437-1.083,1.312v7.258c0,0.873,0.361,1.311,1.083,1.311C21.634,33.172,21.995,32.734,21.995,31.861z"/>
	<path fill="#FFFFFF" d="M26.213,34.207c-0.532-0.576-0.798-1.402-0.798-2.479V21.582h2.09V31.88c0,0.456,0.092,0.786,0.275,0.987
		c0.184,0.203,0.447,0.305,0.789,0.305c0.342,0,0.605-0.102,0.789-0.305c0.184-0.201,0.275-0.531,0.275-0.987V21.582h2.014v10.146
		c0,1.076-0.266,1.902-0.798,2.479c-0.532,0.576-1.305,0.865-2.318,0.865S26.745,34.783,26.213,34.207z"/>
	<path fill="#FFFFFF" d="M34.706,21.582h2.831l2.166,13.3h-2.09l-0.38-2.642v0.039h-2.375l-0.38,2.603H32.54L34.706,21.582z
		 M36.985,30.474L36.055,23.9h-0.038l-0.912,6.573H36.985z"/>
	<path fill="#FFFFFF" d="M41.07,34.207c-0.52-0.576-0.779-1.402-0.779-2.479v-0.761h1.976v0.912c0,0.861,0.361,1.292,1.083,1.292
		c0.354,0,0.624-0.104,0.808-0.313c0.183-0.209,0.275-0.548,0.275-1.017c0-0.557-0.127-1.048-0.38-1.473
		c-0.254-0.424-0.722-0.934-1.406-1.529c-0.861-0.76-1.463-1.447-1.805-2.062c-0.342-0.614-0.513-1.308-0.513-2.081
		c0-1.051,0.266-1.864,0.798-2.441c0.532-0.576,1.305-0.864,2.318-0.864c1,0,1.758,0.288,2.271,0.864
		c0.513,0.577,0.77,1.403,0.77,2.48v0.551H44.51v-0.684c0-0.457-0.089-0.789-0.266-0.998c-0.178-0.209-0.437-0.313-0.779-0.313
		c-0.697,0-1.045,0.425-1.045,1.272c0,0.482,0.13,0.932,0.39,1.35c0.259,0.418,0.731,0.924,1.416,1.52
		c0.874,0.76,1.476,1.451,1.805,2.071c0.33,0.62,0.494,1.349,0.494,2.185c0,1.09-0.269,1.926-0.808,2.508
		c-0.538,0.584-1.32,0.875-2.346,0.875C42.356,35.072,41.59,34.783,41.07,34.207z"/>
	<path fill="#FFFFFF" d="M47.72,21.582h2.09v5.415h2.242v-5.415h2.09v13.3h-2.09v-5.985h-2.242v5.985h-2.09V21.582z"/>
	<path fill="#FFFFFF" d="M59.396,34.217c-0.526-0.57-0.789-1.374-0.789-2.413V24.66c0-1.039,0.263-1.844,0.789-2.413
		c0.525-0.57,1.289-0.855,2.29-0.855c1,0,1.764,0.285,2.29,0.855c0.525,0.569,0.788,1.374,0.788,2.413v1.406h-1.976v-1.539
		c0-0.824-0.349-1.235-1.045-1.235c-0.696,0-1.045,0.411-1.045,1.235v7.429c0,0.811,0.349,1.216,1.045,1.216
		c0.697,0,1.045-0.405,1.045-1.216v-2.033h1.976v1.881c0,1.039-0.263,1.843-0.788,2.413c-0.526,0.57-1.289,0.855-2.29,0.855
		C60.684,35.072,59.921,34.787,59.396,34.217z"/>
	<path fill="#FFFFFF" d="M66.72,34.197c-0.544-0.582-0.817-1.405-0.817-2.469v-6.992c0-1.064,0.272-1.888,0.817-2.471
		c0.544-0.582,1.33-0.874,2.356-0.874c1.026,0,1.812,0.292,2.356,0.874c0.545,0.583,0.817,1.406,0.817,2.471v6.992
		c0,1.063-0.272,1.887-0.817,2.469c-0.544,0.584-1.33,0.875-2.356,0.875C68.05,35.072,67.264,34.781,66.72,34.197z M70.159,31.861
		v-7.258c0-0.875-0.361-1.312-1.083-1.312c-0.722,0-1.083,0.437-1.083,1.312v7.258c0,0.873,0.361,1.311,1.083,1.311
		C69.798,33.172,70.159,32.734,70.159,31.861z"/>
	<path fill="#FFFFFF" d="M74.377,34.207c-0.532-0.576-0.798-1.402-0.798-2.479V21.582h2.09V31.88c0,0.456,0.092,0.786,0.275,0.987
		c0.184,0.203,0.447,0.305,0.789,0.305c0.342,0,0.605-0.102,0.789-0.305c0.184-0.201,0.275-0.531,0.275-0.987V21.582h2.014v10.146
		c0,1.076-0.266,1.902-0.798,2.479c-0.532,0.576-1.305,0.865-2.318,0.865S74.909,34.783,74.377,34.207z"/>
	<path fill="#FFFFFF" d="M81.292,21.582h3.097c1.077,0,1.862,0.25,2.356,0.75c0.494,0.501,0.741,1.271,0.741,2.309v0.817
		c0,1.38-0.456,2.255-1.368,2.622v0.037c0.506,0.152,0.865,0.463,1.074,0.932s0.313,1.096,0.313,1.881v2.337
		c0,0.38,0.012,0.688,0.038,0.922s0.089,0.466,0.19,0.693h-2.128c-0.076-0.216-0.126-0.418-0.152-0.608
		c-0.025-0.189-0.038-0.531-0.038-1.025v-2.432c0-0.608-0.098-1.033-0.294-1.273s-0.535-0.361-1.017-0.361h-0.722v5.7h-2.09V21.582z
		 M84.143,27.281c0.418,0,0.731-0.107,0.94-0.322s0.313-0.576,0.313-1.083V24.85c0-0.48-0.085-0.829-0.256-1.045
		c-0.171-0.215-0.44-0.322-0.808-0.322h-0.95v3.799H84.143z"/>
	<path fill="#FFFFFF" d="M90.546,23.482h-2.185v-1.9h6.46v1.9h-2.185v11.399h-2.09V23.482z"/>
	<path fill="#FFFFFF" d="M99.523,34.217c-0.526-0.57-0.789-1.374-0.789-2.413V24.66c0-1.039,0.263-1.844,0.789-2.413
		c0.525-0.57,1.289-0.855,2.29-0.855c1,0,1.764,0.285,2.29,0.855c0.525,0.569,0.788,1.374,0.788,2.413v1.406h-1.976v-1.539
		c0-0.824-0.349-1.235-1.045-1.235c-0.696,0-1.045,0.411-1.045,1.235v7.429c0,0.811,0.349,1.216,1.045,1.216
		c0.697,0,1.045-0.405,1.045-1.216v-2.033h1.976v1.881c0,1.039-0.263,1.843-0.788,2.413c-0.526,0.57-1.289,0.855-2.29,0.855
		C100.812,35.072,100.048,34.787,99.523,34.217z"/>
	<path fill="#FFFFFF" d="M106.144,21.582h5.7v1.9h-3.61v3.515h2.869v1.899h-2.869v4.086h3.61v1.899h-5.7V21.582z"/>
	<path fill="#FFFFFF" d="M113.041,21.582h2.622l2.033,7.961h0.038v-7.961h1.862v13.3h-2.147l-2.508-9.709h-0.038v9.709h-1.862
		V21.582z"/>
	<path fill="#FFFFFF" d="M122.788,23.482h-2.185v-1.9h6.46v1.9h-2.185v11.399h-2.09V23.482z"/>
	<path fill="#FFFFFF" d="M128.07,21.582h5.7v1.9h-3.61v3.515h2.869v1.899h-2.869v4.086h3.61v1.899h-5.7V21.582z"/>
	<path fill="#FFFFFF" d="M134.967,21.582h3.097c1.077,0,1.862,0.25,2.356,0.75c0.494,0.501,0.741,1.271,0.741,2.309v0.817
		c0,1.38-0.456,2.255-1.368,2.622v0.037c0.506,0.152,0.865,0.463,1.074,0.932s0.313,1.096,0.313,1.881v2.337
		c0,0.38,0.012,0.688,0.038,0.922s0.089,0.466,0.19,0.693h-2.128c-0.076-0.216-0.126-0.418-0.152-0.608
		c-0.025-0.189-0.038-0.531-0.038-1.025v-2.432c0-0.608-0.098-1.033-0.294-1.273s-0.535-0.361-1.017-0.361h-0.722v5.7h-2.09V21.582z
		 M137.817,27.281c0.418,0,0.731-0.107,0.94-0.322s0.313-0.576,0.313-1.083V24.85c0-0.48-0.085-0.829-0.256-1.045
		c-0.171-0.215-0.44-0.322-0.808-0.322h-0.95v3.799H137.817z"/>
	<path fill="#FFFFFF" d="M143.042,34.207c-0.52-0.576-0.779-1.402-0.779-2.479v-0.761h1.976v0.912c0,0.861,0.361,1.292,1.083,1.292
		c0.354,0,0.624-0.104,0.808-0.313c0.183-0.209,0.275-0.548,0.275-1.017c0-0.557-0.127-1.048-0.38-1.473
		c-0.254-0.424-0.722-0.934-1.406-1.529c-0.861-0.76-1.463-1.447-1.805-2.062c-0.342-0.614-0.513-1.308-0.513-2.081
		c0-1.051,0.266-1.864,0.798-2.441c0.532-0.576,1.305-0.864,2.318-0.864c1,0,1.758,0.288,2.271,0.864
		c0.513,0.577,0.77,1.403,0.77,2.48v0.551h-1.976v-0.684c0-0.457-0.089-0.789-0.266-0.998c-0.178-0.209-0.437-0.313-0.779-0.313
		c-0.697,0-1.045,0.425-1.045,1.272c0,0.482,0.13,0.932,0.39,1.35c0.259,0.418,0.731,0.924,1.416,1.52
		c0.874,0.76,1.476,1.451,1.805,2.071c0.33,0.62,0.494,1.349,0.494,2.185c0,1.09-0.269,1.926-0.808,2.508
		c-0.538,0.584-1.32,0.875-2.346,0.875C144.328,35.072,143.562,34.783,143.042,34.207z"/>
</g>
<g>
	<path fill-rule="evenodd" clip-rule="evenodd" fill="#627D53" d="M106.015,163c-7.107-0.004-12.879-5.787-12.871-12.896
		c0.008-7.111,5.799-12.909,12.884-12.9c7.076,0.009,12.899,5.84,12.896,12.913C118.922,157.201,113.107,163.004,106.015,163z
		 M106.02,156.992c3.778-0.003,6.927-3.152,6.9-6.9c-0.027-3.769-3.217-6.933-6.938-6.881c-3.771,0.053-6.809,3.11-6.829,6.874
		C99.131,153.88,102.228,156.995,106.02,156.992z"/>
	<path fill-rule="evenodd" clip-rule="evenodd" fill="#627D53" d="M123.581,97.354c0,1,0,1.999,0,2.998
		c-0.046,0.104-0.121,0.203-0.135,0.312c-0.489,3.766-2.124,6.966-4.977,9.443c-5.011,4.351-10.138,8.568-15.153,12.914
		c-3.123,2.705-6.59,4.735-10.448,6.217c-9.195,3.53-18.351,7.165-27.514,10.78c-0.525,0.207-1.04,0.55-1.441,0.948
		c-5.582,5.551-11.162,11.103-16.697,16.699c-1.604,1.622-3.298,2.993-5.629,3.345c-0.588,0-1.176,0-1.763,0
		c-1.187-0.516-2.462-0.891-3.54-1.578c-1.764-1.124-2.532-2.968-2.984-4.946c0-0.588,0-1.176,0-1.764
		c0.351-2.362,1.759-4.062,3.397-5.682c5.598-5.536,11.149-11.118,16.704-16.696c0.341-0.343,0.655-0.768,0.831-1.213
		c3.614-9.165,7.24-18.326,10.785-27.518c1.299-3.368,2.86-6.559,5.201-9.328c4.455-5.271,8.915-10.539,13.373-15.809
		c1.756-2.077,3.843-3.726,6.406-4.667c1.28-0.47,2.638-0.728,3.96-1.081c0.999,0,1.999,0,2.998,0
		c0.132,0.051,0.26,0.131,0.396,0.148c2.694,0.361,5.119,1.382,7.051,3.287c5.346,5.272,10.642,10.598,15.921,15.938
		c1.229,1.243,2.042,2.788,2.55,4.467C123.151,95.485,123.348,96.426,123.581,97.354z M65.479,116.895
		c-1.807,4.609-3.546,9.029-5.255,13.462c-0.074,0.192,0.057,0.562,0.216,0.73c0.889,0.938,1.794,1.865,2.748,2.736
		c0.211,0.192,0.687,0.282,0.96,0.187c1.328-0.465,2.628-1.01,3.938-1.524c3.056-1.198,6.113-2.395,9.32-3.651
		C71.794,126.46,67.874,122.567,65.479,116.895z M56.483,135.808c-0.094,0.083-0.229,0.188-0.348,0.309
		c-5.381,5.377-10.762,10.755-16.138,16.138c-0.205,0.204-0.498,0.443-0.516,0.685c-0.039,0.49-0.068,1.097,0.182,1.459
		c0.229,0.332,0.841,0.568,1.268,0.547c0.402-0.021,0.85-0.369,1.167-0.685c5.351-5.324,10.684-10.666,16.019-16.007
		c0.156-0.156,0.284-0.341,0.377-0.453C57.798,137.111,57.157,136.476,56.483,135.808z M110.264,99.513
		c-1.098,1.1-2.203,2.209-3.215,3.225c1.604,1.601,3.28,3.274,5.031,5.022c1.101-0.983,2.266-2.023,3.399-3.035
		C113.643,102.89,111.924,101.171,110.264,99.513z M94.776,84.192c-1.735-1.743-3.466-3.481-5.272-5.294
		c-0.963,1.089-1.986,2.246-2.948,3.334c1.76,1.764,3.448,3.453,5.081,5.089C92.679,86.283,93.774,85.19,94.776,84.192z
		 M81.079,88.742c1.583,1.574,3.095,3.079,4.553,4.528c1.064-1.067,2.174-2.182,3.21-3.221c-1.542-1.541-3.153-3.151-4.802-4.8
		C83.081,86.381,82.079,87.563,81.079,88.742z M109.031,110.297c-1.676-1.673-3.286-3.279-4.731-4.721
		c-1.042,1.04-2.15,2.146-3.148,3.142c1.411,1.418,2.917,2.93,4.458,4.478C106.731,112.244,107.914,111.242,109.031,110.297z
		 M82.75,96.168c-1.408-1.409-2.856-2.858-4.311-4.313c-0.88,1.044-1.875,2.224-2.781,3.297c1.415,1.425,2.751,2.771,4.044,4.072
		C80.747,98.176,81.836,97.084,82.75,96.168z M99.168,118.646c1.123-0.949,2.32-1.961,3.436-2.903
		c-1.518-1.507-2.965-2.944-4.348-4.317c-1.032,1.023-2.129,2.111-3.172,3.145C96.39,115.873,97.733,117.213,99.168,118.646z
		 M73.661,110.53c-0.908,0.922-1.86,1.873-2.786,2.848c-0.106,0.112-0.141,0.383-0.089,0.541c0.542,1.654,1.34,3.173,2.307,4.367
		c1.41-1.411,2.809-2.811,4.167-4.171C76.15,113.01,74.945,111.81,73.661,110.53z M83.7,120.791
		c-1.344-1.361-2.551-2.582-3.678-3.724c-1.312,1.313-2.694,2.695-4.23,4.232c1.487,0.727,2.972,1.471,4.479,2.167
		c0.196,0.091,0.588,0.022,0.751-0.125C81.979,122.478,82.894,121.567,83.7,120.791z M94.345,90.104
		c1.178,1.174,2.4,2.391,3.561,3.547c1.059-1.061,2.17-2.172,3.235-3.237c-1.169-1.173-2.385-2.392-3.549-3.558
		C96.54,87.909,95.447,89.003,94.345,90.104z M83.2,108.345c-1.176-1.178-2.403-2.406-3.552-3.557c-1.02,1.012-2.114,2.1-3.103,3.08
		c1.193,1.191,2.424,2.42,3.562,3.556C81.124,110.412,82.218,109.322,83.2,108.345z M88.748,108.3
		c1.192,1.188,2.409,2.398,3.54,3.523c1.07-1.05,2.187-2.146,3.257-3.195c-1.179-1.176-2.397-2.389-3.588-3.576
		C90.917,106.104,89.833,107.201,88.748,108.3z M89.586,114.658c-1.221-1.22-2.437-2.434-3.537-3.532
		c-1.051,1.032-2.165,2.125-3.179,3.121c1.163,1.169,2.375,2.387,3.546,3.564C87.457,116.776,88.551,115.688,89.586,114.658z
		 M82.456,101.968c1.182,1.184,2.396,2.399,3.542,3.547c1.062-1.053,2.171-2.152,3.212-3.184c-1.167-1.173-2.379-2.392-3.54-3.56
		C84.619,99.815,83.526,100.903,82.456,101.968z M107.445,96.749c-1.191-1.187-2.408-2.398-3.574-3.56
		c-1.052,1.055-2.159,2.164-3.196,3.204c1.166,1.174,2.381,2.396,3.543,3.566C105.277,98.906,106.372,97.817,107.445,96.749z
		 M95.185,96.402c-1.206-1.209-2.423-2.427-3.509-3.516c-1.068,1.055-2.181,2.154-3.175,3.136c1.143,1.156,2.347,2.377,3.515,3.559
		C93.055,98.538,94.147,97.443,95.185,96.402z M98.269,105.983c1.11-1.118,2.199-2.216,3.242-3.268
		c-1.193-1.189-2.427-2.421-3.514-3.505c-1.066,1.053-2.181,2.153-3.262,3.222C95.868,103.57,97.063,104.772,98.269,105.983z
		 M96.125,121.176c-1.386-1.384-2.624-2.618-3.761-3.753c-1.05,1.043-2.158,2.144-3.312,3.291c0.729,0.722,1.504,1.521,2.324,2.271
		c0.16,0.146,0.547,0.219,0.74,0.13C93.465,122.497,94.791,121.828,96.125,121.176z M76.946,102.139
		c-1.292-1.29-2.542-2.538-3.859-3.854c-0.602,1.226-1.257,2.529-1.875,3.85c-0.09,0.193-0.107,0.558,0.012,0.69
		c0.792,0.885,1.631,1.728,2.42,2.548C74.866,104.177,75.953,103.112,76.946,102.139z M106.567,84.936
		c-1.154-1.154-2.371-2.372-3.496-3.498c-0.91,0.882-1.867,1.81-2.776,2.691c1.191,1.187,2.41,2.401,3.562,3.549
		C104.75,86.774,105.688,85.825,106.567,84.936z M106.731,90.351c1.176,1.181,2.403,2.412,3.533,3.546
		c0.837-0.837,1.765-1.765,2.622-2.621c-1.156-1.168-2.366-2.39-3.554-3.589C108.454,88.586,107.537,89.525,106.731,90.351z
		 M115.734,93.954c-1.007,0.989-1.941,1.907-2.796,2.748c1.42,1.419,2.865,2.861,4.353,4.348
		C117.92,98.444,117.502,96.063,115.734,93.954z M93.254,77.022c1.499,1.508,2.938,2.956,4.306,4.332
		c0.879-0.878,1.806-1.804,2.785-2.781C98.287,76.812,95.909,76.389,93.254,77.022z M70.01,109.135
		c0.472-0.494,0.813-0.853,0.974-1.021c-0.347-0.446-0.621-0.798-0.974-1.251C70.01,107.625,70.01,108.27,70.01,109.135z
		 M85.162,124.282c0.888,0,1.538,0,2.228,0c-0.373-0.428-0.684-0.783-0.979-1.121C85.985,123.543,85.64,123.853,85.162,124.282z"/>
</g>
</svg>
