<?xml version="1.0" encoding="utf-8"?>
<!-- Generator: Adobe Illustrator 16.0.0, SVG Export Plug-In . SVG Version: 6.00 Build 0)  -->
<!DOCTYPE svg PUBLIC "-//W3C//DTD SVG 1.1//EN" "http://www.w3.org/Graphics/SVG/1.1/DTD/svg11.dtd">
<svg version="1.1" id="Layer_1" xmlns="http://www.w3.org/2000/svg" xmlns:xlink="http://www.w3.org/1999/xlink" x="0px" y="0px"
	 width="157px" height="179px" viewBox="0 0 157 179" enable-background="new 0 0 157 179" xml:space="preserve">
<rect x="2" y="1" fill-rule="evenodd" clip-rule="evenodd" fill="#FFFFFF" stroke="#627D53" stroke-width="2" stroke-miterlimit="10" width="155" height="177"/>
<rect x="1" fill-rule="evenodd" clip-rule="evenodd" fill="#627D53" width="155" height="56"/>
<g>
	<path fill="#FFFFFF" d="M34.798,21.582h2.831l2.166,13.3h-2.09l-0.38-2.641v0.038H34.95l-0.38,2.603h-1.938L34.798,21.582z
		 M37.078,30.474L36.147,23.9h-0.038l-0.912,6.574H37.078z"/>
	<path fill="#FFFFFF" d="M41.562,23.482h-2.185v-1.9h6.46v1.9h-2.185v11.4h-2.09V23.482z"/>
	<path fill="#FFFFFF" d="M46.844,21.582h2.09v5.415h2.242v-5.415h2.09v13.3h-2.09v-5.985h-2.242v5.985h-2.09V21.582z"/>
	<path fill="#FFFFFF" d="M54.824,21.582h2.09v11.4h3.439v1.9h-5.529V21.582z"/>
	<path fill="#FFFFFF" d="M61.36,21.582h5.7v1.9h-3.61v3.515h2.869v1.9H63.45v4.085h3.61v1.9h-5.7V21.582z"/>
	<path fill="#FFFFFF" d="M69.891,23.482h-2.185v-1.9h6.46v1.9h-2.185v11.4h-2.09V23.482z"/>
	<path fill="#FFFFFF" d="M75.173,21.582h2.09v13.3h-2.09V21.582z"/>
	<path fill="#FFFFFF" d="M79.477,34.217c-0.526-0.57-0.789-1.374-0.789-2.413V24.66c0-1.038,0.263-1.843,0.789-2.413
		c0.525-0.57,1.289-0.855,2.289-0.855c1.001,0,1.764,0.285,2.29,0.855c0.525,0.57,0.788,1.375,0.788,2.413v1.406h-1.976v-1.539
		c0-0.823-0.349-1.235-1.046-1.235c-0.695,0-1.045,0.412-1.045,1.235v7.429c0,0.811,0.35,1.216,1.045,1.216
		c0.697,0,1.046-0.405,1.046-1.216v-2.033h1.976v1.881c0,1.039-0.263,1.843-0.788,2.413c-0.526,0.57-1.289,0.855-2.29,0.855
		C80.766,35.072,80.002,34.787,79.477,34.217z"/>
	<path fill="#FFFFFF" d="M89.793,34.217c-0.525-0.57-0.789-1.374-0.789-2.413V24.66c0-1.038,0.264-1.843,0.789-2.413
		c0.525-0.57,1.289-0.855,2.289-0.855c1.001,0,1.764,0.285,2.29,0.855c0.525,0.57,0.788,1.375,0.788,2.413v1.406h-1.976v-1.539
		c0-0.823-0.349-1.235-1.046-1.235c-0.695,0-1.045,0.412-1.045,1.235v7.429c0,0.811,0.35,1.216,1.045,1.216
		c0.697,0,1.046-0.405,1.046-1.216v-2.033h1.976v1.881c0,1.039-0.263,1.843-0.788,2.413c-0.526,0.57-1.289,0.855-2.29,0.855
		C91.082,35.072,90.318,34.787,89.793,34.217z"/>
	<path fill="#FFFFFF" d="M96.414,21.582h2.09v11.4h3.439v1.9h-5.529V21.582z"/>
	<path fill="#FFFFFF" d="M103.672,34.208c-0.531-0.577-0.798-1.403-0.798-2.479V21.582h2.09V31.88c0,0.456,0.092,0.786,0.275,0.988
		c0.184,0.203,0.446,0.304,0.788,0.304c0.343,0,0.605-0.101,0.789-0.304c0.184-0.202,0.275-0.532,0.275-0.988V21.582h2.014v10.146
		c0,1.077-0.266,1.903-0.797,2.479c-0.533,0.576-1.306,0.864-2.318,0.864C104.977,35.072,104.204,34.784,103.672,34.208z"/>
	<path fill="#FFFFFF" d="M110.588,21.582h3.154c1.076,0,1.861,0.25,2.355,0.75s0.74,1.27,0.74,2.308v0.532
		c0,0.684-0.11,1.242-0.332,1.672c-0.222,0.431-0.561,0.741-1.016,0.931v0.038c1.037,0.354,1.557,1.279,1.557,2.774v1.14
		c0,1.026-0.269,1.808-0.807,2.346c-0.539,0.539-1.327,0.808-2.365,0.808h-3.287V21.582z M113.494,26.997
		c0.418,0,0.732-0.108,0.941-0.323s0.313-0.576,0.313-1.083V24.85c0-0.481-0.085-0.829-0.256-1.045
		c-0.171-0.215-0.44-0.323-0.808-0.323h-1.007v3.515H113.494z M113.875,32.982c0.367,0,0.639-0.098,0.816-0.294
		s0.266-0.535,0.266-1.017v-1.159c0-0.608-0.104-1.029-0.313-1.263s-0.555-0.352-1.036-0.352h-0.931v4.085H113.875z"/>
	<path fill="#FFFFFF" d="M118.682,34.208c-0.52-0.577-0.779-1.403-0.779-2.479v-0.76h1.977v0.912c0,0.861,0.36,1.292,1.082,1.292
		c0.355,0,0.624-0.104,0.809-0.313c0.183-0.209,0.275-0.548,0.275-1.017c0-0.557-0.127-1.048-0.381-1.473
		c-0.254-0.424-0.722-0.934-1.406-1.529c-0.861-0.76-1.463-1.447-1.805-2.062c-0.342-0.614-0.513-1.308-0.513-2.081
		c0-1.051,0.267-1.865,0.798-2.441c0.532-0.576,1.305-0.865,2.318-0.865c1,0,1.758,0.289,2.27,0.865
		c0.514,0.577,0.77,1.403,0.77,2.479v0.551h-1.975v-0.684c0-0.456-0.09-0.789-0.267-0.998c-0.178-0.209-0.437-0.313-0.779-0.313
		c-0.696,0-1.045,0.424-1.045,1.273c0,0.481,0.13,0.931,0.39,1.349c0.26,0.418,0.731,0.924,1.416,1.52
		c0.873,0.76,1.475,1.451,1.805,2.071c0.329,0.621,0.494,1.349,0.494,2.185c0,1.089-0.27,1.925-0.809,2.508
		c-0.537,0.583-1.32,0.874-2.346,0.874C119.967,35.072,119.201,34.784,118.682,34.208z"/>
</g>
<g>
	<path fill-rule="evenodd" clip-rule="evenodd" fill="#627D53" d="M82.394,133.477c-2.503-1.932-4.86-3.76-7.227-5.574
		c-2.213-1.697-4.458-3.354-6.649-5.076c-3.682-2.895-4.143-8.145-0.901-11.488c5.106-5.266,10.309-10.438,15.474-15.646
		c0.104-0.105,0.246-0.172,0.485-0.332c1.875,1.652,3.791,3.283,5.641,4.986c2.821,2.6,6.02,3.424,9.551,1.824
		c3.527-1.6,5.089-4.514,4.898-8.373c-0.007-0.139,0.039-0.279,0.063-0.436c3.074,1.889,4.028,4.709,2.268,7.752
		c-0.928,1.604-2.287,3.094-3.772,4.209c-5.368,4.031-10.87,7.879-16.321,11.797c-0.375,0.268-0.737,0.553-1.209,0.908
		c2.749,3.088,5.454,6.129,8.161,9.166c1.443,1.621,2.904,3.225,4.332,4.857c2.875,3.285,1.45,8.715-2.708,10
		c-8.974,2.77-17.967,5.465-26.965,8.152c-2.772,0.826-5.168-0.494-6.127-3.238c-0.974-2.787,0.096-5.119,2.9-6.24
		c5.604-2.238,11.215-4.459,16.822-6.688C81.475,133.891,81.831,133.723,82.394,133.477z"/>
	<path fill-rule="evenodd" clip-rule="evenodd" fill="#627D53" d="M62.693,116.652c0.121,6.369,4.811,8.84,8.808,11.971
		c-2.893,2.643-5.665,5.184-8.446,7.713c-8.788,7.996-17.589,15.975-26.359,23.988c-1.627,1.488-3.424,2.117-5.538,1.43
		c-3.612-1.174-4.622-5.176-2.01-8.084c4.763-5.303,9.58-10.557,14.374-15.832c6.045-6.652,12.089-13.305,18.131-19.957
		C61.894,117.615,62.116,117.334,62.693,116.652z"/>
	<path fill-rule="evenodd" clip-rule="evenodd" fill="#627D53" d="M76.322,86.42c-3.833,4.271-7.513,8.389-11.214,12.488
		c-1.627,1.801-3.537,2.016-5.358,0.664c-1.769-1.316-2.25-3.371-0.992-5.182c4.269-6.146,8.575-12.27,12.947-18.342
		c1.542-2.143,4.479-2.619,6.646-1.09c6.915,4.883,13.801,9.809,20.635,14.803c2.64,1.93,3.188,5.611,1.445,8.168
		c-1.657,2.434-5.646,3.168-8.517,1.396c-1.479-0.912-2.782-2.125-4.127-3.248C83.994,92.904,80.219,89.705,76.322,86.42z"/>
	<path fill-rule="evenodd" clip-rule="evenodd" fill="#627D53" d="M114.705,73.74c5.954,0.096,10.685,4.951,10.596,10.875
		c-0.09,5.969-5.045,10.711-11.064,10.586c-5.813-0.121-10.55-5.072-10.426-10.898C103.937,78.311,108.751,73.645,114.705,73.74z"/>
	<path fill-rule="evenodd" clip-rule="evenodd" fill="#627D53" d="M94.61,113.924c3.073-2.084,6.083-4.125,9.163-6.213
		c0.497,0.857,1.034,1.523,1.296,2.285c0.722,2.104,2.228,2.559,4.281,2.605c5.001,0.113,9.996,0.428,14.993,0.686
		c2.504,0.129,4.049,1.668,4.055,3.963c0.007,2.305-1.485,3.787-4.064,3.924c-6.798,0.365-13.601,0.658-20.397,1.055
		c-2.411,0.139-4.167-0.732-5.474-2.75C97.263,117.623,95.946,115.84,94.61,113.924z"/>
</g>
</svg>
