<?xml version="1.0" encoding="utf-8"?>
<!-- Generator: Adobe Illustrator 16.0.0, SVG Export Plug-In . SVG Version: 6.00 Build 0)  -->
<!DOCTYPE svg PUBLIC "-//W3C//DTD SVG 1.1//EN" "http://www.w3.org/Graphics/SVG/1.1/DTD/svg11.dtd">
<svg version="1.1" id="Layer_1" xmlns="http://www.w3.org/2000/svg" xmlns:xlink="http://www.w3.org/1999/xlink" x="0px" y="0px"
	 width="16px" height="16px" viewBox="0 0 16 16" enable-background="new 0 0 16 16" xml:space="preserve">
<g>
	<path fill="#0071BC" d="M3.691,1.987c0-0.179-0.005-0.346,0.001-0.516c0.013-0.394,0.176-0.715,0.503-0.939
		c0.65-0.443,1.539-0.074,1.693,0.712c0.034,0.169,0.024,0.349,0.032,0.523c0.002,0.07,0,0.14,0,0.216c0.383,0,0.756,0,1.143,0
		c0-0.099-0.005-0.195,0-0.289C7.07,1.532,7.066,1.365,7.1,1.207c0.116-0.533,0.62-0.9,1.155-0.862
		C8.787,0.384,9.233,0.822,9.281,1.36c0.013,0.172,0.008,0.344,0.01,0.517c0,0.033,0,0.066,0,0.104c0.385,0,0.756,0,1.143,0
		c0-0.159,0-0.315-0.002-0.474c0-0.172,0.033-0.336,0.104-0.493c0.215-0.48,0.713-0.748,1.216-0.653
		c0.503,0.097,0.888,0.544,0.905,1.066c0.008,0.181,0.002,0.365,0.002,0.562c0.15,0,0.293-0.001,0.438,0
		c0.286,0,0.562,0.056,0.815,0.19c0.63,0.336,0.973,0.868,0.977,1.582c0.007,2.715,0.002,5.434,0.002,8.149
		c0,0.61,0.001,1.221,0.001,1.833c-0.001,0.9-0.608,1.627-1.493,1.779c-0.19,0.029-0.389,0.023-0.582,0.023
		c-2.603,0.003-5.205,0-7.806,0c-0.625,0-1.25,0.003-1.874,0.003c-0.899-0.003-1.622-0.601-1.778-1.483
		c-0.034-0.189-0.027-0.388-0.027-0.584c-0.002-2.646,0-5.293,0-7.939c0-0.584-0.002-1.169,0-1.753
		c0.002-0.902,0.61-1.627,1.498-1.776c0.174-0.03,0.351-0.019,0.525-0.026C3.461,1.985,3.57,1.987,3.691,1.987z M2.375,4.597
		c0,0.047,0,0.083,0,0.121c0,0.915,0,1.832,0,2.745c0,2.088,0,4.175,0,6.264c0,0.463,0.31,0.78,0.764,0.78c3.316,0,6.632,0,9.951,0
		c0.447,0,0.759-0.317,0.759-0.766c0-3.009,0-6.015,0-9.024c0-0.118,0-0.118-0.12-0.118c-3.744,0-7.491,0-11.237,0
		C2.46,4.597,2.426,4.597,2.375,4.597z M5.295,2.506c0-0.321,0-0.643,0-0.964c0-0.051-0.001-0.102-0.01-0.153
		c-0.04-0.235-0.231-0.408-0.455-0.42c-0.219-0.01-0.425,0.136-0.486,0.36C4.326,1.394,4.318,1.461,4.318,1.53
		c0,0.373,0,0.744,0,1.118c0,0.293-0.004,0.588,0,0.881C4.323,3.875,4.617,4.12,4.926,4.036c0.218-0.059,0.367-0.263,0.368-0.519
		C5.296,3.181,5.295,2.844,5.295,2.506z M7.69,2.506L7.69,2.506c0,0.352-0.005,0.707,0.002,1.059c0.004,0.25,0.203,0.46,0.439,0.485
		c0.234,0.025,0.456-0.142,0.517-0.389c0.014-0.053,0.019-0.111,0.019-0.167c0-0.658,0-1.316,0-1.975
		c0-0.041-0.003-0.084-0.01-0.126C8.621,1.159,8.425,0.979,8.196,0.969c-0.225-0.01-0.431,0.148-0.487,0.38
		C7.695,1.409,7.69,1.471,7.69,1.532C7.688,1.856,7.69,2.184,7.69,2.506z M11.063,2.506L11.063,2.506
		c-0.002,0.176-0.002,0.351-0.002,0.527c0.002,0.175-0.002,0.35,0.004,0.525c0.008,0.322,0.303,0.554,0.6,0.479
		c0.225-0.058,0.373-0.266,0.373-0.535c0.002-0.663,0-1.327,0-1.99c0-0.042-0.003-0.084-0.01-0.126
		c-0.047-0.259-0.27-0.436-0.519-0.415c-0.245,0.018-0.442,0.237-0.446,0.501C11.061,1.819,11.063,2.163,11.063,2.506z"/>
	<path fill="#0071BC" d="M5.229,8.726c0,0.564,0,1.126,0,1.692c-0.634,0-1.266,0-1.905,0c0-0.562,0-1.123,0-1.692
		C3.955,8.726,4.589,8.726,5.229,8.726z"/>
	<path fill="#0071BC" d="M5.879,10.42c0-0.568,0-1.13,0-1.696c0.636,0,1.265,0,1.905,0c0,0.563,0,1.125,0,1.696
		C7.154,10.42,6.521,10.42,5.879,10.42z"/>
	<path fill="#0071BC" d="M10.346,10.42c-0.635,0-1.268,0-1.904,0c-0.002-0.026-0.006-0.051-0.006-0.074
		c0-0.512,0.001-1.021-0.001-1.533c0-0.074,0.018-0.094,0.095-0.094c0.58,0.002,1.156,0.002,1.738,0.002
		c0.023,0,0.048,0.003,0.078,0.005C10.346,9.29,10.346,9.854,10.346,10.42z"/>
	<path fill="#0071BC" d="M10.998,10.42c0-0.568,0-1.128,0-1.696c0.637,0,1.266,0,1.905,0c0,0.563,0,1.128,0,1.696
		C12.273,10.42,11.641,10.42,10.998,10.42z"/>
	<path fill="#0071BC" d="M3.321,8.14c0-0.564,0-1.125,0-1.69c0.034-0.002,0.063-0.005,0.095-0.005c0.576,0,1.152,0,1.728,0
		c0.051,0,0.092-0.007,0.092,0.07C5.232,7.041,5.232,7.571,5.232,8.099c0,0.012-0.002,0.022-0.003,0.042
		C4.594,8.14,3.962,8.14,3.321,8.14z"/>
	<path fill="#0071BC" d="M7.79,8.145c-0.64,0-1.27,0-1.908,0C5.877,8.113,5.877,8.087,5.877,8.058c0-0.506,0-1.017-0.002-1.522
		c0-0.07,0.017-0.092,0.088-0.092c0.583,0.005,1.163,0.002,1.744,0c0.055,0,0.087,0.005,0.087,0.077
		c-0.002,0.521,0,1.046-0.002,1.573C7.792,8.106,7.79,8.121,7.79,8.145z"/>
	<path fill="#0071BC" d="M10.346,8.143c-0.635,0-1.265,0-1.905,0C8.438,8.113,8.436,8.087,8.436,8.06c0-0.508,0-1.017-0.002-1.525
		c0-0.07,0.017-0.092,0.088-0.092c0.584,0.002,1.167,0.002,1.746,0c0.051,0,0.084,0.002,0.084,0.07
		c-0.002,0.528-0.001,1.058-0.002,1.583C10.351,8.111,10.348,8.123,10.346,8.143z"/>
	<path fill="#0071BC" d="M12.906,6.448c0,0.566,0,1.128,0,1.694c-0.635,0-1.27,0-1.908,0c-0.002-0.029-0.005-0.053-0.005-0.078
		c0-0.511,0.003-1.021,0-1.532c0-0.063,0.01-0.089,0.081-0.089c0.594,0.005,1.186,0.002,1.778,0.002
		C12.868,6.445,12.881,6.448,12.906,6.448z"/>
	<path fill="#0071BC" d="M3.322,11.004c0.638,0,1.267,0,1.906,0c0.001,0.031,0.003,0.058,0.003,0.085c0,0.506,0,1.012,0.002,1.518
		c0,0.07-0.013,0.097-0.093,0.097c-0.581-0.002-1.162-0.002-1.743,0c-0.053,0-0.083-0.008-0.083-0.072
		c0.001-0.53,0.001-1.059,0.001-1.586C3.318,11.035,3.32,11.023,3.322,11.004z"/>
	<path fill="#0071BC" d="M5.877,11.004c0.643,0,1.273,0,1.913,0c0,0.029,0.002,0.058,0.002,0.085c0,0.506,0,1.009,0.002,1.518
		c0,0.082-0.027,0.097-0.102,0.097c-0.574-0.002-1.145-0.002-1.719,0c-0.078,0-0.102-0.017-0.102-0.097
		c0.005-0.504,0.002-1.005,0.002-1.509C5.877,11.069,5.877,11.043,5.877,11.004z"/>
	<path fill="#0071BC" d="M8.44,11.004c0.638,0,1.268,0,1.907,0c0,0.026,0.004,0.051,0.004,0.077c0,0.511-0.001,1.021,0.002,1.532
		c0,0.073-0.023,0.09-0.092,0.09c-0.579-0.002-1.156-0.002-1.735,0c-0.051,0-0.092,0.005-0.092-0.072
		c0.002-0.53,0.001-1.059,0.001-1.584C8.436,11.037,8.438,11.025,8.44,11.004z"/>
	<path fill="#0071BC" d="M12.906,11.004c0.002,0.033,0.004,0.061,0.004,0.087c0,0.506-0.002,1.012,0.003,1.518
		c0.001,0.078-0.022,0.095-0.095,0.095c-0.581-0.002-1.159-0.002-1.738,0c-0.072,0-0.087-0.026-0.087-0.095
		c0.003-0.508,0.003-1.014,0-1.522c0-0.053,0.003-0.09,0.075-0.09c0.596,0.003,1.192,0.003,1.787,0.003
		C12.869,10.996,12.883,11.001,12.906,11.004z"/>
</g>
</svg>
