<?xml version="1.0" encoding="utf-8"?>
<!-- Generator: Adobe Illustrator 16.0.0, SVG Export Plug-In . SVG Version: 6.00 Build 0)  -->
<!DOCTYPE svg PUBLIC "-//W3C//DTD SVG 1.1//EN" "http://www.w3.org/Graphics/SVG/1.1/DTD/svg11.dtd">
<svg version="1.1" id="Layer_1" xmlns="http://www.w3.org/2000/svg" xmlns:xlink="http://www.w3.org/1999/xlink" x="0px" y="0px"
	 width="16px" height="16px" viewBox="0 0 16 16" enable-background="new 0 0 16 16" xml:space="preserve">
<path fill-rule="evenodd" clip-rule="evenodd" d="M9.834,10.503c-1.381,1.117-2.936,1.571-4.677,1.308
	c-1.466-0.223-2.676-0.927-3.615-2.074c-1.851-2.264-1.727-5.548,0.276-7.671c2.019-2.138,5.297-2.442,7.674-0.71
	c0.878,0.641,1.53,1.467,1.947,2.472c0.419,1.008,0.54,2.056,0.374,3.134c-0.166,1.074-0.611,2.025-1.317,2.873
	c0.495,0.014,0.854,0.267,1.198,0.561c1.183,1.012,2.368,2.017,3.552,3.024c0.475,0.404,0.644,1.019,0.433,1.551
	c-0.306,0.769-1.249,1.038-1.95,0.553c-0.113-0.078-0.219-0.175-0.309-0.28c-1.054-1.232-2.105-2.469-3.156-3.706
	C10.015,11.244,9.847,10.913,9.834,10.503z M9.94,6.061c0-2.141-1.735-3.88-3.872-3.882c-2.152-0.001-3.892,1.732-3.893,3.88
	C2.175,8.203,3.913,9.94,6.058,9.94C8.203,9.939,9.94,8.205,9.94,6.061z"/>
</svg>
