<?xml version="1.0" encoding="utf-8"?>
<!-- Generator: Adobe Illustrator 16.0.0, SVG Export Plug-In . SVG Version: 6.00 Build 0)  -->
<!DOCTYPE svg PUBLIC "-//W3C//DTD SVG 1.1//EN" "http://www.w3.org/Graphics/SVG/1.1/DTD/svg11.dtd">
<svg version="1.1" id="Layer_1" xmlns="http://www.w3.org/2000/svg" xmlns:xlink="http://www.w3.org/1999/xlink" x="0px" y="0px"
	 width="20.125px" height="16px" viewBox="0 0 20.125 16" enable-background="new 0 0 20.125 16" xml:space="preserve">
<g>
	<path fill="#272727" d="M10.738,7.751h-0.264c0,1.224-0.496,2.332-1.299,3.134c-0.803,0.804-1.909,1.299-3.133,1.299
		c-1.225,0-2.332-0.495-3.134-1.299C2.105,10.083,1.61,8.976,1.61,7.751c0-1.225,0.496-2.332,1.298-3.134
		c0.803-0.802,1.909-1.298,3.134-1.298c1.224,0,2.331,0.496,3.133,1.298c0.803,0.803,1.299,1.91,1.299,3.134H10.738h0.264
		c0-2.738-2.222-4.959-4.959-4.959c-2.739,0-4.959,2.221-4.959,4.959c0,2.739,2.22,4.959,4.959,4.959
		c2.738,0,4.959-2.221,4.959-4.959H10.738z"/>
	<path fill="#272727" d="M10.738,7.751v-0.5h-0.264h-0.5v0.5c0,1.087-0.439,2.067-1.152,2.781c-0.714,0.714-1.692,1.152-2.78,1.152
		c-1.089,0-2.066-0.438-2.78-1.152C2.549,9.818,2.11,8.839,2.11,7.751c0-1.088,0.439-2.067,1.152-2.781
		c0.714-0.713,1.692-1.151,2.781-1.152c1.087,0,2.065,0.439,2.78,1.152c0.713,0.715,1.152,1.692,1.152,2.781v0.5h0.764h0.264h0.5
		v-0.5c0-3.015-2.445-5.458-5.459-5.459c-3.016,0-5.458,2.444-5.459,5.459c0,3.015,2.443,5.459,5.459,5.459
		c3.014,0,5.459-2.444,5.459-5.459v-0.5h-0.764V7.751v0.5h0.264v-0.5h-0.5c0,1.233-0.499,2.344-1.307,3.153
		c-0.809,0.809-1.92,1.307-3.153,1.307c-1.233,0-2.345-0.498-3.153-1.307c-0.808-0.809-1.305-1.92-1.306-3.153
		c0-1.233,0.498-2.344,1.306-3.153c0.809-0.808,1.92-1.306,3.153-1.306c1.232,0,2.344,0.499,3.153,1.306
		c0.808,0.809,1.307,1.92,1.307,3.153h0.5v-0.5h-0.264h-0.264v0.5h0.5c0-1.361-0.553-2.596-1.445-3.488
		C8.638,3.372,7.403,2.818,6.042,2.819c-1.361,0-2.597,0.553-3.488,1.445C1.662,5.155,1.109,6.391,1.11,7.751
		c0,1.361,0.552,2.596,1.445,3.488c0.891,0.894,2.126,1.445,3.488,1.445c1.36,0,2.595-0.552,3.487-1.445
		c0.893-0.892,1.445-2.127,1.445-3.488h-0.5v0.5h0.264V7.751z"/>
	<path fill="#272727" d="M10.738,7.751V7.376h-0.264H10.1v0.375c0,1.122-0.453,2.133-1.188,2.869
		c-0.737,0.737-1.747,1.189-2.869,1.189c-1.123,0-2.133-0.452-2.869-1.188c-0.735-0.736-1.188-1.748-1.188-2.87
		c0-1.123,0.453-2.133,1.188-2.869C3.91,4.147,4.919,3.694,6.042,3.694c1.122,0,2.132,0.453,2.869,1.188
		C9.646,5.619,10.1,6.629,10.1,7.751v0.375h0.639h0.264h0.375V7.751c0-2.946-2.389-5.333-5.334-5.334
		c-2.947,0-5.334,2.389-5.334,5.334c0,2.946,2.387,5.334,5.334,5.334c2.946,0,5.334-2.389,5.334-5.334V7.376h-0.639V7.751v0.375
		h0.264V7.751h-0.375c0,1.267-0.514,2.411-1.344,3.242c-0.831,0.83-1.974,1.343-3.241,1.343c-1.267,0-2.411-0.513-3.242-1.343
		c-0.83-0.831-1.342-1.975-1.342-3.242c0-1.267,0.512-2.411,1.342-3.241c0.831-0.83,1.975-1.343,3.242-1.343
		c1.267,0,2.41,0.513,3.241,1.343c0.83,0.831,1.344,1.975,1.344,3.241h0.375V7.376h-0.264h-0.264v0.375h0.375
		c0-1.327-0.539-2.53-1.408-3.399C8.572,3.483,7.369,2.943,6.042,2.944c-1.328,0-2.53,0.539-3.399,1.408
		c-0.87,0.869-1.409,2.073-1.408,3.399c0,1.327,0.538,2.53,1.408,3.4c0.869,0.87,2.072,1.408,3.399,1.408
		c1.326,0,2.53-0.538,3.399-1.409c0.869-0.869,1.408-2.072,1.408-3.399h-0.375v0.375h0.264V7.751z"/>
	<path fill="#272727" d="M10.738,7.751h0.5V7.376v-0.5h-0.764H10.1H9.6v0.875c0,0.986-0.396,1.868-1.042,2.515
		c-0.649,0.648-1.529,1.042-2.515,1.043c-0.987-0.001-1.867-0.395-2.516-1.042C2.881,9.62,2.485,8.737,2.485,7.751
		c0-0.986,0.396-1.868,1.042-2.516l-0.001,0C4.175,4.59,5.056,4.195,6.042,4.194c0.985,0,1.867,0.396,2.515,1.042V5.235
		C9.204,5.884,9.599,6.766,9.6,7.751v0.375v0.5h1.139h0.264h0.375h0.5V7.751c0-3.222-2.612-5.833-5.834-5.834
		C2.819,1.918,0.209,4.53,0.208,7.751c0,3.222,2.611,5.834,5.834,5.834c3.222,0,5.834-2.612,5.834-5.834V7.376v-0.5h-1.139h-0.5
		v0.875v0.375v0.5h0.764h0.5V7.751v-0.5h-0.875h-0.5v0.5c0,1.13-0.456,2.145-1.197,2.888l0,0c-0.742,0.74-1.757,1.196-2.887,1.196
		c-1.131,0-2.146-0.456-2.888-1.196l0,0C2.414,9.897,1.959,8.883,1.958,7.751c0-1.13,0.455-2.146,1.196-2.888v0
		c0.743-0.741,1.757-1.196,2.888-1.197c1.13,0,2.145,0.456,2.887,1.196l0,0c0.741,0.743,1.197,1.758,1.197,2.888v0.5h0.875h0.5
		V7.376v-0.5h-0.764h-0.264h-0.5v0.875v0.5h0.875h0.5v-0.5c0-1.464-0.596-2.794-1.555-3.753C8.837,3.04,7.507,2.444,6.044,2.444
		l-0.021,0l0.02,0.5l0.006-0.5H6.041c-1.463,0-2.793,0.596-3.751,1.555v0C1.33,4.956,0.735,6.287,0.735,7.75v0.008l0.5-0.006h-0.5
		c0,1.463,0.595,2.794,1.555,3.753c0.958,0.96,2.289,1.555,3.753,1.555c1.463,0,2.794-0.595,3.752-1.556l0,0
		c0.959-0.958,1.555-2.289,1.555-3.752v-0.5h-0.875h-0.5v0.875v0.5h0.764h0.5V7.751H10.738h-0.5v0.375h0.5v-0.5h-0.264v0.5h0.5
		V7.751h-0.5v0.5h0.375v-0.5h-0.5c0,1.19-0.482,2.265-1.262,3.045l0,0c-0.78,0.781-1.856,1.263-3.045,1.263
		c-1.19,0-2.266-0.481-3.046-1.262c-0.78-0.781-1.262-1.856-1.262-3.046V7.748V7.745L1.384,7.75h0.351V7.745L1.384,7.75h0.351
		c0-1.189,0.482-2.264,1.262-3.044l0,0c0.78-0.78,1.854-1.262,3.044-1.262V3.086L6.036,3.444h0.004V3.086L6.036,3.444h0.013l0.013,0
		L6.044,2.989v0.455l0.018,0L6.044,2.989v0.455c1.189,0,2.264,0.482,3.043,1.262c0.779,0.781,1.262,1.855,1.262,3.046h0.5v-0.5
		h-0.375v0.5h0.5V7.376h-0.5v0.5h0.264h0.264v-0.5h-0.5v0.375h0.5v-0.5h-0.375v0.5h0.5c0-1.403-0.571-2.675-1.49-3.595l0,0
		c-0.919-0.919-2.191-1.49-3.594-1.489c-1.403,0-2.676,0.57-3.595,1.489v0c-0.92,0.919-1.489,2.192-1.489,3.595
		c0,1.403,0.569,2.675,1.488,3.595h0c0.919,0.92,2.192,1.489,3.595,1.489c1.403,0,2.675-0.569,3.594-1.489l0,0
		c0.919-0.919,1.49-2.191,1.49-3.595h-0.5v0.5h0.375v-0.5h-0.5v0.375h0.5v-0.5h-0.264v0.5h0.5V7.751V7.376h-0.5v0.5h0.639v-0.5h-0.5
		v0.375c0,1.336-0.54,2.542-1.416,3.418c-0.877,0.876-2.082,1.416-3.418,1.416c-1.337,0-2.542-0.54-3.418-1.416
		c-0.875-0.877-1.415-2.082-1.416-3.418c0-2.669,2.164-4.834,4.834-4.834c2.669,0,4.834,2.165,4.834,4.834v0.375h0.5v-0.5h-0.375
		h-0.264H10.1v0.5h0.5V7.751c0-1.258-0.511-2.397-1.335-3.222L9.263,4.526l0.002,0.002C8.439,3.704,7.3,3.193,6.042,3.194
		c-1.259,0-2.398,0.511-3.222,1.334L2.818,4.53l0.001-0.001C1.995,5.354,1.484,6.493,1.485,7.751c0,1.257,0.51,2.398,1.334,3.223
		c0.825,0.825,1.964,1.336,3.223,1.335C7.3,12.311,8.44,11.8,9.265,10.974C10.09,10.15,10.6,9.009,10.6,7.751V7.376h-0.5v0.5h0.375
		h0.264v-0.5h-0.5v0.375H10.738z"/>
	<path fill="#272727" d="M18.533,7.751H18.27c0,1.225-0.494,2.333-1.299,3.135s-1.91,1.299-3.133,1.299
		c-1.227,0-2.332-0.496-3.135-1.299s-1.299-1.91-1.299-3.135c0-1.225,0.496-2.332,1.299-3.134c0.803-0.802,1.908-1.298,3.135-1.298
		c1.223,0,2.328,0.496,3.133,1.298c0.805,0.803,1.299,1.91,1.299,3.134H18.533h0.264c0-2.738-2.221-4.959-4.959-4.959
		c-2.74,0-4.959,2.221-4.959,4.959c0,2.737,2.219,4.959,4.959,4.959c2.738,0,4.959-2.221,4.959-4.959H18.533z"/>
	<path fill="#272727" d="M18.533,7.751v-0.5H18.27h-0.5v0.5c0,1.089-0.438,2.068-1.152,2.782c-0.716,0.714-1.693,1.152-2.779,1.152
		c-1.09,0-2.066-0.439-2.781-1.152C10.344,9.819,9.904,8.84,9.904,7.751s0.439-2.066,1.152-2.781
		c0.714-0.713,1.691-1.151,2.781-1.152c1.086,0,2.063,0.439,2.78,1.152c0.714,0.714,1.151,1.691,1.151,2.78v0.5h0.764h0.264h0.5
		v-0.5c0-3.015-2.444-5.458-5.459-5.459c-3.017,0-5.459,2.444-5.459,5.459c0,3.013,2.442,5.459,5.459,5.459
		c3.015,0,5.459-2.444,5.459-5.459v-0.5h-0.764V7.751v0.5h0.264v-0.5h-0.5c0,1.233-0.498,2.344-1.307,3.153s-1.92,1.307-3.152,1.307
		c-1.233,0-2.345-0.499-3.153-1.307c-0.808-0.809-1.306-1.921-1.306-3.153c0-1.233,0.498-2.344,1.306-3.153
		c0.809-0.808,1.92-1.306,3.153-1.306c1.232,0,2.344,0.499,3.152,1.306c0.809,0.809,1.307,1.92,1.307,3.153h0.5v-0.5h-0.264H18.27
		v0.5h0.5c0-1.36-0.551-2.596-1.445-3.488c-0.894-0.891-2.127-1.445-3.486-1.444c-1.363,0-2.598,0.553-3.488,1.445
		C9.457,5.155,8.904,6.391,8.904,7.751c0,1.362,0.553,2.597,1.445,3.489c0.891,0.893,2.125,1.445,3.488,1.445
		c1.359,0,2.593-0.554,3.486-1.445c0.895-0.892,1.445-2.128,1.445-3.489h-0.5v0.5h0.264V7.751z"/>
	<path fill="#272727" d="M18.533,7.751V7.376H18.27h-0.375v0.375c0,1.122-0.451,2.133-1.188,2.87
		c-0.74,0.736-1.748,1.189-2.869,1.189c-1.125,0-2.134-0.453-2.87-1.189c-0.735-0.736-1.188-1.748-1.188-2.87
		c0-1.123,0.453-2.133,1.188-2.869c0.736-0.735,1.747-1.188,2.87-1.188c1.121,0,2.129,0.453,2.869,1.189v0
		c0.736,0.737,1.188,1.747,1.188,2.869v0.375h0.639h0.264h0.375V7.751c0-2.946-2.389-5.333-5.334-5.334
		c-2.947,0-5.334,2.389-5.334,5.334c0,2.944,2.387,5.334,5.334,5.334c2.945,0,5.334-2.389,5.334-5.334V7.376h-0.639V7.751v0.375
		h0.264V7.751h-0.375c0,1.268-0.514,2.411-1.344,3.243c-0.83,0.83-1.975,1.342-3.24,1.342c-1.268,0-2.412-0.512-3.242-1.344
		c-0.83-0.83-1.342-1.975-1.342-3.241c0-1.267,0.512-2.411,1.342-3.241c0.83-0.83,1.975-1.343,3.242-1.343
		c1.266,0,2.41,0.513,3.24,1.343c0.83,0.831,1.344,1.975,1.344,3.241h0.375V7.376h-0.264H18.27v0.375h0.375
		c0-1.327-0.537-2.53-1.408-3.399v0c-0.871-0.869-2.072-1.408-3.398-1.408c-1.328,0-2.531,0.539-3.4,1.408
		C9.568,5.221,9.029,6.425,9.029,7.751s0.539,2.53,1.408,3.399c0.869,0.871,2.072,1.41,3.4,1.41c1.326,0,2.527-0.539,3.398-1.408
		c0.871-0.871,1.408-2.074,1.408-3.401H18.27v0.375h0.264V7.751z"/>
	<path fill="#272727" d="M18.533,7.751h0.5V7.376v-0.5H18.27h-0.375h-0.5v0.875c0,0.986-0.395,1.869-1.041,2.516l0.001-0.001
		c-0.653,0.648-1.532,1.043-2.517,1.044c-0.989-0.001-1.868-0.396-2.517-1.043c-0.646-0.647-1.042-1.53-1.042-2.516
		c0.001-0.986,0.396-1.868,1.042-2.516v0c0.648-0.646,1.529-1.042,2.517-1.042l0,0c0.985,0.001,1.863,0.396,2.517,1.043l0.853,0.848
		V4.882h-0.5l-0.354,0.354c0.646,0.648,1.04,1.528,1.041,2.516v0.375v0.5h1.139h0.264h0.375h0.5V7.751
		c0-3.222-2.612-5.833-5.834-5.834c-3.224,0-5.833,2.612-5.834,5.834c0,3.22,2.61,5.834,5.834,5.834
		c3.222,0,5.834-2.612,5.834-5.834V7.376v-0.5h-1.139h-0.5v0.875v0.375v0.5h0.764h0.5V7.751v-0.5h-0.875h-0.5v0.5
		c0,1.131-0.456,2.145-1.197,2.889l0,0c-0.741,0.74-1.757,1.195-2.887,1.195c-1.132,0-2.147-0.455-2.889-1.197l0,0
		c-0.74-0.741-1.195-1.757-1.195-2.887s0.455-2.146,1.195-2.888c0.741-0.741,1.757-1.196,2.889-1.196
		c1.129,0,2.146,0.456,2.887,1.196c0.741,0.743,1.197,1.758,1.197,2.888v0.5h0.875h0.5V7.376v-0.5h-0.764H18.27h-0.5v0.875v0.5
		h0.875h0.5v-0.5c0-1.463-0.594-2.794-1.555-3.753l-0.354,0.354h0.5v0V4.144L17.59,3.998c-0.959-0.957-2.287-1.554-3.75-1.554
		l-0.021,0l0.02,0.5l0.006-0.5h-0.008c-1.464,0-2.794,0.596-3.752,1.555c-0.959,0.958-1.555,2.29-1.555,3.753
		s0.596,2.794,1.555,3.752l0,0c0.958,0.961,2.289,1.557,3.754,1.557c1.463,0,2.792-0.596,3.752-1.555l0,0
		c0.961-0.96,1.555-2.291,1.555-3.754v-0.5H18.27h-0.5v0.875v0.5h0.764h0.5V7.751H18.533h-0.5v0.375h0.5v-0.5H18.27v0.5h0.5V7.751
		h-0.5v0.5h0.375v-0.5h-0.5c0,1.19-0.48,2.265-1.262,3.047l0,0c-0.782,0.779-1.855,1.262-3.045,1.262
		c-1.191,0-2.267-0.482-3.047-1.264l-0.004-0.005l0.004,0.005c-0.779-0.78-1.262-1.855-1.262-3.045s0.482-2.266,1.262-3.046
		c0.78-0.779,1.854-1.262,3.045-1.262V3.086l-0.004,0.357h0.004V3.086l-0.004,0.357h0.013l0.013,0L13.84,2.989v0.455l0.018,0
		L13.84,2.989v0.455c1.188,0,2.261,0.482,3.043,1.262l0.354-0.354h-0.5v0V4.56l0.146,0.146c0.781,0.78,1.262,1.855,1.262,3.045h0.5
		v-0.5H18.27v0.5h0.5V7.376h-0.5v0.5h0.264h0.264v-0.5h-0.5v0.375h0.5v-0.5h-0.375v0.5h0.5c0-1.403-0.571-2.675-1.49-3.595
		s-2.191-1.49-3.594-1.489c-1.403,0-2.677,0.569-3.596,1.489c-0.92,0.919-1.488,2.192-1.488,3.595c0,1.402,0.568,2.675,1.488,3.594
		l0,0c0.919,0.922,2.192,1.49,3.596,1.49c1.401,0,2.675-0.568,3.594-1.488l0,0c0.919-0.92,1.49-2.191,1.49-3.596h-0.5v0.5h0.375
		v-0.5h-0.5v0.375h0.5v-0.5h-0.264v0.5h0.5V7.751V7.376h-0.5v0.5h0.639v-0.5h-0.5v0.375c0,1.336-0.54,2.542-1.416,3.418
		c-0.877,0.876-2.082,1.416-3.418,1.416c-1.337,0-2.542-0.541-3.419-1.417c-0.875-0.877-1.415-2.082-1.415-3.417
		c0-1.336,0.54-2.542,1.415-3.418c0.877-0.875,2.082-1.416,3.419-1.416c2.669,0,4.834,2.165,4.834,4.834v0.375h0.5v-0.5h-0.375
		h-0.264h-0.639v0.5h0.5V7.751c0.001-1.258-0.508-2.397-1.334-3.223l-0.854-0.854v1.208h0.5l0.353-0.354
		c-0.827-0.824-1.965-1.334-3.222-1.334l0,0c-1.259,0-2.399,0.511-3.224,1.334L10.613,4.53l0.001-0.001
		C9.79,5.354,9.278,6.493,9.279,7.751c0,1.257,0.51,2.398,1.335,3.223c0.824,0.825,1.963,1.337,3.224,1.336
		c1.258,0.001,2.395-0.511,3.222-1.335l0.001-0.001c0.826-0.825,1.334-1.966,1.334-3.223V7.376h-0.5v0.5h0.375h0.264v-0.5h-0.5
		v0.375H18.533z"/>
</g>
</svg>
