<?xml version="1.0" encoding="utf-8"?>
<!-- Generator: Adobe Illustrator 16.0.0, SVG Export Plug-In . SVG Version: 6.00 Build 0)  -->
<!DOCTYPE svg PUBLIC "-//W3C//DTD SVG 1.1//EN" "http://www.w3.org/Graphics/SVG/1.1/DTD/svg11.dtd">
<svg version="1.1" id="Layer_1" xmlns="http://www.w3.org/2000/svg" xmlns:xlink="http://www.w3.org/1999/xlink" x="0px" y="0px"
	 width="16px" height="16px" viewBox="0 0 16 16" enable-background="new 0 0 16 16" xml:space="preserve">
<g>
	<path fill="#0071BC" d="M0.456,4.052c0.017-0.093,0.029-0.188,0.054-0.28c0.162-0.631,0.58-1.03,1.167-1.27
		c0.248-0.102,0.509-0.15,0.776-0.15c3.739-0.001,7.476-0.006,11.213,0.004c0.696,0.002,1.277,0.287,1.685,0.869
		c0.192,0.276,0.284,0.586,0.284,0.922c-0.002,1.837-0.004,3.672,0.001,5.507c0.003,0.785-0.38,1.317-1.058,1.662
		c-0.302,0.153-0.627,0.22-0.966,0.22c-2.168,0-4.338,0-6.506-0.003c-0.092,0-0.164,0.025-0.235,0.08
		c-1.485,1.132-2.973,2.257-4.457,3.385c-0.099,0.076-0.203,0.133-0.332,0.11c-0.235-0.042-0.369-0.27-0.295-0.504
		c0.244-0.775,0.481-1.552,0.721-2.327c0.064-0.207,0.127-0.412,0.191-0.619c0.01-0.034,0.017-0.069,0.028-0.121
		c-0.099,0-0.188,0.003-0.275,0c-0.499-0.014-0.954-0.16-1.342-0.48c-0.363-0.296-0.591-0.676-0.633-1.15
		C0.475,9.882,0.463,9.86,0.456,9.836C0.456,7.908,0.456,5.979,0.456,4.052z"/>
</g>
</svg>
